<?xml version="1.0" encoding="UTF-8" standalone="no"?>
<!DOCTYPE svg PUBLIC "-//W3C//DTD SVG 1.1//EN"
 "http://www.w3.org/Graphics/SVG/1.1/DTD/svg11.dtd">
<!-- Generated by graphviz version 2.38.0 (20140413.2041)
 -->
<!-- Title: CipAssemblyInitialize Pages: 1 -->
<svg width="1118pt" height="468pt"
 viewBox="0.00 0.00 1118.00 468.00" xmlns="http://www.w3.org/2000/svg" xmlns:xlink="http://www.w3.org/1999/xlink">
<g id="graph0" class="graph" transform="scale(1 1) rotate(0) translate(4 464)">
<title>CipAssemblyInitialize</title>
<!-- Node1 -->
<g id="node1" class="node"><title>Node1</title>
<polygon fill="#bfbfbf" stroke="black" points="0,-155.5 0,-174.5 111,-174.5 111,-155.5 0,-155.5"/>
<text text-anchor="middle" x="55.5" y="-162.5" font-family="Helvetica,sans-Serif" font-size="10.00">CipAssemblyInitialize</text>
</g>
<!-- Node2 -->
<g id="node2" class="node"><title>Node2</title>
<g id="a_node2"><a xlink:href="../../df/d2e/cipassembly_8c.html#a5973ef42110a1bdf6c7699e35e04b7d4" target="_top" xlink:title="Constructor for the assembly object class. ">
<polygon fill="none" stroke="black" points="147,-155.5 147,-174.5 262,-174.5 262,-155.5 147,-155.5"/>
<text text-anchor="middle" x="204.5" y="-162.5" font-family="Helvetica,sans-Serif" font-size="10.00">CreateAssemblyClass</text>
</a>
</g>
</g>
<!-- Node1&#45;&gt;Node2 -->
<g id="edge1" class="edge"><title>Node1&#45;&gt;Node2</title>
<path fill="none" stroke="midnightblue" d="M111.237,-165C119.478,-165 128.056,-165 136.518,-165"/>
<polygon fill="midnightblue" stroke="midnightblue" points="136.751,-168.5 146.751,-165 136.751,-161.5 136.751,-168.5"/>
</g>
<!-- Node3 -->
<g id="node3" class="node"><title>Node3</title>
<g id="a_node3"><a xlink:href="../../d2/d3d/cipcommon_8c.html#a3dfa07bc40e59ba348d713272d1cbfdb" target="_top" xlink:title="CreateCipClass">
<polygon fill="none" stroke="black" points="324.5,-269.5 324.5,-288.5 410.5,-288.5 410.5,-269.5 324.5,-269.5"/>
<text text-anchor="middle" x="367.5" y="-276.5" font-family="Helvetica,sans-Serif" font-size="10.00">CreateCipClass</text>
</a>
</g>
</g>
<!-- Node2&#45;&gt;Node3 -->
<g id="edge2" class="edge"><title>Node2&#45;&gt;Node3</title>
<path fill="none" stroke="midnightblue" d="M218.95,-174.523C246.7,-194.173 310.536,-239.373 344.426,-263.37"/>
<polygon fill="midnightblue" stroke="midnightblue" points="342.563,-266.34 352.747,-269.262 346.608,-260.627 342.563,-266.34"/>
</g>
<!-- Node12 -->
<g id="node12" class="node"><title>Node12</title>
<g id="a_node12"><a xlink:href="../../d2/dc9/group__CIP__API.html#ga35f639b135ec3c3903f49fd65daed307" target="_top" xlink:title="Insert a service in an instance of a CIP object. ">
<polygon fill="none" stroke="black" points="508.5,-174.5 508.5,-193.5 582.5,-193.5 582.5,-174.5 508.5,-174.5"/>
<text text-anchor="middle" x="545.5" y="-181.5" font-family="Helvetica,sans-Serif" font-size="10.00">InsertService</text>
</a>
</g>
</g>
<!-- Node2&#45;&gt;Node12 -->
<g id="edge31" class="edge"><title>Node2&#45;&gt;Node12</title>
<path fill="none" stroke="midnightblue" d="M262.241,-168.18C328.523,-171.895 436.908,-177.97 498.292,-181.41"/>
<polygon fill="midnightblue" stroke="midnightblue" points="498.277,-184.915 508.457,-181.98 498.668,-177.926 498.277,-184.915"/>
</g>
<!-- Node15 -->
<g id="node15" class="node"><title>Node15</title>
<g id="a_node15"><a xlink:href="../../d2/d3d/cipcommon_8c.html#a4d2d00f2e1252b192ef73aa388898e7d" target="_top" xlink:title="Generic implementation of the GetAttributeSingle CIP service. ">
<polygon fill="none" stroke="black" points="497.5,-136.5 497.5,-155.5 593.5,-155.5 593.5,-136.5 497.5,-136.5"/>
<text text-anchor="middle" x="545.5" y="-143.5" font-family="Helvetica,sans-Serif" font-size="10.00">GetAttributeSingle</text>
</a>
</g>
</g>
<!-- Node2&#45;&gt;Node15 -->
<g id="edge30" class="edge"><title>Node2&#45;&gt;Node15</title>
<path fill="none" stroke="midnightblue" d="M262.241,-161.82C324.732,-158.317 424.647,-152.717 487.315,-149.205"/>
<polygon fill="midnightblue" stroke="midnightblue" points="487.634,-152.693 497.422,-148.639 487.242,-145.704 487.634,-152.693"/>
</g>
<!-- Node23 -->
<g id="node23" class="node"><title>Node23</title>
<g id="a_node23"><a xlink:href="../../df/d2e/cipassembly_8c.html#a67ceeb31f4af6f6d7e6c1825227533cb" target="_top" xlink:title="Implementation of the SetAttributeSingle CIP service for Assembly Objects. Currently only supports At...">
<polygon fill="none" stroke="black" points="298,-66.5 298,-85.5 437,-85.5 437,-66.5 298,-66.5"/>
<text text-anchor="middle" x="367.5" y="-73.5" font-family="Helvetica,sans-Serif" font-size="10.00">SetAssemblyAttributeSingle</text>
</a>
</g>
</g>
<!-- Node2&#45;&gt;Node23 -->
<g id="edge32" class="edge"><title>Node2&#45;&gt;Node23</title>
<path fill="none" stroke="midnightblue" d="M222.73,-155.475C250.786,-139.966 306.542,-109.145 339.772,-90.7751"/>
<polygon fill="midnightblue" stroke="midnightblue" points="341.847,-93.627 348.906,-85.7259 338.461,-87.5008 341.847,-93.627"/>
</g>
<!-- Node4 -->
<g id="node4" class="node"><title>Node4</title>
<g id="a_node4"><a xlink:href="../../d2/dc9/group__CIP__API.html#ga98bd609c80ece316406363575b4a89ea" target="_top" xlink:title="Get a pointer to a CIP object with given class code. ">
<polygon fill="none" stroke="black" points="509,-440.5 509,-459.5 582,-459.5 582,-440.5 509,-440.5"/>
<text text-anchor="middle" x="545.5" y="-447.5" font-family="Helvetica,sans-Serif" font-size="10.00">GetCipClass</text>
</a>
</g>
</g>
<!-- Node3&#45;&gt;Node4 -->
<g id="edge3" class="edge"><title>Node3&#45;&gt;Node4</title>
<path fill="none" stroke="midnightblue" d="M372.799,-288.85C384.749,-315.103 420.946,-387.379 473,-426 480.805,-431.791 490.093,-436.241 499.35,-439.641"/>
<polygon fill="midnightblue" stroke="midnightblue" points="498.328,-442.989 508.921,-442.817 500.532,-436.346 498.328,-442.989"/>
</g>
<!-- Node6 -->
<g id="node6" class="node"><title>Node6</title>
<g id="a_node6"><a xlink:href="../../d5/dc5/group__CIP__CALLBACK__API.html#ga70ee7034f390fd3759d42a50e60e1b1c" target="_top" xlink:title="Allocate memory for the CIP stack. ">
<polygon fill="none" stroke="black" points="717,-345.5 717,-364.5 776,-364.5 776,-345.5 717,-345.5"/>
<text text-anchor="middle" x="746.5" y="-352.5" font-family="Helvetica,sans-Serif" font-size="10.00">CipCalloc</text>
</a>
</g>
</g>
<!-- Node3&#45;&gt;Node6 -->
<g id="edge5" class="edge"><title>Node3&#45;&gt;Node6</title>
<path fill="none" stroke="midnightblue" d="M373.668,-288.814C386.633,-312.23 423.111,-371.054 473,-393 555.973,-429.5 665.673,-391.005 716.881,-368.643"/>
<polygon fill="midnightblue" stroke="midnightblue" points="718.335,-371.827 726.03,-364.545 715.473,-365.439 718.335,-371.827"/>
</g>
<!-- Node7 -->
<g id="node7" class="node"><title>Node7</title>
<g id="a_node7"><a xlink:href="../../d2/dc9/group__CIP__API.html#ga39dafca98f844a12511af11b1273d0a8" target="_top" xlink:title="Add a number of CIP instances to a given CIP class. ">
<polygon fill="none" stroke="black" points="499.5,-364.5 499.5,-383.5 591.5,-383.5 591.5,-364.5 499.5,-364.5"/>
<text text-anchor="middle" x="545.5" y="-371.5" font-family="Helvetica,sans-Serif" font-size="10.00">AddCipInstances</text>
</a>
</g>
</g>
<!-- Node3&#45;&gt;Node7 -->
<g id="edge6" class="edge"><title>Node3&#45;&gt;Node7</title>
<path fill="none" stroke="midnightblue" d="M378.927,-288.658C396.822,-304.728 435.122,-336.97 473,-355 478.275,-357.511 483.932,-359.729 489.67,-361.68"/>
<polygon fill="midnightblue" stroke="midnightblue" points="488.76,-365.062 499.349,-364.714 490.854,-358.383 488.76,-365.062"/>
</g>
<!-- Node8 -->
<g id="node8" class="node"><title>Node8</title>
<g id="a_node8"><a xlink:href="../../d9/d7d/cipmessagerouter_8c.html#ae00f521e394d00fd5fd99271a6983116" target="_top" xlink:title="Register a CIP Class to the message router. ">
<polygon fill="none" stroke="black" points="498.5,-326.5 498.5,-345.5 592.5,-345.5 592.5,-326.5 498.5,-326.5"/>
<text text-anchor="middle" x="545.5" y="-333.5" font-family="Helvetica,sans-Serif" font-size="10.00">RegisterCipClass</text>
</a>
</g>
</g>
<!-- Node3&#45;&gt;Node8 -->
<g id="edge8" class="edge"><title>Node3&#45;&gt;Node8</title>
<path fill="none" stroke="midnightblue" d="M392.783,-288.527C413.829,-296.616 445.189,-308.267 473,-317 480.496,-319.354 488.492,-321.668 496.322,-323.826"/>
<polygon fill="midnightblue" stroke="midnightblue" points="495.532,-327.238 506.099,-326.468 497.359,-320.481 495.532,-327.238"/>
</g>
<!-- Node9 -->
<g id="node9" class="node"><title>Node9</title>
<g id="a_node9"><a xlink:href="../../d2/dc9/group__CIP__API.html#ga5ec1d2c432792c39f93c170943964302" target="_top" xlink:title="Allocates Attribute bitmasks. ">
<polygon fill="none" stroke="black" points="486.5,-288.5 486.5,-307.5 604.5,-307.5 604.5,-288.5 486.5,-288.5"/>
<text text-anchor="middle" x="545.5" y="-295.5" font-family="Helvetica,sans-Serif" font-size="10.00">AllocateAttributeMasks</text>
</a>
</g>
</g>
<!-- Node3&#45;&gt;Node9 -->
<g id="edge10" class="edge"><title>Node3&#45;&gt;Node9</title>
<path fill="none" stroke="midnightblue" d="M410.656,-283.551C430.323,-285.674 454.227,-288.255 476.362,-290.644"/>
<polygon fill="midnightblue" stroke="midnightblue" points="476.068,-294.133 486.386,-291.726 476.82,-287.173 476.068,-294.133"/>
</g>
<!-- Node11 -->
<g id="node11" class="node"><title>Node11</title>
<g id="a_node11"><a xlink:href="../../d2/dc9/group__CIP__API.html#gac207feb53c1f98b45f3934bbea63d618" target="_top" xlink:title="Insert an attribute in an instance of a CIP class. ">
<polygon fill="none" stroke="black" points="506.5,-250.5 506.5,-269.5 584.5,-269.5 584.5,-250.5 506.5,-250.5"/>
<text text-anchor="middle" x="545.5" y="-257.5" font-family="Helvetica,sans-Serif" font-size="10.00">InsertAttribute</text>
</a>
</g>
</g>
<!-- Node3&#45;&gt;Node11 -->
<g id="edge13" class="edge"><title>Node3&#45;&gt;Node11</title>
<path fill="none" stroke="midnightblue" d="M410.656,-274.449C436.446,-271.665 469.525,-268.094 496.344,-265.199"/>
<polygon fill="midnightblue" stroke="midnightblue" points="496.722,-268.678 506.289,-264.125 495.971,-261.719 496.722,-268.678"/>
</g>
<!-- Node3&#45;&gt;Node12 -->
<g id="edge15" class="edge"><title>Node3&#45;&gt;Node12</title>
<path fill="none" stroke="midnightblue" d="M378.927,-269.342C396.822,-253.272 435.122,-221.03 473,-203 481.005,-199.19 489.891,-196.053 498.601,-193.503"/>
<polygon fill="midnightblue" stroke="midnightblue" points="499.57,-196.867 508.304,-190.87 497.736,-190.111 499.57,-196.867"/>
</g>
<!-- Node13 -->
<g id="node13" class="node"><title>Node13</title>
<g id="a_node13"><a xlink:href="../../d2/d3d/cipcommon_8c.html#ab5e27f4fb889d26a7dcd993cf2d3ddfe" target="_top" xlink:title="Generic implementation of the GetAttributeAll CIP service. ">
<polygon fill="none" stroke="black" points="505.5,-212.5 505.5,-231.5 585.5,-231.5 585.5,-212.5 505.5,-212.5"/>
<text text-anchor="middle" x="545.5" y="-219.5" font-family="Helvetica,sans-Serif" font-size="10.00">GetAttributeAll</text>
</a>
</g>
</g>
<!-- Node3&#45;&gt;Node13 -->
<g id="edge16" class="edge"><title>Node3&#45;&gt;Node13</title>
<path fill="none" stroke="midnightblue" d="M392.783,-269.473C413.829,-261.384 445.189,-249.733 473,-241 480.496,-238.646 488.492,-236.332 496.322,-234.174"/>
<polygon fill="midnightblue" stroke="midnightblue" points="497.359,-237.519 506.099,-231.532 495.532,-230.762 497.359,-237.519"/>
</g>
<!-- Node3&#45;&gt;Node15 -->
<g id="edge19" class="edge"><title>Node3&#45;&gt;Node15</title>
<path fill="none" stroke="midnightblue" d="M374.505,-269.345C388.741,-247.285 426.832,-192.944 473,-165 477.486,-162.285 482.36,-159.952 487.384,-157.949"/>
<polygon fill="midnightblue" stroke="midnightblue" points="488.906,-161.124 497.167,-154.491 486.572,-154.524 488.906,-161.124"/>
</g>
<!-- Node5 -->
<g id="node5" class="node"><title>Node5</title>
<g id="a_node5"><a xlink:href="../../d9/d7d/cipmessagerouter_8c.html#a7a9f44f2d6f010b6f6ee922d378d9bb1" target="_top" xlink:title="Get the registered MessageRouter object corresponding to ClassID. given a class ID, return a pointer to the registration node for that object. ">
<polygon fill="none" stroke="black" points="692.5,-440.5 692.5,-459.5 800.5,-459.5 800.5,-440.5 692.5,-440.5"/>
<text text-anchor="middle" x="746.5" y="-447.5" font-family="Helvetica,sans-Serif" font-size="10.00">GetRegisteredObject</text>
</a>
</g>
</g>
<!-- Node4&#45;&gt;Node5 -->
<g id="edge4" class="edge"><title>Node4&#45;&gt;Node5</title>
<path fill="none" stroke="midnightblue" d="M582.077,-450C609.838,-450 649.11,-450 682.199,-450"/>
<polygon fill="midnightblue" stroke="midnightblue" points="682.249,-453.5 692.249,-450 682.249,-446.5 682.249,-453.5"/>
</g>
<!-- Node7&#45;&gt;Node6 -->
<g id="edge7" class="edge"><title>Node7&#45;&gt;Node6</title>
<path fill="none" stroke="midnightblue" d="M591.656,-369.689C626.321,-366.379 673.679,-361.857 706.659,-358.708"/>
<polygon fill="midnightblue" stroke="midnightblue" points="707.206,-362.172 716.828,-357.738 706.54,-355.204 707.206,-362.172"/>
</g>
<!-- Node8&#45;&gt;Node6 -->
<g id="edge9" class="edge"><title>Node8&#45;&gt;Node6</title>
<path fill="none" stroke="midnightblue" d="M592.655,-340.407C627.259,-343.711 674.084,-348.181 706.753,-351.301"/>
<polygon fill="midnightblue" stroke="midnightblue" points="706.542,-354.796 716.829,-352.263 707.207,-347.828 706.542,-354.796"/>
</g>
<!-- Node9&#45;&gt;Node6 -->
<g id="edge12" class="edge"><title>Node9&#45;&gt;Node6</title>
<path fill="none" stroke="midnightblue" d="M583.299,-307.553C594.464,-310.512 606.75,-313.83 618,-317 648.126,-325.49 682.084,-335.64 707.376,-343.313"/>
<polygon fill="midnightblue" stroke="midnightblue" points="706.375,-346.667 716.961,-346.228 708.412,-339.969 706.375,-346.667"/>
</g>
<!-- Node10 -->
<g id="node10" class="node"><title>Node10</title>
<g id="a_node10"><a xlink:href="../../d2/dc9/group__CIP__API.html#ga1eb3004bbf086b276500e1d6e7a2f677" target="_top" xlink:title="Calculates Byte&#45;Index of Attribute. ">
<polygon fill="none" stroke="black" points="705.5,-250.5 705.5,-269.5 787.5,-269.5 787.5,-250.5 705.5,-250.5"/>
<text text-anchor="middle" x="746.5" y="-257.5" font-family="Helvetica,sans-Serif" font-size="10.00">CalculateIndex</text>
</a>
</g>
</g>
<!-- Node9&#45;&gt;Node10 -->
<g id="edge11" class="edge"><title>Node9&#45;&gt;Node10</title>
<path fill="none" stroke="midnightblue" d="M596.459,-288.46C626.663,-282.692 665.045,-275.363 695.293,-269.587"/>
<polygon fill="midnightblue" stroke="midnightblue" points="696.05,-273.006 705.216,-267.692 694.737,-266.13 696.05,-273.006"/>
</g>
<!-- Node11&#45;&gt;Node10 -->
<g id="edge14" class="edge"><title>Node11&#45;&gt;Node10</title>
<path fill="none" stroke="midnightblue" d="M584.869,-260C616.19,-260 660.705,-260 694.933,-260"/>
<polygon fill="midnightblue" stroke="midnightblue" points="695.199,-263.5 705.199,-260 695.199,-256.5 695.199,-263.5"/>
</g>
<!-- Node13&#45;&gt;Node10 -->
<g id="edge18" class="edge"><title>Node13&#45;&gt;Node10</title>
<path fill="none" stroke="midnightblue" d="M585.816,-229.508C617.125,-235.486 661.168,-243.896 695.072,-250.37"/>
<polygon fill="midnightblue" stroke="midnightblue" points="694.763,-253.875 705.242,-252.313 696.076,-246.999 694.763,-253.875"/>
</g>
<!-- Node14 -->
<g id="node14" class="node"><title>Node14</title>
<g id="a_node14"><a xlink:href="../../d2/d3d/cipcommon_8c.html#a1150da559a1729bf2a1ccf1634f17ad2" target="_top" xlink:title="GetCipService">
<polygon fill="none" stroke="black" points="706.5,-212.5 706.5,-231.5 786.5,-231.5 786.5,-212.5 706.5,-212.5"/>
<text text-anchor="middle" x="746.5" y="-219.5" font-family="Helvetica,sans-Serif" font-size="10.00">GetCipService</text>
</a>
</g>
</g>
<!-- Node13&#45;&gt;Node14 -->
<g id="edge17" class="edge"><title>Node13&#45;&gt;Node14</title>
<path fill="none" stroke="midnightblue" d="M585.816,-222C617.433,-222 662.036,-222 696.069,-222"/>
<polygon fill="midnightblue" stroke="midnightblue" points="696.266,-225.5 706.266,-222 696.266,-218.5 696.266,-225.5"/>
</g>
<!-- Node15&#45;&gt;Node10 -->
<g id="edge21" class="edge"><title>Node15&#45;&gt;Node10</title>
<path fill="none" stroke="midnightblue" d="M593.57,-152.287C602.369,-155.108 610.991,-159.167 618,-165 646.729,-188.908 624.625,-217.891 654,-241 665.707,-250.21 680.786,-255.258 695.313,-257.944"/>
<polygon fill="midnightblue" stroke="midnightblue" points="694.821,-261.41 705.233,-259.449 695.871,-254.489 694.821,-261.41"/>
</g>
<!-- Node16 -->
<g id="node16" class="node"><title>Node16</title>
<g id="a_node16"><a xlink:href="../../d2/dc9/group__CIP__API.html#ga5a14c8d76acacb09312b709bb0a76265" target="_top" xlink:title="Get a pointer to an instance&#39;s attribute. ">
<polygon fill="none" stroke="black" points="704.5,-80.5 704.5,-99.5 788.5,-99.5 788.5,-80.5 704.5,-80.5"/>
<text text-anchor="middle" x="746.5" y="-87.5" font-family="Helvetica,sans-Serif" font-size="10.00">GetCipAttribute</text>
</a>
</g>
</g>
<!-- Node15&#45;&gt;Node16 -->
<g id="edge20" class="edge"><title>Node15&#45;&gt;Node16</title>
<path fill="none" stroke="midnightblue" d="M571.414,-136.417C593.024,-128.35 625.261,-116.895 654,-109 666.965,-105.438 681.126,-102.191 694.348,-99.4284"/>
<polygon fill="midnightblue" stroke="midnightblue" points="695.141,-102.839 704.241,-97.4131 693.744,-95.9797 695.141,-102.839"/>
</g>
<!-- Node17 -->
<g id="node17" class="node"><title>Node17</title>
<g id="a_node17"><a xlink:href="../../d5/dc5/group__CIP__CALLBACK__API.html#ga098272a8ae10facf3086c5c82a0080db" target="_top" xlink:title="Inform the application that the data of an assembly object will be sent. ">
<polygon fill="none" stroke="black" points="680.5,-174.5 680.5,-193.5 812.5,-193.5 812.5,-174.5 680.5,-174.5"/>
<text text-anchor="middle" x="746.5" y="-181.5" font-family="Helvetica,sans-Serif" font-size="10.00">BeforeAssemblyDataSend</text>
</a>
</g>
</g>
<!-- Node15&#45;&gt;Node17 -->
<g id="edge22" class="edge"><title>Node15&#45;&gt;Node17</title>
<path fill="none" stroke="midnightblue" d="M593.66,-155.005C621.111,-160.247 655.993,-166.908 685.399,-172.523"/>
<polygon fill="midnightblue" stroke="midnightblue" points="685.072,-176.024 695.551,-174.462 686.385,-169.148 685.072,-176.024"/>
</g>
<!-- Node18 -->
<g id="node18" class="node"><title>Node18</title>
<g id="a_node18"><a xlink:href="../../d2/dc9/group__CIP__API.html#gaece1b7dd2aeec306cb33b86b2ee21980" target="_top" xlink:title="Produce the data according to CIP encoding onto the message buffer. ">
<polygon fill="none" stroke="black" points="711,-118.5 711,-137.5 782,-137.5 782,-118.5 711,-118.5"/>
<text text-anchor="middle" x="746.5" y="-125.5" font-family="Helvetica,sans-Serif" font-size="10.00">EncodeData</text>
</a>
</g>
</g>
<!-- Node15&#45;&gt;Node18 -->
<g id="edge23" class="edge"><title>Node15&#45;&gt;Node18</title>
<path fill="none" stroke="midnightblue" d="M593.66,-141.734C625.981,-138.811 668.603,-134.956 700.46,-132.074"/>
<polygon fill="midnightblue" stroke="midnightblue" points="701.177,-135.524 710.821,-131.137 700.546,-128.552 701.177,-135.524"/>
</g>
<!-- Node18&#45;&gt;Node18 -->
<g id="edge29" class="edge"><title>Node18&#45;&gt;Node18</title>
<path fill="none" stroke="midnightblue" d="M718.757,-137.757C705.26,-146.565 714.508,-156 746.5,-156 768.495,-156 779.739,-151.541 780.233,-145.891"/>
<polygon fill="midnightblue" stroke="midnightblue" points="782.991,-143.734 774.243,-137.757 777.354,-147.885 782.991,-143.734"/>
</g>
<!-- Node19 -->
<g id="node19" class="node"><title>Node19</title>
<g id="a_node19"><a xlink:href="../../d4/d91/group__ENCAP.html#gae267a8684cc6ee1b3bd83df03260b7aa" target="_top" xlink:title="converts UINT8 data from host to little endian an writes it to buffer. ">
<polygon fill="none" stroke="black" points="875.5,-175.5 875.5,-194.5 977.5,-194.5 977.5,-175.5 875.5,-175.5"/>
<text text-anchor="middle" x="926.5" y="-182.5" font-family="Helvetica,sans-Serif" font-size="10.00">AddSintToMessage</text>
</a>
</g>
</g>
<!-- Node18&#45;&gt;Node19 -->
<g id="edge24" class="edge"><title>Node18&#45;&gt;Node19</title>
<path fill="none" stroke="midnightblue" d="M777.293,-137.541C807.071,-147.076 853.031,-161.794 885.871,-172.31"/>
<polygon fill="midnightblue" stroke="midnightblue" points="885.019,-175.712 895.61,-175.428 887.153,-169.045 885.019,-175.712"/>
</g>
<!-- Node20 -->
<g id="node20" class="node"><title>Node20</title>
<g id="a_node20"><a xlink:href="../../d4/d91/group__ENCAP.html#gae689aac2a85bf49fb356ec94c8800799" target="_top" xlink:title="converts UINT16 data from host to little endian an writes it to buffer. ">
<polygon fill="none" stroke="black" points="1014,-99.5 1014,-118.5 1110,-118.5 1110,-99.5 1014,-99.5"/>
<text text-anchor="middle" x="1062" y="-106.5" font-family="Helvetica,sans-Serif" font-size="10.00">AddIntToMessage</text>
</a>
</g>
</g>
<!-- Node18&#45;&gt;Node20 -->
<g id="edge25" class="edge"><title>Node18&#45;&gt;Node20</title>
<path fill="none" stroke="midnightblue" d="M782.001,-130.406C827.19,-133.009 908.81,-135.818 978,-128 990.981,-126.533 1004.89,-123.815 1017.54,-120.884"/>
<polygon fill="midnightblue" stroke="midnightblue" points="1018.48,-124.258 1027.38,-118.507 1016.83,-117.454 1018.48,-124.258"/>
</g>
<!-- Node21 -->
<g id="node21" class="node"><title>Node21</title>
<g id="a_node21"><a xlink:href="../../d4/d91/group__ENCAP.html#gaafc3c9e3ff582c9b7e438ae2b1fdf822" target="_top" xlink:title="Converts UINT32 data from host to little endian and writes it to buffer. ">
<polygon fill="none" stroke="black" points="875,-99.5 875,-118.5 978,-118.5 978,-99.5 875,-99.5"/>
<text text-anchor="middle" x="926.5" y="-106.5" font-family="Helvetica,sans-Serif" font-size="10.00">AddDintToMessage</text>
</a>
</g>
</g>
<!-- Node18&#45;&gt;Node21 -->
<g id="edge26" class="edge"><title>Node18&#45;&gt;Node21</title>
<path fill="none" stroke="midnightblue" d="M782.243,-124.292C805.568,-121.802 836.934,-118.454 864.37,-115.525"/>
<polygon fill="midnightblue" stroke="midnightblue" points="865.095,-118.968 874.667,-114.426 864.352,-112.007 865.095,-118.968"/>
</g>
<!-- Node22 -->
<g id="node22" class="node"><title>Node22</title>
<g id="a_node22"><a xlink:href="../../d2/d3d/cipcommon_8c.html#a6eec1752e2cffbbab16bff95fa145bd3" target="_top" xlink:title="EncodeEPath">
<polygon fill="none" stroke="black" points="888,-61.5 888,-80.5 965,-80.5 965,-61.5 888,-61.5"/>
<text text-anchor="middle" x="926.5" y="-68.5" font-family="Helvetica,sans-Serif" font-size="10.00">EncodeEPath</text>
</a>
</g>
</g>
<!-- Node18&#45;&gt;Node22 -->
<g id="edge27" class="edge"><title>Node18&#45;&gt;Node22</title>
<path fill="none" stroke="midnightblue" d="M782.022,-123.188C799.429,-120.174 820.679,-115.588 839,-109 856.025,-102.878 858.501,-97.4223 875,-90 879.413,-88.0148 884.101,-86.0572 888.774,-84.1968"/>
<polygon fill="midnightblue" stroke="midnightblue" points="890.182,-87.4047 898.25,-80.5371 887.661,-80.8748 890.182,-87.4047"/>
</g>
<!-- Node22&#45;&gt;Node20 -->
<g id="edge28" class="edge"><title>Node22&#45;&gt;Node20</title>
<path fill="none" stroke="midnightblue" d="M961.188,-80.589C978.263,-85.4494 999.2,-91.4091 1017.48,-96.6127"/>
<polygon fill="midnightblue" stroke="midnightblue" points="1016.75,-100.043 1027.32,-99.4141 1018.66,-93.31 1016.75,-100.043"/>
</g>
<!-- Node23&#45;&gt;Node16 -->
<g id="edge34" class="edge"><title>Node23&#45;&gt;Node16</title>
<path fill="none" stroke="midnightblue" d="M437.209,-78.5515C511.296,-81.3028 627.538,-85.6194 694.101,-88.0913"/>
<polygon fill="midnightblue" stroke="midnightblue" points="694.22,-91.598 704.343,-88.4716 694.48,-84.6029 694.22,-91.598"/>
</g>
<!-- Node24 -->
<g id="node24" class="node"><title>Node24</title>
<g id="a_node24"><a xlink:href="../../d5/dc5/group__CIP__CALLBACK__API.html#ga5307d18b1bd79f151588391cb4ebf30a" target="_top" xlink:title="Call back function to inform application on received data for an assembly object. ...">
<polygon fill="none" stroke="black" points="474,-47.5 474,-66.5 617,-66.5 617,-47.5 474,-47.5"/>
<text text-anchor="middle" x="545.5" y="-54.5" font-family="Helvetica,sans-Serif" font-size="10.00">AfterAssemblyDataReceived</text>
</a>
</g>
</g>
<!-- Node23&#45;&gt;Node24 -->
<g id="edge33" class="edge"><title>Node23&#45;&gt;Node24</title>
<path fill="none" stroke="midnightblue" d="M437.05,-68.5997C445.816,-67.6534 454.853,-66.6778 463.789,-65.7131"/>
<polygon fill="midnightblue" stroke="midnightblue" points="464.249,-69.1839 473.815,-64.6307 463.497,-62.2243 464.249,-69.1839"/>
</g>
<!-- Node25 -->
<g id="node25" class="node"><title>Node25</title>
<g id="a_node25"><a xlink:href="../../d5/d35/cipconnectionmanager_8c.html#a2ca3eb3dc7fe805b410d849612720b4c" target="_top" xlink:title="IsConnectedOutputAssembly">
<polygon fill="none" stroke="black" points="473,-9.5 473,-28.5 618,-28.5 618,-9.5 473,-9.5"/>
<text text-anchor="middle" x="545.5" y="-16.5" font-family="Helvetica,sans-Serif" font-size="10.00">IsConnectedOutputAssembly</text>
</a>
</g>
</g>
<!-- Node23&#45;&gt;Node25 -->
<g id="edge35" class="edge"><title>Node23&#45;&gt;Node25</title>
<path fill="none" stroke="midnightblue" d="M392.783,-66.4732C413.829,-58.3844 445.189,-46.7327 473,-38 480.496,-35.6462 488.492,-33.3325 496.322,-31.174"/>
<polygon fill="midnightblue" stroke="midnightblue" points="497.359,-34.5194 506.099,-28.5317 495.532,-27.7618 497.359,-34.5194"/>
</g>
<!-- Node26 -->
<g id="node26" class="node"><title>Node26</title>
<g id="a_node26"><a xlink:href="../../d9/dab/cip_2CMakeLists_8txt.html#acd2a52c78aafeccf09e8a5e6ddb0ce92" target="_top" xlink:title="if">
<polygon fill="none" stroke="black" points="732,-38.5 732,-57.5 761,-57.5 761,-38.5 732,-38.5"/>
<text text-anchor="middle" x="746.5" y="-45.5" font-family="Helvetica,sans-Serif" font-size="10.00">if</text>
</a>
</g>
</g>
<!-- Node25&#45;&gt;Node26 -->
<g id="edge36" class="edge"><title>Node25&#45;&gt;Node26</title>
<path fill="none" stroke="midnightblue" d="M611.936,-28.5359C649.571,-34.0204 694.602,-40.5826 721.584,-44.5147"/>
<polygon fill="midnightblue" stroke="midnightblue" points="721.242,-48.0018 731.642,-45.9805 722.251,-41.0749 721.242,-48.0018"/>
</g>
<!-- Node27 -->
<g id="node27" class="node"><title>Node27</title>
<g id="a_node27"><a xlink:href="../../df/d91/cipconnectionobject_8c.html#a4c3d0e8258e857f80e5b7111519f7daa" target="_top" xlink:title="ConnectionObjectIsTypeIOConnection">
<polygon fill="none" stroke="black" points="654,-0.5 654,-19.5 839,-19.5 839,-0.5 654,-0.5"/>
<text text-anchor="middle" x="746.5" y="-7.5" font-family="Helvetica,sans-Serif" font-size="10.00">ConnectionObjectIsTypeIOConnection</text>
</a>
</g>
</g>
<!-- Node25&#45;&gt;Node27 -->
<g id="edge37" class="edge"><title>Node25&#45;&gt;Node27</title>
<path fill="none" stroke="midnightblue" d="M618.062,-15.7635C626.392,-15.3868 635.005,-14.9973 643.642,-14.6066"/>
<polygon fill="midnightblue" stroke="midnightblue" points="643.945,-18.0966 653.777,-14.1483 643.629,-11.1037 643.945,-18.0966"/>
</g>
</g>
</svg>
