<?xml version="1.0" encoding="UTF-8" standalone="no"?>
<!DOCTYPE svg PUBLIC "-//W3C//DTD SVG 1.1//EN"
 "http://www.w3.org/Graphics/SVG/1.1/DTD/svg11.dtd">
<!-- Generated by graphviz version 2.36.0 (20140111.2315)
 -->
<!-- Title: src/cip/cipconnectionobject.h Pages: 1 -->
<svg width="581pt" height="308pt"
 viewBox="0.00 0.00 581.16 308.00" xmlns="http://www.w3.org/2000/svg" xmlns:xlink="http://www.w3.org/1999/xlink">
<g id="graph0" class="graph" transform="scale(1 1) rotate(0) translate(4 304)">
<title>src/cip/cipconnectionobject.h</title>
<!-- Node1 -->
<g id="node1" class="node"><title>Node1</title>
<polygon fill="#bfbfbf" stroke="black" points="107.66,-280.5 107.66,-299.5 250.66,-299.5 250.66,-280.5 107.66,-280.5"/>
<text text-anchor="middle" x="179.16" y="-287.5" font-family="Helvetica,sans-Serif" font-size="10.00">src/cip/cipconnectionobject.h</text>
</g>
<!-- Node2 -->
<g id="node2" class="node"><title>Node2</title>
<g id="a_node2"><a xlink:href="../../d7/d69/typedefs_8h.html" target="_top" xlink:title="typedefs.h">
<polygon fill="none" stroke="black" points="357.16,-56.5 357.16,-75.5 419.16,-75.5 419.16,-56.5 357.16,-56.5"/>
<text text-anchor="middle" x="388.16" y="-63.5" font-family="Helvetica,sans-Serif" font-size="10.00">typedefs.h</text>
</a>
</g>
</g>
<!-- Node1&#45;&gt;Node2 -->
<g id="edge1" class="edge"><title>Node1&#45;&gt;Node2</title>
<path fill="none" stroke="midnightblue" d="M242.8,-280.487C334.828,-266.648 497.544,-235.9 529.16,-188 561.629,-138.808 475.914,-98.1946 424.184,-78.9747"/>
<polygon fill="midnightblue" stroke="midnightblue" points="425.241,-75.6351 414.647,-75.5286 422.862,-82.2185 425.241,-75.6351"/>
</g>
<!-- Node7 -->
<g id="node7" class="node"><title>Node7</title>
<g id="a_node7"><a xlink:href="../../df/d28/ciptypes_8h.html" target="_top" xlink:title="ciptypes.h">
<polygon fill="none" stroke="black" points="176.16,-168.5 176.16,-187.5 238.16,-187.5 238.16,-168.5 176.16,-168.5"/>
<text text-anchor="middle" x="207.16" y="-175.5" font-family="Helvetica,sans-Serif" font-size="10.00">ciptypes.h</text>
</a>
</g>
</g>
<!-- Node1&#45;&gt;Node7 -->
<g id="edge6" class="edge"><title>Node1&#45;&gt;Node7</title>
<path fill="none" stroke="midnightblue" d="M181.357,-280.368C185.876,-262.617 196.3,-221.666 202.426,-197.597"/>
<polygon fill="midnightblue" stroke="midnightblue" points="205.898,-198.146 204.973,-187.591 199.114,-196.419 205.898,-198.146"/>
</g>
<!-- Node10 -->
<g id="node10" class="node"><title>Node10</title>
<polygon fill="none" stroke="#bfbfbf" points="89.1601,-56.5 89.1601,-75.5 191.16,-75.5 191.16,-56.5 89.1601,-56.5"/>
<text text-anchor="middle" x="140.16" y="-63.5" font-family="Helvetica,sans-Serif" font-size="10.00">opener_user_conf.h</text>
</g>
<!-- Node1&#45;&gt;Node10 -->
<g id="edge13" class="edge"><title>Node1&#45;&gt;Node10</title>
<path fill="none" stroke="midnightblue" d="M139.762,-280.445C116.244,-273.725 86.9978,-262.354 66.1601,-244 23.4642,-206.394 18.3901,-187.088 4.16008,-132 1.93691,-123.394 -1.0453,-119.205 4.16008,-112 21.2819,-88.2999 51.3592,-76.8772 78.8822,-71.4538"/>
<polygon fill="midnightblue" stroke="midnightblue" points="79.6254,-74.8772 88.8779,-69.7156 78.426,-67.9807 79.6254,-74.8772"/>
</g>
<!-- Node11 -->
<g id="node11" class="node"><title>Node11</title>
<g id="a_node11"><a xlink:href="../../d4/d38/opener__api_8h.html" target="_top" xlink:title="opener_api.h">
<polygon fill="none" stroke="black" points="317.16,-224.5 317.16,-243.5 389.16,-243.5 389.16,-224.5 317.16,-224.5"/>
<text text-anchor="middle" x="353.16" y="-231.5" font-family="Helvetica,sans-Serif" font-size="10.00">opener_api.h</text>
</a>
</g>
</g>
<!-- Node1&#45;&gt;Node11 -->
<g id="edge14" class="edge"><title>Node1&#45;&gt;Node11</title>
<path fill="none" stroke="midnightblue" d="M206.731,-280.444C236.258,-271.28 283.278,-256.688 316.043,-246.519"/>
<polygon fill="midnightblue" stroke="midnightblue" points="317.205,-249.823 325.718,-243.516 315.13,-243.138 317.205,-249.823"/>
</g>
<!-- Node14 -->
<g id="node14" class="node"><title>Node14</title>
<g id="a_node14"><a xlink:href="../../d9/d31/doublylinkedlist_8h.html" target="_top" xlink:title="doublylinkedlist.h">
<polygon fill="none" stroke="black" points="207.16,-224.5 207.16,-243.5 299.16,-243.5 299.16,-224.5 207.16,-224.5"/>
<text text-anchor="middle" x="253.16" y="-231.5" font-family="Helvetica,sans-Serif" font-size="10.00">doublylinkedlist.h</text>
</a>
</g>
</g>
<!-- Node1&#45;&gt;Node14 -->
<g id="edge20" class="edge"><title>Node1&#45;&gt;Node14</title>
<path fill="none" stroke="midnightblue" d="M191.049,-280.324C202.31,-272.107 219.447,-259.602 232.869,-249.807"/>
<polygon fill="midnightblue" stroke="midnightblue" points="235.04,-252.556 241.054,-243.834 230.913,-246.901 235.04,-252.556"/>
</g>
<!-- Node15 -->
<g id="node15" class="node"><title>Node15</title>
<g id="a_node15"><a xlink:href="../../d0/d23/cipelectronickey_8h.html" target="_top" xlink:title="cipelectronickey.h">
<polygon fill="none" stroke="black" points="13.6601,-112.5 13.6601,-131.5 108.66,-131.5 108.66,-112.5 13.6601,-112.5"/>
<text text-anchor="middle" x="61.1601" y="-119.5" font-family="Helvetica,sans-Serif" font-size="10.00">cipelectronickey.h</text>
</a>
</g>
</g>
<!-- Node1&#45;&gt;Node15 -->
<g id="edge21" class="edge"><title>Node1&#45;&gt;Node15</title>
<path fill="none" stroke="midnightblue" d="M139.139,-280.468C118.38,-273.957 94.4416,-262.788 80.1601,-244 57.3954,-214.052 57.0201,-167.713 58.9613,-141.937"/>
<polygon fill="midnightblue" stroke="midnightblue" points="62.4748,-141.963 59.9441,-131.674 55.5067,-141.295 62.4748,-141.963"/>
</g>
<!-- Node16 -->
<g id="node16" class="node"><title>Node16</title>
<g id="a_node16"><a xlink:href="../../d1/d02/cipepath_8h.html" target="_top" xlink:title="cipepath.h">
<polygon fill="none" stroke="black" points="89.1601,-224.5 89.1601,-243.5 151.16,-243.5 151.16,-224.5 89.1601,-224.5"/>
<text text-anchor="middle" x="120.16" y="-231.5" font-family="Helvetica,sans-Serif" font-size="10.00">cipepath.h</text>
</a>
</g>
</g>
<!-- Node1&#45;&gt;Node16 -->
<g id="edge24" class="edge"><title>Node1&#45;&gt;Node16</title>
<path fill="none" stroke="midnightblue" d="M169.681,-280.324C160.959,-272.341 147.817,-260.313 137.262,-250.653"/>
<polygon fill="midnightblue" stroke="midnightblue" points="139.552,-248.004 129.812,-243.834 134.826,-253.167 139.552,-248.004"/>
</g>
<!-- Node3 -->
<g id="node3" class="node"><title>Node3</title>
<polygon fill="none" stroke="#bfbfbf" points="284.66,-0.5 284.66,-19.5 343.66,-19.5 343.66,-0.5 284.66,-0.5"/>
<text text-anchor="middle" x="314.16" y="-7.5" font-family="Helvetica,sans-Serif" font-size="10.00">inttypes.h</text>
</g>
<!-- Node2&#45;&gt;Node3 -->
<g id="edge2" class="edge"><title>Node2&#45;&gt;Node3</title>
<path fill="none" stroke="midnightblue" d="M376.271,-56.324C365.01,-48.1066 347.874,-35.6017 334.451,-25.8069"/>
<polygon fill="midnightblue" stroke="midnightblue" points="336.407,-22.9014 326.266,-19.8339 332.281,-28.5559 336.407,-22.9014"/>
</g>
<!-- Node4 -->
<g id="node4" class="node"><title>Node4</title>
<polygon fill="none" stroke="#bfbfbf" points="362.16,-0.5 362.16,-19.5 414.16,-19.5 414.16,-0.5 362.16,-0.5"/>
<text text-anchor="middle" x="388.16" y="-7.5" font-family="Helvetica,sans-Serif" font-size="10.00">stddef.h</text>
</g>
<!-- Node2&#45;&gt;Node4 -->
<g id="edge3" class="edge"><title>Node2&#45;&gt;Node4</title>
<path fill="none" stroke="midnightblue" d="M388.16,-56.083C388.16,-49.0059 388.16,-38.8611 388.16,-29.9865"/>
<polygon fill="midnightblue" stroke="midnightblue" points="391.66,-29.751 388.16,-19.7511 384.66,-29.7511 391.66,-29.751"/>
</g>
<!-- Node5 -->
<g id="node5" class="node"><title>Node5</title>
<polygon fill="none" stroke="#bfbfbf" points="121.16,-0.5 121.16,-19.5 177.16,-19.5 177.16,-0.5 121.16,-0.5"/>
<text text-anchor="middle" x="149.16" y="-7.5" font-family="Helvetica,sans-Serif" font-size="10.00">stdbool.h</text>
</g>
<!-- Node2&#45;&gt;Node5 -->
<g id="edge4" class="edge"><title>Node2&#45;&gt;Node5</title>
<path fill="none" stroke="midnightblue" d="M356.915,-57.9404C313.299,-48.0858 234.243,-30.2237 187.237,-19.6031"/>
<polygon fill="midnightblue" stroke="midnightblue" points="187.959,-16.1782 177.434,-17.3882 186.417,-23.0061 187.959,-16.1782"/>
</g>
<!-- Node6 -->
<g id="node6" class="node"><title>Node6</title>
<polygon fill="none" stroke="#bfbfbf" points="432.66,-0.5 432.66,-19.5 573.66,-19.5 573.66,-0.5 432.66,-0.5"/>
<text text-anchor="middle" x="503.16" y="-7.5" font-family="Helvetica,sans-Serif" font-size="10.00">platform_network_includes.h</text>
</g>
<!-- Node2&#45;&gt;Node6 -->
<g id="edge5" class="edge"><title>Node2&#45;&gt;Node6</title>
<path fill="none" stroke="midnightblue" d="M406.382,-56.4435C425.056,-47.6751 454.316,-33.9355 475.777,-23.8579"/>
<polygon fill="midnightblue" stroke="midnightblue" points="477.459,-26.935 485.023,-19.5164 474.484,-20.5988 477.459,-26.935"/>
</g>
<!-- Node7&#45;&gt;Node2 -->
<g id="edge7" class="edge"><title>Node7&#45;&gt;Node2</title>
<path fill="none" stroke="midnightblue" d="M238.482,-174.531C288.94,-169.832 384.653,-157.691 405.16,-132 416.039,-118.371 408.414,-98.4931 400.187,-84.3124"/>
<polygon fill="midnightblue" stroke="midnightblue" points="402.935,-82.1117 394.615,-75.5522 397.029,-85.8685 402.935,-82.1117"/>
</g>
<!-- Node8 -->
<g id="node8" class="node"><title>Node8</title>
<g id="a_node8"><a xlink:href="../../d0/d47/networkhandler_8h.html" target="_top" xlink:title="networkhandler.h">
<polygon fill="none" stroke="black" points="305.66,-112.5 305.66,-131.5 396.66,-131.5 396.66,-112.5 305.66,-112.5"/>
<text text-anchor="middle" x="351.16" y="-119.5" font-family="Helvetica,sans-Serif" font-size="10.00">networkhandler.h</text>
</a>
</g>
</g>
<!-- Node7&#45;&gt;Node8 -->
<g id="edge8" class="edge"><title>Node7&#45;&gt;Node8</title>
<path fill="none" stroke="midnightblue" d="M229.977,-168.444C253.992,-159.438 291.989,-145.189 319.029,-135.049"/>
<polygon fill="midnightblue" stroke="midnightblue" points="320.315,-138.305 328.45,-131.516 317.857,-131.751 320.315,-138.305"/>
</g>
<!-- Node9 -->
<g id="node9" class="node"><title>Node9</title>
<g id="a_node9"><a xlink:href="../../d8/d2c/enipmessage_8h.html" target="_top" xlink:title="enipmessage.h">
<polygon fill="none" stroke="black" points="165.66,-112.5 165.66,-131.5 248.66,-131.5 248.66,-112.5 165.66,-112.5"/>
<text text-anchor="middle" x="207.16" y="-119.5" font-family="Helvetica,sans-Serif" font-size="10.00">enipmessage.h</text>
</a>
</g>
</g>
<!-- Node7&#45;&gt;Node9 -->
<g id="edge10" class="edge"><title>Node7&#45;&gt;Node9</title>
<path fill="none" stroke="midnightblue" d="M207.16,-168.083C207.16,-161.006 207.16,-150.861 207.16,-141.986"/>
<polygon fill="midnightblue" stroke="midnightblue" points="210.66,-141.751 207.16,-131.751 203.66,-141.751 210.66,-141.751"/>
</g>
<!-- Node7&#45;&gt;Node10 -->
<g id="edge12" class="edge"><title>Node7&#45;&gt;Node10</title>
<path fill="none" stroke="midnightblue" d="M193.352,-168.355C181.695,-160.338 165.458,-147.352 156.16,-132 147.599,-117.866 143.612,-99.3806 141.759,-85.7379"/>
<polygon fill="midnightblue" stroke="midnightblue" points="145.219,-85.1782 140.651,-75.6187 138.261,-85.9403 145.219,-85.1782"/>
</g>
<!-- Node8&#45;&gt;Node2 -->
<g id="edge9" class="edge"><title>Node8&#45;&gt;Node2</title>
<path fill="none" stroke="midnightblue" d="M357.27,-112.083C362.442,-104.534 370.006,-93.4948 376.355,-84.2298"/>
<polygon fill="midnightblue" stroke="midnightblue" points="379.399,-85.9787 382.164,-75.7511 373.624,-82.0221 379.399,-85.9787"/>
</g>
<!-- Node9&#45;&gt;Node10 -->
<g id="edge11" class="edge"><title>Node9&#45;&gt;Node10</title>
<path fill="none" stroke="midnightblue" d="M196.395,-112.324C186.394,-104.263 171.274,-92.0765 159.23,-82.3695"/>
<polygon fill="midnightblue" stroke="midnightblue" points="161.103,-79.3841 151.121,-75.8339 156.71,-84.8343 161.103,-79.3841"/>
</g>
<!-- Node11&#45;&gt;Node2 -->
<g id="edge17" class="edge"><title>Node11&#45;&gt;Node2</title>
<path fill="none" stroke="midnightblue" d="M362.132,-224.327C378.201,-208.058 411.231,-171.06 422.16,-132 424.555,-123.44 424.986,-120.428 422.16,-112 418.556,-101.251 411.257,-91.0204 404.343,-83.0378"/>
<polygon fill="midnightblue" stroke="midnightblue" points="406.815,-80.5561 397.448,-75.6053 401.683,-85.3168 406.815,-80.5561"/>
</g>
<!-- Node11&#45;&gt;Node5 -->
<g id="edge16" class="edge"><title>Node11&#45;&gt;Node5</title>
<path fill="none" stroke="midnightblue" d="M346.473,-224.438C326.279,-198.599 266.71,-122.526 257.16,-112 233.083,-85.4623 225.37,-80.4335 199.16,-56 188.457,-46.0221 176.253,-35.0316 166.582,-26.4098"/>
<polygon fill="midnightblue" stroke="midnightblue" points="168.636,-23.5533 158.836,-19.5279 163.987,-28.7863 168.636,-23.5533"/>
</g>
<!-- Node11&#45;&gt;Node7 -->
<g id="edge18" class="edge"><title>Node11&#45;&gt;Node7</title>
<path fill="none" stroke="midnightblue" d="M330.026,-224.444C305.678,-215.438 267.153,-201.189 239.737,-191.049"/>
<polygon fill="midnightblue" stroke="midnightblue" points="240.779,-187.703 230.186,-187.516 238.351,-194.268 240.779,-187.703"/>
</g>
<!-- Node12 -->
<g id="node12" class="node"><title>Node12</title>
<polygon fill="none" stroke="#bfbfbf" points="327.16,-168.5 327.16,-187.5 379.16,-187.5 379.16,-168.5 327.16,-168.5"/>
<text text-anchor="middle" x="353.16" y="-175.5" font-family="Helvetica,sans-Serif" font-size="10.00">assert.h</text>
</g>
<!-- Node11&#45;&gt;Node12 -->
<g id="edge15" class="edge"><title>Node11&#45;&gt;Node12</title>
<path fill="none" stroke="midnightblue" d="M353.16,-224.083C353.16,-217.006 353.16,-206.861 353.16,-197.986"/>
<polygon fill="midnightblue" stroke="midnightblue" points="356.66,-197.751 353.16,-187.751 349.66,-197.751 356.66,-197.751"/>
</g>
<!-- Node13 -->
<g id="node13" class="node"><title>Node13</title>
<g id="a_node13"><a xlink:href="../../d6/d52/ciperror_8h.html" target="_top" xlink:title="ciperror.h">
<polygon fill="none" stroke="black" points="463.66,-168.5 463.66,-187.5 520.66,-187.5 520.66,-168.5 463.66,-168.5"/>
<text text-anchor="middle" x="492.16" y="-175.5" font-family="Helvetica,sans-Serif" font-size="10.00">ciperror.h</text>
</a>
</g>
</g>
<!-- Node11&#45;&gt;Node13 -->
<g id="edge19" class="edge"><title>Node11&#45;&gt;Node13</title>
<path fill="none" stroke="midnightblue" d="M375.185,-224.444C398.264,-215.478 434.722,-201.314 460.801,-191.183"/>
<polygon fill="midnightblue" stroke="midnightblue" points="462.184,-194.4 470.238,-187.516 459.649,-187.875 462.184,-194.4"/>
</g>
<!-- Node15&#45;&gt;Node2 -->
<g id="edge23" class="edge"><title>Node15&#45;&gt;Node2</title>
<path fill="none" stroke="midnightblue" d="M108.709,-113.148C172.841,-102.557 286.011,-83.8687 346.796,-73.8307"/>
<polygon fill="midnightblue" stroke="midnightblue" points="347.504,-77.2613 356.8,-72.1787 346.363,-70.3549 347.504,-77.2613"/>
</g>
<!-- Node15&#45;&gt;Node5 -->
<g id="edge22" class="edge"><title>Node15&#45;&gt;Node5</title>
<path fill="none" stroke="midnightblue" d="M61.8076,-112.153C63.1828,-98.7855 67.4049,-73.1803 80.1601,-56 90.2039,-42.4718 105.617,-31.8646 119.33,-24.355"/>
<polygon fill="midnightblue" stroke="midnightblue" points="121.175,-27.3415 128.465,-19.6531 117.972,-21.1176 121.175,-27.3415"/>
</g>
<!-- Node16&#45;&gt;Node5 -->
<g id="edge25" class="edge"><title>Node16&#45;&gt;Node5</title>
<path fill="none" stroke="midnightblue" d="M99.6155,-224.497C60.4847,-206.92 -18.8806,-163.859 4.16008,-112 24.4269,-66.3845 77.5028,-37.9543 113.497,-23.2904"/>
<polygon fill="midnightblue" stroke="midnightblue" points="115.115,-26.4162 123.155,-19.5167 112.567,-19.8963 115.115,-26.4162"/>
</g>
<!-- Node16&#45;&gt;Node7 -->
<g id="edge26" class="edge"><title>Node16&#45;&gt;Node7</title>
<path fill="none" stroke="midnightblue" d="M134.138,-224.324C147.71,-215.9 168.54,-202.971 184.485,-193.074"/>
<polygon fill="midnightblue" stroke="midnightblue" points="186.566,-195.902 193.217,-187.655 182.875,-189.954 186.566,-195.902"/>
</g>
<!-- Node16&#45;&gt;Node15 -->
<g id="edge27" class="edge"><title>Node16&#45;&gt;Node15</title>
<path fill="none" stroke="midnightblue" d="M115.53,-224.368C105.88,-206.376 83.4462,-164.55 70.6144,-140.627"/>
<polygon fill="midnightblue" stroke="midnightblue" points="73.5793,-138.749 65.7682,-131.591 67.4106,-142.058 73.5793,-138.749"/>
</g>
</g>
</svg>
