<?xml version="1.0" encoding="UTF-8" standalone="no"?>
<!DOCTYPE svg PUBLIC "-//W3C//DTD SVG 1.1//EN"
 "http://www.w3.org/Graphics/SVG/1.1/DTD/svg11.dtd">
<!-- Generated by graphviz version 2.36.0 (20140111.2315)
 -->
<!-- Title: src/cip/cipconnectionobject.h Pages: 1 -->
<!--zoomable 252 -->
<svg id="main" version="1.1" xmlns="http://www.w3.org/2000/svg" xmlns:xlink="http://www.w3.org/1999/xlink" xml:space="preserve" onload="init(evt)">
<style type="text/css"><![CDATA[
.edge:hover path { stroke: red; }
.edge:hover polygon { stroke: red; fill: red; }
]]></style>
<script type="text/javascript"><![CDATA[
var edges = document.getElementsByTagName('g');
if (edges && edges.length) {
  for (var i=0;i<edges.length;i++) {
    if (edges[i].id.substr(0,4)=='edge') {
      edges[i].setAttribute('class','edge');
    }
  }
}
]]></script>
        <defs>
                <circle id="rim" cx="0" cy="0" r="7"/>
                <circle id="rim2" cx="0" cy="0" r="3.5"/>
                <g id="zoomPlus">
                        <use xlink:href="#rim" fill="#404040">
                                <set attributeName="fill" to="#808080" begin="zoomplus.mouseover" end="zoomplus.mouseout"/>
                        </use>
                        <path d="M-4,0h8M0,-4v8" fill="none" stroke="white" stroke-width="1.5" pointer-events="none"/>
                </g>
                <g id="zoomMin">
                        <use xlink:href="#rim" fill="#404040">
                                <set attributeName="fill" to="#808080" begin="zoomminus.mouseover" end="zoomminus.mouseout"/>
                        </use>
                        <path d="M-4,0h8" fill="none" stroke="white" stroke-width="1.5" pointer-events="none"/>
                </g>
                <g id="dirArrow">
                        <path fill="none" stroke="white" stroke-width="1.5" d="M0,-3.0v7 M-2.5,-0.5L0,-3.0L2.5,-0.5"/>
                </g>
               <g id="resetDef">
                       <use xlink:href="#rim2" fill="#404040">
                               <set attributeName="fill" to="#808080" begin="reset.mouseover" end="reset.mouseout"/>
                       </use>
               </g>
        </defs>

<script type="text/javascript">
var viewWidth = 647;
var viewHeight = 252;
var sectionId = 'dynsection-0';
</script>
<script xlink:href="../../svgpan.js"/>
<svg id="graph" class="graph">
<g id="viewport">
<title>src/cip/cipconnectionobject.h</title>
<!-- Node1 -->
<g id="node1" class="node"><title>Node1</title>
<polygon fill="#bfbfbf" stroke="black" points="199.5,-224.5 199.5,-243.5 342.5,-243.5 342.5,-224.5 199.5,-224.5"/>
<text text-anchor="middle" x="271" y="-231.5" font-family="Helvetica,sans-Serif" font-size="10.00">src/cip/cipconnectionobject.h</text>
</g>
<!-- Node2 -->
<g id="node2" class="node"><title>Node2</title>
<g id="a_node2"><a xlink:href="../../d7/d69/typedefs_8h.html" target="_top" xlink:title="typedefs.h">
<polygon fill="none" stroke="black" points="65,-56.5 65,-75.5 127,-75.5 127,-56.5 65,-56.5"/>
<text text-anchor="middle" x="96" y="-63.5" font-family="Helvetica,sans-Serif" font-size="10.00">typedefs.h</text>
</a>
</g>
</g>
<!-- Node1&#45;&gt;Node2 -->
<g id="edge1" class="edge"><title>Node1&#45;&gt;Node2</title>
<path fill="none" stroke="midnightblue" d="M202.981,-224.493C147.945,-213.52 74.3089,-188.554 41,-132 29.5502,-112.56 51.3023,-93.1957 70.7368,-80.7271"/>
<polygon fill="midnightblue" stroke="midnightblue" points="72.6262,-83.6748 79.3755,-75.508 69.0064,-77.6834 72.6262,-83.6748"/>
</g>
<!-- Node6 -->
<g id="node6" class="node"><title>Node6</title>
<g id="a_node6"><a xlink:href="../../df/d28/ciptypes_8h.html" target="_top" xlink:title="ciptypes.h">
<polygon fill="none" stroke="black" points="240,-112.5 240,-131.5 302,-131.5 302,-112.5 240,-112.5"/>
<text text-anchor="middle" x="271" y="-119.5" font-family="Helvetica,sans-Serif" font-size="10.00">ciptypes.h</text>
</a>
</g>
</g>
<!-- Node1&#45;&gt;Node6 -->
<g id="edge5" class="edge"><title>Node1&#45;&gt;Node6</title>
<path fill="none" stroke="midnightblue" d="M271,-224.368C271,-206.617 271,-165.666 271,-141.597"/>
<polygon fill="midnightblue" stroke="midnightblue" points="274.5,-141.591 271,-131.591 267.5,-141.591 274.5,-141.591"/>
</g>
<!-- Node9 -->
<g id="node9" class="node"><title>Node9</title>
<polygon fill="none" stroke="#bfbfbf" points="398,-0.5 398,-19.5 500,-19.5 500,-0.5 398,-0.5"/>
<text text-anchor="middle" x="449" y="-7.5" font-family="Helvetica,sans-Serif" font-size="10.00">opener_user_conf.h</text>
</g>
<!-- Node1&#45;&gt;Node9 -->
<g id="edge11" class="edge"><title>Node1&#45;&gt;Node9</title>
<path fill="none" stroke="midnightblue" d="M333.73,-224.485C388.024,-213.408 463.276,-188.293 499,-132 517.099,-103.48 512.742,-86.856 499,-56 493.432,-43.4981 482.484,-33.0124 472.249,-25.3167"/>
<polygon fill="midnightblue" stroke="midnightblue" points="474.156,-22.3794 463.952,-19.5256 470.149,-28.1193 474.156,-22.3794"/>
</g>
<!-- Node10 -->
<g id="node10" class="node"><title>Node10</title>
<g id="a_node10"><a xlink:href="../../d4/d38/opener__api_8h.html" target="_top" xlink:title="opener_api.h">
<polygon fill="none" stroke="black" points="299,-168.5 299,-187.5 371,-187.5 371,-168.5 299,-168.5"/>
<text text-anchor="middle" x="335" y="-175.5" font-family="Helvetica,sans-Serif" font-size="10.00">opener_api.h</text>
</a>
</g>
</g>
<!-- Node1&#45;&gt;Node10 -->
<g id="edge12" class="edge"><title>Node1&#45;&gt;Node10</title>
<path fill="none" stroke="midnightblue" d="M281.283,-224.324C290.836,-216.263 305.28,-204.077 316.784,-194.369"/>
<polygon fill="midnightblue" stroke="midnightblue" points="319.144,-196.958 324.53,-187.834 314.63,-191.608 319.144,-196.958"/>
</g>
<!-- Node13 -->
<g id="node13" class="node"><title>Node13</title>
<g id="a_node13"><a xlink:href="../../d9/d31/doublylinkedlist_8h.html" target="_top" xlink:title="doublylinkedlist.h">
<polygon fill="none" stroke="black" points="547,-168.5 547,-187.5 639,-187.5 639,-168.5 547,-168.5"/>
<text text-anchor="middle" x="593" y="-175.5" font-family="Helvetica,sans-Serif" font-size="10.00">doublylinkedlist.h</text>
</a>
</g>
</g>
<!-- Node1&#45;&gt;Node13 -->
<g id="edge18" class="edge"><title>Node1&#45;&gt;Node13</title>
<path fill="none" stroke="midnightblue" d="M322.022,-224.444C380.527,-214.632 476.146,-198.597 536.758,-188.432"/>
<polygon fill="midnightblue" stroke="midnightblue" points="537.629,-191.835 546.912,-186.729 536.471,-184.931 537.629,-191.835"/>
</g>
<!-- Node14 -->
<g id="node14" class="node"><title>Node14</title>
<g id="a_node14"><a xlink:href="../../d0/d23/cipelectronickey_8h.html" target="_top" xlink:title="cipelectronickey.h">
<polygon fill="none" stroke="black" points="50.5,-112.5 50.5,-131.5 145.5,-131.5 145.5,-112.5 50.5,-112.5"/>
<text text-anchor="middle" x="98" y="-119.5" font-family="Helvetica,sans-Serif" font-size="10.00">cipelectronickey.h</text>
</a>
</g>
</g>
<!-- Node1&#45;&gt;Node14 -->
<g id="edge19" class="edge"><title>Node1&#45;&gt;Node14</title>
<path fill="none" stroke="midnightblue" d="M247.193,-224.465C226.485,-216.519 196.103,-203.575 172,-188 149.945,-173.749 127.723,-153.206 113.47,-139.048"/>
<polygon fill="midnightblue" stroke="midnightblue" points="115.942,-136.571 106.423,-131.92 110.964,-141.492 115.942,-136.571"/>
</g>
<!-- Node15 -->
<g id="node15" class="node"><title>Node15</title>
<g id="a_node15"><a xlink:href="../../d1/d02/cipepath_8h.html" target="_top" xlink:title="cipepath.h">
<polygon fill="none" stroke="black" points="181,-168.5 181,-187.5 243,-187.5 243,-168.5 181,-168.5"/>
<text text-anchor="middle" x="212" y="-175.5" font-family="Helvetica,sans-Serif" font-size="10.00">cipepath.h</text>
</a>
</g>
</g>
<!-- Node1&#45;&gt;Node15 -->
<g id="edge22" class="edge"><title>Node1&#45;&gt;Node15</title>
<path fill="none" stroke="midnightblue" d="M261.521,-224.324C252.799,-216.341 239.657,-204.313 229.102,-194.653"/>
<polygon fill="midnightblue" stroke="midnightblue" points="231.392,-192.004 221.652,-187.834 226.666,-197.167 231.392,-192.004"/>
</g>
<!-- Node3 -->
<g id="node3" class="node"><title>Node3</title>
<polygon fill="none" stroke="#bfbfbf" points="-0.5,-0.5 -0.5,-19.5 58.5,-19.5 58.5,-0.5 -0.5,-0.5"/>
<text text-anchor="middle" x="29" y="-7.5" font-family="Helvetica,sans-Serif" font-size="10.00">inttypes.h</text>
</g>
<!-- Node2&#45;&gt;Node3 -->
<g id="edge2" class="edge"><title>Node2&#45;&gt;Node3</title>
<path fill="none" stroke="midnightblue" d="M85.2353,-56.324C75.2339,-48.2631 60.1135,-36.0765 48.0695,-26.3695"/>
<polygon fill="midnightblue" stroke="midnightblue" points="49.9429,-23.3841 39.9606,-19.8339 45.5502,-28.8343 49.9429,-23.3841"/>
</g>
<!-- Node4 -->
<g id="node4" class="node"><title>Node4</title>
<polygon fill="none" stroke="#bfbfbf" points="77,-0.5 77,-19.5 129,-19.5 129,-0.5 77,-0.5"/>
<text text-anchor="middle" x="103" y="-7.5" font-family="Helvetica,sans-Serif" font-size="10.00">stddef.h</text>
</g>
<!-- Node2&#45;&gt;Node4 -->
<g id="edge3" class="edge"><title>Node2&#45;&gt;Node4</title>
<path fill="none" stroke="midnightblue" d="M97.1559,-56.083C98.0835,-48.9272 99.4176,-38.6353 100.577,-29.6911"/>
<polygon fill="midnightblue" stroke="midnightblue" points="104.051,-30.1181 101.866,-19.7511 97.109,-29.2181 104.051,-30.1181"/>
</g>
<!-- Node5 -->
<g id="node5" class="node"><title>Node5</title>
<polygon fill="none" stroke="#bfbfbf" points="153,-0.5 153,-19.5 209,-19.5 209,-0.5 153,-0.5"/>
<text text-anchor="middle" x="181" y="-7.5" font-family="Helvetica,sans-Serif" font-size="10.00">stdbool.h</text>
</g>
<!-- Node2&#45;&gt;Node5 -->
<g id="edge4" class="edge"><title>Node2&#45;&gt;Node5</title>
<path fill="none" stroke="midnightblue" d="M109.657,-56.324C122.916,-47.9002 143.268,-34.9709 158.846,-25.0741"/>
<polygon fill="midnightblue" stroke="midnightblue" points="160.813,-27.9711 167.377,-19.6545 157.06,-22.0626 160.813,-27.9711"/>
</g>
<!-- Node6&#45;&gt;Node2 -->
<g id="edge6" class="edge"><title>Node6&#45;&gt;Node2</title>
<path fill="none" stroke="midnightblue" d="M243.271,-112.444C213.574,-103.28 166.284,-88.6876 133.331,-78.5192"/>
<polygon fill="midnightblue" stroke="midnightblue" points="134.187,-75.1206 123.6,-75.5164 132.123,-81.8094 134.187,-75.1206"/>
</g>
<!-- Node7 -->
<g id="node7" class="node"><title>Node7</title>
<polygon fill="none" stroke="#bfbfbf" points="221.5,-56.5 221.5,-75.5 312.5,-75.5 312.5,-56.5 221.5,-56.5"/>
<text text-anchor="middle" x="267" y="-63.5" font-family="Helvetica,sans-Serif" font-size="10.00">networkhandler.h</text>
</g>
<!-- Node6&#45;&gt;Node7 -->
<g id="edge7" class="edge"><title>Node6&#45;&gt;Node7</title>
<path fill="none" stroke="midnightblue" d="M270.339,-112.083C269.815,-105.006 269.064,-94.8611 268.406,-85.9865"/>
<polygon fill="midnightblue" stroke="midnightblue" points="271.877,-85.4652 267.648,-75.7511 264.897,-85.9823 271.877,-85.4652"/>
</g>
<!-- Node8 -->
<g id="node8" class="node"><title>Node8</title>
<g id="a_node8"><a xlink:href="../../d8/d2c/enipmessage_8h.html" target="_top" xlink:title="enipmessage.h">
<polygon fill="none" stroke="black" points="407.5,-56.5 407.5,-75.5 490.5,-75.5 490.5,-56.5 407.5,-56.5"/>
<text text-anchor="middle" x="449" y="-63.5" font-family="Helvetica,sans-Serif" font-size="10.00">enipmessage.h</text>
</a>
</g>
</g>
<!-- Node6&#45;&gt;Node8 -->
<g id="edge8" class="edge"><title>Node6&#45;&gt;Node8</title>
<path fill="none" stroke="midnightblue" d="M299.205,-112.444C329.41,-103.28 377.511,-88.6876 411.029,-78.5192"/>
<polygon fill="midnightblue" stroke="midnightblue" points="412.374,-81.7688 420.927,-75.5164 410.342,-75.0703 412.374,-81.7688"/>
</g>
<!-- Node6&#45;&gt;Node9 -->
<g id="edge10" class="edge"><title>Node6&#45;&gt;Node9</title>
<path fill="none" stroke="midnightblue" d="M284.967,-112.368C315.642,-93.4121 389.126,-48.0006 426.439,-24.9424"/>
<polygon fill="midnightblue" stroke="midnightblue" points="428.431,-27.8258 435.098,-19.5914 424.751,-21.8711 428.431,-27.8258"/>
</g>
<!-- Node8&#45;&gt;Node9 -->
<g id="edge9" class="edge"><title>Node8&#45;&gt;Node9</title>
<path fill="none" stroke="midnightblue" d="M449,-56.083C449,-49.0059 449,-38.8611 449,-29.9865"/>
<polygon fill="midnightblue" stroke="midnightblue" points="452.5,-29.751 449,-19.7511 445.5,-29.7511 452.5,-29.751"/>
</g>
<!-- Node10&#45;&gt;Node2 -->
<g id="edge15" class="edge"><title>Node10&#45;&gt;Node2</title>
<path fill="none" stroke="midnightblue" d="M314.566,-168.446C293.517,-159.567 259.81,-145.162 231,-132 193.069,-114.671 149.704,-93.5556 122.585,-80.1917"/>
<polygon fill="midnightblue" stroke="midnightblue" points="123.885,-76.9303 113.369,-75.6403 120.786,-83.2066 123.885,-76.9303"/>
</g>
<!-- Node10&#45;&gt;Node5 -->
<g id="edge14" class="edge"><title>Node10&#45;&gt;Node5</title>
<path fill="none" stroke="midnightblue" d="M336.83,-168.496C340.939,-146.94 348.511,-89.5037 321,-56 296.293,-25.9113 251.343,-15.7016 219.035,-12.3643"/>
<polygon fill="midnightblue" stroke="midnightblue" points="219.293,-8.87371 209.031,-11.5057 218.695,-15.8481 219.293,-8.87371"/>
</g>
<!-- Node10&#45;&gt;Node6 -->
<g id="edge16" class="edge"><title>Node10&#45;&gt;Node6</title>
<path fill="none" stroke="midnightblue" d="M324.717,-168.324C315.164,-160.263 300.72,-148.077 289.216,-138.369"/>
<polygon fill="midnightblue" stroke="midnightblue" points="291.37,-135.608 281.47,-131.834 286.856,-140.958 291.37,-135.608"/>
</g>
<!-- Node11 -->
<g id="node11" class="node"><title>Node11</title>
<polygon fill="none" stroke="#bfbfbf" points="363,-112.5 363,-131.5 415,-131.5 415,-112.5 363,-112.5"/>
<text text-anchor="middle" x="389" y="-119.5" font-family="Helvetica,sans-Serif" font-size="10.00">assert.h</text>
</g>
<!-- Node10&#45;&gt;Node11 -->
<g id="edge13" class="edge"><title>Node10&#45;&gt;Node11</title>
<path fill="none" stroke="midnightblue" d="M343.917,-168.083C351.78,-160.22 363.431,-148.569 372.919,-139.081"/>
<polygon fill="midnightblue" stroke="midnightblue" points="375.653,-141.297 380.249,-131.751 370.703,-136.347 375.653,-141.297"/>
</g>
<!-- Node12 -->
<g id="node12" class="node"><title>Node12</title>
<g id="a_node12"><a xlink:href="../../d6/d52/ciperror_8h.html" target="_top" xlink:title="ciperror.h">
<polygon fill="none" stroke="black" points="433.5,-112.5 433.5,-131.5 490.5,-131.5 490.5,-112.5 433.5,-112.5"/>
<text text-anchor="middle" x="462" y="-119.5" font-family="Helvetica,sans-Serif" font-size="10.00">ciperror.h</text>
</a>
</g>
</g>
<!-- Node10&#45;&gt;Node12 -->
<g id="edge17" class="edge"><title>Node10&#45;&gt;Node12</title>
<path fill="none" stroke="midnightblue" d="M355.124,-168.444C376.024,-159.557 408.935,-145.563 432.716,-135.451"/>
<polygon fill="midnightblue" stroke="midnightblue" points="434.138,-138.65 441.971,-131.516 431.398,-132.208 434.138,-138.65"/>
</g>
<!-- Node14&#45;&gt;Node2 -->
<g id="edge21" class="edge"><title>Node14&#45;&gt;Node2</title>
<path fill="none" stroke="midnightblue" d="M97.6697,-112.083C97.4076,-105.006 97.0319,-94.8611 96.7032,-85.9865"/>
<polygon fill="midnightblue" stroke="midnightblue" points="100.192,-85.6147 96.3241,-75.7511 93.1967,-85.8738 100.192,-85.6147"/>
</g>
<!-- Node14&#45;&gt;Node5 -->
<g id="edge20" class="edge"><title>Node14&#45;&gt;Node5</title>
<path fill="none" stroke="midnightblue" d="M105.564,-112.188C113.182,-103.226 125.181,-88.8632 135,-76 147.15,-60.0834 160.277,-41.3698 169.386,-28.1195"/>
<polygon fill="midnightblue" stroke="midnightblue" points="172.486,-29.7864 175.237,-19.5549 166.706,-25.8377 172.486,-29.7864"/>
</g>
<!-- Node15&#45;&gt;Node5 -->
<g id="edge23" class="edge"><title>Node15&#45;&gt;Node5</title>
<path fill="none" stroke="midnightblue" d="M210.333,-168.075C205.454,-141.945 191.124,-65.2106 184.469,-29.577"/>
<polygon fill="midnightblue" stroke="midnightblue" points="187.876,-28.7556 182.6,-19.5681 180.995,-30.0407 187.876,-28.7556"/>
</g>
<!-- Node15&#45;&gt;Node6 -->
<g id="edge24" class="edge"><title>Node15&#45;&gt;Node6</title>
<path fill="none" stroke="midnightblue" d="M221.479,-168.324C230.201,-160.341 243.343,-148.313 253.898,-138.653"/>
<polygon fill="midnightblue" stroke="midnightblue" points="256.334,-141.167 261.348,-131.834 251.608,-136.004 256.334,-141.167"/>
</g>
<!-- Node15&#45;&gt;Node14 -->
<g id="edge25" class="edge"><title>Node15&#45;&gt;Node14</title>
<path fill="none" stroke="midnightblue" d="M193.936,-168.444C175.425,-159.675 146.419,-145.935 125.145,-135.858"/>
<polygon fill="midnightblue" stroke="midnightblue" points="126.515,-132.634 115.979,-131.516 123.518,-138.96 126.515,-132.634"/>
</g>
</g>
</svg>
        <g id="navigator" transform="translate(0 0)" fill="#404254">
                <rect fill="#f2f5e9" fill-opacity="0.5" stroke="#606060" stroke-width=".5" x="0" y="0" width="60" height="60"/>
                <use id="zoomplus" xlink:href="#zoomPlus" x="17" y="9" onmousedown="handleZoom(evt,'in')"/>
                <use id="zoomminus" xlink:href="#zoomMin" x="42" y="9" onmousedown="handleZoom(evt,'out')"/>
                <use id="reset" xlink:href="#resetDef" x="30" y="36" onmousedown="handleReset()"/>
                <g id="arrowUp" xlink:href="#dirArrow" transform="translate(30 24)" onmousedown="handlePan(0,-1)">
                  <use xlink:href="#rim" fill="#404040">
                        <set attributeName="fill" to="#808080" begin="arrowUp.mouseover" end="arrowUp.mouseout"/>
                  </use>
                  <path fill="none" stroke="white" stroke-width="1.5" d="M0,-3.0v7 M-2.5,-0.5L0,-3.0L2.5,-0.5"/>
                </g>
                <g id="arrowRight" xlink:href="#dirArrow" transform="rotate(90) translate(36 -43)" onmousedown="handlePan(1,0)">
                  <use xlink:href="#rim" fill="#404040">
                        <set attributeName="fill" to="#808080" begin="arrowRight.mouseover" end="arrowRight.mouseout"/>
                  </use>
                  <path fill="none" stroke="white" stroke-width="1.5" d="M0,-3.0v7 M-2.5,-0.5L0,-3.0L2.5,-0.5"/>
                </g>
                <g id="arrowDown" xlink:href="#dirArrow" transform="rotate(180) translate(-30 -48)" onmousedown="handlePan(0,1)">
                  <use xlink:href="#rim" fill="#404040">
                        <set attributeName="fill" to="#808080" begin="arrowDown.mouseover" end="arrowDown.mouseout"/>
                  </use>
                  <path fill="none" stroke="white" stroke-width="1.5" d="M0,-3.0v7 M-2.5,-0.5L0,-3.0L2.5,-0.5"/>
                </g>
                <g id="arrowLeft" xlink:href="#dirArrow" transform="rotate(270) translate(-36 17)" onmousedown="handlePan(-1,0)">
                  <use xlink:href="#rim" fill="#404040">
                        <set attributeName="fill" to="#808080" begin="arrowLeft.mouseover" end="arrowLeft.mouseout"/>
                  </use>
                  <path fill="none" stroke="white" stroke-width="1.5" d="M0,-3.0v7 M-2.5,-0.5L0,-3.0L2.5,-0.5"/>
                </g>
        </g>
        <svg viewBox="0 0 15 15" width="100%" height="30px" preserveAspectRatio="xMaxYMin meet">
         <g id="arrow_out" transform="scale(0.3 0.3)">
          <a xlink:href="cipconnectionobject_8h__incl_org.svg" target="_base">
           <rect id="button" ry="5" rx="5" y="6" x="6" height="38" width="38"
                fill="#f2f5e9" fill-opacity="0.5" stroke="#606060" stroke-width="1.0"/>
           <path id="arrow"
             d="M 11.500037,31.436501 C 11.940474,20.09759 22.043105,11.32322 32.158766,21.979434 L 37.068811,17.246167 C 37.068811,17.246167 37.088388,32 37.088388,32 L 22.160133,31.978069 C 22.160133,31.978069 26.997745,27.140456 26.997745,27.140456 C 18.528582,18.264221 13.291696,25.230495 11.500037,31.436501 z"
             style="fill:#404040;"/>
          </a>
         </g>
        </svg>
</svg>
