<?xml version="1.0" encoding="UTF-8" standalone="no"?>
<!DOCTYPE svg PUBLIC "-//W3C//DTD SVG 1.1//EN"
 "http://www.w3.org/Graphics/SVG/1.1/DTD/svg11.dtd">
<!-- Generated by graphviz version 2.38.0 (20140413.2041)
 -->
<!-- Title: HandleNonNullNonMatchingForwardOpenRequest Pages: 1 -->
<svg width="712pt" height="99pt"
 viewBox="0.00 0.00 712.00 99.00" xmlns="http://www.w3.org/2000/svg" xmlns:xlink="http://www.w3.org/1999/xlink">
<g id="graph0" class="graph" transform="scale(1 1) rotate(0) translate(4 95)">
<title>HandleNonNullNonMatchingForwardOpenRequest</title>
<!-- Node1 -->
<g id="node1" class="node"><title>Node1</title>
<polygon fill="#bfbfbf" stroke="black" points="0,-38.5 0,-68.5 140,-68.5 140,-38.5 0,-38.5"/>
<text text-anchor="start" x="8" y="-56.5" font-family="Helvetica,sans-Serif" font-size="10.00">HandleNonNullNonMatching</text>
<text text-anchor="middle" x="70" y="-45.5" font-family="Helvetica,sans-Serif" font-size="10.00">ForwardOpenRequest</text>
</g>
<!-- Node2 -->
<g id="node2" class="node"><title>Node2</title>
<g id="a_node2"><a xlink:href="../../d5/d35/cipconnectionmanager_8c.html#a7eaeec6cc54d1799cfaba4031f0168d1" target="_top" xlink:title="Handles a Non Null Matching Forward Open Request. ">
<polygon fill="none" stroke="black" points="176,-60.5 176,-90.5 334,-90.5 334,-60.5 176,-60.5"/>
<text text-anchor="start" x="184" y="-78.5" font-family="Helvetica,sans-Serif" font-size="10.00">HandleNonNullMatchingForward</text>
<text text-anchor="middle" x="255" y="-67.5" font-family="Helvetica,sans-Serif" font-size="10.00">OpenRequest</text>
</a>
</g>
</g>
<!-- Node1&#45;&gt;Node2 -->
<g id="edge1" class="edge"><title>Node1&#45;&gt;Node2</title>
<path fill="none" stroke="midnightblue" d="M150.327,-56.3399C161.467,-57.5809 172.852,-58.987 183.806,-60.4767"/>
<polygon fill="midnightblue" stroke="midnightblue" points="150.501,-52.8386 140.184,-55.2489 149.753,-59.7985 150.501,-52.8386"/>
</g>
<!-- Node2&#45;&gt;Node1 -->
<g id="edge2" class="edge"><title>Node2&#45;&gt;Node1</title>
<path fill="none" stroke="midnightblue" d="M165.774,-71.6398C157.182,-70.627 148.551,-69.5301 140.184,-68.3856"/>
<polygon fill="midnightblue" stroke="midnightblue" points="165.493,-75.1303 175.825,-72.7879 166.287,-68.1755 165.493,-75.1303"/>
</g>
<!-- Node3 -->
<g id="node3" class="node"><title>Node3</title>
<g id="a_node3"><a xlink:href="../../d5/d35/cipconnectionmanager_8c.html#a8da18334cfde58434b845b0968620811" target="_top" xlink:title="Handles a Null Matching Forward Open request. ">
<polygon fill="none" stroke="black" points="370,-22.5 370,-52.5 510,-52.5 510,-22.5 370,-22.5"/>
<text text-anchor="start" x="378" y="-40.5" font-family="Helvetica,sans-Serif" font-size="10.00">HandleNullMatchingForward</text>
<text text-anchor="middle" x="440" y="-29.5" font-family="Helvetica,sans-Serif" font-size="10.00">OpenRequest</text>
</a>
</g>
</g>
<!-- Node2&#45;&gt;Node3 -->
<g id="edge3" class="edge"><title>Node2&#45;&gt;Node3</title>
<path fill="none" stroke="midnightblue" d="M338.358,-58.3984C348.892,-56.2109 359.59,-53.9895 369.885,-51.8518"/>
<polygon fill="midnightblue" stroke="midnightblue" points="337.406,-55.0213 328.326,-60.4814 338.829,-61.8751 337.406,-55.0213"/>
</g>
<!-- Node3&#45;&gt;Node1 -->
<g id="edge6" class="edge"><title>Node3&#45;&gt;Node1</title>
<path fill="none" stroke="midnightblue" d="M359.53,-40.9552C294.203,-43.7955 202.571,-47.7795 140.218,-50.4905"/>
<polygon fill="midnightblue" stroke="midnightblue" points="359.942,-44.4407 369.78,-40.5096 359.638,-37.4473 359.942,-44.4407"/>
</g>
<!-- Node4 -->
<g id="node4" class="node"><title>Node4</title>
<g id="a_node4"><a xlink:href="../../d5/d35/cipconnectionmanager_8c.html#ad68060facbfe52b38428a40da630651b" target="_top" xlink:title="Handles a Null Non Matching Forward Open Request. ">
<polygon fill="none" stroke="black" points="546,-0.5 546,-30.5 704,-30.5 704,-0.5 546,-0.5"/>
<text text-anchor="start" x="554" y="-18.5" font-family="Helvetica,sans-Serif" font-size="10.00">HandleNullNonMatchingForward</text>
<text text-anchor="middle" x="625" y="-7.5" font-family="Helvetica,sans-Serif" font-size="10.00">OpenRequest</text>
</a>
</g>
</g>
<!-- Node3&#45;&gt;Node4 -->
<g id="edge4" class="edge"><title>Node3&#45;&gt;Node4</title>
<path fill="none" stroke="midnightblue" d="M520.387,-27.9562C528.825,-26.9418 537.402,-25.9107 545.825,-24.898"/>
<polygon fill="midnightblue" stroke="midnightblue" points="519.695,-24.5141 510.184,-29.1827 520.531,-31.464 519.695,-24.5141"/>
</g>
<!-- Node4&#45;&gt;Node1 -->
<g id="edge5" class="edge"><title>Node4&#45;&gt;Node1</title>
<path fill="none" stroke="midnightblue" d="M535.658,-12.9457C526.989,-12.764 518.324,-12.6095 510,-12.5 447.783,-11.6815 432.095,-8.51554 370,-12.5 283.243,-18.067 262.088,-25.3956 176,-37.5 164.405,-39.1303 152.102,-40.9363 140.155,-42.7304"/>
<polygon fill="midnightblue" stroke="midnightblue" points="535.742,-16.4483 545.817,-13.1704 535.897,-9.45 535.742,-16.4483"/>
</g>
</g>
</svg>
