<?xml version="1.0" encoding="UTF-8" standalone="no"?>
<!DOCTYPE svg PUBLIC "-//W3C//DTD SVG 1.1//EN"
 "http://www.w3.org/Graphics/SVG/1.1/DTD/svg11.dtd">
<!-- Generated by graphviz version 2.38.0 (20140413.2041)
 -->
<!-- Title: ParseConnectionPath Pages: 1 -->
<svg width="860pt" height="99pt"
 viewBox="0.00 0.00 860.00 99.00" xmlns="http://www.w3.org/2000/svg" xmlns:xlink="http://www.w3.org/1999/xlink">
<g id="graph0" class="graph" transform="scale(1 1) rotate(0) translate(4 95)">
<title>ParseConnectionPath</title>
<!-- Node1 -->
<g id="node1" class="node"><title>Node1</title>
<polygon fill="#bfbfbf" stroke="black" points="0,-44 0,-63 112,-63 112,-44 0,-44"/>
<text text-anchor="middle" x="56" y="-51" font-family="Helvetica,sans-Serif" font-size="10.00">ParseConnectionPath</text>
</g>
<!-- Node2 -->
<g id="node2" class="node"><title>Node2</title>
<g id="a_node2"><a xlink:href="../../d5/d35/cipconnectionmanager_8c.html#af379a4b383c738a07d8e1ab0a4ac7510" target="_top" xlink:title="Handles a Non Null Non Matching Forward Open Request. ">
<polygon fill="none" stroke="black" points="148,-38.5 148,-68.5 288,-68.5 288,-38.5 148,-38.5"/>
<text text-anchor="start" x="156" y="-56.5" font-family="Helvetica,sans-Serif" font-size="10.00">HandleNonNullNonMatching</text>
<text text-anchor="middle" x="218" y="-45.5" font-family="Helvetica,sans-Serif" font-size="10.00">ForwardOpenRequest</text>
</a>
</g>
</g>
<!-- Node1&#45;&gt;Node2 -->
<g id="edge1" class="edge"><title>Node1&#45;&gt;Node2</title>
<path fill="none" stroke="midnightblue" d="M122.264,-53.5C130.742,-53.5 139.448,-53.5 147.985,-53.5"/>
<polygon fill="midnightblue" stroke="midnightblue" points="122.063,-50.0001 112.063,-53.5 122.063,-57.0001 122.063,-50.0001"/>
</g>
<!-- Node3 -->
<g id="node3" class="node"><title>Node3</title>
<g id="a_node3"><a xlink:href="../../d5/d35/cipconnectionmanager_8c.html#a7eaeec6cc54d1799cfaba4031f0168d1" target="_top" xlink:title="Handles a Non Null Matching Forward Open Request. ">
<polygon fill="none" stroke="black" points="324,-60.5 324,-90.5 482,-90.5 482,-60.5 324,-60.5"/>
<text text-anchor="start" x="332" y="-78.5" font-family="Helvetica,sans-Serif" font-size="10.00">HandleNonNullMatchingForward</text>
<text text-anchor="middle" x="403" y="-67.5" font-family="Helvetica,sans-Serif" font-size="10.00">OpenRequest</text>
</a>
</g>
</g>
<!-- Node2&#45;&gt;Node3 -->
<g id="edge2" class="edge"><title>Node2&#45;&gt;Node3</title>
<path fill="none" stroke="midnightblue" d="M298.327,-56.3399C309.467,-57.5809 320.852,-58.987 331.806,-60.4767"/>
<polygon fill="midnightblue" stroke="midnightblue" points="298.501,-52.8386 288.184,-55.2489 297.753,-59.7985 298.501,-52.8386"/>
</g>
<!-- Node3&#45;&gt;Node2 -->
<g id="edge3" class="edge"><title>Node3&#45;&gt;Node2</title>
<path fill="none" stroke="midnightblue" d="M313.774,-71.6398C305.182,-70.627 296.551,-69.5301 288.184,-68.3856"/>
<polygon fill="midnightblue" stroke="midnightblue" points="313.493,-75.1303 323.825,-72.7879 314.287,-68.1755 313.493,-75.1303"/>
</g>
<!-- Node4 -->
<g id="node4" class="node"><title>Node4</title>
<g id="a_node4"><a xlink:href="../../d5/d35/cipconnectionmanager_8c.html#a8da18334cfde58434b845b0968620811" target="_top" xlink:title="Handles a Null Matching Forward Open request. ">
<polygon fill="none" stroke="black" points="518,-22.5 518,-52.5 658,-52.5 658,-22.5 518,-22.5"/>
<text text-anchor="start" x="526" y="-40.5" font-family="Helvetica,sans-Serif" font-size="10.00">HandleNullMatchingForward</text>
<text text-anchor="middle" x="588" y="-29.5" font-family="Helvetica,sans-Serif" font-size="10.00">OpenRequest</text>
</a>
</g>
</g>
<!-- Node3&#45;&gt;Node4 -->
<g id="edge4" class="edge"><title>Node3&#45;&gt;Node4</title>
<path fill="none" stroke="midnightblue" d="M486.358,-58.3984C496.892,-56.2109 507.59,-53.9895 517.885,-51.8518"/>
<polygon fill="midnightblue" stroke="midnightblue" points="485.406,-55.0213 476.326,-60.4814 486.829,-61.8751 485.406,-55.0213"/>
</g>
<!-- Node4&#45;&gt;Node2 -->
<g id="edge5" class="edge"><title>Node4&#45;&gt;Node2</title>
<path fill="none" stroke="midnightblue" d="M507.53,-40.9552C442.203,-43.7955 350.571,-47.7795 288.218,-50.4905"/>
<polygon fill="midnightblue" stroke="midnightblue" points="507.942,-44.4407 517.78,-40.5096 507.638,-37.4473 507.942,-44.4407"/>
</g>
<!-- Node5 -->
<g id="node5" class="node"><title>Node5</title>
<g id="a_node5"><a xlink:href="../../d5/d35/cipconnectionmanager_8c.html#ad68060facbfe52b38428a40da630651b" target="_top" xlink:title="Handles a Null Non Matching Forward Open Request. ">
<polygon fill="none" stroke="black" points="694,-0.5 694,-30.5 852,-30.5 852,-0.5 694,-0.5"/>
<text text-anchor="start" x="702" y="-18.5" font-family="Helvetica,sans-Serif" font-size="10.00">HandleNullNonMatchingForward</text>
<text text-anchor="middle" x="773" y="-7.5" font-family="Helvetica,sans-Serif" font-size="10.00">OpenRequest</text>
</a>
</g>
</g>
<!-- Node4&#45;&gt;Node5 -->
<g id="edge6" class="edge"><title>Node4&#45;&gt;Node5</title>
<path fill="none" stroke="midnightblue" d="M668.387,-27.9562C676.825,-26.9418 685.402,-25.9107 693.825,-24.898"/>
<polygon fill="midnightblue" stroke="midnightblue" points="667.695,-24.5141 658.184,-29.1827 668.531,-31.464 667.695,-24.5141"/>
</g>
<!-- Node5&#45;&gt;Node2 -->
<g id="edge7" class="edge"><title>Node5&#45;&gt;Node2</title>
<path fill="none" stroke="midnightblue" d="M683.658,-12.9457C674.989,-12.764 666.324,-12.6095 658,-12.5 595.783,-11.6815 580.095,-8.51554 518,-12.5 431.243,-18.067 410.088,-25.3956 324,-37.5 312.405,-39.1303 300.102,-40.9363 288.155,-42.7304"/>
<polygon fill="midnightblue" stroke="midnightblue" points="683.742,-16.4483 693.817,-13.1704 683.897,-9.45 683.742,-16.4483"/>
</g>
</g>
</svg>
