<?xml version="1.0" encoding="UTF-8" standalone="no"?>
<!DOCTYPE svg PUBLIC "-//W3C//DTD SVG 1.1//EN"
 "http://www.w3.org/Graphics/SVG/1.1/DTD/svg11.dtd">
<!-- Generated by graphviz version 2.38.0 (20140413.2041)
 -->
<!-- Title: IsConnectedOutputAssembly Pages: 1 -->
<svg width="374pt" height="66pt"
 viewBox="0.00 0.00 374.00 66.00" xmlns="http://www.w3.org/2000/svg" xmlns:xlink="http://www.w3.org/1999/xlink">
<g id="graph0" class="graph" transform="scale(1 1) rotate(0) translate(4 62)">
<title>IsConnectedOutputAssembly</title>
<!-- Node1 -->
<g id="node1" class="node"><title>Node1</title>
<polygon fill="#bfbfbf" stroke="black" points="0,-19.5 0,-38.5 145,-38.5 145,-19.5 0,-19.5"/>
<text text-anchor="middle" x="72.5" y="-26.5" font-family="Helvetica,sans-Serif" font-size="10.00">IsConnectedOutputAssembly</text>
</g>
<!-- Node2 -->
<g id="node2" class="node"><title>Node2</title>
<g id="a_node2"><a xlink:href="../../df/d91/cipconnectionobject_8c.html#a4c3d0e8258e857f80e5b7111519f7daa" target="_top" xlink:title="ConnectionObjectIsTypeIOConnection">
<polygon fill="none" stroke="black" points="181,-38.5 181,-57.5 366,-57.5 366,-38.5 181,-38.5"/>
<text text-anchor="middle" x="273.5" y="-45.5" font-family="Helvetica,sans-Serif" font-size="10.00">ConnectionObjectIsTypeIOConnection</text>
</a>
</g>
</g>
<!-- Node1&#45;&gt;Node2 -->
<g id="edge1" class="edge"><title>Node1&#45;&gt;Node2</title>
<path fill="none" stroke="midnightblue" d="M145.062,-35.8326C153.392,-36.6278 162.005,-37.4502 170.642,-38.2749"/>
<polygon fill="midnightblue" stroke="midnightblue" points="170.49,-41.7761 180.777,-39.2425 171.155,-34.8078 170.49,-41.7761"/>
</g>
<!-- Node3 -->
<g id="node3" class="node"><title>Node3</title>
<g id="a_node3"><a xlink:href="../../d9/dab/cip_2CMakeLists_8txt.html#acd2a52c78aafeccf09e8a5e6ddb0ce92" target="_top" xlink:title="if">
<polygon fill="none" stroke="black" points="259,-0.5 259,-19.5 288,-19.5 288,-0.5 259,-0.5"/>
<text text-anchor="middle" x="273.5" y="-7.5" font-family="Helvetica,sans-Serif" font-size="10.00">if</text>
</a>
</g>
</g>
<!-- Node1&#45;&gt;Node3 -->
<g id="edge2" class="edge"><title>Node1&#45;&gt;Node3</title>
<path fill="none" stroke="midnightblue" d="M145.062,-22.1674C181.365,-18.7014 223.066,-14.7198 248.597,-12.2822"/>
<polygon fill="midnightblue" stroke="midnightblue" points="249.177,-15.7428 258.799,-11.3081 248.512,-8.7745 249.177,-15.7428"/>
</g>
</g>
</svg>
