<?xml version="1.0" encoding="UTF-8" standalone="no"?>
<!DOCTYPE svg PUBLIC "-//W3C//DTD SVG 1.1//EN"
 "http://www.w3.org/Graphics/SVG/1.1/DTD/svg11.dtd">
<!-- Generated by graphviz version 2.38.0 (20140413.2041)
 -->
<!-- Title: HandleNullMatchingForwardOpenRequest Pages: 1 -->
<svg width="712pt" height="77pt"
 viewBox="0.00 0.00 712.00 76.71" xmlns="http://www.w3.org/2000/svg" xmlns:xlink="http://www.w3.org/1999/xlink">
<g id="graph0" class="graph" transform="scale(1 1) rotate(0) translate(4 72.7116)">
<title>HandleNullMatchingForwardOpenRequest</title>
<!-- Node1 -->
<g id="node1" class="node"><title>Node1</title>
<polygon fill="#bfbfbf" stroke="black" points="0,-22.5704 0,-52.5704 140,-52.5704 140,-22.5704 0,-22.5704"/>
<text text-anchor="start" x="8" y="-40.5704" font-family="Helvetica,sans-Serif" font-size="10.00">HandleNullMatchingForward</text>
<text text-anchor="middle" x="70" y="-29.5704" font-family="Helvetica,sans-Serif" font-size="10.00">OpenRequest</text>
</g>
<!-- Node2 -->
<g id="node2" class="node"><title>Node2</title>
<g id="a_node2"><a xlink:href="../../d5/d35/cipconnectionmanager_8c.html#af379a4b383c738a07d8e1ab0a4ac7510" target="_top" xlink:title="Handles a Non Null Non Matching Forward Open Request. ">
<polygon fill="none" stroke="black" points="370,-22.5704 370,-52.5704 510,-52.5704 510,-22.5704 370,-22.5704"/>
<text text-anchor="start" x="378" y="-40.5704" font-family="Helvetica,sans-Serif" font-size="10.00">HandleNonNullNonMatching</text>
<text text-anchor="middle" x="440" y="-29.5704" font-family="Helvetica,sans-Serif" font-size="10.00">ForwardOpenRequest</text>
</a>
</g>
</g>
<!-- Node1&#45;&gt;Node2 -->
<g id="edge1" class="edge"><title>Node1&#45;&gt;Node2</title>
<path fill="none" stroke="midnightblue" d="M133.403,-54.9536C147.315,-58.1197 162.072,-60.9352 176,-62.5704 245.743,-70.7587 264.257,-70.7587 334,-62.5704 351.308,-60.5383 369.898,-56.6833 386.554,-52.5981"/>
<polygon fill="midnightblue" stroke="midnightblue" points="133.983,-51.4943 123.446,-52.5981 132.371,-58.3063 133.983,-51.4943"/>
</g>
<!-- Node4 -->
<g id="node4" class="node"><title>Node4</title>
<g id="a_node4"><a xlink:href="../../d5/d35/cipconnectionmanager_8c.html#ad68060facbfe52b38428a40da630651b" target="_top" xlink:title="Handles a Null Non Matching Forward Open Request. ">
<polygon fill="none" stroke="black" points="176,-22.5704 176,-52.5704 334,-52.5704 334,-22.5704 176,-22.5704"/>
<text text-anchor="start" x="184" y="-40.5704" font-family="Helvetica,sans-Serif" font-size="10.00">HandleNullNonMatchingForward</text>
<text text-anchor="middle" x="255" y="-29.5704" font-family="Helvetica,sans-Serif" font-size="10.00">OpenRequest</text>
</a>
</g>
</g>
<!-- Node1&#45;&gt;Node4 -->
<g id="edge5" class="edge"><title>Node1&#45;&gt;Node4</title>
<path fill="none" stroke="midnightblue" d="M150.387,-37.5704C158.825,-37.5704 167.402,-37.5704 175.825,-37.5704"/>
<polygon fill="midnightblue" stroke="midnightblue" points="150.184,-34.0705 140.184,-37.5704 150.184,-41.0705 150.184,-34.0705"/>
</g>
<!-- Node3 -->
<g id="node3" class="node"><title>Node3</title>
<g id="a_node3"><a xlink:href="../../d5/d35/cipconnectionmanager_8c.html#a7eaeec6cc54d1799cfaba4031f0168d1" target="_top" xlink:title="Handles a Non Null Matching Forward Open Request. ">
<polygon fill="none" stroke="black" points="546,-22.5704 546,-52.5704 704,-52.5704 704,-22.5704 546,-22.5704"/>
<text text-anchor="start" x="554" y="-40.5704" font-family="Helvetica,sans-Serif" font-size="10.00">HandleNonNullMatchingForward</text>
<text text-anchor="middle" x="625" y="-29.5704" font-family="Helvetica,sans-Serif" font-size="10.00">OpenRequest</text>
</a>
</g>
</g>
<!-- Node2&#45;&gt;Node3 -->
<g id="edge2" class="edge"><title>Node2&#45;&gt;Node3</title>
<path fill="none" stroke="midnightblue" d="M520.387,-30.8733C528.825,-30.7992 537.402,-30.803 545.825,-30.8844"/>
<polygon fill="midnightblue" stroke="midnightblue" points="520.139,-27.376 510.184,-31.0021 520.228,-34.3755 520.139,-27.376"/>
</g>
<!-- Node3&#45;&gt;Node1 -->
<g id="edge4" class="edge"><title>Node3&#45;&gt;Node1</title>
<path fill="none" stroke="midnightblue" d="M557.057,-20.3696C541.7,-17.1286 525.368,-14.2357 510,-12.5704 362.419,3.42165 323.432,4.73906 176,-12.5704 158.692,-14.6025 140.102,-18.4575 123.446,-22.5427"/>
<polygon fill="midnightblue" stroke="midnightblue" points="556.472,-23.8242 566.989,-22.5402 557.967,-16.9856 556.472,-23.8242"/>
</g>
<!-- Node3&#45;&gt;Node2 -->
<g id="edge3" class="edge"><title>Node3&#45;&gt;Node2</title>
<path fill="none" stroke="midnightblue" d="M535.774,-44.3166C527.182,-44.3367 518.551,-44.2775 510.184,-44.1387"/>
<polygon fill="midnightblue" stroke="midnightblue" points="535.847,-47.8163 545.825,-44.2564 535.805,-40.8164 535.847,-47.8163"/>
</g>
<!-- Node4&#45;&gt;Node2 -->
<g id="edge6" class="edge"><title>Node4&#45;&gt;Node2</title>
<path fill="none" stroke="midnightblue" d="M344.194,-37.5704C352.789,-37.5704 361.424,-37.5704 369.793,-37.5704"/>
<polygon fill="midnightblue" stroke="midnightblue" points="344.139,-34.0705 334.139,-37.5704 344.139,-41.0705 344.139,-34.0705"/>
</g>
</g>
</svg>
