<?xml version="1.0" encoding="UTF-8" standalone="no"?>
<!DOCTYPE svg PUBLIC "-//W3C//DTD SVG 1.1//EN"
 "http://www.w3.org/Graphics/SVG/1.1/DTD/svg11.dtd">
<!-- Generated by graphviz version 2.38.0 (20140413.2041)
 -->
<!-- Title: CheckForTimedOutConnectionsAndCloseTCPConnections Pages: 1 -->
<svg width="362pt" height="66pt"
 viewBox="0.00 0.00 362.00 66.00" xmlns="http://www.w3.org/2000/svg" xmlns:xlink="http://www.w3.org/1999/xlink">
<g id="graph0" class="graph" transform="scale(1 1) rotate(0) translate(4 62)">
<title>CheckForTimedOutConnectionsAndCloseTCPConnections</title>
<!-- Node1 -->
<g id="node1" class="node"><title>Node1</title>
<polygon fill="#bfbfbf" stroke="black" points="0,-14 0,-44 157,-44 157,-14 0,-14"/>
<text text-anchor="start" x="8" y="-32" font-family="Helvetica,sans-Serif" font-size="10.00">CheckForTimedOutConnections</text>
<text text-anchor="middle" x="78.5" y="-21" font-family="Helvetica,sans-Serif" font-size="10.00">AndCloseTCPConnections</text>
</g>
<!-- Node2 -->
<g id="node2" class="node"><title>Node2</title>
<g id="a_node2"><a xlink:href="../../df/d91/cipconnectionobject_8c.html#a308afe67f0cfd50cc772ad276257d6f2" target="_top" xlink:title="ConnectionObjectEqualOriginator">
<polygon fill="none" stroke="black" points="193,-38.5 193,-57.5 354,-57.5 354,-38.5 193,-38.5"/>
<text text-anchor="middle" x="273.5" y="-45.5" font-family="Helvetica,sans-Serif" font-size="10.00">ConnectionObjectEqualOriginator</text>
</a>
</g>
</g>
<!-- Node1&#45;&gt;Node2 -->
<g id="edge1" class="edge"><title>Node1&#45;&gt;Node2</title>
<path fill="none" stroke="midnightblue" d="M157.166,-36.6459C165.598,-37.476 174.23,-38.3257 182.79,-39.1684"/>
<polygon fill="midnightblue" stroke="midnightblue" points="182.495,-42.6562 192.789,-40.1528 183.18,-35.6899 182.495,-42.6562"/>
</g>
<!-- Node3 -->
<g id="node3" class="node"><title>Node3</title>
<g id="a_node3"><a xlink:href="../../df/d91/cipconnectionobject_8c.html#a9c381240583828bec2cda2d54dc94d3b" target="_top" xlink:title="ConnectionObjectGetState">
<polygon fill="none" stroke="black" points="206.5,-0.5 206.5,-19.5 340.5,-19.5 340.5,-0.5 206.5,-0.5"/>
<text text-anchor="middle" x="273.5" y="-7.5" font-family="Helvetica,sans-Serif" font-size="10.00">ConnectionObjectGetState</text>
</a>
</g>
</g>
<!-- Node1&#45;&gt;Node3 -->
<g id="edge2" class="edge"><title>Node1&#45;&gt;Node3</title>
<path fill="none" stroke="midnightblue" d="M157.166,-21.3541C170.06,-20.0848 183.42,-18.7695 196.277,-17.5038"/>
<polygon fill="midnightblue" stroke="midnightblue" points="196.853,-20.9641 206.462,-16.5011 196.167,-13.9978 196.853,-20.9641"/>
</g>
</g>
</svg>
