<?xml version="1.0" encoding="UTF-8" standalone="no"?>
<!DOCTYPE svg PUBLIC "-//W3C//DTD SVG 1.1//EN"
 "http://www.w3.org/Graphics/SVG/1.1/DTD/svg11.dtd">
<!-- Generated by graphviz version 2.38.0 (20140413.2041)
 -->
<!-- Title: ForwardOpen Pages: 1 -->
<!--zoomable 902 -->
<svg id="main" version="1.1" xmlns="http://www.w3.org/2000/svg" xmlns:xlink="http://www.w3.org/1999/xlink" xml:space="preserve" onload="init(evt)">
<style type="text/css"><![CDATA[
.edge:hover path { stroke: red; }
.edge:hover polygon { stroke: red; fill: red; }
]]></style>
<script type="text/javascript"><![CDATA[
var edges = document.getElementsByTagName('g');
if (edges && edges.length) {
  for (var i=0;i<edges.length;i++) {
    if (edges[i].id.substr(0,4)=='edge') {
      edges[i].setAttribute('class','edge');
    }
  }
}
]]></script>
        <defs>
                <circle id="rim" cx="0" cy="0" r="7"/>
                <circle id="rim2" cx="0" cy="0" r="3.5"/>
                <g id="zoomPlus">
                        <use xlink:href="#rim" fill="#404040">
                                <set attributeName="fill" to="#808080" begin="zoomplus.mouseover" end="zoomplus.mouseout"/>
                        </use>
                        <path d="M-4,0h8M0,-4v8" fill="none" stroke="white" stroke-width="1.5" pointer-events="none"/>
                </g>
                <g id="zoomMin">
                        <use xlink:href="#rim" fill="#404040">
                                <set attributeName="fill" to="#808080" begin="zoomminus.mouseover" end="zoomminus.mouseout"/>
                        </use>
                        <path d="M-4,0h8" fill="none" stroke="white" stroke-width="1.5" pointer-events="none"/>
                </g>
                <g id="dirArrow">
                        <path fill="none" stroke="white" stroke-width="1.5" d="M0,-3.0v7 M-2.5,-0.5L0,-3.0L2.5,-0.5"/>
                </g>
               <g id="resetDef">
                       <use xlink:href="#rim2" fill="#404040">
                               <set attributeName="fill" to="#808080" begin="reset.mouseover" end="reset.mouseout"/>
                       </use>
               </g>
        </defs>

<script type="text/javascript">
var viewWidth = 763;
var viewHeight = 902;
var sectionId = 'dynsection-20';
</script>
<script xlink:href="../../svgpan.js"/>
<svg id="graph" class="graph">
<g id="viewport">
<title>ForwardOpen</title>
<!-- Node1 -->
<g id="node1" class="node"><title>Node1</title>
<polygon fill="#bfbfbf" stroke="black" points="0,-76.5 0,-95.5 75,-95.5 75,-76.5 0,-76.5"/>
<text text-anchor="middle" x="37.5" y="-83.5" font-family="Helvetica,sans-Serif" font-size="10.00">ForwardOpen</text>
</g>
<!-- Node2 -->
<g id="node2" class="node"><title>Node2</title>
<g id="a_node2"><a xlink:href="../../d5/d35/cipconnectionmanager_8c.html#a949510af1a4c39a622b0fb7feb9b796a" target="_top" xlink:title="Assembles the Forward Open Response. ">
<polygon fill="none" stroke="black" points="132.5,-798.5 132.5,-817.5 295.5,-817.5 295.5,-798.5 132.5,-798.5"/>
<text text-anchor="middle" x="214" y="-805.5" font-family="Helvetica,sans-Serif" font-size="10.00">AssembleForwardOpenResponse</text>
</a>
</g>
</g>
<!-- Node1&#45;&gt;Node2 -->
<g id="edge1" class="edge"><title>Node1&#45;&gt;Node2</title>
<path fill="none" stroke="midnightblue" d="M40.0056,-95.6873C46.7959,-138.896 75.7752,-318.26 111,-463 141.611,-588.779 189.513,-737.028 206.644,-788.921"/>
<polygon fill="midnightblue" stroke="midnightblue" points="203.347,-790.098 209.815,-798.489 209.991,-787.896 203.347,-790.098"/>
</g>
<!-- Node7 -->
<g id="node7" class="node"><title>Node7</title>
<g id="a_node7"><a xlink:href="../../d5/d35/cipconnectionmanager_8c.html#a7f66b0e47fa80f863755d608b78b6f78" target="_top" xlink:title="check if the data given in the connection object match with an already established connection ...">
<polygon fill="none" stroke="black" points="142,-76.5 142,-95.5 286,-95.5 286,-76.5 142,-76.5"/>
<text text-anchor="middle" x="214" y="-83.5" font-family="Helvetica,sans-Serif" font-size="10.00">CheckForExistingConnection</text>
</a>
</g>
</g>
<!-- Node1&#45;&gt;Node7 -->
<g id="edge6" class="edge"><title>Node1&#45;&gt;Node7</title>
<path fill="none" stroke="midnightblue" d="M75.0809,-86C91.667,-86 111.991,-86 131.888,-86"/>
<polygon fill="midnightblue" stroke="midnightblue" points="131.916,-89.5001 141.916,-86 131.916,-82.5001 131.916,-89.5001"/>
</g>
<!-- Node10 -->
<g id="node10" class="node"><title>Node10</title>
<g id="a_node10"><a xlink:href="../../df/d91/cipconnectionobject_8c.html#aa896ebb7d03c6e75027402b3e0d6dc6e" target="_top" xlink:title="ConnectionObjectGetOToTConnectionType">
<polygon fill="none" stroke="black" points="111,-38.5 111,-57.5 317,-57.5 317,-38.5 111,-38.5"/>
<text text-anchor="middle" x="214" y="-45.5" font-family="Helvetica,sans-Serif" font-size="10.00">ConnectionObjectGetOToTConnectionType</text>
</a>
</g>
</g>
<!-- Node1&#45;&gt;Node10 -->
<g id="edge9" class="edge"><title>Node1&#45;&gt;Node10</title>
<path fill="none" stroke="midnightblue" d="M73.0407,-76.4047C85.0154,-73.223 98.5564,-69.7857 111,-67 122.81,-64.3561 135.447,-61.7913 147.663,-59.4461"/>
<polygon fill="midnightblue" stroke="midnightblue" points="148.622,-62.8269 157.798,-57.5309 147.322,-55.9487 148.622,-62.8269"/>
</g>
<!-- Node12 -->
<g id="node12" class="node"><title>Node12</title>
<g id="a_node12"><a xlink:href="../../df/d91/cipconnectionobject_8c.html#ad61ad2b2c18480a141e5df346e32be02" target="_top" xlink:title="ConnectionObjectGetTToOConnectionType">
<polygon fill="none" stroke="black" points="111,-0.5 111,-19.5 317,-19.5 317,-0.5 111,-0.5"/>
<text text-anchor="middle" x="214" y="-7.5" font-family="Helvetica,sans-Serif" font-size="10.00">ConnectionObjectGetTToOConnectionType</text>
</a>
</g>
</g>
<!-- Node1&#45;&gt;Node12 -->
<g id="edge11" class="edge"><title>Node1&#45;&gt;Node12</title>
<path fill="none" stroke="midnightblue" d="M47.7946,-76.1854C60.6886,-63.2068 85.3299,-40.6246 111,-29 116.653,-26.4399 122.633,-24.2247 128.747,-22.3081"/>
<polygon fill="midnightblue" stroke="midnightblue" points="129.789,-25.6505 138.441,-19.5351 127.864,-18.9205 129.789,-25.6505"/>
</g>
<!-- Node13 -->
<g id="node13" class="node"><title>Node13</title>
<g id="a_node13"><a xlink:href="../../df/d91/cipconnectionobject_8c.html#ad1ae63909621ed91670ae33862edd214" target="_top" xlink:title="ConnectionObjectInitialize\lFromMessage">
<polygon fill="none" stroke="black" points="148.5,-423 148.5,-453 279.5,-453 279.5,-423 148.5,-423"/>
<text text-anchor="start" x="156.5" y="-441" font-family="Helvetica,sans-Serif" font-size="10.00">ConnectionObjectInitialize</text>
<text text-anchor="middle" x="214" y="-430" font-family="Helvetica,sans-Serif" font-size="10.00">FromMessage</text>
</a>
</g>
</g>
<!-- Node1&#45;&gt;Node13 -->
<g id="edge13" class="edge"><title>Node1&#45;&gt;Node13</title>
<path fill="none" stroke="midnightblue" d="M43.3493,-95.7819C66.5336,-142.549 166.381,-343.961 201.07,-413.936"/>
<polygon fill="midnightblue" stroke="midnightblue" points="197.941,-415.503 205.518,-422.908 204.212,-412.394 197.941,-415.503"/>
</g>
<!-- Node3 -->
<g id="node3" class="node"><title>Node3</title>
<g id="a_node3"><a xlink:href="../../d4/d91/group__ENCAP.html#gaafc3c9e3ff582c9b7e438ae2b1fdf822" target="_top" xlink:title="Converts UINT32 data from host to little endian and writes it to buffer. ">
<polygon fill="none" stroke="black" points="392.5,-874.5 392.5,-893.5 495.5,-893.5 495.5,-874.5 392.5,-874.5"/>
<text text-anchor="middle" x="444" y="-881.5" font-family="Helvetica,sans-Serif" font-size="10.00">AddDintToMessage</text>
</a>
</g>
</g>
<!-- Node2&#45;&gt;Node3 -->
<g id="edge2" class="edge"><title>Node2&#45;&gt;Node3</title>
<path fill="none" stroke="midnightblue" d="M235.143,-817.697C261.642,-830.132 309.909,-851.676 353,-865 362.383,-867.901 372.452,-870.505 382.335,-872.787"/>
<polygon fill="midnightblue" stroke="midnightblue" points="381.604,-876.21 392.125,-874.961 383.122,-869.376 381.604,-876.21"/>
</g>
<!-- Node4 -->
<g id="node4" class="node"><title>Node4</title>
<g id="a_node4"><a xlink:href="../../d4/d91/group__ENCAP.html#gae689aac2a85bf49fb356ec94c8800799" target="_top" xlink:title="converts UINT16 data from host to little endian an writes it to buffer. ">
<polygon fill="none" stroke="black" points="396,-836.5 396,-855.5 492,-855.5 492,-836.5 396,-836.5"/>
<text text-anchor="middle" x="444" y="-843.5" font-family="Helvetica,sans-Serif" font-size="10.00">AddIntToMessage</text>
</a>
</g>
</g>
<!-- Node2&#45;&gt;Node4 -->
<g id="edge3" class="edge"><title>Node2&#45;&gt;Node4</title>
<path fill="none" stroke="midnightblue" d="M272.24,-817.54C306.937,-823.323 351.052,-830.675 385.751,-836.458"/>
<polygon fill="midnightblue" stroke="midnightblue" points="385.293,-839.93 395.733,-838.122 386.444,-833.026 385.293,-839.93"/>
</g>
<!-- Node5 -->
<g id="node5" class="node"><title>Node5</title>
<g id="a_node5"><a xlink:href="../../d5/d35/cipconnectionmanager_8c.html#ac09a235d1ae01c674d4537450fb8fda3" target="_top" xlink:title="Adds a Null Address Item to the common data packet format data. ">
<polygon fill="none" stroke="black" points="390.5,-798.5 390.5,-817.5 497.5,-817.5 497.5,-798.5 390.5,-798.5"/>
<text text-anchor="middle" x="444" y="-805.5" font-family="Helvetica,sans-Serif" font-size="10.00">AddNullAddressItem</text>
</a>
</g>
</g>
<!-- Node2&#45;&gt;Node5 -->
<g id="edge4" class="edge"><title>Node2&#45;&gt;Node5</title>
<path fill="none" stroke="midnightblue" d="M295.705,-808C323.412,-808 353.996,-808 380.081,-808"/>
<polygon fill="midnightblue" stroke="midnightblue" points="380.214,-811.5 390.214,-808 380.214,-804.5 380.214,-811.5"/>
</g>
<!-- Node6 -->
<g id="node6" class="node"><title>Node6</title>
<g id="a_node6"><a xlink:href="../../df/d91/cipconnectionobject_8c.html#ace0a978d1b7fe59261b1024b5ba1cd15" target="_top" xlink:title="ConnectionObjectSetState">
<polygon fill="none" stroke="black" points="377.5,-760.5 377.5,-779.5 510.5,-779.5 510.5,-760.5 377.5,-760.5"/>
<text text-anchor="middle" x="444" y="-767.5" font-family="Helvetica,sans-Serif" font-size="10.00">ConnectionObjectSetState</text>
</a>
</g>
</g>
<!-- Node2&#45;&gt;Node6 -->
<g id="edge5" class="edge"><title>Node2&#45;&gt;Node6</title>
<path fill="none" stroke="midnightblue" d="M272.24,-798.46C303.68,-793.22 342.853,-786.691 375.746,-781.209"/>
<polygon fill="midnightblue" stroke="midnightblue" points="376.448,-784.64 385.737,-779.544 375.297,-777.736 376.448,-784.64"/>
</g>
<!-- Node8 -->
<g id="node8" class="node"><title>Node8</title>
<g id="a_node8"><a xlink:href="../../df/d91/cipconnectionobject_8c.html#a9c381240583828bec2cda2d54dc94d3b" target="_top" xlink:title="ConnectionObjectGetState">
<polygon fill="none" stroke="black" points="377,-76.5 377,-95.5 511,-95.5 511,-76.5 377,-76.5"/>
<text text-anchor="middle" x="444" y="-83.5" font-family="Helvetica,sans-Serif" font-size="10.00">ConnectionObjectGetState</text>
</a>
</g>
</g>
<!-- Node7&#45;&gt;Node8 -->
<g id="edge7" class="edge"><title>Node7&#45;&gt;Node8</title>
<path fill="none" stroke="midnightblue" d="M286.203,-86C311.81,-86 340.788,-86 366.803,-86"/>
<polygon fill="midnightblue" stroke="midnightblue" points="366.992,-89.5001 376.992,-86 366.992,-82.5001 366.992,-89.5001"/>
</g>
<!-- Node9 -->
<g id="node9" class="node"><title>Node9</title>
<g id="a_node9"><a xlink:href="../../df/d91/cipconnectionobject_8c.html#a0283b66a8b3eeada9a6ff55ce32db1c8" target="_top" xlink:title="EqualConnectionTriad">
<polygon fill="none" stroke="black" points="387.5,-38.5 387.5,-57.5 500.5,-57.5 500.5,-38.5 387.5,-38.5"/>
<text text-anchor="middle" x="444" y="-45.5" font-family="Helvetica,sans-Serif" font-size="10.00">EqualConnectionTriad</text>
</a>
</g>
</g>
<!-- Node7&#45;&gt;Node9 -->
<g id="edge8" class="edge"><title>Node7&#45;&gt;Node9</title>
<path fill="none" stroke="midnightblue" d="M272.24,-76.46C304.158,-71.1404 344.046,-64.4923 377.242,-58.9597"/>
<polygon fill="midnightblue" stroke="midnightblue" points="378.025,-62.3776 387.313,-57.2811 376.874,-55.4728 378.025,-62.3776"/>
</g>
<!-- Node11 -->
<g id="node11" class="node"><title>Node11</title>
<g id="a_node11"><a xlink:href="../../df/d91/cipconnectionobject_8c.html#a0da85deed56477da3ec500cec51aa46e" target="_top" xlink:title="ConnectionObjectGetConnectionType">
<polygon fill="none" stroke="black" points="353,-0.5 353,-19.5 535,-19.5 535,-0.5 353,-0.5"/>
<text text-anchor="middle" x="444" y="-7.5" font-family="Helvetica,sans-Serif" font-size="10.00">ConnectionObjectGetConnectionType</text>
</a>
</g>
</g>
<!-- Node10&#45;&gt;Node11 -->
<g id="edge10" class="edge"><title>Node10&#45;&gt;Node11</title>
<path fill="none" stroke="midnightblue" d="M272.24,-38.46C303.68,-33.2201 342.853,-26.6912 375.746,-21.2091"/>
<polygon fill="midnightblue" stroke="midnightblue" points="376.448,-24.6403 385.737,-19.5439 375.297,-17.7356 376.448,-24.6403"/>
</g>
<!-- Node12&#45;&gt;Node11 -->
<g id="edge12" class="edge"><title>Node12&#45;&gt;Node11</title>
<path fill="none" stroke="midnightblue" d="M317.329,-10C325.745,-10 334.247,-10 342.649,-10"/>
<polygon fill="midnightblue" stroke="midnightblue" points="342.835,-13.5001 352.835,-10 342.835,-6.5001 342.835,-13.5001"/>
</g>
<!-- Node13&#45;&gt;Node6 -->
<g id="edge22" class="edge"><title>Node13&#45;&gt;Node6</title>
<path fill="none" stroke="midnightblue" d="M216.857,-453.322C223.908,-504.456 253.862,-670.535 353,-751 357.417,-754.585 362.348,-757.541 367.564,-759.972"/>
<polygon fill="midnightblue" stroke="midnightblue" points="366.625,-763.365 377.211,-763.805 369.21,-756.86 366.625,-763.365"/>
</g>
<!-- Node14 -->
<g id="node14" class="node"><title>Node14</title>
<g id="a_node14"><a xlink:href="../../d4/d91/group__ENCAP.html#ga0a45608ad12bae48152cb1cfafef1a4c" target="_top" xlink:title="Reads EIP_UINT8 from *buffer and converts little endian to host. ">
<polygon fill="none" stroke="black" points="388,-722.5 388,-741.5 500,-741.5 500,-722.5 388,-722.5"/>
<text text-anchor="middle" x="444" y="-729.5" font-family="Helvetica,sans-Serif" font-size="10.00">GetSintFromMessage</text>
</a>
</g>
</g>
<!-- Node13&#45;&gt;Node14 -->
<g id="edge14" class="edge"><title>Node13&#45;&gt;Node14</title>
<path fill="none" stroke="midnightblue" d="M217.813,-453.118C227.365,-499.96 263.11,-643.685 353,-713 360.337,-718.657 368.97,-722.727 377.936,-725.637"/>
<polygon fill="midnightblue" stroke="midnightblue" points="377.178,-729.058 387.75,-728.36 379.05,-722.313 377.178,-729.058"/>
</g>
<!-- Node15 -->
<g id="node15" class="node"><title>Node15</title>
<g id="a_node15"><a xlink:href="../../df/d91/cipconnectionobject_8c.html#ac3ccaa3dc2b635564c622af574f70dc4" target="_top" xlink:title="ConnectionObjectSetCipConsumed\lConnectionID">
<polygon fill="none" stroke="black" points="358,-673 358,-703 530,-703 530,-673 358,-673"/>
<text text-anchor="start" x="366" y="-691" font-family="Helvetica,sans-Serif" font-size="10.00">ConnectionObjectSetCipConsumed</text>
<text text-anchor="middle" x="444" y="-680" font-family="Helvetica,sans-Serif" font-size="10.00">ConnectionID</text>
</a>
</g>
</g>
<!-- Node13&#45;&gt;Node15 -->
<g id="edge15" class="edge"><title>Node13&#45;&gt;Node15</title>
<path fill="none" stroke="midnightblue" d="M219.806,-453.006C233.563,-493.495 277.062,-605.775 353,-663 355.509,-664.891 358.154,-666.639 360.9,-668.255"/>
<polygon fill="midnightblue" stroke="midnightblue" points="359.483,-671.463 369.969,-672.978 362.717,-665.254 359.483,-671.463"/>
</g>
<!-- Node16 -->
<g id="node16" class="node"><title>Node16</title>
<g id="a_node16"><a xlink:href="../../d4/d91/group__ENCAP.html#ga668f92389ee06510864585b97955f6f8" target="_top" xlink:title="Reads EIP_UINT32 from *buffer and converts little endian to host. ">
<polygon fill="none" stroke="black" points="387.5,-634.5 387.5,-653.5 500.5,-653.5 500.5,-634.5 387.5,-634.5"/>
<text text-anchor="middle" x="444" y="-641.5" font-family="Helvetica,sans-Serif" font-size="10.00">GetDintFromMessage</text>
</a>
</g>
</g>
<!-- Node13&#45;&gt;Node16 -->
<g id="edge16" class="edge"><title>Node13&#45;&gt;Node16</title>
<path fill="none" stroke="midnightblue" d="M221.437,-453.03C237.701,-489.069 284.111,-580.693 353,-625 360.417,-629.77 368.821,-633.366 377.442,-636.073"/>
<polygon fill="midnightblue" stroke="midnightblue" points="376.656,-639.487 387.226,-638.767 378.514,-632.738 376.656,-639.487"/>
</g>
<!-- Node17 -->
<g id="node17" class="node"><title>Node17</title>
<g id="a_node17"><a xlink:href="../../df/d91/cipconnectionobject_8c.html#af7cb76f073d6f32b45e37c06109770b7" target="_top" xlink:title="ConnectionObjectSetCipProduced\lConnectionID">
<polygon fill="none" stroke="black" points="361,-585 361,-615 527,-615 527,-585 361,-585"/>
<text text-anchor="start" x="369" y="-603" font-family="Helvetica,sans-Serif" font-size="10.00">ConnectionObjectSetCipProduced</text>
<text text-anchor="middle" x="444" y="-592" font-family="Helvetica,sans-Serif" font-size="10.00">ConnectionID</text>
</a>
</g>
</g>
<!-- Node13&#45;&gt;Node17 -->
<g id="edge17" class="edge"><title>Node13&#45;&gt;Node17</title>
<path fill="none" stroke="midnightblue" d="M225.666,-453.025C246.681,-481.488 296.349,-543.338 353,-576 356.034,-577.749 359.199,-579.374 362.45,-580.884"/>
<polygon fill="midnightblue" stroke="midnightblue" points="361.234,-584.169 371.807,-584.838 363.959,-577.721 361.234,-584.169"/>
</g>
<!-- Node18 -->
<g id="node18" class="node"><title>Node18</title>
<g id="a_node18"><a xlink:href="../../df/d91/cipconnectionobject_8c.html#ae147f70246bfb10d8cb22386e91b5698" target="_top" xlink:title="ConnectionObjectSetConnection\lSerialNumber">
<polygon fill="none" stroke="black" points="364.5,-536 364.5,-566 523.5,-566 523.5,-536 364.5,-536"/>
<text text-anchor="start" x="372.5" y="-554" font-family="Helvetica,sans-Serif" font-size="10.00">ConnectionObjectSetConnection</text>
<text text-anchor="middle" x="444" y="-543" font-family="Helvetica,sans-Serif" font-size="10.00">SerialNumber</text>
</a>
</g>
</g>
<!-- Node13&#45;&gt;Node18 -->
<g id="edge18" class="edge"><title>Node13&#45;&gt;Node18</title>
<path fill="none" stroke="midnightblue" d="M234.506,-453.107C260.317,-472.451 307.841,-505.871 353,-526 358.409,-528.411 364.105,-530.643 369.898,-532.697"/>
<polygon fill="midnightblue" stroke="midnightblue" points="369.109,-536.124 379.703,-535.988 371.337,-529.488 369.109,-536.124"/>
</g>
<!-- Node19 -->
<g id="node19" class="node"><title>Node19</title>
<g id="a_node19"><a xlink:href="../../d4/d91/group__ENCAP.html#ga70322f970709ca9c9a1a1d474cfe2302" target="_top" xlink:title="Reads EIP_UINT16 from *buffer and converts little endian to host. ">
<polygon fill="none" stroke="black" points="391,-497.5 391,-516.5 497,-516.5 497,-497.5 391,-497.5"/>
<text text-anchor="middle" x="444" y="-504.5" font-family="Helvetica,sans-Serif" font-size="10.00">GetIntFromMessage</text>
</a>
</g>
</g>
<!-- Node13&#45;&gt;Node19 -->
<g id="edge19" class="edge"><title>Node13&#45;&gt;Node19</title>
<path fill="none" stroke="midnightblue" d="M252.024,-453.011C279.549,-463.777 318.203,-478.075 353,-488 362.232,-490.633 372.092,-493.077 381.774,-495.276"/>
<polygon fill="midnightblue" stroke="midnightblue" points="381.249,-498.744 391.767,-497.476 382.754,-491.908 381.249,-498.744"/>
</g>
<!-- Node20 -->
<g id="node20" class="node"><title>Node20</title>
<g id="a_node20"><a xlink:href="../../df/d91/cipconnectionobject_8c.html#ab8a0632e6a31e8f91c35c9ec3c319ca1" target="_top" xlink:title="ConnectionObjectSetOriginator\lVendorId">
<polygon fill="none" stroke="black" points="368,-448 368,-478 520,-478 520,-448 368,-448"/>
<text text-anchor="start" x="376" y="-466" font-family="Helvetica,sans-Serif" font-size="10.00">ConnectionObjectSetOriginator</text>
<text text-anchor="middle" x="444" y="-455" font-family="Helvetica,sans-Serif" font-size="10.00">VendorId</text>
</a>
</g>
</g>
<!-- Node13&#45;&gt;Node20 -->
<g id="edge20" class="edge"><title>Node13&#45;&gt;Node20</title>
<path fill="none" stroke="midnightblue" d="M279.726,-445.097C303.901,-447.748 331.736,-450.8 357.498,-453.625"/>
<polygon fill="midnightblue" stroke="midnightblue" points="357.311,-457.125 367.633,-454.736 358.074,-450.167 357.311,-457.125"/>
</g>
<!-- Node21 -->
<g id="node21" class="node"><title>Node21</title>
<g id="a_node21"><a xlink:href="../../df/d91/cipconnectionobject_8c.html#a785834d5d1e4886cded28cca3cd35682" target="_top" xlink:title="ConnectionObjectSetOriginator\lSerialNumber">
<polygon fill="none" stroke="black" points="368,-399 368,-429 520,-429 520,-399 368,-399"/>
<text text-anchor="start" x="376" y="-417" font-family="Helvetica,sans-Serif" font-size="10.00">ConnectionObjectSetOriginator</text>
<text text-anchor="middle" x="444" y="-406" font-family="Helvetica,sans-Serif" font-size="10.00">SerialNumber</text>
</a>
</g>
</g>
<!-- Node13&#45;&gt;Node21 -->
<g id="edge21" class="edge"><title>Node13&#45;&gt;Node21</title>
<path fill="none" stroke="midnightblue" d="M279.726,-431.187C303.901,-428.642 331.736,-425.712 357.498,-423"/>
<polygon fill="midnightblue" stroke="midnightblue" points="358.055,-426.461 367.633,-421.933 357.322,-419.5 358.055,-426.461"/>
</g>
<!-- Node22 -->
<g id="node22" class="node"><title>Node22</title>
<g id="a_node22"><a xlink:href="../../df/d91/cipconnectionobject_8c.html#a968ebe3ecb4cbf77c78c6a5549dc5ed2" target="_top" xlink:title="ConnectionObjectSetConnection\lTimeoutMultiplier">
<polygon fill="none" stroke="black" points="364.5,-350 364.5,-380 523.5,-380 523.5,-350 364.5,-350"/>
<text text-anchor="start" x="372.5" y="-368" font-family="Helvetica,sans-Serif" font-size="10.00">ConnectionObjectSetConnection</text>
<text text-anchor="middle" x="444" y="-357" font-family="Helvetica,sans-Serif" font-size="10.00">TimeoutMultiplier</text>
</a>
</g>
</g>
<!-- Node13&#45;&gt;Node22 -->
<g id="edge23" class="edge"><title>Node13&#45;&gt;Node22</title>
<path fill="none" stroke="midnightblue" d="M256.136,-422.92C283.454,-413.097 320.193,-400.251 353,-390 360.703,-387.593 368.812,-385.177 376.879,-382.847"/>
<polygon fill="midnightblue" stroke="midnightblue" points="378.011,-386.164 386.667,-380.053 376.09,-379.432 378.011,-386.164"/>
</g>
<!-- Node23 -->
<g id="node23" class="node"><title>Node23</title>
<g id="a_node23"><a xlink:href="../../da/d73/endianconv_8c.html#af4e7ccbb21e333ad15028c531f0384c6" target="_top" xlink:title="MoveMessageNOctets">
<polygon fill="none" stroke="black" points="385.5,-311.5 385.5,-330.5 502.5,-330.5 502.5,-311.5 385.5,-311.5"/>
<text text-anchor="middle" x="444" y="-318.5" font-family="Helvetica,sans-Serif" font-size="10.00">MoveMessageNOctets</text>
</a>
</g>
</g>
<!-- Node13&#45;&gt;Node23 -->
<g id="edge24" class="edge"><title>Node13&#45;&gt;Node23</title>
<path fill="none" stroke="midnightblue" d="M231.928,-422.697C256.682,-401.157 305.044,-362.167 353,-341 360.104,-337.864 367.748,-335.199 375.472,-332.938"/>
<polygon fill="midnightblue" stroke="midnightblue" points="376.527,-336.278 385.264,-330.286 374.697,-329.522 376.527,-336.278"/>
</g>
<!-- Node24 -->
<g id="node24" class="node"><title>Node24</title>
<g id="a_node24"><a xlink:href="../../df/d91/cipconnectionobject_8c.html#a0f944880ccf09ecd7e2d3d5ffcde345e" target="_top" xlink:title="ConnectionObjectSetOToTRequested\lPacketInterval">
<polygon fill="none" stroke="black" points="353,-262 353,-292 535,-292 535,-262 353,-262"/>
<text text-anchor="start" x="361" y="-280" font-family="Helvetica,sans-Serif" font-size="10.00">ConnectionObjectSetOToTRequested</text>
<text text-anchor="middle" x="444" y="-269" font-family="Helvetica,sans-Serif" font-size="10.00">PacketInterval</text>
</a>
</g>
</g>
<!-- Node13&#45;&gt;Node24 -->
<g id="edge25" class="edge"><title>Node13&#45;&gt;Node24</title>
<path fill="none" stroke="midnightblue" d="M226.081,-422.814C247.424,-394.672 297.098,-334.344 353,-302 356.711,-299.853 360.615,-297.883 364.633,-296.076"/>
<polygon fill="midnightblue" stroke="midnightblue" points="366.262,-299.19 374.178,-292.149 363.599,-292.717 366.262,-299.19"/>
</g>
<!-- Node25 -->
<g id="node25" class="node"><title>Node25</title>
<g id="a_node25"><a xlink:href="../../df/d91/cipconnectionobject_8c.html#aff88fa3ae6c57c3d9bee691560d9f670" target="_top" xlink:title="ConnectionObjectSetInitial\lInactivityWatchdogTimerValue">
<polygon fill="none" stroke="black" points="369,-213 369,-243 519,-243 519,-213 369,-213"/>
<text text-anchor="start" x="377" y="-231" font-family="Helvetica,sans-Serif" font-size="10.00">ConnectionObjectSetInitial</text>
<text text-anchor="middle" x="444" y="-220" font-family="Helvetica,sans-Serif" font-size="10.00">InactivityWatchdogTimerValue</text>
</a>
</g>
</g>
<!-- Node13&#45;&gt;Node25 -->
<g id="edge26" class="edge"><title>Node13&#45;&gt;Node25</title>
<path fill="none" stroke="midnightblue" d="M221.916,-422.882C238.904,-387.477 286.216,-298.731 353,-253 355.898,-251.016 358.949,-249.188 362.108,-247.505"/>
<polygon fill="midnightblue" stroke="midnightblue" points="363.74,-250.605 371.254,-243.135 360.722,-244.289 363.74,-250.605"/>
</g>
<!-- Node27 -->
<g id="node27" class="node"><title>Node27</title>
<g id="a_node27"><a xlink:href="../../df/d91/cipconnectionobject_8c.html#a7883293f84213277eb8c63e558f12a6c" target="_top" xlink:title="ConnectionObjectSetTToORequested\lPacketInterval">
<polygon fill="none" stroke="black" points="353,-164 353,-194 535,-194 535,-164 353,-164"/>
<text text-anchor="start" x="361" y="-182" font-family="Helvetica,sans-Serif" font-size="10.00">ConnectionObjectSetTToORequested</text>
<text text-anchor="middle" x="444" y="-171" font-family="Helvetica,sans-Serif" font-size="10.00">PacketInterval</text>
</a>
</g>
</g>
<!-- Node13&#45;&gt;Node27 -->
<g id="edge28" class="edge"><title>Node13&#45;&gt;Node27</title>
<path fill="none" stroke="midnightblue" d="M219.38,-422.899C232.322,-381.044 274.481,-262.717 353,-203 354.83,-201.608 356.735,-200.297 358.7,-199.061"/>
<polygon fill="midnightblue" stroke="midnightblue" points="360.595,-202.013 367.659,-194.117 357.213,-195.884 360.595,-202.013"/>
</g>
<!-- Node28 -->
<g id="node28" class="node"><title>Node28</title>
<g id="a_node28"><a xlink:href="../../df/d91/cipconnectionobject_8c.html#ae73863d45755e88ff034d9d3226181cc" target="_top" xlink:title="Sets the expected packet rate according to the rules of the CIP specification. ">
<polygon fill="none" stroke="black" points="368.5,-115 368.5,-145 519.5,-145 519.5,-115 368.5,-115"/>
<text text-anchor="start" x="376.5" y="-133" font-family="Helvetica,sans-Serif" font-size="10.00">ConnectionObjectSetExpected</text>
<text text-anchor="middle" x="444" y="-122" font-family="Helvetica,sans-Serif" font-size="10.00">PacketRate</text>
</a>
</g>
</g>
<!-- Node13&#45;&gt;Node28 -->
<g id="edge29" class="edge"><title>Node13&#45;&gt;Node28</title>
<path fill="none" stroke="midnightblue" d="M217.747,-422.941C227.202,-375.561 262.913,-228.283 353,-154 355.02,-152.335 357.144,-150.784 359.351,-149.34"/>
<polygon fill="midnightblue" stroke="midnightblue" points="361.273,-152.273 368.232,-144.284 357.81,-146.19 361.273,-152.273"/>
</g>
<!-- Node26 -->
<g id="node26" class="node"><title>Node26</title>
<g id="a_node26"><a xlink:href="../../df/d91/cipconnectionobject_8c.html#a8b64594fd1744d505b13484495d96d78" target="_top" xlink:title="ConnectionObjectCalculate\lRegularInactivityWatchdogTimerValue">
<polygon fill="none" stroke="black" points="571,-213 571,-243 755,-243 755,-213 571,-213"/>
<text text-anchor="start" x="579" y="-231" font-family="Helvetica,sans-Serif" font-size="10.00">ConnectionObjectCalculate</text>
<text text-anchor="middle" x="663" y="-220" font-family="Helvetica,sans-Serif" font-size="10.00">RegularInactivityWatchdogTimerValue</text>
</a>
</g>
</g>
<!-- Node25&#45;&gt;Node26 -->
<g id="edge27" class="edge"><title>Node25&#45;&gt;Node26</title>
<path fill="none" stroke="midnightblue" d="M519.072,-228C532.509,-228 546.731,-228 560.79,-228"/>
<polygon fill="midnightblue" stroke="midnightblue" points="560.984,-231.5 570.984,-228 560.984,-224.5 560.984,-231.5"/>
</g>
</g>
</svg>
        <g id="navigator" transform="translate(0 0)" fill="#404254">
                <rect fill="#f2f5e9" fill-opacity="0.5" stroke="#606060" stroke-width=".5" x="0" y="0" width="60" height="60"/>
                <use id="zoomplus" xlink:href="#zoomPlus" x="17" y="9" onmousedown="handleZoom(evt,'in')"/>
                <use id="zoomminus" xlink:href="#zoomMin" x="42" y="9" onmousedown="handleZoom(evt,'out')"/>
                <use id="reset" xlink:href="#resetDef" x="30" y="36" onmousedown="handleReset()"/>
                <g id="arrowUp" xlink:href="#dirArrow" transform="translate(30 24)" onmousedown="handlePan(0,-1)">
                  <use xlink:href="#rim" fill="#404040">
                        <set attributeName="fill" to="#808080" begin="arrowUp.mouseover" end="arrowUp.mouseout"/>
                  </use>
                  <path fill="none" stroke="white" stroke-width="1.5" d="M0,-3.0v7 M-2.5,-0.5L0,-3.0L2.5,-0.5"/>
                </g>
                <g id="arrowRight" xlink:href="#dirArrow" transform="rotate(90) translate(36 -43)" onmousedown="handlePan(1,0)">
                  <use xlink:href="#rim" fill="#404040">
                        <set attributeName="fill" to="#808080" begin="arrowRight.mouseover" end="arrowRight.mouseout"/>
                  </use>
                  <path fill="none" stroke="white" stroke-width="1.5" d="M0,-3.0v7 M-2.5,-0.5L0,-3.0L2.5,-0.5"/>
                </g>
                <g id="arrowDown" xlink:href="#dirArrow" transform="rotate(180) translate(-30 -48)" onmousedown="handlePan(0,1)">
                  <use xlink:href="#rim" fill="#404040">
                        <set attributeName="fill" to="#808080" begin="arrowDown.mouseover" end="arrowDown.mouseout"/>
                  </use>
                  <path fill="none" stroke="white" stroke-width="1.5" d="M0,-3.0v7 M-2.5,-0.5L0,-3.0L2.5,-0.5"/>
                </g>
                <g id="arrowLeft" xlink:href="#dirArrow" transform="rotate(270) translate(-36 17)" onmousedown="handlePan(-1,0)">
                  <use xlink:href="#rim" fill="#404040">
                        <set attributeName="fill" to="#808080" begin="arrowLeft.mouseover" end="arrowLeft.mouseout"/>
                  </use>
                  <path fill="none" stroke="white" stroke-width="1.5" d="M0,-3.0v7 M-2.5,-0.5L0,-3.0L2.5,-0.5"/>
                </g>
        </g>
        <svg viewBox="0 0 15 15" width="100%" height="30px" preserveAspectRatio="xMaxYMin meet">
         <g id="arrow_out" transform="scale(0.3 0.3)">
          <a xlink:href="cipconnectionmanager_8c_a29e07d628d1216f979fbed720a40503d_cgraph_org.svg" target="_base">
           <rect id="button" ry="5" rx="5" y="6" x="6" height="38" width="38"
                fill="#f2f5e9" fill-opacity="0.5" stroke="#606060" stroke-width="1.0"/>
           <path id="arrow"
             d="M 11.500037,31.436501 C 11.940474,20.09759 22.043105,11.32322 32.158766,21.979434 L 37.068811,17.246167 C 37.068811,17.246167 37.088388,32 37.088388,32 L 22.160133,31.978069 C 22.160133,31.978069 26.997745,27.140456 26.997745,27.140456 C 18.528582,18.264221 13.291696,25.230495 11.500037,31.436501 z"
             style="fill:#404040;"/>
          </a>
         </g>
        </svg>
</svg>
