<?xml version="1.0" encoding="UTF-8" standalone="no"?>
<!DOCTYPE svg PUBLIC "-//W3C//DTD SVG 1.1//EN"
 "http://www.w3.org/Graphics/SVG/1.1/DTD/svg11.dtd">
<!-- Generated by graphviz version 2.38.0 (20140413.2041)
 -->
<!-- Title: AddNullAddressItem Pages: 1 -->
<!--zoomable 230 -->
<svg id="main" version="1.1" xmlns="http://www.w3.org/2000/svg" xmlns:xlink="http://www.w3.org/1999/xlink" xml:space="preserve" onload="init(evt)">
<style type="text/css"><![CDATA[
.edge:hover path { stroke: red; }
.edge:hover polygon { stroke: red; fill: red; }
]]></style>
<script type="text/javascript"><![CDATA[
var edges = document.getElementsByTagName('g');
if (edges && edges.length) {
  for (var i=0;i<edges.length;i++) {
    if (edges[i].id.substr(0,4)=='edge') {
      edges[i].setAttribute('class','edge');
    }
  }
}
]]></script>
        <defs>
                <circle id="rim" cx="0" cy="0" r="7"/>
                <circle id="rim2" cx="0" cy="0" r="3.5"/>
                <g id="zoomPlus">
                        <use xlink:href="#rim" fill="#404040">
                                <set attributeName="fill" to="#808080" begin="zoomplus.mouseover" end="zoomplus.mouseout"/>
                        </use>
                        <path d="M-4,0h8M0,-4v8" fill="none" stroke="white" stroke-width="1.5" pointer-events="none"/>
                </g>
                <g id="zoomMin">
                        <use xlink:href="#rim" fill="#404040">
                                <set attributeName="fill" to="#808080" begin="zoomminus.mouseover" end="zoomminus.mouseout"/>
                        </use>
                        <path d="M-4,0h8" fill="none" stroke="white" stroke-width="1.5" pointer-events="none"/>
                </g>
                <g id="dirArrow">
                        <path fill="none" stroke="white" stroke-width="1.5" d="M0,-3.0v7 M-2.5,-0.5L0,-3.0L2.5,-0.5"/>
                </g>
               <g id="resetDef">
                       <use xlink:href="#rim2" fill="#404040">
                               <set attributeName="fill" to="#808080" begin="reset.mouseover" end="reset.mouseout"/>
                       </use>
               </g>
        </defs>

<script type="text/javascript">
var viewWidth = 1283;
var viewHeight = 230;
var sectionId = 'dynsection-3';
</script>
<script xlink:href="../../svgpan.js"/>
<svg id="graph" class="graph">
<g id="viewport">
<title>AddNullAddressItem</title>
<!-- Node1 -->
<g id="node1" class="node"><title>Node1</title>
<polygon fill="#bfbfbf" stroke="black" points="0,-141 0,-160 107,-160 107,-141 0,-141"/>
<text text-anchor="middle" x="53.5" y="-148" font-family="Helvetica,sans-Serif" font-size="10.00">AddNullAddressItem</text>
</g>
<!-- Node2 -->
<g id="node2" class="node"><title>Node2</title>
<g id="a_node2"><a xlink:href="../../d5/d35/cipconnectionmanager_8c.html#a139a056407b798ae0e5928aaca6d2c7f" target="_top" xlink:title="AssembleForwardCloseResponse">
<polygon fill="none" stroke="black" points="143,-181 143,-200 308,-200 308,-181 143,-181"/>
<text text-anchor="middle" x="225.5" y="-188" font-family="Helvetica,sans-Serif" font-size="10.00">AssembleForwardCloseResponse</text>
</a>
</g>
</g>
<!-- Node1&#45;&gt;Node2 -->
<g id="edge1" class="edge"><title>Node1&#45;&gt;Node2</title>
<path fill="none" stroke="midnightblue" d="M104.993,-162.381C130.254,-168.325 160.413,-175.421 184.113,-180.997"/>
<polygon fill="midnightblue" stroke="midnightblue" points="105.755,-158.965 95.2192,-160.081 104.152,-165.778 105.755,-158.965"/>
</g>
<!-- Node9 -->
<g id="node9" class="node"><title>Node9</title>
<g id="a_node9"><a xlink:href="../../d5/d35/cipconnectionmanager_8c.html#a949510af1a4c39a622b0fb7feb9b796a" target="_top" xlink:title="Assembles the Forward Open Response. ">
<polygon fill="none" stroke="black" points="144,-102 144,-121 307,-121 307,-102 144,-102"/>
<text text-anchor="middle" x="225.5" y="-109" font-family="Helvetica,sans-Serif" font-size="10.00">AssembleForwardOpenResponse</text>
</a>
</g>
</g>
<!-- Node1&#45;&gt;Node9 -->
<g id="edge8" class="edge"><title>Node1&#45;&gt;Node9</title>
<path fill="none" stroke="midnightblue" d="M106.002,-138.685C130.675,-133.024 159.831,-126.336 183.048,-121.009"/>
<polygon fill="midnightblue" stroke="midnightblue" points="105.051,-135.312 96.0867,-140.96 106.616,-142.135 105.051,-135.312"/>
</g>
<!-- Node3 -->
<g id="node3" class="node"><title>Node3</title>
<g id="a_node3"><a xlink:href="../../d5/d35/cipconnectionmanager_8c.html#aed78928415b77a2138e26f1de1979e5b" target="_top" xlink:title="ForwardClose">
<polygon fill="none" stroke="black" points="384.5,-202 384.5,-221 461.5,-221 461.5,-202 384.5,-202"/>
<text text-anchor="middle" x="423" y="-209" font-family="Helvetica,sans-Serif" font-size="10.00">ForwardClose</text>
</a>
</g>
</g>
<!-- Node2&#45;&gt;Node3 -->
<g id="edge2" class="edge"><title>Node2&#45;&gt;Node3</title>
<path fill="none" stroke="midnightblue" d="M318.263,-200.357C341.668,-202.871 365.532,-205.434 384.461,-207.468"/>
<polygon fill="midnightblue" stroke="midnightblue" points="318.593,-196.872 308.277,-199.284 317.846,-203.832 318.593,-196.872"/>
</g>
<!-- Node4 -->
<g id="node4" class="node"><title>Node4</title>
<g id="a_node4"><a xlink:href="../../d2/da3/cipconnectionmanager_8h.html#a5ab0de6894d23e8fe84a6b46797c2212" target="_top" xlink:title="Initialize the data of the connection manager object. ">
<polygon fill="none" stroke="black" points="549.5,-183 549.5,-202 666.5,-202 666.5,-183 549.5,-183"/>
<text text-anchor="middle" x="608" y="-190" font-family="Helvetica,sans-Serif" font-size="10.00">ConnectionManagerInit</text>
</a>
</g>
</g>
<!-- Node3&#45;&gt;Node4 -->
<g id="edge3" class="edge"><title>Node3&#45;&gt;Node4</title>
<path fill="none" stroke="midnightblue" d="M472.064,-206.51C495.732,-204.052 524.448,-201.071 549.296,-198.491"/>
<polygon fill="midnightblue" stroke="midnightblue" points="471.503,-203.049 461.918,-207.563 472.226,-210.012 471.503,-203.049"/>
</g>
<!-- Node5 -->
<g id="node5" class="node"><title>Node5</title>
<g id="a_node5"><a xlink:href="../../d2/dc9/group__CIP__API.html#ga5d4979945d124e28668b264c3823db1c" target="_top" xlink:title="Initialize and setup the CIP&#45;stack. ">
<polygon fill="none" stroke="black" points="757.5,-183 757.5,-202 828.5,-202 828.5,-183 757.5,-183"/>
<text text-anchor="middle" x="793" y="-190" font-family="Helvetica,sans-Serif" font-size="10.00">CipStackInit</text>
</a>
</g>
</g>
<!-- Node4&#45;&gt;Node5 -->
<g id="edge4" class="edge"><title>Node4&#45;&gt;Node5</title>
<path fill="none" stroke="midnightblue" d="M676.955,-192.5C704.28,-192.5 734.612,-192.5 757.268,-192.5"/>
<polygon fill="midnightblue" stroke="midnightblue" points="676.651,-189 666.651,-192.5 676.651,-196 676.651,-189"/>
</g>
<!-- Node6 -->
<g id="node6" class="node"><title>Node6</title>
<g id="a_node6"><a xlink:href="../../d5/dcb/MINGW_2main_8c.html#ad338a7dbc41dc40bcecd0479377ef207" target="_top" xlink:title="main">
<polygon fill="none" stroke="black" points="959,-183 959,-202 997,-202 997,-183 959,-183"/>
<text text-anchor="middle" x="978" y="-190" font-family="Helvetica,sans-Serif" font-size="10.00">main</text>
</a>
</g>
</g>
<!-- Node5&#45;&gt;Node6 -->
<g id="edge5" class="edge"><title>Node5&#45;&gt;Node6</title>
<path fill="none" stroke="midnightblue" d="M839.313,-192.5C877.921,-192.5 931.4,-192.5 958.967,-192.5"/>
<polygon fill="midnightblue" stroke="midnightblue" points="838.852,-189 828.852,-192.5 838.852,-196 838.852,-189"/>
</g>
<!-- Node7 -->
<g id="node7" class="node"><title>Node7</title>
<g id="a_node7"><a xlink:href="../../d8/d03/ports_2MINGW_2CMakeLists_8txt.html#a7e00df43a20d627a1732be7766d91097" target="_top" xlink:title="add_library">
<polygon fill="none" stroke="black" points="1084,-183 1084,-202 1148,-202 1148,-183 1084,-183"/>
<text text-anchor="middle" x="1116" y="-190" font-family="Helvetica,sans-Serif" font-size="10.00">add_library</text>
</a>
</g>
</g>
<!-- Node6&#45;&gt;Node7 -->
<g id="edge6" class="edge"><title>Node6&#45;&gt;Node7</title>
<path fill="none" stroke="midnightblue" d="M1007.24,-192.5C1029.59,-192.5 1060.75,-192.5 1083.82,-192.5"/>
<polygon fill="midnightblue" stroke="midnightblue" points="1007.06,-189 997.06,-192.5 1007.06,-196 1007.06,-189"/>
</g>
<!-- Node8 -->
<g id="node8" class="node"><title>Node8</title>
<g id="a_node8"><a xlink:href="../../d8/dce/ports_2CMakeLists_8txt.html#a598fae457555a5fb26e18d4cd8f89de9" target="_top" xlink:title="add_subdirectory">
<polygon fill="none" stroke="black" points="1184,-183 1184,-202 1275,-202 1275,-183 1184,-183"/>
<text text-anchor="middle" x="1229.5" y="-190" font-family="Helvetica,sans-Serif" font-size="10.00">add_subdirectory</text>
</a>
</g>
</g>
<!-- Node7&#45;&gt;Node8 -->
<g id="edge7" class="edge"><title>Node7&#45;&gt;Node8</title>
<path fill="none" stroke="midnightblue" d="M1158.3,-192.5C1166.63,-192.5 1175.42,-192.5 1183.86,-192.5"/>
<polygon fill="midnightblue" stroke="midnightblue" points="1158.06,-189 1148.06,-192.5 1158.06,-196 1158.06,-189"/>
</g>
<!-- Node10 -->
<g id="node10" class="node"><title>Node10</title>
<g id="a_node10"><a xlink:href="../../d5/d35/cipconnectionmanager_8c.html#ad68060facbfe52b38428a40da630651b" target="_top" xlink:title="Handles a Null Non Matching Forward Open Request. ">
<polygon fill="none" stroke="black" points="344,-76.5 344,-106.5 502,-106.5 502,-76.5 344,-76.5"/>
<text text-anchor="start" x="352" y="-94.5" font-family="Helvetica,sans-Serif" font-size="10.00">HandleNullNonMatchingForward</text>
<text text-anchor="middle" x="423" y="-83.5" font-family="Helvetica,sans-Serif" font-size="10.00">OpenRequest</text>
</a>
</g>
</g>
<!-- Node9&#45;&gt;Node10 -->
<g id="edge9" class="edge"><title>Node9&#45;&gt;Node10</title>
<path fill="none" stroke="midnightblue" d="M317.133,-102.228C326.023,-101.319 334.992,-100.401 343.743,-99.5058"/>
<polygon fill="midnightblue" stroke="midnightblue" points="316.738,-98.7501 307.146,-103.25 317.45,-105.714 316.738,-98.7501"/>
</g>
<!-- Node11 -->
<g id="node11" class="node"><title>Node11</title>
<g id="a_node11"><a xlink:href="../../d5/d35/cipconnectionmanager_8c.html#af379a4b383c738a07d8e1ab0a4ac7510" target="_top" xlink:title="Handles a Non Null Non Matching Forward Open Request. ">
<polygon fill="none" stroke="black" points="538,-38.5 538,-68.5 678,-68.5 678,-38.5 538,-38.5"/>
<text text-anchor="start" x="546" y="-56.5" font-family="Helvetica,sans-Serif" font-size="10.00">HandleNonNullNonMatching</text>
<text text-anchor="middle" x="608" y="-45.5" font-family="Helvetica,sans-Serif" font-size="10.00">ForwardOpenRequest</text>
</a>
</g>
</g>
<!-- Node9&#45;&gt;Node11 -->
<g id="edge18" class="edge"><title>Node9&#45;&gt;Node11</title>
<path fill="none" stroke="midnightblue" d="M255.176,-97.572C278.5,-86.9729 312.578,-73.1174 344,-66.5 408.753,-52.863 484.363,-50.4913 537.851,-51.0053"/>
<polygon fill="midnightblue" stroke="midnightblue" points="253.477,-94.5019 245.877,-101.885 256.422,-100.852 253.477,-94.5019"/>
</g>
<!-- Node12 -->
<g id="node12" class="node"><title>Node12</title>
<g id="a_node12"><a xlink:href="../../d5/d35/cipconnectionmanager_8c.html#a7eaeec6cc54d1799cfaba4031f0168d1" target="_top" xlink:title="Handles a Non Null Matching Forward Open Request. ">
<polygon fill="none" stroke="black" points="714,-0.5 714,-30.5 872,-30.5 872,-0.5 714,-0.5"/>
<text text-anchor="start" x="722" y="-18.5" font-family="Helvetica,sans-Serif" font-size="10.00">HandleNonNullMatchingForward</text>
<text text-anchor="middle" x="793" y="-7.5" font-family="Helvetica,sans-Serif" font-size="10.00">OpenRequest</text>
</a>
</g>
</g>
<!-- Node9&#45;&gt;Node12 -->
<g id="edge17" class="edge"><title>Node9&#45;&gt;Node12</title>
<path fill="none" stroke="midnightblue" d="M248.333,-96.0947C271.068,-80.9234 308.287,-58.4764 344,-47.5 469.219,-9.01375 623.025,-7.25945 713.971,-10.6011"/>
<polygon fill="midnightblue" stroke="midnightblue" points="246.099,-93.3815 239.802,-101.902 250.038,-99.1679 246.099,-93.3815"/>
</g>
<!-- Node13 -->
<g id="node13" class="node"><title>Node13</title>
<g id="a_node13"><a xlink:href="../../d5/d35/cipconnectionmanager_8c.html#a8da18334cfde58434b845b0968620811" target="_top" xlink:title="Handles a Null Matching Forward Open request. ">
<polygon fill="none" stroke="black" points="908,-63.5 908,-93.5 1048,-93.5 1048,-63.5 908,-63.5"/>
<text text-anchor="start" x="916" y="-81.5" font-family="Helvetica,sans-Serif" font-size="10.00">HandleNullMatchingForward</text>
<text text-anchor="middle" x="978" y="-70.5" font-family="Helvetica,sans-Serif" font-size="10.00">OpenRequest</text>
</a>
</g>
</g>
<!-- Node9&#45;&gt;Node13 -->
<g id="edge16" class="edge"><title>Node9&#45;&gt;Node13</title>
<path fill="none" stroke="midnightblue" d="M317.259,-114.898C326.293,-115.144 335.326,-115.352 344,-115.5 578.769,-119.495 638.716,-124.166 872,-97.5 883.595,-96.1746 895.843,-94.3508 907.719,-92.3543"/>
<polygon fill="midnightblue" stroke="midnightblue" points="317.176,-111.394 307.079,-114.606 316.975,-118.391 317.176,-111.394"/>
</g>
<!-- Node14 -->
<g id="node14" class="node"><title>Node14</title>
<g id="a_node14"><a xlink:href="../../d5/d35/cipconnectionmanager_8c.html#a29e07d628d1216f979fbed720a40503d" target="_top" xlink:title="Check if resources for new connection available, generate ForwardOpen Reply message. ">
<polygon fill="none" stroke="black" points="385.5,-164 385.5,-183 460.5,-183 460.5,-164 385.5,-164"/>
<text text-anchor="middle" x="423" y="-171" font-family="Helvetica,sans-Serif" font-size="10.00">ForwardOpen</text>
</a>
</g>
</g>
<!-- Node9&#45;&gt;Node14 -->
<g id="edge19" class="edge"><title>Node9&#45;&gt;Node14</title>
<path fill="none" stroke="midnightblue" d="M265.595,-124.298C288.431,-131.735 317.819,-141.239 344,-149.5 359.268,-154.318 376.255,-159.558 390.468,-163.91"/>
<polygon fill="midnightblue" stroke="midnightblue" points="266.511,-120.915 255.919,-121.143 264.341,-127.571 266.511,-120.915"/>
</g>
<!-- Node10&#45;&gt;Node11 -->
<g id="edge10" class="edge"><title>Node10&#45;&gt;Node11</title>
<path fill="none" stroke="midnightblue" d="M506.358,-74.3984C516.892,-72.2109 527.59,-69.9895 537.885,-67.8518"/>
<polygon fill="midnightblue" stroke="midnightblue" points="505.406,-71.0213 496.326,-76.4814 506.829,-77.8751 505.406,-71.0213"/>
</g>
<!-- Node11&#45;&gt;Node12 -->
<g id="edge11" class="edge"><title>Node11&#45;&gt;Node12</title>
<path fill="none" stroke="midnightblue" d="M663.414,-35.9701C679.234,-32.2175 696.835,-28.411 713.811,-25.0499"/>
<polygon fill="midnightblue" stroke="midnightblue" points="662.193,-32.6647 653.299,-38.423 663.842,-39.4675 662.193,-32.6647"/>
</g>
<!-- Node12&#45;&gt;Node11 -->
<g id="edge15" class="edge"><title>Node12&#45;&gt;Node11</title>
<path fill="none" stroke="midnightblue" d="M738.067,-32.9157C719.31,-37.3739 698.003,-41.9154 678.184,-45.7021"/>
<polygon fill="midnightblue" stroke="midnightblue" points="739.019,-36.2864 747.91,-30.5249 737.367,-29.4841 739.019,-36.2864"/>
</g>
<!-- Node12&#45;&gt;Node13 -->
<g id="edge12" class="edge"><title>Node12&#45;&gt;Node13</title>
<path fill="none" stroke="midnightblue" d="M847.597,-33.9515C874.831,-43.327 907.506,-54.5757 933.208,-63.424"/>
<polygon fill="midnightblue" stroke="midnightblue" points="848.428,-30.5359 837.833,-30.5901 846.149,-37.1546 848.428,-30.5359"/>
</g>
<!-- Node13&#45;&gt;Node10 -->
<g id="edge13" class="edge"><title>Node13&#45;&gt;Node10</title>
<path fill="none" stroke="midnightblue" d="M897.355,-80.3723C791.816,-82.8533 606.794,-87.2029 502.059,-89.665"/>
<polygon fill="midnightblue" stroke="midnightblue" points="897.713,-83.865 907.628,-80.1308 897.548,-76.8669 897.713,-83.865"/>
</g>
<!-- Node13&#45;&gt;Node11 -->
<g id="edge14" class="edge"><title>Node13&#45;&gt;Node11</title>
<path fill="none" stroke="midnightblue" d="M897.53,-73.1012C832.203,-68.6633 740.571,-62.4382 678.218,-58.2023"/>
<polygon fill="midnightblue" stroke="midnightblue" points="897.566,-76.6117 907.78,-73.7976 898.041,-69.6277 897.566,-76.6117"/>
</g>
<!-- Node14&#45;&gt;Node4 -->
<g id="edge20" class="edge"><title>Node14&#45;&gt;Node4</title>
<path fill="none" stroke="midnightblue" d="M470.809,-178.36C494.686,-180.839 523.944,-183.877 549.214,-186.5"/>
<polygon fill="midnightblue" stroke="midnightblue" points="470.901,-174.851 460.593,-177.299 470.178,-181.813 470.901,-174.851"/>
</g>
</g>
</svg>
        <g id="navigator" transform="translate(0 0)" fill="#404254">
                <rect fill="#f2f5e9" fill-opacity="0.5" stroke="#606060" stroke-width=".5" x="0" y="0" width="60" height="60"/>
                <use id="zoomplus" xlink:href="#zoomPlus" x="17" y="9" onmousedown="handleZoom(evt,'in')"/>
                <use id="zoomminus" xlink:href="#zoomMin" x="42" y="9" onmousedown="handleZoom(evt,'out')"/>
                <use id="reset" xlink:href="#resetDef" x="30" y="36" onmousedown="handleReset()"/>
                <g id="arrowUp" xlink:href="#dirArrow" transform="translate(30 24)" onmousedown="handlePan(0,-1)">
                  <use xlink:href="#rim" fill="#404040">
                        <set attributeName="fill" to="#808080" begin="arrowUp.mouseover" end="arrowUp.mouseout"/>
                  </use>
                  <path fill="none" stroke="white" stroke-width="1.5" d="M0,-3.0v7 M-2.5,-0.5L0,-3.0L2.5,-0.5"/>
                </g>
                <g id="arrowRight" xlink:href="#dirArrow" transform="rotate(90) translate(36 -43)" onmousedown="handlePan(1,0)">
                  <use xlink:href="#rim" fill="#404040">
                        <set attributeName="fill" to="#808080" begin="arrowRight.mouseover" end="arrowRight.mouseout"/>
                  </use>
                  <path fill="none" stroke="white" stroke-width="1.5" d="M0,-3.0v7 M-2.5,-0.5L0,-3.0L2.5,-0.5"/>
                </g>
                <g id="arrowDown" xlink:href="#dirArrow" transform="rotate(180) translate(-30 -48)" onmousedown="handlePan(0,1)">
                  <use xlink:href="#rim" fill="#404040">
                        <set attributeName="fill" to="#808080" begin="arrowDown.mouseover" end="arrowDown.mouseout"/>
                  </use>
                  <path fill="none" stroke="white" stroke-width="1.5" d="M0,-3.0v7 M-2.5,-0.5L0,-3.0L2.5,-0.5"/>
                </g>
                <g id="arrowLeft" xlink:href="#dirArrow" transform="rotate(270) translate(-36 17)" onmousedown="handlePan(-1,0)">
                  <use xlink:href="#rim" fill="#404040">
                        <set attributeName="fill" to="#808080" begin="arrowLeft.mouseover" end="arrowLeft.mouseout"/>
                  </use>
                  <path fill="none" stroke="white" stroke-width="1.5" d="M0,-3.0v7 M-2.5,-0.5L0,-3.0L2.5,-0.5"/>
                </g>
        </g>
        <svg viewBox="0 0 15 15" width="100%" height="30px" preserveAspectRatio="xMaxYMin meet">
         <g id="arrow_out" transform="scale(0.3 0.3)">
          <a xlink:href="cipconnectionmanager_8c_ac09a235d1ae01c674d4537450fb8fda3_icgraph_org.svg" target="_base">
           <rect id="button" ry="5" rx="5" y="6" x="6" height="38" width="38"
                fill="#f2f5e9" fill-opacity="0.5" stroke="#606060" stroke-width="1.0"/>
           <path id="arrow"
             d="M 11.500037,31.436501 C 11.940474,20.09759 22.043105,11.32322 32.158766,21.979434 L 37.068811,17.246167 C 37.068811,17.246167 37.088388,32 37.088388,32 L 22.160133,31.978069 C 22.160133,31.978069 26.997745,27.140456 26.997745,27.140456 C 18.528582,18.264221 13.291696,25.230495 11.500037,31.436501 z"
             style="fill:#404040;"/>
          </a>
         </g>
        </svg>
</svg>
