<?xml version="1.0" encoding="UTF-8" standalone="no"?>
<!DOCTYPE svg PUBLIC "-//W3C//DTD SVG 1.1//EN"
 "http://www.w3.org/Graphics/SVG/1.1/DTD/svg11.dtd">
<!-- Generated by graphviz version 2.36.0 (20140111.2315)
 -->
<!-- Title: src/enet_encap/cpf.c Pages: 1 -->
<!--zoomable 476 -->
<svg id="main" version="1.1" xmlns="http://www.w3.org/2000/svg" xmlns:xlink="http://www.w3.org/1999/xlink" xml:space="preserve" onload="init(evt)">
<style type="text/css"><![CDATA[
.edge:hover path { stroke: red; }
.edge:hover polygon { stroke: red; fill: red; }
]]></style>
<script type="text/javascript"><![CDATA[
var edges = document.getElementsByTagName('g');
if (edges && edges.length) {
  for (var i=0;i<edges.length;i++) {
    if (edges[i].id.substr(0,4)=='edge') {
      edges[i].setAttribute('class','edge');
    }
  }
}
]]></script>
        <defs>
                <circle id="rim" cx="0" cy="0" r="7"/>
                <circle id="rim2" cx="0" cy="0" r="3.5"/>
                <g id="zoomPlus">
                        <use xlink:href="#rim" fill="#404040">
                                <set attributeName="fill" to="#808080" begin="zoomplus.mouseover" end="zoomplus.mouseout"/>
                        </use>
                        <path d="M-4,0h8M0,-4v8" fill="none" stroke="white" stroke-width="1.5" pointer-events="none"/>
                </g>
                <g id="zoomMin">
                        <use xlink:href="#rim" fill="#404040">
                                <set attributeName="fill" to="#808080" begin="zoomminus.mouseover" end="zoomminus.mouseout"/>
                        </use>
                        <path d="M-4,0h8" fill="none" stroke="white" stroke-width="1.5" pointer-events="none"/>
                </g>
                <g id="dirArrow">
                        <path fill="none" stroke="white" stroke-width="1.5" d="M0,-3.0v7 M-2.5,-0.5L0,-3.0L2.5,-0.5"/>
                </g>
               <g id="resetDef">
                       <use xlink:href="#rim2" fill="#404040">
                               <set attributeName="fill" to="#808080" begin="reset.mouseover" end="reset.mouseout"/>
                       </use>
               </g>
        </defs>

<script type="text/javascript">
var viewWidth = 1089;
var viewHeight = 476;
var sectionId = 'dynsection-0';
</script>
<script xlink:href="../../svgpan.js"/>
<svg id="graph" class="graph">
<g id="viewport">
<title>src/enet_encap/cpf.c</title>
<!-- Node1 -->
<g id="node1" class="node"><title>Node1</title>
<polygon fill="#bfbfbf" stroke="black" points="267,-448.5 267,-467.5 375,-467.5 375,-448.5 267,-448.5"/>
<text text-anchor="middle" x="321" y="-455.5" font-family="Helvetica,sans-Serif" font-size="10.00">src/enet_encap/cpf.c</text>
</g>
<!-- Node2 -->
<g id="node2" class="node"><title>Node2</title>
<polygon fill="none" stroke="#bfbfbf" points="-0.5,-392.5 -0.5,-411.5 48.5,-411.5 48.5,-392.5 -0.5,-392.5"/>
<text text-anchor="middle" x="24" y="-399.5" font-family="Helvetica,sans-Serif" font-size="10.00">string.h</text>
</g>
<!-- Node1&#45;&gt;Node2 -->
<g id="edge1" class="edge"><title>Node1&#45;&gt;Node2</title>
<path fill="none" stroke="midnightblue" d="M266.979,-448.451C214.668,-439.967 133.188,-426.209 63,-412 61.5527,-411.707 60.077,-411.401 58.5876,-411.085"/>
<polygon fill="midnightblue" stroke="midnightblue" points="59.2319,-407.643 48.7138,-408.915 57.7295,-414.48 59.2319,-407.643"/>
</g>
<!-- Node3 -->
<g id="node3" class="node"><title>Node3</title>
<g id="a_node3"><a xlink:href="../../d0/dff/cpf_8h.html" target="_top" xlink:title="cpf.h">
<polygon fill="none" stroke="black" points="279,-392.5 279,-411.5 317,-411.5 317,-392.5 279,-392.5"/>
<text text-anchor="middle" x="298" y="-399.5" font-family="Helvetica,sans-Serif" font-size="10.00">cpf.h</text>
</a>
</g>
</g>
<!-- Node1&#45;&gt;Node3 -->
<g id="edge2" class="edge"><title>Node1&#45;&gt;Node3</title>
<path fill="none" stroke="midnightblue" d="M317.202,-448.083C314.087,-440.77 309.577,-430.181 305.711,-421.103"/>
<polygon fill="midnightblue" stroke="midnightblue" points="308.866,-419.58 301.727,-411.751 302.426,-422.323 308.866,-419.58"/>
</g>
<!-- Node13 -->
<g id="node13" class="node"><title>Node13</title>
<g id="a_node13"><a xlink:href="../../d7/df9/encap_8h.html" target="_top" xlink:title="This file contains the public interface of the encapsulation layer. ">
<polygon fill="none" stroke="black" points="285.5,-336.5 285.5,-355.5 336.5,-355.5 336.5,-336.5 285.5,-336.5"/>
<text text-anchor="middle" x="311" y="-343.5" font-family="Helvetica,sans-Serif" font-size="10.00">encap.h</text>
</a>
</g>
</g>
<!-- Node1&#45;&gt;Node13 -->
<g id="edge52" class="edge"><title>Node1&#45;&gt;Node13</title>
<path fill="none" stroke="midnightblue" d="M323.008,-448.113C325.549,-435.543 329.227,-411.886 326,-392 324.532,-382.957 321.508,-373.275 318.556,-365.218"/>
<polygon fill="midnightblue" stroke="midnightblue" points="321.756,-363.791 314.856,-355.751 315.237,-366.339 321.756,-363.791"/>
</g>
<!-- Node15 -->
<g id="node15" class="node"><title>Node15</title>
<g id="a_node15"><a xlink:href="../../d4/d38/opener__api_8h.html" target="_top" xlink:title="opener_api.h">
<polygon fill="none" stroke="black" points="273,-224.5 273,-243.5 345,-243.5 345,-224.5 273,-224.5"/>
<text text-anchor="middle" x="309" y="-231.5" font-family="Helvetica,sans-Serif" font-size="10.00">opener_api.h</text>
</a>
</g>
</g>
<!-- Node1&#45;&gt;Node15 -->
<g id="edge35" class="edge"><title>Node1&#45;&gt;Node15</title>
<path fill="none" stroke="midnightblue" d="M305.266,-448.236C293.111,-440.481 277.188,-427.929 270,-412 245.133,-356.896 279.557,-284.81 298.283,-252.267"/>
<polygon fill="midnightblue" stroke="midnightblue" points="301.395,-253.882 303.508,-243.5 295.382,-250.299 301.395,-253.882"/>
</g>
<!-- Node17 -->
<g id="node17" class="node"><title>Node17</title>
<g id="a_node17"><a xlink:href="../../d6/d52/ciperror_8h.html" target="_top" xlink:title="ciperror.h">
<polygon fill="none" stroke="black" points="219.5,-168.5 219.5,-187.5 276.5,-187.5 276.5,-168.5 219.5,-168.5"/>
<text text-anchor="middle" x="248" y="-175.5" font-family="Helvetica,sans-Serif" font-size="10.00">ciperror.h</text>
</a>
</g>
</g>
<!-- Node1&#45;&gt;Node17 -->
<g id="edge44" class="edge"><title>Node1&#45;&gt;Node17</title>
<path fill="none" stroke="midnightblue" d="M266.848,-455.623C194.964,-450.583 77,-429.711 77,-347 77,-347 77,-347 77,-289 77,-226.419 159.01,-197.761 209.442,-186.054"/>
<polygon fill="midnightblue" stroke="midnightblue" points="210.363,-189.435 219.378,-183.87 208.86,-182.598 210.363,-189.435"/>
</g>
<!-- Node21 -->
<g id="node21" class="node"><title>Node21</title>
<g id="a_node21"><a xlink:href="../../db/d14/cipcommon_8h.html" target="_top" xlink:title="cipcommon.h">
<polygon fill="none" stroke="black" points="363.5,-224.5 363.5,-243.5 438.5,-243.5 438.5,-224.5 363.5,-224.5"/>
<text text-anchor="middle" x="401" y="-231.5" font-family="Helvetica,sans-Serif" font-size="10.00">cipcommon.h</text>
</a>
</g>
</g>
<!-- Node1&#45;&gt;Node21 -->
<g id="edge36" class="edge"><title>Node1&#45;&gt;Node21</title>
<path fill="none" stroke="midnightblue" d="M324.817,-448.443C328.784,-439.442 335.087,-424.83 340,-412 361.938,-354.709 384.686,-285.682 395.124,-253.367"/>
<polygon fill="midnightblue" stroke="midnightblue" points="398.552,-254.139 398.281,-243.548 391.888,-251.996 398.552,-254.139"/>
</g>
<!-- Node22 -->
<g id="node22" class="node"><title>Node22</title>
<g id="a_node22"><a xlink:href="../../d2/d75/cipmessagerouter_8h.html" target="_top" xlink:title="cipmessagerouter.h">
<polygon fill="none" stroke="black" points="533,-224.5 533,-243.5 635,-243.5 635,-224.5 533,-224.5"/>
<text text-anchor="middle" x="584" y="-231.5" font-family="Helvetica,sans-Serif" font-size="10.00">cipmessagerouter.h</text>
</a>
</g>
</g>
<!-- Node1&#45;&gt;Node22 -->
<g id="edge39" class="edge"><title>Node1&#45;&gt;Node22</title>
<path fill="none" stroke="midnightblue" d="M349.867,-448.428C391.641,-434.784 469.365,-404.591 519,-356 549.416,-326.223 569.018,-279.144 578.098,-253.367"/>
<polygon fill="midnightblue" stroke="midnightblue" points="581.467,-254.331 581.347,-243.737 574.834,-252.094 581.467,-254.331"/>
</g>
<!-- Node23 -->
<g id="node23" class="node"><title>Node23</title>
<g id="a_node23"><a xlink:href="../../d0/dec/endianconv_8h.html" target="_top" xlink:title="Responsible for Endianess conversion. ">
<polygon fill="none" stroke="black" points="143,-280.5 143,-299.5 217,-299.5 217,-280.5 143,-280.5"/>
<text text-anchor="middle" x="180" y="-287.5" font-family="Helvetica,sans-Serif" font-size="10.00">endianconv.h</text>
</a>
</g>
</g>
<!-- Node1&#45;&gt;Node23 -->
<g id="edge42" class="edge"><title>Node1&#45;&gt;Node23</title>
<path fill="none" stroke="midnightblue" d="M292.192,-448.495C272.712,-441.461 247.605,-429.717 231,-412 203.297,-382.443 189.48,-335.616 183.62,-309.738"/>
<polygon fill="midnightblue" stroke="midnightblue" points="187.002,-308.816 181.521,-299.749 180.152,-310.255 187.002,-308.816"/>
</g>
<!-- Node24 -->
<g id="node24" class="node"><title>Node24</title>
<g id="a_node24"><a xlink:href="../../d2/da3/cipconnectionmanager_8h.html" target="_top" xlink:title="cipconnectionmanager.h">
<polygon fill="none" stroke="black" points="708,-336.5 708,-355.5 830,-355.5 830,-336.5 708,-336.5"/>
<text text-anchor="middle" x="769" y="-343.5" font-family="Helvetica,sans-Serif" font-size="10.00">cipconnectionmanager.h</text>
</a>
</g>
</g>
<!-- Node1&#45;&gt;Node24 -->
<g id="edge45" class="edge"><title>Node1&#45;&gt;Node24</title>
<path fill="none" stroke="midnightblue" d="M375.331,-450.389C423.759,-443.618 496.177,-431.317 557,-412 577.473,-405.498 580.779,-399.248 601,-392 640.283,-377.92 686.114,-365.927 719.975,-357.872"/>
<polygon fill="midnightblue" stroke="midnightblue" points="721.143,-361.193 730.079,-355.5 719.543,-354.378 721.143,-361.193"/>
</g>
<!-- Node25 -->
<g id="node25" class="node"><title>Node25</title>
<g id="a_node25"><a xlink:href="../../d1/d1b/trace_8h.html" target="_top" xlink:title="Tracing infrastructure for OpENer. ">
<polygon fill="none" stroke="black" points="609.5,-392.5 609.5,-411.5 656.5,-411.5 656.5,-392.5 609.5,-392.5"/>
<text text-anchor="middle" x="633" y="-399.5" font-family="Helvetica,sans-Serif" font-size="10.00">trace.h</text>
</a>
</g>
</g>
<!-- Node1&#45;&gt;Node25 -->
<g id="edge51" class="edge"><title>Node1&#45;&gt;Node25</title>
<path fill="none" stroke="midnightblue" d="M375.012,-449.267C430.421,-441.068 519.017,-427.218 595,-412 596.454,-411.709 597.937,-411.402 599.434,-411.083"/>
<polygon fill="midnightblue" stroke="midnightblue" points="600.341,-414.467 609.339,-408.873 598.817,-407.635 600.341,-414.467"/>
</g>
<!-- Node4 -->
<g id="node4" class="node"><title>Node4</title>
<g id="a_node4"><a xlink:href="../../d7/d69/typedefs_8h.html" target="_top" xlink:title="typedefs.h">
<polygon fill="none" stroke="black" points="399,-56.5 399,-75.5 461,-75.5 461,-56.5 399,-56.5"/>
<text text-anchor="middle" x="430" y="-63.5" font-family="Helvetica,sans-Serif" font-size="10.00">typedefs.h</text>
</a>
</g>
</g>
<!-- Node3&#45;&gt;Node4 -->
<g id="edge3" class="edge"><title>Node3&#45;&gt;Node4</title>
<path fill="none" stroke="midnightblue" d="M278.872,-394.495C244.583,-381.846 172.631,-350.649 134,-300 115.747,-276.069 115,-265.098 115,-235 115,-235 115,-235 115,-177 115,-141.864 130.328,-130.819 160,-112 197.331,-88.3238 323.005,-75.2936 388.899,-69.9403"/>
<polygon fill="midnightblue" stroke="midnightblue" points="389.246,-73.4239 398.939,-69.1466 388.694,-66.4457 389.246,-73.4239"/>
</g>
<!-- Node9 -->
<g id="node9" class="node"><title>Node9</title>
<g id="a_node9"><a xlink:href="../../df/d28/ciptypes_8h.html" target="_top" xlink:title="ciptypes.h">
<polygon fill="none" stroke="black" points="608,-168.5 608,-187.5 670,-187.5 670,-168.5 608,-168.5"/>
<text text-anchor="middle" x="639" y="-175.5" font-family="Helvetica,sans-Serif" font-size="10.00">ciptypes.h</text>
</a>
</g>
</g>
<!-- Node3&#45;&gt;Node9 -->
<g id="edge8" class="edge"><title>Node3&#45;&gt;Node9</title>
<path fill="none" stroke="midnightblue" d="M307.184,-392.15C336.575,-364.212 431.809,-276.625 524,-224 548.329,-210.112 577.782,-198.678 600.79,-190.811"/>
<polygon fill="midnightblue" stroke="midnightblue" points="602.165,-194.042 610.543,-187.556 599.95,-187.402 602.165,-194.042"/>
</g>
<!-- Node3&#45;&gt;Node13 -->
<g id="edge15" class="edge"><title>Node3&#45;&gt;Node13</title>
<path fill="none" stroke="midnightblue" d="M300.147,-392.083C301.869,-384.927 304.347,-374.635 306.5,-365.691"/>
<polygon fill="midnightblue" stroke="midnightblue" points="309.955,-366.293 308.893,-355.751 303.15,-364.654 309.955,-366.293"/>
</g>
<!-- Node5 -->
<g id="node5" class="node"><title>Node5</title>
<polygon fill="none" stroke="#bfbfbf" points="518.5,-0.5 518.5,-19.5 577.5,-19.5 577.5,-0.5 518.5,-0.5"/>
<text text-anchor="middle" x="548" y="-7.5" font-family="Helvetica,sans-Serif" font-size="10.00">inttypes.h</text>
</g>
<!-- Node4&#45;&gt;Node5 -->
<g id="edge4" class="edge"><title>Node4&#45;&gt;Node5</title>
<path fill="none" stroke="midnightblue" d="M448.697,-56.4435C467.944,-47.6356 498.152,-33.8116 520.2,-23.722"/>
<polygon fill="midnightblue" stroke="midnightblue" points="521.753,-26.8603 529.39,-19.5164 518.84,-20.4951 521.753,-26.8603"/>
</g>
<!-- Node6 -->
<g id="node6" class="node"><title>Node6</title>
<polygon fill="none" stroke="#bfbfbf" points="289,-0.5 289,-19.5 341,-19.5 341,-0.5 289,-0.5"/>
<text text-anchor="middle" x="315" y="-7.5" font-family="Helvetica,sans-Serif" font-size="10.00">stddef.h</text>
</g>
<!-- Node4&#45;&gt;Node6 -->
<g id="edge5" class="edge"><title>Node4&#45;&gt;Node6</title>
<path fill="none" stroke="midnightblue" d="M411.778,-56.4435C393.104,-47.6751 363.844,-33.9355 342.383,-23.8579"/>
<polygon fill="midnightblue" stroke="midnightblue" points="343.676,-20.5988 333.137,-19.5164 340.701,-26.935 343.676,-20.5988"/>
</g>
<!-- Node7 -->
<g id="node7" class="node"><title>Node7</title>
<polygon fill="none" stroke="#bfbfbf" points="710,-0.5 710,-19.5 766,-19.5 766,-0.5 710,-0.5"/>
<text text-anchor="middle" x="738" y="-7.5" font-family="Helvetica,sans-Serif" font-size="10.00">stdbool.h</text>
</g>
<!-- Node4&#45;&gt;Node7 -->
<g id="edge6" class="edge"><title>Node4&#45;&gt;Node7</title>
<path fill="none" stroke="midnightblue" d="M461.45,-58.5937C465.992,-57.7022 470.613,-56.8138 475,-56 554.895,-41.1784 648.783,-25.5404 699.975,-17.1638"/>
<polygon fill="midnightblue" stroke="midnightblue" points="700.624,-20.6043 709.929,-15.5386 699.496,-13.6958 700.624,-20.6043"/>
</g>
<!-- Node8 -->
<g id="node8" class="node"><title>Node8</title>
<polygon fill="none" stroke="#bfbfbf" points="359.5,-0.5 359.5,-19.5 500.5,-19.5 500.5,-0.5 359.5,-0.5"/>
<text text-anchor="middle" x="430" y="-7.5" font-family="Helvetica,sans-Serif" font-size="10.00">platform_network_includes.h</text>
</g>
<!-- Node4&#45;&gt;Node8 -->
<g id="edge7" class="edge"><title>Node4&#45;&gt;Node8</title>
<path fill="none" stroke="midnightblue" d="M430,-56.083C430,-49.0059 430,-38.8611 430,-29.9865"/>
<polygon fill="midnightblue" stroke="midnightblue" points="433.5,-29.751 430,-19.7511 426.5,-29.7511 433.5,-29.751"/>
</g>
<!-- Node9&#45;&gt;Node4 -->
<g id="edge9" class="edge"><title>Node9&#45;&gt;Node4</title>
<path fill="none" stroke="midnightblue" d="M627.7,-168.41C609.925,-155.156 574.046,-129.431 541,-112 516.327,-98.9852 487.032,-87.2536 464.735,-79.0342"/>
<polygon fill="midnightblue" stroke="midnightblue" points="465.927,-75.7436 455.333,-75.6232 463.54,-82.3239 465.927,-75.7436"/>
</g>
<!-- Node10 -->
<g id="node10" class="node"><title>Node10</title>
<g id="a_node10"><a xlink:href="../../d0/d47/networkhandler_8h.html" target="_top" xlink:title="networkhandler.h">
<polygon fill="none" stroke="black" points="593.5,-112.5 593.5,-131.5 684.5,-131.5 684.5,-112.5 593.5,-112.5"/>
<text text-anchor="middle" x="639" y="-119.5" font-family="Helvetica,sans-Serif" font-size="10.00">networkhandler.h</text>
</a>
</g>
</g>
<!-- Node9&#45;&gt;Node10 -->
<g id="edge10" class="edge"><title>Node9&#45;&gt;Node10</title>
<path fill="none" stroke="midnightblue" d="M639,-168.083C639,-161.006 639,-150.861 639,-141.986"/>
<polygon fill="midnightblue" stroke="midnightblue" points="642.5,-141.751 639,-131.751 635.5,-141.751 642.5,-141.751"/>
</g>
<!-- Node11 -->
<g id="node11" class="node"><title>Node11</title>
<g id="a_node11"><a xlink:href="../../d8/d2c/enipmessage_8h.html" target="_top" xlink:title="enipmessage.h">
<polygon fill="none" stroke="black" points="741.5,-112.5 741.5,-131.5 824.5,-131.5 824.5,-112.5 741.5,-112.5"/>
<text text-anchor="middle" x="783" y="-119.5" font-family="Helvetica,sans-Serif" font-size="10.00">enipmessage.h</text>
</a>
</g>
</g>
<!-- Node9&#45;&gt;Node11 -->
<g id="edge12" class="edge"><title>Node9&#45;&gt;Node11</title>
<path fill="none" stroke="midnightblue" d="M661.817,-168.444C685.832,-159.438 723.829,-145.189 750.869,-135.049"/>
<polygon fill="midnightblue" stroke="midnightblue" points="752.155,-138.305 760.29,-131.516 749.697,-131.751 752.155,-138.305"/>
</g>
<!-- Node12 -->
<g id="node12" class="node"><title>Node12</title>
<polygon fill="none" stroke="#bfbfbf" points="965,-56.5 965,-75.5 1067,-75.5 1067,-56.5 965,-56.5"/>
<text text-anchor="middle" x="1016" y="-63.5" font-family="Helvetica,sans-Serif" font-size="10.00">opener_user_conf.h</text>
</g>
<!-- Node9&#45;&gt;Node12 -->
<g id="edge14" class="edge"><title>Node9&#45;&gt;Node12</title>
<path fill="none" stroke="midnightblue" d="M648.3,-168.389C664.279,-154.127 698.562,-125.808 733,-112 805.637,-82.8751 895.861,-72.5521 954.633,-68.9215"/>
<polygon fill="midnightblue" stroke="midnightblue" points="955.084,-72.4015 964.868,-68.3373 954.685,-65.4129 955.084,-72.4015"/>
</g>
<!-- Node10&#45;&gt;Node4 -->
<g id="edge11" class="edge"><title>Node10&#45;&gt;Node4</title>
<path fill="none" stroke="midnightblue" d="M605.883,-112.444C569.353,-103.005 510.53,-87.8067 471.087,-77.6158"/>
<polygon fill="midnightblue" stroke="midnightblue" points="471.813,-74.1884 461.255,-75.0755 470.061,-80.9658 471.813,-74.1884"/>
</g>
<!-- Node11&#45;&gt;Node12 -->
<g id="edge13" class="edge"><title>Node11&#45;&gt;Node12</title>
<path fill="none" stroke="midnightblue" d="M819.92,-112.444C860.395,-103.063 925.421,-87.9926 969.384,-77.8036"/>
<polygon fill="midnightblue" stroke="midnightblue" points="970.302,-81.1839 979.253,-75.5164 968.721,-74.3646 970.302,-81.1839"/>
</g>
<!-- Node13&#45;&gt;Node4 -->
<g id="edge16" class="edge"><title>Node13&#45;&gt;Node4</title>
<path fill="none" stroke="midnightblue" d="M299.095,-336.33C264.82,-310.294 170.854,-230.724 211,-168 250.252,-106.672 337.238,-82.0578 388.991,-72.5777"/>
<polygon fill="midnightblue" stroke="midnightblue" points="389.588,-76.0265 398.847,-70.8771 388.397,-69.1285 389.588,-76.0265"/>
</g>
<!-- Node14 -->
<g id="node14" class="node"><title>Node14</title>
<g id="a_node14"><a xlink:href="../../d1/d6c/cipconnectionobject_8h.html" target="_top" xlink:title="cipconnectionobject.h">
<polygon fill="none" stroke="black" points="671.5,-280.5 671.5,-299.5 782.5,-299.5 782.5,-280.5 671.5,-280.5"/>
<text text-anchor="middle" x="727" y="-287.5" font-family="Helvetica,sans-Serif" font-size="10.00">cipconnectionobject.h</text>
</a>
</g>
</g>
<!-- Node13&#45;&gt;Node14 -->
<g id="edge17" class="edge"><title>Node13&#45;&gt;Node14</title>
<path fill="none" stroke="midnightblue" d="M336.709,-341.663C400.546,-333.376 567.87,-311.656 661.378,-299.518"/>
<polygon fill="midnightblue" stroke="midnightblue" points="661.831,-302.989 671.297,-298.231 660.93,-296.047 661.831,-302.989"/>
</g>
<!-- Node14&#45;&gt;Node4 -->
<g id="edge18" class="edge"><title>Node14&#45;&gt;Node4</title>
<path fill="none" stroke="midnightblue" d="M671.351,-288.975C627.311,-286.267 566.376,-276.239 524,-244 470.046,-202.952 443.769,-121.854 434.293,-85.4498"/>
<polygon fill="midnightblue" stroke="midnightblue" points="437.676,-84.5493 431.88,-75.6805 430.88,-86.2281 437.676,-84.5493"/>
</g>
<!-- Node14&#45;&gt;Node9 -->
<g id="edge19" class="edge"><title>Node14&#45;&gt;Node9</title>
<path fill="none" stroke="midnightblue" d="M735.607,-280.451C747.601,-267.473 766.537,-242.369 754,-224 737.515,-199.847 705.952,-188.657 680.056,-183.473"/>
<polygon fill="midnightblue" stroke="midnightblue" points="680.549,-180.006 670.092,-181.71 679.33,-186.899 680.549,-180.006"/>
</g>
<!-- Node14&#45;&gt;Node12 -->
<g id="edge20" class="edge"><title>Node14&#45;&gt;Node12</title>
<path fill="none" stroke="midnightblue" d="M782.593,-289.183C826.541,-286.594 887.237,-276.625 929,-244 981.348,-203.106 1004.32,-122.541 1012.37,-85.9189"/>
<polygon fill="midnightblue" stroke="midnightblue" points="1015.89,-86.1791 1014.48,-75.6785 1009.04,-84.7666 1015.89,-86.1791"/>
</g>
<!-- Node14&#45;&gt;Node15 -->
<g id="edge21" class="edge"><title>Node14&#45;&gt;Node15</title>
<path fill="none" stroke="midnightblue" d="M671.363,-283.547C598.48,-276.112 466.806,-261.676 355,-244 354.9,-243.984 354.799,-243.968 354.698,-243.952"/>
<polygon fill="midnightblue" stroke="midnightblue" points="355.56,-240.549 345.115,-242.324 354.388,-247.45 355.56,-240.549"/>
</g>
<!-- Node18 -->
<g id="node18" class="node"><title>Node18</title>
<g id="a_node18"><a xlink:href="../../d9/d31/doublylinkedlist_8h.html" target="_top" xlink:title="doublylinkedlist.h">
<polygon fill="none" stroke="black" points="653,-224.5 653,-243.5 745,-243.5 745,-224.5 653,-224.5"/>
<text text-anchor="middle" x="699" y="-231.5" font-family="Helvetica,sans-Serif" font-size="10.00">doublylinkedlist.h</text>
</a>
</g>
</g>
<!-- Node14&#45;&gt;Node18 -->
<g id="edge27" class="edge"><title>Node14&#45;&gt;Node18</title>
<path fill="none" stroke="midnightblue" d="M722.376,-280.083C718.544,-272.691 712.976,-261.953 708.235,-252.811"/>
<polygon fill="midnightblue" stroke="midnightblue" points="711.248,-251.018 703.538,-243.751 705.034,-254.24 711.248,-251.018"/>
</g>
<!-- Node19 -->
<g id="node19" class="node"><title>Node19</title>
<g id="a_node19"><a xlink:href="../../d0/d23/cipelectronickey_8h.html" target="_top" xlink:title="cipelectronickey.h">
<polygon fill="none" stroke="black" points="881.5,-112.5 881.5,-131.5 976.5,-131.5 976.5,-112.5 881.5,-112.5"/>
<text text-anchor="middle" x="929" y="-119.5" font-family="Helvetica,sans-Serif" font-size="10.00">cipelectronickey.h</text>
</a>
</g>
</g>
<!-- Node14&#45;&gt;Node19 -->
<g id="edge28" class="edge"><title>Node14&#45;&gt;Node19</title>
<path fill="none" stroke="midnightblue" d="M782.553,-282.026C829.582,-274.95 891.988,-262.404 909,-244 934.809,-216.079 934.343,-168.234 931.701,-141.848"/>
<polygon fill="midnightblue" stroke="midnightblue" points="935.145,-141.181 930.463,-131.677 928.197,-142.027 935.145,-141.181"/>
</g>
<!-- Node20 -->
<g id="node20" class="node"><title>Node20</title>
<g id="a_node20"><a xlink:href="../../d1/d02/cipepath_8h.html" target="_top" xlink:title="cipepath.h">
<polygon fill="none" stroke="black" points="839,-224.5 839,-243.5 901,-243.5 901,-224.5 839,-224.5"/>
<text text-anchor="middle" x="870" y="-231.5" font-family="Helvetica,sans-Serif" font-size="10.00">cipepath.h</text>
</a>
</g>
</g>
<!-- Node14&#45;&gt;Node20 -->
<g id="edge31" class="edge"><title>Node14&#45;&gt;Node20</title>
<path fill="none" stroke="midnightblue" d="M749.659,-280.444C773.402,-271.478 810.909,-257.314 837.738,-247.183"/>
<polygon fill="midnightblue" stroke="midnightblue" points="839.329,-250.324 847.447,-243.516 836.856,-243.775 839.329,-250.324"/>
</g>
<!-- Node15&#45;&gt;Node4 -->
<g id="edge24" class="edge"><title>Node15&#45;&gt;Node4</title>
<path fill="none" stroke="midnightblue" d="M309.419,-224.436C310.383,-211.439 313.56,-186.311 324,-168 345.192,-130.829 384.344,-98.8734 408.675,-81.345"/>
<polygon fill="midnightblue" stroke="midnightblue" points="410.74,-84.1716 416.908,-75.5571 406.715,-78.4452 410.74,-84.1716"/>
</g>
<!-- Node15&#45;&gt;Node7 -->
<g id="edge23" class="edge"><title>Node15&#45;&gt;Node7</title>
<path fill="none" stroke="midnightblue" d="M325.554,-224.433C391.105,-190.512 632.771,-65.454 712.381,-24.2573"/>
<polygon fill="midnightblue" stroke="midnightblue" points="713.991,-27.3653 721.263,-19.6608 710.774,-21.1484 713.991,-27.3653"/>
</g>
<!-- Node15&#45;&gt;Node9 -->
<g id="edge25" class="edge"><title>Node15&#45;&gt;Node9</title>
<path fill="none" stroke="midnightblue" d="M345.136,-225.802C348.468,-225.177 351.795,-224.567 355,-224 441.126,-208.756 542.391,-193.3 597.73,-185.062"/>
<polygon fill="midnightblue" stroke="midnightblue" points="598.463,-188.492 607.841,-183.561 597.435,-181.568 598.463,-188.492"/>
</g>
<!-- Node16 -->
<g id="node16" class="node"><title>Node16</title>
<polygon fill="none" stroke="#bfbfbf" points="333,-168.5 333,-187.5 385,-187.5 385,-168.5 333,-168.5"/>
<text text-anchor="middle" x="359" y="-175.5" font-family="Helvetica,sans-Serif" font-size="10.00">assert.h</text>
</g>
<!-- Node15&#45;&gt;Node16 -->
<g id="edge22" class="edge"><title>Node15&#45;&gt;Node16</title>
<path fill="none" stroke="midnightblue" d="M317.256,-224.083C324.465,-216.298 335.11,-204.801 343.846,-195.367"/>
<polygon fill="midnightblue" stroke="midnightblue" points="346.671,-197.467 350.897,-187.751 341.535,-192.711 346.671,-197.467"/>
</g>
<!-- Node15&#45;&gt;Node17 -->
<g id="edge26" class="edge"><title>Node15&#45;&gt;Node17</title>
<path fill="none" stroke="midnightblue" d="M299.199,-224.324C290.182,-216.341 276.594,-204.313 265.682,-194.653"/>
<polygon fill="midnightblue" stroke="midnightblue" points="267.787,-191.842 257.979,-187.834 263.147,-197.083 267.787,-191.842"/>
</g>
<!-- Node19&#45;&gt;Node4 -->
<g id="edge30" class="edge"><title>Node19&#45;&gt;Node4</title>
<path fill="none" stroke="midnightblue" d="M881.154,-115.822C783.559,-105.261 563.013,-81.3942 471.257,-71.4647"/>
<polygon fill="midnightblue" stroke="midnightblue" points="471.555,-67.9766 461.237,-70.3803 470.802,-74.936 471.555,-67.9766"/>
</g>
<!-- Node19&#45;&gt;Node7 -->
<g id="edge29" class="edge"><title>Node19&#45;&gt;Node7</title>
<path fill="none" stroke="midnightblue" d="M922.77,-112.155C912.598,-98.3208 891.122,-71.5409 867,-56 838.976,-37.9454 802.841,-26.1516 775.948,-19.186"/>
<polygon fill="midnightblue" stroke="midnightblue" points="776.678,-15.7611 766.13,-16.7498 774.992,-22.5551 776.678,-15.7611"/>
</g>
<!-- Node20&#45;&gt;Node7 -->
<g id="edge32" class="edge"><title>Node20&#45;&gt;Node7</title>
<path fill="none" stroke="midnightblue" d="M868.728,-224.243C865.432,-203.529 855.27,-150.38 833,-112 812.628,-76.8919 777.878,-44.2152 756.529,-25.9981"/>
<polygon fill="midnightblue" stroke="midnightblue" points="758.717,-23.2654 748.8,-19.536 754.227,-28.6356 758.717,-23.2654"/>
</g>
<!-- Node20&#45;&gt;Node9 -->
<g id="edge33" class="edge"><title>Node20&#45;&gt;Node9</title>
<path fill="none" stroke="midnightblue" d="M838.846,-225.717C797.744,-216.109 725.307,-199.176 679.853,-188.55"/>
<polygon fill="midnightblue" stroke="midnightblue" points="680.562,-185.122 670.028,-186.253 678.969,-191.938 680.562,-185.122"/>
</g>
<!-- Node20&#45;&gt;Node19 -->
<g id="edge34" class="edge"><title>Node20&#45;&gt;Node19</title>
<path fill="none" stroke="midnightblue" d="M874.63,-224.368C884.28,-206.376 906.714,-164.55 919.546,-140.627"/>
<polygon fill="midnightblue" stroke="midnightblue" points="922.75,-142.058 924.392,-131.591 916.581,-138.749 922.75,-142.058"/>
</g>
<!-- Node21&#45;&gt;Node4 -->
<g id="edge37" class="edge"><title>Node21&#45;&gt;Node4</title>
<path fill="none" stroke="midnightblue" d="M402.559,-224.075C407.124,-197.945 420.529,-121.211 426.755,-85.577"/>
<polygon fill="midnightblue" stroke="midnightblue" points="430.23,-86.0213 428.503,-75.5681 423.334,-84.8166 430.23,-86.0213"/>
</g>
<!-- Node21&#45;&gt;Node9 -->
<g id="edge38" class="edge"><title>Node21&#45;&gt;Node9</title>
<path fill="none" stroke="midnightblue" d="M438.712,-224.444C482.123,-214.594 553.182,-198.471 597.953,-188.313"/>
<polygon fill="midnightblue" stroke="midnightblue" points="598.934,-191.68 607.911,-186.054 597.385,-184.853 598.934,-191.68"/>
</g>
<!-- Node22&#45;&gt;Node4 -->
<g id="edge40" class="edge"><title>Node22&#45;&gt;Node4</title>
<path fill="none" stroke="midnightblue" d="M575.72,-224.075C550.955,-197.38 477.188,-117.865 445.142,-83.3218"/>
<polygon fill="midnightblue" stroke="midnightblue" points="447.316,-80.5188 437.949,-75.5681 442.184,-85.2796 447.316,-80.5188"/>
</g>
<!-- Node22&#45;&gt;Node9 -->
<g id="edge41" class="edge"><title>Node22&#45;&gt;Node9</title>
<path fill="none" stroke="midnightblue" d="M593.082,-224.083C601.171,-216.141 613.195,-204.335 622.91,-194.797"/>
<polygon fill="midnightblue" stroke="midnightblue" points="625.403,-197.254 630.087,-187.751 620.499,-192.26 625.403,-197.254"/>
</g>
<!-- Node23&#45;&gt;Node4 -->
<g id="edge43" class="edge"><title>Node23&#45;&gt;Node4</title>
<path fill="none" stroke="midnightblue" d="M176.374,-280.342C165.237,-252.228 134.762,-162.414 177,-112 203.53,-80.3353 324.073,-70.9342 388.728,-68.1562"/>
<polygon fill="midnightblue" stroke="midnightblue" points="389.126,-71.6433 398.98,-67.7511 388.85,-64.6487 389.126,-71.6433"/>
</g>
<!-- Node24&#45;&gt;Node4 -->
<g id="edge48" class="edge"><title>Node24&#45;&gt;Node4</title>
<path fill="none" stroke="midnightblue" d="M830.083,-342.208C900.009,-335.344 1005,-312.186 1005,-235 1005,-235 1005,-235 1005,-177 1005,-146.775 1008.57,-130.926 985,-112 945.176,-80.019 592.856,-70.1729 471.143,-67.7108"/>
<polygon fill="midnightblue" stroke="midnightblue" points="471.168,-64.2107 461.101,-67.514 471.031,-71.2094 471.168,-64.2107"/>
</g>
<!-- Node24&#45;&gt;Node9 -->
<g id="edge49" class="edge"><title>Node24&#45;&gt;Node9</title>
<path fill="none" stroke="midnightblue" d="M774.638,-336.481C780.054,-327.745 787.864,-313.556 791,-300 798.899,-265.858 795.123,-248.432 770,-224 745.817,-200.483 708.805,-189.227 680.283,-183.856"/>
<polygon fill="midnightblue" stroke="midnightblue" points="680.645,-180.367 670.198,-182.132 679.465,-187.267 680.645,-180.367"/>
</g>
<!-- Node24&#45;&gt;Node12 -->
<g id="edge46" class="edge"><title>Node24&#45;&gt;Node12</title>
<path fill="none" stroke="midnightblue" d="M830.028,-344.478C882.901,-341.667 959.968,-331.757 1019,-300 1054.16,-281.086 1081,-274.923 1081,-235 1081,-235 1081,-235 1081,-177 1081,-139.178 1052.16,-102.94 1032.91,-82.9551"/>
<polygon fill="midnightblue" stroke="midnightblue" points="1035.14,-80.2429 1025.59,-75.6585 1030.2,-85.1988 1035.14,-80.2429"/>
</g>
<!-- Node24&#45;&gt;Node14 -->
<g id="edge50" class="edge"><title>Node24&#45;&gt;Node14</title>
<path fill="none" stroke="midnightblue" d="M762.065,-336.083C756.071,-328.377 747.248,-317.033 739.952,-307.653"/>
<polygon fill="midnightblue" stroke="midnightblue" points="742.709,-305.496 733.806,-299.751 737.183,-309.793 742.709,-305.496"/>
</g>
<!-- Node24&#45;&gt;Node15 -->
<g id="edge47" class="edge"><title>Node24&#45;&gt;Node15</title>
<path fill="none" stroke="midnightblue" d="M733.287,-336.46C650.579,-316.682 445.986,-267.758 354.491,-245.878"/>
<polygon fill="midnightblue" stroke="midnightblue" points="355.23,-242.456 344.69,-243.535 353.602,-249.264 355.23,-242.456"/>
</g>
</g>
</svg>
        <g id="navigator" transform="translate(0 0)" fill="#404254">
                <rect fill="#f2f5e9" fill-opacity="0.5" stroke="#606060" stroke-width=".5" x="0" y="0" width="60" height="60"/>
                <use id="zoomplus" xlink:href="#zoomPlus" x="17" y="9" onmousedown="handleZoom(evt,'in')"/>
                <use id="zoomminus" xlink:href="#zoomMin" x="42" y="9" onmousedown="handleZoom(evt,'out')"/>
                <use id="reset" xlink:href="#resetDef" x="30" y="36" onmousedown="handleReset()"/>
                <g id="arrowUp" xlink:href="#dirArrow" transform="translate(30 24)" onmousedown="handlePan(0,-1)">
                  <use xlink:href="#rim" fill="#404040">
                        <set attributeName="fill" to="#808080" begin="arrowUp.mouseover" end="arrowUp.mouseout"/>
                  </use>
                  <path fill="none" stroke="white" stroke-width="1.5" d="M0,-3.0v7 M-2.5,-0.5L0,-3.0L2.5,-0.5"/>
                </g>
                <g id="arrowRight" xlink:href="#dirArrow" transform="rotate(90) translate(36 -43)" onmousedown="handlePan(1,0)">
                  <use xlink:href="#rim" fill="#404040">
                        <set attributeName="fill" to="#808080" begin="arrowRight.mouseover" end="arrowRight.mouseout"/>
                  </use>
                  <path fill="none" stroke="white" stroke-width="1.5" d="M0,-3.0v7 M-2.5,-0.5L0,-3.0L2.5,-0.5"/>
                </g>
                <g id="arrowDown" xlink:href="#dirArrow" transform="rotate(180) translate(-30 -48)" onmousedown="handlePan(0,1)">
                  <use xlink:href="#rim" fill="#404040">
                        <set attributeName="fill" to="#808080" begin="arrowDown.mouseover" end="arrowDown.mouseout"/>
                  </use>
                  <path fill="none" stroke="white" stroke-width="1.5" d="M0,-3.0v7 M-2.5,-0.5L0,-3.0L2.5,-0.5"/>
                </g>
                <g id="arrowLeft" xlink:href="#dirArrow" transform="rotate(270) translate(-36 17)" onmousedown="handlePan(-1,0)">
                  <use xlink:href="#rim" fill="#404040">
                        <set attributeName="fill" to="#808080" begin="arrowLeft.mouseover" end="arrowLeft.mouseout"/>
                  </use>
                  <path fill="none" stroke="white" stroke-width="1.5" d="M0,-3.0v7 M-2.5,-0.5L0,-3.0L2.5,-0.5"/>
                </g>
        </g>
        <svg viewBox="0 0 15 15" width="100%" height="30px" preserveAspectRatio="xMaxYMin meet">
         <g id="arrow_out" transform="scale(0.3 0.3)">
          <a xlink:href="cpf_8c__incl_org.svg" target="_base">
           <rect id="button" ry="5" rx="5" y="6" x="6" height="38" width="38"
                fill="#f2f5e9" fill-opacity="0.5" stroke="#606060" stroke-width="1.0"/>
           <path id="arrow"
             d="M 11.500037,31.436501 C 11.940474,20.09759 22.043105,11.32322 32.158766,21.979434 L 37.068811,17.246167 C 37.068811,17.246167 37.088388,32 37.088388,32 L 22.160133,31.978069 C 22.160133,31.978069 26.997745,27.140456 26.997745,27.140456 C 18.528582,18.264221 13.291696,25.230495 11.500037,31.436501 z"
             style="fill:#404040;"/>
          </a>
         </g>
        </svg>
</svg>
