<?xml version="1.0" encoding="UTF-8" standalone="no"?>
<!DOCTYPE svg PUBLIC "-//W3C//DTD SVG 1.1//EN"
 "http://www.w3.org/Graphics/SVG/1.1/DTD/svg11.dtd">
<!-- Generated by graphviz version 2.36.0 (20140111.2315)
 -->
<!-- Title: src/enet_encap/cpf.c Pages: 1 -->
<!--zoomable 420 -->
<svg id="main" version="1.1" xmlns="http://www.w3.org/2000/svg" xmlns:xlink="http://www.w3.org/1999/xlink" xml:space="preserve" onload="init(evt)">
<style type="text/css"><![CDATA[
.edge:hover path { stroke: red; }
.edge:hover polygon { stroke: red; fill: red; }
]]></style>
<script type="text/javascript"><![CDATA[
var edges = document.getElementsByTagName('g');
if (edges && edges.length) {
  for (var i=0;i<edges.length;i++) {
    if (edges[i].id.substr(0,4)=='edge') {
      edges[i].setAttribute('class','edge');
    }
  }
}
]]></script>
        <defs>
                <circle id="rim" cx="0" cy="0" r="7"/>
                <circle id="rim2" cx="0" cy="0" r="3.5"/>
                <g id="zoomPlus">
                        <use xlink:href="#rim" fill="#404040">
                                <set attributeName="fill" to="#808080" begin="zoomplus.mouseover" end="zoomplus.mouseout"/>
                        </use>
                        <path d="M-4,0h8M0,-4v8" fill="none" stroke="white" stroke-width="1.5" pointer-events="none"/>
                </g>
                <g id="zoomMin">
                        <use xlink:href="#rim" fill="#404040">
                                <set attributeName="fill" to="#808080" begin="zoomminus.mouseover" end="zoomminus.mouseout"/>
                        </use>
                        <path d="M-4,0h8" fill="none" stroke="white" stroke-width="1.5" pointer-events="none"/>
                </g>
                <g id="dirArrow">
                        <path fill="none" stroke="white" stroke-width="1.5" d="M0,-3.0v7 M-2.5,-0.5L0,-3.0L2.5,-0.5"/>
                </g>
               <g id="resetDef">
                       <use xlink:href="#rim2" fill="#404040">
                               <set attributeName="fill" to="#808080" begin="reset.mouseover" end="reset.mouseout"/>
                       </use>
               </g>
        </defs>

<script type="text/javascript">
var viewWidth = 1042;
var viewHeight = 420;
var sectionId = 'dynsection-0';
</script>
<script xlink:href="../../svgpan.js"/>
<svg id="graph" class="graph">
<g id="viewport">
<title>src/enet_encap/cpf.c</title>
<!-- Node1 -->
<g id="node1" class="node"><title>Node1</title>
<polygon fill="#bfbfbf" stroke="black" points="318,-392.5 318,-411.5 426,-411.5 426,-392.5 318,-392.5"/>
<text text-anchor="middle" x="372" y="-399.5" font-family="Helvetica,sans-Serif" font-size="10.00">src/enet_encap/cpf.c</text>
</g>
<!-- Node2 -->
<g id="node2" class="node"><title>Node2</title>
<polygon fill="none" stroke="#bfbfbf" points="103.5,-336.5 103.5,-355.5 152.5,-355.5 152.5,-336.5 103.5,-336.5"/>
<text text-anchor="middle" x="128" y="-343.5" font-family="Helvetica,sans-Serif" font-size="10.00">string.h</text>
</g>
<!-- Node1&#45;&gt;Node2 -->
<g id="edge1" class="edge"><title>Node1&#45;&gt;Node2</title>
<path fill="none" stroke="midnightblue" d="M332.672,-392.498C291.384,-383.541 224.588,-368.965 167,-356 165.559,-355.676 164.089,-355.343 162.604,-355.006"/>
<polygon fill="midnightblue" stroke="midnightblue" points="163.277,-351.57 152.748,-352.753 161.717,-358.394 163.277,-351.57"/>
</g>
<!-- Node3 -->
<g id="node3" class="node"><title>Node3</title>
<g id="a_node3"><a xlink:href="../../d0/dff/cpf_8h.html" target="_top" xlink:title="cpf.h">
<polygon fill="none" stroke="black" points="322,-336.5 322,-355.5 360,-355.5 360,-336.5 322,-336.5"/>
<text text-anchor="middle" x="341" y="-343.5" font-family="Helvetica,sans-Serif" font-size="10.00">cpf.h</text>
</a>
</g>
</g>
<!-- Node1&#45;&gt;Node3 -->
<g id="edge2" class="edge"><title>Node1&#45;&gt;Node3</title>
<path fill="none" stroke="midnightblue" d="M366.881,-392.083C362.592,-384.613 356.342,-373.724 351.058,-364.52"/>
<polygon fill="midnightblue" stroke="midnightblue" points="354.038,-362.681 346.024,-355.751 347.967,-366.166 354.038,-362.681"/>
</g>
<!-- Node12 -->
<g id="node12" class="node"><title>Node12</title>
<g id="a_node12"><a xlink:href="../../d7/df9/encap_8h.html" target="_top" xlink:title="This file contains the public interface of the encapsulation layer. ">
<polygon fill="none" stroke="black" points="247.5,-280.5 247.5,-299.5 298.5,-299.5 298.5,-280.5 247.5,-280.5"/>
<text text-anchor="middle" x="273" y="-287.5" font-family="Helvetica,sans-Serif" font-size="10.00">encap.h</text>
</a>
</g>
</g>
<!-- Node1&#45;&gt;Node12 -->
<g id="edge50" class="edge"><title>Node1&#45;&gt;Node12</title>
<path fill="none" stroke="midnightblue" d="M357.704,-392.268C344.957,-384.008 326.31,-370.711 313,-356 299.981,-341.61 288.767,-322.411 281.553,-308.616"/>
<polygon fill="midnightblue" stroke="midnightblue" points="284.669,-307.022 277.039,-299.671 278.42,-310.176 284.669,-307.022"/>
</g>
<!-- Node14 -->
<g id="node14" class="node"><title>Node14</title>
<g id="a_node14"><a xlink:href="../../d4/d38/opener__api_8h.html" target="_top" xlink:title="opener_api.h">
<polygon fill="none" stroke="black" points="838,-168.5 838,-187.5 910,-187.5 910,-168.5 838,-168.5"/>
<text text-anchor="middle" x="874" y="-175.5" font-family="Helvetica,sans-Serif" font-size="10.00">opener_api.h</text>
</a>
</g>
</g>
<!-- Node1&#45;&gt;Node14 -->
<g id="edge33" class="edge"><title>Node1&#45;&gt;Node14</title>
<path fill="none" stroke="midnightblue" d="M426.287,-397.447C509.54,-389.974 671.531,-367.3 790,-300 820.333,-282.769 825.359,-272.831 845,-244 854.881,-229.495 862.725,-211.077 867.75,-197.553"/>
<polygon fill="midnightblue" stroke="midnightblue" points="871.121,-198.519 871.161,-187.924 864.522,-196.182 871.121,-198.519"/>
</g>
<!-- Node16 -->
<g id="node16" class="node"><title>Node16</title>
<g id="a_node16"><a xlink:href="../../d6/d52/ciperror_8h.html" target="_top" xlink:title="ciperror.h">
<polygon fill="none" stroke="black" points="911.5,-112.5 911.5,-131.5 968.5,-131.5 968.5,-112.5 911.5,-112.5"/>
<text text-anchor="middle" x="940" y="-119.5" font-family="Helvetica,sans-Serif" font-size="10.00">ciperror.h</text>
</a>
</g>
</g>
<!-- Node1&#45;&gt;Node16 -->
<g id="edge42" class="edge"><title>Node1&#45;&gt;Node16</title>
<path fill="none" stroke="midnightblue" d="M426.171,-396.535C571.488,-383.835 959,-344.915 959,-291 959,-291 959,-291 959,-233 959,-200.489 950.841,-163.35 945.216,-141.61"/>
<polygon fill="midnightblue" stroke="midnightblue" points="948.541,-140.498 942.562,-131.751 941.782,-142.317 948.541,-140.498"/>
</g>
<!-- Node20 -->
<g id="node20" class="node"><title>Node20</title>
<g id="a_node20"><a xlink:href="../../db/d14/cipcommon_8h.html" target="_top" xlink:title="cipcommon.h">
<polygon fill="none" stroke="black" points="364.5,-168.5 364.5,-187.5 439.5,-187.5 439.5,-168.5 364.5,-168.5"/>
<text text-anchor="middle" x="402" y="-175.5" font-family="Helvetica,sans-Serif" font-size="10.00">cipcommon.h</text>
</a>
</g>
</g>
<!-- Node1&#45;&gt;Node20 -->
<g id="edge34" class="edge"><title>Node1&#45;&gt;Node20</title>
<path fill="none" stroke="midnightblue" d="M373.176,-392.297C377.59,-359.633 393.234,-243.866 399.438,-197.957"/>
<polygon fill="midnightblue" stroke="midnightblue" points="402.929,-198.262 400.799,-187.884 395.992,-197.325 402.929,-198.262"/>
</g>
<!-- Node21 -->
<g id="node21" class="node"><title>Node21</title>
<g id="a_node21"><a xlink:href="../../d2/d75/cipmessagerouter_8h.html" target="_top" xlink:title="cipmessagerouter.h">
<polygon fill="none" stroke="black" points="168,-168.5 168,-187.5 270,-187.5 270,-168.5 168,-168.5"/>
<text text-anchor="middle" x="219" y="-175.5" font-family="Helvetica,sans-Serif" font-size="10.00">cipmessagerouter.h</text>
</a>
</g>
</g>
<!-- Node1&#45;&gt;Node21 -->
<g id="edge37" class="edge"><title>Node1&#45;&gt;Node21</title>
<path fill="none" stroke="midnightblue" d="M350.856,-392.434C319.502,-378.432 261.826,-347.365 238,-300 221.336,-266.874 218.559,-222.732 218.481,-197.953"/>
<polygon fill="midnightblue" stroke="midnightblue" points="221.983,-197.799 218.603,-187.758 214.984,-197.716 221.983,-197.799"/>
</g>
<!-- Node22 -->
<g id="node22" class="node"><title>Node22</title>
<g id="a_node22"><a xlink:href="../../d0/dec/endianconv_8h.html" target="_top" xlink:title="Responsible for Endianess conversion. ">
<polygon fill="none" stroke="black" points="0,-224.5 0,-243.5 74,-243.5 74,-224.5 0,-224.5"/>
<text text-anchor="middle" x="37" y="-231.5" font-family="Helvetica,sans-Serif" font-size="10.00">endianconv.h</text>
</a>
</g>
</g>
<!-- Node1&#45;&gt;Node22 -->
<g id="edge40" class="edge"><title>Node1&#45;&gt;Node22</title>
<path fill="none" stroke="midnightblue" d="M322.12,-392.469C288.03,-385.475 242.425,-373.788 205,-356 144.428,-327.21 82.9084,-276.111 53.9982,-250.515"/>
<polygon fill="midnightblue" stroke="midnightblue" points="56.2056,-247.794 46.4224,-243.727 51.5343,-253.007 56.2056,-247.794"/>
</g>
<!-- Node23 -->
<g id="node23" class="node"><title>Node23</title>
<g id="a_node23"><a xlink:href="../../d2/da3/cipconnectionmanager_8h.html" target="_top" xlink:title="cipconnectionmanager.h">
<polygon fill="none" stroke="black" points="659,-280.5 659,-299.5 781,-299.5 781,-280.5 659,-280.5"/>
<text text-anchor="middle" x="720" y="-287.5" font-family="Helvetica,sans-Serif" font-size="10.00">cipconnectionmanager.h</text>
</a>
</g>
</g>
<!-- Node1&#45;&gt;Node23 -->
<g id="edge43" class="edge"><title>Node1&#45;&gt;Node23</title>
<path fill="none" stroke="midnightblue" d="M399.017,-392.46C460.815,-372.926 612.555,-324.963 682.98,-302.702"/>
<polygon fill="midnightblue" stroke="midnightblue" points="684.28,-305.962 692.76,-299.61 682.17,-299.287 684.28,-305.962"/>
</g>
<!-- Node24 -->
<g id="node24" class="node"><title>Node24</title>
<g id="a_node24"><a xlink:href="../../d1/d1b/trace_8h.html" target="_top" xlink:title="Tracing infrastructure for OpENer. ">
<polygon fill="none" stroke="black" points="987.5,-336.5 987.5,-355.5 1034.5,-355.5 1034.5,-336.5 987.5,-336.5"/>
<text text-anchor="middle" x="1011" y="-343.5" font-family="Helvetica,sans-Serif" font-size="10.00">trace.h</text>
</a>
</g>
</g>
<!-- Node1&#45;&gt;Node24 -->
<g id="edge49" class="edge"><title>Node1&#45;&gt;Node24</title>
<path fill="none" stroke="midnightblue" d="M426.199,-399.804C531.94,-396.839 772.922,-386.986 973,-356 974.466,-355.773 975.958,-355.519 977.462,-355.245"/>
<polygon fill="midnightblue" stroke="midnightblue" points="978.308,-358.644 987.397,-353.199 976.897,-351.788 978.308,-358.644"/>
</g>
<!-- Node4 -->
<g id="node4" class="node"><title>Node4</title>
<g id="a_node4"><a xlink:href="../../d7/d69/typedefs_8h.html" target="_top" xlink:title="typedefs.h">
<polygon fill="none" stroke="black" points="305,-56.5 305,-75.5 367,-75.5 367,-56.5 305,-56.5"/>
<text text-anchor="middle" x="336" y="-63.5" font-family="Helvetica,sans-Serif" font-size="10.00">typedefs.h</text>
</a>
</g>
</g>
<!-- Node3&#45;&gt;Node4 -->
<g id="edge3" class="edge"><title>Node3&#45;&gt;Node4</title>
<path fill="none" stroke="midnightblue" d="M338.073,-336.104C333.302,-322.673 322.77,-296.986 307,-280 254.304,-223.24 196.628,-255.696 159,-188 125.595,-127.902 232.549,-91.5348 294.702,-75.9414"/>
<polygon fill="midnightblue" stroke="midnightblue" points="295.742,-79.2907 304.634,-73.5298 294.09,-72.4883 295.742,-79.2907"/>
</g>
<!-- Node8 -->
<g id="node8" class="node"><title>Node8</title>
<g id="a_node8"><a xlink:href="../../df/d28/ciptypes_8h.html" target="_top" xlink:title="ciptypes.h">
<polygon fill="none" stroke="black" points="606,-112.5 606,-131.5 668,-131.5 668,-112.5 606,-112.5"/>
<text text-anchor="middle" x="637" y="-119.5" font-family="Helvetica,sans-Serif" font-size="10.00">ciptypes.h</text>
</a>
</g>
</g>
<!-- Node3&#45;&gt;Node8 -->
<g id="edge7" class="edge"><title>Node3&#45;&gt;Node8</title>
<path fill="none" stroke="midnightblue" d="M360.084,-342.651C428.312,-333.826 658.355,-300.256 701,-244 711.778,-229.782 704.375,-192.511 690,-168 682.844,-155.798 671.134,-145.338 660.538,-137.581"/>
<polygon fill="midnightblue" stroke="midnightblue" points="662.246,-134.508 652.024,-131.723 658.278,-140.275 662.246,-134.508"/>
</g>
<!-- Node3&#45;&gt;Node12 -->
<g id="edge13" class="edge"><title>Node3&#45;&gt;Node12</title>
<path fill="none" stroke="midnightblue" d="M330.075,-336.324C319.825,-328.185 304.279,-315.839 291.999,-306.087"/>
<polygon fill="midnightblue" stroke="midnightblue" points="294.132,-303.312 284.124,-299.834 289.779,-308.794 294.132,-303.312"/>
</g>
<!-- Node5 -->
<g id="node5" class="node"><title>Node5</title>
<polygon fill="none" stroke="#bfbfbf" points="269.5,-0.5 269.5,-19.5 328.5,-19.5 328.5,-0.5 269.5,-0.5"/>
<text text-anchor="middle" x="299" y="-7.5" font-family="Helvetica,sans-Serif" font-size="10.00">inttypes.h</text>
</g>
<!-- Node4&#45;&gt;Node5 -->
<g id="edge4" class="edge"><title>Node4&#45;&gt;Node5</title>
<path fill="none" stroke="midnightblue" d="M329.89,-56.083C324.718,-48.5341 317.154,-37.4948 310.806,-28.2298"/>
<polygon fill="midnightblue" stroke="midnightblue" points="313.536,-26.0221 304.996,-19.7511 307.761,-29.9787 313.536,-26.0221"/>
</g>
<!-- Node6 -->
<g id="node6" class="node"><title>Node6</title>
<polygon fill="none" stroke="#bfbfbf" points="347,-0.5 347,-19.5 399,-19.5 399,-0.5 347,-0.5"/>
<text text-anchor="middle" x="373" y="-7.5" font-family="Helvetica,sans-Serif" font-size="10.00">stddef.h</text>
</g>
<!-- Node4&#45;&gt;Node6 -->
<g id="edge5" class="edge"><title>Node4&#45;&gt;Node6</title>
<path fill="none" stroke="midnightblue" d="M342.11,-56.083C347.282,-48.5341 354.846,-37.4948 361.194,-28.2298"/>
<polygon fill="midnightblue" stroke="midnightblue" points="364.239,-29.9787 367.004,-19.7511 358.464,-26.0221 364.239,-29.9787"/>
</g>
<!-- Node7 -->
<g id="node7" class="node"><title>Node7</title>
<polygon fill="none" stroke="#bfbfbf" points="457,-0.5 457,-19.5 513,-19.5 513,-0.5 457,-0.5"/>
<text text-anchor="middle" x="485" y="-7.5" font-family="Helvetica,sans-Serif" font-size="10.00">stdbool.h</text>
</g>
<!-- Node4&#45;&gt;Node7 -->
<g id="edge6" class="edge"><title>Node4&#45;&gt;Node7</title>
<path fill="none" stroke="midnightblue" d="M359.609,-56.4435C384.458,-47.4381 423.774,-33.1891 451.754,-23.049"/>
<polygon fill="midnightblue" stroke="midnightblue" points="453.292,-26.2144 461.501,-19.5164 450.907,-19.6332 453.292,-26.2144"/>
</g>
<!-- Node8&#45;&gt;Node4 -->
<g id="edge8" class="edge"><title>Node8&#45;&gt;Node4</title>
<path fill="none" stroke="midnightblue" d="M605.921,-115.424C551.397,-105.643 438.508,-85.3902 377.421,-74.431"/>
<polygon fill="midnightblue" stroke="midnightblue" points="377.821,-70.947 367.36,-72.6261 376.585,-77.837 377.821,-70.947"/>
</g>
<!-- Node9 -->
<g id="node9" class="node"><title>Node9</title>
<polygon fill="none" stroke="#bfbfbf" points="515.5,-56.5 515.5,-75.5 606.5,-75.5 606.5,-56.5 515.5,-56.5"/>
<text text-anchor="middle" x="561" y="-63.5" font-family="Helvetica,sans-Serif" font-size="10.00">networkhandler.h</text>
</g>
<!-- Node8&#45;&gt;Node9 -->
<g id="edge9" class="edge"><title>Node8&#45;&gt;Node9</title>
<path fill="none" stroke="midnightblue" d="M624.789,-112.324C613.224,-104.107 595.625,-91.6017 581.839,-81.8069"/>
<polygon fill="midnightblue" stroke="midnightblue" points="583.612,-78.7729 573.433,-75.8339 579.557,-84.4791 583.612,-78.7729"/>
</g>
<!-- Node10 -->
<g id="node10" class="node"><title>Node10</title>
<g id="a_node10"><a xlink:href="../../d8/d2c/enipmessage_8h.html" target="_top" xlink:title="enipmessage.h">
<polygon fill="none" stroke="black" points="663.5,-56.5 663.5,-75.5 746.5,-75.5 746.5,-56.5 663.5,-56.5"/>
<text text-anchor="middle" x="705" y="-63.5" font-family="Helvetica,sans-Serif" font-size="10.00">enipmessage.h</text>
</a>
</g>
</g>
<!-- Node8&#45;&gt;Node10 -->
<g id="edge10" class="edge"><title>Node8&#45;&gt;Node10</title>
<path fill="none" stroke="midnightblue" d="M647.925,-112.324C658.175,-104.185 673.721,-91.8395 686.001,-82.0874"/>
<polygon fill="midnightblue" stroke="midnightblue" points="688.221,-84.7937 693.876,-75.8339 683.868,-79.3119 688.221,-84.7937"/>
</g>
<!-- Node11 -->
<g id="node11" class="node"><title>Node11</title>
<polygon fill="none" stroke="#bfbfbf" points="689,-0.5 689,-19.5 791,-19.5 791,-0.5 689,-0.5"/>
<text text-anchor="middle" x="740" y="-7.5" font-family="Helvetica,sans-Serif" font-size="10.00">opener_user_conf.h</text>
</g>
<!-- Node8&#45;&gt;Node11 -->
<g id="edge12" class="edge"><title>Node8&#45;&gt;Node11</title>
<path fill="none" stroke="midnightblue" d="M637.268,-112.452C638.109,-99.0253 641.502,-72.7933 655,-56 666.98,-41.0952 685.252,-30.5202 701.789,-23.3839"/>
<polygon fill="midnightblue" stroke="midnightblue" points="703.293,-26.5515 711.265,-19.5728 700.681,-20.0571 703.293,-26.5515"/>
</g>
<!-- Node10&#45;&gt;Node11 -->
<g id="edge11" class="edge"><title>Node10&#45;&gt;Node11</title>
<path fill="none" stroke="midnightblue" d="M710.78,-56.083C715.672,-48.5341 722.827,-37.4948 728.833,-28.2298"/>
<polygon fill="midnightblue" stroke="midnightblue" points="731.826,-30.0463 734.328,-19.7511 725.952,-26.239 731.826,-30.0463"/>
</g>
<!-- Node12&#45;&gt;Node4 -->
<g id="edge14" class="edge"><title>Node12&#45;&gt;Node4</title>
<path fill="none" stroke="midnightblue" d="M247.419,-286.255C219.301,-281.941 174.479,-271.05 147,-244 104.665,-202.327 88.6538,-158.197 126,-112 146.81,-86.2578 239.775,-74.5767 294.793,-69.8352"/>
<polygon fill="midnightblue" stroke="midnightblue" points="295.248,-73.3096 304.928,-69.0029 294.675,-66.3331 295.248,-73.3096"/>
</g>
<!-- Node13 -->
<g id="node13" class="node"><title>Node13</title>
<g id="a_node13"><a xlink:href="../../d1/d6c/cipconnectionobject_8h.html" target="_top" xlink:title="cipconnectionobject.h">
<polygon fill="none" stroke="black" points="581.5,-224.5 581.5,-243.5 692.5,-243.5 692.5,-224.5 581.5,-224.5"/>
<text text-anchor="middle" x="637" y="-231.5" font-family="Helvetica,sans-Serif" font-size="10.00">cipconnectionobject.h</text>
</a>
</g>
</g>
<!-- Node12&#45;&gt;Node13 -->
<g id="edge15" class="edge"><title>Node12&#45;&gt;Node13</title>
<path fill="none" stroke="midnightblue" d="M298.596,-285.203C354.618,-276.892 489.596,-256.868 571.143,-244.77"/>
<polygon fill="midnightblue" stroke="midnightblue" points="571.925,-248.192 581.303,-243.263 570.898,-241.268 571.925,-248.192"/>
</g>
<!-- Node13&#45;&gt;Node4 -->
<g id="edge16" class="edge"><title>Node13&#45;&gt;Node4</title>
<path fill="none" stroke="midnightblue" d="M581.475,-231.574C508.769,-228.491 386.908,-218.753 356,-188 328.916,-161.051 329.974,-112.43 333.03,-85.7602"/>
<polygon fill="midnightblue" stroke="midnightblue" points="336.545,-85.8859 334.433,-75.5039 329.61,-84.9373 336.545,-85.8859"/>
</g>
<!-- Node13&#45;&gt;Node8 -->
<g id="edge17" class="edge"><title>Node13&#45;&gt;Node8</title>
<path fill="none" stroke="midnightblue" d="M648.417,-224.282C662.626,-212.286 684.095,-189.701 676,-168 671.827,-156.812 663.48,-146.56 655.576,-138.676"/>
<polygon fill="midnightblue" stroke="midnightblue" points="657.701,-135.872 647.99,-131.635 652.938,-141.003 657.701,-135.872"/>
</g>
<!-- Node13&#45;&gt;Node11 -->
<g id="edge18" class="edge"><title>Node13&#45;&gt;Node11</title>
<path fill="none" stroke="midnightblue" d="M649.414,-224.378C660.883,-215.996 677.922,-202.446 690,-188 726.916,-143.846 740.041,-131.576 755,-76 759.228,-60.2927 754.301,-42.2551 748.993,-29.1723"/>
<polygon fill="midnightblue" stroke="midnightblue" points="752.11,-27.5706 744.821,-19.8816 745.724,-30.4379 752.11,-27.5706"/>
</g>
<!-- Node13&#45;&gt;Node14 -->
<g id="edge19" class="edge"><title>Node13&#45;&gt;Node14</title>
<path fill="none" stroke="midnightblue" d="M674.553,-224.444C716.087,-214.98 783.035,-199.726 827.763,-189.535"/>
<polygon fill="midnightblue" stroke="midnightblue" points="828.816,-192.885 837.788,-187.251 827.26,-186.06 828.816,-192.885"/>
</g>
<!-- Node17 -->
<g id="node17" class="node"><title>Node17</title>
<g id="a_node17"><a xlink:href="../../d9/d31/doublylinkedlist_8h.html" target="_top" xlink:title="doublylinkedlist.h">
<polygon fill="none" stroke="black" points="458,-168.5 458,-187.5 550,-187.5 550,-168.5 458,-168.5"/>
<text text-anchor="middle" x="504" y="-175.5" font-family="Helvetica,sans-Serif" font-size="10.00">doublylinkedlist.h</text>
</a>
</g>
</g>
<!-- Node13&#45;&gt;Node17 -->
<g id="edge25" class="edge"><title>Node13&#45;&gt;Node17</title>
<path fill="none" stroke="midnightblue" d="M615.926,-224.444C593.94,-215.517 559.266,-201.439 534.336,-191.317"/>
<polygon fill="midnightblue" stroke="midnightblue" points="535.558,-188.035 524.976,-187.516 532.924,-194.521 535.558,-188.035"/>
</g>
<!-- Node18 -->
<g id="node18" class="node"><title>Node18</title>
<g id="a_node18"><a xlink:href="../../d0/d23/cipelectronickey_8h.html" target="_top" xlink:title="cipelectronickey.h">
<polygon fill="none" stroke="black" points="402.5,-112.5 402.5,-131.5 497.5,-131.5 497.5,-112.5 402.5,-112.5"/>
<text text-anchor="middle" x="450" y="-119.5" font-family="Helvetica,sans-Serif" font-size="10.00">cipelectronickey.h</text>
</a>
</g>
</g>
<!-- Node13&#45;&gt;Node18 -->
<g id="edge26" class="edge"><title>Node13&#45;&gt;Node18</title>
<path fill="none" stroke="midnightblue" d="M628.55,-224.445C614.914,-211.008 586.767,-184.763 559,-168 536.202,-154.237 508.43,-142.842 486.625,-134.962"/>
<polygon fill="midnightblue" stroke="midnightblue" points="487.66,-131.616 477.065,-131.593 485.334,-138.218 487.66,-131.616"/>
</g>
<!-- Node19 -->
<g id="node19" class="node"><title>Node19</title>
<g id="a_node19"><a xlink:href="../../d1/d02/cipepath_8h.html" target="_top" xlink:title="cipepath.h">
<polygon fill="none" stroke="black" points="606,-168.5 606,-187.5 668,-187.5 668,-168.5 606,-168.5"/>
<text text-anchor="middle" x="637" y="-175.5" font-family="Helvetica,sans-Serif" font-size="10.00">cipepath.h</text>
</a>
</g>
</g>
<!-- Node13&#45;&gt;Node19 -->
<g id="edge29" class="edge"><title>Node13&#45;&gt;Node19</title>
<path fill="none" stroke="midnightblue" d="M637,-224.083C637,-217.006 637,-206.861 637,-197.986"/>
<polygon fill="midnightblue" stroke="midnightblue" points="640.5,-197.751 637,-187.751 633.5,-197.751 640.5,-197.751"/>
</g>
<!-- Node14&#45;&gt;Node4 -->
<g id="edge22" class="edge"><title>Node14&#45;&gt;Node4</title>
<path fill="none" stroke="midnightblue" d="M852.4,-168.437C816.402,-154.502 741.608,-126.974 676,-112 569.872,-87.7777 441.923,-75.2017 377.447,-69.9911"/>
<polygon fill="midnightblue" stroke="midnightblue" points="377.528,-66.4867 367.283,-69.1887 376.977,-73.465 377.528,-66.4867"/>
</g>
<!-- Node14&#45;&gt;Node7 -->
<g id="edge21" class="edge"><title>Node14&#45;&gt;Node7</title>
<path fill="none" stroke="midnightblue" d="M865.645,-168.212C839.719,-140.981 761.96,-59.6186 755,-56 679.698,-16.8507 578.056,-10.4239 523.474,-10.1167"/>
<polygon fill="midnightblue" stroke="midnightblue" points="523.202,-6.61695 513.207,-10.129 523.211,-13.6169 523.202,-6.61695"/>
</g>
<!-- Node14&#45;&gt;Node8 -->
<g id="edge23" class="edge"><title>Node14&#45;&gt;Node8</title>
<path fill="none" stroke="midnightblue" d="M837.747,-168.74C794.8,-158.954 723.413,-142.689 678.352,-132.422"/>
<polygon fill="midnightblue" stroke="midnightblue" points="678.855,-128.947 668.327,-130.138 677.3,-135.772 678.855,-128.947"/>
</g>
<!-- Node15 -->
<g id="node15" class="node"><title>Node15</title>
<polygon fill="none" stroke="#bfbfbf" points="841,-112.5 841,-131.5 893,-131.5 893,-112.5 841,-112.5"/>
<text text-anchor="middle" x="867" y="-119.5" font-family="Helvetica,sans-Serif" font-size="10.00">assert.h</text>
</g>
<!-- Node14&#45;&gt;Node15 -->
<g id="edge20" class="edge"><title>Node14&#45;&gt;Node15</title>
<path fill="none" stroke="midnightblue" d="M872.844,-168.083C871.916,-160.927 870.582,-150.635 869.423,-141.691"/>
<polygon fill="midnightblue" stroke="midnightblue" points="872.891,-141.218 868.134,-131.751 865.949,-142.118 872.891,-141.218"/>
</g>
<!-- Node14&#45;&gt;Node16 -->
<g id="edge24" class="edge"><title>Node14&#45;&gt;Node16</title>
<path fill="none" stroke="midnightblue" d="M884.604,-168.324C894.456,-160.263 909.351,-148.077 921.215,-138.369"/>
<polygon fill="midnightblue" stroke="midnightblue" points="923.68,-140.875 929.203,-131.834 919.247,-135.457 923.68,-140.875"/>
</g>
<!-- Node18&#45;&gt;Node4 -->
<g id="edge28" class="edge"><title>Node18&#45;&gt;Node4</title>
<path fill="none" stroke="midnightblue" d="M431.936,-112.444C413.425,-103.675 384.419,-89.9355 363.145,-79.8579"/>
<polygon fill="midnightblue" stroke="midnightblue" points="364.515,-76.6343 353.979,-75.5164 361.518,-82.9604 364.515,-76.6343"/>
</g>
<!-- Node18&#45;&gt;Node7 -->
<g id="edge27" class="edge"><title>Node18&#45;&gt;Node7</title>
<path fill="none" stroke="midnightblue" d="M452.746,-112.368C458.42,-94.5366 471.542,-53.2953 479.186,-29.2717"/>
<polygon fill="midnightblue" stroke="midnightblue" points="482.57,-30.1819 482.266,-19.5914 475.899,-28.0594 482.57,-30.1819"/>
</g>
<!-- Node19&#45;&gt;Node7 -->
<g id="edge30" class="edge"><title>Node19&#45;&gt;Node7</title>
<path fill="none" stroke="midnightblue" d="M620.511,-168.435C593.067,-153.368 537.981,-119.55 507,-76 497.181,-62.1967 491.482,-43.6747 488.356,-29.934"/>
<polygon fill="midnightblue" stroke="midnightblue" points="491.706,-28.8376 486.301,-19.7248 484.843,-30.2188 491.706,-28.8376"/>
</g>
<!-- Node19&#45;&gt;Node8 -->
<g id="edge31" class="edge"><title>Node19&#45;&gt;Node8</title>
<path fill="none" stroke="midnightblue" d="M637,-168.083C637,-161.006 637,-150.861 637,-141.986"/>
<polygon fill="midnightblue" stroke="midnightblue" points="640.5,-141.751 637,-131.751 633.5,-141.751 640.5,-141.751"/>
</g>
<!-- Node19&#45;&gt;Node18 -->
<g id="edge32" class="edge"><title>Node19&#45;&gt;Node18</title>
<path fill="none" stroke="midnightblue" d="M607.369,-168.444C575.5,-159.241 524.667,-144.562 489.436,-134.388"/>
<polygon fill="midnightblue" stroke="midnightblue" points="490.071,-130.928 479.492,-131.516 488.128,-137.653 490.071,-130.928"/>
</g>
<!-- Node20&#45;&gt;Node4 -->
<g id="edge35" class="edge"><title>Node20&#45;&gt;Node4</title>
<path fill="none" stroke="midnightblue" d="M396.821,-168.368C385.977,-150.296 360.706,-108.176 346.384,-84.3074"/>
<polygon fill="midnightblue" stroke="midnightblue" points="349.301,-82.3656 341.155,-75.5914 343.299,-85.9671 349.301,-82.3656"/>
</g>
<!-- Node20&#45;&gt;Node8 -->
<g id="edge36" class="edge"><title>Node20&#45;&gt;Node8</title>
<path fill="none" stroke="midnightblue" d="M439.236,-168.444C481.981,-158.621 551.871,-142.562 596.098,-132.399"/>
<polygon fill="midnightblue" stroke="midnightblue" points="596.979,-135.788 605.942,-130.137 595.412,-128.965 596.979,-135.788"/>
</g>
<!-- Node21&#45;&gt;Node4 -->
<g id="edge38" class="edge"><title>Node21&#45;&gt;Node4</title>
<path fill="none" stroke="midnightblue" d="M227.224,-168.389C239.378,-155.753 262.969,-131.568 284,-112 294.926,-101.834 307.58,-90.8672 317.669,-82.305"/>
<polygon fill="midnightblue" stroke="midnightblue" points="320.057,-84.8701 325.447,-75.7488 315.545,-79.5179 320.057,-84.8701"/>
</g>
<!-- Node21&#45;&gt;Node8 -->
<g id="edge39" class="edge"><title>Node21&#45;&gt;Node8</title>
<path fill="none" stroke="midnightblue" d="M270.255,-170.379C354.06,-159.552 518.765,-138.274 595.644,-128.343"/>
<polygon fill="midnightblue" stroke="midnightblue" points="596.422,-131.771 605.892,-127.019 595.526,-124.829 596.422,-131.771"/>
</g>
<!-- Node22&#45;&gt;Node4 -->
<g id="edge41" class="edge"><title>Node22&#45;&gt;Node4</title>
<path fill="none" stroke="midnightblue" d="M37.8832,-224.317C40.663,-201.823 51.3577,-141.372 88,-112 119.227,-86.969 232.444,-74.734 294.541,-69.7883"/>
<polygon fill="midnightblue" stroke="midnightblue" points="295.076,-73.2576 304.779,-69.0021 294.54,-66.2782 295.076,-73.2576"/>
</g>
<!-- Node23&#45;&gt;Node4 -->
<g id="edge46" class="edge"><title>Node23&#45;&gt;Node4</title>
<path fill="none" stroke="midnightblue" d="M658.945,-280.8C562.54,-266.597 381.515,-234.417 338,-188 312.11,-160.383 321.673,-111.703 329.609,-85.2888"/>
<polygon fill="midnightblue" stroke="midnightblue" points="332.946,-86.3441 332.699,-75.7522 326.287,-84.1861 332.946,-86.3441"/>
</g>
<!-- Node23&#45;&gt;Node8 -->
<g id="edge47" class="edge"><title>Node23&#45;&gt;Node8</title>
<path fill="none" stroke="midnightblue" d="M726.248,-280.257C740.519,-259.116 772.455,-204.302 748,-168 739.686,-155.658 705.973,-143.051 677.86,-134.333"/>
<polygon fill="midnightblue" stroke="midnightblue" points="678.785,-130.956 668.2,-131.418 676.763,-137.657 678.785,-130.956"/>
</g>
<!-- Node23&#45;&gt;Node11 -->
<g id="edge44" class="edge"><title>Node23&#45;&gt;Node11</title>
<path fill="none" stroke="midnightblue" d="M758.115,-280.415C819.911,-264.061 938.895,-221.758 977,-132 1009.2,-56.148 881.471,-27.2548 801.045,-16.7066"/>
<polygon fill="midnightblue" stroke="midnightblue" points="801.358,-13.2186 791.001,-15.4517 800.49,-20.1646 801.358,-13.2186"/>
</g>
<!-- Node23&#45;&gt;Node13 -->
<g id="edge48" class="edge"><title>Node23&#45;&gt;Node13</title>
<path fill="none" stroke="midnightblue" d="M706.665,-280.324C693.838,-271.979 674.215,-259.212 659.06,-249.352"/>
<polygon fill="midnightblue" stroke="midnightblue" points="660.593,-246.174 650.302,-243.655 656.776,-252.042 660.593,-246.174"/>
</g>
<!-- Node23&#45;&gt;Node14 -->
<g id="edge45" class="edge"><title>Node23&#45;&gt;Node14</title>
<path fill="none" stroke="midnightblue" d="M748.029,-280.494C769.425,-273.101 798.891,-260.91 821,-244 838.457,-230.648 853.753,-210.445 863.367,-196.111"/>
<polygon fill="midnightblue" stroke="midnightblue" points="866.335,-197.967 868.831,-187.67 860.459,-194.163 866.335,-197.967"/>
</g>
</g>
</svg>
        <g id="navigator" transform="translate(0 0)" fill="#404254">
                <rect fill="#f2f5e9" fill-opacity="0.5" stroke="#606060" stroke-width=".5" x="0" y="0" width="60" height="60"/>
                <use id="zoomplus" xlink:href="#zoomPlus" x="17" y="9" onmousedown="handleZoom(evt,'in')"/>
                <use id="zoomminus" xlink:href="#zoomMin" x="42" y="9" onmousedown="handleZoom(evt,'out')"/>
                <use id="reset" xlink:href="#resetDef" x="30" y="36" onmousedown="handleReset()"/>
                <g id="arrowUp" xlink:href="#dirArrow" transform="translate(30 24)" onmousedown="handlePan(0,-1)">
                  <use xlink:href="#rim" fill="#404040">
                        <set attributeName="fill" to="#808080" begin="arrowUp.mouseover" end="arrowUp.mouseout"/>
                  </use>
                  <path fill="none" stroke="white" stroke-width="1.5" d="M0,-3.0v7 M-2.5,-0.5L0,-3.0L2.5,-0.5"/>
                </g>
                <g id="arrowRight" xlink:href="#dirArrow" transform="rotate(90) translate(36 -43)" onmousedown="handlePan(1,0)">
                  <use xlink:href="#rim" fill="#404040">
                        <set attributeName="fill" to="#808080" begin="arrowRight.mouseover" end="arrowRight.mouseout"/>
                  </use>
                  <path fill="none" stroke="white" stroke-width="1.5" d="M0,-3.0v7 M-2.5,-0.5L0,-3.0L2.5,-0.5"/>
                </g>
                <g id="arrowDown" xlink:href="#dirArrow" transform="rotate(180) translate(-30 -48)" onmousedown="handlePan(0,1)">
                  <use xlink:href="#rim" fill="#404040">
                        <set attributeName="fill" to="#808080" begin="arrowDown.mouseover" end="arrowDown.mouseout"/>
                  </use>
                  <path fill="none" stroke="white" stroke-width="1.5" d="M0,-3.0v7 M-2.5,-0.5L0,-3.0L2.5,-0.5"/>
                </g>
                <g id="arrowLeft" xlink:href="#dirArrow" transform="rotate(270) translate(-36 17)" onmousedown="handlePan(-1,0)">
                  <use xlink:href="#rim" fill="#404040">
                        <set attributeName="fill" to="#808080" begin="arrowLeft.mouseover" end="arrowLeft.mouseout"/>
                  </use>
                  <path fill="none" stroke="white" stroke-width="1.5" d="M0,-3.0v7 M-2.5,-0.5L0,-3.0L2.5,-0.5"/>
                </g>
        </g>
        <svg viewBox="0 0 15 15" width="100%" height="30px" preserveAspectRatio="xMaxYMin meet">
         <g id="arrow_out" transform="scale(0.3 0.3)">
          <a xlink:href="cpf_8c__incl_org.svg" target="_base">
           <rect id="button" ry="5" rx="5" y="6" x="6" height="38" width="38"
                fill="#f2f5e9" fill-opacity="0.5" stroke="#606060" stroke-width="1.0"/>
           <path id="arrow"
             d="M 11.500037,31.436501 C 11.940474,20.09759 22.043105,11.32322 32.158766,21.979434 L 37.068811,17.246167 C 37.068811,17.246167 37.088388,32 37.088388,32 L 22.160133,31.978069 C 22.160133,31.978069 26.997745,27.140456 26.997745,27.140456 C 18.528582,18.264221 13.291696,25.230495 11.500037,31.436501 z"
             style="fill:#404040;"/>
          </a>
         </g>
        </svg>
</svg>
