<?xml version="1.0" encoding="UTF-8" standalone="no"?>
<!DOCTYPE svg PUBLIC "-//W3C//DTD SVG 1.1//EN"
 "http://www.w3.org/Graphics/SVG/1.1/DTD/svg11.dtd">
<!-- Generated by graphviz version 2.36.0 (20140111.2315)
 -->
<!-- Title: src/enet_encap/cpf.c Pages: 1 -->
<!--zoomable 476 -->
<svg id="main" version="1.1" xmlns="http://www.w3.org/2000/svg" xmlns:xlink="http://www.w3.org/1999/xlink" xml:space="preserve" onload="init(evt)">
<style type="text/css"><![CDATA[
.edge:hover path { stroke: red; }
.edge:hover polygon { stroke: red; fill: red; }
]]></style>
<script type="text/javascript"><![CDATA[
var edges = document.getElementsByTagName('g');
if (edges && edges.length) {
  for (var i=0;i<edges.length;i++) {
    if (edges[i].id.substr(0,4)=='edge') {
      edges[i].setAttribute('class','edge');
    }
  }
}
]]></script>
        <defs>
                <circle id="rim" cx="0" cy="0" r="7"/>
                <circle id="rim2" cx="0" cy="0" r="3.5"/>
                <g id="zoomPlus">
                        <use xlink:href="#rim" fill="#404040">
                                <set attributeName="fill" to="#808080" begin="zoomplus.mouseover" end="zoomplus.mouseout"/>
                        </use>
                        <path d="M-4,0h8M0,-4v8" fill="none" stroke="white" stroke-width="1.5" pointer-events="none"/>
                </g>
                <g id="zoomMin">
                        <use xlink:href="#rim" fill="#404040">
                                <set attributeName="fill" to="#808080" begin="zoomminus.mouseover" end="zoomminus.mouseout"/>
                        </use>
                        <path d="M-4,0h8" fill="none" stroke="white" stroke-width="1.5" pointer-events="none"/>
                </g>
                <g id="dirArrow">
                        <path fill="none" stroke="white" stroke-width="1.5" d="M0,-3.0v7 M-2.5,-0.5L0,-3.0L2.5,-0.5"/>
                </g>
               <g id="resetDef">
                       <use xlink:href="#rim2" fill="#404040">
                               <set attributeName="fill" to="#808080" begin="reset.mouseover" end="reset.mouseout"/>
                       </use>
               </g>
        </defs>

<script type="text/javascript">
var viewWidth = 1073;
var viewHeight = 476;
var sectionId = 'dynsection-0';
</script>
<script xlink:href="../../svgpan.js"/>
<svg id="graph" class="graph">
<g id="viewport">
<title>src/enet_encap/cpf.c</title>
<!-- Node1 -->
<g id="node1" class="node"><title>Node1</title>
<polygon fill="#bfbfbf" stroke="black" points="309,-448.5 309,-467.5 417,-467.5 417,-448.5 309,-448.5"/>
<text text-anchor="middle" x="363" y="-455.5" font-family="Helvetica,sans-Serif" font-size="10.00">src/enet_encap/cpf.c</text>
</g>
<!-- Node2 -->
<g id="node2" class="node"><title>Node2</title>
<polygon fill="none" stroke="#bfbfbf" points="-0.5,-392.5 -0.5,-411.5 48.5,-411.5 48.5,-392.5 -0.5,-392.5"/>
<text text-anchor="middle" x="24" y="-399.5" font-family="Helvetica,sans-Serif" font-size="10.00">string.h</text>
</g>
<!-- Node1&#45;&gt;Node2 -->
<g id="edge1" class="edge"><title>Node1&#45;&gt;Node2</title>
<path fill="none" stroke="midnightblue" d="M308.863,-450.172C248.622,-442.273 148.5,-428.252 63,-412 61.5494,-411.724 60.0708,-411.432 58.579,-411.129"/>
<polygon fill="midnightblue" stroke="midnightblue" points="59.2085,-407.684 48.6962,-409.005 57.7376,-414.528 59.2085,-407.684"/>
</g>
<!-- Node3 -->
<g id="node3" class="node"><title>Node3</title>
<g id="a_node3"><a xlink:href="../../d0/dff/cpf_8h.html" target="_top" xlink:title="cpf.h">
<polygon fill="none" stroke="black" points="364,-392.5 364,-411.5 402,-411.5 402,-392.5 364,-392.5"/>
<text text-anchor="middle" x="383" y="-399.5" font-family="Helvetica,sans-Serif" font-size="10.00">cpf.h</text>
</a>
</g>
</g>
<!-- Node1&#45;&gt;Node3 -->
<g id="edge2" class="edge"><title>Node1&#45;&gt;Node3</title>
<path fill="none" stroke="midnightblue" d="M366.303,-448.083C368.982,-440.849 372.849,-430.409 376.186,-421.397"/>
<polygon fill="midnightblue" stroke="midnightblue" points="379.568,-422.344 379.759,-411.751 373.004,-419.913 379.568,-422.344"/>
</g>
<!-- Node12 -->
<g id="node12" class="node"><title>Node12</title>
<g id="a_node12"><a xlink:href="../../d7/df9/encap_8h.html" target="_top" xlink:title="This file contains the public interface of the encapsulation layer. ">
<polygon fill="none" stroke="black" points="429.5,-336.5 429.5,-355.5 480.5,-355.5 480.5,-336.5 429.5,-336.5"/>
<text text-anchor="middle" x="455" y="-343.5" font-family="Helvetica,sans-Serif" font-size="10.00">encap.h</text>
</a>
</g>
</g>
<!-- Node1&#45;&gt;Node12 -->
<g id="edge51" class="edge"><title>Node1&#45;&gt;Node12</title>
<path fill="none" stroke="midnightblue" d="M373.567,-448.301C383.747,-439.653 399.286,-425.73 411,-412 423.811,-396.985 436.211,-378.152 444.564,-364.629"/>
<polygon fill="midnightblue" stroke="midnightblue" points="447.693,-366.218 449.878,-355.851 441.705,-362.593 447.693,-366.218"/>
</g>
<!-- Node14 -->
<g id="node14" class="node"><title>Node14</title>
<g id="a_node14"><a xlink:href="../../d4/d38/opener__api_8h.html" target="_top" xlink:title="opener_api.h">
<polygon fill="none" stroke="black" points="313,-224.5 313,-243.5 385,-243.5 385,-224.5 313,-224.5"/>
<text text-anchor="middle" x="349" y="-231.5" font-family="Helvetica,sans-Serif" font-size="10.00">opener_api.h</text>
</a>
</g>
</g>
<!-- Node1&#45;&gt;Node14 -->
<g id="edge34" class="edge"><title>Node1&#45;&gt;Node14</title>
<path fill="none" stroke="midnightblue" d="M361.101,-448.425C359.192,-439.409 356.346,-424.784 355,-412 348.949,-354.538 348.549,-286.06 348.764,-253.703"/>
<polygon fill="midnightblue" stroke="midnightblue" points="352.265,-253.537 348.861,-243.504 345.266,-253.47 352.265,-253.537"/>
</g>
<!-- Node16 -->
<g id="node16" class="node"><title>Node16</title>
<g id="a_node16"><a xlink:href="../../d6/d52/ciperror_8h.html" target="_top" xlink:title="ciperror.h">
<polygon fill="none" stroke="black" points="257.5,-168.5 257.5,-187.5 314.5,-187.5 314.5,-168.5 257.5,-168.5"/>
<text text-anchor="middle" x="286" y="-175.5" font-family="Helvetica,sans-Serif" font-size="10.00">ciperror.h</text>
</a>
</g>
</g>
<!-- Node1&#45;&gt;Node16 -->
<g id="edge43" class="edge"><title>Node1&#45;&gt;Node16</title>
<path fill="none" stroke="midnightblue" d="M313.509,-448.486C231.652,-432.985 77,-397.073 77,-347 77,-347 77,-347 77,-289 77,-212.834 187.038,-189.286 247.426,-182.097"/>
<polygon fill="midnightblue" stroke="midnightblue" points="247.818,-185.575 257.378,-181.007 247.056,-178.617 247.818,-185.575"/>
</g>
<!-- Node20 -->
<g id="node20" class="node"><title>Node20</title>
<g id="a_node20"><a xlink:href="../../db/d14/cipcommon_8h.html" target="_top" xlink:title="cipcommon.h">
<polygon fill="none" stroke="black" points="219.5,-224.5 219.5,-243.5 294.5,-243.5 294.5,-224.5 219.5,-224.5"/>
<text text-anchor="middle" x="257" y="-231.5" font-family="Helvetica,sans-Serif" font-size="10.00">cipcommon.h</text>
</a>
</g>
</g>
<!-- Node1&#45;&gt;Node20 -->
<g id="edge35" class="edge"><title>Node1&#45;&gt;Node20</title>
<path fill="none" stroke="midnightblue" d="M358.845,-448.297C343.149,-415.425 287.268,-298.391 265.638,-253.09"/>
<polygon fill="midnightblue" stroke="midnightblue" points="268.709,-251.4 261.242,-243.884 262.392,-254.416 268.709,-251.4"/>
</g>
<!-- Node21 -->
<g id="node21" class="node"><title>Node21</title>
<g id="a_node21"><a xlink:href="../../d2/d75/cipmessagerouter_8h.html" target="_top" xlink:title="cipmessagerouter.h">
<polygon fill="none" stroke="black" points="479,-224.5 479,-243.5 581,-243.5 581,-224.5 479,-224.5"/>
<text text-anchor="middle" x="530" y="-231.5" font-family="Helvetica,sans-Serif" font-size="10.00">cipmessagerouter.h</text>
</a>
</g>
</g>
<!-- Node1&#45;&gt;Node21 -->
<g id="edge38" class="edge"><title>Node1&#45;&gt;Node21</title>
<path fill="none" stroke="midnightblue" d="M379.893,-448.382C407.326,-433.471 461.28,-400.168 489,-356 509.756,-322.928 521.354,-278.123 526.574,-253.361"/>
<polygon fill="midnightblue" stroke="midnightblue" points="530.015,-253.998 528.533,-243.508 523.15,-252.633 530.015,-253.998"/>
</g>
<!-- Node22 -->
<g id="node22" class="node"><title>Node22</title>
<g id="a_node22"><a xlink:href="../../d0/dec/endianconv_8h.html" target="_top" xlink:title="Responsible for Endianess conversion. ">
<polygon fill="none" stroke="black" points="105,-280.5 105,-299.5 179,-299.5 179,-280.5 105,-280.5"/>
<text text-anchor="middle" x="142" y="-287.5" font-family="Helvetica,sans-Serif" font-size="10.00">endianconv.h</text>
</a>
</g>
</g>
<!-- Node1&#45;&gt;Node22 -->
<g id="edge41" class="edge"><title>Node1&#45;&gt;Node22</title>
<path fill="none" stroke="midnightblue" d="M340.272,-448.486C320.532,-440.552 291.638,-427.616 269,-412 223.254,-380.445 178.194,-332.393 156.087,-307.398"/>
<polygon fill="midnightblue" stroke="midnightblue" points="158.476,-304.812 149.261,-299.583 153.204,-309.417 158.476,-304.812"/>
</g>
<!-- Node23 -->
<g id="node23" class="node"><title>Node23</title>
<g id="a_node23"><a xlink:href="../../d2/da3/cipconnectionmanager_8h.html" target="_top" xlink:title="cipconnectionmanager.h">
<polygon fill="none" stroke="black" points="654,-336.5 654,-355.5 776,-355.5 776,-336.5 654,-336.5"/>
<text text-anchor="middle" x="715" y="-343.5" font-family="Helvetica,sans-Serif" font-size="10.00">cipconnectionmanager.h</text>
</a>
</g>
</g>
<!-- Node1&#45;&gt;Node23 -->
<g id="edge44" class="edge"><title>Node1&#45;&gt;Node23</title>
<path fill="none" stroke="midnightblue" d="M399.402,-448.447C432.161,-440.354 481.398,-427.205 523,-412 543.176,-404.626 546.903,-399.585 567,-392 602.103,-378.751 642.97,-366.561 672.855,-358.22"/>
<polygon fill="midnightblue" stroke="midnightblue" points="673.838,-361.579 682.545,-355.543 671.974,-354.832 673.838,-361.579"/>
</g>
<!-- Node24 -->
<g id="node24" class="node"><title>Node24</title>
<g id="a_node24"><a xlink:href="../../d1/d1b/trace_8h.html" target="_top" xlink:title="Tracing infrastructure for OpENer. ">
<polygon fill="none" stroke="black" points="575.5,-392.5 575.5,-411.5 622.5,-411.5 622.5,-392.5 575.5,-392.5"/>
<text text-anchor="middle" x="599" y="-399.5" font-family="Helvetica,sans-Serif" font-size="10.00">trace.h</text>
</a>
</g>
</g>
<!-- Node1&#45;&gt;Node24 -->
<g id="edge50" class="edge"><title>Node1&#45;&gt;Node24</title>
<path fill="none" stroke="midnightblue" d="M400.981,-448.475C440.858,-439.5 505.371,-424.909 561,-412 562.445,-411.665 563.92,-411.321 565.41,-410.973"/>
<polygon fill="midnightblue" stroke="midnightblue" points="566.357,-414.346 575.291,-408.65 564.756,-407.531 566.357,-414.346"/>
</g>
<!-- Node4 -->
<g id="node4" class="node"><title>Node4</title>
<g id="a_node4"><a xlink:href="../../d7/d69/typedefs_8h.html" target="_top" xlink:title="typedefs.h">
<polygon fill="none" stroke="black" points="412,-56.5 412,-75.5 474,-75.5 474,-56.5 412,-56.5"/>
<text text-anchor="middle" x="443" y="-63.5" font-family="Helvetica,sans-Serif" font-size="10.00">typedefs.h</text>
</a>
</g>
</g>
<!-- Node3&#45;&gt;Node4 -->
<g id="edge3" class="edge"><title>Node3&#45;&gt;Node4</title>
<path fill="none" stroke="midnightblue" d="M366.917,-392.494C302.081,-357.173 67.6854,-218.923 159,-112 189.682,-76.0731 330.254,-68.6728 401.439,-67.2557"/>
<polygon fill="midnightblue" stroke="midnightblue" points="401.889,-70.7487 411.829,-67.0817 401.772,-63.7497 401.889,-70.7487"/>
</g>
<!-- Node8 -->
<g id="node8" class="node"><title>Node8</title>
<g id="a_node8"><a xlink:href="../../df/d28/ciptypes_8h.html" target="_top" xlink:title="ciptypes.h">
<polygon fill="none" stroke="black" points="592,-168.5 592,-187.5 654,-187.5 654,-168.5 592,-168.5"/>
<text text-anchor="middle" x="623" y="-175.5" font-family="Helvetica,sans-Serif" font-size="10.00">ciptypes.h</text>
</a>
</g>
</g>
<!-- Node3&#45;&gt;Node8 -->
<g id="edge7" class="edge"><title>Node3&#45;&gt;Node8</title>
<path fill="none" stroke="midnightblue" d="M384.647,-392.483C390.6,-364.036 413.694,-271.426 470,-224 501.666,-197.328 548.54,-186.462 582.052,-182.036"/>
<polygon fill="midnightblue" stroke="midnightblue" points="582.472,-185.511 591.991,-180.859 581.649,-178.56 582.472,-185.511"/>
</g>
<!-- Node3&#45;&gt;Node12 -->
<g id="edge14" class="edge"><title>Node3&#45;&gt;Node12</title>
<path fill="none" stroke="midnightblue" d="M394.568,-392.324C405.42,-384.185 421.881,-371.839 434.883,-362.087"/>
<polygon fill="midnightblue" stroke="midnightblue" points="437.321,-364.634 443.221,-355.834 433.121,-359.034 437.321,-364.634"/>
</g>
<!-- Node5 -->
<g id="node5" class="node"><title>Node5</title>
<polygon fill="none" stroke="#bfbfbf" points="450.5,-0.5 450.5,-19.5 509.5,-19.5 509.5,-0.5 450.5,-0.5"/>
<text text-anchor="middle" x="480" y="-7.5" font-family="Helvetica,sans-Serif" font-size="10.00">inttypes.h</text>
</g>
<!-- Node4&#45;&gt;Node5 -->
<g id="edge4" class="edge"><title>Node4&#45;&gt;Node5</title>
<path fill="none" stroke="midnightblue" d="M449.11,-56.083C454.282,-48.5341 461.846,-37.4948 468.194,-28.2298"/>
<polygon fill="midnightblue" stroke="midnightblue" points="471.239,-29.9787 474.004,-19.7511 465.464,-26.0221 471.239,-29.9787"/>
</g>
<!-- Node6 -->
<g id="node6" class="node"><title>Node6</title>
<polygon fill="none" stroke="#bfbfbf" points="380,-0.5 380,-19.5 432,-19.5 432,-0.5 380,-0.5"/>
<text text-anchor="middle" x="406" y="-7.5" font-family="Helvetica,sans-Serif" font-size="10.00">stddef.h</text>
</g>
<!-- Node4&#45;&gt;Node6 -->
<g id="edge5" class="edge"><title>Node4&#45;&gt;Node6</title>
<path fill="none" stroke="midnightblue" d="M436.89,-56.083C431.718,-48.5341 424.154,-37.4948 417.806,-28.2298"/>
<polygon fill="midnightblue" stroke="midnightblue" points="420.536,-26.0221 411.996,-19.7511 414.761,-29.9787 420.536,-26.0221"/>
</g>
<!-- Node7 -->
<g id="node7" class="node"><title>Node7</title>
<polygon fill="none" stroke="#bfbfbf" points="593,-0.5 593,-19.5 649,-19.5 649,-0.5 593,-0.5"/>
<text text-anchor="middle" x="621" y="-7.5" font-family="Helvetica,sans-Serif" font-size="10.00">stdbool.h</text>
</g>
<!-- Node4&#45;&gt;Node7 -->
<g id="edge6" class="edge"><title>Node4&#45;&gt;Node7</title>
<path fill="none" stroke="midnightblue" d="M471.205,-56.4435C501.41,-47.2801 549.511,-32.6876 583.029,-22.5192"/>
<polygon fill="midnightblue" stroke="midnightblue" points="584.374,-25.7688 592.927,-19.5164 582.342,-19.0703 584.374,-25.7688"/>
</g>
<!-- Node8&#45;&gt;Node4 -->
<g id="edge8" class="edge"><title>Node8&#45;&gt;Node4</title>
<path fill="none" stroke="midnightblue" d="M608.876,-168.368C577.856,-149.412 503.546,-104.001 465.815,-80.9424"/>
<polygon fill="midnightblue" stroke="midnightblue" points="467.417,-77.8195 457.059,-75.5914 463.766,-83.7925 467.417,-77.8195"/>
</g>
<!-- Node9 -->
<g id="node9" class="node"><title>Node9</title>
<g id="a_node9"><a xlink:href="../../d0/d47/networkhandler_8h.html" target="_top" xlink:title="networkhandler.h">
<polygon fill="none" stroke="black" points="577.5,-112.5 577.5,-131.5 668.5,-131.5 668.5,-112.5 577.5,-112.5"/>
<text text-anchor="middle" x="623" y="-119.5" font-family="Helvetica,sans-Serif" font-size="10.00">networkhandler.h</text>
</a>
</g>
</g>
<!-- Node8&#45;&gt;Node9 -->
<g id="edge9" class="edge"><title>Node8&#45;&gt;Node9</title>
<path fill="none" stroke="midnightblue" d="M623,-168.083C623,-161.006 623,-150.861 623,-141.986"/>
<polygon fill="midnightblue" stroke="midnightblue" points="626.5,-141.751 623,-131.751 619.5,-141.751 626.5,-141.751"/>
</g>
<!-- Node10 -->
<g id="node10" class="node"><title>Node10</title>
<g id="a_node10"><a xlink:href="../../d8/d2c/enipmessage_8h.html" target="_top" xlink:title="enipmessage.h">
<polygon fill="none" stroke="black" points="877.5,-112.5 877.5,-131.5 960.5,-131.5 960.5,-112.5 877.5,-112.5"/>
<text text-anchor="middle" x="919" y="-119.5" font-family="Helvetica,sans-Serif" font-size="10.00">enipmessage.h</text>
</a>
</g>
</g>
<!-- Node8&#45;&gt;Node10 -->
<g id="edge11" class="edge"><title>Node8&#45;&gt;Node10</title>
<path fill="none" stroke="midnightblue" d="M654.118,-171.323C704.876,-162.063 805.992,-143.616 867.555,-132.385"/>
<polygon fill="midnightblue" stroke="midnightblue" points="868.244,-135.817 877.454,-130.579 866.988,-128.931 868.244,-135.817"/>
</g>
<!-- Node11 -->
<g id="node11" class="node"><title>Node11</title>
<polygon fill="none" stroke="#bfbfbf" points="882,-56.5 882,-75.5 984,-75.5 984,-56.5 882,-56.5"/>
<text text-anchor="middle" x="933" y="-63.5" font-family="Helvetica,sans-Serif" font-size="10.00">opener_user_conf.h</text>
</g>
<!-- Node8&#45;&gt;Node11 -->
<g id="edge13" class="edge"><title>Node8&#45;&gt;Node11</title>
<path fill="none" stroke="midnightblue" d="M632.634,-168.341C648.83,-154.269 683.084,-126.548 717,-112 766.806,-90.6369 827.533,-79.1424 871.898,-73.1336"/>
<polygon fill="midnightblue" stroke="midnightblue" points="872.489,-76.5863 881.955,-71.8272 871.587,-69.6446 872.489,-76.5863"/>
</g>
<!-- Node9&#45;&gt;Node4 -->
<g id="edge10" class="edge"><title>Node9&#45;&gt;Node4</title>
<path fill="none" stroke="midnightblue" d="M594.478,-112.444C563.934,-103.28 515.292,-88.6876 481.397,-78.5192"/>
<polygon fill="midnightblue" stroke="midnightblue" points="481.972,-75.0376 471.388,-75.5164 479.961,-81.7424 481.972,-75.0376"/>
</g>
<!-- Node10&#45;&gt;Node11 -->
<g id="edge12" class="edge"><title>Node10&#45;&gt;Node11</title>
<path fill="none" stroke="midnightblue" d="M921.312,-112.083C923.167,-104.927 925.835,-94.6353 928.154,-85.6911"/>
<polygon fill="midnightblue" stroke="midnightblue" points="931.609,-86.3094 930.731,-75.7511 924.834,-84.5527 931.609,-86.3094"/>
</g>
<!-- Node12&#45;&gt;Node4 -->
<g id="edge15" class="edge"><title>Node12&#45;&gt;Node4</title>
<path fill="none" stroke="midnightblue" d="M429.301,-343.268C377.434,-338.225 260.932,-318.71 211,-244 174.553,-189.467 223.604,-150.093 277,-112 314.058,-85.5631 365.848,-74.6547 401.682,-70.1553"/>
<polygon fill="midnightblue" stroke="midnightblue" points="402.259,-73.6123 411.798,-69.0015 401.466,-66.6574 402.259,-73.6123"/>
</g>
<!-- Node13 -->
<g id="node13" class="node"><title>Node13</title>
<g id="a_node13"><a xlink:href="../../d1/d6c/cipconnectionobject_8h.html" target="_top" xlink:title="cipconnectionobject.h">
<polygon fill="none" stroke="black" points="617.5,-280.5 617.5,-299.5 728.5,-299.5 728.5,-280.5 617.5,-280.5"/>
<text text-anchor="middle" x="673" y="-287.5" font-family="Helvetica,sans-Serif" font-size="10.00">cipconnectionobject.h</text>
</a>
</g>
</g>
<!-- Node12&#45;&gt;Node13 -->
<g id="edge16" class="edge"><title>Node12&#45;&gt;Node13</title>
<path fill="none" stroke="midnightblue" d="M480.864,-338.593C517.276,-329.574 584.164,-313.005 628.616,-301.994"/>
<polygon fill="midnightblue" stroke="midnightblue" points="629.705,-305.33 638.57,-299.529 628.022,-298.536 629.705,-305.33"/>
</g>
<!-- Node13&#45;&gt;Node4 -->
<g id="edge17" class="edge"><title>Node13&#45;&gt;Node4</title>
<path fill="none" stroke="midnightblue" d="M617.092,-283.659C564.092,-277.396 489.727,-265.091 470,-244 428.996,-200.163 434.489,-121.75 439.663,-85.8654"/>
<polygon fill="midnightblue" stroke="midnightblue" points="443.148,-86.2339 441.272,-75.8065 436.236,-85.1279 443.148,-86.2339"/>
</g>
<!-- Node13&#45;&gt;Node8 -->
<g id="edge18" class="edge"><title>Node13&#45;&gt;Node8</title>
<path fill="none" stroke="midnightblue" d="M681.621,-280.259C693.152,-267.462 710.947,-243.077 700,-224 691.385,-208.986 675.609,-198.504 660.57,-191.458"/>
<polygon fill="midnightblue" stroke="midnightblue" points="661.942,-188.238 651.372,-187.505 659.178,-194.669 661.942,-188.238"/>
</g>
<!-- Node13&#45;&gt;Node11 -->
<g id="edge19" class="edge"><title>Node13&#45;&gt;Node11</title>
<path fill="none" stroke="midnightblue" d="M728.816,-285.748C770.749,-281.174 828.244,-270.212 872,-244 928.491,-210.159 945.995,-193.702 969,-132 975.568,-114.383 962.988,-95.7567 950.935,-82.9807"/>
<polygon fill="midnightblue" stroke="midnightblue" points="953.258,-80.3572 943.673,-75.8433 948.351,-85.3494 953.258,-80.3572"/>
</g>
<!-- Node13&#45;&gt;Node14 -->
<g id="edge20" class="edge"><title>Node13&#45;&gt;Node14</title>
<path fill="none" stroke="midnightblue" d="M621.661,-280.444C559.25,-270.042 454.866,-252.644 394.98,-242.663"/>
<polygon fill="midnightblue" stroke="midnightblue" points="395.49,-239.2 385.051,-241.008 394.339,-246.105 395.49,-239.2"/>
</g>
<!-- Node17 -->
<g id="node17" class="node"><title>Node17</title>
<g id="a_node17"><a xlink:href="../../d9/d31/doublylinkedlist_8h.html" target="_top" xlink:title="doublylinkedlist.h">
<polygon fill="none" stroke="black" points="599,-224.5 599,-243.5 691,-243.5 691,-224.5 599,-224.5"/>
<text text-anchor="middle" x="645" y="-231.5" font-family="Helvetica,sans-Serif" font-size="10.00">doublylinkedlist.h</text>
</a>
</g>
</g>
<!-- Node13&#45;&gt;Node17 -->
<g id="edge26" class="edge"><title>Node13&#45;&gt;Node17</title>
<path fill="none" stroke="midnightblue" d="M668.376,-280.083C664.544,-272.691 658.976,-261.953 654.235,-252.811"/>
<polygon fill="midnightblue" stroke="midnightblue" points="657.248,-251.018 649.538,-243.751 651.034,-254.24 657.248,-251.018"/>
</g>
<!-- Node18 -->
<g id="node18" class="node"><title>Node18</title>
<g id="a_node18"><a xlink:href="../../d0/d23/cipelectronickey_8h.html" target="_top" xlink:title="cipelectronickey.h">
<polygon fill="none" stroke="black" points="725.5,-112.5 725.5,-131.5 820.5,-131.5 820.5,-112.5 725.5,-112.5"/>
<text text-anchor="middle" x="773" y="-119.5" font-family="Helvetica,sans-Serif" font-size="10.00">cipelectronickey.h</text>
</a>
</g>
</g>
<!-- Node13&#45;&gt;Node18 -->
<g id="edge27" class="edge"><title>Node13&#45;&gt;Node18</title>
<path fill="none" stroke="midnightblue" d="M728.834,-282.724C776.419,-276.09 839.501,-263.799 855,-244 883.863,-207.132 828.523,-160.552 795.364,-137.412"/>
<polygon fill="midnightblue" stroke="midnightblue" points="797.323,-134.511 787.082,-131.794 793.393,-140.304 797.323,-134.511"/>
</g>
<!-- Node19 -->
<g id="node19" class="node"><title>Node19</title>
<g id="a_node19"><a xlink:href="../../d1/d02/cipepath_8h.html" target="_top" xlink:title="cipepath.h">
<polygon fill="none" stroke="black" points="785,-224.5 785,-243.5 847,-243.5 847,-224.5 785,-224.5"/>
<text text-anchor="middle" x="816" y="-231.5" font-family="Helvetica,sans-Serif" font-size="10.00">cipepath.h</text>
</a>
</g>
</g>
<!-- Node13&#45;&gt;Node19 -->
<g id="edge30" class="edge"><title>Node13&#45;&gt;Node19</title>
<path fill="none" stroke="midnightblue" d="M695.659,-280.444C719.402,-271.478 756.909,-257.314 783.738,-247.183"/>
<polygon fill="midnightblue" stroke="midnightblue" points="785.329,-250.324 793.447,-243.516 782.856,-243.775 785.329,-250.324"/>
</g>
<!-- Node14&#45;&gt;Node4 -->
<g id="edge23" class="edge"><title>Node14&#45;&gt;Node4</title>
<path fill="none" stroke="midnightblue" d="M349.441,-224.178C350.371,-211.28 353.239,-186.771 362,-168 377.887,-133.96 407.552,-101.32 426.235,-82.759"/>
<polygon fill="midnightblue" stroke="midnightblue" points="428.764,-85.182 433.498,-75.7034 423.886,-80.1613 428.764,-85.182"/>
</g>
<!-- Node14&#45;&gt;Node7 -->
<g id="edge22" class="edge"><title>Node14&#45;&gt;Node7</title>
<path fill="none" stroke="midnightblue" d="M367.941,-224.452C385.312,-216.222 411.392,-202.859 432,-188 503.297,-136.591 575.939,-60.4577 606.279,-27.3579"/>
<polygon fill="midnightblue" stroke="midnightblue" points="609.229,-29.3164 613.368,-19.5636 604.05,-24.6064 609.229,-29.3164"/>
</g>
<!-- Node14&#45;&gt;Node8 -->
<g id="edge24" class="edge"><title>Node14&#45;&gt;Node8</title>
<path fill="none" stroke="midnightblue" d="M385.102,-225.885C436.024,-215.849 528.678,-197.589 582.088,-187.063"/>
<polygon fill="midnightblue" stroke="midnightblue" points="582.769,-190.496 591.904,-185.128 581.416,-183.628 582.769,-190.496"/>
</g>
<!-- Node15 -->
<g id="node15" class="node"><title>Node15</title>
<polygon fill="none" stroke="#bfbfbf" points="371,-168.5 371,-187.5 423,-187.5 423,-168.5 371,-168.5"/>
<text text-anchor="middle" x="397" y="-175.5" font-family="Helvetica,sans-Serif" font-size="10.00">assert.h</text>
</g>
<!-- Node14&#45;&gt;Node15 -->
<g id="edge21" class="edge"><title>Node14&#45;&gt;Node15</title>
<path fill="none" stroke="midnightblue" d="M356.926,-224.083C363.846,-216.298 374.065,-204.801 382.452,-195.367"/>
<polygon fill="midnightblue" stroke="midnightblue" points="385.194,-197.55 389.221,-187.751 379.962,-192.9 385.194,-197.55"/>
</g>
<!-- Node14&#45;&gt;Node16 -->
<g id="edge25" class="edge"><title>Node14&#45;&gt;Node16</title>
<path fill="none" stroke="midnightblue" d="M338.878,-224.324C329.474,-216.263 315.256,-204.077 303.931,-194.369"/>
<polygon fill="midnightblue" stroke="midnightblue" points="306.177,-191.684 296.306,-187.834 301.621,-196.999 306.177,-191.684"/>
</g>
<!-- Node18&#45;&gt;Node4 -->
<g id="edge29" class="edge"><title>Node18&#45;&gt;Node4</title>
<path fill="none" stroke="midnightblue" d="M725.368,-113.206C660.576,-102.603 545.722,-83.8091 484.361,-73.7682"/>
<polygon fill="midnightblue" stroke="midnightblue" points="484.703,-70.2776 474.269,-72.1167 483.572,-77.1857 484.703,-70.2776"/>
</g>
<!-- Node18&#45;&gt;Node7 -->
<g id="edge28" class="edge"><title>Node18&#45;&gt;Node7</title>
<path fill="none" stroke="midnightblue" d="M761.073,-112.368C735.101,-93.5728 673.189,-48.7684 641.082,-25.5334"/>
<polygon fill="midnightblue" stroke="midnightblue" points="643.025,-22.6187 632.872,-19.5914 638.921,-28.2896 643.025,-22.6187"/>
</g>
<!-- Node19&#45;&gt;Node7 -->
<g id="edge31" class="edge"><title>Node19&#45;&gt;Node7</title>
<path fill="none" stroke="midnightblue" d="M837.27,-224.328C896.003,-199.224 1052.21,-123.951 992,-56 970.167,-31.3592 749.752,-17.5043 659.361,-12.8212"/>
<polygon fill="midnightblue" stroke="midnightblue" points="659.421,-9.31982 649.257,-12.308 659.066,-16.3108 659.421,-9.31982"/>
</g>
<!-- Node19&#45;&gt;Node8 -->
<g id="edge32" class="edge"><title>Node19&#45;&gt;Node8</title>
<path fill="none" stroke="midnightblue" d="M785.419,-224.444C752.385,-215.201 699.612,-200.436 663.234,-190.257"/>
<polygon fill="midnightblue" stroke="midnightblue" points="664.012,-186.84 653.438,-187.516 662.125,-193.582 664.012,-186.84"/>
</g>
<!-- Node19&#45;&gt;Node18 -->
<g id="edge33" class="edge"><title>Node19&#45;&gt;Node18</title>
<path fill="none" stroke="midnightblue" d="M812.626,-224.368C805.624,-206.456 789.388,-164.923 780.016,-140.948"/>
<polygon fill="midnightblue" stroke="midnightblue" points="783.259,-139.631 776.358,-131.591 776.74,-142.179 783.259,-139.631"/>
</g>
<!-- Node20&#45;&gt;Node4 -->
<g id="edge36" class="edge"><title>Node20&#45;&gt;Node4</title>
<path fill="none" stroke="midnightblue" d="M252.69,-224.281C246.837,-211.081 238.265,-185.691 249,-168 282.216,-113.259 355.847,-86.8113 402.238,-75.1347"/>
<polygon fill="midnightblue" stroke="midnightblue" points="403.076,-78.5333 411.984,-72.7976 401.443,-71.7263 403.076,-78.5333"/>
</g>
<!-- Node20&#45;&gt;Node8 -->
<g id="edge37" class="edge"><title>Node20&#45;&gt;Node8</title>
<path fill="none" stroke="midnightblue" d="M294.681,-225.616C297.83,-225.05 300.968,-224.504 304,-224 403.358,-207.489 520.783,-191.94 581.69,-184.169"/>
<polygon fill="midnightblue" stroke="midnightblue" points="582.2,-187.633 591.679,-182.9 581.318,-180.688 582.2,-187.633"/>
</g>
<!-- Node21&#45;&gt;Node4 -->
<g id="edge39" class="edge"><title>Node21&#45;&gt;Node4</title>
<path fill="none" stroke="midnightblue" d="M525.323,-224.075C511.509,-197.719 470.713,-119.878 452.256,-84.6608"/>
<polygon fill="midnightblue" stroke="midnightblue" points="455.233,-82.8007 447.491,-75.5681 449.033,-86.0501 455.233,-82.8007"/>
</g>
<!-- Node21&#45;&gt;Node8 -->
<g id="edge40" class="edge"><title>Node21&#45;&gt;Node8</title>
<path fill="none" stroke="midnightblue" d="M544.942,-224.324C559.585,-215.822 582.134,-202.729 599.238,-192.797"/>
<polygon fill="midnightblue" stroke="midnightblue" points="601.205,-195.703 608.095,-187.655 597.69,-189.649 601.205,-195.703"/>
</g>
<!-- Node22&#45;&gt;Node4 -->
<g id="edge42" class="edge"><title>Node22&#45;&gt;Node4</title>
<path fill="none" stroke="midnightblue" d="M140.691,-280.448C136.85,-251.886 128.725,-158.959 177,-112 208.31,-81.5431 335.203,-71.5794 401.775,-68.4145"/>
<polygon fill="midnightblue" stroke="midnightblue" points="402.083,-71.9043 411.917,-67.9628 401.771,-64.9113 402.083,-71.9043"/>
</g>
<!-- Node23&#45;&gt;Node4 -->
<g id="edge47" class="edge"><title>Node23&#45;&gt;Node4</title>
<path fill="none" stroke="midnightblue" d="M742.775,-336.467C779.986,-323.361 844.519,-294.355 872,-244 901.558,-189.84 878.998,-148.156 829,-112 774.692,-72.7273 572.196,-67.3085 484.229,-66.851"/>
<polygon fill="midnightblue" stroke="midnightblue" points="484.098,-63.3506 474.087,-66.8178 484.075,-70.3506 484.098,-63.3506"/>
</g>
<!-- Node23&#45;&gt;Node8 -->
<g id="edge48" class="edge"><title>Node23&#45;&gt;Node8</title>
<path fill="none" stroke="midnightblue" d="M720.638,-336.481C726.054,-327.745 733.864,-313.556 737,-300 744.926,-265.74 738.843,-249.846 715,-224 701.064,-208.893 680.956,-198.254 663.09,-191.128"/>
<polygon fill="midnightblue" stroke="midnightblue" points="664.042,-187.747 653.45,-187.524 661.591,-194.304 664.042,-187.747"/>
</g>
<!-- Node23&#45;&gt;Node11 -->
<g id="edge45" class="edge"><title>Node23&#45;&gt;Node11</title>
<path fill="none" stroke="midnightblue" d="M776.366,-338.463C876.744,-326.048 1065,-294.793 1065,-235 1065,-235 1065,-235 1065,-177 1065,-126.812 1007.99,-95.081 968.901,-79.2238"/>
<polygon fill="midnightblue" stroke="midnightblue" points="969.984,-75.8898 959.395,-75.5327 967.45,-82.4151 969.984,-75.8898"/>
</g>
<!-- Node23&#45;&gt;Node13 -->
<g id="edge49" class="edge"><title>Node23&#45;&gt;Node13</title>
<path fill="none" stroke="midnightblue" d="M708.065,-336.083C702.071,-328.377 693.248,-317.033 685.952,-307.653"/>
<polygon fill="midnightblue" stroke="midnightblue" points="688.709,-305.496 679.806,-299.751 683.183,-309.793 688.709,-305.496"/>
</g>
<!-- Node23&#45;&gt;Node14 -->
<g id="edge46" class="edge"><title>Node23&#45;&gt;Node14</title>
<path fill="none" stroke="midnightblue" d="M686.585,-336.46C621.378,-316.862 460.954,-268.647 387.208,-246.483"/>
<polygon fill="midnightblue" stroke="midnightblue" points="387.981,-243.061 377.397,-243.535 385.966,-249.765 387.981,-243.061"/>
</g>
</g>
</svg>
        <g id="navigator" transform="translate(0 0)" fill="#404254">
                <rect fill="#f2f5e9" fill-opacity="0.5" stroke="#606060" stroke-width=".5" x="0" y="0" width="60" height="60"/>
                <use id="zoomplus" xlink:href="#zoomPlus" x="17" y="9" onmousedown="handleZoom(evt,'in')"/>
                <use id="zoomminus" xlink:href="#zoomMin" x="42" y="9" onmousedown="handleZoom(evt,'out')"/>
                <use id="reset" xlink:href="#resetDef" x="30" y="36" onmousedown="handleReset()"/>
                <g id="arrowUp" xlink:href="#dirArrow" transform="translate(30 24)" onmousedown="handlePan(0,-1)">
                  <use xlink:href="#rim" fill="#404040">
                        <set attributeName="fill" to="#808080" begin="arrowUp.mouseover" end="arrowUp.mouseout"/>
                  </use>
                  <path fill="none" stroke="white" stroke-width="1.5" d="M0,-3.0v7 M-2.5,-0.5L0,-3.0L2.5,-0.5"/>
                </g>
                <g id="arrowRight" xlink:href="#dirArrow" transform="rotate(90) translate(36 -43)" onmousedown="handlePan(1,0)">
                  <use xlink:href="#rim" fill="#404040">
                        <set attributeName="fill" to="#808080" begin="arrowRight.mouseover" end="arrowRight.mouseout"/>
                  </use>
                  <path fill="none" stroke="white" stroke-width="1.5" d="M0,-3.0v7 M-2.5,-0.5L0,-3.0L2.5,-0.5"/>
                </g>
                <g id="arrowDown" xlink:href="#dirArrow" transform="rotate(180) translate(-30 -48)" onmousedown="handlePan(0,1)">
                  <use xlink:href="#rim" fill="#404040">
                        <set attributeName="fill" to="#808080" begin="arrowDown.mouseover" end="arrowDown.mouseout"/>
                  </use>
                  <path fill="none" stroke="white" stroke-width="1.5" d="M0,-3.0v7 M-2.5,-0.5L0,-3.0L2.5,-0.5"/>
                </g>
                <g id="arrowLeft" xlink:href="#dirArrow" transform="rotate(270) translate(-36 17)" onmousedown="handlePan(-1,0)">
                  <use xlink:href="#rim" fill="#404040">
                        <set attributeName="fill" to="#808080" begin="arrowLeft.mouseover" end="arrowLeft.mouseout"/>
                  </use>
                  <path fill="none" stroke="white" stroke-width="1.5" d="M0,-3.0v7 M-2.5,-0.5L0,-3.0L2.5,-0.5"/>
                </g>
        </g>
        <svg viewBox="0 0 15 15" width="100%" height="30px" preserveAspectRatio="xMaxYMin meet">
         <g id="arrow_out" transform="scale(0.3 0.3)">
          <a xlink:href="cpf_8c__incl_org.svg" target="_base">
           <rect id="button" ry="5" rx="5" y="6" x="6" height="38" width="38"
                fill="#f2f5e9" fill-opacity="0.5" stroke="#606060" stroke-width="1.0"/>
           <path id="arrow"
             d="M 11.500037,31.436501 C 11.940474,20.09759 22.043105,11.32322 32.158766,21.979434 L 37.068811,17.246167 C 37.068811,17.246167 37.088388,32 37.088388,32 L 22.160133,31.978069 C 22.160133,31.978069 26.997745,27.140456 26.997745,27.140456 C 18.528582,18.264221 13.291696,25.230495 11.500037,31.436501 z"
             style="fill:#404040;"/>
          </a>
         </g>
        </svg>
</svg>
