<?xml version="1.0" encoding="UTF-8" standalone="no"?>
<!DOCTYPE svg PUBLIC "-//W3C//DTD SVG 1.1//EN"
 "http://www.w3.org/Graphics/SVG/1.1/DTD/svg11.dtd">
<!-- Generated by graphviz version 2.38.0 (20140413.2041)
 -->
<!-- Title: CreateCommonPacketFormatStructure Pages: 1 -->
<svg width="1412pt" height="132pt"
 viewBox="0.00 0.00 1412.00 132.00" xmlns="http://www.w3.org/2000/svg" xmlns:xlink="http://www.w3.org/1999/xlink">
<g id="graph0" class="graph" transform="scale(1 1) rotate(0) translate(4 128)">
<title>CreateCommonPacketFormatStructure</title>
<!-- Node1 -->
<g id="node1" class="node"><title>Node1</title>
<polygon fill="#bfbfbf" stroke="black" points="0,-49.5 0,-79.5 147,-79.5 147,-49.5 0,-49.5"/>
<text text-anchor="start" x="8" y="-67.5" font-family="Helvetica,sans-Serif" font-size="10.00">CreateCommonPacketFormat</text>
<text text-anchor="middle" x="73.5" y="-56.5" font-family="Helvetica,sans-Serif" font-size="10.00">Structure</text>
</g>
<!-- Node2 -->
<g id="node2" class="node"><title>Node2</title>
<g id="a_node2"><a xlink:href="../../d2/dc9/group__CIP__API.html#ga9abc7c86317baaa7ede1a4bce09fa542" target="_top" xlink:title="Notify the connection manager that data for a connection has been received. ">
<polygon fill="none" stroke="black" points="185,-96 185,-115 342,-115 342,-96 185,-96"/>
<text text-anchor="middle" x="263.5" y="-103" font-family="Helvetica,sans-Serif" font-size="10.00">HandleReceivedConnectedData</text>
</a>
</g>
</g>
<!-- Node1&#45;&gt;Node2 -->
<g id="edge1" class="edge"><title>Node1&#45;&gt;Node2</title>
<path fill="none" stroke="midnightblue" d="M153.275,-81.6796C175.648,-86.559 199.204,-91.6961 218.689,-95.9455"/>
<polygon fill="midnightblue" stroke="midnightblue" points="153.953,-78.2453 143.437,-79.5341 152.461,-85.0845 153.953,-78.2453"/>
</g>
<!-- Node9 -->
<g id="node9" class="node"><title>Node9</title>
<g id="a_node9"><a xlink:href="../../d4/d91/group__ENCAP.html#ga9c408ca52db513a953b72e8dfcad27e8" target="_top" xlink:title="NotifyCommonPacketFormat">
<polygon fill="none" stroke="black" points="191.5,-55 191.5,-74 335.5,-74 335.5,-55 191.5,-55"/>
<text text-anchor="middle" x="263.5" y="-62" font-family="Helvetica,sans-Serif" font-size="10.00">NotifyCommonPacketFormat</text>
</a>
</g>
</g>
<!-- Node1&#45;&gt;Node9 -->
<g id="edge8" class="edge"><title>Node1&#45;&gt;Node9</title>
<path fill="none" stroke="midnightblue" d="M157.455,-64.5C168.724,-64.5 180.207,-64.5 191.245,-64.5"/>
<polygon fill="midnightblue" stroke="midnightblue" points="157.186,-61.0001 147.186,-64.5 157.186,-68.0001 157.186,-61.0001"/>
</g>
<!-- Node15 -->
<g id="node15" class="node"><title>Node15</title>
<g id="a_node15"><a xlink:href="../../d4/d91/group__ENCAP.html#ga72c9878cc686b15d10481b716e6f628d" target="_top" xlink:title="NotifyConnectedCommonPacket\lFormat">
<polygon fill="none" stroke="black" points="183,-3.5 183,-33.5 344,-33.5 344,-3.5 183,-3.5"/>
<text text-anchor="start" x="191" y="-21.5" font-family="Helvetica,sans-Serif" font-size="10.00">NotifyConnectedCommonPacket</text>
<text text-anchor="middle" x="263.5" y="-10.5" font-family="Helvetica,sans-Serif" font-size="10.00">Format</text>
</a>
</g>
</g>
<!-- Node1&#45;&gt;Node15 -->
<g id="edge16" class="edge"><title>Node1&#45;&gt;Node15</title>
<path fill="none" stroke="midnightblue" d="M146.006,-47.0038C164.167,-42.5602 183.518,-37.8255 201.125,-33.5174"/>
<polygon fill="midnightblue" stroke="midnightblue" points="144.94,-43.6614 136.058,-49.4379 146.604,-50.4608 144.94,-43.6614"/>
</g>
<!-- Node3 -->
<g id="node3" class="node"><title>Node3</title>
<g id="a_node3"><a xlink:href="../../db/d4f/generic__networkhandler_8c.html#af0c95ade149818d252c292b489cfe190" target="_top" xlink:title="check if on one of the UDP consuming sockets data has been received and if yes handle it correctly ...">
<polygon fill="none" stroke="black" points="566,-93.5 566,-123.5 727,-123.5 727,-93.5 566,-93.5"/>
<text text-anchor="start" x="574" y="-111.5" font-family="Helvetica,sans-Serif" font-size="10.00">CheckAndHandleConsumingUdp</text>
<text text-anchor="middle" x="646.5" y="-100.5" font-family="Helvetica,sans-Serif" font-size="10.00">Sockets</text>
</a>
</g>
</g>
<!-- Node2&#45;&gt;Node3 -->
<g id="edge2" class="edge"><title>Node2&#45;&gt;Node3</title>
<path fill="none" stroke="midnightblue" d="M352.194,-106.191C416.575,-106.697 503.322,-107.38 565.754,-107.872"/>
<polygon fill="midnightblue" stroke="midnightblue" points="352.088,-102.69 342.06,-106.111 352.032,-109.689 352.088,-102.69"/>
</g>
<!-- Node4 -->
<g id="node4" class="node"><title>Node4</title>
<g id="a_node4"><a xlink:href="../../da/dc2/generic__networkhandler_8h.html#a2f01af81d3e5018d9980e2bc28c9078a" target="_top" xlink:title="NetworkHandlerProcessOnce">
<polygon fill="none" stroke="black" points="927,-61 927,-80 1073,-80 1073,-61 927,-61"/>
<text text-anchor="middle" x="1000" y="-68" font-family="Helvetica,sans-Serif" font-size="10.00">NetworkHandlerProcessOnce</text>
</a>
</g>
</g>
<!-- Node3&#45;&gt;Node4 -->
<g id="edge3" class="edge"><title>Node3&#45;&gt;Node4</title>
<path fill="none" stroke="midnightblue" d="M737.456,-103.555C783.489,-100.499 840.354,-95.9158 891,-89.5 910.642,-87.0117 932.15,-83.4094 950.765,-80.0089"/>
<polygon fill="midnightblue" stroke="midnightblue" points="736.956,-100.08 727.205,-104.222 737.411,-107.065 736.956,-100.08"/>
</g>
<!-- Node5 -->
<g id="node5" class="node"><title>Node5</title>
<g id="a_node5"><a xlink:href="../../d9/dfb/POSIX_2main_8c.html#acd4e45a35a64f9cb29b59f63492b61d2" target="_top" xlink:title="Signal handler function for ending stack execution. ">
<polygon fill="none" stroke="black" points="1109,-61 1109,-80 1177,-80 1177,-61 1109,-61"/>
<text text-anchor="middle" x="1143" y="-68" font-family="Helvetica,sans-Serif" font-size="10.00">LeaveStack</text>
</a>
</g>
</g>
<!-- Node4&#45;&gt;Node5 -->
<g id="edge4" class="edge"><title>Node4&#45;&gt;Node5</title>
<path fill="none" stroke="midnightblue" d="M1083.33,-70.5C1092.28,-70.5 1100.96,-70.5 1108.79,-70.5"/>
<polygon fill="midnightblue" stroke="midnightblue" points="1083.15,-67.0001 1073.15,-70.5 1083.15,-74.0001 1083.15,-67.0001"/>
</g>
<!-- Node6 -->
<g id="node6" class="node"><title>Node6</title>
<g id="a_node6"><a xlink:href="../../d5/dcb/MINGW_2main_8c.html#ad338a7dbc41dc40bcecd0479377ef207" target="_top" xlink:title="main">
<polygon fill="none" stroke="black" points="1124,-23 1124,-42 1162,-42 1162,-23 1124,-23"/>
<text text-anchor="middle" x="1143" y="-30" font-family="Helvetica,sans-Serif" font-size="10.00">main</text>
</a>
</g>
</g>
<!-- Node4&#45;&gt;Node6 -->
<g id="edge5" class="edge"><title>Node4&#45;&gt;Node6</title>
<path fill="none" stroke="midnightblue" d="M1047.45,-58.3208C1055.95,-56.0688 1064.75,-53.7254 1073,-51.5 1090.28,-46.8423 1109.95,-41.4128 1123.85,-37.5535"/>
<polygon fill="midnightblue" stroke="midnightblue" points="1046.42,-54.9716 1037.65,-60.9099 1048.21,-61.7394 1046.42,-54.9716"/>
</g>
<!-- Node7 -->
<g id="node7" class="node"><title>Node7</title>
<g id="a_node7"><a xlink:href="../../d8/d03/ports_2MINGW_2CMakeLists_8txt.html#a7e00df43a20d627a1732be7766d91097" target="_top" xlink:title="add_library">
<polygon fill="none" stroke="black" points="1213,-23 1213,-42 1277,-42 1277,-23 1213,-23"/>
<text text-anchor="middle" x="1245" y="-30" font-family="Helvetica,sans-Serif" font-size="10.00">add_library</text>
</a>
</g>
</g>
<!-- Node6&#45;&gt;Node7 -->
<g id="edge6" class="edge"><title>Node6&#45;&gt;Node7</title>
<path fill="none" stroke="midnightblue" d="M1172.7,-32.5C1185.24,-32.5 1199.99,-32.5 1212.81,-32.5"/>
<polygon fill="midnightblue" stroke="midnightblue" points="1172.34,-29.0001 1162.34,-32.5 1172.34,-36.0001 1172.34,-29.0001"/>
</g>
<!-- Node8 -->
<g id="node8" class="node"><title>Node8</title>
<g id="a_node8"><a xlink:href="../../d8/dce/ports_2CMakeLists_8txt.html#a598fae457555a5fb26e18d4cd8f89de9" target="_top" xlink:title="add_subdirectory">
<polygon fill="none" stroke="black" points="1313,-23 1313,-42 1404,-42 1404,-23 1313,-23"/>
<text text-anchor="middle" x="1358.5" y="-30" font-family="Helvetica,sans-Serif" font-size="10.00">add_subdirectory</text>
</a>
</g>
</g>
<!-- Node7&#45;&gt;Node8 -->
<g id="edge7" class="edge"><title>Node7&#45;&gt;Node8</title>
<path fill="none" stroke="midnightblue" d="M1287.3,-32.5C1295.63,-32.5 1304.42,-32.5 1312.86,-32.5"/>
<polygon fill="midnightblue" stroke="midnightblue" points="1287.06,-29.0001 1277.06,-32.5 1287.06,-36.0001 1287.06,-29.0001"/>
</g>
<!-- Node10 -->
<g id="node10" class="node"><title>Node10</title>
<g id="a_node10"><a xlink:href="../../d7/df9/encap_8h.html#a51dd68441ec427052986aef5c5c076e4" target="_top" xlink:title="Call UCMM or Message Router if UCMM not implemented. ">
<polygon fill="none" stroke="black" points="381,-49.5 381,-79.5 529,-79.5 529,-49.5 381,-49.5"/>
<text text-anchor="start" x="389" y="-67.5" font-family="Helvetica,sans-Serif" font-size="10.00">HandleReceivedSendRequest</text>
<text text-anchor="middle" x="455" y="-56.5" font-family="Helvetica,sans-Serif" font-size="10.00">ResponseDataCommand</text>
</a>
</g>
</g>
<!-- Node9&#45;&gt;Node10 -->
<g id="edge9" class="edge"><title>Node9&#45;&gt;Node10</title>
<path fill="none" stroke="midnightblue" d="M345.775,-64.5C357.454,-64.5 369.412,-64.5 380.92,-64.5"/>
<polygon fill="midnightblue" stroke="midnightblue" points="345.602,-61.0001 335.602,-64.5 345.602,-68.0001 345.602,-61.0001"/>
</g>
<!-- Node11 -->
<g id="node11" class="node"><title>Node11</title>
<g id="a_node11"><a xlink:href="../../d2/dc9/group__CIP__API.html#ga4b8ec8e9b8a1dd71e84f2ea54e1c2b2d" target="_top" xlink:title="Notify the encapsulation layer that an explicit message has been received via TCP. ">
<polygon fill="none" stroke="black" points="568.5,-39 568.5,-58 724.5,-58 724.5,-39 568.5,-39"/>
<text text-anchor="middle" x="646.5" y="-46" font-family="Helvetica,sans-Serif" font-size="10.00">HandleReceivedExplictTcpData</text>
</a>
</g>
</g>
<!-- Node10&#45;&gt;Node11 -->
<g id="edge10" class="edge"><title>Node10&#45;&gt;Node11</title>
<path fill="none" stroke="midnightblue" d="M539.267,-57.4696C548.937,-56.6531 558.769,-55.823 568.352,-55.0139"/>
<polygon fill="midnightblue" stroke="midnightblue" points="538.936,-53.985 529.266,-58.314 539.525,-60.9601 538.936,-53.985"/>
</g>
<!-- Node12 -->
<g id="node12" class="node"><title>Node12</title>
<g id="a_node12"><a xlink:href="../../d4/d91/group__ENCAP.html#ga7a0dc2be6c485d9e6940d5b20a981022" target="_top" xlink:title="Initialize the encapsulation layer. ">
<polygon fill="none" stroke="black" points="781,-23 781,-42 873,-42 873,-23 781,-23"/>
<text text-anchor="middle" x="827" y="-30" font-family="Helvetica,sans-Serif" font-size="10.00">EncapsulationInit</text>
</a>
</g>
</g>
<!-- Node11&#45;&gt;Node12 -->
<g id="edge11" class="edge"><title>Node11&#45;&gt;Node12</title>
<path fill="none" stroke="midnightblue" d="M735.117,-40.6464C750.932,-39.2288 766.816,-37.805 780.781,-36.5532"/>
<polygon fill="midnightblue" stroke="midnightblue" points="734.402,-37.1963 724.755,-41.5752 735.027,-44.1684 734.402,-37.1963"/>
</g>
<!-- Node14 -->
<g id="node14" class="node"><title>Node14</title>
<g id="a_node14"><a xlink:href="../../db/d4f/generic__networkhandler_8c.html#aca5593b7dd39d7a7b437999a367102d6" target="_top" xlink:title="Handles data on an established TCP connection, processed connection is given by socket. ">
<polygon fill="none" stroke="black" points="763,-61 763,-80 891,-80 891,-61 763,-61"/>
<text text-anchor="middle" x="827" y="-68" font-family="Helvetica,sans-Serif" font-size="10.00">HandleDataOnTcpSocket</text>
</a>
</g>
</g>
<!-- Node11&#45;&gt;Node14 -->
<g id="edge14" class="edge"><title>Node11&#45;&gt;Node14</title>
<path fill="none" stroke="midnightblue" d="M734.941,-59.277C744.357,-60.4375 753.799,-61.6013 762.849,-62.7167"/>
<polygon fill="midnightblue" stroke="midnightblue" points="735.108,-55.7712 724.755,-58.0216 734.251,-62.7186 735.108,-55.7712"/>
</g>
<!-- Node13 -->
<g id="node13" class="node"><title>Node13</title>
<g id="a_node13"><a xlink:href="../../d2/dc9/group__CIP__API.html#ga5d4979945d124e28668b264c3823db1c" target="_top" xlink:title="Initialize and setup the CIP&#45;stack. ">
<polygon fill="none" stroke="black" points="964.5,-23 964.5,-42 1035.5,-42 1035.5,-23 964.5,-23"/>
<text text-anchor="middle" x="1000" y="-30" font-family="Helvetica,sans-Serif" font-size="10.00">CipStackInit</text>
</a>
</g>
</g>
<!-- Node12&#45;&gt;Node13 -->
<g id="edge12" class="edge"><title>Node12&#45;&gt;Node13</title>
<path fill="none" stroke="midnightblue" d="M883.682,-32.5C910.216,-32.5 941.13,-32.5 964.267,-32.5"/>
<polygon fill="midnightblue" stroke="midnightblue" points="883.376,-29.0001 873.376,-32.5 883.376,-36.0001 883.376,-29.0001"/>
</g>
<!-- Node13&#45;&gt;Node6 -->
<g id="edge13" class="edge"><title>Node13&#45;&gt;Node6</title>
<path fill="none" stroke="midnightblue" d="M1046.03,-32.5C1072.43,-32.5 1104.33,-32.5 1123.89,-32.5"/>
<polygon fill="midnightblue" stroke="midnightblue" points="1045.85,-29.0001 1035.85,-32.5 1045.85,-36.0001 1045.85,-29.0001"/>
</g>
<!-- Node14&#45;&gt;Node4 -->
<g id="edge15" class="edge"><title>Node14&#45;&gt;Node4</title>
<path fill="none" stroke="midnightblue" d="M901.379,-70.5C909.817,-70.5 918.417,-70.5 926.839,-70.5"/>
<polygon fill="midnightblue" stroke="midnightblue" points="901.188,-67.0001 891.188,-70.5 901.188,-74.0001 901.188,-67.0001"/>
</g>
<!-- Node16 -->
<g id="node16" class="node"><title>Node16</title>
<g id="a_node16"><a xlink:href="../../d2/dbd/encap_8c.html#a49dc585614f655a5b313150a01fd7221" target="_top" xlink:title="Call Connection Manager. ">
<polygon fill="none" stroke="black" points="380,-0.5 380,-30.5 530,-30.5 530,-0.5 380,-0.5"/>
<text text-anchor="start" x="388" y="-18.5" font-family="Helvetica,sans-Serif" font-size="10.00">HandleReceivedSendUnitData</text>
<text text-anchor="middle" x="455" y="-7.5" font-family="Helvetica,sans-Serif" font-size="10.00">Command</text>
</a>
</g>
</g>
<!-- Node15&#45;&gt;Node16 -->
<g id="edge17" class="edge"><title>Node15&#45;&gt;Node16</title>
<path fill="none" stroke="midnightblue" d="M354.101,-17.0815C362.706,-16.9453 371.369,-16.8081 379.803,-16.6746"/>
<polygon fill="midnightblue" stroke="midnightblue" points="353.985,-13.5828 344.041,-17.2408 354.096,-20.5819 353.985,-13.5828"/>
</g>
<!-- Node16&#45;&gt;Node11 -->
<g id="edge18" class="edge"><title>Node16&#45;&gt;Node11</title>
<path fill="none" stroke="midnightblue" d="M540.132,-30.151C557.328,-33.1455 574.996,-36.2222 590.832,-38.98"/>
<polygon fill="midnightblue" stroke="midnightblue" points="540.532,-26.668 530.08,-28.4004 539.331,-33.5642 540.532,-26.668"/>
</g>
</g>
</svg>
