<?xml version="1.0" encoding="UTF-8" standalone="no"?>
<!DOCTYPE svg PUBLIC "-//W3C//DTD SVG 1.1//EN"
 "http://www.w3.org/Graphics/SVG/1.1/DTD/svg11.dtd">
<!-- Generated by graphviz version 2.38.0 (20140413.2041)
 -->
<!-- Title: AssembleIOMessage Pages: 1 -->
<!--zoomable 930 -->
<svg id="main" version="1.1" xmlns="http://www.w3.org/2000/svg" xmlns:xlink="http://www.w3.org/1999/xlink" xml:space="preserve" onload="init(evt)">
<style type="text/css"><![CDATA[
.edge:hover path { stroke: red; }
.edge:hover polygon { stroke: red; fill: red; }
]]></style>
<script type="text/javascript"><![CDATA[
var edges = document.getElementsByTagName('g');
if (edges && edges.length) {
  for (var i=0;i<edges.length;i++) {
    if (edges[i].id.substr(0,4)=='edge') {
      edges[i].setAttribute('class','edge');
    }
  }
}
]]></script>
        <defs>
                <circle id="rim" cx="0" cy="0" r="7"/>
                <circle id="rim2" cx="0" cy="0" r="3.5"/>
                <g id="zoomPlus">
                        <use xlink:href="#rim" fill="#404040">
                                <set attributeName="fill" to="#808080" begin="zoomplus.mouseover" end="zoomplus.mouseout"/>
                        </use>
                        <path d="M-4,0h8M0,-4v8" fill="none" stroke="white" stroke-width="1.5" pointer-events="none"/>
                </g>
                <g id="zoomMin">
                        <use xlink:href="#rim" fill="#404040">
                                <set attributeName="fill" to="#808080" begin="zoomminus.mouseover" end="zoomminus.mouseout"/>
                        </use>
                        <path d="M-4,0h8" fill="none" stroke="white" stroke-width="1.5" pointer-events="none"/>
                </g>
                <g id="dirArrow">
                        <path fill="none" stroke="white" stroke-width="1.5" d="M0,-3.0v7 M-2.5,-0.5L0,-3.0L2.5,-0.5"/>
                </g>
               <g id="resetDef">
                       <use xlink:href="#rim2" fill="#404040">
                               <set attributeName="fill" to="#808080" begin="reset.mouseover" end="reset.mouseout"/>
                       </use>
               </g>
        </defs>

<script type="text/javascript">
var viewWidth = 841;
var viewHeight = 930;
var sectionId = 'dynsection-3';
</script>
<script xlink:href="../../svgpan.js"/>
<svg id="graph" class="graph">
<g id="viewport">
<title>AssembleIOMessage</title>
<!-- Node1 -->
<g id="node1" class="node"><title>Node1</title>
<polygon fill="#bfbfbf" stroke="black" points="0,-468.5 0,-487.5 110,-487.5 110,-468.5 0,-468.5"/>
<text text-anchor="middle" x="55" y="-475.5" font-family="Helvetica,sans-Serif" font-size="10.00">AssembleIOMessage</text>
</g>
<!-- Node2 -->
<g id="node2" class="node"><title>Node2</title>
<g id="a_node2"><a xlink:href="../../d4/d91/group__ENCAP.html#gaa28ed48b18b92a64faf70093eb74d891" target="_top" xlink:title="Copy data from message_router_response struct and common_packet_format_data_item into ENIPMessage str...">
<polygon fill="none" stroke="black" points="146,-468.5 146,-487.5 272,-487.5 272,-468.5 146,-468.5"/>
<text text-anchor="middle" x="209" y="-475.5" font-family="Helvetica,sans-Serif" font-size="10.00">AssembleLinearMessage</text>
</a>
</g>
</g>
<!-- Node1&#45;&gt;Node2 -->
<g id="edge1" class="edge"><title>Node1&#45;&gt;Node2</title>
<path fill="none" stroke="midnightblue" d="M110.017,-478C118.359,-478 127.086,-478 135.749,-478"/>
<polygon fill="midnightblue" stroke="midnightblue" points="135.861,-481.5 145.861,-478 135.861,-474.5 135.861,-481.5"/>
</g>
<!-- Node3 -->
<g id="node3" class="node"><title>Node3</title>
<g id="a_node3"><a xlink:href="../../d4/d91/group__ENCAP.html#gaafc3c9e3ff582c9b7e438ae2b1fdf822" target="_top" xlink:title="Converts UINT32 data from host to little endian and writes it to buffer. ">
<polygon fill="none" stroke="black" points="560,-506.5 560,-525.5 663,-525.5 663,-506.5 560,-506.5"/>
<text text-anchor="middle" x="611.5" y="-513.5" font-family="Helvetica,sans-Serif" font-size="10.00">AddDintToMessage</text>
</a>
</g>
</g>
<!-- Node2&#45;&gt;Node3 -->
<g id="edge2" class="edge"><title>Node2&#45;&gt;Node3</title>
<path fill="none" stroke="midnightblue" d="M252.74,-487.526C269.844,-491.013 289.778,-494.671 308,-497 391.388,-507.657 488.505,-512.413 549.741,-514.482"/>
<polygon fill="midnightblue" stroke="midnightblue" points="549.891,-517.988 559.999,-514.815 550.118,-510.992 549.891,-517.988"/>
</g>
<!-- Node4 -->
<g id="node4" class="node"><title>Node4</title>
<g id="a_node4"><a xlink:href="../../d4/d91/group__ENCAP.html#gae689aac2a85bf49fb356ec94c8800799" target="_top" xlink:title="converts UINT16 data from host to little endian an writes it to buffer. ">
<polygon fill="none" stroke="black" points="734,-604.5 734,-623.5 830,-623.5 830,-604.5 734,-604.5"/>
<text text-anchor="middle" x="782" y="-611.5" font-family="Helvetica,sans-Serif" font-size="10.00">AddIntToMessage</text>
</a>
</g>
</g>
<!-- Node2&#45;&gt;Node4 -->
<g id="edge3" class="edge"><title>Node2&#45;&gt;Node4</title>
<path fill="none" stroke="midnightblue" d="M211.135,-487.547C217.537,-539.677 250.9,-789.272 308,-836 441.209,-945.013 554.048,-949.798 695,-851 767.682,-800.055 779.18,-681.115 780.819,-633.864"/>
<polygon fill="midnightblue" stroke="midnightblue" points="784.321,-633.794 781.052,-623.717 777.323,-633.634 784.321,-633.794"/>
</g>
<!-- Node5 -->
<g id="node5" class="node"><title>Node5</title>
<g id="a_node5"><a xlink:href="../../d3/d98/cpf_8c.html#a8269ea8acc0f12ca938ae5fa36277517" target="_top" xlink:title="Adds the item count to the message frame. ">
<polygon fill="none" stroke="black" points="564,-822.5 564,-841.5 659,-841.5 659,-822.5 564,-822.5"/>
<text text-anchor="middle" x="611.5" y="-829.5" font-family="Helvetica,sans-Serif" font-size="10.00">EncodeItemCount</text>
</a>
</g>
</g>
<!-- Node2&#45;&gt;Node5 -->
<g id="edge4" class="edge"><title>Node2&#45;&gt;Node5</title>
<path fill="none" stroke="midnightblue" d="M209.527,-487.559C207.933,-531.403 207.629,-714.692 308,-798 376.947,-855.226 487.253,-851.565 553.893,-842.566"/>
<polygon fill="midnightblue" stroke="midnightblue" points="554.397,-846.029 563.799,-841.145 553.403,-839.1 554.397,-846.029"/>
</g>
<!-- Node6 -->
<g id="node6" class="node"><title>Node6</title>
<g id="a_node6"><a xlink:href="../../d3/d98/cpf_8c.html#ab18848cbb4030e0c07fd90f401e70649" target="_top" xlink:title="Encodes a Null Address Item into the message frame. ">
<polygon fill="none" stroke="black" points="550.5,-784.5 550.5,-803.5 672.5,-803.5 672.5,-784.5 550.5,-784.5"/>
<text text-anchor="middle" x="611.5" y="-791.5" font-family="Helvetica,sans-Serif" font-size="10.00">EncodeNullAddressItem</text>
</a>
</g>
</g>
<!-- Node2&#45;&gt;Node6 -->
<g id="edge6" class="edge"><title>Node2&#45;&gt;Node6</title>
<path fill="none" stroke="midnightblue" d="M209.989,-487.759C210.521,-528.64 218.468,-687.306 308,-759 375.514,-813.063 480.279,-812.32 547.111,-804.741"/>
<polygon fill="midnightblue" stroke="midnightblue" points="547.589,-808.209 557.093,-803.527 546.743,-801.26 547.589,-808.209"/>
</g>
<!-- Node7 -->
<g id="node7" class="node"><title>Node7</title>
<g id="a_node7"><a xlink:href="../../d3/d98/cpf_8c.html#a490520a060d04d7c2d3edd6516d416f6" target="_top" xlink:title="EncodeConnectedAddressItem">
<polygon fill="none" stroke="black" points="324,-468.5 324,-487.5 476,-487.5 476,-468.5 324,-468.5"/>
<text text-anchor="middle" x="400" y="-475.5" font-family="Helvetica,sans-Serif" font-size="10.00">EncodeConnectedAddressItem</text>
</a>
</g>
</g>
<!-- Node2&#45;&gt;Node7 -->
<g id="edge8" class="edge"><title>Node2&#45;&gt;Node7</title>
<path fill="none" stroke="midnightblue" d="M272.147,-478C285.48,-478 299.79,-478 313.823,-478"/>
<polygon fill="midnightblue" stroke="midnightblue" points="313.975,-481.5 323.975,-478 313.974,-474.5 313.975,-481.5"/>
</g>
<!-- Node8 -->
<g id="node8" class="node"><title>Node8</title>
<g id="a_node8"><a xlink:href="../../d3/d98/cpf_8c.html#a3cf93fa3858cbf3b827018a2cc87e23d" target="_top" xlink:title="Encodes a sequenced address item into the message. ">
<polygon fill="none" stroke="black" points="323,-430.5 323,-449.5 477,-449.5 477,-430.5 323,-430.5"/>
<text text-anchor="middle" x="400" y="-437.5" font-family="Helvetica,sans-Serif" font-size="10.00">EncodeSequencedAddressItem</text>
</a>
</g>
</g>
<!-- Node2&#45;&gt;Node8 -->
<g id="edge11" class="edge"><title>Node2&#45;&gt;Node8</title>
<path fill="none" stroke="midnightblue" d="M257.693,-468.411C283.195,-463.284 314.782,-456.933 341.62,-451.537"/>
<polygon fill="midnightblue" stroke="midnightblue" points="342.536,-454.923 351.65,-449.52 341.157,-448.06 342.536,-454.923"/>
</g>
<!-- Node9 -->
<g id="node9" class="node"><title>Node9</title>
<g id="a_node9"><a xlink:href="../../d3/d98/cpf_8c.html#a074bebb59f6048e012947fbae235070c" target="_top" xlink:title="EncodeDataItemType">
<polygon fill="none" stroke="black" points="555.5,-746.5 555.5,-765.5 667.5,-765.5 667.5,-746.5 555.5,-746.5"/>
<text text-anchor="middle" x="611.5" y="-753.5" font-family="Helvetica,sans-Serif" font-size="10.00">EncodeDataItemType</text>
</a>
</g>
</g>
<!-- Node2&#45;&gt;Node9 -->
<g id="edge14" class="edge"><title>Node2&#45;&gt;Node9</title>
<path fill="none" stroke="midnightblue" d="M210.586,-487.673C213.405,-524.868 228.928,-659.61 308,-720 375.965,-771.907 478.758,-772.604 545.267,-766.074"/>
<polygon fill="midnightblue" stroke="midnightblue" points="545.639,-769.555 555.213,-765.017 544.899,-762.594 545.639,-769.555"/>
</g>
<!-- Node10 -->
<g id="node10" class="node"><title>Node10</title>
<g id="a_node10"><a xlink:href="../../d3/d98/cpf_8c.html#a720168acd6c913a09bf6b63ea4232a01" target="_top" xlink:title="Encodes the Connected Data item length. ">
<polygon fill="none" stroke="black" points="528,-708.5 528,-727.5 695,-727.5 695,-708.5 528,-708.5"/>
<text text-anchor="middle" x="611.5" y="-715.5" font-family="Helvetica,sans-Serif" font-size="10.00">EncodeConnectedDataItemLength</text>
</a>
</g>
</g>
<!-- Node2&#45;&gt;Node10 -->
<g id="edge16" class="edge"><title>Node2&#45;&gt;Node10</title>
<path fill="none" stroke="midnightblue" d="M211.396,-487.715C216.754,-521.103 239.269,-631.79 308,-681 371.498,-726.463 462.336,-731.801 527.878,-728.17"/>
<polygon fill="midnightblue" stroke="midnightblue" points="528.414,-731.643 538.172,-727.515 527.97,-724.657 528.414,-731.643"/>
</g>
<!-- Node11 -->
<g id="node11" class="node"><title>Node11</title>
<g id="a_node11"><a xlink:href="../../d3/d98/cpf_8c.html#a084e7e477ce351e21099c7da809faf69" target="_top" xlink:title="Encodes a sequence number into the message. ">
<polygon fill="none" stroke="black" points="547.5,-670.5 547.5,-689.5 675.5,-689.5 675.5,-670.5 547.5,-670.5"/>
<text text-anchor="middle" x="611.5" y="-677.5" font-family="Helvetica,sans-Serif" font-size="10.00">EncodeSequenceNumber</text>
</a>
</g>
</g>
<!-- Node2&#45;&gt;Node11 -->
<g id="edge18" class="edge"><title>Node2&#45;&gt;Node11</title>
<path fill="none" stroke="midnightblue" d="M212.423,-487.591C220.365,-516.834 248.574,-605.238 308,-644 376.223,-688.5 471.843,-692.487 537.203,-688.6"/>
<polygon fill="midnightblue" stroke="midnightblue" points="537.682,-692.076 547.425,-687.914 537.213,-685.092 537.682,-692.076"/>
</g>
<!-- Node12 -->
<g id="node12" class="node"><title>Node12</title>
<g id="a_node12"><a xlink:href="../../d3/d98/cpf_8c.html#a16da8f0222f5610c9f2bf1e1ce90a09b" target="_top" xlink:title="Encode the data item length of the unconnected data segment. ">
<polygon fill="none" stroke="black" points="537.5,-621 537.5,-651 685.5,-651 685.5,-621 537.5,-621"/>
<text text-anchor="start" x="545.5" y="-639" font-family="Helvetica,sans-Serif" font-size="10.00">EncodeUnconnectedDataItem</text>
<text text-anchor="middle" x="611.5" y="-628" font-family="Helvetica,sans-Serif" font-size="10.00">Length</text>
</a>
</g>
</g>
<!-- Node2&#45;&gt;Node12 -->
<g id="edge20" class="edge"><title>Node2&#45;&gt;Node12</title>
<path fill="none" stroke="midnightblue" d="M213.699,-487.572C224.08,-512.964 256.159,-582.062 308,-611 374.825,-648.302 463.185,-651.326 527.14,-646.96"/>
<polygon fill="midnightblue" stroke="midnightblue" points="527.48,-650.444 537.187,-646.2 526.952,-643.464 527.48,-650.444"/>
</g>
<!-- Node13 -->
<g id="node13" class="node"><title>Node13</title>
<g id="a_node13"><a xlink:href="../../d3/d98/cpf_8c.html#ab2ea3d23fe6ed4fab7ae90689d250298" target="_top" xlink:title="Encodes the reply service code for the requested service. ">
<polygon fill="none" stroke="black" points="557.5,-228.5 557.5,-247.5 665.5,-247.5 665.5,-228.5 557.5,-228.5"/>
<text text-anchor="middle" x="611.5" y="-235.5" font-family="Helvetica,sans-Serif" font-size="10.00">EncodeReplyService</text>
</a>
</g>
</g>
<!-- Node2&#45;&gt;Node13 -->
<g id="edge22" class="edge"><title>Node2&#45;&gt;Node13</title>
<path fill="none" stroke="midnightblue" d="M212.269,-468.454C219.926,-438.446 247.778,-345.393 308,-301 317.735,-293.824 463.901,-265.489 549.428,-249.371"/>
<polygon fill="midnightblue" stroke="midnightblue" points="550.109,-252.804 559.289,-247.516 548.814,-245.925 550.109,-252.804"/>
</g>
<!-- Node15 -->
<g id="node15" class="node"><title>Node15</title>
<g id="a_node15"><a xlink:href="../../d3/d98/cpf_8c.html#a31da36569cb05146463d085c721a8963" target="_top" xlink:title="Encodes the reserved byte in the message router response. ">
<polygon fill="none" stroke="black" points="313.5,-231.5 313.5,-250.5 486.5,-250.5 486.5,-231.5 313.5,-231.5"/>
<text text-anchor="middle" x="400" y="-238.5" font-family="Helvetica,sans-Serif" font-size="10.00">EncodeReservedFieldOfLengthByte</text>
</a>
</g>
</g>
<!-- Node2&#45;&gt;Node15 -->
<g id="edge24" class="edge"><title>Node2&#45;&gt;Node15</title>
<path fill="none" stroke="midnightblue" d="M211.572,-468.307C217.506,-434.926 241.676,-323.679 308,-267 314.06,-261.821 321.092,-257.671 328.509,-254.347"/>
<polygon fill="midnightblue" stroke="midnightblue" points="330.057,-257.498 338.066,-250.562 327.479,-250.99 330.057,-257.498"/>
</g>
<!-- Node16 -->
<g id="node16" class="node"><title>Node16</title>
<g id="a_node16"><a xlink:href="../../d3/d98/cpf_8c.html#a3ea2cccf028187c1b24319230d723a57" target="_top" xlink:title="Encodes the general status of a Router Response. ">
<polygon fill="none" stroke="black" points="344,-188.5 344,-207.5 456,-207.5 456,-188.5 344,-188.5"/>
<text text-anchor="middle" x="400" y="-195.5" font-family="Helvetica,sans-Serif" font-size="10.00">EncodeGeneralStatus</text>
</a>
</g>
</g>
<!-- Node2&#45;&gt;Node16 -->
<g id="edge26" class="edge"><title>Node2&#45;&gt;Node16</title>
<path fill="none" stroke="midnightblue" d="M210.647,-468.386C213.712,-430.733 230.089,-291.939 308,-222 315.478,-215.288 324.614,-210.415 334.181,-206.886"/>
<polygon fill="midnightblue" stroke="midnightblue" points="335.393,-210.173 343.846,-203.786 333.255,-203.508 335.393,-210.173"/>
</g>
<!-- Node17 -->
<g id="node17" class="node"><title>Node17</title>
<g id="a_node17"><a xlink:href="../../d3/d98/cpf_8c.html#a8161864641948a4eb95c269365fcce84" target="_top" xlink:title="Encodes the extended status (length and data) into the message. ">
<polygon fill="none" stroke="black" points="340.5,-310.5 340.5,-329.5 459.5,-329.5 459.5,-310.5 340.5,-310.5"/>
<text text-anchor="middle" x="400" y="-317.5" font-family="Helvetica,sans-Serif" font-size="10.00">EncodeExtendedStatus</text>
</a>
</g>
</g>
<!-- Node2&#45;&gt;Node17 -->
<g id="edge28" class="edge"><title>Node2&#45;&gt;Node17</title>
<path fill="none" stroke="midnightblue" d="M214.348,-468.232C225.848,-443.552 259.537,-378.294 308,-345 315.261,-340.012 323.485,-336.016 331.949,-332.816"/>
<polygon fill="midnightblue" stroke="midnightblue" points="333.236,-336.076 341.568,-329.531 330.973,-329.451 333.236,-336.076"/>
</g>
<!-- Node20 -->
<g id="node20" class="node"><title>Node20</title>
<g id="a_node20"><a xlink:href="../../d3/d98/cpf_8c.html#a2caf02dcd3085a64e4204973d827020a" target="_top" xlink:title="Encodes the Message Router Response data. ">
<polygon fill="none" stroke="black" points="308,-84.5 308,-103.5 492,-103.5 492,-84.5 308,-84.5"/>
<text text-anchor="middle" x="400" y="-91.5" font-family="Helvetica,sans-Serif" font-size="10.00">EncodeMessageRouterResponseData</text>
</a>
</g>
</g>
<!-- Node2&#45;&gt;Node20 -->
<g id="edge33" class="edge"><title>Node2&#45;&gt;Node20</title>
<path fill="none" stroke="midnightblue" d="M209.861,-468.336C209.744,-423.894 214.99,-236.853 308,-132 317.97,-120.761 331.796,-112.762 345.665,-107.103"/>
<polygon fill="midnightblue" stroke="midnightblue" points="347.073,-110.313 355.226,-103.547 344.633,-103.752 347.073,-110.313"/>
</g>
<!-- Node21 -->
<g id="node21" class="node"><title>Node21</title>
<g id="a_node21"><a xlink:href="../../d3/d98/cpf_8c.html#a5683f275eb25d9190deb80991c41ff01" target="_top" xlink:title="EncodeDataItemLength">
<polygon fill="none" stroke="black" points="340.5,-582.5 340.5,-601.5 459.5,-601.5 459.5,-582.5 340.5,-582.5"/>
<text text-anchor="middle" x="400" y="-589.5" font-family="Helvetica,sans-Serif" font-size="10.00">EncodeDataItemLength</text>
</a>
</g>
</g>
<!-- Node2&#45;&gt;Node21 -->
<g id="edge35" class="edge"><title>Node2&#45;&gt;Node21</title>
<path fill="none" stroke="midnightblue" d="M216.866,-487.622C231.323,-507.108 266.974,-551.231 308,-573 315.095,-576.765 322.87,-579.784 330.793,-582.205"/>
<polygon fill="midnightblue" stroke="midnightblue" points="329.925,-585.596 340.495,-584.871 331.78,-578.846 329.925,-585.596"/>
</g>
<!-- Node22 -->
<g id="node22" class="node"><title>Node22</title>
<g id="a_node22"><a xlink:href="../../d3/d98/cpf_8c.html#ad17e50dc05942cd1a6cd20a2e132b32a" target="_top" xlink:title="EncodeDataItemData">
<polygon fill="none" stroke="black" points="344.5,-141.5 344.5,-160.5 455.5,-160.5 455.5,-141.5 344.5,-141.5"/>
<text text-anchor="middle" x="400" y="-148.5" font-family="Helvetica,sans-Serif" font-size="10.00">EncodeDataItemData</text>
</a>
</g>
</g>
<!-- Node2&#45;&gt;Node22 -->
<g id="edge37" class="edge"><title>Node2&#45;&gt;Node22</title>
<path fill="none" stroke="midnightblue" d="M210.14,-468.354C211.273,-427.154 221.275,-264.158 308,-179 315.508,-171.628 324.908,-166.191 334.796,-162.182"/>
<polygon fill="midnightblue" stroke="midnightblue" points="336.139,-165.419 344.38,-158.76 333.785,-158.827 336.139,-165.419"/>
</g>
<!-- Node23 -->
<g id="node23" class="node"><title>Node23</title>
<g id="a_node23"><a xlink:href="../../d3/d98/cpf_8c.html#adfed715f4ce7b8d41243260aa7dbde00" target="_top" xlink:title="Encodes the sockaddr info type id into the message. ">
<polygon fill="none" stroke="black" points="321.5,-392.5 321.5,-411.5 478.5,-411.5 478.5,-392.5 321.5,-392.5"/>
<text text-anchor="middle" x="400" y="-399.5" font-family="Helvetica,sans-Serif" font-size="10.00">EncodeSockaddrInfoItemTypeId</text>
</a>
</g>
</g>
<!-- Node2&#45;&gt;Node23 -->
<g id="edge39" class="edge"><title>Node2&#45;&gt;Node23</title>
<path fill="none" stroke="midnightblue" d="M223.254,-468.415C241.465,-455.696 275.657,-433.408 308,-421 314.915,-418.347 322.275,-416.035 329.698,-414.026"/>
<polygon fill="midnightblue" stroke="midnightblue" points="330.625,-417.402 339.462,-411.558 328.909,-410.616 330.625,-417.402"/>
</g>
<!-- Node24 -->
<g id="node24" class="node"><title>Node24</title>
<g id="a_node24"><a xlink:href="../../d3/d98/cpf_8c.html#a72864be68f6e7b7289397bf78328d026" target="_top" xlink:title="Encodes the sockaddr info length into the message. ">
<polygon fill="none" stroke="black" points="331.5,-354.5 331.5,-373.5 468.5,-373.5 468.5,-354.5 331.5,-354.5"/>
<text text-anchor="middle" x="400" y="-361.5" font-family="Helvetica,sans-Serif" font-size="10.00">EncodeSockaddrInfoLength</text>
</a>
</g>
</g>
<!-- Node2&#45;&gt;Node24 -->
<g id="edge41" class="edge"><title>Node2&#45;&gt;Node24</title>
<path fill="none" stroke="midnightblue" d="M216.866,-468.378C231.323,-448.892 266.974,-404.769 308,-383 312.317,-380.709 316.886,-378.695 321.587,-376.923"/>
<polygon fill="midnightblue" stroke="midnightblue" points="323.028,-380.131 331.383,-373.616 320.789,-373.498 323.028,-380.131"/>
</g>
<!-- Node25 -->
<g id="node25" class="node"><title>Node25</title>
<g id="a_node25"><a xlink:href="../../da/d73/endianconv_8c.html#a2e8bf172dd5ecba3cc0871278ab06538" target="_top" xlink:title="Encapsulate the sockaddr information as necessary for the Common Packet Format data items...">
<polygon fill="none" stroke="black" points="342.5,-544.5 342.5,-563.5 457.5,-563.5 457.5,-544.5 342.5,-544.5"/>
<text text-anchor="middle" x="400" y="-551.5" font-family="Helvetica,sans-Serif" font-size="10.00">EncapsulateIpAddress</text>
</a>
</g>
</g>
<!-- Node2&#45;&gt;Node25 -->
<g id="edge43" class="edge"><title>Node2&#45;&gt;Node25</title>
<path fill="none" stroke="midnightblue" d="M225.424,-487.624C244.296,-499.055 277.507,-518.073 308,-530 319.531,-534.51 332.209,-538.453 344.345,-541.77"/>
<polygon fill="midnightblue" stroke="midnightblue" points="343.814,-545.249 354.375,-544.407 345.594,-538.479 343.814,-545.249"/>
</g>
<!-- Node26 -->
<g id="node26" class="node"><title>Node26</title>
<g id="a_node26"><a xlink:href="../../da/d73/endianconv_8c.html#af9669c6d673d3d653b5f0569fee71822" target="_top" xlink:title="FillNextNMessageOctetsWith\lValueAndMoveToNextPosition">
<polygon fill="none" stroke="black" points="325,-33 325,-63 475,-63 475,-33 325,-33"/>
<text text-anchor="start" x="333" y="-51" font-family="Helvetica,sans-Serif" font-size="10.00">FillNextNMessageOctetsWith</text>
<text text-anchor="middle" x="400" y="-40" font-family="Helvetica,sans-Serif" font-size="10.00">ValueAndMoveToNextPosition</text>
</a>
</g>
</g>
<!-- Node2&#45;&gt;Node26 -->
<g id="edge46" class="edge"><title>Node2&#45;&gt;Node26</title>
<path fill="none" stroke="midnightblue" d="M211.061,-468.23C217.302,-412.484 250.927,-134.994 308,-75 310.595,-72.2725 313.451,-69.8168 316.501,-67.6061"/>
<polygon fill="midnightblue" stroke="midnightblue" points="318.356,-70.5743 324.983,-62.3081 314.648,-64.6374 318.356,-70.5743"/>
</g>
<!-- Node5&#45;&gt;Node4 -->
<g id="edge5" class="edge"><title>Node5&#45;&gt;Node4</title>
<path fill="none" stroke="midnightblue" d="M659.189,-828.982C671.916,-826.221 684.95,-821.373 695,-813 751.706,-765.757 772,-674.12 778.392,-633.825"/>
<polygon fill="midnightblue" stroke="midnightblue" points="781.89,-634.093 779.873,-623.692 774.964,-633.081 781.89,-634.093"/>
</g>
<!-- Node6&#45;&gt;Node4 -->
<g id="edge7" class="edge"><title>Node6&#45;&gt;Node4</title>
<path fill="none" stroke="midnightblue" d="M672.916,-786.49C680.84,-783.726 688.464,-780.003 695,-775 742.684,-738.503 766.896,-667.824 776.258,-633.563"/>
<polygon fill="midnightblue" stroke="midnightblue" points="779.665,-634.367 778.786,-623.809 772.889,-632.611 779.665,-634.367"/>
</g>
<!-- Node7&#45;&gt;Node3 -->
<g id="edge9" class="edge"><title>Node7&#45;&gt;Node3</title>
<path fill="none" stroke="midnightblue" d="M453.595,-487.54C482.78,-492.834 519.216,-499.442 549.628,-504.959"/>
<polygon fill="midnightblue" stroke="midnightblue" points="549.228,-508.443 559.692,-506.784 550.477,-501.556 549.228,-508.443"/>
</g>
<!-- Node7&#45;&gt;Node4 -->
<g id="edge10" class="edge"><title>Node7&#45;&gt;Node4</title>
<path fill="none" stroke="midnightblue" d="M455.17,-468.496C517.175,-460.429 619.845,-455.871 695,-497 734.807,-518.785 761.153,-567.78 773.287,-594.949"/>
<polygon fill="midnightblue" stroke="midnightblue" points="770.09,-596.373 777.24,-604.191 776.526,-593.62 770.09,-596.373"/>
</g>
<!-- Node8&#45;&gt;Node3 -->
<g id="edge12" class="edge"><title>Node8&#45;&gt;Node3</title>
<path fill="none" stroke="midnightblue" d="M457.4,-449.55C468.983,-452.13 480.996,-455.267 492,-459 525.252,-470.281 561.323,-488.583 584.823,-501.396"/>
<polygon fill="midnightblue" stroke="midnightblue" points="583.335,-504.572 593.78,-506.347 586.721,-498.446 583.335,-504.572"/>
</g>
<!-- Node8&#45;&gt;Node4 -->
<g id="edge13" class="edge"><title>Node8&#45;&gt;Node4</title>
<path fill="none" stroke="midnightblue" d="M447.168,-430.478C508.814,-420.406 619.046,-411.881 695,-460 743.806,-490.92 767.385,-559.912 776.411,-594.063"/>
<polygon fill="midnightblue" stroke="midnightblue" points="773.122,-595.342 778.93,-604.204 779.916,-593.655 773.122,-595.342"/>
</g>
<!-- Node9&#45;&gt;Node4 -->
<g id="edge15" class="edge"><title>Node9&#45;&gt;Node4</title>
<path fill="none" stroke="midnightblue" d="M667.656,-749.228C677.295,-746.433 686.836,-742.507 695,-737 733.882,-710.77 760.604,-660.615 773.043,-633.148"/>
<polygon fill="midnightblue" stroke="midnightblue" points="776.317,-634.395 777.106,-623.829 769.901,-631.597 776.317,-634.395"/>
</g>
<!-- Node10&#45;&gt;Node4 -->
<g id="edge17" class="edge"><title>Node10&#45;&gt;Node4</title>
<path fill="none" stroke="midnightblue" d="M672.113,-708.46C680.07,-705.996 687.917,-702.897 695,-699 725.624,-682.152 752.792,-651.264 768.045,-631.726"/>
<polygon fill="midnightblue" stroke="midnightblue" points="770.925,-633.72 774.184,-623.639 765.35,-629.487 770.925,-633.72"/>
</g>
<!-- Node11&#45;&gt;Node4 -->
<g id="edge19" class="edge"><title>Node11&#45;&gt;Node4</title>
<path fill="none" stroke="midnightblue" d="M660.679,-670.491C672.101,-667.644 684.122,-664.15 695,-660 717.024,-651.597 740.528,-638.729 757.388,-628.738"/>
<polygon fill="midnightblue" stroke="midnightblue" points="759.266,-631.693 766.02,-623.53 755.65,-625.699 759.266,-631.693"/>
</g>
<!-- Node12&#45;&gt;Node4 -->
<g id="edge21" class="edge"><title>Node12&#45;&gt;Node4</title>
<path fill="none" stroke="midnightblue" d="M685.916,-626.414C698.526,-624.768 711.466,-623.079 723.579,-621.497"/>
<polygon fill="midnightblue" stroke="midnightblue" points="724.072,-624.963 733.534,-620.197 723.165,-618.022 724.072,-624.963"/>
</g>
<!-- Node14 -->
<g id="node14" class="node"><title>Node14</title>
<g id="a_node14"><a xlink:href="../../d4/d91/group__ENCAP.html#gae267a8684cc6ee1b3bd83df03260b7aa" target="_top" xlink:title="converts UINT8 data from host to little endian an writes it to buffer. ">
<polygon fill="none" stroke="black" points="731,-171.5 731,-190.5 833,-190.5 833,-171.5 731,-171.5"/>
<text text-anchor="middle" x="782" y="-178.5" font-family="Helvetica,sans-Serif" font-size="10.00">AddSintToMessage</text>
</a>
</g>
</g>
<!-- Node13&#45;&gt;Node14 -->
<g id="edge23" class="edge"><title>Node13&#45;&gt;Node14</title>
<path fill="none" stroke="midnightblue" d="M647.624,-228.479C662.347,-224.309 679.591,-219.188 695,-214 712.697,-208.042 732.142,-200.654 748.058,-194.379"/>
<polygon fill="midnightblue" stroke="midnightblue" points="749.466,-197.586 757.466,-190.639 746.88,-191.081 749.466,-197.586"/>
</g>
<!-- Node15&#45;&gt;Node14 -->
<g id="edge25" class="edge"><title>Node15&#45;&gt;Node14</title>
<path fill="none" stroke="midnightblue" d="M454.406,-231.474C477.08,-227.501 503.811,-222.911 528,-219 593.77,-208.365 669.327,-197.147 720.621,-189.68"/>
<polygon fill="midnightblue" stroke="midnightblue" points="721.153,-193.139 730.546,-188.238 720.146,-186.212 721.153,-193.139"/>
</g>
<!-- Node16&#45;&gt;Node14 -->
<g id="edge27" class="edge"><title>Node16&#45;&gt;Node14</title>
<path fill="none" stroke="midnightblue" d="M456.256,-191.877C478.517,-189.646 504.452,-187.343 528,-186 593.654,-182.255 669.029,-181.18 720.311,-180.933"/>
<polygon fill="midnightblue" stroke="midnightblue" points="720.569,-184.432 730.555,-180.893 720.542,-177.432 720.569,-184.432"/>
</g>
<!-- Node18 -->
<g id="node18" class="node"><title>Node18</title>
<g id="a_node18"><a xlink:href="../../d3/d98/cpf_8c.html#ae5dd5d670ff4b01d0aedd4e0a0c0314d" target="_top" xlink:title="Encodes the extended status data items. ">
<polygon fill="none" stroke="black" points="541.5,-305 541.5,-335 681.5,-335 681.5,-305 541.5,-305"/>
<text text-anchor="start" x="549.5" y="-323" font-family="Helvetica,sans-Serif" font-size="10.00">EncodeExtendedStatusData</text>
<text text-anchor="middle" x="611.5" y="-312" font-family="Helvetica,sans-Serif" font-size="10.00">Items</text>
</a>
</g>
</g>
<!-- Node17&#45;&gt;Node18 -->
<g id="edge29" class="edge"><title>Node17&#45;&gt;Node18</title>
<path fill="none" stroke="midnightblue" d="M459.636,-320C481.879,-320 507.588,-320 531.41,-320"/>
<polygon fill="midnightblue" stroke="midnightblue" points="531.488,-323.5 541.488,-320 531.488,-316.5 531.488,-323.5"/>
</g>
<!-- Node19 -->
<g id="node19" class="node"><title>Node19</title>
<g id="a_node19"><a xlink:href="../../d3/d98/cpf_8c.html#aff1bd1c766cfc5414aff3360d01eea46" target="_top" xlink:title="Encodes the length of the extended status data part. ">
<polygon fill="none" stroke="black" points="537,-266.5 537,-285.5 686,-285.5 686,-266.5 537,-266.5"/>
<text text-anchor="middle" x="611.5" y="-273.5" font-family="Helvetica,sans-Serif" font-size="10.00">EncodeExtendedStatusLength</text>
</a>
</g>
</g>
<!-- Node17&#45;&gt;Node19 -->
<g id="edge31" class="edge"><title>Node17&#45;&gt;Node19</title>
<path fill="none" stroke="midnightblue" d="M446.458,-310.453C478.304,-303.764 521.052,-294.786 554.925,-287.672"/>
<polygon fill="midnightblue" stroke="midnightblue" points="556.063,-291.009 565.13,-285.529 554.624,-284.159 556.063,-291.009"/>
</g>
<!-- Node18&#45;&gt;Node4 -->
<g id="edge30" class="edge"><title>Node18&#45;&gt;Node4</title>
<path fill="none" stroke="midnightblue" d="M674.022,-335.086C681.784,-338.977 689.068,-343.864 695,-350 763.237,-420.587 777.332,-545.961 780.242,-594.266"/>
<polygon fill="midnightblue" stroke="midnightblue" points="776.751,-594.518 780.749,-604.33 783.742,-594.166 776.751,-594.518"/>
</g>
<!-- Node19&#45;&gt;Node14 -->
<g id="edge32" class="edge"><title>Node19&#45;&gt;Node14</title>
<path fill="none" stroke="midnightblue" d="M670.61,-266.481C679.039,-264.007 687.419,-260.899 695,-257 723.627,-242.276 750.374,-215.867 766.212,-198.386"/>
<polygon fill="midnightblue" stroke="midnightblue" points="769.079,-200.426 773.071,-190.612 763.83,-195.795 769.079,-200.426"/>
</g>
<!-- Node20&#45;&gt;Node14 -->
<g id="edge34" class="edge"><title>Node20&#45;&gt;Node14</title>
<path fill="none" stroke="midnightblue" d="M448.001,-103.521C506.175,-115.469 608.189,-136.955 695,-158 708.645,-161.308 723.435,-165.164 736.84,-168.764"/>
<polygon fill="midnightblue" stroke="midnightblue" points="736.212,-172.219 746.779,-171.452 738.04,-165.462 736.212,-172.219"/>
</g>
<!-- Node21&#45;&gt;Node4 -->
<g id="edge36" class="edge"><title>Node21&#45;&gt;Node4</title>
<path fill="none" stroke="midnightblue" d="M459.542,-595.389C531.374,-599.548 652.375,-606.553 723.655,-610.68"/>
<polygon fill="midnightblue" stroke="midnightblue" points="723.614,-614.183 733.8,-611.267 724.019,-607.195 723.614,-614.183"/>
</g>
<!-- Node22&#45;&gt;Node14 -->
<g id="edge38" class="edge"><title>Node22&#45;&gt;Node14</title>
<path fill="none" stroke="midnightblue" d="M455.849,-155.33C526.08,-160.875 647.388,-170.452 720.319,-176.209"/>
<polygon fill="midnightblue" stroke="midnightblue" points="720.472,-179.732 730.716,-177.03 721.023,-172.754 720.472,-179.732"/>
</g>
<!-- Node23&#45;&gt;Node4 -->
<g id="edge40" class="edge"><title>Node23&#45;&gt;Node4</title>
<path fill="none" stroke="midnightblue" d="M439.838,-392.449C500.285,-379.972 617.92,-365.517 695,-419 754.742,-460.452 773.441,-553.178 778.905,-594.027"/>
<polygon fill="midnightblue" stroke="midnightblue" points="775.446,-594.578 780.118,-604.087 782.396,-593.739 775.446,-594.578"/>
</g>
<!-- Node24&#45;&gt;Node4 -->
<g id="edge42" class="edge"><title>Node24&#45;&gt;Node4</title>
<path fill="none" stroke="midnightblue" d="M468.745,-358.826C544.273,-354.485 660.378,-352.519 695,-378 766.219,-430.415 778.571,-547.869 780.629,-594.438"/>
<polygon fill="midnightblue" stroke="midnightblue" points="777.131,-594.555 780.955,-604.436 784.127,-594.327 777.131,-594.555"/>
</g>
<!-- Node25&#45;&gt;Node3 -->
<g id="edge44" class="edge"><title>Node25&#45;&gt;Node3</title>
<path fill="none" stroke="midnightblue" d="M453.595,-544.46C482.78,-539.166 519.216,-532.558 549.628,-527.041"/>
<polygon fill="midnightblue" stroke="midnightblue" points="550.477,-530.444 559.692,-525.216 549.228,-523.557 550.477,-530.444"/>
</g>
<!-- Node25&#45;&gt;Node4 -->
<g id="edge45" class="edge"><title>Node25&#45;&gt;Node4</title>
<path fill="none" stroke="midnightblue" d="M457.533,-560.977C516.854,-568.555 612.736,-581.53 695,-596 705.812,-597.902 717.342,-600.157 728.331,-602.416"/>
<polygon fill="midnightblue" stroke="midnightblue" points="727.732,-605.866 738.236,-604.483 729.161,-599.014 727.732,-605.866"/>
</g>
<!-- Node27 -->
<g id="node27" class="node"><title>Node27</title>
<g id="a_node27"><a xlink:href="../../da/d73/endianconv_8c.html#ae391d0308d5eebd8221d3fde59872b7c" target="_top" xlink:title="FillNextNMessageOctetsWith">
<polygon fill="none" stroke="black" points="538,-0.5 538,-19.5 685,-19.5 685,-0.5 538,-0.5"/>
<text text-anchor="middle" x="611.5" y="-7.5" font-family="Helvetica,sans-Serif" font-size="10.00">FillNextNMessageOctetsWith</text>
</a>
</g>
</g>
<!-- Node26&#45;&gt;Node27 -->
<g id="edge47" class="edge"><title>Node26&#45;&gt;Node27</title>
<path fill="none" stroke="midnightblue" d="M475.157,-34.5491C498.945,-30.2344 525.04,-25.501 547.915,-21.3518"/>
<polygon fill="midnightblue" stroke="midnightblue" points="548.627,-24.7801 557.841,-19.5514 547.377,-17.8924 548.627,-24.7801"/>
</g>
<!-- Node28 -->
<g id="node28" class="node"><title>Node28</title>
<g id="a_node28"><a xlink:href="../../da/d73/endianconv_8c.html#af4e7ccbb21e333ad15028c531f0384c6" target="_top" xlink:title="MoveMessageNOctets">
<polygon fill="none" stroke="black" points="553,-38.5 553,-57.5 670,-57.5 670,-38.5 553,-38.5"/>
<text text-anchor="middle" x="611.5" y="-45.5" font-family="Helvetica,sans-Serif" font-size="10.00">MoveMessageNOctets</text>
</a>
</g>
</g>
<!-- Node26&#45;&gt;Node28 -->
<g id="edge48" class="edge"><title>Node26&#45;&gt;Node28</title>
<path fill="none" stroke="midnightblue" d="M475.157,-48C497.207,-48 521.24,-48 542.853,-48"/>
<polygon fill="midnightblue" stroke="midnightblue" points="542.923,-51.5001 552.922,-48 542.922,-44.5001 542.923,-51.5001"/>
</g>
</g>
</svg>
        <g id="navigator" transform="translate(0 0)" fill="#404254">
                <rect fill="#f2f5e9" fill-opacity="0.5" stroke="#606060" stroke-width=".5" x="0" y="0" width="60" height="60"/>
                <use id="zoomplus" xlink:href="#zoomPlus" x="17" y="9" onmousedown="handleZoom(evt,'in')"/>
                <use id="zoomminus" xlink:href="#zoomMin" x="42" y="9" onmousedown="handleZoom(evt,'out')"/>
                <use id="reset" xlink:href="#resetDef" x="30" y="36" onmousedown="handleReset()"/>
                <g id="arrowUp" xlink:href="#dirArrow" transform="translate(30 24)" onmousedown="handlePan(0,-1)">
                  <use xlink:href="#rim" fill="#404040">
                        <set attributeName="fill" to="#808080" begin="arrowUp.mouseover" end="arrowUp.mouseout"/>
                  </use>
                  <path fill="none" stroke="white" stroke-width="1.5" d="M0,-3.0v7 M-2.5,-0.5L0,-3.0L2.5,-0.5"/>
                </g>
                <g id="arrowRight" xlink:href="#dirArrow" transform="rotate(90) translate(36 -43)" onmousedown="handlePan(1,0)">
                  <use xlink:href="#rim" fill="#404040">
                        <set attributeName="fill" to="#808080" begin="arrowRight.mouseover" end="arrowRight.mouseout"/>
                  </use>
                  <path fill="none" stroke="white" stroke-width="1.5" d="M0,-3.0v7 M-2.5,-0.5L0,-3.0L2.5,-0.5"/>
                </g>
                <g id="arrowDown" xlink:href="#dirArrow" transform="rotate(180) translate(-30 -48)" onmousedown="handlePan(0,1)">
                  <use xlink:href="#rim" fill="#404040">
                        <set attributeName="fill" to="#808080" begin="arrowDown.mouseover" end="arrowDown.mouseout"/>
                  </use>
                  <path fill="none" stroke="white" stroke-width="1.5" d="M0,-3.0v7 M-2.5,-0.5L0,-3.0L2.5,-0.5"/>
                </g>
                <g id="arrowLeft" xlink:href="#dirArrow" transform="rotate(270) translate(-36 17)" onmousedown="handlePan(-1,0)">
                  <use xlink:href="#rim" fill="#404040">
                        <set attributeName="fill" to="#808080" begin="arrowLeft.mouseover" end="arrowLeft.mouseout"/>
                  </use>
                  <path fill="none" stroke="white" stroke-width="1.5" d="M0,-3.0v7 M-2.5,-0.5L0,-3.0L2.5,-0.5"/>
                </g>
        </g>
        <svg viewBox="0 0 15 15" width="100%" height="30px" preserveAspectRatio="xMaxYMin meet">
         <g id="arrow_out" transform="scale(0.3 0.3)">
          <a xlink:href="group__ENCAP_ga137d29fba9dd744ed2e9323bf75e0bba_cgraph_org.svg" target="_base">
           <rect id="button" ry="5" rx="5" y="6" x="6" height="38" width="38"
                fill="#f2f5e9" fill-opacity="0.5" stroke="#606060" stroke-width="1.0"/>
           <path id="arrow"
             d="M 11.500037,31.436501 C 11.940474,20.09759 22.043105,11.32322 32.158766,21.979434 L 37.068811,17.246167 C 37.068811,17.246167 37.088388,32 37.088388,32 L 22.160133,31.978069 C 22.160133,31.978069 26.997745,27.140456 26.997745,27.140456 C 18.528582,18.264221 13.291696,25.230495 11.500037,31.436501 z"
             style="fill:#404040;"/>
          </a>
         </g>
        </svg>
</svg>
