<?xml version="1.0" encoding="UTF-8" standalone="no"?>
<!DOCTYPE svg PUBLIC "-//W3C//DTD SVG 1.1//EN"
 "http://www.w3.org/Graphics/SVG/1.1/DTD/svg11.dtd">
<!-- Generated by graphviz version 2.36.0 (20140111.2315)
 -->
<!-- Title: ManageEncapsulationMessages Pages: 1 -->
<svg width="698pt" height="66pt"
 viewBox="0.00 0.00 698.00 66.00" xmlns="http://www.w3.org/2000/svg" xmlns:xlink="http://www.w3.org/1999/xlink">
<g id="graph0" class="graph" transform="scale(1 1) rotate(0) translate(4 62)">
<title>ManageEncapsulationMessages</title>
<!-- Node1 -->
<g id="node1" class="node"><title>Node1</title>
<polygon fill="#bfbfbf" stroke="black" points="0,-19.5 0,-38.5 158,-38.5 158,-19.5 0,-19.5"/>
<text text-anchor="middle" x="79" y="-26.5" font-family="Helvetica,sans-Serif" font-size="10.00">ManageEncapsulationMessages</text>
</g>
<!-- Node2 -->
<g id="node2" class="node"><title>Node2</title>
<g id="a_node2"><a xlink:href="../../d2/dc9/group__CIP__API.html#ga9f57b09260efb5bfb188b9d0ca0c6091" target="_top" xlink:title="Check if any of the connection timers (TransmissionTrigger or WatchdogTimeout) have timed out...">
<polygon fill="none" stroke="black" points="194,-19.5 194,-38.5 300,-38.5 300,-19.5 194,-19.5"/>
<text text-anchor="middle" x="247" y="-26.5" font-family="Helvetica,sans-Serif" font-size="10.00">ManageConnections</text>
</a>
</g>
</g>
<!-- Node1&#45;&gt;Node2 -->
<g id="edge1" class="edge"><title>Node1&#45;&gt;Node2</title>
<path fill="none" stroke="midnightblue" d="M168.366,-29C177.067,-29 185.689,-29 193.847,-29"/>
<polygon fill="midnightblue" stroke="midnightblue" points="168.139,-25.5001 158.139,-29 168.139,-32.5001 168.139,-25.5001"/>
</g>
<!-- Node3 -->
<g id="node3" class="node"><title>Node3</title>
<g id="a_node3"><a xlink:href="../../da/dc2/generic__networkhandler_8h.html#a2f01af81d3e5018d9980e2bc28c9078a" target="_top" xlink:title="NetworkHandlerProcessOnce">
<polygon fill="none" stroke="black" points="336,-19.5 336,-38.5 482,-38.5 482,-19.5 336,-19.5"/>
<text text-anchor="middle" x="409" y="-26.5" font-family="Helvetica,sans-Serif" font-size="10.00">NetworkHandlerProcessOnce</text>
</a>
</g>
</g>
<!-- Node2&#45;&gt;Node3 -->
<g id="edge2" class="edge"><title>Node2&#45;&gt;Node3</title>
<path fill="none" stroke="midnightblue" d="M310.649,-29C318.878,-29 327.365,-29 335.738,-29"/>
<polygon fill="midnightblue" stroke="midnightblue" points="310.39,-25.5001 300.39,-29 310.39,-32.5001 310.39,-25.5001"/>
</g>
<!-- Node4 -->
<g id="node4" class="node"><title>Node4</title>
<g id="a_node4"><a xlink:href="../../d9/dfb/POSIX_2main_8c.html#a68147675261e664799874644a2e2179d" target="_top" xlink:title="Signal handler function for ending stack execution. ">
<polygon fill="none" stroke="black" points="518,-38.5 518,-57.5 616,-57.5 616,-38.5 518,-38.5"/>
<text text-anchor="middle" x="567" y="-45.5" font-family="Helvetica,sans-Serif" font-size="10.00">executeEventLoop</text>
</a>
</g>
</g>
<!-- Node3&#45;&gt;Node4 -->
<g id="edge3" class="edge"><title>Node3&#45;&gt;Node4</title>
<path fill="none" stroke="midnightblue" d="M492.037,-38.9917C500.866,-40.067 509.626,-41.1339 517.862,-42.137"/>
<polygon fill="midnightblue" stroke="midnightblue" points="492.414,-35.5118 482.064,-37.777 491.567,-42.4604 492.414,-35.5118"/>
</g>
<!-- Node6 -->
<g id="node6" class="node"><title>Node6</title>
<g id="a_node6"><a xlink:href="../../d5/dcb/MINGW_2main_8c.html#ad338a7dbc41dc40bcecd0479377ef207" target="_top" xlink:title="main">
<polygon fill="none" stroke="black" points="548,-0.5 548,-19.5 586,-19.5 586,-0.5 548,-0.5"/>
<text text-anchor="middle" x="567" y="-7.5" font-family="Helvetica,sans-Serif" font-size="10.00">main</text>
</a>
</g>
</g>
<!-- Node3&#45;&gt;Node6 -->
<g id="edge5" class="edge"><title>Node3&#45;&gt;Node6</title>
<path fill="none" stroke="midnightblue" d="M492.037,-19.0083C513.017,-16.453 533.607,-13.9453 547.713,-12.2272"/>
<polygon fill="midnightblue" stroke="midnightblue" points="491.567,-15.5396 482.064,-20.223 492.414,-22.4882 491.567,-15.5396"/>
</g>
<!-- Node5 -->
<g id="node5" class="node"><title>Node5</title>
<g id="a_node5"><a xlink:href="../../d9/dfb/POSIX_2main_8c.html#ad338a7dbc41dc40bcecd0479377ef207" target="_top" xlink:title="main">
<polygon fill="none" stroke="black" points="652,-38.5 652,-57.5 690,-57.5 690,-38.5 652,-38.5"/>
<text text-anchor="middle" x="671" y="-45.5" font-family="Helvetica,sans-Serif" font-size="10.00">main</text>
</a>
</g>
</g>
<!-- Node4&#45;&gt;Node5 -->
<g id="edge4" class="edge"><title>Node4&#45;&gt;Node5</title>
<path fill="none" stroke="midnightblue" d="M626.217,-48C635.558,-48 644.569,-48 651.963,-48"/>
<polygon fill="midnightblue" stroke="midnightblue" points="626.013,-44.5001 616.013,-48 626.013,-51.5001 626.013,-44.5001"/>
</g>
</g>
</svg>
