<?xml version="1.0" encoding="UTF-8" standalone="no"?>
<!DOCTYPE svg PUBLIC "-//W3C//DTD SVG 1.1//EN"
 "http://www.w3.org/Graphics/SVG/1.1/DTD/svg11.dtd">
<!-- Generated by graphviz version 2.38.0 (20140413.2041)
 -->
<!-- Title: GetSintFromMessage Pages: 1 -->
<svg width="1323pt" height="217pt"
 viewBox="0.00 0.00 1323.00 217.00" xmlns="http://www.w3.org/2000/svg" xmlns:xlink="http://www.w3.org/1999/xlink">
<g id="graph0" class="graph" transform="scale(1 1) rotate(0) translate(4 213)">
<title>GetSintFromMessage</title>
<!-- Node1 -->
<g id="node1" class="node"><title>Node1</title>
<polygon fill="#bfbfbf" stroke="black" points="0,-104 0,-123 112,-123 112,-104 0,-104"/>
<text text-anchor="middle" x="56" y="-111" font-family="Helvetica,sans-Serif" font-size="10.00">GetSintFromMessage</text>
</g>
<!-- Node2 -->
<g id="node2" class="node"><title>Node2</title>
<g id="a_node2"><a xlink:href="../../d1/d02/cipepath_8h.html#af2a3ed4029a1abdda171f86eaeb69058" target="_top" xlink:title="CipEpathGetLogicalValue">
<polygon fill="none" stroke="black" points="160,-186 160,-205 288,-205 288,-186 160,-186"/>
<text text-anchor="middle" x="224" y="-193" font-family="Helvetica,sans-Serif" font-size="10.00">CipEpathGetLogicalValue</text>
</a>
</g>
</g>
<!-- Node1&#45;&gt;Node2 -->
<g id="edge1" class="edge"><title>Node1&#45;&gt;Node2</title>
<path fill="none" stroke="midnightblue" d="M78.1494,-129.209C96.0379,-141.937 122.723,-159.644 148,-171.5 160.254,-177.247 174.246,-182.139 186.8,-185.977"/>
<polygon fill="midnightblue" stroke="midnightblue" points="79.8052,-126.087 69.6508,-123.064 75.7036,-131.759 79.8052,-126.087"/>
</g>
<!-- Node3 -->
<g id="node3" class="node"><title>Node3</title>
<g id="a_node3"><a xlink:href="../../d5/d35/cipconnectionmanager_8c.html#ad7b34359aea58ef8d4e77008ea53098f" target="_top" xlink:title="Parse the connection path of a forward open request. ">
<polygon fill="none" stroke="black" points="336,-148 336,-167 448,-167 448,-148 336,-148"/>
<text text-anchor="middle" x="392" y="-155" font-family="Helvetica,sans-Serif" font-size="10.00">ParseConnectionPath</text>
</a>
</g>
</g>
<!-- Node1&#45;&gt;Node3 -->
<g id="edge20" class="edge"><title>Node1&#45;&gt;Node3</title>
<path fill="none" stroke="midnightblue" d="M96.2075,-126.027C112.126,-130.651 130.789,-135.491 148,-138.5 211.777,-149.649 286.118,-154.258 335.616,-156.162"/>
<polygon fill="midnightblue" stroke="midnightblue" points="96.7689,-122.542 86.1859,-123.041 94.7702,-129.251 96.7689,-122.542"/>
</g>
<!-- Node8 -->
<g id="node8" class="node"><title>Node8</title>
<g id="a_node8"><a xlink:href="../../d1/d6c/cipconnectionobject_8h.html#ad1ae63909621ed91670ae33862edd214" target="_top" xlink:title="ConnectionObjectInitialize\lFromMessage">
<polygon fill="none" stroke="black" points="158.5,-49.5 158.5,-79.5 289.5,-79.5 289.5,-49.5 158.5,-49.5"/>
<text text-anchor="start" x="166.5" y="-67.5" font-family="Helvetica,sans-Serif" font-size="10.00">ConnectionObjectInitialize</text>
<text text-anchor="middle" x="224" y="-56.5" font-family="Helvetica,sans-Serif" font-size="10.00">FromMessage</text>
</a>
</g>
</g>
<!-- Node1&#45;&gt;Node8 -->
<g id="edge10" class="edge"><title>Node1&#45;&gt;Node8</title>
<path fill="none" stroke="midnightblue" d="M99.1913,-101.046C121.365,-94.5008 148.711,-86.4287 172.058,-79.537"/>
<polygon fill="midnightblue" stroke="midnightblue" points="98.0005,-97.7481 89.4005,-103.936 99.9823,-104.462 98.0005,-97.7481"/>
</g>
<!-- Node15 -->
<g id="node15" class="node"><title>Node15</title>
<g id="a_node15"><a xlink:href="../../d1/d02/cipepath_8h.html#a8194b2888502980a0c2b3c15aee9722a" target="_top" xlink:title="Gets the data for an Electronic Key of format 4 from the EPath message. ">
<polygon fill="none" stroke="black" points="148,-98.5 148,-128.5 300,-128.5 300,-98.5 148,-98.5"/>
<text text-anchor="start" x="156" y="-116.5" font-family="Helvetica,sans-Serif" font-size="10.00">GetElectronicKeyFormat4From</text>
<text text-anchor="middle" x="224" y="-105.5" font-family="Helvetica,sans-Serif" font-size="10.00">Message</text>
</a>
</g>
</g>
<!-- Node1&#45;&gt;Node15 -->
<g id="edge17" class="edge"><title>Node1&#45;&gt;Node15</title>
<path fill="none" stroke="midnightblue" d="M122.346,-113.5C130.724,-113.5 139.353,-113.5 147.871,-113.5"/>
<polygon fill="midnightblue" stroke="midnightblue" points="122.276,-110 112.276,-113.5 122.276,-117 122.276,-110"/>
</g>
<!-- Node16 -->
<g id="node16" class="node"><title>Node16</title>
<g id="a_node16"><a xlink:href="../../d1/d02/cipepath_8h.html#a27b1a3769281dfd32fe6db6d52d5173e" target="_top" xlink:title="Gets the data word length of a Simple Data segment. ">
<polygon fill="none" stroke="black" points="152.5,-0.5 152.5,-30.5 295.5,-30.5 295.5,-0.5 152.5,-0.5"/>
<text text-anchor="start" x="160.5" y="-18.5" font-family="Helvetica,sans-Serif" font-size="10.00">GetPathDataSegmentSimple</text>
<text text-anchor="middle" x="224" y="-7.5" font-family="Helvetica,sans-Serif" font-size="10.00">DataWordLength</text>
</a>
</g>
</g>
<!-- Node1&#45;&gt;Node16 -->
<g id="edge19" class="edge"><title>Node1&#45;&gt;Node16</title>
<path fill="none" stroke="midnightblue" d="M74.4017,-96.3673C91.7776,-80.0685 119.878,-55.8237 148,-40.5 154.87,-36.7567 162.398,-33.441 169.952,-30.548"/>
<polygon fill="midnightblue" stroke="midnightblue" points="71.5881,-94.2152 66.7801,-103.656 76.4262,-99.2741 71.5881,-94.2152"/>
</g>
<!-- Node2&#45;&gt;Node3 -->
<g id="edge2" class="edge"><title>Node2&#45;&gt;Node3</title>
<path fill="none" stroke="midnightblue" d="M276.653,-183.676C300.056,-178.318 327.357,-172.069 349.412,-167.02"/>
<polygon fill="midnightblue" stroke="midnightblue" points="275.856,-180.268 266.889,-185.911 277.418,-187.091 275.856,-180.268"/>
</g>
<!-- Node4 -->
<g id="node4" class="node"><title>Node4</title>
<g id="a_node4"><a xlink:href="../../d5/d35/cipconnectionmanager_8c.html#af379a4b383c738a07d8e1ab0a4ac7510" target="_top" xlink:title="Handles a Non Null Non Matching Forward Open Request. ">
<polygon fill="none" stroke="black" points="484,-142.5 484,-172.5 624,-172.5 624,-142.5 484,-142.5"/>
<text text-anchor="start" x="492" y="-160.5" font-family="Helvetica,sans-Serif" font-size="10.00">HandleNonNullNonMatching</text>
<text text-anchor="middle" x="554" y="-149.5" font-family="Helvetica,sans-Serif" font-size="10.00">ForwardOpenRequest</text>
</a>
</g>
</g>
<!-- Node3&#45;&gt;Node4 -->
<g id="edge3" class="edge"><title>Node3&#45;&gt;Node4</title>
<path fill="none" stroke="midnightblue" d="M458.264,-157.5C466.742,-157.5 475.448,-157.5 483.985,-157.5"/>
<polygon fill="midnightblue" stroke="midnightblue" points="458.063,-154 448.063,-157.5 458.063,-161 458.063,-154"/>
</g>
<!-- Node5 -->
<g id="node5" class="node"><title>Node5</title>
<g id="a_node5"><a xlink:href="../../d5/d35/cipconnectionmanager_8c.html#a7eaeec6cc54d1799cfaba4031f0168d1" target="_top" xlink:title="Handles a Non Null Matching Forward Open Request. ">
<polygon fill="none" stroke="black" points="660,-178.5 660,-208.5 818,-208.5 818,-178.5 660,-178.5"/>
<text text-anchor="start" x="668" y="-196.5" font-family="Helvetica,sans-Serif" font-size="10.00">HandleNonNullMatchingForward</text>
<text text-anchor="middle" x="739" y="-185.5" font-family="Helvetica,sans-Serif" font-size="10.00">OpenRequest</text>
</a>
</g>
</g>
<!-- Node4&#45;&gt;Node5 -->
<g id="edge4" class="edge"><title>Node4&#45;&gt;Node5</title>
<path fill="none" stroke="midnightblue" d="M634.074,-166.361C653.753,-170.055 674.214,-174.326 691.723,-178.44"/>
<polygon fill="midnightblue" stroke="midnightblue" points="634.653,-162.909 624.184,-164.542 633.386,-169.793 634.653,-162.909"/>
</g>
<!-- Node5&#45;&gt;Node4 -->
<g id="edge5" class="edge"><title>Node5&#45;&gt;Node4</title>
<path fill="none" stroke="midnightblue" d="M649.907,-182.916C633.055,-179.642 616.049,-176.032 601.179,-172.537"/>
<polygon fill="midnightblue" stroke="midnightblue" points="649.316,-186.366 659.794,-184.802 650.627,-179.49 649.316,-186.366"/>
</g>
<!-- Node6 -->
<g id="node6" class="node"><title>Node6</title>
<g id="a_node6"><a xlink:href="../../d5/d35/cipconnectionmanager_8c.html#a8da18334cfde58434b845b0968620811" target="_top" xlink:title="Handles a Null Matching Forward Open request. ">
<polygon fill="none" stroke="black" points="854,-140.5 854,-170.5 994,-170.5 994,-140.5 854,-140.5"/>
<text text-anchor="start" x="862" y="-158.5" font-family="Helvetica,sans-Serif" font-size="10.00">HandleNullMatchingForward</text>
<text text-anchor="middle" x="924" y="-147.5" font-family="Helvetica,sans-Serif" font-size="10.00">OpenRequest</text>
</a>
</g>
</g>
<!-- Node5&#45;&gt;Node6 -->
<g id="edge6" class="edge"><title>Node5&#45;&gt;Node6</title>
<path fill="none" stroke="midnightblue" d="M822.358,-176.398C832.892,-174.211 843.59,-171.99 853.885,-169.852"/>
<polygon fill="midnightblue" stroke="midnightblue" points="821.406,-173.021 812.326,-178.481 822.829,-179.875 821.406,-173.021"/>
</g>
<!-- Node6&#45;&gt;Node4 -->
<g id="edge7" class="edge"><title>Node6&#45;&gt;Node4</title>
<path fill="none" stroke="midnightblue" d="M843.53,-155.932C778.203,-156.287 686.571,-156.785 624.218,-157.124"/>
<polygon fill="midnightblue" stroke="midnightblue" points="843.8,-159.431 853.78,-155.876 843.761,-152.431 843.8,-159.431"/>
</g>
<!-- Node7 -->
<g id="node7" class="node"><title>Node7</title>
<g id="a_node7"><a xlink:href="../../d5/d35/cipconnectionmanager_8c.html#ad68060facbfe52b38428a40da630651b" target="_top" xlink:title="Handles a Null Non Matching Forward Open Request. ">
<polygon fill="none" stroke="black" points="1030,-118.5 1030,-148.5 1188,-148.5 1188,-118.5 1030,-118.5"/>
<text text-anchor="start" x="1038" y="-136.5" font-family="Helvetica,sans-Serif" font-size="10.00">HandleNullNonMatchingForward</text>
<text text-anchor="middle" x="1109" y="-125.5" font-family="Helvetica,sans-Serif" font-size="10.00">OpenRequest</text>
</a>
</g>
</g>
<!-- Node6&#45;&gt;Node7 -->
<g id="edge8" class="edge"><title>Node6&#45;&gt;Node7</title>
<path fill="none" stroke="midnightblue" d="M1004.39,-145.956C1012.82,-144.942 1021.4,-143.911 1029.83,-142.898"/>
<polygon fill="midnightblue" stroke="midnightblue" points="1003.7,-142.514 994.184,-147.183 1004.53,-149.464 1003.7,-142.514"/>
</g>
<!-- Node7&#45;&gt;Node4 -->
<g id="edge9" class="edge"><title>Node7&#45;&gt;Node4</title>
<path fill="none" stroke="midnightblue" d="M1019.66,-131.797C1010.99,-131.676 1002.32,-131.573 994,-131.5 931.78,-130.954 916.164,-128.802 854,-131.5 775.004,-134.928 684.599,-143.428 624.068,-149.782"/>
<polygon fill="midnightblue" stroke="midnightblue" points="1019.76,-135.299 1029.81,-131.947 1019.87,-128.3 1019.76,-135.299"/>
</g>
<!-- Node9 -->
<g id="node9" class="node"><title>Node9</title>
<g id="a_node9"><a xlink:href="../../d5/d35/cipconnectionmanager_8c.html#a33a14c8e6fffa6b91e839167cc39319b" target="_top" xlink:title="Check if resources for new connection available, generate ForwardOpen Reply message. ">
<polygon fill="none" stroke="black" points="354.5,-55 354.5,-74 429.5,-74 429.5,-55 354.5,-55"/>
<text text-anchor="middle" x="392" y="-62" font-family="Helvetica,sans-Serif" font-size="10.00">ForwardOpen</text>
</a>
</g>
</g>
<!-- Node8&#45;&gt;Node9 -->
<g id="edge11" class="edge"><title>Node8&#45;&gt;Node9</title>
<path fill="none" stroke="midnightblue" d="M299.742,-64.5C318.596,-64.5 338.023,-64.5 354.082,-64.5"/>
<polygon fill="midnightblue" stroke="midnightblue" points="299.655,-61.0001 289.655,-64.5 299.655,-68.0001 299.655,-61.0001"/>
</g>
<!-- Node10 -->
<g id="node10" class="node"><title>Node10</title>
<g id="a_node10"><a xlink:href="../../d2/da3/cipconnectionmanager_8h.html#a5ab0de6894d23e8fe84a6b46797c2212" target="_top" xlink:title="Initialize the data of the connection manager object. ">
<polygon fill="none" stroke="black" points="495.5,-55 495.5,-74 612.5,-74 612.5,-55 495.5,-55"/>
<text text-anchor="middle" x="554" y="-62" font-family="Helvetica,sans-Serif" font-size="10.00">ConnectionManagerInit</text>
</a>
</g>
</g>
<!-- Node9&#45;&gt;Node10 -->
<g id="edge12" class="edge"><title>Node9&#45;&gt;Node10</title>
<path fill="none" stroke="midnightblue" d="M440.141,-64.5C457.476,-64.5 477.302,-64.5 495.451,-64.5"/>
<polygon fill="midnightblue" stroke="midnightblue" points="439.707,-61.0001 429.707,-64.5 439.707,-68.0001 439.707,-61.0001"/>
</g>
<!-- Node11 -->
<g id="node11" class="node"><title>Node11</title>
<g id="a_node11"><a xlink:href="../../d2/dc9/group__CIP__API.html#ga5d4979945d124e28668b264c3823db1c" target="_top" xlink:title="Initialize and setup the CIP&#45;stack. ">
<polygon fill="none" stroke="black" points="703.5,-55 703.5,-74 774.5,-74 774.5,-55 703.5,-55"/>
<text text-anchor="middle" x="739" y="-62" font-family="Helvetica,sans-Serif" font-size="10.00">CipStackInit</text>
</a>
</g>
</g>
<!-- Node10&#45;&gt;Node11 -->
<g id="edge13" class="edge"><title>Node10&#45;&gt;Node11</title>
<path fill="none" stroke="midnightblue" d="M622.955,-64.5C650.28,-64.5 680.612,-64.5 703.268,-64.5"/>
<polygon fill="midnightblue" stroke="midnightblue" points="622.651,-61.0001 612.651,-64.5 622.651,-68.0001 622.651,-61.0001"/>
</g>
<!-- Node12 -->
<g id="node12" class="node"><title>Node12</title>
<g id="a_node12"><a xlink:href="../../d5/dcb/MINGW_2main_8c.html#ad338a7dbc41dc40bcecd0479377ef207" target="_top" xlink:title="main">
<polygon fill="none" stroke="black" points="905,-55 905,-74 943,-74 943,-55 905,-55"/>
<text text-anchor="middle" x="924" y="-62" font-family="Helvetica,sans-Serif" font-size="10.00">main</text>
</a>
</g>
</g>
<!-- Node11&#45;&gt;Node12 -->
<g id="edge14" class="edge"><title>Node11&#45;&gt;Node12</title>
<path fill="none" stroke="midnightblue" d="M785.313,-64.5C823.921,-64.5 877.4,-64.5 904.967,-64.5"/>
<polygon fill="midnightblue" stroke="midnightblue" points="784.852,-61.0001 774.852,-64.5 784.852,-68.0001 784.852,-61.0001"/>
</g>
<!-- Node13 -->
<g id="node13" class="node"><title>Node13</title>
<g id="a_node13"><a xlink:href="../../d8/d03/ports_2MINGW_2CMakeLists_8txt.html#a7e00df43a20d627a1732be7766d91097" target="_top" xlink:title="add_library">
<polygon fill="none" stroke="black" points="1077,-55 1077,-74 1141,-74 1141,-55 1077,-55"/>
<text text-anchor="middle" x="1109" y="-62" font-family="Helvetica,sans-Serif" font-size="10.00">add_library</text>
</a>
</g>
</g>
<!-- Node12&#45;&gt;Node13 -->
<g id="edge15" class="edge"><title>Node12&#45;&gt;Node13</title>
<path fill="none" stroke="midnightblue" d="M953.237,-64.5C986.657,-64.5 1042.13,-64.5 1076.8,-64.5"/>
<polygon fill="midnightblue" stroke="midnightblue" points="953.216,-61.0001 943.216,-64.5 953.216,-68.0001 953.216,-61.0001"/>
</g>
<!-- Node14 -->
<g id="node14" class="node"><title>Node14</title>
<g id="a_node14"><a xlink:href="../../d8/dce/ports_2CMakeLists_8txt.html#a598fae457555a5fb26e18d4cd8f89de9" target="_top" xlink:title="add_subdirectory">
<polygon fill="none" stroke="black" points="1224,-55 1224,-74 1315,-74 1315,-55 1224,-55"/>
<text text-anchor="middle" x="1269.5" y="-62" font-family="Helvetica,sans-Serif" font-size="10.00">add_subdirectory</text>
</a>
</g>
</g>
<!-- Node13&#45;&gt;Node14 -->
<g id="edge16" class="edge"><title>Node13&#45;&gt;Node14</title>
<path fill="none" stroke="midnightblue" d="M1151.44,-64.5C1173.66,-64.5 1201.05,-64.5 1223.75,-64.5"/>
<polygon fill="midnightblue" stroke="midnightblue" points="1151.31,-61.0001 1141.31,-64.5 1151.31,-68.0001 1151.31,-61.0001"/>
</g>
<!-- Node15&#45;&gt;Node3 -->
<g id="edge18" class="edge"><title>Node15&#45;&gt;Node3</title>
<path fill="none" stroke="midnightblue" d="M291.473,-131.119C313.111,-136.855 336.311,-143.004 354.864,-147.922"/>
<polygon fill="midnightblue" stroke="midnightblue" points="292.226,-127.698 281.663,-128.519 290.433,-134.465 292.226,-127.698"/>
</g>
</g>
</svg>
