<?xml version="1.0" encoding="UTF-8" standalone="no"?>
<!DOCTYPE svg PUBLIC "-//W3C//DTD SVG 1.1//EN"
 "http://www.w3.org/Graphics/SVG/1.1/DTD/svg11.dtd">
<!-- Generated by graphviz version 2.36.0 (20140111.2315)
 -->
<!-- Title: src/ports/generic_networkhandler.h Pages: 1 -->
<!--zoomable 420 -->
<svg id="main" version="1.1" xmlns="http://www.w3.org/2000/svg" xmlns:xlink="http://www.w3.org/1999/xlink" xml:space="preserve" onload="init(evt)">
<style type="text/css"><![CDATA[
.edge:hover path { stroke: red; }
.edge:hover polygon { stroke: red; fill: red; }
]]></style>
<script type="text/javascript"><![CDATA[
var edges = document.getElementsByTagName('g');
if (edges && edges.length) {
  for (var i=0;i<edges.length;i++) {
    if (edges[i].id.substr(0,4)=='edge') {
      edges[i].setAttribute('class','edge');
    }
  }
}
]]></script>
        <defs>
                <circle id="rim" cx="0" cy="0" r="7"/>
                <circle id="rim2" cx="0" cy="0" r="3.5"/>
                <g id="zoomPlus">
                        <use xlink:href="#rim" fill="#404040">
                                <set attributeName="fill" to="#808080" begin="zoomplus.mouseover" end="zoomplus.mouseout"/>
                        </use>
                        <path d="M-4,0h8M0,-4v8" fill="none" stroke="white" stroke-width="1.5" pointer-events="none"/>
                </g>
                <g id="zoomMin">
                        <use xlink:href="#rim" fill="#404040">
                                <set attributeName="fill" to="#808080" begin="zoomminus.mouseover" end="zoomminus.mouseout"/>
                        </use>
                        <path d="M-4,0h8" fill="none" stroke="white" stroke-width="1.5" pointer-events="none"/>
                </g>
                <g id="dirArrow">
                        <path fill="none" stroke="white" stroke-width="1.5" d="M0,-3.0v7 M-2.5,-0.5L0,-3.0L2.5,-0.5"/>
                </g>
               <g id="resetDef">
                       <use xlink:href="#rim2" fill="#404040">
                               <set attributeName="fill" to="#808080" begin="reset.mouseover" end="reset.mouseout"/>
                       </use>
               </g>
        </defs>

<script type="text/javascript">
var viewWidth = 1100;
var viewHeight = 420;
var sectionId = 'dynsection-0';
</script>
<script xlink:href="../../svgpan.js"/>
<svg id="graph" class="graph">
<g id="viewport">
<title>src/ports/generic_networkhandler.h</title>
<!-- Node1 -->
<g id="node1" class="node"><title>Node1</title>
<polygon fill="#bfbfbf" stroke="black" points="227.5,-392.5 227.5,-411.5 396.5,-411.5 396.5,-392.5 227.5,-392.5"/>
<text text-anchor="middle" x="312" y="-399.5" font-family="Helvetica,sans-Serif" font-size="10.00">src/ports/generic_networkhandler.h</text>
</g>
<!-- Node2 -->
<g id="node2" class="node"><title>Node2</title>
<polygon fill="none" stroke="#bfbfbf" points="0,-336.5 0,-355.5 46,-355.5 46,-336.5 0,-336.5"/>
<text text-anchor="middle" x="23" y="-343.5" font-family="Helvetica,sans-Serif" font-size="10.00">stdio.h</text>
</g>
<!-- Node1&#45;&gt;Node2 -->
<g id="edge1" class="edge"><title>Node1&#45;&gt;Node2</title>
<path fill="none" stroke="midnightblue" d="M254.762,-392.488C202.682,-384.376 123.817,-371.174 56,-356 55.8986,-355.977 55.797,-355.955 55.6953,-355.932"/>
<polygon fill="midnightblue" stroke="midnightblue" points="56.5562,-352.539 46.0113,-353.567 54.8955,-359.339 56.5562,-352.539"/>
</g>
<!-- Node3 -->
<g id="node3" class="node"><title>Node3</title>
<polygon fill="none" stroke="#bfbfbf" points="64.5,-336.5 64.5,-355.5 113.5,-355.5 113.5,-336.5 64.5,-336.5"/>
<text text-anchor="middle" x="89" y="-343.5" font-family="Helvetica,sans-Serif" font-size="10.00">string.h</text>
</g>
<!-- Node1&#45;&gt;Node3 -->
<g id="edge2" class="edge"><title>Node1&#45;&gt;Node3</title>
<path fill="none" stroke="midnightblue" d="M274.993,-392.478C238.854,-384.091 182.055,-370.74 123.633,-356.113"/>
<polygon fill="midnightblue" stroke="midnightblue" points="124.415,-352.7 113.864,-353.658 122.71,-359.489 124.415,-352.7"/>
</g>
<!-- Node4 -->
<g id="node4" class="node"><title>Node4</title>
<polygon fill="none" stroke="#bfbfbf" points="132,-336.5 132,-355.5 180,-355.5 180,-336.5 132,-336.5"/>
<text text-anchor="middle" x="156" y="-343.5" font-family="Helvetica,sans-Serif" font-size="10.00">stdlib.h</text>
</g>
<!-- Node1&#45;&gt;Node4 -->
<g id="edge3" class="edge"><title>Node1&#45;&gt;Node4</title>
<path fill="none" stroke="midnightblue" d="M287.281,-392.444C260.998,-383.345 219.253,-368.895 189.907,-358.737"/>
<polygon fill="midnightblue" stroke="midnightblue" points="190.685,-355.303 180.09,-355.339 188.395,-361.918 190.685,-355.303"/>
</g>
<!-- Node5 -->
<g id="node5" class="node"><title>Node5</title>
<polygon fill="none" stroke="#bfbfbf" points="198.5,-336.5 198.5,-355.5 245.5,-355.5 245.5,-336.5 198.5,-336.5"/>
<text text-anchor="middle" x="222" y="-343.5" font-family="Helvetica,sans-Serif" font-size="10.00">errno.h</text>
</g>
<!-- Node1&#45;&gt;Node5 -->
<g id="edge4" class="edge"><title>Node1&#45;&gt;Node5</title>
<path fill="none" stroke="midnightblue" d="M297.54,-392.324C283.5,-383.9 261.952,-370.971 245.457,-361.074"/>
<polygon fill="midnightblue" stroke="midnightblue" points="246.8,-357.798 236.424,-355.655 243.198,-363.801 246.8,-357.798"/>
</g>
<!-- Node6 -->
<g id="node6" class="node"><title>Node6</title>
<g id="a_node6"><a xlink:href="../../d4/d38/opener__api_8h.html" target="_top" xlink:title="opener_api.h">
<polygon fill="none" stroke="black" points="493,-168.5 493,-187.5 565,-187.5 565,-168.5 493,-168.5"/>
<text text-anchor="middle" x="529" y="-175.5" font-family="Helvetica,sans-Serif" font-size="10.00">opener_api.h</text>
</a>
</g>
</g>
<!-- Node1&#45;&gt;Node6 -->
<g id="edge5" class="edge"><title>Node1&#45;&gt;Node6</title>
<path fill="none" stroke="midnightblue" d="M322.65,-392.354C333.372,-383.52 350.245,-369.255 364,-356 422.342,-299.776 486.428,-227.805 514.489,-195.727"/>
<polygon fill="midnightblue" stroke="midnightblue" points="517.481,-197.621 521.414,-187.783 512.205,-193.021 517.481,-197.621"/>
</g>
<!-- Node9 -->
<g id="node9" class="node"><title>Node9</title>
<g id="a_node9"><a xlink:href="../../d7/d69/typedefs_8h.html" target="_top" xlink:title="typedefs.h">
<polygon fill="none" stroke="black" points="395,-56.5 395,-75.5 457,-75.5 457,-56.5 395,-56.5"/>
<text text-anchor="middle" x="426" y="-63.5" font-family="Helvetica,sans-Serif" font-size="10.00">typedefs.h</text>
</a>
</g>
</g>
<!-- Node1&#45;&gt;Node9 -->
<g id="edge19" class="edge"><title>Node1&#45;&gt;Node9</title>
<path fill="none" stroke="midnightblue" d="M317.284,-392.231C327.725,-374.043 350,-330.601 350,-291 350,-291 350,-291 350,-177 350,-137.276 383.964,-101.504 406.482,-82.1536"/>
<polygon fill="midnightblue" stroke="midnightblue" points="408.976,-84.6337 414.457,-75.5672 404.518,-79.2364 408.976,-84.6337"/>
</g>
<!-- Node13 -->
<g id="node13" class="node"><title>Node13</title>
<polygon fill="none" stroke="#bfbfbf" points="1001.5,-56.5 1001.5,-75.5 1092.5,-75.5 1092.5,-56.5 1001.5,-56.5"/>
<text text-anchor="middle" x="1047" y="-63.5" font-family="Helvetica,sans-Serif" font-size="10.00">networkhandler.h</text>
</g>
<!-- Node1&#45;&gt;Node13 -->
<g id="edge40" class="edge"><title>Node1&#45;&gt;Node13</title>
<path fill="none" stroke="midnightblue" d="M396.711,-396.733C586.441,-386.043 1029,-354.322 1029,-291 1029,-291 1029,-291 1029,-177 1029,-144.537 1036.73,-107.384 1042.06,-85.6276"/>
<polygon fill="midnightblue" stroke="midnightblue" points="1045.49,-86.3151 1044.57,-75.7605 1038.71,-84.5867 1045.49,-86.3151"/>
</g>
<!-- Node17 -->
<g id="node17" class="node"><title>Node17</title>
<g id="a_node17"><a xlink:href="../../d0/dec/endianconv_8h.html" target="_top" xlink:title="Responsible for Endianess conversion. ">
<polygon fill="none" stroke="black" points="192,-280.5 192,-299.5 266,-299.5 266,-280.5 192,-280.5"/>
<text text-anchor="middle" x="229" y="-287.5" font-family="Helvetica,sans-Serif" font-size="10.00">endianconv.h</text>
</a>
</g>
</g>
<!-- Node1&#45;&gt;Node17 -->
<g id="edge20" class="edge"><title>Node1&#45;&gt;Node17</title>
<path fill="none" stroke="midnightblue" d="M305.487,-392.368C291.729,-374.135 259.503,-331.426 241.582,-307.675"/>
<polygon fill="midnightblue" stroke="midnightblue" points="244.3,-305.466 235.483,-299.591 238.712,-309.682 244.3,-305.466"/>
</g>
<!-- Node18 -->
<g id="node18" class="node"><title>Node18</title>
<g id="a_node18"><a xlink:href="../../d2/da3/cipconnectionmanager_8h.html" target="_top" xlink:title="cipconnectionmanager.h">
<polygon fill="none" stroke="black" points="468,-280.5 468,-299.5 590,-299.5 590,-280.5 468,-280.5"/>
<text text-anchor="middle" x="529" y="-287.5" font-family="Helvetica,sans-Serif" font-size="10.00">cipconnectionmanager.h</text>
</a>
</g>
</g>
<!-- Node1&#45;&gt;Node18 -->
<g id="edge22" class="edge"><title>Node1&#45;&gt;Node18</title>
<path fill="none" stroke="midnightblue" d="M396.789,-397.724C432.741,-392.391 472.951,-380.708 502,-356 515.796,-344.265 522.668,-324.33 526.008,-309.623"/>
<polygon fill="midnightblue" stroke="midnightblue" points="529.481,-310.1 527.931,-299.619 522.607,-308.779 529.481,-310.1"/>
</g>
<!-- Node23 -->
<g id="node23" class="node"><title>Node23</title>
<g id="a_node23"><a xlink:href="../../d1/dc0/appcontype_8h.html" target="_top" xlink:title="appcontype.h">
<polygon fill="none" stroke="black" points="418.5,-336.5 418.5,-355.5 493.5,-355.5 493.5,-336.5 418.5,-336.5"/>
<text text-anchor="middle" x="456" y="-343.5" font-family="Helvetica,sans-Serif" font-size="10.00">appcontype.h</text>
</a>
</g>
</g>
<!-- Node1&#45;&gt;Node23 -->
<g id="edge41" class="edge"><title>Node1&#45;&gt;Node23</title>
<path fill="none" stroke="midnightblue" d="M334.817,-392.444C358.832,-383.438 396.829,-369.189 423.869,-359.049"/>
<polygon fill="midnightblue" stroke="midnightblue" points="425.155,-362.305 433.29,-355.516 422.697,-355.751 425.155,-362.305"/>
</g>
<!-- Node24 -->
<g id="node24" class="node"><title>Node24</title>
<g id="a_node24"><a xlink:href="../../d1/d84/socket__timer_8h.html" target="_top" xlink:title="socket_timer.h">
<polygon fill="none" stroke="black" points="240.5,-224.5 240.5,-243.5 321.5,-243.5 321.5,-224.5 240.5,-224.5"/>
<text text-anchor="middle" x="281" y="-231.5" font-family="Helvetica,sans-Serif" font-size="10.00">socket_timer.h</text>
</a>
</g>
</g>
<!-- Node1&#45;&gt;Node24 -->
<g id="edge43" class="edge"><title>Node1&#45;&gt;Node24</title>
<path fill="none" stroke="midnightblue" d="M310.333,-392.075C305.454,-365.945 291.124,-289.211 284.469,-253.577"/>
<polygon fill="midnightblue" stroke="midnightblue" points="287.876,-252.756 282.6,-243.568 280.995,-254.041 287.876,-252.756"/>
</g>
<!-- Node7 -->
<g id="node7" class="node"><title>Node7</title>
<polygon fill="none" stroke="#bfbfbf" points="530,-112.5 530,-131.5 582,-131.5 582,-112.5 530,-112.5"/>
<text text-anchor="middle" x="556" y="-119.5" font-family="Helvetica,sans-Serif" font-size="10.00">assert.h</text>
</g>
<!-- Node6&#45;&gt;Node7 -->
<g id="edge6" class="edge"><title>Node6&#45;&gt;Node7</title>
<path fill="none" stroke="midnightblue" d="M533.459,-168.083C537.154,-160.691 542.523,-149.953 547.094,-140.811"/>
<polygon fill="midnightblue" stroke="midnightblue" points="550.283,-142.261 551.624,-131.751 544.022,-139.13 550.283,-142.261"/>
</g>
<!-- Node8 -->
<g id="node8" class="node"><title>Node8</title>
<polygon fill="none" stroke="#bfbfbf" points="619,-0.5 619,-19.5 675,-19.5 675,-0.5 619,-0.5"/>
<text text-anchor="middle" x="647" y="-7.5" font-family="Helvetica,sans-Serif" font-size="10.00">stdbool.h</text>
</g>
<!-- Node6&#45;&gt;Node8 -->
<g id="edge7" class="edge"><title>Node6&#45;&gt;Node8</title>
<path fill="none" stroke="midnightblue" d="M545.026,-168.485C558.71,-160.551 578.159,-147.615 591,-132 616.998,-100.384 633.8,-54.7123 641.705,-29.4877"/>
<polygon fill="midnightblue" stroke="midnightblue" points="645.107,-30.3287 644.631,-19.7445 638.402,-28.3153 645.107,-30.3287"/>
</g>
<!-- Node6&#45;&gt;Node9 -->
<g id="edge8" class="edge"><title>Node6&#45;&gt;Node9</title>
<path fill="none" stroke="midnightblue" d="M501.883,-168.439C483.666,-161.378 460.437,-149.626 446,-132 435.138,-118.738 430.164,-99.6121 427.892,-85.5389"/>
<polygon fill="midnightblue" stroke="midnightblue" points="431.353,-85.008 426.59,-75.5443 424.412,-85.9129 431.353,-85.008"/>
</g>
<!-- Node12 -->
<g id="node12" class="node"><title>Node12</title>
<g id="a_node12"><a xlink:href="../../df/d28/ciptypes_8h.html" target="_top" xlink:title="ciptypes.h">
<polygon fill="none" stroke="black" points="828,-112.5 828,-131.5 890,-131.5 890,-112.5 828,-112.5"/>
<text text-anchor="middle" x="859" y="-119.5" font-family="Helvetica,sans-Serif" font-size="10.00">ciptypes.h</text>
</a>
</g>
</g>
<!-- Node6&#45;&gt;Node12 -->
<g id="edge12" class="edge"><title>Node6&#45;&gt;Node12</title>
<path fill="none" stroke="midnightblue" d="M565.26,-171.067C627.083,-160.95 752.511,-140.426 817.647,-129.767"/>
<polygon fill="midnightblue" stroke="midnightblue" points="818.261,-133.213 827.564,-128.144 817.13,-126.305 818.261,-133.213"/>
</g>
<!-- Node16 -->
<g id="node16" class="node"><title>Node16</title>
<g id="a_node16"><a xlink:href="../../d6/d52/ciperror_8h.html" target="_top" xlink:title="ciperror.h">
<polygon fill="none" stroke="black" points="454.5,-112.5 454.5,-131.5 511.5,-131.5 511.5,-112.5 454.5,-112.5"/>
<text text-anchor="middle" x="483" y="-119.5" font-family="Helvetica,sans-Serif" font-size="10.00">ciperror.h</text>
</a>
</g>
</g>
<!-- Node6&#45;&gt;Node16 -->
<g id="edge18" class="edge"><title>Node6&#45;&gt;Node16</title>
<path fill="none" stroke="midnightblue" d="M521.404,-168.083C514.773,-160.298 504.979,-148.801 496.942,-139.367"/>
<polygon fill="midnightblue" stroke="midnightblue" points="499.604,-137.094 490.455,-131.751 494.275,-141.633 499.604,-137.094"/>
</g>
<!-- Node9&#45;&gt;Node8 -->
<g id="edge11" class="edge"><title>Node9&#45;&gt;Node8</title>
<path fill="none" stroke="midnightblue" d="M457.195,-57.3776C497.07,-47.6345 566.065,-30.776 608.974,-20.2913"/>
<polygon fill="midnightblue" stroke="midnightblue" points="609.879,-23.6732 618.763,-17.8996 608.218,-16.8733 609.879,-23.6732"/>
</g>
<!-- Node10 -->
<g id="node10" class="node"><title>Node10</title>
<polygon fill="none" stroke="#bfbfbf" points="359.5,-0.5 359.5,-19.5 418.5,-19.5 418.5,-0.5 359.5,-0.5"/>
<text text-anchor="middle" x="389" y="-7.5" font-family="Helvetica,sans-Serif" font-size="10.00">inttypes.h</text>
</g>
<!-- Node9&#45;&gt;Node10 -->
<g id="edge9" class="edge"><title>Node9&#45;&gt;Node10</title>
<path fill="none" stroke="midnightblue" d="M419.89,-56.083C414.718,-48.5341 407.154,-37.4948 400.806,-28.2298"/>
<polygon fill="midnightblue" stroke="midnightblue" points="403.536,-26.0221 394.996,-19.7511 397.761,-29.9787 403.536,-26.0221"/>
</g>
<!-- Node11 -->
<g id="node11" class="node"><title>Node11</title>
<polygon fill="none" stroke="#bfbfbf" points="437,-0.5 437,-19.5 489,-19.5 489,-0.5 437,-0.5"/>
<text text-anchor="middle" x="463" y="-7.5" font-family="Helvetica,sans-Serif" font-size="10.00">stddef.h</text>
</g>
<!-- Node9&#45;&gt;Node11 -->
<g id="edge10" class="edge"><title>Node9&#45;&gt;Node11</title>
<path fill="none" stroke="midnightblue" d="M432.11,-56.083C437.282,-48.5341 444.846,-37.4948 451.194,-28.2298"/>
<polygon fill="midnightblue" stroke="midnightblue" points="454.239,-29.9787 457.004,-19.7511 448.464,-26.0221 454.239,-29.9787"/>
</g>
<!-- Node12&#45;&gt;Node9 -->
<g id="edge13" class="edge"><title>Node12&#45;&gt;Node9</title>
<path fill="none" stroke="midnightblue" d="M827.86,-117.116C751.182,-107.554 553.245,-82.8689 467.086,-72.1239"/>
<polygon fill="midnightblue" stroke="midnightblue" points="467.505,-68.6491 457.148,-70.8846 466.638,-75.5953 467.505,-68.6491"/>
</g>
<!-- Node12&#45;&gt;Node13 -->
<g id="edge14" class="edge"><title>Node12&#45;&gt;Node13</title>
<path fill="none" stroke="midnightblue" d="M888.789,-112.444C920.829,-103.241 971.933,-88.5617 1007.35,-78.3879"/>
<polygon fill="midnightblue" stroke="midnightblue" points="1008.71,-81.6412 1017.35,-75.5164 1006.77,-74.9132 1008.71,-81.6412"/>
</g>
<!-- Node14 -->
<g id="node14" class="node"><title>Node14</title>
<g id="a_node14"><a xlink:href="../../d8/d2c/enipmessage_8h.html" target="_top" xlink:title="enipmessage.h">
<polygon fill="none" stroke="black" points="785.5,-56.5 785.5,-75.5 868.5,-75.5 868.5,-56.5 785.5,-56.5"/>
<text text-anchor="middle" x="827" y="-63.5" font-family="Helvetica,sans-Serif" font-size="10.00">enipmessage.h</text>
</a>
</g>
</g>
<!-- Node12&#45;&gt;Node14 -->
<g id="edge15" class="edge"><title>Node12&#45;&gt;Node14</title>
<path fill="none" stroke="midnightblue" d="M853.716,-112.083C849.289,-104.613 842.837,-93.7244 837.382,-84.5199"/>
<polygon fill="midnightblue" stroke="midnightblue" points="840.295,-82.5697 832.186,-75.7511 834.273,-86.1383 840.295,-82.5697"/>
</g>
<!-- Node15 -->
<g id="node15" class="node"><title>Node15</title>
<polygon fill="none" stroke="#bfbfbf" points="865,-0.5 865,-19.5 967,-19.5 967,-0.5 865,-0.5"/>
<text text-anchor="middle" x="916" y="-7.5" font-family="Helvetica,sans-Serif" font-size="10.00">opener_user_conf.h</text>
</g>
<!-- Node12&#45;&gt;Node15 -->
<g id="edge17" class="edge"><title>Node12&#45;&gt;Node15</title>
<path fill="none" stroke="midnightblue" d="M863.473,-112.368C872.796,-94.376 894.469,-52.5503 906.866,-28.6267"/>
<polygon fill="midnightblue" stroke="midnightblue" points="910.055,-30.0805 911.548,-19.5914 903.84,-26.8599 910.055,-30.0805"/>
</g>
<!-- Node14&#45;&gt;Node15 -->
<g id="edge16" class="edge"><title>Node14&#45;&gt;Node15</title>
<path fill="none" stroke="midnightblue" d="M841.299,-56.324C855.183,-47.9002 876.492,-34.9709 892.804,-25.0741"/>
<polygon fill="midnightblue" stroke="midnightblue" points="895.002,-27.8341 901.736,-19.6545 891.371,-21.8495 895.002,-27.8341"/>
</g>
<!-- Node17&#45;&gt;Node9 -->
<g id="edge21" class="edge"><title>Node17&#45;&gt;Node9</title>
<path fill="none" stroke="midnightblue" d="M227.805,-280.27C226.404,-267.486 225.072,-243.118 232,-224 253.29,-165.249 267.502,-150.144 317,-112 337.11,-96.5032 363.314,-85.4606 384.989,-78.1933"/>
<polygon fill="midnightblue" stroke="midnightblue" points="386.135,-81.5014 394.591,-75.1175 384,-74.835 386.135,-81.5014"/>
</g>
<!-- Node18&#45;&gt;Node6 -->
<g id="edge24" class="edge"><title>Node18&#45;&gt;Node6</title>
<path fill="none" stroke="midnightblue" d="M529,-280.368C529,-262.617 529,-221.666 529,-197.597"/>
<polygon fill="midnightblue" stroke="midnightblue" points="532.5,-197.591 529,-187.591 525.5,-197.591 532.5,-197.591"/>
</g>
<!-- Node18&#45;&gt;Node9 -->
<g id="edge25" class="edge"><title>Node18&#45;&gt;Node9</title>
<path fill="none" stroke="midnightblue" d="M521.329,-280.24C502.033,-257.61 451.557,-194.579 431,-132 426.082,-117.03 425.035,-99.1189 425.102,-85.8926"/>
<polygon fill="midnightblue" stroke="midnightblue" points="428.607,-85.7585 425.379,-75.6673 421.61,-85.5688 428.607,-85.7585"/>
</g>
<!-- Node18&#45;&gt;Node12 -->
<g id="edge26" class="edge"><title>Node18&#45;&gt;Node12</title>
<path fill="none" stroke="midnightblue" d="M590.13,-283.78C639.466,-278.095 709.967,-266.599 768,-244 811.9,-226.905 834.805,-229.005 858,-188 865.901,-174.032 865.334,-155.529 863.268,-141.837"/>
<polygon fill="midnightblue" stroke="midnightblue" points="866.641,-140.841 861.333,-131.672 859.765,-142.15 866.641,-140.841"/>
</g>
<!-- Node18&#45;&gt;Node15 -->
<g id="edge23" class="edge"><title>Node18&#45;&gt;Node15</title>
<path fill="none" stroke="midnightblue" d="M590.27,-286.555C712.071,-280.02 973,-256.925 973,-179 973,-179 973,-179 973,-121 973,-84.3005 947.679,-47.6567 930.79,-27.2973"/>
<polygon fill="midnightblue" stroke="midnightblue" points="933.348,-24.9037 924.167,-19.6161 928.046,-29.475 933.348,-24.9037"/>
</g>
<!-- Node19 -->
<g id="node19" class="node"><title>Node19</title>
<g id="a_node19"><a xlink:href="../../d1/d6c/cipconnectionobject_8h.html" target="_top" xlink:title="cipconnectionobject.h">
<polygon fill="none" stroke="black" points="648.5,-224.5 648.5,-243.5 759.5,-243.5 759.5,-224.5 648.5,-224.5"/>
<text text-anchor="middle" x="704" y="-231.5" font-family="Helvetica,sans-Serif" font-size="10.00">cipconnectionobject.h</text>
</a>
</g>
</g>
<!-- Node18&#45;&gt;Node19 -->
<g id="edge27" class="edge"><title>Node18&#45;&gt;Node19</title>
<path fill="none" stroke="midnightblue" d="M556.729,-280.444C586.426,-271.28 633.716,-256.688 666.669,-246.519"/>
<polygon fill="midnightblue" stroke="midnightblue" points="667.877,-249.809 676.4,-243.516 665.813,-243.121 667.877,-249.809"/>
</g>
<!-- Node19&#45;&gt;Node6 -->
<g id="edge31" class="edge"><title>Node19&#45;&gt;Node6</title>
<path fill="none" stroke="midnightblue" d="M676.271,-224.444C646.574,-215.28 599.284,-200.688 566.331,-190.519"/>
<polygon fill="midnightblue" stroke="midnightblue" points="567.187,-187.121 556.6,-187.516 565.123,-193.809 567.187,-187.121"/>
</g>
<!-- Node19&#45;&gt;Node9 -->
<g id="edge28" class="edge"><title>Node19&#45;&gt;Node9</title>
<path fill="none" stroke="midnightblue" d="M671.153,-224.42C651.345,-217.632 627.103,-206.197 612,-188 589.62,-161.034 615.821,-136.738 591,-112 558.321,-79.4295 504.521,-69.8193 467.281,-67.2962"/>
<polygon fill="midnightblue" stroke="midnightblue" points="467.42,-63.7988 457.248,-66.7593 467.046,-70.7888 467.42,-63.7988"/>
</g>
<!-- Node19&#45;&gt;Node12 -->
<g id="edge29" class="edge"><title>Node19&#45;&gt;Node12</title>
<path fill="none" stroke="midnightblue" d="M759.603,-226.495C786.807,-220.605 818.109,-209.382 839,-188 850.98,-175.739 855.804,-156.478 857.736,-142.101"/>
<polygon fill="midnightblue" stroke="midnightblue" points="861.249,-142.14 858.747,-131.845 854.283,-141.454 861.249,-142.14"/>
</g>
<!-- Node19&#45;&gt;Node15 -->
<g id="edge30" class="edge"><title>Node19&#45;&gt;Node15</title>
<path fill="none" stroke="midnightblue" d="M759.563,-225.909C790.73,-219.803 829.043,-208.56 858,-188 909.613,-151.354 916.206,-67.2609 916.451,-29.7079"/>
<polygon fill="midnightblue" stroke="midnightblue" points="919.95,-29.6218 916.366,-19.6518 912.951,-29.681 919.95,-29.6218"/>
</g>
<!-- Node20 -->
<g id="node20" class="node"><title>Node20</title>
<g id="a_node20"><a xlink:href="../../d9/d31/doublylinkedlist_8h.html" target="_top" xlink:title="doublylinkedlist.h">
<polygon fill="none" stroke="black" points="621,-168.5 621,-187.5 713,-187.5 713,-168.5 621,-168.5"/>
<text text-anchor="middle" x="667" y="-175.5" font-family="Helvetica,sans-Serif" font-size="10.00">doublylinkedlist.h</text>
</a>
</g>
</g>
<!-- Node19&#45;&gt;Node20 -->
<g id="edge32" class="edge"><title>Node19&#45;&gt;Node20</title>
<path fill="none" stroke="midnightblue" d="M697.89,-224.083C692.718,-216.534 685.154,-205.495 678.806,-196.23"/>
<polygon fill="midnightblue" stroke="midnightblue" points="681.536,-194.022 672.996,-187.751 675.761,-197.979 681.536,-194.022"/>
</g>
<!-- Node21 -->
<g id="node21" class="node"><title>Node21</title>
<g id="a_node21"><a xlink:href="../../d0/d23/cipelectronickey_8h.html" target="_top" xlink:title="cipelectronickey.h">
<polygon fill="none" stroke="black" points="676.5,-112.5 676.5,-131.5 771.5,-131.5 771.5,-112.5 676.5,-112.5"/>
<text text-anchor="middle" x="724" y="-119.5" font-family="Helvetica,sans-Serif" font-size="10.00">cipelectronickey.h</text>
</a>
</g>
</g>
<!-- Node19&#45;&gt;Node21 -->
<g id="edge33" class="edge"><title>Node19&#45;&gt;Node21</title>
<path fill="none" stroke="midnightblue" d="M708.536,-224.322C712.907,-215.463 719.251,-201.179 722,-188 725.209,-172.613 725.52,-154.739 725.135,-141.632"/>
<polygon fill="midnightblue" stroke="midnightblue" points="728.626,-141.355 724.673,-131.525 721.633,-141.674 728.626,-141.355"/>
</g>
<!-- Node22 -->
<g id="node22" class="node"><title>Node22</title>
<g id="a_node22"><a xlink:href="../../d1/d02/cipepath_8h.html" target="_top" xlink:title="cipepath.h">
<polygon fill="none" stroke="black" points="769,-168.5 769,-187.5 831,-187.5 831,-168.5 769,-168.5"/>
<text text-anchor="middle" x="800" y="-175.5" font-family="Helvetica,sans-Serif" font-size="10.00">cipepath.h</text>
</a>
</g>
</g>
<!-- Node19&#45;&gt;Node22 -->
<g id="edge36" class="edge"><title>Node19&#45;&gt;Node22</title>
<path fill="none" stroke="midnightblue" d="M719.424,-224.324C734.54,-215.822 757.815,-202.729 775.471,-192.797"/>
<polygon fill="midnightblue" stroke="midnightblue" points="777.614,-195.608 784.614,-187.655 774.183,-189.507 777.614,-195.608"/>
</g>
<!-- Node21&#45;&gt;Node8 -->
<g id="edge34" class="edge"><title>Node21&#45;&gt;Node8</title>
<path fill="none" stroke="midnightblue" d="M717.958,-112.368C705.251,-94.2153 675.561,-51.8015 658.893,-27.9902"/>
<polygon fill="midnightblue" stroke="midnightblue" points="661.616,-25.7766 653.014,-19.5914 655.881,-29.7909 661.616,-25.7766"/>
</g>
<!-- Node21&#45;&gt;Node9 -->
<g id="edge35" class="edge"><title>Node21&#45;&gt;Node9</title>
<path fill="none" stroke="midnightblue" d="M676.781,-112.444C618.963,-101.967 521.98,-84.3923 467.102,-74.448"/>
<polygon fill="midnightblue" stroke="midnightblue" points="467.502,-70.9636 457.038,-72.6243 466.254,-77.8514 467.502,-70.9636"/>
</g>
<!-- Node22&#45;&gt;Node8 -->
<g id="edge37" class="edge"><title>Node22&#45;&gt;Node8</title>
<path fill="none" stroke="midnightblue" d="M799.038,-168.262C797.224,-155.036 792.308,-129.614 780,-112 752.127,-72.1119 703.635,-41.1136 673.541,-24.4935"/>
<polygon fill="midnightblue" stroke="midnightblue" points="674.93,-21.2667 664.466,-19.6096 671.613,-27.4307 674.93,-21.2667"/>
</g>
<!-- Node22&#45;&gt;Node12 -->
<g id="edge38" class="edge"><title>Node22&#45;&gt;Node12</title>
<path fill="none" stroke="midnightblue" d="M809.479,-168.324C818.201,-160.341 831.343,-148.313 841.898,-138.653"/>
<polygon fill="midnightblue" stroke="midnightblue" points="844.334,-141.167 849.348,-131.834 839.608,-136.004 844.334,-141.167"/>
</g>
<!-- Node22&#45;&gt;Node21 -->
<g id="edge39" class="edge"><title>Node22&#45;&gt;Node21</title>
<path fill="none" stroke="midnightblue" d="M787.789,-168.324C776.224,-160.107 758.625,-147.602 744.839,-137.807"/>
<polygon fill="midnightblue" stroke="midnightblue" points="746.612,-134.773 736.433,-131.834 742.557,-140.479 746.612,-134.773"/>
</g>
<!-- Node23&#45;&gt;Node18 -->
<g id="edge42" class="edge"><title>Node23&#45;&gt;Node18</title>
<path fill="none" stroke="midnightblue" d="M467.729,-336.324C478.837,-328.107 495.742,-315.602 508.983,-305.807"/>
<polygon fill="midnightblue" stroke="midnightblue" points="511.1,-308.595 517.058,-299.834 506.937,-302.967 511.1,-308.595"/>
</g>
<!-- Node24&#45;&gt;Node9 -->
<g id="edge44" class="edge"><title>Node24&#45;&gt;Node9</title>
<path fill="none" stroke="midnightblue" d="M282.843,-224.247C287.805,-202.607 303.336,-145.896 336,-112 350.217,-97.247 370.297,-86.5668 387.884,-79.3242"/>
<polygon fill="midnightblue" stroke="midnightblue" points="389.29,-82.5327 397.345,-75.6501 386.756,-76.0075 389.29,-82.5327"/>
</g>
</g>
</svg>
        <g id="navigator" transform="translate(0 0)" fill="#404254">
                <rect fill="#f2f5e9" fill-opacity="0.5" stroke="#606060" stroke-width=".5" x="0" y="0" width="60" height="60"/>
                <use id="zoomplus" xlink:href="#zoomPlus" x="17" y="9" onmousedown="handleZoom(evt,'in')"/>
                <use id="zoomminus" xlink:href="#zoomMin" x="42" y="9" onmousedown="handleZoom(evt,'out')"/>
                <use id="reset" xlink:href="#resetDef" x="30" y="36" onmousedown="handleReset()"/>
                <g id="arrowUp" xlink:href="#dirArrow" transform="translate(30 24)" onmousedown="handlePan(0,-1)">
                  <use xlink:href="#rim" fill="#404040">
                        <set attributeName="fill" to="#808080" begin="arrowUp.mouseover" end="arrowUp.mouseout"/>
                  </use>
                  <path fill="none" stroke="white" stroke-width="1.5" d="M0,-3.0v7 M-2.5,-0.5L0,-3.0L2.5,-0.5"/>
                </g>
                <g id="arrowRight" xlink:href="#dirArrow" transform="rotate(90) translate(36 -43)" onmousedown="handlePan(1,0)">
                  <use xlink:href="#rim" fill="#404040">
                        <set attributeName="fill" to="#808080" begin="arrowRight.mouseover" end="arrowRight.mouseout"/>
                  </use>
                  <path fill="none" stroke="white" stroke-width="1.5" d="M0,-3.0v7 M-2.5,-0.5L0,-3.0L2.5,-0.5"/>
                </g>
                <g id="arrowDown" xlink:href="#dirArrow" transform="rotate(180) translate(-30 -48)" onmousedown="handlePan(0,1)">
                  <use xlink:href="#rim" fill="#404040">
                        <set attributeName="fill" to="#808080" begin="arrowDown.mouseover" end="arrowDown.mouseout"/>
                  </use>
                  <path fill="none" stroke="white" stroke-width="1.5" d="M0,-3.0v7 M-2.5,-0.5L0,-3.0L2.5,-0.5"/>
                </g>
                <g id="arrowLeft" xlink:href="#dirArrow" transform="rotate(270) translate(-36 17)" onmousedown="handlePan(-1,0)">
                  <use xlink:href="#rim" fill="#404040">
                        <set attributeName="fill" to="#808080" begin="arrowLeft.mouseover" end="arrowLeft.mouseout"/>
                  </use>
                  <path fill="none" stroke="white" stroke-width="1.5" d="M0,-3.0v7 M-2.5,-0.5L0,-3.0L2.5,-0.5"/>
                </g>
        </g>
        <svg viewBox="0 0 15 15" width="100%" height="30px" preserveAspectRatio="xMaxYMin meet">
         <g id="arrow_out" transform="scale(0.3 0.3)">
          <a xlink:href="generic__networkhandler_8h__incl_org.svg" target="_base">
           <rect id="button" ry="5" rx="5" y="6" x="6" height="38" width="38"
                fill="#f2f5e9" fill-opacity="0.5" stroke="#606060" stroke-width="1.0"/>
           <path id="arrow"
             d="M 11.500037,31.436501 C 11.940474,20.09759 22.043105,11.32322 32.158766,21.979434 L 37.068811,17.246167 C 37.068811,17.246167 37.088388,32 37.088388,32 L 22.160133,31.978069 C 22.160133,31.978069 26.997745,27.140456 26.997745,27.140456 C 18.528582,18.264221 13.291696,25.230495 11.500037,31.436501 z"
             style="fill:#404040;"/>
          </a>
         </g>
        </svg>
</svg>
