<?xml version="1.0" encoding="UTF-8" standalone="no"?>
<!DOCTYPE svg PUBLIC "-//W3C//DTD SVG 1.1//EN"
 "http://www.w3.org/Graphics/SVG/1.1/DTD/svg11.dtd">
<!-- Generated by graphviz version 2.38.0 (20140413.2041)
 -->
<!-- Title: src/cip/cipelectronickey.h Pages: 1 -->
<svg width="2506pt" height="375pt"
 viewBox="0.00 0.00 2505.50 375.00" xmlns="http://www.w3.org/2000/svg" xmlns:xlink="http://www.w3.org/1999/xlink">
<g id="graph0" class="graph" transform="scale(1 1) rotate(0) translate(4 371)">
<title>src/cip/cipelectronickey.h</title>
<!-- Node1 -->
<g id="node1" class="node"><title>Node1</title>
<polygon fill="#bfbfbf" stroke="black" points="1288.5,-347.5 1288.5,-366.5 1416.5,-366.5 1416.5,-347.5 1288.5,-347.5"/>
<text text-anchor="middle" x="1352.5" y="-354.5" font-family="Helvetica,sans-Serif" font-size="10.00">src/cip/cipelectronickey.h</text>
</g>
<!-- Node2 -->
<g id="node2" class="node"><title>Node2</title>
<g id="a_node2"><a xlink:href="../../d1/d6c/cipconnectionobject_8h.html" target="_top" xlink:title="src/cip/cipconnectionobject.h">
<polygon fill="none" stroke="black" points="555,-235.5 555,-254.5 698,-254.5 698,-235.5 555,-235.5"/>
<text text-anchor="middle" x="626.5" y="-242.5" font-family="Helvetica,sans-Serif" font-size="10.00">src/cip/cipconnectionobject.h</text>
</a>
</g>
</g>
<!-- Node1&#45;&gt;Node2 -->
<g id="edge1" class="edge"><title>Node1&#45;&gt;Node2</title>
<path fill="none" stroke="midnightblue" d="M1285.85,-345.902C1144.11,-324.425 814.915,-274.548 682.828,-254.535"/>
<polygon fill="midnightblue" stroke="midnightblue" points="1285.72,-349.422 1296.14,-347.46 1286.77,-342.501 1285.72,-349.422"/>
</g>
<!-- Node7 -->
<g id="node7" class="node"><title>Node7</title>
<g id="a_node7"><a xlink:href="../../d5/d35/cipconnectionmanager_8c.html" target="_top" xlink:title="src/cip/cipconnectionmanager.c">
<polygon fill="none" stroke="black" points="175,-6 175,-25 330,-25 330,-6 175,-6"/>
<text text-anchor="middle" x="252.5" y="-13" font-family="Helvetica,sans-Serif" font-size="10.00">src/cip/cipconnectionmanager.c</text>
</a>
</g>
</g>
<!-- Node1&#45;&gt;Node7 -->
<g id="edge69" class="edge"><title>Node1&#45;&gt;Node7</title>
<path fill="none" stroke="midnightblue" d="M1278.23,-352.389C1075.25,-341.923 514.67,-308.842 338.5,-255 219.149,-218.523 131.825,-210.448 113.5,-87 112.195,-78.2075 108.399,-74.2799 113.5,-67 129.264,-44.5004 156.133,-31.9869 182.071,-25.0422"/>
<polygon fill="midnightblue" stroke="midnightblue" points="1278.32,-355.899 1288.48,-352.915 1278.68,-348.908 1278.32,-355.899"/>
</g>
<!-- Node31 -->
<g id="node31" class="node"><title>Node31</title>
<g id="a_node31"><a xlink:href="../../d1/d02/cipepath_8h.html" target="_top" xlink:title="src/cip/cipepath.h">
<polygon fill="none" stroke="black" points="1305.5,-291.5 1305.5,-310.5 1399.5,-310.5 1399.5,-291.5 1305.5,-291.5"/>
<text text-anchor="middle" x="1352.5" y="-298.5" font-family="Helvetica,sans-Serif" font-size="10.00">src/cip/cipepath.h</text>
</a>
</g>
</g>
<!-- Node1&#45;&gt;Node31 -->
<g id="edge63" class="edge"><title>Node1&#45;&gt;Node31</title>
<path fill="none" stroke="midnightblue" d="M1352.5,-336.805C1352.5,-327.91 1352.5,-317.78 1352.5,-310.751"/>
<polygon fill="midnightblue" stroke="midnightblue" points="1349,-337.083 1352.5,-347.083 1356,-337.083 1349,-337.083"/>
</g>
<!-- Node32 -->
<g id="node32" class="node"><title>Node32</title>
<g id="a_node32"><a xlink:href="../../de/ddc/cipepath_8c.html" target="_top" xlink:title="src/cip/cipepath.c">
<polygon fill="none" stroke="black" points="1636.5,-235.5 1636.5,-254.5 1730.5,-254.5 1730.5,-235.5 1636.5,-235.5"/>
<text text-anchor="middle" x="1683.5" y="-242.5" font-family="Helvetica,sans-Serif" font-size="10.00">src/cip/cipepath.c</text>
</a>
</g>
</g>
<!-- Node1&#45;&gt;Node32 -->
<g id="edge71" class="edge"><title>Node1&#45;&gt;Node32</title>
<path fill="none" stroke="midnightblue" d="M1369.94,-340.559C1387.87,-325.538 1417.24,-303.243 1446.5,-291 1463.76,-283.775 1572.47,-264.7 1636.5,-253.846"/>
<polygon fill="midnightblue" stroke="midnightblue" points="1367.42,-338.109 1362.1,-347.273 1371.98,-343.424 1367.42,-338.109"/>
</g>
<!-- Node33 -->
<g id="node33" class="node"><title>Node33</title>
<g id="a_node33"><a xlink:href="../../d3/dfe/cipelectronickey_8c.html" target="_top" xlink:title="src/cip/cipelectronickey.c">
<polygon fill="none" stroke="black" points="1455.5,-291.5 1455.5,-310.5 1583.5,-310.5 1583.5,-291.5 1455.5,-291.5"/>
<text text-anchor="middle" x="1519.5" y="-298.5" font-family="Helvetica,sans-Serif" font-size="10.00">src/cip/cipelectronickey.c</text>
</a>
</g>
</g>
<!-- Node1&#45;&gt;Node33 -->
<g id="edge70" class="edge"><title>Node1&#45;&gt;Node33</title>
<path fill="none" stroke="midnightblue" d="M1388.67,-344.304C1420.14,-334.129 1464.99,-319.625 1493.16,-310.516"/>
<polygon fill="midnightblue" stroke="midnightblue" points="1387.4,-341.037 1378.96,-347.444 1389.55,-347.697 1387.4,-341.037"/>
</g>
<!-- Node3 -->
<g id="node3" class="node"><title>Node3</title>
<g id="a_node3"><a xlink:href="../../d2/da3/cipconnectionmanager_8h.html" target="_top" xlink:title="src/cip/cipconnectionmanager.h">
<polygon fill="none" stroke="black" points="827,-179.5 827,-198.5 982,-198.5 982,-179.5 827,-179.5"/>
<text text-anchor="middle" x="904.5" y="-186.5" font-family="Helvetica,sans-Serif" font-size="10.00">src/cip/cipconnectionmanager.h</text>
</a>
</g>
</g>
<!-- Node2&#45;&gt;Node3 -->
<g id="edge2" class="edge"><title>Node2&#45;&gt;Node3</title>
<path fill="none" stroke="midnightblue" d="M680.692,-233.473C733.232,-223.268 811.939,-207.979 860.656,-198.516"/>
<polygon fill="midnightblue" stroke="midnightblue" points="679.699,-230.101 670.55,-235.444 681.034,-236.972 679.699,-230.101"/>
</g>
<!-- Node5 -->
<g id="node5" class="node"><title>Node5</title>
<g id="a_node5"><a xlink:href="../../d1/dbc/appcontype_8c.html" target="_top" xlink:title="src/cip/appcontype.c">
<polygon fill="none" stroke="black" points="1473,-67.5 1473,-86.5 1580,-86.5 1580,-67.5 1473,-67.5"/>
<text text-anchor="middle" x="1526.5" y="-74.5" font-family="Helvetica,sans-Serif" font-size="10.00">src/cip/appcontype.c</text>
</a>
</g>
</g>
<!-- Node2&#45;&gt;Node5 -->
<g id="edge43" class="edge"><title>Node2&#45;&gt;Node5</title>
<path fill="none" stroke="midnightblue" d="M708.502,-241.577C893.722,-234.931 1338.48,-212.054 1469.5,-143 1494.46,-129.843 1513.5,-100.956 1521.86,-86.5373"/>
<polygon fill="midnightblue" stroke="midnightblue" points="708.15,-238.087 698.279,-241.937 708.396,-245.083 708.15,-238.087"/>
</g>
<!-- Node2&#45;&gt;Node7 -->
<g id="edge45" class="edge"><title>Node2&#45;&gt;Node7</title>
<path fill="none" stroke="midnightblue" d="M544.899,-234.582C427.446,-219.685 218.169,-187.716 157.5,-143 127.857,-121.152 103.783,-97.4444 124.5,-67 139.888,-44.386 167.117,-31.8986 192.517,-25.0031"/>
<polygon fill="midnightblue" stroke="midnightblue" points="544.571,-238.068 554.929,-235.841 545.442,-231.123 544.571,-238.068"/>
</g>
<!-- Node14 -->
<g id="node14" class="node"><title>Node14</title>
<g id="a_node14"><a xlink:href="../../d9/dfb/POSIX_2main_8c.html" target="_top" xlink:title="src/ports/POSIX/main.c">
<polygon fill="none" stroke="black" points="0,-6 0,-25 121,-25 121,-6 0,-6"/>
<text text-anchor="middle" x="60.5" y="-13" font-family="Helvetica,sans-Serif" font-size="10.00">src/ports/POSIX/main.c</text>
</a>
</g>
</g>
<!-- Node2&#45;&gt;Node14 -->
<g id="edge62" class="edge"><title>Node2&#45;&gt;Node14</title>
<path fill="none" stroke="midnightblue" d="M544.35,-242.678C465.236,-239.488 342.966,-229.478 241.5,-199 188.58,-183.104 170.311,-181.319 130.5,-143 93.428,-107.317 70.8416,-47.6643 63.3136,-25.3127"/>
<polygon fill="midnightblue" stroke="midnightblue" points="544.616,-246.191 554.74,-243.068 544.878,-239.196 544.616,-246.191"/>
</g>
<!-- Node20 -->
<g id="node20" class="node"><title>Node20</title>
<g id="a_node20"><a xlink:href="../../d2/d11/cipclass3connection_8h.html" target="_top" xlink:title="CIP Class 3 connection. ">
<polygon fill="none" stroke="black" points="166.5,-123.5 166.5,-142.5 312.5,-142.5 312.5,-123.5 166.5,-123.5"/>
<text text-anchor="middle" x="239.5" y="-130.5" font-family="Helvetica,sans-Serif" font-size="10.00">src/cip/cipclass3connection.h</text>
</a>
</g>
</g>
<!-- Node2&#45;&gt;Node20 -->
<g id="edge44" class="edge"><title>Node2&#45;&gt;Node20</title>
<path fill="none" stroke="midnightblue" d="M586.555,-232.646C508.778,-210.539 338.597,-162.167 269.526,-142.535"/>
<polygon fill="midnightblue" stroke="midnightblue" points="585.879,-236.093 596.455,-235.46 587.793,-229.359 585.879,-236.093"/>
</g>
<!-- Node25 -->
<g id="node25" class="node"><title>Node25</title>
<g id="a_node25"><a xlink:href="../../de/d45/cipioconnection_8h.html" target="_top" xlink:title="src/cip/cipioconnection.h">
<polygon fill="none" stroke="black" points="492,-123.5 492,-142.5 617,-142.5 617,-123.5 492,-123.5"/>
<text text-anchor="middle" x="554.5" y="-130.5" font-family="Helvetica,sans-Serif" font-size="10.00">src/cip/cipioconnection.h</text>
</a>
</g>
</g>
<!-- Node2&#45;&gt;Node25 -->
<g id="edge46" class="edge"><title>Node2&#45;&gt;Node25</title>
<path fill="none" stroke="midnightblue" d="M615.345,-226.957C599.741,-203.118 571.982,-160.709 560.123,-142.591"/>
<polygon fill="midnightblue" stroke="midnightblue" points="612.445,-228.918 620.85,-235.368 618.302,-225.085 612.445,-228.918"/>
</g>
<!-- Node26 -->
<g id="node26" class="node"><title>Node26</title>
<g id="a_node26"><a xlink:href="../../df/d91/cipconnectionobject_8c.html" target="_top" xlink:title="src/cip/cipconnectionobject.c">
<polygon fill="none" stroke="black" points="331,-123.5 331,-142.5 474,-142.5 474,-123.5 331,-123.5"/>
<text text-anchor="middle" x="402.5" y="-130.5" font-family="Helvetica,sans-Serif" font-size="10.00">src/cip/cipconnectionobject.c</text>
</a>
</g>
</g>
<!-- Node2&#45;&gt;Node26 -->
<g id="edge47" class="edge"><title>Node2&#45;&gt;Node26</title>
<path fill="none" stroke="midnightblue" d="M599.78,-230.878C553.349,-208.078 459.011,-161.751 419.995,-142.591"/>
<polygon fill="midnightblue" stroke="midnightblue" points="598.404,-234.102 608.923,-235.368 601.49,-227.819 598.404,-234.102"/>
</g>
<!-- Node28 -->
<g id="node28" class="node"><title>Node28</title>
<g id="a_node28"><a xlink:href="../../d7/df9/encap_8h.html" target="_top" xlink:title="This file contains the public interface of the encapsulation layer. ">
<polygon fill="none" stroke="black" points="674,-123.5 674,-142.5 795,-142.5 795,-123.5 674,-123.5"/>
<text text-anchor="middle" x="734.5" y="-130.5" font-family="Helvetica,sans-Serif" font-size="10.00">src/enet_encap/encap.h</text>
</a>
</g>
</g>
<!-- Node2&#45;&gt;Node28 -->
<g id="edge48" class="edge"><title>Node2&#45;&gt;Node28</title>
<path fill="none" stroke="midnightblue" d="M642.008,-228.205C665.157,-204.627 707.962,-161.029 726.065,-142.591"/>
<polygon fill="midnightblue" stroke="midnightblue" points="639.483,-225.781 634.975,-235.368 644.478,-230.685 639.483,-225.781"/>
</g>
<!-- Node4 -->
<g id="node4" class="node"><title>Node4</title>
<g id="a_node4"><a xlink:href="../../d1/dc0/appcontype_8h.html" target="_top" xlink:title="src/cip/appcontype.h">
<polygon fill="none" stroke="black" points="1321,-123.5 1321,-142.5 1428,-142.5 1428,-123.5 1321,-123.5"/>
<text text-anchor="middle" x="1374.5" y="-130.5" font-family="Helvetica,sans-Serif" font-size="10.00">src/cip/appcontype.h</text>
</a>
</g>
</g>
<!-- Node3&#45;&gt;Node4 -->
<g id="edge3" class="edge"><title>Node3&#45;&gt;Node4</title>
<path fill="none" stroke="midnightblue" d="M992.586,-178.655C1074.07,-169.888 1198.54,-156.186 1306.5,-143 1311.11,-142.437 1315.89,-141.837 1320.69,-141.223"/>
<polygon fill="midnightblue" stroke="midnightblue" points="991.94,-175.204 982.371,-179.752 992.688,-182.164 991.94,-175.204"/>
</g>
<!-- Node3&#45;&gt;Node5 -->
<g id="edge20" class="edge"><title>Node3&#45;&gt;Node5</title>
<path fill="none" stroke="midnightblue" d="M992.444,-186.239C1122.02,-182.685 1357.43,-172.305 1436.5,-143 1470.48,-130.407 1503.09,-101.255 1518.01,-86.6566"/>
<polygon fill="midnightblue" stroke="midnightblue" points="992.058,-182.748 982.155,-186.513 992.244,-189.745 992.058,-182.748"/>
</g>
<!-- Node6 -->
<g id="node6" class="node"><title>Node6</title>
<g id="a_node6"><a xlink:href="../../d2/d3d/cipcommon_8c.html" target="_top" xlink:title="src/cip/cipcommon.c">
<polygon fill="none" stroke="black" points="1759,-6 1759,-25 1866,-25 1866,-6 1759,-6"/>
<text text-anchor="middle" x="1812.5" y="-13" font-family="Helvetica,sans-Serif" font-size="10.00">src/cip/cipcommon.c</text>
</a>
</g>
</g>
<!-- Node3&#45;&gt;Node6 -->
<g id="edge25" class="edge"><title>Node3&#45;&gt;Node6</title>
<path fill="none" stroke="midnightblue" d="M959.308,-177.548C1043.35,-161.058 1208.79,-126.757 1346.5,-87 1372.29,-79.5534 1377.3,-72.8737 1403.5,-67 1554.36,-33.1748 1596.99,-56.3865 1749.5,-31 1759.13,-29.3967 1769.49,-27.2085 1778.98,-25.0181"/>
<polygon fill="midnightblue" stroke="midnightblue" points="958.613,-174.118 949.47,-179.47 959.955,-180.988 958.613,-174.118"/>
</g>
<!-- Node3&#45;&gt;Node7 -->
<g id="edge34" class="edge"><title>Node3&#45;&gt;Node7</title>
<path fill="none" stroke="midnightblue" d="M818.706,-178.04C772.232,-171.129 714.294,-160.033 664.5,-143 646.069,-136.695 644.18,-128.525 625.5,-123 549.675,-100.571 331.751,-138.208 271.5,-87 253.148,-71.4023 251.571,-40.123 251.978,-25.0314"/>
<polygon fill="midnightblue" stroke="midnightblue" points="818.345,-181.524 828.744,-179.494 819.349,-174.596 818.345,-181.524"/>
</g>
<!-- Node8 -->
<g id="node8" class="node"><title>Node8</title>
<g id="a_node8"><a xlink:href="../../df/d03/cipioconnection_8c.html" target="_top" xlink:title="src/cip/cipioconnection.c">
<polygon fill="none" stroke="black" points="772,-6 772,-25 897,-25 897,-6 772,-6"/>
<text text-anchor="middle" x="834.5" y="-13" font-family="Helvetica,sans-Serif" font-size="10.00">src/cip/cipioconnection.c</text>
</a>
</g>
</g>
<!-- Node3&#45;&gt;Node8 -->
<g id="edge39" class="edge"><title>Node3&#45;&gt;Node8</title>
<path fill="none" stroke="midnightblue" d="M964.745,-176.254C982.838,-169.608 1000.72,-159.221 1011.5,-143 1020.74,-129.087 1025.02,-89.5757 1006.5,-67 997.789,-56.3839 919.33,-36.4015 871.44,-25.0143"/>
<polygon fill="midnightblue" stroke="midnightblue" points="963.396,-173.014 955.009,-179.487 965.602,-179.657 963.396,-173.014"/>
</g>
<!-- Node9 -->
<g id="node9" class="node"><title>Node9</title>
<g id="a_node9"><a xlink:href="../../da/dc2/generic__networkhandler_8h.html" target="_top" xlink:title="src/ports/generic_networkhandler.h">
<polygon fill="none" stroke="black" points="1096,-67.5 1096,-86.5 1265,-86.5 1265,-67.5 1096,-67.5"/>
<text text-anchor="middle" x="1180.5" y="-74.5" font-family="Helvetica,sans-Serif" font-size="10.00">src/ports/generic_networkhandler.h</text>
</a>
</g>
</g>
<!-- Node3&#45;&gt;Node9 -->
<g id="edge42" class="edge"><title>Node3&#45;&gt;Node9</title>
<path fill="none" stroke="midnightblue" d="M945.145,-176.517C973.364,-168.162 1011.64,-156.063 1044.5,-143 1089,-125.307 1139.38,-99.6943 1164.49,-86.5258"/>
<polygon fill="midnightblue" stroke="midnightblue" points="943.845,-173.251 935.232,-179.421 945.813,-179.969 943.845,-173.251"/>
</g>
<!-- Node10 -->
<g id="node10" class="node"><title>Node10</title>
<g id="a_node10"><a xlink:href="../../d2/dbd/encap_8c.html" target="_top" xlink:title="src/enet_encap/encap.c">
<polygon fill="none" stroke="black" points="506,-6 506,-25 627,-25 627,-6 506,-6"/>
<text text-anchor="middle" x="566.5" y="-13" font-family="Helvetica,sans-Serif" font-size="10.00">src/enet_encap/encap.c</text>
</a>
</g>
</g>
<!-- Node3&#45;&gt;Node10 -->
<g id="edge41" class="edge"><title>Node3&#45;&gt;Node10</title>
<path fill="none" stroke="midnightblue" d="M884.034,-173.69C863.97,-159.936 832.289,-138.947 803.5,-123 727.342,-80.8153 631.311,-41.7053 588.658,-25.0107"/>
<polygon fill="midnightblue" stroke="midnightblue" points="882.166,-176.653 892.383,-179.456 886.143,-170.893 882.166,-176.653"/>
</g>
<!-- Node19 -->
<g id="node19" class="node"><title>Node19</title>
<g id="a_node19"><a xlink:href="../../df/d2e/cipassembly_8c.html" target="_top" xlink:title="src/cip/cipassembly.c">
<polygon fill="none" stroke="black" points="890.5,-123.5 890.5,-142.5 1002.5,-142.5 1002.5,-123.5 890.5,-123.5"/>
<text text-anchor="middle" x="946.5" y="-130.5" font-family="Helvetica,sans-Serif" font-size="10.00">src/cip/cipassembly.c</text>
</a>
</g>
</g>
<!-- Node3&#45;&gt;Node19 -->
<g id="edge21" class="edge"><title>Node3&#45;&gt;Node19</title>
<path fill="none" stroke="midnightblue" d="M917.61,-171.144C924.928,-161.736 933.741,-150.405 939.694,-142.751"/>
<polygon fill="midnightblue" stroke="midnightblue" points="914.812,-169.041 911.435,-179.083 920.338,-173.338 914.812,-169.041"/>
</g>
<!-- Node3&#45;&gt;Node20 -->
<g id="edge22" class="edge"><title>Node3&#45;&gt;Node20</title>
<path fill="none" stroke="midnightblue" d="M816.546,-182.099C702.346,-174.234 496.88,-159.389 321.5,-143 318.648,-142.733 315.741,-142.454 312.806,-142.164"/>
<polygon fill="midnightblue" stroke="midnightblue" points="816.417,-185.599 826.634,-182.792 816.897,-178.615 816.417,-185.599"/>
</g>
<!-- Node22 -->
<g id="node22" class="node"><title>Node22</title>
<g id="a_node22"><a xlink:href="../../d0/d3c/cipqos_8h.html" target="_top" xlink:title="Public interface of the QoS Object. ">
<polygon fill="none" stroke="black" points="1844.5,-67.5 1844.5,-86.5 1930.5,-86.5 1930.5,-67.5 1844.5,-67.5"/>
<text text-anchor="middle" x="1887.5" y="-74.5" font-family="Helvetica,sans-Serif" font-size="10.00">src/cip/cipqos.h</text>
</a>
</g>
</g>
<!-- Node3&#45;&gt;Node22 -->
<g id="edge26" class="edge"><title>Node3&#45;&gt;Node22</title>
<path fill="none" stroke="midnightblue" d="M992.534,-183.034C1103.85,-176.285 1301.28,-162.75 1469.5,-143 1606.99,-126.857 1768.64,-99.2456 1844.32,-85.807"/>
<polygon fill="midnightblue" stroke="midnightblue" points="992.135,-179.552 982.364,-183.646 992.556,-186.539 992.135,-179.552"/>
</g>
<!-- Node3&#45;&gt;Node25 -->
<g id="edge35" class="edge"><title>Node3&#45;&gt;Node25</title>
<path fill="none" stroke="midnightblue" d="M839.145,-177.917C773.023,-167.715 671.928,-152.117 609.699,-142.516"/>
<polygon fill="midnightblue" stroke="midnightblue" points="838.625,-181.378 849.041,-179.444 839.692,-174.46 838.625,-181.378"/>
</g>
<!-- Node3&#45;&gt;Node26 -->
<g id="edge38" class="edge"><title>Node3&#45;&gt;Node26</title>
<path fill="none" stroke="midnightblue" d="M816.537,-178.77C731.16,-169.776 597.923,-155.647 482.5,-143 479.721,-142.696 476.889,-142.384 474.027,-142.068"/>
<polygon fill="midnightblue" stroke="midnightblue" points="816.396,-182.274 826.707,-179.841 817.129,-175.313 816.396,-182.274"/>
</g>
<!-- Node27 -->
<g id="node27" class="node"><title>Node27</title>
<g id="a_node27"><a xlink:href="../../d3/d98/cpf_8c.html" target="_top" xlink:title="src/enet_encap/cpf.c">
<polygon fill="none" stroke="black" points="645.5,-6 645.5,-25 753.5,-25 753.5,-6 645.5,-6"/>
<text text-anchor="middle" x="699.5" y="-13" font-family="Helvetica,sans-Serif" font-size="10.00">src/enet_encap/cpf.c</text>
</a>
</g>
</g>
<!-- Node3&#45;&gt;Node27 -->
<g id="edge40" class="edge"><title>Node3&#45;&gt;Node27</title>
<path fill="none" stroke="midnightblue" d="M891.356,-170.549C883.12,-157.385 875.166,-138.933 881.5,-123 892.257,-95.943 933.594,-89.8124 915.5,-67 915.148,-66.5557 798.203,-39.3856 736.558,-25.0886"/>
<polygon fill="midnightblue" stroke="midnightblue" points="888.666,-172.815 897.203,-179.089 894.441,-168.86 888.666,-172.815"/>
</g>
<!-- Node4&#45;&gt;Node5 -->
<g id="edge4" class="edge"><title>Node4&#45;&gt;Node5</title>
<path fill="none" stroke="midnightblue" d="M1408.17,-120.039C1436.77,-109.879 1477.11,-95.5457 1502.53,-86.5164"/>
<polygon fill="midnightblue" stroke="midnightblue" points="1406.84,-116.798 1398.58,-123.444 1409.18,-123.394 1406.84,-116.798"/>
</g>
<!-- Node4&#45;&gt;Node6 -->
<g id="edge5" class="edge"><title>Node4&#45;&gt;Node6</title>
<path fill="none" stroke="midnightblue" d="M1384.39,-114.434C1394.03,-99.1209 1410.19,-77.7299 1430.5,-67 1556.66,-0.355066 1608.86,-55.0399 1749.5,-31 1759.01,-29.3737 1769.25,-27.2037 1778.64,-25.0388"/>
<polygon fill="midnightblue" stroke="midnightblue" points="1381.13,-113.065 1379.01,-123.447 1387.14,-116.649 1381.13,-113.065"/>
</g>
<!-- Node4&#45;&gt;Node7 -->
<g id="edge6" class="edge"><title>Node4&#45;&gt;Node7</title>
<path fill="none" stroke="midnightblue" d="M1310.38,-129.307C1199.99,-124.203 967.025,-111.386 771.5,-87 720.455,-80.6336 708.372,-74.6292 657.5,-67 543.981,-49.9755 411.952,-34.2748 330.298,-25.04"/>
<polygon fill="midnightblue" stroke="midnightblue" points="1310.53,-132.817 1320.68,-129.777 1310.85,-125.824 1310.53,-132.817"/>
</g>
<!-- Node4&#45;&gt;Node8 -->
<g id="edge7" class="edge"><title>Node4&#45;&gt;Node8</title>
<path fill="none" stroke="midnightblue" d="M1310.59,-127.348C1251.43,-121.798 1161.53,-110.186 1086.5,-87 1066.75,-80.8959 1063.99,-73.8989 1044.5,-67 1013.48,-56.0204 926.298,-36.3612 874.534,-25.083"/>
<polygon fill="midnightblue" stroke="midnightblue" points="1310.63,-130.865 1320.91,-128.283 1311.26,-123.894 1310.63,-130.865"/>
</g>
<!-- Node4&#45;&gt;Node9 -->
<g id="edge8" class="edge"><title>Node4&#45;&gt;Node9</title>
<path fill="none" stroke="midnightblue" d="M1333.9,-120.699C1297.28,-110.507 1244.24,-95.7429 1211.1,-86.5164"/>
<polygon fill="midnightblue" stroke="midnightblue" points="1333.19,-124.134 1343.76,-123.444 1335.06,-117.39 1333.19,-124.134"/>
</g>
<!-- Node17 -->
<g id="node17" class="node"><title>Node17</title>
<g id="a_node17"><a xlink:href="../../d5/daa/MINGW_2sample__application_2sampleapplication_8c.html" target="_top" xlink:title="src/ports/MINGW/sample\l_application/sampleapplication.c">
<polygon fill="none" stroke="black" points="1883.5,-0.5 1883.5,-30.5 2041.5,-30.5 2041.5,-0.5 1883.5,-0.5"/>
<text text-anchor="start" x="1891.5" y="-18.5" font-family="Helvetica,sans-Serif" font-size="10.00">src/ports/MINGW/sample</text>
<text text-anchor="middle" x="1962.5" y="-7.5" font-family="Helvetica,sans-Serif" font-size="10.00">_application/sampleapplication.c</text>
</a>
</g>
</g>
<!-- Node4&#45;&gt;Node17 -->
<g id="edge18" class="edge"><title>Node4&#45;&gt;Node17</title>
<path fill="none" stroke="midnightblue" d="M1392.87,-116.743C1414.17,-99.3867 1448.31,-72.7028 1463.5,-67 1635.17,-2.56227 1692.57,-53.9224 1874.5,-31 1877.42,-30.6322 1880.39,-30.2392 1883.39,-29.8266"/>
<polygon fill="midnightblue" stroke="midnightblue" points="1390.38,-114.255 1384.88,-123.307 1394.83,-119.665 1390.38,-114.255"/>
</g>
<!-- Node18 -->
<g id="node18" class="node"><title>Node18</title>
<g id="a_node18"><a xlink:href="../../d2/daa/POSIX_2sample__application_2sampleapplication_8c.html" target="_top" xlink:title="src/ports/POSIX/sample\l_application/sampleapplication.c">
<polygon fill="none" stroke="black" points="2339.5,-0.5 2339.5,-30.5 2497.5,-30.5 2497.5,-0.5 2339.5,-0.5"/>
<text text-anchor="start" x="2347.5" y="-18.5" font-family="Helvetica,sans-Serif" font-size="10.00">src/ports/POSIX/sample</text>
<text text-anchor="middle" x="2418.5" y="-7.5" font-family="Helvetica,sans-Serif" font-size="10.00">_application/sampleapplication.c</text>
</a>
</g>
</g>
<!-- Node4&#45;&gt;Node18 -->
<g id="edge19" class="edge"><title>Node4&#45;&gt;Node18</title>
<path fill="none" stroke="midnightblue" d="M1438.46,-128.218C1543.32,-121.724 1758.25,-107.177 1939.5,-87 2113.97,-67.5771 2156.99,-57.7165 2330.5,-31 2333.41,-30.5523 2336.37,-30.0911 2339.36,-29.6211"/>
<polygon fill="midnightblue" stroke="midnightblue" points="1438.13,-124.732 1428.36,-128.84 1438.56,-131.719 1438.13,-124.732"/>
</g>
<!-- Node9&#45;&gt;Node7 -->
<g id="edge9" class="edge"><title>Node9&#45;&gt;Node7</title>
<path fill="none" stroke="midnightblue" d="M1085.48,-69.9079C901.433,-58.1072 499.543,-32.3395 330.199,-21.4817"/>
<polygon fill="midnightblue" stroke="midnightblue" points="1085.48,-73.4149 1095.69,-70.562 1085.93,-66.4293 1085.48,-73.4149"/>
</g>
<!-- Node9&#45;&gt;Node8 -->
<g id="edge10" class="edge"><title>Node9&#45;&gt;Node8</title>
<path fill="none" stroke="midnightblue" d="M1114.19,-65.897C1058.41,-57.2192 976.608,-44.0738 905.5,-31 895.601,-29.18 884.956,-27.0815 874.997,-25.0563"/>
<polygon fill="midnightblue" stroke="midnightblue" points="1113.88,-69.39 1124.3,-67.4643 1114.95,-62.4727 1113.88,-69.39"/>
</g>
<!-- Node9&#45;&gt;Node10 -->
<g id="edge11" class="edge"><title>Node9&#45;&gt;Node10</title>
<path fill="none" stroke="midnightblue" d="M1085.5,-71.6516C976.62,-65.8555 793.012,-53.5979 636.5,-31 625.691,-29.4393 614.041,-27.2382 603.407,-25.0214"/>
<polygon fill="midnightblue" stroke="midnightblue" points="1085.63,-75.1631 1095.8,-72.1924 1086,-68.1728 1085.63,-75.1631"/>
</g>
<!-- Node11 -->
<g id="node11" class="node"><title>Node11</title>
<g id="a_node11"><a xlink:href="../../db/d4f/generic__networkhandler_8c.html" target="_top" xlink:title="This file includes all platform&#45;independent functions of the network handler to reduce code duplicati...">
<polygon fill="none" stroke="black" points="1572,-6 1572,-25 1741,-25 1741,-6 1572,-6"/>
<text text-anchor="middle" x="1656.5" y="-13" font-family="Helvetica,sans-Serif" font-size="10.00">src/ports/generic_networkhandler.c</text>
</a>
</g>
</g>
<!-- Node9&#45;&gt;Node11 -->
<g id="edge12" class="edge"><title>Node9&#45;&gt;Node11</title>
<path fill="none" stroke="midnightblue" d="M1270.19,-66.3514C1347.68,-57.7967 1462.6,-44.5843 1562.5,-31 1575.75,-29.1978 1590.03,-27.0844 1603.36,-25.0372"/>
<polygon fill="midnightblue" stroke="midnightblue" points="1269.54,-62.9017 1259.99,-67.4752 1270.31,-69.8596 1269.54,-62.9017"/>
</g>
<!-- Node12 -->
<g id="node12" class="node"><title>Node12</title>
<g id="a_node12"><a xlink:href="../../d5/dcb/MINGW_2main_8c.html" target="_top" xlink:title="src/ports/MINGW/main.c">
<polygon fill="none" stroke="black" points="1238.5,-6 1238.5,-25 1364.5,-25 1364.5,-6 1238.5,-6"/>
<text text-anchor="middle" x="1301.5" y="-13" font-family="Helvetica,sans-Serif" font-size="10.00">src/ports/MINGW/main.c</text>
</a>
</g>
</g>
<!-- Node9&#45;&gt;Node12 -->
<g id="edge13" class="edge"><title>Node9&#45;&gt;Node12</title>
<path fill="none" stroke="midnightblue" d="M1206.89,-63.0207C1230.36,-51.4816 1263.99,-34.9433 1284.2,-25.0091"/>
<polygon fill="midnightblue" stroke="midnightblue" points="1205.27,-59.9215 1197.84,-67.4751 1208.35,-66.2032 1205.27,-59.9215"/>
</g>
<!-- Node13 -->
<g id="node13" class="node"><title>Node13</title>
<g id="a_node13"><a xlink:href="../../d3/de3/MINGW_2networkhandler_8c.html" target="_top" xlink:title="src/ports/MINGW/networkhandler.c">
<polygon fill="none" stroke="black" points="1383,-6 1383,-25 1554,-25 1554,-6 1383,-6"/>
<text text-anchor="middle" x="1468.5" y="-13" font-family="Helvetica,sans-Serif" font-size="10.00">src/ports/MINGW/networkhandler.c</text>
</a>
</g>
</g>
<!-- Node9&#45;&gt;Node13 -->
<g id="edge14" class="edge"><title>Node9&#45;&gt;Node13</title>
<path fill="none" stroke="midnightblue" d="M1231.8,-65.4023C1287.63,-53.8671 1375.81,-35.6498 1427.31,-25.0091"/>
<polygon fill="midnightblue" stroke="midnightblue" points="1230.85,-62.0242 1221.76,-67.4751 1232.26,-68.8794 1230.85,-62.0242"/>
</g>
<!-- Node9&#45;&gt;Node14 -->
<g id="edge15" class="edge"><title>Node9&#45;&gt;Node14</title>
<path fill="none" stroke="midnightblue" d="M1085.91,-72.9323C869.311,-65.7245 342.416,-47.1023 165.5,-31 149.098,-29.5071 131.331,-27.2858 115.158,-25.0279"/>
<polygon fill="midnightblue" stroke="midnightblue" points="1085.88,-76.433 1095.99,-73.2668 1086.11,-69.4369 1085.88,-76.433"/>
</g>
<!-- Node15 -->
<g id="node15" class="node"><title>Node15</title>
<g id="a_node15"><a xlink:href="../../dc/db2/WIN32_2main_8c.html" target="_top" xlink:title="src/ports/WIN32/main.c">
<polygon fill="none" stroke="black" points="915,-6 915,-25 1036,-25 1036,-6 915,-6"/>
<text text-anchor="middle" x="975.5" y="-13" font-family="Helvetica,sans-Serif" font-size="10.00">src/ports/WIN32/main.c</text>
</a>
</g>
</g>
<!-- Node9&#45;&gt;Node15 -->
<g id="edge16" class="edge"><title>Node9&#45;&gt;Node15</title>
<path fill="none" stroke="midnightblue" d="M1141.48,-64.6759C1101.65,-53.1144 1040.72,-35.429 1004.82,-25.0091"/>
<polygon fill="midnightblue" stroke="midnightblue" points="1140.55,-68.0489 1151.13,-67.4751 1142.5,-61.3263 1140.55,-68.0489"/>
</g>
<!-- Node16 -->
<g id="node16" class="node"><title>Node16</title>
<g id="a_node16"><a xlink:href="../../d8/d6c/WIN32_2networkhandler_8c.html" target="_top" xlink:title="src/ports/WIN32/networkhandler.c">
<polygon fill="none" stroke="black" points="1054.5,-6 1054.5,-25 1220.5,-25 1220.5,-6 1054.5,-6"/>
<text text-anchor="middle" x="1137.5" y="-13" font-family="Helvetica,sans-Serif" font-size="10.00">src/ports/WIN32/networkhandler.c</text>
</a>
</g>
</g>
<!-- Node9&#45;&gt;Node16 -->
<g id="edge17" class="edge"><title>Node9&#45;&gt;Node16</title>
<path fill="none" stroke="midnightblue" d="M1168.46,-59.3377C1160.39,-48.1694 1150.09,-33.9278 1143.65,-25.0091"/>
<polygon fill="midnightblue" stroke="midnightblue" points="1165.64,-61.4202 1174.34,-67.4751 1171.32,-57.32 1165.64,-61.4202"/>
</g>
<!-- Node20&#45;&gt;Node7 -->
<g id="edge24" class="edge"><title>Node20&#45;&gt;Node7</title>
<path fill="none" stroke="midnightblue" d="M220.246,-116.406C206.968,-103.638 192.96,-84.8333 200.5,-67 208.145,-48.9181 225.782,-34.121 238.395,-25.3198"/>
<polygon fill="midnightblue" stroke="midnightblue" points="218.025,-119.116 227.812,-123.174 222.692,-113.899 218.025,-119.116"/>
</g>
<!-- Node21 -->
<g id="node21" class="node"><title>Node21</title>
<g id="a_node21"><a xlink:href="../../dc/d93/cipclass3connection_8c.html" target="_top" xlink:title="src/cip/cipclass3connection.c">
<polygon fill="none" stroke="black" points="280.5,-67.5 280.5,-86.5 426.5,-86.5 426.5,-67.5 280.5,-67.5"/>
<text text-anchor="middle" x="353.5" y="-74.5" font-family="Helvetica,sans-Serif" font-size="10.00">src/cip/cipclass3connection.c</text>
</a>
</g>
</g>
<!-- Node20&#45;&gt;Node21 -->
<g id="edge23" class="edge"><title>Node20&#45;&gt;Node21</title>
<path fill="none" stroke="midnightblue" d="M266.742,-119.096C288.04,-109.007 317.042,-95.2697 335.521,-86.5164"/>
<polygon fill="midnightblue" stroke="midnightblue" points="265.103,-116 257.564,-123.444 268.099,-122.326 265.103,-116"/>
</g>
<!-- Node22&#45;&gt;Node6 -->
<g id="edge27" class="edge"><title>Node22&#45;&gt;Node6</title>
<path fill="none" stroke="midnightblue" d="M1868.56,-60.9727C1854.21,-49.5925 1835.02,-34.3694 1823.23,-25.0091"/>
<polygon fill="midnightblue" stroke="midnightblue" points="1866.74,-64.002 1876.75,-67.4751 1871.1,-58.5181 1866.74,-64.002"/>
</g>
<!-- Node22&#45;&gt;Node7 -->
<g id="edge28" class="edge"><title>Node22&#45;&gt;Node7</title>
<path fill="none" stroke="midnightblue" d="M1834.21,-74.3615C1595.66,-67.0153 631.691,-37.2026 496.5,-31 440.861,-28.4473 378.137,-24.7007 330.218,-21.6554"/>
<polygon fill="midnightblue" stroke="midnightblue" points="1834.26,-77.8646 1844.36,-74.674 1834.47,-70.8679 1834.26,-77.8646"/>
</g>
<!-- Node22&#45;&gt;Node11 -->
<g id="edge30" class="edge"><title>Node22&#45;&gt;Node11</title>
<path fill="none" stroke="midnightblue" d="M1844.67,-64.9685C1799.82,-53.4147 1730.33,-35.5173 1689.54,-25.0091"/>
<polygon fill="midnightblue" stroke="midnightblue" points="1843.85,-68.3701 1854.4,-67.4751 1845.59,-61.5913 1843.85,-68.3701"/>
</g>
<!-- Node22&#45;&gt;Node17 -->
<g id="edge31" class="edge"><title>Node22&#45;&gt;Node17</title>
<path fill="none" stroke="midnightblue" d="M1906.16,-61.1955C1917.99,-51.8129 1933.19,-39.7512 1944.82,-30.523"/>
<polygon fill="midnightblue" stroke="midnightblue" points="1903.9,-58.5181 1898.25,-67.4751 1908.26,-64.002 1903.9,-58.5181"/>
</g>
<!-- Node22&#45;&gt;Node18 -->
<g id="edge32" class="edge"><title>Node22&#45;&gt;Node18</title>
<path fill="none" stroke="midnightblue" d="M1940.66,-71.6737C2023.95,-64.6541 2190.18,-49.669 2330.5,-31 2333.42,-30.612 2336.38,-30.2017 2339.38,-29.7746"/>
<polygon fill="midnightblue" stroke="midnightblue" points="1940.35,-68.1872 1930.68,-72.5102 1940.94,-75.1627 1940.35,-68.1872"/>
</g>
<!-- Node23 -->
<g id="node23" class="node"><title>Node23</title>
<g id="a_node23"><a xlink:href="../../dd/d34/cipqos_8c.html" target="_top" xlink:title="src/cip/cipqos.c">
<polygon fill="none" stroke="black" points="2059.5,-6 2059.5,-25 2145.5,-25 2145.5,-6 2059.5,-6"/>
<text text-anchor="middle" x="2102.5" y="-13" font-family="Helvetica,sans-Serif" font-size="10.00">src/cip/cipqos.c</text>
</a>
</g>
</g>
<!-- Node22&#45;&gt;Node23 -->
<g id="edge29" class="edge"><title>Node22&#45;&gt;Node23</title>
<path fill="none" stroke="midnightblue" d="M1928.19,-64.7973C1961.17,-55.7104 2008.84,-42.5588 2050.5,-31 2057.45,-29.0706 2064.93,-26.99 2071.98,-25.0238"/>
<polygon fill="midnightblue" stroke="midnightblue" points="1927.16,-61.4503 1918.45,-67.4806 1929.02,-68.1989 1927.16,-61.4503"/>
</g>
<!-- Node24 -->
<g id="node24" class="node"><title>Node24</title>
<g id="a_node24"><a xlink:href="../../d5/dc8/WIN32_2sample__application_2sampleapplication_8c.html" target="_top" xlink:title="src/ports/WIN32/sample\l_application/sampleapplication.c">
<polygon fill="none" stroke="black" points="2163.5,-0.5 2163.5,-30.5 2321.5,-30.5 2321.5,-0.5 2163.5,-0.5"/>
<text text-anchor="start" x="2171.5" y="-18.5" font-family="Helvetica,sans-Serif" font-size="10.00">src/ports/WIN32/sample</text>
<text text-anchor="middle" x="2242.5" y="-7.5" font-family="Helvetica,sans-Serif" font-size="10.00">_application/sampleapplication.c</text>
</a>
</g>
</g>
<!-- Node22&#45;&gt;Node24 -->
<g id="edge33" class="edge"><title>Node22&#45;&gt;Node24</title>
<path fill="none" stroke="midnightblue" d="M1940.9,-67.0506C1999.91,-57.1587 2095.58,-41.1254 2163.32,-29.7708"/>
<polygon fill="midnightblue" stroke="midnightblue" points="1939.96,-63.6587 1930.68,-68.7636 1941.12,-70.5624 1939.96,-63.6587"/>
</g>
<!-- Node25&#45;&gt;Node7 -->
<g id="edge36" class="edge"><title>Node25&#45;&gt;Node7</title>
<path fill="none" stroke="midnightblue" d="M481.853,-122.845C389.793,-111.073 242.487,-91.5953 238.5,-87 223.125,-69.2807 237.882,-39.5655 246.807,-25.0295"/>
<polygon fill="midnightblue" stroke="midnightblue" points="481.6,-126.341 491.963,-124.135 482.486,-119.397 481.6,-126.341"/>
</g>
<!-- Node25&#45;&gt;Node8 -->
<g id="edge37" class="edge"><title>Node25&#45;&gt;Node8</title>
<path fill="none" stroke="midnightblue" d="M627.45,-124.883C725.508,-114.964 888.665,-97.0695 897.5,-87 917.203,-64.5437 877.048,-38.3845 852.188,-25.1376"/>
<polygon fill="midnightblue" stroke="midnightblue" points="626.892,-121.422 617.293,-125.906 627.594,-128.386 626.892,-121.422"/>
</g>
<!-- Node28&#45;&gt;Node6 -->
<g id="edge50" class="edge"><title>Node28&#45;&gt;Node6</title>
<path fill="none" stroke="midnightblue" d="M805.427,-127.092C953.836,-116.735 1285.45,-93.0946 1309.5,-87 1330.72,-81.6242 1333.32,-72.5113 1354.5,-67 1525.1,-22.6091 1575.43,-58.8334 1749.5,-31 1759.25,-29.4406 1769.74,-27.2399 1779.32,-25.023"/>
<polygon fill="midnightblue" stroke="midnightblue" points="804.797,-123.628 795.065,-127.815 805.284,-130.611 804.797,-123.628"/>
</g>
<!-- Node28&#45;&gt;Node7 -->
<g id="edge51" class="edge"><title>Node28&#45;&gt;Node7</title>
<path fill="none" stroke="midnightblue" d="M663.629,-122.328C598.756,-113.012 507.8,-98.6568 473.5,-87 455.43,-80.8588 453.246,-74.0235 435.5,-67 387.846,-48.1395 330.565,-33.559 292.934,-25.0178"/>
<polygon fill="midnightblue" stroke="midnightblue" points="663.41,-125.832 673.804,-123.779 664.398,-118.902 663.41,-125.832"/>
</g>
<!-- Node28&#45;&gt;Node10 -->
<g id="edge59" class="edge"><title>Node28&#45;&gt;Node10</title>
<path fill="none" stroke="midnightblue" d="M718.002,-116.434C702.904,-102.597 679.614,-82.2544 657.5,-67 633.257,-50.2768 602.994,-34.3763 584.205,-25.0306"/>
<polygon fill="midnightblue" stroke="midnightblue" points="715.776,-119.143 725.488,-123.378 720.537,-114.011 715.776,-119.143"/>
</g>
<!-- Node28&#45;&gt;Node11 -->
<g id="edge60" class="edge"><title>Node28&#45;&gt;Node11</title>
<path fill="none" stroke="midnightblue" d="M805.371,-127.475C941.355,-118.588 1229.38,-98.7045 1273.5,-87 1293.87,-81.5952 1296.3,-73.0338 1316.5,-67 1422.37,-35.3678 1453.23,-47.4229 1562.5,-31 1575.24,-29.0857 1588.94,-26.9919 1601.83,-25.0056"/>
<polygon fill="midnightblue" stroke="midnightblue" points="804.811,-124.004 795.06,-128.147 805.266,-130.989 804.811,-124.004"/>
</g>
<!-- Node28&#45;&gt;Node21 -->
<g id="edge49" class="edge"><title>Node28&#45;&gt;Node21</title>
<path fill="none" stroke="midnightblue" d="M663.799,-121.979C591.83,-111.779 481.468,-96.1372 413.588,-86.5164"/>
<polygon fill="midnightblue" stroke="midnightblue" points="663.737,-125.506 674.129,-123.444 664.72,-118.575 663.737,-125.506"/>
</g>
<!-- Node28&#45;&gt;Node27 -->
<g id="edge58" class="edge"><title>Node28&#45;&gt;Node27</title>
<path fill="none" stroke="midnightblue" d="M805.215,-126.911C861.45,-120.046 926.286,-104.05 897.5,-67 894.97,-63.7434 791.593,-38.5605 735.249,-25.032"/>
<polygon fill="midnightblue" stroke="midnightblue" points="804.741,-123.443 795.201,-128.052 805.533,-130.398 804.741,-123.443"/>
</g>
<!-- Node29 -->
<g id="node29" class="node"><title>Node29</title>
<g id="a_node29"><a xlink:href="../../d0/dff/cpf_8h.html" target="_top" xlink:title="src/enet_encap/cpf.h">
<polygon fill="none" stroke="black" points="780.5,-67.5 780.5,-86.5 888.5,-86.5 888.5,-67.5 780.5,-67.5"/>
<text text-anchor="middle" x="834.5" y="-74.5" font-family="Helvetica,sans-Serif" font-size="10.00">src/enet_encap/cpf.h</text>
</a>
</g>
</g>
<!-- Node28&#45;&gt;Node29 -->
<g id="edge52" class="edge"><title>Node28&#45;&gt;Node29</title>
<path fill="none" stroke="midnightblue" d="M759.588,-118.453C778.049,-108.483 802.597,-95.2279 818.473,-86.6545"/>
<polygon fill="midnightblue" stroke="midnightblue" points="757.703,-115.493 750.567,-123.324 761.029,-121.652 757.703,-115.493"/>
</g>
<!-- Node30 -->
<g id="node30" class="node"><title>Node30</title>
<g id="a_node30"><a xlink:href="../../d2/d5e/POSIX_2networkhandler_8c.html" target="_top" xlink:title="src/ports/POSIX/networkhandler.c">
<polygon fill="none" stroke="black" points="482.5,-67.5 482.5,-86.5 648.5,-86.5 648.5,-67.5 482.5,-67.5"/>
<text text-anchor="middle" x="565.5" y="-74.5" font-family="Helvetica,sans-Serif" font-size="10.00">src/ports/POSIX/networkhandler.c</text>
</a>
</g>
</g>
<!-- Node28&#45;&gt;Node30 -->
<g id="edge61" class="edge"><title>Node28&#45;&gt;Node30</title>
<path fill="none" stroke="midnightblue" d="M697.897,-120.304C666.053,-110.129 620.658,-95.6246 592.153,-86.5164"/>
<polygon fill="midnightblue" stroke="midnightblue" points="697.131,-123.734 707.721,-123.444 699.261,-117.066 697.131,-123.734"/>
</g>
<!-- Node29&#45;&gt;Node6 -->
<g id="edge53" class="edge"><title>Node29&#45;&gt;Node6</title>
<path fill="none" stroke="midnightblue" d="M898.678,-73.5029C1092.87,-65.8551 1665.97,-42.5734 1749.5,-31 1759.62,-29.5983 1770.5,-27.3609 1780.33,-25.0591"/>
<polygon fill="midnightblue" stroke="midnightblue" points="898.478,-70.008 888.623,-73.8983 898.753,-77.0026 898.478,-70.008"/>
</g>
<!-- Node29&#45;&gt;Node7 -->
<g id="edge54" class="edge"><title>Node29&#45;&gt;Node7</title>
<path fill="none" stroke="midnightblue" d="M770.194,-69.4257C662.498,-58.4156 446.085,-36.2909 330.104,-24.4338"/>
<polygon fill="midnightblue" stroke="midnightblue" points="769.965,-72.9205 780.269,-70.4558 770.677,-65.9568 769.965,-72.9205"/>
</g>
<!-- Node29&#45;&gt;Node8 -->
<g id="edge55" class="edge"><title>Node29&#45;&gt;Node8</title>
<path fill="none" stroke="midnightblue" d="M834.5,-57.3165C834.5,-46.4962 834.5,-33.398 834.5,-25.0091"/>
<polygon fill="midnightblue" stroke="midnightblue" points="831,-57.4751 834.5,-67.4751 838,-57.4751 831,-57.4751"/>
</g>
<!-- Node29&#45;&gt;Node10 -->
<g id="edge57" class="edge"><title>Node29&#45;&gt;Node10</title>
<path fill="none" stroke="midnightblue" d="M786.118,-65.2584C734.129,-53.716 652.556,-35.6056 604.827,-25.0091"/>
<polygon fill="midnightblue" stroke="midnightblue" points="785.581,-68.7245 796.102,-67.4751 787.098,-61.8908 785.581,-68.7245"/>
</g>
<!-- Node29&#45;&gt;Node27 -->
<g id="edge56" class="edge"><title>Node29&#45;&gt;Node27</title>
<path fill="none" stroke="midnightblue" d="M805.747,-63.3272C779.538,-51.7761 741.547,-35.0316 718.806,-25.0091"/>
<polygon fill="midnightblue" stroke="midnightblue" points="804.596,-66.6447 815.158,-67.4751 807.419,-60.2392 804.596,-66.6447"/>
</g>
<!-- Node31&#45;&gt;Node2 -->
<g id="edge64" class="edge"><title>Node31&#45;&gt;Node2</title>
<path fill="none" stroke="midnightblue" d="M1295.19,-295.737C1163.98,-285.978 841.992,-262.028 698.054,-251.322"/>
<polygon fill="midnightblue" stroke="midnightblue" points="1295.19,-299.247 1305.42,-296.499 1295.71,-292.266 1295.19,-299.247"/>
</g>
<!-- Node31&#45;&gt;Node5 -->
<g id="edge65" class="edge"><title>Node31&#45;&gt;Node5</title>
<path fill="none" stroke="midnightblue" d="M1370.09,-284.3C1399.27,-257.553 1458.26,-200.445 1496.5,-143 1508.9,-124.377 1518.69,-99.8077 1523.42,-86.8609"/>
<polygon fill="midnightblue" stroke="midnightblue" points="1367.42,-281.993 1362.37,-291.304 1372.12,-287.178 1367.42,-281.993"/>
</g>
<!-- Node31&#45;&gt;Node6 -->
<g id="edge66" class="edge"><title>Node31&#45;&gt;Node6</title>
<path fill="none" stroke="midnightblue" d="M1402.91,-289.104C1477.49,-271.509 1608.5,-234.295 1608.5,-190 1608.5,-190 1608.5,-190 1608.5,-132 1608.5,-91.5043 1731.77,-44.1743 1786.66,-25.1053"/>
<polygon fill="midnightblue" stroke="midnightblue" points="1401.73,-285.785 1392.78,-291.455 1403.31,-292.604 1401.73,-285.785"/>
</g>
<!-- Node31&#45;&gt;Node7 -->
<g id="edge67" class="edge"><title>Node31&#45;&gt;Node7</title>
<path fill="none" stroke="midnightblue" d="M1294.99,-297.843C1054.08,-288.435 138.5,-248.811 138.5,-190 138.5,-190 138.5,-190 138.5,-132 138.5,-78.6095 200.966,-40.9741 233.419,-25.024"/>
<polygon fill="midnightblue" stroke="midnightblue" points="1295.15,-301.352 1305.28,-298.242 1295.43,-294.357 1295.15,-301.352"/>
</g>
<!-- Node31&#45;&gt;Node32 -->
<g id="edge68" class="edge"><title>Node31&#45;&gt;Node32</title>
<path fill="none" stroke="midnightblue" d="M1409.52,-290.698C1473.62,-280.24 1576.55,-263.448 1636.32,-253.697"/>
<polygon fill="midnightblue" stroke="midnightblue" points="1408.88,-287.256 1399.57,-292.32 1410.01,-294.165 1408.88,-287.256"/>
</g>
</g>
</svg>
