<?xml version="1.0" encoding="UTF-8" standalone="no"?>
<!DOCTYPE svg PUBLIC "-//W3C//DTD SVG 1.1//EN"
 "http://www.w3.org/Graphics/SVG/1.1/DTD/svg11.dtd">
<!-- Generated by graphviz version 2.36.0 (20140111.2315)
 -->
<!-- Title: src/cip/cipconnectionobject.c Pages: 1 -->
<!--zoomable 364 -->
<svg id="main" version="1.1" xmlns="http://www.w3.org/2000/svg" xmlns:xlink="http://www.w3.org/1999/xlink" xml:space="preserve" onload="init(evt)">
<style type="text/css"><![CDATA[
.edge:hover path { stroke: red; }
.edge:hover polygon { stroke: red; fill: red; }
]]></style>
<script type="text/javascript"><![CDATA[
var edges = document.getElementsByTagName('g');
if (edges && edges.length) {
  for (var i=0;i<edges.length;i++) {
    if (edges[i].id.substr(0,4)=='edge') {
      edges[i].setAttribute('class','edge');
    }
  }
}
]]></script>
        <defs>
                <circle id="rim" cx="0" cy="0" r="7"/>
                <circle id="rim2" cx="0" cy="0" r="3.5"/>
                <g id="zoomPlus">
                        <use xlink:href="#rim" fill="#404040">
                                <set attributeName="fill" to="#808080" begin="zoomplus.mouseover" end="zoomplus.mouseout"/>
                        </use>
                        <path d="M-4,0h8M0,-4v8" fill="none" stroke="white" stroke-width="1.5" pointer-events="none"/>
                </g>
                <g id="zoomMin">
                        <use xlink:href="#rim" fill="#404040">
                                <set attributeName="fill" to="#808080" begin="zoomminus.mouseover" end="zoomminus.mouseout"/>
                        </use>
                        <path d="M-4,0h8" fill="none" stroke="white" stroke-width="1.5" pointer-events="none"/>
                </g>
                <g id="dirArrow">
                        <path fill="none" stroke="white" stroke-width="1.5" d="M0,-3.0v7 M-2.5,-0.5L0,-3.0L2.5,-0.5"/>
                </g>
               <g id="resetDef">
                       <use xlink:href="#rim2" fill="#404040">
                               <set attributeName="fill" to="#808080" begin="reset.mouseover" end="reset.mouseout"/>
                       </use>
               </g>
        </defs>

<script type="text/javascript">
var viewWidth = 828;
var viewHeight = 364;
var sectionId = 'dynsection-0';
</script>
<script xlink:href="../../svgpan.js"/>
<svg id="graph" class="graph">
<g id="viewport">
<title>src/cip/cipconnectionobject.c</title>
<!-- Node1 -->
<g id="node1" class="node"><title>Node1</title>
<polygon fill="#bfbfbf" stroke="black" points="471.5,-336.5 471.5,-355.5 614.5,-355.5 614.5,-336.5 471.5,-336.5"/>
<text text-anchor="middle" x="543" y="-343.5" font-family="Helvetica,sans-Serif" font-size="10.00">src/cip/cipconnectionobject.c</text>
</g>
<!-- Node2 -->
<g id="node2" class="node"><title>Node2</title>
<g id="a_node2"><a xlink:href="../../d1/d6c/cipconnectionobject_8h.html" target="_top" xlink:title="cipconnectionobject.h">
<polygon fill="none" stroke="black" points="347.5,-224.5 347.5,-243.5 458.5,-243.5 458.5,-224.5 347.5,-224.5"/>
<text text-anchor="middle" x="403" y="-231.5" font-family="Helvetica,sans-Serif" font-size="10.00">cipconnectionobject.h</text>
</a>
</g>
</g>
<!-- Node1&#45;&gt;Node2 -->
<g id="edge1" class="edge"><title>Node1&#45;&gt;Node2</title>
<path fill="none" stroke="midnightblue" d="M489.91,-336.42C466.218,-330.054 439.713,-319.031 422,-300 410.37,-287.505 405.82,-268.276 404.061,-253.97"/>
<polygon fill="midnightblue" stroke="midnightblue" points="407.527,-253.431 403.166,-243.775 400.554,-254.043 407.527,-253.431"/>
</g>
<!-- Node17 -->
<g id="node17" class="node"><title>Node17</title>
<g id="a_node17"><a xlink:href="../../d0/dec/endianconv_8h.html" target="_top" xlink:title="Responsible for Endianess conversion. ">
<polygon fill="none" stroke="black" points="746,-224.5 746,-243.5 820,-243.5 820,-224.5 746,-224.5"/>
<text text-anchor="middle" x="783" y="-231.5" font-family="Helvetica,sans-Serif" font-size="10.00">endianconv.h</text>
</a>
</g>
</g>
<!-- Node1&#45;&gt;Node17 -->
<g id="edge27" class="edge"><title>Node1&#45;&gt;Node17</title>
<path fill="none" stroke="midnightblue" d="M561.832,-336.368C603.893,-317.091 705.647,-270.454 755.096,-247.789"/>
<polygon fill="midnightblue" stroke="midnightblue" points="756.623,-250.94 764.255,-243.591 753.706,-244.576 756.623,-250.94"/>
</g>
<!-- Node18 -->
<g id="node18" class="node"><title>Node18</title>
<g id="a_node18"><a xlink:href="../../d1/d1b/trace_8h.html" target="_top" xlink:title="Tracing infrastructure for OpENer. ">
<polygon fill="none" stroke="black" points="571.5,-280.5 571.5,-299.5 618.5,-299.5 618.5,-280.5 571.5,-280.5"/>
<text text-anchor="middle" x="595" y="-287.5" font-family="Helvetica,sans-Serif" font-size="10.00">trace.h</text>
</a>
</g>
</g>
<!-- Node1&#45;&gt;Node18 -->
<g id="edge29" class="edge"><title>Node1&#45;&gt;Node18</title>
<path fill="none" stroke="midnightblue" d="M551.587,-336.083C559.159,-328.22 570.378,-316.569 579.514,-307.081"/>
<polygon fill="midnightblue" stroke="midnightblue" points="582.158,-309.382 586.573,-299.751 577.115,-304.527 582.158,-309.382"/>
</g>
<!-- Node19 -->
<g id="node19" class="node"><title>Node19</title>
<g id="a_node19"><a xlink:href="../../d2/da3/cipconnectionmanager_8h.html" target="_top" xlink:title="cipconnectionmanager.h">
<polygon fill="none" stroke="black" points="431,-280.5 431,-299.5 553,-299.5 553,-280.5 431,-280.5"/>
<text text-anchor="middle" x="492" y="-287.5" font-family="Helvetica,sans-Serif" font-size="10.00">cipconnectionmanager.h</text>
</a>
</g>
</g>
<!-- Node1&#45;&gt;Node19 -->
<g id="edge30" class="edge"><title>Node1&#45;&gt;Node19</title>
<path fill="none" stroke="midnightblue" d="M534.578,-336.083C527.152,-328.22 516.148,-316.569 507.188,-307.081"/>
<polygon fill="midnightblue" stroke="midnightblue" points="509.676,-304.618 500.265,-299.751 504.587,-309.424 509.676,-304.618"/>
</g>
<!-- Node3 -->
<g id="node3" class="node"><title>Node3</title>
<g id="a_node3"><a xlink:href="../../d7/d69/typedefs_8h.html" target="_top" xlink:title="typedefs.h">
<polygon fill="none" stroke="black" points="611,-56.5 611,-75.5 673,-75.5 673,-56.5 611,-56.5"/>
<text text-anchor="middle" x="642" y="-63.5" font-family="Helvetica,sans-Serif" font-size="10.00">typedefs.h</text>
</a>
</g>
</g>
<!-- Node2&#45;&gt;Node3 -->
<g id="edge2" class="edge"><title>Node2&#45;&gt;Node3</title>
<path fill="none" stroke="midnightblue" d="M458.571,-228.485C517.287,-220.278 606.234,-197.154 642,-132 649.721,-117.934 648.865,-99.4415 646.578,-85.7785"/>
<polygon fill="midnightblue" stroke="midnightblue" points="649.934,-84.7223 644.477,-75.6407 643.08,-86.1429 649.934,-84.7223"/>
</g>
<!-- Node7 -->
<g id="node7" class="node"><title>Node7</title>
<g id="a_node7"><a xlink:href="../../df/d28/ciptypes_8h.html" target="_top" xlink:title="ciptypes.h">
<polygon fill="none" stroke="black" points="201,-112.5 201,-131.5 263,-131.5 263,-112.5 201,-112.5"/>
<text text-anchor="middle" x="232" y="-119.5" font-family="Helvetica,sans-Serif" font-size="10.00">ciptypes.h</text>
</a>
</g>
</g>
<!-- Node2&#45;&gt;Node7 -->
<g id="edge6" class="edge"><title>Node2&#45;&gt;Node7</title>
<path fill="none" stroke="midnightblue" d="M347.278,-225.07C304.397,-217.732 250.145,-205.331 236,-188 225.621,-175.283 225.728,-156.084 227.765,-141.845"/>
<polygon fill="midnightblue" stroke="midnightblue" points="231.263,-142.179 229.65,-131.708 224.381,-140.9 231.263,-142.179"/>
</g>
<!-- Node10 -->
<g id="node10" class="node"><title>Node10</title>
<polygon fill="none" stroke="#bfbfbf" points="6,-0.5 6,-19.5 108,-19.5 108,-0.5 6,-0.5"/>
<text text-anchor="middle" x="57" y="-7.5" font-family="Helvetica,sans-Serif" font-size="10.00">opener_user_conf.h</text>
</g>
<!-- Node2&#45;&gt;Node10 -->
<g id="edge12" class="edge"><title>Node2&#45;&gt;Node10</title>
<path fill="none" stroke="midnightblue" d="M347.421,-224.868C311.062,-218.159 263.212,-206.644 224,-188 148.861,-152.274 120.47,-145.013 74,-76 64.7366,-62.2429 60.519,-43.7158 58.5998,-29.9614"/>
<polygon fill="midnightblue" stroke="midnightblue" points="62.0473,-29.2937 57.4679,-19.7396 55.0899,-30.0641 62.0473,-29.2937"/>
</g>
<!-- Node11 -->
<g id="node11" class="node"><title>Node11</title>
<g id="a_node11"><a xlink:href="../../d4/d38/opener__api_8h.html" target="_top" xlink:title="opener_api.h">
<polygon fill="none" stroke="black" points="473,-168.5 473,-187.5 545,-187.5 545,-168.5 473,-168.5"/>
<text text-anchor="middle" x="509" y="-175.5" font-family="Helvetica,sans-Serif" font-size="10.00">opener_api.h</text>
</a>
</g>
</g>
<!-- Node2&#45;&gt;Node11 -->
<g id="edge13" class="edge"><title>Node2&#45;&gt;Node11</title>
<path fill="none" stroke="midnightblue" d="M420.031,-224.324C437.03,-215.664 463.376,-202.242 482.993,-192.249"/>
<polygon fill="midnightblue" stroke="midnightblue" points="484.69,-195.312 492.012,-187.655 481.512,-189.075 484.69,-195.312"/>
</g>
<!-- Node14 -->
<g id="node14" class="node"><title>Node14</title>
<g id="a_node14"><a xlink:href="../../d9/d31/doublylinkedlist_8h.html" target="_top" xlink:title="doublylinkedlist.h">
<polygon fill="none" stroke="black" points="245,-168.5 245,-187.5 337,-187.5 337,-168.5 245,-168.5"/>
<text text-anchor="middle" x="291" y="-175.5" font-family="Helvetica,sans-Serif" font-size="10.00">doublylinkedlist.h</text>
</a>
</g>
</g>
<!-- Node2&#45;&gt;Node14 -->
<g id="edge19" class="edge"><title>Node2&#45;&gt;Node14</title>
<path fill="none" stroke="midnightblue" d="M385.005,-224.324C366.962,-215.625 338.953,-202.12 318.197,-192.113"/>
<polygon fill="midnightblue" stroke="midnightblue" points="319.478,-188.845 308.95,-187.655 316.438,-195.15 319.478,-188.845"/>
</g>
<!-- Node15 -->
<g id="node15" class="node"><title>Node15</title>
<g id="a_node15"><a xlink:href="../../d0/d23/cipelectronickey_8h.html" target="_top" xlink:title="cipelectronickey.h">
<polygon fill="none" stroke="black" points="334.5,-112.5 334.5,-131.5 429.5,-131.5 429.5,-112.5 334.5,-112.5"/>
<text text-anchor="middle" x="382" y="-119.5" font-family="Helvetica,sans-Serif" font-size="10.00">cipelectronickey.h</text>
</a>
</g>
</g>
<!-- Node2&#45;&gt;Node15 -->
<g id="edge20" class="edge"><title>Node2&#45;&gt;Node15</title>
<path fill="none" stroke="midnightblue" d="M409.776,-224.478C418.862,-211.953 432.981,-187.904 425,-168 420.32,-156.328 411.009,-145.969 402.244,-138.141"/>
<polygon fill="midnightblue" stroke="midnightblue" points="404.424,-135.401 394.497,-131.698 399.948,-140.783 404.424,-135.401"/>
</g>
<!-- Node16 -->
<g id="node16" class="node"><title>Node16</title>
<g id="a_node16"><a xlink:href="../../d1/d02/cipepath_8h.html" target="_top" xlink:title="cipepath.h">
<polygon fill="none" stroke="black" points="355,-168.5 355,-187.5 417,-187.5 417,-168.5 355,-168.5"/>
<text text-anchor="middle" x="386" y="-175.5" font-family="Helvetica,sans-Serif" font-size="10.00">cipepath.h</text>
</a>
</g>
</g>
<!-- Node2&#45;&gt;Node16 -->
<g id="edge23" class="edge"><title>Node2&#45;&gt;Node16</title>
<path fill="none" stroke="midnightblue" d="M400.193,-224.083C397.915,-216.849 394.629,-206.409 391.792,-197.397"/>
<polygon fill="midnightblue" stroke="midnightblue" points="395.096,-196.239 388.755,-187.751 388.419,-198.341 395.096,-196.239"/>
</g>
<!-- Node4 -->
<g id="node4" class="node"><title>Node4</title>
<polygon fill="none" stroke="#bfbfbf" points="575.5,-0.5 575.5,-19.5 634.5,-19.5 634.5,-0.5 575.5,-0.5"/>
<text text-anchor="middle" x="605" y="-7.5" font-family="Helvetica,sans-Serif" font-size="10.00">inttypes.h</text>
</g>
<!-- Node3&#45;&gt;Node4 -->
<g id="edge3" class="edge"><title>Node3&#45;&gt;Node4</title>
<path fill="none" stroke="midnightblue" d="M635.89,-56.083C630.718,-48.5341 623.154,-37.4948 616.806,-28.2298"/>
<polygon fill="midnightblue" stroke="midnightblue" points="619.536,-26.0221 610.996,-19.7511 613.761,-29.9787 619.536,-26.0221"/>
</g>
<!-- Node5 -->
<g id="node5" class="node"><title>Node5</title>
<polygon fill="none" stroke="#bfbfbf" points="653,-0.5 653,-19.5 705,-19.5 705,-0.5 653,-0.5"/>
<text text-anchor="middle" x="679" y="-7.5" font-family="Helvetica,sans-Serif" font-size="10.00">stddef.h</text>
</g>
<!-- Node3&#45;&gt;Node5 -->
<g id="edge4" class="edge"><title>Node3&#45;&gt;Node5</title>
<path fill="none" stroke="midnightblue" d="M648.11,-56.083C653.282,-48.5341 660.846,-37.4948 667.194,-28.2298"/>
<polygon fill="midnightblue" stroke="midnightblue" points="670.239,-29.9787 673.004,-19.7511 664.464,-26.0221 670.239,-29.9787"/>
</g>
<!-- Node6 -->
<g id="node6" class="node"><title>Node6</title>
<polygon fill="none" stroke="#bfbfbf" points="401,-0.5 401,-19.5 457,-19.5 457,-0.5 401,-0.5"/>
<text text-anchor="middle" x="429" y="-7.5" font-family="Helvetica,sans-Serif" font-size="10.00">stdbool.h</text>
</g>
<!-- Node3&#45;&gt;Node6 -->
<g id="edge5" class="edge"><title>Node3&#45;&gt;Node6</title>
<path fill="none" stroke="midnightblue" d="M610.571,-57.0321C572.379,-47.3497 507.981,-31.0234 467.03,-20.6414"/>
<polygon fill="midnightblue" stroke="midnightblue" points="467.708,-17.2026 457.154,-18.1377 465.987,-23.9879 467.708,-17.2026"/>
</g>
<!-- Node7&#45;&gt;Node3 -->
<g id="edge7" class="edge"><title>Node7&#45;&gt;Node3</title>
<path fill="none" stroke="midnightblue" d="M263.153,-116.897C336.271,-107.267 518.878,-83.216 600.934,-72.4087"/>
<polygon fill="midnightblue" stroke="midnightblue" points="601.437,-75.8728 610.894,-71.0969 600.523,-68.9327 601.437,-75.8728"/>
</g>
<!-- Node8 -->
<g id="node8" class="node"><title>Node8</title>
<polygon fill="none" stroke="#bfbfbf" points="205.5,-56.5 205.5,-75.5 296.5,-75.5 296.5,-56.5 205.5,-56.5"/>
<text text-anchor="middle" x="251" y="-63.5" font-family="Helvetica,sans-Serif" font-size="10.00">networkhandler.h</text>
</g>
<!-- Node7&#45;&gt;Node8 -->
<g id="edge8" class="edge"><title>Node7&#45;&gt;Node8</title>
<path fill="none" stroke="midnightblue" d="M235.137,-112.083C237.683,-104.849 241.356,-94.4087 244.527,-85.3968"/>
<polygon fill="midnightblue" stroke="midnightblue" points="247.903,-86.3459 247.921,-75.7511 241.3,-84.0225 247.903,-86.3459"/>
</g>
<!-- Node9 -->
<g id="node9" class="node"><title>Node9</title>
<g id="a_node9"><a xlink:href="../../d8/d2c/enipmessage_8h.html" target="_top" xlink:title="enipmessage.h">
<polygon fill="none" stroke="black" points="104.5,-56.5 104.5,-75.5 187.5,-75.5 187.5,-56.5 104.5,-56.5"/>
<text text-anchor="middle" x="146" y="-63.5" font-family="Helvetica,sans-Serif" font-size="10.00">enipmessage.h</text>
</a>
</g>
</g>
<!-- Node7&#45;&gt;Node9 -->
<g id="edge9" class="edge"><title>Node7&#45;&gt;Node9</title>
<path fill="none" stroke="midnightblue" d="M218.183,-112.324C204.767,-103.9 184.176,-90.9709 168.414,-81.0741"/>
<polygon fill="midnightblue" stroke="midnightblue" points="170.113,-78.0081 159.783,-75.6545 166.391,-83.9364 170.113,-78.0081"/>
</g>
<!-- Node7&#45;&gt;Node10 -->
<g id="edge11" class="edge"><title>Node7&#45;&gt;Node10</title>
<path fill="none" stroke="midnightblue" d="M200.951,-117.242C171.028,-112.245 125.865,-100.937 95,-76 79.9454,-63.8367 69.5936,-44 63.5406,-29.4347"/>
<polygon fill="midnightblue" stroke="midnightblue" points="66.7466,-28.0202 59.8871,-19.9457 60.2141,-30.5355 66.7466,-28.0202"/>
</g>
<!-- Node9&#45;&gt;Node10 -->
<g id="edge10" class="edge"><title>Node9&#45;&gt;Node10</title>
<path fill="none" stroke="midnightblue" d="M131.701,-56.324C117.817,-47.9002 96.5076,-34.9709 80.1963,-25.0741"/>
<polygon fill="midnightblue" stroke="midnightblue" points="81.6289,-21.8495 71.2639,-19.6545 77.9978,-27.8341 81.6289,-21.8495"/>
</g>
<!-- Node11&#45;&gt;Node3 -->
<g id="edge16" class="edge"><title>Node11&#45;&gt;Node3</title>
<path fill="none" stroke="midnightblue" d="M545.23,-171.039C570.038,-165.149 601.954,-153.728 622,-132 633.624,-119.401 638.496,-100.186 640.536,-85.9113"/>
<polygon fill="midnightblue" stroke="midnightblue" points="644.04,-86.0629 641.64,-75.7436 637.081,-85.3074 644.04,-86.0629"/>
</g>
<!-- Node11&#45;&gt;Node6 -->
<g id="edge15" class="edge"><title>Node11&#45;&gt;Node6</title>
<path fill="none" stroke="midnightblue" d="M501.965,-168.447C494.994,-159.685 484.325,-145.476 477,-132 458.094,-97.2185 442.587,-53.3821 434.679,-29.168"/>
<polygon fill="midnightblue" stroke="midnightblue" points="437.976,-27.9851 431.596,-19.5264 431.308,-30.1173 437.976,-27.9851"/>
</g>
<!-- Node11&#45;&gt;Node7 -->
<g id="edge17" class="edge"><title>Node11&#45;&gt;Node7</title>
<path fill="none" stroke="midnightblue" d="M472.787,-169.94C421.261,-159.896 327.061,-141.532 273.02,-130.997"/>
<polygon fill="midnightblue" stroke="midnightblue" points="273.58,-127.54 263.095,-129.062 272.24,-134.411 273.58,-127.54"/>
</g>
<!-- Node12 -->
<g id="node12" class="node"><title>Node12</title>
<polygon fill="none" stroke="#bfbfbf" points="486,-112.5 486,-131.5 538,-131.5 538,-112.5 486,-112.5"/>
<text text-anchor="middle" x="512" y="-119.5" font-family="Helvetica,sans-Serif" font-size="10.00">assert.h</text>
</g>
<!-- Node11&#45;&gt;Node12 -->
<g id="edge14" class="edge"><title>Node11&#45;&gt;Node12</title>
<path fill="none" stroke="midnightblue" d="M509.495,-168.083C509.889,-161.006 510.452,-150.861 510.945,-141.986"/>
<polygon fill="midnightblue" stroke="midnightblue" points="514.454,-141.93 511.514,-131.751 507.464,-141.542 514.454,-141.93"/>
</g>
<!-- Node13 -->
<g id="node13" class="node"><title>Node13</title>
<g id="a_node13"><a xlink:href="../../d6/d52/ciperror_8h.html" target="_top" xlink:title="ciperror.h">
<polygon fill="none" stroke="black" points="556.5,-112.5 556.5,-131.5 613.5,-131.5 613.5,-112.5 556.5,-112.5"/>
<text text-anchor="middle" x="585" y="-119.5" font-family="Helvetica,sans-Serif" font-size="10.00">ciperror.h</text>
</a>
</g>
</g>
<!-- Node11&#45;&gt;Node13 -->
<g id="edge18" class="edge"><title>Node11&#45;&gt;Node13</title>
<path fill="none" stroke="midnightblue" d="M521.211,-168.324C532.776,-160.107 550.375,-147.602 564.161,-137.807"/>
<polygon fill="midnightblue" stroke="midnightblue" points="566.443,-140.479 572.567,-131.834 562.388,-134.773 566.443,-140.479"/>
</g>
<!-- Node15&#45;&gt;Node3 -->
<g id="edge22" class="edge"><title>Node15&#45;&gt;Node3</title>
<path fill="none" stroke="midnightblue" d="M423.198,-112.444C471.858,-102.337 552.313,-85.6272 600.921,-75.5317"/>
<polygon fill="midnightblue" stroke="midnightblue" points="601.708,-78.9431 610.787,-73.4826 600.285,-72.0894 601.708,-78.9431"/>
</g>
<!-- Node15&#45;&gt;Node6 -->
<g id="edge21" class="edge"><title>Node15&#45;&gt;Node6</title>
<path fill="none" stroke="midnightblue" d="M385.688,-112.368C393.341,-94.4563 411.087,-52.9233 421.331,-28.9482"/>
<polygon fill="midnightblue" stroke="midnightblue" points="424.618,-30.1624 425.329,-19.5914 418.181,-27.412 424.618,-30.1624"/>
</g>
<!-- Node16&#45;&gt;Node6 -->
<g id="edge24" class="edge"><title>Node16&#45;&gt;Node6</title>
<path fill="none" stroke="midnightblue" d="M366.094,-168.41C351.775,-161.04 333.542,-148.916 325,-132 320.993,-124.065 321.538,-120.187 325,-112 341.324,-73.3913 380.426,-42.2704 405.759,-25.2355"/>
<polygon fill="midnightblue" stroke="midnightblue" points="407.931,-27.9981 414.402,-19.609 404.111,-22.1317 407.931,-27.9981"/>
</g>
<!-- Node16&#45;&gt;Node7 -->
<g id="edge25" class="edge"><title>Node16&#45;&gt;Node7</title>
<path fill="none" stroke="midnightblue" d="M361.598,-168.444C335.803,-159.399 294.923,-145.064 265.982,-134.916"/>
<polygon fill="midnightblue" stroke="midnightblue" points="266.882,-131.523 256.288,-131.516 264.566,-138.128 266.882,-131.523"/>
</g>
<!-- Node16&#45;&gt;Node15 -->
<g id="edge26" class="edge"><title>Node16&#45;&gt;Node15</title>
<path fill="none" stroke="midnightblue" d="M385.339,-168.083C384.815,-161.006 384.064,-150.861 383.406,-141.986"/>
<polygon fill="midnightblue" stroke="midnightblue" points="386.877,-141.465 382.648,-131.751 379.897,-141.982 386.877,-141.465"/>
</g>
<!-- Node17&#45;&gt;Node3 -->
<g id="edge28" class="edge"><title>Node17&#45;&gt;Node3</title>
<path fill="none" stroke="midnightblue" d="M781.479,-224.251C777.305,-202.621 763.802,-145.931 732,-112 717.989,-97.0513 697.927,-86.3547 680.298,-79.1517"/>
<polygon fill="midnightblue" stroke="midnightblue" points="681.398,-75.8251 670.808,-75.5047 678.887,-82.3592 681.398,-75.8251"/>
</g>
<!-- Node19&#45;&gt;Node2 -->
<g id="edge35" class="edge"><title>Node19&#45;&gt;Node2</title>
<path fill="none" stroke="midnightblue" d="M477.701,-280.324C463.817,-271.9 442.508,-258.971 426.196,-249.074"/>
<polygon fill="midnightblue" stroke="midnightblue" points="427.629,-245.85 417.264,-243.655 423.998,-251.834 427.629,-245.85"/>
</g>
<!-- Node19&#45;&gt;Node3 -->
<g id="edge33" class="edge"><title>Node19&#45;&gt;Node3</title>
<path fill="none" stroke="midnightblue" d="M508.961,-280.376C545.945,-260.401 632.64,-206.885 659,-132 664.555,-116.218 658.548,-97.7155 652.192,-84.4955"/>
<polygon fill="midnightblue" stroke="midnightblue" points="655.225,-82.7442 647.448,-75.5484 649.04,-86.023 655.225,-82.7442"/>
</g>
<!-- Node19&#45;&gt;Node7 -->
<g id="edge34" class="edge"><title>Node19&#45;&gt;Node7</title>
<path fill="none" stroke="midnightblue" d="M430.927,-286.184C366.171,-279.465 267.377,-257.637 224,-188 215.281,-174.003 219.009,-155.004 223.879,-141.162"/>
<polygon fill="midnightblue" stroke="midnightblue" points="227.179,-142.336 227.638,-131.751 220.679,-139.739 227.179,-142.336"/>
</g>
<!-- Node19&#45;&gt;Node10 -->
<g id="edge31" class="edge"><title>Node19&#45;&gt;Node10</title>
<path fill="none" stroke="midnightblue" d="M430.683,-288.049C298.793,-284.341 0,-266.307 0,-179 0,-179 0,-179 0,-121 0,-84.3005 25.321,-47.6567 42.2099,-27.2973"/>
<polygon fill="midnightblue" stroke="midnightblue" points="44.9535,-29.475 48.8333,-19.6161 39.6522,-24.9037 44.9535,-29.475"/>
</g>
<!-- Node19&#45;&gt;Node11 -->
<g id="edge32" class="edge"><title>Node19&#45;&gt;Node11</title>
<path fill="none" stroke="midnightblue" d="M493.334,-280.368C496.077,-262.617 502.406,-221.666 506.126,-197.597"/>
<polygon fill="midnightblue" stroke="midnightblue" points="509.604,-198.009 507.672,-187.591 502.686,-196.94 509.604,-198.009"/>
</g>
</g>
</svg>
        <g id="navigator" transform="translate(0 0)" fill="#404254">
                <rect fill="#f2f5e9" fill-opacity="0.5" stroke="#606060" stroke-width=".5" x="0" y="0" width="60" height="60"/>
                <use id="zoomplus" xlink:href="#zoomPlus" x="17" y="9" onmousedown="handleZoom(evt,'in')"/>
                <use id="zoomminus" xlink:href="#zoomMin" x="42" y="9" onmousedown="handleZoom(evt,'out')"/>
                <use id="reset" xlink:href="#resetDef" x="30" y="36" onmousedown="handleReset()"/>
                <g id="arrowUp" xlink:href="#dirArrow" transform="translate(30 24)" onmousedown="handlePan(0,-1)">
                  <use xlink:href="#rim" fill="#404040">
                        <set attributeName="fill" to="#808080" begin="arrowUp.mouseover" end="arrowUp.mouseout"/>
                  </use>
                  <path fill="none" stroke="white" stroke-width="1.5" d="M0,-3.0v7 M-2.5,-0.5L0,-3.0L2.5,-0.5"/>
                </g>
                <g id="arrowRight" xlink:href="#dirArrow" transform="rotate(90) translate(36 -43)" onmousedown="handlePan(1,0)">
                  <use xlink:href="#rim" fill="#404040">
                        <set attributeName="fill" to="#808080" begin="arrowRight.mouseover" end="arrowRight.mouseout"/>
                  </use>
                  <path fill="none" stroke="white" stroke-width="1.5" d="M0,-3.0v7 M-2.5,-0.5L0,-3.0L2.5,-0.5"/>
                </g>
                <g id="arrowDown" xlink:href="#dirArrow" transform="rotate(180) translate(-30 -48)" onmousedown="handlePan(0,1)">
                  <use xlink:href="#rim" fill="#404040">
                        <set attributeName="fill" to="#808080" begin="arrowDown.mouseover" end="arrowDown.mouseout"/>
                  </use>
                  <path fill="none" stroke="white" stroke-width="1.5" d="M0,-3.0v7 M-2.5,-0.5L0,-3.0L2.5,-0.5"/>
                </g>
                <g id="arrowLeft" xlink:href="#dirArrow" transform="rotate(270) translate(-36 17)" onmousedown="handlePan(-1,0)">
                  <use xlink:href="#rim" fill="#404040">
                        <set attributeName="fill" to="#808080" begin="arrowLeft.mouseover" end="arrowLeft.mouseout"/>
                  </use>
                  <path fill="none" stroke="white" stroke-width="1.5" d="M0,-3.0v7 M-2.5,-0.5L0,-3.0L2.5,-0.5"/>
                </g>
        </g>
        <svg viewBox="0 0 15 15" width="100%" height="30px" preserveAspectRatio="xMaxYMin meet">
         <g id="arrow_out" transform="scale(0.3 0.3)">
          <a xlink:href="cipconnectionobject_8c__incl_org.svg" target="_base">
           <rect id="button" ry="5" rx="5" y="6" x="6" height="38" width="38"
                fill="#f2f5e9" fill-opacity="0.5" stroke="#606060" stroke-width="1.0"/>
           <path id="arrow"
             d="M 11.500037,31.436501 C 11.940474,20.09759 22.043105,11.32322 32.158766,21.979434 L 37.068811,17.246167 C 37.068811,17.246167 37.088388,32 37.088388,32 L 22.160133,31.978069 C 22.160133,31.978069 26.997745,27.140456 26.997745,27.140456 C 18.528582,18.264221 13.291696,25.230495 11.500037,31.436501 z"
             style="fill:#404040;"/>
          </a>
         </g>
        </svg>
</svg>
