<?xml version="1.0" encoding="UTF-8" standalone="no"?>
<!DOCTYPE svg PUBLIC "-//W3C//DTD SVG 1.1//EN"
 "http://www.w3.org/Graphics/SVG/1.1/DTD/svg11.dtd">
<!-- Generated by graphviz version 2.38.0 (20140413.2041)
 -->
<!-- Title: RemoveSession Pages: 1 -->
<svg width="792pt" height="104pt"
 viewBox="0.00 0.00 792.00 104.00" xmlns="http://www.w3.org/2000/svg" xmlns:xlink="http://www.w3.org/1999/xlink">
<g id="graph0" class="graph" transform="scale(1 1) rotate(0) translate(4 100)">
<title>RemoveSession</title>
<!-- Node1 -->
<g id="node1" class="node"><title>Node1</title>
<polygon fill="#bfbfbf" stroke="black" points="0,-38.5 0,-57.5 89,-57.5 89,-38.5 0,-38.5"/>
<text text-anchor="middle" x="44.5" y="-45.5" font-family="Helvetica,sans-Serif" font-size="10.00">RemoveSession</text>
</g>
<!-- Node2 -->
<g id="node2" class="node"><title>Node2</title>
<g id="a_node2"><a xlink:href="../../db/d4f/generic__networkhandler_8c.html#ab561fc66fe48a0cf95be3d152b297dd9" target="_top" xlink:title="CheckEncapsulationInactivity">
<polygon fill="none" stroke="black" points="125,-76.5 125,-95.5 271,-95.5 271,-76.5 125,-76.5"/>
<text text-anchor="middle" x="198" y="-83.5" font-family="Helvetica,sans-Serif" font-size="10.00">CheckEncapsulationInactivity</text>
</a>
</g>
</g>
<!-- Node1&#45;&gt;Node2 -->
<g id="edge1" class="edge"><title>Node1&#45;&gt;Node2</title>
<path fill="none" stroke="midnightblue" d="M93.5016,-60.04C114.667,-65.3488 139.186,-71.4988 159.045,-76.4799"/>
<polygon fill="midnightblue" stroke="midnightblue" points="94.2809,-56.6271 83.7298,-57.589 92.5779,-63.4168 94.2809,-56.6271"/>
</g>
<!-- Node3 -->
<g id="node3" class="node"><title>Node3</title>
<g id="a_node3"><a xlink:href="../../da/dc2/generic__networkhandler_8h.html#a2f01af81d3e5018d9980e2bc28c9078a" target="_top" xlink:title="NetworkHandlerProcessOnce">
<polygon fill="none" stroke="black" points="307,-38.5 307,-57.5 453,-57.5 453,-38.5 307,-38.5"/>
<text text-anchor="middle" x="380" y="-45.5" font-family="Helvetica,sans-Serif" font-size="10.00">NetworkHandlerProcessOnce</text>
</a>
</g>
</g>
<!-- Node1&#45;&gt;Node3 -->
<g id="edge9" class="edge"><title>Node1&#45;&gt;Node3</title>
<path fill="none" stroke="midnightblue" d="M99.2194,-48C155.515,-48 244.285,-48 306.706,-48"/>
<polygon fill="midnightblue" stroke="midnightblue" points="99.0993,-44.5001 89.0993,-48 99.0993,-51.5001 99.0993,-44.5001"/>
</g>
<!-- Node8 -->
<g id="node8" class="node"><title>Node8</title>
<g id="a_node8"><a xlink:href="../../db/d4f/generic__networkhandler_8c.html#aca5593b7dd39d7a7b437999a367102d6" target="_top" xlink:title="Handles data on an established TCP connection, processed connection is given by socket. ">
<polygon fill="none" stroke="black" points="134,-0.5 134,-19.5 262,-19.5 262,-0.5 134,-0.5"/>
<text text-anchor="middle" x="198" y="-7.5" font-family="Helvetica,sans-Serif" font-size="10.00">HandleDataOnTcpSocket</text>
</a>
</g>
</g>
<!-- Node1&#45;&gt;Node8 -->
<g id="edge7" class="edge"><title>Node1&#45;&gt;Node8</title>
<path fill="none" stroke="midnightblue" d="M93.5016,-35.96C114.667,-30.6512 139.186,-24.5012 159.045,-19.5201"/>
<polygon fill="midnightblue" stroke="midnightblue" points="92.5779,-32.5832 83.7298,-38.411 94.2809,-39.3729 92.5779,-32.5832"/>
</g>
<!-- Node2&#45;&gt;Node3 -->
<g id="edge2" class="edge"><title>Node2&#45;&gt;Node3</title>
<path fill="none" stroke="midnightblue" d="M254.331,-74.319C279.857,-68.9301 309.776,-62.6139 333.905,-57.5201"/>
<polygon fill="midnightblue" stroke="midnightblue" points="253.483,-70.9208 244.422,-76.411 254.929,-77.7699 253.483,-70.9208"/>
</g>
<!-- Node4 -->
<g id="node4" class="node"><title>Node4</title>
<g id="a_node4"><a xlink:href="../../d5/dcb/MINGW_2main_8c.html#ad338a7dbc41dc40bcecd0479377ef207" target="_top" xlink:title="main">
<polygon fill="none" stroke="black" points="504,-57.5 504,-76.5 542,-76.5 542,-57.5 504,-57.5"/>
<text text-anchor="middle" x="523" y="-64.5" font-family="Helvetica,sans-Serif" font-size="10.00">main</text>
</a>
</g>
</g>
<!-- Node3&#45;&gt;Node4 -->
<g id="edge3" class="edge"><title>Node3&#45;&gt;Node4</title>
<path fill="none" stroke="midnightblue" d="M461.851,-58.8949C477.712,-61.0322 492.859,-63.0731 503.984,-64.5724"/>
<polygon fill="midnightblue" stroke="midnightblue" points="462.291,-55.4225 451.913,-57.5557 461.356,-62.3598 462.291,-55.4225"/>
</g>
<!-- Node7 -->
<g id="node7" class="node"><title>Node7</title>
<g id="a_node7"><a xlink:href="../../d9/dfb/POSIX_2main_8c.html#acd4e45a35a64f9cb29b59f63492b61d2" target="_top" xlink:title="Signal handler function for ending stack execution. ">
<polygon fill="none" stroke="black" points="489,-19.5 489,-38.5 557,-38.5 557,-19.5 489,-19.5"/>
<text text-anchor="middle" x="523" y="-26.5" font-family="Helvetica,sans-Serif" font-size="10.00">LeaveStack</text>
</a>
</g>
</g>
<!-- Node3&#45;&gt;Node7 -->
<g id="edge6" class="edge"><title>Node3&#45;&gt;Node7</title>
<path fill="none" stroke="midnightblue" d="M461.851,-37.1051C471.328,-35.8281 480.55,-34.5855 488.811,-33.4723"/>
<polygon fill="midnightblue" stroke="midnightblue" points="461.356,-33.6402 451.913,-38.4443 462.291,-40.5775 461.356,-33.6402"/>
</g>
<!-- Node5 -->
<g id="node5" class="node"><title>Node5</title>
<g id="a_node5"><a xlink:href="../../d8/d03/ports_2MINGW_2CMakeLists_8txt.html#a7e00df43a20d627a1732be7766d91097" target="_top" xlink:title="add_library">
<polygon fill="none" stroke="black" points="593,-57.5 593,-76.5 657,-76.5 657,-57.5 593,-57.5"/>
<text text-anchor="middle" x="625" y="-64.5" font-family="Helvetica,sans-Serif" font-size="10.00">add_library</text>
</a>
</g>
</g>
<!-- Node4&#45;&gt;Node5 -->
<g id="edge4" class="edge"><title>Node4&#45;&gt;Node5</title>
<path fill="none" stroke="midnightblue" d="M552.697,-67C565.244,-67 579.992,-67 592.809,-67"/>
<polygon fill="midnightblue" stroke="midnightblue" points="552.342,-63.5001 542.342,-67 552.342,-70.5001 552.342,-63.5001"/>
</g>
<!-- Node6 -->
<g id="node6" class="node"><title>Node6</title>
<g id="a_node6"><a xlink:href="../../d8/dce/ports_2CMakeLists_8txt.html#a598fae457555a5fb26e18d4cd8f89de9" target="_top" xlink:title="add_subdirectory">
<polygon fill="none" stroke="black" points="693,-57.5 693,-76.5 784,-76.5 784,-57.5 693,-57.5"/>
<text text-anchor="middle" x="738.5" y="-64.5" font-family="Helvetica,sans-Serif" font-size="10.00">add_subdirectory</text>
</a>
</g>
</g>
<!-- Node5&#45;&gt;Node6 -->
<g id="edge5" class="edge"><title>Node5&#45;&gt;Node6</title>
<path fill="none" stroke="midnightblue" d="M667.3,-67C675.629,-67 684.419,-67 692.856,-67"/>
<polygon fill="midnightblue" stroke="midnightblue" points="667.059,-63.5001 657.059,-67 667.059,-70.5001 667.059,-63.5001"/>
</g>
<!-- Node8&#45;&gt;Node3 -->
<g id="edge8" class="edge"><title>Node8&#45;&gt;Node3</title>
<path fill="none" stroke="midnightblue" d="M254.331,-21.681C279.857,-27.0699 309.776,-33.3861 333.905,-38.4799"/>
<polygon fill="midnightblue" stroke="midnightblue" points="254.929,-18.2301 244.422,-19.589 253.483,-25.0792 254.929,-18.2301"/>
</g>
</g>
</svg>
