<?xml version="1.0" encoding="UTF-8" standalone="no"?>
<!DOCTYPE svg PUBLIC "-//W3C//DTD SVG 1.1//EN"
 "http://www.w3.org/Graphics/SVG/1.1/DTD/svg11.dtd">
<!-- Generated by graphviz version 2.38.0 (20140413.2041)
 -->
<!-- Title: GenerateEncapsulationHeader Pages: 1 -->
<svg width="1479pt" height="472pt"
 viewBox="0.00 0.00 1479.00 471.50" xmlns="http://www.w3.org/2000/svg" xmlns:xlink="http://www.w3.org/1999/xlink">
<g id="graph0" class="graph" transform="scale(1 1) rotate(0) translate(4 467.5)">
<title>GenerateEncapsulationHeader</title>
<!-- Node1 -->
<g id="node1" class="node"><title>Node1</title>
<polygon fill="#bfbfbf" stroke="black" points="0,-192.5 0,-211.5 149,-211.5 149,-192.5 0,-192.5"/>
<text text-anchor="middle" x="74.5" y="-199.5" font-family="Helvetica,sans-Serif" font-size="10.00">GenerateEncapsulationHeader</text>
</g>
<!-- Node2 -->
<g id="node2" class="node"><title>Node2</title>
<g id="a_node2"><a xlink:href="../../d7/df9/encap_8h.html#ae8d8af733e9ac70ea728d6255aced4b6" target="_top" xlink:title="EncapsulateListIdentityResponse\lMessage">
<polygon fill="none" stroke="black" points="185,-384 185,-414 348,-414 348,-384 185,-384"/>
<text text-anchor="start" x="193" y="-402" font-family="Helvetica,sans-Serif" font-size="10.00">EncapsulateListIdentityResponse</text>
<text text-anchor="middle" x="266.5" y="-391" font-family="Helvetica,sans-Serif" font-size="10.00">Message</text>
</a>
</g>
</g>
<!-- Node1&#45;&gt;Node2 -->
<g id="edge1" class="edge"><title>Node1&#45;&gt;Node2</title>
<path fill="none" stroke="midnightblue" d="M84.0359,-221.272C99.6417,-254.537 135.758,-323.087 185,-364 194.846,-372.181 206.898,-378.761 218.648,-383.911"/>
<polygon fill="midnightblue" stroke="midnightblue" points="87.0418,-219.429 79.6991,-211.792 80.6762,-222.341 87.0418,-219.429"/>
</g>
<!-- Node15 -->
<g id="node15" class="node"><title>Node15</title>
<g id="a_node15"><a xlink:href="../../d2/dbd/encap_8c.html#a82c9bd88dfd739419eb32c59dc42439c" target="_top" xlink:title="EncapsulateRegisterSession\lCommandResponseMessage">
<polygon fill="none" stroke="black" points="193.5,-253 193.5,-283 339.5,-283 339.5,-253 193.5,-253"/>
<text text-anchor="start" x="201.5" y="-271" font-family="Helvetica,sans-Serif" font-size="10.00">EncapsulateRegisterSession</text>
<text text-anchor="middle" x="266.5" y="-260" font-family="Helvetica,sans-Serif" font-size="10.00">CommandResponseMessage</text>
</a>
</g>
</g>
<!-- Node1&#45;&gt;Node15 -->
<g id="edge17" class="edge"><title>Node1&#45;&gt;Node15</title>
<path fill="none" stroke="midnightblue" d="M109.088,-215.144C130.663,-223.446 159.351,-234.223 185,-243 194.831,-246.364 205.4,-249.785 215.543,-252.972"/>
<polygon fill="midnightblue" stroke="midnightblue" points="110.301,-211.861 99.7114,-211.52 107.777,-218.39 110.301,-211.861"/>
</g>
<!-- Node17 -->
<g id="node17" class="node"><title>Node17</title>
<g id="a_node17"><a xlink:href="../../d2/dbd/encap_8c.html#a7ad422d8ac1cc9507d6fd73837302c3a" target="_top" xlink:title="HandleReceivedInvalidCommand">
<polygon fill="none" stroke="black" points="185.5,-214.5 185.5,-233.5 347.5,-233.5 347.5,-214.5 185.5,-214.5"/>
<text text-anchor="middle" x="266.5" y="-221.5" font-family="Helvetica,sans-Serif" font-size="10.00">HandleReceivedInvalidCommand</text>
</a>
</g>
</g>
<!-- Node1&#45;&gt;Node17 -->
<g id="edge20" class="edge"><title>Node1&#45;&gt;Node17</title>
<path fill="none" stroke="midnightblue" d="M159.268,-211.699C167.882,-212.697 176.621,-213.709 185.197,-214.702"/>
<polygon fill="midnightblue" stroke="midnightblue" points="159.567,-208.211 149.231,-210.537 158.762,-215.164 159.567,-208.211"/>
</g>
<!-- Node18 -->
<g id="node18" class="node"><title>Node18</title>
<g id="a_node18"><a xlink:href="../../d7/df9/encap_8h.html#a371a47e722a3aea264b6eb39cfc725aa" target="_top" xlink:title="HandleReceivedListInterfaces\lCommand">
<polygon fill="none" stroke="black" points="390.5,-335 390.5,-365 538.5,-365 538.5,-335 390.5,-335"/>
<text text-anchor="start" x="398.5" y="-353" font-family="Helvetica,sans-Serif" font-size="10.00">HandleReceivedListInterfaces</text>
<text text-anchor="middle" x="464.5" y="-342" font-family="Helvetica,sans-Serif" font-size="10.00">Command</text>
</a>
</g>
</g>
<!-- Node1&#45;&gt;Node18 -->
<g id="edge22" class="edge"><title>Node1&#45;&gt;Node18</title>
<path fill="none" stroke="midnightblue" d="M86.7062,-220.345C104.081,-246.969 140.231,-295.578 185,-318 249.187,-350.146 331.863,-355.872 390.414,-354.951"/>
<polygon fill="midnightblue" stroke="midnightblue" points="89.4845,-218.191 81.1731,-211.62 83.573,-221.94 89.4845,-218.191"/>
</g>
<!-- Node19 -->
<g id="node19" class="node"><title>Node19</title>
<g id="a_node19"><a xlink:href="../../d7/df9/encap_8h.html#a85c97a897b8f95d2a05e6480480bba5d" target="_top" xlink:title="generate reply with &quot;Communications Services&quot; + compatibility Flags. ">
<polygon fill="none" stroke="black" points="393,-286 393,-316 536,-316 536,-286 393,-286"/>
<text text-anchor="start" x="401" y="-304" font-family="Helvetica,sans-Serif" font-size="10.00">HandleReceivedListServices</text>
<text text-anchor="middle" x="464.5" y="-293" font-family="Helvetica,sans-Serif" font-size="10.00">Command</text>
</a>
</g>
</g>
<!-- Node1&#45;&gt;Node19 -->
<g id="edge25" class="edge"><title>Node1&#45;&gt;Node19</title>
<path fill="none" stroke="midnightblue" d="M89.9933,-219.505C109.147,-241.158 145.153,-276.995 185,-292 252.23,-317.316 335.175,-316.29 392.981,-310.964"/>
<polygon fill="midnightblue" stroke="midnightblue" points="92.4634,-217.009 83.2872,-211.713 87.158,-221.576 92.4634,-217.009"/>
</g>
<!-- Node20 -->
<g id="node20" class="node"><title>Node20</title>
<g id="a_node20"><a xlink:href="../../d7/df9/encap_8h.html#a51dd68441ec427052986aef5c5c076e4" target="_top" xlink:title="Call UCMM or Message Router if UCMM not implemented. ">
<polygon fill="none" stroke="black" points="390.5,-33 390.5,-63 538.5,-63 538.5,-33 390.5,-33"/>
<text text-anchor="start" x="398.5" y="-51" font-family="Helvetica,sans-Serif" font-size="10.00">HandleReceivedSendRequest</text>
<text text-anchor="middle" x="464.5" y="-40" font-family="Helvetica,sans-Serif" font-size="10.00">ResponseDataCommand</text>
</a>
</g>
</g>
<!-- Node1&#45;&gt;Node20 -->
<g id="edge28" class="edge"><title>Node1&#45;&gt;Node20</title>
<path fill="none" stroke="midnightblue" d="M84.4148,-183.027C99.9586,-152.391 135.185,-92.853 185,-67 248.555,-34.0162 331.517,-32.7766 390.315,-37.6259"/>
<polygon fill="midnightblue" stroke="midnightblue" points="81.1678,-181.699 79.9053,-192.218 87.4522,-184.782 81.1678,-181.699"/>
</g>
<!-- Node21 -->
<g id="node21" class="node"><title>Node21</title>
<g id="a_node21"><a xlink:href="../../d2/dbd/encap_8c.html#a49dc585614f655a5b313150a01fd7221" target="_top" xlink:title="Call Connection Manager. ">
<polygon fill="none" stroke="black" points="389.5,-149 389.5,-179 539.5,-179 539.5,-149 389.5,-149"/>
<text text-anchor="start" x="397.5" y="-167" font-family="Helvetica,sans-Serif" font-size="10.00">HandleReceivedSendUnitData</text>
<text text-anchor="middle" x="464.5" y="-156" font-family="Helvetica,sans-Serif" font-size="10.00">Command</text>
</a>
</g>
</g>
<!-- Node1&#45;&gt;Node21 -->
<g id="edge30" class="edge"><title>Node1&#45;&gt;Node21</title>
<path fill="none" stroke="midnightblue" d="M100.714,-187.673C122.309,-176.276 154.639,-161.241 185,-155 253.235,-140.975 332.825,-145.576 389.405,-152.286"/>
<polygon fill="midnightblue" stroke="midnightblue" points="99.005,-184.618 91.8737,-192.454 102.335,-190.776 99.005,-184.618"/>
</g>
<!-- Node22 -->
<g id="node22" class="node"><title>Node22</title>
<g id="a_node22"><a xlink:href="../../d2/dbd/encap_8c.html#a601cd19c88f03fd742f098a1bf5b9e85" target="_top" xlink:title="HandleReceivedUnregister\lSessionCommand">
<polygon fill="none" stroke="black" points="199.5,-77 199.5,-107 333.5,-107 333.5,-77 199.5,-77"/>
<text text-anchor="start" x="207.5" y="-95" font-family="Helvetica,sans-Serif" font-size="10.00">HandleReceivedUnregister</text>
<text text-anchor="middle" x="266.5" y="-84" font-family="Helvetica,sans-Serif" font-size="10.00">SessionCommand</text>
</a>
</g>
</g>
<!-- Node1&#45;&gt;Node22 -->
<g id="edge32" class="edge"><title>Node1&#45;&gt;Node22</title>
<path fill="none" stroke="midnightblue" d="M94.4522,-185.635C115.472,-168.107 150.928,-140.342 185,-122 195.506,-116.344 207.307,-111.294 218.568,-107.022"/>
<polygon fill="midnightblue" stroke="midnightblue" points="92.0077,-183.119 86.6277,-192.246 96.5253,-188.466 92.0077,-183.119"/>
</g>
<!-- Node23 -->
<g id="node23" class="node"><title>Node23</title>
<g id="a_node23"><a xlink:href="../../d4/d91/group__ENCAP.html#gaf4beeca6ee941986295958572352a567" target="_top" xlink:title="NotifyCommonPacketFormat">
<polygon fill="none" stroke="black" points="194.5,-0.5 194.5,-19.5 338.5,-19.5 338.5,-0.5 194.5,-0.5"/>
<text text-anchor="middle" x="266.5" y="-7.5" font-family="Helvetica,sans-Serif" font-size="10.00">NotifyCommonPacketFormat</text>
</a>
</g>
</g>
<!-- Node1&#45;&gt;Node23 -->
<g id="edge34" class="edge"><title>Node1&#45;&gt;Node23</title>
<path fill="none" stroke="midnightblue" d="M82.7399,-182.823C96.911,-147.893 131.66,-73.8348 185,-34 193.413,-27.7171 203.461,-23.0699 213.56,-19.6353"/>
<polygon fill="midnightblue" stroke="midnightblue" points="79.4055,-181.739 79.0049,-192.326 85.9204,-184.3 79.4055,-181.739"/>
</g>
<!-- Node24 -->
<g id="node24" class="node"><title>Node24</title>
<g id="a_node24"><a xlink:href="../../d4/d91/group__ENCAP.html#ga93b23ccc67639937716a8f436a96c2b5" target="_top" xlink:title="NotifyConnectedCommonPacket\lFormat">
<polygon fill="none" stroke="black" points="186,-165 186,-195 347,-195 347,-165 186,-165"/>
<text text-anchor="start" x="194" y="-183" font-family="Helvetica,sans-Serif" font-size="10.00">NotifyConnectedCommonPacket</text>
<text text-anchor="middle" x="266.5" y="-172" font-family="Helvetica,sans-Serif" font-size="10.00">Format</text>
</a>
</g>
</g>
<!-- Node1&#45;&gt;Node24 -->
<g id="edge36" class="edge"><title>Node1&#45;&gt;Node24</title>
<path fill="none" stroke="midnightblue" d="M159.447,-192.28C168.216,-191.265 177.111,-190.234 185.83,-189.225"/>
<polygon fill="midnightblue" stroke="midnightblue" points="158.762,-188.836 149.231,-193.463 159.567,-195.789 158.762,-188.836"/>
</g>
<!-- Node3 -->
<g id="node3" class="node"><title>Node3</title>
<g id="a_node3"><a xlink:href="../../d2/dbd/encap_8c.html#ae4d21e6254396c9cb1b5716b054e57de" target="_top" xlink:title="HandleReceivedListIdentity\lCommandTcp">
<polygon fill="none" stroke="black" points="396,-384 396,-414 533,-414 533,-384 396,-384"/>
<text text-anchor="start" x="404" y="-402" font-family="Helvetica,sans-Serif" font-size="10.00">HandleReceivedListIdentity</text>
<text text-anchor="middle" x="464.5" y="-391" font-family="Helvetica,sans-Serif" font-size="10.00">CommandTcp</text>
</a>
</g>
</g>
<!-- Node2&#45;&gt;Node3 -->
<g id="edge2" class="edge"><title>Node2&#45;&gt;Node3</title>
<path fill="none" stroke="midnightblue" d="M358.159,-399C370.804,-399 383.613,-399 395.738,-399"/>
<polygon fill="midnightblue" stroke="midnightblue" points="358.069,-395.5 348.069,-399 358.069,-402.5 358.069,-395.5"/>
</g>
<!-- Node14 -->
<g id="node14" class="node"><title>Node14</title>
<g id="a_node14"><a xlink:href="../../d2/dbd/encap_8c.html#aa042b74f0d2659164f5c6811e6cb4fda" target="_top" xlink:title="HandleReceivedListIdentity\lCommandUdp">
<polygon fill="none" stroke="black" points="396,-433 396,-463 533,-463 533,-433 396,-433"/>
<text text-anchor="start" x="404" y="-451" font-family="Helvetica,sans-Serif" font-size="10.00">HandleReceivedListIdentity</text>
<text text-anchor="middle" x="464.5" y="-440" font-family="Helvetica,sans-Serif" font-size="10.00">CommandUdp</text>
</a>
</g>
</g>
<!-- Node2&#45;&gt;Node14 -->
<g id="edge15" class="edge"><title>Node2&#45;&gt;Node14</title>
<path fill="none" stroke="midnightblue" d="M337.407,-416.477C359.01,-421.877 382.602,-427.776 403.475,-432.994"/>
<polygon fill="midnightblue" stroke="midnightblue" points="338.189,-413.065 327.638,-414.035 336.491,-419.856 338.189,-413.065"/>
</g>
<!-- Node4 -->
<g id="node4" class="node"><title>Node4</title>
<g id="a_node4"><a xlink:href="../../d2/dc9/group__CIP__API.html#ga16eaeeb12ba23b5a75c8e5902a33d70a" target="_top" xlink:title="Notify the encapsulation layer that an explicit message has been received via TCP. ">
<polygon fill="none" stroke="black" points="582,-242.5 582,-261.5 738,-261.5 738,-242.5 582,-242.5"/>
<text text-anchor="middle" x="660" y="-249.5" font-family="Helvetica,sans-Serif" font-size="10.00">HandleReceivedExplictTcpData</text>
</a>
</g>
</g>
<!-- Node3&#45;&gt;Node4 -->
<g id="edge3" class="edge"><title>Node3&#45;&gt;Node4</title>
<path fill="none" stroke="midnightblue" d="M535.331,-379.681C538.688,-377.94 541.933,-376.05 545,-374 565.722,-360.149 564.23,-349.439 581,-331 604.472,-305.191 633.745,-276.386 648.882,-261.723"/>
<polygon fill="midnightblue" stroke="midnightblue" points="533.796,-376.535 526.229,-383.95 536.768,-382.873 533.796,-376.535"/>
</g>
<!-- Node11 -->
<g id="node11" class="node"><title>Node11</title>
<g id="a_node11"><a xlink:href="../../d2/dc9/group__CIP__API.html#gaab62df9410a09727a82afa7672e3194a" target="_top" xlink:title="Notify the encapsulation layer that an explicit message has been received via UDP. ">
<polygon fill="none" stroke="black" points="581,-340.5 581,-359.5 739,-359.5 739,-340.5 581,-340.5"/>
<text text-anchor="middle" x="660" y="-347.5" font-family="Helvetica,sans-Serif" font-size="10.00">HandleReceivedExplictUdpData</text>
</a>
</g>
</g>
<!-- Node3&#45;&gt;Node11 -->
<g id="edge10" class="edge"><title>Node3&#45;&gt;Node11</title>
<path fill="none" stroke="midnightblue" d="M534.626,-381.495C563.855,-374.093 596.756,-365.762 621.374,-359.528"/>
<polygon fill="midnightblue" stroke="midnightblue" points="533.706,-378.118 524.871,-383.965 535.425,-384.903 533.706,-378.118"/>
</g>
<!-- Node5 -->
<g id="node5" class="node"><title>Node5</title>
<g id="a_node5"><a xlink:href="../../db/d4f/generic__networkhandler_8c.html#aca5593b7dd39d7a7b437999a367102d6" target="_top" xlink:title="Handles data on an established TCP connection, processed connection is given by socket. ">
<polygon fill="none" stroke="black" points="802.5,-245.5 802.5,-264.5 930.5,-264.5 930.5,-245.5 802.5,-245.5"/>
<text text-anchor="middle" x="866.5" y="-252.5" font-family="Helvetica,sans-Serif" font-size="10.00">HandleDataOnTcpSocket</text>
</a>
</g>
</g>
<!-- Node4&#45;&gt;Node5 -->
<g id="edge4" class="edge"><title>Node4&#45;&gt;Node5</title>
<path fill="none" stroke="midnightblue" d="M748.044,-253.277C766.232,-253.544 785.078,-253.82 802.208,-254.072"/>
<polygon fill="midnightblue" stroke="midnightblue" points="748.072,-249.777 738.021,-253.13 747.969,-256.776 748.072,-249.777"/>
</g>
<!-- Node6 -->
<g id="node6" class="node"><title>Node6</title>
<g id="a_node6"><a xlink:href="../../da/dc2/generic__networkhandler_8h.html#a2f01af81d3e5018d9980e2bc28c9078a" target="_top" xlink:title="NetworkHandlerProcessOnce">
<polygon fill="none" stroke="black" points="994,-291.5 994,-310.5 1140,-310.5 1140,-291.5 994,-291.5"/>
<text text-anchor="middle" x="1067" y="-298.5" font-family="Helvetica,sans-Serif" font-size="10.00">NetworkHandlerProcessOnce</text>
</a>
</g>
</g>
<!-- Node5&#45;&gt;Node6 -->
<g id="edge5" class="edge"><title>Node5&#45;&gt;Node6</title>
<path fill="none" stroke="midnightblue" d="M918.559,-266.832C951.605,-274.49 994.063,-284.329 1024.92,-291.481"/>
<polygon fill="midnightblue" stroke="midnightblue" points="919.161,-263.379 908.629,-264.531 917.581,-270.199 919.161,-263.379"/>
</g>
<!-- Node7 -->
<g id="node7" class="node"><title>Node7</title>
<g id="a_node7"><a xlink:href="../../d5/dcb/MINGW_2main_8c.html#ad338a7dbc41dc40bcecd0479377ef207" target="_top" xlink:title="main">
<polygon fill="none" stroke="black" points="1191,-310.5 1191,-329.5 1229,-329.5 1229,-310.5 1191,-310.5"/>
<text text-anchor="middle" x="1210" y="-317.5" font-family="Helvetica,sans-Serif" font-size="10.00">main</text>
</a>
</g>
</g>
<!-- Node6&#45;&gt;Node7 -->
<g id="edge6" class="edge"><title>Node6&#45;&gt;Node7</title>
<path fill="none" stroke="midnightblue" d="M1148.85,-311.895C1164.71,-314.032 1179.86,-316.073 1190.98,-317.572"/>
<polygon fill="midnightblue" stroke="midnightblue" points="1149.29,-308.423 1138.91,-310.556 1148.36,-315.36 1149.29,-308.423"/>
</g>
<!-- Node10 -->
<g id="node10" class="node"><title>Node10</title>
<g id="a_node10"><a xlink:href="../../d9/dfb/POSIX_2main_8c.html#acd4e45a35a64f9cb29b59f63492b61d2" target="_top" xlink:title="Signal handler function for ending stack execution. ">
<polygon fill="none" stroke="black" points="1176,-272.5 1176,-291.5 1244,-291.5 1244,-272.5 1176,-272.5"/>
<text text-anchor="middle" x="1210" y="-279.5" font-family="Helvetica,sans-Serif" font-size="10.00">LeaveStack</text>
</a>
</g>
</g>
<!-- Node6&#45;&gt;Node10 -->
<g id="edge9" class="edge"><title>Node6&#45;&gt;Node10</title>
<path fill="none" stroke="midnightblue" d="M1148.85,-290.105C1158.33,-288.828 1167.55,-287.586 1175.81,-286.472"/>
<polygon fill="midnightblue" stroke="midnightblue" points="1148.36,-286.64 1138.91,-291.444 1149.29,-293.577 1148.36,-286.64"/>
</g>
<!-- Node8 -->
<g id="node8" class="node"><title>Node8</title>
<g id="a_node8"><a xlink:href="../../d8/d03/ports_2MINGW_2CMakeLists_8txt.html#a7e00df43a20d627a1732be7766d91097" target="_top" xlink:title="add_library">
<polygon fill="none" stroke="black" points="1280,-310.5 1280,-329.5 1344,-329.5 1344,-310.5 1280,-310.5"/>
<text text-anchor="middle" x="1312" y="-317.5" font-family="Helvetica,sans-Serif" font-size="10.00">add_library</text>
</a>
</g>
</g>
<!-- Node7&#45;&gt;Node8 -->
<g id="edge7" class="edge"><title>Node7&#45;&gt;Node8</title>
<path fill="none" stroke="midnightblue" d="M1239.7,-320C1252.24,-320 1266.99,-320 1279.81,-320"/>
<polygon fill="midnightblue" stroke="midnightblue" points="1239.34,-316.5 1229.34,-320 1239.34,-323.5 1239.34,-316.5"/>
</g>
<!-- Node9 -->
<g id="node9" class="node"><title>Node9</title>
<g id="a_node9"><a xlink:href="../../d8/dce/ports_2CMakeLists_8txt.html#a598fae457555a5fb26e18d4cd8f89de9" target="_top" xlink:title="add_subdirectory">
<polygon fill="none" stroke="black" points="1380,-310.5 1380,-329.5 1471,-329.5 1471,-310.5 1380,-310.5"/>
<text text-anchor="middle" x="1425.5" y="-317.5" font-family="Helvetica,sans-Serif" font-size="10.00">add_subdirectory</text>
</a>
</g>
</g>
<!-- Node8&#45;&gt;Node9 -->
<g id="edge8" class="edge"><title>Node8&#45;&gt;Node9</title>
<path fill="none" stroke="midnightblue" d="M1354.3,-320C1362.63,-320 1371.42,-320 1379.86,-320"/>
<polygon fill="midnightblue" stroke="midnightblue" points="1354.06,-316.5 1344.06,-320 1354.06,-323.5 1354.06,-316.5"/>
</g>
<!-- Node12 -->
<g id="node12" class="node"><title>Node12</title>
<g id="a_node12"><a xlink:href="../../db/d4f/generic__networkhandler_8c.html#a5cae623dd720f3072dabdb78aa134262" target="_top" xlink:title="Checks and handles incoming messages via UDP broadcast. ">
<polygon fill="none" stroke="black" points="775,-286 775,-316 958,-316 958,-286 775,-286"/>
<text text-anchor="start" x="783" y="-304" font-family="Helvetica,sans-Serif" font-size="10.00">CheckAndHandleUdpGlobalBroadcast</text>
<text text-anchor="middle" x="866.5" y="-293" font-family="Helvetica,sans-Serif" font-size="10.00">Socket</text>
</a>
</g>
</g>
<!-- Node11&#45;&gt;Node12 -->
<g id="edge11" class="edge"><title>Node11&#45;&gt;Node12</title>
<path fill="none" stroke="midnightblue" d="M710.776,-338.073C738.468,-331.438 773.204,-323.115 802.744,-316.037"/>
<polygon fill="midnightblue" stroke="midnightblue" points="709.824,-334.702 700.915,-340.436 711.455,-341.509 709.824,-334.702"/>
</g>
<!-- Node13 -->
<g id="node13" class="node"><title>Node13</title>
<g id="a_node13"><a xlink:href="../../db/d4f/generic__networkhandler_8c.html#ace1d8f3907ead0c43c1b5853132d5eb1" target="_top" xlink:title="Checks and processes request received via the UDP unicast socket, currently the implementation is por...">
<polygon fill="none" stroke="black" points="794,-335 794,-365 939,-365 939,-335 794,-335"/>
<text text-anchor="start" x="802" y="-353" font-family="Helvetica,sans-Serif" font-size="10.00">CheckAndHandleUdpUnicast</text>
<text text-anchor="middle" x="866.5" y="-342" font-family="Helvetica,sans-Serif" font-size="10.00">Socket</text>
</a>
</g>
</g>
<!-- Node11&#45;&gt;Node13 -->
<g id="edge13" class="edge"><title>Node11&#45;&gt;Node13</title>
<path fill="none" stroke="midnightblue" d="M749.367,-350C764.185,-350 779.399,-350 793.733,-350"/>
<polygon fill="midnightblue" stroke="midnightblue" points="749.188,-346.5 739.188,-350 749.188,-353.5 749.188,-346.5"/>
</g>
<!-- Node12&#45;&gt;Node6 -->
<g id="edge12" class="edge"><title>Node12&#45;&gt;Node6</title>
<path fill="none" stroke="midnightblue" d="M968.156,-301C976.783,-301 985.396,-301 993.735,-301"/>
<polygon fill="midnightblue" stroke="midnightblue" points="968.037,-297.5 958.037,-301 968.037,-304.5 968.037,-297.5"/>
</g>
<!-- Node13&#45;&gt;Node6 -->
<g id="edge14" class="edge"><title>Node13&#45;&gt;Node6</title>
<path fill="none" stroke="midnightblue" d="M938.412,-332.495C968.397,-325.093 1002.15,-316.762 1027.4,-310.528"/>
<polygon fill="midnightblue" stroke="midnightblue" points="937.275,-329.171 928.406,-334.965 938.953,-335.967 937.275,-329.171"/>
</g>
<!-- Node14&#45;&gt;Node11 -->
<g id="edge16" class="edge"><title>Node14&#45;&gt;Node11</title>
<path fill="none" stroke="midnightblue" d="M529.639,-429.472C534.903,-427.457 540.084,-425.297 545,-423 584.177,-404.694 625.93,-374.991 646.317,-359.731"/>
<polygon fill="midnightblue" stroke="midnightblue" points="528.315,-426.229 520.115,-432.939 530.709,-432.807 528.315,-426.229"/>
</g>
<!-- Node16 -->
<g id="node16" class="node"><title>Node16</title>
<g id="a_node16"><a xlink:href="../../d7/df9/encap_8h.html#a6007bf2e4bd1e9b0447efc3d9937087b" target="_top" xlink:title="HandleReceivedRegisterSession\lCommand">
<polygon fill="none" stroke="black" points="384,-237 384,-267 545,-267 545,-237 384,-237"/>
<text text-anchor="start" x="392" y="-255" font-family="Helvetica,sans-Serif" font-size="10.00">HandleReceivedRegisterSession</text>
<text text-anchor="middle" x="464.5" y="-244" font-family="Helvetica,sans-Serif" font-size="10.00">Command</text>
</a>
</g>
</g>
<!-- Node15&#45;&gt;Node16 -->
<g id="edge18" class="edge"><title>Node15&#45;&gt;Node16</title>
<path fill="none" stroke="midnightblue" d="M349.894,-261.274C361.155,-260.355 372.699,-259.412 383.91,-258.497"/>
<polygon fill="midnightblue" stroke="midnightblue" points="349.33,-257.808 339.648,-262.11 349.9,-264.785 349.33,-257.808"/>
</g>
<!-- Node16&#45;&gt;Node4 -->
<g id="edge19" class="edge"><title>Node16&#45;&gt;Node4</title>
<path fill="none" stroke="midnightblue" d="M555.114,-252C564.081,-252 573.13,-252 581.951,-252"/>
<polygon fill="midnightblue" stroke="midnightblue" points="555.042,-248.5 545.042,-252 555.041,-255.5 555.042,-248.5"/>
</g>
<!-- Node17&#45;&gt;Node4 -->
<g id="edge21" class="edge"><title>Node17&#45;&gt;Node4</title>
<path fill="none" stroke="midnightblue" d="M357.923,-220.314C412.311,-219.254 482.826,-219.922 545,-227 571.977,-230.071 601.947,-236.777 624.385,-242.471"/>
<polygon fill="midnightblue" stroke="midnightblue" points="357.536,-216.821 347.615,-220.539 357.689,-223.819 357.536,-216.821"/>
</g>
<!-- Node18&#45;&gt;Node4 -->
<g id="edge23" class="edge"><title>Node18&#45;&gt;Node4</title>
<path fill="none" stroke="midnightblue" d="M529.639,-331.472C534.903,-329.457 540.084,-327.297 545,-325 584.177,-306.694 625.93,-276.991 646.317,-261.731"/>
<polygon fill="midnightblue" stroke="midnightblue" points="528.315,-328.229 520.115,-334.939 530.709,-334.807 528.315,-328.229"/>
</g>
<!-- Node18&#45;&gt;Node11 -->
<g id="edge24" class="edge"><title>Node18&#45;&gt;Node11</title>
<path fill="none" stroke="midnightblue" d="M548.788,-350C559.446,-350 570.327,-350 580.9,-350"/>
<polygon fill="midnightblue" stroke="midnightblue" points="548.654,-346.5 538.654,-350 548.654,-353.5 548.654,-346.5"/>
</g>
<!-- Node19&#45;&gt;Node4 -->
<g id="edge26" class="edge"><title>Node19&#45;&gt;Node4</title>
<path fill="none" stroke="midnightblue" d="M534.626,-283.495C563.855,-276.093 596.756,-267.762 621.374,-261.528"/>
<polygon fill="midnightblue" stroke="midnightblue" points="533.706,-280.118 524.871,-285.965 535.425,-286.903 533.706,-280.118"/>
</g>
<!-- Node19&#45;&gt;Node11 -->
<g id="edge27" class="edge"><title>Node19&#45;&gt;Node11</title>
<path fill="none" stroke="midnightblue" d="M534.626,-318.505C563.855,-325.907 596.756,-334.238 621.374,-340.472"/>
<polygon fill="midnightblue" stroke="midnightblue" points="535.425,-315.097 524.871,-316.035 533.706,-321.882 535.425,-315.097"/>
</g>
<!-- Node20&#45;&gt;Node4 -->
<g id="edge29" class="edge"><title>Node20&#45;&gt;Node4</title>
<path fill="none" stroke="midnightblue" d="M509.708,-67.9324C521.882,-74.5859 534.589,-82.7093 545,-92 597.931,-139.237 640.107,-215.339 654.062,-242.216"/>
<polygon fill="midnightblue" stroke="midnightblue" points="511.031,-64.6747 500.549,-63.1359 507.784,-70.8758 511.031,-64.6747"/>
</g>
<!-- Node21&#45;&gt;Node4 -->
<g id="edge31" class="edge"><title>Node21&#45;&gt;Node4</title>
<path fill="none" stroke="midnightblue" d="M517.445,-182.661C526.694,-186.25 536.186,-190.109 545,-194 579.941,-209.425 619.391,-230.305 641.519,-242.347"/>
<polygon fill="midnightblue" stroke="midnightblue" points="518.523,-179.327 507.933,-179.029 516.026,-185.866 518.523,-179.327"/>
</g>
<!-- Node22&#45;&gt;Node4 -->
<g id="edge33" class="edge"><title>Node22&#45;&gt;Node4</title>
<path fill="none" stroke="midnightblue" d="M343.74,-92.6213C401.795,-95.9198 482.159,-106.732 545,-139 595.076,-164.714 637.104,-220.204 652.607,-242.47"/>
<polygon fill="midnightblue" stroke="midnightblue" points="343.697,-89.1147 333.533,-92.1053 343.344,-96.1058 343.697,-89.1147"/>
</g>
<!-- Node23&#45;&gt;Node20 -->
<g id="edge35" class="edge"><title>Node23&#45;&gt;Node20</title>
<path fill="none" stroke="midnightblue" d="M326.605,-21.459C346.61,-25.3376 369.196,-29.7167 390.171,-33.7831"/>
<polygon fill="midnightblue" stroke="midnightblue" points="327.189,-18.0074 316.706,-19.54 325.857,-24.8794 327.189,-18.0074"/>
</g>
<!-- Node24&#45;&gt;Node21 -->
<g id="edge37" class="edge"><title>Node24&#45;&gt;Node21</title>
<path fill="none" stroke="midnightblue" d="M357.381,-172.663C368.037,-171.793 378.821,-170.913 389.226,-170.063"/>
<polygon fill="midnightblue" stroke="midnightblue" points="356.903,-169.19 347.221,-173.492 357.472,-176.167 356.903,-169.19"/>
</g>
</g>
</svg>
