<?xml version="1.0" encoding="UTF-8" standalone="no"?>
<!DOCTYPE svg PUBLIC "-//W3C//DTD SVG 1.1//EN"
 "http://www.w3.org/Graphics/SVG/1.1/DTD/svg11.dtd">
<!-- Generated by graphviz version 2.38.0 (20140413.2041)
 -->
<!-- Title: EncapsulateListIdentityResponseMessage Pages: 1 -->
<svg width="495pt" height="159pt"
 viewBox="0.00 0.00 495.00 158.55" xmlns="http://www.w3.org/2000/svg" xmlns:xlink="http://www.w3.org/1999/xlink">
<g id="graph0" class="graph" transform="scale(1 1) rotate(0) translate(4 154.549)">
<title>EncapsulateListIdentityResponseMessage</title>
<!-- Node1 -->
<g id="node1" class="node"><title>Node1</title>
<polygon fill="#bfbfbf" stroke="black" points="0,-71 0,-101 163,-101 163,-71 0,-71"/>
<text text-anchor="start" x="8" y="-89" font-family="Helvetica,sans-Serif" font-size="10.00">EncapsulateListIdentityResponse</text>
<text text-anchor="middle" x="81.5" y="-78" font-family="Helvetica,sans-Serif" font-size="10.00">Message</text>
</g>
<!-- Node2 -->
<g id="node2" class="node"><title>Node2</title>
<g id="a_node2"><a xlink:href="../../d4/d91/group__ENCAP.html#gaafc3c9e3ff582c9b7e438ae2b1fdf822" target="_top" xlink:title="Converts UINT32 data from host to little endian and writes it to buffer. ">
<polygon fill="none" stroke="black" points="384,-114.5 384,-133.5 487,-133.5 487,-114.5 384,-114.5"/>
<text text-anchor="middle" x="435.5" y="-121.5" font-family="Helvetica,sans-Serif" font-size="10.00">AddDintToMessage</text>
</a>
</g>
</g>
<!-- Node1&#45;&gt;Node2 -->
<g id="edge1" class="edge"><title>Node1&#45;&gt;Node2</title>
<path fill="none" stroke="midnightblue" d="M105.409,-101.136C128.086,-115.144 164.34,-134.976 199,-143 263.915,-158.029 341.272,-146.334 389.142,-135.779"/>
<polygon fill="midnightblue" stroke="midnightblue" points="389.923,-139.191 398.894,-133.554 388.366,-132.367 389.923,-139.191"/>
</g>
<!-- Node3 -->
<g id="node3" class="node"><title>Node3</title>
<g id="a_node3"><a xlink:href="../../d4/d91/group__ENCAP.html#gae689aac2a85bf49fb356ec94c8800799" target="_top" xlink:title="converts UINT16 data from host to little endian an writes it to buffer. ">
<polygon fill="none" stroke="black" points="387.5,-76.5 387.5,-95.5 483.5,-95.5 483.5,-76.5 387.5,-76.5"/>
<text text-anchor="middle" x="435.5" y="-83.5" font-family="Helvetica,sans-Serif" font-size="10.00">AddIntToMessage</text>
</a>
</g>
</g>
<!-- Node1&#45;&gt;Node3 -->
<g id="edge2" class="edge"><title>Node1&#45;&gt;Node3</title>
<path fill="none" stroke="midnightblue" d="M163.139,-71.1162C175.123,-69.4083 187.357,-67.9432 199,-67 265.006,-61.6529 282.164,-59.8547 348,-67 361.642,-68.4806 376.286,-71.2382 389.575,-74.2025"/>
<polygon fill="midnightblue" stroke="midnightblue" points="388.901,-77.639 399.433,-76.4917 390.484,-70.8205 388.901,-77.639"/>
</g>
<!-- Node4 -->
<g id="node4" class="node"><title>Node4</title>
<g id="a_node4"><a xlink:href="../../da/d73/endianconv_8c.html#a2e8bf172dd5ecba3cc0871278ab06538" target="_top" xlink:title="Encapsulate the sockaddr information as necessary for the Common Packet Format data items...">
<polygon fill="none" stroke="black" points="216,-76.5 216,-95.5 331,-95.5 331,-76.5 216,-76.5"/>
<text text-anchor="middle" x="273.5" y="-83.5" font-family="Helvetica,sans-Serif" font-size="10.00">EncapsulateIpAddress</text>
</a>
</g>
</g>
<!-- Node1&#45;&gt;Node4 -->
<g id="edge3" class="edge"><title>Node1&#45;&gt;Node4</title>
<path fill="none" stroke="midnightblue" d="M163.077,-86C177.262,-86 191.887,-86 205.645,-86"/>
<polygon fill="midnightblue" stroke="midnightblue" points="205.976,-89.5001 215.976,-86 205.976,-82.5001 205.976,-89.5001"/>
</g>
<!-- Node5 -->
<g id="node5" class="node"><title>Node5</title>
<g id="a_node5"><a xlink:href="../../d2/dbd/encap_8c.html#ad558c3aae69a6ab80034278c108802e9" target="_top" xlink:title="GenerateEncapsulationHeader">
<polygon fill="none" stroke="black" points="199,-114.5 199,-133.5 348,-133.5 348,-114.5 199,-114.5"/>
<text text-anchor="middle" x="273.5" y="-121.5" font-family="Helvetica,sans-Serif" font-size="10.00">GenerateEncapsulationHeader</text>
</a>
</g>
</g>
<!-- Node1&#45;&gt;Node5 -->
<g id="edge6" class="edge"><title>Node1&#45;&gt;Node5</title>
<path fill="none" stroke="midnightblue" d="M157.593,-101.019C176.76,-104.852 197.059,-108.912 215.176,-112.535"/>
<polygon fill="midnightblue" stroke="midnightblue" points="214.503,-115.97 224.995,-114.499 215.876,-109.106 214.503,-115.97"/>
</g>
<!-- Node6 -->
<g id="node6" class="node"><title>Node6</title>
<g id="a_node6"><a xlink:href="../../da/d73/endianconv_8c.html#af4e7ccbb21e333ad15028c531f0384c6" target="_top" xlink:title="MoveMessageNOctets">
<polygon fill="none" stroke="black" points="215,-0.5 215,-19.5 332,-19.5 332,-0.5 215,-0.5"/>
<text text-anchor="middle" x="273.5" y="-7.5" font-family="Helvetica,sans-Serif" font-size="10.00">MoveMessageNOctets</text>
</a>
</g>
</g>
<!-- Node1&#45;&gt;Node6 -->
<g id="edge9" class="edge"><title>Node1&#45;&gt;Node6</title>
<path fill="none" stroke="midnightblue" d="M113.771,-70.9749C137.016,-60.069 169.651,-45.3064 199,-34 209.252,-30.0506 220.461,-26.1734 230.968,-22.726"/>
<polygon fill="midnightblue" stroke="midnightblue" points="232.328,-25.9647 240.771,-19.564 230.18,-19.3026 232.328,-25.9647"/>
</g>
<!-- Node4&#45;&gt;Node2 -->
<g id="edge5" class="edge"><title>Node4&#45;&gt;Node2</title>
<path fill="none" stroke="midnightblue" d="M314.875,-95.589C335.988,-100.604 362.029,-106.788 384.417,-112.105"/>
<polygon fill="midnightblue" stroke="midnightblue" points="383.877,-115.574 394.416,-114.48 385.495,-108.764 383.877,-115.574"/>
</g>
<!-- Node4&#45;&gt;Node3 -->
<g id="edge4" class="edge"><title>Node4&#45;&gt;Node3</title>
<path fill="none" stroke="midnightblue" d="M331.361,-86C346.248,-86 362.306,-86 377.216,-86"/>
<polygon fill="midnightblue" stroke="midnightblue" points="377.326,-89.5001 387.326,-86 377.326,-82.5001 377.326,-89.5001"/>
</g>
<!-- Node5&#45;&gt;Node2 -->
<g id="edge7" class="edge"><title>Node5&#45;&gt;Node2</title>
<path fill="none" stroke="midnightblue" d="M348.411,-124C356.817,-124 365.313,-124 373.525,-124"/>
<polygon fill="midnightblue" stroke="midnightblue" points="373.746,-127.5 383.746,-124 373.746,-120.5 373.746,-127.5"/>
</g>
<!-- Node5&#45;&gt;Node3 -->
<g id="edge8" class="edge"><title>Node5&#45;&gt;Node3</title>
<path fill="none" stroke="midnightblue" d="M314.875,-114.411C335.988,-109.396 362.029,-103.212 384.417,-97.8947"/>
<polygon fill="midnightblue" stroke="midnightblue" points="385.495,-101.236 394.416,-95.5201 383.877,-94.4256 385.495,-101.236"/>
</g>
</g>
</svg>
