<?xml version="1.0" encoding="UTF-8" standalone="no"?>
<!DOCTYPE svg PUBLIC "-//W3C//DTD SVG 1.1//EN"
 "http://www.w3.org/Graphics/SVG/1.1/DTD/svg11.dtd">
<!-- Generated by graphviz version 2.38.0 (20140413.2041)
 -->
<!-- Title: HandleReceivedSendUnitDataCommand Pages: 1 -->
<svg width="1027pt" height="66pt"
 viewBox="0.00 0.00 1027.00 66.00" xmlns="http://www.w3.org/2000/svg" xmlns:xlink="http://www.w3.org/1999/xlink">
<g id="graph0" class="graph" transform="scale(1 1) rotate(0) translate(4 62)">
<title>HandleReceivedSendUnitDataCommand</title>
<!-- Node1 -->
<g id="node1" class="node"><title>Node1</title>
<polygon fill="#bfbfbf" stroke="black" points="0,-14 0,-44 150,-44 150,-14 0,-14"/>
<text text-anchor="start" x="8" y="-32" font-family="Helvetica,sans-Serif" font-size="10.00">HandleReceivedSendUnitData</text>
<text text-anchor="middle" x="75" y="-21" font-family="Helvetica,sans-Serif" font-size="10.00">Command</text>
</g>
<!-- Node2 -->
<g id="node2" class="node"><title>Node2</title>
<g id="a_node2"><a xlink:href="../../d2/dc9/group__CIP__API.html#ga16eaeeb12ba23b5a75c8e5902a33d70a" target="_top" xlink:title="Notify the encapsulation layer that an explicit message has been received via TCP. ">
<polygon fill="none" stroke="black" points="186,-19.5 186,-38.5 342,-38.5 342,-19.5 186,-19.5"/>
<text text-anchor="middle" x="264" y="-26.5" font-family="Helvetica,sans-Serif" font-size="10.00">HandleReceivedExplictTcpData</text>
</a>
</g>
</g>
<!-- Node1&#45;&gt;Node2 -->
<g id="edge1" class="edge"><title>Node1&#45;&gt;Node2</title>
<path fill="none" stroke="midnightblue" d="M160.433,-29C168.897,-29 177.462,-29 185.846,-29"/>
<polygon fill="midnightblue" stroke="midnightblue" points="160.176,-25.5001 150.176,-29 160.176,-32.5001 160.176,-25.5001"/>
</g>
<!-- Node3 -->
<g id="node3" class="node"><title>Node3</title>
<g id="a_node3"><a xlink:href="../../db/d4f/generic__networkhandler_8c.html#aca5593b7dd39d7a7b437999a367102d6" target="_top" xlink:title="Handles data on an established TCP connection, processed connection is given by socket. ">
<polygon fill="none" stroke="black" points="378,-19.5 378,-38.5 506,-38.5 506,-19.5 378,-19.5"/>
<text text-anchor="middle" x="442" y="-26.5" font-family="Helvetica,sans-Serif" font-size="10.00">HandleDataOnTcpSocket</text>
</a>
</g>
</g>
<!-- Node2&#45;&gt;Node3 -->
<g id="edge2" class="edge"><title>Node2&#45;&gt;Node3</title>
<path fill="none" stroke="midnightblue" d="M352.293,-29C360.914,-29 369.545,-29 377.853,-29"/>
<polygon fill="midnightblue" stroke="midnightblue" points="352.196,-25.5001 342.196,-29 352.196,-32.5001 352.196,-25.5001"/>
</g>
<!-- Node4 -->
<g id="node4" class="node"><title>Node4</title>
<g id="a_node4"><a xlink:href="../../da/dc2/generic__networkhandler_8h.html#a2f01af81d3e5018d9980e2bc28c9078a" target="_top" xlink:title="NetworkHandlerProcessOnce">
<polygon fill="none" stroke="black" points="542,-19.5 542,-38.5 688,-38.5 688,-19.5 542,-19.5"/>
<text text-anchor="middle" x="615" y="-26.5" font-family="Helvetica,sans-Serif" font-size="10.00">NetworkHandlerProcessOnce</text>
</a>
</g>
</g>
<!-- Node3&#45;&gt;Node4 -->
<g id="edge3" class="edge"><title>Node3&#45;&gt;Node4</title>
<path fill="none" stroke="midnightblue" d="M516.379,-29C524.817,-29 533.417,-29 541.839,-29"/>
<polygon fill="midnightblue" stroke="midnightblue" points="516.188,-25.5001 506.188,-29 516.188,-32.5001 516.188,-25.5001"/>
</g>
<!-- Node5 -->
<g id="node5" class="node"><title>Node5</title>
<g id="a_node5"><a xlink:href="../../d5/dcb/MINGW_2main_8c.html#ad338a7dbc41dc40bcecd0479377ef207" target="_top" xlink:title="main">
<polygon fill="none" stroke="black" points="739,-38.5 739,-57.5 777,-57.5 777,-38.5 739,-38.5"/>
<text text-anchor="middle" x="758" y="-45.5" font-family="Helvetica,sans-Serif" font-size="10.00">main</text>
</a>
</g>
</g>
<!-- Node4&#45;&gt;Node5 -->
<g id="edge4" class="edge"><title>Node4&#45;&gt;Node5</title>
<path fill="none" stroke="midnightblue" d="M696.851,-39.8949C712.712,-42.0322 727.859,-44.0731 738.984,-45.5724"/>
<polygon fill="midnightblue" stroke="midnightblue" points="697.291,-36.4225 686.913,-38.5557 696.356,-43.3598 697.291,-36.4225"/>
</g>
<!-- Node8 -->
<g id="node8" class="node"><title>Node8</title>
<g id="a_node8"><a xlink:href="../../d9/dfb/POSIX_2main_8c.html#acd4e45a35a64f9cb29b59f63492b61d2" target="_top" xlink:title="Signal handler function for ending stack execution. ">
<polygon fill="none" stroke="black" points="724,-0.5 724,-19.5 792,-19.5 792,-0.5 724,-0.5"/>
<text text-anchor="middle" x="758" y="-7.5" font-family="Helvetica,sans-Serif" font-size="10.00">LeaveStack</text>
</a>
</g>
</g>
<!-- Node4&#45;&gt;Node8 -->
<g id="edge7" class="edge"><title>Node4&#45;&gt;Node8</title>
<path fill="none" stroke="midnightblue" d="M696.851,-18.1051C706.328,-16.8281 715.55,-15.5855 723.811,-14.4723"/>
<polygon fill="midnightblue" stroke="midnightblue" points="696.356,-14.6402 686.913,-19.4443 697.291,-21.5775 696.356,-14.6402"/>
</g>
<!-- Node6 -->
<g id="node6" class="node"><title>Node6</title>
<g id="a_node6"><a xlink:href="../../d8/d03/ports_2MINGW_2CMakeLists_8txt.html#a7e00df43a20d627a1732be7766d91097" target="_top" xlink:title="add_library">
<polygon fill="none" stroke="black" points="828,-38.5 828,-57.5 892,-57.5 892,-38.5 828,-38.5"/>
<text text-anchor="middle" x="860" y="-45.5" font-family="Helvetica,sans-Serif" font-size="10.00">add_library</text>
</a>
</g>
</g>
<!-- Node5&#45;&gt;Node6 -->
<g id="edge5" class="edge"><title>Node5&#45;&gt;Node6</title>
<path fill="none" stroke="midnightblue" d="M787.697,-48C800.244,-48 814.992,-48 827.809,-48"/>
<polygon fill="midnightblue" stroke="midnightblue" points="787.342,-44.5001 777.342,-48 787.342,-51.5001 787.342,-44.5001"/>
</g>
<!-- Node7 -->
<g id="node7" class="node"><title>Node7</title>
<g id="a_node7"><a xlink:href="../../d8/dce/ports_2CMakeLists_8txt.html#a598fae457555a5fb26e18d4cd8f89de9" target="_top" xlink:title="add_subdirectory">
<polygon fill="none" stroke="black" points="928,-38.5 928,-57.5 1019,-57.5 1019,-38.5 928,-38.5"/>
<text text-anchor="middle" x="973.5" y="-45.5" font-family="Helvetica,sans-Serif" font-size="10.00">add_subdirectory</text>
</a>
</g>
</g>
<!-- Node6&#45;&gt;Node7 -->
<g id="edge6" class="edge"><title>Node6&#45;&gt;Node7</title>
<path fill="none" stroke="midnightblue" d="M902.3,-48C910.629,-48 919.419,-48 927.856,-48"/>
<polygon fill="midnightblue" stroke="midnightblue" points="902.059,-44.5001 892.059,-48 902.059,-51.5001 902.059,-44.5001"/>
</g>
</g>
</svg>
