<?xml version="1.0" encoding="UTF-8" standalone="no"?>
<!DOCTYPE svg PUBLIC "-//W3C//DTD SVG 1.1//EN"
 "http://www.w3.org/Graphics/SVG/1.1/DTD/svg11.dtd">
<!-- Generated by graphviz version 2.38.0 (20140413.2041)
 -->
<!-- Title: HandleReceivedUnregisterSessionCommand Pages: 1 -->
<!--zoomable 230 -->
<svg id="main" version="1.1" xmlns="http://www.w3.org/2000/svg" xmlns:xlink="http://www.w3.org/1999/xlink" xml:space="preserve" onload="init(evt)">
<style type="text/css"><![CDATA[
.edge:hover path { stroke: red; }
.edge:hover polygon { stroke: red; fill: red; }
]]></style>
<script type="text/javascript"><![CDATA[
var edges = document.getElementsByTagName('g');
if (edges && edges.length) {
  for (var i=0;i<edges.length;i++) {
    if (edges[i].id.substr(0,4)=='edge') {
      edges[i].setAttribute('class','edge');
    }
  }
}
]]></script>
        <defs>
                <circle id="rim" cx="0" cy="0" r="7"/>
                <circle id="rim2" cx="0" cy="0" r="3.5"/>
                <g id="zoomPlus">
                        <use xlink:href="#rim" fill="#404040">
                                <set attributeName="fill" to="#808080" begin="zoomplus.mouseover" end="zoomplus.mouseout"/>
                        </use>
                        <path d="M-4,0h8M0,-4v8" fill="none" stroke="white" stroke-width="1.5" pointer-events="none"/>
                </g>
                <g id="zoomMin">
                        <use xlink:href="#rim" fill="#404040">
                                <set attributeName="fill" to="#808080" begin="zoomminus.mouseover" end="zoomminus.mouseout"/>
                        </use>
                        <path d="M-4,0h8" fill="none" stroke="white" stroke-width="1.5" pointer-events="none"/>
                </g>
                <g id="dirArrow">
                        <path fill="none" stroke="white" stroke-width="1.5" d="M0,-3.0v7 M-2.5,-0.5L0,-3.0L2.5,-0.5"/>
                </g>
               <g id="resetDef">
                       <use xlink:href="#rim2" fill="#404040">
                               <set attributeName="fill" to="#808080" begin="reset.mouseover" end="reset.mouseout"/>
                       </use>
               </g>
        </defs>

<script type="text/javascript">
var viewWidth = 694;
var viewHeight = 230;
var sectionId = 'dynsection-36';
</script>
<script xlink:href="../../svgpan.js"/>
<svg id="graph" class="graph">
<g id="viewport">
<title>HandleReceivedUnregisterSessionCommand</title>
<!-- Node1 -->
<g id="node1" class="node"><title>Node1</title>
<polygon fill="#bfbfbf" stroke="black" points="0,-109 0,-139 134,-139 134,-109 0,-109"/>
<text text-anchor="start" x="8" y="-127" font-family="Helvetica,sans-Serif" font-size="10.00">HandleReceivedUnregister</text>
<text text-anchor="middle" x="67" y="-116" font-family="Helvetica,sans-Serif" font-size="10.00">SessionCommand</text>
</g>
<!-- Node2 -->
<g id="node2" class="node"><title>Node2</title>
<g id="a_node2"><a xlink:href="../../d2/dbd/encap_8c.html#aef8228e92ac17473e762d8144daca74e" target="_top" xlink:title="CloseClass3ConnectionBased\lOnSession">
<polygon fill="none" stroke="black" points="170,-172 170,-202 320,-202 320,-172 170,-172"/>
<text text-anchor="start" x="178" y="-190" font-family="Helvetica,sans-Serif" font-size="10.00">CloseClass3ConnectionBased</text>
<text text-anchor="middle" x="245" y="-179" font-family="Helvetica,sans-Serif" font-size="10.00">OnSession</text>
</a>
</g>
</g>
<!-- Node1&#45;&gt;Node2 -->
<g id="edge1" class="edge"><title>Node1&#45;&gt;Node2</title>
<path fill="none" stroke="midnightblue" d="M110.156,-139.09C134.774,-147.902 166.033,-159.091 192.15,-168.44"/>
<polygon fill="midnightblue" stroke="midnightblue" points="191.288,-171.849 201.883,-171.924 193.648,-165.259 191.288,-171.849"/>
</g>
<!-- Node4 -->
<g id="node4" class="node"><title>Node4</title>
<g id="a_node4"><a xlink:href="../../db/d4f/generic__networkhandler_8c.html#a1bfa5ef8e4802716459a56567ee16592" target="_top" xlink:title="CloseTcpSocket">
<polygon fill="none" stroke="black" points="200.5,-114.5 200.5,-133.5 289.5,-133.5 289.5,-114.5 200.5,-114.5"/>
<text text-anchor="middle" x="245" y="-121.5" font-family="Helvetica,sans-Serif" font-size="10.00">CloseTcpSocket</text>
</a>
</g>
</g>
<!-- Node1&#45;&gt;Node4 -->
<g id="edge3" class="edge"><title>Node1&#45;&gt;Node4</title>
<path fill="none" stroke="midnightblue" d="M134.037,-124C152.546,-124 172.44,-124 190.149,-124"/>
<polygon fill="midnightblue" stroke="midnightblue" points="190.297,-127.5 200.297,-124 190.297,-120.5 190.297,-127.5"/>
</g>
<!-- Node11 -->
<g id="node11" class="node"><title>Node11</title>
<g id="a_node11"><a xlink:href="../../d2/dbd/encap_8c.html#ad558c3aae69a6ab80034278c108802e9" target="_top" xlink:title="GenerateEncapsulationHeader">
<polygon fill="none" stroke="black" points="170.5,-38.5 170.5,-57.5 319.5,-57.5 319.5,-38.5 170.5,-38.5"/>
<text text-anchor="middle" x="245" y="-45.5" font-family="Helvetica,sans-Serif" font-size="10.00">GenerateEncapsulationHeader</text>
</a>
</g>
</g>
<!-- Node1&#45;&gt;Node11 -->
<g id="edge10" class="edge"><title>Node1&#45;&gt;Node11</title>
<path fill="none" stroke="midnightblue" d="M102.772,-108.985C134.682,-95.2056 181.548,-74.9677 212.412,-61.6404"/>
<polygon fill="midnightblue" stroke="midnightblue" points="214.038,-64.7508 221.831,-57.5731 211.262,-58.3243 214.038,-64.7508"/>
</g>
<!-- Node3 -->
<g id="node3" class="node"><title>Node3</title>
<g id="a_node3"><a xlink:href="../../df/d91/cipconnectionobject_8c.html#a0f3d8e6f21712dbef3fb2e1da42f35ba" target="_top" xlink:title="ConnectionObjectGetTransport\lClassTriggerTransportClass">
<polygon fill="none" stroke="black" points="356,-191 356,-221 508,-221 508,-191 356,-191"/>
<text text-anchor="start" x="364" y="-209" font-family="Helvetica,sans-Serif" font-size="10.00">ConnectionObjectGetTransport</text>
<text text-anchor="middle" x="432" y="-198" font-family="Helvetica,sans-Serif" font-size="10.00">ClassTriggerTransportClass</text>
</a>
</g>
</g>
<!-- Node2&#45;&gt;Node3 -->
<g id="edge2" class="edge"><title>Node2&#45;&gt;Node3</title>
<path fill="none" stroke="midnightblue" d="M320.181,-194.619C328.634,-195.487 337.3,-196.377 345.881,-197.258"/>
<polygon fill="midnightblue" stroke="midnightblue" points="345.592,-200.747 355.897,-198.287 346.307,-193.783 345.592,-200.747"/>
</g>
<!-- Node5 -->
<g id="node5" class="node"><title>Node5</title>
<g id="a_node5"><a xlink:href="../../d3/de3/MINGW_2networkhandler_8c.html#a9d64596a63648e960da4dbf475ec2e4a" target="_top" xlink:title="Platform dependent code to shutdown a stream socket. ">
<polygon fill="none" stroke="black" points="368,-152.5 368,-171.5 496,-171.5 496,-152.5 368,-152.5"/>
<text text-anchor="middle" x="432" y="-159.5" font-family="Helvetica,sans-Serif" font-size="10.00">ShutdownSocketPlatform</text>
</a>
</g>
</g>
<!-- Node4&#45;&gt;Node5 -->
<g id="edge4" class="edge"><title>Node4&#45;&gt;Node5</title>
<path fill="none" stroke="midnightblue" d="M289.842,-133.005C315.251,-138.225 347.507,-144.85 374.769,-150.45"/>
<polygon fill="midnightblue" stroke="midnightblue" points="374.065,-153.878 384.565,-152.462 375.474,-147.021 374.065,-153.878"/>
</g>
<!-- Node6 -->
<g id="node6" class="node"><title>Node6</title>
<g id="a_node6"><a xlink:href="../../db/d4f/generic__networkhandler_8c.html#aea539a75995234e379a1c25019ba378f" target="_top" xlink:title="RemoveSocketTimerFromList">
<polygon fill="none" stroke="black" points="358.5,-114.5 358.5,-133.5 505.5,-133.5 505.5,-114.5 358.5,-114.5"/>
<text text-anchor="middle" x="432" y="-121.5" font-family="Helvetica,sans-Serif" font-size="10.00">RemoveSocketTimerFromList</text>
</a>
</g>
</g>
<!-- Node4&#45;&gt;Node6 -->
<g id="edge5" class="edge"><title>Node4&#45;&gt;Node6</title>
<path fill="none" stroke="midnightblue" d="M289.842,-124C307.301,-124 327.993,-124 348.076,-124"/>
<polygon fill="midnightblue" stroke="midnightblue" points="348.184,-127.5 358.184,-124 348.184,-120.5 348.184,-127.5"/>
</g>
<!-- Node9 -->
<g id="node9" class="node"><title>Node9</title>
<g id="a_node9"><a xlink:href="../../d5/dc5/group__CIP__CALLBACK__API.html#gae04e2a3e9937e910cbcdbff0b8d6ad2b" target="_top" xlink:title="Close the given socket and clean up the stack. ">
<polygon fill="none" stroke="black" points="395.5,-76.5 395.5,-95.5 468.5,-95.5 468.5,-76.5 395.5,-76.5"/>
<text text-anchor="middle" x="432" y="-83.5" font-family="Helvetica,sans-Serif" font-size="10.00">CloseSocket</text>
</a>
</g>
</g>
<!-- Node4&#45;&gt;Node9 -->
<g id="edge8" class="edge"><title>Node4&#45;&gt;Node9</title>
<path fill="none" stroke="midnightblue" d="M289.842,-114.995C318.612,-109.085 356.161,-101.372 385.298,-95.3874"/>
<polygon fill="midnightblue" stroke="midnightblue" points="386.134,-98.7888 395.226,-93.3482 384.726,-91.9319 386.134,-98.7888"/>
</g>
<!-- Node7 -->
<g id="node7" class="node"><title>Node7</title>
<g id="a_node7"><a xlink:href="../../d4/df6/socket__timer_8c.html#abe7542fdec4d4e4893a8c712192529ca" target="_top" xlink:title="Get the Socket Timer entry with the spezified socket value. ">
<polygon fill="none" stroke="black" points="544,-153 544,-183 686,-183 686,-153 544,-153"/>
<text text-anchor="start" x="552" y="-171" font-family="Helvetica,sans-Serif" font-size="10.00">SocketTimerArrayGetSocket</text>
<text text-anchor="middle" x="615" y="-160" font-family="Helvetica,sans-Serif" font-size="10.00">Timer</text>
</a>
</g>
</g>
<!-- Node6&#45;&gt;Node7 -->
<g id="edge6" class="edge"><title>Node6&#45;&gt;Node7</title>
<path fill="none" stroke="midnightblue" d="M472.274,-133.547C492.744,-138.523 518.426,-144.767 542.287,-150.567"/>
<polygon fill="midnightblue" stroke="midnightblue" points="541.483,-153.973 552.027,-152.935 543.136,-147.171 541.483,-153.973"/>
</g>
<!-- Node8 -->
<g id="node8" class="node"><title>Node8</title>
<g id="a_node8"><a xlink:href="../../d4/df6/socket__timer_8c.html#a6130830815ae46fe4e6d45cf89bc3506" target="_top" xlink:title="Clears a Socket Timer entry. ">
<polygon fill="none" stroke="black" points="567.5,-114.5 567.5,-133.5 662.5,-133.5 662.5,-114.5 567.5,-114.5"/>
<text text-anchor="middle" x="615" y="-121.5" font-family="Helvetica,sans-Serif" font-size="10.00">SocketTimerClear</text>
</a>
</g>
</g>
<!-- Node6&#45;&gt;Node8 -->
<g id="edge7" class="edge"><title>Node6&#45;&gt;Node8</title>
<path fill="none" stroke="midnightblue" d="M505.577,-124C522.681,-124 540.674,-124 556.98,-124"/>
<polygon fill="midnightblue" stroke="midnightblue" points="557.425,-127.5 567.425,-124 557.425,-120.5 557.425,-127.5"/>
</g>
<!-- Node10 -->
<g id="node10" class="node"><title>Node10</title>
<g id="a_node10"><a xlink:href="../../d3/de3/MINGW_2networkhandler_8c.html#a2812ba0ecd1fd9a5549fbca397d76e3e" target="_top" xlink:title="Platform dependent code to close a socket. ">
<polygon fill="none" stroke="black" points="560,-76.5 560,-95.5 670,-95.5 670,-76.5 560,-76.5"/>
<text text-anchor="middle" x="615" y="-83.5" font-family="Helvetica,sans-Serif" font-size="10.00">CloseSocketPlatform</text>
</a>
</g>
</g>
<!-- Node9&#45;&gt;Node10 -->
<g id="edge9" class="edge"><title>Node9&#45;&gt;Node10</title>
<path fill="none" stroke="midnightblue" d="M468.76,-86C491.781,-86 522.372,-86 549.541,-86"/>
<polygon fill="midnightblue" stroke="midnightblue" points="549.763,-89.5001 559.763,-86 549.763,-82.5001 549.763,-89.5001"/>
</g>
<!-- Node12 -->
<g id="node12" class="node"><title>Node12</title>
<g id="a_node12"><a xlink:href="../../d4/d91/group__ENCAP.html#gaafc3c9e3ff582c9b7e438ae2b1fdf822" target="_top" xlink:title="Converts UINT32 data from host to little endian and writes it to buffer. ">
<polygon fill="none" stroke="black" points="380.5,-38.5 380.5,-57.5 483.5,-57.5 483.5,-38.5 380.5,-38.5"/>
<text text-anchor="middle" x="432" y="-45.5" font-family="Helvetica,sans-Serif" font-size="10.00">AddDintToMessage</text>
</a>
</g>
</g>
<!-- Node11&#45;&gt;Node12 -->
<g id="edge11" class="edge"><title>Node11&#45;&gt;Node12</title>
<path fill="none" stroke="midnightblue" d="M319.648,-48C336.345,-48 353.898,-48 370.003,-48"/>
<polygon fill="midnightblue" stroke="midnightblue" points="370.354,-51.5001 380.354,-48 370.354,-44.5001 370.354,-51.5001"/>
</g>
<!-- Node13 -->
<g id="node13" class="node"><title>Node13</title>
<g id="a_node13"><a xlink:href="../../d4/d91/group__ENCAP.html#gae689aac2a85bf49fb356ec94c8800799" target="_top" xlink:title="converts UINT16 data from host to little endian an writes it to buffer. ">
<polygon fill="none" stroke="black" points="384,-0.5 384,-19.5 480,-19.5 480,-0.5 384,-0.5"/>
<text text-anchor="middle" x="432" y="-7.5" font-family="Helvetica,sans-Serif" font-size="10.00">AddIntToMessage</text>
</a>
</g>
</g>
<!-- Node11&#45;&gt;Node13 -->
<g id="edge12" class="edge"><title>Node11&#45;&gt;Node13</title>
<path fill="none" stroke="midnightblue" d="M292.683,-38.411C317.646,-33.2835 348.564,-26.9328 374.834,-21.5368"/>
<polygon fill="midnightblue" stroke="midnightblue" points="375.561,-24.9606 384.652,-19.5201 374.153,-18.1038 375.561,-24.9606"/>
</g>
</g>
</svg>
        <g id="navigator" transform="translate(0 0)" fill="#404254">
                <rect fill="#f2f5e9" fill-opacity="0.5" stroke="#606060" stroke-width=".5" x="0" y="0" width="60" height="60"/>
                <use id="zoomplus" xlink:href="#zoomPlus" x="17" y="9" onmousedown="handleZoom(evt,'in')"/>
                <use id="zoomminus" xlink:href="#zoomMin" x="42" y="9" onmousedown="handleZoom(evt,'out')"/>
                <use id="reset" xlink:href="#resetDef" x="30" y="36" onmousedown="handleReset()"/>
                <g id="arrowUp" xlink:href="#dirArrow" transform="translate(30 24)" onmousedown="handlePan(0,-1)">
                  <use xlink:href="#rim" fill="#404040">
                        <set attributeName="fill" to="#808080" begin="arrowUp.mouseover" end="arrowUp.mouseout"/>
                  </use>
                  <path fill="none" stroke="white" stroke-width="1.5" d="M0,-3.0v7 M-2.5,-0.5L0,-3.0L2.5,-0.5"/>
                </g>
                <g id="arrowRight" xlink:href="#dirArrow" transform="rotate(90) translate(36 -43)" onmousedown="handlePan(1,0)">
                  <use xlink:href="#rim" fill="#404040">
                        <set attributeName="fill" to="#808080" begin="arrowRight.mouseover" end="arrowRight.mouseout"/>
                  </use>
                  <path fill="none" stroke="white" stroke-width="1.5" d="M0,-3.0v7 M-2.5,-0.5L0,-3.0L2.5,-0.5"/>
                </g>
                <g id="arrowDown" xlink:href="#dirArrow" transform="rotate(180) translate(-30 -48)" onmousedown="handlePan(0,1)">
                  <use xlink:href="#rim" fill="#404040">
                        <set attributeName="fill" to="#808080" begin="arrowDown.mouseover" end="arrowDown.mouseout"/>
                  </use>
                  <path fill="none" stroke="white" stroke-width="1.5" d="M0,-3.0v7 M-2.5,-0.5L0,-3.0L2.5,-0.5"/>
                </g>
                <g id="arrowLeft" xlink:href="#dirArrow" transform="rotate(270) translate(-36 17)" onmousedown="handlePan(-1,0)">
                  <use xlink:href="#rim" fill="#404040">
                        <set attributeName="fill" to="#808080" begin="arrowLeft.mouseover" end="arrowLeft.mouseout"/>
                  </use>
                  <path fill="none" stroke="white" stroke-width="1.5" d="M0,-3.0v7 M-2.5,-0.5L0,-3.0L2.5,-0.5"/>
                </g>
        </g>
        <svg viewBox="0 0 15 15" width="100%" height="30px" preserveAspectRatio="xMaxYMin meet">
         <g id="arrow_out" transform="scale(0.3 0.3)">
          <a xlink:href="encap_8c_a601cd19c88f03fd742f098a1bf5b9e85_cgraph_org.svg" target="_base">
           <rect id="button" ry="5" rx="5" y="6" x="6" height="38" width="38"
                fill="#f2f5e9" fill-opacity="0.5" stroke="#606060" stroke-width="1.0"/>
           <path id="arrow"
             d="M 11.500037,31.436501 C 11.940474,20.09759 22.043105,11.32322 32.158766,21.979434 L 37.068811,17.246167 C 37.068811,17.246167 37.088388,32 37.088388,32 L 22.160133,31.978069 C 22.160133,31.978069 26.997745,27.140456 26.997745,27.140456 C 18.528582,18.264221 13.291696,25.230495 11.500037,31.436501 z"
             style="fill:#404040;"/>
          </a>
         </g>
        </svg>
</svg>
