<?xml version="1.0" encoding="UTF-8" standalone="no"?>
<!DOCTYPE svg PUBLIC "-//W3C//DTD SVG 1.1//EN"
 "http://www.w3.org/Graphics/SVG/1.1/DTD/svg11.dtd">
<!-- Generated by graphviz version 2.36.0 (20140111.2315)
 -->
<!-- Title: HandleReceivedListIdentityCommandUdp Pages: 1 -->
<!--zoomable 206 -->
<svg id="main" version="1.1" xmlns="http://www.w3.org/2000/svg" xmlns:xlink="http://www.w3.org/1999/xlink" xml:space="preserve" onload="init(evt)">
<style type="text/css"><![CDATA[
.edge:hover path { stroke: red; }
.edge:hover polygon { stroke: red; fill: red; }
]]></style>
<script type="text/javascript"><![CDATA[
var edges = document.getElementsByTagName('g');
if (edges && edges.length) {
  for (var i=0;i<edges.length;i++) {
    if (edges[i].id.substr(0,4)=='edge') {
      edges[i].setAttribute('class','edge');
    }
  }
}
]]></script>
        <defs>
                <circle id="rim" cx="0" cy="0" r="7"/>
                <circle id="rim2" cx="0" cy="0" r="3.5"/>
                <g id="zoomPlus">
                        <use xlink:href="#rim" fill="#404040">
                                <set attributeName="fill" to="#808080" begin="zoomplus.mouseover" end="zoomplus.mouseout"/>
                        </use>
                        <path d="M-4,0h8M0,-4v8" fill="none" stroke="white" stroke-width="1.5" pointer-events="none"/>
                </g>
                <g id="zoomMin">
                        <use xlink:href="#rim" fill="#404040">
                                <set attributeName="fill" to="#808080" begin="zoomminus.mouseover" end="zoomminus.mouseout"/>
                        </use>
                        <path d="M-4,0h8" fill="none" stroke="white" stroke-width="1.5" pointer-events="none"/>
                </g>
                <g id="dirArrow">
                        <path fill="none" stroke="white" stroke-width="1.5" d="M0,-3.0v7 M-2.5,-0.5L0,-3.0L2.5,-0.5"/>
                </g>
               <g id="resetDef">
                       <use xlink:href="#rim2" fill="#404040">
                               <set attributeName="fill" to="#808080" begin="reset.mouseover" end="reset.mouseout"/>
                       </use>
               </g>
        </defs>

<script type="text/javascript">
var viewWidth = 672;
var viewHeight = 206;
var sectionId = 'dynsection-24';
</script>
<script xlink:href="../../svgpan.js"/>
<svg id="graph" class="graph">
<g id="viewport">
<title>HandleReceivedListIdentityCommandUdp</title>
<!-- Node1 -->
<g id="node1" class="node"><title>Node1</title>
<polygon fill="#bfbfbf" stroke="black" points="0.5,-75.0049 0.5,-105.005 137.5,-105.005 137.5,-75.0049 0.5,-75.0049"/>
<text text-anchor="start" x="8.5" y="-93.0049" font-family="Helvetica,sans-Serif" font-size="10.00">HandleReceivedListIdentity</text>
<text text-anchor="middle" x="69" y="-82.0049" font-family="Helvetica,sans-Serif" font-size="10.00">CommandUdp</text>
</g>
<!-- Node2 -->
<g id="node2" class="node"><title>Node2</title>
<g id="a_node2"><a xlink:href="../../d2/dbd/encap_8c.html#a1e89285abfb378b98cd946a040dd8f5d" target="_top" xlink:title="DetermineDelayTime">
<polygon fill="none" stroke="black" points="201.5,-140.505 201.5,-159.505 310.5,-159.505 310.5,-140.505 201.5,-140.505"/>
<text text-anchor="middle" x="256" y="-147.505" font-family="Helvetica,sans-Serif" font-size="10.00">DetermineDelayTime</text>
</a>
</g>
</g>
<!-- Node1&#45;&gt;Node2 -->
<g id="edge1" class="edge"><title>Node1&#45;&gt;Node2</title>
<path fill="none" stroke="midnightblue" d="M116.683,-105.145C147.324,-115.083 186.937,-127.93 215.913,-137.328"/>
<polygon fill="midnightblue" stroke="midnightblue" points="215.094,-140.742 225.686,-140.498 217.254,-134.083 215.094,-140.742"/>
</g>
<!-- Node5 -->
<g id="node5" class="node"><title>Node5</title>
<g id="a_node5"><a xlink:href="../../d2/dbd/encap_8c.html#ae8d8af733e9ac70ea728d6255aced4b6" target="_top" xlink:title="EncapsulateListIdentityResponse\lMessage">
<polygon fill="none" stroke="black" points="174.5,-75.0049 174.5,-105.005 337.5,-105.005 337.5,-75.0049 174.5,-75.0049"/>
<text text-anchor="start" x="182.5" y="-93.0049" font-family="Helvetica,sans-Serif" font-size="10.00">EncapsulateListIdentityResponse</text>
<text text-anchor="middle" x="256" y="-82.0049" font-family="Helvetica,sans-Serif" font-size="10.00">Message</text>
</a>
</g>
</g>
<!-- Node1&#45;&gt;Node5 -->
<g id="edge4" class="edge"><title>Node1&#45;&gt;Node5</title>
<path fill="none" stroke="midnightblue" d="M137.575,-90.0049C146.274,-90.0049 155.291,-90.0049 164.286,-90.0049"/>
<polygon fill="midnightblue" stroke="midnightblue" points="164.413,-93.505 174.413,-90.0049 164.413,-86.505 164.413,-93.505"/>
</g>
<!-- Node10 -->
<g id="node10" class="node"><title>Node10</title>
<g id="a_node10"><a xlink:href="../../da/de0/enipmessage_8c.html#a3bc72c361822172e328654abb263c1a7" target="_top" xlink:title="InitializeENIPMessage">
<polygon fill="none" stroke="black" points="198,-36.5049 198,-55.5049 314,-55.5049 314,-36.5049 198,-36.5049"/>
<text text-anchor="middle" x="256" y="-43.5049" font-family="Helvetica,sans-Serif" font-size="10.00">InitializeENIPMessage</text>
</a>
</g>
</g>
<!-- Node1&#45;&gt;Node10 -->
<g id="edge14" class="edge"><title>Node1&#45;&gt;Node10</title>
<path fill="none" stroke="midnightblue" d="M132.405,-74.9445C146.106,-71.6546 160.54,-68.2013 174,-65.0049 183.802,-62.6771 194.276,-60.2073 204.328,-57.8457"/>
<polygon fill="midnightblue" stroke="midnightblue" points="205.262,-61.2215 214.198,-55.5294 203.663,-54.4066 205.262,-61.2215"/>
</g>
<!-- Node3 -->
<g id="node3" class="node"><title>Node3</title>
<g id="a_node3"><a xlink:href="../../d4/d91/group__ENCAP.html#ga70322f970709ca9c9a1a1d474cfe2302" target="_top" xlink:title="Reads EIP_UINT16 from *buffer and converts little endian to host. ">
<polygon fill="none" stroke="black" points="396,-178.505 396,-197.505 502,-197.505 502,-178.505 396,-178.505"/>
<text text-anchor="middle" x="449" y="-185.505" font-family="Helvetica,sans-Serif" font-size="10.00">GetIntFromMessage</text>
</a>
</g>
</g>
<!-- Node2&#45;&gt;Node3 -->
<g id="edge2" class="edge"><title>Node2&#45;&gt;Node3</title>
<path fill="none" stroke="midnightblue" d="M305.197,-159.594C330.97,-164.721 362.891,-171.072 390.012,-176.468"/>
<polygon fill="midnightblue" stroke="midnightblue" points="389.658,-179.966 400.149,-178.485 391.024,-173.101 389.658,-179.966"/>
</g>
<!-- Node4 -->
<g id="node4" class="node"><title>Node4</title>
<g id="a_node4"><a xlink:href="../../da/d73/endianconv_8c.html#af4e7ccbb21e333ad15028c531f0384c6" target="_top" xlink:title="MoveMessageNOctets">
<polygon fill="none" stroke="black" points="390.5,-140.505 390.5,-159.505 507.5,-159.505 507.5,-140.505 390.5,-140.505"/>
<text text-anchor="middle" x="449" y="-147.505" font-family="Helvetica,sans-Serif" font-size="10.00">MoveMessageNOctets</text>
</a>
</g>
</g>
<!-- Node2&#45;&gt;Node4 -->
<g id="edge3" class="edge"><title>Node2&#45;&gt;Node4</title>
<path fill="none" stroke="midnightblue" d="M310.712,-150.005C332.241,-150.005 357.299,-150.005 380.07,-150.005"/>
<polygon fill="midnightblue" stroke="midnightblue" points="380.351,-153.505 390.351,-150.005 380.351,-146.505 380.351,-153.505"/>
</g>
<!-- Node5&#45;&gt;Node4 -->
<g id="edge13" class="edge"><title>Node5&#45;&gt;Node4</title>
<path fill="none" stroke="midnightblue" d="M305.197,-105.145C336.97,-115.126 378.087,-128.043 408.036,-137.451"/>
<polygon fill="midnightblue" stroke="midnightblue" points="407.146,-140.84 417.735,-140.498 409.244,-134.162 407.146,-140.84"/>
</g>
<!-- Node6 -->
<g id="node6" class="node"><title>Node6</title>
<g id="a_node6"><a xlink:href="../../d4/d91/group__ENCAP.html#gaafc3c9e3ff582c9b7e438ae2b1fdf822" target="_top" xlink:title="Converts UINT32 data from host to little endian and writes it to buffer. ">
<polygon fill="none" stroke="black" points="560.5,-26.5049 560.5,-45.5049 663.5,-45.5049 663.5,-26.5049 560.5,-26.5049"/>
<text text-anchor="middle" x="612" y="-33.5049" font-family="Helvetica,sans-Serif" font-size="10.00">AddDintToMessage</text>
</a>
</g>
</g>
<!-- Node5&#45;&gt;Node6 -->
<g id="edge5" class="edge"><title>Node5&#45;&gt;Node6</title>
<path fill="none" stroke="midnightblue" d="M319.918,-75.0027C326.302,-72.2051 332.464,-68.9016 338,-65.0049 359.806,-49.6557 350.149,-28.9306 374,-17.0049 440.179,16.0847 529.876,-6.47924 577.711,-22.983"/>
<polygon fill="midnightblue" stroke="midnightblue" points="576.665,-26.3258 587.26,-26.3905 579.018,-19.733 576.665,-26.3258"/>
</g>
<!-- Node7 -->
<g id="node7" class="node"><title>Node7</title>
<g id="a_node7"><a xlink:href="../../d4/d91/group__ENCAP.html#gae689aac2a85bf49fb356ec94c8800799" target="_top" xlink:title="converts UINT16 data from host to little endian an writes it to buffer. ">
<polygon fill="none" stroke="black" points="564,-64.5049 564,-83.5049 660,-83.5049 660,-64.5049 564,-64.5049"/>
<text text-anchor="middle" x="612" y="-71.5049" font-family="Helvetica,sans-Serif" font-size="10.00">AddIntToMessage</text>
</a>
</g>
</g>
<!-- Node5&#45;&gt;Node7 -->
<g id="edge6" class="edge"><title>Node5&#45;&gt;Node7</title>
<path fill="none" stroke="midnightblue" d="M337.564,-95.8678C390.669,-98.514 461.664,-99.7324 524,-93.0049 537.719,-91.5243 552.446,-88.7667 565.812,-85.8025"/>
<polygon fill="midnightblue" stroke="midnightblue" points="566.771,-89.1731 575.727,-83.5132 565.196,-82.3526 566.771,-89.1731"/>
</g>
<!-- Node8 -->
<g id="node8" class="node"><title>Node8</title>
<g id="a_node8"><a xlink:href="../../da/d73/endianconv_8c.html#a2e8bf172dd5ecba3cc0871278ab06538" target="_top" xlink:title="Encapsulate the sockaddr information as necessary for the Common Packet Format data items...">
<polygon fill="none" stroke="black" points="391.5,-26.5049 391.5,-45.5049 506.5,-45.5049 506.5,-26.5049 391.5,-26.5049"/>
<text text-anchor="middle" x="449" y="-33.5049" font-family="Helvetica,sans-Serif" font-size="10.00">EncapsulateIpAddress</text>
</a>
</g>
</g>
<!-- Node5&#45;&gt;Node8 -->
<g id="edge7" class="edge"><title>Node5&#45;&gt;Node8</title>
<path fill="none" stroke="midnightblue" d="M305.832,-74.9297C326.767,-68.5881 351.529,-61.2481 374,-55.0049 382.267,-52.708 391.081,-50.3588 399.638,-48.1303"/>
<polygon fill="midnightblue" stroke="midnightblue" points="400.708,-51.4687 409.516,-45.58 398.959,-44.6909 400.708,-51.4687"/>
</g>
<!-- Node9 -->
<g id="node9" class="node"><title>Node9</title>
<g id="a_node9"><a xlink:href="../../d2/dbd/encap_8c.html#ad558c3aae69a6ab80034278c108802e9" target="_top" xlink:title="GenerateEncapsulationHeader">
<polygon fill="none" stroke="black" points="374.5,-64.5049 374.5,-83.5049 523.5,-83.5049 523.5,-64.5049 374.5,-64.5049"/>
<text text-anchor="middle" x="449" y="-71.5049" font-family="Helvetica,sans-Serif" font-size="10.00">GenerateEncapsulationHeader</text>
</a>
</g>
</g>
<!-- Node5&#45;&gt;Node9 -->
<g id="edge10" class="edge"><title>Node5&#45;&gt;Node9</title>
<path fill="none" stroke="midnightblue" d="M337.724,-83.2426C346.433,-82.5131 355.309,-81.7696 364.054,-81.037"/>
<polygon fill="midnightblue" stroke="midnightblue" points="364.569,-84.5062 374.241,-80.1836 363.984,-77.5307 364.569,-84.5062"/>
</g>
<!-- Node8&#45;&gt;Node6 -->
<g id="edge9" class="edge"><title>Node8&#45;&gt;Node6</title>
<path fill="none" stroke="midnightblue" d="M506.763,-36.0049C520.823,-36.0049 535.944,-36.0049 550.189,-36.0049"/>
<polygon fill="midnightblue" stroke="midnightblue" points="550.379,-39.505 560.379,-36.0049 550.379,-32.505 550.379,-39.505"/>
</g>
<!-- Node8&#45;&gt;Node7 -->
<g id="edge8" class="edge"><title>Node8&#45;&gt;Node7</title>
<path fill="none" stroke="midnightblue" d="M490.627,-45.5939C511.968,-50.631 538.312,-56.8487 560.908,-62.1819"/>
<polygon fill="midnightblue" stroke="midnightblue" points="560.128,-65.594 570.665,-64.4848 561.736,-58.7812 560.128,-65.594"/>
</g>
<!-- Node9&#45;&gt;Node6 -->
<g id="edge11" class="edge"><title>Node9&#45;&gt;Node6</title>
<path fill="none" stroke="midnightblue" d="M490.627,-64.4159C511.968,-59.3788 538.312,-53.1611 560.908,-47.8278"/>
<polygon fill="midnightblue" stroke="midnightblue" points="561.736,-51.2285 570.665,-45.5249 560.128,-44.4157 561.736,-51.2285"/>
</g>
<!-- Node9&#45;&gt;Node7 -->
<g id="edge12" class="edge"><title>Node9&#45;&gt;Node7</title>
<path fill="none" stroke="midnightblue" d="M523.903,-74.0049C533.859,-74.0049 543.95,-74.0049 553.563,-74.0049"/>
<polygon fill="midnightblue" stroke="midnightblue" points="553.776,-77.505 563.776,-74.0049 553.776,-70.505 553.776,-77.505"/>
</g>
</g>
</svg>
        <g id="navigator" transform="translate(0 0)" fill="#404254">
                <rect fill="#f2f5e9" fill-opacity="0.5" stroke="#606060" stroke-width=".5" x="0" y="0" width="60" height="60"/>
                <use id="zoomplus" xlink:href="#zoomPlus" x="17" y="9" onmousedown="handleZoom(evt,'in')"/>
                <use id="zoomminus" xlink:href="#zoomMin" x="42" y="9" onmousedown="handleZoom(evt,'out')"/>
                <use id="reset" xlink:href="#resetDef" x="30" y="36" onmousedown="handleReset()"/>
                <g id="arrowUp" xlink:href="#dirArrow" transform="translate(30 24)" onmousedown="handlePan(0,-1)">
                  <use xlink:href="#rim" fill="#404040">
                        <set attributeName="fill" to="#808080" begin="arrowUp.mouseover" end="arrowUp.mouseout"/>
                  </use>
                  <path fill="none" stroke="white" stroke-width="1.5" d="M0,-3.0v7 M-2.5,-0.5L0,-3.0L2.5,-0.5"/>
                </g>
                <g id="arrowRight" xlink:href="#dirArrow" transform="rotate(90) translate(36 -43)" onmousedown="handlePan(1,0)">
                  <use xlink:href="#rim" fill="#404040">
                        <set attributeName="fill" to="#808080" begin="arrowRight.mouseover" end="arrowRight.mouseout"/>
                  </use>
                  <path fill="none" stroke="white" stroke-width="1.5" d="M0,-3.0v7 M-2.5,-0.5L0,-3.0L2.5,-0.5"/>
                </g>
                <g id="arrowDown" xlink:href="#dirArrow" transform="rotate(180) translate(-30 -48)" onmousedown="handlePan(0,1)">
                  <use xlink:href="#rim" fill="#404040">
                        <set attributeName="fill" to="#808080" begin="arrowDown.mouseover" end="arrowDown.mouseout"/>
                  </use>
                  <path fill="none" stroke="white" stroke-width="1.5" d="M0,-3.0v7 M-2.5,-0.5L0,-3.0L2.5,-0.5"/>
                </g>
                <g id="arrowLeft" xlink:href="#dirArrow" transform="rotate(270) translate(-36 17)" onmousedown="handlePan(-1,0)">
                  <use xlink:href="#rim" fill="#404040">
                        <set attributeName="fill" to="#808080" begin="arrowLeft.mouseover" end="arrowLeft.mouseout"/>
                  </use>
                  <path fill="none" stroke="white" stroke-width="1.5" d="M0,-3.0v7 M-2.5,-0.5L0,-3.0L2.5,-0.5"/>
                </g>
        </g>
        <svg viewBox="0 0 15 15" width="100%" height="30px" preserveAspectRatio="xMaxYMin meet">
         <g id="arrow_out" transform="scale(0.3 0.3)">
          <a xlink:href="encap_8c_aa042b74f0d2659164f5c6811e6cb4fda_cgraph_org.svg" target="_base">
           <rect id="button" ry="5" rx="5" y="6" x="6" height="38" width="38"
                fill="#f2f5e9" fill-opacity="0.5" stroke="#606060" stroke-width="1.0"/>
           <path id="arrow"
             d="M 11.500037,31.436501 C 11.940474,20.09759 22.043105,11.32322 32.158766,21.979434 L 37.068811,17.246167 C 37.068811,17.246167 37.088388,32 37.088388,32 L 22.160133,31.978069 C 22.160133,31.978069 26.997745,27.140456 26.997745,27.140456 C 18.528582,18.264221 13.291696,25.230495 11.500037,31.436501 z"
             style="fill:#404040;"/>
          </a>
         </g>
        </svg>
</svg>
