<?xml version="1.0" encoding="UTF-8" standalone="no"?>
<!DOCTYPE svg PUBLIC "-//W3C//DTD SVG 1.1//EN"
 "http://www.w3.org/Graphics/SVG/1.1/DTD/svg11.dtd">
<!-- Generated by graphviz version 2.38.0 (20140413.2041)
 -->
<!-- Title: HandleReceivedListInterfacesCommand Pages: 1 -->
<svg width="480pt" height="66pt"
 viewBox="0.00 0.00 480.00 66.00" xmlns="http://www.w3.org/2000/svg" xmlns:xlink="http://www.w3.org/1999/xlink">
<g id="graph0" class="graph" transform="scale(1 1) rotate(0) translate(4 62)">
<title>HandleReceivedListInterfacesCommand</title>
<!-- Node1 -->
<g id="node1" class="node"><title>Node1</title>
<polygon fill="#bfbfbf" stroke="black" points="0,-14 0,-44 148,-44 148,-14 0,-14"/>
<text text-anchor="start" x="8" y="-32" font-family="Helvetica,sans-Serif" font-size="10.00">HandleReceivedListInterfaces</text>
<text text-anchor="middle" x="74" y="-21" font-family="Helvetica,sans-Serif" font-size="10.00">Command</text>
</g>
<!-- Node2 -->
<g id="node2" class="node"><title>Node2</title>
<g id="a_node2"><a xlink:href="../../d4/d91/group__ENCAP.html#gae689aac2a85bf49fb356ec94c8800799" target="_top" xlink:title="converts UINT16 data from host to little endian an writes it to buffer. ">
<polygon fill="none" stroke="black" points="372.5,-38.5 372.5,-57.5 468.5,-57.5 468.5,-38.5 372.5,-38.5"/>
<text text-anchor="middle" x="420.5" y="-45.5" font-family="Helvetica,sans-Serif" font-size="10.00">AddIntToMessage</text>
</a>
</g>
</g>
<!-- Node1&#45;&gt;Node2 -->
<g id="edge1" class="edge"><title>Node1&#45;&gt;Node2</title>
<path fill="none" stroke="midnightblue" d="M148.06,-33.0294C211.968,-36.5541 303.511,-41.6029 362.235,-44.8417"/>
<polygon fill="midnightblue" stroke="midnightblue" points="362.267,-48.3487 372.445,-45.4048 362.653,-41.3593 362.267,-48.3487"/>
</g>
<!-- Node3 -->
<g id="node3" class="node"><title>Node3</title>
<g id="a_node3"><a xlink:href="../../d2/dbd/encap_8c.html#ad558c3aae69a6ab80034278c108802e9" target="_top" xlink:title="GenerateEncapsulationHeader">
<polygon fill="none" stroke="black" points="184,-0.5 184,-19.5 333,-19.5 333,-0.5 184,-0.5"/>
<text text-anchor="middle" x="258.5" y="-7.5" font-family="Helvetica,sans-Serif" font-size="10.00">GenerateEncapsulationHeader</text>
</a>
</g>
</g>
<!-- Node1&#45;&gt;Node3 -->
<g id="edge2" class="edge"><title>Node1&#45;&gt;Node3</title>
<path fill="none" stroke="midnightblue" d="M148.178,-21.3815C156.589,-20.5058 165.213,-19.608 173.748,-18.7194"/>
<polygon fill="midnightblue" stroke="midnightblue" points="174.126,-22.199 183.71,-17.6822 173.401,-15.2366 174.126,-22.199"/>
</g>
<!-- Node3&#45;&gt;Node2 -->
<g id="edge4" class="edge"><title>Node3&#45;&gt;Node2</title>
<path fill="none" stroke="midnightblue" d="M299.875,-19.589C320.988,-24.6035 347.029,-30.7881 369.417,-36.1053"/>
<polygon fill="midnightblue" stroke="midnightblue" points="368.877,-39.5744 379.416,-38.4799 370.495,-32.7639 368.877,-39.5744"/>
</g>
<!-- Node4 -->
<g id="node4" class="node"><title>Node4</title>
<g id="a_node4"><a xlink:href="../../d4/d91/group__ENCAP.html#gaafc3c9e3ff582c9b7e438ae2b1fdf822" target="_top" xlink:title="Converts UINT32 data from host to little endian and writes it to buffer. ">
<polygon fill="none" stroke="black" points="369,-0.5 369,-19.5 472,-19.5 472,-0.5 369,-0.5"/>
<text text-anchor="middle" x="420.5" y="-7.5" font-family="Helvetica,sans-Serif" font-size="10.00">AddDintToMessage</text>
</a>
</g>
</g>
<!-- Node3&#45;&gt;Node4 -->
<g id="edge3" class="edge"><title>Node3&#45;&gt;Node4</title>
<path fill="none" stroke="midnightblue" d="M333.411,-10C341.817,-10 350.313,-10 358.525,-10"/>
<polygon fill="midnightblue" stroke="midnightblue" points="358.746,-13.5001 368.746,-10 358.746,-6.5001 358.746,-13.5001"/>
</g>
</g>
</svg>
