<?xml version="1.0" encoding="UTF-8" standalone="no"?>
<!DOCTYPE svg PUBLIC "-//W3C//DTD SVG 1.1//EN"
 "http://www.w3.org/Graphics/SVG/1.1/DTD/svg11.dtd">
<!-- Generated by graphviz version 2.38.0 (20140413.2041)
 -->
<!-- Title: CloseClass3ConnectionBasedOnSession Pages: 1 -->
<svg width="1596pt" height="156pt"
 viewBox="0.00 0.00 1596.00 155.50" xmlns="http://www.w3.org/2000/svg" xmlns:xlink="http://www.w3.org/1999/xlink">
<g id="graph0" class="graph" transform="scale(1 1) rotate(0) translate(4 151.5)">
<title>CloseClass3ConnectionBasedOnSession</title>
<!-- Node1 -->
<g id="node1" class="node"><title>Node1</title>
<polygon fill="#bfbfbf" stroke="black" points="0,-66.5 0,-96.5 150,-96.5 150,-66.5 0,-66.5"/>
<text text-anchor="start" x="8" y="-84.5" font-family="Helvetica,sans-Serif" font-size="10.00">CloseClass3ConnectionBased</text>
<text text-anchor="middle" x="75" y="-73.5" font-family="Helvetica,sans-Serif" font-size="10.00">OnSession</text>
</g>
<!-- Node2 -->
<g id="node2" class="node"><title>Node2</title>
<g id="a_node2"><a xlink:href="../../db/d4f/generic__networkhandler_8c.html#ab561fc66fe48a0cf95be3d152b297dd9" target="_top" xlink:title="CheckEncapsulationInactivity">
<polygon fill="none" stroke="black" points="548,-128 548,-147 694,-147 694,-128 548,-128"/>
<text text-anchor="middle" x="621" y="-135" font-family="Helvetica,sans-Serif" font-size="10.00">CheckEncapsulationInactivity</text>
</a>
</g>
</g>
<!-- Node1&#45;&gt;Node2 -->
<g id="edge1" class="edge"><title>Node1&#45;&gt;Node2</title>
<path fill="none" stroke="midnightblue" d="M147.985,-98.6373C160.602,-101.23 173.645,-103.652 186,-105.5 312.464,-124.418 461.409,-132.309 547.832,-135.484"/>
<polygon fill="midnightblue" stroke="midnightblue" points="148.487,-95.1661 137.98,-96.5285 147.043,-102.016 148.487,-95.1661"/>
</g>
<!-- Node8 -->
<g id="node8" class="node"><title>Node8</title>
<g id="a_node8"><a xlink:href="../../d2/dc9/group__CIP__API.html#ga00a23c1c86472edf2ed679089ae8efc1" target="_top" xlink:title="Inform the encapsulation layer that the remote host has closed the connection. ">
<polygon fill="none" stroke="black" points="214.5,-6 214.5,-25 291.5,-25 291.5,-6 214.5,-6"/>
<text text-anchor="middle" x="253" y="-13" font-family="Helvetica,sans-Serif" font-size="10.00">CloseSession</text>
</a>
</g>
</g>
<!-- Node1&#45;&gt;Node8 -->
<g id="edge7" class="edge"><title>Node1&#45;&gt;Node8</title>
<path fill="none" stroke="midnightblue" d="M117.615,-62.2802C137.993,-53.2406 163.03,-42.6782 186,-34.5 195.548,-31.1005 206.032,-27.8638 215.777,-25.0567"/>
<polygon fill="midnightblue" stroke="midnightblue" points="116.009,-59.1647 108.311,-66.4449 118.869,-65.5538 116.009,-59.1647"/>
</g>
<!-- Node15 -->
<g id="node15" class="node"><title>Node15</title>
<g id="a_node15"><a xlink:href="../../d2/dbd/encap_8c.html#a601cd19c88f03fd742f098a1bf5b9e85" target="_top" xlink:title="HandleReceivedUnregister\lSessionCommand">
<polygon fill="none" stroke="black" points="186,-44.5 186,-74.5 320,-74.5 320,-44.5 186,-44.5"/>
<text text-anchor="start" x="194" y="-62.5" font-family="Helvetica,sans-Serif" font-size="10.00">HandleReceivedUnregister</text>
<text text-anchor="middle" x="253" y="-51.5" font-family="Helvetica,sans-Serif" font-size="10.00">SessionCommand</text>
</a>
</g>
</g>
<!-- Node1&#45;&gt;Node15 -->
<g id="edge15" class="edge"><title>Node1&#45;&gt;Node15</title>
<path fill="none" stroke="midnightblue" d="M160.179,-70.9776C168.775,-69.9031 177.42,-68.8225 185.785,-67.7769"/>
<polygon fill="midnightblue" stroke="midnightblue" points="159.618,-67.5204 150.13,-72.2338 160.487,-74.4663 159.618,-67.5204"/>
</g>
<!-- Node18 -->
<g id="node18" class="node"><title>Node18</title>
<g id="a_node18"><a xlink:href="../../d7/df9/encap_8h.html#a86c98c2665f4c058e9c5afb60690a81b" target="_top" xlink:title="RemoveSession">
<polygon fill="none" stroke="black" points="389.5,-91 389.5,-110 478.5,-110 478.5,-91 389.5,-91"/>
<text text-anchor="middle" x="434" y="-98" font-family="Helvetica,sans-Serif" font-size="10.00">RemoveSession</text>
</a>
</g>
</g>
<!-- Node1&#45;&gt;Node18 -->
<g id="edge19" class="edge"><title>Node1&#45;&gt;Node18</title>
<path fill="none" stroke="midnightblue" d="M160.785,-86.0123C232.587,-89.8337 332.627,-95.158 389.289,-98.1737"/>
<polygon fill="midnightblue" stroke="midnightblue" points="160.576,-82.4964 150.404,-85.4599 160.204,-89.4865 160.576,-82.4964"/>
</g>
<!-- Node3 -->
<g id="node3" class="node"><title>Node3</title>
<g id="a_node3"><a xlink:href="../../da/dc2/generic__networkhandler_8h.html#a2f01af81d3e5018d9980e2bc28c9078a" target="_top" xlink:title="NetworkHandlerProcessOnce">
<polygon fill="none" stroke="black" points="730,-89 730,-108 876,-108 876,-89 730,-89"/>
<text text-anchor="middle" x="803" y="-96" font-family="Helvetica,sans-Serif" font-size="10.00">NetworkHandlerProcessOnce</text>
</a>
</g>
</g>
<!-- Node2&#45;&gt;Node3 -->
<g id="edge2" class="edge"><title>Node2&#45;&gt;Node3</title>
<path fill="none" stroke="midnightblue" d="M675.836,-125.835C702.107,-120.143 733.309,-113.383 758.11,-108.009"/>
<polygon fill="midnightblue" stroke="midnightblue" points="675.065,-122.421 666.033,-127.96 676.547,-129.263 675.065,-122.421"/>
</g>
<!-- Node4 -->
<g id="node4" class="node"><title>Node4</title>
<g id="a_node4"><a xlink:href="../../d5/dcb/MINGW_2main_8c.html#ad338a7dbc41dc40bcecd0479377ef207" target="_top" xlink:title="main">
<polygon fill="none" stroke="black" points="1323,-60 1323,-79 1361,-79 1361,-60 1323,-60"/>
<text text-anchor="middle" x="1342" y="-67" font-family="Helvetica,sans-Serif" font-size="10.00">main</text>
</a>
</g>
</g>
<!-- Node3&#45;&gt;Node4 -->
<g id="edge3" class="edge"><title>Node3&#45;&gt;Node4</title>
<path fill="none" stroke="midnightblue" d="M886.311,-94.0549C1014.55,-87.1297 1254.4,-74.1768 1322.53,-70.4976"/>
<polygon fill="midnightblue" stroke="midnightblue" points="885.94,-90.5697 876.143,-94.604 886.318,-97.5596 885.94,-90.5697"/>
</g>
<!-- Node7 -->
<g id="node7" class="node"><title>Node7</title>
<g id="a_node7"><a xlink:href="../../d9/dfb/POSIX_2main_8c.html#acd4e45a35a64f9cb29b59f63492b61d2" target="_top" xlink:title="Signal handler function for ending stack execution. ">
<polygon fill="none" stroke="black" points="935.5,-51 935.5,-70 1003.5,-70 1003.5,-51 935.5,-51"/>
<text text-anchor="middle" x="969.5" y="-58" font-family="Helvetica,sans-Serif" font-size="10.00">LeaveStack</text>
</a>
</g>
</g>
<!-- Node3&#45;&gt;Node7 -->
<g id="edge6" class="edge"><title>Node3&#45;&gt;Node7</title>
<path fill="none" stroke="midnightblue" d="M855.593,-86.5818C881.622,-80.569 912.431,-73.4521 935.285,-68.1727"/>
<polygon fill="midnightblue" stroke="midnightblue" points="854.466,-83.25 845.51,-88.911 856.042,-90.0704 854.466,-83.25"/>
</g>
<!-- Node5 -->
<g id="node5" class="node"><title>Node5</title>
<g id="a_node5"><a xlink:href="../../d8/d03/ports_2MINGW_2CMakeLists_8txt.html#a7e00df43a20d627a1732be7766d91097" target="_top" xlink:title="add_library">
<polygon fill="none" stroke="black" points="1397,-60 1397,-79 1461,-79 1461,-60 1397,-60"/>
<text text-anchor="middle" x="1429" y="-67" font-family="Helvetica,sans-Serif" font-size="10.00">add_library</text>
</a>
</g>
</g>
<!-- Node4&#45;&gt;Node5 -->
<g id="edge4" class="edge"><title>Node4&#45;&gt;Node5</title>
<path fill="none" stroke="midnightblue" d="M1371.27,-69.5C1379.5,-69.5 1388.55,-69.5 1396.94,-69.5"/>
<polygon fill="midnightblue" stroke="midnightblue" points="1371.03,-66.0001 1361.03,-69.5 1371.03,-73.0001 1371.03,-66.0001"/>
</g>
<!-- Node6 -->
<g id="node6" class="node"><title>Node6</title>
<g id="a_node6"><a xlink:href="../../d8/dce/ports_2CMakeLists_8txt.html#a598fae457555a5fb26e18d4cd8f89de9" target="_top" xlink:title="add_subdirectory">
<polygon fill="none" stroke="black" points="1497,-60 1497,-79 1588,-79 1588,-60 1497,-60"/>
<text text-anchor="middle" x="1542.5" y="-67" font-family="Helvetica,sans-Serif" font-size="10.00">add_subdirectory</text>
</a>
</g>
</g>
<!-- Node5&#45;&gt;Node6 -->
<g id="edge5" class="edge"><title>Node5&#45;&gt;Node6</title>
<path fill="none" stroke="midnightblue" d="M1471.3,-69.5C1479.63,-69.5 1488.42,-69.5 1496.86,-69.5"/>
<polygon fill="midnightblue" stroke="midnightblue" points="1471.06,-66.0001 1461.06,-69.5 1471.06,-73.0001 1471.06,-66.0001"/>
</g>
<!-- Node9 -->
<g id="node9" class="node"><title>Node9</title>
<g id="a_node9"><a xlink:href="../../d7/df9/encap_8h.html#a0101714be726ab1b21125b6a82ac7a56" target="_top" xlink:title="CloseEncapsulationSession\lBySockAddr">
<polygon fill="none" stroke="black" points="364.5,-0.5 364.5,-30.5 503.5,-30.5 503.5,-0.5 364.5,-0.5"/>
<text text-anchor="start" x="372.5" y="-18.5" font-family="Helvetica,sans-Serif" font-size="10.00">CloseEncapsulationSession</text>
<text text-anchor="middle" x="434" y="-7.5" font-family="Helvetica,sans-Serif" font-size="10.00">BySockAddr</text>
</a>
</g>
</g>
<!-- Node8&#45;&gt;Node9 -->
<g id="edge8" class="edge"><title>Node8&#45;&gt;Node9</title>
<path fill="none" stroke="midnightblue" d="M301.559,-15.5C320.825,-15.5 343.442,-15.5 364.432,-15.5"/>
<polygon fill="midnightblue" stroke="midnightblue" points="301.524,-12.0001 291.524,-15.5 301.524,-19.0001 301.524,-12.0001"/>
</g>
<!-- Node10 -->
<g id="node10" class="node"><title>Node10</title>
<g id="a_node10"><a xlink:href="../../df/d03/cipioconnection_8c.html#a7e4923f4b027d489d9933b52f6fd7007" target="_top" xlink:title="HandleIoConnectionTimeOut">
<polygon fill="none" stroke="black" points="549.5,-10 549.5,-29 692.5,-29 692.5,-10 549.5,-10"/>
<text text-anchor="middle" x="621" y="-17" font-family="Helvetica,sans-Serif" font-size="10.00">HandleIoConnectionTimeOut</text>
</a>
</g>
</g>
<!-- Node9&#45;&gt;Node10 -->
<g id="edge9" class="edge"><title>Node9&#45;&gt;Node10</title>
<path fill="none" stroke="midnightblue" d="M513.876,-17.2054C525.652,-17.46 537.729,-17.7212 549.322,-17.9718"/>
<polygon fill="midnightblue" stroke="midnightblue" points="513.698,-13.7008 503.624,-16.9838 513.546,-20.6992 513.698,-13.7008"/>
</g>
<!-- Node11 -->
<g id="node11" class="node"><title>Node11</title>
<g id="a_node11"><a xlink:href="../../df/d03/cipioconnection_8c.html#ab3282f146a3ea91c90cf14c32206ee8c" target="_top" xlink:title="SetIoConnectionCallbacks">
<polygon fill="none" stroke="black" points="736.5,-10 736.5,-29 869.5,-29 869.5,-10 736.5,-10"/>
<text text-anchor="middle" x="803" y="-17" font-family="Helvetica,sans-Serif" font-size="10.00">SetIoConnectionCallbacks</text>
</a>
</g>
</g>
<!-- Node10&#45;&gt;Node11 -->
<g id="edge10" class="edge"><title>Node10&#45;&gt;Node11</title>
<path fill="none" stroke="midnightblue" d="M702.829,-19.5C714.021,-19.5 725.405,-19.5 736.278,-19.5"/>
<polygon fill="midnightblue" stroke="midnightblue" points="702.624,-16.0001 692.624,-19.5 702.624,-23.0001 702.624,-16.0001"/>
</g>
<!-- Node12 -->
<g id="node12" class="node"><title>Node12</title>
<g id="a_node12"><a xlink:href="../../de/d45/cipioconnection_8h.html#a43e270b3f9b9f6296b12285c320c95aa" target="_top" xlink:title="Setup all data in order to establish an IO connection. ">
<polygon fill="none" stroke="black" points="912,-12 912,-31 1027,-31 1027,-12 912,-12"/>
<text text-anchor="middle" x="969.5" y="-19" font-family="Helvetica,sans-Serif" font-size="10.00">EstablishIoConnection</text>
</a>
</g>
</g>
<!-- Node11&#45;&gt;Node12 -->
<g id="edge11" class="edge"><title>Node11&#45;&gt;Node12</title>
<path fill="none" stroke="midnightblue" d="M880.116,-20.4254C890.778,-20.555 901.577,-20.6863 911.793,-20.8106"/>
<polygon fill="midnightblue" stroke="midnightblue" points="880.002,-16.9239 869.961,-20.302 879.917,-23.9234 880.002,-16.9239"/>
</g>
<!-- Node13 -->
<g id="node13" class="node"><title>Node13</title>
<g id="a_node13"><a xlink:href="../../d2/da3/cipconnectionmanager_8h.html#a5ab0de6894d23e8fe84a6b46797c2212" target="_top" xlink:title="Initialize the data of the connection manager object. ">
<polygon fill="none" stroke="black" points="1063,-22 1063,-41 1180,-41 1180,-22 1063,-22"/>
<text text-anchor="middle" x="1121.5" y="-29" font-family="Helvetica,sans-Serif" font-size="10.00">ConnectionManagerInit</text>
</a>
</g>
</g>
<!-- Node12&#45;&gt;Node13 -->
<g id="edge12" class="edge"><title>Node12&#45;&gt;Node13</title>
<path fill="none" stroke="midnightblue" d="M1037.41,-25.9605C1045.85,-26.5233 1054.43,-27.0953 1062.71,-27.6476"/>
<polygon fill="midnightblue" stroke="midnightblue" points="1037.42,-22.4536 1027.21,-25.2806 1036.95,-29.4381 1037.42,-22.4536"/>
</g>
<!-- Node14 -->
<g id="node14" class="node"><title>Node14</title>
<g id="a_node14"><a xlink:href="../../d2/dc9/group__CIP__API.html#ga5d4979945d124e28668b264c3823db1c" target="_top" xlink:title="Initialize and setup the CIP&#45;stack. ">
<polygon fill="none" stroke="black" points="1216,-32 1216,-51 1287,-51 1287,-32 1216,-32"/>
<text text-anchor="middle" x="1251.5" y="-39" font-family="Helvetica,sans-Serif" font-size="10.00">CipStackInit</text>
</a>
</g>
</g>
<!-- Node13&#45;&gt;Node14 -->
<g id="edge13" class="edge"><title>Node13&#45;&gt;Node14</title>
<path fill="none" stroke="midnightblue" d="M1190.18,-36.7878C1199.08,-37.4828 1207.88,-38.1705 1215.9,-38.7967"/>
<polygon fill="midnightblue" stroke="midnightblue" points="1190.38,-33.2923 1180.13,-36.0027 1189.83,-40.271 1190.38,-33.2923"/>
</g>
<!-- Node14&#45;&gt;Node4 -->
<g id="edge14" class="edge"><title>Node14&#45;&gt;Node4</title>
<path fill="none" stroke="midnightblue" d="M1292.54,-54.1686C1303.16,-57.5267 1314.1,-60.9879 1322.89,-63.7699"/>
<polygon fill="midnightblue" stroke="midnightblue" points="1293.55,-50.8156 1282.96,-51.136 1291.44,-57.4895 1293.55,-50.8156"/>
</g>
<!-- Node16 -->
<g id="node16" class="node"><title>Node16</title>
<g id="a_node16"><a xlink:href="../../d2/dc9/group__CIP__API.html#ga16eaeeb12ba23b5a75c8e5902a33d70a" target="_top" xlink:title="Notify the encapsulation layer that an explicit message has been received via TCP. ">
<polygon fill="none" stroke="black" points="356,-51 356,-70 512,-70 512,-51 356,-51"/>
<text text-anchor="middle" x="434" y="-58" font-family="Helvetica,sans-Serif" font-size="10.00">HandleReceivedExplictTcpData</text>
</a>
</g>
</g>
<!-- Node15&#45;&gt;Node16 -->
<g id="edge16" class="edge"><title>Node15&#45;&gt;Node16</title>
<path fill="none" stroke="midnightblue" d="M330.37,-59.9267C338.836,-59.9739 347.462,-60.0221 355.936,-60.0695"/>
<polygon fill="midnightblue" stroke="midnightblue" points="330.164,-56.4255 320.144,-59.8695 330.125,-63.4254 330.164,-56.4255"/>
</g>
<!-- Node17 -->
<g id="node17" class="node"><title>Node17</title>
<g id="a_node17"><a xlink:href="../../db/d4f/generic__networkhandler_8c.html#aca5593b7dd39d7a7b437999a367102d6" target="_top" xlink:title="Handles data on an established TCP connection, processed connection is given by socket. ">
<polygon fill="none" stroke="black" points="557,-52 557,-71 685,-71 685,-52 557,-52"/>
<text text-anchor="middle" x="621" y="-59" font-family="Helvetica,sans-Serif" font-size="10.00">HandleDataOnTcpSocket</text>
</a>
</g>
</g>
<!-- Node16&#45;&gt;Node17 -->
<g id="edge17" class="edge"><title>Node16&#45;&gt;Node17</title>
<path fill="none" stroke="midnightblue" d="M522.291,-60.9718C533.921,-61.0347 545.661,-61.0982 556.773,-61.1582"/>
<polygon fill="midnightblue" stroke="midnightblue" points="522.136,-57.4711 512.117,-60.9168 522.098,-64.4709 522.136,-57.4711"/>
</g>
<!-- Node17&#45;&gt;Node3 -->
<g id="edge18" class="edge"><title>Node17&#45;&gt;Node3</title>
<path fill="none" stroke="midnightblue" d="M678.355,-73.084C703.156,-78.182 731.938,-84.0984 755.49,-88.9396"/>
<polygon fill="midnightblue" stroke="midnightblue" points="678.854,-69.6136 668.354,-71.0284 677.445,-76.4703 678.854,-69.6136"/>
</g>
<!-- Node18&#45;&gt;Node2 -->
<g id="edge22" class="edge"><title>Node18&#45;&gt;Node2</title>
<path fill="none" stroke="midnightblue" d="M488.692,-111.238C515.11,-116.522 546.687,-122.837 572.255,-127.951"/>
<polygon fill="midnightblue" stroke="midnightblue" points="489.335,-107.798 478.842,-109.268 487.962,-114.662 489.335,-107.798"/>
</g>
<!-- Node18&#45;&gt;Node3 -->
<g id="edge20" class="edge"><title>Node18&#45;&gt;Node3</title>
<path fill="none" stroke="midnightblue" d="M488.773,-100.207C552.496,-99.8597 658.943,-99.2796 729.802,-98.8934"/>
<polygon fill="midnightblue" stroke="midnightblue" points="488.522,-96.7082 478.541,-100.263 488.56,-103.708 488.522,-96.7082"/>
</g>
<!-- Node18&#45;&gt;Node17 -->
<g id="edge21" class="edge"><title>Node18&#45;&gt;Node17</title>
<path fill="none" stroke="midnightblue" d="M488.64,-89.1921C515.975,-83.4296 548.844,-76.5006 574.864,-71.0151"/>
<polygon fill="midnightblue" stroke="midnightblue" points="487.905,-85.77 478.842,-91.2575 489.349,-92.6194 487.905,-85.77"/>
</g>
</g>
</svg>
