<?xml version="1.0" encoding="UTF-8" standalone="no"?>
<!DOCTYPE svg PUBLIC "-//W3C//DTD SVG 1.1//EN"
 "http://www.w3.org/Graphics/SVG/1.1/DTD/svg11.dtd">
<!-- Generated by graphviz version 2.38.0 (20140413.2041)
 -->
<!-- Title: HandleReceivedListServicesCommand Pages: 1 -->
<svg width="1077pt" height="127pt"
 viewBox="0.00 0.00 1077.00 126.50" xmlns="http://www.w3.org/2000/svg" xmlns:xlink="http://www.w3.org/1999/xlink">
<g id="graph0" class="graph" transform="scale(1 1) rotate(0) translate(4 122.5)">
<title>HandleReceivedListServicesCommand</title>
<!-- Node1 -->
<g id="node1" class="node"><title>Node1</title>
<polygon fill="#bfbfbf" stroke="black" points="0,-69.5 0,-99.5 143,-99.5 143,-69.5 0,-69.5"/>
<text text-anchor="start" x="8" y="-87.5" font-family="Helvetica,sans-Serif" font-size="10.00">HandleReceivedListServices</text>
<text text-anchor="middle" x="71.5" y="-76.5" font-family="Helvetica,sans-Serif" font-size="10.00">Command</text>
</g>
<!-- Node2 -->
<g id="node2" class="node"><title>Node2</title>
<g id="a_node2"><a xlink:href="../../d2/dc9/group__CIP__API.html#ga16eaeeb12ba23b5a75c8e5902a33d70a" target="_top" xlink:title="Notify the encapsulation layer that an explicit message has been received via TCP. ">
<polygon fill="none" stroke="black" points="180,-96 180,-115 336,-115 336,-96 180,-96"/>
<text text-anchor="middle" x="258" y="-103" font-family="Helvetica,sans-Serif" font-size="10.00">HandleReceivedExplictTcpData</text>
</a>
</g>
</g>
<!-- Node1&#45;&gt;Node2 -->
<g id="edge1" class="edge"><title>Node1&#45;&gt;Node2</title>
<path fill="none" stroke="midnightblue" d="M152.987,-93.6611C161.868,-94.6719 170.896,-95.6995 179.736,-96.7057"/>
<polygon fill="midnightblue" stroke="midnightblue" points="153.373,-90.1825 143.041,-92.5291 152.581,-97.1376 153.373,-90.1825"/>
</g>
<!-- Node9 -->
<g id="node9" class="node"><title>Node9</title>
<g id="a_node9"><a xlink:href="../../d2/dc9/group__CIP__API.html#gaab62df9410a09727a82afa7672e3194a" target="_top" xlink:title="Notify the encapsulation layer that an explicit message has been received via UDP. ">
<polygon fill="none" stroke="black" points="179,-55 179,-74 337,-74 337,-55 179,-55"/>
<text text-anchor="middle" x="258" y="-62" font-family="Helvetica,sans-Serif" font-size="10.00">HandleReceivedExplictUdpData</text>
</a>
</g>
</g>
<!-- Node1&#45;&gt;Node9 -->
<g id="edge8" class="edge"><title>Node1&#45;&gt;Node9</title>
<path fill="none" stroke="midnightblue" d="M153.011,-75.7725C161.573,-74.8444 170.272,-73.9014 178.807,-72.9762"/>
<polygon fill="midnightblue" stroke="midnightblue" points="152.606,-72.2958 143.041,-76.8532 153.36,-79.2551 152.606,-72.2958"/>
</g>
<!-- Node3 -->
<g id="node3" class="node"><title>Node3</title>
<g id="a_node3"><a xlink:href="../../db/d4f/generic__networkhandler_8c.html#aca5593b7dd39d7a7b437999a367102d6" target="_top" xlink:title="Handles data on an established TCP connection, processed connection is given by socket. ">
<polygon fill="none" stroke="black" points="400.5,-99 400.5,-118 528.5,-118 528.5,-99 400.5,-99"/>
<text text-anchor="middle" x="464.5" y="-106" font-family="Helvetica,sans-Serif" font-size="10.00">HandleDataOnTcpSocket</text>
</a>
</g>
</g>
<!-- Node2&#45;&gt;Node3 -->
<g id="edge2" class="edge"><title>Node2&#45;&gt;Node3</title>
<path fill="none" stroke="midnightblue" d="M346.044,-106.777C364.232,-107.044 383.078,-107.32 400.208,-107.572"/>
<polygon fill="midnightblue" stroke="midnightblue" points="346.072,-103.277 336.021,-106.63 345.969,-110.276 346.072,-103.277"/>
</g>
<!-- Node4 -->
<g id="node4" class="node"><title>Node4</title>
<g id="a_node4"><a xlink:href="../../da/dc2/generic__networkhandler_8h.html#a2f01af81d3e5018d9980e2bc28c9078a" target="_top" xlink:title="NetworkHandlerProcessOnce">
<polygon fill="none" stroke="black" points="592,-55 592,-74 738,-74 738,-55 592,-55"/>
<text text-anchor="middle" x="665" y="-62" font-family="Helvetica,sans-Serif" font-size="10.00">NetworkHandlerProcessOnce</text>
</a>
</g>
</g>
<!-- Node3&#45;&gt;Node4 -->
<g id="edge3" class="edge"><title>Node3&#45;&gt;Node4</title>
<path fill="none" stroke="midnightblue" d="M521.837,-96.8593C533.159,-94.4674 544.966,-91.9351 556,-89.5 578.458,-84.5437 603.483,-78.7671 623.784,-74.016"/>
<polygon fill="midnightblue" stroke="midnightblue" points="521.11,-93.4356 512.044,-98.9193 522.551,-100.286 521.11,-93.4356"/>
</g>
<!-- Node5 -->
<g id="node5" class="node"><title>Node5</title>
<g id="a_node5"><a xlink:href="../../d5/dcb/MINGW_2main_8c.html#ad338a7dbc41dc40bcecd0479377ef207" target="_top" xlink:title="main">
<polygon fill="none" stroke="black" points="789,-74 789,-93 827,-93 827,-74 789,-74"/>
<text text-anchor="middle" x="808" y="-81" font-family="Helvetica,sans-Serif" font-size="10.00">main</text>
</a>
</g>
</g>
<!-- Node4&#45;&gt;Node5 -->
<g id="edge4" class="edge"><title>Node4&#45;&gt;Node5</title>
<path fill="none" stroke="midnightblue" d="M746.851,-75.3949C762.712,-77.5322 777.859,-79.5731 788.984,-81.0724"/>
<polygon fill="midnightblue" stroke="midnightblue" points="747.291,-71.9225 736.913,-74.0557 746.356,-78.8598 747.291,-71.9225"/>
</g>
<!-- Node8 -->
<g id="node8" class="node"><title>Node8</title>
<g id="a_node8"><a xlink:href="../../d9/dfb/POSIX_2main_8c.html#acd4e45a35a64f9cb29b59f63492b61d2" target="_top" xlink:title="Signal handler function for ending stack execution. ">
<polygon fill="none" stroke="black" points="774,-36 774,-55 842,-55 842,-36 774,-36"/>
<text text-anchor="middle" x="808" y="-43" font-family="Helvetica,sans-Serif" font-size="10.00">LeaveStack</text>
</a>
</g>
</g>
<!-- Node4&#45;&gt;Node8 -->
<g id="edge7" class="edge"><title>Node4&#45;&gt;Node8</title>
<path fill="none" stroke="midnightblue" d="M746.851,-53.6051C756.328,-52.3281 765.55,-51.0855 773.811,-49.9723"/>
<polygon fill="midnightblue" stroke="midnightblue" points="746.356,-50.1402 736.913,-54.9443 747.291,-57.0775 746.356,-50.1402"/>
</g>
<!-- Node6 -->
<g id="node6" class="node"><title>Node6</title>
<g id="a_node6"><a xlink:href="../../d8/d03/ports_2MINGW_2CMakeLists_8txt.html#a7e00df43a20d627a1732be7766d91097" target="_top" xlink:title="add_library">
<polygon fill="none" stroke="black" points="878,-74 878,-93 942,-93 942,-74 878,-74"/>
<text text-anchor="middle" x="910" y="-81" font-family="Helvetica,sans-Serif" font-size="10.00">add_library</text>
</a>
</g>
</g>
<!-- Node5&#45;&gt;Node6 -->
<g id="edge5" class="edge"><title>Node5&#45;&gt;Node6</title>
<path fill="none" stroke="midnightblue" d="M837.697,-83.5C850.244,-83.5 864.992,-83.5 877.809,-83.5"/>
<polygon fill="midnightblue" stroke="midnightblue" points="837.342,-80.0001 827.342,-83.5 837.342,-87.0001 837.342,-80.0001"/>
</g>
<!-- Node7 -->
<g id="node7" class="node"><title>Node7</title>
<g id="a_node7"><a xlink:href="../../d8/dce/ports_2CMakeLists_8txt.html#a598fae457555a5fb26e18d4cd8f89de9" target="_top" xlink:title="add_subdirectory">
<polygon fill="none" stroke="black" points="978,-74 978,-93 1069,-93 1069,-74 978,-74"/>
<text text-anchor="middle" x="1023.5" y="-81" font-family="Helvetica,sans-Serif" font-size="10.00">add_subdirectory</text>
</a>
</g>
</g>
<!-- Node6&#45;&gt;Node7 -->
<g id="edge6" class="edge"><title>Node6&#45;&gt;Node7</title>
<path fill="none" stroke="midnightblue" d="M952.3,-83.5C960.629,-83.5 969.419,-83.5 977.856,-83.5"/>
<polygon fill="midnightblue" stroke="midnightblue" points="952.059,-80.0001 942.059,-83.5 952.059,-87.0001 952.059,-80.0001"/>
</g>
<!-- Node10 -->
<g id="node10" class="node"><title>Node10</title>
<g id="a_node10"><a xlink:href="../../db/d4f/generic__networkhandler_8c.html#a5cae623dd720f3072dabdb78aa134262" target="_top" xlink:title="Checks and handles incoming messages via UDP broadcast. ">
<polygon fill="none" stroke="black" points="373,-49.5 373,-79.5 556,-79.5 556,-49.5 373,-49.5"/>
<text text-anchor="start" x="381" y="-67.5" font-family="Helvetica,sans-Serif" font-size="10.00">CheckAndHandleUdpGlobalBroadcast</text>
<text text-anchor="middle" x="464.5" y="-56.5" font-family="Helvetica,sans-Serif" font-size="10.00">Socket</text>
</a>
</g>
</g>
<!-- Node9&#45;&gt;Node10 -->
<g id="edge9" class="edge"><title>Node9&#45;&gt;Node10</title>
<path fill="none" stroke="midnightblue" d="M347.354,-64.5C355.753,-64.5 364.279,-64.5 372.7,-64.5"/>
<polygon fill="midnightblue" stroke="midnightblue" points="347.188,-61.0001 337.188,-64.5 347.188,-68.0001 347.188,-61.0001"/>
</g>
<!-- Node11 -->
<g id="node11" class="node"><title>Node11</title>
<g id="a_node11"><a xlink:href="../../db/d4f/generic__networkhandler_8c.html#ace1d8f3907ead0c43c1b5853132d5eb1" target="_top" xlink:title="Checks and processes request received via the UDP unicast socket, currently the implementation is por...">
<polygon fill="none" stroke="black" points="392,-0.5 392,-30.5 537,-30.5 537,-0.5 392,-0.5"/>
<text text-anchor="start" x="400" y="-18.5" font-family="Helvetica,sans-Serif" font-size="10.00">CheckAndHandleUdpUnicast</text>
<text text-anchor="middle" x="464.5" y="-7.5" font-family="Helvetica,sans-Serif" font-size="10.00">Socket</text>
</a>
</g>
</g>
<!-- Node9&#45;&gt;Node11 -->
<g id="edge11" class="edge"><title>Node9&#45;&gt;Node11</title>
<path fill="none" stroke="midnightblue" d="M308.776,-52.5732C336.468,-45.938 371.204,-37.6149 400.744,-30.537"/>
<polygon fill="midnightblue" stroke="midnightblue" points="307.824,-49.2021 298.915,-54.936 309.455,-56.0094 307.824,-49.2021"/>
</g>
<!-- Node10&#45;&gt;Node4 -->
<g id="edge10" class="edge"><title>Node10&#45;&gt;Node4</title>
<path fill="none" stroke="midnightblue" d="M566.156,-64.5C574.783,-64.5 583.396,-64.5 591.735,-64.5"/>
<polygon fill="midnightblue" stroke="midnightblue" points="566.037,-61.0001 556.037,-64.5 566.037,-68.0001 566.037,-61.0001"/>
</g>
<!-- Node11&#45;&gt;Node4 -->
<g id="edge12" class="edge"><title>Node11&#45;&gt;Node4</title>
<path fill="none" stroke="midnightblue" d="M536.412,-33.0048C566.397,-40.4065 600.148,-48.738 625.402,-54.972"/>
<polygon fill="midnightblue" stroke="midnightblue" points="536.953,-29.5333 526.406,-30.5346 535.275,-36.3293 536.953,-29.5333"/>
</g>
</g>
</svg>
