<?xml version="1.0" encoding="UTF-8" standalone="no"?>
<!DOCTYPE svg PUBLIC "-//W3C//DTD SVG 1.1//EN"
 "http://www.w3.org/Graphics/SVG/1.1/DTD/svg11.dtd">
<!-- Generated by graphviz version 2.38.0 (20140413.2041)
 -->
<!-- Title: HandleReceivedInvalidCommand Pages: 1 -->
<svg width="1039pt" height="66pt"
 viewBox="0.00 0.00 1039.00 66.00" xmlns="http://www.w3.org/2000/svg" xmlns:xlink="http://www.w3.org/1999/xlink">
<g id="graph0" class="graph" transform="scale(1 1) rotate(0) translate(4 62)">
<title>HandleReceivedInvalidCommand</title>
<!-- Node1 -->
<g id="node1" class="node"><title>Node1</title>
<polygon fill="#bfbfbf" stroke="black" points="0,-19.5 0,-38.5 162,-38.5 162,-19.5 0,-19.5"/>
<text text-anchor="middle" x="81" y="-26.5" font-family="Helvetica,sans-Serif" font-size="10.00">HandleReceivedInvalidCommand</text>
</g>
<!-- Node2 -->
<g id="node2" class="node"><title>Node2</title>
<g id="a_node2"><a xlink:href="../../d2/dc9/group__CIP__API.html#ga4b8ec8e9b8a1dd71e84f2ea54e1c2b2d" target="_top" xlink:title="Notify the encapsulation layer that an explicit message has been received via TCP. ">
<polygon fill="none" stroke="black" points="198,-19.5 198,-38.5 354,-38.5 354,-19.5 198,-19.5"/>
<text text-anchor="middle" x="276" y="-26.5" font-family="Helvetica,sans-Serif" font-size="10.00">HandleReceivedExplictTcpData</text>
</a>
</g>
</g>
<!-- Node1&#45;&gt;Node2 -->
<g id="edge1" class="edge"><title>Node1&#45;&gt;Node2</title>
<path fill="none" stroke="midnightblue" d="M172.198,-29C180.778,-29 189.425,-29 197.865,-29"/>
<polygon fill="midnightblue" stroke="midnightblue" points="172.173,-25.5001 162.173,-29 172.173,-32.5001 172.173,-25.5001"/>
</g>
<!-- Node3 -->
<g id="node3" class="node"><title>Node3</title>
<g id="a_node3"><a xlink:href="../../d4/d91/group__ENCAP.html#ga7a0dc2be6c485d9e6940d5b20a981022" target="_top" xlink:title="Initialize the encapsulation layer. ">
<polygon fill="none" stroke="black" points="408,-38.5 408,-57.5 500,-57.5 500,-38.5 408,-38.5"/>
<text text-anchor="middle" x="454" y="-45.5" font-family="Helvetica,sans-Serif" font-size="10.00">EncapsulationInit</text>
</a>
</g>
</g>
<!-- Node2&#45;&gt;Node3 -->
<g id="edge2" class="edge"><title>Node2&#45;&gt;Node3</title>
<path fill="none" stroke="midnightblue" d="M364.528,-38.4491C379.487,-40.064 394.465,-41.6808 407.731,-43.113"/>
<polygon fill="midnightblue" stroke="midnightblue" points="364.514,-34.9273 354.196,-37.3337 363.763,-41.8869 364.514,-34.9273"/>
</g>
<!-- Node8 -->
<g id="node8" class="node"><title>Node8</title>
<g id="a_node8"><a xlink:href="../../db/d4f/generic__networkhandler_8c.html#aca5593b7dd39d7a7b437999a367102d6" target="_top" xlink:title="Handles data on an established TCP connection, processed connection is given by socket. ">
<polygon fill="none" stroke="black" points="390,-0.5 390,-19.5 518,-19.5 518,-0.5 390,-0.5"/>
<text text-anchor="middle" x="454" y="-7.5" font-family="Helvetica,sans-Serif" font-size="10.00">HandleDataOnTcpSocket</text>
</a>
</g>
</g>
<!-- Node2&#45;&gt;Node8 -->
<g id="edge7" class="edge"><title>Node2&#45;&gt;Node8</title>
<path fill="none" stroke="midnightblue" d="M364.293,-19.5763C372.914,-18.6456 381.545,-17.7139 389.853,-16.817"/>
<polygon fill="midnightblue" stroke="midnightblue" points="363.763,-16.1131 354.196,-20.6663 364.514,-23.0727 363.763,-16.1131"/>
</g>
<!-- Node4 -->
<g id="node4" class="node"><title>Node4</title>
<g id="a_node4"><a xlink:href="../../d2/dc9/group__CIP__API.html#ga5d4979945d124e28668b264c3823db1c" target="_top" xlink:title="Initialize and setup the CIP&#45;stack. ">
<polygon fill="none" stroke="black" points="591.5,-38.5 591.5,-57.5 662.5,-57.5 662.5,-38.5 591.5,-38.5"/>
<text text-anchor="middle" x="627" y="-45.5" font-family="Helvetica,sans-Serif" font-size="10.00">CipStackInit</text>
</a>
</g>
</g>
<!-- Node3&#45;&gt;Node4 -->
<g id="edge3" class="edge"><title>Node3&#45;&gt;Node4</title>
<path fill="none" stroke="midnightblue" d="M510.682,-48C537.216,-48 568.13,-48 591.267,-48"/>
<polygon fill="midnightblue" stroke="midnightblue" points="510.376,-44.5001 500.376,-48 510.376,-51.5001 510.376,-44.5001"/>
</g>
<!-- Node5 -->
<g id="node5" class="node"><title>Node5</title>
<g id="a_node5"><a xlink:href="../../d5/dcb/MINGW_2main_8c.html#ad338a7dbc41dc40bcecd0479377ef207" target="_top" xlink:title="main">
<polygon fill="none" stroke="black" points="751,-38.5 751,-57.5 789,-57.5 789,-38.5 751,-38.5"/>
<text text-anchor="middle" x="770" y="-45.5" font-family="Helvetica,sans-Serif" font-size="10.00">main</text>
</a>
</g>
</g>
<!-- Node4&#45;&gt;Node5 -->
<g id="edge4" class="edge"><title>Node4&#45;&gt;Node5</title>
<path fill="none" stroke="midnightblue" d="M673.034,-48C699.431,-48 731.332,-48 750.889,-48"/>
<polygon fill="midnightblue" stroke="midnightblue" points="672.854,-44.5001 662.854,-48 672.854,-51.5001 672.854,-44.5001"/>
</g>
<!-- Node6 -->
<g id="node6" class="node"><title>Node6</title>
<g id="a_node6"><a xlink:href="../../d8/d03/ports_2MINGW_2CMakeLists_8txt.html#a7e00df43a20d627a1732be7766d91097" target="_top" xlink:title="add_library">
<polygon fill="none" stroke="black" points="840,-38.5 840,-57.5 904,-57.5 904,-38.5 840,-38.5"/>
<text text-anchor="middle" x="872" y="-45.5" font-family="Helvetica,sans-Serif" font-size="10.00">add_library</text>
</a>
</g>
</g>
<!-- Node5&#45;&gt;Node6 -->
<g id="edge5" class="edge"><title>Node5&#45;&gt;Node6</title>
<path fill="none" stroke="midnightblue" d="M799.697,-48C812.244,-48 826.992,-48 839.809,-48"/>
<polygon fill="midnightblue" stroke="midnightblue" points="799.342,-44.5001 789.342,-48 799.342,-51.5001 799.342,-44.5001"/>
</g>
<!-- Node7 -->
<g id="node7" class="node"><title>Node7</title>
<g id="a_node7"><a xlink:href="../../d8/dce/ports_2CMakeLists_8txt.html#a598fae457555a5fb26e18d4cd8f89de9" target="_top" xlink:title="add_subdirectory">
<polygon fill="none" stroke="black" points="940,-38.5 940,-57.5 1031,-57.5 1031,-38.5 940,-38.5"/>
<text text-anchor="middle" x="985.5" y="-45.5" font-family="Helvetica,sans-Serif" font-size="10.00">add_subdirectory</text>
</a>
</g>
</g>
<!-- Node6&#45;&gt;Node7 -->
<g id="edge6" class="edge"><title>Node6&#45;&gt;Node7</title>
<path fill="none" stroke="midnightblue" d="M914.3,-48C922.629,-48 931.419,-48 939.856,-48"/>
<polygon fill="midnightblue" stroke="midnightblue" points="914.059,-44.5001 904.059,-48 914.059,-51.5001 914.059,-44.5001"/>
</g>
<!-- Node9 -->
<g id="node9" class="node"><title>Node9</title>
<g id="a_node9"><a xlink:href="../../da/dc2/generic__networkhandler_8h.html#a2f01af81d3e5018d9980e2bc28c9078a" target="_top" xlink:title="NetworkHandlerProcessOnce">
<polygon fill="none" stroke="black" points="554,-0.5 554,-19.5 700,-19.5 700,-0.5 554,-0.5"/>
<text text-anchor="middle" x="627" y="-7.5" font-family="Helvetica,sans-Serif" font-size="10.00">NetworkHandlerProcessOnce</text>
</a>
</g>
</g>
<!-- Node8&#45;&gt;Node9 -->
<g id="edge8" class="edge"><title>Node8&#45;&gt;Node9</title>
<path fill="none" stroke="midnightblue" d="M528.379,-10C536.817,-10 545.417,-10 553.839,-10"/>
<polygon fill="midnightblue" stroke="midnightblue" points="528.188,-6.5001 518.188,-10 528.188,-13.5001 528.188,-6.5001"/>
</g>
<!-- Node9&#45;&gt;Node5 -->
<g id="edge9" class="edge"><title>Node9&#45;&gt;Node5</title>
<path fill="none" stroke="midnightblue" d="M674.449,-22.1792C682.952,-24.4312 691.746,-26.7746 700,-29 717.275,-33.6577 736.948,-39.0872 750.855,-42.9465"/>
<polygon fill="midnightblue" stroke="midnightblue" points="675.211,-18.7606 664.648,-19.5901 673.423,-25.5284 675.211,-18.7606"/>
</g>
<!-- Node10 -->
<g id="node10" class="node"><title>Node10</title>
<g id="a_node10"><a xlink:href="../../d9/dfb/POSIX_2main_8c.html#acd4e45a35a64f9cb29b59f63492b61d2" target="_top" xlink:title="Signal handler function for ending stack execution. ">
<polygon fill="none" stroke="black" points="736,-0.5 736,-19.5 804,-19.5 804,-0.5 736,-0.5"/>
<text text-anchor="middle" x="770" y="-7.5" font-family="Helvetica,sans-Serif" font-size="10.00">LeaveStack</text>
</a>
</g>
</g>
<!-- Node9&#45;&gt;Node10 -->
<g id="edge10" class="edge"><title>Node9&#45;&gt;Node10</title>
<path fill="none" stroke="midnightblue" d="M710.332,-10C719.278,-10 727.962,-10 735.786,-10"/>
<polygon fill="midnightblue" stroke="midnightblue" points="710.152,-6.5001 700.152,-10 710.152,-13.5001 710.152,-6.5001"/>
</g>
</g>
</svg>
