<?xml version="1.0" encoding="UTF-8" standalone="no"?>
<!DOCTYPE svg PUBLIC "-//W3C//DTD SVG 1.1//EN"
 "http://www.w3.org/Graphics/SVG/1.1/DTD/svg11.dtd">
<!-- Generated by graphviz version 2.38.0 (20140413.2041)
 -->
<!-- Title: DetermineDelayTime Pages: 1 -->
<!--zoomable 160 -->
<svg id="main" version="1.1" xmlns="http://www.w3.org/2000/svg" xmlns:xlink="http://www.w3.org/1999/xlink" xml:space="preserve" onload="init(evt)">
<style type="text/css"><![CDATA[
.edge:hover path { stroke: red; }
.edge:hover polygon { stroke: red; fill: red; }
]]></style>
<script type="text/javascript"><![CDATA[
var edges = document.getElementsByTagName('g');
if (edges && edges.length) {
  for (var i=0;i<edges.length;i++) {
    if (edges[i].id.substr(0,4)=='edge') {
      edges[i].setAttribute('class','edge');
    }
  }
}
]]></script>
        <defs>
                <circle id="rim" cx="0" cy="0" r="7"/>
                <circle id="rim2" cx="0" cy="0" r="3.5"/>
                <g id="zoomPlus">
                        <use xlink:href="#rim" fill="#404040">
                                <set attributeName="fill" to="#808080" begin="zoomplus.mouseover" end="zoomplus.mouseout"/>
                        </use>
                        <path d="M-4,0h8M0,-4v8" fill="none" stroke="white" stroke-width="1.5" pointer-events="none"/>
                </g>
                <g id="zoomMin">
                        <use xlink:href="#rim" fill="#404040">
                                <set attributeName="fill" to="#808080" begin="zoomminus.mouseover" end="zoomminus.mouseout"/>
                        </use>
                        <path d="M-4,0h8" fill="none" stroke="white" stroke-width="1.5" pointer-events="none"/>
                </g>
                <g id="dirArrow">
                        <path fill="none" stroke="white" stroke-width="1.5" d="M0,-3.0v7 M-2.5,-0.5L0,-3.0L2.5,-0.5"/>
                </g>
               <g id="resetDef">
                       <use xlink:href="#rim2" fill="#404040">
                               <set attributeName="fill" to="#808080" begin="reset.mouseover" end="reset.mouseout"/>
                       </use>
               </g>
        </defs>

<script type="text/javascript">
var viewWidth = 1408;
var viewHeight = 160;
var sectionId = 'dynsection-11';
</script>
<script xlink:href="../../svgpan.js"/>
<svg id="graph" class="graph">
<g id="viewport">
<title>DetermineDelayTime</title>
<!-- Node1 -->
<g id="node1" class="node"><title>Node1</title>
<polygon fill="#bfbfbf" stroke="black" points="0,-50 0,-69 109,-69 109,-50 0,-50"/>
<text text-anchor="middle" x="54.5" y="-57" font-family="Helvetica,sans-Serif" font-size="10.00">DetermineDelayTime</text>
</g>
<!-- Node2 -->
<g id="node2" class="node"><title>Node2</title>
<g id="a_node2"><a xlink:href="../../d2/dbd/encap_8c.html#aa042b74f0d2659164f5c6811e6cb4fda" target="_top" xlink:title="HandleReceivedListIdentity\lCommandUdp">
<polygon fill="none" stroke="black" points="145,-44.5 145,-74.5 282,-74.5 282,-44.5 145,-44.5"/>
<text text-anchor="start" x="153" y="-62.5" font-family="Helvetica,sans-Serif" font-size="10.00">HandleReceivedListIdentity</text>
<text text-anchor="middle" x="213.5" y="-51.5" font-family="Helvetica,sans-Serif" font-size="10.00">CommandUdp</text>
</a>
</g>
</g>
<!-- Node1&#45;&gt;Node2 -->
<g id="edge1" class="edge"><title>Node1&#45;&gt;Node2</title>
<path fill="none" stroke="midnightblue" d="M119.279,-59.5C127.75,-59.5 136.459,-59.5 144.991,-59.5"/>
<polygon fill="midnightblue" stroke="midnightblue" points="119.091,-56.0001 109.091,-59.5 119.091,-63.0001 119.091,-56.0001"/>
</g>
<!-- Node3 -->
<g id="node3" class="node"><title>Node3</title>
<g id="a_node3"><a xlink:href="../../d2/dc9/group__CIP__API.html#gabde366c9e0849b9bca9c1bab7eed34f6" target="_top" xlink:title="Notify the encapsulation layer that an explicit message has been received via UDP. ">
<polygon fill="none" stroke="black" points="318,-50 318,-69 476,-69 476,-50 318,-50"/>
<text text-anchor="middle" x="397" y="-57" font-family="Helvetica,sans-Serif" font-size="10.00">HandleReceivedExplictUdpData</text>
</a>
</g>
</g>
<!-- Node2&#45;&gt;Node3 -->
<g id="edge2" class="edge"><title>Node2&#45;&gt;Node3</title>
<path fill="none" stroke="midnightblue" d="M292.34,-59.5C300.827,-59.5 309.468,-59.5 317.958,-59.5"/>
<polygon fill="midnightblue" stroke="midnightblue" points="292.084,-56.0001 282.084,-59.5 292.084,-63.0001 292.084,-56.0001"/>
</g>
<!-- Node4 -->
<g id="node4" class="node"><title>Node4</title>
<g id="a_node4"><a xlink:href="../../d2/dc9/group__CIP__API.html#ga4b8ec8e9b8a1dd71e84f2ea54e1c2b2d" target="_top" xlink:title="Notify the encapsulation layer that an explicit message has been received via TCP. ">
<polygon fill="none" stroke="black" points="512,-94 512,-113 668,-113 668,-94 512,-94"/>
<text text-anchor="middle" x="590" y="-101" font-family="Helvetica,sans-Serif" font-size="10.00">HandleReceivedExplictTcpData</text>
</a>
</g>
</g>
<!-- Node3&#45;&gt;Node4 -->
<g id="edge3" class="edge"><title>Node3&#45;&gt;Node4</title>
<path fill="none" stroke="midnightblue" d="M449.555,-71.3764C480.322,-78.4642 518.872,-87.3448 547.637,-93.9713"/>
<polygon fill="midnightblue" stroke="midnightblue" points="449.975,-67.8816 439.444,-69.0473 448.403,-74.703 449.975,-67.8816"/>
</g>
<!-- Node13 -->
<g id="node13" class="node"><title>Node13</title>
<g id="a_node13"><a xlink:href="../../db/d4f/generic__networkhandler_8c.html#a5cae623dd720f3072dabdb78aa134262" target="_top" xlink:title="Checks and handles incoming messages via UDP broadcast. ">
<polygon fill="none" stroke="black" points="704,-44.5 704,-74.5 887,-74.5 887,-44.5 704,-44.5"/>
<text text-anchor="start" x="712" y="-62.5" font-family="Helvetica,sans-Serif" font-size="10.00">CheckAndHandleUdpGlobalBroadcast</text>
<text text-anchor="middle" x="795.5" y="-51.5" font-family="Helvetica,sans-Serif" font-size="10.00">Socket</text>
</a>
</g>
</g>
<!-- Node3&#45;&gt;Node13 -->
<g id="edge13" class="edge"><title>Node3&#45;&gt;Node13</title>
<path fill="none" stroke="midnightblue" d="M486.516,-59.5C551.205,-59.5 638.652,-59.5 703.838,-59.5"/>
<polygon fill="midnightblue" stroke="midnightblue" points="486.336,-56.0001 476.336,-59.5 486.336,-63.0001 486.336,-56.0001"/>
</g>
<!-- Node14 -->
<g id="node14" class="node"><title>Node14</title>
<g id="a_node14"><a xlink:href="../../db/d4f/generic__networkhandler_8c.html#ace1d8f3907ead0c43c1b5853132d5eb1" target="_top" xlink:title="Checks and processes request received via the UDP unicast socket, currently the implementation is por...">
<polygon fill="none" stroke="black" points="517.5,-0.5 517.5,-30.5 662.5,-30.5 662.5,-0.5 517.5,-0.5"/>
<text text-anchor="start" x="525.5" y="-18.5" font-family="Helvetica,sans-Serif" font-size="10.00">CheckAndHandleUdpUnicast</text>
<text text-anchor="middle" x="590" y="-7.5" font-family="Helvetica,sans-Serif" font-size="10.00">Socket</text>
</a>
</g>
</g>
<!-- Node3&#45;&gt;Node14 -->
<g id="edge15" class="edge"><title>Node3&#45;&gt;Node14</title>
<path fill="none" stroke="midnightblue" d="M449.28,-47.6868C472.129,-42.4231 499.313,-36.1609 523.603,-30.5654"/>
<polygon fill="midnightblue" stroke="midnightblue" points="448.403,-44.297 439.444,-49.9527 449.975,-51.1184 448.403,-44.297"/>
</g>
<!-- Node5 -->
<g id="node5" class="node"><title>Node5</title>
<g id="a_node5"><a xlink:href="../../d4/d91/group__ENCAP.html#ga7a0dc2be6c485d9e6940d5b20a981022" target="_top" xlink:title="Initialize the encapsulation layer. ">
<polygon fill="none" stroke="black" points="749.5,-132 749.5,-151 841.5,-151 841.5,-132 749.5,-132"/>
<text text-anchor="middle" x="795.5" y="-139" font-family="Helvetica,sans-Serif" font-size="10.00">EncapsulationInit</text>
</a>
</g>
</g>
<!-- Node4&#45;&gt;Node5 -->
<g id="edge4" class="edge"><title>Node4&#45;&gt;Node5</title>
<path fill="none" stroke="midnightblue" d="M652.001,-114.891C683.251,-120.726 720.646,-127.709 749.285,-133.057"/>
<polygon fill="midnightblue" stroke="midnightblue" points="652.562,-111.435 642.089,-113.04 651.277,-118.316 652.562,-111.435"/>
</g>
<!-- Node10 -->
<g id="node10" class="node"><title>Node10</title>
<g id="a_node10"><a xlink:href="../../db/d4f/generic__networkhandler_8c.html#aca5593b7dd39d7a7b437999a367102d6" target="_top" xlink:title="Handles data on an established TCP connection, processed connection is given by socket. ">
<polygon fill="none" stroke="black" points="731.5,-94 731.5,-113 859.5,-113 859.5,-94 731.5,-94"/>
<text text-anchor="middle" x="795.5" y="-101" font-family="Helvetica,sans-Serif" font-size="10.00">HandleDataOnTcpSocket</text>
</a>
</g>
</g>
<!-- Node4&#45;&gt;Node10 -->
<g id="edge9" class="edge"><title>Node4&#45;&gt;Node10</title>
<path fill="none" stroke="midnightblue" d="M678.564,-103.5C696.266,-103.5 714.553,-103.5 731.224,-103.5"/>
<polygon fill="midnightblue" stroke="midnightblue" points="678.225,-100 668.225,-103.5 678.225,-107 678.225,-100"/>
</g>
<!-- Node6 -->
<g id="node6" class="node"><title>Node6</title>
<g id="a_node6"><a xlink:href="../../d2/dc9/group__CIP__API.html#ga5d4979945d124e28668b264c3823db1c" target="_top" xlink:title="Initialize and setup the CIP&#45;stack. ">
<polygon fill="none" stroke="black" points="960.5,-126 960.5,-145 1031.5,-145 1031.5,-126 960.5,-126"/>
<text text-anchor="middle" x="996" y="-133" font-family="Helvetica,sans-Serif" font-size="10.00">CipStackInit</text>
</a>
</g>
</g>
<!-- Node5&#45;&gt;Node6 -->
<g id="edge5" class="edge"><title>Node5&#45;&gt;Node6</title>
<path fill="none" stroke="midnightblue" d="M851.565,-139.836C886.384,-138.783 930.318,-137.455 960.33,-136.548"/>
<polygon fill="midnightblue" stroke="midnightblue" points="851.432,-136.338 841.543,-140.139 851.644,-143.335 851.432,-136.338"/>
</g>
<!-- Node7 -->
<g id="node7" class="node"><title>Node7</title>
<g id="a_node7"><a xlink:href="../../d5/dcb/MINGW_2main_8c.html#ad338a7dbc41dc40bcecd0479377ef207" target="_top" xlink:title="main">
<polygon fill="none" stroke="black" points="1120,-104 1120,-123 1158,-123 1158,-104 1120,-104"/>
<text text-anchor="middle" x="1139" y="-111" font-family="Helvetica,sans-Serif" font-size="10.00">main</text>
</a>
</g>
</g>
<!-- Node6&#45;&gt;Node7 -->
<g id="edge6" class="edge"><title>Node6&#45;&gt;Node7</title>
<path fill="none" stroke="midnightblue" d="M1042.03,-128.473C1068.43,-124.355 1100.33,-119.377 1119.89,-116.326"/>
<polygon fill="midnightblue" stroke="midnightblue" points="1041.19,-125.062 1031.85,-130.062 1042.27,-131.978 1041.19,-125.062"/>
</g>
<!-- Node8 -->
<g id="node8" class="node"><title>Node8</title>
<g id="a_node8"><a xlink:href="../../d8/d03/ports_2MINGW_2CMakeLists_8txt.html#a7e00df43a20d627a1732be7766d91097" target="_top" xlink:title="add_library">
<polygon fill="none" stroke="black" points="1209,-104 1209,-123 1273,-123 1273,-104 1209,-104"/>
<text text-anchor="middle" x="1241" y="-111" font-family="Helvetica,sans-Serif" font-size="10.00">add_library</text>
</a>
</g>
</g>
<!-- Node7&#45;&gt;Node8 -->
<g id="edge7" class="edge"><title>Node7&#45;&gt;Node8</title>
<path fill="none" stroke="midnightblue" d="M1168.7,-113.5C1181.24,-113.5 1195.99,-113.5 1208.81,-113.5"/>
<polygon fill="midnightblue" stroke="midnightblue" points="1168.34,-110 1158.34,-113.5 1168.34,-117 1168.34,-110"/>
</g>
<!-- Node9 -->
<g id="node9" class="node"><title>Node9</title>
<g id="a_node9"><a xlink:href="../../d8/dce/ports_2CMakeLists_8txt.html#a598fae457555a5fb26e18d4cd8f89de9" target="_top" xlink:title="add_subdirectory">
<polygon fill="none" stroke="black" points="1309,-104 1309,-123 1400,-123 1400,-104 1309,-104"/>
<text text-anchor="middle" x="1354.5" y="-111" font-family="Helvetica,sans-Serif" font-size="10.00">add_subdirectory</text>
</a>
</g>
</g>
<!-- Node8&#45;&gt;Node9 -->
<g id="edge8" class="edge"><title>Node8&#45;&gt;Node9</title>
<path fill="none" stroke="midnightblue" d="M1283.3,-113.5C1291.63,-113.5 1300.42,-113.5 1308.86,-113.5"/>
<polygon fill="midnightblue" stroke="midnightblue" points="1283.06,-110 1273.06,-113.5 1283.06,-117 1283.06,-110"/>
</g>
<!-- Node11 -->
<g id="node11" class="node"><title>Node11</title>
<g id="a_node11"><a xlink:href="../../da/dc2/generic__networkhandler_8h.html#a2f01af81d3e5018d9980e2bc28c9078a" target="_top" xlink:title="NetworkHandlerProcessOnce">
<polygon fill="none" stroke="black" points="923,-55 923,-74 1069,-74 1069,-55 923,-55"/>
<text text-anchor="middle" x="996" y="-62" font-family="Helvetica,sans-Serif" font-size="10.00">NetworkHandlerProcessOnce</text>
</a>
</g>
</g>
<!-- Node10&#45;&gt;Node11 -->
<g id="edge10" class="edge"><title>Node10&#45;&gt;Node11</title>
<path fill="none" stroke="midnightblue" d="M855.105,-91.9856C884.233,-86.2627 919.008,-79.4304 946.599,-74.0095"/>
<polygon fill="midnightblue" stroke="midnightblue" points="854.196,-88.5972 845.059,-93.9595 855.546,-95.4659 854.196,-88.5972"/>
</g>
<!-- Node11&#45;&gt;Node7 -->
<g id="edge11" class="edge"><title>Node11&#45;&gt;Node7</title>
<path fill="none" stroke="midnightblue" d="M1034.27,-77.4507C1061.92,-87.0623 1098.43,-99.7491 1119.95,-107.226"/>
<polygon fill="midnightblue" stroke="midnightblue" points="1035.12,-74.0406 1024.52,-74.064 1032.82,-80.6527 1035.12,-74.0406"/>
</g>
<!-- Node12 -->
<g id="node12" class="node"><title>Node12</title>
<g id="a_node12"><a xlink:href="../../d9/dfb/POSIX_2main_8c.html#acd4e45a35a64f9cb29b59f63492b61d2" target="_top" xlink:title="Signal handler function for ending stack execution. ">
<polygon fill="none" stroke="black" points="1105,-55 1105,-74 1173,-74 1173,-55 1105,-55"/>
<text text-anchor="middle" x="1139" y="-62" font-family="Helvetica,sans-Serif" font-size="10.00">LeaveStack</text>
</a>
</g>
</g>
<!-- Node11&#45;&gt;Node12 -->
<g id="edge12" class="edge"><title>Node11&#45;&gt;Node12</title>
<path fill="none" stroke="midnightblue" d="M1079.33,-64.5C1088.28,-64.5 1096.96,-64.5 1104.79,-64.5"/>
<polygon fill="midnightblue" stroke="midnightblue" points="1079.15,-61.0001 1069.15,-64.5 1079.15,-68.0001 1079.15,-61.0001"/>
</g>
<!-- Node13&#45;&gt;Node11 -->
<g id="edge14" class="edge"><title>Node13&#45;&gt;Node11</title>
<path fill="none" stroke="midnightblue" d="M897.156,-62.0354C905.783,-62.2527 914.396,-62.4697 922.735,-62.6797"/>
<polygon fill="midnightblue" stroke="midnightblue" points="897.122,-58.5335 887.037,-61.7805 896.946,-65.5313 897.122,-58.5335"/>
</g>
<!-- Node14&#45;&gt;Node11 -->
<g id="edge16" class="edge"><title>Node14&#45;&gt;Node11</title>
<path fill="none" stroke="midnightblue" d="M672.779,-16.2172C732.506,-17.8383 815.244,-22.3655 887,-34.5 914.63,-39.1725 945.348,-48.0806 966.938,-54.9809"/>
<polygon fill="midnightblue" stroke="midnightblue" points="672.735,-12.7151 662.65,-15.9641 672.56,-19.7129 672.735,-12.7151"/>
</g>
</g>
</svg>
        <g id="navigator" transform="translate(0 0)" fill="#404254">
                <rect fill="#f2f5e9" fill-opacity="0.5" stroke="#606060" stroke-width=".5" x="0" y="0" width="60" height="60"/>
                <use id="zoomplus" xlink:href="#zoomPlus" x="17" y="9" onmousedown="handleZoom(evt,'in')"/>
                <use id="zoomminus" xlink:href="#zoomMin" x="42" y="9" onmousedown="handleZoom(evt,'out')"/>
                <use id="reset" xlink:href="#resetDef" x="30" y="36" onmousedown="handleReset()"/>
                <g id="arrowUp" xlink:href="#dirArrow" transform="translate(30 24)" onmousedown="handlePan(0,-1)">
                  <use xlink:href="#rim" fill="#404040">
                        <set attributeName="fill" to="#808080" begin="arrowUp.mouseover" end="arrowUp.mouseout"/>
                  </use>
                  <path fill="none" stroke="white" stroke-width="1.5" d="M0,-3.0v7 M-2.5,-0.5L0,-3.0L2.5,-0.5"/>
                </g>
                <g id="arrowRight" xlink:href="#dirArrow" transform="rotate(90) translate(36 -43)" onmousedown="handlePan(1,0)">
                  <use xlink:href="#rim" fill="#404040">
                        <set attributeName="fill" to="#808080" begin="arrowRight.mouseover" end="arrowRight.mouseout"/>
                  </use>
                  <path fill="none" stroke="white" stroke-width="1.5" d="M0,-3.0v7 M-2.5,-0.5L0,-3.0L2.5,-0.5"/>
                </g>
                <g id="arrowDown" xlink:href="#dirArrow" transform="rotate(180) translate(-30 -48)" onmousedown="handlePan(0,1)">
                  <use xlink:href="#rim" fill="#404040">
                        <set attributeName="fill" to="#808080" begin="arrowDown.mouseover" end="arrowDown.mouseout"/>
                  </use>
                  <path fill="none" stroke="white" stroke-width="1.5" d="M0,-3.0v7 M-2.5,-0.5L0,-3.0L2.5,-0.5"/>
                </g>
                <g id="arrowLeft" xlink:href="#dirArrow" transform="rotate(270) translate(-36 17)" onmousedown="handlePan(-1,0)">
                  <use xlink:href="#rim" fill="#404040">
                        <set attributeName="fill" to="#808080" begin="arrowLeft.mouseover" end="arrowLeft.mouseout"/>
                  </use>
                  <path fill="none" stroke="white" stroke-width="1.5" d="M0,-3.0v7 M-2.5,-0.5L0,-3.0L2.5,-0.5"/>
                </g>
        </g>
        <svg viewBox="0 0 15 15" width="100%" height="30px" preserveAspectRatio="xMaxYMin meet">
         <g id="arrow_out" transform="scale(0.3 0.3)">
          <a xlink:href="encap_8c_a1e89285abfb378b98cd946a040dd8f5d_icgraph_org.svg" target="_base">
           <rect id="button" ry="5" rx="5" y="6" x="6" height="38" width="38"
                fill="#f2f5e9" fill-opacity="0.5" stroke="#606060" stroke-width="1.0"/>
           <path id="arrow"
             d="M 11.500037,31.436501 C 11.940474,20.09759 22.043105,11.32322 32.158766,21.979434 L 37.068811,17.246167 C 37.068811,17.246167 37.088388,32 37.088388,32 L 22.160133,31.978069 C 22.160133,31.978069 26.997745,27.140456 26.997745,27.140456 C 18.528582,18.264221 13.291696,25.230495 11.500037,31.436501 z"
             style="fill:#404040;"/>
          </a>
         </g>
        </svg>
</svg>
