<?xml version="1.0" encoding="UTF-8" standalone="no"?>
<!DOCTYPE svg PUBLIC "-//W3C//DTD SVG 1.1//EN"
 "http://www.w3.org/Graphics/SVG/1.1/DTD/svg11.dtd">
<!-- Generated by graphviz version 2.38.0 (20140413.2041)
 -->
<!-- Title: HandleReceivedListIdentityCommandTcp Pages: 1 -->
<!--zoomable 253 -->
<svg id="main" version="1.1" xmlns="http://www.w3.org/2000/svg" xmlns:xlink="http://www.w3.org/1999/xlink" xml:space="preserve" onload="init(evt)">
<style type="text/css"><![CDATA[
.edge:hover path { stroke: red; }
.edge:hover polygon { stroke: red; fill: red; }
]]></style>
<script type="text/javascript"><![CDATA[
var edges = document.getElementsByTagName('g');
if (edges && edges.length) {
  for (var i=0;i<edges.length;i++) {
    if (edges[i].id.substr(0,4)=='edge') {
      edges[i].setAttribute('class','edge');
    }
  }
}
]]></script>
        <defs>
                <circle id="rim" cx="0" cy="0" r="7"/>
                <circle id="rim2" cx="0" cy="0" r="3.5"/>
                <g id="zoomPlus">
                        <use xlink:href="#rim" fill="#404040">
                                <set attributeName="fill" to="#808080" begin="zoomplus.mouseover" end="zoomplus.mouseout"/>
                        </use>
                        <path d="M-4,0h8M0,-4v8" fill="none" stroke="white" stroke-width="1.5" pointer-events="none"/>
                </g>
                <g id="zoomMin">
                        <use xlink:href="#rim" fill="#404040">
                                <set attributeName="fill" to="#808080" begin="zoomminus.mouseover" end="zoomminus.mouseout"/>
                        </use>
                        <path d="M-4,0h8" fill="none" stroke="white" stroke-width="1.5" pointer-events="none"/>
                </g>
                <g id="dirArrow">
                        <path fill="none" stroke="white" stroke-width="1.5" d="M0,-3.0v7 M-2.5,-0.5L0,-3.0L2.5,-0.5"/>
                </g>
               <g id="resetDef">
                       <use xlink:href="#rim2" fill="#404040">
                               <set attributeName="fill" to="#808080" begin="reset.mouseover" end="reset.mouseout"/>
                       </use>
               </g>
        </defs>

<script type="text/javascript">
var viewWidth = 868;
var viewHeight = 253;
var sectionId = 'dynsection-24';
</script>
<script xlink:href="../../svgpan.js"/>
<svg id="graph" class="graph">
<g id="viewport">
<title>HandleReceivedListIdentityCommandTcp</title>
<!-- Node1 -->
<g id="node1" class="node"><title>Node1</title>
<polygon fill="#bfbfbf" stroke="black" points="0,-129.5 0,-159.5 137,-159.5 137,-129.5 0,-129.5"/>
<text text-anchor="start" x="8" y="-147.5" font-family="Helvetica,sans-Serif" font-size="10.00">HandleReceivedListIdentity</text>
<text text-anchor="middle" x="68.5" y="-136.5" font-family="Helvetica,sans-Serif" font-size="10.00">CommandTcp</text>
</g>
<!-- Node2 -->
<g id="node2" class="node"><title>Node2</title>
<g id="a_node2"><a xlink:href="../../d2/dbd/encap_8c.html#ae8d8af733e9ac70ea728d6255aced4b6" target="_top" xlink:title="EncapsulateListIdentityResponse\lMessage">
<polygon fill="none" stroke="black" points="173,-129.5 173,-159.5 336,-159.5 336,-129.5 173,-129.5"/>
<text text-anchor="start" x="181" y="-147.5" font-family="Helvetica,sans-Serif" font-size="10.00">EncapsulateListIdentityResponse</text>
<text text-anchor="middle" x="254.5" y="-136.5" font-family="Helvetica,sans-Serif" font-size="10.00">Message</text>
</a>
</g>
</g>
<!-- Node1&#45;&gt;Node2 -->
<g id="edge1" class="edge"><title>Node1&#45;&gt;Node2</title>
<path fill="none" stroke="midnightblue" d="M137.231,-144.5C145.553,-144.5 154.161,-144.5 162.754,-144.5"/>
<polygon fill="midnightblue" stroke="midnightblue" points="162.817,-148 172.817,-144.5 162.817,-141 162.817,-148"/>
</g>
<!-- Node3 -->
<g id="node3" class="node"><title>Node3</title>
<g id="a_node3"><a xlink:href="../../d4/d91/group__ENCAP.html#gae689aac2a85bf49fb356ec94c8800799" target="_top" xlink:title="converts UINT16 data from host to little endian an writes it to buffer. ">
<polygon fill="none" stroke="black" points="760.5,-183 760.5,-202 856.5,-202 856.5,-183 760.5,-183"/>
<text text-anchor="middle" x="808.5" y="-190" font-family="Helvetica,sans-Serif" font-size="10.00">AddIntToMessage</text>
</a>
</g>
</g>
<!-- Node2&#45;&gt;Node3 -->
<g id="edge2" class="edge"><title>Node2&#45;&gt;Node3</title>
<path fill="none" stroke="midnightblue" d="M287.01,-159.529C310.099,-170.033 342.438,-183.701 372,-192.5 521.544,-237.011 568.302,-262.562 721,-230.5 742.604,-225.964 765.4,-215.694 782.164,-206.974"/>
<polygon fill="midnightblue" stroke="midnightblue" points="784.131,-209.89 791.282,-202.073 780.817,-203.724 784.131,-209.89"/>
</g>
<!-- Node4 -->
<g id="node4" class="node"><title>Node4</title>
<g id="a_node4"><a xlink:href="../../d2/dbd/encap_8c.html#a25f80c3d5c2d4edc54d71311acda663b" target="_top" xlink:title="EncodeListIdentityCipIdentityItem">
<polygon fill="none" stroke="black" points="372,-107 372,-126 536,-126 536,-107 372,-107"/>
<text text-anchor="middle" x="454" y="-114" font-family="Helvetica,sans-Serif" font-size="10.00">EncodeListIdentityCipIdentityItem</text>
</a>
</g>
</g>
<!-- Node2&#45;&gt;Node4 -->
<g id="edge3" class="edge"><title>Node2&#45;&gt;Node4</title>
<path fill="none" stroke="midnightblue" d="M336.116,-133.071C349.161,-131.221 362.643,-129.31 375.61,-127.472"/>
<polygon fill="midnightblue" stroke="midnightblue" points="376.47,-130.885 385.88,-126.016 375.488,-123.954 376.47,-130.885"/>
</g>
<!-- Node7 -->
<g id="node7" class="node"><title>Node7</title>
<g id="a_node7"><a xlink:href="../../d2/dbd/encap_8c.html#aa155387b0b3c5fe813c0276e61e28054" target="_top" xlink:title="ListIdentityGetCipIdentity\lItemLength">
<polygon fill="none" stroke="black" points="582.5,-0.5 582.5,-30.5 710.5,-30.5 710.5,-0.5 582.5,-0.5"/>
<text text-anchor="start" x="590.5" y="-18.5" font-family="Helvetica,sans-Serif" font-size="10.00">ListIdentityGetCipIdentity</text>
<text text-anchor="middle" x="646.5" y="-7.5" font-family="Helvetica,sans-Serif" font-size="10.00">ItemLength</text>
</a>
</g>
</g>
<!-- Node2&#45;&gt;Node7 -->
<g id="edge14" class="edge"><title>Node2&#45;&gt;Node7</title>
<path fill="none" stroke="midnightblue" d="M290.356,-129.458C313.339,-119.783 344.217,-107.246 372,-97.5 442.382,-72.8107 524.512,-48.8165 580.266,-33.2293"/>
<polygon fill="midnightblue" stroke="midnightblue" points="581.321,-36.5689 590.015,-30.5143 579.443,-29.8255 581.321,-36.5689"/>
</g>
<!-- Node9 -->
<g id="node9" class="node"><title>Node9</title>
<g id="a_node9"><a xlink:href="../../d2/dbd/encap_8c.html#ad558c3aae69a6ab80034278c108802e9" target="_top" xlink:title="GenerateEncapsulationHeader">
<polygon fill="none" stroke="black" points="572,-202 572,-221 721,-221 721,-202 572,-202"/>
<text text-anchor="middle" x="646.5" y="-209" font-family="Helvetica,sans-Serif" font-size="10.00">GenerateEncapsulationHeader</text>
</a>
</g>
</g>
<!-- Node2&#45;&gt;Node9 -->
<g id="edge11" class="edge"><title>Node2&#45;&gt;Node9</title>
<path fill="none" stroke="midnightblue" d="M336.308,-158.382C408.462,-170.778 512.823,-188.707 579.917,-200.233"/>
<polygon fill="midnightblue" stroke="midnightblue" points="579.498,-203.712 589.946,-201.956 580.683,-196.813 579.498,-203.712"/>
</g>
<!-- Node4&#45;&gt;Node3 -->
<g id="edge5" class="edge"><title>Node4&#45;&gt;Node3</title>
<path fill="none" stroke="midnightblue" d="M480.695,-126.113C504.184,-134.595 540.03,-146.778 572,-154.5 632.007,-168.995 701.978,-179.493 749.964,-185.735"/>
<polygon fill="midnightblue" stroke="midnightblue" points="749.796,-189.242 760.159,-187.04 750.685,-182.299 749.796,-189.242"/>
</g>
<!-- Node5 -->
<g id="node5" class="node"><title>Node5</title>
<g id="a_node5"><a xlink:href="../../d4/d91/group__ENCAP.html#gaafc3c9e3ff582c9b7e438ae2b1fdf822" target="_top" xlink:title="Converts UINT32 data from host to little endian and writes it to buffer. ">
<polygon fill="none" stroke="black" points="757,-88 757,-107 860,-107 860,-88 757,-88"/>
<text text-anchor="middle" x="808.5" y="-95" font-family="Helvetica,sans-Serif" font-size="10.00">AddDintToMessage</text>
</a>
</g>
</g>
<!-- Node4&#45;&gt;Node5 -->
<g id="edge4" class="edge"><title>Node4&#45;&gt;Node5</title>
<path fill="none" stroke="midnightblue" d="M477.348,-106.906C500.518,-97.5206 538.038,-83.8769 572,-78.5 637.408,-68.1445 655.164,-71.3547 721,-78.5 734.642,-79.9806 749.286,-82.7382 762.575,-85.7025"/>
<polygon fill="midnightblue" stroke="midnightblue" points="761.901,-89.139 772.433,-87.9917 763.484,-82.3205 761.901,-89.139"/>
</g>
<!-- Node6 -->
<g id="node6" class="node"><title>Node6</title>
<g id="a_node6"><a xlink:href="../../da/d73/endianconv_8c.html#a2e8bf172dd5ecba3cc0871278ab06538" target="_top" xlink:title="Encapsulate the sockaddr information as necessary for the Common Packet Format data items...">
<polygon fill="none" stroke="black" points="589,-88 589,-107 704,-107 704,-88 589,-88"/>
<text text-anchor="middle" x="646.5" y="-95" font-family="Helvetica,sans-Serif" font-size="10.00">EncapsulateIpAddress</text>
</a>
</g>
</g>
<!-- Node4&#45;&gt;Node6 -->
<g id="edge6" class="edge"><title>Node4&#45;&gt;Node6</title>
<path fill="none" stroke="midnightblue" d="M536.065,-108.415C550.268,-106.998 564.902,-105.539 578.664,-104.166"/>
<polygon fill="midnightblue" stroke="midnightblue" points="579.393,-107.611 588.996,-103.136 578.698,-100.645 579.393,-107.611"/>
</g>
<!-- Node4&#45;&gt;Node7 -->
<g id="edge9" class="edge"><title>Node4&#45;&gt;Node7</title>
<path fill="none" stroke="midnightblue" d="M472.969,-106.904C489.566,-97.8987 514.785,-83.8518 536,-70.5 552.486,-60.1241 554.879,-54.7921 572,-45.5 579.148,-41.6206 586.906,-37.9357 594.612,-34.5617"/>
<polygon fill="midnightblue" stroke="midnightblue" points="596.101,-37.7323 603.943,-30.6083 593.37,-31.2869 596.101,-37.7323"/>
</g>
<!-- Node8 -->
<g id="node8" class="node"><title>Node8</title>
<g id="a_node8"><a xlink:href="../../da/d73/endianconv_8c.html#af4e7ccbb21e333ad15028c531f0384c6" target="_top" xlink:title="MoveMessageNOctets">
<polygon fill="none" stroke="black" points="588,-126 588,-145 705,-145 705,-126 588,-126"/>
<text text-anchor="middle" x="646.5" y="-133" font-family="Helvetica,sans-Serif" font-size="10.00">MoveMessageNOctets</text>
</a>
</g>
</g>
<!-- Node4&#45;&gt;Node8 -->
<g id="edge10" class="edge"><title>Node4&#45;&gt;Node8</title>
<path fill="none" stroke="midnightblue" d="M536.065,-124.585C549.945,-125.97 564.237,-127.395 577.724,-128.74"/>
<polygon fill="midnightblue" stroke="midnightblue" points="577.563,-132.241 587.861,-129.751 578.258,-125.276 577.563,-132.241"/>
</g>
<!-- Node6&#45;&gt;Node3 -->
<g id="edge7" class="edge"><title>Node6&#45;&gt;Node3</title>
<path fill="none" stroke="midnightblue" d="M697.713,-107.109C705.743,-109.591 713.778,-112.677 721,-116.5 749.543,-131.612 776.511,-157.92 792.524,-175.273"/>
<polygon fill="midnightblue" stroke="midnightblue" points="790.172,-177.892 799.463,-182.984 795.376,-173.209 790.172,-177.892"/>
</g>
<!-- Node6&#45;&gt;Node5 -->
<g id="edge8" class="edge"><title>Node6&#45;&gt;Node5</title>
<path fill="none" stroke="midnightblue" d="M704.361,-97.5C718.032,-97.5 732.689,-97.5 746.539,-97.5"/>
<polygon fill="midnightblue" stroke="midnightblue" points="746.942,-101 756.942,-97.5 746.942,-94.0001 746.942,-101"/>
</g>
<!-- Node9&#45;&gt;Node3 -->
<g id="edge13" class="edge"><title>Node9&#45;&gt;Node3</title>
<path fill="none" stroke="midnightblue" d="M721.411,-202.723C731.153,-201.566 741.015,-200.395 750.416,-199.279"/>
<polygon fill="midnightblue" stroke="midnightblue" points="750.892,-202.747 760.409,-198.092 750.066,-195.796 750.892,-202.747"/>
</g>
<!-- Node9&#45;&gt;Node5 -->
<g id="edge12" class="edge"><title>Node9&#45;&gt;Node5</title>
<path fill="none" stroke="midnightblue" d="M660.866,-201.977C688.444,-182.327 751.884,-137.127 785.563,-113.13"/>
<polygon fill="midnightblue" stroke="midnightblue" points="787.719,-115.891 793.833,-107.238 783.657,-110.19 787.719,-115.891"/>
</g>
</g>
</svg>
        <g id="navigator" transform="translate(0 0)" fill="#404254">
                <rect fill="#f2f5e9" fill-opacity="0.5" stroke="#606060" stroke-width=".5" x="0" y="0" width="60" height="60"/>
                <use id="zoomplus" xlink:href="#zoomPlus" x="17" y="9" onmousedown="handleZoom(evt,'in')"/>
                <use id="zoomminus" xlink:href="#zoomMin" x="42" y="9" onmousedown="handleZoom(evt,'out')"/>
                <use id="reset" xlink:href="#resetDef" x="30" y="36" onmousedown="handleReset()"/>
                <g id="arrowUp" xlink:href="#dirArrow" transform="translate(30 24)" onmousedown="handlePan(0,-1)">
                  <use xlink:href="#rim" fill="#404040">
                        <set attributeName="fill" to="#808080" begin="arrowUp.mouseover" end="arrowUp.mouseout"/>
                  </use>
                  <path fill="none" stroke="white" stroke-width="1.5" d="M0,-3.0v7 M-2.5,-0.5L0,-3.0L2.5,-0.5"/>
                </g>
                <g id="arrowRight" xlink:href="#dirArrow" transform="rotate(90) translate(36 -43)" onmousedown="handlePan(1,0)">
                  <use xlink:href="#rim" fill="#404040">
                        <set attributeName="fill" to="#808080" begin="arrowRight.mouseover" end="arrowRight.mouseout"/>
                  </use>
                  <path fill="none" stroke="white" stroke-width="1.5" d="M0,-3.0v7 M-2.5,-0.5L0,-3.0L2.5,-0.5"/>
                </g>
                <g id="arrowDown" xlink:href="#dirArrow" transform="rotate(180) translate(-30 -48)" onmousedown="handlePan(0,1)">
                  <use xlink:href="#rim" fill="#404040">
                        <set attributeName="fill" to="#808080" begin="arrowDown.mouseover" end="arrowDown.mouseout"/>
                  </use>
                  <path fill="none" stroke="white" stroke-width="1.5" d="M0,-3.0v7 M-2.5,-0.5L0,-3.0L2.5,-0.5"/>
                </g>
                <g id="arrowLeft" xlink:href="#dirArrow" transform="rotate(270) translate(-36 17)" onmousedown="handlePan(-1,0)">
                  <use xlink:href="#rim" fill="#404040">
                        <set attributeName="fill" to="#808080" begin="arrowLeft.mouseover" end="arrowLeft.mouseout"/>
                  </use>
                  <path fill="none" stroke="white" stroke-width="1.5" d="M0,-3.0v7 M-2.5,-0.5L0,-3.0L2.5,-0.5"/>
                </g>
        </g>
        <svg viewBox="0 0 15 15" width="100%" height="30px" preserveAspectRatio="xMaxYMin meet">
         <g id="arrow_out" transform="scale(0.3 0.3)">
          <a xlink:href="encap_8c_ae4d21e6254396c9cb1b5716b054e57de_cgraph_org.svg" target="_base">
           <rect id="button" ry="5" rx="5" y="6" x="6" height="38" width="38"
                fill="#f2f5e9" fill-opacity="0.5" stroke="#606060" stroke-width="1.0"/>
           <path id="arrow"
             d="M 11.500037,31.436501 C 11.940474,20.09759 22.043105,11.32322 32.158766,21.979434 L 37.068811,17.246167 C 37.068811,17.246167 37.088388,32 37.088388,32 L 22.160133,31.978069 C 22.160133,31.978069 26.997745,27.140456 26.997745,27.140456 C 18.528582,18.264221 13.291696,25.230495 11.500037,31.436501 z"
             style="fill:#404040;"/>
          </a>
         </g>
        </svg>
</svg>
