<?xml version="1.0" encoding="UTF-8" standalone="no"?>
<!DOCTYPE svg PUBLIC "-//W3C//DTD SVG 1.1//EN"
 "http://www.w3.org/Graphics/SVG/1.1/DTD/svg11.dtd">
<!-- Generated by graphviz version 2.38.0 (20140413.2041)
 -->
<!-- Title: EncapsulateRegisterSessionCommandResponseMessage Pages: 1 -->
<svg width="1220pt" height="66pt"
 viewBox="0.00 0.00 1220.00 66.00" xmlns="http://www.w3.org/2000/svg" xmlns:xlink="http://www.w3.org/1999/xlink">
<g id="graph0" class="graph" transform="scale(1 1) rotate(0) translate(4 62)">
<title>EncapsulateRegisterSessionCommandResponseMessage</title>
<!-- Node1 -->
<g id="node1" class="node"><title>Node1</title>
<polygon fill="#bfbfbf" stroke="black" points="0,-14 0,-44 146,-44 146,-14 0,-14"/>
<text text-anchor="start" x="8" y="-32" font-family="Helvetica,sans-Serif" font-size="10.00">EncapsulateRegisterSession</text>
<text text-anchor="middle" x="73" y="-21" font-family="Helvetica,sans-Serif" font-size="10.00">CommandResponseMessage</text>
</g>
<!-- Node2 -->
<g id="node2" class="node"><title>Node2</title>
<g id="a_node2"><a xlink:href="../../d7/df9/encap_8h.html#a6007bf2e4bd1e9b0447efc3d9937087b" target="_top" xlink:title="HandleReceivedRegisterSession\lCommand">
<polygon fill="none" stroke="black" points="182,-14 182,-44 343,-44 343,-14 182,-14"/>
<text text-anchor="start" x="190" y="-32" font-family="Helvetica,sans-Serif" font-size="10.00">HandleReceivedRegisterSession</text>
<text text-anchor="middle" x="262.5" y="-21" font-family="Helvetica,sans-Serif" font-size="10.00">Command</text>
</a>
</g>
</g>
<!-- Node1&#45;&gt;Node2 -->
<g id="edge1" class="edge"><title>Node1&#45;&gt;Node2</title>
<path fill="none" stroke="midnightblue" d="M156.432,-29C164.867,-29 173.426,-29 181.83,-29"/>
<polygon fill="midnightblue" stroke="midnightblue" points="156.224,-25.5001 146.224,-29 156.224,-32.5001 156.224,-25.5001"/>
</g>
<!-- Node3 -->
<g id="node3" class="node"><title>Node3</title>
<g id="a_node3"><a xlink:href="../../d2/dc9/group__CIP__API.html#ga16eaeeb12ba23b5a75c8e5902a33d70a" target="_top" xlink:title="Notify the encapsulation layer that an explicit message has been received via TCP. ">
<polygon fill="none" stroke="black" points="379,-19.5 379,-38.5 535,-38.5 535,-19.5 379,-19.5"/>
<text text-anchor="middle" x="457" y="-26.5" font-family="Helvetica,sans-Serif" font-size="10.00">HandleReceivedExplictTcpData</text>
</a>
</g>
</g>
<!-- Node2&#45;&gt;Node3 -->
<g id="edge2" class="edge"><title>Node2&#45;&gt;Node3</title>
<path fill="none" stroke="midnightblue" d="M353.2,-29C361.772,-29 370.413,-29 378.85,-29"/>
<polygon fill="midnightblue" stroke="midnightblue" points="353.187,-25.5001 343.187,-29 353.187,-32.5001 353.187,-25.5001"/>
</g>
<!-- Node4 -->
<g id="node4" class="node"><title>Node4</title>
<g id="a_node4"><a xlink:href="../../db/d4f/generic__networkhandler_8c.html#aca5593b7dd39d7a7b437999a367102d6" target="_top" xlink:title="Handles data on an established TCP connection, processed connection is given by socket. ">
<polygon fill="none" stroke="black" points="571,-19.5 571,-38.5 699,-38.5 699,-19.5 571,-19.5"/>
<text text-anchor="middle" x="635" y="-26.5" font-family="Helvetica,sans-Serif" font-size="10.00">HandleDataOnTcpSocket</text>
</a>
</g>
</g>
<!-- Node3&#45;&gt;Node4 -->
<g id="edge3" class="edge"><title>Node3&#45;&gt;Node4</title>
<path fill="none" stroke="midnightblue" d="M545.293,-29C553.914,-29 562.545,-29 570.853,-29"/>
<polygon fill="midnightblue" stroke="midnightblue" points="545.196,-25.5001 535.196,-29 545.196,-32.5001 545.196,-25.5001"/>
</g>
<!-- Node5 -->
<g id="node5" class="node"><title>Node5</title>
<g id="a_node5"><a xlink:href="../../da/dc2/generic__networkhandler_8h.html#a2f01af81d3e5018d9980e2bc28c9078a" target="_top" xlink:title="NetworkHandlerProcessOnce">
<polygon fill="none" stroke="black" points="735,-19.5 735,-38.5 881,-38.5 881,-19.5 735,-19.5"/>
<text text-anchor="middle" x="808" y="-26.5" font-family="Helvetica,sans-Serif" font-size="10.00">NetworkHandlerProcessOnce</text>
</a>
</g>
</g>
<!-- Node4&#45;&gt;Node5 -->
<g id="edge4" class="edge"><title>Node4&#45;&gt;Node5</title>
<path fill="none" stroke="midnightblue" d="M709.379,-29C717.817,-29 726.417,-29 734.839,-29"/>
<polygon fill="midnightblue" stroke="midnightblue" points="709.188,-25.5001 699.188,-29 709.188,-32.5001 709.188,-25.5001"/>
</g>
<!-- Node6 -->
<g id="node6" class="node"><title>Node6</title>
<g id="a_node6"><a xlink:href="../../d5/dcb/MINGW_2main_8c.html#ad338a7dbc41dc40bcecd0479377ef207" target="_top" xlink:title="main">
<polygon fill="none" stroke="black" points="932,-38.5 932,-57.5 970,-57.5 970,-38.5 932,-38.5"/>
<text text-anchor="middle" x="951" y="-45.5" font-family="Helvetica,sans-Serif" font-size="10.00">main</text>
</a>
</g>
</g>
<!-- Node5&#45;&gt;Node6 -->
<g id="edge5" class="edge"><title>Node5&#45;&gt;Node6</title>
<path fill="none" stroke="midnightblue" d="M889.851,-39.8949C905.712,-42.0322 920.859,-44.0731 931.984,-45.5724"/>
<polygon fill="midnightblue" stroke="midnightblue" points="890.291,-36.4225 879.913,-38.5557 889.356,-43.3598 890.291,-36.4225"/>
</g>
<!-- Node9 -->
<g id="node9" class="node"><title>Node9</title>
<g id="a_node9"><a xlink:href="../../d9/dfb/POSIX_2main_8c.html#acd4e45a35a64f9cb29b59f63492b61d2" target="_top" xlink:title="Signal handler function for ending stack execution. ">
<polygon fill="none" stroke="black" points="917,-0.5 917,-19.5 985,-19.5 985,-0.5 917,-0.5"/>
<text text-anchor="middle" x="951" y="-7.5" font-family="Helvetica,sans-Serif" font-size="10.00">LeaveStack</text>
</a>
</g>
</g>
<!-- Node5&#45;&gt;Node9 -->
<g id="edge8" class="edge"><title>Node5&#45;&gt;Node9</title>
<path fill="none" stroke="midnightblue" d="M889.851,-18.1051C899.328,-16.8281 908.55,-15.5855 916.811,-14.4723"/>
<polygon fill="midnightblue" stroke="midnightblue" points="889.356,-14.6402 879.913,-19.4443 890.291,-21.5775 889.356,-14.6402"/>
</g>
<!-- Node7 -->
<g id="node7" class="node"><title>Node7</title>
<g id="a_node7"><a xlink:href="../../d8/d03/ports_2MINGW_2CMakeLists_8txt.html#a7e00df43a20d627a1732be7766d91097" target="_top" xlink:title="add_library">
<polygon fill="none" stroke="black" points="1021,-38.5 1021,-57.5 1085,-57.5 1085,-38.5 1021,-38.5"/>
<text text-anchor="middle" x="1053" y="-45.5" font-family="Helvetica,sans-Serif" font-size="10.00">add_library</text>
</a>
</g>
</g>
<!-- Node6&#45;&gt;Node7 -->
<g id="edge6" class="edge"><title>Node6&#45;&gt;Node7</title>
<path fill="none" stroke="midnightblue" d="M980.697,-48C993.244,-48 1007.99,-48 1020.81,-48"/>
<polygon fill="midnightblue" stroke="midnightblue" points="980.342,-44.5001 970.342,-48 980.342,-51.5001 980.342,-44.5001"/>
</g>
<!-- Node8 -->
<g id="node8" class="node"><title>Node8</title>
<g id="a_node8"><a xlink:href="../../d8/dce/ports_2CMakeLists_8txt.html#a598fae457555a5fb26e18d4cd8f89de9" target="_top" xlink:title="add_subdirectory">
<polygon fill="none" stroke="black" points="1121,-38.5 1121,-57.5 1212,-57.5 1212,-38.5 1121,-38.5"/>
<text text-anchor="middle" x="1166.5" y="-45.5" font-family="Helvetica,sans-Serif" font-size="10.00">add_subdirectory</text>
</a>
</g>
</g>
<!-- Node7&#45;&gt;Node8 -->
<g id="edge7" class="edge"><title>Node7&#45;&gt;Node8</title>
<path fill="none" stroke="midnightblue" d="M1095.3,-48C1103.63,-48 1112.42,-48 1120.86,-48"/>
<polygon fill="midnightblue" stroke="midnightblue" points="1095.06,-44.5001 1085.06,-48 1095.06,-51.5001 1095.06,-44.5001"/>
</g>
</g>
</svg>
