<?xml version="1.0" encoding="UTF-8" standalone="no"?>
<!DOCTYPE svg PUBLIC "-//W3C//DTD SVG 1.1//EN"
 "http://www.w3.org/Graphics/SVG/1.1/DTD/svg11.dtd">
<!-- Generated by graphviz version 2.38.0 (20140413.2041)
 -->
<!-- Title: RemoveSession Pages: 1 -->
<svg width="471pt" height="39pt"
 viewBox="0.00 0.00 471.00 39.00" xmlns="http://www.w3.org/2000/svg" xmlns:xlink="http://www.w3.org/1999/xlink">
<g id="graph0" class="graph" transform="scale(1 1) rotate(0) translate(4 35)">
<title>RemoveSession</title>
<!-- Node1 -->
<g id="node1" class="node"><title>Node1</title>
<polygon fill="#bfbfbf" stroke="black" points="0,-6 0,-25 89,-25 89,-6 0,-6"/>
<text text-anchor="middle" x="44.5" y="-13" font-family="Helvetica,sans-Serif" font-size="10.00">RemoveSession</text>
</g>
<!-- Node2 -->
<g id="node2" class="node"><title>Node2</title>
<g id="a_node2"><a xlink:href="../../d2/dbd/encap_8c.html#aef8228e92ac17473e762d8144daca74e" target="_top" xlink:title="CloseClass3ConnectionBased\lOnSession">
<polygon fill="none" stroke="black" points="125,-0.5 125,-30.5 275,-30.5 275,-0.5 125,-0.5"/>
<text text-anchor="start" x="133" y="-18.5" font-family="Helvetica,sans-Serif" font-size="10.00">CloseClass3ConnectionBased</text>
<text text-anchor="middle" x="200" y="-7.5" font-family="Helvetica,sans-Serif" font-size="10.00">OnSession</text>
</a>
</g>
</g>
<!-- Node1&#45;&gt;Node2 -->
<g id="edge1" class="edge"><title>Node1&#45;&gt;Node2</title>
<path fill="none" stroke="midnightblue" d="M89.0763,-15.5C97.1906,-15.5 105.918,-15.5 114.779,-15.5"/>
<polygon fill="midnightblue" stroke="midnightblue" points="114.814,-19.0001 124.814,-15.5 114.814,-12.0001 114.814,-19.0001"/>
</g>
<!-- Node3 -->
<g id="node3" class="node"><title>Node3</title>
<g id="a_node3"><a xlink:href="../../df/d91/cipconnectionobject_8c.html#a0f3d8e6f21712dbef3fb2e1da42f35ba" target="_top" xlink:title="ConnectionObjectGetTransport\lClassTriggerTransportClass">
<polygon fill="none" stroke="black" points="311,-0.5 311,-30.5 463,-30.5 463,-0.5 311,-0.5"/>
<text text-anchor="start" x="319" y="-18.5" font-family="Helvetica,sans-Serif" font-size="10.00">ConnectionObjectGetTransport</text>
<text text-anchor="middle" x="387" y="-7.5" font-family="Helvetica,sans-Serif" font-size="10.00">ClassTriggerTransportClass</text>
</a>
</g>
</g>
<!-- Node2&#45;&gt;Node3 -->
<g id="edge2" class="edge"><title>Node2&#45;&gt;Node3</title>
<path fill="none" stroke="midnightblue" d="M275.181,-15.5C283.634,-15.5 292.3,-15.5 300.881,-15.5"/>
<polygon fill="midnightblue" stroke="midnightblue" points="300.897,-19.0001 310.897,-15.5 300.897,-12.0001 300.897,-19.0001"/>
</g>
</g>
</svg>
