<?xml version="1.0" encoding="UTF-8" standalone="no"?>
<!DOCTYPE svg PUBLIC "-//W3C//DTD SVG 1.1//EN"
 "http://www.w3.org/Graphics/SVG/1.1/DTD/svg11.dtd">
<!-- Generated by graphviz version 2.38.0 (20140413.2041)
 -->
<!-- Title: GetPriorityForSocket Pages: 1 -->
<svg width="1529pt" height="190pt"
 viewBox="0.00 0.00 1529.00 189.50" xmlns="http://www.w3.org/2000/svg" xmlns:xlink="http://www.w3.org/1999/xlink">
<g id="graph0" class="graph" transform="scale(1 1) rotate(0) translate(4 185.5)">
<title>GetPriorityForSocket</title>
<!-- Node1 -->
<g id="node1" class="node"><title>Node1</title>
<polygon fill="#bfbfbf" stroke="black" points="0,-44.5 0,-63.5 108,-63.5 108,-44.5 0,-44.5"/>
<text text-anchor="middle" x="54" y="-51.5" font-family="Helvetica,sans-Serif" font-size="10.00">GetPriorityForSocket</text>
</g>
<!-- Node2 -->
<g id="node2" class="node"><title>Node2</title>
<g id="a_node2"><a xlink:href="../../d5/dc5/group__CIP__CALLBACK__API.html#ga5807bcc51621775c9aedbf58d3a7a6d3" target="_top" xlink:title="create a new UDP socket for the connection manager ">
<polygon fill="none" stroke="black" points="144,-90.5 144,-109.5 239,-109.5 239,-90.5 144,-90.5"/>
<text text-anchor="middle" x="191.5" y="-97.5" font-family="Helvetica,sans-Serif" font-size="10.00">CreateUdpSocket</text>
</a>
</g>
</g>
<!-- Node1&#45;&gt;Node2 -->
<g id="edge1" class="edge"><title>Node1&#45;&gt;Node2</title>
<path fill="none" stroke="midnightblue" d="M92.8058,-66.8344C114.896,-74.3336 142.302,-83.6377 162.46,-90.481"/>
<polygon fill="midnightblue" stroke="midnightblue" points="93.6701,-63.4317 83.0757,-63.5312 91.4198,-70.0602 93.6701,-63.4317"/>
</g>
<!-- Node14 -->
<g id="node14" class="node"><title>Node14</title>
<g id="a_node14"><a xlink:href="../../da/dc2/generic__networkhandler_8h.html#aa49065f73f4d0f0ab04fb0b35d791e5d" target="_top" xlink:title="The platform independent part of network handler initialization routine. ">
<polygon fill="none" stroke="black" points="673,-0.5 673,-19.5 796,-19.5 796,-0.5 673,-0.5"/>
<text text-anchor="middle" x="734.5" y="-7.5" font-family="Helvetica,sans-Serif" font-size="10.00">NetworkHandlerInitialize</text>
</a>
</g>
</g>
<!-- Node1&#45;&gt;Node14 -->
<g id="edge16" class="edge"><title>Node1&#45;&gt;Node14</title>
<path fill="none" stroke="midnightblue" d="M118.321,-49.5265C196.495,-44.0397 333.523,-34.5395 451,-27 527.491,-22.0909 615.662,-16.852 672.873,-13.5082"/>
<polygon fill="midnightblue" stroke="midnightblue" points="117.884,-46.0485 108.154,-50.2407 118.375,-53.0312 117.884,-46.0485"/>
</g>
<!-- Node3 -->
<g id="node3" class="node"><title>Node3</title>
<g id="a_node3"><a xlink:href="../../df/d03/cipioconnection_8c.html#add645b42730b2cea369523949c6b9745" target="_top" xlink:title="Open a Point2Point connection dependent on pa_direction. ">
<polygon fill="none" stroke="black" points="464.5,-151 464.5,-181 610.5,-181 610.5,-151 464.5,-151"/>
<text text-anchor="start" x="472.5" y="-169" font-family="Helvetica,sans-Serif" font-size="10.00">OpenConsumingPointToPoint</text>
<text text-anchor="middle" x="537.5" y="-158" font-family="Helvetica,sans-Serif" font-size="10.00">Connection</text>
</a>
</g>
</g>
<!-- Node2&#45;&gt;Node3 -->
<g id="edge2" class="edge"><title>Node2&#45;&gt;Node3</title>
<path fill="none" stroke="midnightblue" d="M213.991,-115.41C229.993,-126.004 252.817,-139.32 275,-146 337.018,-164.675 410.855,-168.771 464.228,-168.724"/>
<polygon fill="midnightblue" stroke="midnightblue" points="215.647,-112.303 205.414,-109.558 211.702,-118.086 215.647,-112.303"/>
</g>
<!-- Node11 -->
<g id="node11" class="node"><title>Node11</title>
<g id="a_node11"><a xlink:href="../../df/d03/cipioconnection_8c.html#aa3b58fd216ec6712abc29ef84b33006d" target="_top" xlink:title="OpenProducingPointToPoint\lConnection">
<polygon fill="none" stroke="black" points="275,-107 275,-137 415,-137 415,-107 275,-107"/>
<text text-anchor="start" x="283" y="-125" font-family="Helvetica,sans-Serif" font-size="10.00">OpenProducingPointToPoint</text>
<text text-anchor="middle" x="345" y="-114" font-family="Helvetica,sans-Serif" font-size="10.00">Connection</text>
</a>
</g>
</g>
<!-- Node2&#45;&gt;Node11 -->
<g id="edge10" class="edge"><title>Node2&#45;&gt;Node11</title>
<path fill="none" stroke="midnightblue" d="M249.217,-108.236C257.597,-109.453 266.309,-110.718 274.905,-111.966"/>
<polygon fill="midnightblue" stroke="midnightblue" points="249.59,-104.754 239.191,-106.78 248.584,-111.681 249.59,-104.754"/>
</g>
<!-- Node12 -->
<g id="node12" class="node"><title>Node12</title>
<g id="a_node12"><a xlink:href="../../df/d03/cipioconnection_8c.html#a9e2ce4666173987646cf60ce3422d7b4" target="_top" xlink:title="Open a Multicast connection dependent on direction. ">
<polygon fill="none" stroke="black" points="280.5,-68.5 280.5,-87.5 409.5,-87.5 409.5,-68.5 280.5,-68.5"/>
<text text-anchor="middle" x="345" y="-75.5" font-family="Helvetica,sans-Serif" font-size="10.00">OpenMulticastConnection</text>
</a>
</g>
</g>
<!-- Node2&#45;&gt;Node12 -->
<g id="edge12" class="edge"><title>Node2&#45;&gt;Node12</title>
<path fill="none" stroke="midnightblue" d="M249.196,-91.7669C259.395,-90.2858 270.088,-88.7332 280.465,-87.2261"/>
<polygon fill="midnightblue" stroke="midnightblue" points="248.584,-88.3189 239.191,-93.2198 249.59,-95.2463 248.584,-88.3189"/>
</g>
<!-- Node4 -->
<g id="node4" class="node"><title>Node4</title>
<g id="a_node4"><a xlink:href="../../de/d45/cipioconnection_8h.html#a53b85bce88b582414fc282c95f5626f4" target="_top" xlink:title="Take the data given in the connection object structure and open the necessary communication channels...">
<polygon fill="none" stroke="black" points="660,-74.5 660,-93.5 809,-93.5 809,-74.5 660,-74.5"/>
<text text-anchor="middle" x="734.5" y="-81.5" font-family="Helvetica,sans-Serif" font-size="10.00">OpenCommunicationChannels</text>
</a>
</g>
</g>
<!-- Node3&#45;&gt;Node4 -->
<g id="edge3" class="edge"><title>Node3&#45;&gt;Node4</title>
<path fill="none" stroke="midnightblue" d="M594.047,-147.472C604.087,-143.851 614.409,-139.947 624,-136 656.501,-122.625 693.196,-104.571 714.783,-93.6352"/>
<polygon fill="midnightblue" stroke="midnightblue" points="592.792,-144.203 584.541,-150.849 595.135,-150.799 592.792,-144.203"/>
</g>
<!-- Node5 -->
<g id="node5" class="node"><title>Node5</title>
<g id="a_node5"><a xlink:href="../../de/d45/cipioconnection_8h.html#a43e270b3f9b9f6296b12285c320c95aa" target="_top" xlink:title="Setup all data in order to establish an IO connection. ">
<polygon fill="none" stroke="black" points="845,-55.5 845,-74.5 960,-74.5 960,-55.5 845,-55.5"/>
<text text-anchor="middle" x="902.5" y="-62.5" font-family="Helvetica,sans-Serif" font-size="10.00">EstablishIoConnection</text>
</a>
</g>
</g>
<!-- Node4&#45;&gt;Node5 -->
<g id="edge4" class="edge"><title>Node4&#45;&gt;Node5</title>
<path fill="none" stroke="midnightblue" d="M819.398,-74.3972C828.034,-73.4088 836.657,-72.4218 844.893,-71.4792"/>
<polygon fill="midnightblue" stroke="midnightblue" points="818.814,-70.9411 809.277,-75.5557 819.61,-77.8957 818.814,-70.9411"/>
</g>
<!-- Node6 -->
<g id="node6" class="node"><title>Node6</title>
<g id="a_node6"><a xlink:href="../../d2/da3/cipconnectionmanager_8h.html#a5ab0de6894d23e8fe84a6b46797c2212" target="_top" xlink:title="Initialize the data of the connection manager object. ">
<polygon fill="none" stroke="black" points="996,-46.5 996,-65.5 1113,-65.5 1113,-46.5 996,-46.5"/>
<text text-anchor="middle" x="1054.5" y="-53.5" font-family="Helvetica,sans-Serif" font-size="10.00">ConnectionManagerInit</text>
</a>
</g>
</g>
<!-- Node5&#45;&gt;Node6 -->
<g id="edge5" class="edge"><title>Node5&#45;&gt;Node6</title>
<path fill="none" stroke="midnightblue" d="M970.408,-60.9855C978.85,-60.479 987.43,-59.9642 995.714,-59.4672"/>
<polygon fill="midnightblue" stroke="midnightblue" points="969.981,-57.5048 960.209,-61.5975 970.4,-64.4922 969.981,-57.5048"/>
</g>
<!-- Node7 -->
<g id="node7" class="node"><title>Node7</title>
<g id="a_node7"><a xlink:href="../../d2/dc9/group__CIP__API.html#ga5d4979945d124e28668b264c3823db1c" target="_top" xlink:title="Initialize and setup the CIP&#45;stack. ">
<polygon fill="none" stroke="black" points="1149,-41.5 1149,-60.5 1220,-60.5 1220,-41.5 1149,-41.5"/>
<text text-anchor="middle" x="1184.5" y="-48.5" font-family="Helvetica,sans-Serif" font-size="10.00">CipStackInit</text>
</a>
</g>
</g>
<!-- Node6&#45;&gt;Node7 -->
<g id="edge6" class="edge"><title>Node6&#45;&gt;Node7</title>
<path fill="none" stroke="midnightblue" d="M1123.18,-53.3561C1132.08,-53.0086 1140.88,-52.6648 1148.9,-52.3516"/>
<polygon fill="midnightblue" stroke="midnightblue" points="1122.99,-49.8609 1113.13,-53.7487 1123.26,-56.8556 1122.99,-49.8609"/>
</g>
<!-- Node8 -->
<g id="node8" class="node"><title>Node8</title>
<g id="a_node8"><a xlink:href="../../d5/dcb/MINGW_2main_8c.html#ad338a7dbc41dc40bcecd0479377ef207" target="_top" xlink:title="main">
<polygon fill="none" stroke="black" points="1256,-21.5 1256,-40.5 1294,-40.5 1294,-21.5 1256,-21.5"/>
<text text-anchor="middle" x="1275" y="-28.5" font-family="Helvetica,sans-Serif" font-size="10.00">main</text>
</a>
</g>
</g>
<!-- Node7&#45;&gt;Node8 -->
<g id="edge7" class="edge"><title>Node7&#45;&gt;Node8</title>
<path fill="none" stroke="midnightblue" d="M1230.09,-40.9235C1239.24,-38.8551 1248.37,-36.791 1255.92,-35.0854"/>
<polygon fill="midnightblue" stroke="midnightblue" points="1229.21,-37.5346 1220.22,-43.1529 1230.75,-44.3624 1229.21,-37.5346"/>
</g>
<!-- Node9 -->
<g id="node9" class="node"><title>Node9</title>
<g id="a_node9"><a xlink:href="../../d8/d03/ports_2MINGW_2CMakeLists_8txt.html#a7e00df43a20d627a1732be7766d91097" target="_top" xlink:title="add_library">
<polygon fill="none" stroke="black" points="1330,-21.5 1330,-40.5 1394,-40.5 1394,-21.5 1330,-21.5"/>
<text text-anchor="middle" x="1362" y="-28.5" font-family="Helvetica,sans-Serif" font-size="10.00">add_library</text>
</a>
</g>
</g>
<!-- Node8&#45;&gt;Node9 -->
<g id="edge8" class="edge"><title>Node8&#45;&gt;Node9</title>
<path fill="none" stroke="midnightblue" d="M1304.27,-31C1312.5,-31 1321.55,-31 1329.94,-31"/>
<polygon fill="midnightblue" stroke="midnightblue" points="1304.03,-27.5001 1294.03,-31 1304.03,-34.5001 1304.03,-27.5001"/>
</g>
<!-- Node10 -->
<g id="node10" class="node"><title>Node10</title>
<g id="a_node10"><a xlink:href="../../d8/dce/ports_2CMakeLists_8txt.html#a598fae457555a5fb26e18d4cd8f89de9" target="_top" xlink:title="add_subdirectory">
<polygon fill="none" stroke="black" points="1430,-21.5 1430,-40.5 1521,-40.5 1521,-21.5 1430,-21.5"/>
<text text-anchor="middle" x="1475.5" y="-28.5" font-family="Helvetica,sans-Serif" font-size="10.00">add_subdirectory</text>
</a>
</g>
</g>
<!-- Node9&#45;&gt;Node10 -->
<g id="edge9" class="edge"><title>Node9&#45;&gt;Node10</title>
<path fill="none" stroke="midnightblue" d="M1404.3,-31C1412.63,-31 1421.42,-31 1429.86,-31"/>
<polygon fill="midnightblue" stroke="midnightblue" points="1404.06,-27.5001 1394.06,-31 1404.06,-34.5001 1404.06,-27.5001"/>
</g>
<!-- Node11&#45;&gt;Node4 -->
<g id="edge11" class="edge"><title>Node11&#45;&gt;Node4</title>
<path fill="none" stroke="midnightblue" d="M425.265,-114.372C480.886,-109.002 556.993,-101.62 624,-95 635.598,-93.8542 647.886,-92.6299 659.877,-91.4296"/>
<polygon fill="midnightblue" stroke="midnightblue" points="424.743,-110.906 415.125,-115.35 425.415,-117.873 424.743,-110.906"/>
</g>
<!-- Node12&#45;&gt;Node4 -->
<g id="edge13" class="edge"><title>Node12&#45;&gt;Node4</title>
<path fill="none" stroke="midnightblue" d="M419.9,-79.1443C488.854,-80.2119 591.16,-81.796 659.988,-82.8617"/>
<polygon fill="midnightblue" stroke="midnightblue" points="419.607,-75.6394 409.554,-78.9841 419.498,-82.6386 419.607,-75.6394"/>
</g>
<!-- Node13 -->
<g id="node13" class="node"><title>Node13</title>
<g id="a_node13"><a xlink:href="../../df/d03/cipioconnection_8c.html#a5dea6fc1be0ed4ecf5d9e4f932d52106" target="_top" xlink:title="OpenProducingMulticastConnection">
<polygon fill="none" stroke="black" points="451,-36.5 451,-55.5 624,-55.5 624,-36.5 451,-36.5"/>
<text text-anchor="middle" x="537.5" y="-43.5" font-family="Helvetica,sans-Serif" font-size="10.00">OpenProducingMulticastConnection</text>
</a>
</g>
</g>
<!-- Node12&#45;&gt;Node13 -->
<g id="edge14" class="edge"><title>Node12&#45;&gt;Node13</title>
<path fill="none" stroke="midnightblue" d="M412.537,-66.8232C434.461,-63.1404 458.624,-59.0816 479.749,-55.533"/>
<polygon fill="midnightblue" stroke="midnightblue" points="411.923,-63.3773 402.641,-68.4856 413.082,-70.2806 411.923,-63.3773"/>
</g>
<!-- Node13&#45;&gt;Node4 -->
<g id="edge15" class="edge"><title>Node13&#45;&gt;Node4</title>
<path fill="none" stroke="midnightblue" d="M597.459,-57.4894C625.282,-62.9114 658.096,-69.3058 684.525,-74.4561"/>
<polygon fill="midnightblue" stroke="midnightblue" points="597.94,-54.0174 587.455,-55.54 596.601,-60.8882 597.94,-54.0174"/>
</g>
<!-- Node14&#45;&gt;Node8 -->
<g id="edge17" class="edge"><title>Node14&#45;&gt;Node8</title>
<path fill="none" stroke="midnightblue" d="M806.496,-12.7686C931.973,-17.6619 1186.28,-27.5792 1255.98,-30.2974"/>
<polygon fill="midnightblue" stroke="midnightblue" points="806.355,-9.26057 796.226,-12.3681 806.082,-16.2553 806.355,-9.26057"/>
</g>
</g>
</svg>
