<?xml version="1.0" encoding="UTF-8" standalone="no"?>
<!DOCTYPE svg PUBLIC "-//W3C//DTD SVG 1.1//EN"
 "http://www.w3.org/Graphics/SVG/1.1/DTD/svg11.dtd">
<!-- Generated by graphviz version 2.38.0 (20140413.2041)
 -->
<!-- Title: src/ports/opener_error.h Pages: 1 -->
<svg width="923pt" height="95pt"
 viewBox="0.00 0.00 923.00 95.00" xmlns="http://www.w3.org/2000/svg" xmlns:xlink="http://www.w3.org/1999/xlink">
<g id="graph0" class="graph" transform="scale(1 1) rotate(0) translate(4 91)">
<title>src/ports/opener_error.h</title>
<!-- Node1 -->
<g id="node1" class="node"><title>Node1</title>
<polygon fill="#bfbfbf" stroke="black" points="411.5,-67.5 411.5,-86.5 531.5,-86.5 531.5,-67.5 411.5,-67.5"/>
<text text-anchor="middle" x="471.5" y="-74.5" font-family="Helvetica,sans-Serif" font-size="10.00">src/ports/opener_error.h</text>
</g>
<!-- Node2 -->
<g id="node2" class="node"><title>Node2</title>
<g id="a_node2"><a xlink:href="../../d2/dbd/encap_8c.html" target="_top" xlink:title="src/enet_encap/encap.c">
<polygon fill="none" stroke="black" points="0,-6 0,-25 121,-25 121,-6 0,-6"/>
<text text-anchor="middle" x="60.5" y="-13" font-family="Helvetica,sans-Serif" font-size="10.00">src/enet_encap/encap.c</text>
</a>
</g>
</g>
<!-- Node1&#45;&gt;Node2 -->
<g id="edge1" class="edge"><title>Node1&#45;&gt;Node2</title>
<path fill="none" stroke="midnightblue" d="M401.009,-68.3169C331.695,-60.3876 222.992,-46.9503 129.5,-31 119.485,-29.2914 108.711,-27.1664 98.7226,-25.0748"/>
<polygon fill="midnightblue" stroke="midnightblue" points="401.034,-71.8422 411.365,-69.4941 401.825,-64.887 401.034,-71.8422"/>
</g>
<!-- Node3 -->
<g id="node3" class="node"><title>Node3</title>
<g id="a_node3"><a xlink:href="../../db/d4f/generic__networkhandler_8c.html" target="_top" xlink:title="This file includes all platform&#45;independent functions of the network handler to reduce code duplicati...">
<polygon fill="none" stroke="black" points="139,-6 139,-25 308,-25 308,-6 139,-6"/>
<text text-anchor="middle" x="223.5" y="-13" font-family="Helvetica,sans-Serif" font-size="10.00">src/ports/generic_networkhandler.c</text>
</a>
</g>
</g>
<!-- Node1&#45;&gt;Node3 -->
<g id="edge2" class="edge"><title>Node1&#45;&gt;Node3</title>
<path fill="none" stroke="midnightblue" d="M426.125,-65.1138C377.99,-53.5653 302.95,-35.5615 258.966,-25.0091"/>
<polygon fill="midnightblue" stroke="midnightblue" points="425.427,-68.5455 435.968,-67.4751 427.06,-61.7386 425.427,-68.5455"/>
</g>
<!-- Node4 -->
<g id="node4" class="node"><title>Node4</title>
<g id="a_node4"><a xlink:href="../../d8/d60/MINGW_2opener__error_8c.html" target="_top" xlink:title="src/ports/MINGW/opener\l_error.c">
<polygon fill="none" stroke="black" points="326.5,-0.5 326.5,-30.5 452.5,-30.5 452.5,-0.5 326.5,-0.5"/>
<text text-anchor="start" x="334.5" y="-18.5" font-family="Helvetica,sans-Serif" font-size="10.00">src/ports/MINGW/opener</text>
<text text-anchor="middle" x="389.5" y="-7.5" font-family="Helvetica,sans-Serif" font-size="10.00">_error.c</text>
</a>
</g>
</g>
<!-- Node1&#45;&gt;Node4 -->
<g id="edge3" class="edge"><title>Node1&#45;&gt;Node4</title>
<path fill="none" stroke="midnightblue" d="M451.473,-61.468C438.49,-52.0474 421.667,-39.8408 408.826,-30.523"/>
<polygon fill="midnightblue" stroke="midnightblue" points="449.602,-64.435 459.751,-67.4751 453.713,-58.7693 449.602,-64.435"/>
</g>
<!-- Node5 -->
<g id="node5" class="node"><title>Node5</title>
<g id="a_node5"><a xlink:href="../../d2/d5e/POSIX_2networkhandler_8c.html" target="_top" xlink:title="src/ports/POSIX/networkhandler.c">
<polygon fill="none" stroke="black" points="470.5,-6 470.5,-25 636.5,-25 636.5,-6 470.5,-6"/>
<text text-anchor="middle" x="553.5" y="-13" font-family="Helvetica,sans-Serif" font-size="10.00">src/ports/POSIX/networkhandler.c</text>
</a>
</g>
</g>
<!-- Node1&#45;&gt;Node5 -->
<g id="edge4" class="edge"><title>Node1&#45;&gt;Node5</title>
<path fill="none" stroke="midnightblue" d="M491.767,-61.2938C507.497,-49.8803 528.752,-34.4577 541.773,-25.0091"/>
<polygon fill="midnightblue" stroke="midnightblue" points="489.287,-58.7693 483.249,-67.4751 493.398,-64.435 489.287,-58.7693"/>
</g>
<!-- Node6 -->
<g id="node6" class="node"><title>Node6</title>
<g id="a_node6"><a xlink:href="../../db/dfa/POSIX_2opener__error_8c.html" target="_top" xlink:title="This file includes the prototypes for error resolution functions like strerror or WSAGetLastError...">
<polygon fill="none" stroke="black" points="655,-0.5 655,-30.5 776,-30.5 776,-0.5 655,-0.5"/>
<text text-anchor="start" x="663" y="-18.5" font-family="Helvetica,sans-Serif" font-size="10.00">src/ports/POSIX/opener</text>
<text text-anchor="middle" x="715.5" y="-7.5" font-family="Helvetica,sans-Serif" font-size="10.00">_error.c</text>
</a>
</g>
</g>
<!-- Node1&#45;&gt;Node6 -->
<g id="edge5" class="edge"><title>Node1&#45;&gt;Node6</title>
<path fill="none" stroke="midnightblue" d="M516.423,-65.0453C556.282,-55.3256 614.731,-41.0727 657.994,-30.523"/>
<polygon fill="midnightblue" stroke="midnightblue" points="515.345,-61.7056 506.459,-67.4751 517.004,-68.5063 515.345,-61.7056"/>
</g>
<!-- Node7 -->
<g id="node7" class="node"><title>Node7</title>
<g id="a_node7"><a xlink:href="../../d4/d99/WIN32_2opener__error_8c.html" target="_top" xlink:title="This file includes the prototypes for error resolution functions like strerror or WSAGetLastError...">
<polygon fill="none" stroke="black" points="794,-0.5 794,-30.5 915,-30.5 915,-0.5 794,-0.5"/>
<text text-anchor="start" x="802" y="-18.5" font-family="Helvetica,sans-Serif" font-size="10.00">src/ports/WIN32/opener</text>
<text text-anchor="middle" x="854.5" y="-7.5" font-family="Helvetica,sans-Serif" font-size="10.00">_error.c</text>
</a>
</g>
</g>
<!-- Node1&#45;&gt;Node7 -->
<g id="edge6" class="edge"><title>Node1&#45;&gt;Node7</title>
<path fill="none" stroke="midnightblue" d="M541.533,-67.2848C605.304,-59.0355 701.977,-45.745 785.5,-31 788.273,-30.5105 791.104,-29.992 793.961,-29.4535"/>
<polygon fill="midnightblue" stroke="midnightblue" points="541.059,-63.8169 531.587,-68.565 541.952,-70.7596 541.059,-63.8169"/>
</g>
</g>
</svg>
