<?xml version="1.0" encoding="UTF-8" standalone="no"?>
<!DOCTYPE svg PUBLIC "-//W3C//DTD SVG 1.1//EN"
 "http://www.w3.org/Graphics/SVG/1.1/DTD/svg11.dtd">
<!-- Generated by graphviz version 2.38.0 (20140413.2041)
 -->
<!-- Title: src/cip/cipqos.h Pages: 1 -->
<svg width="1108pt" height="95pt"
 viewBox="0.00 0.00 1107.50 95.00" xmlns="http://www.w3.org/2000/svg" xmlns:xlink="http://www.w3.org/1999/xlink">
<g id="graph0" class="graph" transform="scale(1 1) rotate(0) translate(4 91)">
<title>src/cip/cipqos.h</title>
<!-- Node1 -->
<g id="node1" class="node"><title>Node1</title>
<polygon fill="#bfbfbf" stroke="black" points="444.5,-67.5 444.5,-86.5 530.5,-86.5 530.5,-67.5 444.5,-67.5"/>
<text text-anchor="middle" x="487.5" y="-74.5" font-family="Helvetica,sans-Serif" font-size="10.00">src/cip/cipqos.h</text>
</g>
<!-- Node2 -->
<g id="node2" class="node"><title>Node2</title>
<g id="a_node2"><a xlink:href="../../d2/d3d/cipcommon_8c.html" target="_top" xlink:title="src/cip/cipcommon.c">
<polygon fill="none" stroke="black" points="0,-6 0,-25 107,-25 107,-6 0,-6"/>
<text text-anchor="middle" x="53.5" y="-13" font-family="Helvetica,sans-Serif" font-size="10.00">src/cip/cipcommon.c</text>
</a>
</g>
</g>
<!-- Node1&#45;&gt;Node2 -->
<g id="edge1" class="edge"><title>Node1&#45;&gt;Node2</title>
<path fill="none" stroke="midnightblue" d="M434.068,-71.3884C361.569,-64.7098 228.15,-50.9248 115.5,-31 106.247,-29.3635 96.304,-27.2152 87.1485,-25.0753"/>
<polygon fill="midnightblue" stroke="midnightblue" points="434.037,-74.8999 444.313,-72.322 434.672,-67.9288 434.037,-74.8999"/>
</g>
<!-- Node3 -->
<g id="node3" class="node"><title>Node3</title>
<g id="a_node3"><a xlink:href="../../d5/d35/cipconnectionmanager_8c.html" target="_top" xlink:title="src/cip/cipconnectionmanager.c">
<polygon fill="none" stroke="black" points="125,-6 125,-25 280,-25 280,-6 125,-6"/>
<text text-anchor="middle" x="202.5" y="-13" font-family="Helvetica,sans-Serif" font-size="10.00">src/cip/cipconnectionmanager.c</text>
</a>
</g>
</g>
<!-- Node1&#45;&gt;Node3 -->
<g id="edge2" class="edge"><title>Node1&#45;&gt;Node3</title>
<path fill="none" stroke="midnightblue" d="M436.738,-65.4023C381.485,-53.8671 294.226,-35.6498 243.258,-25.0091"/>
<polygon fill="midnightblue" stroke="midnightblue" points="436.162,-68.8575 446.666,-67.4751 437.593,-62.0052 436.162,-68.8575"/>
</g>
<!-- Node4 -->
<g id="node4" class="node"><title>Node4</title>
<g id="a_node4"><a xlink:href="../../dd/d34/cipqos_8c.html" target="_top" xlink:title="src/cip/cipqos.c">
<polygon fill="none" stroke="black" points="298.5,-6 298.5,-25 384.5,-25 384.5,-6 298.5,-6"/>
<text text-anchor="middle" x="341.5" y="-13" font-family="Helvetica,sans-Serif" font-size="10.00">src/cip/cipqos.c</text>
</a>
</g>
</g>
<!-- Node1&#45;&gt;Node4 -->
<g id="edge3" class="edge"><title>Node1&#45;&gt;Node4</title>
<path fill="none" stroke="midnightblue" d="M457.15,-63.6313C428.785,-52.0717 387.189,-35.12 362.379,-25.0091"/>
<polygon fill="midnightblue" stroke="midnightblue" points="456,-66.9422 466.582,-67.4751 458.642,-60.4599 456,-66.9422"/>
</g>
<!-- Node5 -->
<g id="node5" class="node"><title>Node5</title>
<g id="a_node5"><a xlink:href="../../db/d4f/generic__networkhandler_8c.html" target="_top" xlink:title="This file includes all platform&#45;independent functions of the network handler to reduce code duplicati...">
<polygon fill="none" stroke="black" points="403,-6 403,-25 572,-25 572,-6 403,-6"/>
<text text-anchor="middle" x="487.5" y="-13" font-family="Helvetica,sans-Serif" font-size="10.00">src/ports/generic_networkhandler.c</text>
</a>
</g>
</g>
<!-- Node1&#45;&gt;Node5 -->
<g id="edge4" class="edge"><title>Node1&#45;&gt;Node5</title>
<path fill="none" stroke="midnightblue" d="M487.5,-57.3165C487.5,-46.4962 487.5,-33.398 487.5,-25.0091"/>
<polygon fill="midnightblue" stroke="midnightblue" points="484,-57.4751 487.5,-67.4751 491,-57.4751 484,-57.4751"/>
</g>
<!-- Node6 -->
<g id="node6" class="node"><title>Node6</title>
<g id="a_node6"><a xlink:href="../../d5/daa/MINGW_2sample__application_2sampleapplication_8c.html" target="_top" xlink:title="src/ports/MINGW/sample\l_application/sampleapplication.c">
<polygon fill="none" stroke="black" points="589.5,-0.5 589.5,-30.5 747.5,-30.5 747.5,-0.5 589.5,-0.5"/>
<text text-anchor="start" x="597.5" y="-18.5" font-family="Helvetica,sans-Serif" font-size="10.00">src/ports/MINGW/sample</text>
<text text-anchor="middle" x="668.5" y="-7.5" font-family="Helvetica,sans-Serif" font-size="10.00">_application/sampleapplication.c</text>
</a>
</g>
</g>
<!-- Node1&#45;&gt;Node6 -->
<g id="edge5" class="edge"><title>Node1&#45;&gt;Node6</title>
<path fill="none" stroke="midnightblue" d="M523.304,-64.2303C552.777,-54.5417 594.635,-40.7815 625.842,-30.523"/>
<polygon fill="midnightblue" stroke="midnightblue" points="521.84,-61.0272 513.433,-67.4751 524.026,-67.6771 521.84,-61.0272"/>
</g>
<!-- Node7 -->
<g id="node7" class="node"><title>Node7</title>
<g id="a_node7"><a xlink:href="../../d2/daa/POSIX_2sample__application_2sampleapplication_8c.html" target="_top" xlink:title="src/ports/POSIX/sample\l_application/sampleapplication.c">
<polygon fill="none" stroke="black" points="765.5,-0.5 765.5,-30.5 923.5,-30.5 923.5,-0.5 765.5,-0.5"/>
<text text-anchor="start" x="773.5" y="-18.5" font-family="Helvetica,sans-Serif" font-size="10.00">src/ports/POSIX/sample</text>
<text text-anchor="middle" x="844.5" y="-7.5" font-family="Helvetica,sans-Serif" font-size="10.00">_application/sampleapplication.c</text>
</a>
</g>
</g>
<!-- Node1&#45;&gt;Node7 -->
<g id="edge6" class="edge"><title>Node1&#45;&gt;Node7</title>
<path fill="none" stroke="midnightblue" d="M540.489,-67.1685C599.932,-57.2613 696.968,-41.0886 765.396,-29.6839"/>
<polygon fill="midnightblue" stroke="midnightblue" points="539.851,-63.7265 530.563,-68.8229 541.002,-70.6312 539.851,-63.7265"/>
</g>
<!-- Node8 -->
<g id="node8" class="node"><title>Node8</title>
<g id="a_node8"><a xlink:href="../../d5/dc8/WIN32_2sample__application_2sampleapplication_8c.html" target="_top" xlink:title="src/ports/WIN32/sample\l_application/sampleapplication.c">
<polygon fill="none" stroke="black" points="941.5,-0.5 941.5,-30.5 1099.5,-30.5 1099.5,-0.5 941.5,-0.5"/>
<text text-anchor="start" x="949.5" y="-18.5" font-family="Helvetica,sans-Serif" font-size="10.00">src/ports/WIN32/sample</text>
<text text-anchor="middle" x="1020.5" y="-7.5" font-family="Helvetica,sans-Serif" font-size="10.00">_application/sampleapplication.c</text>
</a>
</g>
</g>
<!-- Node1&#45;&gt;Node8 -->
<g id="edge7" class="edge"><title>Node1&#45;&gt;Node8</title>
<path fill="none" stroke="midnightblue" d="M540.572,-71.7138C624.125,-64.7227 791.364,-49.7451 932.5,-31 935.416,-30.6127 938.384,-30.203 941.381,-29.7763"/>
<polygon fill="midnightblue" stroke="midnightblue" points="540.237,-68.2294 530.562,-72.5466 540.818,-75.2053 540.237,-68.2294"/>
</g>
</g>
</svg>
