<?xml version="1.0" encoding="UTF-8" standalone="no"?>
<!DOCTYPE svg PUBLIC "-//W3C//DTD SVG 1.1//EN"
 "http://www.w3.org/Graphics/SVG/1.1/DTD/svg11.dtd">
<!-- Generated by graphviz version 2.38.0 (20140413.2041)
 -->
<!-- Title: src/cip/cipqos.h Pages: 1 -->
<svg width="800pt" height="420pt"
 viewBox="0.00 0.00 800.00 420.00" xmlns="http://www.w3.org/2000/svg" xmlns:xlink="http://www.w3.org/1999/xlink">
<g id="graph0" class="graph" transform="scale(1 1) rotate(0) translate(4 416)">
<title>src/cip/cipqos.h</title>
<!-- Node1 -->
<g id="node1" class="node"><title>Node1</title>
<polygon fill="#bfbfbf" stroke="black" points="555,-392.5 555,-411.5 641,-411.5 641,-392.5 555,-392.5"/>
<text text-anchor="middle" x="598" y="-399.5" font-family="Helvetica,sans-Serif" font-size="10.00">src/cip/cipqos.h</text>
</g>
<!-- Node2 -->
<g id="node2" class="node"><title>Node2</title>
<g id="a_node2"><a xlink:href="../../d7/d69/typedefs_8h.html" target="_top" xlink:title="typedefs.h">
<polygon fill="none" stroke="black" points="380,-56.5 380,-75.5 442,-75.5 442,-56.5 380,-56.5"/>
<text text-anchor="middle" x="411" y="-63.5" font-family="Helvetica,sans-Serif" font-size="10.00">typedefs.h</text>
</a>
</g>
</g>
<!-- Node1&#45;&gt;Node2 -->
<g id="edge1" class="edge"><title>Node1&#45;&gt;Node2</title>
<path fill="none" stroke="midnightblue" d="M554.993,-397.649C417.877,-386.398 0,-347.475 0,-291 0,-291 0,-291 0,-233 0,-194.577 24.5359,-188.553 57,-168 157.927,-104.103 300.178,-79.671 369.614,-71.137"/>
<polygon fill="midnightblue" stroke="midnightblue" points="370.195,-74.5928 379.716,-69.9452 369.375,-67.641 370.195,-74.5928"/>
</g>
<!-- Node7 -->
<g id="node7" class="node"><title>Node7</title>
<g id="a_node7"><a xlink:href="../../df/d28/ciptypes_8h.html" target="_top" xlink:title="ciptypes.h">
<polygon fill="none" stroke="black" points="529,-168.5 529,-187.5 591,-187.5 591,-168.5 529,-168.5"/>
<text text-anchor="middle" x="560" y="-175.5" font-family="Helvetica,sans-Serif" font-size="10.00">ciptypes.h</text>
</a>
</g>
</g>
<!-- Node1&#45;&gt;Node7 -->
<g id="edge6" class="edge"><title>Node1&#45;&gt;Node7</title>
<path fill="none" stroke="midnightblue" d="M622.469,-392.438C638.567,-385.378 658.377,-373.626 668,-356 672.259,-348.198 670.638,-344.489 668,-336 649.85,-277.592 601.59,-221.665 576.175,-195.097"/>
<polygon fill="midnightblue" stroke="midnightblue" points="578.567,-192.538 569.079,-187.824 573.557,-197.426 578.567,-192.538"/>
</g>
<!-- Node11 -->
<g id="node11" class="node"><title>Node11</title>
<g id="a_node11"><a xlink:href="../../d2/da3/cipconnectionmanager_8h.html" target="_top" xlink:title="cipconnectionmanager.h">
<polygon fill="none" stroke="black" points="537,-336.5 537,-355.5 659,-355.5 659,-336.5 537,-336.5"/>
<text text-anchor="middle" x="598" y="-343.5" font-family="Helvetica,sans-Serif" font-size="10.00">cipconnectionmanager.h</text>
</a>
</g>
</g>
<!-- Node1&#45;&gt;Node11 -->
<g id="edge13" class="edge"><title>Node1&#45;&gt;Node11</title>
<path fill="none" stroke="midnightblue" d="M598,-392.083C598,-385.006 598,-374.861 598,-365.986"/>
<polygon fill="midnightblue" stroke="midnightblue" points="601.5,-365.751 598,-355.751 594.5,-365.751 601.5,-365.751"/>
</g>
<!-- Node3 -->
<g id="node3" class="node"><title>Node3</title>
<polygon fill="none" stroke="#bfbfbf" points="307.5,-0.5 307.5,-19.5 366.5,-19.5 366.5,-0.5 307.5,-0.5"/>
<text text-anchor="middle" x="337" y="-7.5" font-family="Helvetica,sans-Serif" font-size="10.00">inttypes.h</text>
</g>
<!-- Node2&#45;&gt;Node3 -->
<g id="edge2" class="edge"><title>Node2&#45;&gt;Node3</title>
<path fill="none" stroke="midnightblue" d="M399.111,-56.324C387.85,-48.1066 370.713,-35.6017 357.291,-25.8069"/>
<polygon fill="midnightblue" stroke="midnightblue" points="359.247,-22.9014 349.106,-19.8339 355.12,-28.5559 359.247,-22.9014"/>
</g>
<!-- Node4 -->
<g id="node4" class="node"><title>Node4</title>
<polygon fill="none" stroke="#bfbfbf" points="385,-0.5 385,-19.5 437,-19.5 437,-0.5 385,-0.5"/>
<text text-anchor="middle" x="411" y="-7.5" font-family="Helvetica,sans-Serif" font-size="10.00">stddef.h</text>
</g>
<!-- Node2&#45;&gt;Node4 -->
<g id="edge3" class="edge"><title>Node2&#45;&gt;Node4</title>
<path fill="none" stroke="midnightblue" d="M411,-56.083C411,-49.0059 411,-38.8611 411,-29.9865"/>
<polygon fill="midnightblue" stroke="midnightblue" points="414.5,-29.751 411,-19.7511 407.5,-29.7511 414.5,-29.751"/>
</g>
<!-- Node5 -->
<g id="node5" class="node"><title>Node5</title>
<polygon fill="none" stroke="#bfbfbf" points="232,-0.5 232,-19.5 288,-19.5 288,-0.5 232,-0.5"/>
<text text-anchor="middle" x="260" y="-7.5" font-family="Helvetica,sans-Serif" font-size="10.00">stdbool.h</text>
</g>
<!-- Node2&#45;&gt;Node5 -->
<g id="edge4" class="edge"><title>Node2&#45;&gt;Node5</title>
<path fill="none" stroke="midnightblue" d="M387.074,-56.4435C361.781,-47.3986 321.698,-33.064 293.32,-22.9158"/>
<polygon fill="midnightblue" stroke="midnightblue" points="294.409,-19.5882 283.814,-19.5164 292.052,-26.1794 294.409,-19.5882"/>
</g>
<!-- Node6 -->
<g id="node6" class="node"><title>Node6</title>
<polygon fill="none" stroke="#bfbfbf" points="455.5,-0.5 455.5,-19.5 596.5,-19.5 596.5,-0.5 455.5,-0.5"/>
<text text-anchor="middle" x="526" y="-7.5" font-family="Helvetica,sans-Serif" font-size="10.00">platform_network_includes.h</text>
</g>
<!-- Node2&#45;&gt;Node6 -->
<g id="edge5" class="edge"><title>Node2&#45;&gt;Node6</title>
<path fill="none" stroke="midnightblue" d="M429.222,-56.4435C447.896,-47.6751 477.156,-33.9355 498.617,-23.8579"/>
<polygon fill="midnightblue" stroke="midnightblue" points="500.299,-26.935 507.863,-19.5164 497.324,-20.5988 500.299,-26.935"/>
</g>
<!-- Node7&#45;&gt;Node2 -->
<g id="edge7" class="edge"><title>Node7&#45;&gt;Node2</title>
<path fill="none" stroke="midnightblue" d="M536.934,-168.481C517.661,-160.712 490.034,-148.015 469,-132 450.837,-118.171 433.93,-98.0536 423.111,-83.8701"/>
<polygon fill="midnightblue" stroke="midnightblue" points="425.696,-81.4805 416.929,-75.5322 420.073,-85.6497 425.696,-81.4805"/>
</g>
<!-- Node8 -->
<g id="node8" class="node"><title>Node8</title>
<g id="a_node8"><a xlink:href="../../d0/d47/networkhandler_8h.html" target="_top" xlink:title="networkhandler.h">
<polygon fill="none" stroke="black" points="478.5,-112.5 478.5,-131.5 569.5,-131.5 569.5,-112.5 478.5,-112.5"/>
<text text-anchor="middle" x="524" y="-119.5" font-family="Helvetica,sans-Serif" font-size="10.00">networkhandler.h</text>
</a>
</g>
</g>
<!-- Node7&#45;&gt;Node8 -->
<g id="edge8" class="edge"><title>Node7&#45;&gt;Node8</title>
<path fill="none" stroke="midnightblue" d="M554.055,-168.083C549.023,-160.534 541.663,-149.495 535.487,-140.23"/>
<polygon fill="midnightblue" stroke="midnightblue" points="538.293,-138.13 529.834,-131.751 532.469,-142.013 538.293,-138.13"/>
</g>
<!-- Node9 -->
<g id="node9" class="node"><title>Node9</title>
<g id="a_node9"><a xlink:href="../../d8/d2c/enipmessage_8h.html" target="_top" xlink:title="enipmessage.h">
<polygon fill="none" stroke="black" points="664.5,-112.5 664.5,-131.5 747.5,-131.5 747.5,-112.5 664.5,-112.5"/>
<text text-anchor="middle" x="706" y="-119.5" font-family="Helvetica,sans-Serif" font-size="10.00">enipmessage.h</text>
</a>
</g>
</g>
<!-- Node7&#45;&gt;Node9 -->
<g id="edge10" class="edge"><title>Node7&#45;&gt;Node9</title>
<path fill="none" stroke="midnightblue" d="M583.134,-168.444C607.482,-159.438 646.007,-145.189 673.423,-135.049"/>
<polygon fill="midnightblue" stroke="midnightblue" points="674.809,-138.268 682.974,-131.516 672.381,-131.703 674.809,-138.268"/>
</g>
<!-- Node10 -->
<g id="node10" class="node"><title>Node10</title>
<polygon fill="none" stroke="#bfbfbf" points="690,-56.5 690,-75.5 792,-75.5 792,-56.5 690,-56.5"/>
<text text-anchor="middle" x="741" y="-63.5" font-family="Helvetica,sans-Serif" font-size="10.00">opener_user_conf.h</text>
</g>
<!-- Node7&#45;&gt;Node10 -->
<g id="edge12" class="edge"><title>Node7&#45;&gt;Node10</title>
<path fill="none" stroke="midnightblue" d="M571.701,-168.329C589.343,-155.409 623.995,-130.63 655,-112 674.198,-100.464 696.644,-88.7768 713.789,-80.2047"/>
<polygon fill="midnightblue" stroke="midnightblue" points="715.798,-83.1156 723.207,-75.5423 712.693,-76.8423 715.798,-83.1156"/>
</g>
<!-- Node8&#45;&gt;Node2 -->
<g id="edge9" class="edge"><title>Node8&#45;&gt;Node2</title>
<path fill="none" stroke="midnightblue" d="M506.095,-112.444C487.746,-103.675 458.995,-89.9355 437.906,-79.8579"/>
<polygon fill="midnightblue" stroke="midnightblue" points="439.353,-76.6703 428.821,-75.5164 436.335,-82.9862 439.353,-76.6703"/>
</g>
<!-- Node9&#45;&gt;Node10 -->
<g id="edge11" class="edge"><title>Node9&#45;&gt;Node10</title>
<path fill="none" stroke="midnightblue" d="M711.78,-112.083C716.672,-104.534 723.827,-93.4948 729.833,-84.2298"/>
<polygon fill="midnightblue" stroke="midnightblue" points="732.826,-86.0463 735.328,-75.7511 726.952,-82.239 732.826,-86.0463"/>
</g>
<!-- Node11&#45;&gt;Node2 -->
<g id="edge21" class="edge"><title>Node11&#45;&gt;Node2</title>
<path fill="none" stroke="midnightblue" d="M600.731,-336.48C611.19,-302.003 644.872,-171.825 578,-112 543.328,-80.9814 489.455,-71.0258 452.322,-67.9995"/>
<polygon fill="midnightblue" stroke="midnightblue" points="452.537,-64.5062 442.322,-67.318 452.061,-71.49 452.537,-64.5062"/>
</g>
<!-- Node11&#45;&gt;Node7 -->
<g id="edge22" class="edge"><title>Node11&#45;&gt;Node7</title>
<path fill="none" stroke="midnightblue" d="M595.957,-336.075C589.975,-309.945 572.41,-233.211 564.253,-197.577"/>
<polygon fill="midnightblue" stroke="midnightblue" points="567.605,-196.535 561.961,-187.568 560.781,-198.097 567.605,-196.535"/>
</g>
<!-- Node11&#45;&gt;Node10 -->
<g id="edge14" class="edge"><title>Node11&#45;&gt;Node10</title>
<path fill="none" stroke="midnightblue" d="M625.599,-336.435C645.012,-329.262 670.541,-317.376 688,-300 747.311,-240.97 753.581,-213.395 773,-132 775.063,-123.354 775.704,-120.468 773,-112 769.659,-101.538 762.9,-91.4277 756.451,-83.4496"/>
<polygon fill="midnightblue" stroke="midnightblue" points="758.944,-80.9815 749.751,-75.7136 753.652,-85.5641 758.944,-80.9815"/>
</g>
<!-- Node12 -->
<g id="node12" class="node"><title>Node12</title>
<g id="a_node12"><a xlink:href="../../d4/d38/opener__api_8h.html" target="_top" xlink:title="opener_api.h">
<polygon fill="none" stroke="black" points="186,-224.5 186,-243.5 258,-243.5 258,-224.5 186,-224.5"/>
<text text-anchor="middle" x="222" y="-231.5" font-family="Helvetica,sans-Serif" font-size="10.00">opener_api.h</text>
</a>
</g>
</g>
<!-- Node11&#45;&gt;Node12 -->
<g id="edge15" class="edge"><title>Node11&#45;&gt;Node12</title>
<path fill="none" stroke="midnightblue" d="M544.584,-336.436C500.894,-328.798 437.771,-316.305 384,-300 335.642,-285.336 281.548,-262.197 249.708,-247.846"/>
<polygon fill="midnightblue" stroke="midnightblue" points="251.124,-244.645 240.572,-243.693 248.228,-251.017 251.124,-244.645"/>
</g>
<!-- Node15 -->
<g id="node15" class="node"><title>Node15</title>
<g id="a_node15"><a xlink:href="../../d1/d6c/cipconnectionobject_8h.html" target="_top" xlink:title="cipconnectionobject.h">
<polygon fill="none" stroke="black" points="393.5,-280.5 393.5,-299.5 504.5,-299.5 504.5,-280.5 393.5,-280.5"/>
<text text-anchor="middle" x="449" y="-287.5" font-family="Helvetica,sans-Serif" font-size="10.00">cipconnectionobject.h</text>
</a>
</g>
</g>
<!-- Node11&#45;&gt;Node15 -->
<g id="edge23" class="edge"><title>Node11&#45;&gt;Node15</title>
<path fill="none" stroke="midnightblue" d="M574.391,-336.444C549.542,-327.438 510.226,-313.189 482.246,-303.049"/>
<polygon fill="midnightblue" stroke="midnightblue" points="483.093,-299.633 472.499,-299.516 480.708,-306.214 483.093,-299.633"/>
</g>
<!-- Node12&#45;&gt;Node2 -->
<g id="edge18" class="edge"><title>Node12&#45;&gt;Node2</title>
<path fill="none" stroke="midnightblue" d="M223.66,-224.284C228.309,-202.233 243.513,-143.729 279,-112 304.238,-89.4345 341.286,-78.0945 369.714,-72.4493"/>
<polygon fill="midnightblue" stroke="midnightblue" points="370.55,-75.8547 379.76,-70.6169 369.294,-68.9683 370.55,-75.8547"/>
</g>
<!-- Node12&#45;&gt;Node5 -->
<g id="edge17" class="edge"><title>Node12&#45;&gt;Node5</title>
<path fill="none" stroke="midnightblue" d="M185.626,-232.591C129.776,-230.368 31.8374,-219.271 57,-168 93.1019,-94.4396 182.107,-45.541 229.367,-23.8362"/>
<polygon fill="midnightblue" stroke="midnightblue" points="231.089,-26.9003 238.784,-19.6183 228.227,-20.5118 231.089,-26.9003"/>
</g>
<!-- Node12&#45;&gt;Node7 -->
<g id="edge19" class="edge"><title>Node12&#45;&gt;Node7</title>
<path fill="none" stroke="midnightblue" d="M258.198,-226.796C263.821,-225.848 269.566,-224.89 275,-224 361.611,-209.809 463.165,-193.964 518.638,-185.377"/>
<polygon fill="midnightblue" stroke="midnightblue" points="519.426,-188.797 528.773,-183.809 518.356,-181.879 519.426,-188.797"/>
</g>
<!-- Node13 -->
<g id="node13" class="node"><title>Node13</title>
<polygon fill="none" stroke="#bfbfbf" points="142,-168.5 142,-187.5 194,-187.5 194,-168.5 142,-168.5"/>
<text text-anchor="middle" x="168" y="-175.5" font-family="Helvetica,sans-Serif" font-size="10.00">assert.h</text>
</g>
<!-- Node12&#45;&gt;Node13 -->
<g id="edge16" class="edge"><title>Node12&#45;&gt;Node13</title>
<path fill="none" stroke="midnightblue" d="M213.083,-224.083C205.22,-216.22 193.569,-204.569 184.081,-195.081"/>
<polygon fill="midnightblue" stroke="midnightblue" points="186.297,-192.347 176.751,-187.751 181.347,-197.297 186.297,-192.347"/>
</g>
<!-- Node14 -->
<g id="node14" class="node"><title>Node14</title>
<g id="a_node14"><a xlink:href="../../d6/d52/ciperror_8h.html" target="_top" xlink:title="ciperror.h">
<polygon fill="none" stroke="black" points="66.5,-168.5 66.5,-187.5 123.5,-187.5 123.5,-168.5 66.5,-168.5"/>
<text text-anchor="middle" x="95" y="-175.5" font-family="Helvetica,sans-Serif" font-size="10.00">ciperror.h</text>
</a>
</g>
</g>
<!-- Node12&#45;&gt;Node14 -->
<g id="edge20" class="edge"><title>Node12&#45;&gt;Node14</title>
<path fill="none" stroke="midnightblue" d="M201.876,-224.444C180.976,-215.557 148.065,-201.563 124.284,-191.451"/>
<polygon fill="midnightblue" stroke="midnightblue" points="125.602,-188.208 115.029,-187.516 122.862,-194.65 125.602,-188.208"/>
</g>
<!-- Node15&#45;&gt;Node2 -->
<g id="edge24" class="edge"><title>Node15&#45;&gt;Node2</title>
<path fill="none" stroke="midnightblue" d="M444.691,-280.27C440.495,-271.37 434.285,-257.056 431,-244 416.819,-187.643 412.68,-118.648 411.482,-85.9377"/>
<polygon fill="midnightblue" stroke="midnightblue" points="414.971,-85.505 411.161,-75.6189 407.974,-85.7231 414.971,-85.505"/>
</g>
<!-- Node15&#45;&gt;Node7 -->
<g id="edge25" class="edge"><title>Node15&#45;&gt;Node7</title>
<path fill="none" stroke="midnightblue" d="M481.308,-280.495C501.161,-273.696 525.649,-262.221 541,-244 551.998,-230.946 556.633,-211.792 558.584,-197.656"/>
<polygon fill="midnightblue" stroke="midnightblue" points="562.076,-197.919 559.644,-187.607 555.114,-197.184 562.076,-197.919"/>
</g>
<!-- Node15&#45;&gt;Node10 -->
<g id="edge26" class="edge"><title>Node15&#45;&gt;Node10</title>
<path fill="none" stroke="midnightblue" d="M499.232,-280.49C571.45,-265.211 701.868,-225.517 756,-132 764.497,-117.321 758.363,-98.1639 751.557,-84.4567"/>
<polygon fill="midnightblue" stroke="midnightblue" points="754.564,-82.6611 746.682,-75.5809 748.429,-86.0309 754.564,-82.6611"/>
</g>
<!-- Node15&#45;&gt;Node12 -->
<g id="edge27" class="edge"><title>Node15&#45;&gt;Node12</title>
<path fill="none" stroke="midnightblue" d="M413.031,-280.444C373.681,-271.083 310.513,-256.056 267.686,-245.868"/>
<polygon fill="midnightblue" stroke="midnightblue" points="268.339,-242.426 257.801,-243.516 266.719,-249.236 268.339,-242.426"/>
</g>
<!-- Node16 -->
<g id="node16" class="node"><title>Node16</title>
<g id="a_node16"><a xlink:href="../../d9/d31/doublylinkedlist_8h.html" target="_top" xlink:title="doublylinkedlist.h">
<polygon fill="none" stroke="black" points="440,-224.5 440,-243.5 532,-243.5 532,-224.5 440,-224.5"/>
<text text-anchor="middle" x="486" y="-231.5" font-family="Helvetica,sans-Serif" font-size="10.00">doublylinkedlist.h</text>
</a>
</g>
</g>
<!-- Node15&#45;&gt;Node16 -->
<g id="edge28" class="edge"><title>Node15&#45;&gt;Node16</title>
<path fill="none" stroke="midnightblue" d="M455.11,-280.083C460.282,-272.534 467.846,-261.495 474.194,-252.23"/>
<polygon fill="midnightblue" stroke="midnightblue" points="477.239,-253.979 480.004,-243.751 471.464,-250.022 477.239,-253.979"/>
</g>
<!-- Node17 -->
<g id="node17" class="node"><title>Node17</title>
<g id="a_node17"><a xlink:href="../../d0/d23/cipelectronickey_8h.html" target="_top" xlink:title="cipelectronickey.h">
<polygon fill="none" stroke="black" points="288.5,-112.5 288.5,-131.5 383.5,-131.5 383.5,-112.5 288.5,-112.5"/>
<text text-anchor="middle" x="336" y="-119.5" font-family="Helvetica,sans-Serif" font-size="10.00">cipelectronickey.h</text>
</a>
</g>
</g>
<!-- Node15&#45;&gt;Node17 -->
<g id="edge29" class="edge"><title>Node15&#45;&gt;Node17</title>
<path fill="none" stroke="midnightblue" d="M436.908,-280.423C425.769,-272.073 409.304,-258.545 398,-244 372.387,-211.043 352.576,-165.883 342.772,-141.103"/>
<polygon fill="midnightblue" stroke="midnightblue" points="345.952,-139.62 339.091,-131.547 339.42,-142.136 345.952,-139.62"/>
</g>
<!-- Node18 -->
<g id="node18" class="node"><title>Node18</title>
<g id="a_node18"><a xlink:href="../../d1/d02/cipepath_8h.html" target="_top" xlink:title="cipepath.h">
<polygon fill="none" stroke="black" points="284,-224.5 284,-243.5 346,-243.5 346,-224.5 284,-224.5"/>
<text text-anchor="middle" x="315" y="-231.5" font-family="Helvetica,sans-Serif" font-size="10.00">cipepath.h</text>
</a>
</g>
</g>
<!-- Node15&#45;&gt;Node18 -->
<g id="edge32" class="edge"><title>Node15&#45;&gt;Node18</title>
<path fill="none" stroke="midnightblue" d="M427.767,-280.444C405.616,-271.517 370.681,-257.439 345.564,-247.317"/>
<polygon fill="midnightblue" stroke="midnightblue" points="346.717,-244.008 336.133,-243.516 344.1,-250.501 346.717,-244.008"/>
</g>
<!-- Node17&#45;&gt;Node2 -->
<g id="edge31" class="edge"><title>Node17&#45;&gt;Node2</title>
<path fill="none" stroke="midnightblue" d="M348.05,-112.324C359.463,-104.107 376.831,-91.6017 390.435,-81.8069"/>
<polygon fill="midnightblue" stroke="midnightblue" points="392.66,-84.5174 398.731,-75.8339 388.57,-78.8366 392.66,-84.5174"/>
</g>
<!-- Node17&#45;&gt;Node5 -->
<g id="edge30" class="edge"><title>Node17&#45;&gt;Node5</title>
<path fill="none" stroke="midnightblue" d="M330.036,-112.368C317.494,-94.2153 288.19,-51.8015 271.739,-27.9902"/>
<polygon fill="midnightblue" stroke="midnightblue" points="274.5,-25.8292 265.936,-19.5914 268.741,-29.8083 274.5,-25.8292"/>
</g>
<!-- Node18&#45;&gt;Node5 -->
<g id="edge33" class="edge"><title>Node18&#45;&gt;Node5</title>
<path fill="none" stroke="midnightblue" d="M311.255,-224.256C303.986,-206.955 287.902,-166.999 279,-132 269.946,-96.4026 264.46,-53.7547 261.849,-29.7776"/>
<polygon fill="midnightblue" stroke="midnightblue" points="265.308,-29.205 260.795,-19.6195 258.346,-29.9273 265.308,-29.205"/>
</g>
<!-- Node18&#45;&gt;Node7 -->
<g id="edge34" class="edge"><title>Node18&#45;&gt;Node7</title>
<path fill="none" stroke="midnightblue" d="M346.029,-226.161C389.907,-216.49 470.159,-198.802 518.931,-188.052"/>
<polygon fill="midnightblue" stroke="midnightblue" points="519.824,-191.439 528.837,-185.869 518.318,-184.603 519.824,-191.439"/>
</g>
<!-- Node18&#45;&gt;Node17 -->
<g id="edge35" class="edge"><title>Node18&#45;&gt;Node17</title>
<path fill="none" stroke="midnightblue" d="M316.648,-224.368C320.037,-206.617 327.855,-165.666 332.45,-141.597"/>
<polygon fill="midnightblue" stroke="midnightblue" points="335.922,-142.07 334.36,-131.591 329.047,-140.758 335.922,-142.07"/>
</g>
</g>
</svg>
