<?xml version="1.0" encoding="UTF-8" standalone="no"?>
<!DOCTYPE svg PUBLIC "-//W3C//DTD SVG 1.1//EN"
 "http://www.w3.org/Graphics/SVG/1.1/DTD/svg11.dtd">
<!-- Generated by graphviz version 2.36.0 (20140111.2315)
 -->
<!-- Title: src/cip/cipqos.h Pages: 1 -->
<!--zoomable 420 -->
<svg id="main" version="1.1" xmlns="http://www.w3.org/2000/svg" xmlns:xlink="http://www.w3.org/1999/xlink" xml:space="preserve" onload="init(evt)">
<style type="text/css"><![CDATA[
.edge:hover path { stroke: red; }
.edge:hover polygon { stroke: red; fill: red; }
]]></style>
<script type="text/javascript"><![CDATA[
var edges = document.getElementsByTagName('g');
if (edges && edges.length) {
  for (var i=0;i<edges.length;i++) {
    if (edges[i].id.substr(0,4)=='edge') {
      edges[i].setAttribute('class','edge');
    }
  }
}
]]></script>
        <defs>
                <circle id="rim" cx="0" cy="0" r="7"/>
                <circle id="rim2" cx="0" cy="0" r="3.5"/>
                <g id="zoomPlus">
                        <use xlink:href="#rim" fill="#404040">
                                <set attributeName="fill" to="#808080" begin="zoomplus.mouseover" end="zoomplus.mouseout"/>
                        </use>
                        <path d="M-4,0h8M0,-4v8" fill="none" stroke="white" stroke-width="1.5" pointer-events="none"/>
                </g>
                <g id="zoomMin">
                        <use xlink:href="#rim" fill="#404040">
                                <set attributeName="fill" to="#808080" begin="zoomminus.mouseover" end="zoomminus.mouseout"/>
                        </use>
                        <path d="M-4,0h8" fill="none" stroke="white" stroke-width="1.5" pointer-events="none"/>
                </g>
                <g id="dirArrow">
                        <path fill="none" stroke="white" stroke-width="1.5" d="M0,-3.0v7 M-2.5,-0.5L0,-3.0L2.5,-0.5"/>
                </g>
               <g id="resetDef">
                       <use xlink:href="#rim2" fill="#404040">
                               <set attributeName="fill" to="#808080" begin="reset.mouseover" end="reset.mouseout"/>
                       </use>
               </g>
        </defs>

<script type="text/javascript">
var viewWidth = 818;
var viewHeight = 420;
var sectionId = 'dynsection-0';
</script>
<script xlink:href="../../svgpan.js"/>
<svg id="graph" class="graph">
<g id="viewport">
<title>src/cip/cipqos.h</title>
<!-- Node1 -->
<g id="node1" class="node"><title>Node1</title>
<polygon fill="#bfbfbf" stroke="black" points="267,-392.5 267,-411.5 353,-411.5 353,-392.5 267,-392.5"/>
<text text-anchor="middle" x="310" y="-399.5" font-family="Helvetica,sans-Serif" font-size="10.00">src/cip/cipqos.h</text>
</g>
<!-- Node2 -->
<g id="node2" class="node"><title>Node2</title>
<g id="a_node2"><a xlink:href="../../d7/d69/typedefs_8h.html" target="_top" xlink:title="typedefs.h">
<polygon fill="none" stroke="black" points="154,-56.5 154,-75.5 216,-75.5 216,-56.5 154,-56.5"/>
<text text-anchor="middle" x="185" y="-63.5" font-family="Helvetica,sans-Serif" font-size="10.00">typedefs.h</text>
</a>
</g>
</g>
<!-- Node1&#45;&gt;Node2 -->
<g id="edge1" class="edge"><title>Node1&#45;&gt;Node2</title>
<path fill="none" stroke="midnightblue" d="M266.896,-394.928C181.716,-381.714 0,-346.965 0,-291 0,-291 0,-291 0,-177 0,-110.653 88.995,-83.424 143.535,-72.9665"/>
<polygon fill="midnightblue" stroke="midnightblue" points="144.398,-76.3675 153.617,-71.1476 143.155,-69.4787 144.398,-76.3675"/>
</g>
<!-- Node6 -->
<g id="node6" class="node"><title>Node6</title>
<g id="a_node6"><a xlink:href="../../df/d28/ciptypes_8h.html" target="_top" xlink:title="ciptypes.h">
<polygon fill="none" stroke="black" points="326,-168.5 326,-187.5 388,-187.5 388,-168.5 326,-168.5"/>
<text text-anchor="middle" x="357" y="-175.5" font-family="Helvetica,sans-Serif" font-size="10.00">ciptypes.h</text>
</a>
</g>
</g>
<!-- Node1&#45;&gt;Node6 -->
<g id="edge5" class="edge"><title>Node1&#45;&gt;Node6</title>
<path fill="none" stroke="midnightblue" d="M334.742,-392.417C370.174,-378.758 434.65,-348.547 467,-300 481.02,-278.961 474.769,-269.184 477,-244 477.784,-235.146 482.063,-231.306 477,-224 459.357,-198.541 425.415,-187.464 398.119,-182.655"/>
<polygon fill="midnightblue" stroke="midnightblue" points="398.447,-179.165 388.031,-181.103 397.382,-186.083 398.447,-179.165"/>
</g>
<!-- Node10 -->
<g id="node10" class="node"><title>Node10</title>
<g id="a_node10"><a xlink:href="../../d2/da3/cipconnectionmanager_8h.html" target="_top" xlink:title="cipconnectionmanager.h">
<polygon fill="none" stroke="black" points="249,-336.5 249,-355.5 371,-355.5 371,-336.5 249,-336.5"/>
<text text-anchor="middle" x="310" y="-343.5" font-family="Helvetica,sans-Serif" font-size="10.00">cipconnectionmanager.h</text>
</a>
</g>
</g>
<!-- Node1&#45;&gt;Node10 -->
<g id="edge12" class="edge"><title>Node1&#45;&gt;Node10</title>
<path fill="none" stroke="midnightblue" d="M310,-392.083C310,-385.006 310,-374.861 310,-365.986"/>
<polygon fill="midnightblue" stroke="midnightblue" points="313.5,-365.751 310,-355.751 306.5,-365.751 313.5,-365.751"/>
</g>
<!-- Node3 -->
<g id="node3" class="node"><title>Node3</title>
<polygon fill="none" stroke="#bfbfbf" points="192.5,-0.5 192.5,-19.5 251.5,-19.5 251.5,-0.5 192.5,-0.5"/>
<text text-anchor="middle" x="222" y="-7.5" font-family="Helvetica,sans-Serif" font-size="10.00">inttypes.h</text>
</g>
<!-- Node2&#45;&gt;Node3 -->
<g id="edge2" class="edge"><title>Node2&#45;&gt;Node3</title>
<path fill="none" stroke="midnightblue" d="M191.11,-56.083C196.282,-48.5341 203.846,-37.4948 210.194,-28.2298"/>
<polygon fill="midnightblue" stroke="midnightblue" points="213.239,-29.9787 216.004,-19.7511 207.464,-26.0221 213.239,-29.9787"/>
</g>
<!-- Node4 -->
<g id="node4" class="node"><title>Node4</title>
<polygon fill="none" stroke="#bfbfbf" points="122,-0.5 122,-19.5 174,-19.5 174,-0.5 122,-0.5"/>
<text text-anchor="middle" x="148" y="-7.5" font-family="Helvetica,sans-Serif" font-size="10.00">stddef.h</text>
</g>
<!-- Node2&#45;&gt;Node4 -->
<g id="edge3" class="edge"><title>Node2&#45;&gt;Node4</title>
<path fill="none" stroke="midnightblue" d="M178.89,-56.083C173.718,-48.5341 166.154,-37.4948 159.806,-28.2298"/>
<polygon fill="midnightblue" stroke="midnightblue" points="162.536,-26.0221 153.996,-19.7511 156.761,-29.9787 162.536,-26.0221"/>
</g>
<!-- Node5 -->
<g id="node5" class="node"><title>Node5</title>
<polygon fill="none" stroke="#bfbfbf" points="356,-0.5 356,-19.5 412,-19.5 412,-0.5 356,-0.5"/>
<text text-anchor="middle" x="384" y="-7.5" font-family="Helvetica,sans-Serif" font-size="10.00">stdbool.h</text>
</g>
<!-- Node2&#45;&gt;Node5 -->
<g id="edge4" class="edge"><title>Node2&#45;&gt;Node5</title>
<path fill="none" stroke="midnightblue" d="M216.094,-56.5625C251.066,-47.0726 307.89,-31.653 345.603,-21.4192"/>
<polygon fill="midnightblue" stroke="midnightblue" points="346.965,-24.6763 355.699,-18.6795 345.132,-17.9206 346.965,-24.6763"/>
</g>
<!-- Node6&#45;&gt;Node2 -->
<g id="edge6" class="edge"><title>Node6&#45;&gt;Node2</title>
<path fill="none" stroke="midnightblue" d="M343.503,-168.368C313.988,-149.492 243.456,-104.385 207.261,-81.2367"/>
<polygon fill="midnightblue" stroke="midnightblue" points="208.744,-78.0306 198.434,-75.5914 204.973,-83.9278 208.744,-78.0306"/>
</g>
<!-- Node7 -->
<g id="node7" class="node"><title>Node7</title>
<g id="a_node7"><a xlink:href="../../d0/d47/networkhandler_8h.html" target="_top" xlink:title="networkhandler.h">
<polygon fill="none" stroke="black" points="310.5,-112.5 310.5,-131.5 401.5,-131.5 401.5,-112.5 310.5,-112.5"/>
<text text-anchor="middle" x="356" y="-119.5" font-family="Helvetica,sans-Serif" font-size="10.00">networkhandler.h</text>
</a>
</g>
</g>
<!-- Node6&#45;&gt;Node7 -->
<g id="edge7" class="edge"><title>Node6&#45;&gt;Node7</title>
<path fill="none" stroke="midnightblue" d="M356.835,-168.083C356.704,-161.006 356.516,-150.861 356.352,-141.986"/>
<polygon fill="midnightblue" stroke="midnightblue" points="359.847,-141.685 356.162,-131.751 352.848,-141.814 359.847,-141.685"/>
</g>
<!-- Node8 -->
<g id="node8" class="node"><title>Node8</title>
<g id="a_node8"><a xlink:href="../../d8/d2c/enipmessage_8h.html" target="_top" xlink:title="enipmessage.h">
<polygon fill="none" stroke="black" points="458.5,-112.5 458.5,-131.5 541.5,-131.5 541.5,-112.5 458.5,-112.5"/>
<text text-anchor="middle" x="500" y="-119.5" font-family="Helvetica,sans-Serif" font-size="10.00">enipmessage.h</text>
</a>
</g>
</g>
<!-- Node6&#45;&gt;Node8 -->
<g id="edge9" class="edge"><title>Node6&#45;&gt;Node8</title>
<path fill="none" stroke="midnightblue" d="M379.659,-168.444C403.402,-159.478 440.909,-145.314 467.738,-135.183"/>
<polygon fill="midnightblue" stroke="midnightblue" points="469.329,-138.324 477.447,-131.516 466.856,-131.775 469.329,-138.324"/>
</g>
<!-- Node9 -->
<g id="node9" class="node"><title>Node9</title>
<polygon fill="none" stroke="#bfbfbf" points="708,-56.5 708,-75.5 810,-75.5 810,-56.5 708,-56.5"/>
<text text-anchor="middle" x="759" y="-63.5" font-family="Helvetica,sans-Serif" font-size="10.00">opener_user_conf.h</text>
</g>
<!-- Node6&#45;&gt;Node9 -->
<g id="edge11" class="edge"><title>Node6&#45;&gt;Node9</title>
<path fill="none" stroke="midnightblue" d="M366.296,-168.102C381.957,-153.685 415.215,-125.479 449,-112 530.82,-79.3559 633.211,-70.0061 697.383,-67.5415"/>
<polygon fill="midnightblue" stroke="midnightblue" points="697.859,-71.0275 707.734,-67.1911 697.622,-64.0315 697.859,-71.0275"/>
</g>
<!-- Node7&#45;&gt;Node2 -->
<g id="edge8" class="edge"><title>Node7&#45;&gt;Node2</title>
<path fill="none" stroke="midnightblue" d="M328.905,-112.444C300.012,-103.32 254.075,-88.8133 221.895,-78.6509"/>
<polygon fill="midnightblue" stroke="midnightblue" points="222.559,-75.1903 211.969,-75.5164 220.451,-81.8654 222.559,-75.1903"/>
</g>
<!-- Node8&#45;&gt;Node9 -->
<g id="edge10" class="edge"><title>Node8&#45;&gt;Node9</title>
<path fill="none" stroke="midnightblue" d="M541.039,-112.444C586.316,-103.004 659.227,-87.802 708.106,-77.6111"/>
<polygon fill="midnightblue" stroke="midnightblue" points="709.078,-80.9839 718.153,-75.5164 707.649,-74.1312 709.078,-80.9839"/>
</g>
<!-- Node10&#45;&gt;Node2 -->
<g id="edge20" class="edge"><title>Node10&#45;&gt;Node2</title>
<path fill="none" stroke="midnightblue" d="M265.085,-336.485C187.829,-320.544 38,-283.391 38,-235 38,-235 38,-235 38,-177 38,-123.771 100.55,-93.1797 144.046,-78.3418"/>
<polygon fill="midnightblue" stroke="midnightblue" points="145.4,-81.582 153.825,-75.158 143.233,-74.9259 145.4,-81.582"/>
</g>
<!-- Node10&#45;&gt;Node6 -->
<g id="edge21" class="edge"><title>Node10&#45;&gt;Node6</title>
<path fill="none" stroke="midnightblue" d="M312.527,-336.075C319.925,-309.945 341.651,-233.211 351.74,-197.577"/>
<polygon fill="midnightblue" stroke="midnightblue" points="355.217,-198.143 354.574,-187.568 348.482,-196.236 355.217,-198.143"/>
</g>
<!-- Node10&#45;&gt;Node9 -->
<g id="edge13" class="edge"><title>Node10&#45;&gt;Node9</title>
<path fill="none" stroke="midnightblue" d="M371.021,-342.738C493.786,-336.521 759,-313.952 759,-235 759,-235 759,-235 759,-177 759,-144.948 759,-107.643 759,-85.7489"/>
<polygon fill="midnightblue" stroke="midnightblue" points="762.5,-85.5577 759,-75.5578 755.5,-85.5578 762.5,-85.5577"/>
</g>
<!-- Node11 -->
<g id="node11" class="node"><title>Node11</title>
<g id="a_node11"><a xlink:href="../../d4/d38/opener__api_8h.html" target="_top" xlink:title="opener_api.h">
<polygon fill="none" stroke="black" points="162,-224.5 162,-243.5 234,-243.5 234,-224.5 162,-224.5"/>
<text text-anchor="middle" x="198" y="-231.5" font-family="Helvetica,sans-Serif" font-size="10.00">opener_api.h</text>
</a>
</g>
</g>
<!-- Node10&#45;&gt;Node11 -->
<g id="edge14" class="edge"><title>Node10&#45;&gt;Node11</title>
<path fill="none" stroke="midnightblue" d="M301.212,-336.368C282.401,-317.894 238.007,-274.293 214.03,-250.744"/>
<polygon fill="midnightblue" stroke="midnightblue" points="216.335,-248.101 206.748,-243.591 211.43,-253.096 216.335,-248.101"/>
</g>
<!-- Node14 -->
<g id="node14" class="node"><title>Node14</title>
<g id="a_node14"><a xlink:href="../../d1/d6c/cipconnectionobject_8h.html" target="_top" xlink:title="cipconnectionobject.h">
<polygon fill="none" stroke="black" points="347.5,-280.5 347.5,-299.5 458.5,-299.5 458.5,-280.5 347.5,-280.5"/>
<text text-anchor="middle" x="403" y="-287.5" font-family="Helvetica,sans-Serif" font-size="10.00">cipconnectionobject.h</text>
</a>
</g>
</g>
<!-- Node10&#45;&gt;Node14 -->
<g id="edge22" class="edge"><title>Node10&#45;&gt;Node14</title>
<path fill="none" stroke="midnightblue" d="M324.942,-336.324C339.585,-327.822 362.134,-314.729 379.238,-304.797"/>
<polygon fill="midnightblue" stroke="midnightblue" points="381.205,-307.703 388.095,-299.655 377.69,-301.649 381.205,-307.703"/>
</g>
<!-- Node11&#45;&gt;Node2 -->
<g id="edge17" class="edge"><title>Node11&#45;&gt;Node2</title>
<path fill="none" stroke="midnightblue" d="M161.922,-227.494C138.524,-221.85 109.746,-210.534 95,-188 68.6808,-147.78 126.401,-103.015 161.157,-80.9109"/>
<polygon fill="midnightblue" stroke="midnightblue" points="163.177,-83.7775 169.848,-75.5472 159.5,-77.8206 163.177,-83.7775"/>
</g>
<!-- Node11&#45;&gt;Node5 -->
<g id="edge16" class="edge"><title>Node11&#45;&gt;Node5</title>
<path fill="none" stroke="midnightblue" d="M206.821,-224.267C215.697,-215.365 229.659,-201.05 241,-188 269.23,-155.518 274.004,-145.515 301,-112 325.184,-81.9766 353.817,-47.3287 370.347,-27.4117"/>
<polygon fill="midnightblue" stroke="midnightblue" points="373.139,-29.5285 376.837,-19.6001 367.755,-25.0552 373.139,-29.5285"/>
</g>
<!-- Node11&#45;&gt;Node6 -->
<g id="edge18" class="edge"><title>Node11&#45;&gt;Node6</title>
<path fill="none" stroke="midnightblue" d="M223.194,-224.444C249.943,-215.359 292.403,-200.939 322.305,-190.783"/>
<polygon fill="midnightblue" stroke="midnightblue" points="323.581,-194.046 331.924,-187.516 321.329,-187.418 323.581,-194.046"/>
</g>
<!-- Node12 -->
<g id="node12" class="node"><title>Node12</title>
<polygon fill="none" stroke="#bfbfbf" points="180,-168.5 180,-187.5 232,-187.5 232,-168.5 180,-168.5"/>
<text text-anchor="middle" x="206" y="-175.5" font-family="Helvetica,sans-Serif" font-size="10.00">assert.h</text>
</g>
<!-- Node11&#45;&gt;Node12 -->
<g id="edge15" class="edge"><title>Node11&#45;&gt;Node12</title>
<path fill="none" stroke="midnightblue" d="M199.321,-224.083C200.381,-216.927 201.906,-206.635 203.231,-197.691"/>
<polygon fill="midnightblue" stroke="midnightblue" points="206.7,-198.156 204.704,-187.751 199.776,-197.13 206.7,-198.156"/>
</g>
<!-- Node13 -->
<g id="node13" class="node"><title>Node13</title>
<g id="a_node13"><a xlink:href="../../d6/d52/ciperror_8h.html" target="_top" xlink:title="ciperror.h">
<polygon fill="none" stroke="black" points="104.5,-168.5 104.5,-187.5 161.5,-187.5 161.5,-168.5 104.5,-168.5"/>
<text text-anchor="middle" x="133" y="-175.5" font-family="Helvetica,sans-Serif" font-size="10.00">ciperror.h</text>
</a>
</g>
</g>
<!-- Node11&#45;&gt;Node13 -->
<g id="edge19" class="edge"><title>Node11&#45;&gt;Node13</title>
<path fill="none" stroke="midnightblue" d="M187.557,-224.324C177.854,-216.263 163.185,-204.077 151.5,-194.369"/>
<polygon fill="midnightblue" stroke="midnightblue" points="153.562,-191.532 143.633,-187.834 149.089,-196.916 153.562,-191.532"/>
</g>
<!-- Node14&#45;&gt;Node2 -->
<g id="edge23" class="edge"><title>Node14&#45;&gt;Node2</title>
<path fill="none" stroke="midnightblue" d="M394.344,-280.402C385.261,-271.368 370.584,-256.728 358,-244 299.486,-184.814 230.482,-113.865 200.358,-82.8337"/>
<polygon fill="midnightblue" stroke="midnightblue" points="202.725,-80.2469 193.249,-75.508 197.701,-85.1218 202.725,-80.2469"/>
</g>
<!-- Node14&#45;&gt;Node6 -->
<g id="edge24" class="edge"><title>Node14&#45;&gt;Node6</title>
<path fill="none" stroke="midnightblue" d="M393.684,-280.307C385.27,-271.875 373.274,-258.291 367,-244 360.61,-229.446 358.213,-211.498 357.355,-198.152"/>
<polygon fill="midnightblue" stroke="midnightblue" points="360.838,-197.659 356.936,-187.809 353.844,-197.943 360.838,-197.659"/>
</g>
<!-- Node14&#45;&gt;Node9 -->
<g id="edge25" class="edge"><title>Node14&#45;&gt;Node9</title>
<path fill="none" stroke="midnightblue" d="M458.595,-283.721C520.061,-277.008 614.328,-263.85 644,-244 703.346,-204.298 738.972,-122.498 752.607,-85.6803"/>
<polygon fill="midnightblue" stroke="midnightblue" points="756.07,-86.3895 756.135,-75.7948 749.477,-84.0369 756.07,-86.3895"/>
</g>
<!-- Node14&#45;&gt;Node11 -->
<g id="edge26" class="edge"><title>Node14&#45;&gt;Node11</title>
<path fill="none" stroke="midnightblue" d="M370.517,-280.444C335.28,-271.162 278.896,-256.309 240.241,-246.127"/>
<polygon fill="midnightblue" stroke="midnightblue" points="240.893,-242.679 230.331,-243.516 239.109,-249.448 240.893,-242.679"/>
</g>
<!-- Node15 -->
<g id="node15" class="node"><title>Node15</title>
<g id="a_node15"><a xlink:href="../../d9/d31/doublylinkedlist_8h.html" target="_top" xlink:title="doublylinkedlist.h">
<polygon fill="none" stroke="black" points="376,-224.5 376,-243.5 468,-243.5 468,-224.5 376,-224.5"/>
<text text-anchor="middle" x="422" y="-231.5" font-family="Helvetica,sans-Serif" font-size="10.00">doublylinkedlist.h</text>
</a>
</g>
</g>
<!-- Node14&#45;&gt;Node15 -->
<g id="edge27" class="edge"><title>Node14&#45;&gt;Node15</title>
<path fill="none" stroke="midnightblue" d="M406.137,-280.083C408.683,-272.849 412.356,-262.409 415.527,-253.397"/>
<polygon fill="midnightblue" stroke="midnightblue" points="418.903,-254.346 418.921,-243.751 412.3,-252.023 418.903,-254.346"/>
</g>
<!-- Node16 -->
<g id="node16" class="node"><title>Node16</title>
<g id="a_node16"><a xlink:href="../../d0/d23/cipelectronickey_8h.html" target="_top" xlink:title="cipelectronickey.h">
<polygon fill="none" stroke="black" points="559.5,-112.5 559.5,-131.5 654.5,-131.5 654.5,-112.5 559.5,-112.5"/>
<text text-anchor="middle" x="607" y="-119.5" font-family="Helvetica,sans-Serif" font-size="10.00">cipelectronickey.h</text>
</a>
</g>
</g>
<!-- Node14&#45;&gt;Node16 -->
<g id="edge28" class="edge"><title>Node14&#45;&gt;Node16</title>
<path fill="none" stroke="midnightblue" d="M419.196,-280.408C434.61,-271.945 458.178,-258.248 477,-244 521.836,-210.059 568.77,-163.065 592.055,-138.843"/>
<polygon fill="midnightblue" stroke="midnightblue" points="594.639,-141.206 599.008,-131.554 589.573,-136.374 594.639,-141.206"/>
</g>
<!-- Node17 -->
<g id="node17" class="node"><title>Node17</title>
<g id="a_node17"><a xlink:href="../../d1/d02/cipepath_8h.html" target="_top" xlink:title="cipepath.h">
<polygon fill="none" stroke="black" points="574,-224.5 574,-243.5 636,-243.5 636,-224.5 574,-224.5"/>
<text text-anchor="middle" x="605" y="-231.5" font-family="Helvetica,sans-Serif" font-size="10.00">cipepath.h</text>
</a>
</g>
</g>
<!-- Node14&#45;&gt;Node17 -->
<g id="edge31" class="edge"><title>Node14&#45;&gt;Node17</title>
<path fill="none" stroke="midnightblue" d="M435.008,-280.444C469.933,-271.107 525.942,-256.134 564.047,-245.948"/>
<polygon fill="midnightblue" stroke="midnightblue" points="565.049,-249.303 573.806,-243.339 563.241,-242.54 565.049,-249.303"/>
</g>
<!-- Node16&#45;&gt;Node2 -->
<g id="edge30" class="edge"><title>Node16&#45;&gt;Node2</title>
<path fill="none" stroke="midnightblue" d="M559.432,-113.366C556.242,-112.892 553.075,-112.432 550,-112 432.969,-95.5514 294.358,-79.3634 226.555,-71.6583"/>
<polygon fill="midnightblue" stroke="midnightblue" points="226.625,-68.144 216.295,-70.4958 225.837,-75.0995 226.625,-68.144"/>
</g>
<!-- Node16&#45;&gt;Node5 -->
<g id="edge29" class="edge"><title>Node16&#45;&gt;Node5</title>
<path fill="none" stroke="midnightblue" d="M589.502,-112.368C550.583,-93.1711 456.661,-46.8418 410.504,-24.074"/>
<polygon fill="midnightblue" stroke="midnightblue" points="411.934,-20.8764 401.417,-19.5914 408.837,-27.1542 411.934,-20.8764"/>
</g>
<!-- Node17&#45;&gt;Node5 -->
<g id="edge32" class="edge"><title>Node17&#45;&gt;Node5</title>
<path fill="none" stroke="midnightblue" d="M615.252,-224.268C638.26,-203.609 689.956,-150.571 663,-112 608.046,-33.3674 485.403,-15.6898 422.632,-11.8949"/>
<polygon fill="midnightblue" stroke="midnightblue" points="422.531,-8.38512 412.364,-11.3665 422.171,-15.3759 422.531,-8.38512"/>
</g>
<!-- Node17&#45;&gt;Node6 -->
<g id="edge33" class="edge"><title>Node17&#45;&gt;Node6</title>
<path fill="none" stroke="midnightblue" d="M573.842,-226.216C529.39,-216.536 447.691,-198.747 398.259,-187.984"/>
<polygon fill="midnightblue" stroke="midnightblue" points="398.742,-184.507 388.226,-185.799 397.252,-191.347 398.742,-184.507"/>
</g>
<!-- Node17&#45;&gt;Node16 -->
<g id="edge34" class="edge"><title>Node17&#45;&gt;Node16</title>
<path fill="none" stroke="midnightblue" d="M605.157,-224.368C605.48,-206.617 606.224,-165.666 606.662,-141.597"/>
<polygon fill="midnightblue" stroke="midnightblue" points="610.161,-141.653 606.844,-131.591 603.162,-141.526 610.161,-141.653"/>
</g>
</g>
</svg>
        <g id="navigator" transform="translate(0 0)" fill="#404254">
                <rect fill="#f2f5e9" fill-opacity="0.5" stroke="#606060" stroke-width=".5" x="0" y="0" width="60" height="60"/>
                <use id="zoomplus" xlink:href="#zoomPlus" x="17" y="9" onmousedown="handleZoom(evt,'in')"/>
                <use id="zoomminus" xlink:href="#zoomMin" x="42" y="9" onmousedown="handleZoom(evt,'out')"/>
                <use id="reset" xlink:href="#resetDef" x="30" y="36" onmousedown="handleReset()"/>
                <g id="arrowUp" xlink:href="#dirArrow" transform="translate(30 24)" onmousedown="handlePan(0,-1)">
                  <use xlink:href="#rim" fill="#404040">
                        <set attributeName="fill" to="#808080" begin="arrowUp.mouseover" end="arrowUp.mouseout"/>
                  </use>
                  <path fill="none" stroke="white" stroke-width="1.5" d="M0,-3.0v7 M-2.5,-0.5L0,-3.0L2.5,-0.5"/>
                </g>
                <g id="arrowRight" xlink:href="#dirArrow" transform="rotate(90) translate(36 -43)" onmousedown="handlePan(1,0)">
                  <use xlink:href="#rim" fill="#404040">
                        <set attributeName="fill" to="#808080" begin="arrowRight.mouseover" end="arrowRight.mouseout"/>
                  </use>
                  <path fill="none" stroke="white" stroke-width="1.5" d="M0,-3.0v7 M-2.5,-0.5L0,-3.0L2.5,-0.5"/>
                </g>
                <g id="arrowDown" xlink:href="#dirArrow" transform="rotate(180) translate(-30 -48)" onmousedown="handlePan(0,1)">
                  <use xlink:href="#rim" fill="#404040">
                        <set attributeName="fill" to="#808080" begin="arrowDown.mouseover" end="arrowDown.mouseout"/>
                  </use>
                  <path fill="none" stroke="white" stroke-width="1.5" d="M0,-3.0v7 M-2.5,-0.5L0,-3.0L2.5,-0.5"/>
                </g>
                <g id="arrowLeft" xlink:href="#dirArrow" transform="rotate(270) translate(-36 17)" onmousedown="handlePan(-1,0)">
                  <use xlink:href="#rim" fill="#404040">
                        <set attributeName="fill" to="#808080" begin="arrowLeft.mouseover" end="arrowLeft.mouseout"/>
                  </use>
                  <path fill="none" stroke="white" stroke-width="1.5" d="M0,-3.0v7 M-2.5,-0.5L0,-3.0L2.5,-0.5"/>
                </g>
        </g>
        <svg viewBox="0 0 15 15" width="100%" height="30px" preserveAspectRatio="xMaxYMin meet">
         <g id="arrow_out" transform="scale(0.3 0.3)">
          <a xlink:href="cipqos_8h__incl_org.svg" target="_base">
           <rect id="button" ry="5" rx="5" y="6" x="6" height="38" width="38"
                fill="#f2f5e9" fill-opacity="0.5" stroke="#606060" stroke-width="1.0"/>
           <path id="arrow"
             d="M 11.500037,31.436501 C 11.940474,20.09759 22.043105,11.32322 32.158766,21.979434 L 37.068811,17.246167 C 37.068811,17.246167 37.088388,32 37.088388,32 L 22.160133,31.978069 C 22.160133,31.978069 26.997745,27.140456 26.997745,27.140456 C 18.528582,18.264221 13.291696,25.230495 11.500037,31.436501 z"
             style="fill:#404040;"/>
          </a>
         </g>
        </svg>
</svg>
