<?xml version="1.0" encoding="UTF-8" standalone="no"?>
<!DOCTYPE svg PUBLIC "-//W3C//DTD SVG 1.1//EN"
 "http://www.w3.org/Graphics/SVG/1.1/DTD/svg11.dtd">
<!-- Generated by graphviz version 2.36.0 (20140111.2315)
 -->
<!-- Title: src/cip/cipqos.h Pages: 1 -->
<!--zoomable 364 -->
<svg id="main" version="1.1" xmlns="http://www.w3.org/2000/svg" xmlns:xlink="http://www.w3.org/1999/xlink" xml:space="preserve" onload="init(evt)">
<style type="text/css"><![CDATA[
.edge:hover path { stroke: red; }
.edge:hover polygon { stroke: red; fill: red; }
]]></style>
<script type="text/javascript"><![CDATA[
var edges = document.getElementsByTagName('g');
if (edges && edges.length) {
  for (var i=0;i<edges.length;i++) {
    if (edges[i].id.substr(0,4)=='edge') {
      edges[i].setAttribute('class','edge');
    }
  }
}
]]></script>
        <defs>
                <circle id="rim" cx="0" cy="0" r="7"/>
                <circle id="rim2" cx="0" cy="0" r="3.5"/>
                <g id="zoomPlus">
                        <use xlink:href="#rim" fill="#404040">
                                <set attributeName="fill" to="#808080" begin="zoomplus.mouseover" end="zoomplus.mouseout"/>
                        </use>
                        <path d="M-4,0h8M0,-4v8" fill="none" stroke="white" stroke-width="1.5" pointer-events="none"/>
                </g>
                <g id="zoomMin">
                        <use xlink:href="#rim" fill="#404040">
                                <set attributeName="fill" to="#808080" begin="zoomminus.mouseover" end="zoomminus.mouseout"/>
                        </use>
                        <path d="M-4,0h8" fill="none" stroke="white" stroke-width="1.5" pointer-events="none"/>
                </g>
                <g id="dirArrow">
                        <path fill="none" stroke="white" stroke-width="1.5" d="M0,-3.0v7 M-2.5,-0.5L0,-3.0L2.5,-0.5"/>
                </g>
               <g id="resetDef">
                       <use xlink:href="#rim2" fill="#404040">
                               <set attributeName="fill" to="#808080" begin="reset.mouseover" end="reset.mouseout"/>
                       </use>
               </g>
        </defs>

<script type="text/javascript">
var viewWidth = 609;
var viewHeight = 364;
var sectionId = 'dynsection-0';
</script>
<script xlink:href="../../svgpan.js"/>
<svg id="graph" class="graph">
<g id="viewport">
<title>src/cip/cipqos.h</title>
<!-- Node1 -->
<g id="node1" class="node"><title>Node1</title>
<polygon fill="#bfbfbf" stroke="black" points="151.833,-336.5 151.833,-355.5 237.833,-355.5 237.833,-336.5 151.833,-336.5"/>
<text text-anchor="middle" x="194.833" y="-343.5" font-family="Helvetica,sans-Serif" font-size="10.00">src/cip/cipqos.h</text>
</g>
<!-- Node2 -->
<g id="node2" class="node"><title>Node2</title>
<g id="a_node2"><a xlink:href="../../d7/d69/typedefs_8h.html" target="_top" xlink:title="typedefs.h">
<polygon fill="none" stroke="black" points="438.833,-56.5 438.833,-75.5 500.833,-75.5 500.833,-56.5 438.833,-56.5"/>
<text text-anchor="middle" x="469.833" y="-63.5" font-family="Helvetica,sans-Serif" font-size="10.00">typedefs.h</text>
</a>
</g>
</g>
<!-- Node1&#45;&gt;Node2 -->
<g id="edge1" class="edge"><title>Node1&#45;&gt;Node2</title>
<path fill="none" stroke="midnightblue" d="M237.898,-342.475C342.387,-335.175 600.833,-309.579 600.833,-235 600.833,-235 600.833,-235 600.833,-177 600.833,-127.036 544.253,-95.2346 505.462,-79.3027"/>
<polygon fill="midnightblue" stroke="midnightblue" points="506.615,-75.9955 496.028,-75.5928 504.053,-82.5098 506.615,-75.9955"/>
</g>
<!-- Node6 -->
<g id="node6" class="node"><title>Node6</title>
<g id="a_node6"><a xlink:href="../../df/d28/ciptypes_8h.html" target="_top" xlink:title="ciptypes.h">
<polygon fill="none" stroke="black" points="22.8332,-112.5 22.8332,-131.5 84.8332,-131.5 84.8332,-112.5 22.8332,-112.5"/>
<text text-anchor="middle" x="53.8332" y="-119.5" font-family="Helvetica,sans-Serif" font-size="10.00">ciptypes.h</text>
</a>
</g>
</g>
<!-- Node1&#45;&gt;Node6 -->
<g id="edge5" class="edge"><title>Node1&#45;&gt;Node6</title>
<path fill="none" stroke="midnightblue" d="M174.925,-336.378C159.433,-328.78 138.359,-316.373 124.833,-300 84.4792,-251.153 64.782,-176.428 57.4083,-141.809"/>
<polygon fill="midnightblue" stroke="midnightblue" points="60.7776,-140.812 55.3681,-131.702 53.916,-142.197 60.7776,-140.812"/>
</g>
<!-- Node10 -->
<g id="node10" class="node"><title>Node10</title>
<g id="a_node10"><a xlink:href="../../d2/da3/cipconnectionmanager_8h.html" target="_top" xlink:title="cipconnectionmanager.h">
<polygon fill="none" stroke="black" points="133.833,-280.5 133.833,-299.5 255.833,-299.5 255.833,-280.5 133.833,-280.5"/>
<text text-anchor="middle" x="194.833" y="-287.5" font-family="Helvetica,sans-Serif" font-size="10.00">cipconnectionmanager.h</text>
</a>
</g>
</g>
<!-- Node1&#45;&gt;Node10 -->
<g id="edge11" class="edge"><title>Node1&#45;&gt;Node10</title>
<path fill="none" stroke="midnightblue" d="M194.833,-336.083C194.833,-329.006 194.833,-318.861 194.833,-309.986"/>
<polygon fill="midnightblue" stroke="midnightblue" points="198.333,-309.751 194.833,-299.751 191.333,-309.751 198.333,-309.751"/>
</g>
<!-- Node3 -->
<g id="node3" class="node"><title>Node3</title>
<polygon fill="none" stroke="#bfbfbf" points="434.333,-0.5 434.333,-19.5 493.333,-19.5 493.333,-0.5 434.333,-0.5"/>
<text text-anchor="middle" x="463.833" y="-7.5" font-family="Helvetica,sans-Serif" font-size="10.00">inttypes.h</text>
</g>
<!-- Node2&#45;&gt;Node3 -->
<g id="edge2" class="edge"><title>Node2&#45;&gt;Node3</title>
<path fill="none" stroke="midnightblue" d="M468.842,-56.083C468.047,-48.9272 466.904,-38.6353 465.91,-29.6911"/>
<polygon fill="midnightblue" stroke="midnightblue" points="469.389,-29.3034 464.806,-19.7511 462.431,-30.0765 469.389,-29.3034"/>
</g>
<!-- Node4 -->
<g id="node4" class="node"><title>Node4</title>
<polygon fill="none" stroke="#bfbfbf" points="511.833,-0.5 511.833,-19.5 563.833,-19.5 563.833,-0.5 511.833,-0.5"/>
<text text-anchor="middle" x="537.833" y="-7.5" font-family="Helvetica,sans-Serif" font-size="10.00">stddef.h</text>
</g>
<!-- Node2&#45;&gt;Node4 -->
<g id="edge3" class="edge"><title>Node2&#45;&gt;Node4</title>
<path fill="none" stroke="midnightblue" d="M480.759,-56.324C491.008,-48.1849 506.554,-35.8395 518.834,-26.0874"/>
<polygon fill="midnightblue" stroke="midnightblue" points="521.055,-28.7937 526.709,-19.8339 516.701,-23.3119 521.055,-28.7937"/>
</g>
<!-- Node5 -->
<g id="node5" class="node"><title>Node5</title>
<polygon fill="none" stroke="#bfbfbf" points="349.833,-0.5 349.833,-19.5 405.833,-19.5 405.833,-0.5 349.833,-0.5"/>
<text text-anchor="middle" x="377.833" y="-7.5" font-family="Helvetica,sans-Serif" font-size="10.00">stdbool.h</text>
</g>
<!-- Node2&#45;&gt;Node5 -->
<g id="edge4" class="edge"><title>Node2&#45;&gt;Node5</title>
<path fill="none" stroke="midnightblue" d="M455.052,-56.324C440.566,-47.8215 418.26,-34.7288 401.34,-24.7975"/>
<polygon fill="midnightblue" stroke="midnightblue" points="402.974,-21.6981 392.578,-19.6545 399.43,-27.735 402.974,-21.6981"/>
</g>
<!-- Node6&#45;&gt;Node2 -->
<g id="edge6" class="edge"><title>Node6&#45;&gt;Node2</title>
<path fill="none" stroke="midnightblue" d="M85.2157,-113.621C88.1214,-113.034 91.0272,-112.482 93.8332,-112 214.628,-91.2382 358.893,-76.8505 428.383,-70.5639"/>
<polygon fill="midnightblue" stroke="midnightblue" points="428.832,-74.0377 438.48,-69.66 428.208,-67.0656 428.832,-74.0377"/>
</g>
<!-- Node7 -->
<g id="node7" class="node"><title>Node7</title>
<polygon fill="none" stroke="#bfbfbf" points="113.333,-56.5 113.333,-75.5 204.333,-75.5 204.333,-56.5 113.333,-56.5"/>
<text text-anchor="middle" x="158.833" y="-63.5" font-family="Helvetica,sans-Serif" font-size="10.00">networkhandler.h</text>
</g>
<!-- Node6&#45;&gt;Node7 -->
<g id="edge7" class="edge"><title>Node6&#45;&gt;Node7</title>
<path fill="none" stroke="midnightblue" d="M70.7033,-112.324C87.542,-103.664 113.64,-90.2424 133.071,-80.249"/>
<polygon fill="midnightblue" stroke="midnightblue" points="134.713,-83.3405 142.005,-75.6545 131.511,-77.1155 134.713,-83.3405"/>
</g>
<!-- Node8 -->
<g id="node8" class="node"><title>Node8</title>
<g id="a_node8"><a xlink:href="../../d8/d2c/enipmessage_8h.html" target="_top" xlink:title="enipmessage.h">
<polygon fill="none" stroke="black" points="12.3332,-56.5 12.3332,-75.5 95.3332,-75.5 95.3332,-56.5 12.3332,-56.5"/>
<text text-anchor="middle" x="53.8332" y="-63.5" font-family="Helvetica,sans-Serif" font-size="10.00">enipmessage.h</text>
</a>
</g>
</g>
<!-- Node6&#45;&gt;Node8 -->
<g id="edge8" class="edge"><title>Node6&#45;&gt;Node8</title>
<path fill="none" stroke="midnightblue" d="M53.8332,-112.083C53.8332,-105.006 53.8332,-94.8611 53.8332,-85.9865"/>
<polygon fill="midnightblue" stroke="midnightblue" points="57.3333,-85.751 53.8332,-75.7511 50.3333,-85.7511 57.3333,-85.751"/>
</g>
<!-- Node9 -->
<g id="node9" class="node"><title>Node9</title>
<polygon fill="none" stroke="#bfbfbf" points="91.8332,-0.5 91.8332,-19.5 193.833,-19.5 193.833,-0.5 91.8332,-0.5"/>
<text text-anchor="middle" x="142.833" y="-7.5" font-family="Helvetica,sans-Serif" font-size="10.00">opener_user_conf.h</text>
</g>
<!-- Node6&#45;&gt;Node9 -->
<g id="edge10" class="edge"><title>Node6&#45;&gt;Node9</title>
<path fill="none" stroke="midnightblue" d="M85.0224,-113.198C130.194,-101.754 208.896,-81.2056 212.833,-76 228.267,-55.5914 199.671,-36.1726 174.511,-23.9636"/>
<polygon fill="midnightblue" stroke="midnightblue" points="175.683,-20.6503 165.136,-19.6504 172.758,-27.0096 175.683,-20.6503"/>
</g>
<!-- Node8&#45;&gt;Node9 -->
<g id="edge9" class="edge"><title>Node8&#45;&gt;Node9</title>
<path fill="none" stroke="midnightblue" d="M68.1326,-56.324C82.0162,-47.9002 103.326,-34.9709 119.637,-25.0741"/>
<polygon fill="midnightblue" stroke="midnightblue" points="121.835,-27.8341 128.569,-19.6545 118.204,-21.8495 121.835,-27.8341"/>
</g>
<!-- Node10&#45;&gt;Node2 -->
<g id="edge19" class="edge"><title>Node10&#45;&gt;Node2</title>
<path fill="none" stroke="midnightblue" d="M256.089,-286.974C327.287,-281.149 443.132,-260.302 506.833,-188 529.593,-162.167 536.146,-143.313 521.833,-112 516.056,-99.3602 504.781,-88.911 494.203,-81.2737"/>
<polygon fill="midnightblue" stroke="midnightblue" points="495.875,-78.1817 485.617,-75.5333 491.984,-84.0009 495.875,-78.1817"/>
</g>
<!-- Node10&#45;&gt;Node6 -->
<g id="edge20" class="edge"><title>Node10&#45;&gt;Node6</title>
<path fill="none" stroke="midnightblue" d="M187.252,-280.075C164.577,-253.38 97.0379,-173.865 67.697,-139.322"/>
<polygon fill="midnightblue" stroke="midnightblue" points="70.2524,-136.924 61.111,-131.568 64.9172,-141.456 70.2524,-136.924"/>
</g>
<!-- Node10&#45;&gt;Node9 -->
<g id="edge12" class="edge"><title>Node10&#45;&gt;Node9</title>
<path fill="none" stroke="midnightblue" d="M183.533,-280.209C172.119,-271.263 154.048,-256.913 138.833,-244 81.9617,-195.731 50.7081,-196.842 13.8332,-132 1.2945,-109.951 5.28922,-101.245 2.83323,-76 1.97254,-67.1529 -2.40289,-63.183 2.83323,-56 20.9273,-31.1783 52.9368,-19.7483 81.7853,-14.6051"/>
<polygon fill="midnightblue" stroke="midnightblue" points="82.4895,-18.0376 91.8296,-13.0364 81.4092,-11.1215 82.4895,-18.0376"/>
</g>
<!-- Node11 -->
<g id="node11" class="node"><title>Node11</title>
<g id="a_node11"><a xlink:href="../../d4/d38/opener__api_8h.html" target="_top" xlink:title="opener_api.h">
<polygon fill="none" stroke="black" points="158.833,-168.5 158.833,-187.5 230.833,-187.5 230.833,-168.5 158.833,-168.5"/>
<text text-anchor="middle" x="194.833" y="-175.5" font-family="Helvetica,sans-Serif" font-size="10.00">opener_api.h</text>
</a>
</g>
</g>
<!-- Node10&#45;&gt;Node11 -->
<g id="edge13" class="edge"><title>Node10&#45;&gt;Node11</title>
<path fill="none" stroke="midnightblue" d="M194.833,-280.368C194.833,-262.617 194.833,-221.666 194.833,-197.597"/>
<polygon fill="midnightblue" stroke="midnightblue" points="198.333,-197.591 194.833,-187.591 191.333,-197.591 198.333,-197.591"/>
</g>
<!-- Node14 -->
<g id="node14" class="node"><title>Node14</title>
<g id="a_node14"><a xlink:href="../../d1/d6c/cipconnectionobject_8h.html" target="_top" xlink:title="cipconnectionobject.h">
<polygon fill="none" stroke="black" points="250.333,-224.5 250.333,-243.5 361.333,-243.5 361.333,-224.5 250.333,-224.5"/>
<text text-anchor="middle" x="305.833" y="-231.5" font-family="Helvetica,sans-Serif" font-size="10.00">cipconnectionobject.h</text>
</a>
</g>
</g>
<!-- Node10&#45;&gt;Node14 -->
<g id="edge21" class="edge"><title>Node10&#45;&gt;Node14</title>
<path fill="none" stroke="midnightblue" d="M212.667,-280.324C230.549,-271.625 258.308,-258.12 278.879,-248.113"/>
<polygon fill="midnightblue" stroke="midnightblue" points="280.582,-251.177 288.043,-243.655 277.52,-244.882 280.582,-251.177"/>
</g>
<!-- Node11&#45;&gt;Node2 -->
<g id="edge16" class="edge"><title>Node11&#45;&gt;Node2</title>
<path fill="none" stroke="midnightblue" d="M216.412,-168.368C264.907,-148.97 382.659,-101.87 438.915,-79.3673"/>
<polygon fill="midnightblue" stroke="midnightblue" points="440.37,-82.5551 448.355,-75.5914 437.77,-76.0557 440.37,-82.5551"/>
</g>
<!-- Node11&#45;&gt;Node5 -->
<g id="edge15" class="edge"><title>Node11&#45;&gt;Node5</title>
<path fill="none" stroke="midnightblue" d="M204.414,-168.309C233.814,-141.64 323.026,-60.7157 360.725,-26.5186"/>
<polygon fill="midnightblue" stroke="midnightblue" points="363.292,-28.9162 368.347,-19.6051 358.589,-23.7315 363.292,-28.9162"/>
</g>
<!-- Node11&#45;&gt;Node6 -->
<g id="edge17" class="edge"><title>Node11&#45;&gt;Node6</title>
<path fill="none" stroke="midnightblue" d="M172.491,-168.444C149.08,-159.478 112.098,-145.314 85.6436,-135.183"/>
<polygon fill="midnightblue" stroke="midnightblue" points="86.6609,-131.824 76.0706,-131.516 84.1574,-138.361 86.6609,-131.824"/>
</g>
<!-- Node12 -->
<g id="node12" class="node"><title>Node12</title>
<polygon fill="none" stroke="#bfbfbf" points="178.833,-112.5 178.833,-131.5 230.833,-131.5 230.833,-112.5 178.833,-112.5"/>
<text text-anchor="middle" x="204.833" y="-119.5" font-family="Helvetica,sans-Serif" font-size="10.00">assert.h</text>
</g>
<!-- Node11&#45;&gt;Node12 -->
<g id="edge14" class="edge"><title>Node11&#45;&gt;Node12</title>
<path fill="none" stroke="midnightblue" d="M196.485,-168.083C197.81,-160.927 199.716,-150.635 201.372,-141.691"/>
<polygon fill="midnightblue" stroke="midnightblue" points="204.833,-142.221 203.213,-131.751 197.95,-140.947 204.833,-142.221"/>
</g>
<!-- Node13 -->
<g id="node13" class="node"><title>Node13</title>
<g id="a_node13"><a xlink:href="../../d6/d52/ciperror_8h.html" target="_top" xlink:title="ciperror.h">
<polygon fill="none" stroke="black" points="103.333,-112.5 103.333,-131.5 160.333,-131.5 160.333,-112.5 103.333,-112.5"/>
<text text-anchor="middle" x="131.833" y="-119.5" font-family="Helvetica,sans-Serif" font-size="10.00">ciperror.h</text>
</a>
</g>
</g>
<!-- Node11&#45;&gt;Node13 -->
<g id="edge18" class="edge"><title>Node11&#45;&gt;Node13</title>
<path fill="none" stroke="midnightblue" d="M184.711,-168.324C175.307,-160.263 161.089,-148.077 149.764,-138.369"/>
<polygon fill="midnightblue" stroke="midnightblue" points="152.01,-135.684 142.139,-131.834 147.454,-140.999 152.01,-135.684"/>
</g>
<!-- Node14&#45;&gt;Node2 -->
<g id="edge22" class="edge"><title>Node14&#45;&gt;Node2</title>
<path fill="none" stroke="midnightblue" d="M361.455,-232.02C400.099,-228.498 450.456,-217.859 483.833,-188 509.951,-164.635 516.206,-145.147 504.833,-112 501.114,-101.161 493.6,-90.9216 486.484,-82.9566"/>
<polygon fill="midnightblue" stroke="midnightblue" points="488.834,-80.3498 479.389,-75.5497 483.779,-85.1922 488.834,-80.3498"/>
</g>
<!-- Node14&#45;&gt;Node6 -->
<g id="edge23" class="edge"><title>Node14&#45;&gt;Node6</title>
<path fill="none" stroke="midnightblue" d="M262.818,-224.43C230.735,-217.134 186.336,-205.096 149.833,-188 120.723,-174.366 90.5708,-152.446 72.0067,-137.884"/>
<polygon fill="midnightblue" stroke="midnightblue" points="74.1081,-135.083 64.1087,-131.582 69.742,-140.555 74.1081,-135.083"/>
</g>
<!-- Node14&#45;&gt;Node9 -->
<g id="edge24" class="edge"><title>Node14&#45;&gt;Node9</title>
<path fill="none" stroke="midnightblue" d="M299.69,-224.347C293.6,-215.508 284.272,-201.239 277.833,-188 250.53,-131.863 271.047,-102.886 229.833,-56 216.882,-41.2663 197.936,-30.6735 181.029,-23.4815"/>
<polygon fill="midnightblue" stroke="midnightblue" points="181.956,-20.0833 171.371,-19.6344 179.366,-26.5864 181.956,-20.0833"/>
</g>
<!-- Node14&#45;&gt;Node11 -->
<g id="edge25" class="edge"><title>Node14&#45;&gt;Node11</title>
<path fill="none" stroke="midnightblue" d="M287.999,-224.324C270.117,-215.625 242.358,-202.12 221.788,-192.113"/>
<polygon fill="midnightblue" stroke="midnightblue" points="223.147,-188.882 212.623,-187.655 220.084,-195.177 223.147,-188.882"/>
</g>
<!-- Node15 -->
<g id="node15" class="node"><title>Node15</title>
<g id="a_node15"><a xlink:href="../../d9/d31/doublylinkedlist_8h.html" target="_top" xlink:title="doublylinkedlist.h">
<polygon fill="none" stroke="black" points="286.833,-168.5 286.833,-187.5 378.833,-187.5 378.833,-168.5 286.833,-168.5"/>
<text text-anchor="middle" x="332.833" y="-175.5" font-family="Helvetica,sans-Serif" font-size="10.00">doublylinkedlist.h</text>
</a>
</g>
</g>
<!-- Node14&#45;&gt;Node15 -->
<g id="edge26" class="edge"><title>Node14&#45;&gt;Node15</title>
<path fill="none" stroke="midnightblue" d="M310.292,-224.083C313.988,-216.691 319.357,-205.953 323.928,-196.811"/>
<polygon fill="midnightblue" stroke="midnightblue" points="327.116,-198.261 328.458,-187.751 320.855,-195.13 327.116,-198.261"/>
</g>
<!-- Node16 -->
<g id="node16" class="node"><title>Node16</title>
<g id="a_node16"><a xlink:href="../../d0/d23/cipelectronickey_8h.html" target="_top" xlink:title="cipelectronickey.h">
<polygon fill="none" stroke="black" points="401.333,-112.5 401.333,-131.5 496.333,-131.5 496.333,-112.5 401.333,-112.5"/>
<text text-anchor="middle" x="448.833" y="-119.5" font-family="Helvetica,sans-Serif" font-size="10.00">cipelectronickey.h</text>
</a>
</g>
</g>
<!-- Node14&#45;&gt;Node16 -->
<g id="edge27" class="edge"><title>Node14&#45;&gt;Node16</title>
<path fill="none" stroke="midnightblue" d="M361.528,-224.715C402.766,-217.308 453.938,-204.993 466.833,-188 477.3,-174.206 469.669,-154.66 461.355,-140.609"/>
<polygon fill="midnightblue" stroke="midnightblue" points="464.083,-138.383 455.705,-131.898 458.211,-142.192 464.083,-138.383"/>
</g>
<!-- Node17 -->
<g id="node17" class="node"><title>Node17</title>
<g id="a_node17"><a xlink:href="../../d1/d02/cipepath_8h.html" target="_top" xlink:title="cipepath.h">
<polygon fill="none" stroke="black" points="396.833,-168.5 396.833,-187.5 458.833,-187.5 458.833,-168.5 396.833,-168.5"/>
<text text-anchor="middle" x="427.833" y="-175.5" font-family="Helvetica,sans-Serif" font-size="10.00">cipepath.h</text>
</a>
</g>
</g>
<!-- Node14&#45;&gt;Node17 -->
<g id="edge30" class="edge"><title>Node14&#45;&gt;Node17</title>
<path fill="none" stroke="midnightblue" d="M325.164,-224.444C345.153,-215.596 376.576,-201.687 399.397,-191.586"/>
<polygon fill="midnightblue" stroke="midnightblue" points="400.865,-194.764 408.592,-187.516 398.031,-188.363 400.865,-194.764"/>
</g>
<!-- Node16&#45;&gt;Node2 -->
<g id="edge29" class="edge"><title>Node16&#45;&gt;Node2</title>
<path fill="none" stroke="midnightblue" d="M452.301,-112.083C455.145,-104.77 459.263,-94.1814 462.793,-85.1034"/>
<polygon fill="midnightblue" stroke="midnightblue" points="466.068,-86.3397 466.43,-75.7511 459.543,-83.8025 466.068,-86.3397"/>
</g>
<!-- Node16&#45;&gt;Node5 -->
<g id="edge28" class="edge"><title>Node16&#45;&gt;Node5</title>
<path fill="none" stroke="midnightblue" d="M443.262,-112.368C431.597,-94.2957 404.411,-52.1764 389.004,-28.3074"/>
<polygon fill="midnightblue" stroke="midnightblue" points="391.742,-26.0952 383.379,-19.5914 385.861,-29.8913 391.742,-26.0952"/>
</g>
<!-- Node17&#45;&gt;Node5 -->
<g id="edge31" class="edge"><title>Node17&#45;&gt;Node5</title>
<path fill="none" stroke="midnightblue" d="M418.394,-168.36C409.893,-159.965 397.839,-146.406 391.833,-132 377.644,-97.9623 376.289,-54.1512 376.868,-29.6754"/>
<polygon fill="midnightblue" stroke="midnightblue" points="380.368,-29.7413 377.245,-19.6172 373.373,-29.479 380.368,-29.7413"/>
</g>
<!-- Node17&#45;&gt;Node6 -->
<g id="edge32" class="edge"><title>Node17&#45;&gt;Node6</title>
<path fill="none" stroke="midnightblue" d="M396.449,-169.629C393.544,-169.04 390.639,-168.486 387.833,-168 261.29,-146.072 225.288,-154.058 95.1657,-132.079"/>
<polygon fill="midnightblue" stroke="midnightblue" points="95.665,-128.613 85.2171,-130.371 94.481,-135.512 95.665,-128.613"/>
</g>
<!-- Node17&#45;&gt;Node16 -->
<g id="edge33" class="edge"><title>Node17&#45;&gt;Node16</title>
<path fill="none" stroke="midnightblue" d="M431.301,-168.083C434.145,-160.77 438.263,-150.181 441.793,-141.103"/>
<polygon fill="midnightblue" stroke="midnightblue" points="445.068,-142.34 445.43,-131.751 438.543,-139.803 445.068,-142.34"/>
</g>
</g>
</svg>
        <g id="navigator" transform="translate(0 0)" fill="#404254">
                <rect fill="#f2f5e9" fill-opacity="0.5" stroke="#606060" stroke-width=".5" x="0" y="0" width="60" height="60"/>
                <use id="zoomplus" xlink:href="#zoomPlus" x="17" y="9" onmousedown="handleZoom(evt,'in')"/>
                <use id="zoomminus" xlink:href="#zoomMin" x="42" y="9" onmousedown="handleZoom(evt,'out')"/>
                <use id="reset" xlink:href="#resetDef" x="30" y="36" onmousedown="handleReset()"/>
                <g id="arrowUp" xlink:href="#dirArrow" transform="translate(30 24)" onmousedown="handlePan(0,-1)">
                  <use xlink:href="#rim" fill="#404040">
                        <set attributeName="fill" to="#808080" begin="arrowUp.mouseover" end="arrowUp.mouseout"/>
                  </use>
                  <path fill="none" stroke="white" stroke-width="1.5" d="M0,-3.0v7 M-2.5,-0.5L0,-3.0L2.5,-0.5"/>
                </g>
                <g id="arrowRight" xlink:href="#dirArrow" transform="rotate(90) translate(36 -43)" onmousedown="handlePan(1,0)">
                  <use xlink:href="#rim" fill="#404040">
                        <set attributeName="fill" to="#808080" begin="arrowRight.mouseover" end="arrowRight.mouseout"/>
                  </use>
                  <path fill="none" stroke="white" stroke-width="1.5" d="M0,-3.0v7 M-2.5,-0.5L0,-3.0L2.5,-0.5"/>
                </g>
                <g id="arrowDown" xlink:href="#dirArrow" transform="rotate(180) translate(-30 -48)" onmousedown="handlePan(0,1)">
                  <use xlink:href="#rim" fill="#404040">
                        <set attributeName="fill" to="#808080" begin="arrowDown.mouseover" end="arrowDown.mouseout"/>
                  </use>
                  <path fill="none" stroke="white" stroke-width="1.5" d="M0,-3.0v7 M-2.5,-0.5L0,-3.0L2.5,-0.5"/>
                </g>
                <g id="arrowLeft" xlink:href="#dirArrow" transform="rotate(270) translate(-36 17)" onmousedown="handlePan(-1,0)">
                  <use xlink:href="#rim" fill="#404040">
                        <set attributeName="fill" to="#808080" begin="arrowLeft.mouseover" end="arrowLeft.mouseout"/>
                  </use>
                  <path fill="none" stroke="white" stroke-width="1.5" d="M0,-3.0v7 M-2.5,-0.5L0,-3.0L2.5,-0.5"/>
                </g>
        </g>
        <svg viewBox="0 0 15 15" width="100%" height="30px" preserveAspectRatio="xMaxYMin meet">
         <g id="arrow_out" transform="scale(0.3 0.3)">
          <a xlink:href="cipqos_8h__incl_org.svg" target="_base">
           <rect id="button" ry="5" rx="5" y="6" x="6" height="38" width="38"
                fill="#f2f5e9" fill-opacity="0.5" stroke="#606060" stroke-width="1.0"/>
           <path id="arrow"
             d="M 11.500037,31.436501 C 11.940474,20.09759 22.043105,11.32322 32.158766,21.979434 L 37.068811,17.246167 C 37.068811,17.246167 37.088388,32 37.088388,32 L 22.160133,31.978069 C 22.160133,31.978069 26.997745,27.140456 26.997745,27.140456 C 18.528582,18.264221 13.291696,25.230495 11.500037,31.436501 z"
             style="fill:#404040;"/>
          </a>
         </g>
        </svg>
</svg>
