<?xml version="1.0" encoding="UTF-8" standalone="no"?>
<!DOCTYPE svg PUBLIC "-//W3C//DTD SVG 1.1//EN"
 "http://www.w3.org/Graphics/SVG/1.1/DTD/svg11.dtd">
<!-- Generated by graphviz version 2.38.0 (20140413.2041)
 -->
<!-- Title: CloseTcpSocket Pages: 1 -->
<!--zoomable 299 -->
<svg id="main" version="1.1" xmlns="http://www.w3.org/2000/svg" xmlns:xlink="http://www.w3.org/1999/xlink" xml:space="preserve" onload="init(evt)">
<style type="text/css"><![CDATA[
.edge:hover path { stroke: red; }
.edge:hover polygon { stroke: red; fill: red; }
]]></style>
<script type="text/javascript"><![CDATA[
var edges = document.getElementsByTagName('g');
if (edges && edges.length) {
  for (var i=0;i<edges.length;i++) {
    if (edges[i].id.substr(0,4)=='edge') {
      edges[i].setAttribute('class','edge');
    }
  }
}
]]></script>
        <defs>
                <circle id="rim" cx="0" cy="0" r="7"/>
                <circle id="rim2" cx="0" cy="0" r="3.5"/>
                <g id="zoomPlus">
                        <use xlink:href="#rim" fill="#404040">
                                <set attributeName="fill" to="#808080" begin="zoomplus.mouseover" end="zoomplus.mouseout"/>
                        </use>
                        <path d="M-4,0h8M0,-4v8" fill="none" stroke="white" stroke-width="1.5" pointer-events="none"/>
                </g>
                <g id="zoomMin">
                        <use xlink:href="#rim" fill="#404040">
                                <set attributeName="fill" to="#808080" begin="zoomminus.mouseover" end="zoomminus.mouseout"/>
                        </use>
                        <path d="M-4,0h8" fill="none" stroke="white" stroke-width="1.5" pointer-events="none"/>
                </g>
                <g id="dirArrow">
                        <path fill="none" stroke="white" stroke-width="1.5" d="M0,-3.0v7 M-2.5,-0.5L0,-3.0L2.5,-0.5"/>
                </g>
               <g id="resetDef">
                       <use xlink:href="#rim2" fill="#404040">
                               <set attributeName="fill" to="#808080" begin="reset.mouseover" end="reset.mouseout"/>
                       </use>
               </g>
        </defs>

<script type="text/javascript">
var viewWidth = 1594;
var viewHeight = 299;
var sectionId = 'dynsection-4';
</script>
<script xlink:href="../../svgpan.js"/>
<svg id="graph" class="graph">
<g id="viewport">
<title>CloseTcpSocket</title>
<!-- Node1 -->
<g id="node1" class="node"><title>Node1</title>
<polygon fill="#bfbfbf" stroke="black" points="0,-120.5 0,-139.5 89,-139.5 89,-120.5 0,-120.5"/>
<text text-anchor="middle" x="44.5" y="-127.5" font-family="Helvetica,sans-Serif" font-size="10.00">CloseTcpSocket</text>
</g>
<!-- Node2 -->
<g id="node2" class="node"><title>Node2</title>
<g id="a_node2"><a xlink:href="../../db/d4f/generic__networkhandler_8c.html#ab561fc66fe48a0cf95be3d152b297dd9" target="_top" xlink:title="CheckEncapsulationInactivity">
<polygon fill="none" stroke="black" points="300,-218.5 300,-237.5 446,-237.5 446,-218.5 300,-218.5"/>
<text text-anchor="middle" x="373" y="-225.5" font-family="Helvetica,sans-Serif" font-size="10.00">CheckEncapsulationInactivity</text>
</a>
</g>
</g>
<!-- Node1&#45;&gt;Node2 -->
<g id="edge1" class="edge"><title>Node1&#45;&gt;Node2</title>
<path fill="none" stroke="midnightblue" d="M60.3486,-147.59C75.0052,-163.639 98.9487,-186.546 125,-198 180.361,-222.341 249.042,-229.031 299.917,-230.096"/>
<polygon fill="midnightblue" stroke="midnightblue" points="62.8138,-145.094 53.5687,-139.919 57.5689,-149.73 62.8138,-145.094"/>
</g>
<!-- Node3 -->
<g id="node3" class="node"><title>Node3</title>
<g id="a_node3"><a xlink:href="../../da/dc2/generic__networkhandler_8h.html#a2f01af81d3e5018d9980e2bc28c9078a" target="_top" xlink:title="NetworkHandlerProcessOnce">
<polygon fill="none" stroke="black" points="689,-228.5 689,-247.5 835,-247.5 835,-228.5 689,-228.5"/>
<text text-anchor="middle" x="762" y="-235.5" font-family="Helvetica,sans-Serif" font-size="10.00">NetworkHandlerProcessOnce</text>
</a>
</g>
</g>
<!-- Node1&#45;&gt;Node3 -->
<g id="edge30" class="edge"><title>Node1&#45;&gt;Node3</title>
<path fill="none" stroke="midnightblue" d="M55.0363,-148.827C67.6648,-171.588 92.2213,-209.064 125,-227 329.172,-338.717 628.213,-273.949 727.549,-247.562"/>
<polygon fill="midnightblue" stroke="midnightblue" points="58.0176,-146.98 50.2256,-139.801 51.8402,-150.272 58.0176,-146.98"/>
</g>
<!-- Node8 -->
<g id="node8" class="node"><title>Node8</title>
<g id="a_node8"><a xlink:href="../../d2/dc9/group__CIP__API.html#ga00a23c1c86472edf2ed679089ae8efc1" target="_top" xlink:title="Inform the encapsulation layer that the remote host has closed the connection. ">
<polygon fill="none" stroke="black" points="153.5,-120.5 153.5,-139.5 230.5,-139.5 230.5,-120.5 153.5,-120.5"/>
<text text-anchor="middle" x="192" y="-127.5" font-family="Helvetica,sans-Serif" font-size="10.00">CloseSession</text>
</a>
</g>
</g>
<!-- Node1&#45;&gt;Node8 -->
<g id="edge7" class="edge"><title>Node1&#45;&gt;Node8</title>
<path fill="none" stroke="midnightblue" d="M99.2166,-130C117.18,-130 136.809,-130 153.288,-130"/>
<polygon fill="midnightblue" stroke="midnightblue" points="99.1548,-126.5 89.1548,-130 99.1548,-133.5 99.1548,-126.5"/>
</g>
<!-- Node15 -->
<g id="node15" class="node"><title>Node15</title>
<g id="a_node15"><a xlink:href="../../d7/df9/encap_8h.html#ad083888333d3ceec1576126a88eeaca7" target="_top" xlink:title="CloseSessionBySessionHandle">
<polygon fill="none" stroke="black" points="295.5,-76.5 295.5,-95.5 450.5,-95.5 450.5,-76.5 295.5,-76.5"/>
<text text-anchor="middle" x="373" y="-83.5" font-family="Helvetica,sans-Serif" font-size="10.00">CloseSessionBySessionHandle</text>
</a>
</g>
</g>
<!-- Node1&#45;&gt;Node15 -->
<g id="edge15" class="edge"><title>Node1&#45;&gt;Node15</title>
<path fill="none" stroke="midnightblue" d="M90.8465,-118.057C101.958,-115.437 113.859,-112.886 125,-111 181.732,-101.394 246.465,-95.008 295.426,-91.0961"/>
<polygon fill="midnightblue" stroke="midnightblue" points="89.8034,-114.709 80.909,-120.465 91.452,-121.512 89.8034,-114.709"/>
</g>
<!-- Node18 -->
<g id="node18" class="node"><title>Node18</title>
<g id="a_node18"><a xlink:href="../../d4/d91/group__ENCAP.html#ga1261bd2441f744c38d7a3f8d8c16c391" target="_top" xlink:title="Shutdown the encapsulation layer. ">
<polygon fill="none" stroke="black" points="871,-38.5 871,-57.5 995,-57.5 995,-38.5 871,-38.5"/>
<text text-anchor="middle" x="933" y="-45.5" font-family="Helvetica,sans-Serif" font-size="10.00">EncapsulationShutDown</text>
</a>
</g>
</g>
<!-- Node1&#45;&gt;Node18 -->
<g id="edge19" class="edge"><title>Node1&#45;&gt;Node18</title>
<path fill="none" stroke="midnightblue" d="M70.4997,-115.449C85.7843,-107.14 105.991,-97.1777 125,-91 230.973,-56.5605 260.571,-48 372,-48 372,-48 372,-48 571,-48 676.292,-48 798.858,-48 870.68,-48"/>
<polygon fill="midnightblue" stroke="midnightblue" points="68.71,-112.44 61.6737,-120.36 72.1138,-118.556 68.71,-112.44"/>
</g>
<!-- Node20 -->
<g id="node20" class="node"><title>Node20</title>
<g id="a_node20"><a xlink:href="../../d2/dbd/encap_8c.html#a601cd19c88f03fd742f098a1bf5b9e85" target="_top" xlink:title="Unregister encapsulation session. ">
<polygon fill="none" stroke="black" points="125,-159 125,-189 259,-189 259,-159 125,-159"/>
<text text-anchor="start" x="133" y="-177" font-family="Helvetica,sans-Serif" font-size="10.00">HandleReceivedUnregister</text>
<text text-anchor="middle" x="192" y="-166" font-family="Helvetica,sans-Serif" font-size="10.00">SessionCommand</text>
</a>
</g>
</g>
<!-- Node1&#45;&gt;Node20 -->
<g id="edge22" class="edge"><title>Node1&#45;&gt;Node20</title>
<path fill="none" stroke="midnightblue" d="M86.6873,-142.455C103.638,-147.581 123.425,-153.565 141.182,-158.935"/>
<polygon fill="midnightblue" stroke="midnightblue" points="87.6564,-139.092 77.0713,-139.547 85.6301,-145.792 87.6564,-139.092"/>
</g>
<!-- Node24 -->
<g id="node24" class="node"><title>Node24</title>
<g id="a_node24"><a xlink:href="../../da/dc2/generic__networkhandler_8h.html#aace33c0e7aa348969492ede822183bd5" target="_top" xlink:title="NetworkHandlerFinish">
<polygon fill="none" stroke="black" points="1033,-0.5 1033,-19.5 1146,-19.5 1146,-0.5 1033,-0.5"/>
<text text-anchor="middle" x="1089.5" y="-7.5" font-family="Helvetica,sans-Serif" font-size="10.00">NetworkHandlerFinish</text>
</a>
</g>
</g>
<!-- Node1&#45;&gt;Node24 -->
<g id="edge28" class="edge"><title>Node1&#45;&gt;Node24</title>
<path fill="none" stroke="midnightblue" d="M58.1035,-112.118C72.1754,-93.6297 96.7226,-65.4839 125,-51 224.043,-0.269023 260.72,-10 372,-10 372,-10 372,-10 763,-10 857.796,-10 968.122,-10 1032.92,-10"/>
<polygon fill="midnightblue" stroke="midnightblue" points="55.178,-110.188 52.0666,-120.315 60.8146,-114.339 55.178,-110.188"/>
</g>
<!-- Node2&#45;&gt;Node3 -->
<g id="edge2" class="edge"><title>Node2&#45;&gt;Node3</title>
<path fill="none" stroke="midnightblue" d="M456.72,-230.137C525.641,-231.918 622.837,-234.43 688.689,-236.132"/>
<polygon fill="midnightblue" stroke="midnightblue" points="456.425,-226.629 446.338,-229.869 456.244,-233.626 456.425,-226.629"/>
</g>
<!-- Node4 -->
<g id="node4" class="node"><title>Node4</title>
<g id="a_node4"><a xlink:href="../../d5/dcb/MINGW_2main_8c.html#ad338a7dbc41dc40bcecd0479377ef207" target="_top" xlink:title="main">
<polygon fill="none" stroke="black" points="1321,-66.5 1321,-85.5 1359,-85.5 1359,-66.5 1321,-66.5"/>
<text text-anchor="middle" x="1340" y="-73.5" font-family="Helvetica,sans-Serif" font-size="10.00">main</text>
</a>
</g>
</g>
<!-- Node3&#45;&gt;Node4 -->
<g id="edge3" class="edge"><title>Node3&#45;&gt;Node4</title>
<path fill="none" stroke="midnightblue" d="M826.736,-226.721C841.281,-224.166 856.672,-221.476 871,-219 1057.95,-186.696 1119.41,-207.595 1285,-115 1300.54,-106.308 1316.93,-93.9602 1327.52,-85.5006"/>
<polygon fill="midnightblue" stroke="midnightblue" points="826.067,-223.285 816.825,-228.465 827.28,-230.179 826.067,-223.285"/>
</g>
<!-- Node7 -->
<g id="node7" class="node"><title>Node7</title>
<g id="a_node7"><a xlink:href="../../d9/dfb/POSIX_2main_8c.html#acd4e45a35a64f9cb29b59f63492b61d2" target="_top" xlink:title="Signal handler function for ending stack execution. ">
<polygon fill="none" stroke="black" points="899,-228.5 899,-247.5 967,-247.5 967,-228.5 899,-228.5"/>
<text text-anchor="middle" x="933" y="-235.5" font-family="Helvetica,sans-Serif" font-size="10.00">LeaveStack</text>
</a>
</g>
</g>
<!-- Node3&#45;&gt;Node7 -->
<g id="edge6" class="edge"><title>Node3&#45;&gt;Node7</title>
<path fill="none" stroke="midnightblue" d="M845.306,-238C864.188,-238 883.216,-238 898.616,-238"/>
<polygon fill="midnightblue" stroke="midnightblue" points="845.161,-234.5 835.161,-238 845.161,-241.5 845.161,-234.5"/>
</g>
<!-- Node5 -->
<g id="node5" class="node"><title>Node5</title>
<g id="a_node5"><a xlink:href="../../d8/d03/ports_2MINGW_2CMakeLists_8txt.html#a7e00df43a20d627a1732be7766d91097" target="_top" xlink:title="add_library">
<polygon fill="none" stroke="black" points="1395,-66.5 1395,-85.5 1459,-85.5 1459,-66.5 1395,-66.5"/>
<text text-anchor="middle" x="1427" y="-73.5" font-family="Helvetica,sans-Serif" font-size="10.00">add_library</text>
</a>
</g>
</g>
<!-- Node4&#45;&gt;Node5 -->
<g id="edge4" class="edge"><title>Node4&#45;&gt;Node5</title>
<path fill="none" stroke="midnightblue" d="M1369.27,-76C1377.5,-76 1386.55,-76 1394.94,-76"/>
<polygon fill="midnightblue" stroke="midnightblue" points="1369.03,-72.5001 1359.03,-76 1369.03,-79.5001 1369.03,-72.5001"/>
</g>
<!-- Node6 -->
<g id="node6" class="node"><title>Node6</title>
<g id="a_node6"><a xlink:href="../../d8/dce/ports_2CMakeLists_8txt.html#a598fae457555a5fb26e18d4cd8f89de9" target="_top" xlink:title="add_subdirectory">
<polygon fill="none" stroke="black" points="1495,-66.5 1495,-85.5 1586,-85.5 1586,-66.5 1495,-66.5"/>
<text text-anchor="middle" x="1540.5" y="-73.5" font-family="Helvetica,sans-Serif" font-size="10.00">add_subdirectory</text>
</a>
</g>
</g>
<!-- Node5&#45;&gt;Node6 -->
<g id="edge5" class="edge"><title>Node5&#45;&gt;Node6</title>
<path fill="none" stroke="midnightblue" d="M1469.3,-76C1477.63,-76 1486.42,-76 1494.86,-76"/>
<polygon fill="midnightblue" stroke="midnightblue" points="1469.06,-72.5001 1459.06,-76 1469.06,-79.5001 1469.06,-72.5001"/>
</g>
<!-- Node9 -->
<g id="node9" class="node"><title>Node9</title>
<g id="a_node9"><a xlink:href="../../d7/df9/encap_8h.html#a0101714be726ab1b21125b6a82ac7a56" target="_top" xlink:title="CloseEncapsulationSession\lBySockAddr">
<polygon fill="none" stroke="black" points="303.5,-115 303.5,-145 442.5,-145 442.5,-115 303.5,-115"/>
<text text-anchor="start" x="311.5" y="-133" font-family="Helvetica,sans-Serif" font-size="10.00">CloseEncapsulationSession</text>
<text text-anchor="middle" x="373" y="-122" font-family="Helvetica,sans-Serif" font-size="10.00">BySockAddr</text>
</a>
</g>
</g>
<!-- Node8&#45;&gt;Node9 -->
<g id="edge8" class="edge"><title>Node8&#45;&gt;Node9</title>
<path fill="none" stroke="midnightblue" d="M240.559,-130C259.825,-130 282.442,-130 303.432,-130"/>
<polygon fill="midnightblue" stroke="midnightblue" points="240.524,-126.5 230.524,-130 240.524,-133.5 240.524,-126.5"/>
</g>
<!-- Node10 -->
<g id="node10" class="node"><title>Node10</title>
<g id="a_node10"><a xlink:href="../../df/d03/cipioconnection_8c.html#a7e4923f4b027d489d9933b52f6fd7007" target="_top" xlink:title="HandleIoConnectionTimeOut">
<polygon fill="none" stroke="black" points="498.5,-114.5 498.5,-133.5 641.5,-133.5 641.5,-114.5 498.5,-114.5"/>
<text text-anchor="middle" x="570" y="-121.5" font-family="Helvetica,sans-Serif" font-size="10.00">HandleIoConnectionTimeOut</text>
</a>
</g>
</g>
<!-- Node9&#45;&gt;Node10 -->
<g id="edge9" class="edge"><title>Node9&#45;&gt;Node10</title>
<path fill="none" stroke="midnightblue" d="M452.998,-127.569C467.967,-127.109 483.54,-126.63 498.234,-126.177"/>
<polygon fill="midnightblue" stroke="midnightblue" points="452.637,-124.079 442.75,-127.885 452.853,-131.075 452.637,-124.079"/>
</g>
<!-- Node11 -->
<g id="node11" class="node"><title>Node11</title>
<g id="a_node11"><a xlink:href="../../df/d03/cipioconnection_8c.html#ab3282f146a3ea91c90cf14c32206ee8c" target="_top" xlink:title="SetIoConnectionCallbacks">
<polygon fill="none" stroke="black" points="695.5,-114.5 695.5,-133.5 828.5,-133.5 828.5,-114.5 695.5,-114.5"/>
<text text-anchor="middle" x="762" y="-121.5" font-family="Helvetica,sans-Serif" font-size="10.00">SetIoConnectionCallbacks</text>
</a>
</g>
</g>
<!-- Node10&#45;&gt;Node11 -->
<g id="edge10" class="edge"><title>Node10&#45;&gt;Node11</title>
<path fill="none" stroke="midnightblue" d="M652.127,-124C666.511,-124 681.328,-124 695.222,-124"/>
<polygon fill="midnightblue" stroke="midnightblue" points="651.749,-120.5 641.749,-124 651.749,-127.5 651.749,-120.5"/>
</g>
<!-- Node12 -->
<g id="node12" class="node"><title>Node12</title>
<g id="a_node12"><a xlink:href="../../de/d45/cipioconnection_8h.html#a43e270b3f9b9f6296b12285c320c95aa" target="_top" xlink:title="Setup all data in order to establish an IO connection. ">
<polygon fill="none" stroke="black" points="875.5,-114.5 875.5,-133.5 990.5,-133.5 990.5,-114.5 875.5,-114.5"/>
<text text-anchor="middle" x="933" y="-121.5" font-family="Helvetica,sans-Serif" font-size="10.00">EstablishIoConnection</text>
</a>
</g>
</g>
<!-- Node11&#45;&gt;Node12 -->
<g id="edge11" class="edge"><title>Node11&#45;&gt;Node12</title>
<path fill="none" stroke="midnightblue" d="M839.022,-124C851.257,-124 863.732,-124 875.406,-124"/>
<polygon fill="midnightblue" stroke="midnightblue" points="838.824,-120.5 828.824,-124 838.824,-127.5 838.824,-120.5"/>
</g>
<!-- Node13 -->
<g id="node13" class="node"><title>Node13</title>
<g id="a_node13"><a xlink:href="../../d2/da3/cipconnectionmanager_8h.html#a5ab0de6894d23e8fe84a6b46797c2212" target="_top" xlink:title="Initialize the data of the connection manager object. ">
<polygon fill="none" stroke="black" points="1031,-86.5 1031,-105.5 1148,-105.5 1148,-86.5 1031,-86.5"/>
<text text-anchor="middle" x="1089.5" y="-93.5" font-family="Helvetica,sans-Serif" font-size="10.00">ConnectionManagerInit</text>
</a>
</g>
</g>
<!-- Node12&#45;&gt;Node13 -->
<g id="edge12" class="edge"><title>Node12&#45;&gt;Node13</title>
<path fill="none" stroke="midnightblue" d="M996.599,-112.655C1009.68,-110.285 1023.33,-107.81 1036,-105.515"/>
<polygon fill="midnightblue" stroke="midnightblue" points="995.954,-109.215 986.738,-114.442 997.202,-116.103 995.954,-109.215"/>
</g>
<!-- Node14 -->
<g id="node14" class="node"><title>Node14</title>
<g id="a_node14"><a xlink:href="../../d2/dc9/group__CIP__API.html#ga5d4979945d124e28668b264c3823db1c" target="_top" xlink:title="Initialize and setup the CIP&#45;stack. ">
<polygon fill="none" stroke="black" points="1199,-86.5 1199,-105.5 1270,-105.5 1270,-86.5 1199,-86.5"/>
<text text-anchor="middle" x="1234.5" y="-93.5" font-family="Helvetica,sans-Serif" font-size="10.00">CipStackInit</text>
</a>
</g>
</g>
<!-- Node13&#45;&gt;Node14 -->
<g id="edge13" class="edge"><title>Node13&#45;&gt;Node14</title>
<path fill="none" stroke="midnightblue" d="M1158.43,-96C1172.5,-96 1186.75,-96 1199,-96"/>
<polygon fill="midnightblue" stroke="midnightblue" points="1158.25,-92.5001 1148.25,-96 1158.25,-99.5001 1158.25,-92.5001"/>
</g>
<!-- Node14&#45;&gt;Node4 -->
<g id="edge14" class="edge"><title>Node14&#45;&gt;Node4</title>
<path fill="none" stroke="midnightblue" d="M1280.41,-87.3215C1294.62,-84.576 1309.53,-81.6952 1320.75,-79.5267"/>
<polygon fill="midnightblue" stroke="midnightblue" points="1279.41,-83.9509 1270.25,-89.2847 1280.73,-90.8237 1279.41,-83.9509"/>
</g>
<!-- Node16 -->
<g id="node16" class="node"><title>Node16</title>
<g id="a_node16"><a xlink:href="../../dc/d93/cipclass3connection_8c.html#a6053ab7004c1419bd80faf9aca54bfd3" target="_top" xlink:title="Class3ConnectionTimeoutHandler">
<polygon fill="none" stroke="black" points="487,-76.5 487,-95.5 653,-95.5 653,-76.5 487,-76.5"/>
<text text-anchor="middle" x="570" y="-83.5" font-family="Helvetica,sans-Serif" font-size="10.00">Class3ConnectionTimeoutHandler</text>
</a>
</g>
</g>
<!-- Node15&#45;&gt;Node16 -->
<g id="edge16" class="edge"><title>Node15&#45;&gt;Node16</title>
<path fill="none" stroke="midnightblue" d="M460.68,-86C469.405,-86 478.246,-86 486.921,-86"/>
<polygon fill="midnightblue" stroke="midnightblue" points="460.51,-82.5001 450.509,-86 460.509,-89.5001 460.51,-82.5001"/>
</g>
<!-- Node17 -->
<g id="node17" class="node"><title>Node17</title>
<g id="a_node17"><a xlink:href="../../d2/d11/cipclass3connection_8h.html#a45bd741b44137164c07a6ce09a7a9a9d" target="_top" xlink:title="Check if Class3 connection is available and if yes setup all data. ">
<polygon fill="none" stroke="black" points="693.5,-76.5 693.5,-95.5 830.5,-95.5 830.5,-76.5 693.5,-76.5"/>
<text text-anchor="middle" x="762" y="-83.5" font-family="Helvetica,sans-Serif" font-size="10.00">EstablishClass3Connection</text>
</a>
</g>
</g>
<!-- Node16&#45;&gt;Node17 -->
<g id="edge17" class="edge"><title>Node16&#45;&gt;Node17</title>
<path fill="none" stroke="midnightblue" d="M663.359,-86C673.517,-86 683.715,-86 693.489,-86"/>
<polygon fill="midnightblue" stroke="midnightblue" points="663.232,-82.5001 653.232,-86 663.232,-89.5001 663.232,-82.5001"/>
</g>
<!-- Node17&#45;&gt;Node13 -->
<g id="edge18" class="edge"><title>Node17&#45;&gt;Node13</title>
<path fill="none" stroke="midnightblue" d="M841.129,-88.4003C899.517,-90.1941 978.035,-92.6063 1030.81,-94.2277"/>
<polygon fill="midnightblue" stroke="midnightblue" points="840.942,-84.893 830.839,-88.0842 840.727,-91.8897 840.942,-84.893"/>
</g>
<!-- Node19 -->
<g id="node19" class="node"><title>Node19</title>
<g id="a_node19"><a xlink:href="../../d2/dc9/group__CIP__API.html#gaa57b527530adc2acda6febc500fd6831" target="_top" xlink:title="Shutdown of the CIP stack. ">
<polygon fill="none" stroke="black" points="1184,-45.5 1184,-64.5 1285,-64.5 1285,-45.5 1184,-45.5"/>
<text text-anchor="middle" x="1234.5" y="-52.5" font-family="Helvetica,sans-Serif" font-size="10.00">ShutdownCipStack</text>
</a>
</g>
</g>
<!-- Node18&#45;&gt;Node19 -->
<g id="edge20" class="edge"><title>Node18&#45;&gt;Node19</title>
<path fill="none" stroke="midnightblue" d="M1005.36,-49.6678C1060.34,-50.9528 1134.96,-52.6968 1183.65,-53.835"/>
<polygon fill="midnightblue" stroke="midnightblue" points="1005.41,-46.1682 995.331,-49.4334 1005.25,-53.1662 1005.41,-46.1682"/>
</g>
<!-- Node19&#45;&gt;Node4 -->
<g id="edge21" class="edge"><title>Node19&#45;&gt;Node4</title>
<path fill="none" stroke="midnightblue" d="M1292.38,-66.5405C1302.75,-68.6449 1312.84,-70.6929 1320.97,-72.3421"/>
<polygon fill="midnightblue" stroke="midnightblue" points="1292.9,-63.0753 1282.4,-64.5169 1291.51,-69.9356 1292.9,-63.0753"/>
</g>
<!-- Node21 -->
<g id="node21" class="node"><title>Node21</title>
<g id="a_node21"><a xlink:href="../../d2/dc9/group__CIP__API.html#ga4b8ec8e9b8a1dd71e84f2ea54e1c2b2d" target="_top" xlink:title="Notify the encapsulation layer that an explicit message has been received via TCP. ">
<polygon fill="none" stroke="black" points="295,-164.5 295,-183.5 451,-183.5 451,-164.5 295,-164.5"/>
<text text-anchor="middle" x="373" y="-171.5" font-family="Helvetica,sans-Serif" font-size="10.00">HandleReceivedExplictTcpData</text>
</a>
</g>
</g>
<!-- Node20&#45;&gt;Node21 -->
<g id="edge23" class="edge"><title>Node20&#45;&gt;Node21</title>
<path fill="none" stroke="midnightblue" d="M269.37,-174C277.836,-174 286.462,-174 294.936,-174"/>
<polygon fill="midnightblue" stroke="midnightblue" points="269.144,-170.5 259.144,-174 269.144,-177.5 269.144,-170.5"/>
</g>
<!-- Node22 -->
<g id="node22" class="node"><title>Node22</title>
<g id="a_node22"><a xlink:href="../../d4/d91/group__ENCAP.html#ga7a0dc2be6c485d9e6940d5b20a981022" target="_top" xlink:title="Initialize the encapsulation layer. ">
<polygon fill="none" stroke="black" points="1043.5,-143.5 1043.5,-162.5 1135.5,-162.5 1135.5,-143.5 1043.5,-143.5"/>
<text text-anchor="middle" x="1089.5" y="-150.5" font-family="Helvetica,sans-Serif" font-size="10.00">EncapsulationInit</text>
</a>
</g>
</g>
<!-- Node21&#45;&gt;Node22 -->
<g id="edge24" class="edge"><title>Node21&#45;&gt;Node22</title>
<path fill="none" stroke="midnightblue" d="M461.457,-171.43C614.801,-166.923 926.943,-157.748 1043.38,-154.326"/>
<polygon fill="midnightblue" stroke="midnightblue" points="461.036,-167.94 451.143,-171.733 461.241,-174.937 461.036,-167.94"/>
</g>
<!-- Node23 -->
<g id="node23" class="node"><title>Node23</title>
<g id="a_node23"><a xlink:href="../../db/d4f/generic__networkhandler_8c.html#aca5593b7dd39d7a7b437999a367102d6" target="_top" xlink:title="Handles data on an established TCP connection, processed connection is given by socket. ">
<polygon fill="none" stroke="black" points="506,-190.5 506,-209.5 634,-209.5 634,-190.5 506,-190.5"/>
<text text-anchor="middle" x="570" y="-197.5" font-family="Helvetica,sans-Serif" font-size="10.00">HandleDataOnTcpSocket</text>
</a>
</g>
</g>
<!-- Node21&#45;&gt;Node23 -->
<g id="edge26" class="edge"><title>Node21&#45;&gt;Node23</title>
<path fill="none" stroke="midnightblue" d="M455.822,-184.91C472.556,-187.141 489.921,-189.456 505.878,-191.584"/>
<polygon fill="midnightblue" stroke="midnightblue" points="455.878,-181.386 445.504,-183.534 454.953,-188.325 455.878,-181.386"/>
</g>
<!-- Node22&#45;&gt;Node14 -->
<g id="edge25" class="edge"><title>Node22&#45;&gt;Node14</title>
<path fill="none" stroke="midnightblue" d="M1123.97,-139.659C1150.2,-129.205 1186.05,-114.913 1209.49,-105.572"/>
<polygon fill="midnightblue" stroke="midnightblue" points="1122.43,-136.505 1114.43,-143.459 1125.02,-143.008 1122.43,-136.505"/>
</g>
<!-- Node23&#45;&gt;Node3 -->
<g id="edge27" class="edge"><title>Node23&#45;&gt;Node3</title>
<path fill="none" stroke="midnightblue" d="M629.048,-211.61C656.07,-217.014 687.818,-223.364 713.4,-228.48"/>
<polygon fill="midnightblue" stroke="midnightblue" points="629.437,-208.118 618.945,-209.589 628.064,-214.982 629.437,-208.118"/>
</g>
<!-- Node24&#45;&gt;Node4 -->
<g id="edge29" class="edge"><title>Node24&#45;&gt;Node4</title>
<path fill="none" stroke="midnightblue" d="M1156.15,-10.6315C1194.87,-12.9699 1244.14,-19.4308 1285,-36 1302.3,-43.0143 1319.07,-56.8858 1329.21,-66.3029"/>
<polygon fill="midnightblue" stroke="midnightblue" points="1156.21,-7.12964 1146.04,-10.0991 1155.84,-14.12 1156.21,-7.12964"/>
</g>
</g>
</svg>
        <g id="navigator" transform="translate(0 0)" fill="#404254">
                <rect fill="#f2f5e9" fill-opacity="0.5" stroke="#606060" stroke-width=".5" x="0" y="0" width="60" height="60"/>
                <use id="zoomplus" xlink:href="#zoomPlus" x="17" y="9" onmousedown="handleZoom(evt,'in')"/>
                <use id="zoomminus" xlink:href="#zoomMin" x="42" y="9" onmousedown="handleZoom(evt,'out')"/>
                <use id="reset" xlink:href="#resetDef" x="30" y="36" onmousedown="handleReset()"/>
                <g id="arrowUp" xlink:href="#dirArrow" transform="translate(30 24)" onmousedown="handlePan(0,-1)">
                  <use xlink:href="#rim" fill="#404040">
                        <set attributeName="fill" to="#808080" begin="arrowUp.mouseover" end="arrowUp.mouseout"/>
                  </use>
                  <path fill="none" stroke="white" stroke-width="1.5" d="M0,-3.0v7 M-2.5,-0.5L0,-3.0L2.5,-0.5"/>
                </g>
                <g id="arrowRight" xlink:href="#dirArrow" transform="rotate(90) translate(36 -43)" onmousedown="handlePan(1,0)">
                  <use xlink:href="#rim" fill="#404040">
                        <set attributeName="fill" to="#808080" begin="arrowRight.mouseover" end="arrowRight.mouseout"/>
                  </use>
                  <path fill="none" stroke="white" stroke-width="1.5" d="M0,-3.0v7 M-2.5,-0.5L0,-3.0L2.5,-0.5"/>
                </g>
                <g id="arrowDown" xlink:href="#dirArrow" transform="rotate(180) translate(-30 -48)" onmousedown="handlePan(0,1)">
                  <use xlink:href="#rim" fill="#404040">
                        <set attributeName="fill" to="#808080" begin="arrowDown.mouseover" end="arrowDown.mouseout"/>
                  </use>
                  <path fill="none" stroke="white" stroke-width="1.5" d="M0,-3.0v7 M-2.5,-0.5L0,-3.0L2.5,-0.5"/>
                </g>
                <g id="arrowLeft" xlink:href="#dirArrow" transform="rotate(270) translate(-36 17)" onmousedown="handlePan(-1,0)">
                  <use xlink:href="#rim" fill="#404040">
                        <set attributeName="fill" to="#808080" begin="arrowLeft.mouseover" end="arrowLeft.mouseout"/>
                  </use>
                  <path fill="none" stroke="white" stroke-width="1.5" d="M0,-3.0v7 M-2.5,-0.5L0,-3.0L2.5,-0.5"/>
                </g>
        </g>
        <svg viewBox="0 0 15 15" width="100%" height="30px" preserveAspectRatio="xMaxYMin meet">
         <g id="arrow_out" transform="scale(0.3 0.3)">
          <a xlink:href="generic__networkhandler_8h_a1bfa5ef8e4802716459a56567ee16592_icgraph_org.svg" target="_base">
           <rect id="button" ry="5" rx="5" y="6" x="6" height="38" width="38"
                fill="#f2f5e9" fill-opacity="0.5" stroke="#606060" stroke-width="1.0"/>
           <path id="arrow"
             d="M 11.500037,31.436501 C 11.940474,20.09759 22.043105,11.32322 32.158766,21.979434 L 37.068811,17.246167 C 37.068811,17.246167 37.088388,32 37.088388,32 L 22.160133,31.978069 C 22.160133,31.978069 26.997745,27.140456 26.997745,27.140456 C 18.528582,18.264221 13.291696,25.230495 11.500037,31.436501 z"
             style="fill:#404040;"/>
          </a>
         </g>
        </svg>
</svg>
