<?xml version="1.0" encoding="UTF-8" standalone="no"?>
<!DOCTYPE svg PUBLIC "-//W3C//DTD SVG 1.1//EN"
 "http://www.w3.org/Graphics/SVG/1.1/DTD/svg11.dtd">
<!-- Generated by graphviz version 2.38.0 (20140413.2041)
 -->
<!-- Title: NetworkHandlerInitialize Pages: 1 -->
<svg width="429pt" height="382pt"
 viewBox="0.00 0.00 429.00 382.00" xmlns="http://www.w3.org/2000/svg" xmlns:xlink="http://www.w3.org/1999/xlink">
<g id="graph0" class="graph" transform="scale(1 1) rotate(0) translate(4 378)">
<title>NetworkHandlerInitialize</title>
<!-- Node1 -->
<g id="node1" class="node"><title>Node1</title>
<polygon fill="#bfbfbf" stroke="black" points="0,-183.5 0,-202.5 123,-202.5 123,-183.5 0,-183.5"/>
<text text-anchor="middle" x="61.5" y="-190.5" font-family="Helvetica,sans-Serif" font-size="10.00">NetworkHandlerInitialize</text>
</g>
<!-- Node2 -->
<g id="node2" class="node"><title>Node2</title>
<g id="a_node2"><a xlink:href="../../d8/d60/MINGW_2opener__error_8c.html#a99f5295ad12a2b986bab4b89a24cfc20" target="_top" xlink:title="Frees the space of the error message generated by GetErrorMessage(int) ">
<polygon fill="none" stroke="black" points="176,-354.5 176,-373.5 273,-373.5 273,-354.5 176,-354.5"/>
<text text-anchor="middle" x="224.5" y="-361.5" font-family="Helvetica,sans-Serif" font-size="10.00">FreeErrorMessage</text>
</a>
</g>
</g>
<!-- Node1&#45;&gt;Node2 -->
<g id="edge1" class="edge"><title>Node1&#45;&gt;Node2</title>
<path fill="none" stroke="midnightblue" d="M65.788,-202.513C75.5237,-229.252 106.827,-305.683 159,-345 161.484,-346.872 164.149,-348.56 166.931,-350.082"/>
<polygon fill="midnightblue" stroke="midnightblue" points="165.595,-353.321 176.135,-354.4 168.569,-346.984 165.595,-353.321"/>
</g>
<!-- Node3 -->
<g id="node3" class="node"><title>Node3</title>
<g id="a_node3"><a xlink:href="../../d8/d60/MINGW_2opener__error_8c.html#a0df2625909cb28076bc7df8e6c9cfcae" target="_top" xlink:title="Returns a human readable message for the given error number. ">
<polygon fill="none" stroke="black" points="178,-316.5 178,-335.5 271,-335.5 271,-316.5 178,-316.5"/>
<text text-anchor="middle" x="224.5" y="-323.5" font-family="Helvetica,sans-Serif" font-size="10.00">GetErrorMessage</text>
</a>
</g>
</g>
<!-- Node1&#45;&gt;Node3 -->
<g id="edge2" class="edge"><title>Node1&#45;&gt;Node3</title>
<path fill="none" stroke="midnightblue" d="M67.9016,-202.585C80.7459,-224.498 115.329,-278.55 159,-307 162.17,-309.065 165.57,-310.912 169.093,-312.562"/>
<polygon fill="midnightblue" stroke="midnightblue" points="168.047,-315.917 178.627,-316.488 170.713,-309.444 168.047,-315.917"/>
</g>
<!-- Node4 -->
<g id="node4" class="node"><title>Node4</title>
<g id="a_node4"><a xlink:href="../../db/d4f/generic__networkhandler_8c.html#afd95c5a901db3aca5977f359ccd95aa2" target="_top" xlink:title="Returns the socket with the highest id. ">
<polygon fill="none" stroke="black" points="183.5,-278.5 183.5,-297.5 265.5,-297.5 265.5,-278.5 183.5,-278.5"/>
<text text-anchor="middle" x="224.5" y="-285.5" font-family="Helvetica,sans-Serif" font-size="10.00">GetMaxSocket</text>
</a>
</g>
</g>
<!-- Node1&#45;&gt;Node4 -->
<g id="edge3" class="edge"><title>Node1&#45;&gt;Node4</title>
<path fill="none" stroke="midnightblue" d="M72.0304,-202.599C88.4096,-218.582 123.569,-250.699 159,-269 163.614,-271.383 168.572,-273.512 173.615,-275.402"/>
<polygon fill="midnightblue" stroke="midnightblue" points="172.755,-278.808 183.35,-278.749 175.031,-272.188 172.755,-278.808"/>
</g>
<!-- Node5 -->
<g id="node5" class="node"><title>Node5</title>
<g id="a_node5"><a xlink:href="../../d3/de3/MINGW_2networkhandler_8c.html#a2d91de751b888e7b5a5c2e2692fd4492" target="_top" xlink:title="Returns current time in milliseconds from monotonic time base, please note that this does not represe...">
<polygon fill="none" stroke="black" points="180.5,-240.5 180.5,-259.5 268.5,-259.5 268.5,-240.5 180.5,-240.5"/>
<text text-anchor="middle" x="224.5" y="-247.5" font-family="Helvetica,sans-Serif" font-size="10.00">GetMilliSeconds</text>
</a>
</g>
</g>
<!-- Node1&#45;&gt;Node5 -->
<g id="edge4" class="edge"><title>Node1&#45;&gt;Node5</title>
<path fill="none" stroke="midnightblue" d="M85.2946,-202.638C104.716,-210.689 133.456,-222.228 159,-231 165.454,-233.216 172.323,-235.411 179.081,-237.479"/>
<polygon fill="midnightblue" stroke="midnightblue" points="178.259,-240.886 188.843,-240.404 180.269,-234.181 178.259,-240.886"/>
</g>
<!-- Node6 -->
<g id="node6" class="node"><title>Node6</title>
<g id="a_node6"><a xlink:href="../../dd/d34/cipqos_8c.html#a6fa85e635fcd14e9797254ec3a5bb95e" target="_top" xlink:title="Initializing the data structures of the TCP/IP interface object. ">
<polygon fill="none" stroke="black" points="170.5,-202.5 170.5,-221.5 278.5,-221.5 278.5,-202.5 170.5,-202.5"/>
<text text-anchor="middle" x="224.5" y="-209.5" font-family="Helvetica,sans-Serif" font-size="10.00">GetPriorityForSocket</text>
</a>
</g>
</g>
<!-- Node1&#45;&gt;Node6 -->
<g id="edge5" class="edge"><title>Node1&#45;&gt;Node6</title>
<path fill="none" stroke="midnightblue" d="M123.367,-200.183C135.472,-201.612 148.208,-203.115 160.386,-204.552"/>
<polygon fill="midnightblue" stroke="midnightblue" points="160.117,-208.044 170.458,-205.74 160.938,-201.092 160.117,-208.044"/>
</g>
<!-- Node7 -->
<g id="node7" class="node"><title>Node7</title>
<g id="a_node7"><a xlink:href="../../d8/d60/MINGW_2opener__error_8c.html#afbc52bcd5256264e75ba063f2e361e24" target="_top" xlink:title="Gets the error number or equivalent. ">
<polygon fill="none" stroke="black" points="165,-164.5 165,-183.5 284,-183.5 284,-164.5 165,-164.5"/>
<text text-anchor="middle" x="224.5" y="-171.5" font-family="Helvetica,sans-Serif" font-size="10.00">GetSocketErrorNumber</text>
</a>
</g>
</g>
<!-- Node1&#45;&gt;Node7 -->
<g id="edge6" class="edge"><title>Node1&#45;&gt;Node7</title>
<path fill="none" stroke="midnightblue" d="M123.367,-185.817C133.692,-184.598 144.475,-183.326 154.98,-182.086"/>
<polygon fill="midnightblue" stroke="midnightblue" points="155.422,-185.558 164.943,-180.91 154.602,-178.607 155.422,-185.558"/>
</g>
<!-- Node8 -->
<g id="node8" class="node"><title>Node8</title>
<g id="a_node8"><a xlink:href="../../d3/de3/MINGW_2networkhandler_8c.html#a443a5019c1bb91b2490f96b0d0158e04" target="_top" xlink:title="Executes platform dependent network handler initialization code. ">
<polygon fill="none" stroke="black" points="163,-115 163,-145 286,-145 286,-115 163,-115"/>
<text text-anchor="start" x="171" y="-133" font-family="Helvetica,sans-Serif" font-size="10.00">NetworkHandlerInitialize</text>
<text text-anchor="middle" x="224.5" y="-122" font-family="Helvetica,sans-Serif" font-size="10.00">Platform</text>
</a>
</g>
</g>
<!-- Node1&#45;&gt;Node8 -->
<g id="edge7" class="edge"><title>Node1&#45;&gt;Node8</title>
<path fill="none" stroke="midnightblue" d="M86.6774,-183.438C106.187,-175.732 134.346,-164.632 159,-155 164.174,-152.979 169.583,-150.872 174.974,-148.776"/>
<polygon fill="midnightblue" stroke="midnightblue" points="176.549,-151.919 184.604,-145.037 174.015,-145.394 176.549,-151.919"/>
</g>
<!-- Node9 -->
<g id="node9" class="node"><title>Node9</title>
<g id="a_node9"><a xlink:href="../../d3/de3/MINGW_2networkhandler_8c.html#a20a53fded2d3f1e17272dbc7185988fd" target="_top" xlink:title="Sets QoS on socket. ">
<polygon fill="none" stroke="black" points="178,-76.5 178,-95.5 271,-95.5 271,-76.5 178,-76.5"/>
<text text-anchor="middle" x="224.5" y="-83.5" font-family="Helvetica,sans-Serif" font-size="10.00">SetQosOnSocket</text>
</a>
</g>
</g>
<!-- Node1&#45;&gt;Node9 -->
<g id="edge8" class="edge"><title>Node1&#45;&gt;Node9</title>
<path fill="none" stroke="midnightblue" d="M70.5196,-183.421C85.8961,-165.644 121.355,-127.413 159,-106 163.533,-103.421 168.439,-101.135 173.45,-99.1173"/>
<polygon fill="midnightblue" stroke="midnightblue" points="174.963,-102.29 183.147,-95.5617 172.554,-95.7181 174.963,-102.29"/>
</g>
<!-- Node10 -->
<g id="node10" class="node"><title>Node10</title>
<g id="a_node10"><a xlink:href="../../d3/de3/MINGW_2networkhandler_8c.html#a4af2b184144f7d807e8157ee8b474ecf" target="_top" xlink:title="Tries to set socket to non blocking behavior. ">
<polygon fill="none" stroke="black" points="160,-38.5 160,-57.5 289,-57.5 289,-38.5 160,-38.5"/>
<text text-anchor="middle" x="224.5" y="-45.5" font-family="Helvetica,sans-Serif" font-size="10.00">SetSocketToNonBlocking</text>
</a>
</g>
</g>
<!-- Node1&#45;&gt;Node10 -->
<g id="edge9" class="edge"><title>Node1&#45;&gt;Node10</title>
<path fill="none" stroke="midnightblue" d="M67.0921,-183.455C78.8988,-159.94 112.667,-98.8235 159,-67 161.927,-64.9894 165.07,-63.1883 168.335,-61.5753"/>
<polygon fill="midnightblue" stroke="midnightblue" points="169.982,-64.6771 177.785,-57.5101 167.215,-58.2468 169.982,-64.6771"/>
</g>
<!-- Node11 -->
<g id="node11" class="node"><title>Node11</title>
<g id="a_node11"><a xlink:href="../../d4/df6/socket__timer_8c.html#a187bcd772200d8f1e4e937cb3a587782" target="_top" xlink:title="Initializes an array of Socket Timer entries. ">
<polygon fill="none" stroke="black" points="159,-0.5 159,-19.5 290,-19.5 290,-0.5 159,-0.5"/>
<text text-anchor="middle" x="224.5" y="-7.5" font-family="Helvetica,sans-Serif" font-size="10.00">SocketTimerArrayInitialize</text>
</a>
</g>
</g>
<!-- Node1&#45;&gt;Node11 -->
<g id="edge10" class="edge"><title>Node1&#45;&gt;Node11</title>
<path fill="none" stroke="midnightblue" d="M65.4301,-183.152C74.4097,-154.697 104.31,-71.6828 159,-29 161.329,-27.182 163.829,-25.5378 166.442,-24.0507"/>
<polygon fill="midnightblue" stroke="midnightblue" points="168.207,-27.0849 175.681,-19.5761 165.156,-20.7848 168.207,-27.0849"/>
</g>
<!-- Node12 -->
<g id="node12" class="node"><title>Node12</title>
<g id="a_node12"><a xlink:href="../../d4/df6/socket__timer_8c.html#a6130830815ae46fe4e6d45cf89bc3506" target="_top" xlink:title="Clears a Socket Timer entry. ">
<polygon fill="none" stroke="black" points="326,-0.5 326,-19.5 421,-19.5 421,-0.5 326,-0.5"/>
<text text-anchor="middle" x="373.5" y="-7.5" font-family="Helvetica,sans-Serif" font-size="10.00">SocketTimerClear</text>
</a>
</g>
</g>
<!-- Node11&#45;&gt;Node12 -->
<g id="edge11" class="edge"><title>Node11&#45;&gt;Node12</title>
<path fill="none" stroke="midnightblue" d="M290.404,-10C298.732,-10 307.21,-10 315.401,-10"/>
<polygon fill="midnightblue" stroke="midnightblue" points="315.59,-13.5001 325.59,-10 315.59,-6.5001 315.59,-13.5001"/>
</g>
</g>
</svg>
