<?xml version="1.0" encoding="UTF-8" standalone="no"?>
<!DOCTYPE svg PUBLIC "-//W3C//DTD SVG 1.1//EN"
 "http://www.w3.org/Graphics/SVG/1.1/DTD/svg11.dtd">
<!-- Generated by graphviz version 2.38.0 (20140413.2041)
 -->
<!-- Title: src/cip/appcontype.c Pages: 1 -->
<!--zoomable 476 -->
<svg id="main" version="1.1" xmlns="http://www.w3.org/2000/svg" xmlns:xlink="http://www.w3.org/1999/xlink" xml:space="preserve" onload="init(evt)">
<style type="text/css"><![CDATA[
.edge:hover path { stroke: red; }
.edge:hover polygon { stroke: red; fill: red; }
]]></style>
<script type="text/javascript"><![CDATA[
var edges = document.getElementsByTagName('g');
if (edges && edges.length) {
  for (var i=0;i<edges.length;i++) {
    if (edges[i].id.substr(0,4)=='edge') {
      edges[i].setAttribute('class','edge');
    }
  }
}
]]></script>
        <defs>
                <circle id="rim" cx="0" cy="0" r="7"/>
                <circle id="rim2" cx="0" cy="0" r="3.5"/>
                <g id="zoomPlus">
                        <use xlink:href="#rim" fill="#404040">
                                <set attributeName="fill" to="#808080" begin="zoomplus.mouseover" end="zoomplus.mouseout"/>
                        </use>
                        <path d="M-4,0h8M0,-4v8" fill="none" stroke="white" stroke-width="1.5" pointer-events="none"/>
                </g>
                <g id="zoomMin">
                        <use xlink:href="#rim" fill="#404040">
                                <set attributeName="fill" to="#808080" begin="zoomminus.mouseover" end="zoomminus.mouseout"/>
                        </use>
                        <path d="M-4,0h8" fill="none" stroke="white" stroke-width="1.5" pointer-events="none"/>
                </g>
                <g id="dirArrow">
                        <path fill="none" stroke="white" stroke-width="1.5" d="M0,-3.0v7 M-2.5,-0.5L0,-3.0L2.5,-0.5"/>
                </g>
               <g id="resetDef">
                       <use xlink:href="#rim2" fill="#404040">
                               <set attributeName="fill" to="#808080" begin="reset.mouseover" end="reset.mouseout"/>
                       </use>
               </g>
        </defs>

<script type="text/javascript">
var viewWidth = 793;
var viewHeight = 476;
var sectionId = 'dynsection-0';
</script>
<script xlink:href="../../svgpan.js"/>
<svg id="graph" class="graph">
<g id="viewport">
<title>src/cip/appcontype.c</title>
<!-- Node1 -->
<g id="node1" class="node"><title>Node1</title>
<polygon fill="#bfbfbf" stroke="black" points="286.5,-448.5 286.5,-467.5 393.5,-467.5 393.5,-448.5 286.5,-448.5"/>
<text text-anchor="middle" x="340" y="-455.5" font-family="Helvetica,sans-Serif" font-size="10.00">src/cip/appcontype.c</text>
</g>
<!-- Node2 -->
<g id="node2" class="node"><title>Node2</title>
<polygon fill="none" stroke="#bfbfbf" points="82.5,-392.5 82.5,-411.5 131.5,-411.5 131.5,-392.5 82.5,-392.5"/>
<text text-anchor="middle" x="107" y="-399.5" font-family="Helvetica,sans-Serif" font-size="10.00">string.h</text>
</g>
<!-- Node1&#45;&gt;Node2 -->
<g id="edge1" class="edge"><title>Node1&#45;&gt;Node2</title>
<path fill="none" stroke="midnightblue" d="M303.08,-448.444C258.651,-438.147 184.641,-420.994 141.377,-410.967"/>
<polygon fill="midnightblue" stroke="midnightblue" points="142.128,-407.549 131.596,-408.7 140.547,-414.368 142.128,-407.549"/>
</g>
<!-- Node3 -->
<g id="node3" class="node"><title>Node3</title>
<g id="a_node3"><a xlink:href="../../d1/dc0/appcontype_8h.html" target="_top" xlink:title="appcontype.h">
<polygon fill="none" stroke="black" points="335.5,-392.5 335.5,-411.5 410.5,-411.5 410.5,-392.5 335.5,-392.5"/>
<text text-anchor="middle" x="373" y="-399.5" font-family="Helvetica,sans-Serif" font-size="10.00">appcontype.h</text>
</a>
</g>
</g>
<!-- Node1&#45;&gt;Node3 -->
<g id="edge2" class="edge"><title>Node1&#45;&gt;Node3</title>
<path fill="none" stroke="midnightblue" d="M345.449,-448.083C350.014,-440.613 356.668,-429.724 362.293,-420.52"/>
<polygon fill="midnightblue" stroke="midnightblue" points="365.424,-422.109 367.652,-411.751 359.451,-418.459 365.424,-422.109"/>
</g>
<!-- Node4 -->
<g id="node4" class="node"><title>Node4</title>
<g id="a_node4"><a xlink:href="../../d2/da3/cipconnectionmanager_8h.html" target="_top" xlink:title="cipconnectionmanager.h">
<polygon fill="none" stroke="black" points="344,-336.5 344,-355.5 466,-355.5 466,-336.5 344,-336.5"/>
<text text-anchor="middle" x="405" y="-343.5" font-family="Helvetica,sans-Serif" font-size="10.00">cipconnectionmanager.h</text>
</a>
</g>
</g>
<!-- Node1&#45;&gt;Node4 -->
<g id="edge36" class="edge"><title>Node1&#45;&gt;Node4</title>
<path fill="none" stroke="midnightblue" d="M370.247,-448.488C388.125,-441.726 409.3,-430.295 420,-412 428.563,-397.359 422.419,-378.197 415.593,-364.478"/>
<polygon fill="midnightblue" stroke="midnightblue" points="418.591,-362.666 410.703,-355.593 412.459,-366.041 418.591,-362.666"/>
</g>
<!-- Node6 -->
<g id="node6" class="node"><title>Node6</title>
<g id="a_node6"><a xlink:href="../../d4/d38/opener__api_8h.html" target="_top" xlink:title="opener_api.h">
<polygon fill="none" stroke="black" points="188,-224.5 188,-243.5 260,-243.5 260,-224.5 188,-224.5"/>
<text text-anchor="middle" x="224" y="-231.5" font-family="Helvetica,sans-Serif" font-size="10.00">opener_api.h</text>
</a>
</g>
</g>
<!-- Node1&#45;&gt;Node6 -->
<g id="edge38" class="edge"><title>Node1&#45;&gt;Node6</title>
<path fill="none" stroke="midnightblue" d="M335.453,-448.297C318.24,-415.356 256.866,-297.898 233.304,-252.805"/>
<polygon fill="midnightblue" stroke="midnightblue" points="236.375,-251.126 228.642,-243.884 230.171,-254.368 236.375,-251.126"/>
</g>
<!-- Node7 -->
<g id="node7" class="node"><title>Node7</title>
<polygon fill="none" stroke="#bfbfbf" points="0,-168.5 0,-187.5 52,-187.5 52,-168.5 0,-168.5"/>
<text text-anchor="middle" x="26" y="-175.5" font-family="Helvetica,sans-Serif" font-size="10.00">assert.h</text>
</g>
<!-- Node1&#45;&gt;Node7 -->
<g id="edge39" class="edge"><title>Node1&#45;&gt;Node7</title>
<path fill="none" stroke="midnightblue" d="M289.381,-448.425C236.141,-436.168 160,-407.978 160,-347 160,-347 160,-347 160,-289 160,-237.976 101.24,-206.293 61.542,-190.709"/>
<polygon fill="midnightblue" stroke="midnightblue" points="62.7467,-187.423 52.1547,-187.181 60.284,-193.976 62.7467,-187.423"/>
</g>
<!-- Node17 -->
<g id="node17" class="node"><title>Node17</title>
<g id="a_node17"><a xlink:href="../../d1/d6c/cipconnectionobject_8h.html" target="_top" xlink:title="cipconnectionobject.h">
<polygon fill="none" stroke="black" points="439.5,-280.5 439.5,-299.5 550.5,-299.5 550.5,-280.5 439.5,-280.5"/>
<text text-anchor="middle" x="495" y="-287.5" font-family="Helvetica,sans-Serif" font-size="10.00">cipconnectionobject.h</text>
</a>
</g>
</g>
<!-- Node1&#45;&gt;Node17 -->
<g id="edge37" class="edge"><title>Node1&#45;&gt;Node17</title>
<path fill="none" stroke="midnightblue" d="M367.838,-448.353C388.279,-441.018 415.875,-428.965 436,-412 468.053,-384.98 484.154,-336.419 490.922,-309.77"/>
<polygon fill="midnightblue" stroke="midnightblue" points="494.38,-310.353 493.27,-299.817 487.567,-308.746 494.38,-310.353"/>
</g>
<!-- Node20 -->
<g id="node20" class="node"><title>Node20</title>
<g id="a_node20"><a xlink:href="../../d1/d02/cipepath_8h.html" target="_top" xlink:title="cipepath.h">
<polygon fill="none" stroke="black" points="278,-224.5 278,-243.5 340,-243.5 340,-224.5 278,-224.5"/>
<text text-anchor="middle" x="309" y="-231.5" font-family="Helvetica,sans-Serif" font-size="10.00">cipepath.h</text>
</a>
</g>
</g>
<!-- Node1&#45;&gt;Node20 -->
<g id="edge41" class="edge"><title>Node1&#45;&gt;Node20</title>
<path fill="none" stroke="midnightblue" d="M337.042,-448.485C334.045,-439.518 329.505,-424.934 327,-412 315.964,-355.014 311.431,-286.313 309.8,-253.804"/>
<polygon fill="midnightblue" stroke="midnightblue" points="313.285,-253.38 309.324,-243.554 306.292,-253.705 313.285,-253.38"/>
</g>
<!-- Node21 -->
<g id="node21" class="node"><title>Node21</title>
<g id="a_node21"><a xlink:href="../../d1/d1b/trace_8h.html" target="_top" xlink:title="Tracing infrastructure for OpENer. ">
<polygon fill="none" stroke="black" points="522.5,-392.5 522.5,-411.5 569.5,-411.5 569.5,-392.5 522.5,-392.5"/>
<text text-anchor="middle" x="546" y="-399.5" font-family="Helvetica,sans-Serif" font-size="10.00">trace.h</text>
</a>
</g>
</g>
<!-- Node1&#45;&gt;Node21 -->
<g id="edge40" class="edge"><title>Node1&#45;&gt;Node21</title>
<path fill="none" stroke="midnightblue" d="M372.641,-448.444C410.966,-438.397 474.185,-421.825 512.765,-411.712"/>
<polygon fill="midnightblue" stroke="midnightblue" points="513.696,-415.086 522.482,-409.165 511.921,-408.315 513.696,-415.086"/>
</g>
<!-- Node3&#45;&gt;Node4 -->
<g id="edge3" class="edge"><title>Node3&#45;&gt;Node4</title>
<path fill="none" stroke="midnightblue" d="M378.284,-392.083C382.711,-384.613 389.163,-373.724 394.618,-364.52"/>
<polygon fill="midnightblue" stroke="midnightblue" points="397.727,-366.138 399.814,-355.751 391.705,-362.57 397.727,-366.138"/>
</g>
<!-- Node5 -->
<g id="node5" class="node"><title>Node5</title>
<polygon fill="none" stroke="#bfbfbf" points="658,-56.5 658,-75.5 760,-75.5 760,-56.5 658,-56.5"/>
<text text-anchor="middle" x="709" y="-63.5" font-family="Helvetica,sans-Serif" font-size="10.00">opener_user_conf.h</text>
</g>
<!-- Node4&#45;&gt;Node5 -->
<g id="edge4" class="edge"><title>Node4&#45;&gt;Node5</title>
<path fill="none" stroke="midnightblue" d="M466.054,-340.012C573.471,-329.54 785,-300.59 785,-235 785,-235 785,-235 785,-177 785,-137.276 751.036,-101.504 728.518,-82.1536"/>
<polygon fill="midnightblue" stroke="midnightblue" points="730.482,-79.2364 720.543,-75.5672 726.024,-84.6337 730.482,-79.2364"/>
</g>
<!-- Node4&#45;&gt;Node6 -->
<g id="edge5" class="edge"><title>Node4&#45;&gt;Node6</title>
<path fill="none" stroke="midnightblue" d="M390.797,-336.368C359.605,-317.412 284.883,-272.001 246.942,-248.942"/>
<polygon fill="midnightblue" stroke="midnightblue" points="248.5,-245.794 238.137,-243.591 244.865,-251.776 248.5,-245.794"/>
</g>
<!-- Node9 -->
<g id="node9" class="node"><title>Node9</title>
<g id="a_node9"><a xlink:href="../../d7/d69/typedefs_8h.html" target="_top" xlink:title="typedefs.h">
<polygon fill="none" stroke="black" points="372,-56.5 372,-75.5 434,-75.5 434,-56.5 372,-56.5"/>
<text text-anchor="middle" x="403" y="-63.5" font-family="Helvetica,sans-Serif" font-size="10.00">typedefs.h</text>
</a>
</g>
</g>
<!-- Node4&#45;&gt;Node9 -->
<g id="edge21" class="edge"><title>Node4&#45;&gt;Node9</title>
<path fill="none" stroke="midnightblue" d="M404.938,-336.375C404.66,-297.782 403.528,-140.454 403.135,-85.8074"/>
<polygon fill="midnightblue" stroke="midnightblue" points="406.633,-85.4988 403.061,-75.5243 399.633,-85.5492 406.633,-85.4988"/>
</g>
<!-- Node13 -->
<g id="node13" class="node"><title>Node13</title>
<g id="a_node13"><a xlink:href="../../df/d28/ciptypes_8h.html" target="_top" xlink:title="ciptypes.h">
<polygon fill="none" stroke="black" points="465,-168.5 465,-187.5 527,-187.5 527,-168.5 465,-168.5"/>
<text text-anchor="middle" x="496" y="-175.5" font-family="Helvetica,sans-Serif" font-size="10.00">ciptypes.h</text>
</a>
</g>
</g>
<!-- Node4&#45;&gt;Node13 -->
<g id="edge22" class="edge"><title>Node4&#45;&gt;Node13</title>
<path fill="none" stroke="midnightblue" d="M407.862,-336.356C412.192,-323.68 420.972,-299.444 431,-280 447.008,-248.962 469.89,-215.308 483.801,-195.745"/>
<polygon fill="midnightblue" stroke="midnightblue" points="486.677,-197.739 489.672,-187.576 480.993,-193.654 486.677,-197.739"/>
</g>
<!-- Node4&#45;&gt;Node17 -->
<g id="edge23" class="edge"><title>Node4&#45;&gt;Node17</title>
<path fill="none" stroke="midnightblue" d="M419.46,-336.324C433.5,-327.9 455.048,-314.971 471.543,-305.074"/>
<polygon fill="midnightblue" stroke="midnightblue" points="473.802,-307.801 480.576,-299.655 470.2,-301.798 473.802,-307.801"/>
</g>
<!-- Node6&#45;&gt;Node7 -->
<g id="edge6" class="edge"><title>Node6&#45;&gt;Node7</title>
<path fill="none" stroke="midnightblue" d="M192.626,-224.444C157.143,-214.766 99.4567,-199.034 62.1232,-188.852"/>
<polygon fill="midnightblue" stroke="midnightblue" points="62.7369,-185.391 52.1683,-186.137 60.8951,-192.145 62.7369,-185.391"/>
</g>
<!-- Node8 -->
<g id="node8" class="node"><title>Node8</title>
<polygon fill="none" stroke="#bfbfbf" points="204,-0.5 204,-19.5 260,-19.5 260,-0.5 204,-0.5"/>
<text text-anchor="middle" x="232" y="-7.5" font-family="Helvetica,sans-Serif" font-size="10.00">stdbool.h</text>
</g>
<!-- Node6&#45;&gt;Node8 -->
<g id="edge7" class="edge"><title>Node6&#45;&gt;Node8</title>
<path fill="none" stroke="midnightblue" d="M187.99,-224.898C154.923,-216.641 109.511,-202.955 99,-188 93.8888,-180.728 95.9402,-176.346 99,-168 121.817,-105.766 181.431,-51.2664 212.513,-25.9849"/>
<polygon fill="midnightblue" stroke="midnightblue" points="214.828,-28.6154 220.468,-19.6468 210.466,-23.1405 214.828,-28.6154"/>
</g>
<!-- Node6&#45;&gt;Node9 -->
<g id="edge8" class="edge"><title>Node6&#45;&gt;Node9</title>
<path fill="none" stroke="midnightblue" d="M223.287,-224.342C221.985,-202.426 221.732,-144.213 252,-112 280.264,-81.9199 327.669,-71.6657 361.831,-68.3161"/>
<polygon fill="midnightblue" stroke="midnightblue" points="362.292,-71.7902 371.972,-67.484 361.719,-64.8136 362.292,-71.7902"/>
</g>
<!-- Node6&#45;&gt;Node13 -->
<g id="edge13" class="edge"><title>Node6&#45;&gt;Node13</title>
<path fill="none" stroke="midnightblue" d="M260.348,-225.725C263.275,-225.141 266.187,-224.56 269,-224 333.886,-211.08 409.223,-196.162 454.717,-187.162"/>
<polygon fill="midnightblue" stroke="midnightblue" points="455.655,-190.544 464.786,-185.17 454.297,-183.677 455.655,-190.544"/>
</g>
<!-- Node16 -->
<g id="node16" class="node"><title>Node16</title>
<g id="a_node16"><a xlink:href="../../d6/d52/ciperror_8h.html" target="_top" xlink:title="ciperror.h">
<polygon fill="none" stroke="black" points="108.5,-168.5 108.5,-187.5 165.5,-187.5 165.5,-168.5 108.5,-168.5"/>
<text text-anchor="middle" x="137" y="-175.5" font-family="Helvetica,sans-Serif" font-size="10.00">ciperror.h</text>
</a>
</g>
</g>
<!-- Node6&#45;&gt;Node16 -->
<g id="edge20" class="edge"><title>Node6&#45;&gt;Node16</title>
<path fill="none" stroke="midnightblue" d="M210.022,-224.324C196.45,-215.9 175.62,-202.971 159.675,-193.074"/>
<polygon fill="midnightblue" stroke="midnightblue" points="161.286,-189.954 150.943,-187.655 157.594,-195.902 161.286,-189.954"/>
</g>
<!-- Node9&#45;&gt;Node8 -->
<g id="edge11" class="edge"><title>Node9&#45;&gt;Node8</title>
<path fill="none" stroke="midnightblue" d="M375.905,-56.4435C347.012,-47.3196 301.075,-32.8133 268.895,-22.6509"/>
<polygon fill="midnightblue" stroke="midnightblue" points="269.559,-19.1903 258.969,-19.5164 267.451,-25.8654 269.559,-19.1903"/>
</g>
<!-- Node10 -->
<g id="node10" class="node"><title>Node10</title>
<polygon fill="none" stroke="#bfbfbf" points="437.5,-0.5 437.5,-19.5 496.5,-19.5 496.5,-0.5 437.5,-0.5"/>
<text text-anchor="middle" x="467" y="-7.5" font-family="Helvetica,sans-Serif" font-size="10.00">inttypes.h</text>
</g>
<!-- Node9&#45;&gt;Node10 -->
<g id="edge9" class="edge"><title>Node9&#45;&gt;Node10</title>
<path fill="none" stroke="midnightblue" d="M413.283,-56.324C422.836,-48.2631 437.28,-36.0765 448.784,-26.3695"/>
<polygon fill="midnightblue" stroke="midnightblue" points="451.144,-28.9577 456.53,-19.8339 446.63,-23.6076 451.144,-28.9577"/>
</g>
<!-- Node11 -->
<g id="node11" class="node"><title>Node11</title>
<polygon fill="none" stroke="#bfbfbf" points="515,-0.5 515,-19.5 567,-19.5 567,-0.5 515,-0.5"/>
<text text-anchor="middle" x="541" y="-7.5" font-family="Helvetica,sans-Serif" font-size="10.00">stddef.h</text>
</g>
<!-- Node9&#45;&gt;Node11 -->
<g id="edge10" class="edge"><title>Node9&#45;&gt;Node11</title>
<path fill="none" stroke="midnightblue" d="M424.867,-56.4435C447.779,-47.4776 483.975,-33.314 509.866,-23.1827"/>
<polygon fill="midnightblue" stroke="midnightblue" points="511.199,-26.4198 519.236,-19.5164 508.648,-19.9011 511.199,-26.4198"/>
</g>
<!-- Node12 -->
<g id="node12" class="node"><title>Node12</title>
<polygon fill="none" stroke="#bfbfbf" points="278.5,-0.5 278.5,-19.5 419.5,-19.5 419.5,-0.5 278.5,-0.5"/>
<text text-anchor="middle" x="349" y="-7.5" font-family="Helvetica,sans-Serif" font-size="10.00">platform_network_includes.h</text>
</g>
<!-- Node9&#45;&gt;Node12 -->
<g id="edge12" class="edge"><title>Node9&#45;&gt;Node12</title>
<path fill="none" stroke="midnightblue" d="M394.083,-56.083C386.22,-48.2195 374.569,-36.5688 365.081,-27.0813"/>
<polygon fill="midnightblue" stroke="midnightblue" points="367.297,-24.3473 357.751,-19.7511 362.347,-29.2971 367.297,-24.3473"/>
</g>
<!-- Node13&#45;&gt;Node5 -->
<g id="edge19" class="edge"><title>Node13&#45;&gt;Node5</title>
<path fill="none" stroke="midnightblue" d="M527.145,-173.298C560.254,-168.212 613.097,-156.709 652,-132 671.331,-119.722 687.867,-98.99 698.073,-84.2426"/>
<polygon fill="midnightblue" stroke="midnightblue" points="701.218,-85.8324 703.831,-75.5648 695.386,-81.962 701.218,-85.8324"/>
</g>
<!-- Node13&#45;&gt;Node9 -->
<g id="edge14" class="edge"><title>Node13&#45;&gt;Node9</title>
<path fill="none" stroke="midnightblue" d="M483.387,-168.384C471.727,-160.006 454.384,-146.459 442,-132 429.584,-117.504 418.719,-98.5706 411.632,-84.8804"/>
<polygon fill="midnightblue" stroke="midnightblue" points="414.591,-82.9711 406.987,-75.5937 408.331,-86.1029 414.591,-82.9711"/>
</g>
<!-- Node14 -->
<g id="node14" class="node"><title>Node14</title>
<g id="a_node14"><a xlink:href="../../d0/d47/networkhandler_8h.html" target="_top" xlink:title="networkhandler.h">
<polygon fill="none" stroke="black" points="450.5,-112.5 450.5,-131.5 541.5,-131.5 541.5,-112.5 450.5,-112.5"/>
<text text-anchor="middle" x="496" y="-119.5" font-family="Helvetica,sans-Serif" font-size="10.00">networkhandler.h</text>
</a>
</g>
</g>
<!-- Node13&#45;&gt;Node14 -->
<g id="edge15" class="edge"><title>Node13&#45;&gt;Node14</title>
<path fill="none" stroke="midnightblue" d="M496,-168.083C496,-161.006 496,-150.861 496,-141.986"/>
<polygon fill="midnightblue" stroke="midnightblue" points="499.5,-141.751 496,-131.751 492.5,-141.751 499.5,-141.751"/>
</g>
<!-- Node15 -->
<g id="node15" class="node"><title>Node15</title>
<g id="a_node15"><a xlink:href="../../d8/d2c/enipmessage_8h.html" target="_top" xlink:title="enipmessage.h">
<polygon fill="none" stroke="black" points="559.5,-112.5 559.5,-131.5 642.5,-131.5 642.5,-112.5 559.5,-112.5"/>
<text text-anchor="middle" x="601" y="-119.5" font-family="Helvetica,sans-Serif" font-size="10.00">enipmessage.h</text>
</a>
</g>
</g>
<!-- Node13&#45;&gt;Node15 -->
<g id="edge17" class="edge"><title>Node13&#45;&gt;Node15</title>
<path fill="none" stroke="midnightblue" d="M512.87,-168.324C529.709,-159.664 555.807,-146.242 575.238,-136.249"/>
<polygon fill="midnightblue" stroke="midnightblue" points="576.88,-139.341 584.172,-131.655 573.678,-133.116 576.88,-139.341"/>
</g>
<!-- Node14&#45;&gt;Node9 -->
<g id="edge16" class="edge"><title>Node14&#45;&gt;Node9</title>
<path fill="none" stroke="midnightblue" d="M481.058,-112.324C466.415,-103.822 443.866,-90.7288 426.762,-80.7975"/>
<polygon fill="midnightblue" stroke="midnightblue" points="428.31,-77.6491 417.905,-75.6545 424.795,-83.7027 428.31,-77.6491"/>
</g>
<!-- Node15&#45;&gt;Node5 -->
<g id="edge18" class="edge"><title>Node15&#45;&gt;Node5</title>
<path fill="none" stroke="midnightblue" d="M618.352,-112.324C635.672,-103.664 662.515,-90.2424 682.502,-80.249"/>
<polygon fill="midnightblue" stroke="midnightblue" points="684.312,-83.2572 691.691,-75.6545 681.181,-76.9962 684.312,-83.2572"/>
</g>
<!-- Node17&#45;&gt;Node5 -->
<g id="edge26" class="edge"><title>Node17&#45;&gt;Node5</title>
<path fill="none" stroke="midnightblue" d="M550.694,-282.2C581.279,-276.2 618.472,-264.967 646,-244 696.341,-205.658 706.563,-123.778 708.562,-86.368"/>
<polygon fill="midnightblue" stroke="midnightblue" points="712.078,-86.0227 708.963,-75.8962 705.083,-85.7551 712.078,-86.0227"/>
</g>
<!-- Node17&#45;&gt;Node6 -->
<g id="edge27" class="edge"><title>Node17&#45;&gt;Node6</title>
<path fill="none" stroke="midnightblue" d="M452.093,-280.468C408.762,-271.849 339.617,-258.088 270.537,-244.306"/>
<polygon fill="midnightblue" stroke="midnightblue" points="270.84,-240.797 260.349,-242.273 269.47,-247.662 270.84,-240.797"/>
</g>
<!-- Node17&#45;&gt;Node9 -->
<g id="edge24" class="edge"><title>Node17&#45;&gt;Node9</title>
<path fill="none" stroke="midnightblue" d="M550.59,-281.886C576.244,-275.843 605.126,-264.668 624,-244 664.441,-199.715 690.451,-158.023 652,-112 626.053,-80.944 508.48,-71.2814 444.607,-68.3046"/>
<polygon fill="midnightblue" stroke="midnightblue" points="444.606,-64.8014 434.464,-67.8671 444.304,-71.7949 444.606,-64.8014"/>
</g>
<!-- Node17&#45;&gt;Node13 -->
<g id="edge25" class="edge"><title>Node17&#45;&gt;Node13</title>
<path fill="none" stroke="midnightblue" d="M495.078,-280.368C495.24,-262.617 495.612,-221.666 495.831,-197.597"/>
<polygon fill="midnightblue" stroke="midnightblue" points="499.331,-197.623 495.922,-187.591 492.331,-197.559 499.331,-197.623"/>
</g>
<!-- Node18 -->
<g id="node18" class="node"><title>Node18</title>
<g id="a_node18"><a xlink:href="../../d9/d31/doublylinkedlist_8h.html" target="_top" xlink:title="doublylinkedlist.h">
<polygon fill="none" stroke="black" points="523,-224.5 523,-243.5 615,-243.5 615,-224.5 523,-224.5"/>
<text text-anchor="middle" x="569" y="-231.5" font-family="Helvetica,sans-Serif" font-size="10.00">doublylinkedlist.h</text>
</a>
</g>
</g>
<!-- Node17&#45;&gt;Node18 -->
<g id="edge28" class="edge"><title>Node17&#45;&gt;Node18</title>
<path fill="none" stroke="midnightblue" d="M506.889,-280.324C518.15,-272.107 535.287,-259.602 548.709,-249.807"/>
<polygon fill="midnightblue" stroke="midnightblue" points="550.88,-252.556 556.894,-243.834 546.753,-246.901 550.88,-252.556"/>
</g>
<!-- Node19 -->
<g id="node19" class="node"><title>Node19</title>
<g id="a_node19"><a xlink:href="../../d0/d23/cipelectronickey_8h.html" target="_top" xlink:title="cipelectronickey.h">
<polygon fill="none" stroke="black" points="260.5,-112.5 260.5,-131.5 355.5,-131.5 355.5,-112.5 260.5,-112.5"/>
<text text-anchor="middle" x="308" y="-119.5" font-family="Helvetica,sans-Serif" font-size="10.00">cipelectronickey.h</text>
</a>
</g>
</g>
<!-- Node17&#45;&gt;Node19 -->
<g id="edge29" class="edge"><title>Node17&#45;&gt;Node19</title>
<path fill="none" stroke="midnightblue" d="M485.209,-280.309C455.167,-253.64 364.005,-172.716 325.482,-138.519"/>
<polygon fill="midnightblue" stroke="midnightblue" points="327.496,-135.626 317.694,-131.605 322.849,-140.861 327.496,-135.626"/>
</g>
<!-- Node17&#45;&gt;Node20 -->
<g id="edge32" class="edge"><title>Node17&#45;&gt;Node20</title>
<path fill="none" stroke="midnightblue" d="M465.528,-280.444C433.829,-271.241 383.268,-256.562 348.225,-246.388"/>
<polygon fill="midnightblue" stroke="midnightblue" points="348.914,-242.943 338.334,-243.516 346.962,-249.666 348.914,-242.943"/>
</g>
<!-- Node19&#45;&gt;Node8 -->
<g id="edge30" class="edge"><title>Node19&#45;&gt;Node8</title>
<path fill="none" stroke="midnightblue" d="M302.036,-112.368C289.494,-94.2153 260.19,-51.8015 243.739,-27.9902"/>
<polygon fill="midnightblue" stroke="midnightblue" points="246.5,-25.8292 237.936,-19.5914 240.741,-29.8083 246.5,-25.8292"/>
</g>
<!-- Node19&#45;&gt;Node9 -->
<g id="edge31" class="edge"><title>Node19&#45;&gt;Node9</title>
<path fill="none" stroke="midnightblue" d="M323.263,-112.324C338.221,-103.822 361.255,-90.7288 378.727,-80.7975"/>
<polygon fill="midnightblue" stroke="midnightblue" points="380.81,-83.639 387.774,-75.6545 377.351,-77.5534 380.81,-83.639"/>
</g>
<!-- Node20&#45;&gt;Node8 -->
<g id="edge33" class="edge"><title>Node20&#45;&gt;Node8</title>
<path fill="none" stroke="midnightblue" d="M302.689,-224.319C290.754,-207.445 264.915,-168.65 252,-132 239.776,-97.3122 234.943,-54.3464 233.092,-30.0663"/>
<polygon fill="midnightblue" stroke="midnightblue" points="236.562,-29.5104 232.403,-19.7661 229.578,-29.9773 236.562,-29.5104"/>
</g>
<!-- Node20&#45;&gt;Node13 -->
<g id="edge34" class="edge"><title>Node20&#45;&gt;Node13</title>
<path fill="none" stroke="midnightblue" d="M338.631,-224.444C370.5,-215.241 421.333,-200.562 456.564,-190.388"/>
<polygon fill="midnightblue" stroke="midnightblue" points="457.872,-193.653 466.508,-187.516 455.929,-186.928 457.872,-193.653"/>
</g>
<!-- Node20&#45;&gt;Node19 -->
<g id="edge35" class="edge"><title>Node20&#45;&gt;Node19</title>
<path fill="none" stroke="midnightblue" d="M308.922,-224.368C308.76,-206.617 308.388,-165.666 308.169,-141.597"/>
<polygon fill="midnightblue" stroke="midnightblue" points="311.669,-141.559 308.078,-131.591 304.669,-141.623 311.669,-141.559"/>
</g>
</g>
</svg>
        <g id="navigator" transform="translate(0 0)" fill="#404254">
                <rect fill="#f2f5e9" fill-opacity="0.5" stroke="#606060" stroke-width=".5" x="0" y="0" width="60" height="60"/>
                <use id="zoomplus" xlink:href="#zoomPlus" x="17" y="9" onmousedown="handleZoom(evt,'in')"/>
                <use id="zoomminus" xlink:href="#zoomMin" x="42" y="9" onmousedown="handleZoom(evt,'out')"/>
                <use id="reset" xlink:href="#resetDef" x="30" y="36" onmousedown="handleReset()"/>
                <g id="arrowUp" xlink:href="#dirArrow" transform="translate(30 24)" onmousedown="handlePan(0,-1)">
                  <use xlink:href="#rim" fill="#404040">
                        <set attributeName="fill" to="#808080" begin="arrowUp.mouseover" end="arrowUp.mouseout"/>
                  </use>
                  <path fill="none" stroke="white" stroke-width="1.5" d="M0,-3.0v7 M-2.5,-0.5L0,-3.0L2.5,-0.5"/>
                </g>
                <g id="arrowRight" xlink:href="#dirArrow" transform="rotate(90) translate(36 -43)" onmousedown="handlePan(1,0)">
                  <use xlink:href="#rim" fill="#404040">
                        <set attributeName="fill" to="#808080" begin="arrowRight.mouseover" end="arrowRight.mouseout"/>
                  </use>
                  <path fill="none" stroke="white" stroke-width="1.5" d="M0,-3.0v7 M-2.5,-0.5L0,-3.0L2.5,-0.5"/>
                </g>
                <g id="arrowDown" xlink:href="#dirArrow" transform="rotate(180) translate(-30 -48)" onmousedown="handlePan(0,1)">
                  <use xlink:href="#rim" fill="#404040">
                        <set attributeName="fill" to="#808080" begin="arrowDown.mouseover" end="arrowDown.mouseout"/>
                  </use>
                  <path fill="none" stroke="white" stroke-width="1.5" d="M0,-3.0v7 M-2.5,-0.5L0,-3.0L2.5,-0.5"/>
                </g>
                <g id="arrowLeft" xlink:href="#dirArrow" transform="rotate(270) translate(-36 17)" onmousedown="handlePan(-1,0)">
                  <use xlink:href="#rim" fill="#404040">
                        <set attributeName="fill" to="#808080" begin="arrowLeft.mouseover" end="arrowLeft.mouseout"/>
                  </use>
                  <path fill="none" stroke="white" stroke-width="1.5" d="M0,-3.0v7 M-2.5,-0.5L0,-3.0L2.5,-0.5"/>
                </g>
        </g>
        <svg viewBox="0 0 15 15" width="100%" height="30px" preserveAspectRatio="xMaxYMin meet">
         <g id="arrow_out" transform="scale(0.3 0.3)">
          <a xlink:href="appcontype_8c__incl_org.svg" target="_base">
           <rect id="button" ry="5" rx="5" y="6" x="6" height="38" width="38"
                fill="#f2f5e9" fill-opacity="0.5" stroke="#606060" stroke-width="1.0"/>
           <path id="arrow"
             d="M 11.500037,31.436501 C 11.940474,20.09759 22.043105,11.32322 32.158766,21.979434 L 37.068811,17.246167 C 37.068811,17.246167 37.088388,32 37.088388,32 L 22.160133,31.978069 C 22.160133,31.978069 26.997745,27.140456 26.997745,27.140456 C 18.528582,18.264221 13.291696,25.230495 11.500037,31.436501 z"
             style="fill:#404040;"/>
          </a>
         </g>
        </svg>
</svg>
