<?xml version="1.0" encoding="UTF-8" standalone="no"?>
<!DOCTYPE svg PUBLIC "-//W3C//DTD SVG 1.1//EN"
 "http://www.w3.org/Graphics/SVG/1.1/DTD/svg11.dtd">
<!-- Generated by graphviz version 2.36.0 (20140111.2315)
 -->
<!-- Title: FillNextNMessageOctetsWithValueAndMoveToNextPosition Pages: 1 -->
<svg width="1450pt" height="126pt"
 viewBox="0.00 0.00 1450.00 126.00" xmlns="http://www.w3.org/2000/svg" xmlns:xlink="http://www.w3.org/1999/xlink">
<g id="graph0" class="graph" transform="scale(1 1) rotate(0) translate(4 122)">
<title>FillNextNMessageOctetsWithValueAndMoveToNextPosition</title>
<!-- Node1 -->
<g id="node1" class="node"><title>Node1</title>
<polygon fill="#bfbfbf" stroke="black" points="0,-39 0,-69 150,-69 150,-39 0,-39"/>
<text text-anchor="start" x="8" y="-57" font-family="Helvetica,sans-Serif" font-size="10.00">FillNextNMessageOctetsWith</text>
<text text-anchor="middle" x="75" y="-46" font-family="Helvetica,sans-Serif" font-size="10.00">ValueAndMoveToNextPosition</text>
</g>
<!-- Node2 -->
<g id="node2" class="node"><title>Node2</title>
<g id="a_node2"><a xlink:href="../../d4/d91/group__ENCAP.html#gaa28ed48b18b92a64faf70093eb74d891" target="_top" xlink:title="Copy data from message_router_response struct and common_packet_format_data_item into ENIPMessage str...">
<polygon fill="none" stroke="black" points="186,-44.5 186,-63.5 312,-63.5 312,-44.5 186,-44.5"/>
<text text-anchor="middle" x="249" y="-51.5" font-family="Helvetica,sans-Serif" font-size="10.00">AssembleLinearMessage</text>
</a>
</g>
</g>
<!-- Node1&#45;&gt;Node2 -->
<g id="edge1" class="edge"><title>Node1&#45;&gt;Node2</title>
<path fill="none" stroke="midnightblue" d="M160.293,-54C168.925,-54 177.58,-54 185.91,-54"/>
<polygon fill="midnightblue" stroke="midnightblue" points="160.192,-50.5001 150.191,-54 160.191,-57.5001 160.192,-50.5001"/>
</g>
<!-- Node3 -->
<g id="node3" class="node"><title>Node3</title>
<g id="a_node3"><a xlink:href="../../d4/d91/group__ENCAP.html#ga18376333d90074460a180facd602c3d9" target="_top" xlink:title="NotifyCommonPacketFormat">
<polygon fill="none" stroke="black" points="357,-90.5 357,-109.5 501,-109.5 501,-90.5 357,-90.5"/>
<text text-anchor="middle" x="429" y="-97.5" font-family="Helvetica,sans-Serif" font-size="10.00">NotifyCommonPacketFormat</text>
</a>
</g>
</g>
<!-- Node2&#45;&gt;Node3 -->
<g id="edge2" class="edge"><title>Node2&#45;&gt;Node3</title>
<path fill="none" stroke="midnightblue" d="M296.94,-66.1306C326.402,-73.7444 363.85,-83.4219 391.166,-90.481"/>
<polygon fill="midnightblue" stroke="midnightblue" points="297.439,-62.6447 286.882,-63.5312 295.688,-69.422 297.439,-62.6447"/>
</g>
<!-- Node11 -->
<g id="node11" class="node"><title>Node11</title>
<g id="a_node11"><a xlink:href="../../d4/d91/group__ENCAP.html#ga93b23ccc67639937716a8f436a96c2b5" target="_top" xlink:title="NotifyConnectedCommonPacket\lFormat">
<polygon fill="none" stroke="black" points="348.5,-39 348.5,-69 509.5,-69 509.5,-39 348.5,-39"/>
<text text-anchor="start" x="356.5" y="-57" font-family="Helvetica,sans-Serif" font-size="10.00">NotifyConnectedCommonPacket</text>
<text text-anchor="middle" x="429" y="-46" font-family="Helvetica,sans-Serif" font-size="10.00">Format</text>
</a>
</g>
</g>
<!-- Node2&#45;&gt;Node11 -->
<g id="edge10" class="edge"><title>Node2&#45;&gt;Node11</title>
<path fill="none" stroke="midnightblue" d="M322.487,-54C330.978,-54 339.676,-54 348.258,-54"/>
<polygon fill="midnightblue" stroke="midnightblue" points="322.256,-50.5001 312.256,-54 322.256,-57.5001 322.256,-50.5001"/>
</g>
<!-- Node13 -->
<g id="node13" class="node"><title>Node13</title>
<g id="a_node13"><a xlink:href="../../d4/d91/group__ENCAP.html#ga137d29fba9dd744ed2e9323bf75e0bba" target="_top" xlink:title="AssembleIOMessage">
<polygon fill="none" stroke="black" points="374,-0.5 374,-19.5 484,-19.5 484,-0.5 374,-0.5"/>
<text text-anchor="middle" x="429" y="-7.5" font-family="Helvetica,sans-Serif" font-size="10.00">AssembleIOMessage</text>
</a>
</g>
</g>
<!-- Node2&#45;&gt;Node13 -->
<g id="edge13" class="edge"><title>Node2&#45;&gt;Node13</title>
<path fill="none" stroke="midnightblue" d="M296.547,-41.9577C312.81,-37.7947 331.198,-33.1379 348,-29 360.752,-25.8594 374.671,-22.5222 387.27,-19.5354"/>
<polygon fill="midnightblue" stroke="midnightblue" points="295.544,-38.6014 286.728,-44.4769 297.284,-45.3818 295.544,-38.6014"/>
</g>
<!-- Node4 -->
<g id="node4" class="node"><title>Node4</title>
<g id="a_node4"><a xlink:href="../../d7/df9/encap_8h.html#a51dd68441ec427052986aef5c5c076e4" target="_top" xlink:title="Call UCMM or Message Router if UCMM not implemented. ">
<polygon fill="none" stroke="black" points="547,-88 547,-118 695,-118 695,-88 547,-88"/>
<text text-anchor="start" x="555" y="-106" font-family="Helvetica,sans-Serif" font-size="10.00">HandleReceivedSendRequest</text>
<text text-anchor="middle" x="621" y="-95" font-family="Helvetica,sans-Serif" font-size="10.00">ResponseDataCommand</text>
</a>
</g>
</g>
<!-- Node3&#45;&gt;Node4 -->
<g id="edge3" class="edge"><title>Node3&#45;&gt;Node4</title>
<path fill="none" stroke="midnightblue" d="M511.304,-101.284C523.114,-101.47 535.212,-101.661 546.848,-101.845"/>
<polygon fill="midnightblue" stroke="midnightblue" points="511.073,-97.7798 501.019,-101.121 510.963,-104.779 511.073,-97.7798"/>
</g>
<!-- Node5 -->
<g id="node5" class="node"><title>Node5</title>
<g id="a_node5"><a xlink:href="../../d2/dc9/group__CIP__API.html#ga16eaeeb12ba23b5a75c8e5902a33d70a" target="_top" xlink:title="Notify the encapsulation layer that an explicit message has been received via TCP. ">
<polygon fill="none" stroke="black" points="732,-60.5 732,-79.5 888,-79.5 888,-60.5 732,-60.5"/>
<text text-anchor="middle" x="810" y="-67.5" font-family="Helvetica,sans-Serif" font-size="10.00">HandleReceivedExplictTcpData</text>
</a>
</g>
</g>
<!-- Node4&#45;&gt;Node5 -->
<g id="edge4" class="edge"><title>Node4&#45;&gt;Node5</title>
<path fill="none" stroke="midnightblue" d="M705.022,-88.349C721.991,-85.3545 739.426,-82.2778 755.054,-79.52"/>
<polygon fill="midnightblue" stroke="midnightblue" points="704.342,-84.9149 695.103,-90.0996 705.559,-91.8084 704.342,-84.9149"/>
</g>
<!-- Node6 -->
<g id="node6" class="node"><title>Node6</title>
<g id="a_node6"><a xlink:href="../../db/d4f/generic__networkhandler_8c.html#aca5593b7dd39d7a7b437999a367102d6" target="_top" xlink:title="Handles data on an established TCP connection, processed connection is given by socket. ">
<polygon fill="none" stroke="black" points="924,-60.5 924,-79.5 1052,-79.5 1052,-60.5 924,-60.5"/>
<text text-anchor="middle" x="988" y="-67.5" font-family="Helvetica,sans-Serif" font-size="10.00">HandleDataOnTcpSocket</text>
</a>
</g>
</g>
<!-- Node5&#45;&gt;Node6 -->
<g id="edge5" class="edge"><title>Node5&#45;&gt;Node6</title>
<path fill="none" stroke="midnightblue" d="M898.293,-70C906.914,-70 915.545,-70 923.853,-70"/>
<polygon fill="midnightblue" stroke="midnightblue" points="898.196,-66.5001 888.196,-70 898.196,-73.5001 898.196,-66.5001"/>
</g>
<!-- Node7 -->
<g id="node7" class="node"><title>Node7</title>
<g id="a_node7"><a xlink:href="../../da/dc2/generic__networkhandler_8h.html#a2f01af81d3e5018d9980e2bc28c9078a" target="_top" xlink:title="NetworkHandlerProcessOnce">
<polygon fill="none" stroke="black" points="1088,-60.5 1088,-79.5 1234,-79.5 1234,-60.5 1088,-60.5"/>
<text text-anchor="middle" x="1161" y="-67.5" font-family="Helvetica,sans-Serif" font-size="10.00">NetworkHandlerProcessOnce</text>
</a>
</g>
</g>
<!-- Node6&#45;&gt;Node7 -->
<g id="edge6" class="edge"><title>Node6&#45;&gt;Node7</title>
<path fill="none" stroke="midnightblue" d="M1062.38,-70C1070.82,-70 1079.42,-70 1087.84,-70"/>
<polygon fill="midnightblue" stroke="midnightblue" points="1062.19,-66.5001 1052.19,-70 1062.19,-73.5001 1062.19,-66.5001"/>
</g>
<!-- Node8 -->
<g id="node8" class="node"><title>Node8</title>
<g id="a_node8"><a xlink:href="../../d5/dcb/MINGW_2main_8c.html#ad338a7dbc41dc40bcecd0479377ef207" target="_top" xlink:title="main">
<polygon fill="none" stroke="black" points="1404,-19.5 1404,-38.5 1442,-38.5 1442,-19.5 1404,-19.5"/>
<text text-anchor="middle" x="1423" y="-26.5" font-family="Helvetica,sans-Serif" font-size="10.00">main</text>
</a>
</g>
</g>
<!-- Node7&#45;&gt;Node8 -->
<g id="edge7" class="edge"><title>Node7&#45;&gt;Node8</title>
<path fill="none" stroke="midnightblue" d="M1232.54,-58.8762C1290.67,-49.7093 1369.02,-37.3542 1403.92,-31.8505"/>
<polygon fill="midnightblue" stroke="midnightblue" points="1231.64,-55.4757 1222.3,-60.4907 1232.73,-62.3902 1231.64,-55.4757"/>
</g>
<!-- Node9 -->
<g id="node9" class="node"><title>Node9</title>
<g id="a_node9"><a xlink:href="../../d9/dfb/POSIX_2main_8c.html#a14982bc20347a462f767f58c18142919" target="_top" xlink:title="Signal handler function for ending stack execution. ">
<polygon fill="none" stroke="black" points="1270,-76.5 1270,-95.5 1368,-95.5 1368,-76.5 1270,-76.5"/>
<text text-anchor="middle" x="1319" y="-83.5" font-family="Helvetica,sans-Serif" font-size="10.00">executeEventLoop</text>
</a>
</g>
</g>
<!-- Node7&#45;&gt;Node9 -->
<g id="edge8" class="edge"><title>Node7&#45;&gt;Node9</title>
<path fill="none" stroke="midnightblue" d="M1244.04,-78.414C1252.87,-79.3196 1261.63,-80.218 1269.86,-81.0628"/>
<polygon fill="midnightblue" stroke="midnightblue" points="1244.37,-74.9298 1234.06,-77.3911 1243.65,-81.8933 1244.37,-74.9298"/>
</g>
<!-- Node10 -->
<g id="node10" class="node"><title>Node10</title>
<g id="a_node10"><a xlink:href="../../d9/dfb/POSIX_2main_8c.html#ad338a7dbc41dc40bcecd0479377ef207" target="_top" xlink:title="main">
<polygon fill="none" stroke="black" points="1404,-76.5 1404,-95.5 1442,-95.5 1442,-76.5 1404,-76.5"/>
<text text-anchor="middle" x="1423" y="-83.5" font-family="Helvetica,sans-Serif" font-size="10.00">main</text>
</a>
</g>
</g>
<!-- Node9&#45;&gt;Node10 -->
<g id="edge9" class="edge"><title>Node9&#45;&gt;Node10</title>
<path fill="none" stroke="midnightblue" d="M1378.22,-86C1387.56,-86 1396.57,-86 1403.96,-86"/>
<polygon fill="midnightblue" stroke="midnightblue" points="1378.01,-82.5001 1368.01,-86 1378.01,-89.5001 1378.01,-82.5001"/>
</g>
<!-- Node12 -->
<g id="node12" class="node"><title>Node12</title>
<g id="a_node12"><a xlink:href="../../d2/dbd/encap_8c.html#a49dc585614f655a5b313150a01fd7221" target="_top" xlink:title="Call Connection Manager. ">
<polygon fill="none" stroke="black" points="546,-39 546,-69 696,-69 696,-39 546,-39"/>
<text text-anchor="start" x="554" y="-57" font-family="Helvetica,sans-Serif" font-size="10.00">HandleReceivedSendUnitData</text>
<text text-anchor="middle" x="621" y="-46" font-family="Helvetica,sans-Serif" font-size="10.00">Command</text>
</a>
</g>
</g>
<!-- Node11&#45;&gt;Node12 -->
<g id="edge11" class="edge"><title>Node11&#45;&gt;Node12</title>
<path fill="none" stroke="midnightblue" d="M519.924,-54C528.626,-54 537.386,-54 545.909,-54"/>
<polygon fill="midnightblue" stroke="midnightblue" points="519.751,-50.5001 509.751,-54 519.751,-57.5001 519.751,-50.5001"/>
</g>
<!-- Node12&#45;&gt;Node5 -->
<g id="edge12" class="edge"><title>Node12&#45;&gt;Node5</title>
<path fill="none" stroke="midnightblue" d="M706.154,-61.2003C714.709,-61.9323 723.37,-62.6734 731.846,-63.3986"/>
<polygon fill="midnightblue" stroke="midnightblue" points="706.438,-57.7119 696.176,-60.3466 705.841,-64.6865 706.438,-57.7119"/>
</g>
<!-- Node14 -->
<g id="node14" class="node"><title>Node14</title>
<g id="a_node14"><a xlink:href="../../df/d03/cipioconnection_8c.html#a20f1bc1c4cc4470cf371f94d51814de2" target="_top" xlink:title="Send the data from the produced CIP Object of the connection via the socket of the connection object ...">
<polygon fill="none" stroke="black" points="567.5,-0.5 567.5,-19.5 674.5,-19.5 674.5,-0.5 567.5,-0.5"/>
<text text-anchor="middle" x="621" y="-7.5" font-family="Helvetica,sans-Serif" font-size="10.00">SendConnectedData</text>
</a>
</g>
</g>
<!-- Node13&#45;&gt;Node14 -->
<g id="edge14" class="edge"><title>Node13&#45;&gt;Node14</title>
<path fill="none" stroke="midnightblue" d="M494.199,-10C518.01,-10 544.715,-10 567.375,-10"/>
<polygon fill="midnightblue" stroke="midnightblue" points="494.192,-6.5001 484.192,-10 494.192,-13.5001 494.192,-6.5001"/>
</g>
<!-- Node15 -->
<g id="node15" class="node"><title>Node15</title>
<g id="a_node15"><a xlink:href="../../df/d03/cipioconnection_8c.html#ab3282f146a3ea91c90cf14c32206ee8c" target="_top" xlink:title="SetIoConnectionCallbacks">
<polygon fill="none" stroke="black" points="743.5,-0.5 743.5,-19.5 876.5,-19.5 876.5,-0.5 743.5,-0.5"/>
<text text-anchor="middle" x="810" y="-7.5" font-family="Helvetica,sans-Serif" font-size="10.00">SetIoConnectionCallbacks</text>
</a>
</g>
</g>
<!-- Node14&#45;&gt;Node15 -->
<g id="edge15" class="edge"><title>Node14&#45;&gt;Node15</title>
<path fill="none" stroke="midnightblue" d="M684.59,-10C703.523,-10 724.361,-10 743.48,-10"/>
<polygon fill="midnightblue" stroke="midnightblue" points="684.588,-6.5001 674.588,-10 684.588,-13.5001 684.588,-6.5001"/>
</g>
<!-- Node16 -->
<g id="node16" class="node"><title>Node16</title>
<g id="a_node16"><a xlink:href="../../de/d45/cipioconnection_8h.html#a43e270b3f9b9f6296b12285c320c95aa" target="_top" xlink:title="Setup all data in order to establish an IO connection. ">
<polygon fill="none" stroke="black" points="930.5,-0.5 930.5,-19.5 1045.5,-19.5 1045.5,-0.5 930.5,-0.5"/>
<text text-anchor="middle" x="988" y="-7.5" font-family="Helvetica,sans-Serif" font-size="10.00">EstablishIoConnection</text>
</a>
</g>
</g>
<!-- Node15&#45;&gt;Node16 -->
<g id="edge16" class="edge"><title>Node15&#45;&gt;Node16</title>
<path fill="none" stroke="midnightblue" d="M886.603,-10C901.282,-10 916.43,-10 930.37,-10"/>
<polygon fill="midnightblue" stroke="midnightblue" points="886.536,-6.5001 876.536,-10 886.536,-13.5001 886.536,-6.5001"/>
</g>
<!-- Node17 -->
<g id="node17" class="node"><title>Node17</title>
<g id="a_node17"><a xlink:href="../../d2/da3/cipconnectionmanager_8h.html#a5ab0de6894d23e8fe84a6b46797c2212" target="_top" xlink:title="Initialize the data of the connection manager object. ">
<polygon fill="none" stroke="black" points="1102.5,-0.5 1102.5,-19.5 1219.5,-19.5 1219.5,-0.5 1102.5,-0.5"/>
<text text-anchor="middle" x="1161" y="-7.5" font-family="Helvetica,sans-Serif" font-size="10.00">ConnectionManagerInit</text>
</a>
</g>
</g>
<!-- Node16&#45;&gt;Node17 -->
<g id="edge17" class="edge"><title>Node16&#45;&gt;Node17</title>
<path fill="none" stroke="midnightblue" d="M1056.34,-10C1071.58,-10 1087.64,-10 1102.43,-10"/>
<polygon fill="midnightblue" stroke="midnightblue" points="1055.94,-6.5001 1045.94,-10 1055.94,-13.5001 1055.94,-6.5001"/>
</g>
<!-- Node18 -->
<g id="node18" class="node"><title>Node18</title>
<g id="a_node18"><a xlink:href="../../d2/dc9/group__CIP__API.html#ga5d4979945d124e28668b264c3823db1c" target="_top" xlink:title="Initialize and setup the CIP&#45;stack. ">
<polygon fill="none" stroke="black" points="1283.5,-0.5 1283.5,-19.5 1354.5,-19.5 1354.5,-0.5 1283.5,-0.5"/>
<text text-anchor="middle" x="1319" y="-7.5" font-family="Helvetica,sans-Serif" font-size="10.00">CipStackInit</text>
</a>
</g>
</g>
<!-- Node17&#45;&gt;Node18 -->
<g id="edge18" class="edge"><title>Node17&#45;&gt;Node18</title>
<path fill="none" stroke="midnightblue" d="M1229.79,-10C1248.23,-10 1267.46,-10 1283.23,-10"/>
<polygon fill="midnightblue" stroke="midnightblue" points="1229.65,-6.5001 1219.65,-10 1229.65,-13.5001 1229.65,-6.5001"/>
</g>
<!-- Node18&#45;&gt;Node8 -->
<g id="edge19" class="edge"><title>Node18&#45;&gt;Node8</title>
<path fill="none" stroke="midnightblue" d="M1364.45,-18.2806C1378.32,-20.8636 1392.84,-23.5689 1403.83,-25.6155"/>
<polygon fill="midnightblue" stroke="midnightblue" points="1365,-14.823 1354.53,-16.4325 1363.72,-21.7047 1365,-14.823"/>
</g>
</g>
</svg>
