<?xml version="1.0" encoding="UTF-8" standalone="no"?>
<!DOCTYPE svg PUBLIC "-//W3C//DTD SVG 1.1//EN"
 "http://www.w3.org/Graphics/SVG/1.1/DTD/svg11.dtd">
<!-- Generated by graphviz version 2.38.0 (20140413.2041)
 -->
<!-- Title: FillNextNMessageOctetsWithValueAndMoveToNextPosition Pages: 1 -->
<svg width="1649pt" height="127pt"
 viewBox="0.00 0.00 1649.00 126.50" xmlns="http://www.w3.org/2000/svg" xmlns:xlink="http://www.w3.org/1999/xlink">
<g id="graph0" class="graph" transform="scale(1 1) rotate(0) translate(4 122.5)">
<title>FillNextNMessageOctetsWithValueAndMoveToNextPosition</title>
<!-- Node1 -->
<g id="node1" class="node"><title>Node1</title>
<polygon fill="#bfbfbf" stroke="black" points="0,-39 0,-69 150,-69 150,-39 0,-39"/>
<text text-anchor="start" x="8" y="-57" font-family="Helvetica,sans-Serif" font-size="10.00">FillNextNMessageOctetsWith</text>
<text text-anchor="middle" x="75" y="-46" font-family="Helvetica,sans-Serif" font-size="10.00">ValueAndMoveToNextPosition</text>
</g>
<!-- Node2 -->
<g id="node2" class="node"><title>Node2</title>
<g id="a_node2"><a xlink:href="../../d4/d91/group__ENCAP.html#gaa28ed48b18b92a64faf70093eb74d891" target="_top" xlink:title="Copy data from message_router_response struct and common_packet_format_data_item into ENIPMessage str...">
<polygon fill="none" stroke="black" points="186,-44.5 186,-63.5 312,-63.5 312,-44.5 186,-44.5"/>
<text text-anchor="middle" x="249" y="-51.5" font-family="Helvetica,sans-Serif" font-size="10.00">AssembleLinearMessage</text>
</a>
</g>
</g>
<!-- Node1&#45;&gt;Node2 -->
<g id="edge1" class="edge"><title>Node1&#45;&gt;Node2</title>
<path fill="none" stroke="midnightblue" d="M160.293,-54C168.925,-54 177.58,-54 185.91,-54"/>
<polygon fill="midnightblue" stroke="midnightblue" points="160.192,-50.5001 150.191,-54 160.191,-57.5001 160.192,-50.5001"/>
</g>
<!-- Node3 -->
<g id="node3" class="node"><title>Node3</title>
<g id="a_node3"><a xlink:href="../../d4/d91/group__ENCAP.html#gaf4beeca6ee941986295958572352a567" target="_top" xlink:title="NotifyCommonPacketFormat">
<polygon fill="none" stroke="black" points="356.5,-90.5 356.5,-109.5 500.5,-109.5 500.5,-90.5 356.5,-90.5"/>
<text text-anchor="middle" x="428.5" y="-97.5" font-family="Helvetica,sans-Serif" font-size="10.00">NotifyCommonPacketFormat</text>
</a>
</g>
</g>
<!-- Node2&#45;&gt;Node3 -->
<g id="edge2" class="edge"><title>Node2&#45;&gt;Node3</title>
<path fill="none" stroke="midnightblue" d="M296.808,-66.1306C326.188,-73.7444 363.53,-83.4219 390.769,-90.481"/>
<polygon fill="midnightblue" stroke="midnightblue" points="297.336,-62.6519 286.778,-63.5312 295.58,-69.4281 297.336,-62.6519"/>
</g>
<!-- Node12 -->
<g id="node12" class="node"><title>Node12</title>
<g id="a_node12"><a xlink:href="../../d4/d91/group__ENCAP.html#ga93b23ccc67639937716a8f436a96c2b5" target="_top" xlink:title="NotifyConnectedCommonPacket\lFormat">
<polygon fill="none" stroke="black" points="348,-39 348,-69 509,-69 509,-39 348,-39"/>
<text text-anchor="start" x="356" y="-57" font-family="Helvetica,sans-Serif" font-size="10.00">NotifyConnectedCommonPacket</text>
<text text-anchor="middle" x="428.5" y="-46" font-family="Helvetica,sans-Serif" font-size="10.00">Format</text>
</a>
</g>
</g>
<!-- Node2&#45;&gt;Node12 -->
<g id="edge11" class="edge"><title>Node2&#45;&gt;Node12</title>
<path fill="none" stroke="midnightblue" d="M322.284,-54C330.75,-54 339.424,-54 347.982,-54"/>
<polygon fill="midnightblue" stroke="midnightblue" points="322.081,-50.5001 312.081,-54 322.081,-57.5001 322.081,-50.5001"/>
</g>
<!-- Node14 -->
<g id="node14" class="node"><title>Node14</title>
<g id="a_node14"><a xlink:href="../../d4/d91/group__ENCAP.html#ga137d29fba9dd744ed2e9323bf75e0bba" target="_top" xlink:title="AssembleIOMessage">
<polygon fill="none" stroke="black" points="373.5,-0.5 373.5,-19.5 483.5,-19.5 483.5,-0.5 373.5,-0.5"/>
<text text-anchor="middle" x="428.5" y="-7.5" font-family="Helvetica,sans-Serif" font-size="10.00">AssembleIOMessage</text>
</a>
</g>
</g>
<!-- Node2&#45;&gt;Node14 -->
<g id="edge14" class="edge"><title>Node2&#45;&gt;Node14</title>
<path fill="none" stroke="midnightblue" d="M296.55,-41.9712C312.814,-37.8093 331.201,-33.1498 348,-29 360.675,-25.869 374.507,-22.5345 387.028,-19.5472"/>
<polygon fill="midnightblue" stroke="midnightblue" points="295.548,-38.6148 286.731,-44.4892 297.287,-45.3954 295.548,-38.6148"/>
</g>
<!-- Node4 -->
<g id="node4" class="node"><title>Node4</title>
<g id="a_node4"><a xlink:href="../../d7/df9/encap_8h.html#a51dd68441ec427052986aef5c5c076e4" target="_top" xlink:title="Call UCMM or Message Router if UCMM not implemented. ">
<polygon fill="none" stroke="black" points="546,-88 546,-118 694,-118 694,-88 546,-88"/>
<text text-anchor="start" x="554" y="-106" font-family="Helvetica,sans-Serif" font-size="10.00">HandleReceivedSendRequest</text>
<text text-anchor="middle" x="620" y="-95" font-family="Helvetica,sans-Serif" font-size="10.00">ResponseDataCommand</text>
</a>
</g>
</g>
<!-- Node3&#45;&gt;Node4 -->
<g id="edge3" class="edge"><title>Node3&#45;&gt;Node4</title>
<path fill="none" stroke="midnightblue" d="M510.775,-101.287C522.454,-101.472 534.412,-101.661 545.92,-101.843"/>
<polygon fill="midnightblue" stroke="midnightblue" points="510.656,-97.7845 500.602,-101.126 510.545,-104.784 510.656,-97.7845"/>
</g>
<!-- Node5 -->
<g id="node5" class="node"><title>Node5</title>
<g id="a_node5"><a xlink:href="../../d2/dc9/group__CIP__API.html#ga16eaeeb12ba23b5a75c8e5902a33d70a" target="_top" xlink:title="Notify the encapsulation layer that an explicit message has been received via TCP. ">
<polygon fill="none" stroke="black" points="731,-60.5 731,-79.5 887,-79.5 887,-60.5 731,-60.5"/>
<text text-anchor="middle" x="809" y="-67.5" font-family="Helvetica,sans-Serif" font-size="10.00">HandleReceivedExplictTcpData</text>
</a>
</g>
</g>
<!-- Node4&#45;&gt;Node5 -->
<g id="edge4" class="edge"><title>Node4&#45;&gt;Node5</title>
<path fill="none" stroke="midnightblue" d="M704.022,-88.349C720.991,-85.3545 738.426,-82.2778 754.054,-79.52"/>
<polygon fill="midnightblue" stroke="midnightblue" points="703.342,-84.9149 694.103,-90.0996 704.559,-91.8084 703.342,-84.9149"/>
</g>
<!-- Node6 -->
<g id="node6" class="node"><title>Node6</title>
<g id="a_node6"><a xlink:href="../../db/d4f/generic__networkhandler_8c.html#aca5593b7dd39d7a7b437999a367102d6" target="_top" xlink:title="Handles data on an established TCP connection, processed connection is given by socket. ">
<polygon fill="none" stroke="black" points="923,-60.5 923,-79.5 1051,-79.5 1051,-60.5 923,-60.5"/>
<text text-anchor="middle" x="987" y="-67.5" font-family="Helvetica,sans-Serif" font-size="10.00">HandleDataOnTcpSocket</text>
</a>
</g>
</g>
<!-- Node5&#45;&gt;Node6 -->
<g id="edge5" class="edge"><title>Node5&#45;&gt;Node6</title>
<path fill="none" stroke="midnightblue" d="M897.293,-70C905.914,-70 914.545,-70 922.853,-70"/>
<polygon fill="midnightblue" stroke="midnightblue" points="897.196,-66.5001 887.196,-70 897.196,-73.5001 897.196,-66.5001"/>
</g>
<!-- Node7 -->
<g id="node7" class="node"><title>Node7</title>
<g id="a_node7"><a xlink:href="../../da/dc2/generic__networkhandler_8h.html#a2f01af81d3e5018d9980e2bc28c9078a" target="_top" xlink:title="NetworkHandlerProcessOnce">
<polygon fill="none" stroke="black" points="1087,-60.5 1087,-79.5 1233,-79.5 1233,-60.5 1087,-60.5"/>
<text text-anchor="middle" x="1160" y="-67.5" font-family="Helvetica,sans-Serif" font-size="10.00">NetworkHandlerProcessOnce</text>
</a>
</g>
</g>
<!-- Node6&#45;&gt;Node7 -->
<g id="edge6" class="edge"><title>Node6&#45;&gt;Node7</title>
<path fill="none" stroke="midnightblue" d="M1061.38,-70C1069.82,-70 1078.42,-70 1086.84,-70"/>
<polygon fill="midnightblue" stroke="midnightblue" points="1061.19,-66.5001 1051.19,-70 1061.19,-73.5001 1061.19,-66.5001"/>
</g>
<!-- Node8 -->
<g id="node8" class="node"><title>Node8</title>
<g id="a_node8"><a xlink:href="../../d5/dcb/MINGW_2main_8c.html#ad338a7dbc41dc40bcecd0479377ef207" target="_top" xlink:title="main">
<polygon fill="none" stroke="black" points="1376,-38.5 1376,-57.5 1414,-57.5 1414,-38.5 1376,-38.5"/>
<text text-anchor="middle" x="1395" y="-45.5" font-family="Helvetica,sans-Serif" font-size="10.00">main</text>
</a>
</g>
</g>
<!-- Node7&#45;&gt;Node8 -->
<g id="edge7" class="edge"><title>Node7&#45;&gt;Node8</title>
<path fill="none" stroke="midnightblue" d="M1243.54,-74.1277C1274.06,-74.2116 1308.8,-72.5974 1340,-67 1352.33,-64.7884 1365.6,-60.1512 1375.9,-56.0117"/>
<polygon fill="midnightblue" stroke="midnightblue" points="1243.4,-70.6264 1233.37,-74.0375 1243.34,-77.6261 1243.4,-70.6264"/>
</g>
<!-- Node11 -->
<g id="node11" class="node"><title>Node11</title>
<g id="a_node11"><a xlink:href="../../d9/dfb/POSIX_2main_8c.html#acd4e45a35a64f9cb29b59f63492b61d2" target="_top" xlink:title="Signal handler function for ending stack execution. ">
<polygon fill="none" stroke="black" points="1270.5,-38.5 1270.5,-57.5 1338.5,-57.5 1338.5,-38.5 1270.5,-38.5"/>
<text text-anchor="middle" x="1304.5" y="-45.5" font-family="Helvetica,sans-Serif" font-size="10.00">LeaveStack</text>
</a>
</g>
</g>
<!-- Node7&#45;&gt;Node11 -->
<g id="edge10" class="edge"><title>Node7&#45;&gt;Node11</title>
<path fill="none" stroke="midnightblue" d="M1232.72,-58.9272C1245.89,-56.8934 1259.05,-54.863 1270.38,-53.114"/>
<polygon fill="midnightblue" stroke="midnightblue" points="1232.02,-55.4935 1222.67,-60.4784 1233.09,-62.4116 1232.02,-55.4935"/>
</g>
<!-- Node9 -->
<g id="node9" class="node"><title>Node9</title>
<g id="a_node9"><a xlink:href="../../d8/d03/ports_2MINGW_2CMakeLists_8txt.html#a7e00df43a20d627a1732be7766d91097" target="_top" xlink:title="add_library">
<polygon fill="none" stroke="black" points="1450,-38.5 1450,-57.5 1514,-57.5 1514,-38.5 1450,-38.5"/>
<text text-anchor="middle" x="1482" y="-45.5" font-family="Helvetica,sans-Serif" font-size="10.00">add_library</text>
</a>
</g>
</g>
<!-- Node8&#45;&gt;Node9 -->
<g id="edge8" class="edge"><title>Node8&#45;&gt;Node9</title>
<path fill="none" stroke="midnightblue" d="M1424.27,-48C1432.5,-48 1441.55,-48 1449.94,-48"/>
<polygon fill="midnightblue" stroke="midnightblue" points="1424.03,-44.5001 1414.03,-48 1424.03,-51.5001 1424.03,-44.5001"/>
</g>
<!-- Node10 -->
<g id="node10" class="node"><title>Node10</title>
<g id="a_node10"><a xlink:href="../../d8/dce/ports_2CMakeLists_8txt.html#a598fae457555a5fb26e18d4cd8f89de9" target="_top" xlink:title="add_subdirectory">
<polygon fill="none" stroke="black" points="1550,-38.5 1550,-57.5 1641,-57.5 1641,-38.5 1550,-38.5"/>
<text text-anchor="middle" x="1595.5" y="-45.5" font-family="Helvetica,sans-Serif" font-size="10.00">add_subdirectory</text>
</a>
</g>
</g>
<!-- Node9&#45;&gt;Node10 -->
<g id="edge9" class="edge"><title>Node9&#45;&gt;Node10</title>
<path fill="none" stroke="midnightblue" d="M1524.3,-48C1532.63,-48 1541.42,-48 1549.86,-48"/>
<polygon fill="midnightblue" stroke="midnightblue" points="1524.06,-44.5001 1514.06,-48 1524.06,-51.5001 1524.06,-44.5001"/>
</g>
<!-- Node13 -->
<g id="node13" class="node"><title>Node13</title>
<g id="a_node13"><a xlink:href="../../d2/dbd/encap_8c.html#a49dc585614f655a5b313150a01fd7221" target="_top" xlink:title="Call Connection Manager. ">
<polygon fill="none" stroke="black" points="545,-39 545,-69 695,-69 695,-39 545,-39"/>
<text text-anchor="start" x="553" y="-57" font-family="Helvetica,sans-Serif" font-size="10.00">HandleReceivedSendUnitData</text>
<text text-anchor="middle" x="620" y="-46" font-family="Helvetica,sans-Serif" font-size="10.00">Command</text>
</a>
</g>
</g>
<!-- Node12&#45;&gt;Node13 -->
<g id="edge12" class="edge"><title>Node12&#45;&gt;Node13</title>
<path fill="none" stroke="midnightblue" d="M519.101,-54C527.706,-54 536.369,-54 544.803,-54"/>
<polygon fill="midnightblue" stroke="midnightblue" points="519.041,-50.5001 509.041,-54 519.041,-57.5001 519.041,-50.5001"/>
</g>
<!-- Node13&#45;&gt;Node5 -->
<g id="edge13" class="edge"><title>Node13&#45;&gt;Node5</title>
<path fill="none" stroke="midnightblue" d="M705.154,-61.2003C713.709,-61.9323 722.37,-62.6734 730.846,-63.3986"/>
<polygon fill="midnightblue" stroke="midnightblue" points="705.438,-57.7119 695.176,-60.3466 704.841,-64.6865 705.438,-57.7119"/>
</g>
<!-- Node15 -->
<g id="node15" class="node"><title>Node15</title>
<g id="a_node15"><a xlink:href="../../df/d03/cipioconnection_8c.html#a20f1bc1c4cc4470cf371f94d51814de2" target="_top" xlink:title="Send the data from the produced CIP Object of the connection via the socket of the connection object ...">
<polygon fill="none" stroke="black" points="566.5,-0.5 566.5,-19.5 673.5,-19.5 673.5,-0.5 566.5,-0.5"/>
<text text-anchor="middle" x="620" y="-7.5" font-family="Helvetica,sans-Serif" font-size="10.00">SendConnectedData</text>
</a>
</g>
</g>
<!-- Node14&#45;&gt;Node15 -->
<g id="edge15" class="edge"><title>Node14&#45;&gt;Node15</title>
<path fill="none" stroke="midnightblue" d="M493.804,-10C517.369,-10 543.745,-10 566.188,-10"/>
<polygon fill="midnightblue" stroke="midnightblue" points="493.55,-6.5001 483.549,-10 493.549,-13.5001 493.55,-6.5001"/>
</g>
<!-- Node16 -->
<g id="node16" class="node"><title>Node16</title>
<g id="a_node16"><a xlink:href="../../df/d03/cipioconnection_8c.html#ab3282f146a3ea91c90cf14c32206ee8c" target="_top" xlink:title="SetIoConnectionCallbacks">
<polygon fill="none" stroke="black" points="742.5,-0.5 742.5,-19.5 875.5,-19.5 875.5,-0.5 742.5,-0.5"/>
<text text-anchor="middle" x="809" y="-7.5" font-family="Helvetica,sans-Serif" font-size="10.00">SetIoConnectionCallbacks</text>
</a>
</g>
</g>
<!-- Node15&#45;&gt;Node16 -->
<g id="edge16" class="edge"><title>Node15&#45;&gt;Node16</title>
<path fill="none" stroke="midnightblue" d="M683.59,-10C702.523,-10 723.361,-10 742.48,-10"/>
<polygon fill="midnightblue" stroke="midnightblue" points="683.588,-6.5001 673.588,-10 683.588,-13.5001 683.588,-6.5001"/>
</g>
<!-- Node17 -->
<g id="node17" class="node"><title>Node17</title>
<g id="a_node17"><a xlink:href="../../de/d45/cipioconnection_8h.html#a43e270b3f9b9f6296b12285c320c95aa" target="_top" xlink:title="Setup all data in order to establish an IO connection. ">
<polygon fill="none" stroke="black" points="929.5,-0.5 929.5,-19.5 1044.5,-19.5 1044.5,-0.5 929.5,-0.5"/>
<text text-anchor="middle" x="987" y="-7.5" font-family="Helvetica,sans-Serif" font-size="10.00">EstablishIoConnection</text>
</a>
</g>
</g>
<!-- Node16&#45;&gt;Node17 -->
<g id="edge17" class="edge"><title>Node16&#45;&gt;Node17</title>
<path fill="none" stroke="midnightblue" d="M885.603,-10C900.282,-10 915.43,-10 929.37,-10"/>
<polygon fill="midnightblue" stroke="midnightblue" points="885.536,-6.5001 875.536,-10 885.536,-13.5001 885.536,-6.5001"/>
</g>
<!-- Node18 -->
<g id="node18" class="node"><title>Node18</title>
<g id="a_node18"><a xlink:href="../../d2/da3/cipconnectionmanager_8h.html#a5ab0de6894d23e8fe84a6b46797c2212" target="_top" xlink:title="Initialize the data of the connection manager object. ">
<polygon fill="none" stroke="black" points="1101.5,-0.5 1101.5,-19.5 1218.5,-19.5 1218.5,-0.5 1101.5,-0.5"/>
<text text-anchor="middle" x="1160" y="-7.5" font-family="Helvetica,sans-Serif" font-size="10.00">ConnectionManagerInit</text>
</a>
</g>
</g>
<!-- Node17&#45;&gt;Node18 -->
<g id="edge18" class="edge"><title>Node17&#45;&gt;Node18</title>
<path fill="none" stroke="midnightblue" d="M1055.34,-10C1070.58,-10 1086.64,-10 1101.43,-10"/>
<polygon fill="midnightblue" stroke="midnightblue" points="1054.94,-6.5001 1044.94,-10 1054.94,-13.5001 1054.94,-6.5001"/>
</g>
<!-- Node19 -->
<g id="node19" class="node"><title>Node19</title>
<g id="a_node19"><a xlink:href="../../d2/dc9/group__CIP__API.html#ga5d4979945d124e28668b264c3823db1c" target="_top" xlink:title="Initialize and setup the CIP&#45;stack. ">
<polygon fill="none" stroke="black" points="1269,-0.5 1269,-19.5 1340,-19.5 1340,-0.5 1269,-0.5"/>
<text text-anchor="middle" x="1304.5" y="-7.5" font-family="Helvetica,sans-Serif" font-size="10.00">CipStackInit</text>
</a>
</g>
</g>
<!-- Node18&#45;&gt;Node19 -->
<g id="edge19" class="edge"><title>Node18&#45;&gt;Node19</title>
<path fill="none" stroke="midnightblue" d="M1228.6,-10C1242.49,-10 1256.56,-10 1268.71,-10"/>
<polygon fill="midnightblue" stroke="midnightblue" points="1228.55,-6.5001 1218.55,-10 1228.55,-13.5001 1228.55,-6.5001"/>
</g>
<!-- Node19&#45;&gt;Node8 -->
<g id="edge20" class="edge"><title>Node19&#45;&gt;Node8</title>
<path fill="none" stroke="midnightblue" d="M1337.34,-23.6735C1350.28,-29.2292 1364.76,-35.4459 1375.84,-40.2041"/>
<polygon fill="midnightblue" stroke="midnightblue" points="1338.4,-20.3185 1327.83,-19.589 1335.64,-26.7506 1338.4,-20.3185"/>
</g>
</g>
</svg>
