<?xml version="1.0" encoding="UTF-8" standalone="no"?>
<!DOCTYPE svg PUBLIC "-//W3C//DTD SVG 1.1//EN"
 "http://www.w3.org/Graphics/SVG/1.1/DTD/svg11.dtd">
<!-- Generated by graphviz version 2.38.0 (20140413.2041)
 -->
<!-- Title: EncapsulateIpAddress Pages: 1 -->
<svg width="1837pt" height="220pt"
 viewBox="0.00 0.00 1837.00 219.50" xmlns="http://www.w3.org/2000/svg" xmlns:xlink="http://www.w3.org/1999/xlink">
<g id="graph0" class="graph" transform="scale(1 1) rotate(0) translate(4 215.5)">
<title>EncapsulateIpAddress</title>
<!-- Node1 -->
<g id="node1" class="node"><title>Node1</title>
<polygon fill="#bfbfbf" stroke="black" points="0,-103 0,-122 115,-122 115,-103 0,-103"/>
<text text-anchor="middle" x="57.5" y="-110" font-family="Helvetica,sans-Serif" font-size="10.00">EncapsulateIpAddress</text>
</g>
<!-- Node2 -->
<g id="node2" class="node"><title>Node2</title>
<g id="a_node2"><a xlink:href="../../d4/d91/group__ENCAP.html#gaa28ed48b18b92a64faf70093eb74d891" target="_top" xlink:title="Copy data from message_router_response struct and common_packet_format_data_item into ENIPMessage str...">
<polygon fill="none" stroke="black" points="170,-126 170,-145 296,-145 296,-126 170,-126"/>
<text text-anchor="middle" x="233" y="-133" font-family="Helvetica,sans-Serif" font-size="10.00">AssembleLinearMessage</text>
</a>
</g>
</g>
<!-- Node1&#45;&gt;Node2 -->
<g id="edge1" class="edge"><title>Node1&#45;&gt;Node2</title>
<path fill="none" stroke="midnightblue" d="M125.323,-121.358C140.003,-123.304 155.489,-125.357 169.971,-127.277"/>
<polygon fill="midnightblue" stroke="midnightblue" points="125.684,-117.876 115.31,-120.031 124.764,-124.815 125.684,-117.876"/>
</g>
<!-- Node21 -->
<g id="node21" class="node"><title>Node21</title>
<g id="a_node21"><a xlink:href="../../d2/dbd/encap_8c.html#a25f80c3d5c2d4edc54d71311acda663b" target="_top" xlink:title="EncodeListIdentityCipIdentityItem">
<polygon fill="none" stroke="black" points="151,-81 151,-100 315,-100 315,-81 151,-81"/>
<text text-anchor="middle" x="233" y="-88" font-family="Helvetica,sans-Serif" font-size="10.00">EncodeListIdentityCipIdentityItem</text>
</a>
</g>
</g>
<!-- Node1&#45;&gt;Node21 -->
<g id="edge23" class="edge"><title>Node1&#45;&gt;Node21</title>
<path fill="none" stroke="midnightblue" d="M125.495,-104.005C135.835,-102.694 146.571,-101.333 157.071,-100.001"/>
<polygon fill="midnightblue" stroke="midnightblue" points="124.791,-100.566 115.31,-105.296 125.671,-107.511 124.791,-100.566"/>
</g>
<!-- Node3 -->
<g id="node3" class="node"><title>Node3</title>
<g id="a_node3"><a xlink:href="../../d4/d91/group__ENCAP.html#ga9c408ca52db513a953b72e8dfcad27e8" target="_top" xlink:title="NotifyCommonPacketFormat">
<polygon fill="none" stroke="black" points="360.5,-146 360.5,-165 504.5,-165 504.5,-146 360.5,-146"/>
<text text-anchor="middle" x="432.5" y="-153" font-family="Helvetica,sans-Serif" font-size="10.00">NotifyCommonPacketFormat</text>
</a>
</g>
</g>
<!-- Node2&#45;&gt;Node3 -->
<g id="edge2" class="edge"><title>Node2&#45;&gt;Node3</title>
<path fill="none" stroke="midnightblue" d="M306.412,-142.833C323.992,-144.613 342.773,-146.515 360.296,-148.289"/>
<polygon fill="midnightblue" stroke="midnightblue" points="306.521,-139.326 296.219,-141.801 305.816,-146.29 306.521,-139.326"/>
</g>
<!-- Node14 -->
<g id="node14" class="node"><title>Node14</title>
<g id="a_node14"><a xlink:href="../../d4/d91/group__ENCAP.html#ga72c9878cc686b15d10481b716e6f628d" target="_top" xlink:title="NotifyConnectedCommonPacket\lFormat">
<polygon fill="none" stroke="black" points="550,-98.5 550,-128.5 711,-128.5 711,-98.5 550,-98.5"/>
<text text-anchor="start" x="558" y="-116.5" font-family="Helvetica,sans-Serif" font-size="10.00">NotifyConnectedCommonPacket</text>
<text text-anchor="middle" x="630.5" y="-105.5" font-family="Helvetica,sans-Serif" font-size="10.00">Format</text>
</a>
</g>
</g>
<!-- Node2&#45;&gt;Node14 -->
<g id="edge14" class="edge"><title>Node2&#45;&gt;Node14</title>
<path fill="none" stroke="midnightblue" d="M306.56,-131.464C375.448,-127.632 478.761,-121.885 549.886,-117.929"/>
<polygon fill="midnightblue" stroke="midnightblue" points="306.022,-127.988 296.232,-132.038 306.411,-134.977 306.022,-127.988"/>
</g>
<!-- Node16 -->
<g id="node16" class="node"><title>Node16</title>
<g id="a_node16"><a xlink:href="../../d4/d91/group__ENCAP.html#ga137d29fba9dd744ed2e9323bf75e0bba" target="_top" xlink:title="AssembleIOMessage">
<polygon fill="none" stroke="black" points="377.5,-188 377.5,-207 487.5,-207 487.5,-188 377.5,-188"/>
<text text-anchor="middle" x="432.5" y="-195" font-family="Helvetica,sans-Serif" font-size="10.00">AssembleIOMessage</text>
</a>
</g>
</g>
<!-- Node2&#45;&gt;Node16 -->
<g id="edge17" class="edge"><title>Node2&#45;&gt;Node16</title>
<path fill="none" stroke="midnightblue" d="M271.454,-148.445C294.349,-156.244 324.273,-166.232 351,-174.5 365.997,-179.139 382.667,-183.958 396.93,-187.978"/>
<polygon fill="midnightblue" stroke="midnightblue" points="272.38,-145.063 261.785,-145.14 270.115,-151.687 272.38,-145.063"/>
</g>
<!-- Node4 -->
<g id="node4" class="node"><title>Node4</title>
<g id="a_node4"><a xlink:href="../../d7/df9/encap_8h.html#a51dd68441ec427052986aef5c5c076e4" target="_top" xlink:title="Call UCMM or Message Router if UCMM not implemented. ">
<polygon fill="none" stroke="black" points="752,-142.5 752,-172.5 900,-172.5 900,-142.5 752,-142.5"/>
<text text-anchor="start" x="760" y="-160.5" font-family="Helvetica,sans-Serif" font-size="10.00">HandleReceivedSendRequest</text>
<text text-anchor="middle" x="826" y="-149.5" font-family="Helvetica,sans-Serif" font-size="10.00">ResponseDataCommand</text>
</a>
</g>
</g>
<!-- Node3&#45;&gt;Node4 -->
<g id="edge3" class="edge"><title>Node3&#45;&gt;Node4</title>
<path fill="none" stroke="midnightblue" d="M514.931,-155.916C584.763,-156.273 684.478,-156.782 751.815,-157.126"/>
<polygon fill="midnightblue" stroke="midnightblue" points="514.87,-152.416 504.852,-155.865 514.834,-159.416 514.87,-152.416"/>
</g>
<!-- Node5 -->
<g id="node5" class="node"><title>Node5</title>
<g id="a_node5"><a xlink:href="../../d2/dc9/group__CIP__API.html#ga4b8ec8e9b8a1dd71e84f2ea54e1c2b2d" target="_top" xlink:title="Notify the encapsulation layer that an explicit message has been received via TCP. ">
<polygon fill="none" stroke="black" points="941,-99 941,-118 1097,-118 1097,-99 941,-99"/>
<text text-anchor="middle" x="1019" y="-106" font-family="Helvetica,sans-Serif" font-size="10.00">HandleReceivedExplictTcpData</text>
</a>
</g>
</g>
<!-- Node4&#45;&gt;Node5 -->
<g id="edge4" class="edge"><title>Node4&#45;&gt;Node5</title>
<path fill="none" stroke="midnightblue" d="M895.609,-139.899C924.367,-132.521 956.666,-124.235 980.86,-118.028"/>
<polygon fill="midnightblue" stroke="midnightblue" points="894.421,-136.59 885.604,-142.465 896.16,-143.371 894.421,-136.59"/>
</g>
<!-- Node6 -->
<g id="node6" class="node"><title>Node6</title>
<g id="a_node6"><a xlink:href="../../d4/d91/group__ENCAP.html#ga7a0dc2be6c485d9e6940d5b20a981022" target="_top" xlink:title="Initialize the encapsulation layer. ">
<polygon fill="none" stroke="black" points="1178.5,-137 1178.5,-156 1270.5,-156 1270.5,-137 1178.5,-137"/>
<text text-anchor="middle" x="1224.5" y="-144" font-family="Helvetica,sans-Serif" font-size="10.00">EncapsulationInit</text>
</a>
</g>
</g>
<!-- Node5&#45;&gt;Node6 -->
<g id="edge5" class="edge"><title>Node5&#45;&gt;Node6</title>
<path fill="none" stroke="midnightblue" d="M1081,-119.891C1112.25,-125.726 1149.65,-132.709 1178.29,-138.057"/>
<polygon fill="midnightblue" stroke="midnightblue" points="1081.56,-116.435 1071.09,-118.04 1080.28,-123.316 1081.56,-116.435"/>
</g>
<!-- Node11 -->
<g id="node11" class="node"><title>Node11</title>
<g id="a_node11"><a xlink:href="../../db/d4f/generic__networkhandler_8c.html#aca5593b7dd39d7a7b437999a367102d6" target="_top" xlink:title="Handles data on an established TCP connection, processed connection is given by socket. ">
<polygon fill="none" stroke="black" points="1160.5,-99 1160.5,-118 1288.5,-118 1288.5,-99 1160.5,-99"/>
<text text-anchor="middle" x="1224.5" y="-106" font-family="Helvetica,sans-Serif" font-size="10.00">HandleDataOnTcpSocket</text>
</a>
</g>
</g>
<!-- Node5&#45;&gt;Node11 -->
<g id="edge10" class="edge"><title>Node5&#45;&gt;Node11</title>
<path fill="none" stroke="midnightblue" d="M1107.56,-108.5C1125.27,-108.5 1143.55,-108.5 1160.22,-108.5"/>
<polygon fill="midnightblue" stroke="midnightblue" points="1107.22,-105 1097.22,-108.5 1107.22,-112 1107.22,-105"/>
</g>
<!-- Node7 -->
<g id="node7" class="node"><title>Node7</title>
<g id="a_node7"><a xlink:href="../../d2/dc9/group__CIP__API.html#ga5d4979945d124e28668b264c3823db1c" target="_top" xlink:title="Initialize and setup the CIP&#45;stack. ">
<polygon fill="none" stroke="black" points="1389.5,-137 1389.5,-156 1460.5,-156 1460.5,-137 1389.5,-137"/>
<text text-anchor="middle" x="1425" y="-144" font-family="Helvetica,sans-Serif" font-size="10.00">CipStackInit</text>
</a>
</g>
</g>
<!-- Node6&#45;&gt;Node7 -->
<g id="edge6" class="edge"><title>Node6&#45;&gt;Node7</title>
<path fill="none" stroke="midnightblue" d="M1280.57,-146.5C1315.38,-146.5 1359.32,-146.5 1389.33,-146.5"/>
<polygon fill="midnightblue" stroke="midnightblue" points="1280.54,-143 1270.54,-146.5 1280.54,-150 1280.54,-143"/>
</g>
<!-- Node8 -->
<g id="node8" class="node"><title>Node8</title>
<g id="a_node8"><a xlink:href="../../d5/dcb/MINGW_2main_8c.html#ad338a7dbc41dc40bcecd0479377ef207" target="_top" xlink:title="main">
<polygon fill="none" stroke="black" points="1549,-126 1549,-145 1587,-145 1587,-126 1549,-126"/>
<text text-anchor="middle" x="1568" y="-133" font-family="Helvetica,sans-Serif" font-size="10.00">main</text>
</a>
</g>
</g>
<!-- Node7&#45;&gt;Node8 -->
<g id="edge7" class="edge"><title>Node7&#45;&gt;Node8</title>
<path fill="none" stroke="midnightblue" d="M1471.03,-142.987C1497.43,-140.927 1529.33,-138.439 1548.89,-136.913"/>
<polygon fill="midnightblue" stroke="midnightblue" points="1470.55,-139.514 1460.85,-143.781 1471.1,-146.492 1470.55,-139.514"/>
</g>
<!-- Node9 -->
<g id="node9" class="node"><title>Node9</title>
<g id="a_node9"><a xlink:href="../../d8/d03/ports_2MINGW_2CMakeLists_8txt.html#a7e00df43a20d627a1732be7766d91097" target="_top" xlink:title="add_library">
<polygon fill="none" stroke="black" points="1638,-126 1638,-145 1702,-145 1702,-126 1638,-126"/>
<text text-anchor="middle" x="1670" y="-133" font-family="Helvetica,sans-Serif" font-size="10.00">add_library</text>
</a>
</g>
</g>
<!-- Node8&#45;&gt;Node9 -->
<g id="edge8" class="edge"><title>Node8&#45;&gt;Node9</title>
<path fill="none" stroke="midnightblue" d="M1597.7,-135.5C1610.24,-135.5 1624.99,-135.5 1637.81,-135.5"/>
<polygon fill="midnightblue" stroke="midnightblue" points="1597.34,-132 1587.34,-135.5 1597.34,-139 1597.34,-132"/>
</g>
<!-- Node10 -->
<g id="node10" class="node"><title>Node10</title>
<g id="a_node10"><a xlink:href="../../d8/dce/ports_2CMakeLists_8txt.html#a598fae457555a5fb26e18d4cd8f89de9" target="_top" xlink:title="add_subdirectory">
<polygon fill="none" stroke="black" points="1738,-126 1738,-145 1829,-145 1829,-126 1738,-126"/>
<text text-anchor="middle" x="1783.5" y="-133" font-family="Helvetica,sans-Serif" font-size="10.00">add_subdirectory</text>
</a>
</g>
</g>
<!-- Node9&#45;&gt;Node10 -->
<g id="edge9" class="edge"><title>Node9&#45;&gt;Node10</title>
<path fill="none" stroke="midnightblue" d="M1712.3,-135.5C1720.63,-135.5 1729.42,-135.5 1737.86,-135.5"/>
<polygon fill="midnightblue" stroke="midnightblue" points="1712.06,-132 1702.06,-135.5 1712.06,-139 1712.06,-132"/>
</g>
<!-- Node12 -->
<g id="node12" class="node"><title>Node12</title>
<g id="a_node12"><a xlink:href="../../da/dc2/generic__networkhandler_8h.html#a2f01af81d3e5018d9980e2bc28c9078a" target="_top" xlink:title="NetworkHandlerProcessOnce">
<polygon fill="none" stroke="black" points="1352,-66 1352,-85 1498,-85 1498,-66 1352,-66"/>
<text text-anchor="middle" x="1425" y="-73" font-family="Helvetica,sans-Serif" font-size="10.00">NetworkHandlerProcessOnce</text>
</a>
</g>
</g>
<!-- Node11&#45;&gt;Node12 -->
<g id="edge11" class="edge"><title>Node11&#45;&gt;Node12</title>
<path fill="none" stroke="midnightblue" d="M1292.74,-97.3223C1316.72,-93.3357 1343.49,-88.8849 1366.57,-85.0479"/>
<polygon fill="midnightblue" stroke="midnightblue" points="1291.94,-93.9066 1282.65,-98.9993 1293.09,-100.812 1291.94,-93.9066"/>
</g>
<!-- Node12&#45;&gt;Node8 -->
<g id="edge12" class="edge"><title>Node12&#45;&gt;Node8</title>
<path fill="none" stroke="midnightblue" d="M1457.73,-89.0018C1485.81,-100.949 1525.79,-117.964 1548.8,-127.754"/>
<polygon fill="midnightblue" stroke="midnightblue" points="1458.91,-85.7022 1448.34,-85.0072 1456.17,-92.1433 1458.91,-85.7022"/>
</g>
<!-- Node13 -->
<g id="node13" class="node"><title>Node13</title>
<g id="a_node13"><a xlink:href="../../d9/dfb/POSIX_2main_8c.html#acd4e45a35a64f9cb29b59f63492b61d2" target="_top" xlink:title="Signal handler function for ending stack execution. ">
<polygon fill="none" stroke="black" points="1534,-66 1534,-85 1602,-85 1602,-66 1534,-66"/>
<text text-anchor="middle" x="1568" y="-73" font-family="Helvetica,sans-Serif" font-size="10.00">LeaveStack</text>
</a>
</g>
</g>
<!-- Node12&#45;&gt;Node13 -->
<g id="edge13" class="edge"><title>Node12&#45;&gt;Node13</title>
<path fill="none" stroke="midnightblue" d="M1508.33,-75.5C1517.28,-75.5 1525.96,-75.5 1533.79,-75.5"/>
<polygon fill="midnightblue" stroke="midnightblue" points="1508.15,-72.0001 1498.15,-75.5 1508.15,-79.0001 1508.15,-72.0001"/>
</g>
<!-- Node15 -->
<g id="node15" class="node"><title>Node15</title>
<g id="a_node15"><a xlink:href="../../d2/dbd/encap_8c.html#a49dc585614f655a5b313150a01fd7221" target="_top" xlink:title="Call Connection Manager. ">
<polygon fill="none" stroke="black" points="751,-93.5 751,-123.5 901,-123.5 901,-93.5 751,-93.5"/>
<text text-anchor="start" x="759" y="-111.5" font-family="Helvetica,sans-Serif" font-size="10.00">HandleReceivedSendUnitData</text>
<text text-anchor="middle" x="826" y="-100.5" font-family="Helvetica,sans-Serif" font-size="10.00">Command</text>
</a>
</g>
</g>
<!-- Node14&#45;&gt;Node15 -->
<g id="edge15" class="edge"><title>Node14&#45;&gt;Node15</title>
<path fill="none" stroke="midnightblue" d="M721.27,-111.18C731.135,-110.925 741.098,-110.668 750.744,-110.419"/>
<polygon fill="midnightblue" stroke="midnightblue" points="720.948,-107.687 711.042,-111.445 721.129,-114.685 720.948,-107.687"/>
</g>
<!-- Node15&#45;&gt;Node5 -->
<g id="edge16" class="edge"><title>Node15&#45;&gt;Node5</title>
<path fill="none" stroke="midnightblue" d="M911.269,-108.5C921.082,-108.5 931.055,-108.5 940.767,-108.5"/>
<polygon fill="midnightblue" stroke="midnightblue" points="911.119,-105 901.119,-108.5 911.119,-112 911.119,-105"/>
</g>
<!-- Node17 -->
<g id="node17" class="node"><title>Node17</title>
<g id="a_node17"><a xlink:href="../../df/d03/cipioconnection_8c.html#a20f1bc1c4cc4470cf371f94d51814de2" target="_top" xlink:title="Send the data from the produced CIP Object of the connection via the socket of the connection object ...">
<polygon fill="none" stroke="black" points="577,-190 577,-209 684,-209 684,-190 577,-190"/>
<text text-anchor="middle" x="630.5" y="-197" font-family="Helvetica,sans-Serif" font-size="10.00">SendConnectedData</text>
</a>
</g>
</g>
<!-- Node16&#45;&gt;Node17 -->
<g id="edge18" class="edge"><title>Node16&#45;&gt;Node17</title>
<path fill="none" stroke="midnightblue" d="M497.603,-198.154C523.3,-198.416 552.543,-198.715 576.953,-198.964"/>
<polygon fill="midnightblue" stroke="midnightblue" points="497.612,-194.654 487.577,-198.052 497.54,-201.654 497.612,-194.654"/>
</g>
<!-- Node18 -->
<g id="node18" class="node"><title>Node18</title>
<g id="a_node18"><a xlink:href="../../df/d03/cipioconnection_8c.html#ab3282f146a3ea91c90cf14c32206ee8c" target="_top" xlink:title="SetIoConnectionCallbacks">
<polygon fill="none" stroke="black" points="759.5,-192 759.5,-211 892.5,-211 892.5,-192 759.5,-192"/>
<text text-anchor="middle" x="826" y="-199" font-family="Helvetica,sans-Serif" font-size="10.00">SetIoConnectionCallbacks</text>
</a>
</g>
</g>
<!-- Node17&#45;&gt;Node18 -->
<g id="edge19" class="edge"><title>Node17&#45;&gt;Node18</title>
<path fill="none" stroke="midnightblue" d="M694.127,-200.147C714.95,-200.363 738.192,-200.603 759.245,-200.82"/>
<polygon fill="midnightblue" stroke="midnightblue" points="694.155,-196.648 684.119,-200.044 694.082,-203.647 694.155,-196.648"/>
</g>
<!-- Node19 -->
<g id="node19" class="node"><title>Node19</title>
<g id="a_node19"><a xlink:href="../../de/d45/cipioconnection_8h.html#a43e270b3f9b9f6296b12285c320c95aa" target="_top" xlink:title="Setup all data in order to establish an IO connection. ">
<polygon fill="none" stroke="black" points="961.5,-187 961.5,-206 1076.5,-206 1076.5,-187 961.5,-187"/>
<text text-anchor="middle" x="1019" y="-194" font-family="Helvetica,sans-Serif" font-size="10.00">EstablishIoConnection</text>
</a>
</g>
</g>
<!-- Node18&#45;&gt;Node19 -->
<g id="edge20" class="edge"><title>Node18&#45;&gt;Node19</title>
<path fill="none" stroke="midnightblue" d="M902.82,-199.515C922.346,-199.004 943.021,-198.463 961.382,-197.982"/>
<polygon fill="midnightblue" stroke="midnightblue" points="902.636,-196.019 892.731,-199.779 902.82,-203.016 902.636,-196.019"/>
</g>
<!-- Node20 -->
<g id="node20" class="node"><title>Node20</title>
<g id="a_node20"><a xlink:href="../../d2/da3/cipconnectionmanager_8h.html#a5ab0de6894d23e8fe84a6b46797c2212" target="_top" xlink:title="Initialize the data of the connection manager object. ">
<polygon fill="none" stroke="black" points="1166,-179 1166,-198 1283,-198 1283,-179 1166,-179"/>
<text text-anchor="middle" x="1224.5" y="-186" font-family="Helvetica,sans-Serif" font-size="10.00">ConnectionManagerInit</text>
</a>
</g>
</g>
<!-- Node19&#45;&gt;Node20 -->
<g id="edge21" class="edge"><title>Node19&#45;&gt;Node20</title>
<path fill="none" stroke="midnightblue" d="M1087,-193.866C1112.44,-192.866 1141.18,-191.736 1165.7,-190.772"/>
<polygon fill="midnightblue" stroke="midnightblue" points="1086.54,-190.381 1076.69,-194.272 1086.82,-197.376 1086.54,-190.381"/>
</g>
<!-- Node20&#45;&gt;Node7 -->
<g id="edge22" class="edge"><title>Node20&#45;&gt;Node7</title>
<path fill="none" stroke="midnightblue" d="M1280.57,-176.849C1315.38,-169.482 1359.32,-160.186 1389.33,-153.836"/>
<polygon fill="midnightblue" stroke="midnightblue" points="1279.6,-173.475 1270.54,-178.97 1281.05,-180.324 1279.6,-173.475"/>
</g>
<!-- Node22 -->
<g id="node22" class="node"><title>Node22</title>
<g id="a_node22"><a xlink:href="../../d7/df9/encap_8h.html#ae8d8af733e9ac70ea728d6255aced4b6" target="_top" xlink:title="EncapsulateListIdentityResponse\lMessage">
<polygon fill="none" stroke="black" points="351,-49.5 351,-79.5 514,-79.5 514,-49.5 351,-49.5"/>
<text text-anchor="start" x="359" y="-67.5" font-family="Helvetica,sans-Serif" font-size="10.00">EncapsulateListIdentityResponse</text>
<text text-anchor="middle" x="432.5" y="-56.5" font-family="Helvetica,sans-Serif" font-size="10.00">Message</text>
</a>
</g>
</g>
<!-- Node21&#45;&gt;Node22 -->
<g id="edge24" class="edge"><title>Node21&#45;&gt;Node22</title>
<path fill="none" stroke="midnightblue" d="M316.676,-79.616C327.951,-78.1318 339.513,-76.6097 350.753,-75.13"/>
<polygon fill="midnightblue" stroke="midnightblue" points="315.878,-76.1909 306.42,-80.9662 316.792,-83.131 315.878,-76.1909"/>
</g>
<!-- Node23 -->
<g id="node23" class="node"><title>Node23</title>
<g id="a_node23"><a xlink:href="../../d2/dbd/encap_8c.html#ae4d21e6254396c9cb1b5716b054e57de" target="_top" xlink:title="HandleReceivedListIdentity\lCommandTcp">
<polygon fill="none" stroke="black" points="562,-49.5 562,-79.5 699,-79.5 699,-49.5 562,-49.5"/>
<text text-anchor="start" x="570" y="-67.5" font-family="Helvetica,sans-Serif" font-size="10.00">HandleReceivedListIdentity</text>
<text text-anchor="middle" x="630.5" y="-56.5" font-family="Helvetica,sans-Serif" font-size="10.00">CommandTcp</text>
</a>
</g>
</g>
<!-- Node22&#45;&gt;Node23 -->
<g id="edge25" class="edge"><title>Node22&#45;&gt;Node23</title>
<path fill="none" stroke="midnightblue" d="M524.159,-64.5C536.804,-64.5 549.613,-64.5 561.738,-64.5"/>
<polygon fill="midnightblue" stroke="midnightblue" points="524.069,-61.0001 514.069,-64.5 524.069,-68.0001 524.069,-61.0001"/>
</g>
<!-- Node27 -->
<g id="node27" class="node"><title>Node27</title>
<g id="a_node27"><a xlink:href="../../d2/dbd/encap_8c.html#aa042b74f0d2659164f5c6811e6cb4fda" target="_top" xlink:title="HandleReceivedListIdentity\lCommandUdp">
<polygon fill="none" stroke="black" points="562,-0.5 562,-30.5 699,-30.5 699,-0.5 562,-0.5"/>
<text text-anchor="start" x="570" y="-18.5" font-family="Helvetica,sans-Serif" font-size="10.00">HandleReceivedListIdentity</text>
<text text-anchor="middle" x="630.5" y="-7.5" font-family="Helvetica,sans-Serif" font-size="10.00">CommandUdp</text>
</a>
</g>
</g>
<!-- Node22&#45;&gt;Node27 -->
<g id="edge33" class="edge"><title>Node22&#45;&gt;Node27</title>
<path fill="none" stroke="midnightblue" d="M503.407,-47.0232C525.01,-41.6225 548.602,-35.7245 569.475,-30.5062"/>
<polygon fill="midnightblue" stroke="midnightblue" points="502.491,-43.6445 493.638,-49.4654 504.189,-50.4355 502.491,-43.6445"/>
</g>
<!-- Node23&#45;&gt;Node5 -->
<g id="edge26" class="edge"><title>Node23&#45;&gt;Node5</title>
<path fill="none" stroke="midnightblue" d="M709.246,-66.8308C764.162,-69.2249 839.366,-74.0133 905,-83.5 930.752,-87.2222 959.366,-93.5759 981.357,-98.9463"/>
<polygon fill="midnightblue" stroke="midnightblue" points="709.372,-63.3331 699.235,-66.411 709.079,-70.327 709.372,-63.3331"/>
</g>
<!-- Node24 -->
<g id="node24" class="node"><title>Node24</title>
<g id="a_node24"><a xlink:href="../../d2/dc9/group__CIP__API.html#gabde366c9e0849b9bca9c1bab7eed34f6" target="_top" xlink:title="Notify the encapsulation layer that an explicit message has been received via UDP. ">
<polygon fill="none" stroke="black" points="747,-17 747,-36 905,-36 905,-17 747,-17"/>
<text text-anchor="middle" x="826" y="-24" font-family="Helvetica,sans-Serif" font-size="10.00">HandleReceivedExplictUdpData</text>
</a>
</g>
</g>
<!-- Node23&#45;&gt;Node24 -->
<g id="edge27" class="edge"><title>Node23&#45;&gt;Node24</title>
<path fill="none" stroke="midnightblue" d="M709.17,-49.247C731.936,-44.7762 756.169,-40.0172 776.554,-36.0139"/>
<polygon fill="midnightblue" stroke="midnightblue" points="708.315,-45.8479 699.177,-51.2094 709.664,-52.7167 708.315,-45.8479"/>
</g>
<!-- Node24&#45;&gt;Node5 -->
<g id="edge28" class="edge"><title>Node24&#45;&gt;Node5</title>
<path fill="none" stroke="midnightblue" d="M877.47,-39.0856C886.865,-42.2439 896.418,-46.0346 905,-50.5 922.981,-59.856 923.372,-68.4938 941,-78.5 955.598,-86.7863 972.936,-93.7647 987.46,-98.8999"/>
<polygon fill="midnightblue" stroke="midnightblue" points="878.373,-35.7004 867.783,-36.0215 876.262,-42.3745 878.373,-35.7004"/>
</g>
<!-- Node25 -->
<g id="node25" class="node"><title>Node25</title>
<g id="a_node25"><a xlink:href="../../db/d4f/generic__networkhandler_8c.html#a5cae623dd720f3072dabdb78aa134262" target="_top" xlink:title="Checks and handles incoming messages via UDP broadcast. ">
<polygon fill="none" stroke="black" points="1133,-49.5 1133,-79.5 1316,-79.5 1316,-49.5 1133,-49.5"/>
<text text-anchor="start" x="1141" y="-67.5" font-family="Helvetica,sans-Serif" font-size="10.00">CheckAndHandleUdpGlobalBroadcast</text>
<text text-anchor="middle" x="1224.5" y="-56.5" font-family="Helvetica,sans-Serif" font-size="10.00">Socket</text>
</a>
</g>
</g>
<!-- Node24&#45;&gt;Node25 -->
<g id="edge29" class="edge"><title>Node24&#45;&gt;Node25</title>
<path fill="none" stroke="midnightblue" d="M891.036,-37.6008C907.297,-40.1469 924.761,-42.6466 941,-44.5 1004.99,-51.8038 1077.47,-56.8698 1132.99,-60.0756"/>
<polygon fill="midnightblue" stroke="midnightblue" points="891.516,-34.1331 881.089,-36.0149 890.414,-41.0458 891.516,-34.1331"/>
</g>
<!-- Node26 -->
<g id="node26" class="node"><title>Node26</title>
<g id="a_node26"><a xlink:href="../../db/d4f/generic__networkhandler_8c.html#ace1d8f3907ead0c43c1b5853132d5eb1" target="_top" xlink:title="Checks and processes request received via the UDP unicast socket, currently the implementation is por...">
<polygon fill="none" stroke="black" points="946.5,-5.5 946.5,-35.5 1091.5,-35.5 1091.5,-5.5 946.5,-5.5"/>
<text text-anchor="start" x="954.5" y="-23.5" font-family="Helvetica,sans-Serif" font-size="10.00">CheckAndHandleUdpUnicast</text>
<text text-anchor="middle" x="1019" y="-12.5" font-family="Helvetica,sans-Serif" font-size="10.00">Socket</text>
</a>
</g>
</g>
<!-- Node24&#45;&gt;Node26 -->
<g id="edge31" class="edge"><title>Node24&#45;&gt;Node26</title>
<path fill="none" stroke="midnightblue" d="M915.51,-23.7196C925.836,-23.3952 936.272,-23.0674 946.331,-22.7514"/>
<polygon fill="midnightblue" stroke="midnightblue" points="915.123,-20.2299 905.238,-24.0423 915.343,-27.2265 915.123,-20.2299"/>
</g>
<!-- Node25&#45;&gt;Node12 -->
<g id="edge30" class="edge"><title>Node25&#45;&gt;Node12</title>
<path fill="none" stroke="midnightblue" d="M1326.16,-70.0779C1334.78,-70.556 1343.4,-71.0333 1351.73,-71.4954"/>
<polygon fill="midnightblue" stroke="midnightblue" points="1326.22,-66.5759 1316.04,-69.5172 1325.83,-73.5652 1326.22,-66.5759"/>
</g>
<!-- Node26&#45;&gt;Node12 -->
<g id="edge32" class="edge"><title>Node26&#45;&gt;Node12</title>
<path fill="none" stroke="midnightblue" d="M1101.68,-20.117C1161.53,-21.1945 1244.46,-25.5235 1316,-39.5 1346.07,-45.3736 1379.32,-57.332 1400.87,-65.8536"/>
<polygon fill="midnightblue" stroke="midnightblue" points="1101.58,-16.6152 1091.53,-19.9614 1101.47,-23.6144 1101.58,-16.6152"/>
</g>
<!-- Node27&#45;&gt;Node24 -->
<g id="edge34" class="edge"><title>Node27&#45;&gt;Node24</title>
<path fill="none" stroke="midnightblue" d="M709.398,-19.9283C721.706,-20.628 734.438,-21.3518 746.754,-22.0519"/>
<polygon fill="midnightblue" stroke="midnightblue" points="709.359,-16.4206 699.177,-19.3473 708.962,-23.4093 709.359,-16.4206"/>
</g>
</g>
</svg>
