<?xml version="1.0" encoding="UTF-8" standalone="no"?>
<!DOCTYPE svg PUBLIC "-//W3C//DTD SVG 1.1//EN"
 "http://www.w3.org/Graphics/SVG/1.1/DTD/svg11.dtd">
<!-- Generated by graphviz version 2.38.0 (20140413.2041)
 -->
<!-- Title: ListenOnlyConnection Pages: 1 -->
<svg width="728pt" height="319pt"
 viewBox="0.00 0.00 727.50 319.00" xmlns="http://www.w3.org/2000/svg" xmlns:xlink="http://www.w3.org/1999/xlink">
<g id="graph0" class="graph" transform="scale(1 1) rotate(0) translate(4 315)">
<title>ListenOnlyConnection</title>
<!-- Node1 -->
<g id="node1" class="node"><title>Node1</title>
<polygon fill="#bfbfbf" stroke="black" points="154,-0.5 154,-19.5 267,-19.5 267,-0.5 154,-0.5"/>
<text text-anchor="middle" x="210.5" y="-7.5" font-family="Helvetica,sans-Serif" font-size="10.00">ListenOnlyConnection</text>
</g>
<!-- Node2 -->
<g id="node2" class="node"><title>Node2</title>
<g id="a_node2"><a xlink:href="../../d2/da8/structcip__connection__object.html" target="_top" xlink:title="cip_connection_object">
<polygon fill="none" stroke="black" points="154,-101.5 154,-120.5 267,-120.5 267,-101.5 154,-101.5"/>
<text text-anchor="middle" x="210.5" y="-108.5" font-family="Helvetica,sans-Serif" font-size="10.00">cip_connection_object</text>
</a>
</g>
</g>
<!-- Node2&#45;&gt;Node1 -->
<g id="edge1" class="edge"><title>Node2&#45;&gt;Node1</title>
<path fill="none" stroke="#9a32cd" stroke-dasharray="5,2" d="M210.5,-91.0287C210.5,-69.5427 210.5,-35.4668 210.5,-19.6245"/>
<polygon fill="#9a32cd" stroke="#9a32cd" points="207,-91.2144 210.5,-101.214 214,-91.2144 207,-91.2144"/>
<text text-anchor="middle" x="248" y="-41" font-family="Helvetica,sans-Serif" font-size="10.00"> connection_data</text>
</g>
<!-- Node2&#45;&gt;Node2 -->
<g id="edge12" class="edge"><title>Node2&#45;&gt;Node2</title>
<path fill="none" stroke="#9a32cd" stroke-dasharray="5,2" d="M243.763,-122.441C264.825,-125.33 285,-121.516 285,-111 285,-98.8184 257.929,-95.6302 233.765,-101.436"/>
<polygon fill="#9a32cd" stroke="#9a32cd" points="244.24,-118.97 233.765,-120.564 242.948,-125.85 244.24,-118.97"/>
<text text-anchor="start" x="285" y="-147" font-family="Helvetica,sans-Serif" font-size="10.00"> connection_timeout</text>
<text text-anchor="middle" x="343" y="-136" font-family="Helvetica,sans-Serif" font-size="10.00">_function</text>
<text text-anchor="start" x="285" y="-125" font-family="Helvetica,sans-Serif" font-size="10.00">connection_send_data</text>
<text text-anchor="middle" x="343" y="-114" font-family="Helvetica,sans-Serif" font-size="10.00">_function</text>
<text text-anchor="middle" x="343" y="-103" font-family="Helvetica,sans-Serif" font-size="10.00">current_state_handler</text>
<text text-anchor="start" x="285" y="-92" font-family="Helvetica,sans-Serif" font-size="10.00">connection_receive</text>
<text text-anchor="middle" x="343" y="-81" font-family="Helvetica,sans-Serif" font-size="10.00">_data_function</text>
<text text-anchor="middle" x="343" y="-70" font-family="Helvetica,sans-Serif" font-size="10.00">connection_close_function</text>
</g>
<!-- Node3 -->
<g id="node3" class="node"><title>Node3</title>
<g id="a_node3"><a xlink:href="../../d9/de3/structconnection__path__epath.html" target="_top" xlink:title="connection_path_epath">
<polygon fill="none" stroke="black" points="0,-224.5 0,-243.5 117,-243.5 117,-224.5 0,-224.5"/>
<text text-anchor="middle" x="58.5" y="-231.5" font-family="Helvetica,sans-Serif" font-size="10.00">connection_path_epath</text>
</a>
</g>
</g>
<!-- Node3&#45;&gt;Node2 -->
<g id="edge2" class="edge"><title>Node3&#45;&gt;Node2</title>
<path fill="none" stroke="#9a32cd" stroke-dasharray="5,2" d="M64.5747,-214.493C69.5848,-201.561 77.7833,-184.601 89.5,-173 115.83,-146.93 155.562,-129.849 182.239,-120.564"/>
<polygon fill="#9a32cd" stroke="#9a32cd" points="61.1747,-213.607 61.1089,-224.202 67.7672,-215.96 61.1747,-213.607"/>
<text text-anchor="middle" x="131" y="-198" font-family="Helvetica,sans-Serif" font-size="10.00"> configuration_path</text>
<text text-anchor="middle" x="131" y="-187" font-family="Helvetica,sans-Serif" font-size="10.00">consumed_path</text>
<text text-anchor="middle" x="131" y="-176" font-family="Helvetica,sans-Serif" font-size="10.00">produced_path</text>
</g>
<!-- Node4 -->
<g id="node4" class="node"><title>Node4</title>
<g id="a_node4"><a xlink:href="../../d3/d4a/structenip__message.html" target="_top" xlink:title="enip_message">
<polygon fill="none" stroke="black" points="135.5,-224.5 135.5,-243.5 215.5,-243.5 215.5,-224.5 135.5,-224.5"/>
<text text-anchor="middle" x="175.5" y="-231.5" font-family="Helvetica,sans-Serif" font-size="10.00">enip_message</text>
</a>
</g>
</g>
<!-- Node4&#45;&gt;Node2 -->
<g id="edge3" class="edge"><title>Node4&#45;&gt;Node2</title>
<path fill="none" stroke="#9a32cd" stroke-dasharray="5,2" d="M175.732,-214.147C176.281,-202.172 177.753,-186.45 181.5,-173 186.976,-153.345 198.405,-132.228 205.165,-120.717"/>
<polygon fill="#9a32cd" stroke="#9a32cd" points="172.229,-214.188 175.443,-224.284 179.226,-214.388 172.229,-214.188"/>
<text text-anchor="middle" x="216.5" y="-187" font-family="Helvetica,sans-Serif" font-size="10.00"> last_reply_sent</text>
</g>
<!-- Node5 -->
<g id="node5" class="node"><title>Node5</title>
<g id="a_node5"><a xlink:href="../../d5/dc5/structcip__instance.html" target="_top" xlink:title="cip_instance">
<polygon fill="none" stroke="black" points="476,-224.5 476,-243.5 547,-243.5 547,-224.5 476,-224.5"/>
<text text-anchor="middle" x="511.5" y="-231.5" font-family="Helvetica,sans-Serif" font-size="10.00">cip_instance</text>
</a>
</g>
</g>
<!-- Node5&#45;&gt;Node2 -->
<g id="edge4" class="edge"><title>Node5&#45;&gt;Node2</title>
<path fill="none" stroke="#9a32cd" stroke-dasharray="5,2" d="M465.969,-233.045C435.271,-231.15 394.969,-224.767 364.5,-206 348.833,-196.35 353.783,-184.6 339.5,-173 308.539,-147.856 265.498,-130.211 237.818,-120.579"/>
<polygon fill="#9a32cd" stroke="#9a32cd" points="465.827,-236.542 475.983,-233.527 466.163,-229.55 465.827,-236.542"/>
<text text-anchor="middle" x="411" y="-192.5" font-family="Helvetica,sans-Serif" font-size="10.00"> consuming_instance</text>
<text text-anchor="middle" x="411" y="-181.5" font-family="Helvetica,sans-Serif" font-size="10.00">producing_instance</text>
</g>
<!-- Node5&#45;&gt;Node5 -->
<g id="edge10" class="edge"><title>Node5&#45;&gt;Node5</title>
<path fill="none" stroke="#9a32cd" stroke-dasharray="5,2" d="M557.28,-238.947C561.99,-237.973 565,-236.324 565,-234 565,-230.281 557.293,-228.291 547.253,-228.03"/>
<polygon fill="#9a32cd" stroke="#9a32cd" points="556.846,-235.473 547.253,-239.97 557.557,-242.437 556.846,-235.473"/>
<text text-anchor="middle" x="576" y="-231.5" font-family="Helvetica,sans-Serif" font-size="10.00"> next</text>
</g>
<!-- Node6 -->
<g id="node6" class="node"><title>Node6</title>
<g id="a_node6"><a xlink:href="../../da/d8e/structcip__class.html" target="_top" xlink:title="Class is a subclass of Instance. ">
<polygon fill="none" stroke="black" points="577.5,-0.5 577.5,-19.5 635.5,-19.5 635.5,-0.5 577.5,-0.5"/>
<text text-anchor="middle" x="606.5" y="-7.5" font-family="Helvetica,sans-Serif" font-size="10.00">cip_class</text>
</a>
</g>
</g>
<!-- Node5&#45;&gt;Node6 -->
<g id="edge8" class="edge"><title>Node5&#45;&gt;Node6</title>
<path fill="none" stroke="#9a32cd" stroke-dasharray="5,2" d="M500.681,-215.521C482.335,-183.407 449.952,-114.007 480.5,-67 501.827,-34.1823 547.308,-20.4416 577.39,-14.7964"/>
<polygon fill="#9a32cd" stroke="#9a32cd" points="497.729,-217.405 505.838,-224.224 503.751,-213.836 497.729,-217.405"/>
<text text-anchor="middle" x="515" y="-114" font-family="Helvetica,sans-Serif" font-size="10.00"> class_instance</text>
<text text-anchor="middle" x="515" y="-103" font-family="Helvetica,sans-Serif" font-size="10.00">instances</text>
</g>
<!-- Node7 -->
<g id="node7" class="node"><title>Node7</title>
<g id="a_node7"><a xlink:href="../../d8/de2/structcip__service__struct.html" target="_top" xlink:title="Service descriptor. These are stored in an array. ">
<polygon fill="none" stroke="black" points="558.5,-101.5 558.5,-120.5 654.5,-120.5 654.5,-101.5 558.5,-101.5"/>
<text text-anchor="middle" x="606.5" y="-108.5" font-family="Helvetica,sans-Serif" font-size="10.00">cip_service_struct</text>
</a>
</g>
</g>
<!-- Node5&#45;&gt;Node7 -->
<g id="edge7" class="edge"><title>Node5&#45;&gt;Node7</title>
<path fill="none" stroke="#9a32cd" stroke-dasharray="5,2" d="M524.774,-216.093C545.328,-189.914 584.111,-140.516 599.73,-120.623"/>
<polygon fill="#9a32cd" stroke="#9a32cd" points="521.755,-214.271 518.332,-224.298 527.26,-218.594 521.755,-214.271"/>
<text text-anchor="middle" x="593" y="-187" font-family="Helvetica,sans-Serif" font-size="10.00"> service_function</text>
</g>
<!-- Node6&#45;&gt;Node5 -->
<g id="edge5" class="edge"><title>Node6&#45;&gt;Node5</title>
<path fill="none" stroke="#9a32cd" stroke-dasharray="5,2" d="M634.772,-24.8609C640.477,-28.5644 646.074,-32.9632 650.5,-38 685.035,-77.3029 676.875,-104.419 663.5,-155 656.834,-180.208 655.493,-190.535 634.5,-206 609.241,-224.608 573.652,-230.838 547.25,-232.721"/>
<polygon fill="#9a32cd" stroke="#9a32cd" points="636.263,-21.6774 625.87,-19.6216 632.713,-27.7101 636.263,-21.6774"/>
<text text-anchor="middle" x="697" y="-108.5" font-family="Helvetica,sans-Serif" font-size="10.00"> cip_class</text>
</g>
<!-- Node7&#45;&gt;Node6 -->
<g id="edge6" class="edge"><title>Node7&#45;&gt;Node6</title>
<path fill="none" stroke="#9a32cd" stroke-dasharray="5,2" d="M606.5,-91.0287C606.5,-69.5427 606.5,-35.4668 606.5,-19.6245"/>
<polygon fill="#9a32cd" stroke="#9a32cd" points="603,-91.2144 606.5,-101.214 610,-91.2144 603,-91.2144"/>
<text text-anchor="middle" x="626.5" y="-41" font-family="Helvetica,sans-Serif" font-size="10.00"> services</text>
</g>
<!-- Node8 -->
<g id="node8" class="node"><title>Node8</title>
<g id="a_node8"><a xlink:href="../../d4/d62/structCipAttributeStruct.html" target="_top" xlink:title="CipAttributeStruct">
<polygon fill="none" stroke="black" points="464,-291.5 464,-310.5 559,-310.5 559,-291.5 464,-291.5"/>
<text text-anchor="middle" x="511.5" y="-298.5" font-family="Helvetica,sans-Serif" font-size="10.00">CipAttributeStruct</text>
</a>
</g>
</g>
<!-- Node8&#45;&gt;Node5 -->
<g id="edge9" class="edge"><title>Node8&#45;&gt;Node5</title>
<path fill="none" stroke="#9a32cd" stroke-dasharray="5,2" d="M511.5,-281.037C511.5,-268.67 511.5,-253.12 511.5,-243.627"/>
<polygon fill="#9a32cd" stroke="#9a32cd" points="508,-281.234 511.5,-291.234 515,-281.234 508,-281.234"/>
<text text-anchor="middle" x="533.5" y="-265" font-family="Helvetica,sans-Serif" font-size="10.00"> attributes</text>
</g>
<!-- Node9 -->
<g id="node9" class="node"><title>Node9</title>
<g id="a_node9"><a xlink:href="../../d9/da7/structCipElectronicKey.html" target="_top" xlink:title="CIP Electronic Key Segment struct. ">
<polygon fill="none" stroke="black" points="233.5,-224.5 233.5,-243.5 325.5,-243.5 325.5,-224.5 233.5,-224.5"/>
<text text-anchor="middle" x="279.5" y="-231.5" font-family="Helvetica,sans-Serif" font-size="10.00">CipElectronicKey</text>
</a>
</g>
</g>
<!-- Node9&#45;&gt;Node2 -->
<g id="edge11" class="edge"><title>Node9&#45;&gt;Node2</title>
<path fill="none" stroke="#9a32cd" stroke-dasharray="5,2" d="M271.894,-214.815C266.625,-202.724 259.196,-186.624 251.5,-173 240.58,-153.669 225.563,-132.435 217.064,-120.816"/>
<polygon fill="#9a32cd" stroke="#9a32cd" points="268.775,-216.423 275.921,-224.245 275.212,-213.674 268.775,-216.423"/>
<text text-anchor="middle" x="302" y="-187" font-family="Helvetica,sans-Serif" font-size="10.00"> electronic_key</text>
</g>
</g>
</svg>
