<?xml version="1.0" encoding="UTF-8" standalone="no"?>
<!DOCTYPE svg PUBLIC "-//W3C//DTD SVG 1.1//EN"
 "http://www.w3.org/Graphics/SVG/1.1/DTD/svg11.dtd">
<!-- Generated by graphviz version 2.36.0 (20140111.2315)
 -->
<!-- Title: src/cip/cipclass3connection.c Pages: 1 -->
<svg width="640pt" height="420pt"
 viewBox="0.00 0.00 640.47 420.00" xmlns="http://www.w3.org/2000/svg" xmlns:xlink="http://www.w3.org/1999/xlink">
<g id="graph0" class="graph" transform="scale(1 1) rotate(0) translate(4 416)">
<title>src/cip/cipclass3connection.c</title>
<!-- Node1 -->
<g id="node1" class="node"><title>Node1</title>
<polygon fill="#bfbfbf" stroke="black" points="192.02,-392.5 192.02,-411.5 338.02,-411.5 338.02,-392.5 192.02,-392.5"/>
<text text-anchor="middle" x="265.02" y="-399.5" font-family="Helvetica,sans-Serif" font-size="10.00">src/cip/cipclass3connection.c</text>
</g>
<!-- Node2 -->
<g id="node2" class="node"><title>Node2</title>
<polygon fill="none" stroke="#bfbfbf" points="141.52,-336.5 141.52,-355.5 190.52,-355.5 190.52,-336.5 141.52,-336.5"/>
<text text-anchor="middle" x="166.02" y="-343.5" font-family="Helvetica,sans-Serif" font-size="10.00">string.h</text>
</g>
<!-- Node1&#45;&gt;Node2 -->
<g id="edge1" class="edge"><title>Node1&#45;&gt;Node2</title>
<path fill="none" stroke="midnightblue" d="M249.113,-392.324C233.381,-383.743 209.077,-370.486 190.811,-360.522"/>
<polygon fill="midnightblue" stroke="midnightblue" points="192.341,-357.37 181.886,-355.655 188.989,-363.516 192.341,-357.37"/>
</g>
<!-- Node3 -->
<g id="node3" class="node"><title>Node3</title>
<g id="a_node3"><a xlink:href="../../d2/d11/cipclass3connection_8h.html" target="_top" xlink:title="CIP Class 3 connection. ">
<polygon fill="none" stroke="black" points="208.52,-336.5 208.52,-355.5 321.52,-355.5 321.52,-336.5 208.52,-336.5"/>
<text text-anchor="middle" x="265.02" y="-343.5" font-family="Helvetica,sans-Serif" font-size="10.00">cipclass3connection.h</text>
</a>
</g>
</g>
<!-- Node1&#45;&gt;Node3 -->
<g id="edge2" class="edge"><title>Node1&#45;&gt;Node3</title>
<path fill="none" stroke="midnightblue" d="M265.02,-392.083C265.02,-385.006 265.02,-374.861 265.02,-365.986"/>
<polygon fill="midnightblue" stroke="midnightblue" points="268.52,-365.751 265.02,-355.751 261.52,-365.751 268.52,-365.751"/>
</g>
<!-- Node20 -->
<g id="node20" class="node"><title>Node20</title>
<g id="a_node20"><a xlink:href="../../d7/df9/encap_8h.html" target="_top" xlink:title="This file contains the public interface of the encapsulation layer. ">
<polygon fill="none" stroke="black" points="329.52,-280.5 329.52,-299.5 380.52,-299.5 380.52,-280.5 329.52,-280.5"/>
<text text-anchor="middle" x="355.02" y="-287.5" font-family="Helvetica,sans-Serif" font-size="10.00">encap.h</text>
</a>
</g>
</g>
<!-- Node1&#45;&gt;Node20 -->
<g id="edge36" class="edge"><title>Node1&#45;&gt;Node20</title>
<path fill="none" stroke="midnightblue" d="M282.969,-392.414C297.435,-384.684 317.381,-372.078 330.02,-356 340.75,-342.35 347.309,-323.559 351,-309.691"/>
<polygon fill="midnightblue" stroke="midnightblue" points="354.439,-310.358 353.369,-299.817 347.632,-308.724 354.439,-310.358"/>
</g>
<!-- Node4 -->
<g id="node4" class="node"><title>Node4</title>
<g id="a_node4"><a xlink:href="../../d4/d38/opener__api_8h.html" target="_top" xlink:title="opener_api.h">
<polygon fill="none" stroke="black" points="188.02,-168.5 188.02,-187.5 260.02,-187.5 260.02,-168.5 188.02,-168.5"/>
<text text-anchor="middle" x="224.02" y="-175.5" font-family="Helvetica,sans-Serif" font-size="10.00">opener_api.h</text>
</a>
</g>
</g>
<!-- Node3&#45;&gt;Node4 -->
<g id="edge3" class="edge"><title>Node3&#45;&gt;Node4</title>
<path fill="none" stroke="midnightblue" d="M262.815,-336.075C256.361,-309.945 237.409,-233.211 228.608,-197.577"/>
<polygon fill="midnightblue" stroke="midnightblue" points="231.932,-196.437 226.136,-187.568 225.136,-198.116 231.932,-196.437"/>
</g>
<!-- Node15 -->
<g id="node15" class="node"><title>Node15</title>
<g id="a_node15"><a xlink:href="../../d2/da3/cipconnectionmanager_8h.html" target="_top" xlink:title="cipconnectionmanager.h">
<polygon fill="none" stroke="black" points="113.02,-280.5 113.02,-299.5 235.02,-299.5 235.02,-280.5 113.02,-280.5"/>
<text text-anchor="middle" x="174.02" y="-287.5" font-family="Helvetica,sans-Serif" font-size="10.00">cipconnectionmanager.h</text>
</a>
</g>
</g>
<!-- Node3&#45;&gt;Node15 -->
<g id="edge17" class="edge"><title>Node3&#45;&gt;Node15</title>
<path fill="none" stroke="midnightblue" d="M250.399,-336.324C236.071,-327.822 214.007,-314.729 197.271,-304.797"/>
<polygon fill="midnightblue" stroke="midnightblue" points="198.99,-301.748 188.604,-299.655 195.418,-307.768 198.99,-301.748"/>
</g>
<!-- Node16 -->
<g id="node16" class="node"><title>Node16</title>
<g id="a_node16"><a xlink:href="../../d1/d6c/cipconnectionobject_8h.html" target="_top" xlink:title="cipconnectionobject.h">
<polygon fill="none" stroke="black" points="291.52,-224.5 291.52,-243.5 402.52,-243.5 402.52,-224.5 291.52,-224.5"/>
<text text-anchor="middle" x="347.02" y="-231.5" font-family="Helvetica,sans-Serif" font-size="10.00">cipconnectionobject.h</text>
</a>
</g>
</g>
<!-- Node3&#45;&gt;Node16 -->
<g id="edge35" class="edge"><title>Node3&#45;&gt;Node16</title>
<path fill="none" stroke="midnightblue" d="M271.454,-336.368C285.046,-318.135 316.884,-275.426 334.589,-251.675"/>
<polygon fill="midnightblue" stroke="midnightblue" points="337.444,-253.701 340.615,-243.591 331.832,-249.517 337.444,-253.701"/>
</g>
<!-- Node5 -->
<g id="node5" class="node"><title>Node5</title>
<polygon fill="none" stroke="#bfbfbf" points="132.02,-112.5 132.02,-131.5 184.02,-131.5 184.02,-112.5 132.02,-112.5"/>
<text text-anchor="middle" x="158.02" y="-119.5" font-family="Helvetica,sans-Serif" font-size="10.00">assert.h</text>
</g>
<!-- Node4&#45;&gt;Node5 -->
<g id="edge4" class="edge"><title>Node4&#45;&gt;Node5</title>
<path fill="none" stroke="midnightblue" d="M213.416,-168.324C203.563,-160.263 188.669,-148.077 176.804,-138.369"/>
<polygon fill="midnightblue" stroke="midnightblue" points="178.772,-135.457 168.817,-131.834 174.34,-140.875 178.772,-135.457"/>
</g>
<!-- Node6 -->
<g id="node6" class="node"><title>Node6</title>
<polygon fill="none" stroke="#bfbfbf" points="379.02,-0.5 379.02,-19.5 435.02,-19.5 435.02,-0.5 379.02,-0.5"/>
<text text-anchor="middle" x="407.02" y="-7.5" font-family="Helvetica,sans-Serif" font-size="10.00">stdbool.h</text>
</g>
<!-- Node4&#45;&gt;Node6 -->
<g id="edge5" class="edge"><title>Node4&#45;&gt;Node6</title>
<path fill="none" stroke="midnightblue" d="M233.601,-168.309C263,-141.64 352.212,-60.7157 389.912,-26.5186"/>
<polygon fill="midnightblue" stroke="midnightblue" points="392.478,-28.9162 397.533,-19.6051 387.775,-23.7315 392.478,-28.9162"/>
</g>
<!-- Node7 -->
<g id="node7" class="node"><title>Node7</title>
<g id="a_node7"><a xlink:href="../../d7/d69/typedefs_8h.html" target="_top" xlink:title="typedefs.h">
<polygon fill="none" stroke="black" points="468.02,-56.5 468.02,-75.5 530.02,-75.5 530.02,-56.5 468.02,-56.5"/>
<text text-anchor="middle" x="499.02" y="-63.5" font-family="Helvetica,sans-Serif" font-size="10.00">typedefs.h</text>
</a>
</g>
</g>
<!-- Node4&#45;&gt;Node7 -->
<g id="edge6" class="edge"><title>Node4&#45;&gt;Node7</title>
<path fill="none" stroke="midnightblue" d="M246.304,-168.492C269.693,-159.53 307.51,-144.95 340.02,-132 385.018,-114.076 436.921,-92.7308 468.853,-79.5211"/>
<polygon fill="midnightblue" stroke="midnightblue" points="470.585,-82.5923 478.485,-75.5327 467.907,-76.1248 470.585,-82.5923"/>
</g>
<!-- Node10 -->
<g id="node10" class="node"><title>Node10</title>
<g id="a_node10"><a xlink:href="../../df/d28/ciptypes_8h.html" target="_top" xlink:title="ciptypes.h">
<polygon fill="none" stroke="black" points="52.0195,-112.5 52.0195,-131.5 114.02,-131.5 114.02,-112.5 52.0195,-112.5"/>
<text text-anchor="middle" x="83.0195" y="-119.5" font-family="Helvetica,sans-Serif" font-size="10.00">ciptypes.h</text>
</a>
</g>
</g>
<!-- Node4&#45;&gt;Node10 -->
<g id="edge10" class="edge"><title>Node4&#45;&gt;Node10</title>
<path fill="none" stroke="midnightblue" d="M201.678,-168.444C178.267,-159.478 141.284,-145.314 114.83,-135.183"/>
<polygon fill="midnightblue" stroke="midnightblue" points="115.847,-131.824 105.257,-131.516 113.344,-138.361 115.847,-131.824"/>
</g>
<!-- Node14 -->
<g id="node14" class="node"><title>Node14</title>
<g id="a_node14"><a xlink:href="../../d6/d52/ciperror_8h.html" target="_top" xlink:title="ciperror.h">
<polygon fill="none" stroke="black" points="202.52,-112.5 202.52,-131.5 259.52,-131.5 259.52,-112.5 202.52,-112.5"/>
<text text-anchor="middle" x="231.02" y="-119.5" font-family="Helvetica,sans-Serif" font-size="10.00">ciperror.h</text>
</a>
</g>
</g>
<!-- Node4&#45;&gt;Node14 -->
<g id="edge16" class="edge"><title>Node4&#45;&gt;Node14</title>
<path fill="none" stroke="midnightblue" d="M225.175,-168.083C226.103,-160.927 227.437,-150.635 228.597,-141.691"/>
<polygon fill="midnightblue" stroke="midnightblue" points="232.07,-142.118 229.885,-131.751 225.129,-141.218 232.07,-142.118"/>
</g>
<!-- Node7&#45;&gt;Node6 -->
<g id="edge9" class="edge"><title>Node7&#45;&gt;Node6</title>
<path fill="none" stroke="midnightblue" d="M484.238,-56.324C469.752,-47.8215 447.446,-34.7288 430.526,-24.7975"/>
<polygon fill="midnightblue" stroke="midnightblue" points="432.16,-21.6981 421.764,-19.6545 428.617,-27.735 432.16,-21.6981"/>
</g>
<!-- Node8 -->
<g id="node8" class="node"><title>Node8</title>
<polygon fill="none" stroke="#bfbfbf" points="463.52,-0.5 463.52,-19.5 522.52,-19.5 522.52,-0.5 463.52,-0.5"/>
<text text-anchor="middle" x="493.02" y="-7.5" font-family="Helvetica,sans-Serif" font-size="10.00">inttypes.h</text>
</g>
<!-- Node7&#45;&gt;Node8 -->
<g id="edge7" class="edge"><title>Node7&#45;&gt;Node8</title>
<path fill="none" stroke="midnightblue" d="M498.029,-56.083C497.234,-48.9272 496.09,-38.6353 495.096,-29.6911"/>
<polygon fill="midnightblue" stroke="midnightblue" points="498.575,-29.3034 493.992,-19.7511 491.618,-30.0765 498.575,-29.3034"/>
</g>
<!-- Node9 -->
<g id="node9" class="node"><title>Node9</title>
<polygon fill="none" stroke="#bfbfbf" points="541.02,-0.5 541.02,-19.5 593.02,-19.5 593.02,-0.5 541.02,-0.5"/>
<text text-anchor="middle" x="567.02" y="-7.5" font-family="Helvetica,sans-Serif" font-size="10.00">stddef.h</text>
</g>
<!-- Node7&#45;&gt;Node9 -->
<g id="edge8" class="edge"><title>Node7&#45;&gt;Node9</title>
<path fill="none" stroke="midnightblue" d="M509.945,-56.324C520.194,-48.1849 535.74,-35.8395 548.021,-26.0874"/>
<polygon fill="midnightblue" stroke="midnightblue" points="550.241,-28.7937 555.895,-19.8339 545.888,-23.3119 550.241,-28.7937"/>
</g>
<!-- Node10&#45;&gt;Node7 -->
<g id="edge11" class="edge"><title>Node10&#45;&gt;Node7</title>
<path fill="none" stroke="midnightblue" d="M114.402,-113.621C117.308,-113.034 120.213,-112.482 123.02,-112 243.814,-91.2382 388.079,-76.8505 457.569,-70.5639"/>
<polygon fill="midnightblue" stroke="midnightblue" points="458.018,-74.0377 467.667,-69.66 457.394,-67.0656 458.018,-74.0377"/>
</g>
<!-- Node11 -->
<g id="node11" class="node"><title>Node11</title>
<polygon fill="none" stroke="#bfbfbf" points="168.52,-56.5 168.52,-75.5 259.52,-75.5 259.52,-56.5 168.52,-56.5"/>
<text text-anchor="middle" x="214.02" y="-63.5" font-family="Helvetica,sans-Serif" font-size="10.00">networkhandler.h</text>
</g>
<!-- Node10&#45;&gt;Node11 -->
<g id="edge12" class="edge"><title>Node10&#45;&gt;Node11</title>
<path fill="none" stroke="midnightblue" d="M103.777,-112.444C125.336,-103.557 159.283,-89.5632 183.813,-79.4514"/>
<polygon fill="midnightblue" stroke="midnightblue" points="185.448,-82.5634 193.359,-75.5164 182.78,-76.0917 185.448,-82.5634"/>
</g>
<!-- Node12 -->
<g id="node12" class="node"><title>Node12</title>
<g id="a_node12"><a xlink:href="../../d8/d2c/enipmessage_8h.html" target="_top" xlink:title="enipmessage.h">
<polygon fill="none" stroke="black" points="28.5195,-56.5 28.5195,-75.5 111.52,-75.5 111.52,-56.5 28.5195,-56.5"/>
<text text-anchor="middle" x="70.0195" y="-63.5" font-family="Helvetica,sans-Serif" font-size="10.00">enipmessage.h</text>
</a>
</g>
</g>
<!-- Node10&#45;&gt;Node12 -->
<g id="edge13" class="edge"><title>Node10&#45;&gt;Node12</title>
<path fill="none" stroke="midnightblue" d="M80.8729,-112.083C79.1502,-104.927 76.6725,-94.6353 74.5193,-85.6911"/>
<polygon fill="midnightblue" stroke="midnightblue" points="77.8697,-84.6541 72.1263,-75.7511 71.0641,-86.2925 77.8697,-84.6541"/>
</g>
<!-- Node13 -->
<g id="node13" class="node"><title>Node13</title>
<polygon fill="none" stroke="#bfbfbf" points="54.0195,-0.5 54.0195,-19.5 156.02,-19.5 156.02,-0.5 54.0195,-0.5"/>
<text text-anchor="middle" x="105.02" y="-7.5" font-family="Helvetica,sans-Serif" font-size="10.00">opener_user_conf.h</text>
</g>
<!-- Node10&#45;&gt;Node13 -->
<g id="edge15" class="edge"><title>Node10&#45;&gt;Node13</title>
<path fill="none" stroke="midnightblue" d="M93.458,-112.245C102.443,-103.969 114.765,-90.663 120.02,-76 125.568,-60.515 120.343,-42.2046 114.59,-28.9704"/>
<polygon fill="midnightblue" stroke="midnightblue" points="117.563,-27.0767 110.06,-19.596 111.26,-30.1227 117.563,-27.0767"/>
</g>
<!-- Node12&#45;&gt;Node13 -->
<g id="edge14" class="edge"><title>Node12&#45;&gt;Node13</title>
<path fill="none" stroke="midnightblue" d="M75.7991,-56.083C80.6919,-48.5341 87.847,-37.4948 93.8521,-28.2298"/>
<polygon fill="midnightblue" stroke="midnightblue" points="96.8456,-30.0463 99.3476,-19.7511 90.9715,-26.239 96.8456,-30.0463"/>
</g>
<!-- Node15&#45;&gt;Node4 -->
<g id="edge19" class="edge"><title>Node15&#45;&gt;Node4</title>
<path fill="none" stroke="midnightblue" d="M177.943,-280.368C186.085,-262.456 204.964,-220.923 215.861,-196.948"/>
<polygon fill="midnightblue" stroke="midnightblue" points="219.163,-198.143 220.114,-187.591 212.79,-195.247 219.163,-198.143"/>
</g>
<!-- Node15&#45;&gt;Node7 -->
<g id="edge20" class="edge"><title>Node15&#45;&gt;Node7</title>
<path fill="none" stroke="midnightblue" d="M235.392,-282.199C333.073,-269.901 516.539,-240.268 552.02,-188 558.71,-178.144 565.781,-145.327 550.02,-112 544.104,-99.4908 532.917,-89.0044 522.525,-81.3103"/>
<polygon fill="midnightblue" stroke="midnightblue" points="524.337,-78.3085 514.115,-75.5208 520.367,-84.0743 524.337,-78.3085"/>
</g>
<!-- Node15&#45;&gt;Node10 -->
<g id="edge21" class="edge"><title>Node15&#45;&gt;Node10</title>
<path fill="none" stroke="midnightblue" d="M169.127,-280.075C154.679,-253.719 112.007,-175.878 92.701,-140.661"/>
<polygon fill="midnightblue" stroke="midnightblue" points="95.5927,-138.654 87.7165,-131.568 89.4545,-142.019 95.5927,-138.654"/>
</g>
<!-- Node15&#45;&gt;Node13 -->
<g id="edge18" class="edge"><title>Node15&#45;&gt;Node13</title>
<path fill="none" stroke="midnightblue" d="M127.391,-280.449C75.8498,-267.991 0.019547,-239.398 0.019547,-179 0.019547,-179 0.019547,-179 0.019547,-121 0.019547,-90.9022 -0.058641,-79.2787 19.0195,-56 31.2523,-41.0739 49.7512,-30.4967 66.4618,-23.3644"/>
<polygon fill="midnightblue" stroke="midnightblue" points="68.0356,-26.5052 76.0333,-19.5562 65.4478,-20.001 68.0356,-26.5052"/>
</g>
<!-- Node15&#45;&gt;Node16 -->
<g id="edge22" class="edge"><title>Node15&#45;&gt;Node16</title>
<path fill="none" stroke="midnightblue" d="M201.432,-280.444C230.789,-271.28 277.539,-256.688 310.115,-246.519"/>
<polygon fill="midnightblue" stroke="midnightblue" points="311.233,-249.837 319.735,-243.516 309.147,-243.155 311.233,-249.837"/>
</g>
<!-- Node16&#45;&gt;Node4 -->
<g id="edge26" class="edge"><title>Node16&#45;&gt;Node4</title>
<path fill="none" stroke="midnightblue" d="M327.53,-224.444C307.377,-215.596 275.697,-201.687 252.689,-191.586"/>
<polygon fill="midnightblue" stroke="midnightblue" points="253.982,-188.332 243.418,-187.516 251.168,-194.741 253.982,-188.332"/>
</g>
<!-- Node16&#45;&gt;Node7 -->
<g id="edge23" class="edge"><title>Node16&#45;&gt;Node7</title>
<path fill="none" stroke="midnightblue" d="M402.772,-227.234C452.116,-220.845 518.754,-208.618 535.02,-188 540.687,-180.816 548.398,-152.718 534.02,-112 530.204,-101.195 522.681,-90.9584 515.584,-82.9869"/>
<polygon fill="midnightblue" stroke="midnightblue" points="517.948,-80.3949 508.516,-75.5704 512.881,-85.2242 517.948,-80.3949"/>
</g>
<!-- Node16&#45;&gt;Node10 -->
<g id="edge24" class="edge"><title>Node16&#45;&gt;Node10</title>
<path fill="none" stroke="midnightblue" d="M298.483,-224.473C264.111,-217.374 217.471,-205.563 179.02,-188 149.78,-174.645 119.66,-152.655 101.138,-138.002"/>
<polygon fill="midnightblue" stroke="midnightblue" points="103.244,-135.204 93.2605,-131.656 98.8521,-140.655 103.244,-135.204"/>
</g>
<!-- Node16&#45;&gt;Node13 -->
<g id="edge25" class="edge"><title>Node16&#45;&gt;Node13</title>
<path fill="none" stroke="midnightblue" d="M337.102,-224.291C328.058,-215.847 314.937,-202.255 307.02,-188 277.318,-134.521 311.662,-98.8671 268.02,-56 241.257,-29.713 200.601,-18.4565 166.588,-13.775"/>
<polygon fill="midnightblue" stroke="midnightblue" points="166.617,-10.2529 156.269,-12.5238 165.775,-17.2021 166.617,-10.2529"/>
</g>
<!-- Node17 -->
<g id="node17" class="node"><title>Node17</title>
<g id="a_node17"><a xlink:href="../../d9/d31/doublylinkedlist_8h.html" target="_top" xlink:title="doublylinkedlist.h">
<polygon fill="none" stroke="black" points="434.02,-168.5 434.02,-187.5 526.02,-187.5 526.02,-168.5 434.02,-168.5"/>
<text text-anchor="middle" x="480.02" y="-175.5" font-family="Helvetica,sans-Serif" font-size="10.00">doublylinkedlist.h</text>
</a>
</g>
</g>
<!-- Node16&#45;&gt;Node17 -->
<g id="edge27" class="edge"><title>Node16&#45;&gt;Node17</title>
<path fill="none" stroke="midnightblue" d="M368.094,-224.444C390.079,-215.517 424.754,-201.439 449.684,-191.317"/>
<polygon fill="midnightblue" stroke="midnightblue" points="451.095,-194.521 459.044,-187.516 448.462,-188.035 451.095,-194.521"/>
</g>
<!-- Node18 -->
<g id="node18" class="node"><title>Node18</title>
<g id="a_node18"><a xlink:href="../../d0/d23/cipelectronickey_8h.html" target="_top" xlink:title="cipelectronickey.h">
<polygon fill="none" stroke="black" points="430.52,-112.5 430.52,-131.5 525.52,-131.5 525.52,-112.5 430.52,-112.5"/>
<text text-anchor="middle" x="478.02" y="-119.5" font-family="Helvetica,sans-Serif" font-size="10.00">cipelectronickey.h</text>
</a>
</g>
</g>
<!-- Node16&#45;&gt;Node18 -->
<g id="edge28" class="edge"><title>Node16&#45;&gt;Node18</title>
<path fill="none" stroke="midnightblue" d="M357.299,-224.368C379.492,-205.733 432.131,-161.532 459.997,-138.134"/>
<polygon fill="midnightblue" stroke="midnightblue" points="462.38,-140.702 467.788,-131.591 457.879,-135.342 462.38,-140.702"/>
</g>
<!-- Node19 -->
<g id="node19" class="node"><title>Node19</title>
<g id="a_node19"><a xlink:href="../../d1/d02/cipepath_8h.html" target="_top" xlink:title="cipepath.h">
<polygon fill="none" stroke="black" points="316.02,-168.5 316.02,-187.5 378.02,-187.5 378.02,-168.5 316.02,-168.5"/>
<text text-anchor="middle" x="347.02" y="-175.5" font-family="Helvetica,sans-Serif" font-size="10.00">cipepath.h</text>
</a>
</g>
</g>
<!-- Node16&#45;&gt;Node19 -->
<g id="edge31" class="edge"><title>Node16&#45;&gt;Node19</title>
<path fill="none" stroke="midnightblue" d="M347.02,-224.083C347.02,-217.006 347.02,-206.861 347.02,-197.986"/>
<polygon fill="midnightblue" stroke="midnightblue" points="350.52,-197.751 347.02,-187.751 343.52,-197.751 350.52,-197.751"/>
</g>
<!-- Node18&#45;&gt;Node6 -->
<g id="edge29" class="edge"><title>Node18&#45;&gt;Node6</title>
<path fill="none" stroke="midnightblue" d="M472.448,-112.368C460.783,-94.2957 433.597,-52.1764 418.191,-28.3074"/>
<polygon fill="midnightblue" stroke="midnightblue" points="420.929,-26.0952 412.565,-19.5914 415.047,-29.8913 420.929,-26.0952"/>
</g>
<!-- Node18&#45;&gt;Node7 -->
<g id="edge30" class="edge"><title>Node18&#45;&gt;Node7</title>
<path fill="none" stroke="midnightblue" d="M481.487,-112.083C484.331,-104.77 488.449,-94.1814 491.979,-85.1034"/>
<polygon fill="midnightblue" stroke="midnightblue" points="495.254,-86.3397 495.616,-75.7511 488.73,-83.8025 495.254,-86.3397"/>
</g>
<!-- Node19&#45;&gt;Node6 -->
<g id="edge32" class="edge"><title>Node19&#45;&gt;Node6</title>
<path fill="none" stroke="midnightblue" d="M350.245,-168.075C359.731,-141.832 387.666,-64.5453 400.471,-29.1165"/>
<polygon fill="midnightblue" stroke="midnightblue" points="403.815,-30.1624 403.923,-19.5681 397.232,-27.7829 403.815,-30.1624"/>
</g>
<!-- Node19&#45;&gt;Node10 -->
<g id="edge33" class="edge"><title>Node19&#45;&gt;Node10</title>
<path fill="none" stroke="midnightblue" d="M315.809,-170.966C274.345,-162.898 198.563,-147.975 124.421,-132.264"/>
<polygon fill="midnightblue" stroke="midnightblue" points="124.957,-128.799 114.447,-130.143 123.501,-135.646 124.957,-128.799"/>
</g>
<!-- Node19&#45;&gt;Node18 -->
<g id="edge34" class="edge"><title>Node19&#45;&gt;Node18</title>
<path fill="none" stroke="midnightblue" d="M367.777,-168.444C389.336,-159.557 423.283,-145.563 447.813,-135.451"/>
<polygon fill="midnightblue" stroke="midnightblue" points="449.448,-138.563 457.359,-131.516 446.78,-132.092 449.448,-138.563"/>
</g>
<!-- Node20&#45;&gt;Node7 -->
<g id="edge37" class="edge"><title>Node20&#45;&gt;Node7</title>
<path fill="none" stroke="midnightblue" d="M380.845,-288.386C439.018,-286.404 577.469,-278.124 606.02,-244 643.665,-199.005 638.481,-160.867 606.02,-112 591.384,-89.968 563.63,-78.6989 540.056,-72.9477"/>
<polygon fill="midnightblue" stroke="midnightblue" points="540.776,-69.5226 530.259,-70.8055 539.281,-76.361 540.776,-69.5226"/>
</g>
<!-- Node20&#45;&gt;Node16 -->
<g id="edge38" class="edge"><title>Node20&#45;&gt;Node16</title>
<path fill="none" stroke="midnightblue" d="M353.699,-280.083C352.638,-272.927 351.114,-262.635 349.789,-253.691"/>
<polygon fill="midnightblue" stroke="midnightblue" points="353.244,-253.13 348.316,-243.751 346.319,-254.156 353.244,-253.13"/>
</g>
</g>
</svg>
