<?xml version="1.0" encoding="UTF-8" standalone="no"?>
<!DOCTYPE svg PUBLIC "-//W3C//DTD SVG 1.1//EN"
 "http://www.w3.org/Graphics/SVG/1.1/DTD/svg11.dtd">
<!-- Generated by graphviz version 2.36.0 (20140111.2315)
 -->
<!-- Title: src/cip/cipclass3connection.c Pages: 1 -->
<!--zoomable 476 -->
<svg id="main" version="1.1" xmlns="http://www.w3.org/2000/svg" xmlns:xlink="http://www.w3.org/1999/xlink" xml:space="preserve" onload="init(evt)">
<style type="text/css"><![CDATA[
.edge:hover path { stroke: red; }
.edge:hover polygon { stroke: red; fill: red; }
]]></style>
<script type="text/javascript"><![CDATA[
var edges = document.getElementsByTagName('g');
if (edges && edges.length) {
  for (var i=0;i<edges.length;i++) {
    if (edges[i].id.substr(0,4)=='edge') {
      edges[i].setAttribute('class','edge');
    }
  }
}
]]></script>
        <defs>
                <circle id="rim" cx="0" cy="0" r="7"/>
                <circle id="rim2" cx="0" cy="0" r="3.5"/>
                <g id="zoomPlus">
                        <use xlink:href="#rim" fill="#404040">
                                <set attributeName="fill" to="#808080" begin="zoomplus.mouseover" end="zoomplus.mouseout"/>
                        </use>
                        <path d="M-4,0h8M0,-4v8" fill="none" stroke="white" stroke-width="1.5" pointer-events="none"/>
                </g>
                <g id="zoomMin">
                        <use xlink:href="#rim" fill="#404040">
                                <set attributeName="fill" to="#808080" begin="zoomminus.mouseover" end="zoomminus.mouseout"/>
                        </use>
                        <path d="M-4,0h8" fill="none" stroke="white" stroke-width="1.5" pointer-events="none"/>
                </g>
                <g id="dirArrow">
                        <path fill="none" stroke="white" stroke-width="1.5" d="M0,-3.0v7 M-2.5,-0.5L0,-3.0L2.5,-0.5"/>
                </g>
               <g id="resetDef">
                       <use xlink:href="#rim2" fill="#404040">
                               <set attributeName="fill" to="#808080" begin="reset.mouseover" end="reset.mouseout"/>
                       </use>
               </g>
        </defs>

<script type="text/javascript">
var viewWidth = 784;
var viewHeight = 476;
var sectionId = 'dynsection-0';
</script>
<script xlink:href="../../svgpan.js"/>
<svg id="graph" class="graph">
<g id="viewport">
<title>src/cip/cipclass3connection.c</title>
<!-- Node1 -->
<g id="node1" class="node"><title>Node1</title>
<polygon fill="#bfbfbf" stroke="black" points="386,-448.5 386,-467.5 532,-467.5 532,-448.5 386,-448.5"/>
<text text-anchor="middle" x="459" y="-455.5" font-family="Helvetica,sans-Serif" font-size="10.00">src/cip/cipclass3connection.c</text>
</g>
<!-- Node2 -->
<g id="node2" class="node"><title>Node2</title>
<polygon fill="none" stroke="#bfbfbf" points="335.5,-392.5 335.5,-411.5 384.5,-411.5 384.5,-392.5 335.5,-392.5"/>
<text text-anchor="middle" x="360" y="-399.5" font-family="Helvetica,sans-Serif" font-size="10.00">string.h</text>
</g>
<!-- Node1&#45;&gt;Node2 -->
<g id="edge1" class="edge"><title>Node1&#45;&gt;Node2</title>
<path fill="none" stroke="midnightblue" d="M443.094,-448.324C427.362,-439.743 403.058,-426.486 384.791,-416.522"/>
<polygon fill="midnightblue" stroke="midnightblue" points="386.322,-413.37 375.867,-411.655 382.97,-419.516 386.322,-413.37"/>
</g>
<!-- Node3 -->
<g id="node3" class="node"><title>Node3</title>
<g id="a_node3"><a xlink:href="../../d2/d11/cipclass3connection_8h.html" target="_top" xlink:title="CIP Class 3 connection. ">
<polygon fill="none" stroke="black" points="402.5,-392.5 402.5,-411.5 515.5,-411.5 515.5,-392.5 402.5,-392.5"/>
<text text-anchor="middle" x="459" y="-399.5" font-family="Helvetica,sans-Serif" font-size="10.00">cipclass3connection.h</text>
</a>
</g>
</g>
<!-- Node1&#45;&gt;Node3 -->
<g id="edge2" class="edge"><title>Node1&#45;&gt;Node3</title>
<path fill="none" stroke="midnightblue" d="M459,-448.083C459,-441.006 459,-430.861 459,-421.986"/>
<polygon fill="midnightblue" stroke="midnightblue" points="462.5,-421.751 459,-411.751 455.5,-421.751 462.5,-421.751"/>
</g>
<!-- Node21 -->
<g id="node21" class="node"><title>Node21</title>
<g id="a_node21"><a xlink:href="../../d7/df9/encap_8h.html" target="_top" xlink:title="This file contains the public interface of the encapsulation layer. ">
<polygon fill="none" stroke="black" points="562.5,-336.5 562.5,-355.5 613.5,-355.5 613.5,-336.5 562.5,-336.5"/>
<text text-anchor="middle" x="588" y="-343.5" font-family="Helvetica,sans-Serif" font-size="10.00">encap.h</text>
</a>
</g>
</g>
<!-- Node1&#45;&gt;Node21 -->
<g id="edge38" class="edge"><title>Node1&#45;&gt;Node21</title>
<path fill="none" stroke="midnightblue" d="M472.988,-448.402C486.534,-439.829 507.405,-425.96 524,-412 542.266,-396.635 561.208,-376.832 573.698,-363.142"/>
<polygon fill="midnightblue" stroke="midnightblue" points="576.487,-365.276 580.578,-355.503 571.285,-360.592 576.487,-365.276"/>
</g>
<!-- Node4 -->
<g id="node4" class="node"><title>Node4</title>
<g id="a_node4"><a xlink:href="../../d4/d38/opener__api_8h.html" target="_top" xlink:title="opener_api.h">
<polygon fill="none" stroke="black" points="506,-224.5 506,-243.5 578,-243.5 578,-224.5 506,-224.5"/>
<text text-anchor="middle" x="542" y="-231.5" font-family="Helvetica,sans-Serif" font-size="10.00">opener_api.h</text>
</a>
</g>
</g>
<!-- Node3&#45;&gt;Node4 -->
<g id="edge3" class="edge"><title>Node3&#45;&gt;Node4</title>
<path fill="none" stroke="midnightblue" d="M474.768,-392.413C487.588,-384.603 505.115,-371.883 515,-356 534.931,-323.976 540.227,-279.094 541.585,-253.965"/>
<polygon fill="midnightblue" stroke="midnightblue" points="545.095,-253.767 541.976,-243.642 538.1,-253.502 545.095,-253.767"/>
</g>
<!-- Node16 -->
<g id="node16" class="node"><title>Node16</title>
<g id="a_node16"><a xlink:href="../../d2/da3/cipconnectionmanager_8h.html" target="_top" xlink:title="cipconnectionmanager.h">
<polygon fill="none" stroke="black" points="384,-336.5 384,-355.5 506,-355.5 506,-336.5 384,-336.5"/>
<text text-anchor="middle" x="445" y="-343.5" font-family="Helvetica,sans-Serif" font-size="10.00">cipconnectionmanager.h</text>
</a>
</g>
</g>
<!-- Node3&#45;&gt;Node16 -->
<g id="edge19" class="edge"><title>Node3&#45;&gt;Node16</title>
<path fill="none" stroke="midnightblue" d="M456.688,-392.083C454.833,-384.927 452.165,-374.635 449.846,-365.691"/>
<polygon fill="midnightblue" stroke="midnightblue" points="453.166,-364.553 447.269,-355.751 446.391,-366.309 453.166,-364.553"/>
</g>
<!-- Node17 -->
<g id="node17" class="node"><title>Node17</title>
<g id="a_node17"><a xlink:href="../../d1/d6c/cipconnectionobject_8h.html" target="_top" xlink:title="cipconnectionobject.h">
<polygon fill="none" stroke="black" points="300.5,-280.5 300.5,-299.5 411.5,-299.5 411.5,-280.5 300.5,-280.5"/>
<text text-anchor="middle" x="356" y="-287.5" font-family="Helvetica,sans-Serif" font-size="10.00">cipconnectionobject.h</text>
</a>
</g>
</g>
<!-- Node3&#45;&gt;Node17 -->
<g id="edge37" class="edge"><title>Node3&#45;&gt;Node17</title>
<path fill="none" stroke="midnightblue" d="M431.081,-392.431C412.671,-385.42 389.386,-373.728 375,-356 364.244,-342.745 359.577,-323.618 357.552,-309.543"/>
<polygon fill="midnightblue" stroke="midnightblue" points="361.024,-309.093 356.429,-299.546 354.068,-309.875 361.024,-309.093"/>
</g>
<!-- Node5 -->
<g id="node5" class="node"><title>Node5</title>
<polygon fill="none" stroke="#bfbfbf" points="658,-168.5 658,-187.5 710,-187.5 710,-168.5 658,-168.5"/>
<text text-anchor="middle" x="684" y="-175.5" font-family="Helvetica,sans-Serif" font-size="10.00">assert.h</text>
</g>
<!-- Node4&#45;&gt;Node5 -->
<g id="edge4" class="edge"><title>Node4&#45;&gt;Node5</title>
<path fill="none" stroke="midnightblue" d="M564.5,-224.444C588.077,-215.478 625.322,-201.314 651.964,-191.183"/>
<polygon fill="midnightblue" stroke="midnightblue" points="653.502,-194.342 661.605,-187.516 651.014,-187.8 653.502,-194.342"/>
</g>
<!-- Node6 -->
<g id="node6" class="node"><title>Node6</title>
<polygon fill="none" stroke="#bfbfbf" points="241,-0.5 241,-19.5 297,-19.5 297,-0.5 241,-0.5"/>
<text text-anchor="middle" x="269" y="-7.5" font-family="Helvetica,sans-Serif" font-size="10.00">stdbool.h</text>
</g>
<!-- Node4&#45;&gt;Node6 -->
<g id="edge5" class="edge"><title>Node4&#45;&gt;Node6</title>
<path fill="none" stroke="midnightblue" d="M541.02,-224.491C538.113,-202.925 527.663,-145.466 496,-112 444.106,-57.152 357.044,-30.0888 307.173,-18.4575"/>
<polygon fill="midnightblue" stroke="midnightblue" points="307.645,-14.9765 297.121,-16.2053 306.114,-21.8071 307.645,-14.9765"/>
</g>
<!-- Node7 -->
<g id="node7" class="node"><title>Node7</title>
<g id="a_node7"><a xlink:href="../../d7/d69/typedefs_8h.html" target="_top" xlink:title="typedefs.h">
<polygon fill="none" stroke="black" points="544,-56.5 544,-75.5 606,-75.5 606,-56.5 544,-56.5"/>
<text text-anchor="middle" x="575" y="-63.5" font-family="Helvetica,sans-Serif" font-size="10.00">typedefs.h</text>
</a>
</g>
</g>
<!-- Node4&#45;&gt;Node7 -->
<g id="edge6" class="edge"><title>Node4&#45;&gt;Node7</title>
<path fill="none" stroke="midnightblue" d="M544.651,-224.446C549.908,-207.157 561.692,-166.739 568,-132 570.792,-116.626 572.605,-98.9888 573.685,-85.9694"/>
<polygon fill="midnightblue" stroke="midnightblue" points="577.183,-86.1262 574.452,-75.8895 570.203,-85.5953 577.183,-86.1262"/>
</g>
<!-- Node11 -->
<g id="node11" class="node"><title>Node11</title>
<g id="a_node11"><a xlink:href="../../df/d28/ciptypes_8h.html" target="_top" xlink:title="ciptypes.h">
<polygon fill="none" stroke="black" points="343,-168.5 343,-187.5 405,-187.5 405,-168.5 343,-168.5"/>
<text text-anchor="middle" x="374" y="-175.5" font-family="Helvetica,sans-Serif" font-size="10.00">ciptypes.h</text>
</a>
</g>
</g>
<!-- Node4&#45;&gt;Node11 -->
<g id="edge11" class="edge"><title>Node4&#45;&gt;Node11</title>
<path fill="none" stroke="midnightblue" d="M515.38,-224.444C486.994,-215.32 441.863,-200.813 410.247,-190.651"/>
<polygon fill="midnightblue" stroke="midnightblue" points="411.087,-187.244 400.496,-187.516 408.945,-193.909 411.087,-187.244"/>
</g>
<!-- Node15 -->
<g id="node15" class="node"><title>Node15</title>
<g id="a_node15"><a xlink:href="../../d6/d52/ciperror_8h.html" target="_top" xlink:title="ciperror.h">
<polygon fill="none" stroke="black" points="582.5,-168.5 582.5,-187.5 639.5,-187.5 639.5,-168.5 582.5,-168.5"/>
<text text-anchor="middle" x="611" y="-175.5" font-family="Helvetica,sans-Serif" font-size="10.00">ciperror.h</text>
</a>
</g>
</g>
<!-- Node4&#45;&gt;Node15 -->
<g id="edge18" class="edge"><title>Node4&#45;&gt;Node15</title>
<path fill="none" stroke="midnightblue" d="M553.086,-224.324C563.486,-216.185 579.261,-203.839 591.722,-194.087"/>
<polygon fill="midnightblue" stroke="midnightblue" points="593.994,-196.753 599.712,-187.834 589.68,-191.241 593.994,-196.753"/>
</g>
<!-- Node7&#45;&gt;Node6 -->
<g id="edge9" class="edge"><title>Node7&#45;&gt;Node6</title>
<path fill="none" stroke="midnightblue" d="M543.549,-58.5988C539.007,-57.7066 534.386,-56.8166 530,-56 450.916,-41.2768 358.03,-25.661 307.14,-17.2487"/>
<polygon fill="midnightblue" stroke="midnightblue" points="307.675,-13.7897 297.239,-15.6152 306.535,-20.6963 307.675,-13.7897"/>
</g>
<!-- Node8 -->
<g id="node8" class="node"><title>Node8</title>
<polygon fill="none" stroke="#bfbfbf" points="663.5,-0.5 663.5,-19.5 722.5,-19.5 722.5,-0.5 663.5,-0.5"/>
<text text-anchor="middle" x="693" y="-7.5" font-family="Helvetica,sans-Serif" font-size="10.00">inttypes.h</text>
</g>
<!-- Node7&#45;&gt;Node8 -->
<g id="edge7" class="edge"><title>Node7&#45;&gt;Node8</title>
<path fill="none" stroke="midnightblue" d="M593.697,-56.4435C612.944,-47.6356 643.152,-33.8116 665.2,-23.722"/>
<polygon fill="midnightblue" stroke="midnightblue" points="666.753,-26.8603 674.39,-19.5164 663.84,-20.4951 666.753,-26.8603"/>
</g>
<!-- Node9 -->
<g id="node9" class="node"><title>Node9</title>
<polygon fill="none" stroke="#bfbfbf" points="434,-0.5 434,-19.5 486,-19.5 486,-0.5 434,-0.5"/>
<text text-anchor="middle" x="460" y="-7.5" font-family="Helvetica,sans-Serif" font-size="10.00">stddef.h</text>
</g>
<!-- Node7&#45;&gt;Node9 -->
<g id="edge8" class="edge"><title>Node7&#45;&gt;Node9</title>
<path fill="none" stroke="midnightblue" d="M556.778,-56.4435C538.104,-47.6751 508.844,-33.9355 487.383,-23.8579"/>
<polygon fill="midnightblue" stroke="midnightblue" points="488.676,-20.5988 478.137,-19.5164 485.701,-26.935 488.676,-20.5988"/>
</g>
<!-- Node10 -->
<g id="node10" class="node"><title>Node10</title>
<polygon fill="none" stroke="#bfbfbf" points="504.5,-0.5 504.5,-19.5 645.5,-19.5 645.5,-0.5 504.5,-0.5"/>
<text text-anchor="middle" x="575" y="-7.5" font-family="Helvetica,sans-Serif" font-size="10.00">platform_network_includes.h</text>
</g>
<!-- Node7&#45;&gt;Node10 -->
<g id="edge10" class="edge"><title>Node7&#45;&gt;Node10</title>
<path fill="none" stroke="midnightblue" d="M575,-56.083C575,-49.0059 575,-38.8611 575,-29.9865"/>
<polygon fill="midnightblue" stroke="midnightblue" points="578.5,-29.751 575,-19.7511 571.5,-29.7511 578.5,-29.751"/>
</g>
<!-- Node11&#45;&gt;Node7 -->
<g id="edge12" class="edge"><title>Node11&#45;&gt;Node7</title>
<path fill="none" stroke="midnightblue" d="M373.021,-168.087C372.021,-154.158 372.311,-127.251 387,-112 406.997,-91.2382 484.807,-78.0775 533.84,-71.6653"/>
<polygon fill="midnightblue" stroke="midnightblue" points="534.354,-75.1282 543.835,-70.3991 533.474,-68.1837 534.354,-75.1282"/>
</g>
<!-- Node12 -->
<g id="node12" class="node"><title>Node12</title>
<g id="a_node12"><a xlink:href="../../d0/d47/networkhandler_8h.html" target="_top" xlink:title="networkhandler.h">
<polygon fill="none" stroke="black" points="396.5,-112.5 396.5,-131.5 487.5,-131.5 487.5,-112.5 396.5,-112.5"/>
<text text-anchor="middle" x="442" y="-119.5" font-family="Helvetica,sans-Serif" font-size="10.00">networkhandler.h</text>
</a>
</g>
</g>
<!-- Node11&#45;&gt;Node12 -->
<g id="edge13" class="edge"><title>Node11&#45;&gt;Node12</title>
<path fill="none" stroke="midnightblue" d="M384.925,-168.324C395.175,-160.185 410.721,-147.839 423.001,-138.087"/>
<polygon fill="midnightblue" stroke="midnightblue" points="425.221,-140.794 430.876,-131.834 420.868,-135.312 425.221,-140.794"/>
</g>
<!-- Node13 -->
<g id="node13" class="node"><title>Node13</title>
<g id="a_node13"><a xlink:href="../../d8/d2c/enipmessage_8h.html" target="_top" xlink:title="enipmessage.h">
<polygon fill="none" stroke="black" points="256.5,-112.5 256.5,-131.5 339.5,-131.5 339.5,-112.5 256.5,-112.5"/>
<text text-anchor="middle" x="298" y="-119.5" font-family="Helvetica,sans-Serif" font-size="10.00">enipmessage.h</text>
</a>
</g>
</g>
<!-- Node11&#45;&gt;Node13 -->
<g id="edge15" class="edge"><title>Node11&#45;&gt;Node13</title>
<path fill="none" stroke="midnightblue" d="M361.789,-168.324C350.224,-160.107 332.625,-147.602 318.839,-137.807"/>
<polygon fill="midnightblue" stroke="midnightblue" points="320.612,-134.773 310.433,-131.834 316.557,-140.479 320.612,-134.773"/>
</g>
<!-- Node14 -->
<g id="node14" class="node"><title>Node14</title>
<polygon fill="none" stroke="#bfbfbf" points="179,-56.5 179,-75.5 281,-75.5 281,-56.5 179,-56.5"/>
<text text-anchor="middle" x="230" y="-63.5" font-family="Helvetica,sans-Serif" font-size="10.00">opener_user_conf.h</text>
</g>
<!-- Node11&#45;&gt;Node14 -->
<g id="edge17" class="edge"><title>Node11&#45;&gt;Node14</title>
<path fill="none" stroke="midnightblue" d="M342.858,-174.149C313.983,-169.843 271.846,-159.045 247,-132 235.543,-119.529 231.613,-100.296 230.358,-85.9831"/>
<polygon fill="midnightblue" stroke="midnightblue" points="233.843,-85.5885 229.832,-75.782 226.852,-85.949 233.843,-85.5885"/>
</g>
<!-- Node12&#45;&gt;Node7 -->
<g id="edge14" class="edge"><title>Node12&#45;&gt;Node7</title>
<path fill="none" stroke="midnightblue" d="M463.074,-112.444C485.06,-103.517 519.734,-89.4387 544.664,-79.3168"/>
<polygon fill="midnightblue" stroke="midnightblue" points="546.076,-82.5213 554.024,-75.5164 543.442,-76.0355 546.076,-82.5213"/>
</g>
<!-- Node13&#45;&gt;Node14 -->
<g id="edge16" class="edge"><title>Node13&#45;&gt;Node14</title>
<path fill="none" stroke="midnightblue" d="M287.075,-112.324C276.825,-104.185 261.279,-91.8395 248.999,-82.0874"/>
<polygon fill="midnightblue" stroke="midnightblue" points="251.132,-79.3119 241.124,-75.8339 246.779,-84.7937 251.132,-79.3119"/>
</g>
<!-- Node16&#45;&gt;Node4 -->
<g id="edge21" class="edge"><title>Node16&#45;&gt;Node4</title>
<path fill="none" stroke="midnightblue" d="M452.611,-336.368C468.761,-318.055 506.684,-275.049 527.571,-251.362"/>
<polygon fill="midnightblue" stroke="midnightblue" points="530.435,-253.407 534.424,-243.591 525.185,-248.777 530.435,-253.407"/>
</g>
<!-- Node16&#45;&gt;Node7 -->
<g id="edge22" class="edge"><title>Node16&#45;&gt;Node7</title>
<path fill="none" stroke="midnightblue" d="M497.045,-336.468C581.241,-321.175 738,-285.871 738,-235 738,-235 738,-235 738,-177 738,-118.195 664.207,-88.7242 615.923,-75.7349"/>
<polygon fill="midnightblue" stroke="midnightblue" points="616.598,-72.295 606.043,-73.2087 614.864,-79.0768 616.598,-72.295"/>
</g>
<!-- Node16&#45;&gt;Node11 -->
<g id="edge23" class="edge"><title>Node16&#45;&gt;Node11</title>
<path fill="none" stroke="midnightblue" d="M441.771,-336.101C437.161,-323.518 428.327,-299.845 420,-280 407.621,-250.497 391.947,-216.773 382.461,-196.717"/>
<polygon fill="midnightblue" stroke="midnightblue" points="385.568,-195.1 378.115,-187.569 379.245,-198.104 385.568,-195.1"/>
</g>
<!-- Node16&#45;&gt;Node14 -->
<g id="edge20" class="edge"><title>Node16&#45;&gt;Node14</title>
<path fill="none" stroke="midnightblue" d="M383.592,-342.582C261.517,-336.097 0,-313.09 0,-235 0,-235 0,-235 0,-177 0,-102.06 100.602,-78.131 168.737,-70.5182"/>
<polygon fill="midnightblue" stroke="midnightblue" points="169.365,-73.9723 178.956,-69.4701 168.651,-67.0088 169.365,-73.9723"/>
</g>
<!-- Node16&#45;&gt;Node17 -->
<g id="edge24" class="edge"><title>Node16&#45;&gt;Node17</title>
<path fill="none" stroke="midnightblue" d="M430.701,-336.324C416.817,-327.9 395.508,-314.971 379.196,-305.074"/>
<polygon fill="midnightblue" stroke="midnightblue" points="380.629,-301.85 370.264,-299.655 376.998,-307.834 380.629,-301.85"/>
</g>
<!-- Node17&#45;&gt;Node4 -->
<g id="edge28" class="edge"><title>Node17&#45;&gt;Node4</title>
<path fill="none" stroke="midnightblue" d="M385.472,-280.444C417.171,-271.241 467.732,-256.562 502.775,-246.388"/>
<polygon fill="midnightblue" stroke="midnightblue" points="504.038,-249.666 512.666,-243.516 502.086,-242.943 504.038,-249.666"/>
</g>
<!-- Node17&#45;&gt;Node7 -->
<g id="edge25" class="edge"><title>Node17&#45;&gt;Node7</title>
<path fill="none" stroke="midnightblue" d="M364.585,-280.297C397.491,-246.94 515.886,-126.923 559.083,-83.1349"/>
<polygon fill="midnightblue" stroke="midnightblue" points="561.705,-85.4608 566.236,-75.8837 556.722,-80.5448 561.705,-85.4608"/>
</g>
<!-- Node17&#45;&gt;Node11 -->
<g id="edge26" class="edge"><title>Node17&#45;&gt;Node11</title>
<path fill="none" stroke="midnightblue" d="M357.412,-280.368C360.317,-262.617 367.018,-221.666 370.957,-197.597"/>
<polygon fill="midnightblue" stroke="midnightblue" points="374.433,-198.025 372.594,-187.591 367.525,-196.895 374.433,-198.025"/>
</g>
<!-- Node17&#45;&gt;Node14 -->
<g id="edge27" class="edge"><title>Node17&#45;&gt;Node14</title>
<path fill="none" stroke="midnightblue" d="M300.479,-288.766C256.921,-285.915 196.86,-275.797 155,-244 110.032,-209.842 108.747,-186.772 95,-132 92.8361,-123.379 89.8026,-119.211 95,-112 111.918,-88.5274 141.611,-77.1134 168.85,-71.6373"/>
<polygon fill="midnightblue" stroke="midnightblue" points="169.514,-75.0743 178.746,-69.8772 168.288,-68.1825 169.514,-75.0743"/>
</g>
<!-- Node18 -->
<g id="node18" class="node"><title>Node18</title>
<g id="a_node18"><a xlink:href="../../d9/d31/doublylinkedlist_8h.html" target="_top" xlink:title="doublylinkedlist.h">
<polygon fill="none" stroke="black" points="180,-224.5 180,-243.5 272,-243.5 272,-224.5 180,-224.5"/>
<text text-anchor="middle" x="226" y="-231.5" font-family="Helvetica,sans-Serif" font-size="10.00">doublylinkedlist.h</text>
</a>
</g>
</g>
<!-- Node17&#45;&gt;Node18 -->
<g id="edge29" class="edge"><title>Node17&#45;&gt;Node18</title>
<path fill="none" stroke="midnightblue" d="M335.401,-280.444C314.007,-271.557 280.319,-257.563 255.976,-247.451"/>
<polygon fill="midnightblue" stroke="midnightblue" points="257.08,-244.12 246.503,-243.516 254.395,-250.585 257.08,-244.12"/>
</g>
<!-- Node19 -->
<g id="node19" class="node"><title>Node19</title>
<g id="a_node19"><a xlink:href="../../d0/d23/cipelectronickey_8h.html" target="_top" xlink:title="cipelectronickey.h">
<polygon fill="none" stroke="black" points="104.5,-112.5 104.5,-131.5 199.5,-131.5 199.5,-112.5 104.5,-112.5"/>
<text text-anchor="middle" x="152" y="-119.5" font-family="Helvetica,sans-Serif" font-size="10.00">cipelectronickey.h</text>
</a>
</g>
</g>
<!-- Node17&#45;&gt;Node19 -->
<g id="edge30" class="edge"><title>Node17&#45;&gt;Node19</title>
<path fill="none" stroke="midnightblue" d="M300.435,-282.315C252.509,-275.37 188.348,-262.849 171,-244 145.284,-216.06 146.2,-168.223 149.106,-141.842"/>
<polygon fill="midnightblue" stroke="midnightblue" points="152.609,-142.046 150.447,-131.674 145.669,-141.131 152.609,-142.046"/>
</g>
<!-- Node20 -->
<g id="node20" class="node"><title>Node20</title>
<g id="a_node20"><a xlink:href="../../d1/d02/cipepath_8h.html" target="_top" xlink:title="cipepath.h">
<polygon fill="none" stroke="black" points="290,-224.5 290,-243.5 352,-243.5 352,-224.5 290,-224.5"/>
<text text-anchor="middle" x="321" y="-231.5" font-family="Helvetica,sans-Serif" font-size="10.00">cipepath.h</text>
</a>
</g>
</g>
<!-- Node17&#45;&gt;Node20 -->
<g id="edge33" class="edge"><title>Node17&#45;&gt;Node20</title>
<path fill="none" stroke="midnightblue" d="M350.22,-280.083C345.328,-272.534 338.173,-261.495 332.167,-252.23"/>
<polygon fill="midnightblue" stroke="midnightblue" points="335.048,-250.239 326.672,-243.751 329.174,-254.046 335.048,-250.239"/>
</g>
<!-- Node19&#45;&gt;Node6 -->
<g id="edge31" class="edge"><title>Node19&#45;&gt;Node6</title>
<path fill="none" stroke="midnightblue" d="M152.149,-112.354C152.828,-98.7923 156.002,-72.379 170,-56 185.601,-37.7453 210.136,-26.5218 230.878,-19.8489"/>
<polygon fill="midnightblue" stroke="midnightblue" points="232.113,-23.1333 240.7,-16.9277 230.117,-16.4238 232.113,-23.1333"/>
</g>
<!-- Node19&#45;&gt;Node7 -->
<g id="edge32" class="edge"><title>Node19&#45;&gt;Node7</title>
<path fill="none" stroke="midnightblue" d="M199.701,-114.91C283.344,-104.233 455.053,-82.3124 533.839,-72.2546"/>
<polygon fill="midnightblue" stroke="midnightblue" points="534.396,-75.712 543.872,-70.9737 533.51,-68.7683 534.396,-75.712"/>
</g>
<!-- Node20&#45;&gt;Node6 -->
<g id="edge34" class="edge"><title>Node20&#45;&gt;Node6</title>
<path fill="none" stroke="midnightblue" d="M292.053,-224.399C236.323,-207.188 117.616,-167.146 95,-132 57.5618,-73.8191 168.992,-35.8276 230.8,-19.7553"/>
<polygon fill="midnightblue" stroke="midnightblue" points="231.788,-23.1159 240.627,-17.2752 230.075,-16.3287 231.788,-23.1159"/>
</g>
<!-- Node20&#45;&gt;Node11 -->
<g id="edge35" class="edge"><title>Node20&#45;&gt;Node11</title>
<path fill="none" stroke="midnightblue" d="M329.752,-224.083C337.47,-216.22 348.905,-204.569 358.217,-195.081"/>
<polygon fill="midnightblue" stroke="midnightblue" points="360.904,-197.34 365.411,-187.751 355.908,-192.436 360.904,-197.34"/>
</g>
<!-- Node20&#45;&gt;Node19 -->
<g id="edge36" class="edge"><title>Node20&#45;&gt;Node19</title>
<path fill="none" stroke="midnightblue" d="M307.739,-224.368C278.738,-205.492 209.437,-160.385 173.873,-137.237"/>
<polygon fill="midnightblue" stroke="midnightblue" points="175.49,-134.113 165.2,-131.591 171.671,-139.98 175.49,-134.113"/>
</g>
<!-- Node21&#45;&gt;Node7 -->
<g id="edge39" class="edge"><title>Node21&#45;&gt;Node7</title>
<path fill="none" stroke="midnightblue" d="M613.613,-344.909C649.116,-343.408 713.277,-335.531 752,-300 774.69,-279.18 776,-265.795 776,-235 776,-235 776,-235 776,-177 776,-146.205 774.886,-132.606 752,-112 714.688,-78.405 655.813,-69.1532 616.327,-66.9832"/>
<polygon fill="midnightblue" stroke="midnightblue" points="616.373,-63.4822 606.235,-66.5588 616.079,-70.476 616.373,-63.4822"/>
</g>
<!-- Node21&#45;&gt;Node17 -->
<g id="edge40" class="edge"><title>Node21&#45;&gt;Node17</title>
<path fill="none" stroke="midnightblue" d="M562.286,-339.015C523.846,-330.068 450.79,-313.063 402.743,-301.88"/>
<polygon fill="midnightblue" stroke="midnightblue" points="403.424,-298.445 392.891,-299.587 401.837,-305.263 403.424,-298.445"/>
</g>
</g>
</svg>
        <g id="navigator" transform="translate(0 0)" fill="#404254">
                <rect fill="#f2f5e9" fill-opacity="0.5" stroke="#606060" stroke-width=".5" x="0" y="0" width="60" height="60"/>
                <use id="zoomplus" xlink:href="#zoomPlus" x="17" y="9" onmousedown="handleZoom(evt,'in')"/>
                <use id="zoomminus" xlink:href="#zoomMin" x="42" y="9" onmousedown="handleZoom(evt,'out')"/>
                <use id="reset" xlink:href="#resetDef" x="30" y="36" onmousedown="handleReset()"/>
                <g id="arrowUp" xlink:href="#dirArrow" transform="translate(30 24)" onmousedown="handlePan(0,-1)">
                  <use xlink:href="#rim" fill="#404040">
                        <set attributeName="fill" to="#808080" begin="arrowUp.mouseover" end="arrowUp.mouseout"/>
                  </use>
                  <path fill="none" stroke="white" stroke-width="1.5" d="M0,-3.0v7 M-2.5,-0.5L0,-3.0L2.5,-0.5"/>
                </g>
                <g id="arrowRight" xlink:href="#dirArrow" transform="rotate(90) translate(36 -43)" onmousedown="handlePan(1,0)">
                  <use xlink:href="#rim" fill="#404040">
                        <set attributeName="fill" to="#808080" begin="arrowRight.mouseover" end="arrowRight.mouseout"/>
                  </use>
                  <path fill="none" stroke="white" stroke-width="1.5" d="M0,-3.0v7 M-2.5,-0.5L0,-3.0L2.5,-0.5"/>
                </g>
                <g id="arrowDown" xlink:href="#dirArrow" transform="rotate(180) translate(-30 -48)" onmousedown="handlePan(0,1)">
                  <use xlink:href="#rim" fill="#404040">
                        <set attributeName="fill" to="#808080" begin="arrowDown.mouseover" end="arrowDown.mouseout"/>
                  </use>
                  <path fill="none" stroke="white" stroke-width="1.5" d="M0,-3.0v7 M-2.5,-0.5L0,-3.0L2.5,-0.5"/>
                </g>
                <g id="arrowLeft" xlink:href="#dirArrow" transform="rotate(270) translate(-36 17)" onmousedown="handlePan(-1,0)">
                  <use xlink:href="#rim" fill="#404040">
                        <set attributeName="fill" to="#808080" begin="arrowLeft.mouseover" end="arrowLeft.mouseout"/>
                  </use>
                  <path fill="none" stroke="white" stroke-width="1.5" d="M0,-3.0v7 M-2.5,-0.5L0,-3.0L2.5,-0.5"/>
                </g>
        </g>
        <svg viewBox="0 0 15 15" width="100%" height="30px" preserveAspectRatio="xMaxYMin meet">
         <g id="arrow_out" transform="scale(0.3 0.3)">
          <a xlink:href="cipclass3connection_8c__incl_org.svg" target="_base">
           <rect id="button" ry="5" rx="5" y="6" x="6" height="38" width="38"
                fill="#f2f5e9" fill-opacity="0.5" stroke="#606060" stroke-width="1.0"/>
           <path id="arrow"
             d="M 11.500037,31.436501 C 11.940474,20.09759 22.043105,11.32322 32.158766,21.979434 L 37.068811,17.246167 C 37.068811,17.246167 37.088388,32 37.088388,32 L 22.160133,31.978069 C 22.160133,31.978069 26.997745,27.140456 26.997745,27.140456 C 18.528582,18.264221 13.291696,25.230495 11.500037,31.436501 z"
             style="fill:#404040;"/>
          </a>
         </g>
        </svg>
</svg>
