<?xml version="1.0" encoding="UTF-8" standalone="no"?>
<!DOCTYPE svg PUBLIC "-//W3C//DTD SVG 1.1//EN"
 "http://www.w3.org/Graphics/SVG/1.1/DTD/svg11.dtd">
<!-- Generated by graphviz version 2.38.0 (20140413.2041)
 -->
<!-- Title: EncodeData Pages: 1 -->
<svg width="1227pt" height="370pt"
 viewBox="0.00 0.00 1227.00 370.00" xmlns="http://www.w3.org/2000/svg" xmlns:xlink="http://www.w3.org/1999/xlink">
<g id="graph0" class="graph" transform="scale(1 1) rotate(0) translate(4 366)">
<title>EncodeData</title>
<!-- Node1 -->
<g id="node1" class="node"><title>Node1</title>
<polygon fill="#bfbfbf" stroke="black" points="0,-247.5 0,-266.5 71,-266.5 71,-247.5 0,-247.5"/>
<text text-anchor="middle" x="35.5" y="-254.5" font-family="Helvetica,sans-Serif" font-size="10.00">EncodeData</text>
</g>
<!-- Node1&#45;&gt;Node1 -->
<g id="edge1" class="edge"><title>Node1&#45;&gt;Node1</title>
<path fill="none" stroke="midnightblue" d="M10.2025,-276.029C11.5824,-281.128 20.0149,-285 35.5,-285 59.6719,-285 66.6591,-275.565 56.4615,-266.757"/>
<polygon fill="midnightblue" stroke="midnightblue" points="13.4728,-277.298 14.5385,-266.757 7.13188,-274.333 13.4728,-277.298"/>
</g>
<!-- Node2 -->
<g id="node2" class="node"><title>Node2</title>
<g id="a_node2"><a xlink:href="../../dd/d4d/cipethernetlink_8h.html#a5b19ab196dbce19ecc33cc387cfdcdd4" target="_top" xlink:title="EncodeInterfaceCapability">
<polygon fill="none" stroke="black" points="107,-266.5 107,-285.5 238,-285.5 238,-266.5 107,-266.5"/>
<text text-anchor="middle" x="172.5" y="-273.5" font-family="Helvetica,sans-Serif" font-size="10.00">EncodeInterfaceCapability</text>
</a>
</g>
</g>
<!-- Node1&#45;&gt;Node2 -->
<g id="edge2" class="edge"><title>Node1&#45;&gt;Node2</title>
<path fill="none" stroke="midnightblue" d="M81.3639,-263.314C89.5839,-264.471 98.3105,-265.699 106.972,-266.918"/>
<polygon fill="midnightblue" stroke="midnightblue" points="81.6561,-259.821 71.2659,-261.893 80.6804,-266.753 81.6561,-259.821"/>
</g>
<!-- Node9 -->
<g id="node9" class="node"><title>Node9</title>
<g id="a_node9"><a xlink:href="../../dd/d4d/cipethernetlink_8h.html#afd1fc559145db95d7dfd4992ff38edd5" target="_top" xlink:title="EncodeInterfaceControl">
<polygon fill="none" stroke="black" points="113,-228.5 113,-247.5 232,-247.5 232,-228.5 113,-228.5"/>
<text text-anchor="middle" x="172.5" y="-235.5" font-family="Helvetica,sans-Serif" font-size="10.00">EncodeInterfaceControl</text>
</a>
</g>
</g>
<!-- Node1&#45;&gt;Node9 -->
<g id="edge9" class="edge"><title>Node1&#45;&gt;Node9</title>
<path fill="none" stroke="midnightblue" d="M81.4148,-250.679C91.4575,-249.265 102.254,-247.746 112.763,-246.267"/>
<polygon fill="midnightblue" stroke="midnightblue" points="80.6804,-247.247 71.2659,-252.107 81.6561,-254.179 80.6804,-247.247"/>
</g>
<!-- Node10 -->
<g id="node10" class="node"><title>Node10</title>
<g id="a_node10"><a xlink:href="../../dd/d4d/cipethernetlink_8h.html#a841bea27e0f777e8b8beaa35fbaa80c7" target="_top" xlink:title="EncodeInterfaceCounters">
<polygon fill="none" stroke="black" points="108.5,-342.5 108.5,-361.5 236.5,-361.5 236.5,-342.5 108.5,-342.5"/>
<text text-anchor="middle" x="172.5" y="-349.5" font-family="Helvetica,sans-Serif" font-size="10.00">EncodeInterfaceCounters</text>
</a>
</g>
</g>
<!-- Node1&#45;&gt;Node10 -->
<g id="edge11" class="edge"><title>Node1&#45;&gt;Node10</title>
<path fill="none" stroke="midnightblue" d="M48.6599,-274.895C61.3054,-292.183 82.638,-317.906 107,-333 113.252,-336.873 120.333,-339.991 127.456,-342.49"/>
<polygon fill="midnightblue" stroke="midnightblue" points="51.507,-272.859 42.869,-266.724 45.7959,-276.907 51.507,-272.859"/>
</g>
<!-- Node11 -->
<g id="node11" class="node"><title>Node11</title>
<g id="a_node11"><a xlink:href="../../dd/d4d/cipethernetlink_8h.html#ad7df5a954d504d818bf33ef2f2ae909d" target="_top" xlink:title="EncodeMediaCounters">
<polygon fill="none" stroke="black" points="114.5,-304.5 114.5,-323.5 230.5,-323.5 230.5,-304.5 114.5,-304.5"/>
<text text-anchor="middle" x="172.5" y="-311.5" font-family="Helvetica,sans-Serif" font-size="10.00">EncodeMediaCounters</text>
</a>
</g>
</g>
<!-- Node1&#45;&gt;Node11 -->
<g id="edge13" class="edge"><title>Node1&#45;&gt;Node11</title>
<path fill="none" stroke="midnightblue" d="M60.9701,-271.821C74.2597,-279.448 91.1695,-288.485 107,-295 115.636,-298.554 125.174,-301.742 134.206,-304.446"/>
<polygon fill="midnightblue" stroke="midnightblue" points="62.399,-268.602 52.0002,-266.573 58.864,-274.643 62.399,-268.602"/>
</g>
<!-- Node12 -->
<g id="node12" class="node"><title>Node12</title>
<g id="a_node12"><a xlink:href="../../db/d14/cipcommon_8h.html#ab4a4e141020fc10ead0def343c767413" target="_top" xlink:title="Generic implementation of the GetAttributeSingle CIP service. ">
<polygon fill="none" stroke="black" points="124.5,-190.5 124.5,-209.5 220.5,-209.5 220.5,-190.5 124.5,-190.5"/>
<text text-anchor="middle" x="172.5" y="-197.5" font-family="Helvetica,sans-Serif" font-size="10.00">GetAttributeSingle</text>
</a>
</g>
</g>
<!-- Node1&#45;&gt;Node12 -->
<g id="edge15" class="edge"><title>Node1&#45;&gt;Node12</title>
<path fill="none" stroke="midnightblue" d="M60.9701,-242.179C74.2597,-234.552 91.1695,-225.515 107,-219 115.636,-215.446 125.174,-212.258 134.206,-209.554"/>
<polygon fill="midnightblue" stroke="midnightblue" points="58.864,-239.357 52.0002,-247.427 62.399,-245.398 58.864,-239.357"/>
</g>
<!-- Node24 -->
<g id="node24" class="node"><title>Node24</title>
<g id="a_node24"><a xlink:href="../../dd/d20/ciptcpipinterface_8c.html#aad3f66bfaec89eb066edeaa5dc21fdd4" target="_top" xlink:title="GetAttributeSingleTcpIpInterface">
<polygon fill="none" stroke="black" points="274,-38.5 274,-57.5 433,-57.5 433,-38.5 274,-38.5"/>
<text text-anchor="middle" x="353.5" y="-45.5" font-family="Helvetica,sans-Serif" font-size="10.00">GetAttributeSingleTcpIpInterface</text>
</a>
</g>
</g>
<!-- Node1&#45;&gt;Node24 -->
<g id="edge44" class="edge"><title>Node1&#45;&gt;Node24</title>
<path fill="none" stroke="midnightblue" d="M50.7034,-239.279C64.1998,-223.058 85.5646,-198.922 107,-181 174.627,-124.457 194.428,-111.932 274,-74 287.737,-67.4516 303.557,-61.8685 317.379,-57.574"/>
<polygon fill="midnightblue" stroke="midnightblue" points="47.6918,-237.433 44.0644,-247.387 53.1078,-241.867 47.6918,-237.433"/>
</g>
<!-- Node3 -->
<g id="node3" class="node"><title>Node3</title>
<g id="a_node3"><a xlink:href="../../d7/d65/cipethernetlink_8c.html#a75c823853b5c3f59ddf74d1ef2df2496" target="_top" xlink:title="GetAttributeSingleEthernetLink">
<polygon fill="none" stroke="black" points="278,-304.5 278,-323.5 429,-323.5 429,-304.5 278,-304.5"/>
<text text-anchor="middle" x="353.5" y="-311.5" font-family="Helvetica,sans-Serif" font-size="10.00">GetAttributeSingleEthernetLink</text>
</a>
</g>
</g>
<!-- Node2&#45;&gt;Node3 -->
<g id="edge3" class="edge"><title>Node2&#45;&gt;Node3</title>
<path fill="none" stroke="midnightblue" d="M228.524,-287.681C253.908,-293.07 283.661,-299.386 307.656,-304.48"/>
<polygon fill="midnightblue" stroke="midnightblue" points="229.178,-284.242 218.669,-285.589 227.724,-291.089 229.178,-284.242"/>
</g>
<!-- Node4 -->
<g id="node4" class="node"><title>Node4</title>
<g id="a_node4"><a xlink:href="../../dd/d4d/cipethernetlink_8h.html#ad6d2028b90ec96ad148d092a30acb7d6" target="_top" xlink:title="Initialize the Ethernet Link Objects data. ">
<polygon fill="none" stroke="black" points="490.5,-304.5 490.5,-323.5 590.5,-323.5 590.5,-304.5 490.5,-304.5"/>
<text text-anchor="middle" x="540.5" y="-311.5" font-family="Helvetica,sans-Serif" font-size="10.00">CipEthernetLinkInit</text>
</a>
</g>
</g>
<!-- Node3&#45;&gt;Node4 -->
<g id="edge4" class="edge"><title>Node3&#45;&gt;Node4</title>
<path fill="none" stroke="midnightblue" d="M439.411,-314C456.834,-314 474.619,-314 490.27,-314"/>
<polygon fill="midnightblue" stroke="midnightblue" points="439.213,-310.5 429.213,-314 439.213,-317.5 439.213,-310.5"/>
</g>
<!-- Node5 -->
<g id="node5" class="node"><title>Node5</title>
<g id="a_node5"><a xlink:href="../../d2/dc9/group__CIP__API.html#ga5d4979945d124e28668b264c3823db1c" target="_top" xlink:title="Initialize and setup the CIP&#45;stack. ">
<polygon fill="none" stroke="black" points="824.5,-190.5 824.5,-209.5 895.5,-209.5 895.5,-190.5 824.5,-190.5"/>
<text text-anchor="middle" x="860" y="-197.5" font-family="Helvetica,sans-Serif" font-size="10.00">CipStackInit</text>
</a>
</g>
</g>
<!-- Node4&#45;&gt;Node5 -->
<g id="edge5" class="edge"><title>Node4&#45;&gt;Node5</title>
<path fill="none" stroke="midnightblue" d="M600.906,-319.938C647.921,-322.121 714.078,-319.459 766,-295 807.133,-275.624 840.032,-229.812 853.012,-209.725"/>
<polygon fill="midnightblue" stroke="midnightblue" points="601.057,-316.441 590.879,-319.386 600.672,-323.431 601.057,-316.441"/>
</g>
<!-- Node6 -->
<g id="node6" class="node"><title>Node6</title>
<g id="a_node6"><a xlink:href="../../d5/dcb/MINGW_2main_8c.html#ad338a7dbc41dc40bcecd0479377ef207" target="_top" xlink:title="main">
<polygon fill="none" stroke="black" points="954,-190.5 954,-209.5 992,-209.5 992,-190.5 954,-190.5"/>
<text text-anchor="middle" x="973" y="-197.5" font-family="Helvetica,sans-Serif" font-size="10.00">main</text>
</a>
</g>
</g>
<!-- Node5&#45;&gt;Node6 -->
<g id="edge6" class="edge"><title>Node5&#45;&gt;Node6</title>
<path fill="none" stroke="midnightblue" d="M905.783,-200C922.658,-200 940.907,-200 953.965,-200"/>
<polygon fill="midnightblue" stroke="midnightblue" points="905.513,-196.5 895.513,-200 905.513,-203.5 905.513,-196.5"/>
</g>
<!-- Node7 -->
<g id="node7" class="node"><title>Node7</title>
<g id="a_node7"><a xlink:href="../../d8/d03/ports_2MINGW_2CMakeLists_8txt.html#a7e00df43a20d627a1732be7766d91097" target="_top" xlink:title="add_library">
<polygon fill="none" stroke="black" points="1028,-190.5 1028,-209.5 1092,-209.5 1092,-190.5 1028,-190.5"/>
<text text-anchor="middle" x="1060" y="-197.5" font-family="Helvetica,sans-Serif" font-size="10.00">add_library</text>
</a>
</g>
</g>
<!-- Node6&#45;&gt;Node7 -->
<g id="edge7" class="edge"><title>Node6&#45;&gt;Node7</title>
<path fill="none" stroke="midnightblue" d="M1002.27,-200C1010.5,-200 1019.55,-200 1027.94,-200"/>
<polygon fill="midnightblue" stroke="midnightblue" points="1002.03,-196.5 992.026,-200 1002.03,-203.5 1002.03,-196.5"/>
</g>
<!-- Node8 -->
<g id="node8" class="node"><title>Node8</title>
<g id="a_node8"><a xlink:href="../../d8/dce/ports_2CMakeLists_8txt.html#a598fae457555a5fb26e18d4cd8f89de9" target="_top" xlink:title="add_subdirectory">
<polygon fill="none" stroke="black" points="1128,-190.5 1128,-209.5 1219,-209.5 1219,-190.5 1128,-190.5"/>
<text text-anchor="middle" x="1173.5" y="-197.5" font-family="Helvetica,sans-Serif" font-size="10.00">add_subdirectory</text>
</a>
</g>
</g>
<!-- Node7&#45;&gt;Node8 -->
<g id="edge8" class="edge"><title>Node7&#45;&gt;Node8</title>
<path fill="none" stroke="midnightblue" d="M1102.3,-200C1110.63,-200 1119.42,-200 1127.86,-200"/>
<polygon fill="midnightblue" stroke="midnightblue" points="1102.06,-196.5 1092.06,-200 1102.06,-203.5 1102.06,-196.5"/>
</g>
<!-- Node9&#45;&gt;Node3 -->
<g id="edge10" class="edge"><title>Node9&#45;&gt;Node3</title>
<path fill="none" stroke="midnightblue" d="M225.704,-251.1C229.967,-252.849 234.122,-254.809 238,-257 256.898,-267.676 255.157,-279.228 274,-290 284.764,-296.153 297.278,-300.896 309.109,-304.477"/>
<polygon fill="midnightblue" stroke="midnightblue" points="226.857,-247.795 216.264,-247.6 224.423,-254.358 226.857,-247.795"/>
</g>
<!-- Node10&#45;&gt;Node3 -->
<g id="edge12" class="edge"><title>Node10&#45;&gt;Node3</title>
<path fill="none" stroke="midnightblue" d="M228.524,-340.319C253.908,-334.93 283.661,-328.614 307.656,-323.52"/>
<polygon fill="midnightblue" stroke="midnightblue" points="227.724,-336.911 218.669,-342.411 229.178,-343.758 227.724,-336.911"/>
</g>
<!-- Node11&#45;&gt;Node3 -->
<g id="edge14" class="edge"><title>Node11&#45;&gt;Node3</title>
<path fill="none" stroke="midnightblue" d="M240.68,-314C252.836,-314 265.578,-314 277.93,-314"/>
<polygon fill="midnightblue" stroke="midnightblue" points="240.629,-310.5 230.629,-314 240.629,-317.5 240.629,-310.5"/>
</g>
<!-- Node12&#45;&gt;Node3 -->
<g id="edge37" class="edge"><title>Node12&#45;&gt;Node3</title>
<path fill="none" stroke="midnightblue" d="M229.721,-213.304C232.655,-214.982 235.443,-216.872 238,-219 265.196,-241.63 246.92,-267.231 274,-290 281.527,-296.328 290.699,-300.989 300.082,-304.421"/>
<polygon fill="midnightblue" stroke="midnightblue" points="231.086,-210.077 220.559,-208.878 228.041,-216.38 231.086,-210.077"/>
</g>
<!-- Node13 -->
<g id="node13" class="node"><title>Node13</title>
<g id="a_node13"><a xlink:href="../../dc/d72/cipidentity_8h.html#a5d5136e167300543aa046057b56ae813" target="_top" xlink:title="CIP Identity object constructor. ">
<polygon fill="none" stroke="black" points="502,-76.5 502,-95.5 579,-95.5 579,-76.5 502,-76.5"/>
<text text-anchor="middle" x="540.5" y="-83.5" font-family="Helvetica,sans-Serif" font-size="10.00">CipIdentityInit</text>
</a>
</g>
</g>
<!-- Node12&#45;&gt;Node13 -->
<g id="edge16" class="edge"><title>Node12&#45;&gt;Node13</title>
<path fill="none" stroke="midnightblue" d="M186.083,-182.147C203.106,-159.625 235.778,-121.811 274,-105 349.507,-71.7903 448.798,-75.6552 501.995,-81.0388"/>
<polygon fill="midnightblue" stroke="midnightblue" points="183.251,-180.09 180.155,-190.222 188.894,-184.232 183.251,-180.09"/>
</g>
<!-- Node14 -->
<g id="node14" class="node"><title>Node14</title>
<g id="a_node14"><a xlink:href="../../d2/d75/cipmessagerouter_8h.html#aa3456b75c1b2289296323b578fee2d3d" target="_top" xlink:title="Initialize the data structures of the message router. ">
<polygon fill="none" stroke="black" points="483.5,-228.5 483.5,-247.5 597.5,-247.5 597.5,-228.5 483.5,-228.5"/>
<text text-anchor="middle" x="540.5" y="-235.5" font-family="Helvetica,sans-Serif" font-size="10.00">CipMessageRouterInit</text>
</a>
</g>
</g>
<!-- Node12&#45;&gt;Node14 -->
<g id="edge18" class="edge"><title>Node12&#45;&gt;Node14</title>
<path fill="none" stroke="midnightblue" d="M227.92,-211.474C242.806,-214.288 258.977,-217.049 274,-219 345.948,-228.344 429.506,-233.373 483.372,-235.865"/>
<polygon fill="midnightblue" stroke="midnightblue" points="228.332,-207.989 217.85,-209.527 227.003,-214.862 228.332,-207.989"/>
</g>
<!-- Node15 -->
<g id="node15" class="node"><title>Node15</title>
<g id="a_node15"><a xlink:href="../../d2/da3/cipconnectionmanager_8h.html#a5ab0de6894d23e8fe84a6b46797c2212" target="_top" xlink:title="Initialize the data of the connection manager object. ">
<polygon fill="none" stroke="black" points="482,-190.5 482,-209.5 599,-209.5 599,-190.5 482,-190.5"/>
<text text-anchor="middle" x="540.5" y="-197.5" font-family="Helvetica,sans-Serif" font-size="10.00">ConnectionManagerInit</text>
</a>
</g>
</g>
<!-- Node12&#45;&gt;Node15 -->
<g id="edge20" class="edge"><title>Node12&#45;&gt;Node15</title>
<path fill="none" stroke="midnightblue" d="M224.429,-188.462C240.228,-185.399 257.757,-182.522 274,-181 344.358,-174.408 362.608,-174.77 433,-181 453.953,-182.854 476.957,-186.723 496.207,-190.488"/>
<polygon fill="midnightblue" stroke="midnightblue" points="223.443,-185.09 214.327,-190.489 224.82,-191.953 223.443,-185.09"/>
</g>
<!-- Node16 -->
<g id="node16" class="node"><title>Node16</title>
<g id="a_node16"><a xlink:href="../../df/d2e/cipassembly_8c.html#a5973ef42110a1bdf6c7699e35e04b7d4" target="_top" xlink:title="Constructor for the assembly object class. ">
<polygon fill="none" stroke="black" points="483,-266.5 483,-285.5 598,-285.5 598,-266.5 483,-266.5"/>
<text text-anchor="middle" x="540.5" y="-273.5" font-family="Helvetica,sans-Serif" font-size="10.00">CreateAssemblyClass</text>
</a>
</g>
</g>
<!-- Node12&#45;&gt;Node16 -->
<g id="edge22" class="edge"><title>Node12&#45;&gt;Node16</title>
<path fill="none" stroke="midnightblue" d="M221.179,-212.621C226.921,-214.557 232.644,-216.689 238,-219 255.008,-226.337 256.485,-233.973 274,-240 343.385,-263.876 428.073,-271.997 482.858,-274.713"/>
<polygon fill="midnightblue" stroke="midnightblue" points="222.15,-209.257 211.559,-209.552 220.022,-215.926 222.15,-209.257"/>
</g>
<!-- Node20 -->
<g id="node20" class="node"><title>Node20</title>
<g id="a_node20"><a xlink:href="../../d2/d3d/cipcommon_8c.html#a3dfa07bc40e59ba348d713272d1cbfdb" target="_top" xlink:title="CreateCipClass">
<polygon fill="none" stroke="black" points="310.5,-190.5 310.5,-209.5 396.5,-209.5 396.5,-190.5 310.5,-190.5"/>
<text text-anchor="middle" x="353.5" y="-197.5" font-family="Helvetica,sans-Serif" font-size="10.00">CreateCipClass</text>
</a>
</g>
</g>
<!-- Node12&#45;&gt;Node20 -->
<g id="edge27" class="edge"><title>Node12&#45;&gt;Node20</title>
<path fill="none" stroke="midnightblue" d="M230.596,-200C256.49,-200 286.567,-200 310.366,-200"/>
<polygon fill="midnightblue" stroke="midnightblue" points="230.53,-196.5 220.53,-200 230.53,-203.5 230.53,-196.5"/>
</g>
<!-- Node23 -->
<g id="node23" class="node"><title>Node23</title>
<g id="a_node23"><a xlink:href="../../dd/d34/cipqos_8c.html#a5d9d92286e873ae02cb2c13ea9a0dee0" target="_top" xlink:title="GetAttributeSingleQoS">
<polygon fill="none" stroke="black" points="295.5,-114.5 295.5,-133.5 411.5,-133.5 411.5,-114.5 295.5,-114.5"/>
<text text-anchor="middle" x="353.5" y="-121.5" font-family="Helvetica,sans-Serif" font-size="10.00">GetAttributeSingleQoS</text>
</a>
</g>
</g>
<!-- Node12&#45;&gt;Node23 -->
<g id="edge38" class="edge"><title>Node12&#45;&gt;Node23</title>
<path fill="none" stroke="midnightblue" d="M198.552,-185.421C218.529,-174.196 247.459,-158.82 274,-148 287.593,-142.459 302.955,-137.491 316.463,-133.533"/>
<polygon fill="midnightblue" stroke="midnightblue" points="196.744,-182.423 189.78,-190.407 200.203,-188.509 196.744,-182.423"/>
</g>
<!-- Node12&#45;&gt;Node24 -->
<g id="edge40" class="edge"><title>Node12&#45;&gt;Node24</title>
<path fill="none" stroke="midnightblue" d="M187.84,-182.19C200.975,-165.829 220.915,-140.875 238,-119 254.196,-98.2628 252.387,-87.0074 274,-72 283.014,-65.7413 293.707,-61.0763 304.254,-57.6126"/>
<polygon fill="midnightblue" stroke="midnightblue" points="184.841,-180.335 181.304,-190.322 190.297,-184.72 184.841,-180.335"/>
</g>
<!-- Node13&#45;&gt;Node5 -->
<g id="edge17" class="edge"><title>Node13&#45;&gt;Node5</title>
<path fill="none" stroke="midnightblue" d="M577.763,-99.0204C642.259,-122.178 775.466,-170.007 832.328,-190.423"/>
<polygon fill="midnightblue" stroke="midnightblue" points="578.618,-95.6088 568.024,-95.5235 576.253,-102.197 578.618,-95.6088"/>
</g>
<!-- Node14&#45;&gt;Node5 -->
<g id="edge19" class="edge"><title>Node14&#45;&gt;Node5</title>
<path fill="none" stroke="midnightblue" d="M608.016,-231.645C652.739,-227.186 712.98,-220.822 766,-214 785.271,-211.521 806.722,-208.321 824.161,-205.607"/>
<polygon fill="midnightblue" stroke="midnightblue" points="607.465,-228.182 597.858,-232.651 608.155,-235.148 607.465,-228.182"/>
</g>
<!-- Node15&#45;&gt;Node5 -->
<g id="edge21" class="edge"><title>Node15&#45;&gt;Node5</title>
<path fill="none" stroke="midnightblue" d="M609.658,-200C675.535,-200 772.696,-200 824.118,-200"/>
<polygon fill="midnightblue" stroke="midnightblue" points="609.365,-196.5 599.365,-200 609.365,-203.5 609.365,-196.5"/>
</g>
<!-- Node17 -->
<g id="node17" class="node"><title>Node17</title>
<g id="a_node17"><a xlink:href="../../de/df4/cipassembly_8h.html#a4dfbc2c7a8e9e77f05a0a7236210f5b4" target="_top" xlink:title="Setup the Assembly object. ">
<polygon fill="none" stroke="black" points="651.5,-266.5 651.5,-285.5 762.5,-285.5 762.5,-266.5 651.5,-266.5"/>
<text text-anchor="middle" x="707" y="-273.5" font-family="Helvetica,sans-Serif" font-size="10.00">CipAssemblyInitialize</text>
</a>
</g>
</g>
<!-- Node16&#45;&gt;Node17 -->
<g id="edge23" class="edge"><title>Node16&#45;&gt;Node17</title>
<path fill="none" stroke="midnightblue" d="M608.35,-276C622.602,-276 637.493,-276 651.229,-276"/>
<polygon fill="midnightblue" stroke="midnightblue" points="608.112,-272.5 598.112,-276 608.112,-279.5 608.112,-272.5"/>
</g>
<!-- Node18 -->
<g id="node18" class="node"><title>Node18</title>
<g id="a_node18"><a xlink:href="../../d2/dc9/group__CIP__API.html#gae61b613fed863d30428e78b2311bf593" target="_top" xlink:title="Create an instance of an assembly object. ">
<polygon fill="none" stroke="black" points="648,-342.5 648,-361.5 766,-361.5 766,-342.5 648,-342.5"/>
<text text-anchor="middle" x="707" y="-349.5" font-family="Helvetica,sans-Serif" font-size="10.00">CreateAssemblyObject</text>
</a>
</g>
</g>
<!-- Node16&#45;&gt;Node18 -->
<g id="edge25" class="edge"><title>Node16&#45;&gt;Node18</title>
<path fill="none" stroke="midnightblue" d="M594.638,-288.58C600.578,-290.497 606.475,-292.637 612,-295 642.708,-308.135 675.359,-329.948 692.946,-342.437"/>
<polygon fill="midnightblue" stroke="midnightblue" points="595.241,-285.106 584.656,-285.562 593.215,-291.806 595.241,-285.106"/>
</g>
<!-- Node17&#45;&gt;Node5 -->
<g id="edge24" class="edge"><title>Node17&#45;&gt;Node5</title>
<path fill="none" stroke="midnightblue" d="M742.188,-262.636C750.087,-259.333 758.4,-255.681 766,-252 793.802,-238.533 824.908,-220.507 843.175,-209.602"/>
<polygon fill="midnightblue" stroke="midnightblue" points="740.76,-259.438 732.835,-266.47 743.415,-265.915 740.76,-259.438"/>
</g>
<!-- Node19 -->
<g id="node19" class="node"><title>Node19</title>
<g id="a_node19"><a xlink:href="../../d5/dc5/group__CIP__CALLBACK__API.html#gae93106eb1647bff3ad56a7752799d878" target="_top" xlink:title="Callback for the application initialization. ">
<polygon fill="none" stroke="black" points="802,-342.5 802,-361.5 918,-361.5 918,-342.5 802,-342.5"/>
<text text-anchor="middle" x="860" y="-349.5" font-family="Helvetica,sans-Serif" font-size="10.00">ApplicationInitialization</text>
</a>
</g>
</g>
<!-- Node18&#45;&gt;Node19 -->
<g id="edge26" class="edge"><title>Node18&#45;&gt;Node19</title>
<path fill="none" stroke="midnightblue" d="M776.571,-352C784.995,-352 793.536,-352 801.769,-352"/>
<polygon fill="midnightblue" stroke="midnightblue" points="776.381,-348.5 766.381,-352 776.381,-355.5 776.381,-348.5"/>
</g>
<!-- Node20&#45;&gt;Node4 -->
<g id="edge28" class="edge"><title>Node20&#45;&gt;Node4</title>
<path fill="none" stroke="midnightblue" d="M370.323,-217.035C391.021,-238.326 429.342,-274.458 469,-295 476.429,-298.848 484.713,-301.975 492.918,-304.496"/>
<polygon fill="midnightblue" stroke="midnightblue" points="372.724,-214.481 363.287,-209.665 367.661,-219.315 372.724,-214.481"/>
</g>
<!-- Node20&#45;&gt;Node13 -->
<g id="edge29" class="edge"><title>Node20&#45;&gt;Node13</title>
<path fill="none" stroke="midnightblue" d="M377.423,-184.39C393.358,-173.29 414.901,-157.786 433,-143 449.809,-129.268 450.328,-121.067 469,-110 479.121,-104.001 490.955,-99.2343 502.006,-95.5819"/>
<polygon fill="midnightblue" stroke="midnightblue" points="374.995,-181.813 368.757,-190.377 378.974,-187.572 374.995,-181.813"/>
</g>
<!-- Node20&#45;&gt;Node14 -->
<g id="edge30" class="edge"><title>Node20&#45;&gt;Node14</title>
<path fill="none" stroke="midnightblue" d="M407.023,-210.789C434.116,-216.354 466.875,-223.082 493.038,-228.456"/>
<polygon fill="midnightblue" stroke="midnightblue" points="407.442,-207.302 396.943,-208.718 406.034,-214.159 407.442,-207.302"/>
</g>
<!-- Node20&#45;&gt;Node15 -->
<g id="edge35" class="edge"><title>Node20&#45;&gt;Node15</title>
<path fill="none" stroke="midnightblue" d="M407.006,-200C430.354,-200 457.913,-200 481.833,-200"/>
<polygon fill="midnightblue" stroke="midnightblue" points="406.943,-196.5 396.943,-200 406.943,-203.5 406.943,-196.5"/>
</g>
<!-- Node20&#45;&gt;Node16 -->
<g id="edge36" class="edge"><title>Node20&#45;&gt;Node16</title>
<path fill="none" stroke="midnightblue" d="M380.1,-214.589C402.88,-227.12 437.39,-245.009 469,-257 478.363,-260.552 488.661,-263.721 498.426,-266.405"/>
<polygon fill="midnightblue" stroke="midnightblue" points="381.538,-211.384 371.098,-209.58 378.134,-217.501 381.538,-211.384"/>
</g>
<!-- Node21 -->
<g id="node21" class="node"><title>Node21</title>
<g id="a_node21"><a xlink:href="../../d0/d3c/cipqos_8h.html#ab9a656060dcf03c3f51dbd967dff3f52" target="_top" xlink:title="CipQoSInit">
<polygon fill="none" stroke="black" points="508,-152.5 508,-171.5 573,-171.5 573,-152.5 508,-152.5"/>
<text text-anchor="middle" x="540.5" y="-159.5" font-family="Helvetica,sans-Serif" font-size="10.00">CipQoSInit</text>
</a>
</g>
</g>
<!-- Node20&#45;&gt;Node21 -->
<g id="edge31" class="edge"><title>Node20&#45;&gt;Node21</title>
<path fill="none" stroke="midnightblue" d="M406.767,-189.264C439.354,-182.571 480.216,-174.177 507.931,-168.484"/>
<polygon fill="midnightblue" stroke="midnightblue" points="406.034,-185.841 396.943,-191.282 407.442,-192.698 406.034,-185.841"/>
</g>
<!-- Node22 -->
<g id="node22" class="node"><title>Node22</title>
<g id="a_node22"><a xlink:href="../../d1/dad/ciptcpipinterface_8h.html#a4c1f49654e48c5581513d990840933b0" target="_top" xlink:title="Initializing the data structures of the TCP/IP interface object. ">
<polygon fill="none" stroke="black" points="653,-47.5 653,-66.5 761,-66.5 761,-47.5 653,-47.5"/>
<text text-anchor="middle" x="707" y="-54.5" font-family="Helvetica,sans-Serif" font-size="10.00">CipTcpIpInterfaceInit</text>
</a>
</g>
</g>
<!-- Node20&#45;&gt;Node22 -->
<g id="edge33" class="edge"><title>Node20&#45;&gt;Node22</title>
<path fill="none" stroke="midnightblue" d="M380.09,-185.383C402.863,-172.835 437.369,-154.935 469,-143 530.527,-119.784 550.593,-128.53 612,-105 640.404,-94.116 671.496,-77.1646 689.847,-66.5908"/>
<polygon fill="midnightblue" stroke="midnightblue" points="378.12,-182.474 371.09,-190.4 381.529,-188.588 378.12,-182.474"/>
</g>
<!-- Node21&#45;&gt;Node5 -->
<g id="edge32" class="edge"><title>Node21&#45;&gt;Node5</title>
<path fill="none" stroke="midnightblue" d="M583.117,-166.981C646.298,-174.543 765.276,-188.783 824.166,-195.831"/>
<polygon fill="midnightblue" stroke="midnightblue" points="583.449,-163.496 573.104,-165.783 582.617,-170.446 583.449,-163.496"/>
</g>
<!-- Node22&#45;&gt;Node5 -->
<g id="edge34" class="edge"><title>Node22&#45;&gt;Node5</title>
<path fill="none" stroke="midnightblue" d="M730.681,-72.346C741.712,-80.1716 754.942,-90.1083 766,-100 800.103,-130.508 835.644,-171.853 851.071,-190.355"/>
<polygon fill="midnightblue" stroke="midnightblue" points="732.594,-69.4132 722.389,-66.5638 728.59,-75.1549 732.594,-69.4132"/>
</g>
<!-- Node23&#45;&gt;Node21 -->
<g id="edge39" class="edge"><title>Node23&#45;&gt;Node21</title>
<path fill="none" stroke="midnightblue" d="M411.249,-135.657C443.044,-142.187 481.5,-150.087 507.96,-155.522"/>
<polygon fill="midnightblue" stroke="midnightblue" points="411.683,-132.173 401.183,-133.589 410.275,-139.03 411.683,-132.173"/>
</g>
<!-- Node24&#45;&gt;Node22 -->
<g id="edge41" class="edge"><title>Node24&#45;&gt;Node22</title>
<path fill="none" stroke="midnightblue" d="M443.386,-50.2759C509.505,-51.9688 597.538,-54.2229 652.998,-55.6429"/>
<polygon fill="midnightblue" stroke="midnightblue" points="443.47,-46.777 433.383,-50.0198 443.291,-53.7747 443.47,-46.777"/>
</g>
<!-- Node25 -->
<g id="node25" class="node"><title>Node25</title>
<g id="a_node25"><a xlink:href="../../dd/d20/ciptcpipinterface_8c.html#af60f6b6b60831de02c99dd1c99b85af6" target="_top" xlink:title="GetAttributeAllTcpIpInterface">
<polygon fill="none" stroke="black" points="469,-0.5 469,-19.5 612,-19.5 612,-0.5 469,-0.5"/>
<text text-anchor="middle" x="540.5" y="-7.5" font-family="Helvetica,sans-Serif" font-size="10.00">GetAttributeAllTcpIpInterface</text>
</a>
</g>
</g>
<!-- Node24&#45;&gt;Node25 -->
<g id="edge42" class="edge"><title>Node24&#45;&gt;Node25</title>
<path fill="none" stroke="midnightblue" d="M411.02,-36.3905C437.331,-30.986 468.243,-24.6365 493.152,-19.5201"/>
<polygon fill="midnightblue" stroke="midnightblue" points="410.275,-32.9704 401.183,-38.411 411.683,-39.8273 410.275,-32.9704"/>
</g>
<!-- Node25&#45;&gt;Node22 -->
<g id="edge43" class="edge"><title>Node25&#45;&gt;Node22</title>
<path fill="none" stroke="midnightblue" d="M584.532,-22.2948C611.999,-30.1425 647.084,-40.167 672.479,-47.4224"/>
<polygon fill="midnightblue" stroke="midnightblue" points="585.366,-18.8931 574.789,-19.5112 583.443,-25.6238 585.366,-18.8931"/>
</g>
</g>
</svg>
