<?xml version="1.0" encoding="UTF-8" standalone="no"?>
<!DOCTYPE svg PUBLIC "-//W3C//DTD SVG 1.1//EN"
 "http://www.w3.org/Graphics/SVG/1.1/DTD/svg11.dtd">
<!-- Generated by graphviz version 2.38.0 (20140413.2041)
 -->
<!-- Title: CloseSession Pages: 1 -->
<svg width="637pt" height="163pt"
 viewBox="0.00 0.00 637.00 162.50" xmlns="http://www.w3.org/2000/svg" xmlns:xlink="http://www.w3.org/1999/xlink">
<g id="graph0" class="graph" transform="scale(1 1) rotate(0) translate(4 158.5)">
<title>CloseSession</title>
<!-- Node1 -->
<g id="node1" class="node"><title>Node1</title>
<polygon fill="#bfbfbf" stroke="black" points="0,-107.5 0,-126.5 77,-126.5 77,-107.5 0,-107.5"/>
<text text-anchor="middle" x="38.5" y="-114.5" font-family="Helvetica,sans-Serif" font-size="10.00">CloseSession</text>
</g>
<!-- Node2 -->
<g id="node2" class="node"><title>Node2</title>
<g id="a_node2"><a xlink:href="../../d2/dbd/encap_8c.html#aef8228e92ac17473e762d8144daca74e" target="_top" xlink:title="CloseClass3ConnectionBased\lOnSession">
<polygon fill="none" stroke="black" points="113,-124 113,-154 263,-154 263,-124 113,-124"/>
<text text-anchor="start" x="121" y="-142" font-family="Helvetica,sans-Serif" font-size="10.00">CloseClass3ConnectionBased</text>
<text text-anchor="middle" x="188" y="-131" font-family="Helvetica,sans-Serif" font-size="10.00">OnSession</text>
</a>
</g>
</g>
<!-- Node1&#45;&gt;Node2 -->
<g id="edge1" class="edge"><title>Node1&#45;&gt;Node2</title>
<path fill="none" stroke="midnightblue" d="M77.1021,-122.608C85.188,-123.814 94.044,-125.135 103.108,-126.487"/>
<polygon fill="midnightblue" stroke="midnightblue" points="102.592,-129.949 112.999,-127.963 103.625,-123.026 102.592,-129.949"/>
</g>
<!-- Node4 -->
<g id="node4" class="node"><title>Node4</title>
<g id="a_node4"><a xlink:href="../../db/d4f/generic__networkhandler_8c.html#a1bfa5ef8e4802716459a56567ee16592" target="_top" xlink:title="CloseTcpSocket">
<polygon fill="none" stroke="black" points="143.5,-85.5 143.5,-104.5 232.5,-104.5 232.5,-85.5 143.5,-85.5"/>
<text text-anchor="middle" x="188" y="-92.5" font-family="Helvetica,sans-Serif" font-size="10.00">CloseTcpSocket</text>
</a>
</g>
</g>
<!-- Node1&#45;&gt;Node4 -->
<g id="edge3" class="edge"><title>Node1&#45;&gt;Node4</title>
<path fill="none" stroke="midnightblue" d="M77.1021,-111.392C94.17,-108.846 114.67,-105.788 133.317,-103.007"/>
<polygon fill="midnightblue" stroke="midnightblue" points="134.078,-106.432 143.452,-101.495 133.045,-99.5089 134.078,-106.432"/>
</g>
<!-- Node3 -->
<g id="node3" class="node"><title>Node3</title>
<g id="a_node3"><a xlink:href="../../df/d91/cipconnectionobject_8c.html#a0f3d8e6f21712dbef3fb2e1da42f35ba" target="_top" xlink:title="ConnectionObjectGetTransport\lClassTriggerTransportClass">
<polygon fill="none" stroke="black" points="299,-124 299,-154 451,-154 451,-124 299,-124"/>
<text text-anchor="start" x="307" y="-142" font-family="Helvetica,sans-Serif" font-size="10.00">ConnectionObjectGetTransport</text>
<text text-anchor="middle" x="375" y="-131" font-family="Helvetica,sans-Serif" font-size="10.00">ClassTriggerTransportClass</text>
</a>
</g>
</g>
<!-- Node2&#45;&gt;Node3 -->
<g id="edge2" class="edge"><title>Node2&#45;&gt;Node3</title>
<path fill="none" stroke="midnightblue" d="M263.181,-139C271.634,-139 280.3,-139 288.881,-139"/>
<polygon fill="midnightblue" stroke="midnightblue" points="288.897,-142.5 298.897,-139 288.897,-135.5 288.897,-142.5"/>
</g>
<!-- Node5 -->
<g id="node5" class="node"><title>Node5</title>
<g id="a_node5"><a xlink:href="../../d5/dc5/group__CIP__CALLBACK__API.html#gae04e2a3e9937e910cbcdbff0b8d6ad2b" target="_top" xlink:title="Close the given socket and clean up the stack. ">
<polygon fill="none" stroke="black" points="338.5,-85.5 338.5,-104.5 411.5,-104.5 411.5,-85.5 338.5,-85.5"/>
<text text-anchor="middle" x="375" y="-92.5" font-family="Helvetica,sans-Serif" font-size="10.00">CloseSocket</text>
</a>
</g>
</g>
<!-- Node4&#45;&gt;Node5 -->
<g id="edge4" class="edge"><title>Node4&#45;&gt;Node5</title>
<path fill="none" stroke="midnightblue" d="M232.842,-95C261.486,-95 298.833,-95 327.916,-95"/>
<polygon fill="midnightblue" stroke="midnightblue" points="328.226,-98.5001 338.226,-95 328.226,-91.5001 328.226,-98.5001"/>
</g>
<!-- Node7 -->
<g id="node7" class="node"><title>Node7</title>
<g id="a_node7"><a xlink:href="../../db/d4f/generic__networkhandler_8c.html#aea539a75995234e379a1c25019ba378f" target="_top" xlink:title="RemoveSocketTimerFromList">
<polygon fill="none" stroke="black" points="301.5,-44.5 301.5,-63.5 448.5,-63.5 448.5,-44.5 301.5,-44.5"/>
<text text-anchor="middle" x="375" y="-51.5" font-family="Helvetica,sans-Serif" font-size="10.00">RemoveSocketTimerFromList</text>
</a>
</g>
</g>
<!-- Node4&#45;&gt;Node7 -->
<g id="edge6" class="edge"><title>Node4&#45;&gt;Node7</title>
<path fill="none" stroke="midnightblue" d="M231.908,-85.4907C258.431,-79.6126 292.678,-72.0228 320.904,-65.7673"/>
<polygon fill="midnightblue" stroke="midnightblue" points="321.999,-69.1095 331.005,-63.5286 320.484,-62.2753 321.999,-69.1095"/>
</g>
<!-- Node6 -->
<g id="node6" class="node"><title>Node6</title>
<g id="a_node6"><a xlink:href="../../d3/de3/MINGW_2networkhandler_8c.html#a2812ba0ecd1fd9a5549fbca397d76e3e" target="_top" xlink:title="Platform dependent code to close a socket. ">
<polygon fill="none" stroke="black" points="503,-88.5 503,-107.5 613,-107.5 613,-88.5 503,-88.5"/>
<text text-anchor="middle" x="558" y="-95.5" font-family="Helvetica,sans-Serif" font-size="10.00">CloseSocketPlatform</text>
</a>
</g>
</g>
<!-- Node5&#45;&gt;Node6 -->
<g id="edge5" class="edge"><title>Node5&#45;&gt;Node6</title>
<path fill="none" stroke="midnightblue" d="M411.76,-95.5927C434.781,-95.9743 465.372,-96.4813 492.541,-96.9316"/>
<polygon fill="midnightblue" stroke="midnightblue" points="492.706,-100.435 502.763,-97.101 492.822,-93.4357 492.706,-100.435"/>
</g>
<!-- Node8 -->
<g id="node8" class="node"><title>Node8</title>
<g id="a_node8"><a xlink:href="../../d4/df6/socket__timer_8c.html#abe7542fdec4d4e4893a8c712192529ca" target="_top" xlink:title="Get the Socket Timer entry with the spezified socket value. ">
<polygon fill="none" stroke="black" points="487,-39 487,-69 629,-69 629,-39 487,-39"/>
<text text-anchor="start" x="495" y="-57" font-family="Helvetica,sans-Serif" font-size="10.00">SocketTimerArrayGetSocket</text>
<text text-anchor="middle" x="558" y="-46" font-family="Helvetica,sans-Serif" font-size="10.00">Timer</text>
</a>
</g>
</g>
<!-- Node7&#45;&gt;Node8 -->
<g id="edge7" class="edge"><title>Node7&#45;&gt;Node8</title>
<path fill="none" stroke="midnightblue" d="M448.577,-54C457.822,-54 467.327,-54 476.684,-54"/>
<polygon fill="midnightblue" stroke="midnightblue" points="476.762,-57.5001 486.762,-54 476.762,-50.5001 476.762,-57.5001"/>
</g>
<!-- Node9 -->
<g id="node9" class="node"><title>Node9</title>
<g id="a_node9"><a xlink:href="../../d4/df6/socket__timer_8c.html#a6130830815ae46fe4e6d45cf89bc3506" target="_top" xlink:title="Clears a Socket Timer entry. ">
<polygon fill="none" stroke="black" points="510.5,-0.5 510.5,-19.5 605.5,-19.5 605.5,-0.5 510.5,-0.5"/>
<text text-anchor="middle" x="558" y="-7.5" font-family="Helvetica,sans-Serif" font-size="10.00">SocketTimerClear</text>
</a>
</g>
</g>
<!-- Node7&#45;&gt;Node9 -->
<g id="edge8" class="edge"><title>Node7&#45;&gt;Node9</title>
<path fill="none" stroke="midnightblue" d="M415.274,-44.4527C442.432,-37.8508 478.766,-29.0181 507.846,-21.949"/>
<polygon fill="midnightblue" stroke="midnightblue" points="508.912,-25.2919 517.802,-19.5287 507.259,-18.49 508.912,-25.2919"/>
</g>
</g>
</svg>
