<?xml version="1.0" encoding="UTF-8" standalone="no"?>
<!DOCTYPE svg PUBLIC "-//W3C//DTD SVG 1.1//EN"
 "http://www.w3.org/Graphics/SVG/1.1/DTD/svg11.dtd">
<!-- Generated by graphviz version 2.38.0 (20140413.2041)
 -->
<!-- Title: SetDeviceStatus Pages: 1 -->
<svg width="555pt" height="47pt"
 viewBox="0.00 0.00 555.00 47.00" xmlns="http://www.w3.org/2000/svg" xmlns:xlink="http://www.w3.org/1999/xlink">
<g id="graph0" class="graph" transform="scale(1 1) rotate(0) translate(4 43)">
<title>SetDeviceStatus</title>
<!-- Node1 -->
<g id="node1" class="node"><title>Node1</title>
<polygon fill="#bfbfbf" stroke="black" points="0,-19.5 0,-38.5 91,-38.5 91,-19.5 0,-19.5"/>
<text text-anchor="middle" x="45.5" y="-26.5" font-family="Helvetica,sans-Serif" font-size="10.00">SetDeviceStatus</text>
</g>
<!-- Node2 -->
<g id="node2" class="node"><title>Node2</title>
<g id="a_node2"><a xlink:href="../../d5/dc5/group__CIP__CALLBACK__API.html#gacfb8706d76bc6fe1816546e122fdcac2" target="_top" xlink:title="Emulate as close a possible a power cycle of the device. ">
<polygon fill="none" stroke="black" points="329,-19.5 329,-38.5 403,-38.5 403,-19.5 329,-19.5"/>
<text text-anchor="middle" x="366" y="-26.5" font-family="Helvetica,sans-Serif" font-size="10.00">ResetDevice</text>
</a>
</g>
</g>
<!-- Node1&#45;&gt;Node2 -->
<g id="edge1" class="edge"><title>Node1&#45;&gt;Node2</title>
<path fill="none" stroke="midnightblue" d="M91.1214,-29C151.164,-29 257.454,-29 318.463,-29"/>
<polygon fill="midnightblue" stroke="midnightblue" points="318.579,-32.5001 328.579,-29 318.579,-25.5001 318.579,-32.5001"/>
</g>
<!-- Node4 -->
<g id="node4" class="node"><title>Node4</title>
<g id="a_node4"><a xlink:href="../../d5/dc5/group__CIP__CALLBACK__API.html#gabec9a29cf19789a6534814680c21f6e7" target="_top" xlink:title="Reset the device to the initial configuration and emulate as close as possible a power cycle of the d...">
<polygon fill="none" stroke="black" points="127,-0.5 127,-19.5 293,-19.5 293,-0.5 127,-0.5"/>
<text text-anchor="middle" x="210" y="-7.5" font-family="Helvetica,sans-Serif" font-size="10.00">ResetDeviceToInitialConfiguration</text>
</a>
</g>
</g>
<!-- Node1&#45;&gt;Node4 -->
<g id="edge3" class="edge"><title>Node1&#45;&gt;Node4</title>
<path fill="none" stroke="midnightblue" d="M91.334,-23.7579C99.5247,-22.8002 108.338,-21.7697 117.324,-20.719"/>
<polygon fill="midnightblue" stroke="midnightblue" points="117.994,-24.1647 127.519,-19.527 117.181,-17.212 117.994,-24.1647"/>
</g>
<!-- Node3 -->
<g id="node3" class="node"><title>Node3</title>
<g id="a_node3"><a xlink:href="../../d1/dbc/appcontype_8c.html#a18d2a32030faf1d5e3d48e610b1c4fe7" target="_top" xlink:title="CloseAllConnections">
<polygon fill="none" stroke="black" points="439,-19.5 439,-38.5 547,-38.5 547,-19.5 439,-19.5"/>
<text text-anchor="middle" x="493" y="-26.5" font-family="Helvetica,sans-Serif" font-size="10.00">CloseAllConnections</text>
</a>
</g>
</g>
<!-- Node2&#45;&gt;Node3 -->
<g id="edge2" class="edge"><title>Node2&#45;&gt;Node3</title>
<path fill="none" stroke="midnightblue" d="M403.155,-29C411.136,-29 419.819,-29 428.526,-29"/>
<polygon fill="midnightblue" stroke="midnightblue" points="428.72,-32.5001 438.72,-29 428.72,-25.5001 428.72,-32.5001"/>
</g>
<!-- Node4&#45;&gt;Node2 -->
<g id="edge4" class="edge"><title>Node4&#45;&gt;Node2</title>
<path fill="none" stroke="midnightblue" d="M288.451,-19.5557C298.792,-20.8315 309.122,-22.106 318.695,-23.2871"/>
<polygon fill="midnightblue" stroke="midnightblue" points="318.398,-26.7768 328.751,-24.5277 319.255,-19.8295 318.398,-26.7768"/>
</g>
</g>
</svg>
