<?xml version="1.0" encoding="UTF-8" standalone="no"?>
<!DOCTYPE svg PUBLIC "-//W3C//DTD SVG 1.1//EN"
 "http://www.w3.org/Graphics/SVG/1.1/DTD/svg11.dtd">
<!-- Generated by graphviz version 2.38.0 (20140413.2041)
 -->
<!-- Title: CreateAssemblyObject Pages: 1 -->
<!--zoomable 505 -->
<svg id="main" version="1.1" xmlns="http://www.w3.org/2000/svg" xmlns:xlink="http://www.w3.org/1999/xlink" xml:space="preserve" onload="init(evt)">
<style type="text/css"><![CDATA[
.edge:hover path { stroke: red; }
.edge:hover polygon { stroke: red; fill: red; }
]]></style>
<script type="text/javascript"><![CDATA[
var edges = document.getElementsByTagName('g');
if (edges && edges.length) {
  for (var i=0;i<edges.length;i++) {
    if (edges[i].id.substr(0,4)=='edge') {
      edges[i].setAttribute('class','edge');
    }
  }
}
]]></script>
        <defs>
                <circle id="rim" cx="0" cy="0" r="7"/>
                <circle id="rim2" cx="0" cy="0" r="3.5"/>
                <g id="zoomPlus">
                        <use xlink:href="#rim" fill="#404040">
                                <set attributeName="fill" to="#808080" begin="zoomplus.mouseover" end="zoomplus.mouseout"/>
                        </use>
                        <path d="M-4,0h8M0,-4v8" fill="none" stroke="white" stroke-width="1.5" pointer-events="none"/>
                </g>
                <g id="zoomMin">
                        <use xlink:href="#rim" fill="#404040">
                                <set attributeName="fill" to="#808080" begin="zoomminus.mouseover" end="zoomminus.mouseout"/>
                        </use>
                        <path d="M-4,0h8" fill="none" stroke="white" stroke-width="1.5" pointer-events="none"/>
                </g>
                <g id="dirArrow">
                        <path fill="none" stroke="white" stroke-width="1.5" d="M0,-3.0v7 M-2.5,-0.5L0,-3.0L2.5,-0.5"/>
                </g>
               <g id="resetDef">
                       <use xlink:href="#rim2" fill="#404040">
                               <set attributeName="fill" to="#808080" begin="reset.mouseover" end="reset.mouseout"/>
                       </use>
               </g>
        </defs>

<script type="text/javascript">
var viewWidth = 1125;
var viewHeight = 505;
var sectionId = 'dynsection-20';
</script>
<script xlink:href="../../svgpan.js"/>
<svg id="graph" class="graph">
<g id="viewport">
<title>CreateAssemblyObject</title>
<!-- Node1 -->
<g id="node1" class="node"><title>Node1</title>
<polygon fill="#bfbfbf" stroke="black" points="0,-275.5 0,-294.5 118,-294.5 118,-275.5 0,-275.5"/>
<text text-anchor="middle" x="59" y="-282.5" font-family="Helvetica,sans-Serif" font-size="10.00">CreateAssemblyObject</text>
</g>
<!-- Node2 -->
<g id="node2" class="node"><title>Node2</title>
<g id="a_node2"><a xlink:href="../../d2/dc9/group__CIP__API.html#ga7a8b065d04c2fd96c793ce89e109360f" target="_top" xlink:title="Create one instance of a given class with a certain instance number. ">
<polygon fill="none" stroke="black" points="168.5,-399.5 168.5,-418.5 254.5,-418.5 254.5,-399.5 168.5,-399.5"/>
<text text-anchor="middle" x="211.5" y="-406.5" font-family="Helvetica,sans-Serif" font-size="10.00">AddCipInstance</text>
</a>
</g>
</g>
<!-- Node1&#45;&gt;Node2 -->
<g id="edge1" class="edge"><title>Node1&#45;&gt;Node2</title>
<path fill="none" stroke="midnightblue" d="M71.8095,-294.73C97.6354,-316.009 159.351,-366.857 191.022,-392.951"/>
<polygon fill="midnightblue" stroke="midnightblue" points="188.802,-395.657 198.745,-399.315 193.253,-390.255 188.802,-395.657"/>
</g>
<!-- Node5 -->
<g id="node5" class="node"><title>Node5</title>
<g id="a_node5"><a xlink:href="../../d5/dc5/group__CIP__CALLBACK__API.html#ga70ee7034f390fd3759d42a50e60e1b1c" target="_top" xlink:title="Allocate memory for the CIP stack. ">
<polygon fill="none" stroke="black" points="724,-370.5 724,-389.5 783,-389.5 783,-370.5 724,-370.5"/>
<text text-anchor="middle" x="753.5" y="-377.5" font-family="Helvetica,sans-Serif" font-size="10.00">CipCalloc</text>
</a>
</g>
</g>
<!-- Node1&#45;&gt;Node5 -->
<g id="edge5" class="edge"><title>Node1&#45;&gt;Node5</title>
<path fill="none" stroke="midnightblue" d="M63.5036,-294.796C73.3511,-320.864 103.872,-392.372 154,-428 210.407,-468.092 236.563,-455.73 305,-466 445.703,-487.115 489.952,-519.78 625,-475 671.407,-459.612 714.631,-420.043 736.862,-397.118"/>
<polygon fill="midnightblue" stroke="midnightblue" points="739.485,-399.438 743.821,-389.771 734.403,-394.624 739.485,-399.438"/>
</g>
<!-- Node6 -->
<g id="node6" class="node"><title>Node6</title>
<g id="a_node6"><a xlink:href="../../df/d2e/cipassembly_8c.html#a5973ef42110a1bdf6c7699e35e04b7d4" target="_top" xlink:title="Constructor for the assembly object class. ">
<polygon fill="none" stroke="black" points="154,-275.5 154,-294.5 269,-294.5 269,-275.5 154,-275.5"/>
<text text-anchor="middle" x="211.5" y="-282.5" font-family="Helvetica,sans-Serif" font-size="10.00">CreateAssemblyClass</text>
</a>
</g>
</g>
<!-- Node1&#45;&gt;Node6 -->
<g id="edge6" class="edge"><title>Node1&#45;&gt;Node6</title>
<path fill="none" stroke="midnightblue" d="M118.187,-285C126.538,-285 135.184,-285 143.685,-285"/>
<polygon fill="midnightblue" stroke="midnightblue" points="143.953,-288.5 153.952,-285 143.952,-281.5 143.953,-288.5"/>
</g>
<!-- Node20 -->
<g id="node20" class="node"><title>Node20</title>
<g id="a_node20"><a xlink:href="../../d2/dc9/group__CIP__API.html#gad5040e0986778fe27769c02a7086fb68" target="_top" xlink:title="Get a pointer to a CIP object with given class code. ">
<polygon fill="none" stroke="black" points="516,-104.5 516,-123.5 589,-123.5 589,-104.5 516,-104.5"/>
<text text-anchor="middle" x="552.5" y="-111.5" font-family="Helvetica,sans-Serif" font-size="10.00">GetCipClass</text>
</a>
</g>
</g>
<!-- Node1&#45;&gt;Node20 -->
<g id="edge42" class="edge"><title>Node1&#45;&gt;Node20</title>
<path fill="none" stroke="midnightblue" d="M71.2111,-275.206C104.232,-247.026 205.091,-165.678 305,-133 372.222,-111.013 455.034,-109.459 505.516,-111.143"/>
<polygon fill="midnightblue" stroke="midnightblue" points="505.65,-114.651 515.78,-111.545 505.925,-107.656 505.65,-114.651"/>
</g>
<!-- Node22 -->
<g id="node22" class="node"><title>Node22</title>
<g id="a_node22"><a xlink:href="../../d2/dc9/group__CIP__API.html#gac207feb53c1f98b45f3934bbea63d618" target="_top" xlink:title="Insert an attribute in an instance of a CIP class. ">
<polygon fill="none" stroke="black" points="513.5,-218.5 513.5,-237.5 591.5,-237.5 591.5,-218.5 513.5,-218.5"/>
<text text-anchor="middle" x="552.5" y="-225.5" font-family="Helvetica,sans-Serif" font-size="10.00">InsertAttribute</text>
</a>
</g>
</g>
<!-- Node1&#45;&gt;Node22 -->
<g id="edge43" class="edge"><title>Node1&#45;&gt;Node22</title>
<path fill="none" stroke="midnightblue" d="M102.417,-275.451C118.507,-272.086 137.037,-268.518 154,-266 279.256,-247.406 428.135,-236 503.159,-230.991"/>
<polygon fill="midnightblue" stroke="midnightblue" points="503.497,-234.477 513.245,-230.327 503.037,-227.492 503.497,-234.477"/>
</g>
<!-- Node3 -->
<g id="node3" class="node"><title>Node3</title>
<g id="a_node3"><a xlink:href="../../d2/dc9/group__CIP__API.html#gaa50395aca91b378c297d6ad919df210e" target="_top" xlink:title="Get a pointer to an instance. ">
<polygon fill="none" stroke="black" points="332,-437.5 332,-456.5 417,-456.5 417,-437.5 332,-437.5"/>
<text text-anchor="middle" x="374.5" y="-444.5" font-family="Helvetica,sans-Serif" font-size="10.00">GetCipInstance</text>
</a>
</g>
</g>
<!-- Node2&#45;&gt;Node3 -->
<g id="edge2" class="edge"><title>Node2&#45;&gt;Node3</title>
<path fill="none" stroke="midnightblue" d="M253.127,-418.589C274.468,-423.626 300.812,-429.844 323.408,-435.177"/>
<polygon fill="midnightblue" stroke="midnightblue" points="322.628,-438.589 333.165,-437.48 324.236,-431.776 322.628,-438.589"/>
</g>
<!-- Node4 -->
<g id="node4" class="node"><title>Node4</title>
<g id="a_node4"><a xlink:href="../../d2/dc9/group__CIP__API.html#ga39dafca98f844a12511af11b1273d0a8" target="_top" xlink:title="Add a number of CIP instances to a given CIP class. ">
<polygon fill="none" stroke="black" points="506.5,-446.5 506.5,-465.5 598.5,-465.5 598.5,-446.5 506.5,-446.5"/>
<text text-anchor="middle" x="552.5" y="-453.5" font-family="Helvetica,sans-Serif" font-size="10.00">AddCipInstances</text>
</a>
</g>
</g>
<!-- Node2&#45;&gt;Node4 -->
<g id="edge3" class="edge"><title>Node2&#45;&gt;Node4</title>
<path fill="none" stroke="midnightblue" d="M254.593,-410.269C301.194,-412.181 378.403,-416.851 444,-428 447.249,-428.552 477.685,-436.5 505.345,-443.787"/>
<polygon fill="midnightblue" stroke="midnightblue" points="504.792,-447.26 515.354,-446.426 506.577,-440.492 504.792,-447.26"/>
</g>
<!-- Node4&#45;&gt;Node5 -->
<g id="edge4" class="edge"><title>Node4&#45;&gt;Node5</title>
<path fill="none" stroke="midnightblue" d="M593.931,-446.468C604.167,-443.725 615.071,-440.513 625,-437 660.065,-424.594 698.888,-406.588 724.374,-394.149"/>
<polygon fill="midnightblue" stroke="midnightblue" points="726.029,-397.236 733.454,-389.678 722.936,-390.956 726.029,-397.236"/>
</g>
<!-- Node7 -->
<g id="node7" class="node"><title>Node7</title>
<g id="a_node7"><a xlink:href="../../d2/d3d/cipcommon_8c.html#addfffa8f875b4f5c22c1257884d2aaba" target="_top" xlink:title="CreateCipClass">
<polygon fill="none" stroke="black" points="331.5,-294.5 331.5,-313.5 417.5,-313.5 417.5,-294.5 331.5,-294.5"/>
<text text-anchor="middle" x="374.5" y="-301.5" font-family="Helvetica,sans-Serif" font-size="10.00">CreateCipClass</text>
</a>
</g>
</g>
<!-- Node6&#45;&gt;Node7 -->
<g id="edge7" class="edge"><title>Node6&#45;&gt;Node7</title>
<path fill="none" stroke="midnightblue" d="M269.263,-291.699C286.206,-293.698 304.691,-295.88 321.326,-297.843"/>
<polygon fill="midnightblue" stroke="midnightblue" points="321.073,-301.337 331.414,-299.033 321.894,-294.385 321.073,-301.337"/>
</g>
<!-- Node12 -->
<g id="node12" class="node"><title>Node12</title>
<g id="a_node12"><a xlink:href="../../d2/d3d/cipcommon_8c.html#ab4a4e141020fc10ead0def343c767413" target="_top" xlink:title="Generic implementation of the GetAttributeSingle CIP service. ">
<polygon fill="none" stroke="black" points="504.5,-180.5 504.5,-199.5 600.5,-199.5 600.5,-180.5 504.5,-180.5"/>
<text text-anchor="middle" x="552.5" y="-187.5" font-family="Helvetica,sans-Serif" font-size="10.00">GetAttributeSingle</text>
</a>
</g>
</g>
<!-- Node6&#45;&gt;Node12 -->
<g id="edge34" class="edge"><title>Node6&#45;&gt;Node12</title>
<path fill="none" stroke="midnightblue" d="M245.395,-275.459C295.815,-260.878 395.275,-232.291 480,-209 488.189,-206.749 496.918,-204.393 505.362,-202.137"/>
<polygon fill="midnightblue" stroke="midnightblue" points="506.331,-205.501 515.094,-199.546 504.53,-198.736 506.331,-205.501"/>
</g>
<!-- Node23 -->
<g id="node23" class="node"><title>Node23</title>
<g id="a_node23"><a xlink:href="../../d2/dc9/group__CIP__API.html#ga35f639b135ec3c3903f49fd65daed307" target="_top" xlink:title="Insert a service in an instance of a CIP object. ">
<polygon fill="none" stroke="black" points="515.5,-408.5 515.5,-427.5 589.5,-427.5 589.5,-408.5 515.5,-408.5"/>
<text text-anchor="middle" x="552.5" y="-415.5" font-family="Helvetica,sans-Serif" font-size="10.00">InsertService</text>
</a>
</g>
</g>
<!-- Node6&#45;&gt;Node23 -->
<g id="edge35" class="edge"><title>Node6&#45;&gt;Node23</title>
<path fill="none" stroke="midnightblue" d="M232.25,-294.578C276.056,-315.563 385.003,-366.324 480,-399 488.119,-401.793 496.872,-404.422 505.376,-406.784"/>
<polygon fill="midnightblue" stroke="midnightblue" points="504.624,-410.206 515.19,-409.426 506.444,-403.446 504.624,-410.206"/>
</g>
<!-- Node25 -->
<g id="node25" class="node"><title>Node25</title>
<g id="a_node25"><a xlink:href="../../df/d2e/cipassembly_8c.html#a9e9a7cd56ff2e1b16c42702d7ad75a54" target="_top" xlink:title="Implementation of the SetAttributeSingle CIP service for Assembly Objects. Currently only supports At...">
<polygon fill="none" stroke="black" points="305,-142.5 305,-161.5 444,-161.5 444,-142.5 305,-142.5"/>
<text text-anchor="middle" x="374.5" y="-149.5" font-family="Helvetica,sans-Serif" font-size="10.00">SetAssemblyAttributeSingle</text>
</a>
</g>
</g>
<!-- Node6&#45;&gt;Node25 -->
<g id="edge36" class="edge"><title>Node6&#45;&gt;Node25</title>
<path fill="none" stroke="midnightblue" d="M224.079,-275.435C251.331,-252.922 319.777,-196.38 353.745,-168.32"/>
<polygon fill="midnightblue" stroke="midnightblue" points="356.111,-170.904 361.592,-161.837 351.653,-165.508 356.111,-170.904"/>
</g>
<!-- Node7&#45;&gt;Node4 -->
<g id="edge8" class="edge"><title>Node7&#45;&gt;Node4</title>
<path fill="none" stroke="midnightblue" d="M382.802,-313.633C405.463,-343.483 473.47,-432.7 480,-437 485.017,-440.303 490.587,-443.034 496.34,-445.29"/>
<polygon fill="midnightblue" stroke="midnightblue" points="495.536,-448.715 506.131,-448.658 497.813,-442.096 495.536,-448.715"/>
</g>
<!-- Node7&#45;&gt;Node5 -->
<g id="edge12" class="edge"><title>Node7&#45;&gt;Node5</title>
<path fill="none" stroke="midnightblue" d="M417.649,-312.497C491.453,-327.375 642.98,-357.922 714.075,-372.254"/>
<polygon fill="midnightblue" stroke="midnightblue" points="713.467,-375.702 723.961,-374.247 714.85,-368.84 713.467,-375.702"/>
</g>
<!-- Node8 -->
<g id="node8" class="node"><title>Node8</title>
<g id="a_node8"><a xlink:href="../../d2/dc9/group__CIP__API.html#ga5ec1d2c432792c39f93c170943964302" target="_top" xlink:title="Allocates Attribute bitmasks. ">
<polygon fill="none" stroke="black" points="493.5,-294.5 493.5,-313.5 611.5,-313.5 611.5,-294.5 493.5,-294.5"/>
<text text-anchor="middle" x="552.5" y="-301.5" font-family="Helvetica,sans-Serif" font-size="10.00">AllocateAttributeMasks</text>
</a>
</g>
</g>
<!-- Node7&#45;&gt;Node8 -->
<g id="edge9" class="edge"><title>Node7&#45;&gt;Node8</title>
<path fill="none" stroke="midnightblue" d="M417.656,-304C437.323,-304 461.227,-304 483.362,-304"/>
<polygon fill="midnightblue" stroke="midnightblue" points="483.386,-307.5 493.386,-304 483.386,-300.5 483.386,-307.5"/>
</g>
<!-- Node10 -->
<g id="node10" class="node"><title>Node10</title>
<g id="a_node10"><a xlink:href="../../d2/d3d/cipcommon_8c.html#a9c9e27dacef3a49543cd2e3868349f5f" target="_top" xlink:title="Generic implementation of the GetAttributeAll CIP service. ">
<polygon fill="none" stroke="black" points="512.5,-256.5 512.5,-275.5 592.5,-275.5 592.5,-256.5 512.5,-256.5"/>
<text text-anchor="middle" x="552.5" y="-263.5" font-family="Helvetica,sans-Serif" font-size="10.00">GetAttributeAll</text>
</a>
</g>
</g>
<!-- Node7&#45;&gt;Node10 -->
<g id="edge13" class="edge"><title>Node7&#45;&gt;Node10</title>
<path fill="none" stroke="midnightblue" d="M417.656,-294.898C443.176,-289.388 475.832,-282.337 502.498,-276.58"/>
<polygon fill="midnightblue" stroke="midnightblue" points="503.362,-279.974 512.398,-274.442 501.885,-273.132 503.362,-279.974"/>
</g>
<!-- Node7&#45;&gt;Node12 -->
<g id="edge16" class="edge"><title>Node7&#45;&gt;Node12</title>
<path fill="none" stroke="midnightblue" d="M417.716,-294.852C427.121,-291.355 436.511,-286.559 444,-280 470.616,-256.69 452.503,-231.264 480,-209 484.367,-205.464 489.33,-202.582 494.557,-200.233"/>
<polygon fill="midnightblue" stroke="midnightblue" points="496.088,-203.394 504.18,-196.555 493.589,-196.856 496.088,-203.394"/>
</g>
<!-- Node7&#45;&gt;Node20 -->
<g id="edge27" class="edge"><title>Node7&#45;&gt;Node20</title>
<path fill="none" stroke="midnightblue" d="M381.908,-294.362C397.304,-271.566 438.205,-213.092 480,-171 495.191,-155.701 514.388,-140.592 529.064,-129.778"/>
<polygon fill="midnightblue" stroke="midnightblue" points="531.497,-132.337 537.542,-123.636 527.39,-126.668 531.497,-132.337"/>
</g>
<!-- Node7&#45;&gt;Node22 -->
<g id="edge29" class="edge"><title>Node7&#45;&gt;Node22</title>
<path fill="none" stroke="midnightblue" d="M411.572,-294.403C422.409,-290.73 434.053,-285.955 444,-280 462.623,-268.85 460.961,-257.422 480,-247 487.289,-243.01 495.46,-239.823 503.602,-237.289"/>
<polygon fill="midnightblue" stroke="midnightblue" points="504.783,-240.592 513.458,-234.51 502.884,-233.855 504.783,-240.592"/>
</g>
<!-- Node7&#45;&gt;Node23 -->
<g id="edge31" class="edge"><title>Node7&#45;&gt;Node23</title>
<path fill="none" stroke="midnightblue" d="M403.417,-313.545C416.816,-319.137 432.431,-327.24 444,-338 467.051,-359.439 454.914,-379.981 480,-399 487.441,-404.641 496.423,-408.611 505.469,-411.403"/>
<polygon fill="midnightblue" stroke="midnightblue" points="504.679,-414.815 515.242,-413.995 506.473,-408.048 504.679,-414.815"/>
</g>
<!-- Node24 -->
<g id="node24" class="node"><title>Node24</title>
<g id="a_node24"><a xlink:href="../../d9/d7d/cipmessagerouter_8c.html#ae00f521e394d00fd5fd99271a6983116" target="_top" xlink:title="Register a CIP Class to the message router. ">
<polygon fill="none" stroke="black" points="505.5,-370.5 505.5,-389.5 599.5,-389.5 599.5,-370.5 505.5,-370.5"/>
<text text-anchor="middle" x="552.5" y="-377.5" font-family="Helvetica,sans-Serif" font-size="10.00">RegisterCipClass</text>
</a>
</g>
</g>
<!-- Node7&#45;&gt;Node24 -->
<g id="edge32" class="edge"><title>Node7&#45;&gt;Node24</title>
<path fill="none" stroke="midnightblue" d="M394.7,-313.511C408.436,-320.32 427.363,-329.712 444,-338 460.012,-345.977 463.48,-349.137 480,-356 489.613,-359.994 500.151,-363.821 510.112,-367.201"/>
<polygon fill="midnightblue" stroke="midnightblue" points="509.232,-370.597 519.825,-370.421 511.435,-363.952 509.232,-370.597"/>
</g>
<!-- Node8&#45;&gt;Node5 -->
<g id="edge11" class="edge"><title>Node8&#45;&gt;Node5</title>
<path fill="none" stroke="midnightblue" d="M583.217,-313.507C596.123,-317.757 611.375,-322.941 625,-328 657.987,-340.249 695.192,-355.604 720.859,-366.443"/>
<polygon fill="midnightblue" stroke="midnightblue" points="719.526,-369.679 730.098,-370.36 722.258,-363.234 719.526,-369.679"/>
</g>
<!-- Node9 -->
<g id="node9" class="node"><title>Node9</title>
<g id="a_node9"><a xlink:href="../../d2/dc9/group__CIP__API.html#ga1eb3004bbf086b276500e1d6e7a2f677" target="_top" xlink:title="Calculates Byte&#45;Index of Attribute. ">
<polygon fill="none" stroke="black" points="712.5,-265.5 712.5,-284.5 794.5,-284.5 794.5,-265.5 712.5,-265.5"/>
<text text-anchor="middle" x="753.5" y="-272.5" font-family="Helvetica,sans-Serif" font-size="10.00">CalculateIndex</text>
</a>
</g>
</g>
<!-- Node8&#45;&gt;Node9 -->
<g id="edge10" class="edge"><title>Node8&#45;&gt;Node9</title>
<path fill="none" stroke="midnightblue" d="M611.594,-295.534C640.281,-291.354 674.556,-286.359 702.119,-282.342"/>
<polygon fill="midnightblue" stroke="midnightblue" points="702.938,-285.76 712.329,-280.854 701.928,-278.833 702.938,-285.76"/>
</g>
<!-- Node10&#45;&gt;Node9 -->
<g id="edge14" class="edge"><title>Node10&#45;&gt;Node9</title>
<path fill="none" stroke="midnightblue" d="M592.816,-267.778C624.125,-269.194 668.168,-271.186 702.072,-272.719"/>
<polygon fill="midnightblue" stroke="midnightblue" points="702.095,-276.224 712.242,-273.179 702.411,-269.231 702.095,-276.224"/>
</g>
<!-- Node11 -->
<g id="node11" class="node"><title>Node11</title>
<g id="a_node11"><a xlink:href="../../d2/d3d/cipcommon_8c.html#a1150da559a1729bf2a1ccf1634f17ad2" target="_top" xlink:title="GetCipService">
<polygon fill="none" stroke="black" points="713.5,-303.5 713.5,-322.5 793.5,-322.5 793.5,-303.5 713.5,-303.5"/>
<text text-anchor="middle" x="753.5" y="-310.5" font-family="Helvetica,sans-Serif" font-size="10.00">GetCipService</text>
</a>
</g>
</g>
<!-- Node10&#45;&gt;Node11 -->
<g id="edge15" class="edge"><title>Node10&#45;&gt;Node11</title>
<path fill="none" stroke="midnightblue" d="M589.193,-275.502C614.931,-282.315 647.432,-290.826 661,-294 674.596,-297.18 689.392,-300.369 703.044,-303.202"/>
<polygon fill="midnightblue" stroke="midnightblue" points="702.722,-306.709 713.222,-305.293 704.131,-299.852 702.722,-306.709"/>
</g>
<!-- Node12&#45;&gt;Node9 -->
<g id="edge18" class="edge"><title>Node12&#45;&gt;Node9</title>
<path fill="none" stroke="midnightblue" d="M600.792,-197.847C609.285,-200.539 617.735,-204.152 625,-209 646.887,-223.605 638.72,-242.002 661,-256 673.271,-263.709 688.118,-268.352 702.249,-271.129"/>
<polygon fill="midnightblue" stroke="midnightblue" points="701.922,-274.624 712.366,-272.839 703.089,-267.722 701.922,-274.624"/>
</g>
<!-- Node13 -->
<g id="node13" class="node"><title>Node13</title>
<g id="a_node13"><a xlink:href="../../d5/dc5/group__CIP__CALLBACK__API.html#ga098272a8ae10facf3086c5c82a0080db" target="_top" xlink:title="Inform the application that the data of an assembly object will be sent. ">
<polygon fill="none" stroke="black" points="687.5,-171.5 687.5,-190.5 819.5,-190.5 819.5,-171.5 687.5,-171.5"/>
<text text-anchor="middle" x="753.5" y="-178.5" font-family="Helvetica,sans-Serif" font-size="10.00">BeforeAssemblyDataSend</text>
</a>
</g>
</g>
<!-- Node12&#45;&gt;Node13 -->
<g id="edge17" class="edge"><title>Node12&#45;&gt;Node13</title>
<path fill="none" stroke="midnightblue" d="M600.66,-187.867C623.49,-186.835 651.459,-185.57 677.144,-184.408"/>
<polygon fill="midnightblue" stroke="midnightblue" points="677.403,-187.9 687.234,-183.952 677.087,-180.907 677.403,-187.9"/>
</g>
<!-- Node14 -->
<g id="node14" class="node"><title>Node14</title>
<g id="a_node14"><a xlink:href="../../d2/dc9/group__CIP__API.html#gaece1b7dd2aeec306cb33b86b2ee21980" target="_top" xlink:title="Produce the data according to CIP encoding onto the message buffer. ">
<polygon fill="none" stroke="black" points="718,-209.5 718,-228.5 789,-228.5 789,-209.5 718,-209.5"/>
<text text-anchor="middle" x="753.5" y="-216.5" font-family="Helvetica,sans-Serif" font-size="10.00">EncodeData</text>
</a>
</g>
</g>
<!-- Node12&#45;&gt;Node14 -->
<g id="edge19" class="edge"><title>Node12&#45;&gt;Node14</title>
<path fill="none" stroke="midnightblue" d="M600.66,-196.873C633.122,-201.603 675.974,-207.848 707.875,-212.497"/>
<polygon fill="midnightblue" stroke="midnightblue" points="707.421,-215.968 717.821,-213.946 708.43,-209.041 707.421,-215.968"/>
</g>
<!-- Node19 -->
<g id="node19" class="node"><title>Node19</title>
<g id="a_node19"><a xlink:href="../../d2/dc9/group__CIP__API.html#ga5a14c8d76acacb09312b709bb0a76265" target="_top" xlink:title="Get a pointer to an instance&#39;s attribute. ">
<polygon fill="none" stroke="black" points="711.5,-133.5 711.5,-152.5 795.5,-152.5 795.5,-133.5 711.5,-133.5"/>
<text text-anchor="middle" x="753.5" y="-140.5" font-family="Helvetica,sans-Serif" font-size="10.00">GetCipAttribute</text>
</a>
</g>
</g>
<!-- Node12&#45;&gt;Node19 -->
<g id="edge26" class="edge"><title>Node12&#45;&gt;Node19</title>
<path fill="none" stroke="midnightblue" d="M588.248,-180.478C609.247,-174.841 636.587,-167.71 661,-162 674.092,-158.938 688.297,-155.867 701.522,-153.114"/>
<polygon fill="midnightblue" stroke="midnightblue" points="702.322,-156.523 711.41,-151.076 700.909,-149.667 702.322,-156.523"/>
</g>
<!-- Node14&#45;&gt;Node14 -->
<g id="edge25" class="edge"><title>Node14&#45;&gt;Node14</title>
<path fill="none" stroke="midnightblue" d="M725.757,-228.757C712.26,-237.565 721.508,-247 753.5,-247 775.495,-247 786.739,-242.541 787.233,-236.891"/>
<polygon fill="midnightblue" stroke="midnightblue" points="789.991,-234.734 781.243,-228.757 784.354,-238.885 789.991,-234.734"/>
</g>
<!-- Node15 -->
<g id="node15" class="node"><title>Node15</title>
<g id="a_node15"><a xlink:href="../../d4/d91/group__ENCAP.html#gae267a8684cc6ee1b3bd83df03260b7aa" target="_top" xlink:title="converts UINT8 data from host to little endian an writes it to buffer. ">
<polygon fill="none" stroke="black" points="882.5,-266.5 882.5,-285.5 984.5,-285.5 984.5,-266.5 882.5,-266.5"/>
<text text-anchor="middle" x="933.5" y="-273.5" font-family="Helvetica,sans-Serif" font-size="10.00">AddSintToMessage</text>
</a>
</g>
</g>
<!-- Node14&#45;&gt;Node15 -->
<g id="edge20" class="edge"><title>Node14&#45;&gt;Node15</title>
<path fill="none" stroke="midnightblue" d="M784.293,-228.541C814.071,-238.076 860.031,-252.794 892.871,-263.31"/>
<polygon fill="midnightblue" stroke="midnightblue" points="892.019,-266.712 902.61,-266.428 894.153,-260.045 892.019,-266.712"/>
</g>
<!-- Node16 -->
<g id="node16" class="node"><title>Node16</title>
<g id="a_node16"><a xlink:href="../../d4/d91/group__ENCAP.html#gae689aac2a85bf49fb356ec94c8800799" target="_top" xlink:title="converts UINT16 data from host to little endian an writes it to buffer. ">
<polygon fill="none" stroke="black" points="1021,-209.5 1021,-228.5 1117,-228.5 1117,-209.5 1021,-209.5"/>
<text text-anchor="middle" x="1069" y="-216.5" font-family="Helvetica,sans-Serif" font-size="10.00">AddIntToMessage</text>
</a>
</g>
</g>
<!-- Node14&#45;&gt;Node16 -->
<g id="edge21" class="edge"><title>Node14&#45;&gt;Node16</title>
<path fill="none" stroke="midnightblue" d="M789.248,-219C842.817,-219 946.137,-219 1010.83,-219"/>
<polygon fill="midnightblue" stroke="midnightblue" points="1010.87,-222.5 1020.87,-219 1010.87,-215.5 1010.87,-222.5"/>
</g>
<!-- Node17 -->
<g id="node17" class="node"><title>Node17</title>
<g id="a_node17"><a xlink:href="../../d4/d91/group__ENCAP.html#gaafc3c9e3ff582c9b7e438ae2b1fdf822" target="_top" xlink:title="Converts UINT32 data from host to little endian and writes it to buffer. ">
<polygon fill="none" stroke="black" points="882,-152.5 882,-171.5 985,-171.5 985,-152.5 882,-152.5"/>
<text text-anchor="middle" x="933.5" y="-159.5" font-family="Helvetica,sans-Serif" font-size="10.00">AddDintToMessage</text>
</a>
</g>
</g>
<!-- Node14&#45;&gt;Node17 -->
<g id="edge22" class="edge"><title>Node14&#45;&gt;Node17</title>
<path fill="none" stroke="midnightblue" d="M789.022,-214.188C806.429,-211.174 827.679,-206.588 846,-200 863.025,-193.878 865.501,-188.422 882,-181 886.413,-179.015 891.101,-177.057 895.774,-175.197"/>
<polygon fill="midnightblue" stroke="midnightblue" points="897.182,-178.405 905.25,-171.537 894.661,-171.875 897.182,-178.405"/>
</g>
<!-- Node18 -->
<g id="node18" class="node"><title>Node18</title>
<g id="a_node18"><a xlink:href="../../d2/d3d/cipcommon_8c.html#a6eec1752e2cffbbab16bff95fa145bd3" target="_top" xlink:title="EncodeEPath">
<polygon fill="none" stroke="black" points="895,-190.5 895,-209.5 972,-209.5 972,-190.5 895,-190.5"/>
<text text-anchor="middle" x="933.5" y="-197.5" font-family="Helvetica,sans-Serif" font-size="10.00">EncodeEPath</text>
</a>
</g>
</g>
<!-- Node14&#45;&gt;Node18 -->
<g id="edge23" class="edge"><title>Node14&#45;&gt;Node18</title>
<path fill="none" stroke="midnightblue" d="M789.243,-215.292C816.394,-212.393 854.439,-208.332 884.499,-205.124"/>
<polygon fill="midnightblue" stroke="midnightblue" points="885.196,-208.569 894.768,-204.028 884.453,-201.609 885.196,-208.569"/>
</g>
<!-- Node18&#45;&gt;Node16 -->
<g id="edge24" class="edge"><title>Node18&#45;&gt;Node16</title>
<path fill="none" stroke="midnightblue" d="M972.042,-205.343C984.088,-207.057 997.714,-208.997 1010.84,-210.864"/>
<polygon fill="midnightblue" stroke="midnightblue" points="1010.34,-214.329 1020.74,-212.273 1011.33,-207.399 1010.34,-214.329"/>
</g>
<!-- Node21 -->
<g id="node21" class="node"><title>Node21</title>
<g id="a_node21"><a xlink:href="../../d9/d7d/cipmessagerouter_8c.html#a7a9f44f2d6f010b6f6ee922d378d9bb1" target="_top" xlink:title="Get the registered MessageRouter object corresponding to ClassID. given a class ID, return a pointer to the registration node for that object. ">
<polygon fill="none" stroke="black" points="699.5,-95.5 699.5,-114.5 807.5,-114.5 807.5,-95.5 699.5,-95.5"/>
<text text-anchor="middle" x="753.5" y="-102.5" font-family="Helvetica,sans-Serif" font-size="10.00">GetRegisteredObject</text>
</a>
</g>
</g>
<!-- Node20&#45;&gt;Node21 -->
<g id="edge28" class="edge"><title>Node20&#45;&gt;Node21</title>
<path fill="none" stroke="midnightblue" d="M589.077,-112.391C616.838,-111.135 656.11,-109.359 689.199,-107.863"/>
<polygon fill="midnightblue" stroke="midnightblue" points="689.418,-111.357 699.249,-107.408 689.101,-104.364 689.418,-111.357"/>
</g>
<!-- Node22&#45;&gt;Node9 -->
<g id="edge30" class="edge"><title>Node22&#45;&gt;Node9</title>
<path fill="none" stroke="midnightblue" d="M589.193,-237.502C614.931,-244.315 647.432,-252.826 661,-256 674.344,-259.121 688.844,-262.251 702.284,-265.045"/>
<polygon fill="midnightblue" stroke="midnightblue" points="701.819,-268.522 712.319,-267.109 703.229,-261.666 701.819,-268.522"/>
</g>
<!-- Node24&#45;&gt;Node5 -->
<g id="edge33" class="edge"><title>Node24&#45;&gt;Node5</title>
<path fill="none" stroke="midnightblue" d="M599.655,-380C634.259,-380 681.084,-380 713.753,-380"/>
<polygon fill="midnightblue" stroke="midnightblue" points="713.829,-383.5 723.829,-380 713.829,-376.5 713.829,-383.5"/>
</g>
<!-- Node25&#45;&gt;Node19 -->
<g id="edge38" class="edge"><title>Node25&#45;&gt;Node19</title>
<path fill="none" stroke="midnightblue" d="M444.209,-150.36C518.296,-148.591 634.538,-145.816 701.101,-144.227"/>
<polygon fill="midnightblue" stroke="midnightblue" points="701.43,-147.72 711.343,-143.983 701.263,-140.722 701.43,-147.72"/>
</g>
<!-- Node26 -->
<g id="node26" class="node"><title>Node26</title>
<g id="a_node26"><a xlink:href="../../d5/dc5/group__CIP__CALLBACK__API.html#ga5307d18b1bd79f151588391cb4ebf30a" target="_top" xlink:title="Call back function to inform application on received data for an assembly object. ...">
<polygon fill="none" stroke="black" points="481,-66.5 481,-85.5 624,-85.5 624,-66.5 481,-66.5"/>
<text text-anchor="middle" x="552.5" y="-73.5" font-family="Helvetica,sans-Serif" font-size="10.00">AfterAssemblyDataReceived</text>
</a>
</g>
</g>
<!-- Node25&#45;&gt;Node26 -->
<g id="edge37" class="edge"><title>Node25&#45;&gt;Node26</title>
<path fill="none" stroke="midnightblue" d="M390.516,-142.303C410.327,-129.867 446.601,-108.322 480,-95 486.172,-92.5382 492.769,-90.2954 499.368,-88.2837"/>
<polygon fill="midnightblue" stroke="midnightblue" points="500.353,-91.6423 508.988,-85.503 498.409,-84.9177 500.353,-91.6423"/>
</g>
<!-- Node27 -->
<g id="node27" class="node"><title>Node27</title>
<g id="a_node27"><a xlink:href="../../d5/d35/cipconnectionmanager_8c.html#a2ca3eb3dc7fe805b410d849612720b4c" target="_top" xlink:title="IsConnectedOutputAssembly">
<polygon fill="none" stroke="black" points="480,-28.5 480,-47.5 625,-47.5 625,-28.5 480,-28.5"/>
<text text-anchor="middle" x="552.5" y="-35.5" font-family="Helvetica,sans-Serif" font-size="10.00">IsConnectedOutputAssembly</text>
</a>
</g>
</g>
<!-- Node25&#45;&gt;Node27 -->
<g id="edge39" class="edge"><title>Node25&#45;&gt;Node27</title>
<path fill="none" stroke="midnightblue" d="M383.321,-142.284C399.358,-123.02 438.013,-79.8705 480,-57 484.219,-54.7018 488.732,-52.6695 493.362,-50.8746"/>
<polygon fill="midnightblue" stroke="midnightblue" points="494.691,-54.118 502.976,-47.5143 492.381,-47.51 494.691,-54.118"/>
</g>
<!-- Node28 -->
<g id="node28" class="node"><title>Node28</title>
<g id="a_node28"><a xlink:href="../../df/d91/cipconnectionobject_8c.html#a4c3d0e8258e857f80e5b7111519f7daa" target="_top" xlink:title="ConnectionObjectIsTypeIOConnection">
<polygon fill="none" stroke="black" points="661,-0.5 661,-19.5 846,-19.5 846,-0.5 661,-0.5"/>
<text text-anchor="middle" x="753.5" y="-7.5" font-family="Helvetica,sans-Serif" font-size="10.00">ConnectionObjectIsTypeIOConnection</text>
</a>
</g>
</g>
<!-- Node27&#45;&gt;Node28 -->
<g id="edge40" class="edge"><title>Node27&#45;&gt;Node28</title>
<path fill="none" stroke="midnightblue" d="M621.15,-28.4814C638.293,-26.0694 656.845,-23.4589 674.457,-20.981"/>
<polygon fill="midnightblue" stroke="midnightblue" points="675.284,-24.3991 684.699,-19.5398 674.309,-17.4674 675.284,-24.3991"/>
</g>
<!-- Node29 -->
<g id="node29" class="node"><title>Node29</title>
<g id="a_node29"><a xlink:href="../../d9/dab/cip_2CMakeLists_8txt.html#acd2a52c78aafeccf09e8a5e6ddb0ce92" target="_top" xlink:title="if">
<polygon fill="none" stroke="black" points="739,-38.5 739,-57.5 768,-57.5 768,-38.5 739,-38.5"/>
<text text-anchor="middle" x="753.5" y="-45.5" font-family="Helvetica,sans-Serif" font-size="10.00">if</text>
</a>
</g>
</g>
<!-- Node27&#45;&gt;Node29 -->
<g id="edge41" class="edge"><title>Node27&#45;&gt;Node29</title>
<path fill="none" stroke="midnightblue" d="M625.062,-41.5961C661.365,-43.4203 703.066,-45.5159 728.597,-46.7988"/>
<polygon fill="midnightblue" stroke="midnightblue" points="728.636,-50.3051 738.799,-47.3115 728.988,-43.314 728.636,-50.3051"/>
</g>
</g>
</svg>
        <g id="navigator" transform="translate(0 0)" fill="#404254">
                <rect fill="#f2f5e9" fill-opacity="0.5" stroke="#606060" stroke-width=".5" x="0" y="0" width="60" height="60"/>
                <use id="zoomplus" xlink:href="#zoomPlus" x="17" y="9" onmousedown="handleZoom(evt,'in')"/>
                <use id="zoomminus" xlink:href="#zoomMin" x="42" y="9" onmousedown="handleZoom(evt,'out')"/>
                <use id="reset" xlink:href="#resetDef" x="30" y="36" onmousedown="handleReset()"/>
                <g id="arrowUp" xlink:href="#dirArrow" transform="translate(30 24)" onmousedown="handlePan(0,-1)">
                  <use xlink:href="#rim" fill="#404040">
                        <set attributeName="fill" to="#808080" begin="arrowUp.mouseover" end="arrowUp.mouseout"/>
                  </use>
                  <path fill="none" stroke="white" stroke-width="1.5" d="M0,-3.0v7 M-2.5,-0.5L0,-3.0L2.5,-0.5"/>
                </g>
                <g id="arrowRight" xlink:href="#dirArrow" transform="rotate(90) translate(36 -43)" onmousedown="handlePan(1,0)">
                  <use xlink:href="#rim" fill="#404040">
                        <set attributeName="fill" to="#808080" begin="arrowRight.mouseover" end="arrowRight.mouseout"/>
                  </use>
                  <path fill="none" stroke="white" stroke-width="1.5" d="M0,-3.0v7 M-2.5,-0.5L0,-3.0L2.5,-0.5"/>
                </g>
                <g id="arrowDown" xlink:href="#dirArrow" transform="rotate(180) translate(-30 -48)" onmousedown="handlePan(0,1)">
                  <use xlink:href="#rim" fill="#404040">
                        <set attributeName="fill" to="#808080" begin="arrowDown.mouseover" end="arrowDown.mouseout"/>
                  </use>
                  <path fill="none" stroke="white" stroke-width="1.5" d="M0,-3.0v7 M-2.5,-0.5L0,-3.0L2.5,-0.5"/>
                </g>
                <g id="arrowLeft" xlink:href="#dirArrow" transform="rotate(270) translate(-36 17)" onmousedown="handlePan(-1,0)">
                  <use xlink:href="#rim" fill="#404040">
                        <set attributeName="fill" to="#808080" begin="arrowLeft.mouseover" end="arrowLeft.mouseout"/>
                  </use>
                  <path fill="none" stroke="white" stroke-width="1.5" d="M0,-3.0v7 M-2.5,-0.5L0,-3.0L2.5,-0.5"/>
                </g>
        </g>
        <svg viewBox="0 0 15 15" width="100%" height="30px" preserveAspectRatio="xMaxYMin meet">
         <g id="arrow_out" transform="scale(0.3 0.3)">
          <a xlink:href="group__CIP__API_gae61b613fed863d30428e78b2311bf593_cgraph_org.svg" target="_base">
           <rect id="button" ry="5" rx="5" y="6" x="6" height="38" width="38"
                fill="#f2f5e9" fill-opacity="0.5" stroke="#606060" stroke-width="1.0"/>
           <path id="arrow"
             d="M 11.500037,31.436501 C 11.940474,20.09759 22.043105,11.32322 32.158766,21.979434 L 37.068811,17.246167 C 37.068811,17.246167 37.088388,32 37.088388,32 L 22.160133,31.978069 C 22.160133,31.978069 26.997745,27.140456 26.997745,27.140456 C 18.528582,18.264221 13.291696,25.230495 11.500037,31.436501 z"
             style="fill:#404040;"/>
          </a>
         </g>
        </svg>
</svg>
