<?xml version="1.0" encoding="UTF-8" standalone="no"?>
<!DOCTYPE svg PUBLIC "-//W3C//DTD SVG 1.1//EN"
 "http://www.w3.org/Graphics/SVG/1.1/DTD/svg11.dtd">
<!-- Generated by graphviz version 2.38.0 (20140413.2041)
 -->
<!-- Title: EncodeData Pages: 1 -->
<svg width="1221pt" height="332pt"
 viewBox="0.00 0.00 1221.00 332.00" xmlns="http://www.w3.org/2000/svg" xmlns:xlink="http://www.w3.org/1999/xlink">
<g id="graph0" class="graph" transform="scale(1 1) rotate(0) translate(4 328)">
<title>EncodeData</title>
<!-- Node1 -->
<g id="node1" class="node"><title>Node1</title>
<polygon fill="#bfbfbf" stroke="black" points="0,-209.5 0,-228.5 71,-228.5 71,-209.5 0,-209.5"/>
<text text-anchor="middle" x="35.5" y="-216.5" font-family="Helvetica,sans-Serif" font-size="10.00">EncodeData</text>
</g>
<!-- Node1&#45;&gt;Node1 -->
<g id="edge1" class="edge"><title>Node1&#45;&gt;Node1</title>
<path fill="none" stroke="midnightblue" d="M7.50086,-237.654C8.67122,-242.937 18.0043,-247 35.5,-247 62.1602,-247 69.8666,-237.565 58.6194,-228.757"/>
<polygon fill="midnightblue" stroke="midnightblue" points="10.6403,-239.208 12.3806,-228.757 4.5029,-235.842 10.6403,-239.208"/>
</g>
<!-- Node2 -->
<g id="node2" class="node"><title>Node2</title>
<g id="a_node2"><a xlink:href="../../dd/d4d/cipethernetlink_8h.html#a5b19ab196dbce19ecc33cc387cfdcdd4" target="_top" xlink:title="EncodeInterfaceCapability">
<polygon fill="none" stroke="black" points="121,-228.5 121,-247.5 252,-247.5 252,-228.5 121,-228.5"/>
<text text-anchor="middle" x="186.5" y="-235.5" font-family="Helvetica,sans-Serif" font-size="10.00">EncodeInterfaceCapability</text>
</a>
</g>
</g>
<!-- Node1&#45;&gt;Node2 -->
<g id="edge2" class="edge"><title>Node1&#45;&gt;Node2</title>
<path fill="none" stroke="midnightblue" d="M81.212,-224.702C93.7222,-226.297 107.574,-228.063 120.986,-229.773"/>
<polygon fill="midnightblue" stroke="midnightblue" points="81.4205,-221.2 71.0581,-223.407 80.535,-228.144 81.4205,-221.2"/>
</g>
<!-- Node9 -->
<g id="node9" class="node"><title>Node9</title>
<g id="a_node9"><a xlink:href="../../dd/d4d/cipethernetlink_8h.html#afd1fc559145db95d7dfd4992ff38edd5" target="_top" xlink:title="EncodeInterfaceControl">
<polygon fill="none" stroke="black" points="127,-190.5 127,-209.5 246,-209.5 246,-190.5 127,-190.5"/>
<text text-anchor="middle" x="186.5" y="-197.5" font-family="Helvetica,sans-Serif" font-size="10.00">EncodeInterfaceControl</text>
</a>
</g>
</g>
<!-- Node1&#45;&gt;Node9 -->
<g id="edge9" class="edge"><title>Node1&#45;&gt;Node9</title>
<path fill="none" stroke="midnightblue" d="M81.1708,-213.304C95.5425,-211.471 111.688,-209.412 126.905,-207.472"/>
<polygon fill="midnightblue" stroke="midnightblue" points="80.535,-209.856 71.0581,-214.593 81.4205,-216.8 80.535,-209.856"/>
</g>
<!-- Node10 -->
<g id="node10" class="node"><title>Node10</title>
<g id="a_node10"><a xlink:href="../../dd/d4d/cipethernetlink_8h.html#a841bea27e0f777e8b8beaa35fbaa80c7" target="_top" xlink:title="EncodeInterfaceCounters">
<polygon fill="none" stroke="black" points="122.5,-152.5 122.5,-171.5 250.5,-171.5 250.5,-152.5 122.5,-152.5"/>
<text text-anchor="middle" x="186.5" y="-159.5" font-family="Helvetica,sans-Serif" font-size="10.00">EncodeInterfaceCounters</text>
</a>
</g>
</g>
<!-- Node1&#45;&gt;Node10 -->
<g id="edge11" class="edge"><title>Node1&#45;&gt;Node10</title>
<path fill="none" stroke="midnightblue" d="M60.5855,-204.016C73.8778,-196.266 90.9102,-187.165 107,-181 116.689,-177.287 127.336,-174.133 137.578,-171.526"/>
<polygon fill="midnightblue" stroke="midnightblue" points="58.4274,-201.228 51.6347,-209.358 62.0152,-207.238 58.4274,-201.228"/>
</g>
<!-- Node11 -->
<g id="node11" class="node"><title>Node11</title>
<g id="a_node11"><a xlink:href="../../dd/d4d/cipethernetlink_8h.html#ad7df5a954d504d818bf33ef2f2ae909d" target="_top" xlink:title="EncodeMediaCounters">
<polygon fill="none" stroke="black" points="128.5,-266.5 128.5,-285.5 244.5,-285.5 244.5,-266.5 128.5,-266.5"/>
<text text-anchor="middle" x="186.5" y="-273.5" font-family="Helvetica,sans-Serif" font-size="10.00">EncodeMediaCounters</text>
</a>
</g>
</g>
<!-- Node1&#45;&gt;Node11 -->
<g id="edge13" class="edge"><title>Node1&#45;&gt;Node11</title>
<path fill="none" stroke="midnightblue" d="M60.5855,-233.984C73.8778,-241.734 90.9102,-250.835 107,-257 116.689,-260.713 127.336,-263.867 137.578,-266.474"/>
<polygon fill="midnightblue" stroke="midnightblue" points="62.0152,-230.762 51.6347,-228.642 58.4274,-236.772 62.0152,-230.762"/>
</g>
<!-- Node12 -->
<g id="node12" class="node"><title>Node12</title>
<g id="a_node12"><a xlink:href="../../db/d14/cipcommon_8h.html#a4d2d00f2e1252b192ef73aa388898e7d" target="_top" xlink:title="Generic implementation of the GetAttributeSingle CIP service. ">
<polygon fill="none" stroke="black" points="138.5,-114.5 138.5,-133.5 234.5,-133.5 234.5,-114.5 138.5,-114.5"/>
<text text-anchor="middle" x="186.5" y="-121.5" font-family="Helvetica,sans-Serif" font-size="10.00">GetAttributeSingle</text>
</a>
</g>
</g>
<!-- Node1&#45;&gt;Node12 -->
<g id="edge15" class="edge"><title>Node1&#45;&gt;Node12</title>
<path fill="none" stroke="midnightblue" d="M48.3044,-201.127C60.8043,-183.64 82.1433,-157.571 107,-143 116.436,-137.469 127.409,-133.545 138.107,-130.761"/>
<polygon fill="midnightblue" stroke="midnightblue" points="45.4051,-199.166 42.6016,-209.384 51.1647,-203.145 45.4051,-199.166"/>
</g>
<!-- Node24 -->
<g id="node24" class="node"><title>Node24</title>
<g id="a_node24"><a xlink:href="../../dd/d20/ciptcpipinterface_8c.html#abe1c177c3c79ea065834ce8b9679d78d" target="_top" xlink:title="GetAttributeSingleTcpIpInterface">
<polygon fill="none" stroke="black" points="107,-304.5 107,-323.5 266,-323.5 266,-304.5 107,-304.5"/>
<text text-anchor="middle" x="186.5" y="-311.5" font-family="Helvetica,sans-Serif" font-size="10.00">GetAttributeSingleTcpIpInterface</text>
</a>
</g>
</g>
<!-- Node1&#45;&gt;Node24 -->
<g id="edge40" class="edge"><title>Node1&#45;&gt;Node24</title>
<path fill="none" stroke="midnightblue" d="M48.3044,-236.873C60.8043,-254.36 82.1433,-280.429 107,-295 113.653,-298.9 121.071,-302.001 128.618,-304.467"/>
<polygon fill="midnightblue" stroke="midnightblue" points="51.1647,-234.855 42.6016,-228.616 45.4051,-238.834 51.1647,-234.855"/>
</g>
<!-- Node3 -->
<g id="node3" class="node"><title>Node3</title>
<g id="a_node3"><a xlink:href="../../dd/d4d/cipethernetlink_8h.html#ab32c3ac78db693933538f44ed0b1fb42" target="_top" xlink:title="GetAttributeSingleEthernetLink">
<polygon fill="none" stroke="black" points="302,-228.5 302,-247.5 453,-247.5 453,-228.5 302,-228.5"/>
<text text-anchor="middle" x="377.5" y="-235.5" font-family="Helvetica,sans-Serif" font-size="10.00">GetAttributeSingleEthernetLink</text>
</a>
</g>
</g>
<!-- Node2&#45;&gt;Node3 -->
<g id="edge3" class="edge"><title>Node2&#45;&gt;Node3</title>
<path fill="none" stroke="midnightblue" d="M262.317,-238C275.327,-238 288.858,-238 301.864,-238"/>
<polygon fill="midnightblue" stroke="midnightblue" points="262.014,-234.5 252.014,-238 262.014,-241.5 262.014,-234.5"/>
</g>
<!-- Node4 -->
<g id="node4" class="node"><title>Node4</title>
<g id="a_node4"><a xlink:href="../../dd/d4d/cipethernetlink_8h.html#ad6d2028b90ec96ad148d092a30acb7d6" target="_top" xlink:title="Initialize the Ethernet Link Objects data. ">
<polygon fill="none" stroke="black" points="497.5,-228.5 497.5,-247.5 597.5,-247.5 597.5,-228.5 497.5,-228.5"/>
<text text-anchor="middle" x="547.5" y="-235.5" font-family="Helvetica,sans-Serif" font-size="10.00">CipEthernetLinkInit</text>
</a>
</g>
</g>
<!-- Node3&#45;&gt;Node4 -->
<g id="edge4" class="edge"><title>Node3&#45;&gt;Node4</title>
<path fill="none" stroke="midnightblue" d="M463.33,-238C474.916,-238 486.481,-238 497.143,-238"/>
<polygon fill="midnightblue" stroke="midnightblue" points="463.166,-234.5 453.166,-238 463.166,-241.5 463.166,-234.5"/>
</g>
<!-- Node5 -->
<g id="node5" class="node"><title>Node5</title>
<g id="a_node5"><a xlink:href="../../d2/dc9/group__CIP__API.html#ga5d4979945d124e28668b264c3823db1c" target="_top" xlink:title="Initialize and setup the CIP&#45;stack. ">
<polygon fill="none" stroke="black" points="818.5,-152.5 818.5,-171.5 889.5,-171.5 889.5,-152.5 818.5,-152.5"/>
<text text-anchor="middle" x="854" y="-159.5" font-family="Helvetica,sans-Serif" font-size="10.00">CipStackInit</text>
</a>
</g>
</g>
<!-- Node4&#45;&gt;Node5 -->
<g id="edge5" class="edge"><title>Node4&#45;&gt;Node5</title>
<path fill="none" stroke="midnightblue" d="M607.681,-228.769C650.411,-221.494 709.276,-210.217 760,-196 784.333,-189.18 811.386,-178.982 830.011,-171.533"/>
<polygon fill="midnightblue" stroke="midnightblue" points="607.01,-225.332 597.728,-230.44 608.17,-232.235 607.01,-225.332"/>
</g>
<!-- Node6 -->
<g id="node6" class="node"><title>Node6</title>
<g id="a_node6"><a xlink:href="../../d5/dcb/MINGW_2main_8c.html#ad338a7dbc41dc40bcecd0479377ef207" target="_top" xlink:title="main">
<polygon fill="none" stroke="black" points="948,-152.5 948,-171.5 986,-171.5 986,-152.5 948,-152.5"/>
<text text-anchor="middle" x="967" y="-159.5" font-family="Helvetica,sans-Serif" font-size="10.00">main</text>
</a>
</g>
</g>
<!-- Node5&#45;&gt;Node6 -->
<g id="edge6" class="edge"><title>Node5&#45;&gt;Node6</title>
<path fill="none" stroke="midnightblue" d="M899.783,-162C916.658,-162 934.907,-162 947.965,-162"/>
<polygon fill="midnightblue" stroke="midnightblue" points="899.513,-158.5 889.513,-162 899.513,-165.5 899.513,-158.5"/>
</g>
<!-- Node7 -->
<g id="node7" class="node"><title>Node7</title>
<g id="a_node7"><a xlink:href="../../d8/d03/ports_2MINGW_2CMakeLists_8txt.html#a7e00df43a20d627a1732be7766d91097" target="_top" xlink:title="add_library">
<polygon fill="none" stroke="black" points="1022,-152.5 1022,-171.5 1086,-171.5 1086,-152.5 1022,-152.5"/>
<text text-anchor="middle" x="1054" y="-159.5" font-family="Helvetica,sans-Serif" font-size="10.00">add_library</text>
</a>
</g>
</g>
<!-- Node6&#45;&gt;Node7 -->
<g id="edge7" class="edge"><title>Node6&#45;&gt;Node7</title>
<path fill="none" stroke="midnightblue" d="M996.267,-162C1004.5,-162 1013.55,-162 1021.94,-162"/>
<polygon fill="midnightblue" stroke="midnightblue" points="996.026,-158.5 986.026,-162 996.026,-165.5 996.026,-158.5"/>
</g>
<!-- Node8 -->
<g id="node8" class="node"><title>Node8</title>
<g id="a_node8"><a xlink:href="../../d8/dce/ports_2CMakeLists_8txt.html#a598fae457555a5fb26e18d4cd8f89de9" target="_top" xlink:title="add_subdirectory">
<polygon fill="none" stroke="black" points="1122,-152.5 1122,-171.5 1213,-171.5 1213,-152.5 1122,-152.5"/>
<text text-anchor="middle" x="1167.5" y="-159.5" font-family="Helvetica,sans-Serif" font-size="10.00">add_subdirectory</text>
</a>
</g>
</g>
<!-- Node7&#45;&gt;Node8 -->
<g id="edge8" class="edge"><title>Node7&#45;&gt;Node8</title>
<path fill="none" stroke="midnightblue" d="M1096.3,-162C1104.63,-162 1113.42,-162 1121.86,-162"/>
<polygon fill="midnightblue" stroke="midnightblue" points="1096.06,-158.5 1086.06,-162 1096.06,-165.5 1096.06,-158.5"/>
</g>
<!-- Node9&#45;&gt;Node3 -->
<g id="edge10" class="edge"><title>Node9&#45;&gt;Node3</title>
<path fill="none" stroke="midnightblue" d="M245.242,-211.61C272.122,-217.014 303.703,-223.364 329.15,-228.48"/>
<polygon fill="midnightblue" stroke="midnightblue" points="245.686,-208.129 235.193,-209.589 244.307,-214.992 245.686,-208.129"/>
</g>
<!-- Node10&#45;&gt;Node3 -->
<g id="edge12" class="edge"><title>Node10&#45;&gt;Node3</title>
<path fill="none" stroke="midnightblue" d="M251.929,-174.725C256.804,-176.549 261.551,-178.629 266,-181 285.154,-191.209 283.238,-203.087 302,-214 312.454,-220.08 324.644,-224.834 336.099,-228.448"/>
<polygon fill="midnightblue" stroke="midnightblue" points="253.037,-171.405 242.443,-171.524 250.8,-178.038 253.037,-171.405"/>
</g>
<!-- Node11&#45;&gt;Node3 -->
<g id="edge14" class="edge"><title>Node11&#45;&gt;Node3</title>
<path fill="none" stroke="midnightblue" d="M245.242,-264.39C272.122,-258.986 303.703,-252.636 329.15,-247.52"/>
<polygon fill="midnightblue" stroke="midnightblue" points="244.307,-261.008 235.193,-266.411 245.686,-267.871 244.307,-261.008"/>
</g>
<!-- Node12&#45;&gt;Node3 -->
<g id="edge37" class="edge"><title>Node12&#45;&gt;Node3</title>
<path fill="none" stroke="midnightblue" d="M244.173,-131.416C252.029,-134.179 259.59,-137.927 266,-143 293.743,-164.957 275.091,-191.03 302,-214 309.441,-220.352 318.59,-225.03 327.897,-228.472"/>
<polygon fill="midnightblue" stroke="midnightblue" points="245.086,-128.036 234.502,-128.511 243.072,-134.74 245.086,-128.036"/>
</g>
<!-- Node13 -->
<g id="node13" class="node"><title>Node13</title>
<g id="a_node13"><a xlink:href="../../dc/d72/cipidentity_8h.html#a5d5136e167300543aa046057b56ae813" target="_top" xlink:title="CIP Identity object constructor. ">
<polygon fill="none" stroke="black" points="509,-190.5 509,-209.5 586,-209.5 586,-190.5 509,-190.5"/>
<text text-anchor="middle" x="547.5" y="-197.5" font-family="Helvetica,sans-Serif" font-size="10.00">CipIdentityInit</text>
</a>
</g>
</g>
<!-- Node12&#45;&gt;Node13 -->
<g id="edge16" class="edge"><title>Node12&#45;&gt;Node13</title>
<path fill="none" stroke="midnightblue" d="M244.555,-135.884C251.866,-137.966 259.175,-140.335 266,-143 283.05,-149.658 284.676,-157.092 302,-163 372.499,-187.041 459.744,-195.49 508.654,-198.439"/>
<polygon fill="midnightblue" stroke="midnightblue" points="245.195,-132.432 234.629,-133.221 243.381,-139.193 245.195,-132.432"/>
</g>
<!-- Node14 -->
<g id="node14" class="node"><title>Node14</title>
<g id="a_node14"><a xlink:href="../../d2/d75/cipmessagerouter_8h.html#aa3456b75c1b2289296323b578fee2d3d" target="_top" xlink:title="Initialize the data structures of the message router. ">
<polygon fill="none" stroke="black" points="490.5,-152.5 490.5,-171.5 604.5,-171.5 604.5,-152.5 490.5,-152.5"/>
<text text-anchor="middle" x="547.5" y="-159.5" font-family="Helvetica,sans-Serif" font-size="10.00">CipMessageRouterInit</text>
</a>
</g>
</g>
<!-- Node12&#45;&gt;Node14 -->
<g id="edge18" class="edge"><title>Node12&#45;&gt;Node14</title>
<path fill="none" stroke="midnightblue" d="M244.636,-134.483C262.914,-137.568 283.266,-140.722 302,-143 366.242,-150.811 440.393,-156.045 490.037,-159.008"/>
<polygon fill="midnightblue" stroke="midnightblue" points="245.166,-131.023 234.719,-132.783 243.983,-137.923 245.166,-131.023"/>
</g>
<!-- Node15 -->
<g id="node15" class="node"><title>Node15</title>
<g id="a_node15"><a xlink:href="../../d2/da3/cipconnectionmanager_8h.html#a5ab0de6894d23e8fe84a6b46797c2212" target="_top" xlink:title="Initialize the data of the connection manager object. ">
<polygon fill="none" stroke="black" points="489,-114.5 489,-133.5 606,-133.5 606,-114.5 489,-114.5"/>
<text text-anchor="middle" x="547.5" y="-121.5" font-family="Helvetica,sans-Serif" font-size="10.00">ConnectionManagerInit</text>
</a>
</g>
</g>
<!-- Node12&#45;&gt;Node15 -->
<g id="edge20" class="edge"><title>Node12&#45;&gt;Node15</title>
<path fill="none" stroke="midnightblue" d="M244.053,-112.723C262.453,-109.562 283.022,-106.564 302,-105 368.884,-99.4883 386.226,-98.2841 453,-105 471.459,-106.857 491.663,-110.725 508.552,-114.49"/>
<polygon fill="midnightblue" stroke="midnightblue" points="243.316,-109.299 234.079,-114.487 244.535,-116.192 243.316,-109.299"/>
</g>
<!-- Node16 -->
<g id="node16" class="node"><title>Node16</title>
<g id="a_node16"><a xlink:href="../../df/d2e/cipassembly_8c.html#a5973ef42110a1bdf6c7699e35e04b7d4" target="_top" xlink:title="Constructor for the assembly object class. ">
<polygon fill="none" stroke="black" points="490,-57.5 490,-76.5 605,-76.5 605,-57.5 490,-57.5"/>
<text text-anchor="middle" x="547.5" y="-64.5" font-family="Helvetica,sans-Serif" font-size="10.00">CreateAssemblyClass</text>
</a>
</g>
</g>
<!-- Node12&#45;&gt;Node16 -->
<g id="edge22" class="edge"><title>Node12&#45;&gt;Node16</title>
<path fill="none" stroke="midnightblue" d="M231.522,-111.905C252.701,-106.428 278.531,-100.245 302,-96 365.936,-84.4353 440.143,-76.38 489.885,-71.7438"/>
<polygon fill="midnightblue" stroke="midnightblue" points="230.624,-108.522 221.838,-114.443 232.399,-115.293 230.624,-108.522"/>
</g>
<!-- Node20 -->
<g id="node20" class="node"><title>Node20</title>
<g id="a_node20"><a xlink:href="../../d2/d3d/cipcommon_8c.html#a3dfa07bc40e59ba348d713272d1cbfdb" target="_top" xlink:title="CreateCipClass">
<polygon fill="none" stroke="black" points="334.5,-114.5 334.5,-133.5 420.5,-133.5 420.5,-114.5 334.5,-114.5"/>
<text text-anchor="middle" x="377.5" y="-121.5" font-family="Helvetica,sans-Serif" font-size="10.00">CreateCipClass</text>
</a>
</g>
</g>
<!-- Node12&#45;&gt;Node20 -->
<g id="edge27" class="edge"><title>Node12&#45;&gt;Node20</title>
<path fill="none" stroke="midnightblue" d="M245.046,-124C273.849,-124 308.088,-124 334.401,-124"/>
<polygon fill="midnightblue" stroke="midnightblue" points="244.705,-120.5 234.705,-124 244.705,-127.5 244.705,-120.5"/>
</g>
<!-- Node23 -->
<g id="node23" class="node"><title>Node23</title>
<g id="a_node23"><a xlink:href="../../dd/d34/cipqos_8c.html#aa40ff7ab77fbd2634d671fb0a64d7f76" target="_top" xlink:title="GetAttributeSingleQoS">
<polygon fill="none" stroke="black" points="319.5,-0.5 319.5,-19.5 435.5,-19.5 435.5,-0.5 319.5,-0.5"/>
<text text-anchor="middle" x="377.5" y="-7.5" font-family="Helvetica,sans-Serif" font-size="10.00">GetAttributeSingleQoS</text>
</a>
</g>
</g>
<!-- Node12&#45;&gt;Node23 -->
<g id="edge38" class="edge"><title>Node12&#45;&gt;Node23</title>
<path fill="none" stroke="midnightblue" d="M204.311,-107.586C225.503,-87.6944 263.799,-54.3225 302,-34 313.157,-28.0647 326.04,-23.2744 337.922,-19.5805"/>
<polygon fill="midnightblue" stroke="midnightblue" points="201.887,-105.062 197.063,-114.495 206.716,-110.129 201.887,-105.062"/>
</g>
<!-- Node13&#45;&gt;Node5 -->
<g id="edge17" class="edge"><title>Node13&#45;&gt;Node5</title>
<path fill="none" stroke="midnightblue" d="M596.53,-195.054C639.437,-190.515 703.985,-183.392 760,-176 779.263,-173.458 800.713,-170.254 818.154,-167.553"/>
<polygon fill="midnightblue" stroke="midnightblue" points="595.953,-191.595 586.375,-196.122 596.686,-198.557 595.953,-191.595"/>
</g>
<!-- Node14&#45;&gt;Node5 -->
<g id="edge19" class="edge"><title>Node14&#45;&gt;Node5</title>
<path fill="none" stroke="midnightblue" d="M614.893,-162C677.578,-162 769.109,-162 818.433,-162"/>
<polygon fill="midnightblue" stroke="midnightblue" points="614.705,-158.5 604.705,-162 614.705,-165.5 614.705,-158.5"/>
</g>
<!-- Node15&#45;&gt;Node5 -->
<g id="edge21" class="edge"><title>Node15&#45;&gt;Node5</title>
<path fill="none" stroke="midnightblue" d="M616.317,-132.463C678.92,-140.276 769.377,-151.564 818.349,-157.676"/>
<polygon fill="midnightblue" stroke="midnightblue" points="616.489,-128.958 606.132,-131.192 615.622,-135.904 616.489,-128.958"/>
</g>
<!-- Node17 -->
<g id="node17" class="node"><title>Node17</title>
<g id="a_node17"><a xlink:href="../../de/df4/cipassembly_8h.html#a4dfbc2c7a8e9e77f05a0a7236210f5b4" target="_top" xlink:title="Setup the Assembly object. ">
<polygon fill="none" stroke="black" points="645.5,-76.5 645.5,-95.5 756.5,-95.5 756.5,-76.5 645.5,-76.5"/>
<text text-anchor="middle" x="701" y="-83.5" font-family="Helvetica,sans-Serif" font-size="10.00">CipAssemblyInitialize</text>
</a>
</g>
</g>
<!-- Node16&#45;&gt;Node17 -->
<g id="edge23" class="edge"><title>Node16&#45;&gt;Node17</title>
<path fill="none" stroke="midnightblue" d="M615.292,-75.3766C625.338,-76.6364 635.597,-77.923 645.349,-79.146"/>
<polygon fill="midnightblue" stroke="midnightblue" points="615.702,-71.9006 605.344,-74.129 614.831,-78.8462 615.702,-71.9006"/>
</g>
<!-- Node18 -->
<g id="node18" class="node"><title>Node18</title>
<g id="a_node18"><a xlink:href="../../d2/dc9/group__CIP__API.html#gae61b613fed863d30428e78b2311bf593" target="_top" xlink:title="Create an instance of an assembly object. ">
<polygon fill="none" stroke="black" points="642,-38.5 642,-57.5 760,-57.5 760,-38.5 642,-38.5"/>
<text text-anchor="middle" x="701" y="-45.5" font-family="Helvetica,sans-Serif" font-size="10.00">CreateAssemblyObject</text>
</a>
</g>
</g>
<!-- Node16&#45;&gt;Node18 -->
<g id="edge25" class="edge"><title>Node16&#45;&gt;Node18</title>
<path fill="none" stroke="midnightblue" d="M615.534,-58.5932C624.3,-57.4938 633.224,-56.3746 641.827,-55.2956"/>
<polygon fill="midnightblue" stroke="midnightblue" points="614.831,-55.1538 605.344,-59.871 615.702,-62.0994 614.831,-55.1538"/>
</g>
<!-- Node17&#45;&gt;Node5 -->
<g id="edge24" class="edge"><title>Node17&#45;&gt;Node5</title>
<path fill="none" stroke="midnightblue" d="M736.188,-99.3641C744.087,-102.667 752.4,-106.319 760,-110 787.802,-123.467 818.908,-141.493 837.175,-152.398"/>
<polygon fill="midnightblue" stroke="midnightblue" points="737.415,-96.0846 726.835,-95.53 734.76,-102.562 737.415,-96.0846"/>
</g>
<!-- Node19 -->
<g id="node19" class="node"><title>Node19</title>
<g id="a_node19"><a xlink:href="../../d5/dc5/group__CIP__CALLBACK__API.html#gae93106eb1647bff3ad56a7752799d878" target="_top" xlink:title="Callback for the application initialization. ">
<polygon fill="none" stroke="black" points="796,-38.5 796,-57.5 912,-57.5 912,-38.5 796,-38.5"/>
<text text-anchor="middle" x="854" y="-45.5" font-family="Helvetica,sans-Serif" font-size="10.00">ApplicationInitialization</text>
</a>
</g>
</g>
<!-- Node18&#45;&gt;Node19 -->
<g id="edge26" class="edge"><title>Node18&#45;&gt;Node19</title>
<path fill="none" stroke="midnightblue" d="M770.571,-48C778.995,-48 787.536,-48 795.769,-48"/>
<polygon fill="midnightblue" stroke="midnightblue" points="770.381,-44.5001 760.381,-48 770.381,-51.5001 770.381,-44.5001"/>
</g>
<!-- Node20&#45;&gt;Node4 -->
<g id="edge28" class="edge"><title>Node20&#45;&gt;Node4</title>
<path fill="none" stroke="midnightblue" d="M394.408,-141.324C414.576,-162.363 451.283,-197.673 489,-219 495.589,-222.726 503.02,-225.859 510.299,-228.438"/>
<polygon fill="midnightblue" stroke="midnightblue" points="396.692,-138.645 387.287,-133.767 391.597,-143.445 396.692,-138.645"/>
</g>
<!-- Node20&#45;&gt;Node13 -->
<g id="edge29" class="edge"><title>Node20&#45;&gt;Node13</title>
<path fill="none" stroke="midnightblue" d="M403.688,-138.439C425.74,-150.726 458.874,-168.345 489,-181 497.142,-184.42 506.132,-187.642 514.536,-190.426"/>
<polygon fill="midnightblue" stroke="midnightblue" points="405.389,-135.38 394.957,-133.529 401.958,-141.481 405.389,-135.38"/>
</g>
<!-- Node20&#45;&gt;Node14 -->
<g id="edge30" class="edge"><title>Node20&#45;&gt;Node14</title>
<path fill="none" stroke="midnightblue" d="M430.776,-135.824C454.461,-141.182 482.09,-147.431 504.411,-152.48"/>
<polygon fill="midnightblue" stroke="midnightblue" points="431.419,-132.381 420.893,-133.589 429.875,-139.209 431.419,-132.381"/>
</g>
<!-- Node20&#45;&gt;Node15 -->
<g id="edge35" class="edge"><title>Node20&#45;&gt;Node15</title>
<path fill="none" stroke="midnightblue" d="M431.109,-124C449.462,-124 470.151,-124 488.89,-124"/>
<polygon fill="midnightblue" stroke="midnightblue" points="430.894,-120.5 420.893,-124 430.893,-127.5 430.894,-120.5"/>
</g>
<!-- Node20&#45;&gt;Node16 -->
<g id="edge36" class="edge"><title>Node20&#45;&gt;Node16</title>
<path fill="none" stroke="midnightblue" d="M416.202,-111.208C447.144,-100.71 490.272,-86.0772 518.289,-76.5716"/>
<polygon fill="midnightblue" stroke="midnightblue" points="414.965,-107.932 406.619,-114.459 417.214,-114.561 414.965,-107.932"/>
</g>
<!-- Node21 -->
<g id="node21" class="node"><title>Node21</title>
<g id="a_node21"><a xlink:href="../../d0/d3c/cipqos_8h.html#ab9a656060dcf03c3f51dbd967dff3f52" target="_top" xlink:title="CipQoSInit">
<polygon fill="none" stroke="black" points="515,-0.5 515,-19.5 580,-19.5 580,-0.5 515,-0.5"/>
<text text-anchor="middle" x="547.5" y="-7.5" font-family="Helvetica,sans-Serif" font-size="10.00">CipQoSInit</text>
</a>
</g>
</g>
<!-- Node20&#45;&gt;Node21 -->
<g id="edge31" class="edge"><title>Node20&#45;&gt;Node21</title>
<path fill="none" stroke="midnightblue" d="M400.816,-108.473C423.076,-93.0264 458.289,-68.7068 489,-48 503.485,-38.2336 520.15,-27.2473 531.798,-19.6091"/>
<polygon fill="midnightblue" stroke="midnightblue" points="398.615,-105.74 392.398,-114.319 402.608,-111.489 398.615,-105.74"/>
</g>
<!-- Node22 -->
<g id="node22" class="node"><title>Node22</title>
<g id="a_node22"><a xlink:href="../../d1/dad/ciptcpipinterface_8h.html#a4c1f49654e48c5581513d990840933b0" target="_top" xlink:title="Initializing the data structures of the TCP/IP interface object. ">
<polygon fill="none" stroke="black" points="493.5,-266.5 493.5,-285.5 601.5,-285.5 601.5,-266.5 493.5,-266.5"/>
<text text-anchor="middle" x="547.5" y="-273.5" font-family="Helvetica,sans-Serif" font-size="10.00">CipTcpIpInterfaceInit</text>
</a>
</g>
</g>
<!-- Node20&#45;&gt;Node22 -->
<g id="edge33" class="edge"><title>Node20&#45;&gt;Node22</title>
<path fill="none" stroke="midnightblue" d="M392.434,-141.858C419.355,-176.195 476.932,-248.773 489,-257 494.647,-260.849 501.133,-263.969 507.668,-266.481"/>
<polygon fill="midnightblue" stroke="midnightblue" points="394.924,-139.361 386.006,-133.642 389.411,-143.675 394.924,-139.361"/>
</g>
<!-- Node21&#45;&gt;Node5 -->
<g id="edge32" class="edge"><title>Node21&#45;&gt;Node5</title>
<path fill="none" stroke="midnightblue" d="M590.371,-3.87182C635.414,0.579861 707.617,1.34701 760,-29 785.72,-43.9007 832.221,-124.59 847.774,-152.497"/>
<polygon fill="midnightblue" stroke="midnightblue" points="589.922,-0.399965 580.362,-4.96621 590.683,-7.3585 589.922,-0.399965"/>
</g>
<!-- Node22&#45;&gt;Node5 -->
<g id="edge34" class="edge"><title>Node22&#45;&gt;Node5</title>
<path fill="none" stroke="midnightblue" d="M611.819,-265.393C654.789,-256.868 712.249,-242.838 760,-222 791.347,-208.321 824.064,-184.657 841.091,-171.506"/>
<polygon fill="midnightblue" stroke="midnightblue" points="610.929,-262 601.777,-267.338 612.26,-268.873 610.929,-262"/>
</g>
<!-- Node23&#45;&gt;Node21 -->
<g id="edge39" class="edge"><title>Node23&#45;&gt;Node21</title>
<path fill="none" stroke="midnightblue" d="M445.916,-10C469.732,-10 495.401,-10 514.847,-10"/>
<polygon fill="midnightblue" stroke="midnightblue" points="445.846,-6.5001 435.846,-10 445.846,-13.5001 445.846,-6.5001"/>
</g>
<!-- Node24&#45;&gt;Node22 -->
<g id="edge41" class="edge"><title>Node24&#45;&gt;Node22</title>
<path fill="none" stroke="midnightblue" d="M276.334,-310.511C328.052,-307.765 394.409,-303.015 453,-295 470.232,-292.643 489.058,-289.023 505.271,-285.572"/>
<polygon fill="midnightblue" stroke="midnightblue" points="275.999,-307.024 266.192,-311.034 276.359,-314.014 275.999,-307.024"/>
</g>
<!-- Node25 -->
<g id="node25" class="node"><title>Node25</title>
<g id="a_node25"><a xlink:href="../../dd/d20/ciptcpipinterface_8c.html#ac5a74c6d9822446c5b7beeb949c93b11" target="_top" xlink:title="GetAttributeAllTcpIpInterface">
<polygon fill="none" stroke="black" points="306,-266.5 306,-285.5 449,-285.5 449,-266.5 306,-266.5"/>
<text text-anchor="middle" x="377.5" y="-273.5" font-family="Helvetica,sans-Serif" font-size="10.00">GetAttributeAllTcpIpInterface</text>
</a>
</g>
</g>
<!-- Node24&#45;&gt;Node25 -->
<g id="edge42" class="edge"><title>Node24&#45;&gt;Node25</title>
<path fill="none" stroke="midnightblue" d="M245.242,-302.39C272.122,-296.986 303.703,-290.636 329.15,-285.52"/>
<polygon fill="midnightblue" stroke="midnightblue" points="244.307,-299.008 235.193,-304.411 245.686,-305.871 244.307,-299.008"/>
</g>
<!-- Node25&#45;&gt;Node22 -->
<g id="edge43" class="edge"><title>Node25&#45;&gt;Node22</title>
<path fill="none" stroke="midnightblue" d="M459.382,-276C470.947,-276 482.592,-276 493.437,-276"/>
<polygon fill="midnightblue" stroke="midnightblue" points="459.26,-272.5 449.26,-276 459.26,-279.5 459.26,-272.5"/>
</g>
</g>
</svg>
