<?xml version="1.0" encoding="UTF-8" standalone="no"?>
<!DOCTYPE svg PUBLIC "-//W3C//DTD SVG 1.1//EN"
 "http://www.w3.org/Graphics/SVG/1.1/DTD/svg11.dtd">
<!-- Generated by graphviz version 2.38.0 (20140413.2041)
 -->
<!-- Title: GetCipInstance Pages: 1 -->
<svg width="1701pt" height="458pt"
 viewBox="0.00 0.00 1701.00 457.50" xmlns="http://www.w3.org/2000/svg" xmlns:xlink="http://www.w3.org/1999/xlink">
<g id="graph0" class="graph" transform="scale(1 1) rotate(0) translate(4 453.5)">
<title>GetCipInstance</title>
<!-- Node1 -->
<g id="node1" class="node"><title>Node1</title>
<polygon fill="#bfbfbf" stroke="black" points="0,-259 0,-278 85,-278 85,-259 0,-259"/>
<text text-anchor="middle" x="42.5" y="-266" font-family="Helvetica,sans-Serif" font-size="10.00">GetCipInstance</text>
</g>
<!-- Node2 -->
<g id="node2" class="node"><title>Node2</title>
<g id="a_node2"><a xlink:href="../../d2/dc9/group__CIP__API.html#ga180023c8528628f7d83023e4db81287a" target="_top" xlink:title="Create one instance of a given class with a certain instance number. ">
<polygon fill="none" stroke="black" points="147.5,-430 147.5,-449 236.5,-449 236.5,-430 147.5,-430"/>
<text text-anchor="middle" x="192" y="-437" font-family="Helvetica,sans-Serif" font-size="10.00">AddCIPInstance</text>
</a>
</g>
</g>
<!-- Node1&#45;&gt;Node2 -->
<g id="edge1" class="edge"><title>Node1&#45;&gt;Node2</title>
<path fill="none" stroke="midnightblue" d="M48.6952,-288.055C57.9953,-319.369 80.416,-380.761 121,-415.5 128.515,-421.933 137.842,-426.667 147.212,-430.143"/>
<polygon fill="midnightblue" stroke="midnightblue" points="52.0333,-286.997 45.9446,-278.327 45.2974,-288.902 52.0333,-286.997"/>
</g>
<!-- Node5 -->
<g id="node5" class="node"><title>Node5</title>
<g id="a_node5"><a xlink:href="../../dd/d4d/cipethernetlink_8h.html#ad6d2028b90ec96ad148d092a30acb7d6" target="_top" xlink:title="Initialize the Ethernet Link Objects data. ">
<polygon fill="none" stroke="black" points="887,-392 887,-411 987,-411 987,-392 887,-392"/>
<text text-anchor="middle" x="937" y="-399" font-family="Helvetica,sans-Serif" font-size="10.00">CipEthernetLinkInit</text>
</a>
</g>
</g>
<!-- Node1&#45;&gt;Node5 -->
<g id="edge4" class="edge"><title>Node1&#45;&gt;Node5</title>
<path fill="none" stroke="midnightblue" d="M50.9886,-287.497C62.0899,-312.854 85.5007,-356.948 121,-377.5 216.452,-432.761 257.705,-401.5 368,-401.5 368,-401.5 368,-401.5 556.5,-401.5 675.094,-401.5 814.534,-401.5 886.875,-401.5"/>
<polygon fill="midnightblue" stroke="midnightblue" points="54.1862,-286.072 47.1016,-278.194 47.7273,-288.77 54.1862,-286.072"/>
</g>
<!-- Node10 -->
<g id="node10" class="node"><title>Node10</title>
<g id="a_node10"><a xlink:href="../../dc/d72/cipidentity_8h.html#a5d5136e167300543aa046057b56ae813" target="_top" xlink:title="CIP Identity object constructor. ">
<polygon fill="none" stroke="black" points="1077.5,-354 1077.5,-373 1154.5,-373 1154.5,-354 1077.5,-354"/>
<text text-anchor="middle" x="1116" y="-361" font-family="Helvetica,sans-Serif" font-size="10.00">CipIdentityInit</text>
</a>
</g>
</g>
<!-- Node1&#45;&gt;Node10 -->
<g id="edge9" class="edge"><title>Node1&#45;&gt;Node10</title>
<path fill="none" stroke="midnightblue" d="M60.2749,-285.365C74.9699,-299.062 97.5853,-317.664 121,-327.5 223.279,-370.467 257.062,-363.5 368,-363.5 368,-363.5 368,-363.5 748,-363.5 868.422,-363.5 1011.07,-363.5 1077.49,-363.5"/>
<polygon fill="midnightblue" stroke="midnightblue" points="62.6069,-282.752 52.9711,-278.347 57.7569,-287.8 62.6069,-282.752"/>
</g>
<!-- Node11 -->
<g id="node11" class="node"><title>Node11</title>
<g id="a_node11"><a xlink:href="../../d0/d3c/cipqos_8h.html#ab9a656060dcf03c3f51dbd967dff3f52" target="_top" xlink:title="CipQoSInit">
<polygon fill="none" stroke="black" points="714.5,-316 714.5,-335 779.5,-335 779.5,-316 714.5,-316"/>
<text text-anchor="middle" x="747" y="-323" font-family="Helvetica,sans-Serif" font-size="10.00">CipQoSInit</text>
</a>
</g>
</g>
<!-- Node1&#45;&gt;Node11 -->
<g id="edge11" class="edge"><title>Node1&#45;&gt;Node11</title>
<path fill="none" stroke="midnightblue" d="M69.7097,-282.493C84.3616,-289.581 103.207,-297.512 121,-301.5 343.513,-351.367 621.536,-335.571 714.266,-328.284"/>
<polygon fill="midnightblue" stroke="midnightblue" points="71.2495,-279.35 60.7401,-278.007 68.1183,-285.61 71.2495,-279.35"/>
</g>
<!-- Node12 -->
<g id="node12" class="node"><title>Node12</title>
<g id="a_node12"><a xlink:href="../../d1/dad/ciptcpipinterface_8h.html#a4c1f49654e48c5581513d990840933b0" target="_top" xlink:title="Initializing the data structures of the TCP/IP interface object. ">
<polygon fill="none" stroke="black" points="883,-278 883,-297 991,-297 991,-278 883,-278"/>
<text text-anchor="middle" x="937" y="-285" font-family="Helvetica,sans-Serif" font-size="10.00">CipTcpIpInterfaceInit</text>
</a>
</g>
</g>
<!-- Node1&#45;&gt;Node12 -->
<g id="edge13" class="edge"><title>Node1&#45;&gt;Node12</title>
<path fill="none" stroke="midnightblue" d="M95.4376,-273.418C159.467,-279.048 271.643,-287.5 368,-287.5 368,-287.5 368,-287.5 556.5,-287.5 672.952,-287.5 809.506,-287.5 882.891,-287.5"/>
<polygon fill="midnightblue" stroke="midnightblue" points="95.474,-269.908 85.2028,-272.506 94.8526,-276.88 95.474,-269.908"/>
</g>
<!-- Node13 -->
<g id="node13" class="node"><title>Node13</title>
<g id="a_node13"><a xlink:href="../../df/d03/cipioconnection_8c.html#a68b99df85d462657b12a854316c168f5" target="_top" xlink:title="HandleConfigData">
<polygon fill="none" stroke="black" points="143.5,-240 143.5,-259 240.5,-259 240.5,-240 143.5,-240"/>
<text text-anchor="middle" x="192" y="-247" font-family="Helvetica,sans-Serif" font-size="10.00">HandleConfigData</text>
</a>
</g>
</g>
<!-- Node1&#45;&gt;Node13 -->
<g id="edge15" class="edge"><title>Node1&#45;&gt;Node13</title>
<path fill="none" stroke="midnightblue" d="M95.3791,-261.817C110.97,-259.809 127.995,-257.616 143.302,-255.644"/>
<polygon fill="midnightblue" stroke="midnightblue" points="94.8439,-258.357 85.373,-263.106 95.7383,-265.3 94.8439,-258.357"/>
</g>
<!-- Node16 -->
<g id="node16" class="node"><title>Node16</title>
<g id="a_node16"><a xlink:href="../../db/d14/cipcommon_8h.html#ab5a91895ca20dc1bc7ed1a016177c4e3" target="_top" xlink:title="Check if requested service present in class/instance and call appropriate service. ">
<polygon fill="none" stroke="black" points="158,-103 158,-122 226,-122 226,-103 158,-103"/>
<text text-anchor="middle" x="192" y="-110" font-family="Helvetica,sans-Serif" font-size="10.00">NotifyClass</text>
</a>
</g>
</g>
<!-- Node1&#45;&gt;Node16 -->
<g id="edge19" class="edge"><title>Node1&#45;&gt;Node16</title>
<path fill="none" stroke="midnightblue" d="M49.104,-249.147C58.7599,-219.296 81.4088,-162.259 121,-131.5 131.541,-123.311 145.354,-118.646 157.922,-115.99"/>
<polygon fill="midnightblue" stroke="midnightblue" points="45.7247,-248.228 46.1271,-258.815 52.4148,-250.288 45.7247,-248.228"/>
</g>
<!-- Node27 -->
<g id="node27" class="node"><title>Node27</title>
<g id="a_node27"><a xlink:href="../../d5/d35/cipconnectionmanager_8c.html#ad7b34359aea58ef8d4e77008ea53098f" target="_top" xlink:title="Parse the connection path of a forward open request. ">
<polygon fill="none" stroke="black" points="136,-65 136,-84 248,-84 248,-65 136,-65"/>
<text text-anchor="middle" x="192" y="-72" font-family="Helvetica,sans-Serif" font-size="10.00">ParseConnectionPath</text>
</a>
</g>
</g>
<!-- Node1&#45;&gt;Node27 -->
<g id="edge33" class="edge"><title>Node1&#45;&gt;Node27</title>
<path fill="none" stroke="midnightblue" d="M46.6075,-248.549C53.3468,-212.149 72.7736,-134.908 121,-93.5 125.49,-89.6445 130.691,-86.5643 136.191,-84.1046"/>
<polygon fill="midnightblue" stroke="midnightblue" points="43.0842,-248.387 44.8448,-258.835 49.9837,-249.57 43.0842,-248.387"/>
</g>
<!-- Node32 -->
<g id="node32" class="node"><title>Node32</title>
<g id="a_node32"><a xlink:href="../../df/d03/cipioconnection_8c.html#ac00a39ab755db54e4abf917618ff9849" target="_top" xlink:title="SetupIoConnectionOriginator\lToTargetConnectionPoint">
<polygon fill="none" stroke="black" points="121,-190.5 121,-220.5 263,-220.5 263,-190.5 121,-190.5"/>
<text text-anchor="start" x="129" y="-208.5" font-family="Helvetica,sans-Serif" font-size="10.00">SetupIoConnectionOriginator</text>
<text text-anchor="middle" x="192" y="-197.5" font-family="Helvetica,sans-Serif" font-size="10.00">ToTargetConnectionPoint</text>
</a>
</g>
</g>
<!-- Node1&#45;&gt;Node32 -->
<g id="edge41" class="edge"><title>Node1&#45;&gt;Node32</title>
<path fill="none" stroke="midnightblue" d="M70.7526,-254.2C85.4509,-246.728 104.013,-237.671 121,-230.5 129.084,-227.087 137.813,-223.724 146.273,-220.624"/>
<polygon fill="midnightblue" stroke="midnightblue" points="69.003,-251.164 61.707,-258.847 72.2014,-257.391 69.003,-251.164"/>
</g>
<!-- Node33 -->
<g id="node33" class="node"><title>Node33</title>
<g id="a_node33"><a xlink:href="../../df/d03/cipioconnection_8c.html#a4efa3b0cf11b363c8c5f4f8c8070b43f" target="_top" xlink:title="SetupIoConnectionTargetTo\lOriginatorConnectionPoint">
<polygon fill="none" stroke="black" points="122.5,-141.5 122.5,-171.5 261.5,-171.5 261.5,-141.5 122.5,-141.5"/>
<text text-anchor="start" x="130.5" y="-159.5" font-family="Helvetica,sans-Serif" font-size="10.00">SetupIoConnectionTargetTo</text>
<text text-anchor="middle" x="192" y="-148.5" font-family="Helvetica,sans-Serif" font-size="10.00">OriginatorConnectionPoint</text>
</a>
</g>
</g>
<!-- Node1&#45;&gt;Node33 -->
<g id="edge43" class="edge"><title>Node1&#45;&gt;Node33</title>
<path fill="none" stroke="midnightblue" d="M55.1471,-250.395C68.7359,-230.617 92.9525,-199.26 121,-180.5 126.019,-177.143 131.555,-174.21 137.248,-171.658"/>
<polygon fill="midnightblue" stroke="midnightblue" points="52.1609,-248.565 49.5176,-258.825 57.9821,-252.452 52.1609,-248.565"/>
</g>
<!-- Node3 -->
<g id="node3" class="node"><title>Node3</title>
<g id="a_node3"><a xlink:href="../../d2/dc9/group__CIP__API.html#gae61b613fed863d30428e78b2311bf593" target="_top" xlink:title="Create an instance of an assembly object. ">
<polygon fill="none" stroke="black" points="310,-430 310,-449 428,-449 428,-430 310,-430"/>
<text text-anchor="middle" x="369" y="-437" font-family="Helvetica,sans-Serif" font-size="10.00">CreateAssemblyObject</text>
</a>
</g>
</g>
<!-- Node2&#45;&gt;Node3 -->
<g id="edge2" class="edge"><title>Node2&#45;&gt;Node3</title>
<path fill="none" stroke="midnightblue" d="M246.84,-439.5C266.745,-439.5 289.392,-439.5 309.676,-439.5"/>
<polygon fill="midnightblue" stroke="midnightblue" points="246.709,-436 236.708,-439.5 246.708,-443 246.709,-436"/>
</g>
<!-- Node4 -->
<g id="node4" class="node"><title>Node4</title>
<g id="a_node4"><a xlink:href="../../d5/dc5/group__CIP__CALLBACK__API.html#gae93106eb1647bff3ad56a7752799d878" target="_top" xlink:title="Callback for the application initialization. ">
<polygon fill="none" stroke="black" points="497.5,-430 497.5,-449 613.5,-449 613.5,-430 497.5,-430"/>
<text text-anchor="middle" x="555.5" y="-437" font-family="Helvetica,sans-Serif" font-size="10.00">ApplicationInitialization</text>
</a>
</g>
</g>
<!-- Node3&#45;&gt;Node4 -->
<g id="edge3" class="edge"><title>Node3&#45;&gt;Node4</title>
<path fill="none" stroke="midnightblue" d="M438.135,-439.5C457.586,-439.5 478.575,-439.5 497.3,-439.5"/>
<polygon fill="midnightblue" stroke="midnightblue" points="438.124,-436 428.124,-439.5 438.124,-443 438.124,-436"/>
</g>
<!-- Node6 -->
<g id="node6" class="node"><title>Node6</title>
<g id="a_node6"><a xlink:href="../../d2/dc9/group__CIP__API.html#ga5d4979945d124e28668b264c3823db1c" target="_top" xlink:title="Initialize and setup the CIP&#45;stack. ">
<polygon fill="none" stroke="black" points="1253.5,-278 1253.5,-297 1324.5,-297 1324.5,-278 1253.5,-278"/>
<text text-anchor="middle" x="1289" y="-285" font-family="Helvetica,sans-Serif" font-size="10.00">CipStackInit</text>
</a>
</g>
</g>
<!-- Node5&#45;&gt;Node6 -->
<g id="edge5" class="edge"><title>Node5&#45;&gt;Node6</title>
<path fill="none" stroke="midnightblue" d="M997.535,-407.055C1048.09,-409.423 1121.53,-407.213 1180,-382.5 1225.31,-363.347 1264.84,-317.415 1280.66,-297.26"/>
<polygon fill="midnightblue" stroke="midnightblue" points="997.599,-403.553 987.424,-406.506 997.22,-410.543 997.599,-403.553"/>
</g>
<!-- Node7 -->
<g id="node7" class="node"><title>Node7</title>
<g id="a_node7"><a xlink:href="../../d5/dcb/MINGW_2main_8c.html#ad338a7dbc41dc40bcecd0479377ef207" target="_top" xlink:title="main">
<polygon fill="none" stroke="black" points="1413,-259 1413,-278 1451,-278 1451,-259 1413,-259"/>
<text text-anchor="middle" x="1432" y="-266" font-family="Helvetica,sans-Serif" font-size="10.00">main</text>
</a>
</g>
</g>
<!-- Node6&#45;&gt;Node7 -->
<g id="edge6" class="edge"><title>Node6&#45;&gt;Node7</title>
<path fill="none" stroke="midnightblue" d="M1335.03,-281.432C1361.43,-277.875 1393.33,-273.576 1412.89,-270.94"/>
<polygon fill="midnightblue" stroke="midnightblue" points="1334.3,-277.999 1324.85,-282.803 1335.23,-284.936 1334.3,-277.999"/>
</g>
<!-- Node8 -->
<g id="node8" class="node"><title>Node8</title>
<g id="a_node8"><a xlink:href="../../d8/d03/ports_2MINGW_2CMakeLists_8txt.html#a7e00df43a20d627a1732be7766d91097" target="_top" xlink:title="add_library">
<polygon fill="none" stroke="black" points="1502,-259 1502,-278 1566,-278 1566,-259 1502,-259"/>
<text text-anchor="middle" x="1534" y="-266" font-family="Helvetica,sans-Serif" font-size="10.00">add_library</text>
</a>
</g>
</g>
<!-- Node7&#45;&gt;Node8 -->
<g id="edge7" class="edge"><title>Node7&#45;&gt;Node8</title>
<path fill="none" stroke="midnightblue" d="M1461.7,-268.5C1474.24,-268.5 1488.99,-268.5 1501.81,-268.5"/>
<polygon fill="midnightblue" stroke="midnightblue" points="1461.34,-265 1451.34,-268.5 1461.34,-272 1461.34,-265"/>
</g>
<!-- Node9 -->
<g id="node9" class="node"><title>Node9</title>
<g id="a_node9"><a xlink:href="../../d8/dce/ports_2CMakeLists_8txt.html#a598fae457555a5fb26e18d4cd8f89de9" target="_top" xlink:title="add_subdirectory">
<polygon fill="none" stroke="black" points="1602,-259 1602,-278 1693,-278 1693,-259 1602,-259"/>
<text text-anchor="middle" x="1647.5" y="-266" font-family="Helvetica,sans-Serif" font-size="10.00">add_subdirectory</text>
</a>
</g>
</g>
<!-- Node8&#45;&gt;Node9 -->
<g id="edge8" class="edge"><title>Node8&#45;&gt;Node9</title>
<path fill="none" stroke="midnightblue" d="M1576.3,-268.5C1584.63,-268.5 1593.42,-268.5 1601.86,-268.5"/>
<polygon fill="midnightblue" stroke="midnightblue" points="1576.06,-265 1566.06,-268.5 1576.06,-272 1576.06,-265"/>
</g>
<!-- Node10&#45;&gt;Node6 -->
<g id="edge10" class="edge"><title>Node10&#45;&gt;Node6</title>
<path fill="none" stroke="midnightblue" d="M1152.93,-350.413C1161.84,-347.005 1171.32,-343.237 1180,-339.5 1211.92,-325.764 1248.16,-307.82 1269.49,-297.004"/>
<polygon fill="midnightblue" stroke="midnightblue" points="1151.68,-347.145 1143.56,-353.951 1154.15,-353.694 1151.68,-347.145"/>
</g>
<!-- Node11&#45;&gt;Node6 -->
<g id="edge12" class="edge"><title>Node11&#45;&gt;Node6</title>
<path fill="none" stroke="midnightblue" d="M790.049,-324.19C867.375,-321.552 1037.31,-314.695 1180,-301.5 1204.47,-299.237 1231.94,-295.662 1253.05,-292.691"/>
<polygon fill="midnightblue" stroke="midnightblue" points="789.642,-320.701 779.765,-324.534 789.877,-327.697 789.642,-320.701"/>
</g>
<!-- Node12&#45;&gt;Node6 -->
<g id="edge14" class="edge"><title>Node12&#45;&gt;Node6</title>
<path fill="none" stroke="midnightblue" d="M1001.28,-287.5C1075.22,-287.5 1194.9,-287.5 1253.47,-287.5"/>
<polygon fill="midnightblue" stroke="midnightblue" points="1001.16,-284 991.157,-287.5 1001.16,-291 1001.16,-284"/>
</g>
<!-- Node14 -->
<g id="node14" class="node"><title>Node14</title>
<g id="a_node14"><a xlink:href="../../de/d45/cipioconnection_8h.html#a43e270b3f9b9f6296b12285c320c95aa" target="_top" xlink:title="Setup all data in order to establish an IO connection. ">
<polygon fill="none" stroke="black" points="311.5,-202 311.5,-221 426.5,-221 426.5,-202 311.5,-202"/>
<text text-anchor="middle" x="369" y="-209" font-family="Helvetica,sans-Serif" font-size="10.00">EstablishIoConnection</text>
</a>
</g>
</g>
<!-- Node13&#45;&gt;Node14 -->
<g id="edge16" class="edge"><title>Node13&#45;&gt;Node14</title>
<path fill="none" stroke="midnightblue" d="M247.124,-237.747C271.869,-232.374 300.803,-226.091 324.158,-221.02"/>
<polygon fill="midnightblue" stroke="midnightblue" points="246.189,-234.369 237.16,-239.911 247.675,-241.209 246.189,-234.369"/>
</g>
<!-- Node15 -->
<g id="node15" class="node"><title>Node15</title>
<g id="a_node15"><a xlink:href="../../d2/da3/cipconnectionmanager_8h.html#a5ab0de6894d23e8fe84a6b46797c2212" target="_top" xlink:title="Initialize the data of the connection manager object. ">
<polygon fill="none" stroke="black" points="1057.5,-240 1057.5,-259 1174.5,-259 1174.5,-240 1057.5,-240"/>
<text text-anchor="middle" x="1116" y="-247" font-family="Helvetica,sans-Serif" font-size="10.00">ConnectionManagerInit</text>
</a>
</g>
</g>
<!-- Node14&#45;&gt;Node15 -->
<g id="edge17" class="edge"><title>Node14&#45;&gt;Node15</title>
<path fill="none" stroke="midnightblue" d="M436.674,-214.901C581.262,-222.276 921.55,-239.633 1057.46,-246.565"/>
<polygon fill="midnightblue" stroke="midnightblue" points="436.773,-211.401 426.608,-214.387 436.416,-218.392 436.773,-211.401"/>
</g>
<!-- Node15&#45;&gt;Node6 -->
<g id="edge18" class="edge"><title>Node15&#45;&gt;Node6</title>
<path fill="none" stroke="midnightblue" d="M1169.91,-261.259C1197.12,-267.305 1229.51,-274.501 1253.47,-279.827"/>
<polygon fill="midnightblue" stroke="midnightblue" points="1170.67,-257.842 1160.15,-259.089 1169.15,-264.675 1170.67,-257.842"/>
</g>
<!-- Node17 -->
<g id="node17" class="node"><title>Node17</title>
<g id="a_node17"><a xlink:href="../../d2/d75/cipmessagerouter_8h.html#a234c9436c4c2f2e9737b8bea98c4d83f" target="_top" xlink:title="Notify the MessageRouter that an explicit message (connected or unconnected) has been received...">
<polygon fill="none" stroke="black" points="313,-115 313,-134 425,-134 425,-115 313,-115"/>
<text text-anchor="middle" x="369" y="-122" font-family="Helvetica,sans-Serif" font-size="10.00">NotifyMessageRouter</text>
</a>
</g>
</g>
<!-- Node16&#45;&gt;Node17 -->
<g id="edge20" class="edge"><title>Node16&#45;&gt;Node17</title>
<path fill="none" stroke="midnightblue" d="M236.504,-115.483C259.571,-117.065 288.152,-119.025 312.77,-120.713"/>
<polygon fill="midnightblue" stroke="midnightblue" points="236.544,-111.978 226.328,-114.785 236.065,-118.961 236.544,-111.978"/>
</g>
<!-- Node18 -->
<g id="node18" class="node"><title>Node18</title>
<g id="a_node18"><a xlink:href="../../d4/d91/group__ENCAP.html#ga9c408ca52db513a953b72e8dfcad27e8" target="_top" xlink:title="NotifyCommonPacketFormat">
<polygon fill="none" stroke="black" points="483.5,-162 483.5,-181 627.5,-181 627.5,-162 483.5,-162"/>
<text text-anchor="middle" x="555.5" y="-169" font-family="Helvetica,sans-Serif" font-size="10.00">NotifyCommonPacketFormat</text>
</a>
</g>
</g>
<!-- Node17&#45;&gt;Node18 -->
<g id="edge21" class="edge"><title>Node17&#45;&gt;Node18</title>
<path fill="none" stroke="midnightblue" d="M417.052,-136.486C448.033,-144.378 488.047,-154.571 516.903,-161.922"/>
<polygon fill="midnightblue" stroke="midnightblue" points="417.891,-133.088 407.336,-134.011 416.163,-139.871 417.891,-133.088"/>
</g>
<!-- Node25 -->
<g id="node25" class="node"><title>Node25</title>
<g id="a_node25"><a xlink:href="../../d4/d91/group__ENCAP.html#ga72c9878cc686b15d10481b716e6f628d" target="_top" xlink:title="NotifyConnectedCommonPacket\lFormat">
<polygon fill="none" stroke="black" points="475,-109.5 475,-139.5 636,-139.5 636,-109.5 475,-109.5"/>
<text text-anchor="start" x="483" y="-127.5" font-family="Helvetica,sans-Serif" font-size="10.00">NotifyConnectedCommonPacket</text>
<text text-anchor="middle" x="555.5" y="-116.5" font-family="Helvetica,sans-Serif" font-size="10.00">Format</text>
</a>
</g>
</g>
<!-- Node17&#45;&gt;Node25 -->
<g id="edge30" class="edge"><title>Node17&#45;&gt;Node25</title>
<path fill="none" stroke="midnightblue" d="M435.434,-124.5C448.228,-124.5 461.775,-124.5 474.969,-124.5"/>
<polygon fill="midnightblue" stroke="midnightblue" points="435.356,-121 425.356,-124.5 435.356,-128 435.356,-121"/>
</g>
<!-- Node19 -->
<g id="node19" class="node"><title>Node19</title>
<g id="a_node19"><a xlink:href="../../d7/df9/encap_8h.html#a51dd68441ec427052986aef5c5c076e4" target="_top" xlink:title="Call UCMM or Message Router if UCMM not implemented. ">
<polygon fill="none" stroke="black" points="673,-158.5 673,-188.5 821,-188.5 821,-158.5 673,-158.5"/>
<text text-anchor="start" x="681" y="-176.5" font-family="Helvetica,sans-Serif" font-size="10.00">HandleReceivedSendRequest</text>
<text text-anchor="middle" x="747" y="-165.5" font-family="Helvetica,sans-Serif" font-size="10.00">ResponseDataCommand</text>
</a>
</g>
</g>
<!-- Node18&#45;&gt;Node19 -->
<g id="edge22" class="edge"><title>Node18&#45;&gt;Node19</title>
<path fill="none" stroke="midnightblue" d="M637.775,-172.358C649.454,-172.481 661.412,-172.607 672.92,-172.729"/>
<polygon fill="midnightblue" stroke="midnightblue" points="637.638,-168.856 627.602,-172.25 637.564,-175.856 637.638,-168.856"/>
</g>
<!-- Node20 -->
<g id="node20" class="node"><title>Node20</title>
<g id="a_node20"><a xlink:href="../../d2/dc9/group__CIP__API.html#ga4b8ec8e9b8a1dd71e84f2ea54e1c2b2d" target="_top" xlink:title="Notify the encapsulation layer that an explicit message has been received via TCP. ">
<polygon fill="none" stroke="black" points="859,-164 859,-183 1015,-183 1015,-164 859,-164"/>
<text text-anchor="middle" x="937" y="-171" font-family="Helvetica,sans-Serif" font-size="10.00">HandleReceivedExplictTcpData</text>
</a>
</g>
</g>
<!-- Node19&#45;&gt;Node20 -->
<g id="edge23" class="edge"><title>Node19&#45;&gt;Node20</title>
<path fill="none" stroke="midnightblue" d="M831.468,-173.5C840.608,-173.5 849.882,-173.5 858.94,-173.5"/>
<polygon fill="midnightblue" stroke="midnightblue" points="831.224,-170 821.224,-173.5 831.224,-177 831.224,-170"/>
</g>
<!-- Node21 -->
<g id="node21" class="node"><title>Node21</title>
<g id="a_node21"><a xlink:href="../../d4/d91/group__ENCAP.html#ga7a0dc2be6c485d9e6940d5b20a981022" target="_top" xlink:title="Initialize the encapsulation layer. ">
<polygon fill="none" stroke="black" points="1070,-202 1070,-221 1162,-221 1162,-202 1070,-202"/>
<text text-anchor="middle" x="1116" y="-209" font-family="Helvetica,sans-Serif" font-size="10.00">EncapsulationInit</text>
</a>
</g>
</g>
<!-- Node20&#45;&gt;Node21 -->
<g id="edge24" class="edge"><title>Node20&#45;&gt;Node21</title>
<path fill="none" stroke="midnightblue" d="M992.742,-185.253C1017.77,-190.626 1047.03,-196.909 1070.66,-201.98"/>
<polygon fill="midnightblue" stroke="midnightblue" points="993.176,-181.766 982.665,-183.089 991.707,-188.61 993.176,-181.766"/>
</g>
<!-- Node22 -->
<g id="node22" class="node"><title>Node22</title>
<g id="a_node22"><a xlink:href="../../db/d4f/generic__networkhandler_8c.html#aca5593b7dd39d7a7b437999a367102d6" target="_top" xlink:title="Handles data on an established TCP connection, processed connection is given by socket. ">
<polygon fill="none" stroke="black" points="1052,-164 1052,-183 1180,-183 1180,-164 1052,-164"/>
<text text-anchor="middle" x="1116" y="-171" font-family="Helvetica,sans-Serif" font-size="10.00">HandleDataOnTcpSocket</text>
</a>
</g>
</g>
<!-- Node20&#45;&gt;Node22 -->
<g id="edge26" class="edge"><title>Node20&#45;&gt;Node22</title>
<path fill="none" stroke="midnightblue" d="M1025.25,-173.5C1034.25,-173.5 1043.27,-173.5 1051.93,-173.5"/>
<polygon fill="midnightblue" stroke="midnightblue" points="1025.12,-170 1015.12,-173.5 1025.12,-177 1025.12,-170"/>
</g>
<!-- Node21&#45;&gt;Node6 -->
<g id="edge25" class="edge"><title>Node21&#45;&gt;Node6</title>
<path fill="none" stroke="midnightblue" d="M1162.82,-224.184C1168.67,-226.132 1174.52,-228.25 1180,-230.5 1213.93,-244.42 1251.33,-265.557 1272,-277.8"/>
<polygon fill="midnightblue" stroke="midnightblue" points="1163.66,-220.776 1153.07,-221.074 1161.53,-227.446 1163.66,-220.776"/>
</g>
<!-- Node23 -->
<g id="node23" class="node"><title>Node23</title>
<g id="a_node23"><a xlink:href="../../da/dc2/generic__networkhandler_8h.html#a2f01af81d3e5018d9980e2bc28c9078a" target="_top" xlink:title="NetworkHandlerProcessOnce">
<polygon fill="none" stroke="black" points="1216,-183 1216,-202 1362,-202 1362,-183 1216,-183"/>
<text text-anchor="middle" x="1289" y="-190" font-family="Helvetica,sans-Serif" font-size="10.00">NetworkHandlerProcessOnce</text>
</a>
</g>
</g>
<!-- Node22&#45;&gt;Node23 -->
<g id="edge27" class="edge"><title>Node22&#45;&gt;Node23</title>
<path fill="none" stroke="midnightblue" d="M1190.38,-181.653C1198.82,-182.591 1207.42,-183.546 1215.84,-184.482"/>
<polygon fill="midnightblue" stroke="midnightblue" points="1190.51,-178.147 1180.19,-180.521 1189.74,-185.104 1190.51,-178.147"/>
</g>
<!-- Node23&#45;&gt;Node7 -->
<g id="edge29" class="edge"><title>Node23&#45;&gt;Node7</title>
<path fill="none" stroke="midnightblue" d="M1316.82,-206.955C1345.14,-222.223 1389,-245.86 1413.29,-258.953"/>
<polygon fill="midnightblue" stroke="midnightblue" points="1318.32,-203.789 1307.86,-202.125 1315,-209.951 1318.32,-203.789"/>
</g>
<!-- Node24 -->
<g id="node24" class="node"><title>Node24</title>
<g id="a_node24"><a xlink:href="../../d9/dfb/POSIX_2main_8c.html#acd4e45a35a64f9cb29b59f63492b61d2" target="_top" xlink:title="Signal handler function for ending stack execution. ">
<polygon fill="none" stroke="black" points="1398,-183 1398,-202 1466,-202 1466,-183 1398,-183"/>
<text text-anchor="middle" x="1432" y="-190" font-family="Helvetica,sans-Serif" font-size="10.00">LeaveStack</text>
</a>
</g>
</g>
<!-- Node23&#45;&gt;Node24 -->
<g id="edge28" class="edge"><title>Node23&#45;&gt;Node24</title>
<path fill="none" stroke="midnightblue" d="M1372.33,-192.5C1381.28,-192.5 1389.96,-192.5 1397.79,-192.5"/>
<polygon fill="midnightblue" stroke="midnightblue" points="1372.15,-189 1362.15,-192.5 1372.15,-196 1372.15,-189"/>
</g>
<!-- Node26 -->
<g id="node26" class="node"><title>Node26</title>
<g id="a_node26"><a xlink:href="../../d2/dbd/encap_8c.html#a49dc585614f655a5b313150a01fd7221" target="_top" xlink:title="Call Connection Manager. ">
<polygon fill="none" stroke="black" points="672,-109.5 672,-139.5 822,-139.5 822,-109.5 672,-109.5"/>
<text text-anchor="start" x="680" y="-127.5" font-family="Helvetica,sans-Serif" font-size="10.00">HandleReceivedSendUnitData</text>
<text text-anchor="middle" x="747" y="-116.5" font-family="Helvetica,sans-Serif" font-size="10.00">Command</text>
</a>
</g>
</g>
<!-- Node25&#45;&gt;Node26 -->
<g id="edge31" class="edge"><title>Node25&#45;&gt;Node26</title>
<path fill="none" stroke="midnightblue" d="M646.101,-124.5C654.706,-124.5 663.369,-124.5 671.803,-124.5"/>
<polygon fill="midnightblue" stroke="midnightblue" points="646.041,-121 636.041,-124.5 646.041,-128 646.041,-121"/>
</g>
<!-- Node26&#45;&gt;Node20 -->
<g id="edge32" class="edge"><title>Node26&#45;&gt;Node20</title>
<path fill="none" stroke="midnightblue" d="M815.532,-142.101C843.838,-149.479 875.63,-157.765 899.444,-163.972"/>
<polygon fill="midnightblue" stroke="midnightblue" points="816.243,-138.67 805.684,-139.535 814.478,-145.444 816.243,-138.67"/>
</g>
<!-- Node28 -->
<g id="node28" class="node"><title>Node28</title>
<g id="a_node28"><a xlink:href="../../d5/d35/cipconnectionmanager_8c.html#af379a4b383c738a07d8e1ab0a4ac7510" target="_top" xlink:title="Handles a Non Null Non Matching Forward Open Request. ">
<polygon fill="none" stroke="black" points="299,-59.5 299,-89.5 439,-89.5 439,-59.5 299,-59.5"/>
<text text-anchor="start" x="307" y="-77.5" font-family="Helvetica,sans-Serif" font-size="10.00">HandleNonNullNonMatching</text>
<text text-anchor="middle" x="369" y="-66.5" font-family="Helvetica,sans-Serif" font-size="10.00">ForwardOpenRequest</text>
</a>
</g>
</g>
<!-- Node27&#45;&gt;Node28 -->
<g id="edge34" class="edge"><title>Node27&#45;&gt;Node28</title>
<path fill="none" stroke="midnightblue" d="M258.708,-74.5C271.814,-74.5 285.617,-74.5 298.835,-74.5"/>
<polygon fill="midnightblue" stroke="midnightblue" points="258.371,-71.0001 248.371,-74.5 258.371,-78.0001 258.371,-71.0001"/>
</g>
<!-- Node29 -->
<g id="node29" class="node"><title>Node29</title>
<g id="a_node29"><a xlink:href="../../d5/d35/cipconnectionmanager_8c.html#a7eaeec6cc54d1799cfaba4031f0168d1" target="_top" xlink:title="Handles a Non Null Matching Forward Open Request. ">
<polygon fill="none" stroke="black" points="476.5,-60.5 476.5,-90.5 634.5,-90.5 634.5,-60.5 476.5,-60.5"/>
<text text-anchor="start" x="484.5" y="-78.5" font-family="Helvetica,sans-Serif" font-size="10.00">HandleNonNullMatchingForward</text>
<text text-anchor="middle" x="555.5" y="-67.5" font-family="Helvetica,sans-Serif" font-size="10.00">OpenRequest</text>
</a>
</g>
</g>
<!-- Node28&#45;&gt;Node29 -->
<g id="edge35" class="edge"><title>Node28&#45;&gt;Node29</title>
<path fill="none" stroke="midnightblue" d="M449.231,-68.2395C458.172,-68.205 467.279,-68.2573 476.207,-68.3948"/>
<polygon fill="midnightblue" stroke="midnightblue" points="449.199,-64.7396 439.226,-68.3156 449.252,-71.7394 449.199,-64.7396"/>
</g>
<!-- Node29&#45;&gt;Node28 -->
<g id="edge36" class="edge"><title>Node29&#45;&gt;Node28</title>
<path fill="none" stroke="midnightblue" d="M466.069,-81.7656C457.055,-81.741 447.992,-81.6301 439.226,-81.4348"/>
<polygon fill="midnightblue" stroke="midnightblue" points="466.21,-85.2655 476.207,-81.7565 466.204,-78.2655 466.21,-85.2655"/>
</g>
<!-- Node30 -->
<g id="node30" class="node"><title>Node30</title>
<g id="a_node30"><a xlink:href="../../d5/d35/cipconnectionmanager_8c.html#a8da18334cfde58434b845b0968620811" target="_top" xlink:title="Handles a Null Matching Forward Open request. ">
<polygon fill="none" stroke="black" points="677,-22.5 677,-52.5 817,-52.5 817,-22.5 677,-22.5"/>
<text text-anchor="start" x="685" y="-40.5" font-family="Helvetica,sans-Serif" font-size="10.00">HandleNullMatchingForward</text>
<text text-anchor="middle" x="747" y="-29.5" font-family="Helvetica,sans-Serif" font-size="10.00">OpenRequest</text>
</a>
</g>
</g>
<!-- Node29&#45;&gt;Node30 -->
<g id="edge37" class="edge"><title>Node29&#45;&gt;Node30</title>
<path fill="none" stroke="midnightblue" d="M641.323,-58.4907C653.22,-56.1049 665.329,-53.6769 676.887,-51.3592"/>
<polygon fill="midnightblue" stroke="midnightblue" points="640.512,-55.0835 631.395,-60.4814 641.888,-61.9469 640.512,-55.0835"/>
</g>
<!-- Node30&#45;&gt;Node28 -->
<g id="edge38" class="edge"><title>Node30&#45;&gt;Node28</title>
<path fill="none" stroke="midnightblue" d="M666.679,-37.6221C612.471,-38.6059 539.116,-41.7049 475,-50.5 459.438,-52.6346 442.784,-55.9524 427.43,-59.4471"/>
<polygon fill="midnightblue" stroke="midnightblue" points="666.971,-41.118 676.914,-37.4573 666.858,-34.1189 666.971,-41.118"/>
</g>
<!-- Node31 -->
<g id="node31" class="node"><title>Node31</title>
<g id="a_node31"><a xlink:href="../../d5/d35/cipconnectionmanager_8c.html#ad68060facbfe52b38428a40da630651b" target="_top" xlink:title="Handles a Null Non Matching Forward Open Request. ">
<polygon fill="none" stroke="black" points="858,-0.5 858,-30.5 1016,-30.5 1016,-0.5 858,-0.5"/>
<text text-anchor="start" x="866" y="-18.5" font-family="Helvetica,sans-Serif" font-size="10.00">HandleNullNonMatchingForward</text>
<text text-anchor="middle" x="937" y="-7.5" font-family="Helvetica,sans-Serif" font-size="10.00">OpenRequest</text>
</a>
</g>
</g>
<!-- Node30&#45;&gt;Node31 -->
<g id="edge39" class="edge"><title>Node30&#45;&gt;Node31</title>
<path fill="none" stroke="midnightblue" d="M827.211,-28.2306C837.314,-27.0483 847.651,-25.8387 857.74,-24.6581"/>
<polygon fill="midnightblue" stroke="midnightblue" points="826.729,-24.7631 817.203,-29.4017 827.542,-31.7156 826.729,-24.7631"/>
</g>
<!-- Node31&#45;&gt;Node28 -->
<g id="edge40" class="edge"><title>Node31&#45;&gt;Node28</title>
<path fill="none" stroke="midnightblue" d="M847.611,-9.01817C753.754,-4.46745 601.757,-3.80312 475,-34.5 450.353,-40.4687 423.662,-50.6904 403.358,-59.3065"/>
<polygon fill="midnightblue" stroke="midnightblue" points="847.47,-12.5154 857.635,-9.52976 847.827,-5.52452 847.47,-12.5154"/>
</g>
<!-- Node32&#45;&gt;Node14 -->
<g id="edge42" class="edge"><title>Node32&#45;&gt;Node14</title>
<path fill="none" stroke="midnightblue" d="M273.366,-208.255C286.16,-208.694 299.159,-209.14 311.258,-209.555"/>
<polygon fill="midnightblue" stroke="midnightblue" points="273.285,-204.751 263.171,-207.906 273.045,-211.747 273.285,-204.751"/>
</g>
<!-- Node33&#45;&gt;Node14 -->
<g id="edge44" class="edge"><title>Node33&#45;&gt;Node14</title>
<path fill="none" stroke="midnightblue" d="M250.461,-174.559C279.523,-183.693 313.618,-194.408 337.58,-201.939"/>
<polygon fill="midnightblue" stroke="midnightblue" points="251.409,-171.188 240.82,-171.529 249.31,-177.866 251.409,-171.188"/>
</g>
</g>
</svg>
