<?xml version="1.0" encoding="UTF-8" standalone="no"?>
<!DOCTYPE svg PUBLIC "-//W3C//DTD SVG 1.1//EN"
 "http://www.w3.org/Graphics/SVG/1.1/DTD/svg11.dtd">
<!-- Generated by graphviz version 2.38.0 (20140413.2041)
 -->
<!-- Title: CalculateIndex Pages: 1 -->
<!--zoomable 809 -->
<svg id="main" version="1.1" xmlns="http://www.w3.org/2000/svg" xmlns:xlink="http://www.w3.org/1999/xlink" xml:space="preserve" onload="init(evt)">
<style type="text/css"><![CDATA[
.edge:hover path { stroke: red; }
.edge:hover polygon { stroke: red; fill: red; }
]]></style>
<script type="text/javascript"><![CDATA[
var edges = document.getElementsByTagName('g');
if (edges && edges.length) {
  for (var i=0;i<edges.length;i++) {
    if (edges[i].id.substr(0,4)=='edge') {
      edges[i].setAttribute('class','edge');
    }
  }
}
]]></script>
        <defs>
                <circle id="rim" cx="0" cy="0" r="7"/>
                <circle id="rim2" cx="0" cy="0" r="3.5"/>
                <g id="zoomPlus">
                        <use xlink:href="#rim" fill="#404040">
                                <set attributeName="fill" to="#808080" begin="zoomplus.mouseover" end="zoomplus.mouseout"/>
                        </use>
                        <path d="M-4,0h8M0,-4v8" fill="none" stroke="white" stroke-width="1.5" pointer-events="none"/>
                </g>
                <g id="zoomMin">
                        <use xlink:href="#rim" fill="#404040">
                                <set attributeName="fill" to="#808080" begin="zoomminus.mouseover" end="zoomminus.mouseout"/>
                        </use>
                        <path d="M-4,0h8" fill="none" stroke="white" stroke-width="1.5" pointer-events="none"/>
                </g>
                <g id="dirArrow">
                        <path fill="none" stroke="white" stroke-width="1.5" d="M0,-3.0v7 M-2.5,-0.5L0,-3.0L2.5,-0.5"/>
                </g>
               <g id="resetDef">
                       <use xlink:href="#rim2" fill="#404040">
                               <set attributeName="fill" to="#808080" begin="reset.mouseover" end="reset.mouseout"/>
                       </use>
               </g>
        </defs>

<script type="text/javascript">
var viewWidth = 1232;
var viewHeight = 809;
var sectionId = 'dynsection-8';
</script>
<script xlink:href="../../svgpan.js"/>
<svg id="graph" class="graph">
<g id="viewport">
<title>CalculateIndex</title>
<!-- Node1 -->
<g id="node1" class="node"><title>Node1</title>
<polygon fill="#bfbfbf" stroke="black" points="0,-380.491 0,-399.491 82,-399.491 82,-380.491 0,-380.491"/>
<text text-anchor="middle" x="41" y="-387.491" font-family="Helvetica,sans-Serif" font-size="10.00">CalculateIndex</text>
</g>
<!-- Node2 -->
<g id="node2" class="node"><title>Node2</title>
<g id="a_node2"><a xlink:href="../../d2/dc9/group__CIP__API.html#ga5ec1d2c432792c39f93c170943964302" target="_top" xlink:title="Allocates Attribute bitmasks. ">
<polygon fill="none" stroke="black" points="138.5,-347.491 138.5,-366.491 256.5,-366.491 256.5,-347.491 138.5,-347.491"/>
<text text-anchor="middle" x="197.5" y="-354.491" font-family="Helvetica,sans-Serif" font-size="10.00">AllocateAttributeMasks</text>
</a>
</g>
</g>
<!-- Node1&#45;&gt;Node2 -->
<g id="edge1" class="edge"><title>Node1&#45;&gt;Node2</title>
<path fill="none" stroke="midnightblue" d="M92.0029,-379.31C111.279,-375.193 133.151,-370.521 151.886,-366.52"/>
<polygon fill="midnightblue" stroke="midnightblue" points="91.238,-375.895 82.1897,-381.406 92.7003,-382.74 91.238,-375.895"/>
</g>
<!-- Node18 -->
<g id="node18" class="node"><title>Node18</title>
<g id="a_node18"><a xlink:href="../../db/d14/cipcommon_8h.html#ab5e27f4fb889d26a7dcd993cf2d3ddfe" target="_top" xlink:title="Generic implementation of the GetAttributeAll CIP service. ">
<polygon fill="none" stroke="black" points="157.5,-62.4905 157.5,-81.4905 237.5,-81.4905 237.5,-62.4905 157.5,-62.4905"/>
<text text-anchor="middle" x="197.5" y="-69.4905" font-family="Helvetica,sans-Serif" font-size="10.00">GetAttributeAll</text>
</a>
</g>
</g>
<!-- Node1&#45;&gt;Node18 -->
<g id="edge23" class="edge"><title>Node1&#45;&gt;Node18</title>
<path fill="none" stroke="midnightblue" d="M47.0743,-370.723C57.4297,-332.966 83.0082,-247.157 118,-180.991 138.932,-141.41 172.622,-99.8876 188.159,-81.6004"/>
<polygon fill="midnightblue" stroke="midnightblue" points="43.6798,-369.869 44.4583,-380.435 50.4389,-371.689 43.6798,-369.869"/>
</g>
<!-- Node19 -->
<g id="node19" class="node"><title>Node19</title>
<g id="a_node19"><a xlink:href="../../db/d14/cipcommon_8h.html#a4d2d00f2e1252b192ef73aa388898e7d" target="_top" xlink:title="Generic implementation of the GetAttributeSingle CIP service. ">
<polygon fill="none" stroke="black" points="149.5,-309.491 149.5,-328.491 245.5,-328.491 245.5,-309.491 149.5,-309.491"/>
<text text-anchor="middle" x="197.5" y="-316.491" font-family="Helvetica,sans-Serif" font-size="10.00">GetAttributeSingle</text>
</a>
</g>
</g>
<!-- Node1&#45;&gt;Node19 -->
<g id="edge28" class="edge"><title>Node1&#45;&gt;Node19</title>
<path fill="none" stroke="midnightblue" d="M60.902,-374.163C75.6148,-362.588 96.9994,-347.338 118,-337.991 127.736,-333.657 138.61,-330.222 149.088,-327.534"/>
<polygon fill="midnightblue" stroke="midnightblue" points="58.6532,-371.48 53.0636,-380.48 63.0459,-376.93 58.6532,-371.48"/>
</g>
<!-- Node20 -->
<g id="node20" class="node"><title>Node20</title>
<g id="a_node20"><a xlink:href="../../dd/d4d/cipethernetlink_8h.html#ab32c3ac78db693933538f44ed0b1fb42" target="_top" xlink:title="GetAttributeSingleEthernetLink">
<polygon fill="none" stroke="black" points="313,-100.491 313,-119.491 464,-119.491 464,-100.491 313,-100.491"/>
<text text-anchor="middle" x="388.5" y="-107.491" font-family="Helvetica,sans-Serif" font-size="10.00">GetAttributeSingleEthernetLink</text>
</a>
</g>
</g>
<!-- Node1&#45;&gt;Node20 -->
<g id="edge38" class="edge"><title>Node1&#45;&gt;Node20</title>
<path fill="none" stroke="midnightblue" d="M54.8049,-372.262C69.0303,-353.222 93.2697,-322.654 118,-299.991 205.154,-220.122 327.059,-145.477 370.944,-119.596"/>
<polygon fill="midnightblue" stroke="midnightblue" points="51.9501,-370.236 48.8376,-380.364 57.5863,-374.388 51.9501,-370.236"/>
</g>
<!-- Node22 -->
<g id="node22" class="node"><title>Node22</title>
<g id="a_node22"><a xlink:href="../../dd/d20/ciptcpipinterface_8c.html#abe1c177c3c79ea065834ce8b9679d78d" target="_top" xlink:title="GetAttributeSingleTcpIpInterface">
<polygon fill="none" stroke="black" points="118,-758.491 118,-777.491 277,-777.491 277,-758.491 118,-758.491"/>
<text text-anchor="middle" x="197.5" y="-765.491" font-family="Helvetica,sans-Serif" font-size="10.00">GetAttributeSingleTcpIpInterface</text>
</a>
</g>
</g>
<!-- Node1&#45;&gt;Node22 -->
<g id="edge39" class="edge"><title>Node1&#45;&gt;Node22</title>
<path fill="none" stroke="midnightblue" d="M44.399,-409.627C50.788,-457.022 71.0361,-580.523 118,-671.991 136.291,-707.614 169.442,-742.15 186.205,-758.373"/>
<polygon fill="midnightblue" stroke="midnightblue" points="47.8454,-408.985 43.0941,-399.516 40.9029,-409.881 47.8454,-408.985"/>
</g>
<!-- Node24 -->
<g id="node24" class="node"><title>Node24</title>
<g id="a_node24"><a xlink:href="../../d2/dc9/group__CIP__API.html#gac207feb53c1f98b45f3934bbea63d618" target="_top" xlink:title="Insert an attribute in an instance of a CIP class. ">
<polygon fill="none" stroke="black" points="158.5,-413.491 158.5,-432.491 236.5,-432.491 236.5,-413.491 158.5,-413.491"/>
<text text-anchor="middle" x="197.5" y="-420.491" font-family="Helvetica,sans-Serif" font-size="10.00">InsertAttribute</text>
</a>
</g>
</g>
<!-- Node1&#45;&gt;Node24 -->
<g id="edge43" class="edge"><title>Node1&#45;&gt;Node24</title>
<path fill="none" stroke="midnightblue" d="M92.1395,-400.7C113.657,-405.296 138.388,-410.578 158.373,-414.847"/>
<polygon fill="midnightblue" stroke="midnightblue" points="92.7003,-397.241 82.1897,-398.575 91.238,-404.086 92.7003,-397.241"/>
</g>
<!-- Node28 -->
<g id="node28" class="node"><title>Node28</title>
<g id="a_node28"><a xlink:href="../../dd/d34/cipqos_8c.html#a698f45a084157feeb9d13e3dbd058a5c" target="_top" xlink:title="SetAttributeSingleQoS">
<polygon fill="none" stroke="black" points="140,-527.491 140,-546.491 255,-546.491 255,-527.491 140,-527.491"/>
<text text-anchor="middle" x="197.5" y="-534.491" font-family="Helvetica,sans-Serif" font-size="10.00">SetAttributeSingleQoS</text>
</a>
</g>
</g>
<!-- Node1&#45;&gt;Node28 -->
<g id="edge56" class="edge"><title>Node1&#45;&gt;Node28</title>
<path fill="none" stroke="midnightblue" d="M59.5492,-406.688C91.9252,-437.492 160.116,-502.373 186.123,-527.117"/>
<polygon fill="midnightblue" stroke="midnightblue" points="61.7945,-403.993 52.1372,-399.636 56.9694,-409.064 61.7945,-403.993"/>
</g>
<!-- Node29 -->
<g id="node29" class="node"><title>Node29</title>
<g id="a_node29"><a xlink:href="../../dd/d20/ciptcpipinterface_8c.html#a0eb1970cfc9a9d427a4e7d6d3579fdc8" target="_top" xlink:title="SetAttributeSingleTcp">
<polygon fill="none" stroke="black" points="141.5,-643.491 141.5,-662.491 253.5,-662.491 253.5,-643.491 141.5,-643.491"/>
<text text-anchor="middle" x="197.5" y="-650.491" font-family="Helvetica,sans-Serif" font-size="10.00">SetAttributeSingleTcp</text>
</a>
</g>
</g>
<!-- Node1&#45;&gt;Node29 -->
<g id="edge58" class="edge"><title>Node1&#45;&gt;Node29</title>
<path fill="none" stroke="midnightblue" d="M48.9774,-409.21C60.9013,-440.973 86.9449,-505.887 118,-555.991 139.457,-590.609 171.734,-626.694 187.368,-643.422"/>
<polygon fill="midnightblue" stroke="midnightblue" points="52.2405,-407.942 45.4881,-399.778 45.6754,-410.371 52.2405,-407.942"/>
</g>
<!-- Node3 -->
<g id="node3" class="node"><title>Node3</title>
<g id="a_node3"><a xlink:href="../../d2/d3d/cipcommon_8c.html#a3dfa07bc40e59ba348d713272d1cbfdb" target="_top" xlink:title="CreateCipClass">
<polygon fill="none" stroke="black" points="345.5,-328.491 345.5,-347.491 431.5,-347.491 431.5,-328.491 345.5,-328.491"/>
<text text-anchor="middle" x="388.5" y="-335.491" font-family="Helvetica,sans-Serif" font-size="10.00">CreateCipClass</text>
</a>
</g>
</g>
<!-- Node2&#45;&gt;Node3 -->
<g id="edge2" class="edge"><title>Node2&#45;&gt;Node3</title>
<path fill="none" stroke="midnightblue" d="M267.01,-350.103C293.213,-347.469 322.308,-344.544 345.342,-342.229"/>
<polygon fill="midnightblue" stroke="midnightblue" points="266.348,-346.652 256.748,-351.135 267.048,-353.617 266.348,-346.652"/>
</g>
<!-- Node4 -->
<g id="node4" class="node"><title>Node4</title>
<g id="a_node4"><a xlink:href="../../dd/d4d/cipethernetlink_8h.html#ad6d2028b90ec96ad148d092a30acb7d6" target="_top" xlink:title="Initialize the Ethernet Link Objects data. ">
<polygon fill="none" stroke="black" points="508.5,-214.491 508.5,-233.491 608.5,-233.491 608.5,-214.491 508.5,-214.491"/>
<text text-anchor="middle" x="558.5" y="-221.491" font-family="Helvetica,sans-Serif" font-size="10.00">CipEthernetLinkInit</text>
</a>
</g>
</g>
<!-- Node3&#45;&gt;Node4 -->
<g id="edge3" class="edge"><title>Node3&#45;&gt;Node4</title>
<path fill="none" stroke="midnightblue" d="M411.769,-322.389C426.971,-311.397 447.303,-296.016 464,-280.991 481.293,-265.428 480.361,-255.462 500,-242.991 505.946,-239.214 512.719,-236.113 519.477,-233.593"/>
<polygon fill="midnightblue" stroke="midnightblue" points="409.576,-319.654 403.477,-328.317 413.647,-325.348 409.576,-319.654"/>
</g>
<!-- Node9 -->
<g id="node9" class="node"><title>Node9</title>
<g id="a_node9"><a xlink:href="../../dc/d72/cipidentity_8h.html#a5d5136e167300543aa046057b56ae813" target="_top" xlink:title="CIP Identity object constructor. ">
<polygon fill="none" stroke="black" points="520,-413.491 520,-432.491 597,-432.491 597,-413.491 520,-413.491"/>
<text text-anchor="middle" x="558.5" y="-420.491" font-family="Helvetica,sans-Serif" font-size="10.00">CipIdentityInit</text>
</a>
</g>
</g>
<!-- Node3&#45;&gt;Node9 -->
<g id="edge8" class="edge"><title>Node3&#45;&gt;Node9</title>
<path fill="none" stroke="midnightblue" d="M441.286,-348.002C449.185,-350.618 457.02,-353.895 464,-357.991 483.788,-369.603 481.409,-381.545 500,-394.991 510.167,-402.343 522.561,-408.66 533.236,-413.423"/>
<polygon fill="midnightblue" stroke="midnightblue" points="442.257,-344.639 431.673,-345.128 440.252,-351.346 442.257,-344.639"/>
</g>
<!-- Node10 -->
<g id="node10" class="node"><title>Node10</title>
<g id="a_node10"><a xlink:href="../../d2/d75/cipmessagerouter_8h.html#aa3456b75c1b2289296323b578fee2d3d" target="_top" xlink:title="Initialize the data structures of the message router. ">
<polygon fill="none" stroke="black" points="501.5,-366.491 501.5,-385.491 615.5,-385.491 615.5,-366.491 501.5,-366.491"/>
<text text-anchor="middle" x="558.5" y="-373.491" font-family="Helvetica,sans-Serif" font-size="10.00">CipMessageRouterInit</text>
</a>
</g>
</g>
<!-- Node3&#45;&gt;Node10 -->
<g id="edge10" class="edge"><title>Node3&#45;&gt;Node10</title>
<path fill="none" stroke="midnightblue" d="M441.776,-349.815C465.461,-355.172 493.09,-361.422 515.411,-366.47"/>
<polygon fill="midnightblue" stroke="midnightblue" points="442.419,-346.372 431.893,-347.58 440.875,-353.2 442.419,-346.372"/>
</g>
<!-- Node11 -->
<g id="node11" class="node"><title>Node11</title>
<g id="a_node11"><a xlink:href="../../d0/d3c/cipqos_8h.html#ab9a656060dcf03c3f51dbd967dff3f52" target="_top" xlink:title="CipQoSInit">
<polygon fill="none" stroke="black" points="526,-530.491 526,-549.491 591,-549.491 591,-530.491 526,-530.491"/>
<text text-anchor="middle" x="558.5" y="-537.491" font-family="Helvetica,sans-Serif" font-size="10.00">CipQoSInit</text>
</a>
</g>
</g>
<!-- Node3&#45;&gt;Node11 -->
<g id="edge12" class="edge"><title>Node3&#45;&gt;Node11</title>
<path fill="none" stroke="midnightblue" d="M441.442,-345.397C449.636,-348.325 457.526,-352.38 464,-357.991 494.694,-384.592 481.686,-405.736 500,-441.991 516.899,-475.445 540.387,-513.223 551.375,-530.479"/>
<polygon fill="midnightblue" stroke="midnightblue" points="442.334,-342.011 431.749,-342.454 440.3,-348.709 442.334,-342.011"/>
</g>
<!-- Node12 -->
<g id="node12" class="node"><title>Node12</title>
<g id="a_node12"><a xlink:href="../../d1/dad/ciptcpipinterface_8h.html#a4c1f49654e48c5581513d990840933b0" target="_top" xlink:title="Initializing the data structures of the TCP/IP interface object. ">
<polygon fill="none" stroke="black" points="504.5,-701.491 504.5,-720.491 612.5,-720.491 612.5,-701.491 504.5,-701.491"/>
<text text-anchor="middle" x="558.5" y="-708.491" font-family="Helvetica,sans-Serif" font-size="10.00">CipTcpIpInterfaceInit</text>
</a>
</g>
</g>
<!-- Node3&#45;&gt;Node12 -->
<g id="edge14" class="edge"><title>Node3&#45;&gt;Node12</title>
<path fill="none" stroke="midnightblue" d="M441.497,-343.813C449.973,-346.884 457.945,-351.397 464,-357.991 525.387,-424.834 475.842,-471.51 500,-558.991 515.246,-614.198 542.469,-677.428 553.087,-701.242"/>
<polygon fill="midnightblue" stroke="midnightblue" points="442.373,-340.422 431.79,-340.926 440.377,-347.131 442.373,-340.422"/>
</g>
<!-- Node13 -->
<g id="node13" class="node"><title>Node13</title>
<g id="a_node13"><a xlink:href="../../d2/da3/cipconnectionmanager_8h.html#a5ab0de6894d23e8fe84a6b46797c2212" target="_top" xlink:title="Initialize the data of the connection manager object. ">
<polygon fill="none" stroke="black" points="500,-252.491 500,-271.491 617,-271.491 617,-252.491 500,-252.491"/>
<text text-anchor="middle" x="558.5" y="-259.491" font-family="Helvetica,sans-Serif" font-size="10.00">ConnectionManagerInit</text>
</a>
</g>
</g>
<!-- Node3&#45;&gt;Node13 -->
<g id="edge16" class="edge"><title>Node3&#45;&gt;Node13</title>
<path fill="none" stroke="midnightblue" d="M420.142,-324.129C453.837,-308.886 507.077,-284.801 536.395,-271.538"/>
<polygon fill="midnightblue" stroke="midnightblue" points="418.446,-321.054 410.777,-328.365 421.331,-327.432 418.446,-321.054"/>
</g>
<!-- Node14 -->
<g id="node14" class="node"><title>Node14</title>
<g id="a_node14"><a xlink:href="../../df/d2e/cipassembly_8c.html#a5973ef42110a1bdf6c7699e35e04b7d4" target="_top" xlink:title="Constructor for the assembly object class. ">
<polygon fill="none" stroke="black" points="501,-328.491 501,-347.491 616,-347.491 616,-328.491 501,-328.491"/>
<text text-anchor="middle" x="558.5" y="-335.491" font-family="Helvetica,sans-Serif" font-size="10.00">CreateAssemblyClass</text>
</a>
</g>
</g>
<!-- Node3&#45;&gt;Node14 -->
<g id="edge18" class="edge"><title>Node3&#45;&gt;Node14</title>
<path fill="none" stroke="midnightblue" d="M441.998,-337.991C460.688,-337.991 481.811,-337.991 500.835,-337.991"/>
<polygon fill="midnightblue" stroke="midnightblue" points="441.894,-334.491 431.893,-337.991 441.893,-341.491 441.894,-334.491"/>
</g>
<!-- Node5 -->
<g id="node5" class="node"><title>Node5</title>
<g id="a_node5"><a xlink:href="../../d2/dc9/group__CIP__API.html#ga5d4979945d124e28668b264c3823db1c" target="_top" xlink:title="Initialize and setup the CIP&#45;stack. ">
<polygon fill="none" stroke="black" points="829.5,-366.491 829.5,-385.491 900.5,-385.491 900.5,-366.491 829.5,-366.491"/>
<text text-anchor="middle" x="865" y="-373.491" font-family="Helvetica,sans-Serif" font-size="10.00">CipStackInit</text>
</a>
</g>
</g>
<!-- Node4&#45;&gt;Node5 -->
<g id="edge4" class="edge"><title>Node4&#45;&gt;Node5</title>
<path fill="none" stroke="midnightblue" d="M618.65,-230.519C663.015,-237.443 723.939,-251.39 771,-278.991 810.443,-302.124 844.004,-346.694 857.569,-366.315"/>
<polygon fill="midnightblue" stroke="midnightblue" points="619.005,-227.033 608.599,-229.026 617.976,-233.957 619.005,-227.033"/>
</g>
<!-- Node6 -->
<g id="node6" class="node"><title>Node6</title>
<g id="a_node6"><a xlink:href="../../d5/dcb/MINGW_2main_8c.html#ad338a7dbc41dc40bcecd0479377ef207" target="_top" xlink:title="main">
<polygon fill="none" stroke="black" points="959,-366.491 959,-385.491 997,-385.491 997,-366.491 959,-366.491"/>
<text text-anchor="middle" x="978" y="-373.491" font-family="Helvetica,sans-Serif" font-size="10.00">main</text>
</a>
</g>
</g>
<!-- Node5&#45;&gt;Node6 -->
<g id="edge5" class="edge"><title>Node5&#45;&gt;Node6</title>
<path fill="none" stroke="midnightblue" d="M910.783,-375.991C927.658,-375.991 945.907,-375.991 958.965,-375.991"/>
<polygon fill="midnightblue" stroke="midnightblue" points="910.513,-372.491 900.513,-375.991 910.513,-379.491 910.513,-372.491"/>
</g>
<!-- Node7 -->
<g id="node7" class="node"><title>Node7</title>
<g id="a_node7"><a xlink:href="../../d8/d03/ports_2MINGW_2CMakeLists_8txt.html#a7e00df43a20d627a1732be7766d91097" target="_top" xlink:title="add_library">
<polygon fill="none" stroke="black" points="1033,-366.491 1033,-385.491 1097,-385.491 1097,-366.491 1033,-366.491"/>
<text text-anchor="middle" x="1065" y="-373.491" font-family="Helvetica,sans-Serif" font-size="10.00">add_library</text>
</a>
</g>
</g>
<!-- Node6&#45;&gt;Node7 -->
<g id="edge6" class="edge"><title>Node6&#45;&gt;Node7</title>
<path fill="none" stroke="midnightblue" d="M1007.27,-375.991C1015.5,-375.991 1024.55,-375.991 1032.94,-375.991"/>
<polygon fill="midnightblue" stroke="midnightblue" points="1007.03,-372.491 997.026,-375.991 1007.03,-379.491 1007.03,-372.491"/>
</g>
<!-- Node8 -->
<g id="node8" class="node"><title>Node8</title>
<g id="a_node8"><a xlink:href="../../d8/dce/ports_2CMakeLists_8txt.html#a598fae457555a5fb26e18d4cd8f89de9" target="_top" xlink:title="add_subdirectory">
<polygon fill="none" stroke="black" points="1133,-366.491 1133,-385.491 1224,-385.491 1224,-366.491 1133,-366.491"/>
<text text-anchor="middle" x="1178.5" y="-373.491" font-family="Helvetica,sans-Serif" font-size="10.00">add_subdirectory</text>
</a>
</g>
</g>
<!-- Node7&#45;&gt;Node8 -->
<g id="edge7" class="edge"><title>Node7&#45;&gt;Node8</title>
<path fill="none" stroke="midnightblue" d="M1107.3,-375.991C1115.63,-375.991 1124.42,-375.991 1132.86,-375.991"/>
<polygon fill="midnightblue" stroke="midnightblue" points="1107.06,-372.491 1097.06,-375.991 1107.06,-379.491 1107.06,-372.491"/>
</g>
<!-- Node9&#45;&gt;Node5 -->
<g id="edge9" class="edge"><title>Node9&#45;&gt;Node5</title>
<path fill="none" stroke="midnightblue" d="M607.386,-415.599C669.056,-406.08 774.766,-389.764 829.261,-381.353"/>
<polygon fill="midnightblue" stroke="midnightblue" points="606.492,-412.196 597.143,-417.18 607.56,-419.114 606.492,-412.196"/>
</g>
<!-- Node10&#45;&gt;Node5 -->
<g id="edge11" class="edge"><title>Node10&#45;&gt;Node5</title>
<path fill="none" stroke="midnightblue" d="M625.893,-375.991C688.578,-375.991 780.109,-375.991 829.433,-375.991"/>
<polygon fill="midnightblue" stroke="midnightblue" points="625.705,-372.491 615.705,-375.991 625.705,-379.491 625.705,-372.491"/>
</g>
<!-- Node11&#45;&gt;Node5 -->
<g id="edge13" class="edge"><title>Node11&#45;&gt;Node5</title>
<path fill="none" stroke="midnightblue" d="M586.19,-525.616C647.118,-492.801 795.117,-413.09 846.264,-385.543"/>
<polygon fill="midnightblue" stroke="midnightblue" points="584.332,-522.641 577.187,-530.464 587.651,-528.804 584.332,-522.641"/>
</g>
<!-- Node12&#45;&gt;Node5 -->
<g id="edge15" class="edge"><title>Node12&#45;&gt;Node5</title>
<path fill="none" stroke="midnightblue" d="M594.941,-697.636C640.996,-678.691 721.373,-639.979 771,-583.991 827.15,-520.643 854.412,-417.856 861.846,-385.834"/>
<polygon fill="midnightblue" stroke="midnightblue" points="593.351,-694.503 585.383,-701.486 595.967,-700.996 593.351,-694.503"/>
</g>
<!-- Node13&#45;&gt;Node5 -->
<g id="edge17" class="edge"><title>Node13&#45;&gt;Node5</title>
<path fill="none" stroke="midnightblue" d="M620.921,-273.661C663.991,-283.008 722.333,-298.038 771,-318.991 801.439,-332.096 833.721,-353.92 851.102,-366.418"/>
<polygon fill="midnightblue" stroke="midnightblue" points="621.38,-270.18 610.87,-271.522 619.923,-277.027 621.38,-270.18"/>
</g>
<!-- Node15 -->
<g id="node15" class="node"><title>Node15</title>
<g id="a_node15"><a xlink:href="../../de/df4/cipassembly_8h.html#a4dfbc2c7a8e9e77f05a0a7236210f5b4" target="_top" xlink:title="Setup the Assembly object. ">
<polygon fill="none" stroke="black" points="656.5,-328.491 656.5,-347.491 767.5,-347.491 767.5,-328.491 656.5,-328.491"/>
<text text-anchor="middle" x="712" y="-335.491" font-family="Helvetica,sans-Serif" font-size="10.00">CipAssemblyInitialize</text>
</a>
</g>
</g>
<!-- Node14&#45;&gt;Node15 -->
<g id="edge19" class="edge"><title>Node14&#45;&gt;Node15</title>
<path fill="none" stroke="midnightblue" d="M626.606,-337.991C636.551,-337.991 646.698,-337.991 656.349,-337.991"/>
<polygon fill="midnightblue" stroke="midnightblue" points="626.344,-334.491 616.344,-337.991 626.344,-341.491 626.344,-334.491"/>
</g>
<!-- Node16 -->
<g id="node16" class="node"><title>Node16</title>
<g id="a_node16"><a xlink:href="../../d2/dc9/group__CIP__API.html#gae61b613fed863d30428e78b2311bf593" target="_top" xlink:title="Create an instance of an assembly object. ">
<polygon fill="none" stroke="black" points="653,-555.491 653,-574.491 771,-574.491 771,-555.491 653,-555.491"/>
<text text-anchor="middle" x="712" y="-562.491" font-family="Helvetica,sans-Serif" font-size="10.00">CreateAssemblyObject</text>
</a>
</g>
</g>
<!-- Node14&#45;&gt;Node16 -->
<g id="edge21" class="edge"><title>Node14&#45;&gt;Node16</title>
<path fill="none" stroke="midnightblue" d="M611.398,-352.655C613.374,-353.977 615.254,-355.419 617,-356.991 680.332,-413.981 703.588,-521.956 709.412,-555.079"/>
<polygon fill="midnightblue" stroke="midnightblue" points="612.674,-349.36 602.229,-347.583 609.286,-355.486 612.674,-349.36"/>
</g>
<!-- Node15&#45;&gt;Node5 -->
<g id="edge20" class="edge"><title>Node15&#45;&gt;Node5</title>
<path fill="none" stroke="midnightblue" d="M761.001,-350.07C783.176,-355.651 809.017,-362.154 829.269,-367.25"/>
<polygon fill="midnightblue" stroke="midnightblue" points="761.656,-346.626 751.104,-347.58 759.947,-353.414 761.656,-346.626"/>
</g>
<!-- Node17 -->
<g id="node17" class="node"><title>Node17</title>
<g id="a_node17"><a xlink:href="../../d5/dc5/group__CIP__CALLBACK__API.html#gae93106eb1647bff3ad56a7752799d878" target="_top" xlink:title="Callback for the application initialization. ">
<polygon fill="none" stroke="black" points="807,-555.491 807,-574.491 923,-574.491 923,-555.491 807,-555.491"/>
<text text-anchor="middle" x="865" y="-562.491" font-family="Helvetica,sans-Serif" font-size="10.00">ApplicationInitialization</text>
</a>
</g>
</g>
<!-- Node16&#45;&gt;Node17 -->
<g id="edge22" class="edge"><title>Node16&#45;&gt;Node17</title>
<path fill="none" stroke="midnightblue" d="M781.571,-564.991C789.995,-564.991 798.536,-564.991 806.769,-564.991"/>
<polygon fill="midnightblue" stroke="midnightblue" points="781.381,-561.491 771.381,-564.991 781.381,-568.491 781.381,-561.491"/>
</g>
<!-- Node18&#45;&gt;Node3 -->
<g id="edge27" class="edge"><title>Node18&#45;&gt;Node3</title>
<path fill="none" stroke="midnightblue" d="M205.808,-91.1441C221.277,-129.996 260.281,-219.587 313,-280.991 330.08,-300.884 355.143,-318.3 371.392,-328.486"/>
<polygon fill="midnightblue" stroke="midnightblue" points="208.977,-89.6371 202.077,-81.5968 202.457,-92.1849 208.977,-89.6371"/>
</g>
<!-- Node18&#45;&gt;Node4 -->
<g id="edge24" class="edge"><title>Node18&#45;&gt;Node4</title>
<path fill="none" stroke="midnightblue" d="M221.685,-57.1415C270.547,-27.917 386.012,30.0542 464,-19.9905 535.152,-65.6489 552.861,-180.48 556.605,-214.408"/>
<polygon fill="midnightblue" stroke="midnightblue" points="219.799,-54.1924 213.095,-62.3971 223.452,-60.1634 219.799,-54.1924"/>
</g>
<!-- Node18&#45;&gt;Node9 -->
<g id="edge25" class="edge"><title>Node18&#45;&gt;Node9</title>
<path fill="none" stroke="midnightblue" d="M247.652,-68.3812C315.809,-64.5284 434.034,-62.3846 464,-90.9905 513.206,-137.964 460.598,-339.536 500,-394.991 505.852,-403.227 514.81,-409.146 523.925,-413.354"/>
<polygon fill="midnightblue" stroke="midnightblue" points="247.343,-64.8933 237.57,-68.9842 247.761,-71.8809 247.343,-64.8933"/>
</g>
<!-- Node18&#45;&gt;Node13 -->
<g id="edge26" class="edge"><title>Node18&#45;&gt;Node13</title>
<path fill="none" stroke="midnightblue" d="M228.707,-58.6126C282.659,-37.0024 396.264,-2.16542 464,-57.9905 528.64,-111.265 444.646,-180.122 500,-242.991 503.404,-246.857 507.612,-249.939 512.191,-252.396"/>
<polygon fill="midnightblue" stroke="midnightblue" points="227.263,-55.4221 219.352,-62.469 229.931,-61.8938 227.263,-55.4221"/>
</g>
<!-- Node19&#45;&gt;Node3 -->
<g id="edge33" class="edge"><title>Node19&#45;&gt;Node3</title>
<path fill="none" stroke="midnightblue" d="M255.667,-324.737C284.548,-327.641 318.972,-331.101 345.401,-333.758"/>
<polygon fill="midnightblue" stroke="midnightblue" points="256.005,-321.254 245.705,-323.736 255.305,-328.219 256.005,-321.254"/>
</g>
<!-- Node19&#45;&gt;Node9 -->
<g id="edge29" class="edge"><title>Node19&#45;&gt;Node9</title>
<path fill="none" stroke="midnightblue" d="M255.664,-326.665C263.332,-329.4 270.709,-333.071 277,-337.991 304.247,-359.299 284.022,-388.103 313,-406.991 375.9,-447.988 468.289,-440.059 519.605,-431.181"/>
<polygon fill="midnightblue" stroke="midnightblue" points="256.44,-323.243 245.854,-323.679 254.401,-329.94 256.44,-323.243"/>
</g>
<!-- Node19&#45;&gt;Node10 -->
<g id="edge30" class="edge"><title>Node19&#45;&gt;Node10</title>
<path fill="none" stroke="midnightblue" d="M249.065,-307.553C304.313,-297.599 394.242,-288.985 464,-318.991 485.371,-328.183 480.361,-344.519 500,-356.991 505.946,-360.767 512.719,-363.868 519.477,-366.388"/>
<polygon fill="midnightblue" stroke="midnightblue" points="248.344,-304.127 239.165,-309.418 249.64,-311.006 248.344,-304.127"/>
</g>
<!-- Node19&#45;&gt;Node13 -->
<g id="edge31" class="edge"><title>Node19&#45;&gt;Node13</title>
<path fill="none" stroke="midnightblue" d="M212.292,-301.299C231.777,-277.911 269.838,-237.816 313,-221.991 376.01,-198.889 399.215,-204.476 464,-221.991 481.881,-226.825 483.114,-235.377 500,-242.991 507.763,-246.491 516.37,-249.678 524.51,-252.401"/>
<polygon fill="midnightblue" stroke="midnightblue" points="209.337,-299.386 205.762,-309.36 214.776,-303.793 209.337,-299.386"/>
</g>
<!-- Node19&#45;&gt;Node14 -->
<g id="edge32" class="edge"><title>Node19&#45;&gt;Node14</title>
<path fill="none" stroke="midnightblue" d="M215.952,-302.532C237.032,-283.894 274.484,-254.61 313,-242.991 377.251,-223.608 402.35,-216.473 464,-242.991 485.371,-252.183 483.737,-264.355 500,-280.991 516.508,-297.877 536.112,-317.148 547.64,-328.401"/>
<polygon fill="midnightblue" stroke="midnightblue" points="213.516,-300.016 208.458,-309.325 218.218,-305.202 213.516,-300.016"/>
</g>
<!-- Node19&#45;&gt;Node20 -->
<g id="edge34" class="edge"><title>Node19&#45;&gt;Node20</title>
<path fill="none" stroke="midnightblue" d="M212.585,-301.293C229.121,-280.077 256.845,-243.102 277,-208.991 295.809,-177.157 285.141,-158.3 313,-133.991 320.269,-127.647 329.237,-122.976 338.402,-119.538"/>
<polygon fill="midnightblue" stroke="midnightblue" points="209.666,-299.342 206.237,-309.367 215.169,-303.669 209.666,-299.342"/>
</g>
<!-- Node21 -->
<g id="node21" class="node"><title>Node21</title>
<g id="a_node21"><a xlink:href="../../dd/d34/cipqos_8c.html#aa40ff7ab77fbd2634d671fb0a64d7f76" target="_top" xlink:title="GetAttributeSingleQoS">
<polygon fill="none" stroke="black" points="330.5,-530.491 330.5,-549.491 446.5,-549.491 446.5,-530.491 330.5,-530.491"/>
<text text-anchor="middle" x="388.5" y="-537.491" font-family="Helvetica,sans-Serif" font-size="10.00">GetAttributeSingleQoS</text>
</a>
</g>
</g>
<!-- Node19&#45;&gt;Node21 -->
<g id="edge36" class="edge"><title>Node19&#45;&gt;Node21</title>
<path fill="none" stroke="midnightblue" d="M255.418,-324.502C263.507,-327.487 271.075,-331.804 277,-337.991 334.333,-397.857 256.034,-460.774 313,-520.991 317.862,-526.13 323.904,-529.955 330.429,-532.791"/>
<polygon fill="midnightblue" stroke="midnightblue" points="256.335,-321.123 245.75,-321.575 254.307,-327.822 256.335,-321.123"/>
</g>
<!-- Node20&#45;&gt;Node4 -->
<g id="edge35" class="edge"><title>Node20&#45;&gt;Node4</title>
<path fill="none" stroke="midnightblue" d="M440.059,-122.817C448.345,-125.882 456.624,-129.579 464,-133.991 501.32,-156.31 535.511,-196.129 550.08,-214.377"/>
<polygon fill="midnightblue" stroke="midnightblue" points="440.978,-119.432 430.383,-119.503 438.71,-126.054 440.978,-119.432"/>
</g>
<!-- Node21&#45;&gt;Node11 -->
<g id="edge37" class="edge"><title>Node21&#45;&gt;Node11</title>
<path fill="none" stroke="midnightblue" d="M456.916,-539.991C480.732,-539.991 506.401,-539.991 525.847,-539.991"/>
<polygon fill="midnightblue" stroke="midnightblue" points="456.846,-536.491 446.846,-539.991 456.846,-543.491 456.846,-536.491"/>
</g>
<!-- Node22&#45;&gt;Node12 -->
<g id="edge40" class="edge"><title>Node22&#45;&gt;Node12</title>
<path fill="none" stroke="midnightblue" d="M237.491,-780.335C290.446,-794.99 387.293,-814.233 464,-786.991 501.651,-773.619 535.167,-737.894 549.759,-720.615"/>
<polygon fill="midnightblue" stroke="midnightblue" points="238.394,-776.953 227.817,-777.572 236.471,-783.684 238.394,-776.953"/>
</g>
<!-- Node23 -->
<g id="node23" class="node"><title>Node23</title>
<g id="a_node23"><a xlink:href="../../dd/d20/ciptcpipinterface_8c.html#ac5a74c6d9822446c5b7beeb949c93b11" target="_top" xlink:title="GetAttributeAllTcpIpInterface">
<polygon fill="none" stroke="black" points="317,-758.491 317,-777.491 460,-777.491 460,-758.491 317,-758.491"/>
<text text-anchor="middle" x="388.5" y="-765.491" font-family="Helvetica,sans-Serif" font-size="10.00">GetAttributeAllTcpIpInterface</text>
</a>
</g>
</g>
<!-- Node22&#45;&gt;Node23 -->
<g id="edge41" class="edge"><title>Node22&#45;&gt;Node23</title>
<path fill="none" stroke="midnightblue" d="M287.276,-767.991C297.172,-767.991 307.153,-767.991 316.781,-767.991"/>
<polygon fill="midnightblue" stroke="midnightblue" points="287.011,-764.491 277.011,-767.991 287.011,-771.491 287.011,-764.491"/>
</g>
<!-- Node23&#45;&gt;Node12 -->
<g id="edge42" class="edge"><title>Node23&#45;&gt;Node12</title>
<path fill="none" stroke="midnightblue" d="M429.236,-755.414C440.495,-751.79 452.747,-747.788 464,-743.991 486.671,-736.34 512.288,-727.268 530.968,-720.574"/>
<polygon fill="midnightblue" stroke="midnightblue" points="428.103,-752.102 419.649,-758.487 430.24,-758.768 428.103,-752.102"/>
</g>
<!-- Node24&#45;&gt;Node3 -->
<g id="edge45" class="edge"><title>Node24&#45;&gt;Node3</title>
<path fill="none" stroke="midnightblue" d="M223.039,-408.084C251.003,-391.272 295.14,-365.317 313,-357.991 323.16,-353.823 334.455,-350.273 345.115,-347.373"/>
<polygon fill="midnightblue" stroke="midnightblue" points="220.991,-405.232 214.237,-413.395 224.607,-411.225 220.991,-405.232"/>
</g>
<!-- Node24&#45;&gt;Node4 -->
<g id="edge48" class="edge"><title>Node24&#45;&gt;Node4</title>
<path fill="none" stroke="midnightblue" d="M233.965,-409.035C249.228,-401.383 266.045,-390.466 277,-375.991 313.955,-327.159 265.848,-282.066 313,-242.991 370.86,-195.041 465.159,-204.178 518.147,-214.477"/>
<polygon fill="midnightblue" stroke="midnightblue" points="232.287,-405.956 224.728,-413.38 235.267,-412.29 232.287,-405.956"/>
</g>
<!-- Node24&#45;&gt;Node9 -->
<g id="edge51" class="edge"><title>Node24&#45;&gt;Node9</title>
<path fill="none" stroke="midnightblue" d="M246.514,-431.729C266.934,-435.026 291.054,-438.37 313,-439.991 379.929,-444.932 397.16,-446.017 464,-439.991 482.568,-438.316 502.962,-434.808 519.951,-431.411"/>
<polygon fill="midnightblue" stroke="midnightblue" points="246.948,-428.253 236.51,-430.07 245.803,-435.158 246.948,-428.253"/>
</g>
<!-- Node24&#45;&gt;Node11 -->
<g id="edge54" class="edge"><title>Node24&#45;&gt;Node11</title>
<path fill="none" stroke="midnightblue" d="M212.882,-440.457C242.857,-476.809 309.535,-557.378 313,-558.991 386.922,-593.387 487.066,-565.691 532.836,-549.552"/>
<polygon fill="midnightblue" stroke="midnightblue" points="215.493,-438.122 206.432,-432.631 210.091,-442.574 215.493,-438.122"/>
</g>
<!-- Node24&#45;&gt;Node12 -->
<g id="edge55" class="edge"><title>Node24&#45;&gt;Node12</title>
<path fill="none" stroke="midnightblue" d="M215.978,-439.946C233.578,-457.88 260.431,-487.718 277,-517.991 302.104,-563.856 276.193,-592.854 313,-629.991 364.31,-681.759 449.403,-700.442 504.456,-707.184"/>
<polygon fill="midnightblue" stroke="midnightblue" points="218.16,-437.178 208.612,-432.585 213.212,-442.129 218.16,-437.178"/>
</g>
<!-- Node24&#45;&gt;Node16 -->
<g id="edge44" class="edge"><title>Node24&#45;&gt;Node16</title>
<path fill="none" stroke="midnightblue" d="M214.191,-440.125C230.756,-458.622 257.165,-489.298 277,-517.991 295.338,-544.518 285.107,-564.804 313,-580.991 369.447,-613.748 559.017,-589.503 654.72,-574.504"/>
<polygon fill="midnightblue" stroke="midnightblue" points="216.634,-437.608 207.332,-432.535 211.44,-442.301 216.634,-437.608"/>
</g>
<!-- Node25 -->
<g id="node25" class="node"><title>Node25</title>
<g id="a_node25"><a xlink:href="../../d5/d35/cipconnectionmanager_8c.html#adfbeb6c3cf13ac50049d5063e54a71fd" target="_top" xlink:title="InitializeConnectionManager">
<polygon fill="none" stroke="black" points="318.5,-252.491 318.5,-271.491 458.5,-271.491 458.5,-252.491 318.5,-252.491"/>
<text text-anchor="middle" x="388.5" y="-259.491" font-family="Helvetica,sans-Serif" font-size="10.00">InitializeConnectionManager</text>
</a>
</g>
</g>
<!-- Node24&#45;&gt;Node25 -->
<g id="edge46" class="edge"><title>Node24&#45;&gt;Node25</title>
<path fill="none" stroke="midnightblue" d="M229.53,-408.748C244.987,-400.635 263.259,-389.408 277,-375.991 298.438,-355.058 292.785,-341.107 313,-318.991 330.799,-299.517 355.905,-281.864 371.942,-271.525"/>
<polygon fill="midnightblue" stroke="midnightblue" points="227.685,-405.759 220.335,-413.389 230.839,-412.008 227.685,-405.759"/>
</g>
<!-- Node26 -->
<g id="node26" class="node"><title>Node26</title>
<g id="a_node26"><a xlink:href="../../dd/dc4/cipidentity_8c.html#a5fc7e7b16b1a6f9c8c02a2700e77feb5" target="_top" xlink:title="InitializeCipIdentiy">
<polygon fill="none" stroke="black" points="340,-492.491 340,-511.491 437,-511.491 437,-492.491 340,-492.491"/>
<text text-anchor="middle" x="388.5" y="-499.491" font-family="Helvetica,sans-Serif" font-size="10.00">InitializeCipIdentiy</text>
</a>
</g>
</g>
<!-- Node24&#45;&gt;Node26 -->
<g id="edge49" class="edge"><title>Node24&#45;&gt;Node26</title>
<path fill="none" stroke="midnightblue" d="M225.505,-437.252C248.417,-449.038 282.354,-465.76 313,-477.991 326.378,-483.33 341.45,-488.362 354.52,-492.426"/>
<polygon fill="midnightblue" stroke="midnightblue" points="226.891,-434.029 216.403,-432.531 223.669,-440.243 226.891,-434.029"/>
</g>
<!-- Node27 -->
<g id="node27" class="node"><title>Node27</title>
<g id="a_node27"><a xlink:href="../../d9/d7d/cipmessagerouter_8c.html#aa48077419a6045debf033e81946ee40c" target="_top" xlink:title="InitializeCipMessageRouter\lClass">
<polygon fill="none" stroke="black" points="320,-366.991 320,-396.991 457,-396.991 457,-366.991 320,-366.991"/>
<text text-anchor="start" x="328" y="-384.991" font-family="Helvetica,sans-Serif" font-size="10.00">InitializeCipMessageRouter</text>
<text text-anchor="middle" x="388.5" y="-373.991" font-family="Helvetica,sans-Serif" font-size="10.00">Class</text>
</a>
</g>
</g>
<!-- Node24&#45;&gt;Node27 -->
<g id="edge52" class="edge"><title>Node24&#45;&gt;Node27</title>
<path fill="none" stroke="midnightblue" d="M246.617,-412.553C268.851,-407.729 295.641,-401.918 319.863,-396.663"/>
<polygon fill="midnightblue" stroke="midnightblue" points="245.778,-409.153 236.747,-414.694 247.262,-415.994 245.778,-409.153"/>
</g>
<!-- Node25&#45;&gt;Node13 -->
<g id="edge47" class="edge"><title>Node25&#45;&gt;Node13</title>
<path fill="none" stroke="midnightblue" d="M469.115,-261.991C479.481,-261.991 489.936,-261.991 499.847,-261.991"/>
<polygon fill="midnightblue" stroke="midnightblue" points="468.802,-258.491 458.802,-261.991 468.802,-265.491 468.802,-258.491"/>
</g>
<!-- Node26&#45;&gt;Node9 -->
<g id="edge50" class="edge"><title>Node26&#45;&gt;Node9</title>
<path fill="none" stroke="midnightblue" d="M434.323,-489.317C444.252,-486.025 454.608,-482.204 464,-477.991 493.555,-464.732 525.603,-444.462 543.452,-432.587"/>
<polygon fill="midnightblue" stroke="midnightblue" points="433.05,-486.05 424.59,-492.428 435.181,-492.717 433.05,-486.05"/>
</g>
<!-- Node27&#45;&gt;Node10 -->
<g id="edge53" class="edge"><title>Node27&#45;&gt;Node10</title>
<path fill="none" stroke="midnightblue" d="M467.68,-379.198C479,-378.794 490.462,-378.385 501.237,-378"/>
<polygon fill="midnightblue" stroke="midnightblue" points="467.216,-375.713 457.348,-379.567 467.466,-382.708 467.216,-375.713"/>
</g>
<!-- Node28&#45;&gt;Node11 -->
<g id="edge57" class="edge"><title>Node28&#45;&gt;Node11</title>
<path fill="none" stroke="midnightblue" d="M221.641,-551.953C243.994,-565.449 279.322,-584.321 313,-591.991 378.436,-606.892 399.038,-608.84 464,-591.991 495.643,-583.783 527.971,-562.283 545.085,-549.647"/>
<polygon fill="midnightblue" stroke="midnightblue" points="223.244,-548.829 212.898,-546.546 219.563,-554.782 223.244,-548.829"/>
</g>
<!-- Node29&#45;&gt;Node12 -->
<g id="edge59" class="edge"><title>Node29&#45;&gt;Node12</title>
<path fill="none" stroke="midnightblue" d="M222.511,-667.693C244.978,-680.561 279.945,-698.356 313,-705.991 377.534,-720.895 454.209,-719.492 504.265,-716.121"/>
<polygon fill="midnightblue" stroke="midnightblue" points="224.087,-664.56 213.689,-662.524 220.548,-670.6 224.087,-664.56"/>
</g>
</g>
</svg>
        <g id="navigator" transform="translate(0 0)" fill="#404254">
                <rect fill="#f2f5e9" fill-opacity="0.5" stroke="#606060" stroke-width=".5" x="0" y="0" width="60" height="60"/>
                <use id="zoomplus" xlink:href="#zoomPlus" x="17" y="9" onmousedown="handleZoom(evt,'in')"/>
                <use id="zoomminus" xlink:href="#zoomMin" x="42" y="9" onmousedown="handleZoom(evt,'out')"/>
                <use id="reset" xlink:href="#resetDef" x="30" y="36" onmousedown="handleReset()"/>
                <g id="arrowUp" xlink:href="#dirArrow" transform="translate(30 24)" onmousedown="handlePan(0,-1)">
                  <use xlink:href="#rim" fill="#404040">
                        <set attributeName="fill" to="#808080" begin="arrowUp.mouseover" end="arrowUp.mouseout"/>
                  </use>
                  <path fill="none" stroke="white" stroke-width="1.5" d="M0,-3.0v7 M-2.5,-0.5L0,-3.0L2.5,-0.5"/>
                </g>
                <g id="arrowRight" xlink:href="#dirArrow" transform="rotate(90) translate(36 -43)" onmousedown="handlePan(1,0)">
                  <use xlink:href="#rim" fill="#404040">
                        <set attributeName="fill" to="#808080" begin="arrowRight.mouseover" end="arrowRight.mouseout"/>
                  </use>
                  <path fill="none" stroke="white" stroke-width="1.5" d="M0,-3.0v7 M-2.5,-0.5L0,-3.0L2.5,-0.5"/>
                </g>
                <g id="arrowDown" xlink:href="#dirArrow" transform="rotate(180) translate(-30 -48)" onmousedown="handlePan(0,1)">
                  <use xlink:href="#rim" fill="#404040">
                        <set attributeName="fill" to="#808080" begin="arrowDown.mouseover" end="arrowDown.mouseout"/>
                  </use>
                  <path fill="none" stroke="white" stroke-width="1.5" d="M0,-3.0v7 M-2.5,-0.5L0,-3.0L2.5,-0.5"/>
                </g>
                <g id="arrowLeft" xlink:href="#dirArrow" transform="rotate(270) translate(-36 17)" onmousedown="handlePan(-1,0)">
                  <use xlink:href="#rim" fill="#404040">
                        <set attributeName="fill" to="#808080" begin="arrowLeft.mouseover" end="arrowLeft.mouseout"/>
                  </use>
                  <path fill="none" stroke="white" stroke-width="1.5" d="M0,-3.0v7 M-2.5,-0.5L0,-3.0L2.5,-0.5"/>
                </g>
        </g>
        <svg viewBox="0 0 15 15" width="100%" height="30px" preserveAspectRatio="xMaxYMin meet">
         <g id="arrow_out" transform="scale(0.3 0.3)">
          <a xlink:href="group__CIP__API_ga1eb3004bbf086b276500e1d6e7a2f677_icgraph_org.svg" target="_base">
           <rect id="button" ry="5" rx="5" y="6" x="6" height="38" width="38"
                fill="#f2f5e9" fill-opacity="0.5" stroke="#606060" stroke-width="1.0"/>
           <path id="arrow"
             d="M 11.500037,31.436501 C 11.940474,20.09759 22.043105,11.32322 32.158766,21.979434 L 37.068811,17.246167 C 37.068811,17.246167 37.088388,32 37.088388,32 L 22.160133,31.978069 C 22.160133,31.978069 26.997745,27.140456 26.997745,27.140456 C 18.528582,18.264221 13.291696,25.230495 11.500037,31.436501 z"
             style="fill:#404040;"/>
          </a>
         </g>
        </svg>
</svg>
