<?xml version="1.0" encoding="UTF-8" standalone="no"?>
<!DOCTYPE svg PUBLIC "-//W3C//DTD SVG 1.1//EN"
 "http://www.w3.org/Graphics/SVG/1.1/DTD/svg11.dtd">
<!-- Generated by graphviz version 2.38.0 (20140413.2041)
 -->
<!-- Title: AddCipInstances Pages: 1 -->
<svg width="985pt" height="294pt"
 viewBox="0.00 0.00 985.00 294.00" xmlns="http://www.w3.org/2000/svg" xmlns:xlink="http://www.w3.org/1999/xlink">
<g id="graph0" class="graph" transform="scale(1 1) rotate(0) translate(4 290)">
<title>AddCipInstances</title>
<!-- Node1 -->
<g id="node1" class="node"><title>Node1</title>
<polygon fill="#bfbfbf" stroke="black" points="0,-180.5 0,-199.5 92,-199.5 92,-180.5 0,-180.5"/>
<text text-anchor="middle" x="46" y="-187.5" font-family="Helvetica,sans-Serif" font-size="10.00">AddCipInstances</text>
</g>
<!-- Node2 -->
<g id="node2" class="node"><title>Node2</title>
<g id="a_node2"><a xlink:href="../../d2/dc9/group__CIP__API.html#ga180023c8528628f7d83023e4db81287a" target="_top" xlink:title="Create one instance of a given class with a certain instance number. ">
<polygon fill="none" stroke="black" points="128,-228.5 128,-247.5 217,-247.5 217,-228.5 128,-228.5"/>
<text text-anchor="middle" x="172.5" y="-235.5" font-family="Helvetica,sans-Serif" font-size="10.00">AddCIPInstance</text>
</a>
</g>
</g>
<!-- Node1&#45;&gt;Node2 -->
<g id="edge1" class="edge"><title>Node1&#45;&gt;Node2</title>
<path fill="none" stroke="midnightblue" d="M81.2918,-203.221C101.998,-211.204 127.913,-221.196 146.648,-228.418"/>
<polygon fill="midnightblue" stroke="midnightblue" points="82.4849,-199.93 71.8952,-199.598 79.9667,-206.461 82.4849,-199.93"/>
</g>
<!-- Node5 -->
<g id="node5" class="node"><title>Node5</title>
<g id="a_node5"><a xlink:href="../../d2/d3d/cipcommon_8c.html#a3dfa07bc40e59ba348d713272d1cbfdb" target="_top" xlink:title="CreateCipClass">
<polygon fill="none" stroke="black" points="129.5,-133.5 129.5,-152.5 215.5,-152.5 215.5,-133.5 129.5,-133.5"/>
<text text-anchor="middle" x="172.5" y="-140.5" font-family="Helvetica,sans-Serif" font-size="10.00">CreateCipClass</text>
</a>
</g>
</g>
<!-- Node1&#45;&gt;Node5 -->
<g id="edge4" class="edge"><title>Node1&#45;&gt;Node5</title>
<path fill="none" stroke="midnightblue" d="M81.7439,-176.884C102.105,-169.197 127.38,-159.656 145.916,-152.658"/>
<polygon fill="midnightblue" stroke="midnightblue" points="80.3138,-173.683 72.1944,-180.489 82.7861,-180.231 80.3138,-173.683"/>
</g>
<!-- Node3 -->
<g id="node3" class="node"><title>Node3</title>
<g id="a_node3"><a xlink:href="../../d2/dc9/group__CIP__API.html#gae61b613fed863d30428e78b2311bf593" target="_top" xlink:title="Create an instance of an assembly object. ">
<polygon fill="none" stroke="black" points="406,-266.5 406,-285.5 524,-285.5 524,-266.5 406,-266.5"/>
<text text-anchor="middle" x="465" y="-273.5" font-family="Helvetica,sans-Serif" font-size="10.00">CreateAssemblyObject</text>
</a>
</g>
</g>
<!-- Node2&#45;&gt;Node3 -->
<g id="edge2" class="edge"><title>Node2&#45;&gt;Node3</title>
<path fill="none" stroke="midnightblue" d="M218.512,-249.955C229.714,-252.599 241.742,-255.158 253,-257 304.361,-265.405 363.408,-270.323 405.952,-273.041"/>
<polygon fill="midnightblue" stroke="midnightblue" points="219.044,-246.483 208.501,-247.521 217.391,-253.285 219.044,-246.483"/>
</g>
<!-- Node4 -->
<g id="node4" class="node"><title>Node4</title>
<g id="a_node4"><a xlink:href="../../d5/dc5/group__CIP__CALLBACK__API.html#gae93106eb1647bff3ad56a7752799d878" target="_top" xlink:title="Callback for the application initialization. ">
<polygon fill="none" stroke="black" points="560,-266.5 560,-285.5 676,-285.5 676,-266.5 560,-266.5"/>
<text text-anchor="middle" x="618" y="-273.5" font-family="Helvetica,sans-Serif" font-size="10.00">ApplicationInitialization</text>
</a>
</g>
</g>
<!-- Node3&#45;&gt;Node4 -->
<g id="edge3" class="edge"><title>Node3&#45;&gt;Node4</title>
<path fill="none" stroke="midnightblue" d="M534.571,-276C542.995,-276 551.536,-276 559.769,-276"/>
<polygon fill="midnightblue" stroke="midnightblue" points="534.381,-272.5 524.381,-276 534.381,-279.5 534.381,-272.5"/>
</g>
<!-- Node6 -->
<g id="node6" class="node"><title>Node6</title>
<g id="a_node6"><a xlink:href="../../dd/d4d/cipethernetlink_8h.html#ad6d2028b90ec96ad148d092a30acb7d6" target="_top" xlink:title="Initialize the Ethernet Link Objects data. ">
<polygon fill="none" stroke="black" points="415,-190.5 415,-209.5 515,-209.5 515,-190.5 415,-190.5"/>
<text text-anchor="middle" x="465" y="-197.5" font-family="Helvetica,sans-Serif" font-size="10.00">CipEthernetLinkInit</text>
</a>
</g>
</g>
<!-- Node5&#45;&gt;Node6 -->
<g id="edge5" class="edge"><title>Node5&#45;&gt;Node6</title>
<path fill="none" stroke="midnightblue" d="M214.94,-155.359C227.134,-158.753 240.545,-162.252 253,-165 307.934,-177.122 371.746,-187.154 414.688,-193.325"/>
<polygon fill="midnightblue" stroke="midnightblue" points="215.606,-151.909 205.03,-152.55 213.697,-158.644 215.606,-151.909"/>
</g>
<!-- Node11 -->
<g id="node11" class="node"><title>Node11</title>
<g id="a_node11"><a xlink:href="../../dc/d72/cipidentity_8h.html#a5d5136e167300543aa046057b56ae813" target="_top" xlink:title="CIP Identity object constructor. ">
<polygon fill="none" stroke="black" points="426.5,-152.5 426.5,-171.5 503.5,-171.5 503.5,-152.5 426.5,-152.5"/>
<text text-anchor="middle" x="465" y="-159.5" font-family="Helvetica,sans-Serif" font-size="10.00">CipIdentityInit</text>
</a>
</g>
</g>
<!-- Node5&#45;&gt;Node11 -->
<g id="edge10" class="edge"><title>Node5&#45;&gt;Node11</title>
<path fill="none" stroke="midnightblue" d="M225.766,-146.418C283.542,-150.197 375.184,-156.191 426.329,-159.536"/>
<polygon fill="midnightblue" stroke="midnightblue" points="225.948,-142.923 215.741,-145.763 225.491,-149.908 225.948,-142.923"/>
</g>
<!-- Node12 -->
<g id="node12" class="node"><title>Node12</title>
<g id="a_node12"><a xlink:href="../../d2/d75/cipmessagerouter_8h.html#aa3456b75c1b2289296323b578fee2d3d" target="_top" xlink:title="Initialize the data structures of the message router. ">
<polygon fill="none" stroke="black" points="408,-114.5 408,-133.5 522,-133.5 522,-114.5 408,-114.5"/>
<text text-anchor="middle" x="465" y="-121.5" font-family="Helvetica,sans-Serif" font-size="10.00">CipMessageRouterInit</text>
</a>
</g>
</g>
<!-- Node5&#45;&gt;Node12 -->
<g id="edge12" class="edge"><title>Node5&#45;&gt;Node12</title>
<path fill="none" stroke="midnightblue" d="M225.951,-139.569C277.265,-136.213 355.163,-131.118 407.744,-127.679"/>
<polygon fill="midnightblue" stroke="midnightblue" points="225.491,-136.092 215.741,-140.237 225.948,-143.077 225.491,-136.092"/>
</g>
<!-- Node13 -->
<g id="node13" class="node"><title>Node13</title>
<g id="a_node13"><a xlink:href="../../d0/d3c/cipqos_8h.html#ab9a656060dcf03c3f51dbd967dff3f52" target="_top" xlink:title="CipQoSInit">
<polygon fill="none" stroke="black" points="279,-76.5 279,-95.5 344,-95.5 344,-76.5 279,-76.5"/>
<text text-anchor="middle" x="311.5" y="-83.5" font-family="Helvetica,sans-Serif" font-size="10.00">CipQoSInit</text>
</a>
</g>
</g>
<!-- Node5&#45;&gt;Node13 -->
<g id="edge14" class="edge"><title>Node5&#45;&gt;Node13</title>
<path fill="none" stroke="midnightblue" d="M205.898,-129.521C230.994,-119.079 265.142,-104.871 287.494,-95.5716"/>
<polygon fill="midnightblue" stroke="midnightblue" points="204.319,-126.387 196.431,-133.459 207.008,-132.85 204.319,-126.387"/>
</g>
<!-- Node14 -->
<g id="node14" class="node"><title>Node14</title>
<g id="a_node14"><a xlink:href="../../d1/dad/ciptcpipinterface_8h.html#a4c1f49654e48c5581513d990840933b0" target="_top" xlink:title="Initializing the data structures of the TCP/IP interface object. ">
<polygon fill="none" stroke="black" points="257.5,-38.5 257.5,-57.5 365.5,-57.5 365.5,-38.5 257.5,-38.5"/>
<text text-anchor="middle" x="311.5" y="-45.5" font-family="Helvetica,sans-Serif" font-size="10.00">CipTcpIpInterfaceInit</text>
</a>
</g>
</g>
<!-- Node5&#45;&gt;Node14 -->
<g id="edge16" class="edge"><title>Node5&#45;&gt;Node14</title>
<path fill="none" stroke="midnightblue" d="M187.816,-125.347C202.537,-108.244 226.936,-82.6594 253,-67 259.308,-63.2098 266.466,-60.0718 273.537,-57.5127"/>
<polygon fill="midnightblue" stroke="midnightblue" points="184.789,-123.51 181.043,-133.42 190.151,-128.009 184.789,-123.51"/>
</g>
<!-- Node15 -->
<g id="node15" class="node"><title>Node15</title>
<g id="a_node15"><a xlink:href="../../d2/da3/cipconnectionmanager_8h.html#a5ab0de6894d23e8fe84a6b46797c2212" target="_top" xlink:title="Initialize the data of the connection manager object. ">
<polygon fill="none" stroke="black" points="253,-0.5 253,-19.5 370,-19.5 370,-0.5 253,-0.5"/>
<text text-anchor="middle" x="311.5" y="-7.5" font-family="Helvetica,sans-Serif" font-size="10.00">ConnectionManagerInit</text>
</a>
</g>
</g>
<!-- Node5&#45;&gt;Node15 -->
<g id="edge18" class="edge"><title>Node5&#45;&gt;Node15</title>
<path fill="none" stroke="midnightblue" d="M181.827,-124.278C193.956,-99.077 218.822,-54.4729 253,-29 258.142,-25.1675 264.098,-22.0827 270.189,-19.6068"/>
<polygon fill="midnightblue" stroke="midnightblue" points="178.587,-122.945 177.547,-133.488 184.935,-125.894 178.587,-122.945"/>
</g>
<!-- Node16 -->
<g id="node16" class="node"><title>Node16</title>
<g id="a_node16"><a xlink:href="../../df/d2e/cipassembly_8c.html#a5973ef42110a1bdf6c7699e35e04b7d4" target="_top" xlink:title="Constructor for the assembly object class. ">
<polygon fill="none" stroke="black" points="254,-228.5 254,-247.5 369,-247.5 369,-228.5 254,-228.5"/>
<text text-anchor="middle" x="311.5" y="-235.5" font-family="Helvetica,sans-Serif" font-size="10.00">CreateAssemblyClass</text>
</a>
</g>
</g>
<!-- Node5&#45;&gt;Node16 -->
<g id="edge20" class="edge"><title>Node5&#45;&gt;Node16</title>
<path fill="none" stroke="midnightblue" d="M189.532,-160.299C204.712,-175.912 228.734,-198.712 253,-214 262.061,-219.708 272.713,-224.591 282.37,-228.433"/>
<polygon fill="midnightblue" stroke="midnightblue" points="191.879,-157.689 182.445,-152.868 186.813,-162.52 191.879,-157.689"/>
</g>
<!-- Node7 -->
<g id="node7" class="node"><title>Node7</title>
<g id="a_node7"><a xlink:href="../../d2/dc9/group__CIP__API.html#ga5d4979945d124e28668b264c3823db1c" target="_top" xlink:title="Initialize and setup the CIP&#45;stack. ">
<polygon fill="none" stroke="black" points="582.5,-114.5 582.5,-133.5 653.5,-133.5 653.5,-114.5 582.5,-114.5"/>
<text text-anchor="middle" x="618" y="-121.5" font-family="Helvetica,sans-Serif" font-size="10.00">CipStackInit</text>
</a>
</g>
</g>
<!-- Node6&#45;&gt;Node7 -->
<g id="edge6" class="edge"><title>Node6&#45;&gt;Node7</title>
<path fill="none" stroke="midnightblue" d="M509.273,-187.068C514.306,-185.2 519.312,-183.168 524,-181 553.907,-167.168 586.123,-145.806 603.693,-133.541"/>
<polygon fill="midnightblue" stroke="midnightblue" points="507.913,-183.836 499.638,-190.453 510.233,-190.44 507.913,-183.836"/>
</g>
<!-- Node8 -->
<g id="node8" class="node"><title>Node8</title>
<g id="a_node8"><a xlink:href="../../d5/dcb/MINGW_2main_8c.html#ad338a7dbc41dc40bcecd0479377ef207" target="_top" xlink:title="main">
<polygon fill="none" stroke="black" points="712,-114.5 712,-133.5 750,-133.5 750,-114.5 712,-114.5"/>
<text text-anchor="middle" x="731" y="-121.5" font-family="Helvetica,sans-Serif" font-size="10.00">main</text>
</a>
</g>
</g>
<!-- Node7&#45;&gt;Node8 -->
<g id="edge7" class="edge"><title>Node7&#45;&gt;Node8</title>
<path fill="none" stroke="midnightblue" d="M663.783,-124C680.658,-124 698.907,-124 711.965,-124"/>
<polygon fill="midnightblue" stroke="midnightblue" points="663.513,-120.5 653.513,-124 663.513,-127.5 663.513,-120.5"/>
</g>
<!-- Node9 -->
<g id="node9" class="node"><title>Node9</title>
<g id="a_node9"><a xlink:href="../../d8/d03/ports_2MINGW_2CMakeLists_8txt.html#a7e00df43a20d627a1732be7766d91097" target="_top" xlink:title="add_library">
<polygon fill="none" stroke="black" points="786,-114.5 786,-133.5 850,-133.5 850,-114.5 786,-114.5"/>
<text text-anchor="middle" x="818" y="-121.5" font-family="Helvetica,sans-Serif" font-size="10.00">add_library</text>
</a>
</g>
</g>
<!-- Node8&#45;&gt;Node9 -->
<g id="edge8" class="edge"><title>Node8&#45;&gt;Node9</title>
<path fill="none" stroke="midnightblue" d="M760.267,-124C768.504,-124 777.546,-124 785.945,-124"/>
<polygon fill="midnightblue" stroke="midnightblue" points="760.026,-120.5 750.026,-124 760.026,-127.5 760.026,-120.5"/>
</g>
<!-- Node10 -->
<g id="node10" class="node"><title>Node10</title>
<g id="a_node10"><a xlink:href="../../d8/dce/ports_2CMakeLists_8txt.html#a598fae457555a5fb26e18d4cd8f89de9" target="_top" xlink:title="add_subdirectory">
<polygon fill="none" stroke="black" points="886,-114.5 886,-133.5 977,-133.5 977,-114.5 886,-114.5"/>
<text text-anchor="middle" x="931.5" y="-121.5" font-family="Helvetica,sans-Serif" font-size="10.00">add_subdirectory</text>
</a>
</g>
</g>
<!-- Node9&#45;&gt;Node10 -->
<g id="edge9" class="edge"><title>Node9&#45;&gt;Node10</title>
<path fill="none" stroke="midnightblue" d="M860.3,-124C868.629,-124 877.419,-124 885.856,-124"/>
<polygon fill="midnightblue" stroke="midnightblue" points="860.059,-120.5 850.059,-124 860.059,-127.5 860.059,-120.5"/>
</g>
<!-- Node11&#45;&gt;Node7 -->
<g id="edge11" class="edge"><title>Node11&#45;&gt;Node7</title>
<path fill="none" stroke="midnightblue" d="M513.653,-150.008C535.935,-144.401 561.979,-137.846 582.349,-132.72"/>
<polygon fill="midnightblue" stroke="midnightblue" points="512.558,-146.674 503.714,-152.509 514.266,-153.463 512.558,-146.674"/>
</g>
<!-- Node12&#45;&gt;Node7 -->
<g id="edge13" class="edge"><title>Node12&#45;&gt;Node7</title>
<path fill="none" stroke="midnightblue" d="M532.262,-124C549.481,-124 567.35,-124 582.215,-124"/>
<polygon fill="midnightblue" stroke="midnightblue" points="532.227,-120.5 522.227,-124 532.227,-127.5 532.227,-120.5"/>
</g>
<!-- Node13&#45;&gt;Node7 -->
<g id="edge15" class="edge"><title>Node13&#45;&gt;Node7</title>
<path fill="none" stroke="midnightblue" d="M354.201,-88.3638C396.976,-91.112 465.365,-96.4043 524,-105 543.403,-107.844 564.863,-112.15 582.274,-115.944"/>
<polygon fill="midnightblue" stroke="midnightblue" points="354.361,-84.8671 344.162,-87.7354 353.924,-91.8534 354.361,-84.8671"/>
</g>
<!-- Node14&#45;&gt;Node7 -->
<g id="edge17" class="edge"><title>Node14&#45;&gt;Node7</title>
<path fill="none" stroke="midnightblue" d="M375.619,-56.848C418.033,-63.5448 474.932,-73.9897 524,-88 549.138,-95.1777 576.978,-106.413 595.585,-114.422"/>
<polygon fill="midnightblue" stroke="midnightblue" points="376.128,-53.3851 365.709,-55.3098 375.054,-60.3023 376.128,-53.3851"/>
</g>
<!-- Node15&#45;&gt;Node7 -->
<g id="edge19" class="edge"><title>Node15&#45;&gt;Node7</title>
<path fill="none" stroke="midnightblue" d="M380.092,-18.398C422.718,-25.3571 478.171,-37.524 524,-58 556.899,-72.6989 590.025,-99.8563 606.427,-114.329"/>
<polygon fill="midnightblue" stroke="midnightblue" points="380.522,-14.9227 370.099,-16.8231 379.433,-21.8373 380.522,-14.9227"/>
</g>
<!-- Node16&#45;&gt;Node3 -->
<g id="edge23" class="edge"><title>Node16&#45;&gt;Node3</title>
<path fill="none" stroke="midnightblue" d="M360.502,-250.04C381.667,-255.349 406.186,-261.499 426.045,-266.48"/>
<polygon fill="midnightblue" stroke="midnightblue" points="361.281,-246.627 350.73,-247.589 359.578,-253.417 361.281,-246.627"/>
</g>
<!-- Node17 -->
<g id="node17" class="node"><title>Node17</title>
<g id="a_node17"><a xlink:href="../../de/df4/cipassembly_8h.html#a4dfbc2c7a8e9e77f05a0a7236210f5b4" target="_top" xlink:title="Setup the Assembly object. ">
<polygon fill="none" stroke="black" points="409.5,-228.5 409.5,-247.5 520.5,-247.5 520.5,-228.5 409.5,-228.5"/>
<text text-anchor="middle" x="465" y="-235.5" font-family="Helvetica,sans-Serif" font-size="10.00">CipAssemblyInitialize</text>
</a>
</g>
</g>
<!-- Node16&#45;&gt;Node17 -->
<g id="edge21" class="edge"><title>Node16&#45;&gt;Node17</title>
<path fill="none" stroke="midnightblue" d="M379.606,-238C389.551,-238 399.698,-238 409.349,-238"/>
<polygon fill="midnightblue" stroke="midnightblue" points="379.344,-234.5 369.344,-238 379.344,-241.5 379.344,-234.5"/>
</g>
<!-- Node17&#45;&gt;Node7 -->
<g id="edge22" class="edge"><title>Node17&#45;&gt;Node7</title>
<path fill="none" stroke="midnightblue" d="M513.35,-224.647C517.056,-222.958 520.654,-221.081 524,-219 562.22,-195.234 596.174,-152.554 610.186,-133.563"/>
<polygon fill="midnightblue" stroke="midnightblue" points="511.932,-221.445 503.997,-228.465 514.579,-227.925 511.932,-221.445"/>
</g>
</g>
</svg>
