<?xml version="1.0" encoding="UTF-8" standalone="no"?>
<!DOCTYPE svg PUBLIC "-//W3C//DTD SVG 1.1//EN"
 "http://www.w3.org/Graphics/SVG/1.1/DTD/svg11.dtd">
<!-- Generated by graphviz version 2.38.0 (20140413.2041)
 -->
<!-- Title: InsertService Pages: 1 -->
<!--zoomable 294 -->
<svg id="main" version="1.1" xmlns="http://www.w3.org/2000/svg" xmlns:xlink="http://www.w3.org/1999/xlink" xml:space="preserve" onload="init(evt)">
<style type="text/css"><![CDATA[
.edge:hover path { stroke: red; }
.edge:hover polygon { stroke: red; fill: red; }
]]></style>
<script type="text/javascript"><![CDATA[
var edges = document.getElementsByTagName('g');
if (edges && edges.length) {
  for (var i=0;i<edges.length;i++) {
    if (edges[i].id.substr(0,4)=='edge') {
      edges[i].setAttribute('class','edge');
    }
  }
}
]]></script>
        <defs>
                <circle id="rim" cx="0" cy="0" r="7"/>
                <circle id="rim2" cx="0" cy="0" r="3.5"/>
                <g id="zoomPlus">
                        <use xlink:href="#rim" fill="#404040">
                                <set attributeName="fill" to="#808080" begin="zoomplus.mouseover" end="zoomplus.mouseout"/>
                        </use>
                        <path d="M-4,0h8M0,-4v8" fill="none" stroke="white" stroke-width="1.5" pointer-events="none"/>
                </g>
                <g id="zoomMin">
                        <use xlink:href="#rim" fill="#404040">
                                <set attributeName="fill" to="#808080" begin="zoomminus.mouseover" end="zoomminus.mouseout"/>
                        </use>
                        <path d="M-4,0h8" fill="none" stroke="white" stroke-width="1.5" pointer-events="none"/>
                </g>
                <g id="dirArrow">
                        <path fill="none" stroke="white" stroke-width="1.5" d="M0,-3.0v7 M-2.5,-0.5L0,-3.0L2.5,-0.5"/>
                </g>
               <g id="resetDef">
                       <use xlink:href="#rim2" fill="#404040">
                               <set attributeName="fill" to="#808080" begin="reset.mouseover" end="reset.mouseout"/>
                       </use>
               </g>
        </defs>

<script type="text/javascript">
var viewWidth = 964;
var viewHeight = 294;
var sectionId = 'dynsection-37';
</script>
<script xlink:href="../../svgpan.js"/>
<svg id="graph" class="graph">
<g id="viewport">
<title>InsertService</title>
<!-- Node1 -->
<g id="node1" class="node"><title>Node1</title>
<polygon fill="#bfbfbf" stroke="black" points="0,-143.5 0,-162.5 74,-162.5 74,-143.5 0,-143.5"/>
<text text-anchor="middle" x="37" y="-150.5" font-family="Helvetica,sans-Serif" font-size="10.00">InsertService</text>
</g>
<!-- Node2 -->
<g id="node2" class="node"><title>Node2</title>
<g id="a_node2"><a xlink:href="../../dd/d4d/cipethernetlink_8h.html#ad6d2028b90ec96ad148d092a30acb7d6" target="_top" xlink:title="Initialize the Ethernet Link Objects data. ">
<polygon fill="none" stroke="black" points="240.5,-266.5 240.5,-285.5 340.5,-285.5 340.5,-266.5 240.5,-266.5"/>
<text text-anchor="middle" x="290.5" y="-273.5" font-family="Helvetica,sans-Serif" font-size="10.00">CipEthernetLinkInit</text>
</a>
</g>
</g>
<!-- Node1&#45;&gt;Node2 -->
<g id="edge1" class="edge"><title>Node1&#45;&gt;Node2</title>
<path fill="none" stroke="midnightblue" d="M49.0094,-171.207C61.4303,-190.131 83.4081,-219.154 110,-235 149.954,-258.809 202.476,-268.798 240.373,-272.986"/>
<polygon fill="midnightblue" stroke="midnightblue" points="51.8621,-169.17 43.5561,-162.592 45.9476,-172.914 51.8621,-169.17"/>
</g>
<!-- Node7 -->
<g id="node7" class="node"><title>Node7</title>
<g id="a_node7"><a xlink:href="../../dc/d72/cipidentity_8h.html#a5d5136e167300543aa046057b56ae813" target="_top" xlink:title="CIP Identity object constructor. ">
<polygon fill="none" stroke="black" points="252,-228.5 252,-247.5 329,-247.5 329,-228.5 252,-228.5"/>
<text text-anchor="middle" x="290.5" y="-235.5" font-family="Helvetica,sans-Serif" font-size="10.00">CipIdentityInit</text>
</a>
</g>
</g>
<!-- Node1&#45;&gt;Node7 -->
<g id="edge6" class="edge"><title>Node1&#45;&gt;Node7</title>
<path fill="none" stroke="midnightblue" d="M54.3299,-170.061C67.9389,-183.181 88.5085,-200.603 110,-210 156.093,-230.154 214.429,-236.063 251.86,-237.655"/>
<polygon fill="midnightblue" stroke="midnightblue" points="56.7223,-167.504 47.1671,-162.927 51.7824,-172.464 56.7223,-167.504"/>
</g>
<!-- Node8 -->
<g id="node8" class="node"><title>Node8</title>
<g id="a_node8"><a xlink:href="../../d2/d75/cipmessagerouter_8h.html#aa3456b75c1b2289296323b578fee2d3d" target="_top" xlink:title="Initialize the data structures of the message router. ">
<polygon fill="none" stroke="black" points="233.5,-190.5 233.5,-209.5 347.5,-209.5 347.5,-190.5 233.5,-190.5"/>
<text text-anchor="middle" x="290.5" y="-197.5" font-family="Helvetica,sans-Serif" font-size="10.00">CipMessageRouterInit</text>
</a>
</g>
</g>
<!-- Node1&#45;&gt;Node8 -->
<g id="edge8" class="edge"><title>Node1&#45;&gt;Node8</title>
<path fill="none" stroke="midnightblue" d="M60.5367,-168.178C74.2195,-176.535 92.3916,-186.167 110,-191 150.17,-202.025 197.258,-203.999 233.125,-203.363"/>
<polygon fill="midnightblue" stroke="midnightblue" points="62.1639,-165.066 51.8433,-162.671 58.4178,-170.979 62.1639,-165.066"/>
</g>
<!-- Node9 -->
<g id="node9" class="node"><title>Node9</title>
<g id="a_node9"><a xlink:href="../../d0/d3c/cipqos_8h.html#ab9a656060dcf03c3f51dbd967dff3f52" target="_top" xlink:title="CipQoSInit">
<polygon fill="none" stroke="black" points="258,-152.5 258,-171.5 323,-171.5 323,-152.5 258,-152.5"/>
<text text-anchor="middle" x="290.5" y="-159.5" font-family="Helvetica,sans-Serif" font-size="10.00">CipQoSInit</text>
</a>
</g>
</g>
<!-- Node1&#45;&gt;Node9 -->
<g id="edge10" class="edge"><title>Node1&#45;&gt;Node9</title>
<path fill="none" stroke="midnightblue" d="M84.3409,-151.832C115.845,-151.324 158.46,-151.197 196,-153 216.687,-153.993 239.86,-156.216 257.961,-158.204"/>
<polygon fill="midnightblue" stroke="midnightblue" points="84.0414,-148.336 74.1061,-152.016 84.1676,-155.335 84.0414,-148.336"/>
</g>
<!-- Node10 -->
<g id="node10" class="node"><title>Node10</title>
<g id="a_node10"><a xlink:href="../../d1/dad/ciptcpipinterface_8h.html#a4c1f49654e48c5581513d990840933b0" target="_top" xlink:title="Initializing the data structures of the TCP/IP interface object. ">
<polygon fill="none" stroke="black" points="236.5,-114.5 236.5,-133.5 344.5,-133.5 344.5,-114.5 236.5,-114.5"/>
<text text-anchor="middle" x="290.5" y="-121.5" font-family="Helvetica,sans-Serif" font-size="10.00">CipTcpIpInterfaceInit</text>
</a>
</g>
</g>
<!-- Node1&#45;&gt;Node10 -->
<g id="edge12" class="edge"><title>Node1&#45;&gt;Node10</title>
<path fill="none" stroke="midnightblue" d="M84.2231,-147.67C127.243,-142.71 191.324,-135.321 236.42,-130.121"/>
<polygon fill="midnightblue" stroke="midnightblue" points="83.567,-144.222 74.0338,-148.845 84.3689,-151.176 83.567,-144.222"/>
</g>
<!-- Node11 -->
<g id="node11" class="node"><title>Node11</title>
<g id="a_node11"><a xlink:href="../../d2/da3/cipconnectionmanager_8h.html#a5ab0de6894d23e8fe84a6b46797c2212" target="_top" xlink:title="Initialize the data of the connection manager object. ">
<polygon fill="none" stroke="black" points="232,-76.5 232,-95.5 349,-95.5 349,-76.5 232,-76.5"/>
<text text-anchor="middle" x="290.5" y="-83.5" font-family="Helvetica,sans-Serif" font-size="10.00">ConnectionManagerInit</text>
</a>
</g>
</g>
<!-- Node1&#45;&gt;Node11 -->
<g id="edge14" class="edge"><title>Node1&#45;&gt;Node11</title>
<path fill="none" stroke="midnightblue" d="M77.7468,-140.46C88.2072,-137.268 99.5024,-133.918 110,-131 157.515,-117.794 212.585,-104.246 249.067,-95.5141"/>
<polygon fill="midnightblue" stroke="midnightblue" points="76.5545,-137.164 68.0269,-143.452 78.614,-143.855 76.5545,-137.164"/>
</g>
<!-- Node12 -->
<g id="node12" class="node"><title>Node12</title>
<g id="a_node12"><a xlink:href="../../df/d2e/cipassembly_8c.html#a5973ef42110a1bdf6c7699e35e04b7d4" target="_top" xlink:title="Constructor for the assembly object class. ">
<polygon fill="none" stroke="black" points="233,-29.5 233,-48.5 348,-48.5 348,-29.5 233,-29.5"/>
<text text-anchor="middle" x="290.5" y="-36.5" font-family="Helvetica,sans-Serif" font-size="10.00">CreateAssemblyClass</text>
</a>
</g>
</g>
<!-- Node1&#45;&gt;Node12 -->
<g id="edge16" class="edge"><title>Node1&#45;&gt;Node12</title>
<path fill="none" stroke="midnightblue" d="M58.8231,-137.204C72.7866,-127.101 91.8724,-114.212 110,-105 158.988,-80.105 219.657,-59.8143 256.429,-48.5793"/>
<polygon fill="midnightblue" stroke="midnightblue" points="56.4235,-134.624 50.4485,-143.373 60.5755,-140.26 56.4235,-134.624"/>
</g>
<!-- Node16 -->
<g id="node16" class="node"><title>Node16</title>
<g id="a_node16"><a xlink:href="../../d2/d3d/cipcommon_8c.html#a3dfa07bc40e59ba348d713272d1cbfdb" target="_top" xlink:title="CreateCipClass">
<polygon fill="none" stroke="black" points="110,-162.5 110,-181.5 196,-181.5 196,-162.5 110,-162.5"/>
<text text-anchor="middle" x="153" y="-169.5" font-family="Helvetica,sans-Serif" font-size="10.00">CreateCipClass</text>
</a>
</g>
</g>
<!-- Node1&#45;&gt;Node16 -->
<g id="edge21" class="edge"><title>Node1&#45;&gt;Node16</title>
<path fill="none" stroke="midnightblue" d="M84.1826,-160.697C92.6506,-162.108 101.449,-163.575 109.794,-164.966"/>
<polygon fill="midnightblue" stroke="midnightblue" points="84.5097,-157.203 74.0703,-159.012 83.3588,-164.108 84.5097,-157.203"/>
</g>
<!-- Node3 -->
<g id="node3" class="node"><title>Node3</title>
<g id="a_node3"><a xlink:href="../../d2/dc9/group__CIP__API.html#ga5d4979945d124e28668b264c3823db1c" target="_top" xlink:title="Initialize and setup the CIP&#45;stack. ">
<polygon fill="none" stroke="black" points="561.5,-152.5 561.5,-171.5 632.5,-171.5 632.5,-152.5 561.5,-152.5"/>
<text text-anchor="middle" x="597" y="-159.5" font-family="Helvetica,sans-Serif" font-size="10.00">CipStackInit</text>
</a>
</g>
</g>
<!-- Node2&#45;&gt;Node3 -->
<g id="edge2" class="edge"><title>Node2&#45;&gt;Node3</title>
<path fill="none" stroke="midnightblue" d="M350.68,-266.206C394.047,-257.772 453.698,-243.515 503,-222 534.347,-208.321 567.064,-184.657 584.091,-171.506"/>
<polygon fill="midnightblue" stroke="midnightblue" points="350.026,-262.768 340.854,-268.072 351.332,-269.645 350.026,-262.768"/>
</g>
<!-- Node4 -->
<g id="node4" class="node"><title>Node4</title>
<g id="a_node4"><a xlink:href="../../d5/dcb/MINGW_2main_8c.html#ad338a7dbc41dc40bcecd0479377ef207" target="_top" xlink:title="main">
<polygon fill="none" stroke="black" points="691,-152.5 691,-171.5 729,-171.5 729,-152.5 691,-152.5"/>
<text text-anchor="middle" x="710" y="-159.5" font-family="Helvetica,sans-Serif" font-size="10.00">main</text>
</a>
</g>
</g>
<!-- Node3&#45;&gt;Node4 -->
<g id="edge3" class="edge"><title>Node3&#45;&gt;Node4</title>
<path fill="none" stroke="midnightblue" d="M642.783,-162C659.658,-162 677.907,-162 690.965,-162"/>
<polygon fill="midnightblue" stroke="midnightblue" points="642.513,-158.5 632.513,-162 642.513,-165.5 642.513,-158.5"/>
</g>
<!-- Node5 -->
<g id="node5" class="node"><title>Node5</title>
<g id="a_node5"><a xlink:href="../../d8/d03/ports_2MINGW_2CMakeLists_8txt.html#a7e00df43a20d627a1732be7766d91097" target="_top" xlink:title="add_library">
<polygon fill="none" stroke="black" points="765,-152.5 765,-171.5 829,-171.5 829,-152.5 765,-152.5"/>
<text text-anchor="middle" x="797" y="-159.5" font-family="Helvetica,sans-Serif" font-size="10.00">add_library</text>
</a>
</g>
</g>
<!-- Node4&#45;&gt;Node5 -->
<g id="edge4" class="edge"><title>Node4&#45;&gt;Node5</title>
<path fill="none" stroke="midnightblue" d="M739.267,-162C747.504,-162 756.546,-162 764.945,-162"/>
<polygon fill="midnightblue" stroke="midnightblue" points="739.026,-158.5 729.026,-162 739.026,-165.5 739.026,-158.5"/>
</g>
<!-- Node6 -->
<g id="node6" class="node"><title>Node6</title>
<g id="a_node6"><a xlink:href="../../d8/dce/ports_2CMakeLists_8txt.html#a598fae457555a5fb26e18d4cd8f89de9" target="_top" xlink:title="add_subdirectory">
<polygon fill="none" stroke="black" points="865,-152.5 865,-171.5 956,-171.5 956,-152.5 865,-152.5"/>
<text text-anchor="middle" x="910.5" y="-159.5" font-family="Helvetica,sans-Serif" font-size="10.00">add_subdirectory</text>
</a>
</g>
</g>
<!-- Node5&#45;&gt;Node6 -->
<g id="edge5" class="edge"><title>Node5&#45;&gt;Node6</title>
<path fill="none" stroke="midnightblue" d="M839.3,-162C847.629,-162 856.419,-162 864.856,-162"/>
<polygon fill="midnightblue" stroke="midnightblue" points="839.059,-158.5 829.059,-162 839.059,-165.5 839.059,-158.5"/>
</g>
<!-- Node7&#45;&gt;Node3 -->
<g id="edge7" class="edge"><title>Node7&#45;&gt;Node3</title>
<path fill="none" stroke="midnightblue" d="M339.304,-230.676C382.498,-223.547 447.604,-211.526 503,-196 527.333,-189.18 554.386,-178.982 573.011,-171.533"/>
<polygon fill="midnightblue" stroke="midnightblue" points="338.662,-227.234 329.355,-232.295 339.787,-234.143 338.662,-227.234"/>
</g>
<!-- Node8&#45;&gt;Node3 -->
<g id="edge9" class="edge"><title>Node8&#45;&gt;Node3</title>
<path fill="none" stroke="midnightblue" d="M357.717,-193.112C399.447,-188.616 454.431,-182.409 503,-176 522.263,-173.458 543.713,-170.254 561.154,-167.553"/>
<polygon fill="midnightblue" stroke="midnightblue" points="357.246,-189.643 347.676,-194.188 357.992,-196.603 357.246,-189.643"/>
</g>
<!-- Node9&#45;&gt;Node3 -->
<g id="edge11" class="edge"><title>Node9&#45;&gt;Node3</title>
<path fill="none" stroke="midnightblue" d="M333.57,-162C394.134,-162 504.782,-162 561.086,-162"/>
<polygon fill="midnightblue" stroke="midnightblue" points="333.225,-158.5 323.225,-162 333.225,-165.5 333.225,-158.5"/>
</g>
<!-- Node10&#45;&gt;Node3 -->
<g id="edge13" class="edge"><title>Node10&#45;&gt;Node3</title>
<path fill="none" stroke="midnightblue" d="M354.693,-131.886C417.285,-139.697 510.845,-151.373 561.098,-157.644"/>
<polygon fill="midnightblue" stroke="midnightblue" points="354.896,-128.384 344.54,-130.619 354.029,-135.331 354.896,-128.384"/>
</g>
<!-- Node11&#45;&gt;Node3 -->
<g id="edge15" class="edge"><title>Node11&#45;&gt;Node3</title>
<path fill="none" stroke="midnightblue" d="M351.745,-97.4696C394.27,-105.963 452.445,-118.383 503,-132 525.442,-138.045 550.499,-146.211 568.944,-152.498"/>
<polygon fill="midnightblue" stroke="midnightblue" points="352.321,-94.0158 341.831,-95.5041 350.96,-100.882 352.321,-94.0158"/>
</g>
<!-- Node13 -->
<g id="node13" class="node"><title>Node13</title>
<g id="a_node13"><a xlink:href="../../de/df4/cipassembly_8h.html#a4dfbc2c7a8e9e77f05a0a7236210f5b4" target="_top" xlink:title="Setup the Assembly object. ">
<polygon fill="none" stroke="black" points="388.5,-38.5 388.5,-57.5 499.5,-57.5 499.5,-38.5 388.5,-38.5"/>
<text text-anchor="middle" x="444" y="-45.5" font-family="Helvetica,sans-Serif" font-size="10.00">CipAssemblyInitialize</text>
</a>
</g>
</g>
<!-- Node12&#45;&gt;Node13 -->
<g id="edge17" class="edge"><title>Node12&#45;&gt;Node13</title>
<path fill="none" stroke="midnightblue" d="M358.606,-42.9865C368.551,-43.5773 378.698,-44.1801 388.349,-44.7534"/>
<polygon fill="midnightblue" stroke="midnightblue" points="358.534,-39.4761 348.344,-42.3769 358.119,-46.4638 358.534,-39.4761"/>
</g>
<!-- Node14 -->
<g id="node14" class="node"><title>Node14</title>
<g id="a_node14"><a xlink:href="../../d2/dc9/group__CIP__API.html#gae61b613fed863d30428e78b2311bf593" target="_top" xlink:title="Create an instance of an assembly object. ">
<polygon fill="none" stroke="black" points="385,-0.5 385,-19.5 503,-19.5 503,-0.5 385,-0.5"/>
<text text-anchor="middle" x="444" y="-7.5" font-family="Helvetica,sans-Serif" font-size="10.00">CreateAssemblyObject</text>
</a>
</g>
</g>
<!-- Node12&#45;&gt;Node14 -->
<g id="edge19" class="edge"><title>Node12&#45;&gt;Node14</title>
<path fill="none" stroke="midnightblue" d="M351.46,-27.5225C365.32,-24.8695 379.918,-22.0752 393.284,-19.5165"/>
<polygon fill="midnightblue" stroke="midnightblue" points="350.69,-24.1062 341.527,-29.4239 352.006,-30.9814 350.69,-24.1062"/>
</g>
<!-- Node13&#45;&gt;Node3 -->
<g id="edge18" class="edge"><title>Node13&#45;&gt;Node3</title>
<path fill="none" stroke="midnightblue" d="M483.739,-61.631C490.388,-64.6361 497.062,-68.1039 503,-72 539.068,-95.6657 573.347,-134.458 588.232,-152.375"/>
<polygon fill="midnightblue" stroke="midnightblue" points="484.675,-58.2274 474.101,-57.5633 481.953,-64.6765 484.675,-58.2274"/>
</g>
<!-- Node15 -->
<g id="node15" class="node"><title>Node15</title>
<g id="a_node15"><a xlink:href="../../d5/dc5/group__CIP__CALLBACK__API.html#gae93106eb1647bff3ad56a7752799d878" target="_top" xlink:title="Callback for the application initialization. ">
<polygon fill="none" stroke="black" points="539,-0.5 539,-19.5 655,-19.5 655,-0.5 539,-0.5"/>
<text text-anchor="middle" x="597" y="-7.5" font-family="Helvetica,sans-Serif" font-size="10.00">ApplicationInitialization</text>
</a>
</g>
</g>
<!-- Node14&#45;&gt;Node15 -->
<g id="edge20" class="edge"><title>Node14&#45;&gt;Node15</title>
<path fill="none" stroke="midnightblue" d="M513.571,-10C521.995,-10 530.536,-10 538.769,-10"/>
<polygon fill="midnightblue" stroke="midnightblue" points="513.381,-6.5001 503.381,-10 513.381,-13.5001 513.381,-6.5001"/>
</g>
<!-- Node16&#45;&gt;Node2 -->
<g id="edge22" class="edge"><title>Node16&#45;&gt;Node2</title>
<path fill="none" stroke="midnightblue" d="M166.068,-189.826C179.898,-208.979 204.263,-239.075 232,-257 237.916,-260.823 244.674,-263.947 251.428,-266.475"/>
<polygon fill="midnightblue" stroke="midnightblue" points="168.93,-187.812 160.318,-181.641 163.203,-191.836 168.93,-187.812"/>
</g>
<!-- Node16&#45;&gt;Node7 -->
<g id="edge23" class="edge"><title>Node16&#45;&gt;Node7</title>
<path fill="none" stroke="midnightblue" d="M176.532,-187.423C191.727,-197.354 212.489,-210.035 232,-219 239.738,-222.556 248.336,-225.763 256.475,-228.487"/>
<polygon fill="midnightblue" stroke="midnightblue" points="178.118,-184.274 167.852,-181.653 174.243,-190.104 178.118,-184.274"/>
</g>
<!-- Node16&#45;&gt;Node8 -->
<g id="edge24" class="edge"><title>Node16&#45;&gt;Node8</title>
<path fill="none" stroke="midnightblue" d="M206.161,-182.779C218.345,-185.296 231.241,-187.961 243.153,-190.423"/>
<polygon fill="midnightblue" stroke="midnightblue" points="206.632,-179.302 196.13,-180.706 205.215,-186.157 206.632,-179.302"/>
</g>
<!-- Node16&#45;&gt;Node9 -->
<g id="edge25" class="edge"><title>Node16&#45;&gt;Node9</title>
<path fill="none" stroke="midnightblue" d="M206.161,-168.151C223.544,-166.868 242.375,-165.478 257.731,-164.345"/>
<polygon fill="midnightblue" stroke="midnightblue" points="205.846,-164.664 196.13,-168.891 206.361,-171.645 205.846,-164.664"/>
</g>
<!-- Node16&#45;&gt;Node10 -->
<g id="edge26" class="edge"><title>Node16&#45;&gt;Node10</title>
<path fill="none" stroke="midnightblue" d="M188.299,-158.937C201.869,-153.851 217.63,-148.044 232,-143 241.027,-139.832 250.902,-136.515 259.882,-133.556"/>
<polygon fill="midnightblue" stroke="midnightblue" points="186.981,-155.693 178.856,-162.493 189.448,-162.245 186.981,-155.693"/>
</g>
<!-- Node16&#45;&gt;Node11 -->
<g id="edge27" class="edge"><title>Node16&#45;&gt;Node11</title>
<path fill="none" stroke="midnightblue" d="M170.009,-154.881C184.834,-139.903 208.134,-118.488 232,-105 238.59,-101.276 246.022,-98.1431 253.3,-95.5644"/>
<polygon fill="midnightblue" stroke="midnightblue" points="167.127,-152.826 162.694,-162.449 172.161,-157.691 167.127,-152.826"/>
</g>
<!-- Node16&#45;&gt;Node12 -->
<g id="edge28" class="edge"><title>Node16&#45;&gt;Node12</title>
<path fill="none" stroke="midnightblue" d="M164.063,-153.402C177.176,-130.586 202.008,-91.881 232,-67 241.229,-59.3436 252.905,-53.1639 263.321,-48.5776"/>
<polygon fill="midnightblue" stroke="midnightblue" points="160.862,-151.955 159.033,-162.391 166.971,-155.373 160.862,-151.955"/>
</g>
</g>
</svg>
        <g id="navigator" transform="translate(0 0)" fill="#404254">
                <rect fill="#f2f5e9" fill-opacity="0.5" stroke="#606060" stroke-width=".5" x="0" y="0" width="60" height="60"/>
                <use id="zoomplus" xlink:href="#zoomPlus" x="17" y="9" onmousedown="handleZoom(evt,'in')"/>
                <use id="zoomminus" xlink:href="#zoomMin" x="42" y="9" onmousedown="handleZoom(evt,'out')"/>
                <use id="reset" xlink:href="#resetDef" x="30" y="36" onmousedown="handleReset()"/>
                <g id="arrowUp" xlink:href="#dirArrow" transform="translate(30 24)" onmousedown="handlePan(0,-1)">
                  <use xlink:href="#rim" fill="#404040">
                        <set attributeName="fill" to="#808080" begin="arrowUp.mouseover" end="arrowUp.mouseout"/>
                  </use>
                  <path fill="none" stroke="white" stroke-width="1.5" d="M0,-3.0v7 M-2.5,-0.5L0,-3.0L2.5,-0.5"/>
                </g>
                <g id="arrowRight" xlink:href="#dirArrow" transform="rotate(90) translate(36 -43)" onmousedown="handlePan(1,0)">
                  <use xlink:href="#rim" fill="#404040">
                        <set attributeName="fill" to="#808080" begin="arrowRight.mouseover" end="arrowRight.mouseout"/>
                  </use>
                  <path fill="none" stroke="white" stroke-width="1.5" d="M0,-3.0v7 M-2.5,-0.5L0,-3.0L2.5,-0.5"/>
                </g>
                <g id="arrowDown" xlink:href="#dirArrow" transform="rotate(180) translate(-30 -48)" onmousedown="handlePan(0,1)">
                  <use xlink:href="#rim" fill="#404040">
                        <set attributeName="fill" to="#808080" begin="arrowDown.mouseover" end="arrowDown.mouseout"/>
                  </use>
                  <path fill="none" stroke="white" stroke-width="1.5" d="M0,-3.0v7 M-2.5,-0.5L0,-3.0L2.5,-0.5"/>
                </g>
                <g id="arrowLeft" xlink:href="#dirArrow" transform="rotate(270) translate(-36 17)" onmousedown="handlePan(-1,0)">
                  <use xlink:href="#rim" fill="#404040">
                        <set attributeName="fill" to="#808080" begin="arrowLeft.mouseover" end="arrowLeft.mouseout"/>
                  </use>
                  <path fill="none" stroke="white" stroke-width="1.5" d="M0,-3.0v7 M-2.5,-0.5L0,-3.0L2.5,-0.5"/>
                </g>
        </g>
        <svg viewBox="0 0 15 15" width="100%" height="30px" preserveAspectRatio="xMaxYMin meet">
         <g id="arrow_out" transform="scale(0.3 0.3)">
          <a xlink:href="group__CIP__API_ga35f639b135ec3c3903f49fd65daed307_icgraph_org.svg" target="_base">
           <rect id="button" ry="5" rx="5" y="6" x="6" height="38" width="38"
                fill="#f2f5e9" fill-opacity="0.5" stroke="#606060" stroke-width="1.0"/>
           <path id="arrow"
             d="M 11.500037,31.436501 C 11.940474,20.09759 22.043105,11.32322 32.158766,21.979434 L 37.068811,17.246167 C 37.068811,17.246167 37.088388,32 37.088388,32 L 22.160133,31.978069 C 22.160133,31.978069 26.997745,27.140456 26.997745,27.140456 C 18.528582,18.264221 13.291696,25.230495 11.500037,31.436501 z"
             style="fill:#404040;"/>
          </a>
         </g>
        </svg>
</svg>
