<?xml version="1.0" encoding="UTF-8" standalone="no"?>
<!DOCTYPE svg PUBLIC "-//W3C//DTD SVG 1.1//EN"
 "http://www.w3.org/Graphics/SVG/1.1/DTD/svg11.dtd">
<!-- Generated by graphviz version 2.38.0 (20140413.2041)
 -->
<!-- Title: HandleReceivedExplictUdpData Pages: 1 -->
<!--zoomable 284 -->
<svg id="main" version="1.1" xmlns="http://www.w3.org/2000/svg" xmlns:xlink="http://www.w3.org/1999/xlink" xml:space="preserve" onload="init(evt)">
<style type="text/css"><![CDATA[
.edge:hover path { stroke: red; }
.edge:hover polygon { stroke: red; fill: red; }
]]></style>
<script type="text/javascript"><![CDATA[
var edges = document.getElementsByTagName('g');
if (edges && edges.length) {
  for (var i=0;i<edges.length;i++) {
    if (edges[i].id.substr(0,4)=='edge') {
      edges[i].setAttribute('class','edge');
    }
  }
}
]]></script>
        <defs>
                <circle id="rim" cx="0" cy="0" r="7"/>
                <circle id="rim2" cx="0" cy="0" r="3.5"/>
                <g id="zoomPlus">
                        <use xlink:href="#rim" fill="#404040">
                                <set attributeName="fill" to="#808080" begin="zoomplus.mouseover" end="zoomplus.mouseout"/>
                        </use>
                        <path d="M-4,0h8M0,-4v8" fill="none" stroke="white" stroke-width="1.5" pointer-events="none"/>
                </g>
                <g id="zoomMin">
                        <use xlink:href="#rim" fill="#404040">
                                <set attributeName="fill" to="#808080" begin="zoomminus.mouseover" end="zoomminus.mouseout"/>
                        </use>
                        <path d="M-4,0h8" fill="none" stroke="white" stroke-width="1.5" pointer-events="none"/>
                </g>
                <g id="dirArrow">
                        <path fill="none" stroke="white" stroke-width="1.5" d="M0,-3.0v7 M-2.5,-0.5L0,-3.0L2.5,-0.5"/>
                </g>
               <g id="resetDef">
                       <use xlink:href="#rim2" fill="#404040">
                               <set attributeName="fill" to="#808080" begin="reset.mouseover" end="reset.mouseout"/>
                       </use>
               </g>
        </defs>

<script type="text/javascript">
var viewWidth = 872;
var viewHeight = 284;
var sectionId = 'dynsection-33';
</script>
<script xlink:href="../../svgpan.js"/>
<svg id="graph" class="graph">
<g id="viewport">
<title>HandleReceivedExplictUdpData</title>
<!-- Node1 -->
<g id="node1" class="node"><title>Node1</title>
<polygon fill="#bfbfbf" stroke="black" points="0,-112 0,-131 158,-131 158,-112 0,-112"/>
<text text-anchor="middle" x="79" y="-119" font-family="Helvetica,sans-Serif" font-size="10.00">HandleReceivedExplictUdpData</text>
</g>
<!-- Node2 -->
<g id="node2" class="node"><title>Node2</title>
<g id="a_node2"><a xlink:href="../../d2/dbd/encap_8c.html#a86cfa03514f786d1315f7c4833cb2561" target="_top" xlink:title="copy data from pa_buf in little endian to host in structure. ">
<polygon fill="none" stroke="black" points="194,-237 194,-256 341,-256 341,-237 194,-237"/>
<text text-anchor="middle" x="267.5" y="-244" font-family="Helvetica,sans-Serif" font-size="10.00">CreateEncapsulationStructure</text>
</a>
</g>
</g>
<!-- Node1&#45;&gt;Node2 -->
<g id="edge1" class="edge"><title>Node1&#45;&gt;Node2</title>
<path fill="none" stroke="midnightblue" d="M94.3247,-131.101C126.463,-152.642 204.546,-204.976 243.545,-231.114"/>
<polygon fill="midnightblue" stroke="midnightblue" points="241.871,-234.206 252.127,-236.866 245.768,-228.391 241.871,-234.206"/>
</g>
<!-- Node5 -->
<g id="node5" class="node"><title>Node5</title>
<g id="a_node5"><a xlink:href="../../d2/dbd/encap_8c.html#ae4d21e6254396c9cb1b5716b054e57de" target="_top" xlink:title="HandleReceivedListIdentity\lCommandTcp">
<polygon fill="none" stroke="black" points="199,-106.5 199,-136.5 336,-136.5 336,-106.5 199,-106.5"/>
<text text-anchor="start" x="207" y="-124.5" font-family="Helvetica,sans-Serif" font-size="10.00">HandleReceivedListIdentity</text>
<text text-anchor="middle" x="267.5" y="-113.5" font-family="Helvetica,sans-Serif" font-size="10.00">CommandTcp</text>
</a>
</g>
</g>
<!-- Node1&#45;&gt;Node5 -->
<g id="edge4" class="edge"><title>Node1&#45;&gt;Node5</title>
<path fill="none" stroke="midnightblue" d="M158.012,-121.5C168.193,-121.5 178.624,-121.5 188.8,-121.5"/>
<polygon fill="midnightblue" stroke="midnightblue" points="188.873,-125 198.873,-121.5 188.873,-118 188.873,-125"/>
</g>
<!-- Node12 -->
<g id="node12" class="node"><title>Node12</title>
<g id="a_node12"><a xlink:href="../../d2/dbd/encap_8c.html#aa042b74f0d2659164f5c6811e6cb4fda" target="_top" xlink:title="HandleReceivedListIdentity\lCommandUdp">
<polygon fill="none" stroke="black" points="199,-155.5 199,-185.5 336,-185.5 336,-155.5 199,-155.5"/>
<text text-anchor="start" x="207" y="-173.5" font-family="Helvetica,sans-Serif" font-size="10.00">HandleReceivedListIdentity</text>
<text text-anchor="middle" x="267.5" y="-162.5" font-family="Helvetica,sans-Serif" font-size="10.00">CommandUdp</text>
</a>
</g>
</g>
<!-- Node1&#45;&gt;Node12 -->
<g id="edge15" class="edge"><title>Node1&#45;&gt;Node12</title>
<path fill="none" stroke="midnightblue" d="M116.402,-131.064C140.013,-137.268 171.488,-145.537 199.516,-152.901"/>
<polygon fill="midnightblue" stroke="midnightblue" points="198.706,-156.307 209.267,-155.463 200.485,-149.537 198.706,-156.307"/>
</g>
<!-- Node15 -->
<g id="node15" class="node"><title>Node15</title>
<g id="a_node15"><a xlink:href="../../d2/dbd/encap_8c.html#a371a47e722a3aea264b6eb39cfc725aa" target="_top" xlink:title="HandleReceivedListInterfaces\lCommand">
<polygon fill="none" stroke="black" points="384.5,-49.5 384.5,-79.5 532.5,-79.5 532.5,-49.5 384.5,-49.5"/>
<text text-anchor="start" x="392.5" y="-67.5" font-family="Helvetica,sans-Serif" font-size="10.00">HandleReceivedListInterfaces</text>
<text text-anchor="middle" x="458.5" y="-56.5" font-family="Helvetica,sans-Serif" font-size="10.00">Command</text>
</a>
</g>
</g>
<!-- Node1&#45;&gt;Node15 -->
<g id="edge21" class="edge"><title>Node1&#45;&gt;Node15</title>
<path fill="none" stroke="midnightblue" d="M119.126,-111.956C141.044,-106.853 168.931,-100.761 194,-96.5 253.948,-86.3104 322.103,-78.1233 374.078,-72.5816"/>
<polygon fill="midnightblue" stroke="midnightblue" points="374.672,-76.0384 384.25,-71.5087 373.938,-69.077 374.672,-76.0384"/>
</g>
<!-- Node16 -->
<g id="node16" class="node"><title>Node16</title>
<g id="a_node16"><a xlink:href="../../d2/dbd/encap_8c.html#a85c97a897b8f95d2a05e6480480bba5d" target="_top" xlink:title="generate reply with &quot;Communications Services&quot; + compatibility Flags. ">
<polygon fill="none" stroke="black" points="387,-0.5 387,-30.5 530,-30.5 530,-0.5 387,-0.5"/>
<text text-anchor="start" x="395" y="-18.5" font-family="Helvetica,sans-Serif" font-size="10.00">HandleReceivedListServices</text>
<text text-anchor="middle" x="458.5" y="-7.5" font-family="Helvetica,sans-Serif" font-size="10.00">Command</text>
</a>
</g>
</g>
<!-- Node1&#45;&gt;Node16 -->
<g id="edge24" class="edge"><title>Node1&#45;&gt;Node16</title>
<path fill="none" stroke="midnightblue" d="M99.7655,-111.875C122.178,-101.271 160.025,-84.2928 194,-73.5 254.289,-54.3478 324.298,-39.2618 376.994,-29.2816"/>
<polygon fill="midnightblue" stroke="midnightblue" points="377.774,-32.6963 386.959,-27.4158 376.486,-25.8159 377.774,-32.6963"/>
</g>
<!-- Node3 -->
<g id="node3" class="node"><title>Node3</title>
<g id="a_node3"><a xlink:href="../../d4/d91/group__ENCAP.html#ga668f92389ee06510864585b97955f6f8" target="_top" xlink:title="Reads EIP_UINT32 from *buffer and converts little endian to host. ">
<polygon fill="none" stroke="black" points="402,-237 402,-256 515,-256 515,-237 402,-237"/>
<text text-anchor="middle" x="458.5" y="-244" font-family="Helvetica,sans-Serif" font-size="10.00">GetDintFromMessage</text>
</a>
</g>
</g>
<!-- Node2&#45;&gt;Node3 -->
<g id="edge2" class="edge"><title>Node2&#45;&gt;Node3</title>
<path fill="none" stroke="midnightblue" d="M341.032,-246.5C357.756,-246.5 375.452,-246.5 391.863,-246.5"/>
<polygon fill="midnightblue" stroke="midnightblue" points="391.896,-250 401.896,-246.5 391.896,-243 391.896,-250"/>
</g>
<!-- Node4 -->
<g id="node4" class="node"><title>Node4</title>
<g id="a_node4"><a xlink:href="../../d4/d91/group__ENCAP.html#ga70322f970709ca9c9a1a1d474cfe2302" target="_top" xlink:title="Reads EIP_UINT16 from *buffer and converts little endian to host. ">
<polygon fill="none" stroke="black" points="597.5,-256 597.5,-275 703.5,-275 703.5,-256 597.5,-256"/>
<text text-anchor="middle" x="650.5" y="-263" font-family="Helvetica,sans-Serif" font-size="10.00">GetIntFromMessage</text>
</a>
</g>
</g>
<!-- Node2&#45;&gt;Node4 -->
<g id="edge3" class="edge"><title>Node2&#45;&gt;Node4</title>
<path fill="none" stroke="midnightblue" d="M312.615,-256.012C332.227,-259.777 355.662,-263.646 377,-265.5 448.99,-271.756 532.082,-270.546 587.401,-268.553"/>
<polygon fill="midnightblue" stroke="midnightblue" points="587.538,-272.051 597.398,-268.174 587.272,-265.056 587.538,-272.051"/>
</g>
<!-- Node6 -->
<g id="node6" class="node"><title>Node6</title>
<g id="a_node6"><a xlink:href="../../d2/dbd/encap_8c.html#ae8d8af733e9ac70ea728d6255aced4b6" target="_top" xlink:title="EncapsulateListIdentityResponse\lMessage">
<polygon fill="none" stroke="black" points="377,-111.5 377,-141.5 540,-141.5 540,-111.5 377,-111.5"/>
<text text-anchor="start" x="385" y="-129.5" font-family="Helvetica,sans-Serif" font-size="10.00">EncapsulateListIdentityResponse</text>
<text text-anchor="middle" x="458.5" y="-118.5" font-family="Helvetica,sans-Serif" font-size="10.00">Message</text>
</a>
</g>
</g>
<!-- Node5&#45;&gt;Node6 -->
<g id="edge5" class="edge"><title>Node5&#45;&gt;Node6</title>
<path fill="none" stroke="midnightblue" d="M336.2,-123.291C346.05,-123.552 356.324,-123.823 366.543,-124.094"/>
<polygon fill="midnightblue" stroke="midnightblue" points="366.637,-127.597 376.726,-124.363 366.822,-120.6 366.637,-127.597"/>
</g>
<!-- Node7 -->
<g id="node7" class="node"><title>Node7</title>
<g id="a_node7"><a xlink:href="../../d4/d91/group__ENCAP.html#gaafc3c9e3ff582c9b7e438ae2b1fdf822" target="_top" xlink:title="Converts UINT32 data from host to little endian and writes it to buffer. ">
<polygon fill="none" stroke="black" points="761,-124 761,-143 864,-143 864,-124 761,-124"/>
<text text-anchor="middle" x="812.5" y="-131" font-family="Helvetica,sans-Serif" font-size="10.00">AddDintToMessage</text>
</a>
</g>
</g>
<!-- Node6&#45;&gt;Node7 -->
<g id="edge6" class="edge"><title>Node6&#45;&gt;Node7</title>
<path fill="none" stroke="midnightblue" d="M515.08,-141.513C534.232,-145.987 555.916,-150.286 576,-152.5 641.824,-159.756 659.164,-159.645 725,-152.5 738.642,-151.019 753.286,-148.262 766.575,-145.298"/>
<polygon fill="midnightblue" stroke="midnightblue" points="767.484,-148.68 776.433,-143.008 765.901,-141.861 767.484,-148.68"/>
</g>
<!-- Node8 -->
<g id="node8" class="node"><title>Node8</title>
<g id="a_node8"><a xlink:href="../../d4/d91/group__ENCAP.html#gae689aac2a85bf49fb356ec94c8800799" target="_top" xlink:title="converts UINT16 data from host to little endian an writes it to buffer. ">
<polygon fill="none" stroke="black" points="764.5,-48 764.5,-67 860.5,-67 860.5,-48 764.5,-48"/>
<text text-anchor="middle" x="812.5" y="-55" font-family="Helvetica,sans-Serif" font-size="10.00">AddIntToMessage</text>
</a>
</g>
</g>
<!-- Node6&#45;&gt;Node8 -->
<g id="edge7" class="edge"><title>Node6&#45;&gt;Node8</title>
<path fill="none" stroke="midnightblue" d="M540.082,-111.975C592.777,-102.317 663.072,-89.1297 725,-76.5 736.186,-74.2187 748.16,-71.6624 759.523,-69.1826"/>
<polygon fill="midnightblue" stroke="midnightblue" points="760.301,-72.5953 769.318,-67.0318 758.8,-65.7582 760.301,-72.5953"/>
</g>
<!-- Node9 -->
<g id="node9" class="node"><title>Node9</title>
<g id="a_node9"><a xlink:href="../../da/d73/endianconv_8c.html#a2e8bf172dd5ecba3cc0871278ab06538" target="_top" xlink:title="Encapsulate the sockaddr information as necessary for the Common Packet Format data items...">
<polygon fill="none" stroke="black" points="593,-124 593,-143 708,-143 708,-124 593,-124"/>
<text text-anchor="middle" x="650.5" y="-131" font-family="Helvetica,sans-Serif" font-size="10.00">EncapsulateIpAddress</text>
</a>
</g>
</g>
<!-- Node6&#45;&gt;Node9 -->
<g id="edge8" class="edge"><title>Node6&#45;&gt;Node9</title>
<path fill="none" stroke="midnightblue" d="M540.077,-129.469C554.262,-129.991 568.887,-130.53 582.645,-131.037"/>
<polygon fill="midnightblue" stroke="midnightblue" points="582.854,-134.547 592.976,-131.418 583.112,-127.552 582.854,-134.547"/>
</g>
<!-- Node10 -->
<g id="node10" class="node"><title>Node10</title>
<g id="a_node10"><a xlink:href="../../d2/dbd/encap_8c.html#ad558c3aae69a6ab80034278c108802e9" target="_top" xlink:title="GenerateEncapsulationHeader">
<polygon fill="none" stroke="black" points="576,-48 576,-67 725,-67 725,-48 576,-48"/>
<text text-anchor="middle" x="650.5" y="-55" font-family="Helvetica,sans-Serif" font-size="10.00">GenerateEncapsulationHeader</text>
</a>
</g>
</g>
<!-- Node6&#45;&gt;Node10 -->
<g id="edge11" class="edge"><title>Node6&#45;&gt;Node10</title>
<path fill="none" stroke="midnightblue" d="M497.087,-111.399C519.819,-102.413 549.447,-90.9561 576,-81.5 586.747,-77.6729 598.458,-73.7419 609.31,-70.1977"/>
<polygon fill="midnightblue" stroke="midnightblue" points="610.546,-73.4764 618.981,-67.0656 608.389,-66.8169 610.546,-73.4764"/>
</g>
<!-- Node11 -->
<g id="node11" class="node"><title>Node11</title>
<g id="a_node11"><a xlink:href="../../da/d73/endianconv_8c.html#af4e7ccbb21e333ad15028c531f0384c6" target="_top" xlink:title="MoveMessageNOctets">
<polygon fill="none" stroke="black" points="592,-200 592,-219 709,-219 709,-200 592,-200"/>
<text text-anchor="middle" x="650.5" y="-207" font-family="Helvetica,sans-Serif" font-size="10.00">MoveMessageNOctets</text>
</a>
</g>
</g>
<!-- Node6&#45;&gt;Node11 -->
<g id="edge14" class="edge"><title>Node6&#45;&gt;Node11</title>
<path fill="none" stroke="midnightblue" d="M518.87,-141.509C526.208,-144.348 533.43,-147.66 540,-151.5 559,-162.606 557.081,-174.256 576,-185.5 583.382,-189.887 591.663,-193.58 599.935,-196.652"/>
<polygon fill="midnightblue" stroke="midnightblue" points="598.99,-200.029 609.585,-199.978 601.271,-193.411 598.99,-200.029"/>
</g>
<!-- Node9&#45;&gt;Node7 -->
<g id="edge9" class="edge"><title>Node9&#45;&gt;Node7</title>
<path fill="none" stroke="midnightblue" d="M708.361,-133.5C722.032,-133.5 736.689,-133.5 750.539,-133.5"/>
<polygon fill="midnightblue" stroke="midnightblue" points="750.942,-137 760.942,-133.5 750.942,-130 750.942,-137"/>
</g>
<!-- Node9&#45;&gt;Node8 -->
<g id="edge10" class="edge"><title>Node9&#45;&gt;Node8</title>
<path fill="none" stroke="midnightblue" d="M686.143,-123.954C698.626,-120.056 712.668,-115.133 725,-109.5 747.727,-99.1197 771.973,-84.1699 788.995,-72.9616"/>
<polygon fill="midnightblue" stroke="midnightblue" points="791.285,-75.6405 797.652,-67.1724 787.394,-69.8215 791.285,-75.6405"/>
</g>
<!-- Node10&#45;&gt;Node7 -->
<g id="edge12" class="edge"><title>Node10&#45;&gt;Node7</title>
<path fill="none" stroke="midnightblue" d="M671.764,-67.1255C699.656,-80.3739 750.054,-104.313 782.092,-119.531"/>
<polygon fill="midnightblue" stroke="midnightblue" points="780.866,-122.824 791.4,-123.953 783.869,-116.501 780.866,-122.824"/>
</g>
<!-- Node10&#45;&gt;Node8 -->
<g id="edge13" class="edge"><title>Node10&#45;&gt;Node8</title>
<path fill="none" stroke="midnightblue" d="M725.411,-57.5C735.049,-57.5 744.805,-57.5 754.116,-57.5"/>
<polygon fill="midnightblue" stroke="midnightblue" points="754.409,-61.0001 764.409,-57.5 754.409,-54.0001 754.409,-61.0001"/>
</g>
<!-- Node12&#45;&gt;Node6 -->
<g id="edge19" class="edge"><title>Node12&#45;&gt;Node6</title>
<path fill="none" stroke="midnightblue" d="M333.014,-155.481C349.043,-151.749 366.356,-147.719 382.828,-143.884"/>
<polygon fill="midnightblue" stroke="midnightblue" points="384.01,-147.203 392.956,-141.526 382.422,-140.385 384.01,-147.203"/>
</g>
<!-- Node13 -->
<g id="node13" class="node"><title>Node13</title>
<g id="a_node13"><a xlink:href="../../d2/dbd/encap_8c.html#a1e89285abfb378b98cd946a040dd8f5d" target="_top" xlink:title="DetermineDelayTime">
<polygon fill="none" stroke="black" points="404,-161 404,-180 513,-180 513,-161 404,-161"/>
<text text-anchor="middle" x="458.5" y="-168" font-family="Helvetica,sans-Serif" font-size="10.00">DetermineDelayTime</text>
</a>
</g>
</g>
<!-- Node12&#45;&gt;Node13 -->
<g id="edge16" class="edge"><title>Node12&#45;&gt;Node13</title>
<path fill="none" stroke="midnightblue" d="M336.2,-170.5C354.967,-170.5 375.273,-170.5 393.804,-170.5"/>
<polygon fill="midnightblue" stroke="midnightblue" points="393.895,-174 403.895,-170.5 393.895,-167 393.895,-174"/>
</g>
<!-- Node14 -->
<g id="node14" class="node"><title>Node14</title>
<g id="a_node14"><a xlink:href="../../da/de0/enipmessage_8c.html#a3bc72c361822172e328654abb263c1a7" target="_top" xlink:title="InitializeENIPMessage">
<polygon fill="none" stroke="black" points="400.5,-199 400.5,-218 516.5,-218 516.5,-199 400.5,-199"/>
<text text-anchor="middle" x="458.5" y="-206" font-family="Helvetica,sans-Serif" font-size="10.00">InitializeENIPMessage</text>
</a>
</g>
</g>
<!-- Node12&#45;&gt;Node14 -->
<g id="edge20" class="edge"><title>Node12&#45;&gt;Node14</title>
<path fill="none" stroke="midnightblue" d="M336.2,-184.112C357.131,-188.32 379.975,-192.913 400.136,-196.967"/>
<polygon fill="midnightblue" stroke="midnightblue" points="399.61,-200.431 410.104,-198.971 400.99,-193.568 399.61,-200.431"/>
</g>
<!-- Node13&#45;&gt;Node4 -->
<g id="edge17" class="edge"><title>Node13&#45;&gt;Node4</title>
<path fill="none" stroke="midnightblue" d="M513.183,-178.464C522.501,-181.143 531.816,-184.72 540,-189.5 560.37,-201.396 557.162,-214.302 576,-228.5 588.118,-237.633 602.833,-245.557 615.905,-251.703"/>
<polygon fill="midnightblue" stroke="midnightblue" points="614.518,-254.917 625.072,-255.856 617.407,-248.541 614.518,-254.917"/>
</g>
<!-- Node13&#45;&gt;Node11 -->
<g id="edge18" class="edge"><title>Node13&#45;&gt;Node11</title>
<path fill="none" stroke="midnightblue" d="M505.979,-180.04C532.3,-185.443 565.413,-192.24 593.198,-197.943"/>
<polygon fill="midnightblue" stroke="midnightblue" points="592.672,-201.408 603.172,-199.991 594.08,-194.551 592.672,-201.408"/>
</g>
<!-- Node15&#45;&gt;Node8 -->
<g id="edge22" class="edge"><title>Node15&#45;&gt;Node8</title>
<path fill="none" stroke="midnightblue" d="M515.08,-49.4874C534.232,-45.0128 555.916,-40.7138 576,-38.5 641.824,-31.2441 659.164,-31.3547 725,-38.5 738.642,-39.9806 753.286,-42.7382 766.575,-45.7025"/>
<polygon fill="midnightblue" stroke="midnightblue" points="765.901,-49.139 776.433,-47.9917 767.484,-42.3205 765.901,-49.139"/>
</g>
<!-- Node15&#45;&gt;Node10 -->
<g id="edge23" class="edge"><title>Node15&#45;&gt;Node10</title>
<path fill="none" stroke="midnightblue" d="M532.687,-61.8036C543.492,-61.4055 554.695,-60.9928 565.695,-60.5875"/>
<polygon fill="midnightblue" stroke="midnightblue" points="565.859,-64.084 575.723,-60.2181 565.601,-57.0887 565.859,-64.084"/>
</g>
<!-- Node16&#45;&gt;Node8 -->
<g id="edge25" class="edge"><title>Node16&#45;&gt;Node8</title>
<path fill="none" stroke="midnightblue" d="M530.239,-14.255C584.068,-14.5042 659.755,-17.4339 725,-29.5 742.825,-32.7965 762.066,-38.7703 777.864,-44.3559"/>
<polygon fill="midnightblue" stroke="midnightblue" points="777.105,-47.8044 787.699,-47.9383 779.501,-41.2272 777.105,-47.8044"/>
</g>
<!-- Node16&#45;&gt;Node10 -->
<g id="edge26" class="edge"><title>Node16&#45;&gt;Node10</title>
<path fill="none" stroke="midnightblue" d="M527.558,-30.5443C550.263,-35.5634 575.206,-41.0772 596.586,-45.8031"/>
<polygon fill="midnightblue" stroke="midnightblue" points="595.932,-49.2431 606.452,-47.9841 597.443,-42.4081 595.932,-49.2431"/>
</g>
</g>
</svg>
        <g id="navigator" transform="translate(0 0)" fill="#404254">
                <rect fill="#f2f5e9" fill-opacity="0.5" stroke="#606060" stroke-width=".5" x="0" y="0" width="60" height="60"/>
                <use id="zoomplus" xlink:href="#zoomPlus" x="17" y="9" onmousedown="handleZoom(evt,'in')"/>
                <use id="zoomminus" xlink:href="#zoomMin" x="42" y="9" onmousedown="handleZoom(evt,'out')"/>
                <use id="reset" xlink:href="#resetDef" x="30" y="36" onmousedown="handleReset()"/>
                <g id="arrowUp" xlink:href="#dirArrow" transform="translate(30 24)" onmousedown="handlePan(0,-1)">
                  <use xlink:href="#rim" fill="#404040">
                        <set attributeName="fill" to="#808080" begin="arrowUp.mouseover" end="arrowUp.mouseout"/>
                  </use>
                  <path fill="none" stroke="white" stroke-width="1.5" d="M0,-3.0v7 M-2.5,-0.5L0,-3.0L2.5,-0.5"/>
                </g>
                <g id="arrowRight" xlink:href="#dirArrow" transform="rotate(90) translate(36 -43)" onmousedown="handlePan(1,0)">
                  <use xlink:href="#rim" fill="#404040">
                        <set attributeName="fill" to="#808080" begin="arrowRight.mouseover" end="arrowRight.mouseout"/>
                  </use>
                  <path fill="none" stroke="white" stroke-width="1.5" d="M0,-3.0v7 M-2.5,-0.5L0,-3.0L2.5,-0.5"/>
                </g>
                <g id="arrowDown" xlink:href="#dirArrow" transform="rotate(180) translate(-30 -48)" onmousedown="handlePan(0,1)">
                  <use xlink:href="#rim" fill="#404040">
                        <set attributeName="fill" to="#808080" begin="arrowDown.mouseover" end="arrowDown.mouseout"/>
                  </use>
                  <path fill="none" stroke="white" stroke-width="1.5" d="M0,-3.0v7 M-2.5,-0.5L0,-3.0L2.5,-0.5"/>
                </g>
                <g id="arrowLeft" xlink:href="#dirArrow" transform="rotate(270) translate(-36 17)" onmousedown="handlePan(-1,0)">
                  <use xlink:href="#rim" fill="#404040">
                        <set attributeName="fill" to="#808080" begin="arrowLeft.mouseover" end="arrowLeft.mouseout"/>
                  </use>
                  <path fill="none" stroke="white" stroke-width="1.5" d="M0,-3.0v7 M-2.5,-0.5L0,-3.0L2.5,-0.5"/>
                </g>
        </g>
        <svg viewBox="0 0 15 15" width="100%" height="30px" preserveAspectRatio="xMaxYMin meet">
         <g id="arrow_out" transform="scale(0.3 0.3)">
          <a xlink:href="group__CIP__API_gabde366c9e0849b9bca9c1bab7eed34f6_cgraph_org.svg" target="_base">
           <rect id="button" ry="5" rx="5" y="6" x="6" height="38" width="38"
                fill="#f2f5e9" fill-opacity="0.5" stroke="#606060" stroke-width="1.0"/>
           <path id="arrow"
             d="M 11.500037,31.436501 C 11.940474,20.09759 22.043105,11.32322 32.158766,21.979434 L 37.068811,17.246167 C 37.068811,17.246167 37.088388,32 37.088388,32 L 22.160133,31.978069 C 22.160133,31.978069 26.997745,27.140456 26.997745,27.140456 C 18.528582,18.264221 13.291696,25.230495 11.500037,31.436501 z"
             style="fill:#404040;"/>
          </a>
         </g>
        </svg>
</svg>
