<?xml version="1.0" encoding="UTF-8" standalone="no"?>
<!DOCTYPE svg PUBLIC "-//W3C//DTD SVG 1.1//EN"
 "http://www.w3.org/Graphics/SVG/1.1/DTD/svg11.dtd">
<!-- Generated by graphviz version 2.38.0 (20140413.2041)
 -->
<!-- Title: SetAssemblyAttributeSingle Pages: 1 -->
<svg width="549pt" height="123pt"
 viewBox="0.00 0.00 549.00 123.00" xmlns="http://www.w3.org/2000/svg" xmlns:xlink="http://www.w3.org/1999/xlink">
<g id="graph0" class="graph" transform="scale(1 1) rotate(0) translate(4 119)">
<title>SetAssemblyAttributeSingle</title>
<!-- Node1 -->
<g id="node1" class="node"><title>Node1</title>
<polygon fill="#bfbfbf" stroke="black" points="0,-57.5 0,-76.5 139,-76.5 139,-57.5 0,-57.5"/>
<text text-anchor="middle" x="69.5" y="-64.5" font-family="Helvetica,sans-Serif" font-size="10.00">SetAssemblyAttributeSingle</text>
</g>
<!-- Node2 -->
<g id="node2" class="node"><title>Node2</title>
<g id="a_node2"><a xlink:href="../../d5/dc5/group__CIP__CALLBACK__API.html#ga5307d18b1bd79f151588391cb4ebf30a" target="_top" xlink:title="Call back function to inform application on received data for an assembly object. ...">
<polygon fill="none" stroke="black" points="176,-95.5 176,-114.5 319,-114.5 319,-95.5 176,-95.5"/>
<text text-anchor="middle" x="247.5" y="-102.5" font-family="Helvetica,sans-Serif" font-size="10.00">AfterAssemblyDataReceived</text>
</a>
</g>
</g>
<!-- Node1&#45;&gt;Node2 -->
<g id="edge1" class="edge"><title>Node1&#45;&gt;Node2</title>
<path fill="none" stroke="midnightblue" d="M114.912,-76.589C138.451,-81.6713 167.557,-87.9554 192.405,-93.3203"/>
<polygon fill="midnightblue" stroke="midnightblue" points="191.894,-96.7906 202.407,-95.4799 193.371,-89.9482 191.894,-96.7906"/>
</g>
<!-- Node3 -->
<g id="node3" class="node"><title>Node3</title>
<g id="a_node3"><a xlink:href="../../d2/dc9/group__CIP__API.html#ga5a14c8d76acacb09312b709bb0a76265" target="_top" xlink:title="Get a pointer to an instance&#39;s attribute. ">
<polygon fill="none" stroke="black" points="205.5,-57.5 205.5,-76.5 289.5,-76.5 289.5,-57.5 205.5,-57.5"/>
<text text-anchor="middle" x="247.5" y="-64.5" font-family="Helvetica,sans-Serif" font-size="10.00">GetCipAttribute</text>
</a>
</g>
</g>
<!-- Node1&#45;&gt;Node3 -->
<g id="edge2" class="edge"><title>Node1&#45;&gt;Node3</title>
<path fill="none" stroke="midnightblue" d="M139.05,-67C157.769,-67 177.723,-67 195.292,-67"/>
<polygon fill="midnightblue" stroke="midnightblue" points="195.333,-70.5001 205.333,-67 195.333,-63.5001 195.333,-70.5001"/>
</g>
<!-- Node4 -->
<g id="node4" class="node"><title>Node4</title>
<g id="a_node4"><a xlink:href="../../d5/d35/cipconnectionmanager_8c.html#a2ca3eb3dc7fe805b410d849612720b4c" target="_top" xlink:title="IsConnectedOutputAssembly">
<polygon fill="none" stroke="black" points="175,-19.5 175,-38.5 320,-38.5 320,-19.5 175,-19.5"/>
<text text-anchor="middle" x="247.5" y="-26.5" font-family="Helvetica,sans-Serif" font-size="10.00">IsConnectedOutputAssembly</text>
</a>
</g>
</g>
<!-- Node1&#45;&gt;Node4 -->
<g id="edge3" class="edge"><title>Node1&#45;&gt;Node4</title>
<path fill="none" stroke="midnightblue" d="M114.912,-57.411C138.451,-52.3287 167.557,-46.0446 192.405,-40.6797"/>
<polygon fill="midnightblue" stroke="midnightblue" points="193.371,-44.0518 202.407,-38.5201 191.894,-37.2094 193.371,-44.0518"/>
</g>
<!-- Node5 -->
<g id="node5" class="node"><title>Node5</title>
<g id="a_node5"><a xlink:href="../../d9/dab/cip_2CMakeLists_8txt.html#acd2a52c78aafeccf09e8a5e6ddb0ce92" target="_top" xlink:title="if">
<polygon fill="none" stroke="black" points="434,-38.5 434,-57.5 463,-57.5 463,-38.5 434,-38.5"/>
<text text-anchor="middle" x="448.5" y="-45.5" font-family="Helvetica,sans-Serif" font-size="10.00">if</text>
</a>
</g>
</g>
<!-- Node4&#45;&gt;Node5 -->
<g id="edge4" class="edge"><title>Node4&#45;&gt;Node5</title>
<path fill="none" stroke="midnightblue" d="M320.062,-35.8326C356.365,-39.2986 398.066,-43.2802 423.597,-45.7178"/>
<polygon fill="midnightblue" stroke="midnightblue" points="423.512,-49.2255 433.799,-46.6919 424.177,-42.2572 423.512,-49.2255"/>
</g>
<!-- Node6 -->
<g id="node6" class="node"><title>Node6</title>
<g id="a_node6"><a xlink:href="../../df/d91/cipconnectionobject_8c.html#a4c3d0e8258e857f80e5b7111519f7daa" target="_top" xlink:title="ConnectionObjectIsTypeIOConnection">
<polygon fill="none" stroke="black" points="356,-0.5 356,-19.5 541,-19.5 541,-0.5 356,-0.5"/>
<text text-anchor="middle" x="448.5" y="-7.5" font-family="Helvetica,sans-Serif" font-size="10.00">ConnectionObjectIsTypeIOConnection</text>
</a>
</g>
</g>
<!-- Node4&#45;&gt;Node6 -->
<g id="edge5" class="edge"><title>Node4&#45;&gt;Node6</title>
<path fill="none" stroke="midnightblue" d="M320.062,-22.1674C328.392,-21.3722 337.005,-20.5498 345.642,-19.7251"/>
<polygon fill="midnightblue" stroke="midnightblue" points="346.155,-23.1922 355.777,-18.7575 345.49,-16.2239 346.155,-23.1922"/>
</g>
</g>
</svg>
