<?xml version="1.0" encoding="UTF-8" standalone="no"?>
<!DOCTYPE svg PUBLIC "-//W3C//DTD SVG 1.1//EN"
 "http://www.w3.org/Graphics/SVG/1.1/DTD/svg11.dtd">
<!-- Generated by graphviz version 2.36.0 (20140111.2315)
 -->
<!-- Title: InitializeENIPMessage Pages: 1 -->
<!--zoomable 289 -->
<svg id="main" version="1.1" xmlns="http://www.w3.org/2000/svg" xmlns:xlink="http://www.w3.org/1999/xlink" xml:space="preserve" onload="init(evt)">
<style type="text/css"><![CDATA[
.edge:hover path { stroke: red; }
.edge:hover polygon { stroke: red; fill: red; }
]]></style>
<script type="text/javascript"><![CDATA[
var edges = document.getElementsByTagName('g');
if (edges && edges.length) {
  for (var i=0;i<edges.length;i++) {
    if (edges[i].id.substr(0,4)=='edge') {
      edges[i].setAttribute('class','edge');
    }
  }
}
]]></script>
        <defs>
                <circle id="rim" cx="0" cy="0" r="7"/>
                <circle id="rim2" cx="0" cy="0" r="3.5"/>
                <g id="zoomPlus">
                        <use xlink:href="#rim" fill="#404040">
                                <set attributeName="fill" to="#808080" begin="zoomplus.mouseover" end="zoomplus.mouseout"/>
                        </use>
                        <path d="M-4,0h8M0,-4v8" fill="none" stroke="white" stroke-width="1.5" pointer-events="none"/>
                </g>
                <g id="zoomMin">
                        <use xlink:href="#rim" fill="#404040">
                                <set attributeName="fill" to="#808080" begin="zoomminus.mouseover" end="zoomminus.mouseout"/>
                        </use>
                        <path d="M-4,0h8" fill="none" stroke="white" stroke-width="1.5" pointer-events="none"/>
                </g>
                <g id="dirArrow">
                        <path fill="none" stroke="white" stroke-width="1.5" d="M0,-3.0v7 M-2.5,-0.5L0,-3.0L2.5,-0.5"/>
                </g>
               <g id="resetDef">
                       <use xlink:href="#rim2" fill="#404040">
                               <set attributeName="fill" to="#808080" begin="reset.mouseover" end="reset.mouseout"/>
                       </use>
               </g>
        </defs>

<script type="text/javascript">
var viewWidth = 1114;
var viewHeight = 289;
var sectionId = 'dynsection-1';
</script>
<script xlink:href="../../svgpan.js"/>
<svg id="graph" class="graph">
<g id="viewport">
<title>InitializeENIPMessage</title>
<!-- Node1 -->
<g id="node1" class="node"><title>Node1</title>
<polygon fill="#bfbfbf" stroke="black" points="0,-126.5 0,-145.5 116,-145.5 116,-126.5 0,-126.5"/>
<text text-anchor="middle" x="58" y="-133.5" font-family="Helvetica,sans-Serif" font-size="10.00">InitializeENIPMessage</text>
</g>
<!-- Node2 -->
<g id="node2" class="node"><title>Node2</title>
<g id="a_node2"><a xlink:href="../../db/d4f/generic__networkhandler_8c.html#a5cae623dd720f3072dabdb78aa134262" target="_top" xlink:title="Checks and handles incoming messages via UDP broadcast. ">
<polygon fill="none" stroke="black" points="532.5,-121 532.5,-151 715.5,-151 715.5,-121 532.5,-121"/>
<text text-anchor="start" x="540.5" y="-139" font-family="Helvetica,sans-Serif" font-size="10.00">CheckAndHandleUdpGlobalBroadcast</text>
<text text-anchor="middle" x="624" y="-128" font-family="Helvetica,sans-Serif" font-size="10.00">Socket</text>
</a>
</g>
</g>
<!-- Node1&#45;&gt;Node2 -->
<g id="edge1" class="edge"><title>Node1&#45;&gt;Node2</title>
<path fill="none" stroke="midnightblue" d="M126.28,-136C227.446,-136 418.94,-136 532.33,-136"/>
<polygon fill="midnightblue" stroke="midnightblue" points="126.183,-132.5 116.183,-136 126.183,-139.5 126.183,-132.5"/>
</g>
<!-- Node7 -->
<g id="node7" class="node"><title>Node7</title>
<g id="a_node7"><a xlink:href="../../db/d4f/generic__networkhandler_8c.html#ace1d8f3907ead0c43c1b5853132d5eb1" target="_top" xlink:title="Checks and processes request received via the UDP unicast socket, currently the implementation is por...">
<polygon fill="none" stroke="black" points="551.5,-72 551.5,-102 696.5,-102 696.5,-72 551.5,-72"/>
<text text-anchor="start" x="559.5" y="-90" font-family="Helvetica,sans-Serif" font-size="10.00">CheckAndHandleUdpUnicast</text>
<text text-anchor="middle" x="624" y="-79" font-family="Helvetica,sans-Serif" font-size="10.00">Socket</text>
</a>
</g>
</g>
<!-- Node1&#45;&gt;Node7 -->
<g id="edge6" class="edge"><title>Node1&#45;&gt;Node7</title>
<path fill="none" stroke="midnightblue" d="M75.0393,-118.919C92.2047,-102.001 121.159,-77.1916 152,-67 294.989,-19.7483 475.751,-50.7529 566.118,-71.9307"/>
<polygon fill="midnightblue" stroke="midnightblue" points="72.1125,-116.904 67.603,-126.491 77.1069,-121.809 72.1125,-116.904"/>
</g>
<!-- Node8 -->
<g id="node8" class="node"><title>Node8</title>
<g id="a_node8"><a xlink:href="../../db/d4f/generic__networkhandler_8c.html#aca5593b7dd39d7a7b437999a367102d6" target="_top" xlink:title="Handles data on an established TCP connection, processed connection is given by socket. ">
<polygon fill="none" stroke="black" points="560,-170.5 560,-189.5 688,-189.5 688,-170.5 560,-170.5"/>
<text text-anchor="middle" x="624" y="-177.5" font-family="Helvetica,sans-Serif" font-size="10.00">HandleDataOnTcpSocket</text>
</a>
</g>
</g>
<!-- Node1&#45;&gt;Node8 -->
<g id="edge8" class="edge"><title>Node1&#45;&gt;Node8</title>
<path fill="none" stroke="midnightblue" d="M67.4024,-155.037C80.7609,-182.613 109.727,-232.601 152,-253 314.462,-331.397 541.781,-223.338 605.686,-189.53"/>
<polygon fill="midnightblue" stroke="midnightblue" points="70.4398,-153.267 63.0517,-145.674 64.0916,-156.217 70.4398,-153.267"/>
</g>
<!-- Node9 -->
<g id="node9" class="node"><title>Node9</title>
<g id="a_node9"><a xlink:href="../../d2/dbd/encap_8c.html#aa042b74f0d2659164f5c6811e6cb4fda" target="_top" xlink:title="HandleReceivedListIdentity\lCommandUdp">
<polygon fill="none" stroke="black" points="158.5,-77 158.5,-107 295.5,-107 295.5,-77 158.5,-77"/>
<text text-anchor="start" x="166.5" y="-95" font-family="Helvetica,sans-Serif" font-size="10.00">HandleReceivedListIdentity</text>
<text text-anchor="middle" x="227" y="-84" font-family="Helvetica,sans-Serif" font-size="10.00">CommandUdp</text>
</a>
</g>
</g>
<!-- Node1&#45;&gt;Node9 -->
<g id="edge10" class="edge"><title>Node1&#45;&gt;Node9</title>
<path fill="none" stroke="midnightblue" d="M104.915,-123.903C124.666,-118.699 147.963,-112.561 168.82,-107.065"/>
<polygon fill="midnightblue" stroke="midnightblue" points="104.015,-120.52 95.2365,-126.453 105.798,-127.289 104.015,-120.52"/>
</g>
<!-- Node11 -->
<g id="node11" class="node"><title>Node11</title>
<g id="a_node11"><a xlink:href="../../d7/df9/encap_8h.html#a51dd68441ec427052986aef5c5c076e4" target="_top" xlink:title="Call UCMM or Message Router if UCMM not implemented. ">
<polygon fill="none" stroke="black" points="153,-165 153,-195 301,-195 301,-165 153,-165"/>
<text text-anchor="start" x="161" y="-183" font-family="Helvetica,sans-Serif" font-size="10.00">HandleReceivedSendRequest</text>
<text text-anchor="middle" x="227" y="-172" font-family="Helvetica,sans-Serif" font-size="10.00">ResponseDataCommand</text>
</a>
</g>
</g>
<!-- Node1&#45;&gt;Node11 -->
<g id="edge14" class="edge"><title>Node1&#45;&gt;Node11</title>
<path fill="none" stroke="midnightblue" d="M104.915,-148.097C124.666,-153.301 147.963,-159.439 168.82,-164.935"/>
<polygon fill="midnightblue" stroke="midnightblue" points="105.798,-144.711 95.2365,-145.547 104.015,-151.48 105.798,-144.711"/>
</g>
<!-- Node13 -->
<g id="node13" class="node"><title>Node13</title>
<g id="a_node13"><a xlink:href="../../d2/dbd/encap_8c.html#a49dc585614f655a5b313150a01fd7221" target="_top" xlink:title="Call Connection Manager. ">
<polygon fill="none" stroke="black" points="152,-214 152,-244 302,-244 302,-214 152,-214"/>
<text text-anchor="start" x="160" y="-232" font-family="Helvetica,sans-Serif" font-size="10.00">HandleReceivedSendUnitData</text>
<text text-anchor="middle" x="227" y="-221" font-family="Helvetica,sans-Serif" font-size="10.00">Command</text>
</a>
</g>
</g>
<!-- Node1&#45;&gt;Node13 -->
<g id="edge17" class="edge"><title>Node1&#45;&gt;Node13</title>
<path fill="none" stroke="midnightblue" d="M77.6664,-152.326C95.6791,-167.408 124.231,-189.593 152,-204 159.102,-207.684 166.861,-210.998 174.597,-213.917"/>
<polygon fill="midnightblue" stroke="midnightblue" points="79.6025,-149.378 69.72,-145.559 75.0637,-154.707 79.6025,-149.378"/>
</g>
<!-- Node14 -->
<g id="node14" class="node"><title>Node14</title>
<g id="a_node14"><a xlink:href="../../df/d03/cipioconnection_8c.html#a20f1bc1c4cc4470cf371f94d51814de2" target="_top" xlink:title="Send the data from the produced CIP Object of the connection via the socket of the connection object ...">
<polygon fill="none" stroke="black" points="173.5,-0.5 173.5,-19.5 280.5,-19.5 280.5,-0.5 173.5,-0.5"/>
<text text-anchor="middle" x="227" y="-7.5" font-family="Helvetica,sans-Serif" font-size="10.00">SendConnectedData</text>
</a>
</g>
</g>
<!-- Node1&#45;&gt;Node14 -->
<g id="edge19" class="edge"><title>Node1&#45;&gt;Node14</title>
<path fill="none" stroke="midnightblue" d="M70.9602,-117.927C86.883,-95.2109 117.125,-56.4803 152,-34 161.536,-27.8533 172.781,-23.1564 183.587,-19.6197"/>
<polygon fill="midnightblue" stroke="midnightblue" points="67.9763,-116.09 65.2195,-126.32 73.7541,-120.042 67.9763,-116.09"/>
</g>
<!-- Node3 -->
<g id="node3" class="node"><title>Node3</title>
<g id="a_node3"><a xlink:href="../../da/dc2/generic__networkhandler_8h.html#a2f01af81d3e5018d9980e2bc28c9078a" target="_top" xlink:title="NetworkHandlerProcessOnce">
<polygon fill="none" stroke="black" points="752,-93.5 752,-112.5 898,-112.5 898,-93.5 752,-93.5"/>
<text text-anchor="middle" x="825" y="-100.5" font-family="Helvetica,sans-Serif" font-size="10.00">NetworkHandlerProcessOnce</text>
</a>
</g>
</g>
<!-- Node2&#45;&gt;Node3 -->
<g id="edge2" class="edge"><title>Node2&#45;&gt;Node3</title>
<path fill="none" stroke="midnightblue" d="M725.668,-119.306C739.681,-116.983 753.664,-114.664 766.503,-112.535"/>
<polygon fill="midnightblue" stroke="midnightblue" points="724.767,-115.908 715.474,-120.997 725.912,-122.814 724.767,-115.908"/>
</g>
<!-- Node4 -->
<g id="node4" class="node"><title>Node4</title>
<g id="a_node4"><a xlink:href="../../d9/dfb/POSIX_2main_8c.html#a68147675261e664799874644a2e2179d" target="_top" xlink:title="Signal handler function for ending stack execution. ">
<polygon fill="none" stroke="black" points="934,-93.5 934,-112.5 1032,-112.5 1032,-93.5 934,-93.5"/>
<text text-anchor="middle" x="983" y="-100.5" font-family="Helvetica,sans-Serif" font-size="10.00">executeEventLoop</text>
</a>
</g>
</g>
<!-- Node3&#45;&gt;Node4 -->
<g id="edge3" class="edge"><title>Node3&#45;&gt;Node4</title>
<path fill="none" stroke="midnightblue" d="M908.322,-103C917.054,-103 925.714,-103 933.862,-103"/>
<polygon fill="midnightblue" stroke="midnightblue" points="908.064,-99.5001 898.064,-103 908.064,-106.5 908.064,-99.5001"/>
</g>
<!-- Node6 -->
<g id="node6" class="node"><title>Node6</title>
<g id="a_node6"><a xlink:href="../../d5/dcb/MINGW_2main_8c.html#ad338a7dbc41dc40bcecd0479377ef207" target="_top" xlink:title="main">
<polygon fill="none" stroke="black" points="1068,-36.5 1068,-55.5 1106,-55.5 1106,-36.5 1068,-36.5"/>
<text text-anchor="middle" x="1087" y="-43.5" font-family="Helvetica,sans-Serif" font-size="10.00">main</text>
</a>
</g>
</g>
<!-- Node3&#45;&gt;Node6 -->
<g id="edge5" class="edge"><title>Node3&#45;&gt;Node6</title>
<path fill="none" stroke="midnightblue" d="M879.363,-91.3011C938.061,-78.4327 1029.18,-58.4571 1067.76,-49.9996"/>
<polygon fill="midnightblue" stroke="midnightblue" points="878.537,-87.8991 869.518,-93.4595 880.036,-94.7368 878.537,-87.8991"/>
</g>
<!-- Node5 -->
<g id="node5" class="node"><title>Node5</title>
<g id="a_node5"><a xlink:href="../../d9/dfb/POSIX_2main_8c.html#ad338a7dbc41dc40bcecd0479377ef207" target="_top" xlink:title="main">
<polygon fill="none" stroke="black" points="1068,-93.5 1068,-112.5 1106,-112.5 1106,-93.5 1068,-93.5"/>
<text text-anchor="middle" x="1087" y="-100.5" font-family="Helvetica,sans-Serif" font-size="10.00">main</text>
</a>
</g>
</g>
<!-- Node4&#45;&gt;Node5 -->
<g id="edge4" class="edge"><title>Node4&#45;&gt;Node5</title>
<path fill="none" stroke="midnightblue" d="M1042.22,-103C1051.56,-103 1060.57,-103 1067.96,-103"/>
<polygon fill="midnightblue" stroke="midnightblue" points="1042.01,-99.5001 1032.01,-103 1042.01,-106.5 1042.01,-99.5001"/>
</g>
<!-- Node7&#45;&gt;Node3 -->
<g id="edge7" class="edge"><title>Node7&#45;&gt;Node3</title>
<path fill="none" stroke="midnightblue" d="M706.776,-93.5749C721.679,-94.7732 737.131,-96.0156 751.735,-97.1897"/>
<polygon fill="midnightblue" stroke="midnightblue" points="706.811,-90.0665 696.562,-92.7538 706.25,-97.044 706.811,-90.0665"/>
</g>
<!-- Node8&#45;&gt;Node3 -->
<g id="edge9" class="edge"><title>Node8&#45;&gt;Node3</title>
<path fill="none" stroke="midnightblue" d="M690.001,-167.966C698.846,-165.677 707.723,-163.031 716,-160 750.84,-147.244 788.516,-125.291 808.869,-112.677"/>
<polygon fill="midnightblue" stroke="midnightblue" points="688.941,-164.622 680.06,-170.399 690.606,-171.421 688.941,-164.622"/>
</g>
<!-- Node10 -->
<g id="node10" class="node"><title>Node10</title>
<g id="a_node10"><a xlink:href="../../d2/dc9/group__CIP__API.html#gaab62df9410a09727a82afa7672e3194a" target="_top" xlink:title="Notify the encapsulation layer that an explicit message has been received via UDP. ">
<polygon fill="none" stroke="black" points="338,-82.5 338,-101.5 496,-101.5 496,-82.5 338,-82.5"/>
<text text-anchor="middle" x="417" y="-89.5" font-family="Helvetica,sans-Serif" font-size="10.00">HandleReceivedExplictUdpData</text>
</a>
</g>
</g>
<!-- Node9&#45;&gt;Node10 -->
<g id="edge11" class="edge"><title>Node9&#45;&gt;Node10</title>
<path fill="none" stroke="midnightblue" d="M305.674,-92C316.285,-92 327.183,-92 337.803,-92"/>
<polygon fill="midnightblue" stroke="midnightblue" points="305.607,-88.5001 295.607,-92 305.607,-95.5001 305.607,-88.5001"/>
</g>
<!-- Node10&#45;&gt;Node2 -->
<g id="edge12" class="edge"><title>Node10&#45;&gt;Node2</title>
<path fill="none" stroke="midnightblue" d="M472.38,-103.672C497.039,-108.965 526.505,-115.289 552.809,-120.935"/>
<polygon fill="midnightblue" stroke="midnightblue" points="472.994,-100.224 462.482,-101.547 471.525,-107.068 472.994,-100.224"/>
</g>
<!-- Node10&#45;&gt;Node7 -->
<g id="edge13" class="edge"><title>Node10&#45;&gt;Node7</title>
<path fill="none" stroke="midnightblue" d="M506.368,-89.8447C521.336,-89.4796 536.715,-89.1045 551.193,-88.7514"/>
<polygon fill="midnightblue" stroke="midnightblue" points="505.998,-86.3526 496.087,-90.0955 506.169,-93.3505 505.998,-86.3526"/>
</g>
<!-- Node12 -->
<g id="node12" class="node"><title>Node12</title>
<g id="a_node12"><a xlink:href="../../d2/dc9/group__CIP__API.html#ga16eaeeb12ba23b5a75c8e5902a33d70a" target="_top" xlink:title="Notify the encapsulation layer that an explicit message has been received via TCP. ">
<polygon fill="none" stroke="black" points="339,-170.5 339,-189.5 495,-189.5 495,-170.5 339,-170.5"/>
<text text-anchor="middle" x="417" y="-177.5" font-family="Helvetica,sans-Serif" font-size="10.00">HandleReceivedExplictTcpData</text>
</a>
</g>
</g>
<!-- Node11&#45;&gt;Node12 -->
<g id="edge15" class="edge"><title>Node11&#45;&gt;Node12</title>
<path fill="none" stroke="midnightblue" d="M311.468,-180C320.608,-180 329.882,-180 338.94,-180"/>
<polygon fill="midnightblue" stroke="midnightblue" points="311.224,-176.5 301.224,-180 311.224,-183.5 311.224,-176.5"/>
</g>
<!-- Node12&#45;&gt;Node8 -->
<g id="edge16" class="edge"><title>Node12&#45;&gt;Node8</title>
<path fill="none" stroke="midnightblue" d="M505.311,-180C523.643,-180 542.638,-180 559.88,-180"/>
<polygon fill="midnightblue" stroke="midnightblue" points="505.21,-176.5 495.21,-180 505.21,-183.5 505.21,-176.5"/>
</g>
<!-- Node13&#45;&gt;Node12 -->
<g id="edge18" class="edge"><title>Node13&#45;&gt;Node12</title>
<path fill="none" stroke="midnightblue" d="M295.532,-211.399C323.838,-204.021 355.63,-195.735 379.444,-189.528"/>
<polygon fill="midnightblue" stroke="midnightblue" points="294.478,-208.056 285.684,-213.965 296.243,-214.83 294.478,-208.056"/>
</g>
<!-- Node15 -->
<g id="node15" class="node"><title>Node15</title>
<g id="a_node15"><a xlink:href="../../df/d03/cipioconnection_8c.html#ab3282f146a3ea91c90cf14c32206ee8c" target="_top" xlink:title="SetIoConnectionCallbacks">
<polygon fill="none" stroke="black" points="350.5,-0.5 350.5,-19.5 483.5,-19.5 483.5,-0.5 350.5,-0.5"/>
<text text-anchor="middle" x="417" y="-7.5" font-family="Helvetica,sans-Serif" font-size="10.00">SetIoConnectionCallbacks</text>
</a>
</g>
</g>
<!-- Node14&#45;&gt;Node15 -->
<g id="edge20" class="edge"><title>Node14&#45;&gt;Node15</title>
<path fill="none" stroke="midnightblue" d="M290.73,-10C309.876,-10 330.975,-10 350.311,-10"/>
<polygon fill="midnightblue" stroke="midnightblue" points="290.619,-6.5001 280.618,-10 290.618,-13.5001 290.619,-6.5001"/>
</g>
<!-- Node16 -->
<g id="node16" class="node"><title>Node16</title>
<g id="a_node16"><a xlink:href="../../de/d45/cipioconnection_8h.html#a43e270b3f9b9f6296b12285c320c95aa" target="_top" xlink:title="Setup all data in order to establish an IO connection. ">
<polygon fill="none" stroke="black" points="566.5,-17.5 566.5,-36.5 681.5,-36.5 681.5,-17.5 566.5,-17.5"/>
<text text-anchor="middle" x="624" y="-24.5" font-family="Helvetica,sans-Serif" font-size="10.00">EstablishIoConnection</text>
</a>
</g>
</g>
<!-- Node15&#45;&gt;Node16 -->
<g id="edge21" class="edge"><title>Node15&#45;&gt;Node16</title>
<path fill="none" stroke="midnightblue" d="M493.84,-16.2892C517.817,-18.2775 543.885,-20.4392 566.283,-22.2966"/>
<polygon fill="midnightblue" stroke="midnightblue" points="493.964,-12.7875 483.709,-15.4491 493.386,-19.7636 493.964,-12.7875"/>
</g>
<!-- Node17 -->
<g id="node17" class="node"><title>Node17</title>
<g id="a_node17"><a xlink:href="../../d2/da3/cipconnectionmanager_8h.html#a5ab0de6894d23e8fe84a6b46797c2212" target="_top" xlink:title="Initialize the data of the connection manager object. ">
<polygon fill="none" stroke="black" points="766.5,-17.5 766.5,-36.5 883.5,-36.5 883.5,-17.5 766.5,-17.5"/>
<text text-anchor="middle" x="825" y="-24.5" font-family="Helvetica,sans-Serif" font-size="10.00">ConnectionManagerInit</text>
</a>
</g>
</g>
<!-- Node16&#45;&gt;Node17 -->
<g id="edge22" class="edge"><title>Node16&#45;&gt;Node17</title>
<path fill="none" stroke="midnightblue" d="M691.926,-27C716.106,-27 743.171,-27 766.475,-27"/>
<polygon fill="midnightblue" stroke="midnightblue" points="691.759,-23.5001 681.759,-27 691.759,-30.5001 691.759,-23.5001"/>
</g>
<!-- Node18 -->
<g id="node18" class="node"><title>Node18</title>
<g id="a_node18"><a xlink:href="../../d2/dc9/group__CIP__API.html#ga5d4979945d124e28668b264c3823db1c" target="_top" xlink:title="Initialize and setup the CIP&#45;stack. ">
<polygon fill="none" stroke="black" points="947.5,-17.5 947.5,-36.5 1018.5,-36.5 1018.5,-17.5 947.5,-17.5"/>
<text text-anchor="middle" x="983" y="-24.5" font-family="Helvetica,sans-Serif" font-size="10.00">CipStackInit</text>
</a>
</g>
</g>
<!-- Node17&#45;&gt;Node18 -->
<g id="edge23" class="edge"><title>Node17&#45;&gt;Node18</title>
<path fill="none" stroke="midnightblue" d="M893.787,-27C912.235,-27 931.457,-27 947.232,-27"/>
<polygon fill="midnightblue" stroke="midnightblue" points="893.645,-23.5001 883.645,-27 893.645,-30.5001 893.645,-23.5001"/>
</g>
<!-- Node18&#45;&gt;Node6 -->
<g id="edge24" class="edge"><title>Node18&#45;&gt;Node6</title>
<path fill="none" stroke="midnightblue" d="M1028.45,-35.2806C1042.32,-37.8636 1056.84,-40.5689 1067.83,-42.6155"/>
<polygon fill="midnightblue" stroke="midnightblue" points="1029,-31.823 1018.53,-33.4325 1027.72,-38.7047 1029,-31.823"/>
</g>
</g>
</svg>
        <g id="navigator" transform="translate(0 0)" fill="#404254">
                <rect fill="#f2f5e9" fill-opacity="0.5" stroke="#606060" stroke-width=".5" x="0" y="0" width="60" height="60"/>
                <use id="zoomplus" xlink:href="#zoomPlus" x="17" y="9" onmousedown="handleZoom(evt,'in')"/>
                <use id="zoomminus" xlink:href="#zoomMin" x="42" y="9" onmousedown="handleZoom(evt,'out')"/>
                <use id="reset" xlink:href="#resetDef" x="30" y="36" onmousedown="handleReset()"/>
                <g id="arrowUp" xlink:href="#dirArrow" transform="translate(30 24)" onmousedown="handlePan(0,-1)">
                  <use xlink:href="#rim" fill="#404040">
                        <set attributeName="fill" to="#808080" begin="arrowUp.mouseover" end="arrowUp.mouseout"/>
                  </use>
                  <path fill="none" stroke="white" stroke-width="1.5" d="M0,-3.0v7 M-2.5,-0.5L0,-3.0L2.5,-0.5"/>
                </g>
                <g id="arrowRight" xlink:href="#dirArrow" transform="rotate(90) translate(36 -43)" onmousedown="handlePan(1,0)">
                  <use xlink:href="#rim" fill="#404040">
                        <set attributeName="fill" to="#808080" begin="arrowRight.mouseover" end="arrowRight.mouseout"/>
                  </use>
                  <path fill="none" stroke="white" stroke-width="1.5" d="M0,-3.0v7 M-2.5,-0.5L0,-3.0L2.5,-0.5"/>
                </g>
                <g id="arrowDown" xlink:href="#dirArrow" transform="rotate(180) translate(-30 -48)" onmousedown="handlePan(0,1)">
                  <use xlink:href="#rim" fill="#404040">
                        <set attributeName="fill" to="#808080" begin="arrowDown.mouseover" end="arrowDown.mouseout"/>
                  </use>
                  <path fill="none" stroke="white" stroke-width="1.5" d="M0,-3.0v7 M-2.5,-0.5L0,-3.0L2.5,-0.5"/>
                </g>
                <g id="arrowLeft" xlink:href="#dirArrow" transform="rotate(270) translate(-36 17)" onmousedown="handlePan(-1,0)">
                  <use xlink:href="#rim" fill="#404040">
                        <set attributeName="fill" to="#808080" begin="arrowLeft.mouseover" end="arrowLeft.mouseout"/>
                  </use>
                  <path fill="none" stroke="white" stroke-width="1.5" d="M0,-3.0v7 M-2.5,-0.5L0,-3.0L2.5,-0.5"/>
                </g>
        </g>
        <svg viewBox="0 0 15 15" width="100%" height="30px" preserveAspectRatio="xMaxYMin meet">
         <g id="arrow_out" transform="scale(0.3 0.3)">
          <a xlink:href="enipmessage_8c_a3bc72c361822172e328654abb263c1a7_icgraph_org.svg" target="_base">
           <rect id="button" ry="5" rx="5" y="6" x="6" height="38" width="38"
                fill="#f2f5e9" fill-opacity="0.5" stroke="#606060" stroke-width="1.0"/>
           <path id="arrow"
             d="M 11.500037,31.436501 C 11.940474,20.09759 22.043105,11.32322 32.158766,21.979434 L 37.068811,17.246167 C 37.068811,17.246167 37.088388,32 37.088388,32 L 22.160133,31.978069 C 22.160133,31.978069 26.997745,27.140456 26.997745,27.140456 C 18.528582,18.264221 13.291696,25.230495 11.500037,31.436501 z"
             style="fill:#404040;"/>
          </a>
         </g>
        </svg>
</svg>
