<?xml version="1.0" encoding="UTF-8" standalone="no"?>
<!DOCTYPE svg PUBLIC "-//W3C//DTD SVG 1.1//EN"
 "http://www.w3.org/Graphics/SVG/1.1/DTD/svg11.dtd">
<!-- Generated by graphviz version 2.38.0 (20140413.2041)
 -->
<!-- Title: CipEpathSetLogicalValue Pages: 1 -->
<svg width="289pt" height="142pt"
 viewBox="0.00 0.00 289.00 142.00" xmlns="http://www.w3.org/2000/svg" xmlns:xlink="http://www.w3.org/1999/xlink">
<g id="graph0" class="graph" transform="scale(1 1) rotate(0) translate(4 138)">
<title>CipEpathSetLogicalValue</title>
<!-- Node1 -->
<g id="node1" class="node"><title>Node1</title>
<polygon fill="#bfbfbf" stroke="black" points="0,-57.5 0,-76.5 128,-76.5 128,-57.5 0,-57.5"/>
<text text-anchor="middle" x="64" y="-64.5" font-family="Helvetica,sans-Serif" font-size="10.00">CipEpathSetLogicalValue</text>
</g>
<!-- Node2 -->
<g id="node2" class="node"><title>Node2</title>
<g id="a_node2"><a xlink:href="../../d4/d91/group__ENCAP.html#gaafc3c9e3ff582c9b7e438ae2b1fdf822" target="_top" xlink:title="Converts UINT32 data from host to little endian and writes it to buffer. ">
<polygon fill="none" stroke="black" points="171,-114.5 171,-133.5 274,-133.5 274,-114.5 171,-114.5"/>
<text text-anchor="middle" x="222.5" y="-121.5" font-family="Helvetica,sans-Serif" font-size="10.00">AddDintToMessage</text>
</a>
</g>
</g>
<!-- Node1&#45;&gt;Node2 -->
<g id="edge1" class="edge"><title>Node1&#45;&gt;Node2</title>
<path fill="none" stroke="midnightblue" d="M88.8877,-76.5336C108.866,-84.4191 138.165,-95.7792 164,-105 169.709,-107.038 175.763,-109.121 181.717,-111.127"/>
<polygon fill="midnightblue" stroke="midnightblue" points="180.971,-114.567 191.565,-114.406 183.183,-107.926 180.971,-114.567"/>
</g>
<!-- Node3 -->
<g id="node3" class="node"><title>Node3</title>
<g id="a_node3"><a xlink:href="../../d4/d91/group__ENCAP.html#gae689aac2a85bf49fb356ec94c8800799" target="_top" xlink:title="converts UINT16 data from host to little endian an writes it to buffer. ">
<polygon fill="none" stroke="black" points="174.5,-76.5 174.5,-95.5 270.5,-95.5 270.5,-76.5 174.5,-76.5"/>
<text text-anchor="middle" x="222.5" y="-83.5" font-family="Helvetica,sans-Serif" font-size="10.00">AddIntToMessage</text>
</a>
</g>
</g>
<!-- Node1&#45;&gt;Node3 -->
<g id="edge2" class="edge"><title>Node1&#45;&gt;Node3</title>
<path fill="none" stroke="midnightblue" d="M128.203,-74.6733C140.145,-76.123 152.572,-77.6318 164.316,-79.0575"/>
<polygon fill="midnightblue" stroke="midnightblue" points="164.082,-82.5547 174.43,-80.2855 164.925,-75.6057 164.082,-82.5547"/>
</g>
<!-- Node4 -->
<g id="node4" class="node"><title>Node4</title>
<g id="a_node4"><a xlink:href="../../d4/d91/group__ENCAP.html#gae267a8684cc6ee1b3bd83df03260b7aa" target="_top" xlink:title="converts UINT8 data from host to little endian an writes it to buffer. ">
<polygon fill="none" stroke="black" points="171.5,-38.5 171.5,-57.5 273.5,-57.5 273.5,-38.5 171.5,-38.5"/>
<text text-anchor="middle" x="222.5" y="-45.5" font-family="Helvetica,sans-Serif" font-size="10.00">AddSintToMessage</text>
</a>
</g>
</g>
<!-- Node1&#45;&gt;Node4 -->
<g id="edge3" class="edge"><title>Node1&#45;&gt;Node4</title>
<path fill="none" stroke="midnightblue" d="M128.203,-59.3267C139.004,-58.0155 150.201,-56.6561 160.931,-55.3534"/>
<polygon fill="midnightblue" stroke="midnightblue" points="161.542,-58.8051 171.047,-54.1253 160.698,-51.8561 161.542,-58.8051"/>
</g>
<!-- Node5 -->
<g id="node5" class="node"><title>Node5</title>
<g id="a_node5"><a xlink:href="../../da/d73/endianconv_8c.html#af4e7ccbb21e333ad15028c531f0384c6" target="_top" xlink:title="MoveMessageNOctets">
<polygon fill="none" stroke="black" points="164,-0.5 164,-19.5 281,-19.5 281,-0.5 164,-0.5"/>
<text text-anchor="middle" x="222.5" y="-7.5" font-family="Helvetica,sans-Serif" font-size="10.00">MoveMessageNOctets</text>
</a>
</g>
</g>
<!-- Node1&#45;&gt;Node5 -->
<g id="edge4" class="edge"><title>Node1&#45;&gt;Node5</title>
<path fill="none" stroke="midnightblue" d="M88.8877,-57.4664C108.866,-49.5809 138.165,-38.2208 164,-29 169.709,-26.9624 175.763,-24.8789 181.717,-22.8734"/>
<polygon fill="midnightblue" stroke="midnightblue" points="183.183,-26.0744 191.565,-19.5941 180.971,-19.433 183.183,-26.0744"/>
</g>
</g>
</svg>
