<?xml version="1.0" encoding="UTF-8" standalone="no"?>
<!DOCTYPE svg PUBLIC "-//W3C//DTD SVG 1.1//EN"
 "http://www.w3.org/Graphics/SVG/1.1/DTD/svg11.dtd">
<!-- Generated by graphviz version 2.38.0 (20140413.2041)
 -->
<!-- Title: UDPHeaderGetSourcePort Pages: 1 -->
<!--zoomable 28 -->
<svg id="main" version="1.1" xmlns="http://www.w3.org/2000/svg" xmlns:xlink="http://www.w3.org/1999/xlink" xml:space="preserve" onload="init(evt)">
<style type="text/css"><![CDATA[
.edge:hover path { stroke: red; }
.edge:hover polygon { stroke: red; fill: red; }
]]></style>
<script type="text/javascript"><![CDATA[
var edges = document.getElementsByTagName('g');
if (edges && edges.length) {
  for (var i=0;i<edges.length;i++) {
    if (edges[i].id.substr(0,4)=='edge') {
      edges[i].setAttribute('class','edge');
    }
  }
}
]]></script>
        <defs>
                <circle id="rim" cx="0" cy="0" r="7"/>
                <circle id="rim2" cx="0" cy="0" r="3.5"/>
                <g id="zoomPlus">
                        <use xlink:href="#rim" fill="#404040">
                                <set attributeName="fill" to="#808080" begin="zoomplus.mouseover" end="zoomplus.mouseout"/>
                        </use>
                        <path d="M-4,0h8M0,-4v8" fill="none" stroke="white" stroke-width="1.5" pointer-events="none"/>
                </g>
                <g id="zoomMin">
                        <use xlink:href="#rim" fill="#404040">
                                <set attributeName="fill" to="#808080" begin="zoomminus.mouseover" end="zoomminus.mouseout"/>
                        </use>
                        <path d="M-4,0h8" fill="none" stroke="white" stroke-width="1.5" pointer-events="none"/>
                </g>
                <g id="dirArrow">
                        <path fill="none" stroke="white" stroke-width="1.5" d="M0,-3.0v7 M-2.5,-0.5L0,-3.0L2.5,-0.5"/>
                </g>
               <g id="resetDef">
                       <use xlink:href="#rim2" fill="#404040">
                               <set attributeName="fill" to="#808080" begin="reset.mouseover" end="reset.mouseout"/>
                       </use>
               </g>
        </defs>

<script type="text/javascript">
var viewWidth = 1426;
var viewHeight = 28;
var sectionId = 'dynsection-7';
</script>
<script xlink:href="../../svgpan.js"/>
<svg id="graph" class="graph">
<g id="viewport">
<title>UDPHeaderGetSourcePort</title>
<!-- Node1 -->
<g id="node1" class="node"><title>Node1</title>
<polygon fill="#bfbfbf" stroke="black" points="0,-0.5 0,-19.5 134,-19.5 134,-0.5 0,-0.5"/>
<text text-anchor="middle" x="67" y="-7.5" font-family="Helvetica,sans-Serif" font-size="10.00">UDPHeaderGetSourcePort</text>
</g>
<!-- Node2 -->
<g id="node2" class="node"><title>Node2</title>
<g id="a_node2"><a xlink:href="../../d6/ddb/udp__protocol_8h.html#aab5b17071e550976fa7ea00bf87bac8f" target="_top" xlink:title="Generate the UDP header in the message according to the header. ">
<polygon fill="none" stroke="black" points="170,-0.5 170,-19.5 280,-19.5 280,-0.5 170,-0.5"/>
<text text-anchor="middle" x="225" y="-7.5" font-family="Helvetica,sans-Serif" font-size="10.00">UDPHeaderGenerate</text>
</a>
</g>
</g>
<!-- Node1&#45;&gt;Node2 -->
<g id="edge1" class="edge"><title>Node1&#45;&gt;Node2</title>
<path fill="none" stroke="midnightblue" d="M144.171,-10C152.732,-10 161.324,-10 169.531,-10"/>
<polygon fill="midnightblue" stroke="midnightblue" points="144.158,-6.5001 134.158,-10 144.158,-13.5001 144.158,-6.5001"/>
</g>
<!-- Node3 -->
<g id="node3" class="node"><title>Node3</title>
<g id="a_node3"><a xlink:href="../../d5/dc5/group__CIP__CALLBACK__API.html#gad0abf9de45d75f3548e1eecfa3eac96b" target="_top" xlink:title="Create a producing or consuming UDP socket. ">
<polygon fill="none" stroke="black" points="316,-0.5 316,-19.5 394,-19.5 394,-0.5 316,-0.5"/>
<text text-anchor="middle" x="355" y="-7.5" font-family="Helvetica,sans-Serif" font-size="10.00">SendUdpData</text>
</a>
</g>
</g>
<!-- Node2&#45;&gt;Node3 -->
<g id="edge2" class="edge"><title>Node2&#45;&gt;Node3</title>
<path fill="none" stroke="midnightblue" d="M290.474,-10C299.183,-10 307.88,-10 315.921,-10"/>
<polygon fill="midnightblue" stroke="midnightblue" points="290.284,-6.5001 280.284,-10 290.283,-13.5001 290.284,-6.5001"/>
</g>
<!-- Node4 -->
<g id="node4" class="node"><title>Node4</title>
<g id="a_node4"><a xlink:href="../../df/d03/cipioconnection_8c.html#a20f1bc1c4cc4470cf371f94d51814de2" target="_top" xlink:title="Send the data from the produced CIP Object of the connection via the socket of the connection object ...">
<polygon fill="none" stroke="black" points="430,-0.5 430,-19.5 537,-19.5 537,-0.5 430,-0.5"/>
<text text-anchor="middle" x="483.5" y="-7.5" font-family="Helvetica,sans-Serif" font-size="10.00">SendConnectedData</text>
</a>
</g>
</g>
<!-- Node3&#45;&gt;Node4 -->
<g id="edge3" class="edge"><title>Node3&#45;&gt;Node4</title>
<path fill="none" stroke="midnightblue" d="M404.554,-10C412.838,-10 421.478,-10 429.862,-10"/>
<polygon fill="midnightblue" stroke="midnightblue" points="404.297,-6.5001 394.297,-10 404.297,-13.5001 404.297,-6.5001"/>
</g>
<!-- Node5 -->
<g id="node5" class="node"><title>Node5</title>
<g id="a_node5"><a xlink:href="../../df/d03/cipioconnection_8c.html#ab3282f146a3ea91c90cf14c32206ee8c" target="_top" xlink:title="SetIoConnectionCallbacks">
<polygon fill="none" stroke="black" points="573,-0.5 573,-19.5 706,-19.5 706,-0.5 573,-0.5"/>
<text text-anchor="middle" x="639.5" y="-7.5" font-family="Helvetica,sans-Serif" font-size="10.00">SetIoConnectionCallbacks</text>
</a>
</g>
</g>
<!-- Node4&#45;&gt;Node5 -->
<g id="edge4" class="edge"><title>Node4&#45;&gt;Node5</title>
<path fill="none" stroke="midnightblue" d="M547.216,-10C555.656,-10 564.334,-10 572.824,-10"/>
<polygon fill="midnightblue" stroke="midnightblue" points="547.067,-6.5001 537.067,-10 547.067,-13.5001 547.067,-6.5001"/>
</g>
<!-- Node6 -->
<g id="node6" class="node"><title>Node6</title>
<g id="a_node6"><a xlink:href="../../de/d45/cipioconnection_8h.html#a43e270b3f9b9f6296b12285c320c95aa" target="_top" xlink:title="Setup all data in order to establish an IO connection. ">
<polygon fill="none" stroke="black" points="742,-0.5 742,-19.5 857,-19.5 857,-0.5 742,-0.5"/>
<text text-anchor="middle" x="799.5" y="-7.5" font-family="Helvetica,sans-Serif" font-size="10.00">EstablishIoConnection</text>
</a>
</g>
</g>
<!-- Node5&#45;&gt;Node6 -->
<g id="edge5" class="edge"><title>Node5&#45;&gt;Node6</title>
<path fill="none" stroke="midnightblue" d="M716.223,-10C724.858,-10 733.547,-10 741.873,-10"/>
<polygon fill="midnightblue" stroke="midnightblue" points="716.134,-6.5001 706.134,-10 716.134,-13.5001 716.134,-6.5001"/>
</g>
<!-- Node7 -->
<g id="node7" class="node"><title>Node7</title>
<g id="a_node7"><a xlink:href="../../d2/da3/cipconnectionmanager_8h.html#a5ab0de6894d23e8fe84a6b46797c2212" target="_top" xlink:title="Initialize the data of the connection manager object. ">
<polygon fill="none" stroke="black" points="893,-0.5 893,-19.5 1010,-19.5 1010,-0.5 893,-0.5"/>
<text text-anchor="middle" x="951.5" y="-7.5" font-family="Helvetica,sans-Serif" font-size="10.00">ConnectionManagerInit</text>
</a>
</g>
</g>
<!-- Node6&#45;&gt;Node7 -->
<g id="edge6" class="edge"><title>Node6&#45;&gt;Node7</title>
<path fill="none" stroke="midnightblue" d="M867.408,-10C875.85,-10 884.43,-10 892.714,-10"/>
<polygon fill="midnightblue" stroke="midnightblue" points="867.209,-6.5001 857.209,-10 867.209,-13.5001 867.209,-6.5001"/>
</g>
<!-- Node8 -->
<g id="node8" class="node"><title>Node8</title>
<g id="a_node8"><a xlink:href="../../d2/dc9/group__CIP__API.html#ga5d4979945d124e28668b264c3823db1c" target="_top" xlink:title="Initialize and setup the CIP&#45;stack. ">
<polygon fill="none" stroke="black" points="1046,-0.5 1046,-19.5 1117,-19.5 1117,-0.5 1046,-0.5"/>
<text text-anchor="middle" x="1081.5" y="-7.5" font-family="Helvetica,sans-Serif" font-size="10.00">CipStackInit</text>
</a>
</g>
</g>
<!-- Node7&#45;&gt;Node8 -->
<g id="edge7" class="edge"><title>Node7&#45;&gt;Node8</title>
<path fill="none" stroke="midnightblue" d="M1020.18,-10C1029.08,-10 1037.88,-10 1045.9,-10"/>
<polygon fill="midnightblue" stroke="midnightblue" points="1020.13,-6.5001 1010.13,-10 1020.13,-13.5001 1020.13,-6.5001"/>
</g>
<!-- Node9 -->
<g id="node9" class="node"><title>Node9</title>
<g id="a_node9"><a xlink:href="../../d5/dcb/MINGW_2main_8c.html#ad338a7dbc41dc40bcecd0479377ef207" target="_top" xlink:title="main">
<polygon fill="none" stroke="black" points="1153,-0.5 1153,-19.5 1191,-19.5 1191,-0.5 1153,-0.5"/>
<text text-anchor="middle" x="1172" y="-7.5" font-family="Helvetica,sans-Serif" font-size="10.00">main</text>
</a>
</g>
</g>
<!-- Node8&#45;&gt;Node9 -->
<g id="edge8" class="edge"><title>Node8&#45;&gt;Node9</title>
<path fill="none" stroke="midnightblue" d="M1127.38,-10C1136.44,-10 1145.45,-10 1152.92,-10"/>
<polygon fill="midnightblue" stroke="midnightblue" points="1127.22,-6.5001 1117.22,-10 1127.22,-13.5001 1127.22,-6.5001"/>
</g>
<!-- Node10 -->
<g id="node10" class="node"><title>Node10</title>
<g id="a_node10"><a xlink:href="../../d8/d03/ports_2MINGW_2CMakeLists_8txt.html#a7e00df43a20d627a1732be7766d91097" target="_top" xlink:title="add_library">
<polygon fill="none" stroke="black" points="1227,-0.5 1227,-19.5 1291,-19.5 1291,-0.5 1227,-0.5"/>
<text text-anchor="middle" x="1259" y="-7.5" font-family="Helvetica,sans-Serif" font-size="10.00">add_library</text>
</a>
</g>
</g>
<!-- Node9&#45;&gt;Node10 -->
<g id="edge9" class="edge"><title>Node9&#45;&gt;Node10</title>
<path fill="none" stroke="midnightblue" d="M1201.27,-10C1209.5,-10 1218.55,-10 1226.94,-10"/>
<polygon fill="midnightblue" stroke="midnightblue" points="1201.03,-6.5001 1191.03,-10 1201.03,-13.5001 1201.03,-6.5001"/>
</g>
<!-- Node11 -->
<g id="node11" class="node"><title>Node11</title>
<g id="a_node11"><a xlink:href="../../d8/dce/ports_2CMakeLists_8txt.html#a598fae457555a5fb26e18d4cd8f89de9" target="_top" xlink:title="add_subdirectory">
<polygon fill="none" stroke="black" points="1327,-0.5 1327,-19.5 1418,-19.5 1418,-0.5 1327,-0.5"/>
<text text-anchor="middle" x="1372.5" y="-7.5" font-family="Helvetica,sans-Serif" font-size="10.00">add_subdirectory</text>
</a>
</g>
</g>
<!-- Node10&#45;&gt;Node11 -->
<g id="edge10" class="edge"><title>Node10&#45;&gt;Node11</title>
<path fill="none" stroke="midnightblue" d="M1301.3,-10C1309.63,-10 1318.42,-10 1326.86,-10"/>
<polygon fill="midnightblue" stroke="midnightblue" points="1301.06,-6.5001 1291.06,-10 1301.06,-13.5001 1301.06,-6.5001"/>
</g>
</g>
</svg>
        <g id="navigator" transform="translate(0 0)" fill="#404254">
                <rect fill="#f2f5e9" fill-opacity="0.5" stroke="#606060" stroke-width=".5" x="0" y="0" width="60" height="60"/>
                <use id="zoomplus" xlink:href="#zoomPlus" x="17" y="9" onmousedown="handleZoom(evt,'in')"/>
                <use id="zoomminus" xlink:href="#zoomMin" x="42" y="9" onmousedown="handleZoom(evt,'out')"/>
                <use id="reset" xlink:href="#resetDef" x="30" y="36" onmousedown="handleReset()"/>
                <g id="arrowUp" xlink:href="#dirArrow" transform="translate(30 24)" onmousedown="handlePan(0,-1)">
                  <use xlink:href="#rim" fill="#404040">
                        <set attributeName="fill" to="#808080" begin="arrowUp.mouseover" end="arrowUp.mouseout"/>
                  </use>
                  <path fill="none" stroke="white" stroke-width="1.5" d="M0,-3.0v7 M-2.5,-0.5L0,-3.0L2.5,-0.5"/>
                </g>
                <g id="arrowRight" xlink:href="#dirArrow" transform="rotate(90) translate(36 -43)" onmousedown="handlePan(1,0)">
                  <use xlink:href="#rim" fill="#404040">
                        <set attributeName="fill" to="#808080" begin="arrowRight.mouseover" end="arrowRight.mouseout"/>
                  </use>
                  <path fill="none" stroke="white" stroke-width="1.5" d="M0,-3.0v7 M-2.5,-0.5L0,-3.0L2.5,-0.5"/>
                </g>
                <g id="arrowDown" xlink:href="#dirArrow" transform="rotate(180) translate(-30 -48)" onmousedown="handlePan(0,1)">
                  <use xlink:href="#rim" fill="#404040">
                        <set attributeName="fill" to="#808080" begin="arrowDown.mouseover" end="arrowDown.mouseout"/>
                  </use>
                  <path fill="none" stroke="white" stroke-width="1.5" d="M0,-3.0v7 M-2.5,-0.5L0,-3.0L2.5,-0.5"/>
                </g>
                <g id="arrowLeft" xlink:href="#dirArrow" transform="rotate(270) translate(-36 17)" onmousedown="handlePan(-1,0)">
                  <use xlink:href="#rim" fill="#404040">
                        <set attributeName="fill" to="#808080" begin="arrowLeft.mouseover" end="arrowLeft.mouseout"/>
                  </use>
                  <path fill="none" stroke="white" stroke-width="1.5" d="M0,-3.0v7 M-2.5,-0.5L0,-3.0L2.5,-0.5"/>
                </g>
        </g>
        <svg viewBox="0 0 15 15" width="100%" height="30px" preserveAspectRatio="xMaxYMin meet">
         <g id="arrow_out" transform="scale(0.3 0.3)">
          <a xlink:href="udp__protocol_8c_a4f9dc19e17b3221e57c84bd4a7c92dfe_icgraph_org.svg" target="_base">
           <rect id="button" ry="5" rx="5" y="6" x="6" height="38" width="38"
                fill="#f2f5e9" fill-opacity="0.5" stroke="#606060" stroke-width="1.0"/>
           <path id="arrow"
             d="M 11.500037,31.436501 C 11.940474,20.09759 22.043105,11.32322 32.158766,21.979434 L 37.068811,17.246167 C 37.068811,17.246167 37.088388,32 37.088388,32 L 22.160133,31.978069 C 22.160133,31.978069 26.997745,27.140456 26.997745,27.140456 C 18.528582,18.264221 13.291696,25.230495 11.500037,31.436501 z"
             style="fill:#404040;"/>
          </a>
         </g>
        </svg>
</svg>
