<?xml version="1.0" encoding="UTF-8" standalone="no"?>
<!DOCTYPE svg PUBLIC "-//W3C//DTD SVG 1.1//EN"
 "http://www.w3.org/Graphics/SVG/1.1/DTD/svg11.dtd">
<!-- Generated by graphviz version 2.36.0 (20140111.2315)
 -->
<!-- Title: UDPHeaderGenerate Pages: 1 -->
<svg width="1114pt" height="104pt"
 viewBox="0.00 0.00 1114.00 104.00" xmlns="http://www.w3.org/2000/svg" xmlns:xlink="http://www.w3.org/1999/xlink">
<g id="graph0" class="graph" transform="scale(1 1) rotate(0) translate(4 100)">
<title>UDPHeaderGenerate</title>
<!-- Node1 -->
<g id="node1" class="node"><title>Node1</title>
<polygon fill="#bfbfbf" stroke="black" points="0,-57.5 0,-76.5 110,-76.5 110,-57.5 0,-57.5"/>
<text text-anchor="middle" x="55" y="-64.5" font-family="Helvetica,sans-Serif" font-size="10.00">UDPHeaderGenerate</text>
</g>
<!-- Node2 -->
<g id="node2" class="node"><title>Node2</title>
<g id="a_node2"><a xlink:href="../../d5/dc5/group__CIP__CALLBACK__API.html#gad0abf9de45d75f3548e1eecfa3eac96b" target="_top" xlink:title="Create a producing or consuming UDP socket. ">
<polygon fill="none" stroke="black" points="146,-57.5 146,-76.5 224,-76.5 224,-57.5 146,-57.5"/>
<text text-anchor="middle" x="185" y="-64.5" font-family="Helvetica,sans-Serif" font-size="10.00">SendUdpData</text>
</a>
</g>
</g>
<!-- Node1&#45;&gt;Node2 -->
<g id="edge1" class="edge"><title>Node1&#45;&gt;Node2</title>
<path fill="none" stroke="midnightblue" d="M120.474,-67C129.183,-67 137.88,-67 145.921,-67"/>
<polygon fill="midnightblue" stroke="midnightblue" points="120.284,-63.5001 110.284,-67 120.283,-70.5001 120.284,-63.5001"/>
</g>
<!-- Node3 -->
<g id="node3" class="node"><title>Node3</title>
<g id="a_node3"><a xlink:href="../../df/d03/cipioconnection_8c.html#a20f1bc1c4cc4470cf371f94d51814de2" target="_top" xlink:title="Send the data from the produced CIP Object of the connection via the socket of the connection object ...">
<polygon fill="none" stroke="black" points="285.5,-76.5 285.5,-95.5 392.5,-95.5 392.5,-76.5 285.5,-76.5"/>
<text text-anchor="middle" x="339" y="-83.5" font-family="Helvetica,sans-Serif" font-size="10.00">SendConnectedData</text>
</a>
</g>
</g>
<!-- Node2&#45;&gt;Node3 -->
<g id="edge2" class="edge"><title>Node2&#45;&gt;Node3</title>
<path fill="none" stroke="midnightblue" d="M234.659,-73.0824C250.811,-75.1013 268.863,-77.3579 285.304,-79.413"/>
<polygon fill="midnightblue" stroke="midnightblue" points="234.713,-69.562 224.356,-71.7945 233.845,-76.5079 234.713,-69.562"/>
</g>
<!-- Node9 -->
<g id="node9" class="node"><title>Node9</title>
<g id="a_node9"><a xlink:href="../../d4/d91/group__ENCAP.html#ga3b9c0d7d9d1413e4cd8ca5634b4bc9ac" target="_top" xlink:title="Handle delayed encapsulation message responses. ">
<polygon fill="none" stroke="black" points="260,-38.5 260,-57.5 418,-57.5 418,-38.5 260,-38.5"/>
<text text-anchor="middle" x="339" y="-45.5" font-family="Helvetica,sans-Serif" font-size="10.00">ManageEncapsulationMessages</text>
</a>
</g>
</g>
<!-- Node2&#45;&gt;Node9 -->
<g id="edge8" class="edge"><title>Node2&#45;&gt;Node9</title>
<path fill="none" stroke="midnightblue" d="M234.33,-60.9588C243.076,-59.8654 252.389,-58.7014 261.708,-57.5365"/>
<polygon fill="midnightblue" stroke="midnightblue" points="233.845,-57.4921 224.356,-62.2055 234.713,-64.438 233.845,-57.4921"/>
</g>
<!-- Node4 -->
<g id="node4" class="node"><title>Node4</title>
<g id="a_node4"><a xlink:href="../../df/d03/cipioconnection_8c.html#ab3282f146a3ea91c90cf14c32206ee8c" target="_top" xlink:title="SetIoConnectionCallbacks">
<polygon fill="none" stroke="black" points="454.5,-76.5 454.5,-95.5 587.5,-95.5 587.5,-76.5 454.5,-76.5"/>
<text text-anchor="middle" x="521" y="-83.5" font-family="Helvetica,sans-Serif" font-size="10.00">SetIoConnectionCallbacks</text>
</a>
</g>
</g>
<!-- Node3&#45;&gt;Node4 -->
<g id="edge3" class="edge"><title>Node3&#45;&gt;Node4</title>
<path fill="none" stroke="midnightblue" d="M402.724,-86C419.392,-86 437.438,-86 454.262,-86"/>
<polygon fill="midnightblue" stroke="midnightblue" points="402.547,-82.5001 392.547,-86 402.547,-89.5001 402.547,-82.5001"/>
</g>
<!-- Node5 -->
<g id="node5" class="node"><title>Node5</title>
<g id="a_node5"><a xlink:href="../../de/d45/cipioconnection_8h.html#a43e270b3f9b9f6296b12285c320c95aa" target="_top" xlink:title="Setup all data in order to establish an IO connection. ">
<polygon fill="none" stroke="black" points="639.5,-76.5 639.5,-95.5 754.5,-95.5 754.5,-76.5 639.5,-76.5"/>
<text text-anchor="middle" x="697" y="-83.5" font-family="Helvetica,sans-Serif" font-size="10.00">EstablishIoConnection</text>
</a>
</g>
</g>
<!-- Node4&#45;&gt;Node5 -->
<g id="edge4" class="edge"><title>Node4&#45;&gt;Node5</title>
<path fill="none" stroke="midnightblue" d="M597.816,-86C611.72,-86 626.011,-86 639.237,-86"/>
<polygon fill="midnightblue" stroke="midnightblue" points="597.782,-82.5001 587.782,-86 597.782,-89.5001 597.782,-82.5001"/>
</g>
<!-- Node6 -->
<g id="node6" class="node"><title>Node6</title>
<g id="a_node6"><a xlink:href="../../d2/da3/cipconnectionmanager_8h.html#a5ab0de6894d23e8fe84a6b46797c2212" target="_top" xlink:title="Initialize the data of the connection manager object. ">
<polygon fill="none" stroke="black" points="806.5,-76.5 806.5,-95.5 923.5,-95.5 923.5,-76.5 806.5,-76.5"/>
<text text-anchor="middle" x="865" y="-83.5" font-family="Helvetica,sans-Serif" font-size="10.00">ConnectionManagerInit</text>
</a>
</g>
</g>
<!-- Node5&#45;&gt;Node6 -->
<g id="edge5" class="edge"><title>Node5&#45;&gt;Node6</title>
<path fill="none" stroke="midnightblue" d="M765.022,-86C778.756,-86 793.098,-86 806.463,-86"/>
<polygon fill="midnightblue" stroke="midnightblue" points="764.664,-82.5001 754.663,-86 764.663,-89.5001 764.664,-82.5001"/>
</g>
<!-- Node7 -->
<g id="node7" class="node"><title>Node7</title>
<g id="a_node7"><a xlink:href="../../d2/dc9/group__CIP__API.html#ga5d4979945d124e28668b264c3823db1c" target="_top" xlink:title="Initialize and setup the CIP&#45;stack. ">
<polygon fill="none" stroke="black" points="960.5,-76.5 960.5,-95.5 1031.5,-95.5 1031.5,-76.5 960.5,-76.5"/>
<text text-anchor="middle" x="996" y="-83.5" font-family="Helvetica,sans-Serif" font-size="10.00">CipStackInit</text>
</a>
</g>
</g>
<!-- Node6&#45;&gt;Node7 -->
<g id="edge6" class="edge"><title>Node6&#45;&gt;Node7</title>
<path fill="none" stroke="midnightblue" d="M933.982,-86C943.081,-86 952.087,-86 960.274,-86"/>
<polygon fill="midnightblue" stroke="midnightblue" points="933.709,-82.5001 923.708,-86 933.708,-89.5001 933.709,-82.5001"/>
</g>
<!-- Node8 -->
<g id="node8" class="node"><title>Node8</title>
<g id="a_node8"><a xlink:href="../../d5/dcb/MINGW_2main_8c.html#ad338a7dbc41dc40bcecd0479377ef207" target="_top" xlink:title="main">
<polygon fill="none" stroke="black" points="1068,-57.5 1068,-76.5 1106,-76.5 1106,-57.5 1068,-57.5"/>
<text text-anchor="middle" x="1087" y="-64.5" font-family="Helvetica,sans-Serif" font-size="10.00">main</text>
</a>
</g>
</g>
<!-- Node7&#45;&gt;Node8 -->
<g id="edge7" class="edge"><title>Node7&#45;&gt;Node8</title>
<path fill="none" stroke="midnightblue" d="M1041.61,-76.4757C1050.85,-74.504 1060.08,-72.5336 1067.71,-70.9044"/>
<polygon fill="midnightblue" stroke="midnightblue" points="1040.71,-73.089 1031.66,-78.5997 1042.17,-79.9347 1040.71,-73.089"/>
</g>
<!-- Node10 -->
<g id="node10" class="node"><title>Node10</title>
<g id="a_node10"><a xlink:href="../../d2/dc9/group__CIP__API.html#ga9f57b09260efb5bfb188b9d0ca0c6091" target="_top" xlink:title="Check if any of the connection timers (TransmissionTrigger or WatchdogTimeout) have timed out...">
<polygon fill="none" stroke="black" points="468,-38.5 468,-57.5 574,-57.5 574,-38.5 468,-38.5"/>
<text text-anchor="middle" x="521" y="-45.5" font-family="Helvetica,sans-Serif" font-size="10.00">ManageConnections</text>
</a>
</g>
</g>
<!-- Node9&#45;&gt;Node10 -->
<g id="edge9" class="edge"><title>Node9&#45;&gt;Node10</title>
<path fill="none" stroke="midnightblue" d="M428.448,-48C441.932,-48 455.463,-48 467.829,-48"/>
<polygon fill="midnightblue" stroke="midnightblue" points="428.165,-44.5001 418.165,-48 428.165,-51.5001 428.165,-44.5001"/>
</g>
<!-- Node11 -->
<g id="node11" class="node"><title>Node11</title>
<g id="a_node11"><a xlink:href="../../da/dc2/generic__networkhandler_8h.html#a2f01af81d3e5018d9980e2bc28c9078a" target="_top" xlink:title="NetworkHandlerProcessOnce">
<polygon fill="none" stroke="black" points="624,-38.5 624,-57.5 770,-57.5 770,-38.5 624,-38.5"/>
<text text-anchor="middle" x="697" y="-45.5" font-family="Helvetica,sans-Serif" font-size="10.00">NetworkHandlerProcessOnce</text>
</a>
</g>
</g>
<!-- Node10&#45;&gt;Node11 -->
<g id="edge10" class="edge"><title>Node10&#45;&gt;Node11</title>
<path fill="none" stroke="midnightblue" d="M584.303,-48C597.132,-48 610.742,-48 623.885,-48"/>
<polygon fill="midnightblue" stroke="midnightblue" points="584.206,-44.5001 574.206,-48 584.206,-51.5001 584.206,-44.5001"/>
</g>
<!-- Node11&#45;&gt;Node8 -->
<g id="edge13" class="edge"><title>Node11&#45;&gt;Node8</title>
<path fill="none" stroke="midnightblue" d="M780.282,-52.0292C873.085,-56.5737 1017.63,-63.652 1067.98,-66.1176"/>
<polygon fill="midnightblue" stroke="midnightblue" points="780.23,-48.5226 770.071,-51.5292 779.887,-55.5142 780.23,-48.5226"/>
</g>
<!-- Node12 -->
<g id="node12" class="node"><title>Node12</title>
<g id="a_node12"><a xlink:href="../../d9/dfb/POSIX_2main_8c.html#a14982bc20347a462f767f58c18142919" target="_top" xlink:title="Signal handler function for ending stack execution. ">
<polygon fill="none" stroke="black" points="816,-0.5 816,-19.5 914,-19.5 914,-0.5 816,-0.5"/>
<text text-anchor="middle" x="865" y="-7.5" font-family="Helvetica,sans-Serif" font-size="10.00">executeEventLoop</text>
</a>
</g>
</g>
<!-- Node11&#45;&gt;Node12 -->
<g id="edge11" class="edge"><title>Node11&#45;&gt;Node12</title>
<path fill="none" stroke="midnightblue" d="M749.653,-36.1757C773.056,-30.8184 800.357,-24.5689 822.412,-19.5201"/>
<polygon fill="midnightblue" stroke="midnightblue" points="748.856,-32.7677 739.889,-38.411 750.418,-39.5912 748.856,-32.7677"/>
</g>
<!-- Node13 -->
<g id="node13" class="node"><title>Node13</title>
<g id="a_node13"><a xlink:href="../../d9/dfb/POSIX_2main_8c.html#ad338a7dbc41dc40bcecd0479377ef207" target="_top" xlink:title="main">
<polygon fill="none" stroke="black" points="977,-0.5 977,-19.5 1015,-19.5 1015,-0.5 977,-0.5"/>
<text text-anchor="middle" x="996" y="-7.5" font-family="Helvetica,sans-Serif" font-size="10.00">main</text>
</a>
</g>
</g>
<!-- Node12&#45;&gt;Node13 -->
<g id="edge12" class="edge"><title>Node12&#45;&gt;Node13</title>
<path fill="none" stroke="midnightblue" d="M924.203,-10C943.268,-10 963.074,-10 976.872,-10"/>
<polygon fill="midnightblue" stroke="midnightblue" points="924.035,-6.5001 914.035,-10 924.035,-13.5001 924.035,-6.5001"/>
</g>
</g>
</svg>
