<?xml version="1.0" encoding="UTF-8" standalone="no"?>
<!DOCTYPE svg PUBLIC "-//W3C//DTD SVG 1.1//EN"
 "http://www.w3.org/Graphics/SVG/1.1/DTD/svg11.dtd">
<!-- Generated by graphviz version 2.38.0 (20140413.2041)
 -->
<!-- Title: src/ports/generic_networkhandler.h Pages: 1 -->
<svg width="1429pt" height="84pt"
 viewBox="0.00 0.00 1428.50 84.00" xmlns="http://www.w3.org/2000/svg" xmlns:xlink="http://www.w3.org/1999/xlink">
<g id="graph0" class="graph" transform="scale(1 1) rotate(0) translate(4 80)">
<title>src/ports/generic_networkhandler.h</title>
<!-- Node1 -->
<g id="node1" class="node"><title>Node1</title>
<polygon fill="#bfbfbf" stroke="black" points="621,-56.5 621,-75.5 790,-75.5 790,-56.5 621,-56.5"/>
<text text-anchor="middle" x="705.5" y="-63.5" font-family="Helvetica,sans-Serif" font-size="10.00">src/ports/generic_networkhandler.h</text>
</g>
<!-- Node2 -->
<g id="node2" class="node"><title>Node2</title>
<g id="a_node2"><a xlink:href="../../d5/d35/cipconnectionmanager_8c.html" target="_top" xlink:title="src/cip/cipconnectionmanager.c">
<polygon fill="none" stroke="black" points="0,-0.5 0,-19.5 155,-19.5 155,-0.5 0,-0.5"/>
<text text-anchor="middle" x="77.5" y="-7.5" font-family="Helvetica,sans-Serif" font-size="10.00">src/cip/cipconnectionmanager.c</text>
</a>
</g>
</g>
<!-- Node1&#45;&gt;Node2 -->
<g id="edge1" class="edge"><title>Node1&#45;&gt;Node2</title>
<path fill="none" stroke="midnightblue" d="M610.718,-57.7494C502.488,-49.3262 320.141,-34.6973 163.5,-20 160.81,-19.7476 158.072,-19.4861 155.308,-19.2182"/>
<polygon fill="midnightblue" stroke="midnightblue" points="610.716,-61.2597 620.957,-58.5449 611.259,-54.2807 610.716,-61.2597"/>
</g>
<!-- Node3 -->
<g id="node3" class="node"><title>Node3</title>
<g id="a_node3"><a xlink:href="../../df/d03/cipioconnection_8c.html" target="_top" xlink:title="src/cip/cipioconnection.c">
<polygon fill="none" stroke="black" points="173,-0.5 173,-19.5 298,-19.5 298,-0.5 173,-0.5"/>
<text text-anchor="middle" x="235.5" y="-7.5" font-family="Helvetica,sans-Serif" font-size="10.00">src/cip/cipioconnection.c</text>
</a>
</g>
</g>
<!-- Node1&#45;&gt;Node3 -->
<g id="edge2" class="edge"><title>Node1&#45;&gt;Node3</title>
<path fill="none" stroke="midnightblue" d="M616.961,-55.3682C536.079,-46.4853 413.2,-32.779 306.5,-20 303.786,-19.6749 301.014,-19.3393 298.214,-18.9973"/>
<polygon fill="midnightblue" stroke="midnightblue" points="616.782,-58.8695 627.104,-56.481 617.545,-51.9112 616.782,-58.8695"/>
</g>
<!-- Node4 -->
<g id="node4" class="node"><title>Node4</title>
<g id="a_node4"><a xlink:href="../../d2/dbd/encap_8c.html" target="_top" xlink:title="src/enet_encap/encap.c">
<polygon fill="none" stroke="black" points="316,-0.5 316,-19.5 437,-19.5 437,-0.5 316,-0.5"/>
<text text-anchor="middle" x="376.5" y="-7.5" font-family="Helvetica,sans-Serif" font-size="10.00">src/enet_encap/encap.c</text>
</a>
</g>
</g>
<!-- Node1&#45;&gt;Node4 -->
<g id="edge3" class="edge"><title>Node1&#45;&gt;Node4</title>
<path fill="none" stroke="midnightblue" d="M643.299,-54.7907C581.132,-44.587 486.642,-29.078 428.387,-19.5164"/>
<polygon fill="midnightblue" stroke="midnightblue" points="642.934,-58.2776 653.369,-56.4435 644.068,-51.37 642.934,-58.2776"/>
</g>
<!-- Node5 -->
<g id="node5" class="node"><title>Node5</title>
<g id="a_node5"><a xlink:href="../../db/d4f/generic__networkhandler_8c.html" target="_top" xlink:title="This file includes all platform&#45;independent functions of the network handler to reduce code duplicati...">
<polygon fill="none" stroke="black" points="455,-0.5 455,-19.5 624,-19.5 624,-0.5 455,-0.5"/>
<text text-anchor="middle" x="539.5" y="-7.5" font-family="Helvetica,sans-Serif" font-size="10.00">src/ports/generic_networkhandler.c</text>
</a>
</g>
</g>
<!-- Node1&#45;&gt;Node5 -->
<g id="edge4" class="edge"><title>Node1&#45;&gt;Node5</title>
<path fill="none" stroke="midnightblue" d="M669.547,-53.3044C638.268,-43.1294 593.679,-28.6246 565.68,-19.5164"/>
<polygon fill="midnightblue" stroke="midnightblue" points="668.605,-56.6783 679.197,-56.4435 670.77,-50.0217 668.605,-56.6783"/>
</g>
<!-- Node6 -->
<g id="node6" class="node"><title>Node6</title>
<g id="a_node6"><a xlink:href="../../d5/dcb/MINGW_2main_8c.html" target="_top" xlink:title="src/ports/MINGW/main.c">
<polygon fill="none" stroke="black" points="642.5,-0.5 642.5,-19.5 768.5,-19.5 768.5,-0.5 642.5,-0.5"/>
<text text-anchor="middle" x="705.5" y="-7.5" font-family="Helvetica,sans-Serif" font-size="10.00">src/ports/MINGW/main.c</text>
</a>
</g>
</g>
<!-- Node1&#45;&gt;Node6 -->
<g id="edge5" class="edge"><title>Node1&#45;&gt;Node6</title>
<path fill="none" stroke="midnightblue" d="M705.5,-45.8045C705.5,-36.9102 705.5,-26.7798 705.5,-19.7511"/>
<polygon fill="midnightblue" stroke="midnightblue" points="702,-46.083 705.5,-56.083 709,-46.083 702,-46.083"/>
</g>
<!-- Node7 -->
<g id="node7" class="node"><title>Node7</title>
<g id="a_node7"><a xlink:href="../../d3/de3/MINGW_2networkhandler_8c.html" target="_top" xlink:title="src/ports/MINGW/networkhandler.c">
<polygon fill="none" stroke="black" points="787,-0.5 787,-19.5 958,-19.5 958,-0.5 787,-0.5"/>
<text text-anchor="middle" x="872.5" y="-7.5" font-family="Helvetica,sans-Serif" font-size="10.00">src/ports/MINGW/networkhandler.c</text>
</a>
</g>
</g>
<!-- Node1&#45;&gt;Node7 -->
<g id="edge6" class="edge"><title>Node1&#45;&gt;Node7</title>
<path fill="none" stroke="midnightblue" d="M741.67,-53.3044C773.137,-43.1294 817.994,-28.6246 846.162,-19.5164"/>
<polygon fill="midnightblue" stroke="midnightblue" points="740.4,-50.0366 731.962,-56.4435 742.553,-56.697 740.4,-50.0366"/>
</g>
<!-- Node8 -->
<g id="node8" class="node"><title>Node8</title>
<g id="a_node8"><a xlink:href="../../d9/dfb/POSIX_2main_8c.html" target="_top" xlink:title="src/ports/POSIX/main.c">
<polygon fill="none" stroke="black" points="976,-0.5 976,-19.5 1097,-19.5 1097,-0.5 976,-0.5"/>
<text text-anchor="middle" x="1036.5" y="-7.5" font-family="Helvetica,sans-Serif" font-size="10.00">src/ports/POSIX/main.c</text>
</a>
</g>
</g>
<!-- Node1&#45;&gt;Node8 -->
<g id="edge7" class="edge"><title>Node1&#45;&gt;Node8</title>
<path fill="none" stroke="midnightblue" d="M768.079,-54.7907C830.624,-44.587 925.688,-29.078 984.297,-19.5164"/>
<polygon fill="midnightblue" stroke="midnightblue" points="767.254,-51.379 757.948,-56.4435 768.381,-58.2877 767.254,-51.379"/>
</g>
<!-- Node9 -->
<g id="node9" class="node"><title>Node9</title>
<g id="a_node9"><a xlink:href="../../dc/db2/WIN32_2main_8c.html" target="_top" xlink:title="src/ports/WIN32/main.c">
<polygon fill="none" stroke="black" points="1115,-0.5 1115,-19.5 1236,-19.5 1236,-0.5 1115,-0.5"/>
<text text-anchor="middle" x="1175.5" y="-7.5" font-family="Helvetica,sans-Serif" font-size="10.00">src/ports/WIN32/main.c</text>
</a>
</g>
</g>
<!-- Node1&#45;&gt;Node9 -->
<g id="edge8" class="edge"><title>Node1&#45;&gt;Node9</title>
<path fill="none" stroke="midnightblue" d="M795.255,-55.3937C876.559,-46.5811 999.625,-32.9658 1106.5,-20 1109.26,-19.6654 1112.08,-19.3182 1114.93,-18.9635"/>
<polygon fill="midnightblue" stroke="midnightblue" points="794.622,-51.9417 785.057,-56.4977 795.375,-58.9011 794.622,-51.9417"/>
</g>
<!-- Node10 -->
<g id="node10" class="node"><title>Node10</title>
<g id="a_node10"><a xlink:href="../../d8/d6c/WIN32_2networkhandler_8c.html" target="_top" xlink:title="src/ports/WIN32/networkhandler.c">
<polygon fill="none" stroke="black" points="1254.5,-0.5 1254.5,-19.5 1420.5,-19.5 1420.5,-0.5 1254.5,-0.5"/>
<text text-anchor="middle" x="1337.5" y="-7.5" font-family="Helvetica,sans-Serif" font-size="10.00">src/ports/WIN32/networkhandler.c</text>
</a>
</g>
</g>
<!-- Node1&#45;&gt;Node10 -->
<g id="edge9" class="edge"><title>Node1&#45;&gt;Node10</title>
<path fill="none" stroke="midnightblue" d="M800.384,-57.508C908.256,-48.8941 1089.61,-34.1194 1245.5,-20 1248.38,-19.7394 1251.3,-19.471 1254.26,-19.1971"/>
<polygon fill="midnightblue" stroke="midnightblue" points="799.868,-54.038 790.178,-58.3221 800.424,-61.0158 799.868,-54.038"/>
</g>
</g>
</svg>
