<?xml version="1.0" encoding="UTF-8" standalone="no"?>
<!DOCTYPE svg PUBLIC "-//W3C//DTD SVG 1.1//EN"
 "http://www.w3.org/Graphics/SVG/1.1/DTD/svg11.dtd">
<!-- Generated by graphviz version 2.38.0 (20140413.2041)
 -->
<!-- Title: ElectronicKeyFormat4GetDeviceType Pages: 1 -->
<svg width="1241pt" height="99pt"
 viewBox="0.00 0.00 1241.00 99.00" xmlns="http://www.w3.org/2000/svg" xmlns:xlink="http://www.w3.org/1999/xlink">
<g id="graph0" class="graph" transform="scale(1 1) rotate(0) translate(4 95)">
<title>ElectronicKeyFormat4GetDeviceType</title>
<!-- Node1 -->
<g id="node1" class="node"><title>Node1</title>
<polygon fill="#bfbfbf" stroke="black" points="0,-44 0,-63 182,-63 182,-44 0,-44"/>
<text text-anchor="middle" x="91" y="-51" font-family="Helvetica,sans-Serif" font-size="10.00">ElectronicKeyFormat4GetDeviceType</text>
</g>
<!-- Node2 -->
<g id="node2" class="node"><title>Node2</title>
<g id="a_node2"><a xlink:href="../../d5/d35/cipconnectionmanager_8c.html#a536c0dafefbe0ea14d8c13cc9d25e946" target="_top" xlink:title="Compare the electronic key received with a forward open request with the device&#39;s data...">
<polygon fill="none" stroke="black" points="218,-63 218,-82 345,-82 345,-63 218,-63"/>
<text text-anchor="middle" x="281.5" y="-70" font-family="Helvetica,sans-Serif" font-size="10.00">CheckElectronicKeyData</text>
</a>
</g>
</g>
<!-- Node1&#45;&gt;Node2 -->
<g id="edge1" class="edge"><title>Node1&#45;&gt;Node2</title>
<path fill="none" stroke="midnightblue" d="M192.336,-63.6134C201.036,-64.4903 209.666,-65.3602 217.929,-66.1931"/>
<polygon fill="midnightblue" stroke="midnightblue" points="192.41,-60.1032 182.109,-62.5826 191.708,-67.068 192.41,-60.1032"/>
</g>
<!-- Node3 -->
<g id="node3" class="node"><title>Node3</title>
<g id="a_node3"><a xlink:href="../../d5/d35/cipconnectionmanager_8c.html#ad7b34359aea58ef8d4e77008ea53098f" target="_top" xlink:title="Parse the connection path of a forward open request. ">
<polygon fill="none" stroke="black" points="381,-44 381,-63 493,-63 493,-44 381,-44"/>
<text text-anchor="middle" x="437" y="-51" font-family="Helvetica,sans-Serif" font-size="10.00">ParseConnectionPath</text>
</a>
</g>
</g>
<!-- Node1&#45;&gt;Node3 -->
<g id="edge10" class="edge"><title>Node1&#45;&gt;Node3</title>
<path fill="none" stroke="midnightblue" d="M192.501,-53.5C253.958,-53.5 330.23,-53.5 380.865,-53.5"/>
<polygon fill="midnightblue" stroke="midnightblue" points="192.382,-50.0001 182.382,-53.5 192.382,-57.0001 192.382,-50.0001"/>
</g>
<!-- Node2&#45;&gt;Node3 -->
<g id="edge2" class="edge"><title>Node2&#45;&gt;Node3</title>
<path fill="none" stroke="midnightblue" d="M355.378,-63.4793C363.944,-62.4189 372.575,-61.3506 380.842,-60.3274"/>
<polygon fill="midnightblue" stroke="midnightblue" points="354.872,-60.0152 345.377,-64.7172 355.731,-66.9621 354.872,-60.0152"/>
</g>
<!-- Node4 -->
<g id="node4" class="node"><title>Node4</title>
<g id="a_node4"><a xlink:href="../../d5/d35/cipconnectionmanager_8c.html#af379a4b383c738a07d8e1ab0a4ac7510" target="_top" xlink:title="Handles a Non Null Non Matching Forward Open Request. ">
<polygon fill="none" stroke="black" points="529,-38.5 529,-68.5 669,-68.5 669,-38.5 529,-38.5"/>
<text text-anchor="start" x="537" y="-56.5" font-family="Helvetica,sans-Serif" font-size="10.00">HandleNonNullNonMatching</text>
<text text-anchor="middle" x="599" y="-45.5" font-family="Helvetica,sans-Serif" font-size="10.00">ForwardOpenRequest</text>
</a>
</g>
</g>
<!-- Node3&#45;&gt;Node4 -->
<g id="edge3" class="edge"><title>Node3&#45;&gt;Node4</title>
<path fill="none" stroke="midnightblue" d="M503.264,-53.5C511.742,-53.5 520.448,-53.5 528.985,-53.5"/>
<polygon fill="midnightblue" stroke="midnightblue" points="503.063,-50.0001 493.063,-53.5 503.063,-57.0001 503.063,-50.0001"/>
</g>
<!-- Node5 -->
<g id="node5" class="node"><title>Node5</title>
<g id="a_node5"><a xlink:href="../../d5/d35/cipconnectionmanager_8c.html#a7eaeec6cc54d1799cfaba4031f0168d1" target="_top" xlink:title="Handles a Non Null Matching Forward Open Request. ">
<polygon fill="none" stroke="black" points="705,-60.5 705,-90.5 863,-90.5 863,-60.5 705,-60.5"/>
<text text-anchor="start" x="713" y="-78.5" font-family="Helvetica,sans-Serif" font-size="10.00">HandleNonNullMatchingForward</text>
<text text-anchor="middle" x="784" y="-67.5" font-family="Helvetica,sans-Serif" font-size="10.00">OpenRequest</text>
</a>
</g>
</g>
<!-- Node4&#45;&gt;Node5 -->
<g id="edge4" class="edge"><title>Node4&#45;&gt;Node5</title>
<path fill="none" stroke="midnightblue" d="M679.327,-56.3399C690.467,-57.5809 701.852,-58.987 712.806,-60.4767"/>
<polygon fill="midnightblue" stroke="midnightblue" points="679.501,-52.8386 669.184,-55.2489 678.753,-59.7985 679.501,-52.8386"/>
</g>
<!-- Node5&#45;&gt;Node4 -->
<g id="edge5" class="edge"><title>Node5&#45;&gt;Node4</title>
<path fill="none" stroke="midnightblue" d="M694.774,-71.6398C686.182,-70.627 677.551,-69.5301 669.184,-68.3856"/>
<polygon fill="midnightblue" stroke="midnightblue" points="694.493,-75.1303 704.825,-72.7879 695.287,-68.1755 694.493,-75.1303"/>
</g>
<!-- Node6 -->
<g id="node6" class="node"><title>Node6</title>
<g id="a_node6"><a xlink:href="../../d5/d35/cipconnectionmanager_8c.html#a8da18334cfde58434b845b0968620811" target="_top" xlink:title="Handles a Null Matching Forward Open request. ">
<polygon fill="none" stroke="black" points="899,-22.5 899,-52.5 1039,-52.5 1039,-22.5 899,-22.5"/>
<text text-anchor="start" x="907" y="-40.5" font-family="Helvetica,sans-Serif" font-size="10.00">HandleNullMatchingForward</text>
<text text-anchor="middle" x="969" y="-29.5" font-family="Helvetica,sans-Serif" font-size="10.00">OpenRequest</text>
</a>
</g>
</g>
<!-- Node5&#45;&gt;Node6 -->
<g id="edge6" class="edge"><title>Node5&#45;&gt;Node6</title>
<path fill="none" stroke="midnightblue" d="M867.358,-58.3984C877.892,-56.2109 888.59,-53.9895 898.885,-51.8518"/>
<polygon fill="midnightblue" stroke="midnightblue" points="866.406,-55.0213 857.326,-60.4814 867.829,-61.8751 866.406,-55.0213"/>
</g>
<!-- Node6&#45;&gt;Node4 -->
<g id="edge7" class="edge"><title>Node6&#45;&gt;Node4</title>
<path fill="none" stroke="midnightblue" d="M888.53,-40.9552C823.203,-43.7955 731.571,-47.7795 669.218,-50.4905"/>
<polygon fill="midnightblue" stroke="midnightblue" points="888.942,-44.4407 898.78,-40.5096 888.638,-37.4473 888.942,-44.4407"/>
</g>
<!-- Node7 -->
<g id="node7" class="node"><title>Node7</title>
<g id="a_node7"><a xlink:href="../../d5/d35/cipconnectionmanager_8c.html#ad68060facbfe52b38428a40da630651b" target="_top" xlink:title="Handles a Null Non Matching Forward Open Request. ">
<polygon fill="none" stroke="black" points="1075,-0.5 1075,-30.5 1233,-30.5 1233,-0.5 1075,-0.5"/>
<text text-anchor="start" x="1083" y="-18.5" font-family="Helvetica,sans-Serif" font-size="10.00">HandleNullNonMatchingForward</text>
<text text-anchor="middle" x="1154" y="-7.5" font-family="Helvetica,sans-Serif" font-size="10.00">OpenRequest</text>
</a>
</g>
</g>
<!-- Node6&#45;&gt;Node7 -->
<g id="edge8" class="edge"><title>Node6&#45;&gt;Node7</title>
<path fill="none" stroke="midnightblue" d="M1049.39,-27.9562C1057.82,-26.9418 1066.4,-25.9107 1074.83,-24.898"/>
<polygon fill="midnightblue" stroke="midnightblue" points="1048.7,-24.5141 1039.18,-29.1827 1049.53,-31.464 1048.7,-24.5141"/>
</g>
<!-- Node7&#45;&gt;Node4 -->
<g id="edge9" class="edge"><title>Node7&#45;&gt;Node4</title>
<path fill="none" stroke="midnightblue" d="M1064.66,-12.9457C1055.99,-12.764 1047.32,-12.6095 1039,-12.5 976.783,-11.6815 961.084,-8.35823 899,-12.5 812.2,-18.2906 791.171,-26.5708 705,-38.5 693.417,-40.1034 681.121,-41.8343 669.176,-43.5308"/>
<polygon fill="midnightblue" stroke="midnightblue" points="1064.74,-16.4483 1074.82,-13.1704 1064.9,-9.45 1064.74,-16.4483"/>
</g>
</g>
</svg>
