<?xml version="1.0" encoding="UTF-8" standalone="no"?>
<!DOCTYPE svg PUBLIC "-//W3C//DTD SVG 1.1//EN"
 "http://www.w3.org/Graphics/SVG/1.1/DTD/svg11.dtd">
<!-- Generated by graphviz version 2.38.0 (20140413.2041)
 -->
<!-- Title: AfterAssemblyDataReceived Pages: 1 -->
<svg width="1427pt" height="142pt"
 viewBox="0.00 0.00 1427.00 142.00" xmlns="http://www.w3.org/2000/svg" xmlns:xlink="http://www.w3.org/1999/xlink">
<g id="graph0" class="graph" transform="scale(1 1) rotate(0) translate(4 138)">
<title>AfterAssemblyDataReceived</title>
<!-- Node1 -->
<g id="node1" class="node"><title>Node1</title>
<polygon fill="#bfbfbf" stroke="black" points="0,-57.5 0,-76.5 143,-76.5 143,-57.5 0,-57.5"/>
<text text-anchor="middle" x="71.5" y="-64.5" font-family="Helvetica,sans-Serif" font-size="10.00">AfterAssemblyDataReceived</text>
</g>
<!-- Node2 -->
<g id="node2" class="node"><title>Node2</title>
<g id="a_node2"><a xlink:href="../../de/df4/cipassembly_8h.html#a5dc25129faf75858c0aeaa88ea8d9490" target="_top" xlink:title="notify an Assembly object that data has been received for it. ">
<polygon fill="none" stroke="black" points="179,-74 179,-104 334,-104 334,-74 179,-74"/>
<text text-anchor="start" x="187" y="-92" font-family="Helvetica,sans-Serif" font-size="10.00">NotifyAssemblyConnectedData</text>
<text text-anchor="middle" x="256.5" y="-81" font-family="Helvetica,sans-Serif" font-size="10.00">Received</text>
</a>
</g>
</g>
<!-- Node1&#45;&gt;Node2 -->
<g id="edge1" class="edge"><title>Node1&#45;&gt;Node2</title>
<path fill="none" stroke="midnightblue" d="M153.191,-76.7006C161.723,-77.7262 170.381,-78.7672 178.865,-79.787"/>
<polygon fill="midnightblue" stroke="midnightblue" points="153.599,-73.2245 143.253,-75.5058 152.763,-80.1744 153.599,-73.2245"/>
</g>
<!-- Node12 -->
<g id="node12" class="node"><title>Node12</title>
<g id="a_node12"><a xlink:href="../../df/d2e/cipassembly_8c.html#a67ceeb31f4af6f6d7e6c1825227533cb" target="_top" xlink:title="Implementation of the SetAttributeSingle CIP service for Assembly Objects. Currently only supports At...">
<polygon fill="none" stroke="black" points="187,-35.5 187,-54.5 326,-54.5 326,-35.5 187,-35.5"/>
<text text-anchor="middle" x="256.5" y="-42.5" font-family="Helvetica,sans-Serif" font-size="10.00">SetAssemblyAttributeSingle</text>
</a>
</g>
</g>
<!-- Node1&#45;&gt;Node12 -->
<g id="edge12" class="edge"><title>Node1&#45;&gt;Node12</title>
<path fill="none" stroke="midnightblue" d="M153.393,-57.2752C164.52,-55.9375 175.86,-54.5742 186.741,-53.2661"/>
<polygon fill="midnightblue" stroke="midnightblue" points="152.763,-53.8256 143.253,-58.4942 153.599,-60.7755 152.763,-53.8256"/>
</g>
<!-- Node3 -->
<g id="node3" class="node"><title>Node3</title>
<g id="a_node3"><a xlink:href="../../df/d03/cipioconnection_8c.html#a68b99df85d462657b12a854316c168f5" target="_top" xlink:title="HandleConfigData">
<polygon fill="none" stroke="black" points="405,-114.5 405,-133.5 502,-133.5 502,-114.5 405,-114.5"/>
<text text-anchor="middle" x="453.5" y="-121.5" font-family="Helvetica,sans-Serif" font-size="10.00">HandleConfigData</text>
</a>
</g>
</g>
<!-- Node2&#45;&gt;Node3 -->
<g id="edge2" class="edge"><title>Node2&#45;&gt;Node3</title>
<path fill="none" stroke="midnightblue" d="M343.896,-104.507C364.847,-108.267 386.492,-112.152 404.891,-115.455"/>
<polygon fill="midnightblue" stroke="midnightblue" points="344.471,-101.054 334.009,-102.732 343.234,-107.944 344.471,-101.054"/>
</g>
<!-- Node10 -->
<g id="node10" class="node"><title>Node10</title>
<g id="a_node10"><a xlink:href="../../df/d03/cipioconnection_8c.html#a73bfd5fa3bc96e11219d0b24d70b88c7" target="_top" xlink:title="HandleReceivedIoConnectionData">
<polygon fill="none" stroke="black" points="370,-76.5 370,-95.5 537,-95.5 537,-76.5 370,-76.5"/>
<text text-anchor="middle" x="453.5" y="-83.5" font-family="Helvetica,sans-Serif" font-size="10.00">HandleReceivedIoConnectionData</text>
</a>
</g>
</g>
<!-- Node2&#45;&gt;Node10 -->
<g id="edge9" class="edge"><title>Node2&#45;&gt;Node10</title>
<path fill="none" stroke="midnightblue" d="M344.277,-87.665C352.753,-87.5346 361.339,-87.4025 369.774,-87.2727"/>
<polygon fill="midnightblue" stroke="midnightblue" points="343.954,-84.1694 334.009,-87.8229 344.062,-91.1686 343.954,-84.1694"/>
</g>
<!-- Node4 -->
<g id="node4" class="node"><title>Node4</title>
<g id="a_node4"><a xlink:href="../../de/d45/cipioconnection_8h.html#a43e270b3f9b9f6296b12285c320c95aa" target="_top" xlink:title="Setup all data in order to establish an IO connection. ">
<polygon fill="none" stroke="black" points="742.5,-76.5 742.5,-95.5 857.5,-95.5 857.5,-76.5 742.5,-76.5"/>
<text text-anchor="middle" x="800" y="-83.5" font-family="Helvetica,sans-Serif" font-size="10.00">EstablishIoConnection</text>
</a>
</g>
</g>
<!-- Node3&#45;&gt;Node4 -->
<g id="edge3" class="edge"><title>Node3&#45;&gt;Node4</title>
<path fill="none" stroke="midnightblue" d="M512.632,-121.69C563.75,-119.164 640.068,-114.188 706,-105 723.138,-102.612 741.862,-98.9863 757.989,-95.5402"/>
<polygon fill="midnightblue" stroke="midnightblue" points="512.259,-118.204 502.438,-122.178 512.594,-125.196 512.259,-118.204"/>
</g>
<!-- Node5 -->
<g id="node5" class="node"><title>Node5</title>
<g id="a_node5"><a xlink:href="../../d2/da3/cipconnectionmanager_8h.html#a5ab0de6894d23e8fe84a6b46797c2212" target="_top" xlink:title="Initialize the data of the connection manager object. ">
<polygon fill="none" stroke="black" points="894,-76.5 894,-95.5 1011,-95.5 1011,-76.5 894,-76.5"/>
<text text-anchor="middle" x="952.5" y="-83.5" font-family="Helvetica,sans-Serif" font-size="10.00">ConnectionManagerInit</text>
</a>
</g>
</g>
<!-- Node4&#45;&gt;Node5 -->
<g id="edge4" class="edge"><title>Node4&#45;&gt;Node5</title>
<path fill="none" stroke="midnightblue" d="M867.924,-86C876.545,-86 885.315,-86 893.772,-86"/>
<polygon fill="midnightblue" stroke="midnightblue" points="867.898,-82.5001 857.898,-86 867.898,-89.5001 867.898,-82.5001"/>
</g>
<!-- Node6 -->
<g id="node6" class="node"><title>Node6</title>
<g id="a_node6"><a xlink:href="../../d2/dc9/group__CIP__API.html#ga5d4979945d124e28668b264c3823db1c" target="_top" xlink:title="Initialize and setup the CIP&#45;stack. ">
<polygon fill="none" stroke="black" points="1047,-57.5 1047,-76.5 1118,-76.5 1118,-57.5 1047,-57.5"/>
<text text-anchor="middle" x="1082.5" y="-64.5" font-family="Helvetica,sans-Serif" font-size="10.00">CipStackInit</text>
</a>
</g>
</g>
<!-- Node5&#45;&gt;Node6 -->
<g id="edge5" class="edge"><title>Node5&#45;&gt;Node6</title>
<path fill="none" stroke="midnightblue" d="M1021.18,-75.9533C1030.08,-74.6326 1038.88,-73.3261 1046.9,-72.1362"/>
<polygon fill="midnightblue" stroke="midnightblue" points="1020.51,-72.5145 1011.13,-77.4449 1021.54,-79.4386 1020.51,-72.5145"/>
</g>
<!-- Node7 -->
<g id="node7" class="node"><title>Node7</title>
<g id="a_node7"><a xlink:href="../../d5/dcb/MINGW_2main_8c.html#ad338a7dbc41dc40bcecd0479377ef207" target="_top" xlink:title="main">
<polygon fill="none" stroke="black" points="1154,-57.5 1154,-76.5 1192,-76.5 1192,-57.5 1154,-57.5"/>
<text text-anchor="middle" x="1173" y="-64.5" font-family="Helvetica,sans-Serif" font-size="10.00">main</text>
</a>
</g>
</g>
<!-- Node6&#45;&gt;Node7 -->
<g id="edge6" class="edge"><title>Node6&#45;&gt;Node7</title>
<path fill="none" stroke="midnightblue" d="M1128.38,-67C1137.44,-67 1146.45,-67 1153.92,-67"/>
<polygon fill="midnightblue" stroke="midnightblue" points="1128.22,-63.5001 1118.22,-67 1128.22,-70.5001 1128.22,-63.5001"/>
</g>
<!-- Node8 -->
<g id="node8" class="node"><title>Node8</title>
<g id="a_node8"><a xlink:href="../../d8/d03/ports_2MINGW_2CMakeLists_8txt.html#a7e00df43a20d627a1732be7766d91097" target="_top" xlink:title="add_library">
<polygon fill="none" stroke="black" points="1228,-57.5 1228,-76.5 1292,-76.5 1292,-57.5 1228,-57.5"/>
<text text-anchor="middle" x="1260" y="-64.5" font-family="Helvetica,sans-Serif" font-size="10.00">add_library</text>
</a>
</g>
</g>
<!-- Node7&#45;&gt;Node8 -->
<g id="edge7" class="edge"><title>Node7&#45;&gt;Node8</title>
<path fill="none" stroke="midnightblue" d="M1202.27,-67C1210.5,-67 1219.55,-67 1227.94,-67"/>
<polygon fill="midnightblue" stroke="midnightblue" points="1202.03,-63.5001 1192.03,-67 1202.03,-70.5001 1202.03,-63.5001"/>
</g>
<!-- Node9 -->
<g id="node9" class="node"><title>Node9</title>
<g id="a_node9"><a xlink:href="../../d8/dce/ports_2CMakeLists_8txt.html#a598fae457555a5fb26e18d4cd8f89de9" target="_top" xlink:title="add_subdirectory">
<polygon fill="none" stroke="black" points="1328,-57.5 1328,-76.5 1419,-76.5 1419,-57.5 1328,-57.5"/>
<text text-anchor="middle" x="1373.5" y="-64.5" font-family="Helvetica,sans-Serif" font-size="10.00">add_subdirectory</text>
</a>
</g>
</g>
<!-- Node8&#45;&gt;Node9 -->
<g id="edge8" class="edge"><title>Node8&#45;&gt;Node9</title>
<path fill="none" stroke="midnightblue" d="M1302.3,-67C1310.63,-67 1319.42,-67 1327.86,-67"/>
<polygon fill="midnightblue" stroke="midnightblue" points="1302.06,-63.5001 1292.06,-67 1302.06,-70.5001 1302.06,-63.5001"/>
</g>
<!-- Node11 -->
<g id="node11" class="node"><title>Node11</title>
<g id="a_node11"><a xlink:href="../../df/d03/cipioconnection_8c.html#ab3282f146a3ea91c90cf14c32206ee8c" target="_top" xlink:title="SetIoConnectionCallbacks">
<polygon fill="none" stroke="black" points="573,-76.5 573,-95.5 706,-95.5 706,-76.5 573,-76.5"/>
<text text-anchor="middle" x="639.5" y="-83.5" font-family="Helvetica,sans-Serif" font-size="10.00">SetIoConnectionCallbacks</text>
</a>
</g>
</g>
<!-- Node10&#45;&gt;Node11 -->
<g id="edge10" class="edge"><title>Node10&#45;&gt;Node11</title>
<path fill="none" stroke="midnightblue" d="M547.19,-86C555.813,-86 564.429,-86 572.733,-86"/>
<polygon fill="midnightblue" stroke="midnightblue" points="547.081,-82.5001 537.081,-86 547.081,-89.5001 547.081,-82.5001"/>
</g>
<!-- Node11&#45;&gt;Node4 -->
<g id="edge11" class="edge"><title>Node11&#45;&gt;Node4</title>
<path fill="none" stroke="midnightblue" d="M716.462,-86C725.125,-86 733.841,-86 742.194,-86"/>
<polygon fill="midnightblue" stroke="midnightblue" points="716.341,-82.5001 706.341,-86 716.341,-89.5001 716.341,-82.5001"/>
</g>
<!-- Node13 -->
<g id="node13" class="node"><title>Node13</title>
<g id="a_node13"><a xlink:href="../../df/d2e/cipassembly_8c.html#a5973ef42110a1bdf6c7699e35e04b7d4" target="_top" xlink:title="Constructor for the assembly object class. ">
<polygon fill="none" stroke="black" points="396,-35.5 396,-54.5 511,-54.5 511,-35.5 396,-35.5"/>
<text text-anchor="middle" x="453.5" y="-42.5" font-family="Helvetica,sans-Serif" font-size="10.00">CreateAssemblyClass</text>
</a>
</g>
</g>
<!-- Node12&#45;&gt;Node13 -->
<g id="edge13" class="edge"><title>Node12&#45;&gt;Node13</title>
<path fill="none" stroke="midnightblue" d="M336.266,-45C356.247,-45 377.318,-45 395.951,-45"/>
<polygon fill="midnightblue" stroke="midnightblue" points="336.25,-41.5001 326.25,-45 336.25,-48.5001 336.25,-41.5001"/>
</g>
<!-- Node14 -->
<g id="node14" class="node"><title>Node14</title>
<g id="a_node14"><a xlink:href="../../de/df4/cipassembly_8h.html#a4dfbc2c7a8e9e77f05a0a7236210f5b4" target="_top" xlink:title="Setup the Assembly object. ">
<polygon fill="none" stroke="black" points="897,-38.5 897,-57.5 1008,-57.5 1008,-38.5 897,-38.5"/>
<text text-anchor="middle" x="952.5" y="-45.5" font-family="Helvetica,sans-Serif" font-size="10.00">CipAssemblyInitialize</text>
</a>
</g>
</g>
<!-- Node13&#45;&gt;Node14 -->
<g id="edge14" class="edge"><title>Node13&#45;&gt;Node14</title>
<path fill="none" stroke="midnightblue" d="M521.239,-45.4029C620.515,-46.0021 805.211,-47.117 896.919,-47.6705"/>
<polygon fill="midnightblue" stroke="midnightblue" points="521.049,-41.9017 511.028,-45.3412 521.007,-48.9016 521.049,-41.9017"/>
</g>
<!-- Node15 -->
<g id="node15" class="node"><title>Node15</title>
<g id="a_node15"><a xlink:href="../../d2/dc9/group__CIP__API.html#gae61b613fed863d30428e78b2311bf593" target="_top" xlink:title="Create an instance of an assembly object. ">
<polygon fill="none" stroke="black" points="580.5,-0.5 580.5,-19.5 698.5,-19.5 698.5,-0.5 580.5,-0.5"/>
<text text-anchor="middle" x="639.5" y="-7.5" font-family="Helvetica,sans-Serif" font-size="10.00">CreateAssemblyObject</text>
</a>
</g>
</g>
<!-- Node13&#45;&gt;Node15 -->
<g id="edge16" class="edge"><title>Node13&#45;&gt;Node15</title>
<path fill="none" stroke="midnightblue" d="M514.756,-33.5382C538.55,-29.0122 565.572,-23.8721 588.282,-19.5523"/>
<polygon fill="midnightblue" stroke="midnightblue" points="513.949,-30.129 504.779,-35.4361 515.257,-37.0057 513.949,-30.129"/>
</g>
<!-- Node14&#45;&gt;Node6 -->
<g id="edge15" class="edge"><title>Node14&#45;&gt;Node6</title>
<path fill="none" stroke="midnightblue" d="M1018.31,-57.6206C1028.09,-59.0716 1037.84,-60.5189 1046.65,-61.827"/>
<polygon fill="midnightblue" stroke="midnightblue" points="1018.56,-54.1191 1008.15,-56.1128 1017.53,-61.0433 1018.56,-54.1191"/>
</g>
<!-- Node16 -->
<g id="node16" class="node"><title>Node16</title>
<g id="a_node16"><a xlink:href="../../d5/dc5/group__CIP__CALLBACK__API.html#gae93106eb1647bff3ad56a7752799d878" target="_top" xlink:title="Callback for the application initialization. ">
<polygon fill="none" stroke="black" points="742,-0.5 742,-19.5 858,-19.5 858,-0.5 742,-0.5"/>
<text text-anchor="middle" x="800" y="-7.5" font-family="Helvetica,sans-Serif" font-size="10.00">ApplicationInitialization</text>
</a>
</g>
</g>
<!-- Node15&#45;&gt;Node16 -->
<g id="edge17" class="edge"><title>Node15&#45;&gt;Node16</title>
<path fill="none" stroke="midnightblue" d="M708.693,-10C719.78,-10 731.161,-10 741.946,-10"/>
<polygon fill="midnightblue" stroke="midnightblue" points="708.62,-6.5001 698.62,-10 708.62,-13.5001 708.62,-6.5001"/>
</g>
</g>
</svg>
