<?xml version="1.0" encoding="UTF-8" standalone="no"?>
<!DOCTYPE svg PUBLIC "-//W3C//DTD SVG 1.1//EN"
 "http://www.w3.org/Graphics/SVG/1.1/DTD/svg11.dtd">
<!-- Generated by graphviz version 2.38.0 (20140413.2041)
 -->
<!-- Title: ResetDevice Pages: 1 -->
<svg width="285pt" height="66pt"
 viewBox="0.00 0.00 285.00 66.00" xmlns="http://www.w3.org/2000/svg" xmlns:xlink="http://www.w3.org/1999/xlink">
<g id="graph0" class="graph" transform="scale(1 1) rotate(0) translate(4 62)">
<title>ResetDevice</title>
<!-- Node1 -->
<g id="node1" class="node"><title>Node1</title>
<polygon fill="#bfbfbf" stroke="black" points="0,-19.5 0,-38.5 74,-38.5 74,-19.5 0,-19.5"/>
<text text-anchor="middle" x="37" y="-26.5" font-family="Helvetica,sans-Serif" font-size="10.00">ResetDevice</text>
</g>
<!-- Node2 -->
<g id="node2" class="node"><title>Node2</title>
<g id="a_node2"><a xlink:href="../../dd/d34/cipqos_8c.html#ad6dcfab529ee5f068b09de4949d39b3c" target="_top" xlink:title="Updates the currently used set of DSCP priority values. ">
<polygon fill="none" stroke="black" points="110,-38.5 110,-57.5 277,-57.5 277,-38.5 110,-38.5"/>
<text text-anchor="middle" x="193.5" y="-45.5" font-family="Helvetica,sans-Serif" font-size="10.00">CipQosUpdateUsedSetQosValues</text>
</a>
</g>
</g>
<!-- Node1&#45;&gt;Node2 -->
<g id="edge1" class="edge"><title>Node1&#45;&gt;Node2</title>
<path fill="none" stroke="midnightblue" d="M74.2234,-33.4547C83.6469,-34.6135 94.2179,-35.9135 105.061,-37.247"/>
<polygon fill="midnightblue" stroke="midnightblue" points="104.719,-40.7312 115.071,-38.478 105.573,-33.7835 104.719,-40.7312"/>
</g>
<!-- Node3 -->
<g id="node3" class="node"><title>Node3</title>
<g id="a_node3"><a xlink:href="../../d1/dbc/appcontype_8c.html#a18d2a32030faf1d5e3d48e610b1c4fe7" target="_top" xlink:title="CloseAllConnections">
<polygon fill="none" stroke="black" points="139.5,-0.5 139.5,-19.5 247.5,-19.5 247.5,-0.5 139.5,-0.5"/>
<text text-anchor="middle" x="193.5" y="-7.5" font-family="Helvetica,sans-Serif" font-size="10.00">CloseAllConnections</text>
</a>
</g>
</g>
<!-- Node1&#45;&gt;Node3 -->
<g id="edge2" class="edge"><title>Node1&#45;&gt;Node3</title>
<path fill="none" stroke="midnightblue" d="M74.2234,-24.5453C90.6292,-22.5278 110.513,-20.0826 129.258,-17.7773"/>
<polygon fill="midnightblue" stroke="midnightblue" points="129.73,-21.2458 139.228,-16.5513 128.875,-14.2981 129.73,-21.2458"/>
</g>
</g>
</svg>
