<?xml version="1.0" encoding="UTF-8" standalone="no"?>
<!DOCTYPE svg PUBLIC "-//W3C//DTD SVG 1.1//EN"
 "http://www.w3.org/Graphics/SVG/1.1/DTD/svg11.dtd">
<!-- Generated by graphviz version 2.38.0 (20140413.2041)
 -->
<!-- Title: CloseSocket Pages: 1 -->
<!--zoomable 538 -->
<svg id="main" version="1.1" xmlns="http://www.w3.org/2000/svg" xmlns:xlink="http://www.w3.org/1999/xlink" xml:space="preserve" onload="init(evt)">
<style type="text/css"><![CDATA[
.edge:hover path { stroke: red; }
.edge:hover polygon { stroke: red; fill: red; }
]]></style>
<script type="text/javascript"><![CDATA[
var edges = document.getElementsByTagName('g');
if (edges && edges.length) {
  for (var i=0;i<edges.length;i++) {
    if (edges[i].id.substr(0,4)=='edge') {
      edges[i].setAttribute('class','edge');
    }
  }
}
]]></script>
        <defs>
                <circle id="rim" cx="0" cy="0" r="7"/>
                <circle id="rim2" cx="0" cy="0" r="3.5"/>
                <g id="zoomPlus">
                        <use xlink:href="#rim" fill="#404040">
                                <set attributeName="fill" to="#808080" begin="zoomplus.mouseover" end="zoomplus.mouseout"/>
                        </use>
                        <path d="M-4,0h8M0,-4v8" fill="none" stroke="white" stroke-width="1.5" pointer-events="none"/>
                </g>
                <g id="zoomMin">
                        <use xlink:href="#rim" fill="#404040">
                                <set attributeName="fill" to="#808080" begin="zoomminus.mouseover" end="zoomminus.mouseout"/>
                        </use>
                        <path d="M-4,0h8" fill="none" stroke="white" stroke-width="1.5" pointer-events="none"/>
                </g>
                <g id="dirArrow">
                        <path fill="none" stroke="white" stroke-width="1.5" d="M0,-3.0v7 M-2.5,-0.5L0,-3.0L2.5,-0.5"/>
                </g>
               <g id="resetDef">
                       <use xlink:href="#rim2" fill="#404040">
                               <set attributeName="fill" to="#808080" begin="reset.mouseover" end="reset.mouseout"/>
                       </use>
               </g>
        </defs>

<script type="text/javascript">
var viewWidth = 1751;
var viewHeight = 538;
var sectionId = 'dynsection-9';
</script>
<script xlink:href="../../svgpan.js"/>
<svg id="graph" class="graph">
<g id="viewport">
<title>CloseSocket</title>
<!-- Node1 -->
<g id="node1" class="node"><title>Node1</title>
<polygon fill="#bfbfbf" stroke="black" points="0,-165.5 0,-184.5 73,-184.5 73,-165.5 0,-165.5"/>
<text text-anchor="middle" x="36.5" y="-172.5" font-family="Helvetica,sans-Serif" font-size="10.00">CloseSocket</text>
</g>
<!-- Node2 -->
<g id="node2" class="node"><title>Node2</title>
<g id="a_node2"><a xlink:href="../../da/dc2/generic__networkhandler_8h.html#a1bfa5ef8e4802716459a56567ee16592" target="_top" xlink:title="CloseTcpSocket">
<polygon fill="none" stroke="black" points="112,-367.5 112,-386.5 201,-386.5 201,-367.5 112,-367.5"/>
<text text-anchor="middle" x="156.5" y="-374.5" font-family="Helvetica,sans-Serif" font-size="10.00">CloseTcpSocket</text>
</a>
</g>
</g>
<!-- Node1&#45;&gt;Node2 -->
<g id="edge1" class="edge"><title>Node1&#45;&gt;Node2</title>
<path fill="none" stroke="midnightblue" d="M48.3755,-193.617C72.8292,-235.479 131.451,-335.832 149.866,-367.355"/>
<polygon fill="midnightblue" stroke="midnightblue" points="51.2576,-191.612 43.1914,-184.743 45.2133,-195.143 51.2576,-191.612"/>
</g>
<!-- Node24 -->
<g id="node24" class="node"><title>Node24</title>
<g id="a_node24"><a xlink:href="../../da/dc2/generic__networkhandler_8h.html#aab6e6c554aa10d27efe297ebef3ac1c9" target="_top" xlink:title="CloseUdpSocket">
<polygon fill="none" stroke="black" points="111,-198.5 111,-217.5 202,-217.5 202,-198.5 111,-198.5"/>
<text text-anchor="middle" x="156.5" y="-205.5" font-family="Helvetica,sans-Serif" font-size="10.00">CloseUdpSocket</text>
</a>
</g>
</g>
<!-- Node1&#45;&gt;Node24 -->
<g id="edge28" class="edge"><title>Node1&#45;&gt;Node24</title>
<path fill="none" stroke="midnightblue" d="M81.4763,-187.298C94.6889,-190.994 108.978,-194.99 121.446,-198.476"/>
<polygon fill="midnightblue" stroke="midnightblue" points="82.2037,-183.868 71.6305,-184.545 80.3183,-190.609 82.2037,-183.868"/>
</g>
<!-- Node28 -->
<g id="node28" class="node"><title>Node28</title>
<g id="a_node28"><a xlink:href="../../d5/dc5/group__CIP__CALLBACK__API.html#ga5807bcc51621775c9aedbf58d3a7a6d3" target="_top" xlink:title="create a new UDP socket for the connection manager ">
<polygon fill="none" stroke="black" points="109,-132.5 109,-151.5 204,-151.5 204,-132.5 109,-132.5"/>
<text text-anchor="middle" x="156.5" y="-139.5" font-family="Helvetica,sans-Serif" font-size="10.00">CreateUdpSocket</text>
</a>
</g>
</g>
<!-- Node1&#45;&gt;Node28 -->
<g id="edge35" class="edge"><title>Node1&#45;&gt;Node28</title>
<path fill="none" stroke="midnightblue" d="M81.4763,-162.702C94.6889,-159.006 108.978,-155.01 121.446,-151.524"/>
<polygon fill="midnightblue" stroke="midnightblue" points="80.3183,-159.391 71.6305,-165.455 82.2037,-166.132 80.3183,-159.391"/>
</g>
<!-- Node34 -->
<g id="node34" class="node"><title>Node34</title>
<g id="a_node34"><a xlink:href="../../da/dc2/generic__networkhandler_8h.html#aace33c0e7aa348969492ede822183bd5" target="_top" xlink:title="NetworkHandlerFinish">
<polygon fill="none" stroke="black" points="1329,-124.5 1329,-143.5 1442,-143.5 1442,-124.5 1329,-124.5"/>
<text text-anchor="middle" x="1385.5" y="-131.5" font-family="Helvetica,sans-Serif" font-size="10.00">NetworkHandlerFinish</text>
</a>
</g>
</g>
<!-- Node1&#45;&gt;Node34 -->
<g id="edge45" class="edge"><title>Node1&#45;&gt;Node34</title>
<path fill="none" stroke="midnightblue" d="M51.9135,-157.439C90.0627,-113.076 198.84,-0 316.5,-0 316.5,-0 316.5,-0 1083.5,-0 1205.91,-0 1334,-93.6381 1372.74,-124.363"/>
<polygon fill="midnightblue" stroke="midnightblue" points="49.0189,-155.443 45.2437,-165.342 54.3683,-159.957 49.0189,-155.443"/>
</g>
<!-- Node3 -->
<g id="node3" class="node"><title>Node3</title>
<g id="a_node3"><a xlink:href="../../db/d4f/generic__networkhandler_8c.html#ab561fc66fe48a0cf95be3d152b297dd9" target="_top" xlink:title="CheckEncapsulationInactivity">
<polygon fill="none" stroke="black" points="659.5,-493.5 659.5,-512.5 805.5,-512.5 805.5,-493.5 659.5,-493.5"/>
<text text-anchor="middle" x="732.5" y="-500.5" font-family="Helvetica,sans-Serif" font-size="10.00">CheckEncapsulationInactivity</text>
</a>
</g>
</g>
<!-- Node2&#45;&gt;Node3 -->
<g id="edge2" class="edge"><title>Node2&#45;&gt;Node3</title>
<path fill="none" stroke="midnightblue" d="M166.377,-395.754C178.957,-419.918 204.46,-460.958 240,-479 388.166,-554.216 594.904,-528.993 685.685,-512.533"/>
<polygon fill="midnightblue" stroke="midnightblue" points="169.381,-393.934 161.785,-386.547 163.117,-397.058 169.381,-393.934"/>
</g>
<!-- Node4 -->
<g id="node4" class="node"><title>Node4</title>
<g id="a_node4"><a xlink:href="../../da/dc2/generic__networkhandler_8h.html#a2f01af81d3e5018d9980e2bc28c9078a" target="_top" xlink:title="NetworkHandlerProcessOnce">
<polygon fill="none" stroke="black" points="843,-435.5 843,-454.5 989,-454.5 989,-435.5 843,-435.5"/>
<text text-anchor="middle" x="916" y="-442.5" font-family="Helvetica,sans-Serif" font-size="10.00">NetworkHandlerProcessOnce</text>
</a>
</g>
</g>
<!-- Node2&#45;&gt;Node4 -->
<g id="edge27" class="edge"><title>Node2&#45;&gt;Node4</title>
<path fill="none" stroke="midnightblue" d="M172.025,-394.519C187.049,-411.139 212.181,-435.013 240,-445 349.054,-484.151 692.398,-462.817 843,-451.081"/>
<polygon fill="midnightblue" stroke="midnightblue" points="174.337,-391.844 165.13,-386.601 169.058,-396.441 174.337,-391.844"/>
</g>
<!-- Node9 -->
<g id="node9" class="node"><title>Node9</title>
<g id="a_node9"><a xlink:href="../../d2/dc9/group__CIP__API.html#ga00a23c1c86472edf2ed679089ae8efc1" target="_top" xlink:title="Inform the encapsulation layer that the remote host has closed the connection. ">
<polygon fill="none" stroke="black" points="279,-250.5 279,-269.5 356,-269.5 356,-250.5 279,-250.5"/>
<text text-anchor="middle" x="317.5" y="-257.5" font-family="Helvetica,sans-Serif" font-size="10.00">CloseSession</text>
</a>
</g>
</g>
<!-- Node2&#45;&gt;Node9 -->
<g id="edge8" class="edge"><title>Node2&#45;&gt;Node9</title>
<path fill="none" stroke="midnightblue" d="M168.61,-358.75C182.627,-337.255 208.718,-301.956 240,-282 251.651,-274.567 265.872,-269.585 278.878,-266.272"/>
<polygon fill="midnightblue" stroke="midnightblue" points="165.595,-356.97 163.203,-367.291 171.51,-360.714 165.595,-356.97"/>
</g>
<!-- Node16 -->
<g id="node16" class="node"><title>Node16</title>
<g id="a_node16"><a xlink:href="../../d7/df9/encap_8h.html#ad083888333d3ceec1576126a88eeaca7" target="_top" xlink:title="CloseSessionBySessionHandle">
<polygon fill="none" stroke="black" points="240,-329.5 240,-348.5 395,-348.5 395,-329.5 240,-329.5"/>
<text text-anchor="middle" x="317.5" y="-336.5" font-family="Helvetica,sans-Serif" font-size="10.00">CloseSessionBySessionHandle</text>
</a>
</g>
</g>
<!-- Node2&#45;&gt;Node16 -->
<g id="edge16" class="edge"><title>Node2&#45;&gt;Node16</title>
<path fill="none" stroke="midnightblue" d="M207.577,-365.032C229.858,-359.707 255.729,-353.524 276.666,-348.52"/>
<polygon fill="midnightblue" stroke="midnightblue" points="206.535,-361.682 197.622,-367.411 208.162,-368.491 206.535,-361.682"/>
</g>
<!-- Node19 -->
<g id="node19" class="node"><title>Node19</title>
<g id="a_node19"><a xlink:href="../../d4/d91/group__ENCAP.html#ga1261bd2441f744c38d7a3f8d8c16c391" target="_top" xlink:title="Shutdown the encapsulation layer. ">
<polygon fill="none" stroke="black" points="854,-350.5 854,-369.5 978,-369.5 978,-350.5 854,-350.5"/>
<text text-anchor="middle" x="916" y="-357.5" font-family="Helvetica,sans-Serif" font-size="10.00">EncapsulationShutDown</text>
</a>
</g>
</g>
<!-- Node2&#45;&gt;Node19 -->
<g id="edge20" class="edge"><title>Node2&#45;&gt;Node19</title>
<path fill="none" stroke="midnightblue" d="M211.475,-375.789C348.569,-372.712 709.54,-364.611 853.98,-361.369"/>
<polygon fill="midnightblue" stroke="midnightblue" points="211.142,-372.295 201.224,-376.019 211.3,-379.293 211.142,-372.295"/>
</g>
<!-- Node21 -->
<g id="node21" class="node"><title>Node21</title>
<g id="a_node21"><a xlink:href="../../d2/dbd/encap_8c.html#a601cd19c88f03fd742f098a1bf5b9e85" target="_top" xlink:title="HandleReceivedUnregister\lSessionCommand">
<polygon fill="none" stroke="black" points="250.5,-406 250.5,-436 384.5,-436 384.5,-406 250.5,-406"/>
<text text-anchor="start" x="258.5" y="-424" font-family="Helvetica,sans-Serif" font-size="10.00">HandleReceivedUnregister</text>
<text text-anchor="middle" x="317.5" y="-413" font-family="Helvetica,sans-Serif" font-size="10.00">SessionCommand</text>
</a>
</g>
</g>
<!-- Node2&#45;&gt;Node21 -->
<g id="edge23" class="edge"><title>Node2&#45;&gt;Node21</title>
<path fill="none" stroke="midnightblue" d="M201.732,-389.24C220.426,-394.413 242.383,-400.49 262.059,-405.935"/>
<polygon fill="midnightblue" stroke="midnightblue" points="202.572,-385.841 192.001,-386.547 200.705,-392.588 202.572,-385.841"/>
</g>
<!-- Node3&#45;&gt;Node4 -->
<g id="edge3" class="edge"><title>Node3&#45;&gt;Node4</title>
<path fill="none" stroke="midnightblue" d="M773.004,-490.376C806.68,-479.615 854.36,-464.378 884.984,-454.592"/>
<polygon fill="midnightblue" stroke="midnightblue" points="771.931,-487.045 763.471,-493.422 774.062,-493.712 771.931,-487.045"/>
</g>
<!-- Node5 -->
<g id="node5" class="node"><title>Node5</title>
<g id="a_node5"><a xlink:href="../../d9/dfb/POSIX_2main_8c.html#acd4e45a35a64f9cb29b59f63492b61d2" target="_top" xlink:title="Signal handler function for ending stack execution. ">
<polygon fill="none" stroke="black" points="1048.5,-435.5 1048.5,-454.5 1116.5,-454.5 1116.5,-435.5 1048.5,-435.5"/>
<text text-anchor="middle" x="1082.5" y="-442.5" font-family="Helvetica,sans-Serif" font-size="10.00">LeaveStack</text>
</a>
</g>
</g>
<!-- Node4&#45;&gt;Node5 -->
<g id="edge4" class="edge"><title>Node4&#45;&gt;Node5</title>
<path fill="none" stroke="midnightblue" d="M999.31,-445C1016.6,-445 1033.89,-445 1048.12,-445"/>
<polygon fill="midnightblue" stroke="midnightblue" points="999.152,-441.5 989.152,-445 999.152,-448.5 999.152,-441.5"/>
</g>
<!-- Node6 -->
<g id="node6" class="node"><title>Node6</title>
<g id="a_node6"><a xlink:href="../../d5/dcb/MINGW_2main_8c.html#ad338a7dbc41dc40bcecd0479377ef207" target="_top" xlink:title="main">
<polygon fill="none" stroke="black" points="1478,-314.5 1478,-333.5 1516,-333.5 1516,-314.5 1478,-314.5"/>
<text text-anchor="middle" x="1497" y="-321.5" font-family="Helvetica,sans-Serif" font-size="10.00">main</text>
</a>
</g>
</g>
<!-- Node4&#45;&gt;Node6 -->
<g id="edge5" class="edge"><title>Node4&#45;&gt;Node6</title>
<path fill="none" stroke="midnightblue" d="M980.078,-433.604C1114.73,-409.226 1419.92,-353.677 1442,-347 1454.29,-343.284 1467.56,-337.655 1477.87,-332.895"/>
<polygon fill="midnightblue" stroke="midnightblue" points="979.126,-430.22 969.909,-435.445 980.373,-437.108 979.126,-430.22"/>
</g>
<!-- Node7 -->
<g id="node7" class="node"><title>Node7</title>
<g id="a_node7"><a xlink:href="../../d8/d03/ports_2MINGW_2CMakeLists_8txt.html#a7e00df43a20d627a1732be7766d91097" target="_top" xlink:title="add_library">
<polygon fill="none" stroke="black" points="1552,-314.5 1552,-333.5 1616,-333.5 1616,-314.5 1552,-314.5"/>
<text text-anchor="middle" x="1584" y="-321.5" font-family="Helvetica,sans-Serif" font-size="10.00">add_library</text>
</a>
</g>
</g>
<!-- Node6&#45;&gt;Node7 -->
<g id="edge6" class="edge"><title>Node6&#45;&gt;Node7</title>
<path fill="none" stroke="midnightblue" d="M1526.27,-324C1534.5,-324 1543.55,-324 1551.94,-324"/>
<polygon fill="midnightblue" stroke="midnightblue" points="1526.03,-320.5 1516.03,-324 1526.03,-327.5 1526.03,-320.5"/>
</g>
<!-- Node8 -->
<g id="node8" class="node"><title>Node8</title>
<g id="a_node8"><a xlink:href="../../d8/dce/ports_2CMakeLists_8txt.html#a598fae457555a5fb26e18d4cd8f89de9" target="_top" xlink:title="add_subdirectory">
<polygon fill="none" stroke="black" points="1652,-314.5 1652,-333.5 1743,-333.5 1743,-314.5 1652,-314.5"/>
<text text-anchor="middle" x="1697.5" y="-321.5" font-family="Helvetica,sans-Serif" font-size="10.00">add_subdirectory</text>
</a>
</g>
</g>
<!-- Node7&#45;&gt;Node8 -->
<g id="edge7" class="edge"><title>Node7&#45;&gt;Node8</title>
<path fill="none" stroke="midnightblue" d="M1626.3,-324C1634.63,-324 1643.42,-324 1651.86,-324"/>
<polygon fill="midnightblue" stroke="midnightblue" points="1626.06,-320.5 1616.06,-324 1626.06,-327.5 1626.06,-320.5"/>
</g>
<!-- Node10 -->
<g id="node10" class="node"><title>Node10</title>
<g id="a_node10"><a xlink:href="../../d7/df9/encap_8h.html#a0101714be726ab1b21125b6a82ac7a56" target="_top" xlink:title="CloseEncapsulationSession\lBySockAddr">
<polygon fill="none" stroke="black" points="457,-242 457,-272 596,-272 596,-242 457,-242"/>
<text text-anchor="start" x="465" y="-260" font-family="Helvetica,sans-Serif" font-size="10.00">CloseEncapsulationSession</text>
<text text-anchor="middle" x="526.5" y="-249" font-family="Helvetica,sans-Serif" font-size="10.00">BySockAddr</text>
</a>
</g>
</g>
<!-- Node9&#45;&gt;Node10 -->
<g id="edge9" class="edge"><title>Node9&#45;&gt;Node10</title>
<path fill="none" stroke="midnightblue" d="M366.737,-259.301C393.519,-258.913 427.287,-258.423 456.788,-257.996"/>
<polygon fill="midnightblue" stroke="midnightblue" points="366.415,-255.805 356.467,-259.45 366.517,-262.804 366.415,-255.805"/>
</g>
<!-- Node11 -->
<g id="node11" class="node"><title>Node11</title>
<g id="a_node11"><a xlink:href="../../df/d03/cipioconnection_8c.html#a7e4923f4b027d489d9933b52f6fd7007" target="_top" xlink:title="HandleIoConnectionTimeOut">
<polygon fill="none" stroke="black" points="661,-244.5 661,-263.5 804,-263.5 804,-244.5 661,-244.5"/>
<text text-anchor="middle" x="732.5" y="-251.5" font-family="Helvetica,sans-Serif" font-size="10.00">HandleIoConnectionTimeOut</text>
</a>
</g>
</g>
<!-- Node10&#45;&gt;Node11 -->
<g id="edge10" class="edge"><title>Node10&#45;&gt;Node11</title>
<path fill="none" stroke="midnightblue" d="M606.427,-255.839C624.384,-255.575 643.348,-255.296 660.931,-255.038"/>
<polygon fill="midnightblue" stroke="midnightblue" points="606.228,-252.342 596.281,-255.989 606.331,-259.341 606.228,-252.342"/>
</g>
<!-- Node12 -->
<g id="node12" class="node"><title>Node12</title>
<g id="a_node12"><a xlink:href="../../df/d03/cipioconnection_8c.html#ab3282f146a3ea91c90cf14c32206ee8c" target="_top" xlink:title="SetIoConnectionCallbacks">
<polygon fill="none" stroke="black" points="849.5,-223.5 849.5,-242.5 982.5,-242.5 982.5,-223.5 849.5,-223.5"/>
<text text-anchor="middle" x="916" y="-230.5" font-family="Helvetica,sans-Serif" font-size="10.00">SetIoConnectionCallbacks</text>
</a>
</g>
</g>
<!-- Node11&#45;&gt;Node12 -->
<g id="edge11" class="edge"><title>Node11&#45;&gt;Node12</title>
<path fill="none" stroke="midnightblue" d="M814.369,-244.643C826.036,-243.293 837.923,-241.918 849.248,-240.608"/>
<polygon fill="midnightblue" stroke="midnightblue" points="813.724,-241.194 804.192,-245.821 814.528,-248.148 813.724,-241.194"/>
</g>
<!-- Node13 -->
<g id="node13" class="node"><title>Node13</title>
<g id="a_node13"><a xlink:href="../../de/d45/cipioconnection_8h.html#a43e270b3f9b9f6296b12285c320c95aa" target="_top" xlink:title="Setup all data in order to establish an IO connection. ">
<polygon fill="none" stroke="black" points="1025,-223.5 1025,-242.5 1140,-242.5 1140,-223.5 1025,-223.5"/>
<text text-anchor="middle" x="1082.5" y="-230.5" font-family="Helvetica,sans-Serif" font-size="10.00">EstablishIoConnection</text>
</a>
</g>
</g>
<!-- Node12&#45;&gt;Node13 -->
<g id="edge12" class="edge"><title>Node12&#45;&gt;Node13</title>
<path fill="none" stroke="midnightblue" d="M993.116,-233C1003.78,-233 1014.58,-233 1024.79,-233"/>
<polygon fill="midnightblue" stroke="midnightblue" points="992.961,-229.5 982.961,-233 992.961,-236.5 992.961,-229.5"/>
</g>
<!-- Node14 -->
<g id="node14" class="node"><title>Node14</title>
<g id="a_node14"><a xlink:href="../../d2/da3/cipconnectionmanager_8h.html#a5ab0de6894d23e8fe84a6b46797c2212" target="_top" xlink:title="Initialize the data of the connection manager object. ">
<polygon fill="none" stroke="black" points="1176,-295.5 1176,-314.5 1293,-314.5 1293,-295.5 1176,-295.5"/>
<text text-anchor="middle" x="1234.5" y="-302.5" font-family="Helvetica,sans-Serif" font-size="10.00">ConnectionManagerInit</text>
</a>
</g>
</g>
<!-- Node13&#45;&gt;Node14 -->
<g id="edge13" class="edge"><title>Node13&#45;&gt;Node14</title>
<path fill="none" stroke="midnightblue" d="M1112.47,-246.903C1142.16,-261.159 1187.57,-282.953 1213.5,-295.399"/>
<polygon fill="midnightblue" stroke="midnightblue" points="1113.95,-243.733 1103.42,-242.561 1110.92,-250.044 1113.95,-243.733"/>
</g>
<!-- Node15 -->
<g id="node15" class="node"><title>Node15</title>
<g id="a_node15"><a xlink:href="../../d2/dc9/group__CIP__API.html#ga5d4979945d124e28668b264c3823db1c" target="_top" xlink:title="Initialize and setup the CIP&#45;stack. ">
<polygon fill="none" stroke="black" points="1350,-295.5 1350,-314.5 1421,-314.5 1421,-295.5 1350,-295.5"/>
<text text-anchor="middle" x="1385.5" y="-302.5" font-family="Helvetica,sans-Serif" font-size="10.00">CipStackInit</text>
</a>
</g>
</g>
<!-- Node14&#45;&gt;Node15 -->
<g id="edge14" class="edge"><title>Node14&#45;&gt;Node15</title>
<path fill="none" stroke="midnightblue" d="M1303.56,-305C1319.6,-305 1336.04,-305 1349.88,-305"/>
<polygon fill="midnightblue" stroke="midnightblue" points="1303.11,-301.5 1293.11,-305 1303.11,-308.5 1303.11,-301.5"/>
</g>
<!-- Node15&#45;&gt;Node6 -->
<g id="edge15" class="edge"><title>Node15&#45;&gt;Node6</title>
<path fill="none" stroke="midnightblue" d="M1431.11,-312.74C1447.46,-315.577 1465.06,-318.631 1477.8,-320.841"/>
<polygon fill="midnightblue" stroke="midnightblue" points="1431.6,-309.273 1421.15,-311.012 1430.4,-316.17 1431.6,-309.273"/>
</g>
<!-- Node17 -->
<g id="node17" class="node"><title>Node17</title>
<g id="a_node17"><a xlink:href="../../dc/d93/cipclass3connection_8c.html#a6053ab7004c1419bd80faf9aca54bfd3" target="_top" xlink:title="Class3ConnectionTimeoutHandler">
<polygon fill="none" stroke="black" points="443.5,-329.5 443.5,-348.5 609.5,-348.5 609.5,-329.5 443.5,-329.5"/>
<text text-anchor="middle" x="526.5" y="-336.5" font-family="Helvetica,sans-Serif" font-size="10.00">Class3ConnectionTimeoutHandler</text>
</a>
</g>
</g>
<!-- Node16&#45;&gt;Node17 -->
<g id="edge17" class="edge"><title>Node16&#45;&gt;Node17</title>
<path fill="none" stroke="midnightblue" d="M405.289,-339C417.873,-339 430.794,-339 443.284,-339"/>
<polygon fill="midnightblue" stroke="midnightblue" points="405.285,-335.5 395.285,-339 405.285,-342.5 405.285,-335.5"/>
</g>
<!-- Node18 -->
<g id="node18" class="node"><title>Node18</title>
<g id="a_node18"><a xlink:href="../../d2/d11/cipclass3connection_8h.html#a45bd741b44137164c07a6ce09a7a9a9d" target="_top" xlink:title="Check if Class3 connection is available and if yes setup all data. ">
<polygon fill="none" stroke="black" points="664,-295.5 664,-314.5 801,-314.5 801,-295.5 664,-295.5"/>
<text text-anchor="middle" x="732.5" y="-302.5" font-family="Helvetica,sans-Serif" font-size="10.00">EstablishClass3Connection</text>
</a>
</g>
</g>
<!-- Node17&#45;&gt;Node18 -->
<g id="edge18" class="edge"><title>Node17&#45;&gt;Node18</title>
<path fill="none" stroke="midnightblue" d="M594.674,-327.804C620.474,-323.504 649.653,-318.641 674.417,-314.514"/>
<polygon fill="midnightblue" stroke="midnightblue" points="593.885,-324.387 584.597,-329.484 595.036,-331.292 593.885,-324.387"/>
</g>
<!-- Node18&#45;&gt;Node14 -->
<g id="edge19" class="edge"><title>Node18&#45;&gt;Node14</title>
<path fill="none" stroke="midnightblue" d="M811.321,-305C912.192,-305 1085.78,-305 1175.72,-305"/>
<polygon fill="midnightblue" stroke="midnightblue" points="811.192,-301.5 801.192,-305 811.192,-308.5 811.192,-301.5"/>
</g>
<!-- Node20 -->
<g id="node20" class="node"><title>Node20</title>
<g id="a_node20"><a xlink:href="../../d2/dc9/group__CIP__API.html#gaa57b527530adc2acda6febc500fd6831" target="_top" xlink:title="Shutdown of the CIP stack. ">
<polygon fill="none" stroke="black" points="1184,-334.5 1184,-353.5 1285,-353.5 1285,-334.5 1184,-334.5"/>
<text text-anchor="middle" x="1234.5" y="-341.5" font-family="Helvetica,sans-Serif" font-size="10.00">ShutdownCipStack</text>
</a>
</g>
</g>
<!-- Node19&#45;&gt;Node20 -->
<g id="edge21" class="edge"><title>Node19&#45;&gt;Node20</title>
<path fill="none" stroke="midnightblue" d="M988.115,-356.405C1047.7,-353.393 1131.23,-349.17 1183.84,-346.51"/>
<polygon fill="midnightblue" stroke="midnightblue" points="987.835,-352.915 978.024,-356.915 988.188,-359.906 987.835,-352.915"/>
</g>
<!-- Node20&#45;&gt;Node6 -->
<g id="edge22" class="edge"><title>Node20&#45;&gt;Node6</title>
<path fill="none" stroke="midnightblue" d="M1295.4,-339.401C1354.25,-334.883 1440.47,-328.263 1477.73,-325.403"/>
<polygon fill="midnightblue" stroke="midnightblue" points="1294.81,-335.936 1285.11,-340.191 1295.35,-342.915 1294.81,-335.936"/>
</g>
<!-- Node22 -->
<g id="node22" class="node"><title>Node22</title>
<g id="a_node22"><a xlink:href="../../d2/dc9/group__CIP__API.html#ga16eaeeb12ba23b5a75c8e5902a33d70a" target="_top" xlink:title="Notify the encapsulation layer that an explicit message has been received via TCP. ">
<polygon fill="none" stroke="black" points="448.5,-412.5 448.5,-431.5 604.5,-431.5 604.5,-412.5 448.5,-412.5"/>
<text text-anchor="middle" x="526.5" y="-419.5" font-family="Helvetica,sans-Serif" font-size="10.00">HandleReceivedExplictTcpData</text>
</a>
</g>
</g>
<!-- Node21&#45;&gt;Node22 -->
<g id="edge24" class="edge"><title>Node21&#45;&gt;Node22</title>
<path fill="none" stroke="midnightblue" d="M394.685,-421.368C412.12,-421.452 430.668,-421.542 448.151,-421.626"/>
<polygon fill="midnightblue" stroke="midnightblue" points="394.582,-417.868 384.565,-421.319 394.548,-424.868 394.582,-417.868"/>
</g>
<!-- Node23 -->
<g id="node23" class="node"><title>Node23</title>
<g id="a_node23"><a xlink:href="../../db/d4f/generic__networkhandler_8c.html#aca5593b7dd39d7a7b437999a367102d6" target="_top" xlink:title="Handles data on an established TCP connection, processed connection is given by socket. ">
<polygon fill="none" stroke="black" points="668.5,-415.5 668.5,-434.5 796.5,-434.5 796.5,-415.5 668.5,-415.5"/>
<text text-anchor="middle" x="732.5" y="-422.5" font-family="Helvetica,sans-Serif" font-size="10.00">HandleDataOnTcpSocket</text>
</a>
</g>
</g>
<!-- Node22&#45;&gt;Node23 -->
<g id="edge25" class="edge"><title>Node22&#45;&gt;Node23</title>
<path fill="none" stroke="midnightblue" d="M614.806,-423.284C632.751,-423.548 651.316,-423.821 668.215,-424.069"/>
<polygon fill="midnightblue" stroke="midnightblue" points="614.674,-419.782 604.624,-423.134 614.571,-426.781 614.674,-419.782"/>
</g>
<!-- Node23&#45;&gt;Node4 -->
<g id="edge26" class="edge"><title>Node23&#45;&gt;Node4</title>
<path fill="none" stroke="midnightblue" d="M806.666,-433.062C818.642,-434.382 831.043,-435.749 842.99,-437.065"/>
<polygon fill="midnightblue" stroke="midnightblue" points="807.048,-429.583 796.725,-431.967 806.282,-436.541 807.048,-429.583"/>
</g>
<!-- Node25 -->
<g id="node25" class="node"><title>Node25</title>
<g id="a_node25"><a xlink:href="../../de/d45/cipioconnection_8h.html#a62fc61ed294b1d1543960582f0071b22" target="_top" xlink:title="close the communication channels of the given connection and remove it from the active connections li...">
<polygon fill="none" stroke="black" points="431,-193 431,-223 622,-223 622,-193 431,-193"/>
<text text-anchor="start" x="439" y="-211" font-family="Helvetica,sans-Serif" font-size="10.00">CloseCommunicationChannels</text>
<text text-anchor="middle" x="526.5" y="-200" font-family="Helvetica,sans-Serif" font-size="10.00">AndRemoveFromActiveConnectionsList</text>
</a>
</g>
</g>
<!-- Node24&#45;&gt;Node25 -->
<g id="edge29" class="edge"><title>Node24&#45;&gt;Node25</title>
<path fill="none" stroke="midnightblue" d="M212.61,-208C270.243,-208 361.77,-208 430.976,-208"/>
<polygon fill="midnightblue" stroke="midnightblue" points="212.256,-204.5 202.256,-208 212.256,-211.5 212.256,-204.5"/>
</g>
<!-- Node27 -->
<g id="node27" class="node"><title>Node27</title>
<g id="a_node27"><a xlink:href="../../d2/da3/cipconnectionmanager_8h.html#a9367d6d6edfd5bd276ead18619f4d74e" target="_top" xlink:title="Close the given connection. ">
<polygon fill="none" stroke="black" points="271.5,-291.5 271.5,-310.5 363.5,-310.5 363.5,-291.5 271.5,-291.5"/>
<text text-anchor="middle" x="317.5" y="-298.5" font-family="Helvetica,sans-Serif" font-size="10.00">CloseConnection</text>
</a>
</g>
</g>
<!-- Node24&#45;&gt;Node27 -->
<g id="edge32" class="edge"><title>Node24&#45;&gt;Node27</title>
<path fill="none" stroke="midnightblue" d="M173.353,-225.411C188.882,-241.483 213.95,-264.926 240,-279 249.605,-284.189 260.567,-288.271 271.134,-291.434"/>
<polygon fill="midnightblue" stroke="midnightblue" points="175.554,-222.643 166.147,-217.768 170.46,-227.445 175.554,-222.643"/>
</g>
<!-- Node26 -->
<g id="node26" class="node"><title>Node26</title>
<g id="a_node26"><a xlink:href="../../df/d03/cipioconnection_8c.html#a730b410a0cdbc6a456973c0e51568968" target="_top" xlink:title="CloseIoConnection">
<polygon fill="none" stroke="black" points="682.5,-201.5 682.5,-220.5 782.5,-220.5 782.5,-201.5 682.5,-201.5"/>
<text text-anchor="middle" x="732.5" y="-208.5" font-family="Helvetica,sans-Serif" font-size="10.00">CloseIoConnection</text>
</a>
</g>
</g>
<!-- Node25&#45;&gt;Node26 -->
<g id="edge30" class="edge"><title>Node25&#45;&gt;Node26</title>
<path fill="none" stroke="midnightblue" d="M632.313,-209.541C649.774,-209.798 667.124,-210.053 682.316,-210.277"/>
<polygon fill="midnightblue" stroke="midnightblue" points="632.086,-206.038 622.035,-209.39 631.983,-213.037 632.086,-206.038"/>
</g>
<!-- Node26&#45;&gt;Node12 -->
<g id="edge31" class="edge"><title>Node26&#45;&gt;Node12</title>
<path fill="none" stroke="midnightblue" d="M792.76,-218.183C810.897,-220.381 830.95,-222.812 849.478,-225.058"/>
<polygon fill="midnightblue" stroke="midnightblue" points="792.965,-214.682 782.617,-216.954 792.123,-221.631 792.965,-214.682"/>
</g>
<!-- Node27&#45;&gt;Node17 -->
<g id="edge33" class="edge"><title>Node27&#45;&gt;Node17</title>
<path fill="none" stroke="midnightblue" d="M373.857,-311.162C404.793,-316.841 443.112,-323.876 473.491,-329.452"/>
<polygon fill="midnightblue" stroke="midnightblue" points="374.139,-307.655 363.671,-309.292 372.875,-314.54 374.139,-307.655"/>
</g>
<!-- Node27&#45;&gt;Node18 -->
<g id="edge34" class="edge"><title>Node27&#45;&gt;Node18</title>
<path fill="none" stroke="midnightblue" d="M374.077,-301.538C449.19,-302.266 582.993,-303.562 663.858,-304.345"/>
<polygon fill="midnightblue" stroke="midnightblue" points="373.913,-298.037 363.88,-301.44 373.845,-305.036 373.913,-298.037"/>
</g>
<!-- Node29 -->
<g id="node29" class="node"><title>Node29</title>
<g id="a_node29"><a xlink:href="../../df/d03/cipioconnection_8c.html#add645b42730b2cea369523949c6b9745" target="_top" xlink:title="Open a Point2Point connection dependent on pa_direction. ">
<polygon fill="none" stroke="black" points="453.5,-29 453.5,-59 599.5,-59 599.5,-29 453.5,-29"/>
<text text-anchor="start" x="461.5" y="-47" font-family="Helvetica,sans-Serif" font-size="10.00">OpenConsumingPointToPoint</text>
<text text-anchor="middle" x="526.5" y="-36" font-family="Helvetica,sans-Serif" font-size="10.00">Connection</text>
</a>
</g>
</g>
<!-- Node28&#45;&gt;Node29 -->
<g id="edge36" class="edge"><title>Node28&#45;&gt;Node29</title>
<path fill="none" stroke="midnightblue" d="M182.424,-127.445C198.416,-118.66 219.883,-107.871 240,-101 310.67,-76.8616 394.866,-61.5993 453.435,-53.0081"/>
<polygon fill="midnightblue" stroke="midnightblue" points="180.702,-124.398 173.692,-132.342 184.126,-130.503 180.702,-124.398"/>
</g>
<!-- Node31 -->
<g id="node31" class="node"><title>Node31</title>
<g id="a_node31"><a xlink:href="../../df/d03/cipioconnection_8c.html#aa3b58fd216ec6712abc29ef84b33006d" target="_top" xlink:title="OpenProducingPointToPoint\lConnection">
<polygon fill="none" stroke="black" points="247.5,-149 247.5,-179 387.5,-179 387.5,-149 247.5,-149"/>
<text text-anchor="start" x="255.5" y="-167" font-family="Helvetica,sans-Serif" font-size="10.00">OpenProducingPointToPoint</text>
<text text-anchor="middle" x="317.5" y="-156" font-family="Helvetica,sans-Serif" font-size="10.00">Connection</text>
</a>
</g>
</g>
<!-- Node28&#45;&gt;Node31 -->
<g id="edge39" class="edge"><title>Node28&#45;&gt;Node31</title>
<path fill="none" stroke="midnightblue" d="M214.367,-149.868C225.039,-151.345 236.304,-152.904 247.302,-154.425"/>
<polygon fill="midnightblue" stroke="midnightblue" points="214.731,-146.385 204.345,-148.482 213.771,-153.319 214.731,-146.385"/>
</g>
<!-- Node32 -->
<g id="node32" class="node"><title>Node32</title>
<g id="a_node32"><a xlink:href="../../df/d03/cipioconnection_8c.html#a9e2ce4666173987646cf60ce3422d7b4" target="_top" xlink:title="Open a Multicast connection dependent on direction. ">
<polygon fill="none" stroke="black" points="253,-110.5 253,-129.5 382,-129.5 382,-110.5 253,-110.5"/>
<text text-anchor="middle" x="317.5" y="-117.5" font-family="Helvetica,sans-Serif" font-size="10.00">OpenMulticastConnection</text>
</a>
</g>
</g>
<!-- Node28&#45;&gt;Node32 -->
<g id="edge41" class="edge"><title>Node28&#45;&gt;Node32</title>
<path fill="none" stroke="midnightblue" d="M214.571,-134.103C227.004,-132.383 240.234,-130.553 252.902,-128.8"/>
<polygon fill="midnightblue" stroke="midnightblue" points="213.771,-130.681 204.345,-135.518 214.731,-137.615 213.771,-130.681"/>
</g>
<!-- Node30 -->
<g id="node30" class="node"><title>Node30</title>
<g id="a_node30"><a xlink:href="../../de/d45/cipioconnection_8h.html#a53b85bce88b582414fc282c95f5626f4" target="_top" xlink:title="Take the data given in the connection object structure and open the necessary communication channels...">
<polygon fill="none" stroke="black" points="658,-116.5 658,-135.5 807,-135.5 807,-116.5 658,-116.5"/>
<text text-anchor="middle" x="732.5" y="-123.5" font-family="Helvetica,sans-Serif" font-size="10.00">OpenCommunicationChannels</text>
</a>
</g>
</g>
<!-- Node29&#45;&gt;Node30 -->
<g id="edge37" class="edge"><title>Node29&#45;&gt;Node30</title>
<path fill="none" stroke="midnightblue" d="M589.059,-62.2061C600.119,-65.8548 611.472,-69.8512 622,-74 654.894,-86.9622 691.772,-105.306 713.239,-116.386"/>
<polygon fill="midnightblue" stroke="midnightblue" points="590.035,-58.8434 579.443,-59.0941 587.88,-65.5033 590.035,-58.8434"/>
</g>
<!-- Node30&#45;&gt;Node13 -->
<g id="edge38" class="edge"><title>Node30&#45;&gt;Node13</title>
<path fill="none" stroke="midnightblue" d="M774.537,-138.618C844.942,-160.265 987.242,-204.018 1050.26,-223.393"/>
<polygon fill="midnightblue" stroke="midnightblue" points="775.276,-135.183 764.689,-135.59 773.219,-141.874 775.276,-135.183"/>
</g>
<!-- Node31&#45;&gt;Node30 -->
<g id="edge40" class="edge"><title>Node31&#45;&gt;Node30</title>
<path fill="none" stroke="midnightblue" d="M397.704,-161.412C459.07,-158.835 546.133,-153.93 622,-145 642.216,-142.621 664.367,-138.975 683.424,-135.512"/>
<polygon fill="midnightblue" stroke="midnightblue" points="397.55,-157.916 387.701,-161.821 397.836,-164.91 397.55,-157.916"/>
</g>
<!-- Node32&#45;&gt;Node30 -->
<g id="edge42" class="edge"><title>Node32&#45;&gt;Node30</title>
<path fill="none" stroke="midnightblue" d="M392.275,-110.247C405.161,-108.894 418.455,-107.722 431,-107 515.748,-102.12 537.424,-99.7168 622,-107 643.53,-108.854 667.18,-112.723 686.975,-116.488"/>
<polygon fill="midnightblue" stroke="midnightblue" points="391.61,-106.798 382.05,-111.364 392.371,-113.757 391.61,-106.798"/>
</g>
<!-- Node33 -->
<g id="node33" class="node"><title>Node33</title>
<g id="a_node33"><a xlink:href="../../df/d03/cipioconnection_8c.html#a5dea6fc1be0ed4ecf5d9e4f932d52106" target="_top" xlink:title="OpenProducingMulticastConnection">
<polygon fill="none" stroke="black" points="440,-116.5 440,-135.5 613,-135.5 613,-116.5 440,-116.5"/>
<text text-anchor="middle" x="526.5" y="-123.5" font-family="Helvetica,sans-Serif" font-size="10.00">OpenProducingMulticastConnection</text>
</a>
</g>
</g>
<!-- Node32&#45;&gt;Node33 -->
<g id="edge43" class="edge"><title>Node32&#45;&gt;Node33</title>
<path fill="none" stroke="midnightblue" d="M392.054,-122.132C407.573,-122.582 424.076,-123.06 439.992,-123.522"/>
<polygon fill="midnightblue" stroke="midnightblue" points="392.111,-118.632 382.014,-121.841 391.908,-125.629 392.111,-118.632"/>
</g>
<!-- Node33&#45;&gt;Node30 -->
<g id="edge44" class="edge"><title>Node33&#45;&gt;Node30</title>
<path fill="none" stroke="midnightblue" d="M623.265,-126C634.849,-126 646.54,-126 657.739,-126"/>
<polygon fill="midnightblue" stroke="midnightblue" points="623.128,-122.5 613.128,-126 623.128,-129.5 623.128,-122.5"/>
</g>
<!-- Node34&#45;&gt;Node6 -->
<g id="edge46" class="edge"><title>Node34&#45;&gt;Node6</title>
<path fill="none" stroke="midnightblue" d="M1397.2,-152.564C1420.03,-192.179 1472.86,-283.848 1490.3,-314.108"/>
<polygon fill="midnightblue" stroke="midnightblue" points="1400.11,-150.6 1392.08,-143.683 1394.04,-154.095 1400.11,-150.6"/>
</g>
</g>
</svg>
        <g id="navigator" transform="translate(0 0)" fill="#404254">
                <rect fill="#f2f5e9" fill-opacity="0.5" stroke="#606060" stroke-width=".5" x="0" y="0" width="60" height="60"/>
                <use id="zoomplus" xlink:href="#zoomPlus" x="17" y="9" onmousedown="handleZoom(evt,'in')"/>
                <use id="zoomminus" xlink:href="#zoomMin" x="42" y="9" onmousedown="handleZoom(evt,'out')"/>
                <use id="reset" xlink:href="#resetDef" x="30" y="36" onmousedown="handleReset()"/>
                <g id="arrowUp" xlink:href="#dirArrow" transform="translate(30 24)" onmousedown="handlePan(0,-1)">
                  <use xlink:href="#rim" fill="#404040">
                        <set attributeName="fill" to="#808080" begin="arrowUp.mouseover" end="arrowUp.mouseout"/>
                  </use>
                  <path fill="none" stroke="white" stroke-width="1.5" d="M0,-3.0v7 M-2.5,-0.5L0,-3.0L2.5,-0.5"/>
                </g>
                <g id="arrowRight" xlink:href="#dirArrow" transform="rotate(90) translate(36 -43)" onmousedown="handlePan(1,0)">
                  <use xlink:href="#rim" fill="#404040">
                        <set attributeName="fill" to="#808080" begin="arrowRight.mouseover" end="arrowRight.mouseout"/>
                  </use>
                  <path fill="none" stroke="white" stroke-width="1.5" d="M0,-3.0v7 M-2.5,-0.5L0,-3.0L2.5,-0.5"/>
                </g>
                <g id="arrowDown" xlink:href="#dirArrow" transform="rotate(180) translate(-30 -48)" onmousedown="handlePan(0,1)">
                  <use xlink:href="#rim" fill="#404040">
                        <set attributeName="fill" to="#808080" begin="arrowDown.mouseover" end="arrowDown.mouseout"/>
                  </use>
                  <path fill="none" stroke="white" stroke-width="1.5" d="M0,-3.0v7 M-2.5,-0.5L0,-3.0L2.5,-0.5"/>
                </g>
                <g id="arrowLeft" xlink:href="#dirArrow" transform="rotate(270) translate(-36 17)" onmousedown="handlePan(-1,0)">
                  <use xlink:href="#rim" fill="#404040">
                        <set attributeName="fill" to="#808080" begin="arrowLeft.mouseover" end="arrowLeft.mouseout"/>
                  </use>
                  <path fill="none" stroke="white" stroke-width="1.5" d="M0,-3.0v7 M-2.5,-0.5L0,-3.0L2.5,-0.5"/>
                </g>
        </g>
        <svg viewBox="0 0 15 15" width="100%" height="30px" preserveAspectRatio="xMaxYMin meet">
         <g id="arrow_out" transform="scale(0.3 0.3)">
          <a xlink:href="group__CIP__CALLBACK__API_gae04e2a3e9937e910cbcdbff0b8d6ad2b_icgraph_org.svg" target="_base">
           <rect id="button" ry="5" rx="5" y="6" x="6" height="38" width="38"
                fill="#f2f5e9" fill-opacity="0.5" stroke="#606060" stroke-width="1.0"/>
           <path id="arrow"
             d="M 11.500037,31.436501 C 11.940474,20.09759 22.043105,11.32322 32.158766,21.979434 L 37.068811,17.246167 C 37.068811,17.246167 37.088388,32 37.088388,32 L 22.160133,31.978069 C 22.160133,31.978069 26.997745,27.140456 26.997745,27.140456 C 18.528582,18.264221 13.291696,25.230495 11.500037,31.436501 z"
             style="fill:#404040;"/>
          </a>
         </g>
        </svg>
</svg>
