<?xml version="1.0" encoding="UTF-8" standalone="no"?>
<!DOCTYPE svg PUBLIC "-//W3C//DTD SVG 1.1//EN"
 "http://www.w3.org/Graphics/SVG/1.1/DTD/svg11.dtd">
<!-- Generated by graphviz version 2.38.0 (20140413.2041)
 -->
<!-- Title: src/cip/cipmessagerouter.h Pages: 1 -->
<svg width="1214pt" height="84pt"
 viewBox="0.00 0.00 1214.00 84.00" xmlns="http://www.w3.org/2000/svg" xmlns:xlink="http://www.w3.org/1999/xlink">
<g id="graph0" class="graph" transform="scale(1 1) rotate(0) translate(4 80)">
<title>src/cip/cipmessagerouter.h</title>
<!-- Node1 -->
<g id="node1" class="node"><title>Node1</title>
<polygon fill="#bfbfbf" stroke="black" points="556.5,-56.5 556.5,-75.5 690.5,-75.5 690.5,-56.5 556.5,-56.5"/>
<text text-anchor="middle" x="623.5" y="-63.5" font-family="Helvetica,sans-Serif" font-size="10.00">src/cip/cipmessagerouter.h</text>
</g>
<!-- Node2 -->
<g id="node2" class="node"><title>Node2</title>
<g id="a_node2"><a xlink:href="../../d2/d3d/cipcommon_8c.html" target="_top" xlink:title="src/cip/cipcommon.c">
<polygon fill="none" stroke="black" points="0,-0.5 0,-19.5 107,-19.5 107,-0.5 0,-0.5"/>
<text text-anchor="middle" x="53.5" y="-7.5" font-family="Helvetica,sans-Serif" font-size="10.00">src/cip/cipcommon.c</text>
</a>
</g>
</g>
<!-- Node1&#45;&gt;Node2 -->
<g id="edge1" class="edge"><title>Node1&#45;&gt;Node2</title>
<path fill="none" stroke="midnightblue" d="M546.42,-59.5175C446.763,-52.1206 267.902,-37.7975 115.5,-20 112.799,-19.6846 110.035,-19.345 107.244,-18.9888"/>
<polygon fill="midnightblue" stroke="midnightblue" points="546.173,-63.0087 556.403,-60.255 546.688,-56.0277 546.173,-63.0087"/>
</g>
<!-- Node3 -->
<g id="node3" class="node"><title>Node3</title>
<g id="a_node3"><a xlink:href="../../d5/d35/cipconnectionmanager_8c.html" target="_top" xlink:title="src/cip/cipconnectionmanager.c">
<polygon fill="none" stroke="black" points="125,-0.5 125,-19.5 280,-19.5 280,-0.5 125,-0.5"/>
<text text-anchor="middle" x="202.5" y="-7.5" font-family="Helvetica,sans-Serif" font-size="10.00">src/cip/cipconnectionmanager.c</text>
</a>
</g>
</g>
<!-- Node1&#45;&gt;Node3 -->
<g id="edge2" class="edge"><title>Node1&#45;&gt;Node3</title>
<path fill="none" stroke="midnightblue" d="M546.838,-55.1669C467.353,-44.9716 344.364,-29.1963 268.897,-19.5164"/>
<polygon fill="midnightblue" stroke="midnightblue" points="546.427,-58.6428 556.791,-56.4435 547.318,-51.6997 546.427,-58.6428"/>
</g>
<!-- Node4 -->
<g id="node4" class="node"><title>Node4</title>
<g id="a_node4"><a xlink:href="../../d7/d65/cipethernetlink_8c.html" target="_top" xlink:title="src/cip/cipethernetlink.c">
<polygon fill="none" stroke="black" points="298.5,-0.5 298.5,-19.5 418.5,-19.5 418.5,-0.5 298.5,-0.5"/>
<text text-anchor="middle" x="358.5" y="-7.5" font-family="Helvetica,sans-Serif" font-size="10.00">src/cip/cipethernetlink.c</text>
</a>
</g>
</g>
<!-- Node1&#45;&gt;Node4 -->
<g id="edge3" class="edge"><title>Node1&#45;&gt;Node4</title>
<path fill="none" stroke="midnightblue" d="M571.528,-54.4096C521.446,-44.2042 446.636,-28.9597 400.294,-19.5164"/>
<polygon fill="midnightblue" stroke="midnightblue" points="571.012,-57.8763 581.51,-56.4435 572.41,-51.0172 571.012,-57.8763"/>
</g>
<!-- Node5 -->
<g id="node5" class="node"><title>Node5</title>
<g id="a_node5"><a xlink:href="../../dd/dc4/cipidentity_8c.html" target="_top" xlink:title="src/cip/cipidentity.c">
<polygon fill="none" stroke="black" points="437,-0.5 437,-19.5 538,-19.5 538,-0.5 437,-0.5"/>
<text text-anchor="middle" x="487.5" y="-7.5" font-family="Helvetica,sans-Serif" font-size="10.00">src/cip/cipidentity.c</text>
</a>
</g>
</g>
<!-- Node1&#45;&gt;Node5 -->
<g id="edge4" class="edge"><title>Node1&#45;&gt;Node5</title>
<path fill="none" stroke="midnightblue" d="M592.365,-52.6377C566.843,-42.504 531.391,-28.4274 508.949,-19.5164"/>
<polygon fill="midnightblue" stroke="midnightblue" points="591.365,-56.0061 601.95,-56.4435 593.948,-49.5002 591.365,-56.0061"/>
</g>
<!-- Node6 -->
<g id="node6" class="node"><title>Node6</title>
<g id="a_node6"><a xlink:href="../../d9/d7d/cipmessagerouter_8c.html" target="_top" xlink:title="src/cip/cipmessagerouter.c">
<polygon fill="none" stroke="black" points="556.5,-0.5 556.5,-19.5 690.5,-19.5 690.5,-0.5 556.5,-0.5"/>
<text text-anchor="middle" x="623.5" y="-7.5" font-family="Helvetica,sans-Serif" font-size="10.00">src/cip/cipmessagerouter.c</text>
</a>
</g>
</g>
<!-- Node1&#45;&gt;Node6 -->
<g id="edge5" class="edge"><title>Node1&#45;&gt;Node6</title>
<path fill="none" stroke="midnightblue" d="M623.5,-45.8045C623.5,-36.9102 623.5,-26.7798 623.5,-19.7511"/>
<polygon fill="midnightblue" stroke="midnightblue" points="620,-46.083 623.5,-56.083 627,-46.083 620,-46.083"/>
</g>
<!-- Node7 -->
<g id="node7" class="node"><title>Node7</title>
<g id="a_node7"><a xlink:href="../../dd/d34/cipqos_8c.html" target="_top" xlink:title="src/cip/cipqos.c">
<polygon fill="none" stroke="black" points="708.5,-0.5 708.5,-19.5 794.5,-19.5 794.5,-0.5 708.5,-0.5"/>
<text text-anchor="middle" x="751.5" y="-7.5" font-family="Helvetica,sans-Serif" font-size="10.00">src/cip/cipqos.c</text>
</a>
</g>
</g>
<!-- Node1&#45;&gt;Node7 -->
<g id="edge6" class="edge"><title>Node1&#45;&gt;Node7</title>
<path fill="none" stroke="midnightblue" d="M653.123,-52.503C677.119,-42.3795 710.284,-28.388 731.313,-19.5164"/>
<polygon fill="midnightblue" stroke="midnightblue" points="651.635,-49.3317 643.782,-56.4435 654.356,-55.7813 651.635,-49.3317"/>
</g>
<!-- Node8 -->
<g id="node8" class="node"><title>Node8</title>
<g id="a_node8"><a xlink:href="../../dd/d20/ciptcpipinterface_8c.html" target="_top" xlink:title="src/cip/ciptcpipinterface.c">
<polygon fill="none" stroke="black" points="812.5,-0.5 812.5,-19.5 940.5,-19.5 940.5,-0.5 812.5,-0.5"/>
<text text-anchor="middle" x="876.5" y="-7.5" font-family="Helvetica,sans-Serif" font-size="10.00">src/cip/ciptcpipinterface.c</text>
</a>
</g>
</g>
<!-- Node1&#45;&gt;Node8 -->
<g id="edge7" class="edge"><title>Node1&#45;&gt;Node8</title>
<path fill="none" stroke="midnightblue" d="M673.418,-54.3456C721.231,-44.1405 792.448,-28.94 836.599,-19.5164"/>
<polygon fill="midnightblue" stroke="midnightblue" points="672.638,-50.9332 663.589,-56.4435 674.099,-57.779 672.638,-50.9332"/>
</g>
<!-- Node9 -->
<g id="node9" class="node"><title>Node9</title>
<g id="a_node9"><a xlink:href="../../d3/d98/cpf_8c.html" target="_top" xlink:title="src/enet_encap/cpf.c">
<polygon fill="none" stroke="black" points="958.5,-0.5 958.5,-19.5 1066.5,-19.5 1066.5,-0.5 958.5,-0.5"/>
<text text-anchor="middle" x="1012.5" y="-7.5" font-family="Helvetica,sans-Serif" font-size="10.00">src/enet_encap/cpf.c</text>
</a>
</g>
</g>
<!-- Node1&#45;&gt;Node9 -->
<g id="edge8" class="edge"><title>Node1&#45;&gt;Node9</title>
<path fill="none" stroke="midnightblue" d="M696.314,-55.0493C762.39,-45.9954 862.497,-32.2192 949.5,-20 952.345,-19.6005 955.261,-19.1893 958.206,-18.7729"/>
<polygon fill="midnightblue" stroke="midnightblue" points="695.441,-51.6361 686.009,-56.4608 696.391,-58.5713 695.441,-51.6361"/>
</g>
<!-- Node10 -->
<g id="node10" class="node"><title>Node10</title>
<g id="a_node10"><a xlink:href="../../d2/dbd/encap_8c.html" target="_top" xlink:title="src/enet_encap/encap.c">
<polygon fill="none" stroke="black" points="1085,-0.5 1085,-19.5 1206,-19.5 1206,-0.5 1085,-0.5"/>
<text text-anchor="middle" x="1145.5" y="-7.5" font-family="Helvetica,sans-Serif" font-size="10.00">src/enet_encap/encap.c</text>
</a>
</g>
</g>
<!-- Node1&#45;&gt;Node10 -->
<g id="edge9" class="edge"><title>Node1&#45;&gt;Node10</title>
<path fill="none" stroke="midnightblue" d="M700.696,-57.9928C790.738,-49.6624 944.038,-34.9921 1075.5,-20 1078.54,-19.6529 1081.66,-19.2878 1084.81,-18.9115"/>
<polygon fill="midnightblue" stroke="midnightblue" points="700.209,-54.5229 690.573,-58.9273 700.852,-61.4932 700.209,-54.5229"/>
</g>
</g>
</svg>
