<?xml version="1.0" encoding="UTF-8" standalone="no"?>
<!DOCTYPE svg PUBLIC "-//W3C//DTD SVG 1.1//EN"
 "http://www.w3.org/Graphics/SVG/1.1/DTD/svg11.dtd">
<!-- Generated by graphviz version 2.36.0 (20140111.2315)
 -->
<!-- Title: src/ports/MINGW/networkhandler.c Pages: 1 -->
<!--zoomable 532 -->
<svg id="main" version="1.1" xmlns="http://www.w3.org/2000/svg" xmlns:xlink="http://www.w3.org/1999/xlink" xml:space="preserve" onload="init(evt)">
<style type="text/css"><![CDATA[
.edge:hover path { stroke: red; }
.edge:hover polygon { stroke: red; fill: red; }
]]></style>
<script type="text/javascript"><![CDATA[
var edges = document.getElementsByTagName('g');
if (edges && edges.length) {
  for (var i=0;i<edges.length;i++) {
    if (edges[i].id.substr(0,4)=='edge') {
      edges[i].setAttribute('class','edge');
    }
  }
}
]]></script>
        <defs>
                <circle id="rim" cx="0" cy="0" r="7"/>
                <circle id="rim2" cx="0" cy="0" r="3.5"/>
                <g id="zoomPlus">
                        <use xlink:href="#rim" fill="#404040">
                                <set attributeName="fill" to="#808080" begin="zoomplus.mouseover" end="zoomplus.mouseout"/>
                        </use>
                        <path d="M-4,0h8M0,-4v8" fill="none" stroke="white" stroke-width="1.5" pointer-events="none"/>
                </g>
                <g id="zoomMin">
                        <use xlink:href="#rim" fill="#404040">
                                <set attributeName="fill" to="#808080" begin="zoomminus.mouseover" end="zoomminus.mouseout"/>
                        </use>
                        <path d="M-4,0h8" fill="none" stroke="white" stroke-width="1.5" pointer-events="none"/>
                </g>
                <g id="dirArrow">
                        <path fill="none" stroke="white" stroke-width="1.5" d="M0,-3.0v7 M-2.5,-0.5L0,-3.0L2.5,-0.5"/>
                </g>
               <g id="resetDef">
                       <use xlink:href="#rim2" fill="#404040">
                               <set attributeName="fill" to="#808080" begin="reset.mouseover" end="reset.mouseout"/>
                       </use>
               </g>
        </defs>

<script type="text/javascript">
var viewWidth = 1000;
var viewHeight = 532;
var sectionId = 'dynsection-0';
</script>
<script xlink:href="../../svgpan.js"/>
<svg id="graph" class="graph">
<g id="viewport">
<title>src/ports/MINGW/networkhandler.c</title>
<!-- Node1 -->
<g id="node1" class="node"><title>Node1</title>
<polygon fill="#bfbfbf" stroke="black" points="433.5,-504.5 433.5,-523.5 604.5,-523.5 604.5,-504.5 433.5,-504.5"/>
<text text-anchor="middle" x="519" y="-511.5" font-family="Helvetica,sans-Serif" font-size="10.00">src/ports/MINGW/networkhandler.c</text>
</g>
<!-- Node2 -->
<g id="node2" class="node"><title>Node2</title>
<polygon fill="none" stroke="#bfbfbf" points="314.5,-392.5 314.5,-411.5 363.5,-411.5 363.5,-392.5 314.5,-392.5"/>
<text text-anchor="middle" x="339" y="-399.5" font-family="Helvetica,sans-Serif" font-size="10.00">string.h</text>
</g>
<!-- Node1&#45;&gt;Node2 -->
<g id="edge1" class="edge"><title>Node1&#45;&gt;Node2</title>
<path fill="none" stroke="midnightblue" d="M471.648,-504.468C444.62,-497.858 411.208,-486.593 386,-468 369.245,-455.642 356.031,-435.551 347.936,-420.972"/>
<polygon fill="midnightblue" stroke="midnightblue" points="350.926,-419.139 343.169,-411.923 344.733,-422.402 350.926,-419.139"/>
</g>
<!-- Node3 -->
<g id="node3" class="node"><title>Node3</title>
<polygon fill="none" stroke="#bfbfbf" points="395,-392.5 395,-411.5 443,-411.5 443,-392.5 395,-392.5"/>
<text text-anchor="middle" x="419" y="-399.5" font-family="Helvetica,sans-Serif" font-size="10.00">stdlib.h</text>
</g>
<!-- Node1&#45;&gt;Node3 -->
<g id="edge2" class="edge"><title>Node1&#45;&gt;Node3</title>
<path fill="none" stroke="midnightblue" d="M451.75,-504.447C429.678,-498.084 407.395,-487.059 394,-468 383.62,-453.232 393.85,-433.582 404.181,-419.767"/>
<polygon fill="midnightblue" stroke="midnightblue" points="407.19,-421.613 410.769,-411.641 401.753,-417.204 407.19,-421.613"/>
</g>
<!-- Node4 -->
<g id="node4" class="node"><title>Node4</title>
<polygon fill="none" stroke="#bfbfbf" points="403,-448.5 403,-467.5 469,-467.5 469,-448.5 403,-448.5"/>
<text text-anchor="middle" x="436" y="-455.5" font-family="Helvetica,sans-Serif" font-size="10.00">winsock2.h</text>
</g>
<!-- Node1&#45;&gt;Node4 -->
<g id="edge3" class="edge"><title>Node1&#45;&gt;Node4</title>
<path fill="none" stroke="midnightblue" d="M505.665,-504.324C492.838,-495.979 473.215,-483.212 458.06,-473.352"/>
<polygon fill="midnightblue" stroke="midnightblue" points="459.593,-470.174 449.302,-467.655 455.776,-476.042 459.593,-470.174"/>
</g>
<!-- Node5 -->
<g id="node5" class="node"><title>Node5</title>
<polygon fill="none" stroke="#bfbfbf" points="487.5,-448.5 487.5,-467.5 550.5,-467.5 550.5,-448.5 487.5,-448.5"/>
<text text-anchor="middle" x="519" y="-455.5" font-family="Helvetica,sans-Serif" font-size="10.00">windows.h</text>
</g>
<!-- Node1&#45;&gt;Node5 -->
<g id="edge4" class="edge"><title>Node1&#45;&gt;Node5</title>
<path fill="none" stroke="midnightblue" d="M519,-504.083C519,-497.006 519,-486.861 519,-477.986"/>
<polygon fill="midnightblue" stroke="midnightblue" points="522.5,-477.751 519,-467.751 515.5,-477.751 522.5,-477.751"/>
</g>
<!-- Node6 -->
<g id="node6" class="node"><title>Node6</title>
<polygon fill="none" stroke="#bfbfbf" points="569,-448.5 569,-467.5 635,-467.5 635,-448.5 569,-448.5"/>
<text text-anchor="middle" x="602" y="-455.5" font-family="Helvetica,sans-Serif" font-size="10.00">Ws2tcpip.h</text>
</g>
<!-- Node1&#45;&gt;Node6 -->
<g id="edge5" class="edge"><title>Node1&#45;&gt;Node6</title>
<path fill="none" stroke="midnightblue" d="M532.335,-504.324C545.162,-495.979 564.785,-483.212 579.94,-473.352"/>
<polygon fill="midnightblue" stroke="midnightblue" points="582.224,-476.042 588.698,-467.655 578.407,-470.174 582.224,-476.042"/>
</g>
<!-- Node7 -->
<g id="node7" class="node"><title>Node7</title>
<g id="a_node7"><a xlink:href="../../d0/d47/networkhandler_8h.html" target="_top" xlink:title="networkhandler.h">
<polygon fill="none" stroke="black" points="816.5,-112.5 816.5,-131.5 907.5,-131.5 907.5,-112.5 816.5,-112.5"/>
<text text-anchor="middle" x="862" y="-119.5" font-family="Helvetica,sans-Serif" font-size="10.00">networkhandler.h</text>
</a>
</g>
</g>
<!-- Node1&#45;&gt;Node7 -->
<g id="edge6" class="edge"><title>Node1&#45;&gt;Node7</title>
<path fill="none" stroke="midnightblue" d="M604.689,-506.056C658.908,-499.897 729.863,-488.548 790,-468 839.677,-451.026 867.08,-457.07 894,-412 898.558,-404.369 894.482,-400.876 894,-392 891.552,-346.912 883,-336.154 883,-291 883,-291 883,-291 883,-233 883,-200.384 873.982,-163.278 867.765,-141.573"/>
<polygon fill="midnightblue" stroke="midnightblue" points="871.043,-140.316 864.832,-131.732 864.334,-142.315 871.043,-140.316"/>
</g>
<!-- Node12 -->
<g id="node12" class="node"><title>Node12</title>
<g id="a_node12"><a xlink:href="../../da/dc2/generic__networkhandler_8h.html" target="_top" xlink:title="generic_networkhandler.h">
<polygon fill="none" stroke="black" points="653,-448.5 653,-467.5 781,-467.5 781,-448.5 653,-448.5"/>
<text text-anchor="middle" x="717" y="-455.5" font-family="Helvetica,sans-Serif" font-size="10.00">generic_networkhandler.h</text>
</a>
</g>
</g>
<!-- Node1&#45;&gt;Node12 -->
<g id="edge11" class="edge"><title>Node1&#45;&gt;Node12</title>
<path fill="none" stroke="midnightblue" d="M550.374,-504.444C584.263,-495.201 638.403,-480.436 675.724,-470.257"/>
<polygon fill="midnightblue" stroke="midnightblue" points="677.046,-473.524 685.773,-467.516 675.205,-466.771 677.046,-473.524"/>
</g>
<!-- Node8 -->
<g id="node8" class="node"><title>Node8</title>
<g id="a_node8"><a xlink:href="../../d7/d69/typedefs_8h.html" target="_top" xlink:title="typedefs.h">
<polygon fill="none" stroke="black" points="662,-56.5 662,-75.5 724,-75.5 724,-56.5 662,-56.5"/>
<text text-anchor="middle" x="693" y="-63.5" font-family="Helvetica,sans-Serif" font-size="10.00">typedefs.h</text>
</a>
</g>
</g>
<!-- Node7&#45;&gt;Node8 -->
<g id="edge7" class="edge"><title>Node7&#45;&gt;Node8</title>
<path fill="none" stroke="midnightblue" d="M835.221,-112.444C806.667,-103.32 761.267,-88.8133 729.463,-78.6509"/>
<polygon fill="midnightblue" stroke="midnightblue" points="730.244,-75.2262 719.653,-75.5164 728.114,-81.8941 730.244,-75.2262"/>
</g>
<!-- Node9 -->
<g id="node9" class="node"><title>Node9</title>
<polygon fill="none" stroke="#bfbfbf" points="700.5,-0.5 700.5,-19.5 759.5,-19.5 759.5,-0.5 700.5,-0.5"/>
<text text-anchor="middle" x="730" y="-7.5" font-family="Helvetica,sans-Serif" font-size="10.00">inttypes.h</text>
</g>
<!-- Node8&#45;&gt;Node9 -->
<g id="edge8" class="edge"><title>Node8&#45;&gt;Node9</title>
<path fill="none" stroke="midnightblue" d="M699.11,-56.083C704.282,-48.5341 711.846,-37.4948 718.194,-28.2298"/>
<polygon fill="midnightblue" stroke="midnightblue" points="721.239,-29.9787 724.004,-19.7511 715.464,-26.0221 721.239,-29.9787"/>
</g>
<!-- Node10 -->
<g id="node10" class="node"><title>Node10</title>
<polygon fill="none" stroke="#bfbfbf" points="630,-0.5 630,-19.5 682,-19.5 682,-0.5 630,-0.5"/>
<text text-anchor="middle" x="656" y="-7.5" font-family="Helvetica,sans-Serif" font-size="10.00">stddef.h</text>
</g>
<!-- Node8&#45;&gt;Node10 -->
<g id="edge9" class="edge"><title>Node8&#45;&gt;Node10</title>
<path fill="none" stroke="midnightblue" d="M686.89,-56.083C681.718,-48.5341 674.154,-37.4948 667.806,-28.2298"/>
<polygon fill="midnightblue" stroke="midnightblue" points="670.536,-26.0221 661.996,-19.7511 664.761,-29.9787 670.536,-26.0221"/>
</g>
<!-- Node11 -->
<g id="node11" class="node"><title>Node11</title>
<polygon fill="none" stroke="#bfbfbf" points="372,-0.5 372,-19.5 428,-19.5 428,-0.5 372,-0.5"/>
<text text-anchor="middle" x="400" y="-7.5" font-family="Helvetica,sans-Serif" font-size="10.00">stdbool.h</text>
</g>
<!-- Node8&#45;&gt;Node11 -->
<g id="edge10" class="edge"><title>Node8&#45;&gt;Node11</title>
<path fill="none" stroke="midnightblue" d="M661.921,-59.2722C607.875,-49.3114 496.752,-28.8314 438.133,-18.028"/>
<polygon fill="midnightblue" stroke="midnightblue" points="438.635,-14.5616 428.166,-16.191 437.366,-21.4456 438.635,-14.5616"/>
</g>
<!-- Node12&#45;&gt;Node2 -->
<g id="edge13" class="edge"><title>Node12&#45;&gt;Node2</title>
<path fill="none" stroke="midnightblue" d="M652.901,-448.705C571.589,-438.11 435.936,-420.169 386,-412 382.054,-411.354 377.931,-410.634 373.837,-409.889"/>
<polygon fill="midnightblue" stroke="midnightblue" points="374.309,-406.416 363.835,-408.016 373.02,-413.297 374.309,-406.416"/>
</g>
<!-- Node12&#45;&gt;Node3 -->
<g id="edge14" class="edge"><title>Node12&#45;&gt;Node3</title>
<path fill="none" stroke="midnightblue" d="M662.768,-448.465C610.254,-439.991 528.457,-426.239 458,-412 456.51,-411.699 454.99,-411.384 453.456,-411.059"/>
<polygon fill="midnightblue" stroke="midnightblue" points="453.815,-407.554 443.296,-408.823 452.311,-414.39 453.815,-407.554"/>
</g>
<!-- Node12&#45;&gt;Node7 -->
<g id="edge48" class="edge"><title>Node12&#45;&gt;Node7</title>
<path fill="none" stroke="midnightblue" d="M730.22,-448.388C753.163,-432.757 800.351,-397.468 826,-356 841.832,-330.403 845,-321.098 845,-291 845,-291 845,-291 845,-233 845,-200.583 852.3,-163.415 857.333,-141.644"/>
<polygon fill="midnightblue" stroke="midnightblue" points="860.772,-142.31 859.707,-131.769 853.966,-140.674 860.772,-142.31"/>
</g>
<!-- Node12&#45;&gt;Node8 -->
<g id="edge27" class="edge"><title>Node12&#45;&gt;Node8</title>
<path fill="none" stroke="midnightblue" d="M718.144,-448.484C720.812,-428.713 727.698,-378.17 734,-336 740.717,-291.051 750,-280.449 750,-235 750,-235 750,-235 750,-177 750,-140.3 724.679,-103.657 707.79,-83.2973"/>
<polygon fill="midnightblue" stroke="midnightblue" points="710.348,-80.9037 701.167,-75.6161 705.046,-85.475 710.348,-80.9037"/>
</g>
<!-- Node13 -->
<g id="node13" class="node"><title>Node13</title>
<polygon fill="none" stroke="#bfbfbf" points="839,-392.5 839,-411.5 885,-411.5 885,-392.5 839,-392.5"/>
<text text-anchor="middle" x="862" y="-399.5" font-family="Helvetica,sans-Serif" font-size="10.00">stdio.h</text>
</g>
<!-- Node12&#45;&gt;Node13 -->
<g id="edge12" class="edge"><title>Node12&#45;&gt;Node13</title>
<path fill="none" stroke="midnightblue" d="M739.976,-448.444C764.157,-439.438 802.418,-425.189 829.646,-415.049"/>
<polygon fill="midnightblue" stroke="midnightblue" points="830.982,-418.286 839.132,-411.516 828.539,-411.727 830.982,-418.286"/>
</g>
<!-- Node14 -->
<g id="node14" class="node"><title>Node14</title>
<polygon fill="none" stroke="#bfbfbf" points="560.5,-392.5 560.5,-411.5 607.5,-411.5 607.5,-392.5 560.5,-392.5"/>
<text text-anchor="middle" x="584" y="-399.5" font-family="Helvetica,sans-Serif" font-size="10.00">errno.h</text>
</g>
<!-- Node12&#45;&gt;Node14 -->
<g id="edge15" class="edge"><title>Node12&#45;&gt;Node14</title>
<path fill="none" stroke="midnightblue" d="M695.926,-448.444C673.94,-439.517 639.266,-425.439 614.336,-415.317"/>
<polygon fill="midnightblue" stroke="midnightblue" points="615.558,-412.035 604.976,-411.516 612.924,-418.521 615.558,-412.035"/>
</g>
<!-- Node15 -->
<g id="node15" class="node"><title>Node15</title>
<g id="a_node15"><a xlink:href="../../d4/d38/opener__api_8h.html" target="_top" xlink:title="opener_api.h">
<polygon fill="none" stroke="black" points="501,-224.5 501,-243.5 573,-243.5 573,-224.5 501,-224.5"/>
<text text-anchor="middle" x="537" y="-231.5" font-family="Helvetica,sans-Serif" font-size="10.00">opener_api.h</text>
</a>
</g>
</g>
<!-- Node12&#45;&gt;Node15 -->
<g id="edge16" class="edge"><title>Node12&#45;&gt;Node15</title>
<path fill="none" stroke="midnightblue" d="M709.944,-448.297C683.01,-415.079 586.393,-295.918 550.527,-251.684"/>
<polygon fill="midnightblue" stroke="midnightblue" points="553.22,-249.447 544.203,-243.884 547.782,-253.856 553.22,-249.447"/>
</g>
<!-- Node21 -->
<g id="node21" class="node"><title>Node21</title>
<g id="a_node21"><a xlink:href="../../d0/dec/endianconv_8h.html" target="_top" xlink:title="Responsible for Endianess conversion. ">
<polygon fill="none" stroke="black" points="743,-336.5 743,-355.5 817,-355.5 817,-336.5 743,-336.5"/>
<text text-anchor="middle" x="780" y="-343.5" font-family="Helvetica,sans-Serif" font-size="10.00">endianconv.h</text>
</a>
</g>
</g>
<!-- Node12&#45;&gt;Node21 -->
<g id="edge28" class="edge"><title>Node12&#45;&gt;Node21</title>
<path fill="none" stroke="midnightblue" d="M721.944,-448.368C732.294,-430.296 756.417,-388.176 770.088,-364.307"/>
<polygon fill="midnightblue" stroke="midnightblue" points="773.147,-366.008 775.079,-355.591 767.072,-362.53 773.147,-366.008"/>
</g>
<!-- Node22 -->
<g id="node22" class="node"><title>Node22</title>
<g id="a_node22"><a xlink:href="../../d2/da3/cipconnectionmanager_8h.html" target="_top" xlink:title="cipconnectionmanager.h">
<polygon fill="none" stroke="black" points="444,-336.5 444,-355.5 566,-355.5 566,-336.5 444,-336.5"/>
<text text-anchor="middle" x="505" y="-343.5" font-family="Helvetica,sans-Serif" font-size="10.00">cipconnectionmanager.h</text>
</a>
</g>
</g>
<!-- Node12&#45;&gt;Node22 -->
<g id="edge30" class="edge"><title>Node12&#45;&gt;Node22</title>
<path fill="none" stroke="midnightblue" d="M705.309,-448.444C686.93,-435.236 649.874,-409.57 616,-392 591.077,-379.072 561.567,-367.264 539.241,-358.99"/>
<polygon fill="midnightblue" stroke="midnightblue" points="540.433,-355.699 529.84,-355.556 538.032,-362.274 540.433,-355.699"/>
</g>
<!-- Node27 -->
<g id="node27" class="node"><title>Node27</title>
<g id="a_node27"><a xlink:href="../../d1/dc0/appcontype_8h.html" target="_top" xlink:title="appcontype.h">
<polygon fill="none" stroke="black" points="467.5,-392.5 467.5,-411.5 542.5,-411.5 542.5,-392.5 467.5,-392.5"/>
<text text-anchor="middle" x="505" y="-399.5" font-family="Helvetica,sans-Serif" font-size="10.00">appcontype.h</text>
</a>
</g>
</g>
<!-- Node12&#45;&gt;Node27 -->
<g id="edge49" class="edge"><title>Node12&#45;&gt;Node27</title>
<path fill="none" stroke="midnightblue" d="M683.408,-448.444C646.813,-439.122 588.162,-424.183 548.174,-413.997"/>
<polygon fill="midnightblue" stroke="midnightblue" points="548.989,-410.593 538.435,-411.516 547.261,-417.377 548.989,-410.593"/>
</g>
<!-- Node28 -->
<g id="node28" class="node"><title>Node28</title>
<g id="a_node28"><a xlink:href="../../d1/d84/socket__timer_8h.html" target="_top" xlink:title="socket_timer.h">
<polygon fill="none" stroke="black" points="911.5,-280.5 911.5,-299.5 992.5,-299.5 992.5,-280.5 911.5,-280.5"/>
<text text-anchor="middle" x="952" y="-287.5" font-family="Helvetica,sans-Serif" font-size="10.00">socket_timer.h</text>
</a>
</g>
</g>
<!-- Node12&#45;&gt;Node28 -->
<g id="edge51" class="edge"><title>Node12&#45;&gt;Node28</title>
<path fill="none" stroke="midnightblue" d="M781.103,-453.902C817.664,-449.145 862.361,-437.921 894,-412 926.481,-385.389 941.976,-336.265 948.302,-309.523"/>
<polygon fill="midnightblue" stroke="midnightblue" points="951.763,-310.08 950.475,-299.564 944.924,-308.588 951.763,-310.08"/>
</g>
<!-- Node15&#45;&gt;Node8 -->
<g id="edge19" class="edge"><title>Node15&#45;&gt;Node8</title>
<path fill="none" stroke="midnightblue" d="M573.112,-227.779C599.205,-222.192 633.505,-210.825 655,-188 681.956,-159.375 689.796,-111.808 692.072,-85.6543"/>
<polygon fill="midnightblue" stroke="midnightblue" points="695.57,-85.7964 692.761,-75.5808 688.587,-85.3186 695.57,-85.7964"/>
</g>
<!-- Node15&#45;&gt;Node11 -->
<g id="edge18" class="edge"><title>Node15&#45;&gt;Node11</title>
<path fill="none" stroke="midnightblue" d="M531.62,-224.381C525.974,-215.328 516.846,-200.674 509,-188 472.851,-129.602 430.209,-60.2111 410.706,-28.4456"/>
<polygon fill="midnightblue" stroke="midnightblue" points="413.644,-26.5406 405.43,-19.8492 407.678,-30.2026 413.644,-26.5406"/>
</g>
<!-- Node16 -->
<g id="node16" class="node"><title>Node16</title>
<polygon fill="none" stroke="#bfbfbf" points="594,-168.5 594,-187.5 646,-187.5 646,-168.5 594,-168.5"/>
<text text-anchor="middle" x="620" y="-175.5" font-family="Helvetica,sans-Serif" font-size="10.00">assert.h</text>
</g>
<!-- Node15&#45;&gt;Node16 -->
<g id="edge17" class="edge"><title>Node15&#45;&gt;Node16</title>
<path fill="none" stroke="midnightblue" d="M550.335,-224.324C563.162,-215.979 582.785,-203.212 597.94,-193.352"/>
<polygon fill="midnightblue" stroke="midnightblue" points="600.224,-196.042 606.698,-187.655 596.407,-190.174 600.224,-196.042"/>
</g>
<!-- Node17 -->
<g id="node17" class="node"><title>Node17</title>
<g id="a_node17"><a xlink:href="../../df/d28/ciptypes_8h.html" target="_top" xlink:title="ciptypes.h">
<polygon fill="none" stroke="black" points="354,-168.5 354,-187.5 416,-187.5 416,-168.5 354,-168.5"/>
<text text-anchor="middle" x="385" y="-175.5" font-family="Helvetica,sans-Serif" font-size="10.00">ciptypes.h</text>
</a>
</g>
</g>
<!-- Node15&#45;&gt;Node17 -->
<g id="edge20" class="edge"><title>Node15&#45;&gt;Node17</title>
<path fill="none" stroke="midnightblue" d="M512.915,-224.444C487.455,-215.399 447.106,-201.064 418.541,-190.916"/>
<polygon fill="midnightblue" stroke="midnightblue" points="419.567,-187.566 408.972,-187.516 417.223,-194.162 419.567,-187.566"/>
</g>
<!-- Node20 -->
<g id="node20" class="node"><title>Node20</title>
<g id="a_node20"><a xlink:href="../../d6/d52/ciperror_8h.html" target="_top" xlink:title="ciperror.h">
<polygon fill="none" stroke="black" points="518.5,-168.5 518.5,-187.5 575.5,-187.5 575.5,-168.5 518.5,-168.5"/>
<text text-anchor="middle" x="547" y="-175.5" font-family="Helvetica,sans-Serif" font-size="10.00">ciperror.h</text>
</a>
</g>
</g>
<!-- Node15&#45;&gt;Node20 -->
<g id="edge26" class="edge"><title>Node15&#45;&gt;Node20</title>
<path fill="none" stroke="midnightblue" d="M538.651,-224.083C539.976,-216.927 541.882,-206.635 543.539,-197.691"/>
<polygon fill="midnightblue" stroke="midnightblue" points="547,-198.221 545.379,-187.751 540.117,-196.947 547,-198.221"/>
</g>
<!-- Node17&#45;&gt;Node7 -->
<g id="edge22" class="edge"><title>Node17&#45;&gt;Node7</title>
<path fill="none" stroke="midnightblue" d="M416.297,-173.457C495.649,-164.474 705.54,-140.713 806.378,-129.297"/>
<polygon fill="midnightblue" stroke="midnightblue" points="806.829,-132.768 816.371,-128.166 806.041,-125.813 806.829,-132.768"/>
</g>
<!-- Node17&#45;&gt;Node8 -->
<g id="edge21" class="edge"><title>Node17&#45;&gt;Node8</title>
<path fill="none" stroke="midnightblue" d="M390.132,-168.159C398.957,-153.825 418.451,-125.737 443,-112 509.248,-74.929 599.441,-67.3659 651.422,-66.3889"/>
<polygon fill="midnightblue" stroke="midnightblue" points="651.642,-69.8867 661.601,-66.2733 651.562,-62.8872 651.642,-69.8867"/>
</g>
<!-- Node18 -->
<g id="node18" class="node"><title>Node18</title>
<g id="a_node18"><a xlink:href="../../d8/d2c/enipmessage_8h.html" target="_top" xlink:title="enipmessage.h">
<polygon fill="none" stroke="black" points="156.5,-112.5 156.5,-131.5 239.5,-131.5 239.5,-112.5 156.5,-112.5"/>
<text text-anchor="middle" x="198" y="-119.5" font-family="Helvetica,sans-Serif" font-size="10.00">enipmessage.h</text>
</a>
</g>
</g>
<!-- Node17&#45;&gt;Node18 -->
<g id="edge23" class="edge"><title>Node17&#45;&gt;Node18</title>
<path fill="none" stroke="midnightblue" d="M355.369,-168.444C323.5,-159.241 272.667,-144.562 237.436,-134.388"/>
<polygon fill="midnightblue" stroke="midnightblue" points="238.071,-130.928 227.492,-131.516 236.128,-137.653 238.071,-130.928"/>
</g>
<!-- Node19 -->
<g id="node19" class="node"><title>Node19</title>
<polygon fill="none" stroke="#bfbfbf" points="0,-56.5 0,-75.5 102,-75.5 102,-56.5 0,-56.5"/>
<text text-anchor="middle" x="51" y="-63.5" font-family="Helvetica,sans-Serif" font-size="10.00">opener_user_conf.h</text>
</g>
<!-- Node17&#45;&gt;Node19 -->
<g id="edge25" class="edge"><title>Node17&#45;&gt;Node19</title>
<path fill="none" stroke="midnightblue" d="M384.498,-168.236C383.179,-154.013 378.389,-126.08 361,-112 323.887,-81.9502 191.81,-71.9519 112.523,-68.6358"/>
<polygon fill="midnightblue" stroke="midnightblue" points="112.306,-65.1246 102.176,-68.2283 112.031,-72.1192 112.306,-65.1246"/>
</g>
<!-- Node18&#45;&gt;Node19 -->
<g id="edge24" class="edge"><title>Node18&#45;&gt;Node19</title>
<path fill="none" stroke="midnightblue" d="M174.707,-112.444C150.193,-103.438 111.404,-89.1891 83.8001,-79.049"/>
<polygon fill="midnightblue" stroke="midnightblue" points="84.7772,-75.6793 74.1836,-75.5164 82.3634,-82.25 84.7772,-75.6793"/>
</g>
<!-- Node21&#45;&gt;Node8 -->
<g id="edge29" class="edge"><title>Node21&#45;&gt;Node8</title>
<path fill="none" stroke="midnightblue" d="M781.046,-336.458C783.214,-317.982 788,-272.912 788,-235 788,-235 788,-235 788,-177 788,-146.205 783.359,-135.949 764,-112 753.013,-98.4072 736.766,-87.6837 722.586,-80.1197"/>
<polygon fill="midnightblue" stroke="midnightblue" points="724.147,-76.987 713.642,-75.607 720.993,-83.2365 724.147,-76.987"/>
</g>
<!-- Node22&#45;&gt;Node8 -->
<g id="edge33" class="edge"><title>Node22&#45;&gt;Node8</title>
<path fill="none" stroke="midnightblue" d="M566.267,-338.403C627.306,-328.035 712,-301.641 712,-235 712,-235 712,-235 712,-177 712,-144.489 703.841,-107.35 698.216,-85.6103"/>
<polygon fill="midnightblue" stroke="midnightblue" points="701.541,-84.498 695.562,-75.7514 694.782,-86.3175 701.541,-84.498"/>
</g>
<!-- Node22&#45;&gt;Node15 -->
<g id="edge32" class="edge"><title>Node22&#45;&gt;Node15</title>
<path fill="none" stroke="midnightblue" d="M507.511,-336.368C512.698,-318.537 524.696,-277.295 531.685,-253.272"/>
<polygon fill="midnightblue" stroke="midnightblue" points="535.068,-254.171 534.501,-243.591 528.347,-252.216 535.068,-254.171"/>
</g>
<!-- Node22&#45;&gt;Node17 -->
<g id="edge34" class="edge"><title>Node22&#45;&gt;Node17</title>
<path fill="none" stroke="midnightblue" d="M498.548,-336.075C479.332,-309.493 422.256,-230.538 397.118,-195.763"/>
<polygon fill="midnightblue" stroke="midnightblue" points="399.889,-193.622 391.194,-187.568 394.216,-197.723 399.889,-193.622"/>
</g>
<!-- Node22&#45;&gt;Node19 -->
<g id="edge31" class="edge"><title>Node22&#45;&gt;Node19</title>
<path fill="none" stroke="midnightblue" d="M443.772,-342.894C319.849,-336.961 51,-314.883 51,-235 51,-235 51,-235 51,-177 51,-144.948 51,-107.643 51,-85.7489"/>
<polygon fill="midnightblue" stroke="midnightblue" points="54.5001,-85.5577 51,-75.5578 47.5001,-85.5578 54.5001,-85.5577"/>
</g>
<!-- Node23 -->
<g id="node23" class="node"><title>Node23</title>
<g id="a_node23"><a xlink:href="../../d1/d6c/cipconnectionobject_8h.html" target="_top" xlink:title="cipconnectionobject.h">
<polygon fill="none" stroke="black" points="260.5,-280.5 260.5,-299.5 371.5,-299.5 371.5,-280.5 260.5,-280.5"/>
<text text-anchor="middle" x="316" y="-287.5" font-family="Helvetica,sans-Serif" font-size="10.00">cipconnectionobject.h</text>
</a>
</g>
</g>
<!-- Node22&#45;&gt;Node23 -->
<g id="edge35" class="edge"><title>Node22&#45;&gt;Node23</title>
<path fill="none" stroke="midnightblue" d="M475.052,-336.444C442.842,-327.241 391.466,-312.562 355.858,-302.388"/>
<polygon fill="midnightblue" stroke="midnightblue" points="356.384,-298.898 345.808,-299.516 354.461,-305.629 356.384,-298.898"/>
</g>
<!-- Node23&#45;&gt;Node8 -->
<g id="edge36" class="edge"><title>Node23&#45;&gt;Node8</title>
<path fill="none" stroke="midnightblue" d="M329.406,-280.219C360.568,-259.889 440.455,-208.254 509,-168 564.721,-135.277 631.534,-99.4261 667.336,-80.4818"/>
<polygon fill="midnightblue" stroke="midnightblue" points="669.368,-83.3672 676.577,-75.6034 666.1,-77.1768 669.368,-83.3672"/>
</g>
<!-- Node23&#45;&gt;Node15 -->
<g id="edge39" class="edge"><title>Node23&#45;&gt;Node15</title>
<path fill="none" stroke="midnightblue" d="M351.018,-280.444C389.248,-271.102 450.567,-256.119 492.257,-245.933"/>
<polygon fill="midnightblue" stroke="midnightblue" points="493.262,-249.29 502.146,-243.516 491.601,-242.49 493.262,-249.29"/>
</g>
<!-- Node23&#45;&gt;Node17 -->
<g id="edge37" class="edge"><title>Node23&#45;&gt;Node17</title>
<path fill="none" stroke="midnightblue" d="M325.446,-280.435C334.453,-271.886 347.949,-258.033 357,-244 366.459,-229.334 374.041,-210.934 378.917,-197.457"/>
<polygon fill="midnightblue" stroke="midnightblue" points="382.272,-198.465 382.232,-187.871 375.656,-196.178 382.272,-198.465"/>
</g>
<!-- Node23&#45;&gt;Node19 -->
<g id="edge38" class="edge"><title>Node23&#45;&gt;Node19</title>
<path fill="none" stroke="midnightblue" d="M260.258,-283.756C227.177,-278.264 185.983,-267.02 156,-244 100.781,-201.605 68.7924,-121.211 56.6599,-85.2192"/>
<polygon fill="midnightblue" stroke="midnightblue" points="59.9434,-83.9981 53.5284,-75.5662 53.285,-86.1582 59.9434,-83.9981"/>
</g>
<!-- Node24 -->
<g id="node24" class="node"><title>Node24</title>
<g id="a_node24"><a xlink:href="../../d9/d31/doublylinkedlist_8h.html" target="_top" xlink:title="doublylinkedlist.h">
<polygon fill="none" stroke="black" points="256,-224.5 256,-243.5 348,-243.5 348,-224.5 256,-224.5"/>
<text text-anchor="middle" x="302" y="-231.5" font-family="Helvetica,sans-Serif" font-size="10.00">doublylinkedlist.h</text>
</a>
</g>
</g>
<!-- Node23&#45;&gt;Node24 -->
<g id="edge40" class="edge"><title>Node23&#45;&gt;Node24</title>
<path fill="none" stroke="midnightblue" d="M313.688,-280.083C311.833,-272.927 309.165,-262.635 306.846,-253.691"/>
<polygon fill="midnightblue" stroke="midnightblue" points="310.166,-252.553 304.269,-243.751 303.391,-254.309 310.166,-252.553"/>
</g>
<!-- Node25 -->
<g id="node25" class="node"><title>Node25</title>
<g id="a_node25"><a xlink:href="../../d0/d23/cipelectronickey_8h.html" target="_top" xlink:title="cipelectronickey.h">
<polygon fill="none" stroke="black" points="257.5,-112.5 257.5,-131.5 352.5,-131.5 352.5,-112.5 257.5,-112.5"/>
<text text-anchor="middle" x="305" y="-119.5" font-family="Helvetica,sans-Serif" font-size="10.00">cipelectronickey.h</text>
</a>
</g>
</g>
<!-- Node23&#45;&gt;Node25 -->
<g id="edge41" class="edge"><title>Node23&#45;&gt;Node25</title>
<path fill="none" stroke="midnightblue" d="M260.331,-287.756C227.511,-283.79 188.346,-272.745 167,-244 132.021,-196.896 218.754,-154.954 270.209,-135.117"/>
<polygon fill="midnightblue" stroke="midnightblue" points="271.545,-138.354 279.676,-131.562 269.084,-131.801 271.545,-138.354"/>
</g>
<!-- Node26 -->
<g id="node26" class="node"><title>Node26</title>
<g id="a_node26"><a xlink:href="../../d1/d02/cipepath_8h.html" target="_top" xlink:title="cipepath.h">
<polygon fill="none" stroke="black" points="176,-224.5 176,-243.5 238,-243.5 238,-224.5 176,-224.5"/>
<text text-anchor="middle" x="207" y="-231.5" font-family="Helvetica,sans-Serif" font-size="10.00">cipepath.h</text>
</a>
</g>
</g>
<!-- Node23&#45;&gt;Node26 -->
<g id="edge44" class="edge"><title>Node23&#45;&gt;Node26</title>
<path fill="none" stroke="midnightblue" d="M298.487,-280.324C280.928,-271.625 253.669,-258.12 233.469,-248.113"/>
<polygon fill="midnightblue" stroke="midnightblue" points="234.984,-244.958 224.469,-243.655 231.876,-251.23 234.984,-244.958"/>
</g>
<!-- Node25&#45;&gt;Node8 -->
<g id="edge43" class="edge"><title>Node25&#45;&gt;Node8</title>
<path fill="none" stroke="midnightblue" d="M352.576,-114.379C429.34,-103.695 579.227,-82.8344 651.744,-72.7419"/>
<polygon fill="midnightblue" stroke="midnightblue" points="652.441,-76.1786 661.863,-71.3334 651.476,-69.2454 652.441,-76.1786"/>
</g>
<!-- Node25&#45;&gt;Node11 -->
<g id="edge42" class="edge"><title>Node25&#45;&gt;Node11</title>
<path fill="none" stroke="midnightblue" d="M312.454,-112.368C328.271,-94.0547 365.412,-51.0489 385.869,-27.3624"/>
<polygon fill="midnightblue" stroke="midnightblue" points="388.693,-29.4474 392.58,-19.5914 383.395,-24.872 388.693,-29.4474"/>
</g>
<!-- Node26&#45;&gt;Node11 -->
<g id="edge45" class="edge"><title>Node26&#45;&gt;Node11</title>
<path fill="none" stroke="midnightblue" d="M196.571,-224.354C173.149,-203.88 120.433,-151.212 147,-112 195.449,-40.4923 303.535,-19.6089 361.509,-13.5121"/>
<polygon fill="midnightblue" stroke="midnightblue" points="362.103,-16.9714 371.725,-12.5369 361.437,-10.0031 362.103,-16.9714"/>
</g>
<!-- Node26&#45;&gt;Node17 -->
<g id="edge46" class="edge"><title>Node26&#45;&gt;Node17</title>
<path fill="none" stroke="midnightblue" d="M235.205,-224.444C265.41,-215.28 313.511,-200.688 347.029,-190.519"/>
<polygon fill="midnightblue" stroke="midnightblue" points="348.374,-193.769 356.927,-187.516 346.342,-187.07 348.374,-193.769"/>
</g>
<!-- Node26&#45;&gt;Node25 -->
<g id="edge47" class="edge"><title>Node26&#45;&gt;Node25</title>
<path fill="none" stroke="midnightblue" d="M214.69,-224.368C231.006,-206.055 269.32,-163.049 290.423,-139.362"/>
<polygon fill="midnightblue" stroke="midnightblue" points="293.307,-141.386 297.346,-131.591 288.08,-136.73 293.307,-141.386"/>
</g>
<!-- Node27&#45;&gt;Node22 -->
<g id="edge50" class="edge"><title>Node27&#45;&gt;Node22</title>
<path fill="none" stroke="midnightblue" d="M505,-392.083C505,-385.006 505,-374.861 505,-365.986"/>
<polygon fill="midnightblue" stroke="midnightblue" points="508.5,-365.751 505,-355.751 501.5,-365.751 508.5,-365.751"/>
</g>
<!-- Node28&#45;&gt;Node8 -->
<g id="edge52" class="edge"><title>Node28&#45;&gt;Node8</title>
<path fill="none" stroke="midnightblue" d="M953.197,-280.5C956.674,-252.103 963.71,-159.637 916,-112 890.938,-86.9768 791.552,-74.9291 734.274,-69.9574"/>
<polygon fill="midnightblue" stroke="midnightblue" points="734.353,-66.452 724.097,-69.1099 733.772,-73.4278 734.353,-66.452"/>
</g>
</g>
</svg>
        <g id="navigator" transform="translate(0 0)" fill="#404254">
                <rect fill="#f2f5e9" fill-opacity="0.5" stroke="#606060" stroke-width=".5" x="0" y="0" width="60" height="60"/>
                <use id="zoomplus" xlink:href="#zoomPlus" x="17" y="9" onmousedown="handleZoom(evt,'in')"/>
                <use id="zoomminus" xlink:href="#zoomMin" x="42" y="9" onmousedown="handleZoom(evt,'out')"/>
                <use id="reset" xlink:href="#resetDef" x="30" y="36" onmousedown="handleReset()"/>
                <g id="arrowUp" xlink:href="#dirArrow" transform="translate(30 24)" onmousedown="handlePan(0,-1)">
                  <use xlink:href="#rim" fill="#404040">
                        <set attributeName="fill" to="#808080" begin="arrowUp.mouseover" end="arrowUp.mouseout"/>
                  </use>
                  <path fill="none" stroke="white" stroke-width="1.5" d="M0,-3.0v7 M-2.5,-0.5L0,-3.0L2.5,-0.5"/>
                </g>
                <g id="arrowRight" xlink:href="#dirArrow" transform="rotate(90) translate(36 -43)" onmousedown="handlePan(1,0)">
                  <use xlink:href="#rim" fill="#404040">
                        <set attributeName="fill" to="#808080" begin="arrowRight.mouseover" end="arrowRight.mouseout"/>
                  </use>
                  <path fill="none" stroke="white" stroke-width="1.5" d="M0,-3.0v7 M-2.5,-0.5L0,-3.0L2.5,-0.5"/>
                </g>
                <g id="arrowDown" xlink:href="#dirArrow" transform="rotate(180) translate(-30 -48)" onmousedown="handlePan(0,1)">
                  <use xlink:href="#rim" fill="#404040">
                        <set attributeName="fill" to="#808080" begin="arrowDown.mouseover" end="arrowDown.mouseout"/>
                  </use>
                  <path fill="none" stroke="white" stroke-width="1.5" d="M0,-3.0v7 M-2.5,-0.5L0,-3.0L2.5,-0.5"/>
                </g>
                <g id="arrowLeft" xlink:href="#dirArrow" transform="rotate(270) translate(-36 17)" onmousedown="handlePan(-1,0)">
                  <use xlink:href="#rim" fill="#404040">
                        <set attributeName="fill" to="#808080" begin="arrowLeft.mouseover" end="arrowLeft.mouseout"/>
                  </use>
                  <path fill="none" stroke="white" stroke-width="1.5" d="M0,-3.0v7 M-2.5,-0.5L0,-3.0L2.5,-0.5"/>
                </g>
        </g>
        <svg viewBox="0 0 15 15" width="100%" height="30px" preserveAspectRatio="xMaxYMin meet">
         <g id="arrow_out" transform="scale(0.3 0.3)">
          <a xlink:href="MINGW_2networkhandler_8c__incl_org.svg" target="_base">
           <rect id="button" ry="5" rx="5" y="6" x="6" height="38" width="38"
                fill="#f2f5e9" fill-opacity="0.5" stroke="#606060" stroke-width="1.0"/>
           <path id="arrow"
             d="M 11.500037,31.436501 C 11.940474,20.09759 22.043105,11.32322 32.158766,21.979434 L 37.068811,17.246167 C 37.068811,17.246167 37.088388,32 37.088388,32 L 22.160133,31.978069 C 22.160133,31.978069 26.997745,27.140456 26.997745,27.140456 C 18.528582,18.264221 13.291696,25.230495 11.500037,31.436501 z"
             style="fill:#404040;"/>
          </a>
         </g>
        </svg>
</svg>
