<?xml version="1.0" encoding="UTF-8" standalone="no"?>
<!DOCTYPE svg PUBLIC "-//W3C//DTD SVG 1.1//EN"
 "http://www.w3.org/Graphics/SVG/1.1/DTD/svg11.dtd">
<!-- Generated by graphviz version 2.36.0 (20140111.2315)
 -->
<!-- Title: src/ports/WIN32/sample_application/sampleapplication.c Pages: 1 -->
<svg width="432pt" height="264pt"
 viewBox="0.00 0.00 432.00 264.00" xmlns="http://www.w3.org/2000/svg" xmlns:xlink="http://www.w3.org/1999/xlink">
<g id="graph0" class="graph" transform="scale(1 1) rotate(0) translate(4 260)">
<title>src/ports/WIN32/sample_application/sampleapplication.c</title>
<!-- Node1 -->
<g id="node1" class="node"><title>Node1</title>
<polygon fill="#bfbfbf" stroke="black" points="139,-225 139,-255 297,-255 297,-225 139,-225"/>
<text text-anchor="start" x="147" y="-243" font-family="Helvetica,sans-Serif" font-size="10.00">src/ports/WIN32/sample</text>
<text text-anchor="middle" x="218" y="-232" font-family="Helvetica,sans-Serif" font-size="10.00">_application/sampleapplication.c</text>
</g>
<!-- Node2 -->
<g id="node2" class="node"><title>Node2</title>
<g id="a_node2"><a xlink:href="../../d4/d38/opener__api_8h.html" target="_top" xlink:title="opener_api.h">
<polygon fill="none" stroke="black" points="103,-168.5 103,-187.5 175,-187.5 175,-168.5 103,-168.5"/>
<text text-anchor="middle" x="139" y="-175.5" font-family="Helvetica,sans-Serif" font-size="10.00">opener_api.h</text>
</a>
</g>
</g>
<!-- Node1&#45;&gt;Node2 -->
<g id="edge1" class="edge"><title>Node1&#45;&gt;Node2</title>
<path fill="none" stroke="midnightblue" d="M199.278,-224.781C187.088,-215.523 171.208,-203.462 158.807,-194.044"/>
<polygon fill="midnightblue" stroke="midnightblue" points="160.576,-190.992 150.495,-187.731 156.342,-196.566 160.576,-190.992"/>
</g>
<!-- Node13 -->
<g id="node13" class="node"><title>Node13</title>
<polygon fill="none" stroke="#bfbfbf" points="193.5,-168.5 193.5,-187.5 242.5,-187.5 242.5,-168.5 193.5,-168.5"/>
<text text-anchor="middle" x="218" y="-175.5" font-family="Helvetica,sans-Serif" font-size="10.00">string.h</text>
</g>
<!-- Node1&#45;&gt;Node13 -->
<g id="edge15" class="edge"><title>Node1&#45;&gt;Node13</title>
<path fill="none" stroke="midnightblue" d="M218,-224.781C218,-216.781 218,-206.689 218,-198.017"/>
<polygon fill="midnightblue" stroke="midnightblue" points="221.5,-197.73 218,-187.731 214.5,-197.731 221.5,-197.73"/>
</g>
<!-- Node14 -->
<g id="node14" class="node"><title>Node14</title>
<polygon fill="none" stroke="#bfbfbf" points="261,-168.5 261,-187.5 309,-187.5 309,-168.5 261,-168.5"/>
<text text-anchor="middle" x="285" y="-175.5" font-family="Helvetica,sans-Serif" font-size="10.00">stdlib.h</text>
</g>
<!-- Node1&#45;&gt;Node14 -->
<g id="edge16" class="edge"><title>Node1&#45;&gt;Node14</title>
<path fill="none" stroke="midnightblue" d="M233.878,-224.781C244.015,-215.703 257.162,-203.929 267.585,-194.595"/>
<polygon fill="midnightblue" stroke="midnightblue" points="270.136,-197.009 275.251,-187.731 265.466,-191.794 270.136,-197.009"/>
</g>
<!-- Node3 -->
<g id="node3" class="node"><title>Node3</title>
<polygon fill="none" stroke="#bfbfbf" points="0,-112.5 0,-131.5 52,-131.5 52,-112.5 0,-112.5"/>
<text text-anchor="middle" x="26" y="-119.5" font-family="Helvetica,sans-Serif" font-size="10.00">assert.h</text>
</g>
<!-- Node2&#45;&gt;Node3 -->
<g id="edge2" class="edge"><title>Node2&#45;&gt;Node3</title>
<path fill="none" stroke="midnightblue" d="M121.095,-168.444C102.746,-159.675 73.9946,-145.935 52.9064,-135.858"/>
<polygon fill="midnightblue" stroke="midnightblue" points="54.3532,-132.67 43.8214,-131.516 51.335,-138.986 54.3532,-132.67"/>
</g>
<!-- Node4 -->
<g id="node4" class="node"><title>Node4</title>
<polygon fill="none" stroke="#bfbfbf" points="44,-0.5 44,-19.5 100,-19.5 100,-0.5 44,-0.5"/>
<text text-anchor="middle" x="72" y="-7.5" font-family="Helvetica,sans-Serif" font-size="10.00">stdbool.h</text>
</g>
<!-- Node2&#45;&gt;Node4 -->
<g id="edge3" class="edge"><title>Node2&#45;&gt;Node4</title>
<path fill="none" stroke="midnightblue" d="M135.398,-168.075C124.806,-141.832 93.6116,-64.5453 79.3121,-29.1165"/>
<polygon fill="midnightblue" stroke="midnightblue" points="82.4467,-27.5313 75.4582,-19.5681 75.9554,-30.1513 82.4467,-27.5313"/>
</g>
<!-- Node5 -->
<g id="node5" class="node"><title>Node5</title>
<g id="a_node5"><a xlink:href="../../d7/d69/typedefs_8h.html" target="_top" xlink:title="typedefs.h">
<polygon fill="none" stroke="black" points="108,-56.5 108,-75.5 170,-75.5 170,-56.5 108,-56.5"/>
<text text-anchor="middle" x="139" y="-63.5" font-family="Helvetica,sans-Serif" font-size="10.00">typedefs.h</text>
</a>
</g>
</g>
<!-- Node2&#45;&gt;Node5 -->
<g id="edge4" class="edge"><title>Node2&#45;&gt;Node5</title>
<path fill="none" stroke="midnightblue" d="M139,-168.368C139,-150.617 139,-109.666 139,-85.5974"/>
<polygon fill="midnightblue" stroke="midnightblue" points="142.5,-85.5914 139,-75.5914 135.5,-85.5915 142.5,-85.5914"/>
</g>
<!-- Node8 -->
<g id="node8" class="node"><title>Node8</title>
<g id="a_node8"><a xlink:href="../../df/d28/ciptypes_8h.html" target="_top" xlink:title="ciptypes.h">
<polygon fill="none" stroke="black" points="185,-112.5 185,-131.5 247,-131.5 247,-112.5 185,-112.5"/>
<text text-anchor="middle" x="216" y="-119.5" font-family="Helvetica,sans-Serif" font-size="10.00">ciptypes.h</text>
</a>
</g>
</g>
<!-- Node2&#45;&gt;Node8 -->
<g id="edge8" class="edge"><title>Node2&#45;&gt;Node8</title>
<path fill="none" stroke="midnightblue" d="M151.371,-168.324C163.158,-160.058 181.132,-147.453 195.136,-137.632"/>
<polygon fill="midnightblue" stroke="midnightblue" points="197.482,-140.262 203.659,-131.655 193.462,-134.531 197.482,-140.262"/>
</g>
<!-- Node12 -->
<g id="node12" class="node"><title>Node12</title>
<g id="a_node12"><a xlink:href="../../d6/d52/ciperror_8h.html" target="_top" xlink:title="ciperror.h">
<polygon fill="none" stroke="black" points="265.5,-112.5 265.5,-131.5 322.5,-131.5 322.5,-112.5 265.5,-112.5"/>
<text text-anchor="middle" x="294" y="-119.5" font-family="Helvetica,sans-Serif" font-size="10.00">ciperror.h</text>
</a>
</g>
</g>
<!-- Node2&#45;&gt;Node12 -->
<g id="edge14" class="edge"><title>Node2&#45;&gt;Node12</title>
<path fill="none" stroke="midnightblue" d="M163.56,-168.444C189.523,-159.399 230.668,-145.064 259.797,-134.916"/>
<polygon fill="midnightblue" stroke="midnightblue" points="261.263,-138.112 269.555,-131.516 258.96,-131.501 261.263,-138.112"/>
</g>
<!-- Node5&#45;&gt;Node4 -->
<g id="edge7" class="edge"><title>Node5&#45;&gt;Node4</title>
<path fill="none" stroke="midnightblue" d="M128.235,-56.324C118.234,-48.2631 103.113,-36.0765 91.0695,-26.3695"/>
<polygon fill="midnightblue" stroke="midnightblue" points="92.9429,-23.3841 82.9606,-19.8339 88.5502,-28.8343 92.9429,-23.3841"/>
</g>
<!-- Node6 -->
<g id="node6" class="node"><title>Node6</title>
<polygon fill="none" stroke="#bfbfbf" points="118.5,-0.5 118.5,-19.5 177.5,-19.5 177.5,-0.5 118.5,-0.5"/>
<text text-anchor="middle" x="148" y="-7.5" font-family="Helvetica,sans-Serif" font-size="10.00">inttypes.h</text>
</g>
<!-- Node5&#45;&gt;Node6 -->
<g id="edge5" class="edge"><title>Node5&#45;&gt;Node6</title>
<path fill="none" stroke="midnightblue" d="M140.486,-56.083C141.679,-48.9272 143.394,-38.6353 144.885,-29.6911"/>
<polygon fill="midnightblue" stroke="midnightblue" points="148.35,-30.1904 146.541,-19.7511 141.445,-29.0396 148.35,-30.1904"/>
</g>
<!-- Node7 -->
<g id="node7" class="node"><title>Node7</title>
<polygon fill="none" stroke="#bfbfbf" points="196,-0.5 196,-19.5 248,-19.5 248,-0.5 196,-0.5"/>
<text text-anchor="middle" x="222" y="-7.5" font-family="Helvetica,sans-Serif" font-size="10.00">stddef.h</text>
</g>
<!-- Node5&#45;&gt;Node7 -->
<g id="edge6" class="edge"><title>Node5&#45;&gt;Node7</title>
<path fill="none" stroke="midnightblue" d="M152.335,-56.324C165.162,-47.979 184.785,-35.2122 199.94,-25.3524"/>
<polygon fill="midnightblue" stroke="midnightblue" points="202.224,-28.0417 208.698,-19.6545 198.407,-22.1742 202.224,-28.0417"/>
</g>
<!-- Node8&#45;&gt;Node5 -->
<g id="edge9" class="edge"><title>Node8&#45;&gt;Node5</title>
<path fill="none" stroke="midnightblue" d="M203.629,-112.324C191.842,-104.058 173.868,-91.4527 159.864,-81.6322"/>
<polygon fill="midnightblue" stroke="midnightblue" points="161.538,-78.5307 151.341,-75.6545 157.518,-84.2619 161.538,-78.5307"/>
</g>
<!-- Node9 -->
<g id="node9" class="node"><title>Node9</title>
<polygon fill="none" stroke="#bfbfbf" points="188.5,-56.5 188.5,-75.5 279.5,-75.5 279.5,-56.5 188.5,-56.5"/>
<text text-anchor="middle" x="234" y="-63.5" font-family="Helvetica,sans-Serif" font-size="10.00">networkhandler.h</text>
</g>
<!-- Node8&#45;&gt;Node9 -->
<g id="edge10" class="edge"><title>Node8&#45;&gt;Node9</title>
<path fill="none" stroke="midnightblue" d="M218.972,-112.083C221.384,-104.849 224.864,-94.4087 227.868,-85.3968"/>
<polygon fill="midnightblue" stroke="midnightblue" points="231.241,-86.3447 231.083,-75.7511 224.6,-84.1311 231.241,-86.3447"/>
</g>
<!-- Node10 -->
<g id="node10" class="node"><title>Node10</title>
<g id="a_node10"><a xlink:href="../../d8/d2c/enipmessage_8h.html" target="_top" xlink:title="enipmessage.h">
<polygon fill="none" stroke="black" points="297.5,-56.5 297.5,-75.5 380.5,-75.5 380.5,-56.5 297.5,-56.5"/>
<text text-anchor="middle" x="339" y="-63.5" font-family="Helvetica,sans-Serif" font-size="10.00">enipmessage.h</text>
</a>
</g>
</g>
<!-- Node8&#45;&gt;Node10 -->
<g id="edge11" class="edge"><title>Node8&#45;&gt;Node10</title>
<path fill="none" stroke="midnightblue" d="M235.49,-112.444C255.642,-103.596 287.323,-89.6875 310.331,-79.5865"/>
<polygon fill="midnightblue" stroke="midnightblue" points="311.852,-82.7411 319.601,-75.5164 309.038,-76.3316 311.852,-82.7411"/>
</g>
<!-- Node11 -->
<g id="node11" class="node"><title>Node11</title>
<polygon fill="none" stroke="#bfbfbf" points="323,-0.5 323,-19.5 425,-19.5 425,-0.5 323,-0.5"/>
<text text-anchor="middle" x="374" y="-7.5" font-family="Helvetica,sans-Serif" font-size="10.00">opener_user_conf.h</text>
</g>
<!-- Node8&#45;&gt;Node11 -->
<g id="edge13" class="edge"><title>Node8&#45;&gt;Node11</title>
<path fill="none" stroke="midnightblue" d="M247.133,-113.937C295.741,-102.763 384.598,-81.6929 389,-76 399.59,-62.3025 392.696,-42.4358 385.127,-28.2767"/>
<polygon fill="midnightblue" stroke="midnightblue" points="388.071,-26.3785 379.985,-19.5321 382.037,-29.9264 388.071,-26.3785"/>
</g>
<!-- Node10&#45;&gt;Node11 -->
<g id="edge12" class="edge"><title>Node10&#45;&gt;Node11</title>
<path fill="none" stroke="midnightblue" d="M344.78,-56.083C349.672,-48.5341 356.827,-37.4948 362.833,-28.2298"/>
<polygon fill="midnightblue" stroke="midnightblue" points="365.826,-30.0463 368.328,-19.7511 359.952,-26.239 365.826,-30.0463"/>
</g>
</g>
</svg>
