<?xml version="1.0" encoding="UTF-8" standalone="no"?>
<!DOCTYPE svg PUBLIC "-//W3C//DTD SVG 1.1//EN"
 "http://www.w3.org/Graphics/SVG/1.1/DTD/svg11.dtd">
<!-- Generated by graphviz version 2.36.0 (20140111.2315)
 -->
<!-- Title: src/cip/cipidentity.c Pages: 1 -->
<!--zoomable 252 -->
<svg id="main" version="1.1" xmlns="http://www.w3.org/2000/svg" xmlns:xlink="http://www.w3.org/1999/xlink" xml:space="preserve" onload="init(evt)">
<style type="text/css"><![CDATA[
.edge:hover path { stroke: red; }
.edge:hover polygon { stroke: red; fill: red; }
]]></style>
<script type="text/javascript"><![CDATA[
var edges = document.getElementsByTagName('g');
if (edges && edges.length) {
  for (var i=0;i<edges.length;i++) {
    if (edges[i].id.substr(0,4)=='edge') {
      edges[i].setAttribute('class','edge');
    }
  }
}
]]></script>
        <defs>
                <circle id="rim" cx="0" cy="0" r="7"/>
                <circle id="rim2" cx="0" cy="0" r="3.5"/>
                <g id="zoomPlus">
                        <use xlink:href="#rim" fill="#404040">
                                <set attributeName="fill" to="#808080" begin="zoomplus.mouseover" end="zoomplus.mouseout"/>
                        </use>
                        <path d="M-4,0h8M0,-4v8" fill="none" stroke="white" stroke-width="1.5" pointer-events="none"/>
                </g>
                <g id="zoomMin">
                        <use xlink:href="#rim" fill="#404040">
                                <set attributeName="fill" to="#808080" begin="zoomminus.mouseover" end="zoomminus.mouseout"/>
                        </use>
                        <path d="M-4,0h8" fill="none" stroke="white" stroke-width="1.5" pointer-events="none"/>
                </g>
                <g id="dirArrow">
                        <path fill="none" stroke="white" stroke-width="1.5" d="M0,-3.0v7 M-2.5,-0.5L0,-3.0L2.5,-0.5"/>
                </g>
               <g id="resetDef">
                       <use xlink:href="#rim2" fill="#404040">
                               <set attributeName="fill" to="#808080" begin="reset.mouseover" end="reset.mouseout"/>
                       </use>
               </g>
        </defs>

<script type="text/javascript">
var viewWidth = 678;
var viewHeight = 252;
var sectionId = 'dynsection-0';
</script>
<script xlink:href="../../svgpan.js"/>
<svg id="graph" class="graph">
<g id="viewport">
<title>src/cip/cipidentity.c</title>
<!-- Node1 -->
<g id="node1" class="node"><title>Node1</title>
<polygon fill="#bfbfbf" stroke="black" points="303.5,-224.5 303.5,-243.5 404.5,-243.5 404.5,-224.5 303.5,-224.5"/>
<text text-anchor="middle" x="354" y="-231.5" font-family="Helvetica,sans-Serif" font-size="10.00">src/cip/cipidentity.c</text>
</g>
<!-- Node2 -->
<g id="node2" class="node"><title>Node2</title>
<polygon fill="none" stroke="#bfbfbf" points="-0.5,-168.5 -0.5,-187.5 48.5,-187.5 48.5,-168.5 -0.5,-168.5"/>
<text text-anchor="middle" x="24" y="-175.5" font-family="Helvetica,sans-Serif" font-size="10.00">string.h</text>
</g>
<!-- Node1&#45;&gt;Node2 -->
<g id="edge1" class="edge"><title>Node1&#45;&gt;Node2</title>
<path fill="none" stroke="midnightblue" d="M303.338,-226.315C245.127,-218.367 146.834,-204.133 63,-188 61.55,-187.721 60.072,-187.426 58.5806,-187.12"/>
<polygon fill="midnightblue" stroke="midnightblue" points="59.2129,-183.676 48.6995,-184.988 57.736,-190.519 59.2129,-183.676"/>
</g>
<!-- Node3 -->
<g id="node3" class="node"><title>Node3</title>
<g id="a_node3"><a xlink:href="../../dc/d72/cipidentity_8h.html" target="_top" xlink:title="cipidentity.h">
<polygon fill="none" stroke="black" points="319.5,-168.5 319.5,-187.5 388.5,-187.5 388.5,-168.5 319.5,-168.5"/>
<text text-anchor="middle" x="354" y="-175.5" font-family="Helvetica,sans-Serif" font-size="10.00">cipidentity.h</text>
</a>
</g>
</g>
<!-- Node1&#45;&gt;Node3 -->
<g id="edge2" class="edge"><title>Node1&#45;&gt;Node3</title>
<path fill="none" stroke="midnightblue" d="M354,-224.083C354,-217.006 354,-206.861 354,-197.986"/>
<polygon fill="midnightblue" stroke="midnightblue" points="357.5,-197.751 354,-187.751 350.5,-197.751 357.5,-197.751"/>
</g>
<!-- Node11 -->
<g id="node11" class="node"><title>Node11</title>
<polygon fill="none" stroke="#bfbfbf" points="96,-0.5 96,-19.5 198,-19.5 198,-0.5 96,-0.5"/>
<text text-anchor="middle" x="147" y="-7.5" font-family="Helvetica,sans-Serif" font-size="10.00">opener_user_conf.h</text>
</g>
<!-- Node1&#45;&gt;Node11 -->
<g id="edge13" class="edge"><title>Node1&#45;&gt;Node11</title>
<path fill="none" stroke="midnightblue" d="M303.373,-231.538C236.175,-228.412 122.96,-218.621 97,-188 59.0618,-143.249 71.8682,-109.476 96,-56 101.616,-43.5553 112.563,-33.1723 122.879,-25.5273"/>
<polygon fill="midnightblue" stroke="midnightblue" points="125.006,-28.3123 131.266,-19.7643 121.042,-22.5431 125.006,-28.3123"/>
</g>
<!-- Node12 -->
<g id="node12" class="node"><title>Node12</title>
<g id="a_node12"><a xlink:href="../../db/d14/cipcommon_8h.html" target="_top" xlink:title="cipcommon.h">
<polygon fill="none" stroke="black" points="106.5,-168.5 106.5,-187.5 181.5,-187.5 181.5,-168.5 106.5,-168.5"/>
<text text-anchor="middle" x="144" y="-175.5" font-family="Helvetica,sans-Serif" font-size="10.00">cipcommon.h</text>
</a>
</g>
</g>
<!-- Node1&#45;&gt;Node12 -->
<g id="edge14" class="edge"><title>Node1&#45;&gt;Node12</title>
<path fill="none" stroke="midnightblue" d="M320.725,-224.444C284.552,-215.142 226.623,-200.246 187.019,-190.062"/>
<polygon fill="midnightblue" stroke="midnightblue" points="187.676,-186.617 177.119,-187.516 185.933,-193.397 187.676,-186.617"/>
</g>
<!-- Node13 -->
<g id="node13" class="node"><title>Node13</title>
<g id="a_node13"><a xlink:href="../../d2/d75/cipmessagerouter_8h.html" target="_top" xlink:title="cipmessagerouter.h">
<polygon fill="none" stroke="black" points="199,-168.5 199,-187.5 301,-187.5 301,-168.5 199,-168.5"/>
<text text-anchor="middle" x="250" y="-175.5" font-family="Helvetica,sans-Serif" font-size="10.00">cipmessagerouter.h</text>
</a>
</g>
</g>
<!-- Node1&#45;&gt;Node13 -->
<g id="edge17" class="edge"><title>Node1&#45;&gt;Node13</title>
<path fill="none" stroke="midnightblue" d="M337.291,-224.324C320.688,-215.703 294.998,-202.364 275.78,-192.386"/>
<polygon fill="midnightblue" stroke="midnightblue" points="277.156,-189.156 266.668,-187.655 273.93,-195.369 277.156,-189.156"/>
</g>
<!-- Node14 -->
<g id="node14" class="node"><title>Node14</title>
<g id="a_node14"><a xlink:href="../../d6/d52/ciperror_8h.html" target="_top" xlink:title="ciperror.h">
<polygon fill="none" stroke="black" points="613.5,-112.5 613.5,-131.5 670.5,-131.5 670.5,-112.5 613.5,-112.5"/>
<text text-anchor="middle" x="642" y="-119.5" font-family="Helvetica,sans-Serif" font-size="10.00">ciperror.h</text>
</a>
</g>
</g>
<!-- Node1&#45;&gt;Node14 -->
<g id="edge20" class="edge"><title>Node1&#45;&gt;Node14</title>
<path fill="none" stroke="midnightblue" d="M399.193,-224.474C434.482,-217.037 484.349,-204.797 526,-188 535.459,-184.186 587.135,-154.663 618.236,-136.743"/>
<polygon fill="midnightblue" stroke="midnightblue" points="620.245,-139.625 627.158,-131.596 616.747,-133.562 620.245,-139.625"/>
</g>
<!-- Node15 -->
<g id="node15" class="node"><title>Node15</title>
<g id="a_node15"><a xlink:href="../../d0/dec/endianconv_8h.html" target="_top" xlink:title="Responsible for Endianess conversion. ">
<polygon fill="none" stroke="black" points="375,-112.5 375,-131.5 449,-131.5 449,-112.5 375,-112.5"/>
<text text-anchor="middle" x="412" y="-119.5" font-family="Helvetica,sans-Serif" font-size="10.00">endianconv.h</text>
</a>
</g>
</g>
<!-- Node1&#45;&gt;Node15 -->
<g id="edge21" class="edge"><title>Node1&#45;&gt;Node15</title>
<path fill="none" stroke="midnightblue" d="M365.276,-224.236C375.143,-215.955 389.099,-202.646 397,-188 404.819,-173.507 408.579,-155.062 410.378,-141.525"/>
<polygon fill="midnightblue" stroke="midnightblue" points="413.866,-141.825 411.473,-131.504 406.907,-141.064 413.866,-141.825"/>
</g>
<!-- Node16 -->
<g id="node16" class="node"><title>Node16</title>
<g id="a_node16"><a xlink:href="../../d4/d38/opener__api_8h.html" target="_top" xlink:title="opener_api.h">
<polygon fill="none" stroke="black" points="445,-168.5 445,-187.5 517,-187.5 517,-168.5 445,-168.5"/>
<text text-anchor="middle" x="481" y="-175.5" font-family="Helvetica,sans-Serif" font-size="10.00">opener_api.h</text>
</a>
</g>
</g>
<!-- Node1&#45;&gt;Node16 -->
<g id="edge23" class="edge"><title>Node1&#45;&gt;Node16</title>
<path fill="none" stroke="midnightblue" d="M374.124,-224.444C395.024,-215.557 427.935,-201.563 451.716,-191.451"/>
<polygon fill="midnightblue" stroke="midnightblue" points="453.138,-194.65 460.971,-187.516 450.398,-188.208 453.138,-194.65"/>
</g>
<!-- Node18 -->
<g id="node18" class="node"><title>Node18</title>
<g id="a_node18"><a xlink:href="../../d1/d1b/trace_8h.html" target="_top" xlink:title="Tracing infrastructure for OpENer. ">
<polygon fill="none" stroke="black" points="573.5,-168.5 573.5,-187.5 620.5,-187.5 620.5,-168.5 573.5,-168.5"/>
<text text-anchor="middle" x="597" y="-175.5" font-family="Helvetica,sans-Serif" font-size="10.00">trace.h</text>
</a>
</g>
</g>
<!-- Node1&#45;&gt;Node18 -->
<g id="edge29" class="edge"><title>Node1&#45;&gt;Node18</title>
<path fill="none" stroke="midnightblue" d="M393.726,-224.483C435.056,-215.573 501.628,-201.09 559,-188 560.446,-187.67 561.922,-187.331 563.413,-186.986"/>
<polygon fill="midnightblue" stroke="midnightblue" points="564.356,-190.36 573.297,-184.677 562.763,-183.544 564.356,-190.36"/>
</g>
<!-- Node4 -->
<g id="node4" class="node"><title>Node4</title>
<g id="a_node4"><a xlink:href="../../d7/d69/typedefs_8h.html" target="_top" xlink:title="typedefs.h">
<polygon fill="none" stroke="black" points="354,-56.5 354,-75.5 416,-75.5 416,-56.5 354,-56.5"/>
<text text-anchor="middle" x="385" y="-63.5" font-family="Helvetica,sans-Serif" font-size="10.00">typedefs.h</text>
</a>
</g>
</g>
<!-- Node3&#45;&gt;Node4 -->
<g id="edge3" class="edge"><title>Node3&#45;&gt;Node4</title>
<path fill="none" stroke="midnightblue" d="M354.978,-168.447C356.548,-155.884 360.073,-131.787 366,-112 368.738,-102.861 372.738,-93.0638 376.363,-84.952"/>
<polygon fill="midnightblue" stroke="midnightblue" points="379.597,-86.299 380.631,-75.7548 373.247,-83.3528 379.597,-86.299"/>
</g>
<!-- Node8 -->
<g id="node8" class="node"><title>Node8</title>
<g id="a_node8"><a xlink:href="../../df/d28/ciptypes_8h.html" target="_top" xlink:title="ciptypes.h">
<polygon fill="none" stroke="black" points="219,-112.5 219,-131.5 281,-131.5 281,-112.5 219,-112.5"/>
<text text-anchor="middle" x="250" y="-119.5" font-family="Helvetica,sans-Serif" font-size="10.00">ciptypes.h</text>
</a>
</g>
</g>
<!-- Node3&#45;&gt;Node8 -->
<g id="edge7" class="edge"><title>Node3&#45;&gt;Node8</title>
<path fill="none" stroke="midnightblue" d="M337.291,-168.324C320.688,-159.703 294.998,-146.364 275.78,-136.386"/>
<polygon fill="midnightblue" stroke="midnightblue" points="277.156,-133.156 266.668,-131.655 273.93,-139.369 277.156,-133.156"/>
</g>
<!-- Node5 -->
<g id="node5" class="node"><title>Node5</title>
<polygon fill="none" stroke="#bfbfbf" points="295.5,-0.5 295.5,-19.5 354.5,-19.5 354.5,-0.5 295.5,-0.5"/>
<text text-anchor="middle" x="325" y="-7.5" font-family="Helvetica,sans-Serif" font-size="10.00">inttypes.h</text>
</g>
<!-- Node4&#45;&gt;Node5 -->
<g id="edge4" class="edge"><title>Node4&#45;&gt;Node5</title>
<path fill="none" stroke="midnightblue" d="M375.36,-56.324C366.49,-48.3414 353.125,-36.3128 342.392,-26.6529"/>
<polygon fill="midnightblue" stroke="midnightblue" points="344.59,-23.922 334.815,-19.8339 339.907,-29.1251 344.59,-23.922"/>
</g>
<!-- Node6 -->
<g id="node6" class="node"><title>Node6</title>
<polygon fill="none" stroke="#bfbfbf" points="373,-0.5 373,-19.5 425,-19.5 425,-0.5 373,-0.5"/>
<text text-anchor="middle" x="399" y="-7.5" font-family="Helvetica,sans-Serif" font-size="10.00">stddef.h</text>
</g>
<!-- Node4&#45;&gt;Node6 -->
<g id="edge5" class="edge"><title>Node4&#45;&gt;Node6</title>
<path fill="none" stroke="midnightblue" d="M387.312,-56.083C389.167,-48.9272 391.835,-38.6353 394.154,-29.6911"/>
<polygon fill="midnightblue" stroke="midnightblue" points="397.609,-30.3094 396.731,-19.7511 390.834,-28.5527 397.609,-30.3094"/>
</g>
<!-- Node7 -->
<g id="node7" class="node"><title>Node7</title>
<polygon fill="none" stroke="#bfbfbf" points="472,-0.5 472,-19.5 528,-19.5 528,-0.5 472,-0.5"/>
<text text-anchor="middle" x="500" y="-7.5" font-family="Helvetica,sans-Serif" font-size="10.00">stdbool.h</text>
</g>
<!-- Node4&#45;&gt;Node7 -->
<g id="edge6" class="edge"><title>Node4&#45;&gt;Node7</title>
<path fill="none" stroke="midnightblue" d="M403.222,-56.4435C421.896,-47.6751 451.156,-33.9355 472.617,-23.8579"/>
<polygon fill="midnightblue" stroke="midnightblue" points="474.299,-26.935 481.863,-19.5164 471.324,-20.5988 474.299,-26.935"/>
</g>
<!-- Node8&#45;&gt;Node4 -->
<g id="edge8" class="edge"><title>Node8&#45;&gt;Node4</title>
<path fill="none" stroke="midnightblue" d="M271.391,-112.444C293.707,-103.517 328.903,-89.4387 354.208,-79.3168"/>
<polygon fill="midnightblue" stroke="midnightblue" points="355.724,-82.4801 363.709,-75.5164 353.124,-75.9807 355.724,-82.4801"/>
</g>
<!-- Node9 -->
<g id="node9" class="node"><title>Node9</title>
<polygon fill="none" stroke="#bfbfbf" points="206.5,-56.5 206.5,-75.5 297.5,-75.5 297.5,-56.5 206.5,-56.5"/>
<text text-anchor="middle" x="252" y="-63.5" font-family="Helvetica,sans-Serif" font-size="10.00">networkhandler.h</text>
</g>
<!-- Node8&#45;&gt;Node9 -->
<g id="edge9" class="edge"><title>Node8&#45;&gt;Node9</title>
<path fill="none" stroke="midnightblue" d="M250.33,-112.083C250.592,-105.006 250.968,-94.8611 251.297,-85.9865"/>
<polygon fill="midnightblue" stroke="midnightblue" points="254.803,-85.8738 251.676,-75.7511 247.808,-85.6147 254.803,-85.8738"/>
</g>
<!-- Node10 -->
<g id="node10" class="node"><title>Node10</title>
<g id="a_node10"><a xlink:href="../../d8/d2c/enipmessage_8h.html" target="_top" xlink:title="enipmessage.h">
<polygon fill="none" stroke="black" points="105.5,-56.5 105.5,-75.5 188.5,-75.5 188.5,-56.5 105.5,-56.5"/>
<text text-anchor="middle" x="147" y="-63.5" font-family="Helvetica,sans-Serif" font-size="10.00">enipmessage.h</text>
</a>
</g>
</g>
<!-- Node8&#45;&gt;Node10 -->
<g id="edge10" class="edge"><title>Node8&#45;&gt;Node10</title>
<path fill="none" stroke="midnightblue" d="M233.451,-112.324C217.008,-103.703 191.565,-90.3643 172.532,-80.3855"/>
<polygon fill="midnightblue" stroke="midnightblue" points="173.989,-77.198 163.508,-75.6545 170.739,-83.3977 173.989,-77.198"/>
</g>
<!-- Node8&#45;&gt;Node11 -->
<g id="edge12" class="edge"><title>Node8&#45;&gt;Node11</title>
<path fill="none" stroke="midnightblue" d="M266.882,-112.464C288.672,-100.311 321.993,-77.147 306,-56 293.916,-40.0212 247.692,-28.0835 208.177,-20.5335"/>
<polygon fill="midnightblue" stroke="midnightblue" points="208.769,-17.0838 198.3,-18.7088 207.497,-23.9673 208.769,-17.0838"/>
</g>
<!-- Node10&#45;&gt;Node11 -->
<g id="edge11" class="edge"><title>Node10&#45;&gt;Node11</title>
<path fill="none" stroke="midnightblue" d="M147,-56.083C147,-49.0059 147,-38.8611 147,-29.9865"/>
<polygon fill="midnightblue" stroke="midnightblue" points="150.5,-29.751 147,-19.7511 143.5,-29.7511 150.5,-29.751"/>
</g>
<!-- Node12&#45;&gt;Node4 -->
<g id="edge15" class="edge"><title>Node12&#45;&gt;Node4</title>
<path fill="none" stroke="midnightblue" d="M150.265,-168.381C160.92,-154.366 183.963,-126.726 210,-112 252.056,-88.2139 306.852,-76.7605 343.834,-71.4099"/>
<polygon fill="midnightblue" stroke="midnightblue" points="344.331,-74.8746 353.768,-70.0575 343.387,-67.9386 344.331,-74.8746"/>
</g>
<!-- Node12&#45;&gt;Node8 -->
<g id="edge16" class="edge"><title>Node12&#45;&gt;Node8</title>
<path fill="none" stroke="midnightblue" d="M161.031,-168.324C178.03,-159.664 204.376,-146.242 223.993,-136.249"/>
<polygon fill="midnightblue" stroke="midnightblue" points="225.69,-139.312 233.012,-131.655 222.512,-133.075 225.69,-139.312"/>
</g>
<!-- Node13&#45;&gt;Node4 -->
<g id="edge18" class="edge"><title>Node13&#45;&gt;Node4</title>
<path fill="none" stroke="midnightblue" d="M260.593,-168.368C283.464,-149.733 337.71,-105.532 366.427,-82.1338"/>
<polygon fill="midnightblue" stroke="midnightblue" points="368.914,-84.6215 374.456,-75.5914 364.493,-79.1949 368.914,-84.6215"/>
</g>
<!-- Node13&#45;&gt;Node8 -->
<g id="edge19" class="edge"><title>Node13&#45;&gt;Node8</title>
<path fill="none" stroke="midnightblue" d="M250,-168.083C250,-161.006 250,-150.861 250,-141.986"/>
<polygon fill="midnightblue" stroke="midnightblue" points="253.5,-141.751 250,-131.751 246.5,-141.751 253.5,-141.751"/>
</g>
<!-- Node15&#45;&gt;Node4 -->
<g id="edge22" class="edge"><title>Node15&#45;&gt;Node4</title>
<path fill="none" stroke="midnightblue" d="M407.541,-112.083C403.846,-104.691 398.477,-93.9533 393.906,-84.8111"/>
<polygon fill="midnightblue" stroke="midnightblue" points="396.978,-83.1301 389.376,-75.7511 390.717,-86.2606 396.978,-83.1301"/>
</g>
<!-- Node16&#45;&gt;Node4 -->
<g id="edge26" class="edge"><title>Node16&#45;&gt;Node4</title>
<path fill="none" stroke="midnightblue" d="M479.776,-168.095C477.537,-154.653 471.686,-128.951 458,-112 446.875,-98.2217 430.329,-87.5324 415.801,-80.036"/>
<polygon fill="midnightblue" stroke="midnightblue" points="417.146,-76.7982 406.622,-75.5706 414.084,-83.0928 417.146,-76.7982"/>
</g>
<!-- Node16&#45;&gt;Node7 -->
<g id="edge25" class="edge"><title>Node16&#45;&gt;Node7</title>
<path fill="none" stroke="midnightblue" d="M482.022,-168.075C485.012,-141.945 493.795,-65.2106 497.874,-29.577"/>
<polygon fill="midnightblue" stroke="midnightblue" points="501.359,-29.9013 499.019,-19.5681 494.405,-29.1052 501.359,-29.9013"/>
</g>
<!-- Node16&#45;&gt;Node8 -->
<g id="edge27" class="edge"><title>Node16&#45;&gt;Node8</title>
<path fill="none" stroke="midnightblue" d="M444.906,-168.562C403.203,-158.814 334.73,-142.807 291.038,-132.593"/>
<polygon fill="midnightblue" stroke="midnightblue" points="291.568,-129.123 281.034,-130.255 289.975,-135.939 291.568,-129.123"/>
</g>
<!-- Node16&#45;&gt;Node14 -->
<g id="edge28" class="edge"><title>Node16&#45;&gt;Node14</title>
<path fill="none" stroke="midnightblue" d="M506.511,-168.444C533.596,-159.359 576.59,-144.939 606.869,-134.783"/>
<polygon fill="midnightblue" stroke="midnightblue" points="608.24,-138.015 616.608,-131.516 606.014,-131.378 608.24,-138.015"/>
</g>
<!-- Node17 -->
<g id="node17" class="node"><title>Node17</title>
<polygon fill="none" stroke="#bfbfbf" points="543,-112.5 543,-131.5 595,-131.5 595,-112.5 543,-112.5"/>
<text text-anchor="middle" x="569" y="-119.5" font-family="Helvetica,sans-Serif" font-size="10.00">assert.h</text>
</g>
<!-- Node16&#45;&gt;Node17 -->
<g id="edge24" class="edge"><title>Node16&#45;&gt;Node17</title>
<path fill="none" stroke="midnightblue" d="M495.139,-168.324C508.866,-159.9 529.936,-146.971 546.064,-137.074"/>
<polygon fill="midnightblue" stroke="midnightblue" points="548.204,-139.868 554.896,-131.655 544.543,-133.902 548.204,-139.868"/>
</g>
</g>
</svg>
        <g id="navigator" transform="translate(0 0)" fill="#404254">
                <rect fill="#f2f5e9" fill-opacity="0.5" stroke="#606060" stroke-width=".5" x="0" y="0" width="60" height="60"/>
                <use id="zoomplus" xlink:href="#zoomPlus" x="17" y="9" onmousedown="handleZoom(evt,'in')"/>
                <use id="zoomminus" xlink:href="#zoomMin" x="42" y="9" onmousedown="handleZoom(evt,'out')"/>
                <use id="reset" xlink:href="#resetDef" x="30" y="36" onmousedown="handleReset()"/>
                <g id="arrowUp" xlink:href="#dirArrow" transform="translate(30 24)" onmousedown="handlePan(0,-1)">
                  <use xlink:href="#rim" fill="#404040">
                        <set attributeName="fill" to="#808080" begin="arrowUp.mouseover" end="arrowUp.mouseout"/>
                  </use>
                  <path fill="none" stroke="white" stroke-width="1.5" d="M0,-3.0v7 M-2.5,-0.5L0,-3.0L2.5,-0.5"/>
                </g>
                <g id="arrowRight" xlink:href="#dirArrow" transform="rotate(90) translate(36 -43)" onmousedown="handlePan(1,0)">
                  <use xlink:href="#rim" fill="#404040">
                        <set attributeName="fill" to="#808080" begin="arrowRight.mouseover" end="arrowRight.mouseout"/>
                  </use>
                  <path fill="none" stroke="white" stroke-width="1.5" d="M0,-3.0v7 M-2.5,-0.5L0,-3.0L2.5,-0.5"/>
                </g>
                <g id="arrowDown" xlink:href="#dirArrow" transform="rotate(180) translate(-30 -48)" onmousedown="handlePan(0,1)">
                  <use xlink:href="#rim" fill="#404040">
                        <set attributeName="fill" to="#808080" begin="arrowDown.mouseover" end="arrowDown.mouseout"/>
                  </use>
                  <path fill="none" stroke="white" stroke-width="1.5" d="M0,-3.0v7 M-2.5,-0.5L0,-3.0L2.5,-0.5"/>
                </g>
                <g id="arrowLeft" xlink:href="#dirArrow" transform="rotate(270) translate(-36 17)" onmousedown="handlePan(-1,0)">
                  <use xlink:href="#rim" fill="#404040">
                        <set attributeName="fill" to="#808080" begin="arrowLeft.mouseover" end="arrowLeft.mouseout"/>
                  </use>
                  <path fill="none" stroke="white" stroke-width="1.5" d="M0,-3.0v7 M-2.5,-0.5L0,-3.0L2.5,-0.5"/>
                </g>
        </g>
        <svg viewBox="0 0 15 15" width="100%" height="30px" preserveAspectRatio="xMaxYMin meet">
         <g id="arrow_out" transform="scale(0.3 0.3)">
          <a xlink:href="cipidentity_8c__incl_org.svg" target="_base">
           <rect id="button" ry="5" rx="5" y="6" x="6" height="38" width="38"
                fill="#f2f5e9" fill-opacity="0.5" stroke="#606060" stroke-width="1.0"/>
           <path id="arrow"
             d="M 11.500037,31.436501 C 11.940474,20.09759 22.043105,11.32322 32.158766,21.979434 L 37.068811,17.246167 C 37.068811,17.246167 37.088388,32 37.088388,32 L 22.160133,31.978069 C 22.160133,31.978069 26.997745,27.140456 26.997745,27.140456 C 18.528582,18.264221 13.291696,25.230495 11.500037,31.436501 z"
             style="fill:#404040;"/>
          </a>
         </g>
        </svg>
</svg>
