<?xml version="1.0" encoding="UTF-8" standalone="no"?>
<!DOCTYPE svg PUBLIC "-//W3C//DTD SVG 1.1//EN"
 "http://www.w3.org/Graphics/SVG/1.1/DTD/svg11.dtd">
<!-- Generated by graphviz version 2.36.0 (20140111.2315)
 -->
<!-- Title: src/ports/MINGW/sample_application/sampleapplication.c Pages: 1 -->
<!--zoomable 488 -->
<svg id="main" version="1.1" xmlns="http://www.w3.org/2000/svg" xmlns:xlink="http://www.w3.org/1999/xlink" xml:space="preserve" onload="init(evt)">
<style type="text/css"><![CDATA[
.edge:hover path { stroke: red; }
.edge:hover polygon { stroke: red; fill: red; }
]]></style>
<script type="text/javascript"><![CDATA[
var edges = document.getElementsByTagName('g');
if (edges && edges.length) {
  for (var i=0;i<edges.length;i++) {
    if (edges[i].id.substr(0,4)=='edge') {
      edges[i].setAttribute('class','edge');
    }
  }
}
]]></script>
        <defs>
                <circle id="rim" cx="0" cy="0" r="7"/>
                <circle id="rim2" cx="0" cy="0" r="3.5"/>
                <g id="zoomPlus">
                        <use xlink:href="#rim" fill="#404040">
                                <set attributeName="fill" to="#808080" begin="zoomplus.mouseover" end="zoomplus.mouseout"/>
                        </use>
                        <path d="M-4,0h8M0,-4v8" fill="none" stroke="white" stroke-width="1.5" pointer-events="none"/>
                </g>
                <g id="zoomMin">
                        <use xlink:href="#rim" fill="#404040">
                                <set attributeName="fill" to="#808080" begin="zoomminus.mouseover" end="zoomminus.mouseout"/>
                        </use>
                        <path d="M-4,0h8" fill="none" stroke="white" stroke-width="1.5" pointer-events="none"/>
                </g>
                <g id="dirArrow">
                        <path fill="none" stroke="white" stroke-width="1.5" d="M0,-3.0v7 M-2.5,-0.5L0,-3.0L2.5,-0.5"/>
                </g>
               <g id="resetDef">
                       <use xlink:href="#rim2" fill="#404040">
                               <set attributeName="fill" to="#808080" begin="reset.mouseover" end="reset.mouseout"/>
                       </use>
               </g>
        </defs>

<script type="text/javascript">
var viewWidth = 754;
var viewHeight = 488;
var sectionId = 'dynsection-0';
</script>
<script xlink:href="../../svgpan.js"/>
<svg id="graph" class="graph">
<g id="viewport">
<title>src/ports/MINGW/sample_application/sampleapplication.c</title>
<!-- Node1 -->
<g id="node1" class="node"><title>Node1</title>
<polygon fill="#bfbfbf" stroke="black" points="537.451,-449 537.451,-479 695.451,-479 695.451,-449 537.451,-449"/>
<text text-anchor="start" x="545.451" y="-467" font-family="Helvetica,sans-Serif" font-size="10.00">src/ports/MINGW/sample</text>
<text text-anchor="middle" x="616.451" y="-456" font-family="Helvetica,sans-Serif" font-size="10.00">_application/sampleapplication.c</text>
</g>
<!-- Node2 -->
<g id="node2" class="node"><title>Node2</title>
<g id="a_node2"><a xlink:href="../../d4/d38/opener__api_8h.html" target="_top" xlink:title="opener_api.h">
<polygon fill="none" stroke="black" points="548.451,-224.5 548.451,-243.5 620.451,-243.5 620.451,-224.5 548.451,-224.5"/>
<text text-anchor="middle" x="584.451" y="-231.5" font-family="Helvetica,sans-Serif" font-size="10.00">opener_api.h</text>
</a>
</g>
</g>
<!-- Node1&#45;&gt;Node2 -->
<g id="edge1" class="edge"><title>Node1&#45;&gt;Node2</title>
<path fill="none" stroke="midnightblue" d="M614.45,-448.738C608.911,-409.277 593.381,-298.626 587.119,-254.007"/>
<polygon fill="midnightblue" stroke="midnightblue" points="590.563,-253.363 585.707,-243.947 583.631,-254.336 590.563,-253.363"/>
</g>
<!-- Node13 -->
<g id="node13" class="node"><title>Node13</title>
<g id="a_node13"><a xlink:href="../../d1/dc0/appcontype_8h.html" target="_top" xlink:title="appcontype.h">
<polygon fill="none" stroke="black" points="425.951,-392.5 425.951,-411.5 500.951,-411.5 500.951,-392.5 425.951,-392.5"/>
<text text-anchor="middle" x="463.451" y="-399.5" font-family="Helvetica,sans-Serif" font-size="10.00">appcontype.h</text>
</a>
</g>
</g>
<!-- Node1&#45;&gt;Node13 -->
<g id="edge16" class="edge"><title>Node1&#45;&gt;Node13</title>
<path fill="none" stroke="midnightblue" d="M580.58,-448.933C554.536,-438.72 519.643,-425.036 494.731,-415.266"/>
<polygon fill="midnightblue" stroke="midnightblue" points="495.969,-411.993 485.381,-411.6 493.413,-418.509 495.969,-411.993"/>
</g>
<!-- Node19 -->
<g id="node19" class="node"><title>Node19</title>
<polygon fill="none" stroke="#bfbfbf" points="618.951,-392.5 618.951,-411.5 667.951,-411.5 667.951,-392.5 618.951,-392.5"/>
<text text-anchor="middle" x="643.451" y="-399.5" font-family="Helvetica,sans-Serif" font-size="10.00">string.h</text>
</g>
<!-- Node1&#45;&gt;Node19 -->
<g id="edge35" class="edge"><title>Node1&#45;&gt;Node19</title>
<path fill="none" stroke="midnightblue" d="M622.85,-448.781C626.612,-440.422 631.402,-429.777 635.416,-420.856"/>
<polygon fill="midnightblue" stroke="midnightblue" points="638.611,-422.286 639.523,-411.731 632.227,-419.413 638.611,-422.286"/>
</g>
<!-- Node20 -->
<g id="node20" class="node"><title>Node20</title>
<polygon fill="none" stroke="#bfbfbf" points="686.451,-392.5 686.451,-411.5 734.451,-411.5 734.451,-392.5 686.451,-392.5"/>
<text text-anchor="middle" x="710.451" y="-399.5" font-family="Helvetica,sans-Serif" font-size="10.00">stdlib.h</text>
</g>
<!-- Node1&#45;&gt;Node20 -->
<g id="edge36" class="edge"><title>Node1&#45;&gt;Node20</title>
<path fill="none" stroke="midnightblue" d="M638.728,-448.781C653.745,-439.196 673.468,-426.606 688.431,-417.056"/>
<polygon fill="midnightblue" stroke="midnightblue" points="690.501,-419.886 697.047,-411.556 686.735,-413.986 690.501,-419.886"/>
</g>
<!-- Node3 -->
<g id="node3" class="node"><title>Node3</title>
<polygon fill="none" stroke="#bfbfbf" points="618.451,-168.5 618.451,-187.5 670.451,-187.5 670.451,-168.5 618.451,-168.5"/>
<text text-anchor="middle" x="644.451" y="-175.5" font-family="Helvetica,sans-Serif" font-size="10.00">assert.h</text>
</g>
<!-- Node2&#45;&gt;Node3 -->
<g id="edge2" class="edge"><title>Node2&#45;&gt;Node3</title>
<path fill="none" stroke="midnightblue" d="M594.091,-224.324C602.961,-216.341 616.326,-204.313 627.059,-194.653"/>
<polygon fill="midnightblue" stroke="midnightblue" points="629.544,-197.125 634.636,-187.834 624.862,-191.922 629.544,-197.125"/>
</g>
<!-- Node4 -->
<g id="node4" class="node"><title>Node4</title>
<polygon fill="none" stroke="#bfbfbf" points="280.451,-0.5 280.451,-19.5 336.451,-19.5 336.451,-0.5 280.451,-0.5"/>
<text text-anchor="middle" x="308.451" y="-7.5" font-family="Helvetica,sans-Serif" font-size="10.00">stdbool.h</text>
</g>
<!-- Node2&#45;&gt;Node4 -->
<g id="edge3" class="edge"><title>Node2&#45;&gt;Node4</title>
<path fill="none" stroke="midnightblue" d="M584.243,-224.418C583.748,-211.818 582.079,-187.677 576.451,-168 568.906,-141.617 567.611,-133.414 550.451,-112 524.881,-80.0899 514.141,-74.0547 477.451,-56 454.612,-44.7608 389.19,-28.9396 346.766,-19.3602"/>
<polygon fill="midnightblue" stroke="midnightblue" points="347.301,-15.8933 336.777,-17.124 345.771,-22.7243 347.301,-15.8933"/>
</g>
<!-- Node5 -->
<g id="node5" class="node"><title>Node5</title>
<g id="a_node5"><a xlink:href="../../d7/d69/typedefs_8h.html" target="_top" xlink:title="typedefs.h">
<polygon fill="none" stroke="black" points="407.451,-56.5 407.451,-75.5 469.451,-75.5 469.451,-56.5 407.451,-56.5"/>
<text text-anchor="middle" x="438.451" y="-63.5" font-family="Helvetica,sans-Serif" font-size="10.00">typedefs.h</text>
</a>
</g>
</g>
<!-- Node2&#45;&gt;Node5 -->
<g id="edge4" class="edge"><title>Node2&#45;&gt;Node5</title>
<path fill="none" stroke="midnightblue" d="M582.529,-224.246C577.37,-202.604 561.334,-145.891 528.451,-112 514.082,-97.1898 493.811,-86.4661 476.144,-79.211"/>
<polygon fill="midnightblue" stroke="midnightblue" points="477.241,-75.8823 466.651,-75.5333 474.712,-82.4095 477.241,-75.8823"/>
</g>
<!-- Node8 -->
<g id="node8" class="node"><title>Node8</title>
<g id="a_node8"><a xlink:href="../../df/d28/ciptypes_8h.html" target="_top" xlink:title="ciptypes.h">
<polygon fill="none" stroke="black" points="233.451,-168.5 233.451,-187.5 295.451,-187.5 295.451,-168.5 233.451,-168.5"/>
<text text-anchor="middle" x="264.451" y="-175.5" font-family="Helvetica,sans-Serif" font-size="10.00">ciptypes.h</text>
</a>
</g>
</g>
<!-- Node2&#45;&gt;Node8 -->
<g id="edge8" class="edge"><title>Node2&#45;&gt;Node8</title>
<path fill="none" stroke="midnightblue" d="M548.365,-226.91C488.445,-216.799 368.78,-196.606 305.644,-185.951"/>
<polygon fill="midnightblue" stroke="midnightblue" points="306.088,-182.477 295.645,-184.264 304.923,-189.379 306.088,-182.477"/>
</g>
<!-- Node12 -->
<g id="node12" class="node"><title>Node12</title>
<g id="a_node12"><a xlink:href="../../d6/d52/ciperror_8h.html" target="_top" xlink:title="ciperror.h">
<polygon fill="none" stroke="black" points="688.951,-168.5 688.951,-187.5 745.951,-187.5 745.951,-168.5 688.951,-168.5"/>
<text text-anchor="middle" x="717.451" y="-175.5" font-family="Helvetica,sans-Serif" font-size="10.00">ciperror.h</text>
</a>
</g>
</g>
<!-- Node2&#45;&gt;Node12 -->
<g id="edge15" class="edge"><title>Node2&#45;&gt;Node12</title>
<path fill="none" stroke="midnightblue" d="M605.526,-224.444C627.511,-215.517 662.186,-201.439 687.115,-191.317"/>
<polygon fill="midnightblue" stroke="midnightblue" points="688.527,-194.521 696.476,-187.516 685.894,-188.035 688.527,-194.521"/>
</g>
<!-- Node5&#45;&gt;Node4 -->
<g id="edge7" class="edge"><title>Node5&#45;&gt;Node4</title>
<path fill="none" stroke="midnightblue" d="M417.852,-56.4435C396.458,-47.5566 362.77,-33.5632 338.427,-23.4514"/>
<polygon fill="midnightblue" stroke="midnightblue" points="339.531,-20.1203 328.954,-19.5164 336.846,-26.5848 339.531,-20.1203"/>
</g>
<!-- Node6 -->
<g id="node6" class="node"><title>Node6</title>
<polygon fill="none" stroke="#bfbfbf" points="371.951,-0.5 371.951,-19.5 430.951,-19.5 430.951,-0.5 371.951,-0.5"/>
<text text-anchor="middle" x="401.451" y="-7.5" font-family="Helvetica,sans-Serif" font-size="10.00">inttypes.h</text>
</g>
<!-- Node5&#45;&gt;Node6 -->
<g id="edge5" class="edge"><title>Node5&#45;&gt;Node6</title>
<path fill="none" stroke="midnightblue" d="M432.342,-56.083C427.169,-48.5341 419.605,-37.4948 413.257,-28.2298"/>
<polygon fill="midnightblue" stroke="midnightblue" points="415.987,-26.0221 407.447,-19.7511 410.213,-29.9787 415.987,-26.0221"/>
</g>
<!-- Node7 -->
<g id="node7" class="node"><title>Node7</title>
<polygon fill="none" stroke="#bfbfbf" points="449.451,-0.5 449.451,-19.5 501.451,-19.5 501.451,-0.5 449.451,-0.5"/>
<text text-anchor="middle" x="475.451" y="-7.5" font-family="Helvetica,sans-Serif" font-size="10.00">stddef.h</text>
</g>
<!-- Node5&#45;&gt;Node7 -->
<g id="edge6" class="edge"><title>Node5&#45;&gt;Node7</title>
<path fill="none" stroke="midnightblue" d="M444.561,-56.083C449.734,-48.5341 457.297,-37.4948 463.646,-28.2298"/>
<polygon fill="midnightblue" stroke="midnightblue" points="466.69,-29.9787 469.455,-19.7511 460.916,-26.0221 466.69,-29.9787"/>
</g>
<!-- Node8&#45;&gt;Node5 -->
<g id="edge9" class="edge"><title>Node8&#45;&gt;Node5</title>
<path fill="none" stroke="midnightblue" d="M295.649,-176.284C330.216,-173.802 385.426,-164.56 418.451,-132 430.658,-119.965 435.452,-100.674 437.315,-86.2284"/>
<polygon fill="midnightblue" stroke="midnightblue" points="440.833,-86.1924 438.266,-75.9133 433.863,-85.5496 440.833,-86.1924"/>
</g>
<!-- Node9 -->
<g id="node9" class="node"><title>Node9</title>
<g id="a_node9"><a xlink:href="../../d0/d47/networkhandler_8h.html" target="_top" xlink:title="networkhandler.h">
<polygon fill="none" stroke="black" points="318.951,-112.5 318.951,-131.5 409.951,-131.5 409.951,-112.5 318.951,-112.5"/>
<text text-anchor="middle" x="364.451" y="-119.5" font-family="Helvetica,sans-Serif" font-size="10.00">networkhandler.h</text>
</a>
</g>
</g>
<!-- Node8&#45;&gt;Node9 -->
<g id="edge10" class="edge"><title>Node8&#45;&gt;Node9</title>
<path fill="none" stroke="midnightblue" d="M280.518,-168.324C296.409,-159.743 320.959,-146.486 339.41,-136.522"/>
<polygon fill="midnightblue" stroke="midnightblue" points="341.288,-139.486 348.424,-131.655 337.962,-133.326 341.288,-139.486"/>
</g>
<!-- Node10 -->
<g id="node10" class="node"><title>Node10</title>
<g id="a_node10"><a xlink:href="../../d8/d2c/enipmessage_8h.html" target="_top" xlink:title="enipmessage.h">
<polygon fill="none" stroke="black" points="65.9513,-112.5 65.9513,-131.5 148.951,-131.5 148.951,-112.5 65.9513,-112.5"/>
<text text-anchor="middle" x="107.451" y="-119.5" font-family="Helvetica,sans-Serif" font-size="10.00">enipmessage.h</text>
</a>
</g>
</g>
<!-- Node8&#45;&gt;Node10 -->
<g id="edge12" class="edge"><title>Node8&#45;&gt;Node10</title>
<path fill="none" stroke="midnightblue" d="M239.574,-168.444C213.162,-159.359 171.236,-144.939 141.71,-134.783"/>
<polygon fill="midnightblue" stroke="midnightblue" points="142.807,-131.459 132.212,-131.516 140.53,-138.079 142.807,-131.459"/>
</g>
<!-- Node11 -->
<g id="node11" class="node"><title>Node11</title>
<polygon fill="none" stroke="#bfbfbf" points="22.4513,-56.5 22.4513,-75.5 124.451,-75.5 124.451,-56.5 22.4513,-56.5"/>
<text text-anchor="middle" x="73.4513" y="-63.5" font-family="Helvetica,sans-Serif" font-size="10.00">opener_user_conf.h</text>
</g>
<!-- Node8&#45;&gt;Node11 -->
<g id="edge14" class="edge"><title>Node8&#45;&gt;Node11</title>
<path fill="none" stroke="midnightblue" d="M250.742,-168.345C230.523,-155.654 191.426,-131.401 157.451,-112 138.116,-100.959 115.894,-89.0892 99.1649,-80.3142"/>
<polygon fill="midnightblue" stroke="midnightblue" points="100.497,-77.0615 90.0131,-75.5348 97.2569,-83.2664 100.497,-77.0615"/>
</g>
<!-- Node9&#45;&gt;Node5 -->
<g id="edge11" class="edge"><title>Node9&#45;&gt;Node5</title>
<path fill="none" stroke="midnightblue" d="M376.341,-112.324C387.602,-104.107 404.738,-91.6017 418.16,-81.8069"/>
<polygon fill="midnightblue" stroke="midnightblue" points="420.331,-84.5559 426.346,-75.8339 416.205,-78.9014 420.331,-84.5559"/>
</g>
<!-- Node10&#45;&gt;Node11 -->
<g id="edge13" class="edge"><title>Node10&#45;&gt;Node11</title>
<path fill="none" stroke="midnightblue" d="M101.837,-112.083C97.0839,-104.534 90.1333,-93.4948 84.2997,-84.2298"/>
<polygon fill="midnightblue" stroke="midnightblue" points="87.2513,-82.3486 78.9613,-75.7511 81.3276,-86.0783 87.2513,-82.3486"/>
</g>
<!-- Node14 -->
<g id="node14" class="node"><title>Node14</title>
<g id="a_node14"><a xlink:href="../../d2/da3/cipconnectionmanager_8h.html" target="_top" xlink:title="cipconnectionmanager.h">
<polygon fill="none" stroke="black" points="355.451,-336.5 355.451,-355.5 477.451,-355.5 477.451,-336.5 355.451,-336.5"/>
<text text-anchor="middle" x="416.451" y="-343.5" font-family="Helvetica,sans-Serif" font-size="10.00">cipconnectionmanager.h</text>
</a>
</g>
</g>
<!-- Node13&#45;&gt;Node14 -->
<g id="edge17" class="edge"><title>Node13&#45;&gt;Node14</title>
<path fill="none" stroke="midnightblue" d="M455.69,-392.083C448.915,-384.298 438.908,-372.801 430.696,-363.367"/>
<polygon fill="midnightblue" stroke="midnightblue" points="433.273,-360.996 424.068,-355.751 427.993,-365.592 433.273,-360.996"/>
</g>
<!-- Node14&#45;&gt;Node2 -->
<g id="edge19" class="edge"><title>Node14&#45;&gt;Node2</title>
<path fill="none" stroke="midnightblue" d="M448.902,-336.475C472.435,-329.262 504.248,-317.31 528.451,-300 546.738,-286.921 562.928,-266.669 573.137,-252.249"/>
<polygon fill="midnightblue" stroke="midnightblue" points="576.193,-253.981 578.944,-243.749 570.413,-250.032 576.193,-253.981"/>
</g>
<!-- Node14&#45;&gt;Node5 -->
<g id="edge20" class="edge"><title>Node14&#45;&gt;Node5</title>
<path fill="none" stroke="midnightblue" d="M433.076,-336.273C461.036,-320.26 514.451,-283.34 514.451,-235 514.451,-235 514.451,-235 514.451,-177 514.451,-137.276 480.487,-101.504 457.969,-82.1536"/>
<polygon fill="midnightblue" stroke="midnightblue" points="459.933,-79.2364 449.994,-75.5672 455.476,-84.6337 459.933,-79.2364"/>
</g>
<!-- Node14&#45;&gt;Node8 -->
<g id="edge21" class="edge"><title>Node14&#45;&gt;Node8</title>
<path fill="none" stroke="midnightblue" d="M371.737,-336.475C348.856,-330.001 322.168,-318.865 304.451,-300 277.404,-271.199 268.628,-223.702 265.793,-197.606"/>
<polygon fill="midnightblue" stroke="midnightblue" points="269.27,-197.201 264.885,-187.557 262.299,-197.831 269.27,-197.201"/>
</g>
<!-- Node14&#45;&gt;Node11 -->
<g id="edge18" class="edge"><title>Node14&#45;&gt;Node11</title>
<path fill="none" stroke="midnightblue" d="M367.645,-336.475C305.654,-323.931 197.274,-296.135 118.451,-244 69.8803,-211.874 59.4702,-189.531 50.4513,-132 49.0747,-123.218 48.3708,-120.642 50.4513,-112 52.7581,-102.418 57.4687,-92.5813 62.0295,-84.5579"/>
<polygon fill="midnightblue" stroke="midnightblue" points="65.1437,-86.1727 67.3467,-75.8095 59.1619,-82.537 65.1437,-86.1727"/>
</g>
<!-- Node15 -->
<g id="node15" class="node"><title>Node15</title>
<g id="a_node15"><a xlink:href="../../d1/d6c/cipconnectionobject_8h.html" target="_top" xlink:title="cipconnectionobject.h">
<polygon fill="none" stroke="black" points="313.951,-280.5 313.951,-299.5 424.951,-299.5 424.951,-280.5 313.951,-280.5"/>
<text text-anchor="middle" x="369.451" y="-287.5" font-family="Helvetica,sans-Serif" font-size="10.00">cipconnectionobject.h</text>
</a>
</g>
</g>
<!-- Node14&#45;&gt;Node15 -->
<g id="edge22" class="edge"><title>Node14&#45;&gt;Node15</title>
<path fill="none" stroke="midnightblue" d="M408.69,-336.083C401.915,-328.298 391.908,-316.801 383.696,-307.367"/>
<polygon fill="midnightblue" stroke="midnightblue" points="386.273,-304.996 377.068,-299.751 380.993,-309.592 386.273,-304.996"/>
</g>
<!-- Node15&#45;&gt;Node2 -->
<g id="edge26" class="edge"><title>Node15&#45;&gt;Node2</title>
<path fill="none" stroke="midnightblue" d="M403.519,-280.444C440.632,-271.122 500.113,-256.183 540.666,-245.997"/>
<polygon fill="midnightblue" stroke="midnightblue" points="541.697,-249.347 550.543,-243.516 539.992,-242.558 541.697,-249.347"/>
</g>
<!-- Node15&#45;&gt;Node5 -->
<g id="edge23" class="edge"><title>Node15&#45;&gt;Node5</title>
<path fill="none" stroke="midnightblue" d="M405.303,-280.397C424.332,-273.81 446.078,-262.589 457.451,-244 488.451,-193.33 462.193,-118.975 447.18,-85.0599"/>
<polygon fill="midnightblue" stroke="midnightblue" points="450.158,-83.1613 442.787,-75.5509 443.803,-86.0969 450.158,-83.1613"/>
</g>
<!-- Node15&#45;&gt;Node8 -->
<g id="edge24" class="edge"><title>Node15&#45;&gt;Node8</title>
<path fill="none" stroke="midnightblue" d="M357.41,-280.415C345.795,-271.852 328.026,-257.989 314.451,-244 299.951,-229.057 285.7,-209.974 276.146,-196.357"/>
<polygon fill="midnightblue" stroke="midnightblue" points="278.891,-194.173 270.336,-187.922 273.126,-198.143 278.891,-194.173"/>
</g>
<!-- Node15&#45;&gt;Node11 -->
<g id="edge25" class="edge"><title>Node15&#45;&gt;Node11</title>
<path fill="none" stroke="midnightblue" d="M313.581,-287.141C267.759,-283.414 202.661,-272.913 153.451,-244 96.675,-210.641 79.4564,-193.702 56.4513,-132 50.6064,-116.323 56.6483,-97.8079 63.0915,-84.5564"/>
<polygon fill="midnightblue" stroke="midnightblue" points="66.2623,-86.0497 67.9067,-75.5832 60.0942,-82.7398 66.2623,-86.0497"/>
</g>
<!-- Node16 -->
<g id="node16" class="node"><title>Node16</title>
<g id="a_node16"><a xlink:href="../../d9/d31/doublylinkedlist_8h.html" target="_top" xlink:title="doublylinkedlist.h">
<polygon fill="none" stroke="black" points="356.451,-224.5 356.451,-243.5 448.451,-243.5 448.451,-224.5 356.451,-224.5"/>
<text text-anchor="middle" x="402.451" y="-231.5" font-family="Helvetica,sans-Serif" font-size="10.00">doublylinkedlist.h</text>
</a>
</g>
</g>
<!-- Node15&#45;&gt;Node16 -->
<g id="edge27" class="edge"><title>Node15&#45;&gt;Node16</title>
<path fill="none" stroke="midnightblue" d="M374.901,-280.083C379.466,-272.613 386.12,-261.724 391.745,-252.52"/>
<polygon fill="midnightblue" stroke="midnightblue" points="394.875,-254.109 397.103,-243.751 388.902,-250.459 394.875,-254.109"/>
</g>
<!-- Node17 -->
<g id="node17" class="node"><title>Node17</title>
<g id="a_node17"><a xlink:href="../../d0/d23/cipelectronickey_8h.html" target="_top" xlink:title="cipelectronickey.h">
<polygon fill="none" stroke="black" points="205.951,-112.5 205.951,-131.5 300.951,-131.5 300.951,-112.5 205.951,-112.5"/>
<text text-anchor="middle" x="253.451" y="-119.5" font-family="Helvetica,sans-Serif" font-size="10.00">cipelectronickey.h</text>
</a>
</g>
</g>
<!-- Node15&#45;&gt;Node17 -->
<g id="edge28" class="edge"><title>Node15&#45;&gt;Node17</title>
<path fill="none" stroke="midnightblue" d="M365.162,-280.246C353.134,-255.853 318.953,-187.621 303.451,-168 294.716,-156.944 283.108,-146.313 273.276,-138.163"/>
<polygon fill="midnightblue" stroke="midnightblue" points="275.199,-135.219 265.209,-131.691 270.819,-140.679 275.199,-135.219"/>
</g>
<!-- Node18 -->
<g id="node18" class="node"><title>Node18</title>
<g id="a_node18"><a xlink:href="../../d1/d02/cipepath_8h.html" target="_top" xlink:title="cipepath.h">
<polygon fill="none" stroke="black" points="162.451,-224.5 162.451,-243.5 224.451,-243.5 224.451,-224.5 162.451,-224.5"/>
<text text-anchor="middle" x="193.451" y="-231.5" font-family="Helvetica,sans-Serif" font-size="10.00">cipepath.h</text>
</a>
</g>
</g>
<!-- Node15&#45;&gt;Node18 -->
<g id="edge31" class="edge"><title>Node15&#45;&gt;Node18</title>
<path fill="none" stroke="midnightblue" d="M341.564,-280.444C311.698,-271.28 264.137,-256.688 230.995,-246.519"/>
<polygon fill="midnightblue" stroke="midnightblue" points="231.795,-243.104 221.209,-243.516 229.742,-249.796 231.795,-243.104"/>
</g>
<!-- Node17&#45;&gt;Node4 -->
<g id="edge29" class="edge"><title>Node17&#45;&gt;Node4</title>
<path fill="none" stroke="midnightblue" d="M257.767,-112.368C266.763,-94.376 287.676,-52.5503 299.638,-28.6267"/>
<polygon fill="midnightblue" stroke="midnightblue" points="302.814,-30.101 304.156,-19.5914 296.553,-26.9704 302.814,-30.101"/>
</g>
<!-- Node17&#45;&gt;Node5 -->
<g id="edge30" class="edge"><title>Node17&#45;&gt;Node5</title>
<path fill="none" stroke="midnightblue" d="M282.765,-112.444C314.294,-103.241 364.583,-88.5617 399.437,-78.3879"/>
<polygon fill="midnightblue" stroke="midnightblue" points="400.656,-81.6783 409.275,-75.5164 398.695,-74.9587 400.656,-81.6783"/>
</g>
<!-- Node18&#45;&gt;Node4 -->
<g id="edge32" class="edge"><title>Node18&#45;&gt;Node4</title>
<path fill="none" stroke="midnightblue" d="M171.87,-224.496C112.264,-199.841 -46.3789,-125.649 13.4513,-56 46.1102,-17.9815 197.915,-11.7262 270.11,-10.9384"/>
<polygon fill="midnightblue" stroke="midnightblue" points="270.188,-14.4379 280.16,-10.8587 270.133,-7.43817 270.188,-14.4379"/>
</g>
<!-- Node18&#45;&gt;Node8 -->
<g id="edge33" class="edge"><title>Node18&#45;&gt;Node8</title>
<path fill="none" stroke="midnightblue" d="M204.859,-224.324C215.56,-216.185 231.792,-203.839 244.614,-194.087"/>
<polygon fill="midnightblue" stroke="midnightblue" points="246.996,-196.673 252.836,-187.834 242.758,-191.102 246.996,-196.673"/>
</g>
<!-- Node18&#45;&gt;Node17 -->
<g id="edge34" class="edge"><title>Node18&#45;&gt;Node17</title>
<path fill="none" stroke="midnightblue" d="M197.127,-224.412C202.617,-211.805 213.49,-187.654 224.451,-168 229.714,-158.564 236.177,-148.418 241.665,-140.153"/>
<polygon fill="midnightblue" stroke="midnightblue" points="244.637,-142.006 247.331,-131.759 238.836,-138.089 244.637,-142.006"/>
</g>
</g>
</svg>
        <g id="navigator" transform="translate(0 0)" fill="#404254">
                <rect fill="#f2f5e9" fill-opacity="0.5" stroke="#606060" stroke-width=".5" x="0" y="0" width="60" height="60"/>
                <use id="zoomplus" xlink:href="#zoomPlus" x="17" y="9" onmousedown="handleZoom(evt,'in')"/>
                <use id="zoomminus" xlink:href="#zoomMin" x="42" y="9" onmousedown="handleZoom(evt,'out')"/>
                <use id="reset" xlink:href="#resetDef" x="30" y="36" onmousedown="handleReset()"/>
                <g id="arrowUp" xlink:href="#dirArrow" transform="translate(30 24)" onmousedown="handlePan(0,-1)">
                  <use xlink:href="#rim" fill="#404040">
                        <set attributeName="fill" to="#808080" begin="arrowUp.mouseover" end="arrowUp.mouseout"/>
                  </use>
                  <path fill="none" stroke="white" stroke-width="1.5" d="M0,-3.0v7 M-2.5,-0.5L0,-3.0L2.5,-0.5"/>
                </g>
                <g id="arrowRight" xlink:href="#dirArrow" transform="rotate(90) translate(36 -43)" onmousedown="handlePan(1,0)">
                  <use xlink:href="#rim" fill="#404040">
                        <set attributeName="fill" to="#808080" begin="arrowRight.mouseover" end="arrowRight.mouseout"/>
                  </use>
                  <path fill="none" stroke="white" stroke-width="1.5" d="M0,-3.0v7 M-2.5,-0.5L0,-3.0L2.5,-0.5"/>
                </g>
                <g id="arrowDown" xlink:href="#dirArrow" transform="rotate(180) translate(-30 -48)" onmousedown="handlePan(0,1)">
                  <use xlink:href="#rim" fill="#404040">
                        <set attributeName="fill" to="#808080" begin="arrowDown.mouseover" end="arrowDown.mouseout"/>
                  </use>
                  <path fill="none" stroke="white" stroke-width="1.5" d="M0,-3.0v7 M-2.5,-0.5L0,-3.0L2.5,-0.5"/>
                </g>
                <g id="arrowLeft" xlink:href="#dirArrow" transform="rotate(270) translate(-36 17)" onmousedown="handlePan(-1,0)">
                  <use xlink:href="#rim" fill="#404040">
                        <set attributeName="fill" to="#808080" begin="arrowLeft.mouseover" end="arrowLeft.mouseout"/>
                  </use>
                  <path fill="none" stroke="white" stroke-width="1.5" d="M0,-3.0v7 M-2.5,-0.5L0,-3.0L2.5,-0.5"/>
                </g>
        </g>
        <svg viewBox="0 0 15 15" width="100%" height="30px" preserveAspectRatio="xMaxYMin meet">
         <g id="arrow_out" transform="scale(0.3 0.3)">
          <a xlink:href="MINGW_2sample__application_2sampleapplication_8c__incl_org.svg" target="_base">
           <rect id="button" ry="5" rx="5" y="6" x="6" height="38" width="38"
                fill="#f2f5e9" fill-opacity="0.5" stroke="#606060" stroke-width="1.0"/>
           <path id="arrow"
             d="M 11.500037,31.436501 C 11.940474,20.09759 22.043105,11.32322 32.158766,21.979434 L 37.068811,17.246167 C 37.068811,17.246167 37.088388,32 37.088388,32 L 22.160133,31.978069 C 22.160133,31.978069 26.997745,27.140456 26.997745,27.140456 C 18.528582,18.264221 13.291696,25.230495 11.500037,31.436501 z"
             style="fill:#404040;"/>
          </a>
         </g>
        </svg>
</svg>
