<?xml version="1.0" encoding="UTF-8" standalone="no"?>
<!DOCTYPE svg PUBLIC "-//W3C//DTD SVG 1.1//EN"
 "http://www.w3.org/Graphics/SVG/1.1/DTD/svg11.dtd">
<!-- Generated by graphviz version 2.38.0 (20140413.2041)
 -->
<!-- Title: src/cip/cipconnectionobject.h Pages: 1 -->
<!--zoomable 263 -->
<svg id="main" version="1.1" xmlns="http://www.w3.org/2000/svg" xmlns:xlink="http://www.w3.org/1999/xlink" xml:space="preserve" onload="init(evt)">
<style type="text/css"><![CDATA[
.edge:hover path { stroke: red; }
.edge:hover polygon { stroke: red; fill: red; }
]]></style>
<script type="text/javascript"><![CDATA[
var edges = document.getElementsByTagName('g');
if (edges && edges.length) {
  for (var i=0;i<edges.length;i++) {
    if (edges[i].id.substr(0,4)=='edge') {
      edges[i].setAttribute('class','edge');
    }
  }
}
]]></script>
        <defs>
                <circle id="rim" cx="0" cy="0" r="7"/>
                <circle id="rim2" cx="0" cy="0" r="3.5"/>
                <g id="zoomPlus">
                        <use xlink:href="#rim" fill="#404040">
                                <set attributeName="fill" to="#808080" begin="zoomplus.mouseover" end="zoomplus.mouseout"/>
                        </use>
                        <path d="M-4,0h8M0,-4v8" fill="none" stroke="white" stroke-width="1.5" pointer-events="none"/>
                </g>
                <g id="zoomMin">
                        <use xlink:href="#rim" fill="#404040">
                                <set attributeName="fill" to="#808080" begin="zoomminus.mouseover" end="zoomminus.mouseout"/>
                        </use>
                        <path d="M-4,0h8" fill="none" stroke="white" stroke-width="1.5" pointer-events="none"/>
                </g>
                <g id="dirArrow">
                        <path fill="none" stroke="white" stroke-width="1.5" d="M0,-3.0v7 M-2.5,-0.5L0,-3.0L2.5,-0.5"/>
                </g>
               <g id="resetDef">
                       <use xlink:href="#rim2" fill="#404040">
                               <set attributeName="fill" to="#808080" begin="reset.mouseover" end="reset.mouseout"/>
                       </use>
               </g>
        </defs>

<script type="text/javascript">
var viewWidth = 2530;
var viewHeight = 263;
var sectionId = 'dynsection-1';
</script>
<script xlink:href="../../svgpan.js"/>
<svg id="graph" class="graph">
<g id="viewport">
<title>src/cip/cipconnectionobject.h</title>
<!-- Node1 -->
<g id="node1" class="node"><title>Node1</title>
<polygon fill="#bfbfbf" stroke="black" points="1558.5,-235.5 1558.5,-254.5 1701.5,-254.5 1701.5,-235.5 1558.5,-235.5"/>
<text text-anchor="middle" x="1630" y="-242.5" font-family="Helvetica,sans-Serif" font-size="10.00">src/cip/cipconnectionobject.h</text>
</g>
<!-- Node2 -->
<g id="node2" class="node"><title>Node2</title>
<g id="a_node2"><a xlink:href="../../d2/da3/cipconnectionmanager_8h.html" target="_top" xlink:title="src/cip/cipconnectionmanager.h">
<polygon fill="none" stroke="black" points="1390.5,-179.5 1390.5,-198.5 1545.5,-198.5 1545.5,-179.5 1390.5,-179.5"/>
<text text-anchor="middle" x="1468" y="-186.5" font-family="Helvetica,sans-Serif" font-size="10.00">src/cip/cipconnectionmanager.h</text>
</a>
</g>
</g>
<!-- Node1&#45;&gt;Node2 -->
<g id="edge1" class="edge"><title>Node1&#45;&gt;Node2</title>
<path fill="none" stroke="midnightblue" d="M1594.52,-232.172C1564.01,-222.004 1520.76,-207.585 1493.55,-198.516"/>
<polygon fill="midnightblue" stroke="midnightblue" points="1593.74,-235.602 1604.33,-235.444 1595.95,-228.961 1593.74,-235.602"/>
</g>
<!-- Node4 -->
<g id="node4" class="node"><title>Node4</title>
<g id="a_node4"><a xlink:href="../../d1/dbc/appcontype_8c.html" target="_top" xlink:title="src/cip/appcontype.c">
<polygon fill="none" stroke="black" points="654.5,-67.5 654.5,-86.5 761.5,-86.5 761.5,-67.5 654.5,-67.5"/>
<text text-anchor="middle" x="708" y="-74.5" font-family="Helvetica,sans-Serif" font-size="10.00">src/cip/appcontype.c</text>
</a>
</g>
</g>
<!-- Node1&#45;&gt;Node4 -->
<g id="edge42" class="edge"><title>Node1&#45;&gt;Node4</title>
<path fill="none" stroke="midnightblue" d="M1548.49,-239.039C1367.52,-227.224 937.515,-194.502 802,-143 767.132,-129.749 732.782,-100.905 716.993,-86.5172"/>
<polygon fill="midnightblue" stroke="midnightblue" points="1548.28,-242.532 1558.48,-239.687 1548.73,-235.547 1548.28,-242.532"/>
</g>
<!-- Node6 -->
<g id="node6" class="node"><title>Node6</title>
<g id="a_node6"><a xlink:href="../../d5/d35/cipconnectionmanager_8c.html" target="_top" xlink:title="src/cip/cipconnectionmanager.c">
<polygon fill="none" stroke="black" points="1881.5,-6 1881.5,-25 2036.5,-25 2036.5,-6 1881.5,-6"/>
<text text-anchor="middle" x="1959" y="-13" font-family="Helvetica,sans-Serif" font-size="10.00">src/cip/cipconnectionmanager.c</text>
</a>
</g>
</g>
<!-- Node1&#45;&gt;Node6 -->
<g id="edge44" class="edge"><title>Node1&#45;&gt;Node6</title>
<path fill="none" stroke="midnightblue" d="M1631.3,-225.108C1634.9,-188.533 1648.23,-108.049 1697,-67 1705.06,-60.2135 1834.08,-37.5522 1908,-25.0182"/>
<polygon fill="midnightblue" stroke="midnightblue" points="1627.8,-225.077 1630.45,-235.335 1634.77,-225.662 1627.8,-225.077"/>
</g>
<!-- Node13 -->
<g id="node13" class="node"><title>Node13</title>
<g id="a_node13"><a xlink:href="../../d9/dfb/POSIX_2main_8c.html" target="_top" xlink:title="src/ports/POSIX/main.c">
<polygon fill="none" stroke="black" points="175.5,-6 175.5,-25 296.5,-25 296.5,-6 175.5,-6"/>
<text text-anchor="middle" x="236" y="-13" font-family="Helvetica,sans-Serif" font-size="10.00">src/ports/POSIX/main.c</text>
</a>
</g>
</g>
<!-- Node1&#45;&gt;Node13 -->
<g id="edge61" class="edge"><title>Node1&#45;&gt;Node13</title>
<path fill="none" stroke="midnightblue" d="M1547.84,-243.124C1421.73,-240.726 1173.18,-231.834 965,-199 685.986,-154.993 357.507,-54.8932 262.783,-25.0507"/>
<polygon fill="midnightblue" stroke="midnightblue" points="1548.12,-246.629 1558.19,-243.311 1548.25,-239.63 1548.12,-246.629"/>
</g>
<!-- Node19 -->
<g id="node19" class="node"><title>Node19</title>
<g id="a_node19"><a xlink:href="../../d2/d11/cipclass3connection_8h.html" target="_top" xlink:title="CIP Class 3 connection. ">
<polygon fill="none" stroke="black" points="1691,-123.5 1691,-142.5 1837,-142.5 1837,-123.5 1691,-123.5"/>
<text text-anchor="middle" x="1764" y="-130.5" font-family="Helvetica,sans-Serif" font-size="10.00">src/cip/cipclass3connection.h</text>
</a>
</g>
</g>
<!-- Node1&#45;&gt;Node19 -->
<g id="edge43" class="edge"><title>Node1&#45;&gt;Node19</title>
<path fill="none" stroke="midnightblue" d="M1648.5,-228.816C1677.04,-205.387 1730.88,-161.19 1753.53,-142.591"/>
<polygon fill="midnightblue" stroke="midnightblue" points="1646.02,-226.318 1640.51,-235.368 1650.46,-231.729 1646.02,-226.318"/>
</g>
<!-- Node24 -->
<g id="node24" class="node"><title>Node24</title>
<g id="a_node24"><a xlink:href="../../de/d45/cipioconnection_8h.html" target="_top" xlink:title="src/cip/cipioconnection.h">
<polygon fill="none" stroke="black" points="1509.5,-123.5 1509.5,-142.5 1634.5,-142.5 1634.5,-123.5 1509.5,-123.5"/>
<text text-anchor="middle" x="1572" y="-130.5" font-family="Helvetica,sans-Serif" font-size="10.00">src/cip/cipioconnection.h</text>
</a>
</g>
</g>
<!-- Node1&#45;&gt;Node24 -->
<g id="edge45" class="edge"><title>Node1&#45;&gt;Node24</title>
<path fill="none" stroke="midnightblue" d="M1620.68,-226.32C1608.05,-202.37 1586,-160.548 1576.53,-142.591"/>
<polygon fill="midnightblue" stroke="midnightblue" points="1617.69,-228.155 1625.45,-235.368 1623.88,-224.89 1617.69,-228.155"/>
</g>
<!-- Node25 -->
<g id="node25" class="node"><title>Node25</title>
<g id="a_node25"><a xlink:href="../../df/d91/cipconnectionobject_8c.html" target="_top" xlink:title="src/cip/cipconnectionobject.c">
<polygon fill="none" stroke="black" points="2378.5,-123.5 2378.5,-142.5 2521.5,-142.5 2521.5,-123.5 2378.5,-123.5"/>
<text text-anchor="middle" x="2450" y="-130.5" font-family="Helvetica,sans-Serif" font-size="10.00">src/cip/cipconnectionobject.c</text>
</a>
</g>
</g>
<!-- Node1&#45;&gt;Node25 -->
<g id="edge46" class="edge"><title>Node1&#45;&gt;Node25</title>
<path fill="none" stroke="midnightblue" d="M1703.84,-234.095C1863.14,-212.725 2236.74,-162.608 2386.38,-142.535"/>
<polygon fill="midnightblue" stroke="midnightblue" points="1703.11,-230.661 1693.66,-235.46 1704.04,-237.599 1703.11,-230.661"/>
</g>
<!-- Node27 -->
<g id="node27" class="node"><title>Node27</title>
<g id="a_node27"><a xlink:href="../../d7/df9/encap_8h.html" target="_top" xlink:title="This file contains the public interface of the encapsulation layer. ">
<polygon fill="none" stroke="black" points="1855.5,-123.5 1855.5,-142.5 1976.5,-142.5 1976.5,-123.5 1855.5,-123.5"/>
<text text-anchor="middle" x="1916" y="-130.5" font-family="Helvetica,sans-Serif" font-size="10.00">src/enet_encap/encap.h</text>
</a>
</g>
</g>
<!-- Node1&#45;&gt;Node27 -->
<g id="edge47" class="edge"><title>Node1&#45;&gt;Node27</title>
<path fill="none" stroke="midnightblue" d="M1661.91,-231.726C1720.36,-209.245 1843.22,-161.991 1893.66,-142.591"/>
<polygon fill="midnightblue" stroke="midnightblue" points="1660.52,-228.512 1652.44,-235.368 1663.03,-235.045 1660.52,-228.512"/>
</g>
<!-- Node3 -->
<g id="node3" class="node"><title>Node3</title>
<g id="a_node3"><a xlink:href="../../d1/dc0/appcontype_8h.html" target="_top" xlink:title="src/cip/appcontype.h">
<polygon fill="none" stroke="black" points="1148.5,-123.5 1148.5,-142.5 1255.5,-142.5 1255.5,-123.5 1148.5,-123.5"/>
<text text-anchor="middle" x="1202" y="-130.5" font-family="Helvetica,sans-Serif" font-size="10.00">src/cip/appcontype.h</text>
</a>
</g>
</g>
<!-- Node2&#45;&gt;Node3 -->
<g id="edge2" class="edge"><title>Node2&#45;&gt;Node3</title>
<path fill="none" stroke="midnightblue" d="M1415.83,-177.41C1365.56,-167.204 1290.47,-151.96 1243.95,-142.516"/>
<polygon fill="midnightblue" stroke="midnightblue" points="1415.36,-180.884 1425.85,-179.444 1416.75,-174.024 1415.36,-180.884"/>
</g>
<!-- Node2&#45;&gt;Node4 -->
<g id="edge19" class="edge"><title>Node2&#45;&gt;Node4</title>
<path fill="none" stroke="midnightblue" d="M1380.17,-184.945C1236.75,-179.373 958.638,-165.965 863,-143 809.658,-130.191 751.069,-101.14 723.708,-86.6109"/>
<polygon fill="midnightblue" stroke="midnightblue" points="1380.14,-188.446 1390.26,-185.333 1380.4,-181.452 1380.14,-188.446"/>
</g>
<!-- Node5 -->
<g id="node5" class="node"><title>Node5</title>
<g id="a_node5"><a xlink:href="../../d2/d3d/cipcommon_8c.html" target="_top" xlink:title="src/cip/cipcommon.c">
<polygon fill="none" stroke="black" points="769.5,-6 769.5,-25 876.5,-25 876.5,-6 769.5,-6"/>
<text text-anchor="middle" x="823" y="-13" font-family="Helvetica,sans-Serif" font-size="10.00">src/cip/cipcommon.c</text>
</a>
</g>
</g>
<!-- Node2&#45;&gt;Node5 -->
<g id="edge24" class="edge"><title>Node2&#45;&gt;Node5</title>
<path fill="none" stroke="midnightblue" d="M1380.08,-181.859C1313.15,-175.775 1219.19,-164.19 1139,-143 1020.45,-111.672 886.473,-48.0207 839.963,-25.0275"/>
<polygon fill="midnightblue" stroke="midnightblue" points="1379.9,-185.356 1390.17,-182.753 1380.52,-178.384 1379.9,-185.356"/>
</g>
<!-- Node2&#45;&gt;Node6 -->
<g id="edge33" class="edge"><title>Node2&#45;&gt;Node6</title>
<path fill="none" stroke="midnightblue" d="M1473.51,-169.8C1478.54,-155.646 1487.17,-136.251 1500,-123 1536.79,-84.9995 1554.66,-83.2344 1605,-67 1718.96,-30.2453 1753.6,-48.8448 1872,-31 1884.11,-29.1744 1897.15,-27.0738 1909.35,-25.0483"/>
<polygon fill="midnightblue" stroke="midnightblue" points="1470.15,-168.821 1470.35,-179.413 1476.8,-171.005 1470.15,-168.821"/>
</g>
<!-- Node7 -->
<g id="node7" class="node"><title>Node7</title>
<g id="a_node7"><a xlink:href="../../df/d03/cipioconnection_8c.html" target="_top" xlink:title="src/cip/cipioconnection.c">
<polygon fill="none" stroke="black" points="1738.5,-6 1738.5,-25 1863.5,-25 1863.5,-6 1738.5,-6"/>
<text text-anchor="middle" x="1801" y="-13" font-family="Helvetica,sans-Serif" font-size="10.00">src/cip/cipioconnection.c</text>
</a>
</g>
</g>
<!-- Node2&#45;&gt;Node7 -->
<g id="edge38" class="edge"><title>Node2&#45;&gt;Node7</title>
<path fill="none" stroke="midnightblue" d="M1464.68,-169.138C1463.09,-155.926 1462.39,-138.019 1467,-123 1475.83,-94.2485 1479.63,-83.1544 1505,-67 1590.06,-12.8443 1629.78,-48.957 1729,-31 1739.04,-29.1834 1749.83,-27.0861 1759.93,-25.0611"/>
<polygon fill="midnightblue" stroke="midnightblue" points="1461.27,-169.977 1466.21,-179.35 1468.19,-168.942 1461.27,-169.977"/>
</g>
<!-- Node8 -->
<g id="node8" class="node"><title>Node8</title>
<g id="a_node8"><a xlink:href="../../da/dc2/generic__networkhandler_8h.html" target="_top" xlink:title="src/ports/generic_networkhandler.h">
<polygon fill="none" stroke="black" points="1208.5,-67.5 1208.5,-86.5 1377.5,-86.5 1377.5,-67.5 1208.5,-67.5"/>
<text text-anchor="middle" x="1293" y="-74.5" font-family="Helvetica,sans-Serif" font-size="10.00">src/ports/generic_networkhandler.h</text>
</a>
</g>
</g>
<!-- Node2&#45;&gt;Node8 -->
<g id="edge41" class="edge"><title>Node2&#45;&gt;Node8</title>
<path fill="none" stroke="midnightblue" d="M1445.74,-174.009C1409.01,-150.919 1336.77,-105.51 1306.67,-86.5914"/>
<polygon fill="midnightblue" stroke="midnightblue" points="1443.94,-177.01 1454.27,-179.368 1447.66,-171.083 1443.94,-177.01"/>
</g>
<!-- Node9 -->
<g id="node9" class="node"><title>Node9</title>
<g id="a_node9"><a xlink:href="../../d2/dbd/encap_8c.html" target="_top" xlink:title="src/enet_encap/encap.c">
<polygon fill="none" stroke="black" points="2054.5,-6 2054.5,-25 2175.5,-25 2175.5,-6 2054.5,-6"/>
<text text-anchor="middle" x="2115" y="-13" font-family="Helvetica,sans-Serif" font-size="10.00">src/enet_encap/encap.c</text>
</a>
</g>
</g>
<!-- Node2&#45;&gt;Node9 -->
<g id="edge40" class="edge"><title>Node2&#45;&gt;Node9</title>
<path fill="none" stroke="midnightblue" d="M1555.96,-183.415C1752.06,-172.264 2211.35,-140.629 2255,-87 2282.06,-53.7573 2222.83,-34.7335 2173.25,-25.0155"/>
<polygon fill="midnightblue" stroke="midnightblue" points="1555.47,-179.937 1545.69,-183.994 1555.87,-186.926 1555.47,-179.937"/>
</g>
<!-- Node18 -->
<g id="node18" class="node"><title>Node18</title>
<g id="a_node18"><a xlink:href="../../df/d2e/cipassembly_8c.html" target="_top" xlink:title="src/cip/cipassembly.c">
<polygon fill="none" stroke="black" points="889,-123.5 889,-142.5 1001,-142.5 1001,-123.5 889,-123.5"/>
<text text-anchor="middle" x="945" y="-130.5" font-family="Helvetica,sans-Serif" font-size="10.00">src/cip/cipassembly.c</text>
</a>
</g>
</g>
<!-- Node2&#45;&gt;Node18 -->
<g id="edge20" class="edge"><title>Node2&#45;&gt;Node18</title>
<path fill="none" stroke="midnightblue" d="M1380.14,-180.03C1288.82,-171.567 1141.78,-157.444 1015,-143 1010.5,-142.487 1005.83,-141.934 1001.15,-141.364"/>
<polygon fill="midnightblue" stroke="midnightblue" points="1379.89,-183.521 1390.17,-180.957 1380.54,-176.551 1379.89,-183.521"/>
</g>
<!-- Node2&#45;&gt;Node19 -->
<g id="edge21" class="edge"><title>Node2&#45;&gt;Node19</title>
<path fill="none" stroke="midnightblue" d="M1525,-177.601C1580.94,-167.395 1665.23,-152.019 1717.32,-142.516"/>
<polygon fill="midnightblue" stroke="midnightblue" points="1524.11,-174.206 1514.9,-179.444 1525.37,-181.092 1524.11,-174.206"/>
</g>
<!-- Node21 -->
<g id="node21" class="node"><title>Node21</title>
<g id="a_node21"><a xlink:href="../../d0/d3c/cipqos_8h.html" target="_top" xlink:title="Public interface of the QoS Object. ">
<polygon fill="none" stroke="black" points="818,-67.5 818,-86.5 904,-86.5 904,-67.5 818,-67.5"/>
<text text-anchor="middle" x="861" y="-74.5" font-family="Helvetica,sans-Serif" font-size="10.00">src/cip/cipqos.h</text>
</a>
</g>
</g>
<!-- Node2&#45;&gt;Node21 -->
<g id="edge25" class="edge"><title>Node2&#45;&gt;Node21</title>
<path fill="none" stroke="midnightblue" d="M1379.95,-186.707C1225.37,-183.647 917.895,-173.732 880,-143 863.015,-129.226 860.682,-101.154 860.675,-86.8324"/>
<polygon fill="midnightblue" stroke="midnightblue" points="1380.29,-190.214 1390.36,-186.908 1380.43,-183.216 1380.29,-190.214"/>
</g>
<!-- Node2&#45;&gt;Node24 -->
<g id="edge34" class="edge"><title>Node2&#45;&gt;Node24</title>
<path fill="none" stroke="midnightblue" d="M1493.83,-174.59C1513.06,-164.605 1538.74,-151.267 1555.33,-142.655"/>
<polygon fill="midnightblue" stroke="midnightblue" points="1491.97,-171.61 1484.71,-179.324 1495.2,-177.822 1491.97,-171.61"/>
</g>
<!-- Node2&#45;&gt;Node25 -->
<g id="edge37" class="edge"><title>Node2&#45;&gt;Node25</title>
<path fill="none" stroke="midnightblue" d="M1556,-185.16C1716.67,-179.624 2068.27,-165.884 2364,-143 2368.64,-142.641 2373.42,-142.237 2378.23,-141.804"/>
<polygon fill="midnightblue" stroke="midnightblue" points="1555.57,-181.673 1545.69,-185.513 1555.81,-188.669 1555.57,-181.673"/>
</g>
<!-- Node26 -->
<g id="node26" class="node"><title>Node26</title>
<g id="a_node26"><a xlink:href="../../d3/d98/cpf_8c.html" target="_top" xlink:title="src/enet_encap/cpf.c">
<polygon fill="none" stroke="black" points="2220,-6 2220,-25 2328,-25 2328,-6 2220,-6"/>
<text text-anchor="middle" x="2274" y="-13" font-family="Helvetica,sans-Serif" font-size="10.00">src/enet_encap/cpf.c</text>
</a>
</g>
</g>
<!-- Node2&#45;&gt;Node26 -->
<g id="edge39" class="edge"><title>Node2&#45;&gt;Node26</title>
<path fill="none" stroke="midnightblue" d="M1556.13,-188.784C1680.09,-188.309 1912.44,-181.628 2106,-143 2182.77,-127.679 2226.83,-150.223 2273,-87 2286.43,-68.6125 2280.87,-39.7279 2276.83,-25.3064"/>
<polygon fill="midnightblue" stroke="midnightblue" points="1555.92,-185.285 1545.93,-188.81 1555.94,-192.285 1555.92,-185.285"/>
</g>
<!-- Node3&#45;&gt;Node4 -->
<g id="edge3" class="edge"><title>Node3&#45;&gt;Node4</title>
<path fill="none" stroke="midnightblue" d="M1138.42,-125.811C1055.11,-117.581 904.492,-102.287 776,-87 771.388,-86.4513 766.603,-85.8609 761.805,-85.2543"/>
<polygon fill="midnightblue" stroke="midnightblue" points="1138.19,-129.306 1148.49,-126.804 1138.88,-122.339 1138.19,-129.306"/>
</g>
<!-- Node3&#45;&gt;Node5 -->
<g id="edge4" class="edge"><title>Node3&#45;&gt;Node5</title>
<path fill="none" stroke="midnightblue" d="M1180.74,-117.919C1157.28,-103.035 1117.95,-79.9584 1081,-67 997.422,-37.689 971.701,-49.0899 885,-31 876.343,-29.1937 867.042,-27.1004 858.345,-25.0757"/>
<polygon fill="midnightblue" stroke="midnightblue" points="1178.89,-120.895 1189.19,-123.37 1182.69,-115.011 1178.89,-120.895"/>
</g>
<!-- Node3&#45;&gt;Node6 -->
<g id="edge5" class="edge"><title>Node3&#45;&gt;Node6</title>
<path fill="none" stroke="midnightblue" d="M1255.96,-121.505C1300.57,-112.699 1365.51,-99.5784 1422,-87 1459.04,-78.7523 1467.58,-73.3118 1505,-67 1666.61,-39.7377 1709.52,-52.4842 1872,-31 1884.75,-29.3139 1898.5,-27.1732 1911.22,-25.0576"/>
<polygon fill="midnightblue" stroke="midnightblue" points="1255.06,-118.115 1245.92,-123.482 1256.41,-124.984 1255.06,-118.115"/>
</g>
<!-- Node3&#45;&gt;Node7 -->
<g id="edge6" class="edge"><title>Node3&#45;&gt;Node7</title>
<path fill="none" stroke="midnightblue" d="M1257.41,-121.405C1294.37,-113.622 1343.74,-101.835 1386,-87 1405.89,-80.0186 1408.73,-72.7719 1429,-67 1558.16,-30.2251 1596.41,-52.2728 1729,-31 1739.58,-29.3033 1750.96,-27.1589 1761.49,-25.0433"/>
<polygon fill="midnightblue" stroke="midnightblue" points="1256.41,-118.037 1247.33,-123.494 1257.83,-124.892 1256.41,-118.037"/>
</g>
<!-- Node3&#45;&gt;Node8 -->
<g id="edge7" class="edge"><title>Node3&#45;&gt;Node8</title>
<path fill="none" stroke="midnightblue" d="M1225.29,-118.177C1242.04,-108.241 1264.1,-95.1492 1278.42,-86.6545"/>
<polygon fill="midnightblue" stroke="midnightblue" points="1223.43,-115.211 1216.62,-123.324 1227.01,-121.231 1223.43,-115.211"/>
</g>
<!-- Node16 -->
<g id="node16" class="node"><title>Node16</title>
<g id="a_node16"><a xlink:href="../../d5/daa/MINGW_2sample__application_2sampleapplication_8c.html" target="_top" xlink:title="src/ports/MINGW/sample\l_application/sampleapplication.c">
<polygon fill="none" stroke="black" points="594,-0.5 594,-30.5 752,-30.5 752,-0.5 594,-0.5"/>
<text text-anchor="start" x="602" y="-18.5" font-family="Helvetica,sans-Serif" font-size="10.00">src/ports/MINGW/sample</text>
<text text-anchor="middle" x="673" y="-7.5" font-family="Helvetica,sans-Serif" font-size="10.00">_application/sampleapplication.c</text>
</a>
</g>
</g>
<!-- Node3&#45;&gt;Node16 -->
<g id="edge17" class="edge"><title>Node3&#45;&gt;Node16</title>
<path fill="none" stroke="midnightblue" d="M1154.79,-121.172C1097.61,-108.104 998.328,-85.5719 913,-67 854.961,-54.3676 788.91,-40.5071 740.813,-30.5079"/>
<polygon fill="midnightblue" stroke="midnightblue" points="1154.1,-124.603 1164.63,-123.421 1155.66,-117.779 1154.1,-124.603"/>
</g>
<!-- Node17 -->
<g id="node17" class="node"><title>Node17</title>
<g id="a_node17"><a xlink:href="../../d2/daa/POSIX_2sample__application_2sampleapplication_8c.html" target="_top" xlink:title="src/ports/POSIX/sample\l_application/sampleapplication.c">
<polygon fill="none" stroke="black" points="0,-0.5 0,-30.5 158,-30.5 158,-0.5 0,-0.5"/>
<text text-anchor="start" x="8" y="-18.5" font-family="Helvetica,sans-Serif" font-size="10.00">src/ports/POSIX/sample</text>
<text text-anchor="middle" x="79" y="-7.5" font-family="Helvetica,sans-Serif" font-size="10.00">_application/sampleapplication.c</text>
</a>
</g>
</g>
<!-- Node3&#45;&gt;Node17 -->
<g id="edge18" class="edge"><title>Node3&#45;&gt;Node17</title>
<path fill="none" stroke="midnightblue" d="M1138.4,-127.503C1043.35,-120.311 869.01,-105.165 809,-87 790.356,-81.3564 788.791,-72.1337 770,-67 510.586,3.87183 433.226,-61.1472 166,-31 163.413,-30.7082 160.786,-30.3912 158.136,-30.0536"/>
<polygon fill="midnightblue" stroke="midnightblue" points="1138.23,-131 1148.46,-128.257 1138.75,-124.019 1138.23,-131"/>
</g>
<!-- Node8&#45;&gt;Node6 -->
<g id="edge8" class="edge"><title>Node8&#45;&gt;Node6</title>
<path fill="none" stroke="midnightblue" d="M1387.78,-71.1874C1502.66,-64.7657 1701.99,-51.7341 1872,-31 1885.22,-29.3873 1899.51,-27.196 1912.6,-25.0058"/>
<polygon fill="midnightblue" stroke="midnightblue" points="1387.4,-67.7028 1377.61,-71.7508 1387.79,-74.6921 1387.4,-67.7028"/>
</g>
<!-- Node8&#45;&gt;Node7 -->
<g id="edge9" class="edge"><title>Node8&#45;&gt;Node7</title>
<path fill="none" stroke="midnightblue" d="M1388.19,-67.2525C1496.17,-57.1384 1665.5,-40.6481 1729,-31 1739.84,-29.3527 1751.52,-27.1758 1762.26,-25.0111"/>
<polygon fill="midnightblue" stroke="midnightblue" points="1387.57,-63.7953 1377.94,-68.2109 1388.22,-70.7649 1387.57,-63.7953"/>
</g>
<!-- Node8&#45;&gt;Node9 -->
<g id="edge10" class="edge"><title>Node8&#45;&gt;Node9</title>
<path fill="none" stroke="midnightblue" d="M1387.74,-74.7128C1530.73,-71.7822 1809.98,-62.2074 2045,-31 2056.07,-29.5297 2068.01,-27.3011 2078.84,-25.0291"/>
<polygon fill="midnightblue" stroke="midnightblue" points="1387.61,-71.2146 1377.68,-74.9126 1387.75,-78.2132 1387.61,-71.2146"/>
</g>
<!-- Node10 -->
<g id="node10" class="node"><title>Node10</title>
<g id="a_node10"><a xlink:href="../../db/d4f/generic__networkhandler_8c.html" target="_top" xlink:title="This file includes all platform&#45;independent functions of the network handler to reduce code duplicati...">
<polygon fill="none" stroke="black" points="894.5,-6 894.5,-25 1063.5,-25 1063.5,-6 894.5,-6"/>
<text text-anchor="middle" x="979" y="-13" font-family="Helvetica,sans-Serif" font-size="10.00">src/ports/generic_networkhandler.c</text>
</a>
</g>
</g>
<!-- Node8&#45;&gt;Node10 -->
<g id="edge11" class="edge"><title>Node8&#45;&gt;Node10</title>
<path fill="none" stroke="midnightblue" d="M1237.83,-65.5456C1177,-54.0184 1080.29,-35.6939 1023.91,-25.0091"/>
<polygon fill="midnightblue" stroke="midnightblue" points="1237.53,-69.0521 1248.01,-67.4751 1238.84,-62.1744 1237.53,-69.0521"/>
</g>
<!-- Node11 -->
<g id="node11" class="node"><title>Node11</title>
<g id="a_node11"><a xlink:href="../../d5/dcb/MINGW_2main_8c.html" target="_top" xlink:title="src/ports/MINGW/main.c">
<polygon fill="none" stroke="black" points="1405,-6 1405,-25 1531,-25 1531,-6 1405,-6"/>
<text text-anchor="middle" x="1468" y="-13" font-family="Helvetica,sans-Serif" font-size="10.00">src/ports/MINGW/main.c</text>
</a>
</g>
</g>
<!-- Node8&#45;&gt;Node11 -->
<g id="edge12" class="edge"><title>Node8&#45;&gt;Node11</title>
<path fill="none" stroke="midnightblue" d="M1327.61,-64.232C1361.63,-52.666 1412.72,-35.2966 1442.97,-25.0091"/>
<polygon fill="midnightblue" stroke="midnightblue" points="1326.41,-60.9423 1318.07,-67.4751 1328.67,-67.5697 1326.41,-60.9423"/>
</g>
<!-- Node12 -->
<g id="node12" class="node"><title>Node12</title>
<g id="a_node12"><a xlink:href="../../d3/de3/MINGW_2networkhandler_8c.html" target="_top" xlink:title="src/ports/MINGW/networkhandler.c">
<polygon fill="none" stroke="black" points="1549.5,-6 1549.5,-25 1720.5,-25 1720.5,-6 1549.5,-6"/>
<text text-anchor="middle" x="1635" y="-13" font-family="Helvetica,sans-Serif" font-size="10.00">src/ports/MINGW/networkhandler.c</text>
</a>
</g>
</g>
<!-- Node8&#45;&gt;Node12 -->
<g id="edge13" class="edge"><title>Node8&#45;&gt;Node12</title>
<path fill="none" stroke="midnightblue" d="M1351.86,-65.7591C1418.04,-54.2459 1524.29,-35.7602 1586.09,-25.0091"/>
<polygon fill="midnightblue" stroke="midnightblue" points="1351.25,-62.3128 1342,-67.4751 1352.45,-69.2092 1351.25,-62.3128"/>
</g>
<!-- Node8&#45;&gt;Node13 -->
<g id="edge14" class="edge"><title>Node8&#45;&gt;Node13</title>
<path fill="none" stroke="midnightblue" d="M1198.19,-73.6374C985.545,-68.0203 475.84,-52.6965 305,-31 293.95,-29.5966 282.037,-27.3587 271.271,-25.057"/>
<polygon fill="midnightblue" stroke="midnightblue" points="1198.31,-77.1416 1208.39,-73.9056 1198.49,-70.144 1198.31,-77.1416"/>
</g>
<!-- Node14 -->
<g id="node14" class="node"><title>Node14</title>
<g id="a_node14"><a xlink:href="../../dc/db2/WIN32_2main_8c.html" target="_top" xlink:title="src/ports/WIN32/main.c">
<polygon fill="none" stroke="black" points="1081.5,-6 1081.5,-25 1202.5,-25 1202.5,-6 1081.5,-6"/>
<text text-anchor="middle" x="1142" y="-13" font-family="Helvetica,sans-Serif" font-size="10.00">src/ports/WIN32/main.c</text>
</a>
</g>
</g>
<!-- Node8&#45;&gt;Node14 -->
<g id="edge15" class="edge"><title>Node8&#45;&gt;Node14</title>
<path fill="none" stroke="midnightblue" d="M1261.99,-63.7824C1232.65,-52.2199 1189.37,-35.1641 1163.59,-25.0091"/>
<polygon fill="midnightblue" stroke="midnightblue" points="1260.78,-67.0653 1271.37,-67.4751 1263.34,-60.5527 1260.78,-67.0653"/>
</g>
<!-- Node15 -->
<g id="node15" class="node"><title>Node15</title>
<g id="a_node15"><a xlink:href="../../d8/d6c/WIN32_2networkhandler_8c.html" target="_top" xlink:title="src/ports/WIN32/networkhandler.c">
<polygon fill="none" stroke="black" points="1221,-6 1221,-25 1387,-25 1387,-6 1221,-6"/>
<text text-anchor="middle" x="1304" y="-13" font-family="Helvetica,sans-Serif" font-size="10.00">src/ports/WIN32/networkhandler.c</text>
</a>
</g>
</g>
<!-- Node8&#45;&gt;Node15 -->
<g id="edge16" class="edge"><title>Node8&#45;&gt;Node15</title>
<path fill="none" stroke="midnightblue" d="M1296.45,-57.3165C1298.45,-46.4962 1300.88,-33.398 1302.43,-25.0091"/>
<polygon fill="midnightblue" stroke="midnightblue" points="1292.95,-57.0054 1294.58,-67.4751 1299.84,-58.278 1292.95,-57.0054"/>
</g>
<!-- Node19&#45;&gt;Node6 -->
<g id="edge23" class="edge"><title>Node19&#45;&gt;Node6</title>
<path fill="none" stroke="midnightblue" d="M1737.31,-118.517C1715.27,-105.609 1689.87,-85.4299 1705,-67 1711.44,-59.1587 1835.07,-37.2696 1907.43,-25.0404"/>
<polygon fill="midnightblue" stroke="midnightblue" points="1735.67,-121.612 1746.11,-123.414 1739.08,-115.494 1735.67,-121.612"/>
</g>
<!-- Node20 -->
<g id="node20" class="node"><title>Node20</title>
<g id="a_node20"><a xlink:href="../../dc/d93/cipclass3connection_8c.html" target="_top" xlink:title="src/cip/cipclass3connection.c">
<polygon fill="none" stroke="black" points="1714,-67.5 1714,-86.5 1860,-86.5 1860,-67.5 1714,-67.5"/>
<text text-anchor="middle" x="1787" y="-74.5" font-family="Helvetica,sans-Serif" font-size="10.00">src/cip/cipclass3connection.c</text>
</a>
</g>
</g>
<!-- Node19&#45;&gt;Node20 -->
<g id="edge22" class="edge"><title>Node19&#45;&gt;Node20</title>
<path fill="none" stroke="midnightblue" d="M1771.8,-113.69C1775.68,-104.589 1780.18,-94.0141 1783.27,-86.7511"/>
<polygon fill="midnightblue" stroke="midnightblue" points="1768.5,-112.511 1767.8,-123.083 1774.94,-115.254 1768.5,-112.511"/>
</g>
<!-- Node21&#45;&gt;Node5 -->
<g id="edge26" class="edge"><title>Node21&#45;&gt;Node5</title>
<path fill="none" stroke="midnightblue" d="M850.146,-59.0051C843.046,-47.888 834.074,-33.8395 828.434,-25.0091"/>
<polygon fill="midnightblue" stroke="midnightblue" points="847.223,-60.9311 855.556,-67.4751 853.123,-57.1633 847.223,-60.9311"/>
</g>
<!-- Node21&#45;&gt;Node6 -->
<g id="edge27" class="edge"><title>Node21&#45;&gt;Node6</title>
<path fill="none" stroke="midnightblue" d="M914.295,-74.4786C1094.99,-69.1868 1683.56,-50.8236 1872,-31 1885.71,-29.5582 1900.53,-27.338 1913.99,-25.0649"/>
<polygon fill="midnightblue" stroke="midnightblue" points="914.132,-70.9817 904.239,-74.7719 914.337,-77.9787 914.132,-70.9817"/>
</g>
<!-- Node21&#45;&gt;Node10 -->
<g id="edge29" class="edge"><title>Node21&#45;&gt;Node10</title>
<path fill="none" stroke="midnightblue" d="M887.046,-62.8665C909.916,-51.3347 942.511,-34.8992 962.125,-25.0091"/>
<polygon fill="midnightblue" stroke="midnightblue" points="885.26,-59.8475 877.907,-67.4751 888.411,-66.0979 885.26,-59.8475"/>
</g>
<!-- Node21&#45;&gt;Node16 -->
<g id="edge30" class="edge"><title>Node21&#45;&gt;Node16</title>
<path fill="none" stroke="midnightblue" d="M824.212,-64.357C793.579,-54.6619 749.863,-40.8263 717.308,-30.523"/>
<polygon fill="midnightblue" stroke="midnightblue" points="823.474,-67.7945 834.064,-67.4751 825.586,-61.1208 823.474,-67.7945"/>
</g>
<!-- Node21&#45;&gt;Node17 -->
<g id="edge31" class="edge"><title>Node21&#45;&gt;Node17</title>
<path fill="none" stroke="midnightblue" d="M807.822,-67.4291C806.536,-67.2782 805.261,-67.1348 804,-67 521.602,-36.8149 448.266,-62.3916 166,-31 163.413,-30.7123 160.786,-30.3988 158.135,-30.0643"/>
<polygon fill="midnightblue" stroke="midnightblue" points="807.436,-70.9082 817.8,-68.713 808.329,-63.9654 807.436,-70.9082"/>
</g>
<!-- Node22 -->
<g id="node22" class="node"><title>Node22</title>
<g id="a_node22"><a xlink:href="../../dd/d34/cipqos_8c.html" target="_top" xlink:title="src/cip/cipqos.c">
<polygon fill="none" stroke="black" points="490,-6 490,-25 576,-25 576,-6 490,-6"/>
<text text-anchor="middle" x="533" y="-13" font-family="Helvetica,sans-Serif" font-size="10.00">src/cip/cipqos.c</text>
</a>
</g>
</g>
<!-- Node21&#45;&gt;Node22 -->
<g id="edge28" class="edge"><title>Node21&#45;&gt;Node22</title>
<path fill="none" stroke="midnightblue" d="M807.947,-67.5044C730.847,-55.1358 595.791,-33.3766 585,-31 577.312,-29.3067 569.07,-27.1635 561.466,-25.0479"/>
<polygon fill="midnightblue" stroke="midnightblue" points="807.537,-70.9833 817.965,-69.111 808.645,-64.0716 807.537,-70.9833"/>
</g>
<!-- Node23 -->
<g id="node23" class="node"><title>Node23</title>
<g id="a_node23"><a xlink:href="../../d5/dc8/WIN32_2sample__application_2sampleapplication_8c.html" target="_top" xlink:title="src/ports/WIN32/sample\l_application/sampleapplication.c">
<polygon fill="none" stroke="black" points="314,-0.5 314,-30.5 472,-30.5 472,-0.5 314,-0.5"/>
<text text-anchor="start" x="322" y="-18.5" font-family="Helvetica,sans-Serif" font-size="10.00">src/ports/WIN32/sample</text>
<text text-anchor="middle" x="393" y="-7.5" font-family="Helvetica,sans-Serif" font-size="10.00">_application/sampleapplication.c</text>
</a>
</g>
</g>
<!-- Node21&#45;&gt;Node23 -->
<g id="edge32" class="edge"><title>Node21&#45;&gt;Node23</title>
<path fill="none" stroke="midnightblue" d="M807.811,-67.5223C806.528,-67.3436 805.257,-67.1691 804,-67 660.847,-47.731 624.088,-50.7487 481,-31 478.086,-30.5978 475.119,-30.1754 472.124,-29.738"/>
<polygon fill="midnightblue" stroke="midnightblue" points="807.372,-70.9953 817.77,-68.9622 808.374,-64.0673 807.372,-70.9953"/>
</g>
<!-- Node24&#45;&gt;Node6 -->
<g id="edge35" class="edge"><title>Node24&#45;&gt;Node6</title>
<path fill="none" stroke="midnightblue" d="M1583.53,-114.553C1594.58,-99.3609 1612.69,-78.0833 1634,-67 1728.91,-17.6393 1766.35,-47.7943 1872,-31 1883.8,-29.125 1896.48,-27.0465 1908.42,-25.0626"/>
<polygon fill="midnightblue" stroke="midnightblue" points="1580.44,-112.872 1577.6,-123.08 1586.18,-116.869 1580.44,-112.872"/>
</g>
<!-- Node24&#45;&gt;Node7 -->
<g id="edge36" class="edge"><title>Node24&#45;&gt;Node7</title>
<path fill="none" stroke="midnightblue" d="M1574.11,-113.454C1576.76,-98.7934 1582.71,-78.881 1596,-67 1602.27,-61.3976 1704.88,-37.88 1762.5,-25.0088"/>
<polygon fill="midnightblue" stroke="midnightblue" points="1570.64,-113.022 1572.66,-123.422 1577.56,-114.031 1570.64,-113.022"/>
</g>
<!-- Node27&#45;&gt;Node5 -->
<g id="edge49" class="edge"><title>Node27&#45;&gt;Node5</title>
<path fill="none" stroke="midnightblue" d="M1845.33,-123.069C1677.85,-109.898 1302.08,-126.066 1157,-87 1138.19,-81.9352 1136.53,-73.0087 1118,-67 1018.33,-34.6783 987.868,-50.9456 885,-31 875.993,-29.2535 866.309,-27.1153 857.334,-25.023"/>
<polygon fill="midnightblue" stroke="midnightblue" points="1845.07,-126.559 1855.32,-123.914 1845.65,-119.584 1845.07,-126.559"/>
</g>
<!-- Node27&#45;&gt;Node6 -->
<g id="edge50" class="edge"><title>Node27&#45;&gt;Node6</title>
<path fill="none" stroke="midnightblue" d="M1908.49,-113.684C1904.16,-100.278 1900.7,-81.9034 1907,-67 1914.65,-48.9181 1932.28,-34.121 1944.89,-25.3198"/>
<polygon fill="midnightblue" stroke="midnightblue" points="1905.25,-115.023 1911.98,-123.209 1911.83,-112.615 1905.25,-115.023"/>
</g>
<!-- Node27&#45;&gt;Node9 -->
<g id="edge58" class="edge"><title>Node27&#45;&gt;Node9</title>
<path fill="none" stroke="midnightblue" d="M1956.23,-120.33C1979.55,-112.65 2008.97,-101.36 2033,-87 2062.98,-69.0867 2092.68,-39.9872 2106.68,-25.4127"/>
<polygon fill="midnightblue" stroke="midnightblue" points="1955.09,-117.017 1946.63,-123.398 1957.23,-123.684 1955.09,-117.017"/>
</g>
<!-- Node27&#45;&gt;Node10 -->
<g id="edge59" class="edge"><title>Node27&#45;&gt;Node10</title>
<path fill="none" stroke="midnightblue" d="M1845,-123.002C1557.28,-98.0459 1474.78,-157.418 1199,-87 1178.97,-81.8849 1176.35,-74.2916 1157,-67 1109.36,-49.0438 1052.48,-33.964 1016.06,-25.082"/>
<polygon fill="midnightblue" stroke="midnightblue" points="1845.05,-126.521 1855.32,-123.926 1845.68,-119.549 1845.05,-126.521"/>
</g>
<!-- Node27&#45;&gt;Node20 -->
<g id="edge48" class="edge"><title>Node27&#45;&gt;Node20</title>
<path fill="none" stroke="midnightblue" d="M1886.15,-119.503C1861.96,-109.38 1828.54,-95.388 1807.34,-86.5164"/>
<polygon fill="midnightblue" stroke="midnightblue" points="1884.98,-122.811 1895.56,-123.444 1887.69,-116.354 1884.98,-122.811"/>
</g>
<!-- Node27&#45;&gt;Node26 -->
<g id="edge57" class="edge"><title>Node27&#45;&gt;Node26</title>
<path fill="none" stroke="midnightblue" d="M1986.67,-131.574C2074.12,-129.565 2216.24,-120.976 2255,-87 2272.92,-71.2902 2274.77,-40.6331 2274.48,-25.4549"/>
<polygon fill="midnightblue" stroke="midnightblue" points="1986.48,-128.077 1976.55,-131.783 1986.62,-135.076 1986.48,-128.077"/>
</g>
<!-- Node28 -->
<g id="node28" class="node"><title>Node28</title>
<g id="a_node28"><a xlink:href="../../d0/dff/cpf_8h.html" target="_top" xlink:title="src/enet_encap/cpf.h">
<polygon fill="none" stroke="black" points="1916,-67.5 1916,-86.5 2024,-86.5 2024,-67.5 1916,-67.5"/>
<text text-anchor="middle" x="1970" y="-74.5" font-family="Helvetica,sans-Serif" font-size="10.00">src/enet_encap/cpf.h</text>
</a>
</g>
</g>
<!-- Node27&#45;&gt;Node28 -->
<g id="edge51" class="edge"><title>Node27&#45;&gt;Node28</title>
<path fill="none" stroke="midnightblue" d="M1932,-116.002C1941.57,-106.433 1953.36,-94.6389 1961.25,-86.7511"/>
<polygon fill="midnightblue" stroke="midnightblue" points="1929.51,-113.537 1924.92,-123.083 1934.46,-118.487 1929.51,-113.537"/>
</g>
<!-- Node29 -->
<g id="node29" class="node"><title>Node29</title>
<g id="a_node29"><a xlink:href="../../d2/d5e/POSIX_2networkhandler_8c.html" target="_top" xlink:title="src/ports/POSIX/networkhandler.c">
<polygon fill="none" stroke="black" points="2080,-67.5 2080,-86.5 2246,-86.5 2246,-67.5 2080,-67.5"/>
<text text-anchor="middle" x="2163" y="-74.5" font-family="Helvetica,sans-Serif" font-size="10.00">src/ports/POSIX/networkhandler.c</text>
</a>
</g>
</g>
<!-- Node27&#45;&gt;Node29 -->
<g id="edge60" class="edge"><title>Node27&#45;&gt;Node29</title>
<path fill="none" stroke="midnightblue" d="M1965.03,-121.281C2011.7,-111.077 2081.03,-95.9203 2124.05,-86.5164"/>
<polygon fill="midnightblue" stroke="midnightblue" points="1964.16,-117.888 1955.14,-123.444 1965.65,-124.727 1964.16,-117.888"/>
</g>
<!-- Node28&#45;&gt;Node5 -->
<g id="edge52" class="edge"><title>Node28&#45;&gt;Node5</title>
<path fill="none" stroke="midnightblue" d="M1905.69,-69.7622C1893.52,-68.7248 1880.87,-67.7457 1869,-67 1432.23,-39.5694 1318.75,-89.1002 885,-31 874.92,-29.6498 864.078,-27.3974 854.323,-25.0656"/>
<polygon fill="midnightblue" stroke="midnightblue" points="1905.52,-73.2604 1915.79,-70.6435 1906.13,-66.2869 1905.52,-73.2604"/>
</g>
<!-- Node28&#45;&gt;Node6 -->
<g id="edge53" class="edge"><title>Node28&#45;&gt;Node6</title>
<path fill="none" stroke="midnightblue" d="M1966.55,-57.3165C1964.55,-46.4962 1962.12,-33.398 1960.57,-25.0091"/>
<polygon fill="midnightblue" stroke="midnightblue" points="1963.16,-58.278 1968.42,-67.4751 1970.05,-57.0054 1963.16,-58.278"/>
</g>
<!-- Node28&#45;&gt;Node7 -->
<g id="edge54" class="edge"><title>Node28&#45;&gt;Node7</title>
<path fill="none" stroke="midnightblue" d="M1936.15,-64.0828C1903.3,-52.517 1854.26,-35.2524 1825.17,-25.0091"/>
<polygon fill="midnightblue" stroke="midnightblue" points="1935.19,-67.4555 1945.79,-67.4751 1937.52,-60.8528 1935.19,-67.4555"/>
</g>
<!-- Node28&#45;&gt;Node9 -->
<g id="edge56" class="edge"><title>Node28&#45;&gt;Node9</title>
<path fill="none" stroke="midnightblue" d="M2000.14,-63.6313C2028.31,-52.0717 2069.62,-35.12 2094.26,-25.0091"/>
<polygon fill="midnightblue" stroke="midnightblue" points="1998.7,-60.4408 1990.77,-67.4751 2001.36,-66.9168 1998.7,-60.4408"/>
</g>
<!-- Node28&#45;&gt;Node26 -->
<g id="edge55" class="edge"><title>Node28&#45;&gt;Node26</title>
<path fill="none" stroke="midnightblue" d="M2023.41,-65.5456C2082.31,-54.0184 2175.93,-35.6939 2230.53,-25.0091"/>
<polygon fill="midnightblue" stroke="midnightblue" points="2022.7,-62.1194 2013.56,-67.4751 2024.04,-68.9891 2022.7,-62.1194"/>
</g>
</g>
</svg>
        <g id="navigator" transform="translate(0 0)" fill="#404254">
                <rect fill="#f2f5e9" fill-opacity="0.5" stroke="#606060" stroke-width=".5" x="0" y="0" width="60" height="60"/>
                <use id="zoomplus" xlink:href="#zoomPlus" x="17" y="9" onmousedown="handleZoom(evt,'in')"/>
                <use id="zoomminus" xlink:href="#zoomMin" x="42" y="9" onmousedown="handleZoom(evt,'out')"/>
                <use id="reset" xlink:href="#resetDef" x="30" y="36" onmousedown="handleReset()"/>
                <g id="arrowUp" xlink:href="#dirArrow" transform="translate(30 24)" onmousedown="handlePan(0,-1)">
                  <use xlink:href="#rim" fill="#404040">
                        <set attributeName="fill" to="#808080" begin="arrowUp.mouseover" end="arrowUp.mouseout"/>
                  </use>
                  <path fill="none" stroke="white" stroke-width="1.5" d="M0,-3.0v7 M-2.5,-0.5L0,-3.0L2.5,-0.5"/>
                </g>
                <g id="arrowRight" xlink:href="#dirArrow" transform="rotate(90) translate(36 -43)" onmousedown="handlePan(1,0)">
                  <use xlink:href="#rim" fill="#404040">
                        <set attributeName="fill" to="#808080" begin="arrowRight.mouseover" end="arrowRight.mouseout"/>
                  </use>
                  <path fill="none" stroke="white" stroke-width="1.5" d="M0,-3.0v7 M-2.5,-0.5L0,-3.0L2.5,-0.5"/>
                </g>
                <g id="arrowDown" xlink:href="#dirArrow" transform="rotate(180) translate(-30 -48)" onmousedown="handlePan(0,1)">
                  <use xlink:href="#rim" fill="#404040">
                        <set attributeName="fill" to="#808080" begin="arrowDown.mouseover" end="arrowDown.mouseout"/>
                  </use>
                  <path fill="none" stroke="white" stroke-width="1.5" d="M0,-3.0v7 M-2.5,-0.5L0,-3.0L2.5,-0.5"/>
                </g>
                <g id="arrowLeft" xlink:href="#dirArrow" transform="rotate(270) translate(-36 17)" onmousedown="handlePan(-1,0)">
                  <use xlink:href="#rim" fill="#404040">
                        <set attributeName="fill" to="#808080" begin="arrowLeft.mouseover" end="arrowLeft.mouseout"/>
                  </use>
                  <path fill="none" stroke="white" stroke-width="1.5" d="M0,-3.0v7 M-2.5,-0.5L0,-3.0L2.5,-0.5"/>
                </g>
        </g>
        <svg viewBox="0 0 15 15" width="100%" height="30px" preserveAspectRatio="xMaxYMin meet">
         <g id="arrow_out" transform="scale(0.3 0.3)">
          <a xlink:href="cipconnectionobject_8h__dep__incl_org.svg" target="_base">
           <rect id="button" ry="5" rx="5" y="6" x="6" height="38" width="38"
                fill="#f2f5e9" fill-opacity="0.5" stroke="#606060" stroke-width="1.0"/>
           <path id="arrow"
             d="M 11.500037,31.436501 C 11.940474,20.09759 22.043105,11.32322 32.158766,21.979434 L 37.068811,17.246167 C 37.068811,17.246167 37.088388,32 37.088388,32 L 22.160133,31.978069 C 22.160133,31.978069 26.997745,27.140456 26.997745,27.140456 C 18.528582,18.264221 13.291696,25.230495 11.500037,31.436501 z"
             style="fill:#404040;"/>
          </a>
         </g>
        </svg>
</svg>
