<?xml version="1.0" encoding="UTF-8" standalone="no"?>
<!DOCTYPE svg PUBLIC "-//W3C//DTD SVG 1.1//EN"
 "http://www.w3.org/Graphics/SVG/1.1/DTD/svg11.dtd">
<!-- Generated by graphviz version 2.38.0 (20140413.2041)
 -->
<!-- Title: SocketTimerClear Pages: 1 -->
<!--zoomable 337 -->
<svg id="main" version="1.1" xmlns="http://www.w3.org/2000/svg" xmlns:xlink="http://www.w3.org/1999/xlink" xml:space="preserve" onload="init(evt)">
<style type="text/css"><![CDATA[
.edge:hover path { stroke: red; }
.edge:hover polygon { stroke: red; fill: red; }
]]></style>
<script type="text/javascript"><![CDATA[
var edges = document.getElementsByTagName('g');
if (edges && edges.length) {
  for (var i=0;i<edges.length;i++) {
    if (edges[i].id.substr(0,4)=='edge') {
      edges[i].setAttribute('class','edge');
    }
  }
}
]]></script>
        <defs>
                <circle id="rim" cx="0" cy="0" r="7"/>
                <circle id="rim2" cx="0" cy="0" r="3.5"/>
                <g id="zoomPlus">
                        <use xlink:href="#rim" fill="#404040">
                                <set attributeName="fill" to="#808080" begin="zoomplus.mouseover" end="zoomplus.mouseout"/>
                        </use>
                        <path d="M-4,0h8M0,-4v8" fill="none" stroke="white" stroke-width="1.5" pointer-events="none"/>
                </g>
                <g id="zoomMin">
                        <use xlink:href="#rim" fill="#404040">
                                <set attributeName="fill" to="#808080" begin="zoomminus.mouseover" end="zoomminus.mouseout"/>
                        </use>
                        <path d="M-4,0h8" fill="none" stroke="white" stroke-width="1.5" pointer-events="none"/>
                </g>
                <g id="dirArrow">
                        <path fill="none" stroke="white" stroke-width="1.5" d="M0,-3.0v7 M-2.5,-0.5L0,-3.0L2.5,-0.5"/>
                </g>
               <g id="resetDef">
                       <use xlink:href="#rim2" fill="#404040">
                               <set attributeName="fill" to="#808080" begin="reset.mouseover" end="reset.mouseout"/>
                       </use>
               </g>
        </defs>

<script type="text/javascript">
var viewWidth = 1942;
var viewHeight = 337;
var sectionId = 'dynsection-7';
</script>
<script xlink:href="../../svgpan.js"/>
<svg id="graph" class="graph">
<g id="viewport">
<title>SocketTimerClear</title>
<!-- Node1 -->
<g id="node1" class="node"><title>Node1</title>
<polygon fill="#bfbfbf" stroke="black" points="0,-37.5 0,-56.5 95,-56.5 95,-37.5 0,-37.5"/>
<text text-anchor="middle" x="47.5" y="-44.5" font-family="Helvetica,sans-Serif" font-size="10.00">SocketTimerClear</text>
</g>
<!-- Node2 -->
<g id="node2" class="node"><title>Node2</title>
<g id="a_node2"><a xlink:href="../../db/d4f/generic__networkhandler_8c.html#aea539a75995234e379a1c25019ba378f" target="_top" xlink:title="RemoveSocketTimerFromList">
<polygon fill="none" stroke="black" points="131,-66.5 131,-85.5 278,-85.5 278,-66.5 131,-66.5"/>
<text text-anchor="middle" x="204.5" y="-73.5" font-family="Helvetica,sans-Serif" font-size="10.00">RemoveSocketTimerFromList</text>
</a>
</g>
</g>
<!-- Node1&#45;&gt;Node2 -->
<g id="edge1" class="edge"><title>Node1&#45;&gt;Node2</title>
<path fill="none" stroke="midnightblue" d="M105.046,-57.5796C120.639,-60.4969 137.455,-63.6431 152.7,-66.4955"/>
<polygon fill="midnightblue" stroke="midnightblue" points="105.478,-54.0998 95.0051,-55.701 104.191,-60.9804 105.478,-54.0998"/>
</g>
<!-- Node27 -->
<g id="node27" class="node"><title>Node27</title>
<g id="a_node27"><a xlink:href="../../d1/d84/socket__timer_8h.html#a187bcd772200d8f1e4e937cb3a587782" target="_top" xlink:title="Initializes an array of Socket Timer entries. ">
<polygon fill="none" stroke="black" points="139,-9.5 139,-28.5 270,-28.5 270,-9.5 139,-9.5"/>
<text text-anchor="middle" x="204.5" y="-16.5" font-family="Helvetica,sans-Serif" font-size="10.00">SocketTimerArrayInitialize</text>
</a>
</g>
</g>
<!-- Node1&#45;&gt;Node27 -->
<g id="edge34" class="edge"><title>Node1&#45;&gt;Node27</title>
<path fill="none" stroke="midnightblue" d="M105.125,-36.771C120.043,-34.0761 136.076,-31.1799 150.779,-28.5238"/>
<polygon fill="midnightblue" stroke="midnightblue" points="104.224,-33.3771 95.0051,-38.5991 105.468,-40.2656 104.224,-33.3771"/>
</g>
<!-- Node3 -->
<g id="node3" class="node"><title>Node3</title>
<g id="a_node3"><a xlink:href="../../da/dc2/generic__networkhandler_8h.html#a1bfa5ef8e4802716459a56567ee16592" target="_top" xlink:title="CloseTcpSocket">
<polygon fill="none" stroke="black" points="331,-170.5 331,-189.5 420,-189.5 420,-170.5 331,-170.5"/>
<text text-anchor="middle" x="375.5" y="-177.5" font-family="Helvetica,sans-Serif" font-size="10.00">CloseTcpSocket</text>
</a>
</g>
</g>
<!-- Node2&#45;&gt;Node3 -->
<g id="edge2" class="edge"><title>Node2&#45;&gt;Node3</title>
<path fill="none" stroke="midnightblue" d="M229.807,-90.9583C265.07,-112.658 329.417,-152.257 358.942,-170.426"/>
<polygon fill="midnightblue" stroke="midnightblue" points="231.447,-87.8579 221.096,-85.5977 227.778,-93.8195 231.447,-87.8579"/>
</g>
<!-- Node25 -->
<g id="node25" class="node"><title>Node25</title>
<g id="a_node25"><a xlink:href="../../db/d4f/generic__networkhandler_8c.html#aca5593b7dd39d7a7b437999a367102d6" target="_top" xlink:title="Handles data on an established TCP connection, processed connection is given by socket. ">
<polygon fill="none" stroke="black" points="854,-66.5 854,-85.5 982,-85.5 982,-66.5 854,-66.5"/>
<text text-anchor="middle" x="918" y="-73.5" font-family="Helvetica,sans-Serif" font-size="10.00">HandleDataOnTcpSocket</text>
</a>
</g>
</g>
<!-- Node2&#45;&gt;Node25 -->
<g id="edge33" class="edge"><title>Node2&#45;&gt;Node25</title>
<path fill="none" stroke="midnightblue" d="M288.396,-76C432.26,-76 725.09,-76 853.851,-76"/>
<polygon fill="midnightblue" stroke="midnightblue" points="288.299,-72.5001 278.299,-76 288.299,-79.5001 288.299,-72.5001"/>
</g>
<!-- Node4 -->
<g id="node4" class="node"><title>Node4</title>
<g id="a_node4"><a xlink:href="../../db/d4f/generic__networkhandler_8c.html#ab561fc66fe48a0cf95be3d152b297dd9" target="_top" xlink:title="CheckEncapsulationInactivity">
<polygon fill="none" stroke="black" points="648,-104.5 648,-123.5 794,-123.5 794,-104.5 648,-104.5"/>
<text text-anchor="middle" x="721" y="-111.5" font-family="Helvetica,sans-Serif" font-size="10.00">CheckEncapsulationInactivity</text>
</a>
</g>
</g>
<!-- Node3&#45;&gt;Node4 -->
<g id="edge3" class="edge"><title>Node3&#45;&gt;Node4</title>
<path fill="none" stroke="midnightblue" d="M400.318,-165.243C419.264,-154.299 446.845,-140.098 473,-133 530.488,-117.399 598.068,-113.117 647.994,-112.474"/>
<polygon fill="midnightblue" stroke="midnightblue" points="398.326,-162.355 391.503,-170.46 401.892,-168.379 398.326,-162.355"/>
</g>
<!-- Node5 -->
<g id="node5" class="node"><title>Node5</title>
<g id="a_node5"><a xlink:href="../../da/dc2/generic__networkhandler_8h.html#a2f01af81d3e5018d9980e2bc28c9078a" target="_top" xlink:title="NetworkHandlerProcessOnce">
<polygon fill="none" stroke="black" points="1037,-69.5 1037,-88.5 1183,-88.5 1183,-69.5 1037,-69.5"/>
<text text-anchor="middle" x="1110" y="-76.5" font-family="Helvetica,sans-Serif" font-size="10.00">NetworkHandlerProcessOnce</text>
</a>
</g>
</g>
<!-- Node3&#45;&gt;Node5 -->
<g id="edge32" class="edge"><title>Node3&#45;&gt;Node5</title>
<path fill="none" stroke="midnightblue" d="M393.653,-163.515C411.813,-147.099 442.078,-122.583 473,-110 691.451,-21.1048 766.344,-33.3427 1001,-57 1024.8,-59.3993 1051.11,-64.7007 1071.8,-69.4981"/>
<polygon fill="midnightblue" stroke="midnightblue" points="391.16,-161.053 386.202,-170.416 395.917,-166.189 391.16,-161.053"/>
</g>
<!-- Node10 -->
<g id="node10" class="node"><title>Node10</title>
<g id="a_node10"><a xlink:href="../../d2/dc9/group__CIP__API.html#ga00a23c1c86472edf2ed679089ae8efc1" target="_top" xlink:title="Inform the encapsulation layer that the remote host has closed the connection. ">
<polygon fill="none" stroke="black" points="501.5,-230.5 501.5,-249.5 578.5,-249.5 578.5,-230.5 501.5,-230.5"/>
<text text-anchor="middle" x="540" y="-237.5" font-family="Helvetica,sans-Serif" font-size="10.00">CloseSession</text>
</a>
</g>
</g>
<!-- Node3&#45;&gt;Node10 -->
<g id="edge9" class="edge"><title>Node3&#45;&gt;Node10</title>
<path fill="none" stroke="midnightblue" d="M411.286,-193.056C429.63,-199.922 452.519,-208.456 473,-216 486.043,-220.804 500.557,-226.089 512.646,-230.473"/>
<polygon fill="midnightblue" stroke="midnightblue" points="412.468,-189.762 401.876,-189.532 410.013,-196.317 412.468,-189.762"/>
</g>
<!-- Node17 -->
<g id="node17" class="node"><title>Node17</title>
<g id="a_node17"><a xlink:href="../../d7/df9/encap_8h.html#ad083888333d3ceec1576126a88eeaca7" target="_top" xlink:title="CloseSessionBySessionHandle">
<polygon fill="none" stroke="black" points="643.5,-274.5 643.5,-293.5 798.5,-293.5 798.5,-274.5 643.5,-274.5"/>
<text text-anchor="middle" x="721" y="-281.5" font-family="Helvetica,sans-Serif" font-size="10.00">CloseSessionBySessionHandle</text>
</a>
</g>
</g>
<!-- Node3&#45;&gt;Node17 -->
<g id="edge17" class="edge"><title>Node3&#45;&gt;Node17</title>
<path fill="none" stroke="midnightblue" d="M391.467,-197.189C408.944,-215.961 439.729,-245.19 473,-259 527.039,-281.431 593.221,-287.102 643.473,-287.481"/>
<polygon fill="midnightblue" stroke="midnightblue" points="393.924,-194.689 384.617,-189.626 388.736,-199.388 393.924,-194.689"/>
</g>
<!-- Node20 -->
<g id="node20" class="node"><title>Node20</title>
<g id="a_node20"><a xlink:href="../../d4/d91/group__ENCAP.html#ga1261bd2441f744c38d7a3f8d8c16c391" target="_top" xlink:title="Shutdown the encapsulation layer. ">
<polygon fill="none" stroke="black" points="1219,-309.5 1219,-328.5 1343,-328.5 1343,-309.5 1219,-309.5"/>
<text text-anchor="middle" x="1281" y="-316.5" font-family="Helvetica,sans-Serif" font-size="10.00">EncapsulationShutDown</text>
</a>
</g>
</g>
<!-- Node3&#45;&gt;Node20 -->
<g id="edge21" class="edge"><title>Node3&#45;&gt;Node20</title>
<path fill="none" stroke="midnightblue" d="M387.345,-198.523C402.897,-223.23 434.006,-266.258 473,-287 570.888,-339.068 609.126,-322 720,-322 720,-322 720,-322 919,-322 1024.3,-322 1146.86,-320.708 1218.68,-319.82"/>
<polygon fill="midnightblue" stroke="midnightblue" points="390.187,-196.462 381.992,-189.747 384.211,-200.107 390.187,-196.462"/>
</g>
<!-- Node22 -->
<g id="node22" class="node"><title>Node22</title>
<g id="a_node22"><a xlink:href="../../d2/dbd/encap_8c.html#a601cd19c88f03fd742f098a1bf5b9e85" target="_top" xlink:title="Unregister encapsulation session. ">
<polygon fill="none" stroke="black" points="473,-143 473,-173 607,-173 607,-143 473,-143"/>
<text text-anchor="start" x="481" y="-161" font-family="Helvetica,sans-Serif" font-size="10.00">HandleReceivedUnregister</text>
<text text-anchor="middle" x="540" y="-150" font-family="Helvetica,sans-Serif" font-size="10.00">SessionCommand</text>
</a>
</g>
</g>
<!-- Node3&#45;&gt;Node22 -->
<g id="edge24" class="edge"><title>Node3&#45;&gt;Node22</title>
<path fill="none" stroke="midnightblue" d="M430.188,-172.731C443.786,-170.891 458.552,-168.891 472.693,-166.977"/>
<polygon fill="midnightblue" stroke="midnightblue" points="429.487,-169.294 420.047,-174.104 430.426,-176.231 429.487,-169.294"/>
</g>
<!-- Node26 -->
<g id="node26" class="node"><title>Node26</title>
<g id="a_node26"><a xlink:href="../../da/dc2/generic__networkhandler_8h.html#aace33c0e7aa348969492ede822183bd5" target="_top" xlink:title="NetworkHandlerFinish">
<polygon fill="none" stroke="black" points="1381,-186.5 1381,-205.5 1494,-205.5 1494,-186.5 1381,-186.5"/>
<text text-anchor="middle" x="1437.5" y="-193.5" font-family="Helvetica,sans-Serif" font-size="10.00">NetworkHandlerFinish</text>
</a>
</g>
</g>
<!-- Node3&#45;&gt;Node26 -->
<g id="edge30" class="edge"><title>Node3&#45;&gt;Node26</title>
<path fill="none" stroke="midnightblue" d="M430.442,-182.654C527.67,-187.202 738.789,-196 917,-196 917,-196 917,-196 1111,-196 1205.8,-196 1316.12,-196 1380.92,-196"/>
<polygon fill="midnightblue" stroke="midnightblue" points="430.428,-179.15 420.275,-182.174 430.098,-186.142 430.428,-179.15"/>
</g>
<!-- Node4&#45;&gt;Node5 -->
<g id="edge4" class="edge"><title>Node4&#45;&gt;Node5</title>
<path fill="none" stroke="midnightblue" d="M804.262,-110.111C859.904,-107.06 934.997,-102.125 1001,-95 1017.11,-93.2606 1034.51,-90.8983 1050.54,-88.5233"/>
<polygon fill="midnightblue" stroke="midnightblue" points="803.902,-106.625 794.106,-110.658 804.28,-113.615 803.902,-106.625"/>
</g>
<!-- Node6 -->
<g id="node6" class="node"><title>Node6</title>
<g id="a_node6"><a xlink:href="../../d9/dfb/POSIX_2main_8c.html#acd4e45a35a64f9cb29b59f63492b61d2" target="_top" xlink:title="Signal handler function for ending stack execution. ">
<polygon fill="none" stroke="black" points="1247,-107.5 1247,-126.5 1315,-126.5 1315,-107.5 1247,-107.5"/>
<text text-anchor="middle" x="1281" y="-114.5" font-family="Helvetica,sans-Serif" font-size="10.00">LeaveStack</text>
</a>
</g>
</g>
<!-- Node5&#45;&gt;Node6 -->
<g id="edge5" class="edge"><title>Node5&#45;&gt;Node6</title>
<path fill="none" stroke="midnightblue" d="M1163.43,-90.7894C1190.71,-96.9221 1223.21,-104.232 1246.96,-109.572"/>
<polygon fill="midnightblue" stroke="midnightblue" points="1164.17,-87.3681 1153.65,-88.589 1162.63,-94.1976 1164.17,-87.3681"/>
</g>
<!-- Node7 -->
<g id="node7" class="node"><title>Node7</title>
<g id="a_node7"><a xlink:href="../../d5/dcb/MINGW_2main_8c.html#ad338a7dbc41dc40bcecd0479377ef207" target="_top" xlink:title="main">
<polygon fill="none" stroke="black" points="1669,-148.5 1669,-167.5 1707,-167.5 1707,-148.5 1669,-148.5"/>
<text text-anchor="middle" x="1688" y="-155.5" font-family="Helvetica,sans-Serif" font-size="10.00">main</text>
</a>
</g>
</g>
<!-- Node5&#45;&gt;Node7 -->
<g id="edge6" class="edge"><title>Node5&#45;&gt;Node7</title>
<path fill="none" stroke="midnightblue" d="M1193.45,-82.1222C1297.28,-87.4974 1480.55,-101.793 1633,-139 1645.17,-141.969 1658.44,-146.618 1668.78,-150.574"/>
<polygon fill="midnightblue" stroke="midnightblue" points="1193.51,-78.6208 1183.34,-81.6144 1193.16,-85.612 1193.51,-78.6208"/>
</g>
<!-- Node8 -->
<g id="node8" class="node"><title>Node8</title>
<g id="a_node8"><a xlink:href="../../d8/d03/ports_2MINGW_2CMakeLists_8txt.html#a7e00df43a20d627a1732be7766d91097" target="_top" xlink:title="add_library">
<polygon fill="none" stroke="black" points="1743,-148.5 1743,-167.5 1807,-167.5 1807,-148.5 1743,-148.5"/>
<text text-anchor="middle" x="1775" y="-155.5" font-family="Helvetica,sans-Serif" font-size="10.00">add_library</text>
</a>
</g>
</g>
<!-- Node7&#45;&gt;Node8 -->
<g id="edge7" class="edge"><title>Node7&#45;&gt;Node8</title>
<path fill="none" stroke="midnightblue" d="M1717.27,-158C1725.5,-158 1734.55,-158 1742.94,-158"/>
<polygon fill="midnightblue" stroke="midnightblue" points="1717.03,-154.5 1707.03,-158 1717.03,-161.5 1717.03,-154.5"/>
</g>
<!-- Node9 -->
<g id="node9" class="node"><title>Node9</title>
<g id="a_node9"><a xlink:href="../../d8/dce/ports_2CMakeLists_8txt.html#a598fae457555a5fb26e18d4cd8f89de9" target="_top" xlink:title="add_subdirectory">
<polygon fill="none" stroke="black" points="1843,-148.5 1843,-167.5 1934,-167.5 1934,-148.5 1843,-148.5"/>
<text text-anchor="middle" x="1888.5" y="-155.5" font-family="Helvetica,sans-Serif" font-size="10.00">add_subdirectory</text>
</a>
</g>
</g>
<!-- Node8&#45;&gt;Node9 -->
<g id="edge8" class="edge"><title>Node8&#45;&gt;Node9</title>
<path fill="none" stroke="midnightblue" d="M1817.3,-158C1825.63,-158 1834.42,-158 1842.86,-158"/>
<polygon fill="midnightblue" stroke="midnightblue" points="1817.06,-154.5 1807.06,-158 1817.06,-161.5 1817.06,-154.5"/>
</g>
<!-- Node11 -->
<g id="node11" class="node"><title>Node11</title>
<g id="a_node11"><a xlink:href="../../d7/df9/encap_8h.html#a0101714be726ab1b21125b6a82ac7a56" target="_top" xlink:title="CloseEncapsulationSession\lBySockAddr">
<polygon fill="none" stroke="black" points="651.5,-225 651.5,-255 790.5,-255 790.5,-225 651.5,-225"/>
<text text-anchor="start" x="659.5" y="-243" font-family="Helvetica,sans-Serif" font-size="10.00">CloseEncapsulationSession</text>
<text text-anchor="middle" x="721" y="-232" font-family="Helvetica,sans-Serif" font-size="10.00">BySockAddr</text>
</a>
</g>
</g>
<!-- Node10&#45;&gt;Node11 -->
<g id="edge10" class="edge"><title>Node10&#45;&gt;Node11</title>
<path fill="none" stroke="midnightblue" d="M588.559,-240C607.825,-240 630.442,-240 651.432,-240"/>
<polygon fill="midnightblue" stroke="midnightblue" points="588.524,-236.5 578.524,-240 588.524,-243.5 588.524,-236.5"/>
</g>
<!-- Node12 -->
<g id="node12" class="node"><title>Node12</title>
<g id="a_node12"><a xlink:href="../../df/d03/cipioconnection_8c.html#a7e4923f4b027d489d9933b52f6fd7007" target="_top" xlink:title="HandleIoConnectionTimeOut">
<polygon fill="none" stroke="black" points="846.5,-230.5 846.5,-249.5 989.5,-249.5 989.5,-230.5 846.5,-230.5"/>
<text text-anchor="middle" x="918" y="-237.5" font-family="Helvetica,sans-Serif" font-size="10.00">HandleIoConnectionTimeOut</text>
</a>
</g>
</g>
<!-- Node11&#45;&gt;Node12 -->
<g id="edge11" class="edge"><title>Node11&#45;&gt;Node12</title>
<path fill="none" stroke="midnightblue" d="M800.998,-240C815.967,-240 831.54,-240 846.234,-240"/>
<polygon fill="midnightblue" stroke="midnightblue" points="800.75,-236.5 790.75,-240 800.75,-243.5 800.75,-236.5"/>
</g>
<!-- Node13 -->
<g id="node13" class="node"><title>Node13</title>
<g id="a_node13"><a xlink:href="../../df/d03/cipioconnection_8c.html#ab3282f146a3ea91c90cf14c32206ee8c" target="_top" xlink:title="SetIoConnectionCallbacks">
<polygon fill="none" stroke="black" points="1043.5,-230.5 1043.5,-249.5 1176.5,-249.5 1176.5,-230.5 1043.5,-230.5"/>
<text text-anchor="middle" x="1110" y="-237.5" font-family="Helvetica,sans-Serif" font-size="10.00">SetIoConnectionCallbacks</text>
</a>
</g>
</g>
<!-- Node12&#45;&gt;Node13 -->
<g id="edge12" class="edge"><title>Node12&#45;&gt;Node13</title>
<path fill="none" stroke="midnightblue" d="M1000.13,-240C1014.51,-240 1029.33,-240 1043.22,-240"/>
<polygon fill="midnightblue" stroke="midnightblue" points="999.749,-236.5 989.749,-240 999.749,-243.5 999.749,-236.5"/>
</g>
<!-- Node14 -->
<g id="node14" class="node"><title>Node14</title>
<g id="a_node14"><a xlink:href="../../de/d45/cipioconnection_8h.html#a43e270b3f9b9f6296b12285c320c95aa" target="_top" xlink:title="Setup all data in order to establish an IO connection. ">
<polygon fill="none" stroke="black" points="1223.5,-230.5 1223.5,-249.5 1338.5,-249.5 1338.5,-230.5 1223.5,-230.5"/>
<text text-anchor="middle" x="1281" y="-237.5" font-family="Helvetica,sans-Serif" font-size="10.00">EstablishIoConnection</text>
</a>
</g>
</g>
<!-- Node13&#45;&gt;Node14 -->
<g id="edge13" class="edge"><title>Node13&#45;&gt;Node14</title>
<path fill="none" stroke="midnightblue" d="M1187.02,-240C1199.26,-240 1211.73,-240 1223.41,-240"/>
<polygon fill="midnightblue" stroke="midnightblue" points="1186.82,-236.5 1176.82,-240 1186.82,-243.5 1186.82,-236.5"/>
</g>
<!-- Node15 -->
<g id="node15" class="node"><title>Node15</title>
<g id="a_node15"><a xlink:href="../../d2/da3/cipconnectionmanager_8h.html#a5ab0de6894d23e8fe84a6b46797c2212" target="_top" xlink:title="Initialize the data of the connection manager object. ">
<polygon fill="none" stroke="black" points="1379,-230.5 1379,-249.5 1496,-249.5 1496,-230.5 1379,-230.5"/>
<text text-anchor="middle" x="1437.5" y="-237.5" font-family="Helvetica,sans-Serif" font-size="10.00">ConnectionManagerInit</text>
</a>
</g>
</g>
<!-- Node14&#45;&gt;Node15 -->
<g id="edge14" class="edge"><title>Node14&#45;&gt;Node15</title>
<path fill="none" stroke="midnightblue" d="M1348.92,-240C1358.88,-240 1369.07,-240 1378.82,-240"/>
<polygon fill="midnightblue" stroke="midnightblue" points="1348.65,-236.5 1338.65,-240 1348.65,-243.5 1348.65,-236.5"/>
</g>
<!-- Node16 -->
<g id="node16" class="node"><title>Node16</title>
<g id="a_node16"><a xlink:href="../../d2/dc9/group__CIP__API.html#ga5d4979945d124e28668b264c3823db1c" target="_top" xlink:title="Initialize and setup the CIP&#45;stack. ">
<polygon fill="none" stroke="black" points="1547,-148.5 1547,-167.5 1618,-167.5 1618,-148.5 1547,-148.5"/>
<text text-anchor="middle" x="1582.5" y="-155.5" font-family="Helvetica,sans-Serif" font-size="10.00">CipStackInit</text>
</a>
</g>
</g>
<!-- Node15&#45;&gt;Node16 -->
<g id="edge15" class="edge"><title>Node15&#45;&gt;Node16</title>
<path fill="none" stroke="midnightblue" d="M1472.36,-226.469C1480.25,-222.992 1488.53,-219.074 1496,-215 1522.94,-200.314 1552.28,-179.632 1568.63,-167.64"/>
<polygon fill="midnightblue" stroke="midnightblue" points="1470.83,-223.319 1463.02,-230.473 1473.59,-229.754 1470.83,-223.319"/>
</g>
<!-- Node16&#45;&gt;Node7 -->
<g id="edge16" class="edge"><title>Node16&#45;&gt;Node7</title>
<path fill="none" stroke="midnightblue" d="M1628.41,-158C1642.62,-158 1657.53,-158 1668.75,-158"/>
<polygon fill="midnightblue" stroke="midnightblue" points="1628.25,-154.5 1618.25,-158 1628.25,-161.5 1628.25,-154.5"/>
</g>
<!-- Node18 -->
<g id="node18" class="node"><title>Node18</title>
<g id="a_node18"><a xlink:href="../../dc/d93/cipclass3connection_8c.html#a6053ab7004c1419bd80faf9aca54bfd3" target="_top" xlink:title="Class3ConnectionTimeoutHandler">
<polygon fill="none" stroke="black" points="835,-274.5 835,-293.5 1001,-293.5 1001,-274.5 835,-274.5"/>
<text text-anchor="middle" x="918" y="-281.5" font-family="Helvetica,sans-Serif" font-size="10.00">Class3ConnectionTimeoutHandler</text>
</a>
</g>
</g>
<!-- Node17&#45;&gt;Node18 -->
<g id="edge18" class="edge"><title>Node17&#45;&gt;Node18</title>
<path fill="none" stroke="midnightblue" d="M808.68,-284C817.405,-284 826.246,-284 834.921,-284"/>
<polygon fill="midnightblue" stroke="midnightblue" points="808.51,-280.5 798.509,-284 808.509,-287.5 808.51,-280.5"/>
</g>
<!-- Node19 -->
<g id="node19" class="node"><title>Node19</title>
<g id="a_node19"><a xlink:href="../../d2/d11/cipclass3connection_8h.html#a45bd741b44137164c07a6ce09a7a9a9d" target="_top" xlink:title="Check if Class3 connection is available and if yes setup all data. ">
<polygon fill="none" stroke="black" points="1041.5,-271.5 1041.5,-290.5 1178.5,-290.5 1178.5,-271.5 1041.5,-271.5"/>
<text text-anchor="middle" x="1110" y="-278.5" font-family="Helvetica,sans-Serif" font-size="10.00">EstablishClass3Connection</text>
</a>
</g>
</g>
<!-- Node18&#45;&gt;Node19 -->
<g id="edge19" class="edge"><title>Node18&#45;&gt;Node19</title>
<path fill="none" stroke="midnightblue" d="M1011.36,-282.542C1021.52,-282.381 1031.72,-282.22 1041.49,-282.066"/>
<polygon fill="midnightblue" stroke="midnightblue" points="1011.18,-279.044 1001.23,-282.702 1011.29,-286.043 1011.18,-279.044"/>
</g>
<!-- Node19&#45;&gt;Node15 -->
<g id="edge20" class="edge"><title>Node19&#45;&gt;Node15</title>
<path fill="none" stroke="midnightblue" d="M1188.76,-275.694C1233.93,-272.097 1291.84,-266.602 1343,-259 1359.88,-256.492 1378.31,-252.927 1394.31,-249.561"/>
<polygon fill="midnightblue" stroke="midnightblue" points="1188.44,-272.209 1178.74,-276.478 1188.98,-279.188 1188.44,-272.209"/>
</g>
<!-- Node21 -->
<g id="node21" class="node"><title>Node21</title>
<g id="a_node21"><a xlink:href="../../d2/dc9/group__CIP__API.html#gaa57b527530adc2acda6febc500fd6831" target="_top" xlink:title="Shutdown of the CIP stack. ">
<polygon fill="none" stroke="black" points="1532,-256.5 1532,-275.5 1633,-275.5 1633,-256.5 1532,-256.5"/>
<text text-anchor="middle" x="1582.5" y="-263.5" font-family="Helvetica,sans-Serif" font-size="10.00">ShutdownCipStack</text>
</a>
</g>
</g>
<!-- Node20&#45;&gt;Node21 -->
<g id="edge22" class="edge"><title>Node20&#45;&gt;Node21</title>
<path fill="none" stroke="midnightblue" d="M1345.96,-307.681C1401.43,-297.865 1480.6,-283.855 1531.53,-274.843"/>
<polygon fill="midnightblue" stroke="midnightblue" points="1345.13,-304.274 1335.89,-309.463 1346.35,-311.167 1345.13,-304.274"/>
</g>
<!-- Node21&#45;&gt;Node7 -->
<g id="edge23" class="edge"><title>Node21&#45;&gt;Node7</title>
<path fill="none" stroke="midnightblue" d="M1599.69,-249.102C1621.63,-226.214 1660.06,-186.111 1677.69,-167.718"/>
<polygon fill="midnightblue" stroke="midnightblue" points="1597.08,-246.774 1592.68,-256.416 1602.13,-251.617 1597.08,-246.774"/>
</g>
<!-- Node23 -->
<g id="node23" class="node"><title>Node23</title>
<g id="a_node23"><a xlink:href="../../d2/dc9/group__CIP__API.html#ga4b8ec8e9b8a1dd71e84f2ea54e1c2b2d" target="_top" xlink:title="Notify the encapsulation layer that an explicit message has been received via TCP. ">
<polygon fill="none" stroke="black" points="643,-148.5 643,-167.5 799,-167.5 799,-148.5 643,-148.5"/>
<text text-anchor="middle" x="721" y="-155.5" font-family="Helvetica,sans-Serif" font-size="10.00">HandleReceivedExplictTcpData</text>
</a>
</g>
</g>
<!-- Node22&#45;&gt;Node23 -->
<g id="edge25" class="edge"><title>Node22&#45;&gt;Node23</title>
<path fill="none" stroke="midnightblue" d="M617.37,-158C625.836,-158 634.462,-158 642.936,-158"/>
<polygon fill="midnightblue" stroke="midnightblue" points="617.144,-154.5 607.144,-158 617.144,-161.5 617.144,-154.5"/>
</g>
<!-- Node24 -->
<g id="node24" class="node"><title>Node24</title>
<g id="a_node24"><a xlink:href="../../d4/d91/group__ENCAP.html#ga7a0dc2be6c485d9e6940d5b20a981022" target="_top" xlink:title="Initialize the encapsulation layer. ">
<polygon fill="none" stroke="black" points="1391.5,-148.5 1391.5,-167.5 1483.5,-167.5 1483.5,-148.5 1391.5,-148.5"/>
<text text-anchor="middle" x="1437.5" y="-155.5" font-family="Helvetica,sans-Serif" font-size="10.00">EncapsulationInit</text>
</a>
</g>
</g>
<!-- Node23&#45;&gt;Node24 -->
<g id="edge26" class="edge"><title>Node23&#45;&gt;Node24</title>
<path fill="none" stroke="midnightblue" d="M809.457,-158C962.801,-158 1274.94,-158 1391.38,-158"/>
<polygon fill="midnightblue" stroke="midnightblue" points="809.143,-154.5 799.143,-158 809.143,-161.5 809.143,-154.5"/>
</g>
<!-- Node23&#45;&gt;Node25 -->
<g id="edge28" class="edge"><title>Node23&#45;&gt;Node25</title>
<path fill="none" stroke="midnightblue" d="M764.611,-145.308C775.901,-141.636 788.005,-137.417 799,-133 835.312,-118.414 876.097,-97.6971 898.952,-85.6722"/>
<polygon fill="midnightblue" stroke="midnightblue" points="763.413,-142.016 754.947,-148.386 765.538,-148.686 763.413,-142.016"/>
</g>
<!-- Node24&#45;&gt;Node16 -->
<g id="edge27" class="edge"><title>Node24&#45;&gt;Node16</title>
<path fill="none" stroke="midnightblue" d="M1493.8,-158C1511.7,-158 1531.03,-158 1546.97,-158"/>
<polygon fill="midnightblue" stroke="midnightblue" points="1493.75,-154.5 1483.75,-158 1493.75,-161.5 1493.75,-154.5"/>
</g>
<!-- Node25&#45;&gt;Node5 -->
<g id="edge29" class="edge"><title>Node25&#45;&gt;Node5</title>
<path fill="none" stroke="midnightblue" d="M992.064,-77.1536C1006.79,-77.3862 1022.27,-77.6306 1036.97,-77.8626"/>
<polygon fill="midnightblue" stroke="midnightblue" points="992.057,-73.6532 982.003,-76.9948 991.947,-80.6523 992.057,-73.6532"/>
</g>
<!-- Node26&#45;&gt;Node7 -->
<g id="edge31" class="edge"><title>Node26&#45;&gt;Node7</title>
<path fill="none" stroke="midnightblue" d="M1504.79,-193.486C1542.69,-191.066 1590.91,-186.317 1633,-177 1645.23,-174.294 1658.5,-169.649 1668.83,-165.629"/>
<polygon fill="midnightblue" stroke="midnightblue" points="1504.16,-190.017 1494.39,-194.109 1504.58,-197.005 1504.16,-190.017"/>
</g>
<!-- Node28 -->
<g id="node28" class="node"><title>Node28</title>
<g id="a_node28"><a xlink:href="../../da/dc2/generic__networkhandler_8h.html#aa49065f73f4d0f0ab04fb0b35d791e5d" target="_top" xlink:title="The platform independent part of network handler initialization routine. ">
<polygon fill="none" stroke="black" points="314,-0.5 314,-19.5 437,-19.5 437,-0.5 314,-0.5"/>
<text text-anchor="middle" x="375.5" y="-7.5" font-family="Helvetica,sans-Serif" font-size="10.00">NetworkHandlerInitialize</text>
</a>
</g>
</g>
<!-- Node27&#45;&gt;Node28 -->
<g id="edge35" class="edge"><title>Node27&#45;&gt;Node28</title>
<path fill="none" stroke="midnightblue" d="M280.544,-15.0036C291.731,-14.4078 303.142,-13.8001 313.979,-13.223"/>
<polygon fill="midnightblue" stroke="midnightblue" points="280.156,-11.5192 270.356,-15.5461 280.528,-18.5093 280.156,-11.5192"/>
</g>
<!-- Node28&#45;&gt;Node7 -->
<g id="edge36" class="edge"><title>Node28&#45;&gt;Node7</title>
<path fill="none" stroke="midnightblue" d="M447.672,-6.71978C517.128,-3.80412 625.799,-0 720,-0 720,-0 720,-0 1438.5,-0 1549.44,-0 1650.85,-113.526 1679.18,-148.116"/>
<polygon fill="midnightblue" stroke="midnightblue" points="447.135,-3.23936 437.293,-7.16115 447.433,-10.233 447.135,-3.23936"/>
</g>
</g>
</svg>
        <g id="navigator" transform="translate(0 0)" fill="#404254">
                <rect fill="#f2f5e9" fill-opacity="0.5" stroke="#606060" stroke-width=".5" x="0" y="0" width="60" height="60"/>
                <use id="zoomplus" xlink:href="#zoomPlus" x="17" y="9" onmousedown="handleZoom(evt,'in')"/>
                <use id="zoomminus" xlink:href="#zoomMin" x="42" y="9" onmousedown="handleZoom(evt,'out')"/>
                <use id="reset" xlink:href="#resetDef" x="30" y="36" onmousedown="handleReset()"/>
                <g id="arrowUp" xlink:href="#dirArrow" transform="translate(30 24)" onmousedown="handlePan(0,-1)">
                  <use xlink:href="#rim" fill="#404040">
                        <set attributeName="fill" to="#808080" begin="arrowUp.mouseover" end="arrowUp.mouseout"/>
                  </use>
                  <path fill="none" stroke="white" stroke-width="1.5" d="M0,-3.0v7 M-2.5,-0.5L0,-3.0L2.5,-0.5"/>
                </g>
                <g id="arrowRight" xlink:href="#dirArrow" transform="rotate(90) translate(36 -43)" onmousedown="handlePan(1,0)">
                  <use xlink:href="#rim" fill="#404040">
                        <set attributeName="fill" to="#808080" begin="arrowRight.mouseover" end="arrowRight.mouseout"/>
                  </use>
                  <path fill="none" stroke="white" stroke-width="1.5" d="M0,-3.0v7 M-2.5,-0.5L0,-3.0L2.5,-0.5"/>
                </g>
                <g id="arrowDown" xlink:href="#dirArrow" transform="rotate(180) translate(-30 -48)" onmousedown="handlePan(0,1)">
                  <use xlink:href="#rim" fill="#404040">
                        <set attributeName="fill" to="#808080" begin="arrowDown.mouseover" end="arrowDown.mouseout"/>
                  </use>
                  <path fill="none" stroke="white" stroke-width="1.5" d="M0,-3.0v7 M-2.5,-0.5L0,-3.0L2.5,-0.5"/>
                </g>
                <g id="arrowLeft" xlink:href="#dirArrow" transform="rotate(270) translate(-36 17)" onmousedown="handlePan(-1,0)">
                  <use xlink:href="#rim" fill="#404040">
                        <set attributeName="fill" to="#808080" begin="arrowLeft.mouseover" end="arrowLeft.mouseout"/>
                  </use>
                  <path fill="none" stroke="white" stroke-width="1.5" d="M0,-3.0v7 M-2.5,-0.5L0,-3.0L2.5,-0.5"/>
                </g>
        </g>
        <svg viewBox="0 0 15 15" width="100%" height="30px" preserveAspectRatio="xMaxYMin meet">
         <g id="arrow_out" transform="scale(0.3 0.3)">
          <a xlink:href="socket__timer_8h_a6130830815ae46fe4e6d45cf89bc3506_icgraph_org.svg" target="_base">
           <rect id="button" ry="5" rx="5" y="6" x="6" height="38" width="38"
                fill="#f2f5e9" fill-opacity="0.5" stroke="#606060" stroke-width="1.0"/>
           <path id="arrow"
             d="M 11.500037,31.436501 C 11.940474,20.09759 22.043105,11.32322 32.158766,21.979434 L 37.068811,17.246167 C 37.068811,17.246167 37.088388,32 37.088388,32 L 22.160133,31.978069 C 22.160133,31.978069 26.997745,27.140456 26.997745,27.140456 C 18.528582,18.264221 13.291696,25.230495 11.500037,31.436501 z"
             style="fill:#404040;"/>
          </a>
         </g>
        </svg>
</svg>
