<?xml version="1.0" encoding="UTF-8" standalone="no"?>
<!DOCTYPE svg PUBLIC "-//W3C//DTD SVG 1.1//EN"
 "http://www.w3.org/Graphics/SVG/1.1/DTD/svg11.dtd">
<!-- Generated by graphviz version 2.38.0 (20140413.2041)
 -->
<!-- Title: SocketTimerArrayGetSocketTimer Pages: 1 -->
<svg width="2024pt" height="422pt"
 viewBox="0.00 0.00 2024.00 421.52" xmlns="http://www.w3.org/2000/svg" xmlns:xlink="http://www.w3.org/1999/xlink">
<g id="graph0" class="graph" transform="scale(1 1) rotate(0) translate(4 417.515)">
<title>SocketTimerArrayGetSocketTimer</title>
<!-- Node1 -->
<g id="node1" class="node"><title>Node1</title>
<polygon fill="#bfbfbf" stroke="black" points="0,-298.015 0,-328.015 142,-328.015 142,-298.015 0,-298.015"/>
<text text-anchor="start" x="8" y="-316.015" font-family="Helvetica,sans-Serif" font-size="10.00">SocketTimerArrayGetSocket</text>
<text text-anchor="middle" x="71" y="-305.015" font-family="Helvetica,sans-Serif" font-size="10.00">Timer</text>
</g>
<!-- Node2 -->
<g id="node2" class="node"><title>Node2</title>
<g id="a_node2"><a xlink:href="../../db/d4f/generic__networkhandler_8c.html#ab561fc66fe48a0cf95be3d152b297dd9" target="_top" xlink:title="CheckEncapsulationInactivity">
<polygon fill="none" stroke="black" points="544.5,-322.515 544.5,-341.515 690.5,-341.515 690.5,-322.515 544.5,-322.515"/>
<text text-anchor="middle" x="617.5" y="-329.515" font-family="Helvetica,sans-Serif" font-size="10.00">CheckEncapsulationInactivity</text>
</a>
</g>
</g>
<!-- Node1&#45;&gt;Node2 -->
<g id="edge1" class="edge"><title>Node1&#45;&gt;Node2</title>
<path fill="none" stroke="midnightblue" d="M152.367,-315.819C258.127,-319.51 442.47,-325.942 544.1,-329.489"/>
<polygon fill="midnightblue" stroke="midnightblue" points="152.185,-312.311 142.069,-315.46 151.941,-319.307 152.185,-312.311"/>
</g>
<!-- Node8 -->
<g id="node8" class="node"><title>Node8</title>
<g id="a_node8"><a xlink:href="../../db/d4f/generic__networkhandler_8c.html#aca5593b7dd39d7a7b437999a367102d6" target="_top" xlink:title="Handles data on an established TCP connection, processed connection is given by socket. ">
<polygon fill="none" stroke="black" points="944,-246.515 944,-265.515 1072,-265.515 1072,-246.515 944,-246.515"/>
<text text-anchor="middle" x="1008" y="-253.515" font-family="Helvetica,sans-Serif" font-size="10.00">HandleDataOnTcpSocket</text>
</a>
</g>
</g>
<!-- Node1&#45;&gt;Node8 -->
<g id="edge7" class="edge"><title>Node1&#45;&gt;Node8</title>
<path fill="none" stroke="midnightblue" d="M152.228,-306.319C224.741,-300.849 334.443,-294.015 430,-294.015 430,-294.015 430,-294.015 618.5,-294.015 735.233,-294.015 870.764,-276.811 946.947,-265.555"/>
<polygon fill="midnightblue" stroke="midnightblue" points="151.953,-302.83 142.249,-307.081 152.486,-309.81 151.953,-302.83"/>
</g>
<!-- Node9 -->
<g id="node9" class="node"><title>Node9</title>
<g id="a_node9"><a xlink:href="../../db/d4f/generic__networkhandler_8c.html#aea539a75995234e379a1c25019ba378f" target="_top" xlink:title="RemoveSocketTimerFromList">
<polygon fill="none" stroke="black" points="178,-246.515 178,-265.515 325,-265.515 325,-246.515 178,-246.515"/>
<text text-anchor="middle" x="251.5" y="-253.515" font-family="Helvetica,sans-Serif" font-size="10.00">RemoveSocketTimerFromList</text>
</a>
</g>
</g>
<!-- Node1&#45;&gt;Node9 -->
<g id="edge9" class="edge"><title>Node1&#45;&gt;Node9</title>
<path fill="none" stroke="midnightblue" d="M129.023,-294.806C159.457,-285.088 195.667,-273.525 220.589,-265.566"/>
<polygon fill="midnightblue" stroke="midnightblue" points="127.827,-291.514 119.366,-297.89 129.957,-298.182 127.827,-291.514"/>
</g>
<!-- Node27 -->
<g id="node27" class="node"><title>Node27</title>
<g id="a_node27"><a xlink:href="../../d1/d84/socket__timer_8h.html#a28bbdc758808db0e7f034aff98e5f6b3" target="_top" xlink:title="Get an empty Socket Timer entry. ">
<polygon fill="none" stroke="black" points="361,-361.015 361,-391.015 501,-391.015 501,-361.015 361,-361.015"/>
<text text-anchor="start" x="369" y="-379.015" font-family="Helvetica,sans-Serif" font-size="10.00">SocketTimerArrayGetEmpty</text>
<text text-anchor="middle" x="431" y="-368.015" font-family="Helvetica,sans-Serif" font-size="10.00">SocketTimer</text>
</a>
</g>
</g>
<!-- Node1&#45;&gt;Node27 -->
<g id="edge36" class="edge"><title>Node1&#45;&gt;Node27</title>
<path fill="none" stroke="midnightblue" d="M123.859,-331.243C140.927,-336.68 160.115,-342.2 178,-346.015 239.187,-359.066 310.03,-366.869 360.99,-371.23"/>
<polygon fill="midnightblue" stroke="midnightblue" points="124.672,-327.827 114.08,-328.065 122.508,-334.484 124.672,-327.827"/>
</g>
<!-- Node3 -->
<g id="node3" class="node"><title>Node3</title>
<g id="a_node3"><a xlink:href="../../da/dc2/generic__networkhandler_8h.html#a2f01af81d3e5018d9980e2bc28c9078a" target="_top" xlink:title="NetworkHandlerProcessOnce">
<polygon fill="none" stroke="black" points="1116,-246.515 1116,-265.515 1262,-265.515 1262,-246.515 1116,-246.515"/>
<text text-anchor="middle" x="1189" y="-253.515" font-family="Helvetica,sans-Serif" font-size="10.00">NetworkHandlerProcessOnce</text>
</a>
</g>
</g>
<!-- Node2&#45;&gt;Node3 -->
<g id="edge2" class="edge"><title>Node2&#45;&gt;Node3</title>
<path fill="none" stroke="midnightblue" d="M700.99,-327.023C757.218,-323.12 833.284,-316.862 900,-308.015 986.38,-296.56 1086.28,-277.116 1142.81,-265.527"/>
<polygon fill="midnightblue" stroke="midnightblue" points="700.466,-323.55 690.728,-327.724 700.944,-330.534 700.466,-323.55"/>
</g>
<!-- Node4 -->
<g id="node4" class="node"><title>Node4</title>
<g id="a_node4"><a xlink:href="../../d9/dfb/POSIX_2main_8c.html#acd4e45a35a64f9cb29b59f63492b61d2" target="_top" xlink:title="Signal handler function for ending stack execution. ">
<polygon fill="none" stroke="black" points="1321.5,-208.515 1321.5,-227.515 1389.5,-227.515 1389.5,-208.515 1321.5,-208.515"/>
<text text-anchor="middle" x="1355.5" y="-215.515" font-family="Helvetica,sans-Serif" font-size="10.00">LeaveStack</text>
</a>
</g>
</g>
<!-- Node3&#45;&gt;Node4 -->
<g id="edge3" class="edge"><title>Node3&#45;&gt;Node4</title>
<path fill="none" stroke="midnightblue" d="M1241.59,-244.097C1267.62,-238.084 1298.43,-230.967 1321.29,-225.688"/>
<polygon fill="midnightblue" stroke="midnightblue" points="1240.47,-240.765 1231.51,-246.426 1242.04,-247.585 1240.47,-240.765"/>
</g>
<!-- Node5 -->
<g id="node5" class="node"><title>Node5</title>
<g id="a_node5"><a xlink:href="../../d5/dcb/MINGW_2main_8c.html#ad338a7dbc41dc40bcecd0479377ef207" target="_top" xlink:title="main">
<polygon fill="none" stroke="black" points="1751,-66.5151 1751,-85.5151 1789,-85.5151 1789,-66.5151 1751,-66.5151"/>
<text text-anchor="middle" x="1770" y="-73.5151" font-family="Helvetica,sans-Serif" font-size="10.00">main</text>
</a>
</g>
</g>
<!-- Node3&#45;&gt;Node5 -->
<g id="edge4" class="edge"><title>Node3&#45;&gt;Node5</title>
<path fill="none" stroke="midnightblue" d="M1272.21,-254.917C1314.73,-252.87 1367.18,-248.028 1413,-237.015 1553.91,-203.145 1587.81,-183.496 1715,-114.015 1730.29,-105.661 1746.46,-93.8312 1757.08,-85.5979"/>
<polygon fill="midnightblue" stroke="midnightblue" points="1272.02,-251.422 1262.18,-255.357 1272.33,-258.415 1272.02,-251.422"/>
</g>
<!-- Node6 -->
<g id="node6" class="node"><title>Node6</title>
<g id="a_node6"><a xlink:href="../../d8/d03/ports_2MINGW_2CMakeLists_8txt.html#a7e00df43a20d627a1732be7766d91097" target="_top" xlink:title="add_library">
<polygon fill="none" stroke="black" points="1825,-66.5151 1825,-85.5151 1889,-85.5151 1889,-66.5151 1825,-66.5151"/>
<text text-anchor="middle" x="1857" y="-73.5151" font-family="Helvetica,sans-Serif" font-size="10.00">add_library</text>
</a>
</g>
</g>
<!-- Node5&#45;&gt;Node6 -->
<g id="edge5" class="edge"><title>Node5&#45;&gt;Node6</title>
<path fill="none" stroke="midnightblue" d="M1799.27,-76.0151C1807.5,-76.0151 1816.55,-76.0151 1824.94,-76.0151"/>
<polygon fill="midnightblue" stroke="midnightblue" points="1799.03,-72.5151 1789.03,-76.0151 1799.03,-79.5151 1799.03,-72.5151"/>
</g>
<!-- Node7 -->
<g id="node7" class="node"><title>Node7</title>
<g id="a_node7"><a xlink:href="../../d8/dce/ports_2CMakeLists_8txt.html#a598fae457555a5fb26e18d4cd8f89de9" target="_top" xlink:title="add_subdirectory">
<polygon fill="none" stroke="black" points="1925,-66.5151 1925,-85.5151 2016,-85.5151 2016,-66.5151 1925,-66.5151"/>
<text text-anchor="middle" x="1970.5" y="-73.5151" font-family="Helvetica,sans-Serif" font-size="10.00">add_subdirectory</text>
</a>
</g>
</g>
<!-- Node6&#45;&gt;Node7 -->
<g id="edge6" class="edge"><title>Node6&#45;&gt;Node7</title>
<path fill="none" stroke="midnightblue" d="M1899.3,-76.0151C1907.63,-76.0151 1916.42,-76.0151 1924.86,-76.0151"/>
<polygon fill="midnightblue" stroke="midnightblue" points="1899.06,-72.5151 1889.06,-76.0151 1899.06,-79.5151 1899.06,-72.5151"/>
</g>
<!-- Node8&#45;&gt;Node3 -->
<g id="edge8" class="edge"><title>Node8&#45;&gt;Node3</title>
<path fill="none" stroke="midnightblue" d="M1082.23,-256.015C1093.37,-256.015 1104.87,-256.015 1115.99,-256.015"/>
<polygon fill="midnightblue" stroke="midnightblue" points="1082.11,-252.515 1072.11,-256.015 1082.11,-259.515 1082.11,-252.515"/>
</g>
<!-- Node9&#45;&gt;Node8 -->
<g id="edge35" class="edge"><title>Node9&#45;&gt;Node8</title>
<path fill="none" stroke="midnightblue" d="M335.398,-256.015C487.463,-256.015 807.842,-256.015 943.822,-256.015"/>
<polygon fill="midnightblue" stroke="midnightblue" points="335.187,-252.515 325.187,-256.015 335.187,-259.515 335.187,-252.515"/>
</g>
<!-- Node10 -->
<g id="node10" class="node"><title>Node10</title>
<g id="a_node10"><a xlink:href="../../da/dc2/generic__networkhandler_8h.html#a1bfa5ef8e4802716459a56567ee16592" target="_top" xlink:title="CloseTcpSocket">
<polygon fill="none" stroke="black" points="386.5,-139.515 386.5,-158.515 475.5,-158.515 475.5,-139.515 386.5,-139.515"/>
<text text-anchor="middle" x="431" y="-146.515" font-family="Helvetica,sans-Serif" font-size="10.00">CloseTcpSocket</text>
</a>
</g>
</g>
<!-- Node9&#45;&gt;Node10 -->
<g id="edge10" class="edge"><title>Node9&#45;&gt;Node10</title>
<path fill="none" stroke="midnightblue" d="M277.254,-241.093C314.289,-218.767 383.078,-177.3 414.099,-158.6"/>
<polygon fill="midnightblue" stroke="midnightblue" points="275.322,-238.171 268.565,-246.331 278.936,-244.166 275.322,-238.171"/>
</g>
<!-- Node10&#45;&gt;Node2 -->
<g id="edge11" class="edge"><title>Node10&#45;&gt;Node2</title>
<path fill="none" stroke="midnightblue" d="M448.856,-165.734C486.486,-203.058 576.39,-292.231 606.488,-322.085"/>
<polygon fill="midnightblue" stroke="midnightblue" points="451.224,-163.153 441.66,-158.596 446.295,-168.123 451.224,-163.153"/>
</g>
<!-- Node10&#45;&gt;Node3 -->
<g id="edge34" class="edge"><title>Node10&#45;&gt;Node3</title>
<path fill="none" stroke="midnightblue" d="M485.919,-152.996C573.223,-159.815 750.807,-175.234 900,-198.015 988.486,-211.527 1091,-233.771 1146.73,-246.425"/>
<polygon fill="midnightblue" stroke="midnightblue" points="485.968,-149.489 475.728,-152.207 485.428,-156.468 485.968,-149.489"/>
</g>
<!-- Node11 -->
<g id="node11" class="node"><title>Node11</title>
<g id="a_node11"><a xlink:href="../../d2/dc9/group__CIP__API.html#ga00a23c1c86472edf2ed679089ae8efc1" target="_top" xlink:title="Inform the encapsulation layer that the remote host has closed the connection. ">
<polygon fill="none" stroke="black" points="579,-82.5151 579,-101.515 656,-101.515 656,-82.5151 579,-82.5151"/>
<text text-anchor="middle" x="617.5" y="-89.5151" font-family="Helvetica,sans-Serif" font-size="10.00">CloseSession</text>
</a>
</g>
</g>
<!-- Node10&#45;&gt;Node11 -->
<g id="edge12" class="edge"><title>Node10&#45;&gt;Node11</title>
<path fill="none" stroke="midnightblue" d="M465.429,-135.826C485.901,-128.023 512.741,-118.279 537,-111.015 550.459,-106.985 565.397,-103.231 578.658,-100.142"/>
<polygon fill="midnightblue" stroke="midnightblue" points="464.007,-132.623 455.931,-139.481 466.521,-139.156 464.007,-132.623"/>
</g>
<!-- Node18 -->
<g id="node18" class="node"><title>Node18</title>
<g id="a_node18"><a xlink:href="../../d7/df9/encap_8h.html#ad083888333d3ceec1576126a88eeaca7" target="_top" xlink:title="CloseSessionBySessionHandle">
<polygon fill="none" stroke="black" points="540,-120.515 540,-139.515 695,-139.515 695,-120.515 540,-120.515"/>
<text text-anchor="middle" x="617.5" y="-127.515" font-family="Helvetica,sans-Serif" font-size="10.00">CloseSessionBySessionHandle</text>
</a>
</g>
</g>
<!-- Node10&#45;&gt;Node18 -->
<g id="edge20" class="edge"><title>Node10&#45;&gt;Node18</title>
<path fill="none" stroke="midnightblue" d="M485.935,-143.461C502.808,-141.723 521.76,-139.771 539.883,-137.905"/>
<polygon fill="midnightblue" stroke="midnightblue" points="485.313,-140.006 475.724,-144.512 486.03,-146.969 485.313,-140.006"/>
</g>
<!-- Node21 -->
<g id="node21" class="node"><title>Node21</title>
<g id="a_node21"><a xlink:href="../../d4/d91/group__ENCAP.html#ga1261bd2441f744c38d7a3f8d8c16c391" target="_top" xlink:title="Shutdown the encapsulation layer. ">
<polygon fill="none" stroke="black" points="555.5,-41.5151 555.5,-60.5151 679.5,-60.5151 679.5,-41.5151 555.5,-41.5151"/>
<text text-anchor="middle" x="617.5" y="-48.5151" font-family="Helvetica,sans-Serif" font-size="10.00">EncapsulationShutDown</text>
</a>
</g>
</g>
<!-- Node10&#45;&gt;Node21 -->
<g id="edge24" class="edge"><title>Node10&#45;&gt;Node21</title>
<path fill="none" stroke="midnightblue" d="M450.186,-132.703C470.157,-115.579 503.817,-88.9729 537,-73.0151 547.712,-67.8637 559.835,-63.74 571.328,-60.5192"/>
<polygon fill="midnightblue" stroke="midnightblue" points="447.741,-130.191 442.507,-139.402 452.343,-135.466 447.741,-130.191"/>
</g>
<!-- Node23 -->
<g id="node23" class="node"><title>Node23</title>
<g id="a_node23"><a xlink:href="../../d2/dbd/encap_8c.html#a601cd19c88f03fd742f098a1bf5b9e85" target="_top" xlink:title="Unregister encapsulation session. ">
<polygon fill="none" stroke="black" points="550.5,-197.015 550.5,-227.015 684.5,-227.015 684.5,-197.015 550.5,-197.015"/>
<text text-anchor="start" x="558.5" y="-215.015" font-family="Helvetica,sans-Serif" font-size="10.00">HandleReceivedUnregister</text>
<text text-anchor="middle" x="617.5" y="-204.015" font-family="Helvetica,sans-Serif" font-size="10.00">SessionCommand</text>
</a>
</g>
</g>
<!-- Node10&#45;&gt;Node23 -->
<g id="edge27" class="edge"><title>Node10&#45;&gt;Node23</title>
<path fill="none" stroke="midnightblue" d="M469.632,-161.865C499.405,-172.031 541.041,-186.248 572.381,-196.95"/>
<polygon fill="midnightblue" stroke="midnightblue" points="470.616,-158.503 460.022,-158.583 468.354,-165.127 470.616,-158.503"/>
</g>
<!-- Node26 -->
<g id="node26" class="node"><title>Node26</title>
<g id="a_node26"><a xlink:href="../../da/dc2/generic__networkhandler_8h.html#aace33c0e7aa348969492ede822183bd5" target="_top" xlink:title="NetworkHandlerFinish">
<polygon fill="none" stroke="black" points="1602,-9.51505 1602,-28.5151 1715,-28.5151 1715,-9.51505 1602,-9.51505"/>
<text text-anchor="middle" x="1658.5" y="-16.5151" font-family="Helvetica,sans-Serif" font-size="10.00">NetworkHandlerFinish</text>
</a>
</g>
</g>
<!-- Node10&#45;&gt;Node26 -->
<g id="edge32" class="edge"><title>Node10&#45;&gt;Node26</title>
<path fill="none" stroke="midnightblue" d="M442.407,-130.318C458.639,-103.217 492.764,-53.8793 537,-32.0151 648.508,23.0989 691.615,-10.0151 816,-10.0151 816,-10.0151 816,-10.0151 1356.5,-10.0151 1442.11,-10.0151 1541.35,-13.6974 1601.76,-16.3513"/>
<polygon fill="midnightblue" stroke="midnightblue" points="439.243,-128.798 437.251,-139.204 445.297,-132.311 439.243,-128.798"/>
</g>
<!-- Node12 -->
<g id="node12" class="node"><title>Node12</title>
<g id="a_node12"><a xlink:href="../../d7/df9/encap_8h.html#a0101714be726ab1b21125b6a82ac7a56" target="_top" xlink:title="CloseEncapsulationSession\lBySockAddr">
<polygon fill="none" stroke="black" points="747.5,-77.0151 747.5,-107.015 886.5,-107.015 886.5,-77.0151 747.5,-77.0151"/>
<text text-anchor="start" x="755.5" y="-95.0151" font-family="Helvetica,sans-Serif" font-size="10.00">CloseEncapsulationSession</text>
<text text-anchor="middle" x="817" y="-84.0151" font-family="Helvetica,sans-Serif" font-size="10.00">BySockAddr</text>
</a>
</g>
</g>
<!-- Node11&#45;&gt;Node12 -->
<g id="edge13" class="edge"><title>Node11&#45;&gt;Node12</title>
<path fill="none" stroke="midnightblue" d="M666.168,-92.0151C690.508,-92.0151 720.56,-92.0151 747.346,-92.0151"/>
<polygon fill="midnightblue" stroke="midnightblue" points="666.113,-88.5152 656.113,-92.0151 666.113,-95.5152 666.113,-88.5152"/>
</g>
<!-- Node13 -->
<g id="node13" class="node"><title>Node13</title>
<g id="a_node13"><a xlink:href="../../df/d03/cipioconnection_8c.html#a7e4923f4b027d489d9933b52f6fd7007" target="_top" xlink:title="HandleIoConnectionTimeOut">
<polygon fill="none" stroke="black" points="936.5,-76.5151 936.5,-95.5151 1079.5,-95.5151 1079.5,-76.5151 936.5,-76.5151"/>
<text text-anchor="middle" x="1008" y="-83.5151" font-family="Helvetica,sans-Serif" font-size="10.00">HandleIoConnectionTimeOut</text>
</a>
</g>
</g>
<!-- Node12&#45;&gt;Node13 -->
<g id="edge14" class="edge"><title>Node12&#45;&gt;Node13</title>
<path fill="none" stroke="midnightblue" d="M896.856,-89.5117C909.902,-89.0975 923.358,-88.6704 936.19,-88.263"/>
<polygon fill="midnightblue" stroke="midnightblue" points="896.384,-86.0248 886.501,-89.8404 896.607,-93.0213 896.384,-86.0248"/>
</g>
<!-- Node14 -->
<g id="node14" class="node"><title>Node14</title>
<g id="a_node14"><a xlink:href="../../df/d03/cipioconnection_8c.html#ab3282f146a3ea91c90cf14c32206ee8c" target="_top" xlink:title="SetIoConnectionCallbacks">
<polygon fill="none" stroke="black" points="1122.5,-76.5151 1122.5,-95.5151 1255.5,-95.5151 1255.5,-76.5151 1122.5,-76.5151"/>
<text text-anchor="middle" x="1189" y="-83.5151" font-family="Helvetica,sans-Serif" font-size="10.00">SetIoConnectionCallbacks</text>
</a>
</g>
</g>
<!-- Node13&#45;&gt;Node14 -->
<g id="edge15" class="edge"><title>Node13&#45;&gt;Node14</title>
<path fill="none" stroke="midnightblue" d="M1090.06,-86.0151C1100.9,-86.0151 1111.9,-86.0151 1122.43,-86.0151"/>
<polygon fill="midnightblue" stroke="midnightblue" points="1089.75,-82.5151 1079.75,-86.0151 1089.75,-89.5151 1089.75,-82.5151"/>
</g>
<!-- Node15 -->
<g id="node15" class="node"><title>Node15</title>
<g id="a_node15"><a xlink:href="../../de/d45/cipioconnection_8h.html#a43e270b3f9b9f6296b12285c320c95aa" target="_top" xlink:title="Setup all data in order to establish an IO connection. ">
<polygon fill="none" stroke="black" points="1298,-76.5151 1298,-95.5151 1413,-95.5151 1413,-76.5151 1298,-76.5151"/>
<text text-anchor="middle" x="1355.5" y="-83.5151" font-family="Helvetica,sans-Serif" font-size="10.00">EstablishIoConnection</text>
</a>
</g>
</g>
<!-- Node14&#45;&gt;Node15 -->
<g id="edge16" class="edge"><title>Node14&#45;&gt;Node15</title>
<path fill="none" stroke="midnightblue" d="M1266.12,-86.0151C1276.78,-86.0151 1287.58,-86.0151 1297.79,-86.0151"/>
<polygon fill="midnightblue" stroke="midnightblue" points="1265.96,-82.5151 1255.96,-86.0151 1265.96,-89.5151 1265.96,-82.5151"/>
</g>
<!-- Node16 -->
<g id="node16" class="node"><title>Node16</title>
<g id="a_node16"><a xlink:href="../../d2/da3/cipconnectionmanager_8h.html#a5ab0de6894d23e8fe84a6b46797c2212" target="_top" xlink:title="Initialize the data of the connection manager object. ">
<polygon fill="none" stroke="black" points="1449,-85.5151 1449,-104.515 1566,-104.515 1566,-85.5151 1449,-85.5151"/>
<text text-anchor="middle" x="1507.5" y="-92.5151" font-family="Helvetica,sans-Serif" font-size="10.00">ConnectionManagerInit</text>
</a>
</g>
</g>
<!-- Node15&#45;&gt;Node16 -->
<g id="edge17" class="edge"><title>Node15&#45;&gt;Node16</title>
<path fill="none" stroke="midnightblue" d="M1423.41,-90.0295C1431.85,-90.536 1440.43,-91.0508 1448.71,-91.5479"/>
<polygon fill="midnightblue" stroke="midnightblue" points="1423.4,-86.5229 1413.21,-89.4176 1422.98,-93.5103 1423.4,-86.5229"/>
</g>
<!-- Node17 -->
<g id="node17" class="node"><title>Node17</title>
<g id="a_node17"><a xlink:href="../../d2/dc9/group__CIP__API.html#ga5d4979945d124e28668b264c3823db1c" target="_top" xlink:title="Initialize and setup the CIP&#45;stack. ">
<polygon fill="none" stroke="black" points="1623,-85.5151 1623,-104.515 1694,-104.515 1694,-85.5151 1623,-85.5151"/>
<text text-anchor="middle" x="1658.5" y="-92.5151" font-family="Helvetica,sans-Serif" font-size="10.00">CipStackInit</text>
</a>
</g>
</g>
<!-- Node16&#45;&gt;Node17 -->
<g id="edge18" class="edge"><title>Node16&#45;&gt;Node17</title>
<path fill="none" stroke="midnightblue" d="M1576.56,-95.0151C1592.6,-95.0151 1609.04,-95.0151 1622.88,-95.0151"/>
<polygon fill="midnightblue" stroke="midnightblue" points="1576.11,-91.5151 1566.11,-95.0151 1576.11,-98.5151 1576.11,-91.5151"/>
</g>
<!-- Node17&#45;&gt;Node5 -->
<g id="edge19" class="edge"><title>Node17&#45;&gt;Node5</title>
<path fill="none" stroke="midnightblue" d="M1704.11,-87.2746C1720.46,-84.4379 1738.06,-81.3844 1750.8,-79.1738"/>
<polygon fill="midnightblue" stroke="midnightblue" points="1703.4,-83.8452 1694.15,-89.0033 1704.6,-90.7421 1703.4,-83.8452"/>
</g>
<!-- Node19 -->
<g id="node19" class="node"><title>Node19</title>
<g id="a_node19"><a xlink:href="../../dc/d93/cipclass3connection_8c.html#a6053ab7004c1419bd80faf9aca54bfd3" target="_top" xlink:title="Class3ConnectionTimeoutHandler">
<polygon fill="none" stroke="black" points="734,-126.515 734,-145.515 900,-145.515 900,-126.515 734,-126.515"/>
<text text-anchor="middle" x="817" y="-133.515" font-family="Helvetica,sans-Serif" font-size="10.00">Class3ConnectionTimeoutHandler</text>
</a>
</g>
</g>
<!-- Node18&#45;&gt;Node19 -->
<g id="edge21" class="edge"><title>Node18&#45;&gt;Node19</title>
<path fill="none" stroke="midnightblue" d="M705.342,-132.653C714.813,-132.941 724.431,-133.233 733.843,-133.519"/>
<polygon fill="midnightblue" stroke="midnightblue" points="705.243,-129.149 695.141,-132.343 705.03,-136.146 705.243,-129.149"/>
</g>
<!-- Node20 -->
<g id="node20" class="node"><title>Node20</title>
<g id="a_node20"><a xlink:href="../../d2/d11/cipclass3connection_8h.html#a45bd741b44137164c07a6ce09a7a9a9d" target="_top" xlink:title="Check if Class3 connection is available and if yes setup all data. ">
<polygon fill="none" stroke="black" points="1120.5,-114.515 1120.5,-133.515 1257.5,-133.515 1257.5,-114.515 1120.5,-114.515"/>
<text text-anchor="middle" x="1189" y="-121.515" font-family="Helvetica,sans-Serif" font-size="10.00">EstablishClass3Connection</text>
</a>
</g>
</g>
<!-- Node19&#45;&gt;Node20 -->
<g id="edge22" class="edge"><title>Node19&#45;&gt;Node20</title>
<path fill="none" stroke="midnightblue" d="M910.394,-133.018C975.593,-130.904 1061.47,-128.119 1120.34,-126.209"/>
<polygon fill="midnightblue" stroke="midnightblue" points="909.996,-129.529 900.115,-133.352 910.223,-136.526 909.996,-129.529"/>
</g>
<!-- Node20&#45;&gt;Node16 -->
<g id="edge23" class="edge"><title>Node20&#45;&gt;Node16</title>
<path fill="none" stroke="midnightblue" d="M1267.94,-117.789C1310.77,-114.263 1364.84,-109.642 1413,-105.015 1424.54,-103.907 1436.87,-102.644 1448.66,-101.398"/>
<polygon fill="midnightblue" stroke="midnightblue" points="1267.54,-114.309 1257.86,-118.615 1268.11,-121.286 1267.54,-114.309"/>
</g>
<!-- Node22 -->
<g id="node22" class="node"><title>Node22</title>
<g id="a_node22"><a xlink:href="../../d2/dc9/group__CIP__API.html#gaa57b527530adc2acda6febc500fd6831" target="_top" xlink:title="Shutdown of the CIP stack. ">
<polygon fill="none" stroke="black" points="1457,-38.5151 1457,-57.5151 1558,-57.5151 1558,-38.5151 1457,-38.5151"/>
<text text-anchor="middle" x="1507.5" y="-45.5151" font-family="Helvetica,sans-Serif" font-size="10.00">ShutdownCipStack</text>
</a>
</g>
</g>
<!-- Node21&#45;&gt;Node22 -->
<g id="edge25" class="edge"><title>Node21&#45;&gt;Node22</title>
<path fill="none" stroke="midnightblue" d="M689.916,-50.1333C767.848,-49.2482 896.294,-48.0151 1007,-48.0151 1007,-48.0151 1007,-48.0151 1190,-48.0151 1284.37,-48.0151 1394.57,-48.0151 1456.89,-48.0151"/>
<polygon fill="midnightblue" stroke="midnightblue" points="689.69,-46.6356 679.731,-50.2503 689.77,-53.6351 689.69,-46.6356"/>
</g>
<!-- Node22&#45;&gt;Node5 -->
<g id="edge26" class="edge"><title>Node22&#45;&gt;Node5</title>
<path fill="none" stroke="midnightblue" d="M1568.4,-54.4533C1627.25,-60.7786 1713.47,-70.0462 1750.73,-74.0515"/>
<polygon fill="midnightblue" stroke="midnightblue" points="1568.43,-50.9364 1558.11,-53.3475 1567.68,-57.8963 1568.43,-50.9364"/>
</g>
<!-- Node24 -->
<g id="node24" class="node"><title>Node24</title>
<g id="a_node24"><a xlink:href="../../d2/dc9/group__CIP__API.html#ga4b8ec8e9b8a1dd71e84f2ea54e1c2b2d" target="_top" xlink:title="Notify the encapsulation layer that an explicit message has been received via TCP. ">
<polygon fill="none" stroke="black" points="739,-207.515 739,-226.515 895,-226.515 895,-207.515 739,-207.515"/>
<text text-anchor="middle" x="817" y="-214.515" font-family="Helvetica,sans-Serif" font-size="10.00">HandleReceivedExplictTcpData</text>
</a>
</g>
</g>
<!-- Node23&#45;&gt;Node24 -->
<g id="edge28" class="edge"><title>Node23&#45;&gt;Node24</title>
<path fill="none" stroke="midnightblue" d="M694.879,-213.949C709.268,-214.313 724.325,-214.694 738.74,-215.059"/>
<polygon fill="midnightblue" stroke="midnightblue" points="694.625,-210.441 684.539,-213.687 694.447,-217.439 694.625,-210.441"/>
</g>
<!-- Node24&#45;&gt;Node8 -->
<g id="edge31" class="edge"><title>Node24&#45;&gt;Node8</title>
<path fill="none" stroke="midnightblue" d="M874.164,-228.604C901.824,-234.312 934.759,-241.108 960.916,-246.506"/>
<polygon fill="midnightblue" stroke="midnightblue" points="874.736,-225.149 864.235,-226.556 873.321,-232.004 874.736,-225.149"/>
</g>
<!-- Node25 -->
<g id="node25" class="node"><title>Node25</title>
<g id="a_node25"><a xlink:href="../../d4/d91/group__ENCAP.html#ga7a0dc2be6c485d9e6940d5b20a981022" target="_top" xlink:title="Initialize the encapsulation layer. ">
<polygon fill="none" stroke="black" points="1309.5,-152.515 1309.5,-171.515 1401.5,-171.515 1401.5,-152.515 1309.5,-152.515"/>
<text text-anchor="middle" x="1355.5" y="-159.515" font-family="Helvetica,sans-Serif" font-size="10.00">EncapsulationInit</text>
</a>
</g>
</g>
<!-- Node24&#45;&gt;Node25 -->
<g id="edge29" class="edge"><title>Node24&#45;&gt;Node25</title>
<path fill="none" stroke="midnightblue" d="M905.383,-208.057C1020.96,-196.209 1220.38,-175.765 1309.36,-166.643"/>
<polygon fill="midnightblue" stroke="midnightblue" points="904.744,-204.604 895.153,-209.106 905.458,-211.567 904.744,-204.604"/>
</g>
<!-- Node25&#45;&gt;Node17 -->
<g id="edge30" class="edge"><title>Node25&#45;&gt;Node17</title>
<path fill="none" stroke="midnightblue" d="M1409.19,-150.286C1470.61,-136.614 1570.37,-114.409 1622.79,-102.74"/>
<polygon fill="midnightblue" stroke="midnightblue" points="1408.31,-146.898 1399.31,-152.487 1409.83,-153.73 1408.31,-146.898"/>
</g>
<!-- Node26&#45;&gt;Node5 -->
<g id="edge33" class="edge"><title>Node26&#45;&gt;Node5</title>
<path fill="none" stroke="midnightblue" d="M1693.24,-32.7039C1700.51,-35.9015 1708.08,-39.4271 1715,-43.0151 1728.85,-50.1967 1743.95,-59.5646 1754.65,-66.4837"/>
<polygon fill="midnightblue" stroke="midnightblue" points="1694.18,-29.2989 1683.61,-28.5718 1691.42,-35.7316 1694.18,-29.2989"/>
</g>
<!-- Node28 -->
<g id="node28" class="node"><title>Node28</title>
<g id="a_node28"><a xlink:href="../../db/d4f/generic__networkhandler_8c.html#a8c1688da4bc37416162f4ba5ac436294" target="_top" xlink:title="handle any connection request coming in the TCP server socket. ">
<polygon fill="none" stroke="black" points="936,-383.015 936,-413.015 1080,-413.015 1080,-383.015 936,-383.015"/>
<text text-anchor="start" x="944" y="-401.015" font-family="Helvetica,sans-Serif" font-size="10.00">CheckAndHandleTcpListener</text>
<text text-anchor="middle" x="1008" y="-390.015" font-family="Helvetica,sans-Serif" font-size="10.00">Socket</text>
</a>
</g>
</g>
<!-- Node27&#45;&gt;Node28 -->
<g id="edge37" class="edge"><title>Node27&#45;&gt;Node28</title>
<path fill="none" stroke="midnightblue" d="M494.403,-393.398C508.315,-396.564 523.072,-399.38 537,-401.015 677.608,-417.523 843.509,-410.277 935.834,-403.892"/>
<polygon fill="midnightblue" stroke="midnightblue" points="494.983,-389.939 484.446,-391.043 493.371,-396.751 494.983,-389.939"/>
</g>
<!-- Node29 -->
<g id="node29" class="node"><title>Node29</title>
<g id="a_node29"><a xlink:href="../../d7/df9/encap_8h.html#a6007bf2e4bd1e9b0447efc3d9937087b" target="_top" xlink:title="HandleReceivedRegisterSession\lCommand">
<polygon fill="none" stroke="black" points="537,-361.015 537,-391.015 698,-391.015 698,-361.015 537,-361.015"/>
<text text-anchor="start" x="545" y="-379.015" font-family="Helvetica,sans-Serif" font-size="10.00">HandleReceivedRegisterSession</text>
<text text-anchor="middle" x="617.5" y="-368.015" font-family="Helvetica,sans-Serif" font-size="10.00">Command</text>
</a>
</g>
</g>
<!-- Node27&#45;&gt;Node29 -->
<g id="edge39" class="edge"><title>Node27&#45;&gt;Node29</title>
<path fill="none" stroke="midnightblue" d="M511.446,-376.015C519.9,-376.015 528.501,-376.015 536.956,-376.015"/>
<polygon fill="midnightblue" stroke="midnightblue" points="511.226,-372.515 501.226,-376.015 511.226,-379.515 511.226,-372.515"/>
</g>
<!-- Node28&#45;&gt;Node3 -->
<g id="edge38" class="edge"><title>Node28&#45;&gt;Node3</title>
<path fill="none" stroke="midnightblue" d="M1038.84,-376.792C1051.65,-367.522 1066.7,-356.412 1080,-346.015 1116.15,-317.758 1157.45,-282.466 1176.84,-265.711"/>
<polygon fill="midnightblue" stroke="midnightblue" points="1036.45,-374.2 1030.38,-382.884 1040.54,-379.881 1036.45,-374.2"/>
</g>
<!-- Node29&#45;&gt;Node24 -->
<g id="edge40" class="edge"><title>Node29&#45;&gt;Node24</title>
<path fill="none" stroke="midnightblue" d="M688.058,-356.71C691.506,-354.963 694.843,-353.069 698,-351.015 751.267,-316.364 794.891,-251.281 810.159,-226.725"/>
<polygon fill="midnightblue" stroke="midnightblue" points="686.349,-353.643 678.721,-360.995 689.269,-360.005 686.349,-353.643"/>
</g>
</g>
</svg>
