<?xml version="1.0" encoding="UTF-8" standalone="no"?>
<!DOCTYPE svg PUBLIC "-//W3C//DTD SVG 1.1//EN"
 "http://www.w3.org/Graphics/SVG/1.1/DTD/svg11.dtd">
<!-- Generated by graphviz version 2.38.0 (20140413.2041)
 -->
<!-- Title: InitializeCipIdentiy Pages: 1 -->
<svg width="337pt" height="28pt"
 viewBox="0.00 0.00 337.00 28.00" xmlns="http://www.w3.org/2000/svg" xmlns:xlink="http://www.w3.org/1999/xlink">
<g id="graph0" class="graph" transform="scale(1 1) rotate(0) translate(4 24)">
<title>InitializeCipIdentiy</title>
<!-- Node1 -->
<g id="node1" class="node"><title>Node1</title>
<polygon fill="#bfbfbf" stroke="black" points="0,-0.5 0,-19.5 97,-19.5 97,-0.5 0,-0.5"/>
<text text-anchor="middle" x="48.5" y="-7.5" font-family="Helvetica,sans-Serif" font-size="10.00">InitializeCipIdentiy</text>
</g>
<!-- Node2 -->
<g id="node2" class="node"><title>Node2</title>
<g id="a_node2"><a xlink:href="../../d2/dc9/group__CIP__API.html#gac207feb53c1f98b45f3934bbea63d618" target="_top" xlink:title="Insert an attribute in an instance of a CIP class. ">
<polygon fill="none" stroke="black" points="133,-0.5 133,-19.5 211,-19.5 211,-0.5 133,-0.5"/>
<text text-anchor="middle" x="172" y="-7.5" font-family="Helvetica,sans-Serif" font-size="10.00">InsertAttribute</text>
</a>
</g>
</g>
<!-- Node1&#45;&gt;Node2 -->
<g id="edge1" class="edge"><title>Node1&#45;&gt;Node2</title>
<path fill="none" stroke="midnightblue" d="M97.1713,-10C105.584,-10 114.349,-10 122.777,-10"/>
<polygon fill="midnightblue" stroke="midnightblue" points="122.845,-13.5001 132.844,-10 122.844,-6.5001 122.845,-13.5001"/>
</g>
<!-- Node3 -->
<g id="node3" class="node"><title>Node3</title>
<g id="a_node3"><a xlink:href="../../d2/dc9/group__CIP__API.html#ga1eb3004bbf086b276500e1d6e7a2f677" target="_top" xlink:title="Calculates Byte&#45;Index of Attribute. ">
<polygon fill="none" stroke="black" points="247,-0.5 247,-19.5 329,-19.5 329,-0.5 247,-0.5"/>
<text text-anchor="middle" x="288" y="-7.5" font-family="Helvetica,sans-Serif" font-size="10.00">CalculateIndex</text>
</a>
</g>
</g>
<!-- Node2&#45;&gt;Node3 -->
<g id="edge2" class="edge"><title>Node2&#45;&gt;Node3</title>
<path fill="none" stroke="midnightblue" d="M211.277,-10C219.371,-10 228.031,-10 236.498,-10"/>
<polygon fill="midnightblue" stroke="midnightblue" points="236.678,-13.5001 246.678,-10 236.677,-6.5001 236.678,-13.5001"/>
</g>
</g>
</svg>
