<?xml version="1.0" encoding="UTF-8" standalone="no"?>
<!DOCTYPE svg PUBLIC "-//W3C//DTD SVG 1.1//EN"
 "http://www.w3.org/Graphics/SVG/1.1/DTD/svg11.dtd">
<!-- Generated by graphviz version 2.38.0 (20140413.2041)
 -->
<!-- Title: src/cip/cipepath.c Pages: 1 -->
<!--zoomable 308 -->
<svg id="main" version="1.1" xmlns="http://www.w3.org/2000/svg" xmlns:xlink="http://www.w3.org/1999/xlink" xml:space="preserve" onload="init(evt)">
<style type="text/css"><![CDATA[
.edge:hover path { stroke: red; }
.edge:hover polygon { stroke: red; fill: red; }
]]></style>
<script type="text/javascript"><![CDATA[
var edges = document.getElementsByTagName('g');
if (edges && edges.length) {
  for (var i=0;i<edges.length;i++) {
    if (edges[i].id.substr(0,4)=='edge') {
      edges[i].setAttribute('class','edge');
    }
  }
}
]]></script>
        <defs>
                <circle id="rim" cx="0" cy="0" r="7"/>
                <circle id="rim2" cx="0" cy="0" r="3.5"/>
                <g id="zoomPlus">
                        <use xlink:href="#rim" fill="#404040">
                                <set attributeName="fill" to="#808080" begin="zoomplus.mouseover" end="zoomplus.mouseout"/>
                        </use>
                        <path d="M-4,0h8M0,-4v8" fill="none" stroke="white" stroke-width="1.5" pointer-events="none"/>
                </g>
                <g id="zoomMin">
                        <use xlink:href="#rim" fill="#404040">
                                <set attributeName="fill" to="#808080" begin="zoomminus.mouseover" end="zoomminus.mouseout"/>
                        </use>
                        <path d="M-4,0h8" fill="none" stroke="white" stroke-width="1.5" pointer-events="none"/>
                </g>
                <g id="dirArrow">
                        <path fill="none" stroke="white" stroke-width="1.5" d="M0,-3.0v7 M-2.5,-0.5L0,-3.0L2.5,-0.5"/>
                </g>
               <g id="resetDef">
                       <use xlink:href="#rim2" fill="#404040">
                               <set attributeName="fill" to="#808080" begin="reset.mouseover" end="reset.mouseout"/>
                       </use>
               </g>
        </defs>

<script type="text/javascript">
var viewWidth = 756;
var viewHeight = 308;
var sectionId = 'dynsection-0';
</script>
<script xlink:href="../../svgpan.js"/>
<svg id="graph" class="graph">
<g id="viewport">
<title>src/cip/cipepath.c</title>
<!-- Node1 -->
<g id="node1" class="node"><title>Node1</title>
<polygon fill="#bfbfbf" stroke="black" points="435.5,-280.5 435.5,-299.5 529.5,-299.5 529.5,-280.5 435.5,-280.5"/>
<text text-anchor="middle" x="482.5" y="-287.5" font-family="Helvetica,sans-Serif" font-size="10.00">src/cip/cipepath.c</text>
</g>
<!-- Node2 -->
<g id="node2" class="node"><title>Node2</title>
<polygon fill="none" stroke="#bfbfbf" points="425.5,-0.5 425.5,-19.5 481.5,-19.5 481.5,-0.5 425.5,-0.5"/>
<text text-anchor="middle" x="453.5" y="-7.5" font-family="Helvetica,sans-Serif" font-size="10.00">stdbool.h</text>
</g>
<!-- Node1&#45;&gt;Node2 -->
<g id="edge1" class="edge"><title>Node1&#45;&gt;Node2</title>
<path fill="none" stroke="midnightblue" d="M504.604,-280.442C539.018,-265.501 601.5,-231.189 601.5,-179 601.5,-179 601.5,-179 601.5,-121 601.5,-66.2023 535.336,-35.5064 491.485,-21.18"/>
<polygon fill="midnightblue" stroke="midnightblue" points="492.275,-17.76 481.686,-18.1264 490.192,-24.443 492.275,-17.76"/>
</g>
<!-- Node3 -->
<g id="node3" class="node"><title>Node3</title>
<polygon fill="none" stroke="#bfbfbf" points="347.5,-224.5 347.5,-243.5 395.5,-243.5 395.5,-224.5 347.5,-224.5"/>
<text text-anchor="middle" x="371.5" y="-231.5" font-family="Helvetica,sans-Serif" font-size="10.00">stdlib.h</text>
</g>
<!-- Node1&#45;&gt;Node3 -->
<g id="edge2" class="edge"><title>Node1&#45;&gt;Node3</title>
<path fill="none" stroke="midnightblue" d="M464.666,-280.324C446.784,-271.625 419.025,-258.12 398.454,-248.113"/>
<polygon fill="midnightblue" stroke="midnightblue" points="399.813,-244.882 389.29,-243.655 396.751,-251.177 399.813,-244.882"/>
</g>
<!-- Node4 -->
<g id="node4" class="node"><title>Node4</title>
<g id="a_node4"><a xlink:href="../../d1/d02/cipepath_8h.html" target="_top" xlink:title="cipepath.h">
<polygon fill="none" stroke="black" points="451.5,-224.5 451.5,-243.5 513.5,-243.5 513.5,-224.5 451.5,-224.5"/>
<text text-anchor="middle" x="482.5" y="-231.5" font-family="Helvetica,sans-Serif" font-size="10.00">cipepath.h</text>
</a>
</g>
</g>
<!-- Node1&#45;&gt;Node4 -->
<g id="edge3" class="edge"><title>Node1&#45;&gt;Node4</title>
<path fill="none" stroke="midnightblue" d="M482.5,-280.083C482.5,-273.006 482.5,-262.861 482.5,-253.986"/>
<polygon fill="midnightblue" stroke="midnightblue" points="486,-253.751 482.5,-243.751 479,-253.751 486,-253.751"/>
</g>
<!-- Node13 -->
<g id="node13" class="node"><title>Node13</title>
<g id="a_node13"><a xlink:href="../../d0/d23/cipelectronickey_8h.html" target="_top" xlink:title="cipelectronickey.h">
<polygon fill="none" stroke="black" points="264,-168.5 264,-187.5 359,-187.5 359,-168.5 264,-168.5"/>
<text text-anchor="middle" x="311.5" y="-175.5" font-family="Helvetica,sans-Serif" font-size="10.00">cipelectronickey.h</text>
</a>
</g>
</g>
<!-- Node1&#45;&gt;Node13 -->
<g id="edge21" class="edge"><title>Node1&#45;&gt;Node13</title>
<path fill="none" stroke="midnightblue" d="M473.474,-280.204C459.512,-266.904 431.463,-241.385 404.5,-224 384.731,-211.253 360.811,-199.757 342.181,-191.575"/>
<polygon fill="midnightblue" stroke="midnightblue" points="343.54,-188.35 332.971,-187.61 340.771,-194.779 343.54,-188.35"/>
</g>
<!-- Node14 -->
<g id="node14" class="node"><title>Node14</title>
<g id="a_node14"><a xlink:href="../../d0/dec/endianconv_8h.html" target="_top" xlink:title="Responsible for Endianess conversion. ">
<polygon fill="none" stroke="black" points="140.5,-168.5 140.5,-187.5 214.5,-187.5 214.5,-168.5 140.5,-168.5"/>
<text text-anchor="middle" x="177.5" y="-175.5" font-family="Helvetica,sans-Serif" font-size="10.00">endianconv.h</text>
</a>
</g>
</g>
<!-- Node1&#45;&gt;Node14 -->
<g id="edge19" class="edge"><title>Node1&#45;&gt;Node14</title>
<path fill="none" stroke="midnightblue" d="M452.759,-280.471C423.478,-271.894 377.592,-257.974 338.5,-244 291.683,-227.265 238.361,-205.113 206.351,-191.47"/>
<polygon fill="midnightblue" stroke="midnightblue" points="207.702,-188.241 197.131,-187.525 204.948,-194.677 207.702,-188.241"/>
</g>
<!-- Node15 -->
<g id="node15" class="node"><title>Node15</title>
<g id="a_node15"><a xlink:href="../../d1/d1b/trace_8h.html" target="_top" xlink:title="Tracing infrastructure for OpENer. ">
<polygon fill="none" stroke="black" points="630,-224.5 630,-243.5 677,-243.5 677,-224.5 630,-224.5"/>
<text text-anchor="middle" x="653.5" y="-231.5" font-family="Helvetica,sans-Serif" font-size="10.00">trace.h</text>
</a>
</g>
</g>
<!-- Node1&#45;&gt;Node15 -->
<g id="edge22" class="edge"><title>Node1&#45;&gt;Node15</title>
<path fill="none" stroke="midnightblue" d="M509.595,-280.444C539.508,-270.998 587.689,-255.783 619.96,-245.592"/>
<polygon fill="midnightblue" stroke="midnightblue" points="621.354,-248.822 629.835,-242.473 619.246,-242.147 621.354,-248.822"/>
</g>
<!-- Node16 -->
<g id="node16" class="node"><title>Node16</title>
<polygon fill="none" stroke="#bfbfbf" points="695.5,-224.5 695.5,-243.5 747.5,-243.5 747.5,-224.5 695.5,-224.5"/>
<text text-anchor="middle" x="721.5" y="-231.5" font-family="Helvetica,sans-Serif" font-size="10.00">assert.h</text>
</g>
<!-- Node1&#45;&gt;Node16 -->
<g id="edge23" class="edge"><title>Node1&#45;&gt;Node16</title>
<path fill="none" stroke="midnightblue" d="M523.235,-280.448C562.386,-272.131 623.46,-258.907 685.234,-244.244"/>
<polygon fill="midnightblue" stroke="midnightblue" points="686.236,-247.604 695.151,-241.879 684.612,-240.795 686.236,-247.604"/>
</g>
<!-- Node4&#45;&gt;Node2 -->
<g id="edge4" class="edge"><title>Node4&#45;&gt;Node2</title>
<path fill="none" stroke="midnightblue" d="M491.873,-224.44C511.573,-205.371 554.579,-157.486 543.5,-112 536.867,-84.7679 532.696,-77.319 514.5,-56 504.084,-43.7957 489.753,-33.0092 477.599,-25.0583"/>
<polygon fill="midnightblue" stroke="midnightblue" points="479.161,-21.9061 468.83,-19.5543 475.439,-27.835 479.161,-21.9061"/>
</g>
<!-- Node5 -->
<g id="node5" class="node"><title>Node5</title>
<g id="a_node5"><a xlink:href="../../df/d28/ciptypes_8h.html" target="_top" xlink:title="ciptypes.h">
<polygon fill="none" stroke="black" points="392.5,-168.5 392.5,-187.5 454.5,-187.5 454.5,-168.5 392.5,-168.5"/>
<text text-anchor="middle" x="423.5" y="-175.5" font-family="Helvetica,sans-Serif" font-size="10.00">ciptypes.h</text>
</a>
</g>
</g>
<!-- Node4&#45;&gt;Node5 -->
<g id="edge5" class="edge"><title>Node4&#45;&gt;Node5</title>
<path fill="none" stroke="midnightblue" d="M473.021,-224.324C464.299,-216.341 451.157,-204.313 440.602,-194.653"/>
<polygon fill="midnightblue" stroke="midnightblue" points="442.892,-192.004 433.152,-187.834 438.166,-197.167 442.892,-192.004"/>
</g>
<!-- Node4&#45;&gt;Node13 -->
<g id="edge16" class="edge"><title>Node4&#45;&gt;Node13</title>
<path fill="none" stroke="midnightblue" d="M455.405,-224.444C426.512,-215.32 380.575,-200.813 348.395,-190.651"/>
<polygon fill="midnightblue" stroke="midnightblue" points="349.059,-187.19 338.469,-187.516 346.951,-193.865 349.059,-187.19"/>
</g>
<!-- Node6 -->
<g id="node6" class="node"><title>Node6</title>
<g id="a_node6"><a xlink:href="../../d7/d69/typedefs_8h.html" target="_top" xlink:title="typedefs.h">
<polygon fill="none" stroke="black" points="157.5,-56.5 157.5,-75.5 219.5,-75.5 219.5,-56.5 157.5,-56.5"/>
<text text-anchor="middle" x="188.5" y="-63.5" font-family="Helvetica,sans-Serif" font-size="10.00">typedefs.h</text>
</a>
</g>
</g>
<!-- Node5&#45;&gt;Node6 -->
<g id="edge6" class="edge"><title>Node5&#45;&gt;Node6</title>
<path fill="none" stroke="midnightblue" d="M393.319,-168.482C366.704,-160.502 327.183,-147.501 294.5,-132 263.408,-117.254 229.936,-95.6685 209.104,-81.4795"/>
<polygon fill="midnightblue" stroke="midnightblue" points="210.955,-78.5046 200.735,-75.7123 206.983,-84.2686 210.955,-78.5046"/>
</g>
<!-- Node10 -->
<g id="node10" class="node"><title>Node10</title>
<g id="a_node10"><a xlink:href="../../d0/d47/networkhandler_8h.html" target="_top" xlink:title="networkhandler.h">
<polygon fill="none" stroke="black" points="304,-112.5 304,-131.5 395,-131.5 395,-112.5 304,-112.5"/>
<text text-anchor="middle" x="349.5" y="-119.5" font-family="Helvetica,sans-Serif" font-size="10.00">networkhandler.h</text>
</a>
</g>
</g>
<!-- Node5&#45;&gt;Node10 -->
<g id="edge11" class="edge"><title>Node5&#45;&gt;Node10</title>
<path fill="none" stroke="midnightblue" d="M411.611,-168.324C400.35,-160.107 383.213,-147.602 369.791,-137.807"/>
<polygon fill="midnightblue" stroke="midnightblue" points="371.747,-134.901 361.606,-131.834 367.62,-140.556 371.747,-134.901"/>
</g>
<!-- Node11 -->
<g id="node11" class="node"><title>Node11</title>
<g id="a_node11"><a xlink:href="../../d8/d2c/enipmessage_8h.html" target="_top" xlink:title="enipmessage.h">
<polygon fill="none" stroke="black" points="452,-112.5 452,-131.5 535,-131.5 535,-112.5 452,-112.5"/>
<text text-anchor="middle" x="493.5" y="-119.5" font-family="Helvetica,sans-Serif" font-size="10.00">enipmessage.h</text>
</a>
</g>
</g>
<!-- Node5&#45;&gt;Node11 -->
<g id="edge13" class="edge"><title>Node5&#45;&gt;Node11</title>
<path fill="none" stroke="midnightblue" d="M434.747,-168.324C445.297,-160.185 461.301,-147.839 473.942,-138.087"/>
<polygon fill="midnightblue" stroke="midnightblue" points="476.269,-140.713 482.049,-131.834 471.993,-135.171 476.269,-140.713"/>
</g>
<!-- Node12 -->
<g id="node12" class="node"><title>Node12</title>
<polygon fill="none" stroke="#bfbfbf" points="403.5,-56.5 403.5,-75.5 505.5,-75.5 505.5,-56.5 403.5,-56.5"/>
<text text-anchor="middle" x="454.5" y="-63.5" font-family="Helvetica,sans-Serif" font-size="10.00">opener_user_conf.h</text>
</g>
<!-- Node5&#45;&gt;Node12 -->
<g id="edge15" class="edge"><title>Node5&#45;&gt;Node12</title>
<path fill="none" stroke="midnightblue" d="M425.933,-168.368C430.958,-150.537 442.58,-109.295 449.351,-85.2717"/>
<polygon fill="midnightblue" stroke="midnightblue" points="452.735,-86.1659 452.079,-75.5914 445.997,-84.2671 452.735,-86.1659"/>
</g>
<!-- Node6&#45;&gt;Node2 -->
<g id="edge9" class="edge"><title>Node6&#45;&gt;Node2</title>
<path fill="none" stroke="midnightblue" d="M219.678,-58.6467C268.419,-48.7145 362.534,-29.5364 415.284,-18.7875"/>
<polygon fill="midnightblue" stroke="midnightblue" points="416.156,-22.1817 425.256,-16.7554 414.759,-15.3226 416.156,-22.1817"/>
</g>
<!-- Node7 -->
<g id="node7" class="node"><title>Node7</title>
<polygon fill="none" stroke="#bfbfbf" points="159,-0.5 159,-19.5 218,-19.5 218,-0.5 159,-0.5"/>
<text text-anchor="middle" x="188.5" y="-7.5" font-family="Helvetica,sans-Serif" font-size="10.00">inttypes.h</text>
</g>
<!-- Node6&#45;&gt;Node7 -->
<g id="edge7" class="edge"><title>Node6&#45;&gt;Node7</title>
<path fill="none" stroke="midnightblue" d="M188.5,-56.083C188.5,-49.0059 188.5,-38.8611 188.5,-29.9865"/>
<polygon fill="midnightblue" stroke="midnightblue" points="192,-29.751 188.5,-19.7511 185,-29.7511 192,-29.751"/>
</g>
<!-- Node8 -->
<g id="node8" class="node"><title>Node8</title>
<polygon fill="none" stroke="#bfbfbf" points="236.5,-0.5 236.5,-19.5 288.5,-19.5 288.5,-0.5 236.5,-0.5"/>
<text text-anchor="middle" x="262.5" y="-7.5" font-family="Helvetica,sans-Serif" font-size="10.00">stddef.h</text>
</g>
<!-- Node6&#45;&gt;Node8 -->
<g id="edge8" class="edge"><title>Node6&#45;&gt;Node8</title>
<path fill="none" stroke="midnightblue" d="M200.389,-56.324C211.65,-48.1066 228.787,-35.6017 242.209,-25.8069"/>
<polygon fill="midnightblue" stroke="midnightblue" points="244.38,-28.5559 250.394,-19.8339 240.253,-22.9014 244.38,-28.5559"/>
</g>
<!-- Node9 -->
<g id="node9" class="node"><title>Node9</title>
<polygon fill="none" stroke="#bfbfbf" points="0,-0.5 0,-19.5 141,-19.5 141,-0.5 0,-0.5"/>
<text text-anchor="middle" x="70.5" y="-7.5" font-family="Helvetica,sans-Serif" font-size="10.00">platform_network_includes.h</text>
</g>
<!-- Node6&#45;&gt;Node9 -->
<g id="edge10" class="edge"><title>Node6&#45;&gt;Node9</title>
<path fill="none" stroke="midnightblue" d="M169.803,-56.4435C150.556,-47.6356 120.348,-33.8116 98.2999,-23.722"/>
<polygon fill="midnightblue" stroke="midnightblue" points="99.6595,-20.4951 89.11,-19.5164 96.7466,-26.8603 99.6595,-20.4951"/>
</g>
<!-- Node10&#45;&gt;Node6 -->
<g id="edge12" class="edge"><title>Node10&#45;&gt;Node6</title>
<path fill="none" stroke="midnightblue" d="M323.989,-112.444C296.904,-103.359 253.91,-88.9388 223.631,-78.7831"/>
<polygon fill="midnightblue" stroke="midnightblue" points="224.486,-75.3781 213.892,-75.5164 222.26,-82.0148 224.486,-75.3781"/>
</g>
<!-- Node11&#45;&gt;Node12 -->
<g id="edge14" class="edge"><title>Node11&#45;&gt;Node12</title>
<path fill="none" stroke="midnightblue" d="M487.06,-112.083C481.551,-104.455 473.469,-93.2645 466.735,-83.9408"/>
<polygon fill="midnightblue" stroke="midnightblue" points="469.513,-81.8087 460.82,-75.7511 463.838,-85.9071 469.513,-81.8087"/>
</g>
<!-- Node13&#45;&gt;Node2 -->
<g id="edge17" class="edge"><title>Node13&#45;&gt;Node2</title>
<path fill="none" stroke="midnightblue" d="M305.221,-168.08C296.901,-155.061 284.389,-130.401 294.5,-112 320.088,-65.4317 377.245,-37.2904 415.591,-22.9443"/>
<polygon fill="midnightblue" stroke="midnightblue" points="417.157,-26.1008 425.384,-19.4255 414.79,-19.5131 417.157,-26.1008"/>
</g>
<!-- Node13&#45;&gt;Node6 -->
<g id="edge18" class="edge"><title>Node13&#45;&gt;Node6</title>
<path fill="none" stroke="midnightblue" d="M285.448,-168.471C266.438,-161.195 241.034,-149.166 223.5,-132 210.071,-118.854 200.544,-99.4435 194.854,-85.2574"/>
<polygon fill="midnightblue" stroke="midnightblue" points="198.03,-83.7586 191.249,-75.6177 191.473,-86.2102 198.03,-83.7586"/>
</g>
<!-- Node14&#45;&gt;Node6 -->
<g id="edge20" class="edge"><title>Node14&#45;&gt;Node6</title>
<path fill="none" stroke="midnightblue" d="M178.363,-168.368C180.138,-150.617 184.233,-109.666 186.64,-85.5974"/>
<polygon fill="midnightblue" stroke="midnightblue" points="190.128,-85.8901 187.641,-75.5914 183.163,-85.1935 190.128,-85.8901"/>
</g>
</g>
</svg>
        <g id="navigator" transform="translate(0 0)" fill="#404254">
                <rect fill="#f2f5e9" fill-opacity="0.5" stroke="#606060" stroke-width=".5" x="0" y="0" width="60" height="60"/>
                <use id="zoomplus" xlink:href="#zoomPlus" x="17" y="9" onmousedown="handleZoom(evt,'in')"/>
                <use id="zoomminus" xlink:href="#zoomMin" x="42" y="9" onmousedown="handleZoom(evt,'out')"/>
                <use id="reset" xlink:href="#resetDef" x="30" y="36" onmousedown="handleReset()"/>
                <g id="arrowUp" xlink:href="#dirArrow" transform="translate(30 24)" onmousedown="handlePan(0,-1)">
                  <use xlink:href="#rim" fill="#404040">
                        <set attributeName="fill" to="#808080" begin="arrowUp.mouseover" end="arrowUp.mouseout"/>
                  </use>
                  <path fill="none" stroke="white" stroke-width="1.5" d="M0,-3.0v7 M-2.5,-0.5L0,-3.0L2.5,-0.5"/>
                </g>
                <g id="arrowRight" xlink:href="#dirArrow" transform="rotate(90) translate(36 -43)" onmousedown="handlePan(1,0)">
                  <use xlink:href="#rim" fill="#404040">
                        <set attributeName="fill" to="#808080" begin="arrowRight.mouseover" end="arrowRight.mouseout"/>
                  </use>
                  <path fill="none" stroke="white" stroke-width="1.5" d="M0,-3.0v7 M-2.5,-0.5L0,-3.0L2.5,-0.5"/>
                </g>
                <g id="arrowDown" xlink:href="#dirArrow" transform="rotate(180) translate(-30 -48)" onmousedown="handlePan(0,1)">
                  <use xlink:href="#rim" fill="#404040">
                        <set attributeName="fill" to="#808080" begin="arrowDown.mouseover" end="arrowDown.mouseout"/>
                  </use>
                  <path fill="none" stroke="white" stroke-width="1.5" d="M0,-3.0v7 M-2.5,-0.5L0,-3.0L2.5,-0.5"/>
                </g>
                <g id="arrowLeft" xlink:href="#dirArrow" transform="rotate(270) translate(-36 17)" onmousedown="handlePan(-1,0)">
                  <use xlink:href="#rim" fill="#404040">
                        <set attributeName="fill" to="#808080" begin="arrowLeft.mouseover" end="arrowLeft.mouseout"/>
                  </use>
                  <path fill="none" stroke="white" stroke-width="1.5" d="M0,-3.0v7 M-2.5,-0.5L0,-3.0L2.5,-0.5"/>
                </g>
        </g>
        <svg viewBox="0 0 15 15" width="100%" height="30px" preserveAspectRatio="xMaxYMin meet">
         <g id="arrow_out" transform="scale(0.3 0.3)">
          <a xlink:href="cipepath_8c__incl_org.svg" target="_base">
           <rect id="button" ry="5" rx="5" y="6" x="6" height="38" width="38"
                fill="#f2f5e9" fill-opacity="0.5" stroke="#606060" stroke-width="1.0"/>
           <path id="arrow"
             d="M 11.500037,31.436501 C 11.940474,20.09759 22.043105,11.32322 32.158766,21.979434 L 37.068811,17.246167 C 37.068811,17.246167 37.088388,32 37.088388,32 L 22.160133,31.978069 C 22.160133,31.978069 26.997745,27.140456 26.997745,27.140456 C 18.528582,18.264221 13.291696,25.230495 11.500037,31.436501 z"
             style="fill:#404040;"/>
          </a>
         </g>
        </svg>
</svg>
