<?xml version="1.0" encoding="UTF-8" standalone="no"?>
<!DOCTYPE svg PUBLIC "-//W3C//DTD SVG 1.1//EN"
 "http://www.w3.org/Graphics/SVG/1.1/DTD/svg11.dtd">
<!-- Generated by graphviz version 2.36.0 (20140111.2315)
 -->
<!-- Title: src/ports/WIN32/main.c Pages: 1 -->
<svg width="1062pt" height="532pt"
 viewBox="0.00 0.00 1061.69 532.00" xmlns="http://www.w3.org/2000/svg" xmlns:xlink="http://www.w3.org/1999/xlink">
<g id="graph0" class="graph" transform="scale(1 1) rotate(0) translate(4 528)">
<title>src/ports/WIN32/main.c</title>
<!-- Node1 -->
<g id="node1" class="node"><title>Node1</title>
<polygon fill="#bfbfbf" stroke="black" points="515.5,-504.5 515.5,-523.5 636.5,-523.5 636.5,-504.5 515.5,-504.5"/>
<text text-anchor="middle" x="576" y="-511.5" font-family="Helvetica,sans-Serif" font-size="10.00">src/ports/WIN32/main.c</text>
</g>
<!-- Node2 -->
<g id="node2" class="node"><title>Node2</title>
<polygon fill="none" stroke="#bfbfbf" points="0,-392.5 0,-411.5 46,-411.5 46,-392.5 0,-392.5"/>
<text text-anchor="middle" x="23" y="-399.5" font-family="Helvetica,sans-Serif" font-size="10.00">stdio.h</text>
</g>
<!-- Node1&#45;&gt;Node2 -->
<g id="edge1" class="edge"><title>Node1&#45;&gt;Node2</title>
<path fill="none" stroke="midnightblue" d="M515.182,-512.592C433.416,-510.652 284.19,-502.191 162,-468 119.273,-456.044 73.3089,-432.134 46.4037,-416.883"/>
<polygon fill="midnightblue" stroke="midnightblue" points="47.8072,-413.653 37.3949,-411.695 44.3137,-419.719 47.8072,-413.653"/>
</g>
<!-- Node3 -->
<g id="node3" class="node"><title>Node3</title>
<polygon fill="none" stroke="#bfbfbf" points="64,-392.5 64,-411.5 112,-411.5 112,-392.5 64,-392.5"/>
<text text-anchor="middle" x="88" y="-399.5" font-family="Helvetica,sans-Serif" font-size="10.00">stdlib.h</text>
</g>
<!-- Node1&#45;&gt;Node3 -->
<g id="edge2" class="edge"><title>Node1&#45;&gt;Node3</title>
<path fill="none" stroke="midnightblue" d="M515.483,-512.202C441.904,-509.729 314.703,-500.581 211,-468 172.961,-456.049 132.832,-432.481 109.127,-417.249"/>
<polygon fill="midnightblue" stroke="midnightblue" points="110.884,-414.215 100.599,-411.67 107.052,-420.074 110.884,-414.215"/>
</g>
<!-- Node4 -->
<g id="node4" class="node"><title>Node4</title>
<polygon fill="none" stroke="#bfbfbf" points="887,-448.5 887,-467.5 937,-467.5 937,-448.5 887,-448.5"/>
<text text-anchor="middle" x="912" y="-455.5" font-family="Helvetica,sans-Serif" font-size="10.00">signal.h</text>
</g>
<!-- Node1&#45;&gt;Node4 -->
<g id="edge3" class="edge"><title>Node1&#45;&gt;Node4</title>
<path fill="none" stroke="midnightblue" d="M636.526,-505.209C696.706,-497.139 791.55,-483.545 873,-468 874.267,-467.758 875.555,-467.504 876.855,-467.241"/>
<polygon fill="midnightblue" stroke="midnightblue" points="877.839,-470.61 886.885,-465.093 876.373,-463.765 877.839,-470.61"/>
</g>
<!-- Node5 -->
<g id="node5" class="node"><title>Node5</title>
<g id="a_node5"><a xlink:href="../../da/dc2/generic__networkhandler_8h.html" target="_top" xlink:title="generic_networkhandler.h">
<polygon fill="none" stroke="black" points="220,-448.5 220,-467.5 348,-467.5 348,-448.5 220,-448.5"/>
<text text-anchor="middle" x="284" y="-455.5" font-family="Helvetica,sans-Serif" font-size="10.00">generic_networkhandler.h</text>
</a>
</g>
</g>
<!-- Node1&#45;&gt;Node5 -->
<g id="edge4" class="edge"><title>Node1&#45;&gt;Node5</title>
<path fill="none" stroke="midnightblue" d="M529.732,-504.444C478.259,-494.925 395.107,-479.547 340.001,-469.356"/>
<polygon fill="midnightblue" stroke="midnightblue" points="340.522,-465.893 330.052,-467.516 339.249,-472.777 340.522,-465.893"/>
</g>
<!-- Node8 -->
<g id="node8" class="node"><title>Node8</title>
<g id="a_node8"><a xlink:href="../../d4/d38/opener__api_8h.html" target="_top" xlink:title="opener_api.h">
<polygon fill="none" stroke="black" points="900,-224.5 900,-243.5 972,-243.5 972,-224.5 900,-224.5"/>
<text text-anchor="middle" x="936" y="-231.5" font-family="Helvetica,sans-Serif" font-size="10.00">opener_api.h</text>
</a>
</g>
</g>
<!-- Node1&#45;&gt;Node8 -->
<g id="edge51" class="edge"><title>Node1&#45;&gt;Node8</title>
<path fill="none" stroke="midnightblue" d="M624.649,-504.452C705.563,-488.839 859,-452.682 859,-403 859,-403 859,-403 859,-345 859,-304.93 893.715,-269.077 916.526,-249.844"/>
<polygon fill="midnightblue" stroke="midnightblue" points="918.745,-252.551 924.305,-243.532 914.334,-247.115 918.745,-252.551"/>
</g>
<!-- Node28 -->
<g id="node28" class="node"><title>Node28</title>
<g id="a_node28"><a xlink:href="../../db/d14/cipcommon_8h.html" target="_top" xlink:title="cipcommon.h">
<polygon fill="none" stroke="black" points="358.5,-224.5 358.5,-243.5 433.5,-243.5 433.5,-224.5 358.5,-224.5"/>
<text text-anchor="middle" x="396" y="-231.5" font-family="Helvetica,sans-Serif" font-size="10.00">cipcommon.h</text>
</a>
</g>
</g>
<!-- Node1&#45;&gt;Node28 -->
<g id="edge52" class="edge"><title>Node1&#45;&gt;Node28</title>
<path fill="none" stroke="midnightblue" d="M574.492,-504.279C570.657,-483.643 559.222,-430.651 537,-392 518.988,-360.671 445.002,-284.391 412.008,-251.046"/>
<polygon fill="midnightblue" stroke="midnightblue" points="414.092,-248.177 404.563,-243.547 409.125,-253.109 414.092,-248.177"/>
</g>
<!-- Node29 -->
<g id="node29" class="node"><title>Node29</title>
<g id="a_node29"><a xlink:href="../../d1/d1b/trace_8h.html" target="_top" xlink:title="Tracing infrastructure for OpENer. ">
<polygon fill="none" stroke="black" points="955.5,-448.5 955.5,-467.5 1002.5,-467.5 1002.5,-448.5 955.5,-448.5"/>
<text text-anchor="middle" x="979" y="-455.5" font-family="Helvetica,sans-Serif" font-size="10.00">trace.h</text>
</a>
</g>
</g>
<!-- Node1&#45;&gt;Node29 -->
<g id="edge55" class="edge"><title>Node1&#45;&gt;Node29</title>
<path fill="none" stroke="midnightblue" d="M636.665,-508.344C708.223,-502.245 830.858,-489.894 945.319,-467.856"/>
<polygon fill="midnightblue" stroke="midnightblue" points="946.161,-471.258 955.304,-465.905 944.819,-464.388 946.161,-471.258"/>
</g>
<!-- Node30 -->
<g id="node30" class="node"><title>Node30</title>
<g id="a_node30"><a xlink:href="../../dc/d39/WIN32_2networkconfig_8h.html" target="_top" xlink:title="networkconfig.h">
<polygon fill="none" stroke="black" points="519,-336.5 519,-355.5 605,-355.5 605,-336.5 519,-336.5"/>
<text text-anchor="middle" x="562" y="-343.5" font-family="Helvetica,sans-Serif" font-size="10.00">networkconfig.h</text>
</a>
</g>
</g>
<!-- Node1&#45;&gt;Node30 -->
<g id="edge56" class="edge"><title>Node1&#45;&gt;Node30</title>
<path fill="none" stroke="midnightblue" d="M576.104,-504.455C576.244,-484.622 576.032,-433.959 571,-392 569.943,-383.19 568.103,-373.528 566.36,-365.423"/>
<polygon fill="midnightblue" stroke="midnightblue" points="569.75,-364.543 564.128,-355.563 562.922,-366.089 569.75,-364.543"/>
</g>
<!-- Node5&#45;&gt;Node2 -->
<g id="edge5" class="edge"><title>Node5&#45;&gt;Node2</title>
<path fill="none" stroke="midnightblue" d="M234.616,-448.477C190.252,-440.555 123.139,-427.917 55.9287,-412.072"/>
<polygon fill="midnightblue" stroke="midnightblue" points="56.5532,-408.622 46.0144,-409.711 54.9316,-415.432 56.5532,-408.622"/>
</g>
<!-- Node5&#45;&gt;Node3 -->
<g id="edge7" class="edge"><title>Node5&#45;&gt;Node3</title>
<path fill="none" stroke="midnightblue" d="M252.943,-448.444C217.226,-438.603 158.784,-422.502 121.907,-412.342"/>
<polygon fill="midnightblue" stroke="midnightblue" points="122.685,-408.926 112.115,-409.644 120.826,-415.674 122.685,-408.926"/>
</g>
<!-- Node6 -->
<g id="node6" class="node"><title>Node6</title>
<polygon fill="none" stroke="#bfbfbf" points="347.5,-392.5 347.5,-411.5 396.5,-411.5 396.5,-392.5 347.5,-392.5"/>
<text text-anchor="middle" x="372" y="-399.5" font-family="Helvetica,sans-Serif" font-size="10.00">string.h</text>
</g>
<!-- Node5&#45;&gt;Node6 -->
<g id="edge6" class="edge"><title>Node5&#45;&gt;Node6</title>
<path fill="none" stroke="midnightblue" d="M298.139,-448.324C311.866,-439.9 332.936,-426.971 349.064,-417.074"/>
<polygon fill="midnightblue" stroke="midnightblue" points="351.204,-419.868 357.896,-411.655 347.543,-413.902 351.204,-419.868"/>
</g>
<!-- Node7 -->
<g id="node7" class="node"><title>Node7</title>
<polygon fill="none" stroke="#bfbfbf" points="282.5,-392.5 282.5,-411.5 329.5,-411.5 329.5,-392.5 282.5,-392.5"/>
<text text-anchor="middle" x="306" y="-399.5" font-family="Helvetica,sans-Serif" font-size="10.00">errno.h</text>
</g>
<!-- Node5&#45;&gt;Node7 -->
<g id="edge8" class="edge"><title>Node5&#45;&gt;Node7</title>
<path fill="none" stroke="midnightblue" d="M287.633,-448.083C290.612,-440.77 294.926,-430.181 298.625,-421.103"/>
<polygon fill="midnightblue" stroke="midnightblue" points="301.903,-422.333 302.435,-411.751 295.42,-419.691 301.903,-422.333"/>
</g>
<!-- Node5&#45;&gt;Node8 -->
<g id="edge9" class="edge"><title>Node5&#45;&gt;Node8</title>
<path fill="none" stroke="midnightblue" d="M348.337,-453.718C442.283,-446.662 620.347,-424.596 754,-356 800.88,-331.939 800.852,-308.769 845,-280 864.401,-267.358 887.857,-255.839 906.096,-247.62"/>
<polygon fill="midnightblue" stroke="midnightblue" points="907.639,-250.765 915.371,-243.522 904.809,-244.363 907.639,-250.765"/>
</g>
<!-- Node11 -->
<g id="node11" class="node"><title>Node11</title>
<g id="a_node11"><a xlink:href="../../d7/d69/typedefs_8h.html" target="_top" xlink:title="typedefs.h">
<polygon fill="none" stroke="black" points="356,-56.5 356,-75.5 418,-75.5 418,-56.5 356,-56.5"/>
<text text-anchor="middle" x="387" y="-63.5" font-family="Helvetica,sans-Serif" font-size="10.00">typedefs.h</text>
</a>
</g>
</g>
<!-- Node5&#45;&gt;Node11 -->
<g id="edge25" class="edge"><title>Node5&#45;&gt;Node11</title>
<path fill="none" stroke="midnightblue" d="M273.966,-448.433C255.051,-431.268 216,-390.556 216,-347 216,-347 216,-347 216,-177 216,-115.575 295.008,-86.831 345.616,-74.7201"/>
<polygon fill="midnightblue" stroke="midnightblue" points="346.657,-78.0729 355.636,-72.4486 345.11,-71.2461 346.657,-78.0729"/>
</g>
<!-- Node16 -->
<g id="node16" class="node"><title>Node16</title>
<g id="a_node16"><a xlink:href="../../d0/d47/networkhandler_8h.html" target="_top" xlink:title="networkhandler.h">
<polygon fill="none" stroke="black" points="434.5,-112.5 434.5,-131.5 525.5,-131.5 525.5,-112.5 434.5,-112.5"/>
<text text-anchor="middle" x="480" y="-119.5" font-family="Helvetica,sans-Serif" font-size="10.00">networkhandler.h</text>
</a>
</g>
</g>
<!-- Node5&#45;&gt;Node16 -->
<g id="edge46" class="edge"><title>Node5&#45;&gt;Node16</title>
<path fill="none" stroke="midnightblue" d="M279.954,-448.379C271.765,-430.114 254,-385.996 254,-347 254,-347 254,-347 254,-233 254,-157.459 357.345,-133.782 424.266,-126.37"/>
<polygon fill="midnightblue" stroke="midnightblue" points="424.671,-129.847 434.266,-125.352 423.962,-122.883 424.671,-129.847"/>
</g>
<!-- Node20 -->
<g id="node20" class="node"><title>Node20</title>
<g id="a_node20"><a xlink:href="../../d0/dec/endianconv_8h.html" target="_top" xlink:title="Responsible for Endianess conversion. ">
<polygon fill="none" stroke="black" points="58,-280.5 58,-299.5 132,-299.5 132,-280.5 58,-280.5"/>
<text text-anchor="middle" x="95" y="-287.5" font-family="Helvetica,sans-Serif" font-size="10.00">endianconv.h</text>
</a>
</g>
</g>
<!-- Node5&#45;&gt;Node20 -->
<g id="edge26" class="edge"><title>Node5&#45;&gt;Node20</title>
<path fill="none" stroke="midnightblue" d="M242.589,-448.492C197.056,-436.615 126.451,-410.126 97,-356 89.3273,-341.899 89.5608,-323.41 91.2849,-309.758"/>
<polygon fill="midnightblue" stroke="midnightblue" points="94.7813,-310.063 92.9429,-299.629 87.8733,-308.933 94.7813,-310.063"/>
</g>
<!-- Node21 -->
<g id="node21" class="node"><title>Node21</title>
<g id="a_node21"><a xlink:href="../../d2/da3/cipconnectionmanager_8h.html" target="_top" xlink:title="cipconnectionmanager.h">
<polygon fill="none" stroke="black" points="623,-336.5 623,-355.5 745,-355.5 745,-336.5 623,-336.5"/>
<text text-anchor="middle" x="684" y="-343.5" font-family="Helvetica,sans-Serif" font-size="10.00">cipconnectionmanager.h</text>
</a>
</g>
</g>
<!-- Node5&#45;&gt;Node21 -->
<g id="edge28" class="edge"><title>Node5&#45;&gt;Node21</title>
<path fill="none" stroke="midnightblue" d="M309.844,-448.38C334.584,-439.897 372.798,-426.186 405,-412 422.827,-404.147 425.569,-398.305 444,-392 475.519,-381.218 558.788,-366.715 618.39,-357.123"/>
<polygon fill="midnightblue" stroke="midnightblue" points="619.16,-360.544 628.482,-355.509 618.055,-353.632 619.16,-360.544"/>
</g>
<!-- Node26 -->
<g id="node26" class="node"><title>Node26</title>
<g id="a_node26"><a xlink:href="../../d1/dc0/appcontype_8h.html" target="_top" xlink:title="appcontype.h">
<polygon fill="none" stroke="black" points="453.5,-392.5 453.5,-411.5 528.5,-411.5 528.5,-392.5 453.5,-392.5"/>
<text text-anchor="middle" x="491" y="-399.5" font-family="Helvetica,sans-Serif" font-size="10.00">appcontype.h</text>
</a>
</g>
</g>
<!-- Node5&#45;&gt;Node26 -->
<g id="edge47" class="edge"><title>Node5&#45;&gt;Node26</title>
<path fill="none" stroke="midnightblue" d="M316.8,-448.444C352.38,-439.162 409.314,-424.309 448.347,-414.127"/>
<polygon fill="midnightblue" stroke="midnightblue" points="449.561,-417.427 458.354,-411.516 447.794,-410.654 449.561,-417.427"/>
</g>
<!-- Node27 -->
<g id="node27" class="node"><title>Node27</title>
<g id="a_node27"><a xlink:href="../../d1/d84/socket__timer_8h.html" target="_top" xlink:title="socket_timer.h">
<polygon fill="none" stroke="black" points="106.5,-336.5 106.5,-355.5 187.5,-355.5 187.5,-336.5 106.5,-336.5"/>
<text text-anchor="middle" x="147" y="-343.5" font-family="Helvetica,sans-Serif" font-size="10.00">socket_timer.h</text>
</a>
</g>
</g>
<!-- Node5&#45;&gt;Node27 -->
<g id="edge49" class="edge"><title>Node5&#45;&gt;Node27</title>
<path fill="none" stroke="midnightblue" d="M263.859,-448.488C246.436,-440.556 221.112,-427.621 202,-412 184.912,-398.033 169.049,-378.25 158.794,-364.184"/>
<polygon fill="midnightblue" stroke="midnightblue" points="161.548,-362.018 152.908,-355.886 155.838,-366.067 161.548,-362.018"/>
</g>
<!-- Node9 -->
<g id="node9" class="node"><title>Node9</title>
<polygon fill="none" stroke="#bfbfbf" points="912,-168.5 912,-187.5 964,-187.5 964,-168.5 912,-168.5"/>
<text text-anchor="middle" x="938" y="-175.5" font-family="Helvetica,sans-Serif" font-size="10.00">assert.h</text>
</g>
<!-- Node8&#45;&gt;Node9 -->
<g id="edge10" class="edge"><title>Node8&#45;&gt;Node9</title>
<path fill="none" stroke="midnightblue" d="M936.33,-224.083C936.592,-217.006 936.968,-206.861 937.297,-197.986"/>
<polygon fill="midnightblue" stroke="midnightblue" points="940.803,-197.874 937.676,-187.751 933.808,-197.615 940.803,-197.874"/>
</g>
<!-- Node10 -->
<g id="node10" class="node"><title>Node10</title>
<polygon fill="none" stroke="#bfbfbf" points="796,-0.5 796,-19.5 852,-19.5 852,-0.5 796,-0.5"/>
<text text-anchor="middle" x="824" y="-7.5" font-family="Helvetica,sans-Serif" font-size="10.00">stdbool.h</text>
</g>
<!-- Node8&#45;&gt;Node10 -->
<g id="edge11" class="edge"><title>Node8&#45;&gt;Node10</title>
<path fill="none" stroke="midnightblue" d="M972.182,-227.317C1010.93,-219.385 1064.76,-201.974 1048,-168 1009.71,-90.3762 912.409,-43.7033 859.525,-23.2547"/>
<polygon fill="midnightblue" stroke="midnightblue" points="860.473,-19.872 849.881,-19.6266 858.008,-26.4237 860.473,-19.872"/>
</g>
<!-- Node8&#45;&gt;Node11 -->
<g id="edge12" class="edge"><title>Node8&#45;&gt;Node11</title>
<path fill="none" stroke="midnightblue" d="M929.477,-224.349C910.127,-198.946 852.737,-125.5 826,-112 756.948,-77.1354 523.69,-69.274 428.237,-67.5084"/>
<polygon fill="midnightblue" stroke="midnightblue" points="428.158,-64.0067 418.099,-67.3345 428.038,-71.0056 428.158,-64.0067"/>
</g>
<!-- Node15 -->
<g id="node15" class="node"><title>Node15</title>
<g id="a_node15"><a xlink:href="../../df/d28/ciptypes_8h.html" target="_top" xlink:title="ciptypes.h">
<polygon fill="none" stroke="black" points="589,-168.5 589,-187.5 651,-187.5 651,-168.5 589,-168.5"/>
<text text-anchor="middle" x="620" y="-175.5" font-family="Helvetica,sans-Serif" font-size="10.00">ciptypes.h</text>
</a>
</g>
</g>
<!-- Node8&#45;&gt;Node15 -->
<g id="edge17" class="edge"><title>Node8&#45;&gt;Node15</title>
<path fill="none" stroke="midnightblue" d="M899.751,-226.806C840.474,-216.676 723.187,-196.633 660.977,-186.002"/>
<polygon fill="midnightblue" stroke="midnightblue" points="661.566,-182.552 651.119,-184.318 660.386,-189.452 661.566,-182.552"/>
</g>
<!-- Node19 -->
<g id="node19" class="node"><title>Node19</title>
<g id="a_node19"><a xlink:href="../../d6/d52/ciperror_8h.html" target="_top" xlink:title="ciperror.h">
<polygon fill="none" stroke="black" points="982.5,-168.5 982.5,-187.5 1039.5,-187.5 1039.5,-168.5 982.5,-168.5"/>
<text text-anchor="middle" x="1011" y="-175.5" font-family="Helvetica,sans-Serif" font-size="10.00">ciperror.h</text>
</a>
</g>
</g>
<!-- Node8&#45;&gt;Node19 -->
<g id="edge24" class="edge"><title>Node8&#45;&gt;Node19</title>
<path fill="none" stroke="midnightblue" d="M948.05,-224.324C959.463,-216.107 976.831,-203.602 990.435,-193.807"/>
<polygon fill="midnightblue" stroke="midnightblue" points="992.66,-196.517 998.731,-187.834 988.57,-190.837 992.66,-196.517"/>
</g>
<!-- Node11&#45;&gt;Node10 -->
<g id="edge15" class="edge"><title>Node11&#45;&gt;Node10</title>
<path fill="none" stroke="midnightblue" d="M418.078,-61.1597C496.228,-51.5027 700.756,-26.2292 785.924,-15.7051"/>
<polygon fill="midnightblue" stroke="midnightblue" points="786.445,-19.1674 795.94,-14.4674 785.586,-12.2203 786.445,-19.1674"/>
</g>
<!-- Node12 -->
<g id="node12" class="node"><title>Node12</title>
<polygon fill="none" stroke="#bfbfbf" points="357.5,-0.5 357.5,-19.5 416.5,-19.5 416.5,-0.5 357.5,-0.5"/>
<text text-anchor="middle" x="387" y="-7.5" font-family="Helvetica,sans-Serif" font-size="10.00">inttypes.h</text>
</g>
<!-- Node11&#45;&gt;Node12 -->
<g id="edge13" class="edge"><title>Node11&#45;&gt;Node12</title>
<path fill="none" stroke="midnightblue" d="M387,-56.083C387,-49.0059 387,-38.8611 387,-29.9865"/>
<polygon fill="midnightblue" stroke="midnightblue" points="390.5,-29.751 387,-19.7511 383.5,-29.7511 390.5,-29.751"/>
</g>
<!-- Node13 -->
<g id="node13" class="node"><title>Node13</title>
<polygon fill="none" stroke="#bfbfbf" points="435,-0.5 435,-19.5 487,-19.5 487,-0.5 435,-0.5"/>
<text text-anchor="middle" x="461" y="-7.5" font-family="Helvetica,sans-Serif" font-size="10.00">stddef.h</text>
</g>
<!-- Node11&#45;&gt;Node13 -->
<g id="edge14" class="edge"><title>Node11&#45;&gt;Node13</title>
<path fill="none" stroke="midnightblue" d="M398.889,-56.324C410.15,-48.1066 427.287,-35.6017 440.709,-25.8069"/>
<polygon fill="midnightblue" stroke="midnightblue" points="442.88,-28.5559 448.894,-19.8339 438.753,-22.9014 442.88,-28.5559"/>
</g>
<!-- Node14 -->
<g id="node14" class="node"><title>Node14</title>
<polygon fill="none" stroke="#bfbfbf" points="198.5,-0.5 198.5,-19.5 339.5,-19.5 339.5,-0.5 198.5,-0.5"/>
<text text-anchor="middle" x="269" y="-7.5" font-family="Helvetica,sans-Serif" font-size="10.00">platform_network_includes.h</text>
</g>
<!-- Node11&#45;&gt;Node14 -->
<g id="edge16" class="edge"><title>Node11&#45;&gt;Node14</title>
<path fill="none" stroke="midnightblue" d="M368.303,-56.4435C349.056,-47.6356 318.848,-33.8116 296.8,-23.722"/>
<polygon fill="midnightblue" stroke="midnightblue" points="298.16,-20.4951 287.61,-19.5164 295.247,-26.8603 298.16,-20.4951"/>
</g>
<!-- Node15&#45;&gt;Node11 -->
<g id="edge18" class="edge"><title>Node15&#45;&gt;Node11</title>
<path fill="none" stroke="midnightblue" d="M610.696,-168.184C595.679,-154.389 564.669,-127.661 534,-112 500.044,-94.6602 458.211,-82.66 427.865,-75.4396"/>
<polygon fill="midnightblue" stroke="midnightblue" points="428.573,-72.011 418.043,-73.1733 427,-78.8319 428.573,-72.011"/>
</g>
<!-- Node15&#45;&gt;Node16 -->
<g id="edge19" class="edge"><title>Node15&#45;&gt;Node16</title>
<path fill="none" stroke="midnightblue" d="M597.817,-168.444C574.572,-159.478 537.851,-145.314 511.585,-135.183"/>
<polygon fill="midnightblue" stroke="midnightblue" points="512.669,-131.85 502.08,-131.516 510.15,-138.381 512.669,-131.85"/>
</g>
<!-- Node17 -->
<g id="node17" class="node"><title>Node17</title>
<g id="a_node17"><a xlink:href="../../d8/d2c/enipmessage_8h.html" target="_top" xlink:title="enipmessage.h">
<polygon fill="none" stroke="black" points="734.5,-112.5 734.5,-131.5 817.5,-131.5 817.5,-112.5 734.5,-112.5"/>
<text text-anchor="middle" x="776" y="-119.5" font-family="Helvetica,sans-Serif" font-size="10.00">enipmessage.h</text>
</a>
</g>
</g>
<!-- Node15&#45;&gt;Node17 -->
<g id="edge21" class="edge"><title>Node15&#45;&gt;Node17</title>
<path fill="none" stroke="midnightblue" d="M644.719,-168.444C670.848,-159.399 712.259,-145.064 741.576,-134.916"/>
<polygon fill="midnightblue" stroke="midnightblue" points="743.092,-138.095 751.397,-131.516 740.802,-131.48 743.092,-138.095"/>
</g>
<!-- Node18 -->
<g id="node18" class="node"><title>Node18</title>
<polygon fill="none" stroke="#bfbfbf" points="777,-56.5 777,-75.5 879,-75.5 879,-56.5 777,-56.5"/>
<text text-anchor="middle" x="828" y="-63.5" font-family="Helvetica,sans-Serif" font-size="10.00">opener_user_conf.h</text>
</g>
<!-- Node15&#45;&gt;Node18 -->
<g id="edge23" class="edge"><title>Node15&#45;&gt;Node18</title>
<path fill="none" stroke="midnightblue" d="M632.587,-168.39C651.953,-155.332 690.446,-130.126 725,-112 748.422,-99.7139 775.914,-87.8236 796.601,-79.3539"/>
<polygon fill="midnightblue" stroke="midnightblue" points="797.919,-82.5963 805.875,-75.5992 795.292,-76.1079 797.919,-82.5963"/>
</g>
<!-- Node16&#45;&gt;Node11 -->
<g id="edge20" class="edge"><title>Node16&#45;&gt;Node11</title>
<path fill="none" stroke="midnightblue" d="M465.058,-112.324C450.415,-103.822 427.866,-90.7288 410.762,-80.7975"/>
<polygon fill="midnightblue" stroke="midnightblue" points="412.31,-77.6491 401.905,-75.6545 408.795,-83.7027 412.31,-77.6491"/>
</g>
<!-- Node17&#45;&gt;Node18 -->
<g id="edge22" class="edge"><title>Node17&#45;&gt;Node18</title>
<path fill="none" stroke="midnightblue" d="M784.587,-112.083C792.159,-104.22 803.378,-92.5688 812.514,-83.0813"/>
<polygon fill="midnightblue" stroke="midnightblue" points="815.158,-85.3821 819.573,-75.7511 810.115,-80.5266 815.158,-85.3821"/>
</g>
<!-- Node20&#45;&gt;Node11 -->
<g id="edge27" class="edge"><title>Node20&#45;&gt;Node11</title>
<path fill="none" stroke="midnightblue" d="M94.6989,-280.385C94.1997,-251.625 96.7457,-158.144 148,-112 176.55,-86.296 285.274,-74.3968 345.765,-69.6643"/>
<polygon fill="midnightblue" stroke="midnightblue" points="346.045,-73.1533 355.755,-68.9137 345.521,-66.173 346.045,-73.1533"/>
</g>
<!-- Node21&#45;&gt;Node8 -->
<g id="edge30" class="edge"><title>Node21&#45;&gt;Node8</title>
<path fill="none" stroke="midnightblue" d="M698.416,-336.465C721.038,-323.284 766.48,-297.654 807,-280 836.851,-266.994 871.782,-254.997 897.761,-246.666"/>
<polygon fill="midnightblue" stroke="midnightblue" points="899.124,-249.906 907.6,-243.549 897.01,-243.233 899.124,-249.906"/>
</g>
<!-- Node21&#45;&gt;Node11 -->
<g id="edge31" class="edge"><title>Node21&#45;&gt;Node11</title>
<path fill="none" stroke="midnightblue" d="M635.146,-336.442C530.063,-317.365 292,-270.254 292,-235 292,-235 292,-235 292,-177 292,-133.739 334.608,-99.0862 362.755,-80.9149"/>
<polygon fill="midnightblue" stroke="midnightblue" points="364.661,-83.851 371.313,-75.6042 360.97,-77.9032 364.661,-83.851"/>
</g>
<!-- Node21&#45;&gt;Node15 -->
<g id="edge32" class="edge"><title>Node21&#45;&gt;Node15</title>
<path fill="none" stroke="midnightblue" d="M669.934,-336.282C646.836,-320.991 601.851,-286.851 586,-244 579.548,-226.56 591.517,-207.868 602.993,-195.026"/>
<polygon fill="midnightblue" stroke="midnightblue" points="605.83,-197.127 610.264,-187.504 600.797,-192.262 605.83,-197.127"/>
</g>
<!-- Node21&#45;&gt;Node18 -->
<g id="edge29" class="edge"><title>Node21&#45;&gt;Node18</title>
<path fill="none" stroke="midnightblue" d="M745.099,-341.6C834.243,-332.779 995.101,-301.158 1048,-188 1080.42,-118.652 964.829,-87.5077 889.041,-74.7861"/>
<polygon fill="midnightblue" stroke="midnightblue" points="889.521,-71.3183 879.091,-73.1822 888.407,-78.2291 889.521,-71.3183"/>
</g>
<!-- Node22 -->
<g id="node22" class="node"><title>Node22</title>
<g id="a_node22"><a xlink:href="../../d1/d6c/cipconnectionobject_8h.html" target="_top" xlink:title="cipconnectionobject.h">
<polygon fill="none" stroke="black" points="643.5,-280.5 643.5,-299.5 754.5,-299.5 754.5,-280.5 643.5,-280.5"/>
<text text-anchor="middle" x="699" y="-287.5" font-family="Helvetica,sans-Serif" font-size="10.00">cipconnectionobject.h</text>
</a>
</g>
</g>
<!-- Node21&#45;&gt;Node22 -->
<g id="edge33" class="edge"><title>Node21&#45;&gt;Node22</title>
<path fill="none" stroke="midnightblue" d="M686.477,-336.083C688.486,-328.849 691.386,-318.409 693.89,-309.397"/>
<polygon fill="midnightblue" stroke="midnightblue" points="697.265,-310.323 696.569,-299.751 690.52,-308.449 697.265,-310.323"/>
</g>
<!-- Node22&#45;&gt;Node8 -->
<g id="edge37" class="edge"><title>Node22&#45;&gt;Node8</title>
<path fill="none" stroke="midnightblue" d="M736.553,-280.444C778.087,-270.98 845.035,-255.726 889.763,-245.535"/>
<polygon fill="midnightblue" stroke="midnightblue" points="890.816,-248.885 899.788,-243.251 889.26,-242.06 890.816,-248.885"/>
</g>
<!-- Node22&#45;&gt;Node11 -->
<g id="edge34" class="edge"><title>Node22&#45;&gt;Node11</title>
<path fill="none" stroke="midnightblue" d="M643.183,-285.809C549.298,-279.867 368.094,-265.706 349,-244 308.394,-197.839 352.028,-118.88 374.875,-84.1961"/>
<polygon fill="midnightblue" stroke="midnightblue" points="377.955,-85.89 380.68,-75.6515 372.165,-81.9561 377.955,-85.89"/>
</g>
<!-- Node22&#45;&gt;Node15 -->
<g id="edge35" class="edge"><title>Node22&#45;&gt;Node15</title>
<path fill="none" stroke="midnightblue" d="M701.048,-280.264C703.639,-267.041 706.591,-241.622 696,-224 687.188,-209.338 671.623,-198.908 656.864,-191.808"/>
<polygon fill="midnightblue" stroke="midnightblue" points="657.922,-188.449 647.361,-187.611 655.095,-194.852 657.922,-188.449"/>
</g>
<!-- Node22&#45;&gt;Node18 -->
<g id="edge36" class="edge"><title>Node22&#45;&gt;Node18</title>
<path fill="none" stroke="midnightblue" d="M750.826,-280.443C789.915,-272.808 838.814,-260.317 851,-244 886.947,-195.869 855.26,-119.131 837.761,-84.7143"/>
<polygon fill="midnightblue" stroke="midnightblue" points="840.834,-83.0388 833.072,-75.8278 834.643,-86.3055 840.834,-83.0388"/>
</g>
<!-- Node23 -->
<g id="node23" class="node"><title>Node23</title>
<g id="a_node23"><a xlink:href="../../d9/d31/doublylinkedlist_8h.html" target="_top" xlink:title="doublylinkedlist.h">
<polygon fill="none" stroke="black" points="595,-224.5 595,-243.5 687,-243.5 687,-224.5 595,-224.5"/>
<text text-anchor="middle" x="641" y="-231.5" font-family="Helvetica,sans-Serif" font-size="10.00">doublylinkedlist.h</text>
</a>
</g>
</g>
<!-- Node22&#45;&gt;Node23 -->
<g id="edge38" class="edge"><title>Node22&#45;&gt;Node23</title>
<path fill="none" stroke="midnightblue" d="M689.681,-280.324C681.107,-272.341 668.188,-260.313 657.812,-250.653"/>
<polygon fill="midnightblue" stroke="midnightblue" points="660.192,-248.086 650.488,-243.834 655.422,-253.21 660.192,-248.086"/>
</g>
<!-- Node24 -->
<g id="node24" class="node"><title>Node24</title>
<g id="a_node24"><a xlink:href="../../d0/d23/cipelectronickey_8h.html" target="_top" xlink:title="cipelectronickey.h">
<polygon fill="none" stroke="black" points="582.5,-112.5 582.5,-131.5 677.5,-131.5 677.5,-112.5 582.5,-112.5"/>
<text text-anchor="middle" x="630" y="-119.5" font-family="Helvetica,sans-Serif" font-size="10.00">cipelectronickey.h</text>
</a>
</g>
</g>
<!-- Node22&#45;&gt;Node24 -->
<g id="edge39" class="edge"><title>Node22&#45;&gt;Node24</title>
<path fill="none" stroke="midnightblue" d="M704.055,-280.399C710.792,-267.775 721.087,-243.605 714,-224 701.052,-188.183 669.253,-156.117 648.707,-138.149"/>
<polygon fill="midnightblue" stroke="midnightblue" points="650.823,-135.354 640.933,-131.552 646.293,-140.691 650.823,-135.354"/>
</g>
<!-- Node25 -->
<g id="node25" class="node"><title>Node25</title>
<g id="a_node25"><a xlink:href="../../d1/d02/cipepath_8h.html" target="_top" xlink:title="cipepath.h">
<polygon fill="none" stroke="black" points="781,-224.5 781,-243.5 843,-243.5 843,-224.5 781,-224.5"/>
<text text-anchor="middle" x="812" y="-231.5" font-family="Helvetica,sans-Serif" font-size="10.00">cipepath.h</text>
</a>
</g>
</g>
<!-- Node22&#45;&gt;Node25 -->
<g id="edge42" class="edge"><title>Node22&#45;&gt;Node25</title>
<path fill="none" stroke="midnightblue" d="M716.905,-280.444C735.254,-271.675 764.005,-257.935 785.094,-247.858"/>
<polygon fill="midnightblue" stroke="midnightblue" points="786.665,-250.986 794.179,-243.516 783.647,-244.67 786.665,-250.986"/>
</g>
<!-- Node24&#45;&gt;Node10 -->
<g id="edge40" class="edge"><title>Node24&#45;&gt;Node10</title>
<path fill="none" stroke="midnightblue" d="M645.223,-112.368C678.797,-93.3318 759.424,-47.6153 799.926,-24.6505"/>
<polygon fill="midnightblue" stroke="midnightblue" points="801.875,-27.5685 808.848,-19.5914 798.423,-21.4792 801.875,-27.5685"/>
</g>
<!-- Node24&#45;&gt;Node11 -->
<g id="edge41" class="edge"><title>Node24&#45;&gt;Node11</title>
<path fill="none" stroke="midnightblue" d="M591.496,-112.444C546.955,-102.545 473.908,-86.3128 428.238,-76.1639"/>
<polygon fill="midnightblue" stroke="midnightblue" points="428.891,-72.7237 418.369,-73.971 427.372,-79.557 428.891,-72.7237"/>
</g>
<!-- Node25&#45;&gt;Node10 -->
<g id="edge43" class="edge"><title>Node25&#45;&gt;Node10</title>
<path fill="none" stroke="midnightblue" d="M817.892,-224.318C833.064,-201.367 873.249,-136.689 887,-76 888.964,-67.3309 891.067,-63.9037 887,-56 879.923,-42.2475 866.479,-31.7663 853.822,-24.3942"/>
<polygon fill="midnightblue" stroke="midnightblue" points="855.313,-21.2221 844.847,-19.5733 852.001,-27.3888 855.313,-21.2221"/>
</g>
<!-- Node25&#45;&gt;Node15 -->
<g id="edge44" class="edge"><title>Node25&#45;&gt;Node15</title>
<path fill="none" stroke="midnightblue" d="M781.577,-224.444C748.715,-215.201 696.215,-200.436 660.026,-190.257"/>
<polygon fill="midnightblue" stroke="midnightblue" points="660.855,-186.855 650.281,-187.516 658.96,-193.593 660.855,-186.855"/>
</g>
<!-- Node25&#45;&gt;Node24 -->
<g id="edge45" class="edge"><title>Node25&#45;&gt;Node24</title>
<path fill="none" stroke="midnightblue" d="M805.172,-224.28C794.074,-210.616 770.85,-184.066 746,-168 723.166,-153.238 694.743,-142.113 671.746,-134.618"/>
<polygon fill="midnightblue" stroke="midnightblue" points="672.519,-131.192 661.93,-131.529 670.418,-137.869 672.519,-131.192"/>
</g>
<!-- Node26&#45;&gt;Node21 -->
<g id="edge48" class="edge"><title>Node26&#45;&gt;Node21</title>
<path fill="none" stroke="midnightblue" d="M521.581,-392.444C554.615,-383.201 607.388,-368.436 643.766,-358.257"/>
<polygon fill="midnightblue" stroke="midnightblue" points="644.875,-361.582 653.562,-355.516 642.988,-354.84 644.875,-361.582"/>
</g>
<!-- Node27&#45;&gt;Node11 -->
<g id="edge50" class="edge"><title>Node27&#45;&gt;Node11</title>
<path fill="none" stroke="midnightblue" d="M148.961,-336.496C153.027,-318.095 162,-273.162 162,-235 162,-235 162,-235 162,-177 162,-96.2717 280.347,-74.7812 345.379,-69.0661"/>
<polygon fill="midnightblue" stroke="midnightblue" points="346.021,-72.5264 355.715,-68.2508 345.47,-65.5481 346.021,-72.5264"/>
</g>
<!-- Node28&#45;&gt;Node11 -->
<g id="edge53" class="edge"><title>Node28&#45;&gt;Node11</title>
<path fill="none" stroke="midnightblue" d="M395.112,-224.383C394.208,-215.332 392.825,-200.679 392,-188 389.642,-151.759 388.19,-109.336 387.494,-85.5735"/>
<polygon fill="midnightblue" stroke="midnightblue" points="390.991,-85.4142 387.213,-75.5159 383.994,-85.6098 390.991,-85.4142"/>
</g>
<!-- Node28&#45;&gt;Node15 -->
<g id="edge54" class="edge"><title>Node28&#45;&gt;Node15</title>
<path fill="none" stroke="midnightblue" d="M431.493,-224.444C471.496,-214.8 536.44,-199.144 578.688,-188.959"/>
<polygon fill="midnightblue" stroke="midnightblue" points="579.747,-192.304 588.648,-186.558 578.107,-185.499 579.747,-192.304"/>
</g>
<!-- Node31 -->
<g id="node31" class="node"><title>Node31</title>
<g id="a_node31"><a xlink:href="../../dd/d4d/cipethernetlink_8h.html" target="_top" xlink:title="cipethernetlink.h">
<polygon fill="none" stroke="black" points="451,-224.5 451,-243.5 539,-243.5 539,-224.5 451,-224.5"/>
<text text-anchor="middle" x="495" y="-231.5" font-family="Helvetica,sans-Serif" font-size="10.00">cipethernetlink.h</text>
</a>
</g>
</g>
<!-- Node30&#45;&gt;Node31 -->
<g id="edge57" class="edge"><title>Node30&#45;&gt;Node31</title>
<path fill="none" stroke="midnightblue" d="M556.743,-336.368C545.735,-318.296 520.08,-276.176 505.542,-252.307"/>
<polygon fill="midnightblue" stroke="midnightblue" points="508.424,-250.311 500.233,-243.591 502.446,-253.953 508.424,-250.311"/>
</g>
<!-- Node31&#45;&gt;Node11 -->
<g id="edge58" class="edge"><title>Node31&#45;&gt;Node11</title>
<path fill="none" stroke="midnightblue" d="M488.586,-224.238C475.976,-206.907 447.249,-166.9 425,-132 414.921,-116.19 404.207,-97.6906 396.734,-84.4791"/>
<polygon fill="midnightblue" stroke="midnightblue" points="399.662,-82.5455 391.715,-75.539 393.558,-85.9722 399.662,-82.5455"/>
</g>
<!-- Node31&#45;&gt;Node15 -->
<g id="edge59" class="edge"><title>Node31&#45;&gt;Node15</title>
<path fill="none" stroke="midnightblue" d="M514.807,-224.444C535.287,-215.596 567.483,-201.687 590.865,-191.586"/>
<polygon fill="midnightblue" stroke="midnightblue" points="592.494,-194.695 600.286,-187.516 589.718,-188.269 592.494,-194.695"/>
</g>
</g>
</svg>
