<?xml version="1.0" encoding="UTF-8" standalone="no"?>
<!DOCTYPE svg PUBLIC "-//W3C//DTD SVG 1.1//EN"
 "http://www.w3.org/Graphics/SVG/1.1/DTD/svg11.dtd">
<!-- Generated by graphviz version 2.36.0 (20140111.2315)
 -->
<!-- Title: src/ports/WIN32/main.c Pages: 1 -->
<!--zoomable 476 -->
<svg id="main" version="1.1" xmlns="http://www.w3.org/2000/svg" xmlns:xlink="http://www.w3.org/1999/xlink" xml:space="preserve" onload="init(evt)">
<style type="text/css"><![CDATA[
.edge:hover path { stroke: red; }
.edge:hover polygon { stroke: red; fill: red; }
]]></style>
<script type="text/javascript"><![CDATA[
var edges = document.getElementsByTagName('g');
if (edges && edges.length) {
  for (var i=0;i<edges.length;i++) {
    if (edges[i].id.substr(0,4)=='edge') {
      edges[i].setAttribute('class','edge');
    }
  }
}
]]></script>
        <defs>
                <circle id="rim" cx="0" cy="0" r="7"/>
                <circle id="rim2" cx="0" cy="0" r="3.5"/>
                <g id="zoomPlus">
                        <use xlink:href="#rim" fill="#404040">
                                <set attributeName="fill" to="#808080" begin="zoomplus.mouseover" end="zoomplus.mouseout"/>
                        </use>
                        <path d="M-4,0h8M0,-4v8" fill="none" stroke="white" stroke-width="1.5" pointer-events="none"/>
                </g>
                <g id="zoomMin">
                        <use xlink:href="#rim" fill="#404040">
                                <set attributeName="fill" to="#808080" begin="zoomminus.mouseover" end="zoomminus.mouseout"/>
                        </use>
                        <path d="M-4,0h8" fill="none" stroke="white" stroke-width="1.5" pointer-events="none"/>
                </g>
                <g id="dirArrow">
                        <path fill="none" stroke="white" stroke-width="1.5" d="M0,-3.0v7 M-2.5,-0.5L0,-3.0L2.5,-0.5"/>
                </g>
               <g id="resetDef">
                       <use xlink:href="#rim2" fill="#404040">
                               <set attributeName="fill" to="#808080" begin="reset.mouseover" end="reset.mouseout"/>
                       </use>
               </g>
        </defs>

<script type="text/javascript">
var viewWidth = 1217;
var viewHeight = 476;
var sectionId = 'dynsection-0';
</script>
<script xlink:href="../../svgpan.js"/>
<svg id="graph" class="graph">
<g id="viewport">
<title>src/ports/WIN32/main.c</title>
<!-- Node1 -->
<g id="node1" class="node"><title>Node1</title>
<polygon fill="#bfbfbf" stroke="black" points="78.5,-448.5 78.5,-467.5 199.5,-467.5 199.5,-448.5 78.5,-448.5"/>
<text text-anchor="middle" x="139" y="-455.5" font-family="Helvetica,sans-Serif" font-size="10.00">src/ports/WIN32/main.c</text>
</g>
<!-- Node2 -->
<g id="node2" class="node"><title>Node2</title>
<polygon fill="none" stroke="#bfbfbf" points="0,-336.5 0,-355.5 46,-355.5 46,-336.5 0,-336.5"/>
<text text-anchor="middle" x="23" y="-343.5" font-family="Helvetica,sans-Serif" font-size="10.00">stdio.h</text>
</g>
<!-- Node1&#45;&gt;Node2 -->
<g id="edge1" class="edge"><title>Node1&#45;&gt;Node2</title>
<path fill="none" stroke="midnightblue" d="M81.6688,-448.432C59.9386,-442.107 37.2609,-431.112 24,-412 14.7603,-398.684 15.5724,-379.853 18.0663,-365.885"/>
<polygon fill="midnightblue" stroke="midnightblue" points="21.5273,-366.443 20.2671,-355.923 14.6921,-364.933 21.5273,-366.443"/>
</g>
<!-- Node3 -->
<g id="node3" class="node"><title>Node3</title>
<polygon fill="none" stroke="#bfbfbf" points="186,-336.5 186,-355.5 234,-355.5 234,-336.5 186,-336.5"/>
<text text-anchor="middle" x="210" y="-343.5" font-family="Helvetica,sans-Serif" font-size="10.00">stdlib.h</text>
</g>
<!-- Node1&#45;&gt;Node3 -->
<g id="edge2" class="edge"><title>Node1&#45;&gt;Node3</title>
<path fill="none" stroke="midnightblue" d="M98.6449,-448.496C60.2803,-438.534 11.4007,-419.778 33,-392 50.3341,-369.707 129.239,-356.651 175.64,-350.77"/>
<polygon fill="midnightblue" stroke="midnightblue" points="176.344,-354.211 185.847,-349.526 175.497,-347.262 176.344,-354.211"/>
</g>
<!-- Node4 -->
<g id="node4" class="node"><title>Node4</title>
<polygon fill="none" stroke="#bfbfbf" points="42,-392.5 42,-411.5 92,-411.5 92,-392.5 42,-392.5"/>
<text text-anchor="middle" x="67" y="-399.5" font-family="Helvetica,sans-Serif" font-size="10.00">signal.h</text>
</g>
<!-- Node1&#45;&gt;Node4 -->
<g id="edge3" class="edge"><title>Node1&#45;&gt;Node4</title>
<path fill="none" stroke="midnightblue" d="M127.432,-448.324C116.58,-440.185 100.119,-427.839 87.1166,-418.087"/>
<polygon fill="midnightblue" stroke="midnightblue" points="88.8786,-415.034 78.7785,-411.834 84.6785,-420.634 88.8786,-415.034"/>
</g>
<!-- Node5 -->
<g id="node5" class="node"><title>Node5</title>
<g id="a_node5"><a xlink:href="../../da/dc2/generic__networkhandler_8h.html" target="_top" xlink:title="generic_networkhandler.h">
<polygon fill="none" stroke="black" points="336,-392.5 336,-411.5 464,-411.5 464,-392.5 336,-392.5"/>
<text text-anchor="middle" x="400" y="-399.5" font-family="Helvetica,sans-Serif" font-size="10.00">generic_networkhandler.h</text>
</a>
</g>
</g>
<!-- Node1&#45;&gt;Node5 -->
<g id="edge4" class="edge"><title>Node1&#45;&gt;Node5</title>
<path fill="none" stroke="midnightblue" d="M180.356,-448.444C226.078,-438.984 299.764,-423.738 349.022,-413.547"/>
<polygon fill="midnightblue" stroke="midnightblue" points="349.754,-416.97 358.837,-411.516 348.336,-410.115 349.754,-416.97"/>
</g>
<!-- Node8 -->
<g id="node8" class="node"><title>Node8</title>
<g id="a_node8"><a xlink:href="../../d4/d38/opener__api_8h.html" target="_top" xlink:title="opener_api.h">
<polygon fill="none" stroke="black" points="927,-168.5 927,-187.5 999,-187.5 999,-168.5 927,-168.5"/>
<text text-anchor="middle" x="963" y="-175.5" font-family="Helvetica,sans-Serif" font-size="10.00">opener_api.h</text>
</a>
</g>
</g>
<!-- Node1&#45;&gt;Node8 -->
<g id="edge49" class="edge"><title>Node1&#45;&gt;Node8</title>
<path fill="none" stroke="midnightblue" d="M199.625,-456.642C414.366,-454.584 1126,-440.697 1126,-347 1126,-347 1126,-347 1126,-289 1126,-232.267 1057.31,-202.837 1009.12,-189.17"/>
<polygon fill="midnightblue" stroke="midnightblue" points="1009.74,-185.713 999.175,-186.488 1007.92,-192.472 1009.74,-185.713"/>
</g>
<!-- Node27 -->
<g id="node27" class="node"><title>Node27</title>
<g id="a_node27"><a xlink:href="../../db/d14/cipcommon_8h.html" target="_top" xlink:title="cipcommon.h">
<polygon fill="none" stroke="black" points="271.5,-168.5 271.5,-187.5 346.5,-187.5 346.5,-168.5 271.5,-168.5"/>
<text text-anchor="middle" x="309" y="-175.5" font-family="Helvetica,sans-Serif" font-size="10.00">cipcommon.h</text>
</a>
</g>
</g>
<!-- Node1&#45;&gt;Node27 -->
<g id="edge50" class="edge"><title>Node1&#45;&gt;Node27</title>
<path fill="none" stroke="midnightblue" d="M136.438,-448.249C131.251,-429.738 120,-385.179 120,-347 120,-347 120,-347 120,-289 120,-258.902 117.447,-245.008 139,-224 171.374,-192.445 223.175,-182.338 261.096,-179.425"/>
<polygon fill="midnightblue" stroke="midnightblue" points="261.634,-182.899 271.397,-178.782 261.198,-175.912 261.634,-182.899"/>
</g>
<!-- Node28 -->
<g id="node28" class="node"><title>Node28</title>
<g id="a_node28"><a xlink:href="../../d1/d1b/trace_8h.html" target="_top" xlink:title="Tracing infrastructure for OpENer. ">
<polygon fill="none" stroke="black" points="482.5,-392.5 482.5,-411.5 529.5,-411.5 529.5,-392.5 482.5,-392.5"/>
<text text-anchor="middle" x="506" y="-399.5" font-family="Helvetica,sans-Serif" font-size="10.00">trace.h</text>
</a>
</g>
</g>
<!-- Node1&#45;&gt;Node28 -->
<g id="edge53" class="edge"><title>Node1&#45;&gt;Node28</title>
<path fill="none" stroke="midnightblue" d="M199.74,-451.258C264.817,-444.559 371.25,-432.029 472.229,-411.903"/>
<polygon fill="midnightblue" stroke="midnightblue" points="473.189,-415.28 482.297,-409.868 471.802,-408.419 473.189,-415.28"/>
</g>
<!-- Node29 -->
<g id="node29" class="node"><title>Node29</title>
<g id="a_node29"><a xlink:href="../../dc/d39/WIN32_2networkconfig_8h.html" target="_top" xlink:title="networkconfig.h">
<polygon fill="none" stroke="black" points="186,-280.5 186,-299.5 272,-299.5 272,-280.5 186,-280.5"/>
<text text-anchor="middle" x="229" y="-287.5" font-family="Helvetica,sans-Serif" font-size="10.00">networkconfig.h</text>
</a>
</g>
</g>
<!-- Node1&#45;&gt;Node29 -->
<g id="edge54" class="edge"><title>Node1&#45;&gt;Node29</title>
<path fill="none" stroke="midnightblue" d="M140.058,-448.393C142.95,-427.557 152.472,-373.367 177,-336 184.78,-324.148 196.531,-313.609 206.895,-305.714"/>
<polygon fill="midnightblue" stroke="midnightblue" points="209.108,-308.433 215.157,-299.735 205.004,-302.763 209.108,-308.433"/>
</g>
<!-- Node5&#45;&gt;Node2 -->
<g id="edge5" class="edge"><title>Node5&#45;&gt;Node2</title>
<path fill="none" stroke="midnightblue" d="M340.263,-392.444C259.989,-380.945 120.035,-360.899 56.311,-351.771"/>
<polygon fill="midnightblue" stroke="midnightblue" points="56.4384,-348.254 46.0431,-350.301 55.4458,-355.183 56.4384,-348.254"/>
</g>
<!-- Node5&#45;&gt;Node3 -->
<g id="edge7" class="edge"><title>Node5&#45;&gt;Node3</title>
<path fill="none" stroke="midnightblue" d="M369.894,-392.444C335.704,-382.726 280.033,-366.904 244.222,-356.726"/>
<polygon fill="midnightblue" stroke="midnightblue" points="244.814,-353.256 234.238,-353.889 242.9,-359.989 244.814,-353.256"/>
</g>
<!-- Node6 -->
<g id="node6" class="node"><title>Node6</title>
<polygon fill="none" stroke="#bfbfbf" points="560.5,-336.5 560.5,-355.5 609.5,-355.5 609.5,-336.5 560.5,-336.5"/>
<text text-anchor="middle" x="585" y="-343.5" font-family="Helvetica,sans-Serif" font-size="10.00">string.h</text>
</g>
<!-- Node5&#45;&gt;Node6 -->
<g id="edge6" class="edge"><title>Node5&#45;&gt;Node6</title>
<path fill="none" stroke="midnightblue" d="M429.314,-392.444C462.233,-382.835 515.605,-367.256 550.506,-357.069"/>
<polygon fill="midnightblue" stroke="midnightblue" points="551.645,-360.382 560.264,-354.22 549.684,-353.663 551.645,-360.382"/>
</g>
<!-- Node7 -->
<g id="node7" class="node"><title>Node7</title>
<polygon fill="none" stroke="#bfbfbf" points="627.5,-336.5 627.5,-355.5 674.5,-355.5 674.5,-336.5 627.5,-336.5"/>
<text text-anchor="middle" x="651" y="-343.5" font-family="Helvetica,sans-Serif" font-size="10.00">errno.h</text>
</g>
<!-- Node5&#45;&gt;Node7 -->
<g id="edge8" class="edge"><title>Node5&#45;&gt;Node7</title>
<path fill="none" stroke="midnightblue" d="M445.695,-392.433C487.772,-384.35 552.138,-371.499 617.226,-356.065"/>
<polygon fill="midnightblue" stroke="midnightblue" points="618.341,-359.397 627.253,-353.668 616.713,-352.589 618.341,-359.397"/>
</g>
<!-- Node5&#45;&gt;Node8 -->
<g id="edge9" class="edge"><title>Node5&#45;&gt;Node8</title>
<path fill="none" stroke="midnightblue" d="M463.001,-392.461C533.331,-382.666 642.577,-366.598 683,-356 752.237,-337.847 768.776,-329.483 834,-300 881.837,-278.376 903.305,-283.398 938,-244 949.601,-230.826 956.085,-211.688 959.524,-197.588"/>
<polygon fill="midnightblue" stroke="midnightblue" points="962.997,-198.082 961.669,-187.571 956.153,-196.616 962.997,-198.082"/>
</g>
<!-- Node11 -->
<g id="node11" class="node"><title>Node11</title>
<g id="a_node11"><a xlink:href="../../d7/d69/typedefs_8h.html" target="_top" xlink:title="typedefs.h">
<polygon fill="none" stroke="black" points="454,-56.5 454,-75.5 516,-75.5 516,-56.5 454,-56.5"/>
<text text-anchor="middle" x="485" y="-63.5" font-family="Helvetica,sans-Serif" font-size="10.00">typedefs.h</text>
</a>
</g>
</g>
<!-- Node5&#45;&gt;Node11 -->
<g id="edge23" class="edge"><title>Node5&#45;&gt;Node11</title>
<path fill="none" stroke="midnightblue" d="M398.466,-392.208C392.471,-355.168 373.582,-209.265 429,-112 436.259,-99.2593 448.662,-88.7298 459.953,-81.0677"/>
<polygon fill="midnightblue" stroke="midnightblue" points="462.081,-83.8626 468.65,-75.5502 458.331,-77.9517 462.081,-83.8626"/>
</g>
<!-- Node15 -->
<g id="node15" class="node"><title>Node15</title>
<polygon fill="none" stroke="#bfbfbf" points="1118.5,-56.5 1118.5,-75.5 1209.5,-75.5 1209.5,-56.5 1118.5,-56.5"/>
<text text-anchor="middle" x="1164" y="-63.5" font-family="Helvetica,sans-Serif" font-size="10.00">networkhandler.h</text>
</g>
<!-- Node5&#45;&gt;Node15 -->
<g id="edge44" class="edge"><title>Node5&#45;&gt;Node15</title>
<path fill="none" stroke="midnightblue" d="M464.152,-392.603C648.057,-368.425 1164,-299.81 1164,-291 1164,-291 1164,-291 1164,-177 1164,-144.948 1164,-107.643 1164,-85.7489"/>
<polygon fill="midnightblue" stroke="midnightblue" points="1167.5,-85.5577 1164,-75.5578 1160.5,-85.5578 1167.5,-85.5577"/>
</g>
<!-- Node19 -->
<g id="node19" class="node"><title>Node19</title>
<g id="a_node19"><a xlink:href="../../d0/dec/endianconv_8h.html" target="_top" xlink:title="Responsible for Endianess conversion. ">
<polygon fill="none" stroke="black" points="148,-224.5 148,-243.5 222,-243.5 222,-224.5 148,-224.5"/>
<text text-anchor="middle" x="185" y="-231.5" font-family="Helvetica,sans-Serif" font-size="10.00">endianconv.h</text>
</a>
</g>
</g>
<!-- Node5&#45;&gt;Node19 -->
<g id="edge24" class="edge"><title>Node5&#45;&gt;Node19</title>
<path fill="none" stroke="midnightblue" d="M379.664,-392.496C325.772,-369.866 182.974,-309.264 177,-300 168.063,-286.142 171.82,-267.124 176.756,-253.24"/>
<polygon fill="midnightblue" stroke="midnightblue" points="180.071,-254.377 180.57,-243.794 173.58,-251.757 180.071,-254.377"/>
</g>
<!-- Node20 -->
<g id="node20" class="node"><title>Node20</title>
<g id="a_node20"><a xlink:href="../../d2/da3/cipconnectionmanager_8h.html" target="_top" xlink:title="cipconnectionmanager.h">
<polygon fill="none" stroke="black" points="703,-280.5 703,-299.5 825,-299.5 825,-280.5 703,-280.5"/>
<text text-anchor="middle" x="764" y="-287.5" font-family="Helvetica,sans-Serif" font-size="10.00">cipconnectionmanager.h</text>
</a>
</g>
</g>
<!-- Node5&#45;&gt;Node20 -->
<g id="edge26" class="edge"><title>Node5&#45;&gt;Node20</title>
<path fill="none" stroke="midnightblue" d="M422.997,-392.47C445.823,-383.838 481.686,-369.827 512,-356 529.723,-347.916 532.642,-342.515 551,-336 597,-319.675 650.797,-308.368 692.816,-301.172"/>
<polygon fill="midnightblue" stroke="midnightblue" points="693.4,-304.623 702.685,-299.52 692.244,-297.719 693.4,-304.623"/>
</g>
<!-- Node25 -->
<g id="node25" class="node"><title>Node25</title>
<g id="a_node25"><a xlink:href="../../d1/dc0/appcontype_8h.html" target="_top" xlink:title="appcontype.h">
<polygon fill="none" stroke="black" points="428.5,-336.5 428.5,-355.5 503.5,-355.5 503.5,-336.5 428.5,-336.5"/>
<text text-anchor="middle" x="466" y="-343.5" font-family="Helvetica,sans-Serif" font-size="10.00">appcontype.h</text>
</a>
</g>
</g>
<!-- Node5&#45;&gt;Node25 -->
<g id="edge45" class="edge"><title>Node5&#45;&gt;Node25</title>
<path fill="none" stroke="midnightblue" d="M410.604,-392.324C420.456,-384.263 435.351,-372.077 447.215,-362.369"/>
<polygon fill="midnightblue" stroke="midnightblue" points="449.68,-364.875 455.203,-355.834 445.247,-359.457 449.68,-364.875"/>
</g>
<!-- Node26 -->
<g id="node26" class="node"><title>Node26</title>
<g id="a_node26"><a xlink:href="../../d1/d84/socket__timer_8h.html" target="_top" xlink:title="socket_timer.h">
<polygon fill="none" stroke="black" points="290.5,-280.5 290.5,-299.5 371.5,-299.5 371.5,-280.5 290.5,-280.5"/>
<text text-anchor="middle" x="331" y="-287.5" font-family="Helvetica,sans-Serif" font-size="10.00">socket_timer.h</text>
</a>
</g>
</g>
<!-- Node5&#45;&gt;Node26 -->
<g id="edge47" class="edge"><title>Node5&#45;&gt;Node26</title>
<path fill="none" stroke="midnightblue" d="M394.586,-392.368C383.249,-374.296 356.829,-332.176 341.856,-308.307"/>
<polygon fill="midnightblue" stroke="midnightblue" points="344.668,-306.203 336.389,-299.591 338.738,-309.923 344.668,-306.203"/>
</g>
<!-- Node9 -->
<g id="node9" class="node"><title>Node9</title>
<polygon fill="none" stroke="#bfbfbf" points="1010,-112.5 1010,-131.5 1062,-131.5 1062,-112.5 1010,-112.5"/>
<text text-anchor="middle" x="1036" y="-119.5" font-family="Helvetica,sans-Serif" font-size="10.00">assert.h</text>
</g>
<!-- Node8&#45;&gt;Node9 -->
<g id="edge10" class="edge"><title>Node8&#45;&gt;Node9</title>
<path fill="none" stroke="midnightblue" d="M974.729,-168.324C985.837,-160.107 1002.74,-147.602 1015.98,-137.807"/>
<polygon fill="midnightblue" stroke="midnightblue" points="1018.1,-140.595 1024.06,-131.834 1013.94,-134.967 1018.1,-140.595"/>
</g>
<!-- Node10 -->
<g id="node10" class="node"><title>Node10</title>
<polygon fill="none" stroke="#bfbfbf" points="664,-0.5 664,-19.5 720,-19.5 720,-0.5 664,-0.5"/>
<text text-anchor="middle" x="692" y="-7.5" font-family="Helvetica,sans-Serif" font-size="10.00">stdbool.h</text>
</g>
<!-- Node8&#45;&gt;Node10 -->
<g id="edge11" class="edge"><title>Node8&#45;&gt;Node10</title>
<path fill="none" stroke="midnightblue" d="M953.62,-168.35C939.139,-155.241 910.165,-129.968 883,-112 828.146,-75.7177 758.836,-41.7576 720.603,-23.958"/>
<polygon fill="midnightblue" stroke="midnightblue" points="721.676,-20.5984 711.13,-19.5832 718.741,-26.9535 721.676,-20.5984"/>
</g>
<!-- Node8&#45;&gt;Node11 -->
<g id="edge12" class="edge"><title>Node8&#45;&gt;Node11</title>
<path fill="none" stroke="midnightblue" d="M949.352,-168.389C923.707,-152.359 869.015,-118.938 848,-112 736.097,-75.0538 595.684,-68.0255 526.896,-66.9547"/>
<polygon fill="midnightblue" stroke="midnightblue" points="526.528,-63.4502 516.486,-66.8303 526.444,-70.4497 526.528,-63.4502"/>
</g>
<!-- Node14 -->
<g id="node14" class="node"><title>Node14</title>
<g id="a_node14"><a xlink:href="../../df/d28/ciptypes_8h.html" target="_top" xlink:title="ciptypes.h">
<polygon fill="none" stroke="black" points="778,-112.5 778,-131.5 840,-131.5 840,-112.5 778,-112.5"/>
<text text-anchor="middle" x="809" y="-119.5" font-family="Helvetica,sans-Serif" font-size="10.00">ciptypes.h</text>
</a>
</g>
</g>
<!-- Node8&#45;&gt;Node14 -->
<g id="edge16" class="edge"><title>Node8&#45;&gt;Node14</title>
<path fill="none" stroke="midnightblue" d="M938.598,-168.444C912.803,-159.399 871.923,-145.064 842.982,-134.916"/>
<polygon fill="midnightblue" stroke="midnightblue" points="843.882,-131.523 833.288,-131.516 841.566,-138.128 843.882,-131.523"/>
</g>
<!-- Node18 -->
<g id="node18" class="node"><title>Node18</title>
<g id="a_node18"><a xlink:href="../../d6/d52/ciperror_8h.html" target="_top" xlink:title="ciperror.h">
<polygon fill="none" stroke="black" points="934.5,-112.5 934.5,-131.5 991.5,-131.5 991.5,-112.5 934.5,-112.5"/>
<text text-anchor="middle" x="963" y="-119.5" font-family="Helvetica,sans-Serif" font-size="10.00">ciperror.h</text>
</a>
</g>
</g>
<!-- Node8&#45;&gt;Node18 -->
<g id="edge22" class="edge"><title>Node8&#45;&gt;Node18</title>
<path fill="none" stroke="midnightblue" d="M963,-168.083C963,-161.006 963,-150.861 963,-141.986"/>
<polygon fill="midnightblue" stroke="midnightblue" points="966.5,-141.751 963,-131.751 959.5,-141.751 966.5,-141.751"/>
</g>
<!-- Node11&#45;&gt;Node10 -->
<g id="edge15" class="edge"><title>Node11&#45;&gt;Node10</title>
<path fill="none" stroke="midnightblue" d="M516.439,-56.7986C553.374,-47.1632 614.617,-31.1869 654.132,-20.8787"/>
<polygon fill="midnightblue" stroke="midnightblue" points="655.134,-24.2345 663.927,-18.3235 653.367,-17.4611 655.134,-24.2345"/>
</g>
<!-- Node12 -->
<g id="node12" class="node"><title>Node12</title>
<polygon fill="none" stroke="#bfbfbf" points="418.5,-0.5 418.5,-19.5 477.5,-19.5 477.5,-0.5 418.5,-0.5"/>
<text text-anchor="middle" x="448" y="-7.5" font-family="Helvetica,sans-Serif" font-size="10.00">inttypes.h</text>
</g>
<!-- Node11&#45;&gt;Node12 -->
<g id="edge13" class="edge"><title>Node11&#45;&gt;Node12</title>
<path fill="none" stroke="midnightblue" d="M478.89,-56.083C473.718,-48.5341 466.154,-37.4948 459.806,-28.2298"/>
<polygon fill="midnightblue" stroke="midnightblue" points="462.536,-26.0221 453.996,-19.7511 456.761,-29.9787 462.536,-26.0221"/>
</g>
<!-- Node13 -->
<g id="node13" class="node"><title>Node13</title>
<polygon fill="none" stroke="#bfbfbf" points="496,-0.5 496,-19.5 548,-19.5 548,-0.5 496,-0.5"/>
<text text-anchor="middle" x="522" y="-7.5" font-family="Helvetica,sans-Serif" font-size="10.00">stddef.h</text>
</g>
<!-- Node11&#45;&gt;Node13 -->
<g id="edge14" class="edge"><title>Node11&#45;&gt;Node13</title>
<path fill="none" stroke="midnightblue" d="M491.11,-56.083C496.282,-48.5341 503.846,-37.4948 510.194,-28.2298"/>
<polygon fill="midnightblue" stroke="midnightblue" points="513.239,-29.9787 516.004,-19.7511 507.464,-26.0221 513.239,-29.9787"/>
</g>
<!-- Node14&#45;&gt;Node11 -->
<g id="edge17" class="edge"><title>Node14&#45;&gt;Node11</title>
<path fill="none" stroke="midnightblue" d="M777.934,-115.822C719.299,-106.05 592.314,-84.8856 526.471,-73.9118"/>
<polygon fill="midnightblue" stroke="midnightblue" points="526.888,-70.4331 516.448,-72.2414 525.737,-77.3379 526.888,-70.4331"/>
</g>
<!-- Node14&#45;&gt;Node15 -->
<g id="edge18" class="edge"><title>Node14&#45;&gt;Node15</title>
<path fill="none" stroke="midnightblue" d="M840.193,-116.255C900.224,-107.124 1032.56,-86.9941 1108.15,-75.4949"/>
<polygon fill="midnightblue" stroke="midnightblue" points="1109.07,-78.8957 1118.43,-73.9316 1108.02,-71.9753 1109.07,-78.8957"/>
</g>
<!-- Node16 -->
<g id="node16" class="node"><title>Node16</title>
<g id="a_node16"><a xlink:href="../../d8/d2c/enipmessage_8h.html" target="_top" xlink:title="enipmessage.h">
<polygon fill="none" stroke="black" points="853.5,-56.5 853.5,-75.5 936.5,-75.5 936.5,-56.5 853.5,-56.5"/>
<text text-anchor="middle" x="895" y="-63.5" font-family="Helvetica,sans-Serif" font-size="10.00">enipmessage.h</text>
</a>
</g>
</g>
<!-- Node14&#45;&gt;Node16 -->
<g id="edge19" class="edge"><title>Node14&#45;&gt;Node16</title>
<path fill="none" stroke="midnightblue" d="M822.817,-112.324C836.233,-103.9 856.824,-90.9709 872.586,-81.0741"/>
<polygon fill="midnightblue" stroke="midnightblue" points="874.609,-83.9364 881.217,-75.6545 870.887,-78.0081 874.609,-83.9364"/>
</g>
<!-- Node17 -->
<g id="node17" class="node"><title>Node17</title>
<polygon fill="none" stroke="#bfbfbf" points="809,-0.5 809,-19.5 911,-19.5 911,-0.5 809,-0.5"/>
<text text-anchor="middle" x="860" y="-7.5" font-family="Helvetica,sans-Serif" font-size="10.00">opener_user_conf.h</text>
</g>
<!-- Node14&#45;&gt;Node17 -->
<g id="edge21" class="edge"><title>Node14&#45;&gt;Node17</title>
<path fill="none" stroke="midnightblue" d="M813.002,-112.368C821.307,-94.4563 840.563,-52.9233 851.679,-28.9482"/>
<polygon fill="midnightblue" stroke="midnightblue" points="854.986,-30.136 856.017,-19.5914 848.635,-27.1916 854.986,-30.136"/>
</g>
<!-- Node16&#45;&gt;Node17 -->
<g id="edge20" class="edge"><title>Node16&#45;&gt;Node17</title>
<path fill="none" stroke="midnightblue" d="M889.22,-56.083C884.328,-48.5341 877.173,-37.4948 871.167,-28.2298"/>
<polygon fill="midnightblue" stroke="midnightblue" points="874.048,-26.239 865.672,-19.7511 868.174,-30.0463 874.048,-26.239"/>
</g>
<!-- Node19&#45;&gt;Node11 -->
<g id="edge25" class="edge"><title>Node19&#45;&gt;Node11</title>
<path fill="none" stroke="midnightblue" d="M185.343,-224.342C186.729,-201.91 193.723,-141.594 229,-112 260.848,-85.2826 379.454,-73.7137 443.442,-69.3273"/>
<polygon fill="midnightblue" stroke="midnightblue" points="443.847,-72.8083 453.596,-68.6601 443.388,-65.8233 443.847,-72.8083"/>
</g>
<!-- Node20&#45;&gt;Node8 -->
<g id="edge28" class="edge"><title>Node20&#45;&gt;Node8</title>
<path fill="none" stroke="midnightblue" d="M820.714,-280.472C850.182,-274.008 885.647,-262.882 913,-244 930.707,-231.777 944.932,-211.333 953.616,-196.634"/>
<polygon fill="midnightblue" stroke="midnightblue" points="956.874,-197.981 958.717,-187.548 950.77,-194.554 956.874,-197.981"/>
</g>
<!-- Node20&#45;&gt;Node11 -->
<g id="edge29" class="edge"><title>Node20&#45;&gt;Node11</title>
<path fill="none" stroke="midnightblue" d="M709.901,-280.454C624.644,-265.759 465.269,-232.896 432,-188 407.097,-154.394 444.578,-107.257 468.194,-82.9263"/>
<polygon fill="midnightblue" stroke="midnightblue" points="470.937,-85.1343 475.561,-75.6017 466.002,-80.1702 470.937,-85.1343"/>
</g>
<!-- Node20&#45;&gt;Node14 -->
<g id="edge30" class="edge"><title>Node20&#45;&gt;Node14</title>
<path fill="none" stroke="midnightblue" d="M780.888,-280.489C795.038,-272.644 814.962,-259.832 828,-244 845.327,-222.96 847.32,-214.658 853,-188 854.852,-179.306 856.355,-176.231 853,-168 848.2,-156.225 838.671,-145.856 829.705,-138.049"/>
<polygon fill="midnightblue" stroke="midnightblue" points="831.755,-135.205 821.781,-131.631 827.35,-140.645 831.755,-135.205"/>
</g>
<!-- Node20&#45;&gt;Node17 -->
<g id="edge27" class="edge"><title>Node20&#45;&gt;Node17</title>
<path fill="none" stroke="midnightblue" d="M823.865,-280.496C900.381,-265.843 1028.08,-227.568 1071,-132 1100.99,-65.2235 993.617,-33.4005 921.16,-19.8123"/>
<polygon fill="midnightblue" stroke="midnightblue" points="921.648,-16.3439 911.185,-18.0142 920.406,-23.2329 921.648,-16.3439"/>
</g>
<!-- Node21 -->
<g id="node21" class="node"><title>Node21</title>
<g id="a_node21"><a xlink:href="../../d1/d6c/cipconnectionobject_8h.html" target="_top" xlink:title="cipconnectionobject.h">
<polygon fill="none" stroke="black" points="708.5,-224.5 708.5,-243.5 819.5,-243.5 819.5,-224.5 708.5,-224.5"/>
<text text-anchor="middle" x="764" y="-231.5" font-family="Helvetica,sans-Serif" font-size="10.00">cipconnectionobject.h</text>
</a>
</g>
</g>
<!-- Node20&#45;&gt;Node21 -->
<g id="edge31" class="edge"><title>Node20&#45;&gt;Node21</title>
<path fill="none" stroke="midnightblue" d="M764,-280.083C764,-273.006 764,-262.861 764,-253.986"/>
<polygon fill="midnightblue" stroke="midnightblue" points="767.5,-253.751 764,-243.751 760.5,-253.751 767.5,-253.751"/>
</g>
<!-- Node21&#45;&gt;Node8 -->
<g id="edge35" class="edge"><title>Node21&#45;&gt;Node8</title>
<path fill="none" stroke="midnightblue" d="M795.532,-224.444C829.592,-215.201 884.006,-200.436 921.515,-190.257"/>
<polygon fill="midnightblue" stroke="midnightblue" points="922.881,-193.513 931.615,-187.516 921.048,-186.758 922.881,-193.513"/>
</g>
<!-- Node21&#45;&gt;Node11 -->
<g id="edge32" class="edge"><title>Node21&#45;&gt;Node11</title>
<path fill="none" stroke="midnightblue" d="M708.227,-229.627C668.583,-224.967 615.57,-213.951 576,-188 536.028,-161.785 506.924,-111.753 493.419,-84.9719"/>
<polygon fill="midnightblue" stroke="midnightblue" points="496.402,-83.1036 488.876,-75.6461 490.109,-86.169 496.402,-83.1036"/>
</g>
<!-- Node21&#45;&gt;Node14 -->
<g id="edge33" class="edge"><title>Node21&#45;&gt;Node14</title>
<path fill="none" stroke="midnightblue" d="M790.211,-224.414C806.85,-217.445 827.057,-205.809 837,-188 845.844,-172.159 835.171,-152.967 824.553,-139.56"/>
<polygon fill="midnightblue" stroke="midnightblue" points="826.957,-136.988 817.789,-131.679 821.645,-141.547 826.957,-136.988"/>
</g>
<!-- Node21&#45;&gt;Node17 -->
<g id="edge34" class="edge"><title>Node21&#45;&gt;Node17</title>
<path fill="none" stroke="midnightblue" d="M774.99,-224.365C784.453,-216.171 797.436,-202.917 803,-188 806.107,-179.672 806.284,-176.26 803,-168 794.869,-147.549 777.131,-152.451 769,-132 765.716,-123.74 765.813,-120.298 769,-112 783.119,-75.2373 817.49,-43.4914 839.716,-25.8394"/>
<polygon fill="midnightblue" stroke="midnightblue" points="842.062,-28.4505 847.849,-19.5761 837.791,-22.9044 842.062,-28.4505"/>
</g>
<!-- Node22 -->
<g id="node22" class="node"><title>Node22</title>
<g id="a_node22"><a xlink:href="../../d9/d31/doublylinkedlist_8h.html" target="_top" xlink:title="doublylinkedlist.h">
<polygon fill="none" stroke="black" points="585,-168.5 585,-187.5 677,-187.5 677,-168.5 585,-168.5"/>
<text text-anchor="middle" x="631" y="-175.5" font-family="Helvetica,sans-Serif" font-size="10.00">doublylinkedlist.h</text>
</a>
</g>
</g>
<!-- Node21&#45;&gt;Node22 -->
<g id="edge36" class="edge"><title>Node21&#45;&gt;Node22</title>
<path fill="none" stroke="midnightblue" d="M742.926,-224.444C720.94,-215.517 686.266,-201.439 661.336,-191.317"/>
<polygon fill="midnightblue" stroke="midnightblue" points="662.558,-188.035 651.976,-187.516 659.924,-194.521 662.558,-188.035"/>
</g>
<!-- Node23 -->
<g id="node23" class="node"><title>Node23</title>
<g id="a_node23"><a xlink:href="../../d0/d23/cipelectronickey_8h.html" target="_top" xlink:title="cipelectronickey.h">
<polygon fill="none" stroke="black" points="587.5,-112.5 587.5,-131.5 682.5,-131.5 682.5,-112.5 587.5,-112.5"/>
<text text-anchor="middle" x="635" y="-119.5" font-family="Helvetica,sans-Serif" font-size="10.00">cipelectronickey.h</text>
</a>
</g>
</g>
<!-- Node21&#45;&gt;Node23 -->
<g id="edge37" class="edge"><title>Node21&#45;&gt;Node23</title>
<path fill="none" stroke="midnightblue" d="M753.878,-224.368C732.024,-205.733 680.188,-161.532 652.748,-138.134"/>
<polygon fill="midnightblue" stroke="midnightblue" points="654.956,-135.417 645.075,-131.591 650.414,-140.743 654.956,-135.417"/>
</g>
<!-- Node24 -->
<g id="node24" class="node"><title>Node24</title>
<g id="a_node24"><a xlink:href="../../d1/d02/cipepath_8h.html" target="_top" xlink:title="cipepath.h">
<polygon fill="none" stroke="black" points="733,-168.5 733,-187.5 795,-187.5 795,-168.5 733,-168.5"/>
<text text-anchor="middle" x="764" y="-175.5" font-family="Helvetica,sans-Serif" font-size="10.00">cipepath.h</text>
</a>
</g>
</g>
<!-- Node21&#45;&gt;Node24 -->
<g id="edge40" class="edge"><title>Node21&#45;&gt;Node24</title>
<path fill="none" stroke="midnightblue" d="M764,-224.083C764,-217.006 764,-206.861 764,-197.986"/>
<polygon fill="midnightblue" stroke="midnightblue" points="767.5,-197.751 764,-187.751 760.5,-197.751 767.5,-197.751"/>
</g>
<!-- Node23&#45;&gt;Node10 -->
<g id="edge38" class="edge"><title>Node23&#45;&gt;Node10</title>
<path fill="none" stroke="midnightblue" d="M639.473,-112.368C648.796,-94.376 670.469,-52.5503 682.866,-28.6267"/>
<polygon fill="midnightblue" stroke="midnightblue" points="686.055,-30.0805 687.548,-19.5914 679.84,-26.8599 686.055,-30.0805"/>
</g>
<!-- Node23&#45;&gt;Node11 -->
<g id="edge39" class="edge"><title>Node23&#45;&gt;Node11</title>
<path fill="none" stroke="midnightblue" d="M611.232,-112.444C586.107,-103.399 546.289,-89.064 518.1,-78.9158"/>
<polygon fill="midnightblue" stroke="midnightblue" points="519.251,-75.6106 508.657,-75.5164 516.88,-82.1968 519.251,-75.6106"/>
</g>
<!-- Node24&#45;&gt;Node10 -->
<g id="edge41" class="edge"><title>Node24&#45;&gt;Node10</title>
<path fill="none" stroke="midnightblue" d="M757.857,-168.347C751.767,-159.508 742.439,-145.239 736,-132 718.959,-96.9625 704.725,-53.5426 697.376,-29.3982"/>
<polygon fill="midnightblue" stroke="midnightblue" points="700.714,-28.3413 694.499,-19.7606 694.006,-30.344 700.714,-28.3413"/>
</g>
<!-- Node24&#45;&gt;Node14 -->
<g id="edge42" class="edge"><title>Node24&#45;&gt;Node14</title>
<path fill="none" stroke="midnightblue" d="M771.431,-168.083C777.853,-160.377 787.306,-149.033 795.122,-139.653"/>
<polygon fill="midnightblue" stroke="midnightblue" points="797.994,-141.674 801.707,-131.751 792.617,-137.193 797.994,-141.674"/>
</g>
<!-- Node24&#45;&gt;Node23 -->
<g id="edge43" class="edge"><title>Node24&#45;&gt;Node23</title>
<path fill="none" stroke="midnightblue" d="M743.56,-168.444C722.33,-159.557 688.901,-145.563 664.745,-135.451"/>
<polygon fill="midnightblue" stroke="midnightblue" points="665.921,-132.149 655.345,-131.516 663.218,-138.606 665.921,-132.149"/>
</g>
<!-- Node25&#45;&gt;Node20 -->
<g id="edge46" class="edge"><title>Node25&#45;&gt;Node20</title>
<path fill="none" stroke="midnightblue" d="M503.742,-338.161C555.042,-328.865 647.221,-312.161 706.979,-301.333"/>
<polygon fill="midnightblue" stroke="midnightblue" points="707.795,-304.742 717.011,-299.515 706.547,-297.854 707.795,-304.742"/>
</g>
<!-- Node26&#45;&gt;Node11 -->
<g id="edge48" class="edge"><title>Node26&#45;&gt;Node11</title>
<path fill="none" stroke="midnightblue" d="M319.428,-280.37C294.631,-260.768 240.324,-211.236 262,-168 295.641,-100.896 389.007,-78.3102 443.675,-70.755"/>
<polygon fill="midnightblue" stroke="midnightblue" points="444.258,-74.209 453.736,-69.4736 443.374,-67.2651 444.258,-74.209"/>
</g>
<!-- Node27&#45;&gt;Node11 -->
<g id="edge51" class="edge"><title>Node27&#45;&gt;Node11</title>
<path fill="none" stroke="midnightblue" d="M313.898,-168.144C321.981,-154.295 339.391,-127.495 361,-112 385.892,-94.1509 418.62,-82.6694 444.202,-75.774"/>
<polygon fill="midnightblue" stroke="midnightblue" points="445.161,-79.1416 453.977,-73.2663 443.421,-72.3612 445.161,-79.1416"/>
</g>
<!-- Node27&#45;&gt;Node14 -->
<g id="edge52" class="edge"><title>Node27&#45;&gt;Node14</title>
<path fill="none" stroke="midnightblue" d="M346.581,-172.941C438.193,-163.047 672.478,-137.744 767.763,-127.454"/>
<polygon fill="midnightblue" stroke="midnightblue" points="768.311,-130.915 777.878,-126.361 767.56,-123.955 768.311,-130.915"/>
</g>
<!-- Node30 -->
<g id="node30" class="node"><title>Node30</title>
<g id="a_node30"><a xlink:href="../../dd/d4d/cipethernetlink_8h.html" target="_top" xlink:title="cipethernetlink.h">
<polygon fill="none" stroke="black" points="441,-168.5 441,-187.5 529,-187.5 529,-168.5 441,-168.5"/>
<text text-anchor="middle" x="485" y="-175.5" font-family="Helvetica,sans-Serif" font-size="10.00">cipethernetlink.h</text>
</a>
</g>
</g>
<!-- Node29&#45;&gt;Node30 -->
<g id="edge55" class="edge"><title>Node29&#45;&gt;Node30</title>
<path fill="none" stroke="midnightblue" d="M249.088,-280.368C294.046,-261.051 402.942,-214.259 455.564,-191.648"/>
<polygon fill="midnightblue" stroke="midnightblue" points="457.199,-194.755 465.005,-187.591 454.436,-188.324 457.199,-194.755"/>
</g>
<!-- Node30&#45;&gt;Node11 -->
<g id="edge56" class="edge"><title>Node30&#45;&gt;Node11</title>
<path fill="none" stroke="midnightblue" d="M485,-168.368C485,-150.617 485,-109.666 485,-85.5974"/>
<polygon fill="midnightblue" stroke="midnightblue" points="488.5,-85.5914 485,-75.5914 481.5,-85.5915 488.5,-85.5914"/>
</g>
<!-- Node30&#45;&gt;Node14 -->
<g id="edge57" class="edge"><title>Node30&#45;&gt;Node14</title>
<path fill="none" stroke="midnightblue" d="M529.033,-169.661C591.84,-159.193 706.317,-140.114 767.626,-129.896"/>
<polygon fill="midnightblue" stroke="midnightblue" points="768.424,-133.311 777.713,-128.215 767.273,-126.406 768.424,-133.311"/>
</g>
</g>
</svg>
        <g id="navigator" transform="translate(0 0)" fill="#404254">
                <rect fill="#f2f5e9" fill-opacity="0.5" stroke="#606060" stroke-width=".5" x="0" y="0" width="60" height="60"/>
                <use id="zoomplus" xlink:href="#zoomPlus" x="17" y="9" onmousedown="handleZoom(evt,'in')"/>
                <use id="zoomminus" xlink:href="#zoomMin" x="42" y="9" onmousedown="handleZoom(evt,'out')"/>
                <use id="reset" xlink:href="#resetDef" x="30" y="36" onmousedown="handleReset()"/>
                <g id="arrowUp" xlink:href="#dirArrow" transform="translate(30 24)" onmousedown="handlePan(0,-1)">
                  <use xlink:href="#rim" fill="#404040">
                        <set attributeName="fill" to="#808080" begin="arrowUp.mouseover" end="arrowUp.mouseout"/>
                  </use>
                  <path fill="none" stroke="white" stroke-width="1.5" d="M0,-3.0v7 M-2.5,-0.5L0,-3.0L2.5,-0.5"/>
                </g>
                <g id="arrowRight" xlink:href="#dirArrow" transform="rotate(90) translate(36 -43)" onmousedown="handlePan(1,0)">
                  <use xlink:href="#rim" fill="#404040">
                        <set attributeName="fill" to="#808080" begin="arrowRight.mouseover" end="arrowRight.mouseout"/>
                  </use>
                  <path fill="none" stroke="white" stroke-width="1.5" d="M0,-3.0v7 M-2.5,-0.5L0,-3.0L2.5,-0.5"/>
                </g>
                <g id="arrowDown" xlink:href="#dirArrow" transform="rotate(180) translate(-30 -48)" onmousedown="handlePan(0,1)">
                  <use xlink:href="#rim" fill="#404040">
                        <set attributeName="fill" to="#808080" begin="arrowDown.mouseover" end="arrowDown.mouseout"/>
                  </use>
                  <path fill="none" stroke="white" stroke-width="1.5" d="M0,-3.0v7 M-2.5,-0.5L0,-3.0L2.5,-0.5"/>
                </g>
                <g id="arrowLeft" xlink:href="#dirArrow" transform="rotate(270) translate(-36 17)" onmousedown="handlePan(-1,0)">
                  <use xlink:href="#rim" fill="#404040">
                        <set attributeName="fill" to="#808080" begin="arrowLeft.mouseover" end="arrowLeft.mouseout"/>
                  </use>
                  <path fill="none" stroke="white" stroke-width="1.5" d="M0,-3.0v7 M-2.5,-0.5L0,-3.0L2.5,-0.5"/>
                </g>
        </g>
        <svg viewBox="0 0 15 15" width="100%" height="30px" preserveAspectRatio="xMaxYMin meet">
         <g id="arrow_out" transform="scale(0.3 0.3)">
          <a xlink:href="WIN32_2main_8c__incl_org.svg" target="_base">
           <rect id="button" ry="5" rx="5" y="6" x="6" height="38" width="38"
                fill="#f2f5e9" fill-opacity="0.5" stroke="#606060" stroke-width="1.0"/>
           <path id="arrow"
             d="M 11.500037,31.436501 C 11.940474,20.09759 22.043105,11.32322 32.158766,21.979434 L 37.068811,17.246167 C 37.068811,17.246167 37.088388,32 37.088388,32 L 22.160133,31.978069 C 22.160133,31.978069 26.997745,27.140456 26.997745,27.140456 C 18.528582,18.264221 13.291696,25.230495 11.500037,31.436501 z"
             style="fill:#404040;"/>
          </a>
         </g>
        </svg>
</svg>
