<?xml version="1.0" encoding="UTF-8" standalone="no"?>
<!DOCTYPE svg PUBLIC "-//W3C//DTD SVG 1.1//EN"
 "http://www.w3.org/Graphics/SVG/1.1/DTD/svg11.dtd">
<!-- Generated by graphviz version 2.38.0 (20140413.2041)
 -->
<!-- Title: CreateMessageRouterRequestStructure Pages: 1 -->
<svg width="448pt" height="39pt"
 viewBox="0.00 0.00 448.00 39.00" xmlns="http://www.w3.org/2000/svg" xmlns:xlink="http://www.w3.org/1999/xlink">
<g id="graph0" class="graph" transform="scale(1 1) rotate(0) translate(4 35)">
<title>CreateMessageRouterRequestStructure</title>
<!-- Node1 -->
<g id="node1" class="node"><title>Node1</title>
<polygon fill="#bfbfbf" stroke="black" points="0,-0.5 0,-30.5 152,-30.5 152,-0.5 0,-0.5"/>
<text text-anchor="start" x="8" y="-18.5" font-family="Helvetica,sans-Serif" font-size="10.00">CreateMessageRouterRequest</text>
<text text-anchor="middle" x="76" y="-7.5" font-family="Helvetica,sans-Serif" font-size="10.00">Structure</text>
</g>
<!-- Node2 -->
<g id="node2" class="node"><title>Node2</title>
<g id="a_node2"><a xlink:href="../../d2/d3d/cipcommon_8c.html#ae7acee656656a60bf4e33f33369ac3a5" target="_top" xlink:title="Decodes padded EPath. ">
<polygon fill="none" stroke="black" points="188,-6 188,-25 298,-25 298,-6 188,-6"/>
<text text-anchor="middle" x="243" y="-13" font-family="Helvetica,sans-Serif" font-size="10.00">DecodePaddedEPath</text>
</a>
</g>
</g>
<!-- Node1&#45;&gt;Node2 -->
<g id="edge1" class="edge"><title>Node1&#45;&gt;Node2</title>
<path fill="none" stroke="midnightblue" d="M152.257,-15.5C160.624,-15.5 169.091,-15.5 177.31,-15.5"/>
<polygon fill="midnightblue" stroke="midnightblue" points="177.562,-19.0001 187.562,-15.5 177.562,-12.0001 177.562,-19.0001"/>
</g>
<!-- Node3 -->
<g id="node3" class="node"><title>Node3</title>
<g id="a_node3"><a xlink:href="../../d4/d91/group__ENCAP.html#ga70322f970709ca9c9a1a1d474cfe2302" target="_top" xlink:title="Reads EIP_UINT16 from *buffer and converts little endian to host. ">
<polygon fill="none" stroke="black" points="334,-6 334,-25 440,-25 440,-6 334,-6"/>
<text text-anchor="middle" x="387" y="-13" font-family="Helvetica,sans-Serif" font-size="10.00">GetIntFromMessage</text>
</a>
</g>
</g>
<!-- Node2&#45;&gt;Node3 -->
<g id="edge2" class="edge"><title>Node2&#45;&gt;Node3</title>
<path fill="none" stroke="midnightblue" d="M298.089,-15.5C306.447,-15.5 315.138,-15.5 323.659,-15.5"/>
<polygon fill="midnightblue" stroke="midnightblue" points="323.936,-19.0001 333.935,-15.5 323.935,-12.0001 323.936,-19.0001"/>
</g>
</g>
</svg>
