<?xml version="1.0" encoding="UTF-8" standalone="no"?>
<!DOCTYPE svg PUBLIC "-//W3C//DTD SVG 1.1//EN"
 "http://www.w3.org/Graphics/SVG/1.1/DTD/svg11.dtd">
<!-- Generated by graphviz version 2.38.0 (20140413.2041)
 -->
<!-- Title: CreateMessageRouterRequestStructure Pages: 1 -->
<svg width="1560pt" height="88pt"
 viewBox="0.00 0.00 1560.00 88.00" xmlns="http://www.w3.org/2000/svg" xmlns:xlink="http://www.w3.org/1999/xlink">
<g id="graph0" class="graph" transform="scale(1 1) rotate(0) translate(4 84)">
<title>CreateMessageRouterRequestStructure</title>
<!-- Node1 -->
<g id="node1" class="node"><title>Node1</title>
<polygon fill="#bfbfbf" stroke="black" points="0,-24.5 0,-54.5 152,-54.5 152,-24.5 0,-24.5"/>
<text text-anchor="start" x="8" y="-42.5" font-family="Helvetica,sans-Serif" font-size="10.00">CreateMessageRouterRequest</text>
<text text-anchor="middle" x="76" y="-31.5" font-family="Helvetica,sans-Serif" font-size="10.00">Structure</text>
</g>
<!-- Node2 -->
<g id="node2" class="node"><title>Node2</title>
<g id="a_node2"><a xlink:href="../../d2/d75/cipmessagerouter_8h.html#a234c9436c4c2f2e9737b8bea98c4d83f" target="_top" xlink:title="Notify the MessageRouter that an explicit message (connected or unconnected) has been received...">
<polygon fill="none" stroke="black" points="188,-30 188,-49 300,-49 300,-30 188,-30"/>
<text text-anchor="middle" x="244" y="-37" font-family="Helvetica,sans-Serif" font-size="10.00">NotifyMessageRouter</text>
</a>
</g>
</g>
<!-- Node1&#45;&gt;Node2 -->
<g id="edge1" class="edge"><title>Node1&#45;&gt;Node2</title>
<path fill="none" stroke="midnightblue" d="M162.391,-39.5C171.054,-39.5 179.682,-39.5 187.897,-39.5"/>
<polygon fill="midnightblue" stroke="midnightblue" points="162.229,-36.0001 152.229,-39.5 162.229,-43.0001 162.229,-36.0001"/>
</g>
<!-- Node3 -->
<g id="node3" class="node"><title>Node3</title>
<g id="a_node3"><a xlink:href="../../d4/d91/group__ENCAP.html#gaf4beeca6ee941986295958572352a567" target="_top" xlink:title="NotifyCommonPacketFormat">
<polygon fill="none" stroke="black" points="344.5,-53 344.5,-72 488.5,-72 488.5,-53 344.5,-53"/>
<text text-anchor="middle" x="416.5" y="-60" font-family="Helvetica,sans-Serif" font-size="10.00">NotifyCommonPacketFormat</text>
</a>
</g>
</g>
<!-- Node2&#45;&gt;Node3 -->
<g id="edge2" class="edge"><title>Node2&#45;&gt;Node3</title>
<path fill="none" stroke="midnightblue" d="M310.523,-48.3389C321.768,-49.8557 333.497,-51.438 344.868,-52.972"/>
<polygon fill="midnightblue" stroke="midnightblue" points="310.735,-44.8358 300.356,-46.9674 309.799,-51.773 310.735,-44.8358"/>
</g>
<!-- Node12 -->
<g id="node12" class="node"><title>Node12</title>
<g id="a_node12"><a xlink:href="../../d4/d91/group__ENCAP.html#ga93b23ccc67639937716a8f436a96c2b5" target="_top" xlink:title="NotifyConnectedCommonPacket\lFormat">
<polygon fill="none" stroke="black" points="336,-2.5 336,-32.5 497,-32.5 497,-2.5 336,-2.5"/>
<text text-anchor="start" x="344" y="-20.5" font-family="Helvetica,sans-Serif" font-size="10.00">NotifyConnectedCommonPacket</text>
<text text-anchor="middle" x="416.5" y="-9.5" font-family="Helvetica,sans-Serif" font-size="10.00">Format</text>
</a>
</g>
</g>
<!-- Node2&#45;&gt;Node12 -->
<g id="edge11" class="edge"><title>Node2&#45;&gt;Node12</title>
<path fill="none" stroke="midnightblue" d="M310.403,-31.0609C318.768,-29.9816 327.403,-28.8674 335.96,-27.7632"/>
<polygon fill="midnightblue" stroke="midnightblue" points="309.826,-27.6062 300.356,-32.3572 310.722,-34.5487 309.826,-27.6062"/>
</g>
<!-- Node4 -->
<g id="node4" class="node"><title>Node4</title>
<g id="a_node4"><a xlink:href="../../d7/df9/encap_8h.html#a51dd68441ec427052986aef5c5c076e4" target="_top" xlink:title="Call UCMM or Message Router if UCMM not implemented. ">
<polygon fill="none" stroke="black" points="534,-49.5 534,-79.5 682,-79.5 682,-49.5 534,-49.5"/>
<text text-anchor="start" x="542" y="-67.5" font-family="Helvetica,sans-Serif" font-size="10.00">HandleReceivedSendRequest</text>
<text text-anchor="middle" x="608" y="-56.5" font-family="Helvetica,sans-Serif" font-size="10.00">ResponseDataCommand</text>
</a>
</g>
</g>
<!-- Node3&#45;&gt;Node4 -->
<g id="edge3" class="edge"><title>Node3&#45;&gt;Node4</title>
<path fill="none" stroke="midnightblue" d="M498.775,-63.3578C510.454,-63.481 522.412,-63.6073 533.92,-63.7287"/>
<polygon fill="midnightblue" stroke="midnightblue" points="498.638,-59.8562 488.602,-63.2504 498.564,-66.8559 498.638,-59.8562"/>
</g>
<!-- Node5 -->
<g id="node5" class="node"><title>Node5</title>
<g id="a_node5"><a xlink:href="../../d2/dc9/group__CIP__API.html#ga16eaeeb12ba23b5a75c8e5902a33d70a" target="_top" xlink:title="Notify the encapsulation layer that an explicit message has been received via TCP. ">
<polygon fill="none" stroke="black" points="719,-30 719,-49 875,-49 875,-30 719,-30"/>
<text text-anchor="middle" x="797" y="-37" font-family="Helvetica,sans-Serif" font-size="10.00">HandleReceivedExplictTcpData</text>
</a>
</g>
</g>
<!-- Node4&#45;&gt;Node5 -->
<g id="edge4" class="edge"><title>Node4&#45;&gt;Node5</title>
<path fill="none" stroke="midnightblue" d="M692.059,-53.3959C702.978,-51.9361 714.09,-50.4506 724.788,-49.0203"/>
<polygon fill="midnightblue" stroke="midnightblue" points="691.551,-49.9326 682.103,-54.7269 692.478,-56.8709 691.551,-49.9326"/>
</g>
<!-- Node6 -->
<g id="node6" class="node"><title>Node6</title>
<g id="a_node6"><a xlink:href="../../db/d4f/generic__networkhandler_8c.html#aca5593b7dd39d7a7b437999a367102d6" target="_top" xlink:title="Handles data on an established TCP connection, processed connection is given by socket. ">
<polygon fill="none" stroke="black" points="911,-30 911,-49 1039,-49 1039,-30 911,-30"/>
<text text-anchor="middle" x="975" y="-37" font-family="Helvetica,sans-Serif" font-size="10.00">HandleDataOnTcpSocket</text>
</a>
</g>
</g>
<!-- Node5&#45;&gt;Node6 -->
<g id="edge5" class="edge"><title>Node5&#45;&gt;Node6</title>
<path fill="none" stroke="midnightblue" d="M885.293,-39.5C893.914,-39.5 902.545,-39.5 910.853,-39.5"/>
<polygon fill="midnightblue" stroke="midnightblue" points="885.196,-36.0001 875.196,-39.5 885.196,-43.0001 885.196,-36.0001"/>
</g>
<!-- Node7 -->
<g id="node7" class="node"><title>Node7</title>
<g id="a_node7"><a xlink:href="../../da/dc2/generic__networkhandler_8h.html#a2f01af81d3e5018d9980e2bc28c9078a" target="_top" xlink:title="NetworkHandlerProcessOnce">
<polygon fill="none" stroke="black" points="1075,-30 1075,-49 1221,-49 1221,-30 1075,-30"/>
<text text-anchor="middle" x="1148" y="-37" font-family="Helvetica,sans-Serif" font-size="10.00">NetworkHandlerProcessOnce</text>
</a>
</g>
</g>
<!-- Node6&#45;&gt;Node7 -->
<g id="edge6" class="edge"><title>Node6&#45;&gt;Node7</title>
<path fill="none" stroke="midnightblue" d="M1049.38,-39.5C1057.82,-39.5 1066.42,-39.5 1074.84,-39.5"/>
<polygon fill="midnightblue" stroke="midnightblue" points="1049.19,-36.0001 1039.19,-39.5 1049.19,-43.0001 1049.19,-36.0001"/>
</g>
<!-- Node8 -->
<g id="node8" class="node"><title>Node8</title>
<g id="a_node8"><a xlink:href="../../d5/dcb/MINGW_2main_8c.html#ad338a7dbc41dc40bcecd0479377ef207" target="_top" xlink:title="main">
<polygon fill="none" stroke="black" points="1272,-49 1272,-68 1310,-68 1310,-49 1272,-49"/>
<text text-anchor="middle" x="1291" y="-56" font-family="Helvetica,sans-Serif" font-size="10.00">main</text>
</a>
</g>
</g>
<!-- Node7&#45;&gt;Node8 -->
<g id="edge7" class="edge"><title>Node7&#45;&gt;Node8</title>
<path fill="none" stroke="midnightblue" d="M1229.85,-50.3949C1245.71,-52.5322 1260.86,-54.5731 1271.98,-56.0724"/>
<polygon fill="midnightblue" stroke="midnightblue" points="1230.29,-46.9225 1219.91,-49.0557 1229.36,-53.8598 1230.29,-46.9225"/>
</g>
<!-- Node11 -->
<g id="node11" class="node"><title>Node11</title>
<g id="a_node11"><a xlink:href="../../d9/dfb/POSIX_2main_8c.html#acd4e45a35a64f9cb29b59f63492b61d2" target="_top" xlink:title="Signal handler function for ending stack execution. ">
<polygon fill="none" stroke="black" points="1257,-11 1257,-30 1325,-30 1325,-11 1257,-11"/>
<text text-anchor="middle" x="1291" y="-18" font-family="Helvetica,sans-Serif" font-size="10.00">LeaveStack</text>
</a>
</g>
</g>
<!-- Node7&#45;&gt;Node11 -->
<g id="edge10" class="edge"><title>Node7&#45;&gt;Node11</title>
<path fill="none" stroke="midnightblue" d="M1229.85,-28.6051C1239.33,-27.3281 1248.55,-26.0855 1256.81,-24.9723"/>
<polygon fill="midnightblue" stroke="midnightblue" points="1229.36,-25.1402 1219.91,-29.9443 1230.29,-32.0775 1229.36,-25.1402"/>
</g>
<!-- Node9 -->
<g id="node9" class="node"><title>Node9</title>
<g id="a_node9"><a xlink:href="../../d8/d03/ports_2MINGW_2CMakeLists_8txt.html#a7e00df43a20d627a1732be7766d91097" target="_top" xlink:title="add_library">
<polygon fill="none" stroke="black" points="1361,-49 1361,-68 1425,-68 1425,-49 1361,-49"/>
<text text-anchor="middle" x="1393" y="-56" font-family="Helvetica,sans-Serif" font-size="10.00">add_library</text>
</a>
</g>
</g>
<!-- Node8&#45;&gt;Node9 -->
<g id="edge8" class="edge"><title>Node8&#45;&gt;Node9</title>
<path fill="none" stroke="midnightblue" d="M1320.7,-58.5C1333.24,-58.5 1347.99,-58.5 1360.81,-58.5"/>
<polygon fill="midnightblue" stroke="midnightblue" points="1320.34,-55.0001 1310.34,-58.5 1320.34,-62.0001 1320.34,-55.0001"/>
</g>
<!-- Node10 -->
<g id="node10" class="node"><title>Node10</title>
<g id="a_node10"><a xlink:href="../../d8/dce/ports_2CMakeLists_8txt.html#a598fae457555a5fb26e18d4cd8f89de9" target="_top" xlink:title="add_subdirectory">
<polygon fill="none" stroke="black" points="1461,-49 1461,-68 1552,-68 1552,-49 1461,-49"/>
<text text-anchor="middle" x="1506.5" y="-56" font-family="Helvetica,sans-Serif" font-size="10.00">add_subdirectory</text>
</a>
</g>
</g>
<!-- Node9&#45;&gt;Node10 -->
<g id="edge9" class="edge"><title>Node9&#45;&gt;Node10</title>
<path fill="none" stroke="midnightblue" d="M1435.3,-58.5C1443.63,-58.5 1452.42,-58.5 1460.86,-58.5"/>
<polygon fill="midnightblue" stroke="midnightblue" points="1435.06,-55.0001 1425.06,-58.5 1435.06,-62.0001 1435.06,-55.0001"/>
</g>
<!-- Node13 -->
<g id="node13" class="node"><title>Node13</title>
<g id="a_node13"><a xlink:href="../../d2/dbd/encap_8c.html#a49dc585614f655a5b313150a01fd7221" target="_top" xlink:title="Call Connection Manager. ">
<polygon fill="none" stroke="black" points="533,-0.5 533,-30.5 683,-30.5 683,-0.5 533,-0.5"/>
<text text-anchor="start" x="541" y="-18.5" font-family="Helvetica,sans-Serif" font-size="10.00">HandleReceivedSendUnitData</text>
<text text-anchor="middle" x="608" y="-7.5" font-family="Helvetica,sans-Serif" font-size="10.00">Command</text>
</a>
</g>
</g>
<!-- Node12&#45;&gt;Node13 -->
<g id="edge12" class="edge"><title>Node12&#45;&gt;Node13</title>
<path fill="none" stroke="midnightblue" d="M507.101,-16.5543C515.706,-16.4635 524.369,-16.3721 532.803,-16.2831"/>
<polygon fill="midnightblue" stroke="midnightblue" points="507.004,-13.0551 497.041,-16.6605 507.078,-20.0547 507.004,-13.0551"/>
</g>
<!-- Node13&#45;&gt;Node5 -->
<g id="edge13" class="edge"><title>Node13&#45;&gt;Node5</title>
<path fill="none" stroke="midnightblue" d="M693.117,-26.2958C702.72,-27.5282 712.455,-28.7777 721.914,-29.9916"/>
<polygon fill="midnightblue" stroke="midnightblue" points="693.54,-22.8214 683.176,-25.0199 692.649,-29.7645 693.54,-22.8214"/>
</g>
</g>
</svg>
