<?xml version="1.0" encoding="UTF-8" standalone="no"?>
<!DOCTYPE svg PUBLIC "-//W3C//DTD SVG 1.1//EN"
 "http://www.w3.org/Graphics/SVG/1.1/DTD/svg11.dtd">
<!-- Generated by graphviz version 2.36.0 (20140111.2315)
 -->
<!-- Title: src/enet_encap/encap.h Pages: 1 -->
<svg width="582pt" height="364pt"
 viewBox="0.00 0.00 582.16 364.00" xmlns="http://www.w3.org/2000/svg" xmlns:xlink="http://www.w3.org/1999/xlink">
<g id="graph0" class="graph" transform="scale(1 1) rotate(0) translate(4 360)">
<title>src/enet_encap/encap.h</title>
<!-- Node1 -->
<g id="node1" class="node"><title>Node1</title>
<polygon fill="#bfbfbf" stroke="black" points="335.66,-336.5 335.66,-355.5 456.66,-355.5 456.66,-336.5 335.66,-336.5"/>
<text text-anchor="middle" x="396.16" y="-343.5" font-family="Helvetica,sans-Serif" font-size="10.00">src/enet_encap/encap.h</text>
</g>
<!-- Node2 -->
<g id="node2" class="node"><title>Node2</title>
<g id="a_node2"><a xlink:href="../../d7/d69/typedefs_8h.html" target="_top" xlink:title="typedefs.h">
<polygon fill="none" stroke="black" points="358.16,-56.5 358.16,-75.5 420.16,-75.5 420.16,-56.5 358.16,-56.5"/>
<text text-anchor="middle" x="389.16" y="-63.5" font-family="Helvetica,sans-Serif" font-size="10.00">typedefs.h</text>
</a>
</g>
</g>
<!-- Node1&#45;&gt;Node2 -->
<g id="edge1" class="edge"><title>Node1&#45;&gt;Node2</title>
<path fill="none" stroke="midnightblue" d="M426.837,-336.464C468.855,-322.682 539.16,-291.223 539.16,-235 539.16,-235 539.16,-235 539.16,-177 539.16,-122.659 474.35,-92.229 429.932,-77.755"/>
<polygon fill="midnightblue" stroke="midnightblue" points="430.828,-74.3686 420.24,-74.7413 428.75,-81.0529 430.828,-74.3686"/>
</g>
<!-- Node7 -->
<g id="node7" class="node"><title>Node7</title>
<g id="a_node7"><a xlink:href="../../d1/d6c/cipconnectionobject_8h.html" target="_top" xlink:title="cipconnectionobject.h">
<polygon fill="none" stroke="black" points="160.66,-280.5 160.66,-299.5 271.66,-299.5 271.66,-280.5 160.66,-280.5"/>
<text text-anchor="middle" x="216.16" y="-287.5" font-family="Helvetica,sans-Serif" font-size="10.00">cipconnectionobject.h</text>
</a>
</g>
</g>
<!-- Node1&#45;&gt;Node7 -->
<g id="edge6" class="edge"><title>Node1&#45;&gt;Node7</title>
<path fill="none" stroke="midnightblue" d="M367.639,-336.444C337.094,-327.28 288.452,-312.688 254.557,-302.519"/>
<polygon fill="midnightblue" stroke="midnightblue" points="255.132,-299.038 244.548,-299.516 253.121,-305.742 255.132,-299.038"/>
</g>
<!-- Node3 -->
<g id="node3" class="node"><title>Node3</title>
<polygon fill="none" stroke="#bfbfbf" points="285.66,-0.5 285.66,-19.5 344.66,-19.5 344.66,-0.5 285.66,-0.5"/>
<text text-anchor="middle" x="315.16" y="-7.5" font-family="Helvetica,sans-Serif" font-size="10.00">inttypes.h</text>
</g>
<!-- Node2&#45;&gt;Node3 -->
<g id="edge2" class="edge"><title>Node2&#45;&gt;Node3</title>
<path fill="none" stroke="midnightblue" d="M377.271,-56.324C366.01,-48.1066 348.874,-35.6017 335.451,-25.8069"/>
<polygon fill="midnightblue" stroke="midnightblue" points="337.407,-22.9014 327.266,-19.8339 333.281,-28.5559 337.407,-22.9014"/>
</g>
<!-- Node4 -->
<g id="node4" class="node"><title>Node4</title>
<polygon fill="none" stroke="#bfbfbf" points="363.16,-0.5 363.16,-19.5 415.16,-19.5 415.16,-0.5 363.16,-0.5"/>
<text text-anchor="middle" x="389.16" y="-7.5" font-family="Helvetica,sans-Serif" font-size="10.00">stddef.h</text>
</g>
<!-- Node2&#45;&gt;Node4 -->
<g id="edge3" class="edge"><title>Node2&#45;&gt;Node4</title>
<path fill="none" stroke="midnightblue" d="M389.16,-56.083C389.16,-49.0059 389.16,-38.8611 389.16,-29.9865"/>
<polygon fill="midnightblue" stroke="midnightblue" points="392.66,-29.751 389.16,-19.7511 385.66,-29.7511 392.66,-29.751"/>
</g>
<!-- Node5 -->
<g id="node5" class="node"><title>Node5</title>
<polygon fill="none" stroke="#bfbfbf" points="122.16,-0.5 122.16,-19.5 178.16,-19.5 178.16,-0.5 122.16,-0.5"/>
<text text-anchor="middle" x="150.16" y="-7.5" font-family="Helvetica,sans-Serif" font-size="10.00">stdbool.h</text>
</g>
<!-- Node2&#45;&gt;Node5 -->
<g id="edge4" class="edge"><title>Node2&#45;&gt;Node5</title>
<path fill="none" stroke="midnightblue" d="M357.915,-57.9404C314.299,-48.0858 235.243,-30.2237 188.237,-19.6031"/>
<polygon fill="midnightblue" stroke="midnightblue" points="188.959,-16.1782 178.434,-17.3882 187.417,-23.0061 188.959,-16.1782"/>
</g>
<!-- Node6 -->
<g id="node6" class="node"><title>Node6</title>
<polygon fill="none" stroke="#bfbfbf" points="433.66,-0.5 433.66,-19.5 574.66,-19.5 574.66,-0.5 433.66,-0.5"/>
<text text-anchor="middle" x="504.16" y="-7.5" font-family="Helvetica,sans-Serif" font-size="10.00">platform_network_includes.h</text>
</g>
<!-- Node2&#45;&gt;Node6 -->
<g id="edge5" class="edge"><title>Node2&#45;&gt;Node6</title>
<path fill="none" stroke="midnightblue" d="M407.382,-56.4435C426.056,-47.6751 455.316,-33.9355 476.777,-23.8579"/>
<polygon fill="midnightblue" stroke="midnightblue" points="478.459,-26.935 486.023,-19.5164 475.484,-20.5988 478.459,-26.935"/>
</g>
<!-- Node7&#45;&gt;Node2 -->
<g id="edge7" class="edge"><title>Node7&#45;&gt;Node2</title>
<path fill="none" stroke="midnightblue" d="M271.883,-286.396C333.879,-279.972 429.497,-258.509 461.16,-188 474.997,-157.187 477.534,-141.543 461.16,-112 453.071,-97.405 438.057,-86.9185 423.824,-79.7608"/>
<polygon fill="midnightblue" stroke="midnightblue" points="425.21,-76.5459 414.664,-75.5282 422.274,-82.9002 425.21,-76.5459"/>
</g>
<!-- Node8 -->
<g id="node8" class="node"><title>Node8</title>
<g id="a_node8"><a xlink:href="../../df/d28/ciptypes_8h.html" target="_top" xlink:title="ciptypes.h">
<polygon fill="none" stroke="black" points="176.16,-168.5 176.16,-187.5 238.16,-187.5 238.16,-168.5 176.16,-168.5"/>
<text text-anchor="middle" x="207.16" y="-175.5" font-family="Helvetica,sans-Serif" font-size="10.00">ciptypes.h</text>
</a>
</g>
</g>
<!-- Node7&#45;&gt;Node8 -->
<g id="edge8" class="edge"><title>Node7&#45;&gt;Node8</title>
<path fill="none" stroke="midnightblue" d="M211.539,-280.339C207.101,-271.493 200.706,-257.22 198.16,-244 195.164,-228.443 198.079,-210.608 201.367,-197.559"/>
<polygon fill="midnightblue" stroke="midnightblue" points="204.751,-198.454 204.095,-187.88 198.013,-196.555 204.751,-198.454"/>
</g>
<!-- Node11 -->
<g id="node11" class="node"><title>Node11</title>
<polygon fill="none" stroke="#bfbfbf" points="89.1601,-56.5 89.1601,-75.5 191.16,-75.5 191.16,-56.5 89.1601,-56.5"/>
<text text-anchor="middle" x="140.16" y="-63.5" font-family="Helvetica,sans-Serif" font-size="10.00">opener_user_conf.h</text>
</g>
<!-- Node7&#45;&gt;Node11 -->
<g id="edge15" class="edge"><title>Node7&#45;&gt;Node11</title>
<path fill="none" stroke="midnightblue" d="M160.647,-283.183C129.476,-277.494 91.4759,-266.244 64.1601,-244 20.3713,-208.342 17.907,-186.772 4.16008,-132 1.99622,-123.379 -1.0453,-119.205 4.16008,-112 21.2819,-88.2999 51.3592,-76.8772 78.8822,-71.4538"/>
<polygon fill="midnightblue" stroke="midnightblue" points="79.6254,-74.8772 88.8779,-69.7156 78.426,-67.9807 79.6254,-74.8772"/>
</g>
<!-- Node12 -->
<g id="node12" class="node"><title>Node12</title>
<g id="a_node12"><a xlink:href="../../d4/d38/opener__api_8h.html" target="_top" xlink:title="opener_api.h">
<polygon fill="none" stroke="black" points="317.16,-224.5 317.16,-243.5 389.16,-243.5 389.16,-224.5 317.16,-224.5"/>
<text text-anchor="middle" x="353.16" y="-231.5" font-family="Helvetica,sans-Serif" font-size="10.00">opener_api.h</text>
</a>
</g>
</g>
<!-- Node7&#45;&gt;Node12 -->
<g id="edge16" class="edge"><title>Node7&#45;&gt;Node12</title>
<path fill="none" stroke="midnightblue" d="M237.868,-280.444C260.515,-271.517 296.232,-257.439 321.912,-247.317"/>
<polygon fill="midnightblue" stroke="midnightblue" points="323.534,-250.44 331.554,-243.516 320.967,-243.927 323.534,-250.44"/>
</g>
<!-- Node15 -->
<g id="node15" class="node"><title>Node15</title>
<g id="a_node15"><a xlink:href="../../d9/d31/doublylinkedlist_8h.html" target="_top" xlink:title="doublylinkedlist.h">
<polygon fill="none" stroke="black" points="207.16,-224.5 207.16,-243.5 299.16,-243.5 299.16,-224.5 207.16,-224.5"/>
<text text-anchor="middle" x="253.16" y="-231.5" font-family="Helvetica,sans-Serif" font-size="10.00">doublylinkedlist.h</text>
</a>
</g>
</g>
<!-- Node7&#45;&gt;Node15 -->
<g id="edge22" class="edge"><title>Node7&#45;&gt;Node15</title>
<path fill="none" stroke="midnightblue" d="M222.27,-280.083C227.442,-272.534 235.006,-261.495 241.355,-252.23"/>
<polygon fill="midnightblue" stroke="midnightblue" points="244.399,-253.979 247.164,-243.751 238.624,-250.022 244.399,-253.979"/>
</g>
<!-- Node16 -->
<g id="node16" class="node"><title>Node16</title>
<g id="a_node16"><a xlink:href="../../d0/d23/cipelectronickey_8h.html" target="_top" xlink:title="cipelectronickey.h">
<polygon fill="none" stroke="black" points="13.6601,-112.5 13.6601,-131.5 108.66,-131.5 108.66,-112.5 13.6601,-112.5"/>
<text text-anchor="middle" x="61.1601" y="-119.5" font-family="Helvetica,sans-Serif" font-size="10.00">cipelectronickey.h</text>
</a>
</g>
</g>
<!-- Node7&#45;&gt;Node16 -->
<g id="edge23" class="edge"><title>Node7&#45;&gt;Node16</title>
<path fill="none" stroke="midnightblue" d="M160.544,-284.138C132.379,-278.719 100.029,-267.422 80.1601,-244 55.5958,-215.043 56.0564,-167.607 58.5819,-141.563"/>
<polygon fill="midnightblue" stroke="midnightblue" points="62.0691,-141.877 59.7643,-131.535 55.1172,-141.057 62.0691,-141.877"/>
</g>
<!-- Node17 -->
<g id="node17" class="node"><title>Node17</title>
<g id="a_node17"><a xlink:href="../../d1/d02/cipepath_8h.html" target="_top" xlink:title="cipepath.h">
<polygon fill="none" stroke="black" points="89.1601,-224.5 89.1601,-243.5 151.16,-243.5 151.16,-224.5 89.1601,-224.5"/>
<text text-anchor="middle" x="120.16" y="-231.5" font-family="Helvetica,sans-Serif" font-size="10.00">cipepath.h</text>
</a>
</g>
</g>
<!-- Node7&#45;&gt;Node17 -->
<g id="edge26" class="edge"><title>Node7&#45;&gt;Node17</title>
<path fill="none" stroke="midnightblue" d="M200.736,-280.324C185.621,-271.822 162.345,-258.729 144.689,-248.797"/>
<polygon fill="midnightblue" stroke="midnightblue" points="145.978,-245.507 135.546,-243.655 142.546,-251.608 145.978,-245.507"/>
</g>
<!-- Node8&#45;&gt;Node2 -->
<g id="edge9" class="edge"><title>Node8&#45;&gt;Node2</title>
<path fill="none" stroke="midnightblue" d="M221.441,-168.368C252.805,-149.412 327.941,-104.001 366.092,-80.9424"/>
<polygon fill="midnightblue" stroke="midnightblue" points="368.197,-83.7595 374.945,-75.5914 364.576,-77.7687 368.197,-83.7595"/>
</g>
<!-- Node9 -->
<g id="node9" class="node"><title>Node9</title>
<g id="a_node9"><a xlink:href="../../d0/d47/networkhandler_8h.html" target="_top" xlink:title="networkhandler.h">
<polygon fill="none" stroke="black" points="343.66,-112.5 343.66,-131.5 434.66,-131.5 434.66,-112.5 343.66,-112.5"/>
<text text-anchor="middle" x="389.16" y="-119.5" font-family="Helvetica,sans-Serif" font-size="10.00">networkhandler.h</text>
</a>
</g>
</g>
<!-- Node8&#45;&gt;Node9 -->
<g id="edge10" class="edge"><title>Node8&#45;&gt;Node9</title>
<path fill="none" stroke="midnightblue" d="M235.999,-168.444C267.016,-159.241 316.489,-144.562 350.778,-134.388"/>
<polygon fill="midnightblue" stroke="midnightblue" points="351.865,-137.716 360.457,-131.516 349.874,-131.006 351.865,-137.716"/>
</g>
<!-- Node10 -->
<g id="node10" class="node"><title>Node10</title>
<g id="a_node10"><a xlink:href="../../d8/d2c/enipmessage_8h.html" target="_top" xlink:title="enipmessage.h">
<polygon fill="none" stroke="black" points="165.66,-112.5 165.66,-131.5 248.66,-131.5 248.66,-112.5 165.66,-112.5"/>
<text text-anchor="middle" x="207.16" y="-119.5" font-family="Helvetica,sans-Serif" font-size="10.00">enipmessage.h</text>
</a>
</g>
</g>
<!-- Node8&#45;&gt;Node10 -->
<g id="edge12" class="edge"><title>Node8&#45;&gt;Node10</title>
<path fill="none" stroke="midnightblue" d="M207.16,-168.083C207.16,-161.006 207.16,-150.861 207.16,-141.986"/>
<polygon fill="midnightblue" stroke="midnightblue" points="210.66,-141.751 207.16,-131.751 203.66,-141.751 210.66,-141.751"/>
</g>
<!-- Node8&#45;&gt;Node11 -->
<g id="edge14" class="edge"><title>Node8&#45;&gt;Node11</title>
<path fill="none" stroke="midnightblue" d="M193.352,-168.355C181.695,-160.338 165.458,-147.352 156.16,-132 147.599,-117.866 143.612,-99.3806 141.759,-85.7379"/>
<polygon fill="midnightblue" stroke="midnightblue" points="145.219,-85.1782 140.651,-75.6187 138.261,-85.9403 145.219,-85.1782"/>
</g>
<!-- Node9&#45;&gt;Node2 -->
<g id="edge11" class="edge"><title>Node9&#45;&gt;Node2</title>
<path fill="none" stroke="midnightblue" d="M389.16,-112.083C389.16,-105.006 389.16,-94.8611 389.16,-85.9865"/>
<polygon fill="midnightblue" stroke="midnightblue" points="392.66,-85.751 389.16,-75.7511 385.66,-85.7511 392.66,-85.751"/>
</g>
<!-- Node10&#45;&gt;Node11 -->
<g id="edge13" class="edge"><title>Node10&#45;&gt;Node11</title>
<path fill="none" stroke="midnightblue" d="M196.395,-112.324C186.394,-104.263 171.274,-92.0765 159.23,-82.3695"/>
<polygon fill="midnightblue" stroke="midnightblue" points="161.103,-79.3841 151.121,-75.8339 156.71,-84.8343 161.103,-79.3841"/>
</g>
<!-- Node12&#45;&gt;Node2 -->
<g id="edge19" class="edge"><title>Node12&#45;&gt;Node2</title>
<path fill="none" stroke="midnightblue" d="M389.28,-224.426C408.48,-217.848 430.475,-206.627 442.16,-188 460.111,-159.384 457.488,-142.591 443.16,-112 437.115,-99.0941 425.348,-88.5985 414.338,-80.9999"/>
<polygon fill="midnightblue" stroke="midnightblue" points="416.104,-77.9748 405.793,-75.5364 412.333,-83.8723 416.104,-77.9748"/>
</g>
<!-- Node12&#45;&gt;Node5 -->
<g id="edge18" class="edge"><title>Node12&#45;&gt;Node5</title>
<path fill="none" stroke="midnightblue" d="M339.391,-224.321C327.158,-216.097 309.374,-202.824 297.16,-188 272.887,-158.541 280.069,-142.532 257.16,-112 235.655,-83.3387 225.247,-80.5649 199.16,-56 188.624,-46.0788 176.664,-35.0894 167.197,-26.4541"/>
<polygon fill="midnightblue" stroke="midnightblue" points="169.37,-23.6993 159.618,-19.5576 164.659,-28.8766 169.37,-23.6993"/>
</g>
<!-- Node12&#45;&gt;Node8 -->
<g id="edge20" class="edge"><title>Node12&#45;&gt;Node8</title>
<path fill="none" stroke="midnightblue" d="M330.026,-224.444C305.678,-215.438 267.153,-201.189 239.737,-191.049"/>
<polygon fill="midnightblue" stroke="midnightblue" points="240.779,-187.703 230.186,-187.516 238.351,-194.268 240.779,-187.703"/>
</g>
<!-- Node13 -->
<g id="node13" class="node"><title>Node13</title>
<polygon fill="none" stroke="#bfbfbf" points="306.16,-168.5 306.16,-187.5 358.16,-187.5 358.16,-168.5 306.16,-168.5"/>
<text text-anchor="middle" x="332.16" y="-175.5" font-family="Helvetica,sans-Serif" font-size="10.00">assert.h</text>
</g>
<!-- Node12&#45;&gt;Node13 -->
<g id="edge17" class="edge"><title>Node12&#45;&gt;Node13</title>
<path fill="none" stroke="midnightblue" d="M349.692,-224.083C346.848,-216.77 342.731,-206.181 339.2,-197.103"/>
<polygon fill="midnightblue" stroke="midnightblue" points="342.45,-195.803 335.563,-187.751 335.926,-198.34 342.45,-195.803"/>
</g>
<!-- Node14 -->
<g id="node14" class="node"><title>Node14</title>
<g id="a_node14"><a xlink:href="../../d6/d52/ciperror_8h.html" target="_top" xlink:title="ciperror.h">
<polygon fill="none" stroke="black" points="376.66,-168.5 376.66,-187.5 433.66,-187.5 433.66,-168.5 376.66,-168.5"/>
<text text-anchor="middle" x="405.16" y="-175.5" font-family="Helvetica,sans-Serif" font-size="10.00">ciperror.h</text>
</a>
</g>
</g>
<!-- Node12&#45;&gt;Node14 -->
<g id="edge21" class="edge"><title>Node12&#45;&gt;Node14</title>
<path fill="none" stroke="midnightblue" d="M361.747,-224.083C369.319,-216.22 380.538,-204.569 389.674,-195.081"/>
<polygon fill="midnightblue" stroke="midnightblue" points="392.318,-197.382 396.733,-187.751 387.276,-192.527 392.318,-197.382"/>
</g>
<!-- Node16&#45;&gt;Node2 -->
<g id="edge25" class="edge"><title>Node16&#45;&gt;Node2</title>
<path fill="none" stroke="midnightblue" d="M108.854,-113.148C173.35,-102.53 287.291,-83.7711 348.146,-73.7523"/>
<polygon fill="midnightblue" stroke="midnightblue" points="348.856,-77.1826 358.155,-72.1045 347.719,-70.2756 348.856,-77.1826"/>
</g>
<!-- Node16&#45;&gt;Node5 -->
<g id="edge24" class="edge"><title>Node16&#45;&gt;Node5</title>
<path fill="none" stroke="midnightblue" d="M61.7935,-112.142C63.1502,-98.7612 67.3485,-73.1384 80.1601,-56 90.351,-42.3673 105.987,-31.7518 119.899,-24.2636"/>
<polygon fill="midnightblue" stroke="midnightblue" points="121.819,-27.2146 129.166,-19.5806 118.662,-20.967 121.819,-27.2146"/>
</g>
<!-- Node17&#45;&gt;Node5 -->
<g id="edge27" class="edge"><title>Node17&#45;&gt;Node5</title>
<path fill="none" stroke="midnightblue" d="M99.6155,-224.497C60.4847,-206.92 -18.8806,-163.859 4.16008,-112 24.4639,-66.3012 77.6754,-37.9592 113.927,-23.3293"/>
<polygon fill="midnightblue" stroke="midnightblue" points="115.597,-26.436 123.661,-19.5634 113.071,-19.9075 115.597,-26.436"/>
</g>
<!-- Node17&#45;&gt;Node8 -->
<g id="edge28" class="edge"><title>Node17&#45;&gt;Node8</title>
<path fill="none" stroke="midnightblue" d="M134.138,-224.324C147.71,-215.9 168.54,-202.971 184.485,-193.074"/>
<polygon fill="midnightblue" stroke="midnightblue" points="186.566,-195.902 193.217,-187.655 182.875,-189.954 186.566,-195.902"/>
</g>
<!-- Node17&#45;&gt;Node16 -->
<g id="edge29" class="edge"><title>Node17&#45;&gt;Node16</title>
<path fill="none" stroke="midnightblue" d="M115.53,-224.368C105.88,-206.376 83.4462,-164.55 70.6144,-140.627"/>
<polygon fill="midnightblue" stroke="midnightblue" points="73.5793,-138.749 65.7682,-131.591 67.4106,-142.058 73.5793,-138.749"/>
</g>
</g>
</svg>
