<?xml version="1.0" encoding="UTF-8" standalone="no"?>
<!DOCTYPE svg PUBLIC "-//W3C//DTD SVG 1.1//EN"
 "http://www.w3.org/Graphics/SVG/1.1/DTD/svg11.dtd">
<!-- Generated by graphviz version 2.36.0 (20140111.2315)
 -->
<!-- Title: src/enet_encap/encap.h Pages: 1 -->
<!--zoomable 364 -->
<svg id="main" version="1.1" xmlns="http://www.w3.org/2000/svg" xmlns:xlink="http://www.w3.org/1999/xlink" xml:space="preserve" onload="init(evt)">
<style type="text/css"><![CDATA[
.edge:hover path { stroke: red; }
.edge:hover polygon { stroke: red; fill: red; }
]]></style>
<script type="text/javascript"><![CDATA[
var edges = document.getElementsByTagName('g');
if (edges && edges.length) {
  for (var i=0;i<edges.length;i++) {
    if (edges[i].id.substr(0,4)=='edge') {
      edges[i].setAttribute('class','edge');
    }
  }
}
]]></script>
        <defs>
                <circle id="rim" cx="0" cy="0" r="7"/>
                <circle id="rim2" cx="0" cy="0" r="3.5"/>
                <g id="zoomPlus">
                        <use xlink:href="#rim" fill="#404040">
                                <set attributeName="fill" to="#808080" begin="zoomplus.mouseover" end="zoomplus.mouseout"/>
                        </use>
                        <path d="M-4,0h8M0,-4v8" fill="none" stroke="white" stroke-width="1.5" pointer-events="none"/>
                </g>
                <g id="zoomMin">
                        <use xlink:href="#rim" fill="#404040">
                                <set attributeName="fill" to="#808080" begin="zoomminus.mouseover" end="zoomminus.mouseout"/>
                        </use>
                        <path d="M-4,0h8" fill="none" stroke="white" stroke-width="1.5" pointer-events="none"/>
                </g>
                <g id="dirArrow">
                        <path fill="none" stroke="white" stroke-width="1.5" d="M0,-3.0v7 M-2.5,-0.5L0,-3.0L2.5,-0.5"/>
                </g>
               <g id="resetDef">
                       <use xlink:href="#rim2" fill="#404040">
                               <set attributeName="fill" to="#808080" begin="reset.mouseover" end="reset.mouseout"/>
                       </use>
               </g>
        </defs>

<script type="text/javascript">
var viewWidth = 547;
var viewHeight = 364;
var sectionId = 'dynsection-0';
</script>
<script xlink:href="../../svgpan.js"/>
<svg id="graph" class="graph">
<g id="viewport">
<title>src/enet_encap/encap.h</title>
<!-- Node1 -->
<g id="node1" class="node"><title>Node1</title>
<polygon fill="#bfbfbf" stroke="black" points="335.66,-336.5 335.66,-355.5 456.66,-355.5 456.66,-336.5 335.66,-336.5"/>
<text text-anchor="middle" x="396.16" y="-343.5" font-family="Helvetica,sans-Serif" font-size="10.00">src/enet_encap/encap.h</text>
</g>
<!-- Node2 -->
<g id="node2" class="node"><title>Node2</title>
<g id="a_node2"><a xlink:href="../../d7/d69/typedefs_8h.html" target="_top" xlink:title="typedefs.h">
<polygon fill="none" stroke="black" points="358.16,-56.5 358.16,-75.5 420.16,-75.5 420.16,-56.5 358.16,-56.5"/>
<text text-anchor="middle" x="389.16" y="-63.5" font-family="Helvetica,sans-Serif" font-size="10.00">typedefs.h</text>
</a>
</g>
</g>
<!-- Node1&#45;&gt;Node2 -->
<g id="edge1" class="edge"><title>Node1&#45;&gt;Node2</title>
<path fill="none" stroke="midnightblue" d="M426.837,-336.464C468.855,-322.682 539.16,-291.223 539.16,-235 539.16,-235 539.16,-235 539.16,-177 539.16,-122.659 474.35,-92.229 429.932,-77.755"/>
<polygon fill="midnightblue" stroke="midnightblue" points="430.828,-74.3686 420.24,-74.7413 428.75,-81.0529 430.828,-74.3686"/>
</g>
<!-- Node6 -->
<g id="node6" class="node"><title>Node6</title>
<g id="a_node6"><a xlink:href="../../d1/d6c/cipconnectionobject_8h.html" target="_top" xlink:title="cipconnectionobject.h">
<polygon fill="none" stroke="black" points="160.66,-280.5 160.66,-299.5 271.66,-299.5 271.66,-280.5 160.66,-280.5"/>
<text text-anchor="middle" x="216.16" y="-287.5" font-family="Helvetica,sans-Serif" font-size="10.00">cipconnectionobject.h</text>
</a>
</g>
</g>
<!-- Node1&#45;&gt;Node6 -->
<g id="edge5" class="edge"><title>Node1&#45;&gt;Node6</title>
<path fill="none" stroke="midnightblue" d="M367.639,-336.444C337.094,-327.28 288.452,-312.688 254.557,-302.519"/>
<polygon fill="midnightblue" stroke="midnightblue" points="255.132,-299.038 244.548,-299.516 253.121,-305.742 255.132,-299.038"/>
</g>
<!-- Node3 -->
<g id="node3" class="node"><title>Node3</title>
<polygon fill="none" stroke="#bfbfbf" points="396.66,-0.5 396.66,-19.5 455.66,-19.5 455.66,-0.5 396.66,-0.5"/>
<text text-anchor="middle" x="426.16" y="-7.5" font-family="Helvetica,sans-Serif" font-size="10.00">inttypes.h</text>
</g>
<!-- Node2&#45;&gt;Node3 -->
<g id="edge2" class="edge"><title>Node2&#45;&gt;Node3</title>
<path fill="none" stroke="midnightblue" d="M395.27,-56.083C400.442,-48.5341 408.006,-37.4948 414.355,-28.2298"/>
<polygon fill="midnightblue" stroke="midnightblue" points="417.399,-29.9787 420.164,-19.7511 411.624,-26.0221 417.399,-29.9787"/>
</g>
<!-- Node4 -->
<g id="node4" class="node"><title>Node4</title>
<polygon fill="none" stroke="#bfbfbf" points="326.16,-0.5 326.16,-19.5 378.16,-19.5 378.16,-0.5 326.16,-0.5"/>
<text text-anchor="middle" x="352.16" y="-7.5" font-family="Helvetica,sans-Serif" font-size="10.00">stddef.h</text>
</g>
<!-- Node2&#45;&gt;Node4 -->
<g id="edge3" class="edge"><title>Node2&#45;&gt;Node4</title>
<path fill="none" stroke="midnightblue" d="M383.05,-56.083C377.878,-48.5341 370.314,-37.4948 363.966,-28.2298"/>
<polygon fill="midnightblue" stroke="midnightblue" points="366.696,-26.0221 358.156,-19.7511 360.921,-29.9787 366.696,-26.0221"/>
</g>
<!-- Node5 -->
<g id="node5" class="node"><title>Node5</title>
<polygon fill="none" stroke="#bfbfbf" points="141.16,-0.5 141.16,-19.5 197.16,-19.5 197.16,-0.5 141.16,-0.5"/>
<text text-anchor="middle" x="169.16" y="-7.5" font-family="Helvetica,sans-Serif" font-size="10.00">stdbool.h</text>
</g>
<!-- Node2&#45;&gt;Node5 -->
<g id="edge4" class="edge"><title>Node2&#45;&gt;Node5</title>
<path fill="none" stroke="midnightblue" d="M358.106,-57.3776C318.412,-47.6345 249.729,-30.776 207.014,-20.2913"/>
<polygon fill="midnightblue" stroke="midnightblue" points="207.816,-16.8843 197.269,-17.8996 206.147,-23.6825 207.816,-16.8843"/>
</g>
<!-- Node6&#45;&gt;Node2 -->
<g id="edge6" class="edge"><title>Node6&#45;&gt;Node2</title>
<path fill="none" stroke="midnightblue" d="M271.883,-286.396C333.879,-279.972 429.497,-258.509 461.16,-188 474.997,-157.187 477.534,-141.543 461.16,-112 453.071,-97.405 438.057,-86.9185 423.824,-79.7608"/>
<polygon fill="midnightblue" stroke="midnightblue" points="425.21,-76.5459 414.664,-75.5282 422.274,-82.9002 425.21,-76.5459"/>
</g>
<!-- Node7 -->
<g id="node7" class="node"><title>Node7</title>
<g id="a_node7"><a xlink:href="../../df/d28/ciptypes_8h.html" target="_top" xlink:title="ciptypes.h">
<polygon fill="none" stroke="black" points="176.16,-168.5 176.16,-187.5 238.16,-187.5 238.16,-168.5 176.16,-168.5"/>
<text text-anchor="middle" x="207.16" y="-175.5" font-family="Helvetica,sans-Serif" font-size="10.00">ciptypes.h</text>
</a>
</g>
</g>
<!-- Node6&#45;&gt;Node7 -->
<g id="edge7" class="edge"><title>Node6&#45;&gt;Node7</title>
<path fill="none" stroke="midnightblue" d="M211.539,-280.339C207.101,-271.493 200.706,-257.22 198.16,-244 195.164,-228.443 198.079,-210.608 201.367,-197.559"/>
<polygon fill="midnightblue" stroke="midnightblue" points="204.751,-198.454 204.095,-187.88 198.013,-196.555 204.751,-198.454"/>
</g>
<!-- Node10 -->
<g id="node10" class="node"><title>Node10</title>
<polygon fill="none" stroke="#bfbfbf" points="89.1601,-56.5 89.1601,-75.5 191.16,-75.5 191.16,-56.5 89.1601,-56.5"/>
<text text-anchor="middle" x="140.16" y="-63.5" font-family="Helvetica,sans-Serif" font-size="10.00">opener_user_conf.h</text>
</g>
<!-- Node6&#45;&gt;Node10 -->
<g id="edge14" class="edge"><title>Node6&#45;&gt;Node10</title>
<path fill="none" stroke="midnightblue" d="M160.647,-283.183C129.476,-277.494 91.4759,-266.244 64.1601,-244 20.3713,-208.342 17.907,-186.772 4.16008,-132 1.99622,-123.379 -1.0453,-119.205 4.16008,-112 21.2819,-88.2999 51.3592,-76.8772 78.8822,-71.4538"/>
<polygon fill="midnightblue" stroke="midnightblue" points="79.6254,-74.8772 88.8779,-69.7156 78.426,-67.9807 79.6254,-74.8772"/>
</g>
<!-- Node11 -->
<g id="node11" class="node"><title>Node11</title>
<g id="a_node11"><a xlink:href="../../d4/d38/opener__api_8h.html" target="_top" xlink:title="opener_api.h">
<polygon fill="none" stroke="black" points="317.16,-224.5 317.16,-243.5 389.16,-243.5 389.16,-224.5 317.16,-224.5"/>
<text text-anchor="middle" x="353.16" y="-231.5" font-family="Helvetica,sans-Serif" font-size="10.00">opener_api.h</text>
</a>
</g>
</g>
<!-- Node6&#45;&gt;Node11 -->
<g id="edge15" class="edge"><title>Node6&#45;&gt;Node11</title>
<path fill="none" stroke="midnightblue" d="M237.868,-280.444C260.515,-271.517 296.232,-257.439 321.912,-247.317"/>
<polygon fill="midnightblue" stroke="midnightblue" points="323.534,-250.44 331.554,-243.516 320.967,-243.927 323.534,-250.44"/>
</g>
<!-- Node14 -->
<g id="node14" class="node"><title>Node14</title>
<g id="a_node14"><a xlink:href="../../d9/d31/doublylinkedlist_8h.html" target="_top" xlink:title="doublylinkedlist.h">
<polygon fill="none" stroke="black" points="207.16,-224.5 207.16,-243.5 299.16,-243.5 299.16,-224.5 207.16,-224.5"/>
<text text-anchor="middle" x="253.16" y="-231.5" font-family="Helvetica,sans-Serif" font-size="10.00">doublylinkedlist.h</text>
</a>
</g>
</g>
<!-- Node6&#45;&gt;Node14 -->
<g id="edge21" class="edge"><title>Node6&#45;&gt;Node14</title>
<path fill="none" stroke="midnightblue" d="M222.27,-280.083C227.442,-272.534 235.006,-261.495 241.355,-252.23"/>
<polygon fill="midnightblue" stroke="midnightblue" points="244.399,-253.979 247.164,-243.751 238.624,-250.022 244.399,-253.979"/>
</g>
<!-- Node15 -->
<g id="node15" class="node"><title>Node15</title>
<g id="a_node15"><a xlink:href="../../d0/d23/cipelectronickey_8h.html" target="_top" xlink:title="cipelectronickey.h">
<polygon fill="none" stroke="black" points="13.6601,-112.5 13.6601,-131.5 108.66,-131.5 108.66,-112.5 13.6601,-112.5"/>
<text text-anchor="middle" x="61.1601" y="-119.5" font-family="Helvetica,sans-Serif" font-size="10.00">cipelectronickey.h</text>
</a>
</g>
</g>
<!-- Node6&#45;&gt;Node15 -->
<g id="edge22" class="edge"><title>Node6&#45;&gt;Node15</title>
<path fill="none" stroke="midnightblue" d="M160.544,-284.138C132.379,-278.719 100.029,-267.422 80.1601,-244 55.5958,-215.043 56.0564,-167.607 58.5819,-141.563"/>
<polygon fill="midnightblue" stroke="midnightblue" points="62.0691,-141.877 59.7643,-131.535 55.1172,-141.057 62.0691,-141.877"/>
</g>
<!-- Node16 -->
<g id="node16" class="node"><title>Node16</title>
<g id="a_node16"><a xlink:href="../../d1/d02/cipepath_8h.html" target="_top" xlink:title="cipepath.h">
<polygon fill="none" stroke="black" points="89.1601,-224.5 89.1601,-243.5 151.16,-243.5 151.16,-224.5 89.1601,-224.5"/>
<text text-anchor="middle" x="120.16" y="-231.5" font-family="Helvetica,sans-Serif" font-size="10.00">cipepath.h</text>
</a>
</g>
</g>
<!-- Node6&#45;&gt;Node16 -->
<g id="edge25" class="edge"><title>Node6&#45;&gt;Node16</title>
<path fill="none" stroke="midnightblue" d="M200.736,-280.324C185.621,-271.822 162.345,-258.729 144.689,-248.797"/>
<polygon fill="midnightblue" stroke="midnightblue" points="145.978,-245.507 135.546,-243.655 142.546,-251.608 145.978,-245.507"/>
</g>
<!-- Node7&#45;&gt;Node2 -->
<g id="edge8" class="edge"><title>Node7&#45;&gt;Node2</title>
<path fill="none" stroke="midnightblue" d="M221.441,-168.368C252.805,-149.412 327.941,-104.001 366.092,-80.9424"/>
<polygon fill="midnightblue" stroke="midnightblue" points="368.197,-83.7595 374.945,-75.5914 364.576,-77.7687 368.197,-83.7595"/>
</g>
<!-- Node8 -->
<g id="node8" class="node"><title>Node8</title>
<g id="a_node8"><a xlink:href="../../d0/d47/networkhandler_8h.html" target="_top" xlink:title="networkhandler.h">
<polygon fill="none" stroke="black" points="343.66,-112.5 343.66,-131.5 434.66,-131.5 434.66,-112.5 343.66,-112.5"/>
<text text-anchor="middle" x="389.16" y="-119.5" font-family="Helvetica,sans-Serif" font-size="10.00">networkhandler.h</text>
</a>
</g>
</g>
<!-- Node7&#45;&gt;Node8 -->
<g id="edge9" class="edge"><title>Node7&#45;&gt;Node8</title>
<path fill="none" stroke="midnightblue" d="M235.999,-168.444C267.016,-159.241 316.489,-144.562 350.778,-134.388"/>
<polygon fill="midnightblue" stroke="midnightblue" points="351.865,-137.716 360.457,-131.516 349.874,-131.006 351.865,-137.716"/>
</g>
<!-- Node9 -->
<g id="node9" class="node"><title>Node9</title>
<g id="a_node9"><a xlink:href="../../d8/d2c/enipmessage_8h.html" target="_top" xlink:title="enipmessage.h">
<polygon fill="none" stroke="black" points="165.66,-112.5 165.66,-131.5 248.66,-131.5 248.66,-112.5 165.66,-112.5"/>
<text text-anchor="middle" x="207.16" y="-119.5" font-family="Helvetica,sans-Serif" font-size="10.00">enipmessage.h</text>
</a>
</g>
</g>
<!-- Node7&#45;&gt;Node9 -->
<g id="edge11" class="edge"><title>Node7&#45;&gt;Node9</title>
<path fill="none" stroke="midnightblue" d="M207.16,-168.083C207.16,-161.006 207.16,-150.861 207.16,-141.986"/>
<polygon fill="midnightblue" stroke="midnightblue" points="210.66,-141.751 207.16,-131.751 203.66,-141.751 210.66,-141.751"/>
</g>
<!-- Node7&#45;&gt;Node10 -->
<g id="edge13" class="edge"><title>Node7&#45;&gt;Node10</title>
<path fill="none" stroke="midnightblue" d="M193.352,-168.355C181.695,-160.338 165.458,-147.352 156.16,-132 147.599,-117.866 143.612,-99.3806 141.759,-85.7379"/>
<polygon fill="midnightblue" stroke="midnightblue" points="145.219,-85.1782 140.651,-75.6187 138.261,-85.9403 145.219,-85.1782"/>
</g>
<!-- Node8&#45;&gt;Node2 -->
<g id="edge10" class="edge"><title>Node8&#45;&gt;Node2</title>
<path fill="none" stroke="midnightblue" d="M389.16,-112.083C389.16,-105.006 389.16,-94.8611 389.16,-85.9865"/>
<polygon fill="midnightblue" stroke="midnightblue" points="392.66,-85.751 389.16,-75.7511 385.66,-85.7511 392.66,-85.751"/>
</g>
<!-- Node9&#45;&gt;Node10 -->
<g id="edge12" class="edge"><title>Node9&#45;&gt;Node10</title>
<path fill="none" stroke="midnightblue" d="M196.395,-112.324C186.394,-104.263 171.274,-92.0765 159.23,-82.3695"/>
<polygon fill="midnightblue" stroke="midnightblue" points="161.103,-79.3841 151.121,-75.8339 156.71,-84.8343 161.103,-79.3841"/>
</g>
<!-- Node11&#45;&gt;Node2 -->
<g id="edge18" class="edge"><title>Node11&#45;&gt;Node2</title>
<path fill="none" stroke="midnightblue" d="M389.28,-224.426C408.48,-217.848 430.475,-206.627 442.16,-188 460.111,-159.384 457.488,-142.591 443.16,-112 437.115,-99.0941 425.348,-88.5985 414.338,-80.9999"/>
<polygon fill="midnightblue" stroke="midnightblue" points="416.104,-77.9748 405.793,-75.5364 412.333,-83.8723 416.104,-77.9748"/>
</g>
<!-- Node11&#45;&gt;Node5 -->
<g id="edge17" class="edge"><title>Node11&#45;&gt;Node5</title>
<path fill="none" stroke="midnightblue" d="M339.391,-224.321C327.158,-216.097 309.374,-202.824 297.16,-188 272.887,-158.541 278.732,-143.491 257.16,-112 234.964,-79.5984 203.758,-45.994 185.088,-26.8737"/>
<polygon fill="midnightblue" stroke="midnightblue" points="187.434,-24.2679 177.917,-19.6118 182.453,-29.1865 187.434,-24.2679"/>
</g>
<!-- Node11&#45;&gt;Node7 -->
<g id="edge19" class="edge"><title>Node11&#45;&gt;Node7</title>
<path fill="none" stroke="midnightblue" d="M330.026,-224.444C305.678,-215.438 267.153,-201.189 239.737,-191.049"/>
<polygon fill="midnightblue" stroke="midnightblue" points="240.779,-187.703 230.186,-187.516 238.351,-194.268 240.779,-187.703"/>
</g>
<!-- Node12 -->
<g id="node12" class="node"><title>Node12</title>
<polygon fill="none" stroke="#bfbfbf" points="306.16,-168.5 306.16,-187.5 358.16,-187.5 358.16,-168.5 306.16,-168.5"/>
<text text-anchor="middle" x="332.16" y="-175.5" font-family="Helvetica,sans-Serif" font-size="10.00">assert.h</text>
</g>
<!-- Node11&#45;&gt;Node12 -->
<g id="edge16" class="edge"><title>Node11&#45;&gt;Node12</title>
<path fill="none" stroke="midnightblue" d="M349.692,-224.083C346.848,-216.77 342.731,-206.181 339.2,-197.103"/>
<polygon fill="midnightblue" stroke="midnightblue" points="342.45,-195.803 335.563,-187.751 335.926,-198.34 342.45,-195.803"/>
</g>
<!-- Node13 -->
<g id="node13" class="node"><title>Node13</title>
<g id="a_node13"><a xlink:href="../../d6/d52/ciperror_8h.html" target="_top" xlink:title="ciperror.h">
<polygon fill="none" stroke="black" points="376.66,-168.5 376.66,-187.5 433.66,-187.5 433.66,-168.5 376.66,-168.5"/>
<text text-anchor="middle" x="405.16" y="-175.5" font-family="Helvetica,sans-Serif" font-size="10.00">ciperror.h</text>
</a>
</g>
</g>
<!-- Node11&#45;&gt;Node13 -->
<g id="edge20" class="edge"><title>Node11&#45;&gt;Node13</title>
<path fill="none" stroke="midnightblue" d="M361.747,-224.083C369.319,-216.22 380.538,-204.569 389.674,-195.081"/>
<polygon fill="midnightblue" stroke="midnightblue" points="392.318,-197.382 396.733,-187.751 387.276,-192.527 392.318,-197.382"/>
</g>
<!-- Node15&#45;&gt;Node2 -->
<g id="edge24" class="edge"><title>Node15&#45;&gt;Node2</title>
<path fill="none" stroke="midnightblue" d="M108.854,-113.148C173.35,-102.53 287.291,-83.7711 348.146,-73.7523"/>
<polygon fill="midnightblue" stroke="midnightblue" points="348.856,-77.1826 358.155,-72.1045 347.719,-70.2756 348.856,-77.1826"/>
</g>
<!-- Node15&#45;&gt;Node5 -->
<g id="edge23" class="edge"><title>Node15&#45;&gt;Node5</title>
<path fill="none" stroke="midnightblue" d="M61.5418,-112.415C62.566,-98.9366 66.3313,-72.6356 80.1601,-56 93.3277,-40.1598 113.478,-29.3237 131.277,-22.2616"/>
<polygon fill="midnightblue" stroke="midnightblue" points="132.697,-25.4681 140.864,-18.7187 130.271,-18.9021 132.697,-25.4681"/>
</g>
<!-- Node16&#45;&gt;Node5 -->
<g id="edge26" class="edge"><title>Node16&#45;&gt;Node5</title>
<path fill="none" stroke="midnightblue" d="M99.6155,-224.497C60.4847,-206.92 -18.8806,-163.859 4.16008,-112 26.8999,-60.8185 90.0225,-33.4606 131.271,-20.6058"/>
<polygon fill="midnightblue" stroke="midnightblue" points="132.405,-23.9203 140.994,-17.7166 130.411,-17.2103 132.405,-23.9203"/>
</g>
<!-- Node16&#45;&gt;Node7 -->
<g id="edge27" class="edge"><title>Node16&#45;&gt;Node7</title>
<path fill="none" stroke="midnightblue" d="M134.138,-224.324C147.71,-215.9 168.54,-202.971 184.485,-193.074"/>
<polygon fill="midnightblue" stroke="midnightblue" points="186.566,-195.902 193.217,-187.655 182.875,-189.954 186.566,-195.902"/>
</g>
<!-- Node16&#45;&gt;Node15 -->
<g id="edge28" class="edge"><title>Node16&#45;&gt;Node15</title>
<path fill="none" stroke="midnightblue" d="M115.53,-224.368C105.88,-206.376 83.4462,-164.55 70.6144,-140.627"/>
<polygon fill="midnightblue" stroke="midnightblue" points="73.5793,-138.749 65.7682,-131.591 67.4106,-142.058 73.5793,-138.749"/>
</g>
</g>
</svg>
        <g id="navigator" transform="translate(0 0)" fill="#404254">
                <rect fill="#f2f5e9" fill-opacity="0.5" stroke="#606060" stroke-width=".5" x="0" y="0" width="60" height="60"/>
                <use id="zoomplus" xlink:href="#zoomPlus" x="17" y="9" onmousedown="handleZoom(evt,'in')"/>
                <use id="zoomminus" xlink:href="#zoomMin" x="42" y="9" onmousedown="handleZoom(evt,'out')"/>
                <use id="reset" xlink:href="#resetDef" x="30" y="36" onmousedown="handleReset()"/>
                <g id="arrowUp" xlink:href="#dirArrow" transform="translate(30 24)" onmousedown="handlePan(0,-1)">
                  <use xlink:href="#rim" fill="#404040">
                        <set attributeName="fill" to="#808080" begin="arrowUp.mouseover" end="arrowUp.mouseout"/>
                  </use>
                  <path fill="none" stroke="white" stroke-width="1.5" d="M0,-3.0v7 M-2.5,-0.5L0,-3.0L2.5,-0.5"/>
                </g>
                <g id="arrowRight" xlink:href="#dirArrow" transform="rotate(90) translate(36 -43)" onmousedown="handlePan(1,0)">
                  <use xlink:href="#rim" fill="#404040">
                        <set attributeName="fill" to="#808080" begin="arrowRight.mouseover" end="arrowRight.mouseout"/>
                  </use>
                  <path fill="none" stroke="white" stroke-width="1.5" d="M0,-3.0v7 M-2.5,-0.5L0,-3.0L2.5,-0.5"/>
                </g>
                <g id="arrowDown" xlink:href="#dirArrow" transform="rotate(180) translate(-30 -48)" onmousedown="handlePan(0,1)">
                  <use xlink:href="#rim" fill="#404040">
                        <set attributeName="fill" to="#808080" begin="arrowDown.mouseover" end="arrowDown.mouseout"/>
                  </use>
                  <path fill="none" stroke="white" stroke-width="1.5" d="M0,-3.0v7 M-2.5,-0.5L0,-3.0L2.5,-0.5"/>
                </g>
                <g id="arrowLeft" xlink:href="#dirArrow" transform="rotate(270) translate(-36 17)" onmousedown="handlePan(-1,0)">
                  <use xlink:href="#rim" fill="#404040">
                        <set attributeName="fill" to="#808080" begin="arrowLeft.mouseover" end="arrowLeft.mouseout"/>
                  </use>
                  <path fill="none" stroke="white" stroke-width="1.5" d="M0,-3.0v7 M-2.5,-0.5L0,-3.0L2.5,-0.5"/>
                </g>
        </g>
        <svg viewBox="0 0 15 15" width="100%" height="30px" preserveAspectRatio="xMaxYMin meet">
         <g id="arrow_out" transform="scale(0.3 0.3)">
          <a xlink:href="encap_8h__incl_org.svg" target="_base">
           <rect id="button" ry="5" rx="5" y="6" x="6" height="38" width="38"
                fill="#f2f5e9" fill-opacity="0.5" stroke="#606060" stroke-width="1.0"/>
           <path id="arrow"
             d="M 11.500037,31.436501 C 11.940474,20.09759 22.043105,11.32322 32.158766,21.979434 L 37.068811,17.246167 C 37.068811,17.246167 37.088388,32 37.088388,32 L 22.160133,31.978069 C 22.160133,31.978069 26.997745,27.140456 26.997745,27.140456 C 18.528582,18.264221 13.291696,25.230495 11.500037,31.436501 z"
             style="fill:#404040;"/>
          </a>
         </g>
        </svg>
</svg>
