<?xml version="1.0" encoding="UTF-8" standalone="no"?>
<!DOCTYPE svg PUBLIC "-//W3C//DTD SVG 1.1//EN"
 "http://www.w3.org/Graphics/SVG/1.1/DTD/svg11.dtd">
<!-- Generated by graphviz version 2.36.0 (20140111.2315)
 -->
<!-- Title: src/cip/cipconnectionmanager.h Pages: 1 -->
<svg width="689pt" height="364pt"
 viewBox="0.00 0.00 689.00 364.00" xmlns="http://www.w3.org/2000/svg" xmlns:xlink="http://www.w3.org/1999/xlink">
<g id="graph0" class="graph" transform="scale(1 1) rotate(0) translate(4 360)">
<title>src/cip/cipconnectionmanager.h</title>
<!-- Node1 -->
<g id="node1" class="node"><title>Node1</title>
<polygon fill="#bfbfbf" stroke="black" points="151.5,-336.5 151.5,-355.5 306.5,-355.5 306.5,-336.5 151.5,-336.5"/>
<text text-anchor="middle" x="229" y="-343.5" font-family="Helvetica,sans-Serif" font-size="10.00">src/cip/cipconnectionmanager.h</text>
</g>
<!-- Node2 -->
<g id="node2" class="node"><title>Node2</title>
<polygon fill="none" stroke="#bfbfbf" points="382,-56.5 382,-75.5 484,-75.5 484,-56.5 382,-56.5"/>
<text text-anchor="middle" x="433" y="-63.5" font-family="Helvetica,sans-Serif" font-size="10.00">opener_user_conf.h</text>
</g>
<!-- Node1&#45;&gt;Node2 -->
<g id="edge1" class="edge"><title>Node1&#45;&gt;Node2</title>
<path fill="none" stroke="midnightblue" d="M306.702,-341.966C435.935,-334.78 681,-311.119 681,-235 681,-235 681,-235 681,-177 681,-95.4648 567.602,-73.9007 494.166,-68.4845"/>
<polygon fill="midnightblue" stroke="midnightblue" points="494.293,-64.9854 484.085,-67.8229 493.834,-71.9704 494.293,-64.9854"/>
</g>
<!-- Node3 -->
<g id="node3" class="node"><title>Node3</title>
<g id="a_node3"><a xlink:href="../../d4/d38/opener__api_8h.html" target="_top" xlink:title="opener_api.h">
<polygon fill="none" stroke="black" points="129,-224.5 129,-243.5 201,-243.5 201,-224.5 129,-224.5"/>
<text text-anchor="middle" x="165" y="-231.5" font-family="Helvetica,sans-Serif" font-size="10.00">opener_api.h</text>
</a>
</g>
</g>
<!-- Node1&#45;&gt;Node3 -->
<g id="edge2" class="edge"><title>Node1&#45;&gt;Node3</title>
<path fill="none" stroke="midnightblue" d="M223.978,-336.368C213.463,-318.296 188.957,-276.176 175.07,-252.307"/>
<polygon fill="midnightblue" stroke="midnightblue" points="178.053,-250.475 169.999,-243.591 172.002,-253.995 178.053,-250.475"/>
</g>
<!-- Node6 -->
<g id="node6" class="node"><title>Node6</title>
<g id="a_node6"><a xlink:href="../../d7/d69/typedefs_8h.html" target="_top" xlink:title="typedefs.h">
<polygon fill="none" stroke="black" points="86,-56.5 86,-75.5 148,-75.5 148,-56.5 86,-56.5"/>
<text text-anchor="middle" x="117" y="-63.5" font-family="Helvetica,sans-Serif" font-size="10.00">typedefs.h</text>
</a>
</g>
</g>
<!-- Node1&#45;&gt;Node6 -->
<g id="edge18" class="edge"><title>Node1&#45;&gt;Node6</title>
<path fill="none" stroke="midnightblue" d="M151.471,-339.255C85.0364,-329.601 0,-303.805 0,-235 0,-235 0,-235 0,-177 0,-129.599 51.604,-96.6419 86.2692,-79.85"/>
<polygon fill="midnightblue" stroke="midnightblue" points="87.9452,-82.9307 95.5404,-75.5439 84.9965,-76.5821 87.9452,-82.9307"/>
</g>
<!-- Node10 -->
<g id="node10" class="node"><title>Node10</title>
<g id="a_node10"><a xlink:href="../../df/d28/ciptypes_8h.html" target="_top" xlink:title="ciptypes.h">
<polygon fill="none" stroke="black" points="282,-168.5 282,-187.5 344,-187.5 344,-168.5 282,-168.5"/>
<text text-anchor="middle" x="313" y="-175.5" font-family="Helvetica,sans-Serif" font-size="10.00">ciptypes.h</text>
</a>
</g>
</g>
<!-- Node1&#45;&gt;Node10 -->
<g id="edge19" class="edge"><title>Node1&#45;&gt;Node10</title>
<path fill="none" stroke="midnightblue" d="M228.155,-336.29C226.551,-315.224 225.052,-260.562 248,-224 256.513,-210.436 270.769,-199.888 283.764,-192.425"/>
<polygon fill="midnightblue" stroke="midnightblue" points="285.736,-195.339 292.904,-187.537 282.435,-189.167 285.736,-195.339"/>
</g>
<!-- Node14 -->
<g id="node14" class="node"><title>Node14</title>
<g id="a_node14"><a xlink:href="../../d1/d6c/cipconnectionobject_8h.html" target="_top" xlink:title="cipconnectionobject.h">
<polygon fill="none" stroke="black" points="340.5,-280.5 340.5,-299.5 451.5,-299.5 451.5,-280.5 340.5,-280.5"/>
<text text-anchor="middle" x="396" y="-287.5" font-family="Helvetica,sans-Serif" font-size="10.00">cipconnectionobject.h</text>
</a>
</g>
</g>
<!-- Node1&#45;&gt;Node14 -->
<g id="edge20" class="edge"><title>Node1&#45;&gt;Node14</title>
<path fill="none" stroke="midnightblue" d="M255.462,-336.444C283.678,-327.32 328.54,-312.813 359.968,-302.651"/>
<polygon fill="midnightblue" stroke="midnightblue" points="361.224,-305.923 369.662,-299.516 359.07,-299.263 361.224,-305.923"/>
</g>
<!-- Node4 -->
<g id="node4" class="node"><title>Node4</title>
<polygon fill="none" stroke="#bfbfbf" points="66,-168.5 66,-187.5 118,-187.5 118,-168.5 66,-168.5"/>
<text text-anchor="middle" x="92" y="-175.5" font-family="Helvetica,sans-Serif" font-size="10.00">assert.h</text>
</g>
<!-- Node3&#45;&gt;Node4 -->
<g id="edge3" class="edge"><title>Node3&#45;&gt;Node4</title>
<path fill="none" stroke="midnightblue" d="M153.271,-224.324C142.163,-216.107 125.258,-203.602 112.017,-193.807"/>
<polygon fill="midnightblue" stroke="midnightblue" points="114.063,-190.967 103.942,-187.834 109.9,-196.595 114.063,-190.967"/>
</g>
<!-- Node5 -->
<g id="node5" class="node"><title>Node5</title>
<polygon fill="none" stroke="#bfbfbf" points="412,-0.5 412,-19.5 468,-19.5 468,-0.5 412,-0.5"/>
<text text-anchor="middle" x="440" y="-7.5" font-family="Helvetica,sans-Serif" font-size="10.00">stdbool.h</text>
</g>
<!-- Node3&#45;&gt;Node5 -->
<g id="edge4" class="edge"><title>Node3&#45;&gt;Node5</title>
<path fill="none" stroke="midnightblue" d="M175.438,-224.245C184.424,-215.969 196.746,-202.663 202,-188 213.676,-155.416 165.547,-140.629 185,-112 234.002,-39.8851 343.36,-19.2607 401.666,-13.3624"/>
<polygon fill="midnightblue" stroke="midnightblue" points="402.293,-16.8197 411.933,-12.4233 401.656,-9.84882 402.293,-16.8197"/>
</g>
<!-- Node3&#45;&gt;Node6 -->
<g id="edge5" class="edge"><title>Node3&#45;&gt;Node6</title>
<path fill="none" stroke="midnightblue" d="M128.816,-228.343C104.036,-223.061 72.887,-211.83 57,-188 33.2926,-152.439 73.7619,-106.176 99.0381,-82.4786"/>
<polygon fill="midnightblue" stroke="midnightblue" points="101.548,-84.9272 106.61,-75.6197 96.849,-79.7391 101.548,-84.9272"/>
</g>
<!-- Node3&#45;&gt;Node10 -->
<g id="edge10" class="edge"><title>Node3&#45;&gt;Node10</title>
<path fill="none" stroke="midnightblue" d="M188.451,-224.444C213.133,-215.438 252.185,-201.189 279.977,-191.049"/>
<polygon fill="midnightblue" stroke="midnightblue" points="281.464,-194.232 289.659,-187.516 279.065,-187.656 281.464,-194.232"/>
</g>
<!-- Node13 -->
<g id="node13" class="node"><title>Node13</title>
<g id="a_node13"><a xlink:href="../../d6/d52/ciperror_8h.html" target="_top" xlink:title="ciperror.h">
<polygon fill="none" stroke="black" points="136.5,-168.5 136.5,-187.5 193.5,-187.5 193.5,-168.5 136.5,-168.5"/>
<text text-anchor="middle" x="165" y="-175.5" font-family="Helvetica,sans-Serif" font-size="10.00">ciperror.h</text>
</a>
</g>
</g>
<!-- Node3&#45;&gt;Node13 -->
<g id="edge17" class="edge"><title>Node3&#45;&gt;Node13</title>
<path fill="none" stroke="midnightblue" d="M165,-224.083C165,-217.006 165,-206.861 165,-197.986"/>
<polygon fill="midnightblue" stroke="midnightblue" points="168.5,-197.751 165,-187.751 161.5,-197.751 168.5,-197.751"/>
</g>
<!-- Node6&#45;&gt;Node5 -->
<g id="edge8" class="edge"><title>Node6&#45;&gt;Node5</title>
<path fill="none" stroke="midnightblue" d="M148.443,-58.5576C152.987,-57.6714 157.61,-56.7941 162,-56 247.473,-40.5404 348.198,-24.866 401.843,-16.7203"/>
<polygon fill="midnightblue" stroke="midnightblue" points="402.562,-20.1513 411.925,-15.1938 401.514,-13.2302 402.562,-20.1513"/>
</g>
<!-- Node7 -->
<g id="node7" class="node"><title>Node7</title>
<polygon fill="none" stroke="#bfbfbf" points="13.5,-0.5 13.5,-19.5 72.5,-19.5 72.5,-0.5 13.5,-0.5"/>
<text text-anchor="middle" x="43" y="-7.5" font-family="Helvetica,sans-Serif" font-size="10.00">inttypes.h</text>
</g>
<!-- Node6&#45;&gt;Node7 -->
<g id="edge6" class="edge"><title>Node6&#45;&gt;Node7</title>
<path fill="none" stroke="midnightblue" d="M105.111,-56.324C93.8498,-48.1066 76.7134,-35.6017 63.2909,-25.8069"/>
<polygon fill="midnightblue" stroke="midnightblue" points="65.2468,-22.9014 55.1057,-19.8339 61.1205,-28.5559 65.2468,-22.9014"/>
</g>
<!-- Node8 -->
<g id="node8" class="node"><title>Node8</title>
<polygon fill="none" stroke="#bfbfbf" points="91,-0.5 91,-19.5 143,-19.5 143,-0.5 91,-0.5"/>
<text text-anchor="middle" x="117" y="-7.5" font-family="Helvetica,sans-Serif" font-size="10.00">stddef.h</text>
</g>
<!-- Node6&#45;&gt;Node8 -->
<g id="edge7" class="edge"><title>Node6&#45;&gt;Node8</title>
<path fill="none" stroke="midnightblue" d="M117,-56.083C117,-49.0059 117,-38.8611 117,-29.9865"/>
<polygon fill="midnightblue" stroke="midnightblue" points="120.5,-29.751 117,-19.7511 113.5,-29.7511 120.5,-29.751"/>
</g>
<!-- Node9 -->
<g id="node9" class="node"><title>Node9</title>
<polygon fill="none" stroke="#bfbfbf" points="161.5,-0.5 161.5,-19.5 302.5,-19.5 302.5,-0.5 161.5,-0.5"/>
<text text-anchor="middle" x="232" y="-7.5" font-family="Helvetica,sans-Serif" font-size="10.00">platform_network_includes.h</text>
</g>
<!-- Node6&#45;&gt;Node9 -->
<g id="edge9" class="edge"><title>Node6&#45;&gt;Node9</title>
<path fill="none" stroke="midnightblue" d="M135.222,-56.4435C153.896,-47.6751 183.156,-33.9355 204.617,-23.8579"/>
<polygon fill="midnightblue" stroke="midnightblue" points="206.299,-26.935 213.863,-19.5164 203.324,-20.5988 206.299,-26.935"/>
</g>
<!-- Node10&#45;&gt;Node2 -->
<g id="edge16" class="edge"><title>Node10&#45;&gt;Node2</title>
<path fill="none" stroke="midnightblue" d="M335.998,-168.374C353.728,-160.847 378.01,-148.536 395,-132 408.735,-118.632 419.202,-99.2544 425.639,-85.1362"/>
<polygon fill="midnightblue" stroke="midnightblue" points="429.026,-86.121 429.763,-75.5519 422.596,-83.3541 429.026,-86.121"/>
</g>
<!-- Node10&#45;&gt;Node6 -->
<g id="edge11" class="edge"><title>Node10&#45;&gt;Node6</title>
<path fill="none" stroke="midnightblue" d="M281.898,-170.027C254.919,-163.081 215.516,-150.728 185,-132 163.591,-118.86 143.36,-98.0454 130.621,-83.5215"/>
<polygon fill="midnightblue" stroke="midnightblue" points="133.187,-81.1371 124.033,-75.8026 127.863,-85.6812 133.187,-81.1371"/>
</g>
<!-- Node11 -->
<g id="node11" class="node"><title>Node11</title>
<g id="a_node11"><a xlink:href="../../d0/d47/networkhandler_8h.html" target="_top" xlink:title="networkhandler.h">
<polygon fill="none" stroke="black" points="194.5,-112.5 194.5,-131.5 285.5,-131.5 285.5,-112.5 194.5,-112.5"/>
<text text-anchor="middle" x="240" y="-119.5" font-family="Helvetica,sans-Serif" font-size="10.00">networkhandler.h</text>
</a>
</g>
</g>
<!-- Node10&#45;&gt;Node11 -->
<g id="edge12" class="edge"><title>Node10&#45;&gt;Node11</title>
<path fill="none" stroke="midnightblue" d="M301.271,-168.324C290.163,-160.107 273.258,-147.602 260.017,-137.807"/>
<polygon fill="midnightblue" stroke="midnightblue" points="262.063,-134.967 251.942,-131.834 257.9,-140.595 262.063,-134.967"/>
</g>
<!-- Node12 -->
<g id="node12" class="node"><title>Node12</title>
<g id="a_node12"><a xlink:href="../../d8/d2c/enipmessage_8h.html" target="_top" xlink:title="enipmessage.h">
<polygon fill="none" stroke="black" points="303.5,-112.5 303.5,-131.5 386.5,-131.5 386.5,-112.5 303.5,-112.5"/>
<text text-anchor="middle" x="345" y="-119.5" font-family="Helvetica,sans-Serif" font-size="10.00">enipmessage.h</text>
</a>
</g>
</g>
<!-- Node10&#45;&gt;Node12 -->
<g id="edge14" class="edge"><title>Node10&#45;&gt;Node12</title>
<path fill="none" stroke="midnightblue" d="M318.284,-168.083C322.711,-160.613 329.163,-149.724 334.618,-140.52"/>
<polygon fill="midnightblue" stroke="midnightblue" points="337.727,-142.138 339.814,-131.751 331.705,-138.57 337.727,-142.138"/>
</g>
<!-- Node11&#45;&gt;Node6 -->
<g id="edge13" class="edge"><title>Node11&#45;&gt;Node6</title>
<path fill="none" stroke="midnightblue" d="M220.51,-112.444C200.358,-103.596 168.677,-89.6875 145.669,-79.5865"/>
<polygon fill="midnightblue" stroke="midnightblue" points="146.962,-76.3316 136.399,-75.5164 144.148,-82.7411 146.962,-76.3316"/>
</g>
<!-- Node12&#45;&gt;Node2 -->
<g id="edge15" class="edge"><title>Node12&#45;&gt;Node2</title>
<path fill="none" stroke="midnightblue" d="M359.139,-112.324C372.866,-103.9 393.936,-90.9709 410.064,-81.0741"/>
<polygon fill="midnightblue" stroke="midnightblue" points="412.204,-83.8678 418.896,-75.6545 408.543,-77.9016 412.204,-83.8678"/>
</g>
<!-- Node14&#45;&gt;Node2 -->
<g id="edge23" class="edge"><title>Node14&#45;&gt;Node2</title>
<path fill="none" stroke="midnightblue" d="M421.161,-280.378C437.419,-273.343 457.293,-261.645 467,-244 495.278,-192.598 485.651,-167.623 467,-112 463.396,-101.251 456.097,-91.0204 449.183,-83.0378"/>
<polygon fill="midnightblue" stroke="midnightblue" points="451.655,-80.5561 442.288,-75.6053 446.523,-85.3168 451.655,-80.5561"/>
</g>
<!-- Node14&#45;&gt;Node3 -->
<g id="edge24" class="edge"><title>Node14&#45;&gt;Node3</title>
<path fill="none" stroke="midnightblue" d="M359.397,-280.444C319.151,-271.035 254.422,-255.904 210.831,-245.714"/>
<polygon fill="midnightblue" stroke="midnightblue" points="211.585,-242.296 201.051,-243.428 209.992,-249.112 211.585,-242.296"/>
</g>
<!-- Node14&#45;&gt;Node6 -->
<g id="edge21" class="edge"><title>Node14&#45;&gt;Node6</title>
<path fill="none" stroke="midnightblue" d="M399.381,-280.305C409.731,-252.078 437.765,-161.957 395,-112 365.06,-77.0248 228.715,-69.1555 158.727,-67.4391"/>
<polygon fill="midnightblue" stroke="midnightblue" points="158.569,-63.935 148.496,-67.2206 158.419,-70.9334 158.569,-63.935"/>
</g>
<!-- Node14&#45;&gt;Node10 -->
<g id="edge22" class="edge"><title>Node14&#45;&gt;Node10</title>
<path fill="none" stroke="midnightblue" d="M391.742,-280.14C385.321,-267.195 372.374,-242.628 358,-224 349.835,-213.419 339.338,-202.79 330.537,-194.52"/>
<polygon fill="midnightblue" stroke="midnightblue" points="332.784,-191.832 323.046,-187.659 328.056,-196.994 332.784,-191.832"/>
</g>
<!-- Node15 -->
<g id="node15" class="node"><title>Node15</title>
<g id="a_node15"><a xlink:href="../../d9/d31/doublylinkedlist_8h.html" target="_top" xlink:title="doublylinkedlist.h">
<polygon fill="none" stroke="black" points="257,-224.5 257,-243.5 349,-243.5 349,-224.5 257,-224.5"/>
<text text-anchor="middle" x="303" y="-231.5" font-family="Helvetica,sans-Serif" font-size="10.00">doublylinkedlist.h</text>
</a>
</g>
</g>
<!-- Node14&#45;&gt;Node15 -->
<g id="edge25" class="edge"><title>Node14&#45;&gt;Node15</title>
<path fill="none" stroke="midnightblue" d="M381.058,-280.324C366.415,-271.822 343.866,-258.729 326.762,-248.797"/>
<polygon fill="midnightblue" stroke="midnightblue" points="328.31,-245.649 317.905,-243.655 324.795,-251.703 328.31,-245.649"/>
</g>
<!-- Node16 -->
<g id="node16" class="node"><title>Node16</title>
<g id="a_node16"><a xlink:href="../../d0/d23/cipelectronickey_8h.html" target="_top" xlink:title="cipelectronickey.h">
<polygon fill="none" stroke="black" points="519.5,-112.5 519.5,-131.5 614.5,-131.5 614.5,-112.5 519.5,-112.5"/>
<text text-anchor="middle" x="567" y="-119.5" font-family="Helvetica,sans-Serif" font-size="10.00">cipelectronickey.h</text>
</a>
</g>
</g>
<!-- Node14&#45;&gt;Node16 -->
<g id="edge26" class="edge"><title>Node14&#45;&gt;Node16</title>
<path fill="none" stroke="midnightblue" d="M405.194,-280.075C432.81,-253.267 515.298,-173.19 550.636,-138.885"/>
<polygon fill="midnightblue" stroke="midnightblue" points="553.436,-141.045 558.174,-131.568 548.561,-136.022 553.436,-141.045"/>
</g>
<!-- Node17 -->
<g id="node17" class="node"><title>Node17</title>
<g id="a_node17"><a xlink:href="../../d1/d02/cipepath_8h.html" target="_top" xlink:title="cipepath.h">
<polygon fill="none" stroke="black" points="524,-224.5 524,-243.5 586,-243.5 586,-224.5 524,-224.5"/>
<text text-anchor="middle" x="555" y="-231.5" font-family="Helvetica,sans-Serif" font-size="10.00">cipepath.h</text>
</a>
</g>
</g>
<!-- Node14&#45;&gt;Node17 -->
<g id="edge29" class="edge"><title>Node14&#45;&gt;Node17</title>
<path fill="none" stroke="midnightblue" d="M421.194,-280.444C447.943,-271.359 490.403,-256.939 520.305,-246.783"/>
<polygon fill="midnightblue" stroke="midnightblue" points="521.581,-250.046 529.924,-243.516 519.329,-243.418 521.581,-250.046"/>
</g>
<!-- Node16&#45;&gt;Node5 -->
<g id="edge27" class="edge"><title>Node16&#45;&gt;Node5</title>
<path fill="none" stroke="midnightblue" d="M556.812,-112.166C542.387,-99.6601 515.184,-76.0783 492,-56 480.578,-46.1081 467.74,-34.9983 457.678,-26.2925"/>
<polygon fill="midnightblue" stroke="midnightblue" points="459.823,-23.5205 449.971,-19.6246 455.243,-28.8143 459.823,-23.5205"/>
</g>
<!-- Node16&#45;&gt;Node6 -->
<g id="edge28" class="edge"><title>Node16&#45;&gt;Node6</title>
<path fill="none" stroke="midnightblue" d="M519.268,-115.272C430.548,-104.626 241.686,-81.9623 158.178,-71.9413"/>
<polygon fill="midnightblue" stroke="midnightblue" points="158.403,-68.4433 148.057,-70.7269 157.569,-75.3935 158.403,-68.4433"/>
</g>
<!-- Node17&#45;&gt;Node5 -->
<g id="edge30" class="edge"><title>Node17&#45;&gt;Node5</title>
<path fill="none" stroke="midnightblue" d="M566.477,-224.42C591.659,-204.515 647.621,-153.71 623,-112 591.768,-59.0897 521.801,-31.9874 477.997,-19.6995"/>
<polygon fill="midnightblue" stroke="midnightblue" points="478.833,-16.3 468.268,-17.0924 477.021,-23.0615 478.833,-16.3"/>
</g>
<!-- Node17&#45;&gt;Node10 -->
<g id="edge31" class="edge"><title>Node17&#45;&gt;Node10</title>
<path fill="none" stroke="midnightblue" d="M523.858,-226.051C480.567,-216.391 402.121,-198.887 354.08,-188.167"/>
<polygon fill="midnightblue" stroke="midnightblue" points="354.545,-184.684 344.022,-185.922 353.02,-191.516 354.545,-184.684"/>
</g>
<!-- Node17&#45;&gt;Node16 -->
<g id="edge32" class="edge"><title>Node17&#45;&gt;Node16</title>
<path fill="none" stroke="midnightblue" d="M555.942,-224.368C557.878,-206.617 562.345,-165.666 564.971,-141.597"/>
<polygon fill="midnightblue" stroke="midnightblue" points="568.458,-141.912 566.063,-131.591 561.499,-141.153 568.458,-141.912"/>
</g>
</g>
</svg>
