<?xml version="1.0" encoding="UTF-8" standalone="no"?>
<!DOCTYPE svg PUBLIC "-//W3C//DTD SVG 1.1//EN"
 "http://www.w3.org/Graphics/SVG/1.1/DTD/svg11.dtd">
<!-- Generated by graphviz version 2.38.0 (20140413.2041)
 -->
<!-- Title: EncodeExtendedStatus Pages: 1 -->
<svg width="450pt" height="78pt"
 viewBox="0.00 0.00 450.00 77.50" xmlns="http://www.w3.org/2000/svg" xmlns:xlink="http://www.w3.org/1999/xlink">
<g id="graph0" class="graph" transform="scale(1 1) rotate(0) translate(4 73.5)">
<title>EncodeExtendedStatus</title>
<!-- Node1 -->
<g id="node1" class="node"><title>Node1</title>
<polygon fill="#bfbfbf" stroke="black" points="0,-22.5 0,-41.5 119,-41.5 119,-22.5 0,-22.5"/>
<text text-anchor="middle" x="59.5" y="-29.5" font-family="Helvetica,sans-Serif" font-size="10.00">EncodeExtendedStatus</text>
</g>
<!-- Node2 -->
<g id="node2" class="node"><title>Node2</title>
<g id="a_node2"><a xlink:href="../../d3/d98/cpf_8c.html#ae5dd5d670ff4b01d0aedd4e0a0c0314d" target="_top" xlink:title="Encodes the extended status data items. ">
<polygon fill="none" stroke="black" points="159.5,-39 159.5,-69 299.5,-69 299.5,-39 159.5,-39"/>
<text text-anchor="start" x="167.5" y="-57" font-family="Helvetica,sans-Serif" font-size="10.00">EncodeExtendedStatusData</text>
<text text-anchor="middle" x="229.5" y="-46" font-family="Helvetica,sans-Serif" font-size="10.00">Items</text>
</a>
</g>
</g>
<!-- Node1&#45;&gt;Node2 -->
<g id="edge1" class="edge"><title>Node1&#45;&gt;Node2</title>
<path fill="none" stroke="midnightblue" d="M119.258,-39.6945C128.981,-40.9677 139.2,-42.306 149.326,-43.632"/>
<polygon fill="midnightblue" stroke="midnightblue" points="149.029,-47.1229 159.399,-44.9511 149.938,-40.1822 149.029,-47.1229"/>
</g>
<!-- Node4 -->
<g id="node4" class="node"><title>Node4</title>
<g id="a_node4"><a xlink:href="../../d3/d98/cpf_8c.html#aff1bd1c766cfc5414aff3360d01eea46" target="_top" xlink:title="Encodes the length of the extended status data part. ">
<polygon fill="none" stroke="black" points="155,-0.5 155,-19.5 304,-19.5 304,-0.5 155,-0.5"/>
<text text-anchor="middle" x="229.5" y="-7.5" font-family="Helvetica,sans-Serif" font-size="10.00">EncodeExtendedStatusLength</text>
</a>
</g>
</g>
<!-- Node1&#45;&gt;Node4 -->
<g id="edge3" class="edge"><title>Node1&#45;&gt;Node4</title>
<path fill="none" stroke="midnightblue" d="M119.258,-24.3055C127.852,-23.1801 136.834,-22.0039 145.796,-20.8302"/>
<polygon fill="midnightblue" stroke="midnightblue" points="146.424,-24.278 155.885,-19.5091 145.515,-17.3372 146.424,-24.278"/>
</g>
<!-- Node3 -->
<g id="node3" class="node"><title>Node3</title>
<g id="a_node3"><a xlink:href="../../d4/d91/group__ENCAP.html#gae689aac2a85bf49fb356ec94c8800799" target="_top" xlink:title="converts UINT16 data from host to little endian an writes it to buffer. ">
<polygon fill="none" stroke="black" points="343,-44.5 343,-63.5 439,-63.5 439,-44.5 343,-44.5"/>
<text text-anchor="middle" x="391" y="-51.5" font-family="Helvetica,sans-Serif" font-size="10.00">AddIntToMessage</text>
</a>
</g>
</g>
<!-- Node2&#45;&gt;Node3 -->
<g id="edge2" class="edge"><title>Node2&#45;&gt;Node3</title>
<path fill="none" stroke="midnightblue" d="M299.531,-54C310.633,-54 322.017,-54 332.801,-54"/>
<polygon fill="midnightblue" stroke="midnightblue" points="332.928,-57.5001 342.928,-54 332.928,-50.5001 332.928,-57.5001"/>
</g>
<!-- Node5 -->
<g id="node5" class="node"><title>Node5</title>
<g id="a_node5"><a xlink:href="../../d4/d91/group__ENCAP.html#gae267a8684cc6ee1b3bd83df03260b7aa" target="_top" xlink:title="converts UINT8 data from host to little endian an writes it to buffer. ">
<polygon fill="none" stroke="black" points="340,-0.5 340,-19.5 442,-19.5 442,-0.5 340,-0.5"/>
<text text-anchor="middle" x="391" y="-7.5" font-family="Helvetica,sans-Serif" font-size="10.00">AddSintToMessage</text>
</a>
</g>
</g>
<!-- Node4&#45;&gt;Node5 -->
<g id="edge4" class="edge"><title>Node4&#45;&gt;Node5</title>
<path fill="none" stroke="midnightblue" d="M304.181,-10C312.769,-10 321.452,-10 329.828,-10"/>
<polygon fill="midnightblue" stroke="midnightblue" points="329.865,-13.5001 339.865,-10 329.865,-6.5001 329.865,-13.5001"/>
</g>
</g>
</svg>
