<?xml version="1.0" encoding="UTF-8" standalone="no"?>
<!DOCTYPE svg PUBLIC "-//W3C//DTD SVG 1.1//EN"
 "http://www.w3.org/Graphics/SVG/1.1/DTD/svg11.dtd">
<!-- Generated by graphviz version 2.38.0 (20140413.2041)
 -->
<!-- Title: EncodeSockaddrInfoItemTypeId Pages: 1 -->
<!--zoomable 127 -->
<svg id="main" version="1.1" xmlns="http://www.w3.org/2000/svg" xmlns:xlink="http://www.w3.org/1999/xlink" xml:space="preserve" onload="init(evt)">
<style type="text/css"><![CDATA[
.edge:hover path { stroke: red; }
.edge:hover polygon { stroke: red; fill: red; }
]]></style>
<script type="text/javascript"><![CDATA[
var edges = document.getElementsByTagName('g');
if (edges && edges.length) {
  for (var i=0;i<edges.length;i++) {
    if (edges[i].id.substr(0,4)=='edge') {
      edges[i].setAttribute('class','edge');
    }
  }
}
]]></script>
        <defs>
                <circle id="rim" cx="0" cy="0" r="7"/>
                <circle id="rim2" cx="0" cy="0" r="3.5"/>
                <g id="zoomPlus">
                        <use xlink:href="#rim" fill="#404040">
                                <set attributeName="fill" to="#808080" begin="zoomplus.mouseover" end="zoomplus.mouseout"/>
                        </use>
                        <path d="M-4,0h8M0,-4v8" fill="none" stroke="white" stroke-width="1.5" pointer-events="none"/>
                </g>
                <g id="zoomMin">
                        <use xlink:href="#rim" fill="#404040">
                                <set attributeName="fill" to="#808080" begin="zoomminus.mouseover" end="zoomminus.mouseout"/>
                        </use>
                        <path d="M-4,0h8" fill="none" stroke="white" stroke-width="1.5" pointer-events="none"/>
                </g>
                <g id="dirArrow">
                        <path fill="none" stroke="white" stroke-width="1.5" d="M0,-3.0v7 M-2.5,-0.5L0,-3.0L2.5,-0.5"/>
                </g>
               <g id="resetDef">
                       <use xlink:href="#rim2" fill="#404040">
                               <set attributeName="fill" to="#808080" begin="reset.mouseover" end="reset.mouseout"/>
                       </use>
               </g>
        </defs>

<script type="text/javascript">
var viewWidth = 1656;
var viewHeight = 127;
var sectionId = 'dynsection-34';
</script>
<script xlink:href="../../svgpan.js"/>
<svg id="graph" class="graph">
<g id="viewport">
<title>EncodeSockaddrInfoItemTypeId</title>
<!-- Node1 -->
<g id="node1" class="node"><title>Node1</title>
<polygon fill="#bfbfbf" stroke="black" points="0,-44.5 0,-63.5 157,-63.5 157,-44.5 0,-44.5"/>
<text text-anchor="middle" x="78.5" y="-51.5" font-family="Helvetica,sans-Serif" font-size="10.00">EncodeSockaddrInfoItemTypeId</text>
</g>
<!-- Node2 -->
<g id="node2" class="node"><title>Node2</title>
<g id="a_node2"><a xlink:href="../../d4/d91/group__ENCAP.html#gaa28ed48b18b92a64faf70093eb74d891" target="_top" xlink:title="Copy data from message_router_response struct and common_packet_format_data_item into ENIPMessage str...">
<polygon fill="none" stroke="black" points="193,-44.5 193,-63.5 319,-63.5 319,-44.5 193,-44.5"/>
<text text-anchor="middle" x="256" y="-51.5" font-family="Helvetica,sans-Serif" font-size="10.00">AssembleLinearMessage</text>
</a>
</g>
</g>
<!-- Node1&#45;&gt;Node2 -->
<g id="edge1" class="edge"><title>Node1&#45;&gt;Node2</title>
<path fill="none" stroke="midnightblue" d="M167.339,-54C175.956,-54 184.572,-54 192.854,-54"/>
<polygon fill="midnightblue" stroke="midnightblue" points="167.243,-50.5001 157.243,-54 167.243,-57.5001 167.243,-50.5001"/>
</g>
<!-- Node3 -->
<g id="node3" class="node"><title>Node3</title>
<g id="a_node3"><a xlink:href="../../d4/d91/group__ENCAP.html#gaf4beeca6ee941986295958572352a567" target="_top" xlink:title="NotifyCommonPacketFormat">
<polygon fill="none" stroke="black" points="363.5,-90.5 363.5,-109.5 507.5,-109.5 507.5,-90.5 363.5,-90.5"/>
<text text-anchor="middle" x="435.5" y="-97.5" font-family="Helvetica,sans-Serif" font-size="10.00">NotifyCommonPacketFormat</text>
</a>
</g>
</g>
<!-- Node2&#45;&gt;Node3 -->
<g id="edge2" class="edge"><title>Node2&#45;&gt;Node3</title>
<path fill="none" stroke="midnightblue" d="M303.808,-66.1306C333.188,-73.7444 370.53,-83.4219 397.769,-90.481"/>
<polygon fill="midnightblue" stroke="midnightblue" points="304.336,-62.6519 293.778,-63.5312 302.58,-69.4281 304.336,-62.6519"/>
</g>
<!-- Node12 -->
<g id="node12" class="node"><title>Node12</title>
<g id="a_node12"><a xlink:href="../../d4/d91/group__ENCAP.html#ga93b23ccc67639937716a8f436a96c2b5" target="_top" xlink:title="NotifyConnectedCommonPacket\lFormat">
<polygon fill="none" stroke="black" points="355,-39 355,-69 516,-69 516,-39 355,-39"/>
<text text-anchor="start" x="363" y="-57" font-family="Helvetica,sans-Serif" font-size="10.00">NotifyConnectedCommonPacket</text>
<text text-anchor="middle" x="435.5" y="-46" font-family="Helvetica,sans-Serif" font-size="10.00">Format</text>
</a>
</g>
</g>
<!-- Node2&#45;&gt;Node12 -->
<g id="edge11" class="edge"><title>Node2&#45;&gt;Node12</title>
<path fill="none" stroke="midnightblue" d="M329.284,-54C337.75,-54 346.424,-54 354.982,-54"/>
<polygon fill="midnightblue" stroke="midnightblue" points="329.081,-50.5001 319.081,-54 329.081,-57.5001 329.081,-50.5001"/>
</g>
<!-- Node14 -->
<g id="node14" class="node"><title>Node14</title>
<g id="a_node14"><a xlink:href="../../d4/d91/group__ENCAP.html#ga137d29fba9dd744ed2e9323bf75e0bba" target="_top" xlink:title="AssembleIOMessage">
<polygon fill="none" stroke="black" points="380.5,-0.5 380.5,-19.5 490.5,-19.5 490.5,-0.5 380.5,-0.5"/>
<text text-anchor="middle" x="435.5" y="-7.5" font-family="Helvetica,sans-Serif" font-size="10.00">AssembleIOMessage</text>
</a>
</g>
</g>
<!-- Node2&#45;&gt;Node14 -->
<g id="edge14" class="edge"><title>Node2&#45;&gt;Node14</title>
<path fill="none" stroke="midnightblue" d="M303.55,-41.9712C319.814,-37.8093 338.201,-33.1498 355,-29 367.675,-25.869 381.507,-22.5345 394.028,-19.5472"/>
<polygon fill="midnightblue" stroke="midnightblue" points="302.548,-38.6148 293.731,-44.4892 304.287,-45.3954 302.548,-38.6148"/>
</g>
<!-- Node4 -->
<g id="node4" class="node"><title>Node4</title>
<g id="a_node4"><a xlink:href="../../d7/df9/encap_8h.html#a51dd68441ec427052986aef5c5c076e4" target="_top" xlink:title="Call UCMM or Message Router if UCMM not implemented. ">
<polygon fill="none" stroke="black" points="553,-88 553,-118 701,-118 701,-88 553,-88"/>
<text text-anchor="start" x="561" y="-106" font-family="Helvetica,sans-Serif" font-size="10.00">HandleReceivedSendRequest</text>
<text text-anchor="middle" x="627" y="-95" font-family="Helvetica,sans-Serif" font-size="10.00">ResponseDataCommand</text>
</a>
</g>
</g>
<!-- Node3&#45;&gt;Node4 -->
<g id="edge3" class="edge"><title>Node3&#45;&gt;Node4</title>
<path fill="none" stroke="midnightblue" d="M517.775,-101.287C529.454,-101.472 541.412,-101.661 552.92,-101.843"/>
<polygon fill="midnightblue" stroke="midnightblue" points="517.656,-97.7845 507.602,-101.126 517.545,-104.784 517.656,-97.7845"/>
</g>
<!-- Node5 -->
<g id="node5" class="node"><title>Node5</title>
<g id="a_node5"><a xlink:href="../../d2/dc9/group__CIP__API.html#ga16eaeeb12ba23b5a75c8e5902a33d70a" target="_top" xlink:title="Notify the encapsulation layer that an explicit message has been received via TCP. ">
<polygon fill="none" stroke="black" points="738,-60.5 738,-79.5 894,-79.5 894,-60.5 738,-60.5"/>
<text text-anchor="middle" x="816" y="-67.5" font-family="Helvetica,sans-Serif" font-size="10.00">HandleReceivedExplictTcpData</text>
</a>
</g>
</g>
<!-- Node4&#45;&gt;Node5 -->
<g id="edge4" class="edge"><title>Node4&#45;&gt;Node5</title>
<path fill="none" stroke="midnightblue" d="M711.022,-88.349C727.991,-85.3545 745.426,-82.2778 761.054,-79.52"/>
<polygon fill="midnightblue" stroke="midnightblue" points="710.342,-84.9149 701.103,-90.0996 711.559,-91.8084 710.342,-84.9149"/>
</g>
<!-- Node6 -->
<g id="node6" class="node"><title>Node6</title>
<g id="a_node6"><a xlink:href="../../db/d4f/generic__networkhandler_8c.html#aca5593b7dd39d7a7b437999a367102d6" target="_top" xlink:title="Handles data on an established TCP connection, processed connection is given by socket. ">
<polygon fill="none" stroke="black" points="930,-60.5 930,-79.5 1058,-79.5 1058,-60.5 930,-60.5"/>
<text text-anchor="middle" x="994" y="-67.5" font-family="Helvetica,sans-Serif" font-size="10.00">HandleDataOnTcpSocket</text>
</a>
</g>
</g>
<!-- Node5&#45;&gt;Node6 -->
<g id="edge5" class="edge"><title>Node5&#45;&gt;Node6</title>
<path fill="none" stroke="midnightblue" d="M904.293,-70C912.914,-70 921.545,-70 929.853,-70"/>
<polygon fill="midnightblue" stroke="midnightblue" points="904.196,-66.5001 894.196,-70 904.196,-73.5001 904.196,-66.5001"/>
</g>
<!-- Node7 -->
<g id="node7" class="node"><title>Node7</title>
<g id="a_node7"><a xlink:href="../../da/dc2/generic__networkhandler_8h.html#a2f01af81d3e5018d9980e2bc28c9078a" target="_top" xlink:title="NetworkHandlerProcessOnce">
<polygon fill="none" stroke="black" points="1094,-60.5 1094,-79.5 1240,-79.5 1240,-60.5 1094,-60.5"/>
<text text-anchor="middle" x="1167" y="-67.5" font-family="Helvetica,sans-Serif" font-size="10.00">NetworkHandlerProcessOnce</text>
</a>
</g>
</g>
<!-- Node6&#45;&gt;Node7 -->
<g id="edge6" class="edge"><title>Node6&#45;&gt;Node7</title>
<path fill="none" stroke="midnightblue" d="M1068.38,-70C1076.82,-70 1085.42,-70 1093.84,-70"/>
<polygon fill="midnightblue" stroke="midnightblue" points="1068.19,-66.5001 1058.19,-70 1068.19,-73.5001 1068.19,-66.5001"/>
</g>
<!-- Node8 -->
<g id="node8" class="node"><title>Node8</title>
<g id="a_node8"><a xlink:href="../../d5/dcb/MINGW_2main_8c.html#ad338a7dbc41dc40bcecd0479377ef207" target="_top" xlink:title="main">
<polygon fill="none" stroke="black" points="1383,-38.5 1383,-57.5 1421,-57.5 1421,-38.5 1383,-38.5"/>
<text text-anchor="middle" x="1402" y="-45.5" font-family="Helvetica,sans-Serif" font-size="10.00">main</text>
</a>
</g>
</g>
<!-- Node7&#45;&gt;Node8 -->
<g id="edge7" class="edge"><title>Node7&#45;&gt;Node8</title>
<path fill="none" stroke="midnightblue" d="M1250.54,-74.1277C1281.06,-74.2116 1315.8,-72.5974 1347,-67 1359.33,-64.7884 1372.6,-60.1512 1382.9,-56.0117"/>
<polygon fill="midnightblue" stroke="midnightblue" points="1250.4,-70.6264 1240.37,-74.0375 1250.34,-77.6261 1250.4,-70.6264"/>
</g>
<!-- Node11 -->
<g id="node11" class="node"><title>Node11</title>
<g id="a_node11"><a xlink:href="../../d9/dfb/POSIX_2main_8c.html#acd4e45a35a64f9cb29b59f63492b61d2" target="_top" xlink:title="Signal handler function for ending stack execution. ">
<polygon fill="none" stroke="black" points="1277.5,-38.5 1277.5,-57.5 1345.5,-57.5 1345.5,-38.5 1277.5,-38.5"/>
<text text-anchor="middle" x="1311.5" y="-45.5" font-family="Helvetica,sans-Serif" font-size="10.00">LeaveStack</text>
</a>
</g>
</g>
<!-- Node7&#45;&gt;Node11 -->
<g id="edge10" class="edge"><title>Node7&#45;&gt;Node11</title>
<path fill="none" stroke="midnightblue" d="M1239.72,-58.9272C1252.89,-56.8934 1266.05,-54.863 1277.38,-53.114"/>
<polygon fill="midnightblue" stroke="midnightblue" points="1239.02,-55.4935 1229.67,-60.4784 1240.09,-62.4116 1239.02,-55.4935"/>
</g>
<!-- Node9 -->
<g id="node9" class="node"><title>Node9</title>
<g id="a_node9"><a xlink:href="../../d8/d03/ports_2MINGW_2CMakeLists_8txt.html#a7e00df43a20d627a1732be7766d91097" target="_top" xlink:title="add_library">
<polygon fill="none" stroke="black" points="1457,-38.5 1457,-57.5 1521,-57.5 1521,-38.5 1457,-38.5"/>
<text text-anchor="middle" x="1489" y="-45.5" font-family="Helvetica,sans-Serif" font-size="10.00">add_library</text>
</a>
</g>
</g>
<!-- Node8&#45;&gt;Node9 -->
<g id="edge8" class="edge"><title>Node8&#45;&gt;Node9</title>
<path fill="none" stroke="midnightblue" d="M1431.27,-48C1439.5,-48 1448.55,-48 1456.94,-48"/>
<polygon fill="midnightblue" stroke="midnightblue" points="1431.03,-44.5001 1421.03,-48 1431.03,-51.5001 1431.03,-44.5001"/>
</g>
<!-- Node10 -->
<g id="node10" class="node"><title>Node10</title>
<g id="a_node10"><a xlink:href="../../d8/dce/ports_2CMakeLists_8txt.html#a598fae457555a5fb26e18d4cd8f89de9" target="_top" xlink:title="add_subdirectory">
<polygon fill="none" stroke="black" points="1557,-38.5 1557,-57.5 1648,-57.5 1648,-38.5 1557,-38.5"/>
<text text-anchor="middle" x="1602.5" y="-45.5" font-family="Helvetica,sans-Serif" font-size="10.00">add_subdirectory</text>
</a>
</g>
</g>
<!-- Node9&#45;&gt;Node10 -->
<g id="edge9" class="edge"><title>Node9&#45;&gt;Node10</title>
<path fill="none" stroke="midnightblue" d="M1531.3,-48C1539.63,-48 1548.42,-48 1556.86,-48"/>
<polygon fill="midnightblue" stroke="midnightblue" points="1531.06,-44.5001 1521.06,-48 1531.06,-51.5001 1531.06,-44.5001"/>
</g>
<!-- Node13 -->
<g id="node13" class="node"><title>Node13</title>
<g id="a_node13"><a xlink:href="../../d2/dbd/encap_8c.html#a49dc585614f655a5b313150a01fd7221" target="_top" xlink:title="Call Connection Manager. ">
<polygon fill="none" stroke="black" points="552,-39 552,-69 702,-69 702,-39 552,-39"/>
<text text-anchor="start" x="560" y="-57" font-family="Helvetica,sans-Serif" font-size="10.00">HandleReceivedSendUnitData</text>
<text text-anchor="middle" x="627" y="-46" font-family="Helvetica,sans-Serif" font-size="10.00">Command</text>
</a>
</g>
</g>
<!-- Node12&#45;&gt;Node13 -->
<g id="edge12" class="edge"><title>Node12&#45;&gt;Node13</title>
<path fill="none" stroke="midnightblue" d="M526.101,-54C534.706,-54 543.369,-54 551.803,-54"/>
<polygon fill="midnightblue" stroke="midnightblue" points="526.041,-50.5001 516.041,-54 526.041,-57.5001 526.041,-50.5001"/>
</g>
<!-- Node13&#45;&gt;Node5 -->
<g id="edge13" class="edge"><title>Node13&#45;&gt;Node5</title>
<path fill="none" stroke="midnightblue" d="M712.154,-61.2003C720.709,-61.9323 729.37,-62.6734 737.846,-63.3986"/>
<polygon fill="midnightblue" stroke="midnightblue" points="712.438,-57.7119 702.176,-60.3466 711.841,-64.6865 712.438,-57.7119"/>
</g>
<!-- Node15 -->
<g id="node15" class="node"><title>Node15</title>
<g id="a_node15"><a xlink:href="../../df/d03/cipioconnection_8c.html#a20f1bc1c4cc4470cf371f94d51814de2" target="_top" xlink:title="Send the data from the produced CIP Object of the connection via the socket of the connection object ...">
<polygon fill="none" stroke="black" points="573.5,-0.5 573.5,-19.5 680.5,-19.5 680.5,-0.5 573.5,-0.5"/>
<text text-anchor="middle" x="627" y="-7.5" font-family="Helvetica,sans-Serif" font-size="10.00">SendConnectedData</text>
</a>
</g>
</g>
<!-- Node14&#45;&gt;Node15 -->
<g id="edge15" class="edge"><title>Node14&#45;&gt;Node15</title>
<path fill="none" stroke="midnightblue" d="M500.804,-10C524.369,-10 550.745,-10 573.188,-10"/>
<polygon fill="midnightblue" stroke="midnightblue" points="500.55,-6.5001 490.549,-10 500.549,-13.5001 500.55,-6.5001"/>
</g>
<!-- Node16 -->
<g id="node16" class="node"><title>Node16</title>
<g id="a_node16"><a xlink:href="../../df/d03/cipioconnection_8c.html#ab3282f146a3ea91c90cf14c32206ee8c" target="_top" xlink:title="SetIoConnectionCallbacks">
<polygon fill="none" stroke="black" points="749.5,-0.5 749.5,-19.5 882.5,-19.5 882.5,-0.5 749.5,-0.5"/>
<text text-anchor="middle" x="816" y="-7.5" font-family="Helvetica,sans-Serif" font-size="10.00">SetIoConnectionCallbacks</text>
</a>
</g>
</g>
<!-- Node15&#45;&gt;Node16 -->
<g id="edge16" class="edge"><title>Node15&#45;&gt;Node16</title>
<path fill="none" stroke="midnightblue" d="M690.59,-10C709.523,-10 730.361,-10 749.48,-10"/>
<polygon fill="midnightblue" stroke="midnightblue" points="690.588,-6.5001 680.588,-10 690.588,-13.5001 690.588,-6.5001"/>
</g>
<!-- Node17 -->
<g id="node17" class="node"><title>Node17</title>
<g id="a_node17"><a xlink:href="../../de/d45/cipioconnection_8h.html#a43e270b3f9b9f6296b12285c320c95aa" target="_top" xlink:title="Setup all data in order to establish an IO connection. ">
<polygon fill="none" stroke="black" points="936.5,-0.5 936.5,-19.5 1051.5,-19.5 1051.5,-0.5 936.5,-0.5"/>
<text text-anchor="middle" x="994" y="-7.5" font-family="Helvetica,sans-Serif" font-size="10.00">EstablishIoConnection</text>
</a>
</g>
</g>
<!-- Node16&#45;&gt;Node17 -->
<g id="edge17" class="edge"><title>Node16&#45;&gt;Node17</title>
<path fill="none" stroke="midnightblue" d="M892.603,-10C907.282,-10 922.43,-10 936.37,-10"/>
<polygon fill="midnightblue" stroke="midnightblue" points="892.536,-6.5001 882.536,-10 892.536,-13.5001 892.536,-6.5001"/>
</g>
<!-- Node18 -->
<g id="node18" class="node"><title>Node18</title>
<g id="a_node18"><a xlink:href="../../d2/da3/cipconnectionmanager_8h.html#a5ab0de6894d23e8fe84a6b46797c2212" target="_top" xlink:title="Initialize the data of the connection manager object. ">
<polygon fill="none" stroke="black" points="1108.5,-0.5 1108.5,-19.5 1225.5,-19.5 1225.5,-0.5 1108.5,-0.5"/>
<text text-anchor="middle" x="1167" y="-7.5" font-family="Helvetica,sans-Serif" font-size="10.00">ConnectionManagerInit</text>
</a>
</g>
</g>
<!-- Node17&#45;&gt;Node18 -->
<g id="edge18" class="edge"><title>Node17&#45;&gt;Node18</title>
<path fill="none" stroke="midnightblue" d="M1062.34,-10C1077.58,-10 1093.64,-10 1108.43,-10"/>
<polygon fill="midnightblue" stroke="midnightblue" points="1061.94,-6.5001 1051.94,-10 1061.94,-13.5001 1061.94,-6.5001"/>
</g>
<!-- Node19 -->
<g id="node19" class="node"><title>Node19</title>
<g id="a_node19"><a xlink:href="../../d2/dc9/group__CIP__API.html#ga5d4979945d124e28668b264c3823db1c" target="_top" xlink:title="Initialize and setup the CIP&#45;stack. ">
<polygon fill="none" stroke="black" points="1276,-0.5 1276,-19.5 1347,-19.5 1347,-0.5 1276,-0.5"/>
<text text-anchor="middle" x="1311.5" y="-7.5" font-family="Helvetica,sans-Serif" font-size="10.00">CipStackInit</text>
</a>
</g>
</g>
<!-- Node18&#45;&gt;Node19 -->
<g id="edge19" class="edge"><title>Node18&#45;&gt;Node19</title>
<path fill="none" stroke="midnightblue" d="M1235.6,-10C1249.49,-10 1263.56,-10 1275.71,-10"/>
<polygon fill="midnightblue" stroke="midnightblue" points="1235.55,-6.5001 1225.55,-10 1235.55,-13.5001 1235.55,-6.5001"/>
</g>
<!-- Node19&#45;&gt;Node8 -->
<g id="edge20" class="edge"><title>Node19&#45;&gt;Node8</title>
<path fill="none" stroke="midnightblue" d="M1344.34,-23.6735C1357.28,-29.2292 1371.76,-35.4459 1382.84,-40.2041"/>
<polygon fill="midnightblue" stroke="midnightblue" points="1345.4,-20.3185 1334.83,-19.589 1342.64,-26.7506 1345.4,-20.3185"/>
</g>
</g>
</svg>
        <g id="navigator" transform="translate(0 0)" fill="#404254">
                <rect fill="#f2f5e9" fill-opacity="0.5" stroke="#606060" stroke-width=".5" x="0" y="0" width="60" height="60"/>
                <use id="zoomplus" xlink:href="#zoomPlus" x="17" y="9" onmousedown="handleZoom(evt,'in')"/>
                <use id="zoomminus" xlink:href="#zoomMin" x="42" y="9" onmousedown="handleZoom(evt,'out')"/>
                <use id="reset" xlink:href="#resetDef" x="30" y="36" onmousedown="handleReset()"/>
                <g id="arrowUp" xlink:href="#dirArrow" transform="translate(30 24)" onmousedown="handlePan(0,-1)">
                  <use xlink:href="#rim" fill="#404040">
                        <set attributeName="fill" to="#808080" begin="arrowUp.mouseover" end="arrowUp.mouseout"/>
                  </use>
                  <path fill="none" stroke="white" stroke-width="1.5" d="M0,-3.0v7 M-2.5,-0.5L0,-3.0L2.5,-0.5"/>
                </g>
                <g id="arrowRight" xlink:href="#dirArrow" transform="rotate(90) translate(36 -43)" onmousedown="handlePan(1,0)">
                  <use xlink:href="#rim" fill="#404040">
                        <set attributeName="fill" to="#808080" begin="arrowRight.mouseover" end="arrowRight.mouseout"/>
                  </use>
                  <path fill="none" stroke="white" stroke-width="1.5" d="M0,-3.0v7 M-2.5,-0.5L0,-3.0L2.5,-0.5"/>
                </g>
                <g id="arrowDown" xlink:href="#dirArrow" transform="rotate(180) translate(-30 -48)" onmousedown="handlePan(0,1)">
                  <use xlink:href="#rim" fill="#404040">
                        <set attributeName="fill" to="#808080" begin="arrowDown.mouseover" end="arrowDown.mouseout"/>
                  </use>
                  <path fill="none" stroke="white" stroke-width="1.5" d="M0,-3.0v7 M-2.5,-0.5L0,-3.0L2.5,-0.5"/>
                </g>
                <g id="arrowLeft" xlink:href="#dirArrow" transform="rotate(270) translate(-36 17)" onmousedown="handlePan(-1,0)">
                  <use xlink:href="#rim" fill="#404040">
                        <set attributeName="fill" to="#808080" begin="arrowLeft.mouseover" end="arrowLeft.mouseout"/>
                  </use>
                  <path fill="none" stroke="white" stroke-width="1.5" d="M0,-3.0v7 M-2.5,-0.5L0,-3.0L2.5,-0.5"/>
                </g>
        </g>
        <svg viewBox="0 0 15 15" width="100%" height="30px" preserveAspectRatio="xMaxYMin meet">
         <g id="arrow_out" transform="scale(0.3 0.3)">
          <a xlink:href="cpf_8c_adfed715f4ce7b8d41243260aa7dbde00_icgraph_org.svg" target="_base">
           <rect id="button" ry="5" rx="5" y="6" x="6" height="38" width="38"
                fill="#f2f5e9" fill-opacity="0.5" stroke="#606060" stroke-width="1.0"/>
           <path id="arrow"
             d="M 11.500037,31.436501 C 11.940474,20.09759 22.043105,11.32322 32.158766,21.979434 L 37.068811,17.246167 C 37.068811,17.246167 37.088388,32 37.088388,32 L 22.160133,31.978069 C 22.160133,31.978069 26.997745,27.140456 26.997745,27.140456 C 18.528582,18.264221 13.291696,25.230495 11.500037,31.436501 z"
             style="fill:#404040;"/>
          </a>
         </g>
        </svg>
</svg>
