<?xml version="1.0" encoding="UTF-8" standalone="no"?>
<!DOCTYPE svg PUBLIC "-//W3C//DTD SVG 1.1//EN"
 "http://www.w3.org/Graphics/SVG/1.1/DTD/svg11.dtd">
<!-- Generated by graphviz version 2.38.0 (20140413.2041)
 -->
<!-- Title: EncodeConnectedAddressItem Pages: 1 -->
<svg width="1651pt" height="127pt"
 viewBox="0.00 0.00 1651.00 126.50" xmlns="http://www.w3.org/2000/svg" xmlns:xlink="http://www.w3.org/1999/xlink">
<g id="graph0" class="graph" transform="scale(1 1) rotate(0) translate(4 122.5)">
<title>EncodeConnectedAddressItem</title>
<!-- Node1 -->
<g id="node1" class="node"><title>Node1</title>
<polygon fill="#bfbfbf" stroke="black" points="0,-44.5 0,-63.5 152,-63.5 152,-44.5 0,-44.5"/>
<text text-anchor="middle" x="76" y="-51.5" font-family="Helvetica,sans-Serif" font-size="10.00">EncodeConnectedAddressItem</text>
</g>
<!-- Node2 -->
<g id="node2" class="node"><title>Node2</title>
<g id="a_node2"><a xlink:href="../../d4/d91/group__ENCAP.html#gaa28ed48b18b92a64faf70093eb74d891" target="_top" xlink:title="Copy data from message_router_response struct and common_packet_format_data_item into ENIPMessage str...">
<polygon fill="none" stroke="black" points="188,-44.5 188,-63.5 314,-63.5 314,-44.5 188,-44.5"/>
<text text-anchor="middle" x="251" y="-51.5" font-family="Helvetica,sans-Serif" font-size="10.00">AssembleLinearMessage</text>
</a>
</g>
</g>
<!-- Node1&#45;&gt;Node2 -->
<g id="edge1" class="edge"><title>Node1&#45;&gt;Node2</title>
<path fill="none" stroke="midnightblue" d="M162.254,-54C170.906,-54 179.574,-54 187.913,-54"/>
<polygon fill="midnightblue" stroke="midnightblue" points="162.126,-50.5001 152.126,-54 162.126,-57.5001 162.126,-50.5001"/>
</g>
<!-- Node3 -->
<g id="node3" class="node"><title>Node3</title>
<g id="a_node3"><a xlink:href="../../d4/d91/group__ENCAP.html#ga9c408ca52db513a953b72e8dfcad27e8" target="_top" xlink:title="NotifyCommonPacketFormat">
<polygon fill="none" stroke="black" points="358.5,-90.5 358.5,-109.5 502.5,-109.5 502.5,-90.5 358.5,-90.5"/>
<text text-anchor="middle" x="430.5" y="-97.5" font-family="Helvetica,sans-Serif" font-size="10.00">NotifyCommonPacketFormat</text>
</a>
</g>
</g>
<!-- Node2&#45;&gt;Node3 -->
<g id="edge2" class="edge"><title>Node2&#45;&gt;Node3</title>
<path fill="none" stroke="midnightblue" d="M298.808,-66.1306C328.188,-73.7444 365.53,-83.4219 392.769,-90.481"/>
<polygon fill="midnightblue" stroke="midnightblue" points="299.336,-62.6519 288.778,-63.5312 297.58,-69.4281 299.336,-62.6519"/>
</g>
<!-- Node14 -->
<g id="node14" class="node"><title>Node14</title>
<g id="a_node14"><a xlink:href="../../d4/d91/group__ENCAP.html#ga72c9878cc686b15d10481b716e6f628d" target="_top" xlink:title="NotifyConnectedCommonPacket\lFormat">
<polygon fill="none" stroke="black" points="350,-39 350,-69 511,-69 511,-39 350,-39"/>
<text text-anchor="start" x="358" y="-57" font-family="Helvetica,sans-Serif" font-size="10.00">NotifyConnectedCommonPacket</text>
<text text-anchor="middle" x="430.5" y="-46" font-family="Helvetica,sans-Serif" font-size="10.00">Format</text>
</a>
</g>
</g>
<!-- Node2&#45;&gt;Node14 -->
<g id="edge14" class="edge"><title>Node2&#45;&gt;Node14</title>
<path fill="none" stroke="midnightblue" d="M324.284,-54C332.75,-54 341.424,-54 349.982,-54"/>
<polygon fill="midnightblue" stroke="midnightblue" points="324.081,-50.5001 314.081,-54 324.081,-57.5001 324.081,-50.5001"/>
</g>
<!-- Node16 -->
<g id="node16" class="node"><title>Node16</title>
<g id="a_node16"><a xlink:href="../../d4/d91/group__ENCAP.html#ga137d29fba9dd744ed2e9323bf75e0bba" target="_top" xlink:title="AssembleIOMessage">
<polygon fill="none" stroke="black" points="375.5,-0.5 375.5,-19.5 485.5,-19.5 485.5,-0.5 375.5,-0.5"/>
<text text-anchor="middle" x="430.5" y="-7.5" font-family="Helvetica,sans-Serif" font-size="10.00">AssembleIOMessage</text>
</a>
</g>
</g>
<!-- Node2&#45;&gt;Node16 -->
<g id="edge17" class="edge"><title>Node2&#45;&gt;Node16</title>
<path fill="none" stroke="midnightblue" d="M298.55,-41.9712C314.814,-37.8093 333.201,-33.1498 350,-29 362.675,-25.869 376.507,-22.5345 389.028,-19.5472"/>
<polygon fill="midnightblue" stroke="midnightblue" points="297.548,-38.6148 288.731,-44.4892 299.287,-45.3954 297.548,-38.6148"/>
</g>
<!-- Node4 -->
<g id="node4" class="node"><title>Node4</title>
<g id="a_node4"><a xlink:href="../../d7/df9/encap_8h.html#a51dd68441ec427052986aef5c5c076e4" target="_top" xlink:title="Call UCMM or Message Router if UCMM not implemented. ">
<polygon fill="none" stroke="black" points="548,-88 548,-118 696,-118 696,-88 548,-88"/>
<text text-anchor="start" x="556" y="-106" font-family="Helvetica,sans-Serif" font-size="10.00">HandleReceivedSendRequest</text>
<text text-anchor="middle" x="622" y="-95" font-family="Helvetica,sans-Serif" font-size="10.00">ResponseDataCommand</text>
</a>
</g>
</g>
<!-- Node3&#45;&gt;Node4 -->
<g id="edge3" class="edge"><title>Node3&#45;&gt;Node4</title>
<path fill="none" stroke="midnightblue" d="M512.775,-101.287C524.454,-101.472 536.412,-101.661 547.92,-101.843"/>
<polygon fill="midnightblue" stroke="midnightblue" points="512.656,-97.7845 502.602,-101.126 512.545,-104.784 512.656,-97.7845"/>
</g>
<!-- Node5 -->
<g id="node5" class="node"><title>Node5</title>
<g id="a_node5"><a xlink:href="../../d2/dc9/group__CIP__API.html#ga4b8ec8e9b8a1dd71e84f2ea54e1c2b2d" target="_top" xlink:title="Notify the encapsulation layer that an explicit message has been received via TCP. ">
<polygon fill="none" stroke="black" points="733,-60.5 733,-79.5 889,-79.5 889,-60.5 733,-60.5"/>
<text text-anchor="middle" x="811" y="-67.5" font-family="Helvetica,sans-Serif" font-size="10.00">HandleReceivedExplictTcpData</text>
</a>
</g>
</g>
<!-- Node4&#45;&gt;Node5 -->
<g id="edge4" class="edge"><title>Node4&#45;&gt;Node5</title>
<path fill="none" stroke="midnightblue" d="M706.022,-88.349C722.991,-85.3545 740.426,-82.2778 756.054,-79.52"/>
<polygon fill="midnightblue" stroke="midnightblue" points="705.342,-84.9149 696.103,-90.0996 706.559,-91.8084 705.342,-84.9149"/>
</g>
<!-- Node6 -->
<g id="node6" class="node"><title>Node6</title>
<g id="a_node6"><a xlink:href="../../d4/d91/group__ENCAP.html#ga7a0dc2be6c485d9e6940d5b20a981022" target="_top" xlink:title="Initialize the encapsulation layer. ">
<polygon fill="none" stroke="black" points="1116,-38.5 1116,-57.5 1208,-57.5 1208,-38.5 1116,-38.5"/>
<text text-anchor="middle" x="1162" y="-45.5" font-family="Helvetica,sans-Serif" font-size="10.00">EncapsulationInit</text>
</a>
</g>
</g>
<!-- Node5&#45;&gt;Node6 -->
<g id="edge5" class="edge"><title>Node5&#45;&gt;Node6</title>
<path fill="none" stroke="midnightblue" d="M899.404,-64.4903C968.12,-60.1586 1061.07,-54.2994 1115.67,-50.8573"/>
<polygon fill="midnightblue" stroke="midnightblue" points="898.782,-61.0225 889.022,-65.1448 899.222,-68.0086 898.782,-61.0225"/>
</g>
<!-- Node11 -->
<g id="node11" class="node"><title>Node11</title>
<g id="a_node11"><a xlink:href="../../db/d4f/generic__networkhandler_8c.html#aca5593b7dd39d7a7b437999a367102d6" target="_top" xlink:title="Handles data on an established TCP connection, processed connection is given by socket. ">
<polygon fill="none" stroke="black" points="925,-76.5 925,-95.5 1053,-95.5 1053,-76.5 925,-76.5"/>
<text text-anchor="middle" x="989" y="-83.5" font-family="Helvetica,sans-Serif" font-size="10.00">HandleDataOnTcpSocket</text>
</a>
</g>
</g>
<!-- Node5&#45;&gt;Node11 -->
<g id="edge10" class="edge"><title>Node5&#45;&gt;Node11</title>
<path fill="none" stroke="midnightblue" d="M899.293,-77.9357C907.914,-78.7195 916.545,-79.5041 924.853,-80.2594"/>
<polygon fill="midnightblue" stroke="midnightblue" points="899.472,-74.4377 889.196,-77.0178 898.838,-81.4089 899.472,-74.4377"/>
</g>
<!-- Node7 -->
<g id="node7" class="node"><title>Node7</title>
<g id="a_node7"><a xlink:href="../../d2/dc9/group__CIP__API.html#ga5d4979945d124e28668b264c3823db1c" target="_top" xlink:title="Initialize and setup the CIP&#45;stack. ">
<polygon fill="none" stroke="black" points="1271,-19.5 1271,-38.5 1342,-38.5 1342,-19.5 1271,-19.5"/>
<text text-anchor="middle" x="1306.5" y="-26.5" font-family="Helvetica,sans-Serif" font-size="10.00">CipStackInit</text>
</a>
</g>
</g>
<!-- Node6&#45;&gt;Node7 -->
<g id="edge6" class="edge"><title>Node6&#45;&gt;Node7</title>
<path fill="none" stroke="midnightblue" d="M1218.27,-40.6307C1235.89,-38.2812 1254.89,-35.7483 1270.64,-33.6479"/>
<polygon fill="midnightblue" stroke="midnightblue" points="1217.54,-37.1973 1208.09,-41.9883 1218.46,-44.1359 1217.54,-37.1973"/>
</g>
<!-- Node8 -->
<g id="node8" class="node"><title>Node8</title>
<g id="a_node8"><a xlink:href="../../d5/dcb/MINGW_2main_8c.html#ad338a7dbc41dc40bcecd0479377ef207" target="_top" xlink:title="main">
<polygon fill="none" stroke="black" points="1378,-38.5 1378,-57.5 1416,-57.5 1416,-38.5 1378,-38.5"/>
<text text-anchor="middle" x="1397" y="-45.5" font-family="Helvetica,sans-Serif" font-size="10.00">main</text>
</a>
</g>
</g>
<!-- Node7&#45;&gt;Node8 -->
<g id="edge7" class="edge"><title>Node7&#45;&gt;Node8</title>
<path fill="none" stroke="midnightblue" d="M1352.09,-38.5727C1361.24,-40.5377 1370.37,-42.4985 1377.92,-44.1189"/>
<polygon fill="midnightblue" stroke="midnightblue" points="1352.74,-35.1319 1342.22,-36.4548 1351.27,-41.9759 1352.74,-35.1319"/>
</g>
<!-- Node9 -->
<g id="node9" class="node"><title>Node9</title>
<g id="a_node9"><a xlink:href="../../d8/d03/ports_2MINGW_2CMakeLists_8txt.html#a7e00df43a20d627a1732be7766d91097" target="_top" xlink:title="add_library">
<polygon fill="none" stroke="black" points="1452,-38.5 1452,-57.5 1516,-57.5 1516,-38.5 1452,-38.5"/>
<text text-anchor="middle" x="1484" y="-45.5" font-family="Helvetica,sans-Serif" font-size="10.00">add_library</text>
</a>
</g>
</g>
<!-- Node8&#45;&gt;Node9 -->
<g id="edge8" class="edge"><title>Node8&#45;&gt;Node9</title>
<path fill="none" stroke="midnightblue" d="M1426.27,-48C1434.5,-48 1443.55,-48 1451.94,-48"/>
<polygon fill="midnightblue" stroke="midnightblue" points="1426.03,-44.5001 1416.03,-48 1426.03,-51.5001 1426.03,-44.5001"/>
</g>
<!-- Node10 -->
<g id="node10" class="node"><title>Node10</title>
<g id="a_node10"><a xlink:href="../../d8/dce/ports_2CMakeLists_8txt.html#a598fae457555a5fb26e18d4cd8f89de9" target="_top" xlink:title="add_subdirectory">
<polygon fill="none" stroke="black" points="1552,-38.5 1552,-57.5 1643,-57.5 1643,-38.5 1552,-38.5"/>
<text text-anchor="middle" x="1597.5" y="-45.5" font-family="Helvetica,sans-Serif" font-size="10.00">add_subdirectory</text>
</a>
</g>
</g>
<!-- Node9&#45;&gt;Node10 -->
<g id="edge9" class="edge"><title>Node9&#45;&gt;Node10</title>
<path fill="none" stroke="midnightblue" d="M1526.3,-48C1534.63,-48 1543.42,-48 1551.86,-48"/>
<polygon fill="midnightblue" stroke="midnightblue" points="1526.06,-44.5001 1516.06,-48 1526.06,-51.5001 1526.06,-44.5001"/>
</g>
<!-- Node12 -->
<g id="node12" class="node"><title>Node12</title>
<g id="a_node12"><a xlink:href="../../da/dc2/generic__networkhandler_8h.html#a2f01af81d3e5018d9980e2bc28c9078a" target="_top" xlink:title="NetworkHandlerProcessOnce">
<polygon fill="none" stroke="black" points="1089,-76.5 1089,-95.5 1235,-95.5 1235,-76.5 1089,-76.5"/>
<text text-anchor="middle" x="1162" y="-83.5" font-family="Helvetica,sans-Serif" font-size="10.00">NetworkHandlerProcessOnce</text>
</a>
</g>
</g>
<!-- Node11&#45;&gt;Node12 -->
<g id="edge11" class="edge"><title>Node11&#45;&gt;Node12</title>
<path fill="none" stroke="midnightblue" d="M1063.38,-86C1071.82,-86 1080.42,-86 1088.84,-86"/>
<polygon fill="midnightblue" stroke="midnightblue" points="1063.19,-82.5001 1053.19,-86 1063.19,-89.5001 1063.19,-82.5001"/>
</g>
<!-- Node12&#45;&gt;Node8 -->
<g id="edge12" class="edge"><title>Node12&#45;&gt;Node8</title>
<path fill="none" stroke="midnightblue" d="M1231.37,-74.8489C1281.81,-66.6228 1346.86,-56.0151 1377.92,-50.9483"/>
<polygon fill="midnightblue" stroke="midnightblue" points="1230.8,-71.396 1221.49,-76.46 1231.93,-78.3047 1230.8,-71.396"/>
</g>
<!-- Node13 -->
<g id="node13" class="node"><title>Node13</title>
<g id="a_node13"><a xlink:href="../../d9/dfb/POSIX_2main_8c.html#acd4e45a35a64f9cb29b59f63492b61d2" target="_top" xlink:title="Signal handler function for ending stack execution. ">
<polygon fill="none" stroke="black" points="1272.5,-95.5 1272.5,-114.5 1340.5,-114.5 1340.5,-95.5 1272.5,-95.5"/>
<text text-anchor="middle" x="1306.5" y="-102.5" font-family="Helvetica,sans-Serif" font-size="10.00">LeaveStack</text>
</a>
</g>
</g>
<!-- Node12&#45;&gt;Node13 -->
<g id="edge13" class="edge"><title>Node12&#45;&gt;Node13</title>
<path fill="none" stroke="midnightblue" d="M1244.82,-96.909C1254.5,-98.1994 1263.91,-99.4542 1272.32,-100.575"/>
<polygon fill="midnightblue" stroke="midnightblue" points="1245.04,-93.4081 1234.67,-95.5557 1244.12,-100.347 1245.04,-93.4081"/>
</g>
<!-- Node15 -->
<g id="node15" class="node"><title>Node15</title>
<g id="a_node15"><a xlink:href="../../d2/dbd/encap_8c.html#a49dc585614f655a5b313150a01fd7221" target="_top" xlink:title="Call Connection Manager. ">
<polygon fill="none" stroke="black" points="547,-39 547,-69 697,-69 697,-39 547,-39"/>
<text text-anchor="start" x="555" y="-57" font-family="Helvetica,sans-Serif" font-size="10.00">HandleReceivedSendUnitData</text>
<text text-anchor="middle" x="622" y="-46" font-family="Helvetica,sans-Serif" font-size="10.00">Command</text>
</a>
</g>
</g>
<!-- Node14&#45;&gt;Node15 -->
<g id="edge15" class="edge"><title>Node14&#45;&gt;Node15</title>
<path fill="none" stroke="midnightblue" d="M521.101,-54C529.706,-54 538.369,-54 546.803,-54"/>
<polygon fill="midnightblue" stroke="midnightblue" points="521.041,-50.5001 511.041,-54 521.041,-57.5001 521.041,-50.5001"/>
</g>
<!-- Node15&#45;&gt;Node5 -->
<g id="edge16" class="edge"><title>Node15&#45;&gt;Node5</title>
<path fill="none" stroke="midnightblue" d="M707.154,-61.2003C715.709,-61.9323 724.37,-62.6734 732.846,-63.3986"/>
<polygon fill="midnightblue" stroke="midnightblue" points="707.438,-57.7119 697.176,-60.3466 706.841,-64.6865 707.438,-57.7119"/>
</g>
<!-- Node17 -->
<g id="node17" class="node"><title>Node17</title>
<g id="a_node17"><a xlink:href="../../df/d03/cipioconnection_8c.html#a20f1bc1c4cc4470cf371f94d51814de2" target="_top" xlink:title="Send the data from the produced CIP Object of the connection via the socket of the connection object ...">
<polygon fill="none" stroke="black" points="568.5,-0.5 568.5,-19.5 675.5,-19.5 675.5,-0.5 568.5,-0.5"/>
<text text-anchor="middle" x="622" y="-7.5" font-family="Helvetica,sans-Serif" font-size="10.00">SendConnectedData</text>
</a>
</g>
</g>
<!-- Node16&#45;&gt;Node17 -->
<g id="edge18" class="edge"><title>Node16&#45;&gt;Node17</title>
<path fill="none" stroke="midnightblue" d="M495.804,-10C519.369,-10 545.745,-10 568.188,-10"/>
<polygon fill="midnightblue" stroke="midnightblue" points="495.55,-6.5001 485.549,-10 495.549,-13.5001 495.55,-6.5001"/>
</g>
<!-- Node18 -->
<g id="node18" class="node"><title>Node18</title>
<g id="a_node18"><a xlink:href="../../df/d03/cipioconnection_8c.html#ab3282f146a3ea91c90cf14c32206ee8c" target="_top" xlink:title="SetIoConnectionCallbacks">
<polygon fill="none" stroke="black" points="744.5,-0.5 744.5,-19.5 877.5,-19.5 877.5,-0.5 744.5,-0.5"/>
<text text-anchor="middle" x="811" y="-7.5" font-family="Helvetica,sans-Serif" font-size="10.00">SetIoConnectionCallbacks</text>
</a>
</g>
</g>
<!-- Node17&#45;&gt;Node18 -->
<g id="edge19" class="edge"><title>Node17&#45;&gt;Node18</title>
<path fill="none" stroke="midnightblue" d="M685.59,-10C704.523,-10 725.361,-10 744.48,-10"/>
<polygon fill="midnightblue" stroke="midnightblue" points="685.588,-6.5001 675.588,-10 685.588,-13.5001 685.588,-6.5001"/>
</g>
<!-- Node19 -->
<g id="node19" class="node"><title>Node19</title>
<g id="a_node19"><a xlink:href="../../de/d45/cipioconnection_8h.html#a43e270b3f9b9f6296b12285c320c95aa" target="_top" xlink:title="Setup all data in order to establish an IO connection. ">
<polygon fill="none" stroke="black" points="931.5,-0.5 931.5,-19.5 1046.5,-19.5 1046.5,-0.5 931.5,-0.5"/>
<text text-anchor="middle" x="989" y="-7.5" font-family="Helvetica,sans-Serif" font-size="10.00">EstablishIoConnection</text>
</a>
</g>
</g>
<!-- Node18&#45;&gt;Node19 -->
<g id="edge20" class="edge"><title>Node18&#45;&gt;Node19</title>
<path fill="none" stroke="midnightblue" d="M887.603,-10C902.282,-10 917.43,-10 931.37,-10"/>
<polygon fill="midnightblue" stroke="midnightblue" points="887.536,-6.5001 877.536,-10 887.536,-13.5001 887.536,-6.5001"/>
</g>
<!-- Node20 -->
<g id="node20" class="node"><title>Node20</title>
<g id="a_node20"><a xlink:href="../../d2/da3/cipconnectionmanager_8h.html#a5ab0de6894d23e8fe84a6b46797c2212" target="_top" xlink:title="Initialize the data of the connection manager object. ">
<polygon fill="none" stroke="black" points="1103.5,-0.5 1103.5,-19.5 1220.5,-19.5 1220.5,-0.5 1103.5,-0.5"/>
<text text-anchor="middle" x="1162" y="-7.5" font-family="Helvetica,sans-Serif" font-size="10.00">ConnectionManagerInit</text>
</a>
</g>
</g>
<!-- Node19&#45;&gt;Node20 -->
<g id="edge21" class="edge"><title>Node19&#45;&gt;Node20</title>
<path fill="none" stroke="midnightblue" d="M1057.34,-10C1072.58,-10 1088.64,-10 1103.43,-10"/>
<polygon fill="midnightblue" stroke="midnightblue" points="1056.94,-6.5001 1046.94,-10 1056.94,-13.5001 1056.94,-6.5001"/>
</g>
<!-- Node20&#45;&gt;Node7 -->
<g id="edge22" class="edge"><title>Node20&#45;&gt;Node7</title>
<path fill="none" stroke="midnightblue" d="M1230.6,-19.0133C1244.49,-20.8653 1258.56,-22.7419 1270.71,-24.3608"/>
<polygon fill="midnightblue" stroke="midnightblue" points="1230.92,-15.5257 1220.55,-17.6733 1230,-22.4643 1230.92,-15.5257"/>
</g>
</g>
</svg>
