<?xml version="1.0" encoding="UTF-8" standalone="no"?>
<!DOCTYPE svg PUBLIC "-//W3C//DTD SVG 1.1//EN"
 "http://www.w3.org/Graphics/SVG/1.1/DTD/svg11.dtd">
<!-- Generated by graphviz version 2.36.0 (20140111.2315)
 -->
<!-- Title: EncodeReservedFieldOfLengthByte Pages: 1 -->
<svg width="1474pt" height="126pt"
 viewBox="0.00 0.00 1474.00 126.00" xmlns="http://www.w3.org/2000/svg" xmlns:xlink="http://www.w3.org/1999/xlink">
<g id="graph0" class="graph" transform="scale(1 1) rotate(0) translate(4 122)">
<title>EncodeReservedFieldOfLengthByte</title>
<!-- Node1 -->
<g id="node1" class="node"><title>Node1</title>
<polygon fill="#bfbfbf" stroke="black" points="0.5,-44.5 0.5,-63.5 173.5,-63.5 173.5,-44.5 0.5,-44.5"/>
<text text-anchor="middle" x="87" y="-51.5" font-family="Helvetica,sans-Serif" font-size="10.00">EncodeReservedFieldOfLengthByte</text>
</g>
<!-- Node2 -->
<g id="node2" class="node"><title>Node2</title>
<g id="a_node2"><a xlink:href="../../d4/d91/group__ENCAP.html#gaa28ed48b18b92a64faf70093eb74d891" target="_top" xlink:title="Copy data from message_router_response struct and common_packet_format_data_item into ENIPMessage str...">
<polygon fill="none" stroke="black" points="210,-44.5 210,-63.5 336,-63.5 336,-44.5 210,-44.5"/>
<text text-anchor="middle" x="273" y="-51.5" font-family="Helvetica,sans-Serif" font-size="10.00">AssembleLinearMessage</text>
</a>
</g>
</g>
<!-- Node1&#45;&gt;Node2 -->
<g id="edge1" class="edge"><title>Node1&#45;&gt;Node2</title>
<path fill="none" stroke="midnightblue" d="M183.638,-54C192.584,-54 201.484,-54 209.999,-54"/>
<polygon fill="midnightblue" stroke="midnightblue" points="183.536,-50.5001 173.536,-54 183.536,-57.5001 183.536,-50.5001"/>
</g>
<!-- Node3 -->
<g id="node3" class="node"><title>Node3</title>
<g id="a_node3"><a xlink:href="../../d4/d91/group__ENCAP.html#ga18376333d90074460a180facd602c3d9" target="_top" xlink:title="NotifyCommonPacketFormat">
<polygon fill="none" stroke="black" points="381,-90.5 381,-109.5 525,-109.5 525,-90.5 381,-90.5"/>
<text text-anchor="middle" x="453" y="-97.5" font-family="Helvetica,sans-Serif" font-size="10.00">NotifyCommonPacketFormat</text>
</a>
</g>
</g>
<!-- Node2&#45;&gt;Node3 -->
<g id="edge2" class="edge"><title>Node2&#45;&gt;Node3</title>
<path fill="none" stroke="midnightblue" d="M320.94,-66.1306C350.402,-73.7444 387.85,-83.4219 415.166,-90.481"/>
<polygon fill="midnightblue" stroke="midnightblue" points="321.439,-62.6447 310.882,-63.5312 319.688,-69.422 321.439,-62.6447"/>
</g>
<!-- Node11 -->
<g id="node11" class="node"><title>Node11</title>
<g id="a_node11"><a xlink:href="../../d4/d91/group__ENCAP.html#ga93b23ccc67639937716a8f436a96c2b5" target="_top" xlink:title="NotifyConnectedCommonPacket\lFormat">
<polygon fill="none" stroke="black" points="372.5,-39 372.5,-69 533.5,-69 533.5,-39 372.5,-39"/>
<text text-anchor="start" x="380.5" y="-57" font-family="Helvetica,sans-Serif" font-size="10.00">NotifyConnectedCommonPacket</text>
<text text-anchor="middle" x="453" y="-46" font-family="Helvetica,sans-Serif" font-size="10.00">Format</text>
</a>
</g>
</g>
<!-- Node2&#45;&gt;Node11 -->
<g id="edge10" class="edge"><title>Node2&#45;&gt;Node11</title>
<path fill="none" stroke="midnightblue" d="M346.487,-54C354.978,-54 363.676,-54 372.258,-54"/>
<polygon fill="midnightblue" stroke="midnightblue" points="346.256,-50.5001 336.256,-54 346.256,-57.5001 346.256,-50.5001"/>
</g>
<!-- Node13 -->
<g id="node13" class="node"><title>Node13</title>
<g id="a_node13"><a xlink:href="../../d4/d91/group__ENCAP.html#ga137d29fba9dd744ed2e9323bf75e0bba" target="_top" xlink:title="AssembleIOMessage">
<polygon fill="none" stroke="black" points="398,-0.5 398,-19.5 508,-19.5 508,-0.5 398,-0.5"/>
<text text-anchor="middle" x="453" y="-7.5" font-family="Helvetica,sans-Serif" font-size="10.00">AssembleIOMessage</text>
</a>
</g>
</g>
<!-- Node2&#45;&gt;Node13 -->
<g id="edge13" class="edge"><title>Node2&#45;&gt;Node13</title>
<path fill="none" stroke="midnightblue" d="M320.547,-41.9577C336.81,-37.7947 355.198,-33.1379 372,-29 384.752,-25.8594 398.671,-22.5222 411.27,-19.5354"/>
<polygon fill="midnightblue" stroke="midnightblue" points="319.544,-38.6014 310.728,-44.4769 321.284,-45.3818 319.544,-38.6014"/>
</g>
<!-- Node4 -->
<g id="node4" class="node"><title>Node4</title>
<g id="a_node4"><a xlink:href="../../d7/df9/encap_8h.html#a51dd68441ec427052986aef5c5c076e4" target="_top" xlink:title="Call UCMM or Message Router if UCMM not implemented. ">
<polygon fill="none" stroke="black" points="571,-88 571,-118 719,-118 719,-88 571,-88"/>
<text text-anchor="start" x="579" y="-106" font-family="Helvetica,sans-Serif" font-size="10.00">HandleReceivedSendRequest</text>
<text text-anchor="middle" x="645" y="-95" font-family="Helvetica,sans-Serif" font-size="10.00">ResponseDataCommand</text>
</a>
</g>
</g>
<!-- Node3&#45;&gt;Node4 -->
<g id="edge3" class="edge"><title>Node3&#45;&gt;Node4</title>
<path fill="none" stroke="midnightblue" d="M535.304,-101.284C547.114,-101.47 559.212,-101.661 570.848,-101.845"/>
<polygon fill="midnightblue" stroke="midnightblue" points="535.073,-97.7798 525.019,-101.121 534.963,-104.779 535.073,-97.7798"/>
</g>
<!-- Node5 -->
<g id="node5" class="node"><title>Node5</title>
<g id="a_node5"><a xlink:href="../../d2/dc9/group__CIP__API.html#ga16eaeeb12ba23b5a75c8e5902a33d70a" target="_top" xlink:title="Notify the encapsulation layer that an explicit message has been received via TCP. ">
<polygon fill="none" stroke="black" points="756,-60.5 756,-79.5 912,-79.5 912,-60.5 756,-60.5"/>
<text text-anchor="middle" x="834" y="-67.5" font-family="Helvetica,sans-Serif" font-size="10.00">HandleReceivedExplictTcpData</text>
</a>
</g>
</g>
<!-- Node4&#45;&gt;Node5 -->
<g id="edge4" class="edge"><title>Node4&#45;&gt;Node5</title>
<path fill="none" stroke="midnightblue" d="M729.022,-88.349C745.991,-85.3545 763.426,-82.2778 779.054,-79.52"/>
<polygon fill="midnightblue" stroke="midnightblue" points="728.342,-84.9149 719.103,-90.0996 729.559,-91.8084 728.342,-84.9149"/>
</g>
<!-- Node6 -->
<g id="node6" class="node"><title>Node6</title>
<g id="a_node6"><a xlink:href="../../db/d4f/generic__networkhandler_8c.html#aca5593b7dd39d7a7b437999a367102d6" target="_top" xlink:title="Handles data on an established TCP connection, processed connection is given by socket. ">
<polygon fill="none" stroke="black" points="948,-60.5 948,-79.5 1076,-79.5 1076,-60.5 948,-60.5"/>
<text text-anchor="middle" x="1012" y="-67.5" font-family="Helvetica,sans-Serif" font-size="10.00">HandleDataOnTcpSocket</text>
</a>
</g>
</g>
<!-- Node5&#45;&gt;Node6 -->
<g id="edge5" class="edge"><title>Node5&#45;&gt;Node6</title>
<path fill="none" stroke="midnightblue" d="M922.293,-70C930.914,-70 939.545,-70 947.853,-70"/>
<polygon fill="midnightblue" stroke="midnightblue" points="922.196,-66.5001 912.196,-70 922.196,-73.5001 922.196,-66.5001"/>
</g>
<!-- Node7 -->
<g id="node7" class="node"><title>Node7</title>
<g id="a_node7"><a xlink:href="../../da/dc2/generic__networkhandler_8h.html#a2f01af81d3e5018d9980e2bc28c9078a" target="_top" xlink:title="NetworkHandlerProcessOnce">
<polygon fill="none" stroke="black" points="1112,-60.5 1112,-79.5 1258,-79.5 1258,-60.5 1112,-60.5"/>
<text text-anchor="middle" x="1185" y="-67.5" font-family="Helvetica,sans-Serif" font-size="10.00">NetworkHandlerProcessOnce</text>
</a>
</g>
</g>
<!-- Node6&#45;&gt;Node7 -->
<g id="edge6" class="edge"><title>Node6&#45;&gt;Node7</title>
<path fill="none" stroke="midnightblue" d="M1086.38,-70C1094.82,-70 1103.42,-70 1111.84,-70"/>
<polygon fill="midnightblue" stroke="midnightblue" points="1086.19,-66.5001 1076.19,-70 1086.19,-73.5001 1086.19,-66.5001"/>
</g>
<!-- Node8 -->
<g id="node8" class="node"><title>Node8</title>
<g id="a_node8"><a xlink:href="../../d5/dcb/MINGW_2main_8c.html#ad338a7dbc41dc40bcecd0479377ef207" target="_top" xlink:title="main">
<polygon fill="none" stroke="black" points="1428,-19.5 1428,-38.5 1466,-38.5 1466,-19.5 1428,-19.5"/>
<text text-anchor="middle" x="1447" y="-26.5" font-family="Helvetica,sans-Serif" font-size="10.00">main</text>
</a>
</g>
</g>
<!-- Node7&#45;&gt;Node8 -->
<g id="edge7" class="edge"><title>Node7&#45;&gt;Node8</title>
<path fill="none" stroke="midnightblue" d="M1256.54,-58.8762C1314.67,-49.7093 1393.02,-37.3542 1427.92,-31.8505"/>
<polygon fill="midnightblue" stroke="midnightblue" points="1255.64,-55.4757 1246.3,-60.4907 1256.73,-62.3902 1255.64,-55.4757"/>
</g>
<!-- Node9 -->
<g id="node9" class="node"><title>Node9</title>
<g id="a_node9"><a xlink:href="../../d9/dfb/POSIX_2main_8c.html#a14982bc20347a462f767f58c18142919" target="_top" xlink:title="Signal handler function for ending stack execution. ">
<polygon fill="none" stroke="black" points="1294,-76.5 1294,-95.5 1392,-95.5 1392,-76.5 1294,-76.5"/>
<text text-anchor="middle" x="1343" y="-83.5" font-family="Helvetica,sans-Serif" font-size="10.00">executeEventLoop</text>
</a>
</g>
</g>
<!-- Node7&#45;&gt;Node9 -->
<g id="edge8" class="edge"><title>Node7&#45;&gt;Node9</title>
<path fill="none" stroke="midnightblue" d="M1268.04,-78.414C1276.87,-79.3196 1285.63,-80.218 1293.86,-81.0628"/>
<polygon fill="midnightblue" stroke="midnightblue" points="1268.37,-74.9298 1258.06,-77.3911 1267.65,-81.8933 1268.37,-74.9298"/>
</g>
<!-- Node10 -->
<g id="node10" class="node"><title>Node10</title>
<g id="a_node10"><a xlink:href="../../d9/dfb/POSIX_2main_8c.html#ad338a7dbc41dc40bcecd0479377ef207" target="_top" xlink:title="main">
<polygon fill="none" stroke="black" points="1428,-76.5 1428,-95.5 1466,-95.5 1466,-76.5 1428,-76.5"/>
<text text-anchor="middle" x="1447" y="-83.5" font-family="Helvetica,sans-Serif" font-size="10.00">main</text>
</a>
</g>
</g>
<!-- Node9&#45;&gt;Node10 -->
<g id="edge9" class="edge"><title>Node9&#45;&gt;Node10</title>
<path fill="none" stroke="midnightblue" d="M1402.22,-86C1411.56,-86 1420.57,-86 1427.96,-86"/>
<polygon fill="midnightblue" stroke="midnightblue" points="1402.01,-82.5001 1392.01,-86 1402.01,-89.5001 1402.01,-82.5001"/>
</g>
<!-- Node12 -->
<g id="node12" class="node"><title>Node12</title>
<g id="a_node12"><a xlink:href="../../d2/dbd/encap_8c.html#a49dc585614f655a5b313150a01fd7221" target="_top" xlink:title="Call Connection Manager. ">
<polygon fill="none" stroke="black" points="570,-39 570,-69 720,-69 720,-39 570,-39"/>
<text text-anchor="start" x="578" y="-57" font-family="Helvetica,sans-Serif" font-size="10.00">HandleReceivedSendUnitData</text>
<text text-anchor="middle" x="645" y="-46" font-family="Helvetica,sans-Serif" font-size="10.00">Command</text>
</a>
</g>
</g>
<!-- Node11&#45;&gt;Node12 -->
<g id="edge11" class="edge"><title>Node11&#45;&gt;Node12</title>
<path fill="none" stroke="midnightblue" d="M543.924,-54C552.626,-54 561.386,-54 569.909,-54"/>
<polygon fill="midnightblue" stroke="midnightblue" points="543.751,-50.5001 533.751,-54 543.751,-57.5001 543.751,-50.5001"/>
</g>
<!-- Node12&#45;&gt;Node5 -->
<g id="edge12" class="edge"><title>Node12&#45;&gt;Node5</title>
<path fill="none" stroke="midnightblue" d="M730.154,-61.2003C738.709,-61.9323 747.37,-62.6734 755.846,-63.3986"/>
<polygon fill="midnightblue" stroke="midnightblue" points="730.438,-57.7119 720.176,-60.3466 729.841,-64.6865 730.438,-57.7119"/>
</g>
<!-- Node14 -->
<g id="node14" class="node"><title>Node14</title>
<g id="a_node14"><a xlink:href="../../df/d03/cipioconnection_8c.html#a20f1bc1c4cc4470cf371f94d51814de2" target="_top" xlink:title="Send the data from the produced CIP Object of the connection via the socket of the connection object ...">
<polygon fill="none" stroke="black" points="591.5,-0.5 591.5,-19.5 698.5,-19.5 698.5,-0.5 591.5,-0.5"/>
<text text-anchor="middle" x="645" y="-7.5" font-family="Helvetica,sans-Serif" font-size="10.00">SendConnectedData</text>
</a>
</g>
</g>
<!-- Node13&#45;&gt;Node14 -->
<g id="edge14" class="edge"><title>Node13&#45;&gt;Node14</title>
<path fill="none" stroke="midnightblue" d="M518.199,-10C542.01,-10 568.715,-10 591.375,-10"/>
<polygon fill="midnightblue" stroke="midnightblue" points="518.192,-6.5001 508.192,-10 518.192,-13.5001 518.192,-6.5001"/>
</g>
<!-- Node15 -->
<g id="node15" class="node"><title>Node15</title>
<g id="a_node15"><a xlink:href="../../df/d03/cipioconnection_8c.html#ab3282f146a3ea91c90cf14c32206ee8c" target="_top" xlink:title="SetIoConnectionCallbacks">
<polygon fill="none" stroke="black" points="767.5,-0.5 767.5,-19.5 900.5,-19.5 900.5,-0.5 767.5,-0.5"/>
<text text-anchor="middle" x="834" y="-7.5" font-family="Helvetica,sans-Serif" font-size="10.00">SetIoConnectionCallbacks</text>
</a>
</g>
</g>
<!-- Node14&#45;&gt;Node15 -->
<g id="edge15" class="edge"><title>Node14&#45;&gt;Node15</title>
<path fill="none" stroke="midnightblue" d="M708.59,-10C727.523,-10 748.361,-10 767.48,-10"/>
<polygon fill="midnightblue" stroke="midnightblue" points="708.588,-6.5001 698.588,-10 708.588,-13.5001 708.588,-6.5001"/>
</g>
<!-- Node16 -->
<g id="node16" class="node"><title>Node16</title>
<g id="a_node16"><a xlink:href="../../de/d45/cipioconnection_8h.html#a43e270b3f9b9f6296b12285c320c95aa" target="_top" xlink:title="Setup all data in order to establish an IO connection. ">
<polygon fill="none" stroke="black" points="954.5,-0.5 954.5,-19.5 1069.5,-19.5 1069.5,-0.5 954.5,-0.5"/>
<text text-anchor="middle" x="1012" y="-7.5" font-family="Helvetica,sans-Serif" font-size="10.00">EstablishIoConnection</text>
</a>
</g>
</g>
<!-- Node15&#45;&gt;Node16 -->
<g id="edge16" class="edge"><title>Node15&#45;&gt;Node16</title>
<path fill="none" stroke="midnightblue" d="M910.603,-10C925.282,-10 940.43,-10 954.37,-10"/>
<polygon fill="midnightblue" stroke="midnightblue" points="910.536,-6.5001 900.536,-10 910.536,-13.5001 910.536,-6.5001"/>
</g>
<!-- Node17 -->
<g id="node17" class="node"><title>Node17</title>
<g id="a_node17"><a xlink:href="../../d2/da3/cipconnectionmanager_8h.html#a5ab0de6894d23e8fe84a6b46797c2212" target="_top" xlink:title="Initialize the data of the connection manager object. ">
<polygon fill="none" stroke="black" points="1126.5,-0.5 1126.5,-19.5 1243.5,-19.5 1243.5,-0.5 1126.5,-0.5"/>
<text text-anchor="middle" x="1185" y="-7.5" font-family="Helvetica,sans-Serif" font-size="10.00">ConnectionManagerInit</text>
</a>
</g>
</g>
<!-- Node16&#45;&gt;Node17 -->
<g id="edge17" class="edge"><title>Node16&#45;&gt;Node17</title>
<path fill="none" stroke="midnightblue" d="M1080.34,-10C1095.58,-10 1111.64,-10 1126.43,-10"/>
<polygon fill="midnightblue" stroke="midnightblue" points="1079.94,-6.5001 1069.94,-10 1079.94,-13.5001 1079.94,-6.5001"/>
</g>
<!-- Node18 -->
<g id="node18" class="node"><title>Node18</title>
<g id="a_node18"><a xlink:href="../../d2/dc9/group__CIP__API.html#ga5d4979945d124e28668b264c3823db1c" target="_top" xlink:title="Initialize and setup the CIP&#45;stack. ">
<polygon fill="none" stroke="black" points="1307.5,-0.5 1307.5,-19.5 1378.5,-19.5 1378.5,-0.5 1307.5,-0.5"/>
<text text-anchor="middle" x="1343" y="-7.5" font-family="Helvetica,sans-Serif" font-size="10.00">CipStackInit</text>
</a>
</g>
</g>
<!-- Node17&#45;&gt;Node18 -->
<g id="edge18" class="edge"><title>Node17&#45;&gt;Node18</title>
<path fill="none" stroke="midnightblue" d="M1253.79,-10C1272.23,-10 1291.46,-10 1307.23,-10"/>
<polygon fill="midnightblue" stroke="midnightblue" points="1253.65,-6.5001 1243.65,-10 1253.65,-13.5001 1253.65,-6.5001"/>
</g>
<!-- Node18&#45;&gt;Node8 -->
<g id="edge19" class="edge"><title>Node18&#45;&gt;Node8</title>
<path fill="none" stroke="midnightblue" d="M1388.45,-18.2806C1402.32,-20.8636 1416.84,-23.5689 1427.83,-25.6155"/>
<polygon fill="midnightblue" stroke="midnightblue" points="1389,-14.823 1378.53,-16.4325 1387.72,-21.7047 1389,-14.823"/>
</g>
</g>
</svg>
