<?xml version="1.0" encoding="UTF-8" standalone="no"?>
<!DOCTYPE svg PUBLIC "-//W3C//DTD SVG 1.1//EN"
 "http://www.w3.org/Graphics/SVG/1.1/DTD/svg11.dtd">
<!-- Generated by graphviz version 2.38.0 (20140413.2041)
 -->
<!-- Title: EncodeConnectedAddressItem Pages: 1 -->
<svg width="299pt" height="66pt"
 viewBox="0.00 0.00 299.00 66.00" xmlns="http://www.w3.org/2000/svg" xmlns:xlink="http://www.w3.org/1999/xlink">
<g id="graph0" class="graph" transform="scale(1 1) rotate(0) translate(4 62)">
<title>EncodeConnectedAddressItem</title>
<!-- Node1 -->
<g id="node1" class="node"><title>Node1</title>
<polygon fill="#bfbfbf" stroke="black" points="0,-19.5 0,-38.5 152,-38.5 152,-19.5 0,-19.5"/>
<text text-anchor="middle" x="76" y="-26.5" font-family="Helvetica,sans-Serif" font-size="10.00">EncodeConnectedAddressItem</text>
</g>
<!-- Node2 -->
<g id="node2" class="node"><title>Node2</title>
<g id="a_node2"><a xlink:href="../../d4/d91/group__ENCAP.html#gaafc3c9e3ff582c9b7e438ae2b1fdf822" target="_top" xlink:title="Converts UINT32 data from host to little endian and writes it to buffer. ">
<polygon fill="none" stroke="black" points="188,-38.5 188,-57.5 291,-57.5 291,-38.5 188,-38.5"/>
<text text-anchor="middle" x="239.5" y="-45.5" font-family="Helvetica,sans-Serif" font-size="10.00">AddDintToMessage</text>
</a>
</g>
</g>
<!-- Node1&#45;&gt;Node2 -->
<g id="edge1" class="edge"><title>Node1&#45;&gt;Node2</title>
<path fill="none" stroke="midnightblue" d="M152.076,-37.8325C160.626,-38.8384 169.262,-39.8543 177.596,-40.8348"/>
<polygon fill="midnightblue" stroke="midnightblue" points="177.247,-44.3178 187.587,-42.0103 178.065,-37.3658 177.247,-44.3178"/>
</g>
<!-- Node3 -->
<g id="node3" class="node"><title>Node3</title>
<g id="a_node3"><a xlink:href="../../d4/d91/group__ENCAP.html#gae689aac2a85bf49fb356ec94c8800799" target="_top" xlink:title="converts UINT16 data from host to little endian an writes it to buffer. ">
<polygon fill="none" stroke="black" points="191.5,-0.5 191.5,-19.5 287.5,-19.5 287.5,-0.5 191.5,-0.5"/>
<text text-anchor="middle" x="239.5" y="-7.5" font-family="Helvetica,sans-Serif" font-size="10.00">AddIntToMessage</text>
</a>
</g>
</g>
<!-- Node1&#45;&gt;Node3 -->
<g id="edge2" class="edge"><title>Node1&#45;&gt;Node3</title>
<path fill="none" stroke="midnightblue" d="M152.076,-20.1675C161.876,-19.0146 171.788,-17.8485 181.23,-16.7376"/>
<polygon fill="midnightblue" stroke="midnightblue" points="181.743,-20.2016 191.265,-15.5571 180.925,-13.2495 181.743,-20.2016"/>
</g>
</g>
</svg>
