<?xml version="1.0" encoding="UTF-8" standalone="no"?>
<!DOCTYPE svg PUBLIC "-//W3C//DTD SVG 1.1//EN"
 "http://www.w3.org/Graphics/SVG/1.1/DTD/svg11.dtd">
<!-- Generated by graphviz version 2.38.0 (20140413.2041)
 -->
<!-- Title: EncodeUnconnectedDataItemLength Pages: 1 -->
<svg width="1647pt" height="127pt"
 viewBox="0.00 0.00 1647.00 126.50" xmlns="http://www.w3.org/2000/svg" xmlns:xlink="http://www.w3.org/1999/xlink">
<g id="graph0" class="graph" transform="scale(1 1) rotate(0) translate(4 122.5)">
<title>EncodeUnconnectedDataItemLength</title>
<!-- Node1 -->
<g id="node1" class="node"><title>Node1</title>
<polygon fill="#bfbfbf" stroke="black" points="0,-39 0,-69 148,-69 148,-39 0,-39"/>
<text text-anchor="start" x="8" y="-57" font-family="Helvetica,sans-Serif" font-size="10.00">EncodeUnconnectedDataItem</text>
<text text-anchor="middle" x="74" y="-46" font-family="Helvetica,sans-Serif" font-size="10.00">Length</text>
</g>
<!-- Node2 -->
<g id="node2" class="node"><title>Node2</title>
<g id="a_node2"><a xlink:href="../../d4/d91/group__ENCAP.html#gaa28ed48b18b92a64faf70093eb74d891" target="_top" xlink:title="Copy data from message_router_response struct and common_packet_format_data_item into ENIPMessage str...">
<polygon fill="none" stroke="black" points="184,-44.5 184,-63.5 310,-63.5 310,-44.5 184,-44.5"/>
<text text-anchor="middle" x="247" y="-51.5" font-family="Helvetica,sans-Serif" font-size="10.00">AssembleLinearMessage</text>
</a>
</g>
</g>
<!-- Node1&#45;&gt;Node2 -->
<g id="edge1" class="edge"><title>Node1&#45;&gt;Node2</title>
<path fill="none" stroke="midnightblue" d="M158.183,-54C166.876,-54 175.6,-54 183.997,-54"/>
<polygon fill="midnightblue" stroke="midnightblue" points="158.015,-50.5001 148.015,-54 158.015,-57.5001 158.015,-50.5001"/>
</g>
<!-- Node3 -->
<g id="node3" class="node"><title>Node3</title>
<g id="a_node3"><a xlink:href="../../d4/d91/group__ENCAP.html#gaf4beeca6ee941986295958572352a567" target="_top" xlink:title="NotifyCommonPacketFormat">
<polygon fill="none" stroke="black" points="354.5,-90.5 354.5,-109.5 498.5,-109.5 498.5,-90.5 354.5,-90.5"/>
<text text-anchor="middle" x="426.5" y="-97.5" font-family="Helvetica,sans-Serif" font-size="10.00">NotifyCommonPacketFormat</text>
</a>
</g>
</g>
<!-- Node2&#45;&gt;Node3 -->
<g id="edge2" class="edge"><title>Node2&#45;&gt;Node3</title>
<path fill="none" stroke="midnightblue" d="M294.808,-66.1306C324.188,-73.7444 361.53,-83.4219 388.769,-90.481"/>
<polygon fill="midnightblue" stroke="midnightblue" points="295.336,-62.6519 284.778,-63.5312 293.58,-69.4281 295.336,-62.6519"/>
</g>
<!-- Node12 -->
<g id="node12" class="node"><title>Node12</title>
<g id="a_node12"><a xlink:href="../../d4/d91/group__ENCAP.html#ga93b23ccc67639937716a8f436a96c2b5" target="_top" xlink:title="NotifyConnectedCommonPacket\lFormat">
<polygon fill="none" stroke="black" points="346,-39 346,-69 507,-69 507,-39 346,-39"/>
<text text-anchor="start" x="354" y="-57" font-family="Helvetica,sans-Serif" font-size="10.00">NotifyConnectedCommonPacket</text>
<text text-anchor="middle" x="426.5" y="-46" font-family="Helvetica,sans-Serif" font-size="10.00">Format</text>
</a>
</g>
</g>
<!-- Node2&#45;&gt;Node12 -->
<g id="edge11" class="edge"><title>Node2&#45;&gt;Node12</title>
<path fill="none" stroke="midnightblue" d="M320.284,-54C328.75,-54 337.424,-54 345.982,-54"/>
<polygon fill="midnightblue" stroke="midnightblue" points="320.081,-50.5001 310.081,-54 320.081,-57.5001 320.081,-50.5001"/>
</g>
<!-- Node14 -->
<g id="node14" class="node"><title>Node14</title>
<g id="a_node14"><a xlink:href="../../d4/d91/group__ENCAP.html#ga137d29fba9dd744ed2e9323bf75e0bba" target="_top" xlink:title="AssembleIOMessage">
<polygon fill="none" stroke="black" points="371.5,-0.5 371.5,-19.5 481.5,-19.5 481.5,-0.5 371.5,-0.5"/>
<text text-anchor="middle" x="426.5" y="-7.5" font-family="Helvetica,sans-Serif" font-size="10.00">AssembleIOMessage</text>
</a>
</g>
</g>
<!-- Node2&#45;&gt;Node14 -->
<g id="edge14" class="edge"><title>Node2&#45;&gt;Node14</title>
<path fill="none" stroke="midnightblue" d="M294.55,-41.9712C310.814,-37.8093 329.201,-33.1498 346,-29 358.675,-25.869 372.507,-22.5345 385.028,-19.5472"/>
<polygon fill="midnightblue" stroke="midnightblue" points="293.548,-38.6148 284.731,-44.4892 295.287,-45.3954 293.548,-38.6148"/>
</g>
<!-- Node4 -->
<g id="node4" class="node"><title>Node4</title>
<g id="a_node4"><a xlink:href="../../d7/df9/encap_8h.html#a51dd68441ec427052986aef5c5c076e4" target="_top" xlink:title="Call UCMM or Message Router if UCMM not implemented. ">
<polygon fill="none" stroke="black" points="544,-88 544,-118 692,-118 692,-88 544,-88"/>
<text text-anchor="start" x="552" y="-106" font-family="Helvetica,sans-Serif" font-size="10.00">HandleReceivedSendRequest</text>
<text text-anchor="middle" x="618" y="-95" font-family="Helvetica,sans-Serif" font-size="10.00">ResponseDataCommand</text>
</a>
</g>
</g>
<!-- Node3&#45;&gt;Node4 -->
<g id="edge3" class="edge"><title>Node3&#45;&gt;Node4</title>
<path fill="none" stroke="midnightblue" d="M508.775,-101.287C520.454,-101.472 532.412,-101.661 543.92,-101.843"/>
<polygon fill="midnightblue" stroke="midnightblue" points="508.656,-97.7845 498.602,-101.126 508.545,-104.784 508.656,-97.7845"/>
</g>
<!-- Node5 -->
<g id="node5" class="node"><title>Node5</title>
<g id="a_node5"><a xlink:href="../../d2/dc9/group__CIP__API.html#ga16eaeeb12ba23b5a75c8e5902a33d70a" target="_top" xlink:title="Notify the encapsulation layer that an explicit message has been received via TCP. ">
<polygon fill="none" stroke="black" points="729,-60.5 729,-79.5 885,-79.5 885,-60.5 729,-60.5"/>
<text text-anchor="middle" x="807" y="-67.5" font-family="Helvetica,sans-Serif" font-size="10.00">HandleReceivedExplictTcpData</text>
</a>
</g>
</g>
<!-- Node4&#45;&gt;Node5 -->
<g id="edge4" class="edge"><title>Node4&#45;&gt;Node5</title>
<path fill="none" stroke="midnightblue" d="M702.022,-88.349C718.991,-85.3545 736.426,-82.2778 752.054,-79.52"/>
<polygon fill="midnightblue" stroke="midnightblue" points="701.342,-84.9149 692.103,-90.0996 702.559,-91.8084 701.342,-84.9149"/>
</g>
<!-- Node6 -->
<g id="node6" class="node"><title>Node6</title>
<g id="a_node6"><a xlink:href="../../db/d4f/generic__networkhandler_8c.html#aca5593b7dd39d7a7b437999a367102d6" target="_top" xlink:title="Handles data on an established TCP connection, processed connection is given by socket. ">
<polygon fill="none" stroke="black" points="921,-60.5 921,-79.5 1049,-79.5 1049,-60.5 921,-60.5"/>
<text text-anchor="middle" x="985" y="-67.5" font-family="Helvetica,sans-Serif" font-size="10.00">HandleDataOnTcpSocket</text>
</a>
</g>
</g>
<!-- Node5&#45;&gt;Node6 -->
<g id="edge5" class="edge"><title>Node5&#45;&gt;Node6</title>
<path fill="none" stroke="midnightblue" d="M895.293,-70C903.914,-70 912.545,-70 920.853,-70"/>
<polygon fill="midnightblue" stroke="midnightblue" points="895.196,-66.5001 885.196,-70 895.196,-73.5001 895.196,-66.5001"/>
</g>
<!-- Node7 -->
<g id="node7" class="node"><title>Node7</title>
<g id="a_node7"><a xlink:href="../../da/dc2/generic__networkhandler_8h.html#a2f01af81d3e5018d9980e2bc28c9078a" target="_top" xlink:title="NetworkHandlerProcessOnce">
<polygon fill="none" stroke="black" points="1085,-60.5 1085,-79.5 1231,-79.5 1231,-60.5 1085,-60.5"/>
<text text-anchor="middle" x="1158" y="-67.5" font-family="Helvetica,sans-Serif" font-size="10.00">NetworkHandlerProcessOnce</text>
</a>
</g>
</g>
<!-- Node6&#45;&gt;Node7 -->
<g id="edge6" class="edge"><title>Node6&#45;&gt;Node7</title>
<path fill="none" stroke="midnightblue" d="M1059.38,-70C1067.82,-70 1076.42,-70 1084.84,-70"/>
<polygon fill="midnightblue" stroke="midnightblue" points="1059.19,-66.5001 1049.19,-70 1059.19,-73.5001 1059.19,-66.5001"/>
</g>
<!-- Node8 -->
<g id="node8" class="node"><title>Node8</title>
<g id="a_node8"><a xlink:href="../../d5/dcb/MINGW_2main_8c.html#ad338a7dbc41dc40bcecd0479377ef207" target="_top" xlink:title="main">
<polygon fill="none" stroke="black" points="1374,-38.5 1374,-57.5 1412,-57.5 1412,-38.5 1374,-38.5"/>
<text text-anchor="middle" x="1393" y="-45.5" font-family="Helvetica,sans-Serif" font-size="10.00">main</text>
</a>
</g>
</g>
<!-- Node7&#45;&gt;Node8 -->
<g id="edge7" class="edge"><title>Node7&#45;&gt;Node8</title>
<path fill="none" stroke="midnightblue" d="M1241.54,-74.1277C1272.06,-74.2116 1306.8,-72.5974 1338,-67 1350.33,-64.7884 1363.6,-60.1512 1373.9,-56.0117"/>
<polygon fill="midnightblue" stroke="midnightblue" points="1241.4,-70.6264 1231.37,-74.0375 1241.34,-77.6261 1241.4,-70.6264"/>
</g>
<!-- Node11 -->
<g id="node11" class="node"><title>Node11</title>
<g id="a_node11"><a xlink:href="../../d9/dfb/POSIX_2main_8c.html#acd4e45a35a64f9cb29b59f63492b61d2" target="_top" xlink:title="Signal handler function for ending stack execution. ">
<polygon fill="none" stroke="black" points="1268.5,-38.5 1268.5,-57.5 1336.5,-57.5 1336.5,-38.5 1268.5,-38.5"/>
<text text-anchor="middle" x="1302.5" y="-45.5" font-family="Helvetica,sans-Serif" font-size="10.00">LeaveStack</text>
</a>
</g>
</g>
<!-- Node7&#45;&gt;Node11 -->
<g id="edge10" class="edge"><title>Node7&#45;&gt;Node11</title>
<path fill="none" stroke="midnightblue" d="M1230.72,-58.9272C1243.89,-56.8934 1257.05,-54.863 1268.38,-53.114"/>
<polygon fill="midnightblue" stroke="midnightblue" points="1230.02,-55.4935 1220.67,-60.4784 1231.09,-62.4116 1230.02,-55.4935"/>
</g>
<!-- Node9 -->
<g id="node9" class="node"><title>Node9</title>
<g id="a_node9"><a xlink:href="../../d8/d03/ports_2MINGW_2CMakeLists_8txt.html#a7e00df43a20d627a1732be7766d91097" target="_top" xlink:title="add_library">
<polygon fill="none" stroke="black" points="1448,-38.5 1448,-57.5 1512,-57.5 1512,-38.5 1448,-38.5"/>
<text text-anchor="middle" x="1480" y="-45.5" font-family="Helvetica,sans-Serif" font-size="10.00">add_library</text>
</a>
</g>
</g>
<!-- Node8&#45;&gt;Node9 -->
<g id="edge8" class="edge"><title>Node8&#45;&gt;Node9</title>
<path fill="none" stroke="midnightblue" d="M1422.27,-48C1430.5,-48 1439.55,-48 1447.94,-48"/>
<polygon fill="midnightblue" stroke="midnightblue" points="1422.03,-44.5001 1412.03,-48 1422.03,-51.5001 1422.03,-44.5001"/>
</g>
<!-- Node10 -->
<g id="node10" class="node"><title>Node10</title>
<g id="a_node10"><a xlink:href="../../d8/dce/ports_2CMakeLists_8txt.html#a598fae457555a5fb26e18d4cd8f89de9" target="_top" xlink:title="add_subdirectory">
<polygon fill="none" stroke="black" points="1548,-38.5 1548,-57.5 1639,-57.5 1639,-38.5 1548,-38.5"/>
<text text-anchor="middle" x="1593.5" y="-45.5" font-family="Helvetica,sans-Serif" font-size="10.00">add_subdirectory</text>
</a>
</g>
</g>
<!-- Node9&#45;&gt;Node10 -->
<g id="edge9" class="edge"><title>Node9&#45;&gt;Node10</title>
<path fill="none" stroke="midnightblue" d="M1522.3,-48C1530.63,-48 1539.42,-48 1547.86,-48"/>
<polygon fill="midnightblue" stroke="midnightblue" points="1522.06,-44.5001 1512.06,-48 1522.06,-51.5001 1522.06,-44.5001"/>
</g>
<!-- Node13 -->
<g id="node13" class="node"><title>Node13</title>
<g id="a_node13"><a xlink:href="../../d2/dbd/encap_8c.html#a49dc585614f655a5b313150a01fd7221" target="_top" xlink:title="Call Connection Manager. ">
<polygon fill="none" stroke="black" points="543,-39 543,-69 693,-69 693,-39 543,-39"/>
<text text-anchor="start" x="551" y="-57" font-family="Helvetica,sans-Serif" font-size="10.00">HandleReceivedSendUnitData</text>
<text text-anchor="middle" x="618" y="-46" font-family="Helvetica,sans-Serif" font-size="10.00">Command</text>
</a>
</g>
</g>
<!-- Node12&#45;&gt;Node13 -->
<g id="edge12" class="edge"><title>Node12&#45;&gt;Node13</title>
<path fill="none" stroke="midnightblue" d="M517.101,-54C525.706,-54 534.369,-54 542.803,-54"/>
<polygon fill="midnightblue" stroke="midnightblue" points="517.041,-50.5001 507.041,-54 517.041,-57.5001 517.041,-50.5001"/>
</g>
<!-- Node13&#45;&gt;Node5 -->
<g id="edge13" class="edge"><title>Node13&#45;&gt;Node5</title>
<path fill="none" stroke="midnightblue" d="M703.154,-61.2003C711.709,-61.9323 720.37,-62.6734 728.846,-63.3986"/>
<polygon fill="midnightblue" stroke="midnightblue" points="703.438,-57.7119 693.176,-60.3466 702.841,-64.6865 703.438,-57.7119"/>
</g>
<!-- Node15 -->
<g id="node15" class="node"><title>Node15</title>
<g id="a_node15"><a xlink:href="../../df/d03/cipioconnection_8c.html#a20f1bc1c4cc4470cf371f94d51814de2" target="_top" xlink:title="Send the data from the produced CIP Object of the connection via the socket of the connection object ...">
<polygon fill="none" stroke="black" points="564.5,-0.5 564.5,-19.5 671.5,-19.5 671.5,-0.5 564.5,-0.5"/>
<text text-anchor="middle" x="618" y="-7.5" font-family="Helvetica,sans-Serif" font-size="10.00">SendConnectedData</text>
</a>
</g>
</g>
<!-- Node14&#45;&gt;Node15 -->
<g id="edge15" class="edge"><title>Node14&#45;&gt;Node15</title>
<path fill="none" stroke="midnightblue" d="M491.804,-10C515.369,-10 541.745,-10 564.188,-10"/>
<polygon fill="midnightblue" stroke="midnightblue" points="491.55,-6.5001 481.549,-10 491.549,-13.5001 491.55,-6.5001"/>
</g>
<!-- Node16 -->
<g id="node16" class="node"><title>Node16</title>
<g id="a_node16"><a xlink:href="../../df/d03/cipioconnection_8c.html#ab3282f146a3ea91c90cf14c32206ee8c" target="_top" xlink:title="SetIoConnectionCallbacks">
<polygon fill="none" stroke="black" points="740.5,-0.5 740.5,-19.5 873.5,-19.5 873.5,-0.5 740.5,-0.5"/>
<text text-anchor="middle" x="807" y="-7.5" font-family="Helvetica,sans-Serif" font-size="10.00">SetIoConnectionCallbacks</text>
</a>
</g>
</g>
<!-- Node15&#45;&gt;Node16 -->
<g id="edge16" class="edge"><title>Node15&#45;&gt;Node16</title>
<path fill="none" stroke="midnightblue" d="M681.59,-10C700.523,-10 721.361,-10 740.48,-10"/>
<polygon fill="midnightblue" stroke="midnightblue" points="681.588,-6.5001 671.588,-10 681.588,-13.5001 681.588,-6.5001"/>
</g>
<!-- Node17 -->
<g id="node17" class="node"><title>Node17</title>
<g id="a_node17"><a xlink:href="../../de/d45/cipioconnection_8h.html#a43e270b3f9b9f6296b12285c320c95aa" target="_top" xlink:title="Setup all data in order to establish an IO connection. ">
<polygon fill="none" stroke="black" points="927.5,-0.5 927.5,-19.5 1042.5,-19.5 1042.5,-0.5 927.5,-0.5"/>
<text text-anchor="middle" x="985" y="-7.5" font-family="Helvetica,sans-Serif" font-size="10.00">EstablishIoConnection</text>
</a>
</g>
</g>
<!-- Node16&#45;&gt;Node17 -->
<g id="edge17" class="edge"><title>Node16&#45;&gt;Node17</title>
<path fill="none" stroke="midnightblue" d="M883.603,-10C898.282,-10 913.43,-10 927.37,-10"/>
<polygon fill="midnightblue" stroke="midnightblue" points="883.536,-6.5001 873.536,-10 883.536,-13.5001 883.536,-6.5001"/>
</g>
<!-- Node18 -->
<g id="node18" class="node"><title>Node18</title>
<g id="a_node18"><a xlink:href="../../d2/da3/cipconnectionmanager_8h.html#a5ab0de6894d23e8fe84a6b46797c2212" target="_top" xlink:title="Initialize the data of the connection manager object. ">
<polygon fill="none" stroke="black" points="1099.5,-0.5 1099.5,-19.5 1216.5,-19.5 1216.5,-0.5 1099.5,-0.5"/>
<text text-anchor="middle" x="1158" y="-7.5" font-family="Helvetica,sans-Serif" font-size="10.00">ConnectionManagerInit</text>
</a>
</g>
</g>
<!-- Node17&#45;&gt;Node18 -->
<g id="edge18" class="edge"><title>Node17&#45;&gt;Node18</title>
<path fill="none" stroke="midnightblue" d="M1053.34,-10C1068.58,-10 1084.64,-10 1099.43,-10"/>
<polygon fill="midnightblue" stroke="midnightblue" points="1052.94,-6.5001 1042.94,-10 1052.94,-13.5001 1052.94,-6.5001"/>
</g>
<!-- Node19 -->
<g id="node19" class="node"><title>Node19</title>
<g id="a_node19"><a xlink:href="../../d2/dc9/group__CIP__API.html#ga5d4979945d124e28668b264c3823db1c" target="_top" xlink:title="Initialize and setup the CIP&#45;stack. ">
<polygon fill="none" stroke="black" points="1267,-0.5 1267,-19.5 1338,-19.5 1338,-0.5 1267,-0.5"/>
<text text-anchor="middle" x="1302.5" y="-7.5" font-family="Helvetica,sans-Serif" font-size="10.00">CipStackInit</text>
</a>
</g>
</g>
<!-- Node18&#45;&gt;Node19 -->
<g id="edge19" class="edge"><title>Node18&#45;&gt;Node19</title>
<path fill="none" stroke="midnightblue" d="M1226.6,-10C1240.49,-10 1254.56,-10 1266.71,-10"/>
<polygon fill="midnightblue" stroke="midnightblue" points="1226.55,-6.5001 1216.55,-10 1226.55,-13.5001 1226.55,-6.5001"/>
</g>
<!-- Node19&#45;&gt;Node8 -->
<g id="edge20" class="edge"><title>Node19&#45;&gt;Node8</title>
<path fill="none" stroke="midnightblue" d="M1335.34,-23.6735C1348.28,-29.2292 1362.76,-35.4459 1373.84,-40.2041"/>
<polygon fill="midnightblue" stroke="midnightblue" points="1336.4,-20.3185 1325.83,-19.589 1333.64,-26.7506 1336.4,-20.3185"/>
</g>
</g>
</svg>
