<?xml version="1.0" encoding="UTF-8" standalone="no"?>
<!DOCTYPE svg PUBLIC "-//W3C//DTD SVG 1.1//EN"
 "http://www.w3.org/Graphics/SVG/1.1/DTD/svg11.dtd">
<!-- Generated by graphviz version 2.38.0 (20140413.2041)
 -->
<!-- Title: EncodeDataItemData Pages: 1 -->
<svg width="1610pt" height="127pt"
 viewBox="0.00 0.00 1610.00 126.50" xmlns="http://www.w3.org/2000/svg" xmlns:xlink="http://www.w3.org/1999/xlink">
<g id="graph0" class="graph" transform="scale(1 1) rotate(0) translate(4 122.5)">
<title>EncodeDataItemData</title>
<!-- Node1 -->
<g id="node1" class="node"><title>Node1</title>
<polygon fill="#bfbfbf" stroke="black" points="0,-44.5 0,-63.5 111,-63.5 111,-44.5 0,-44.5"/>
<text text-anchor="middle" x="55.5" y="-51.5" font-family="Helvetica,sans-Serif" font-size="10.00">EncodeDataItemData</text>
</g>
<!-- Node2 -->
<g id="node2" class="node"><title>Node2</title>
<g id="a_node2"><a xlink:href="../../d4/d91/group__ENCAP.html#gaa28ed48b18b92a64faf70093eb74d891" target="_top" xlink:title="Copy data from message_router_response struct and common_packet_format_data_item into ENIPMessage str...">
<polygon fill="none" stroke="black" points="147,-44.5 147,-63.5 273,-63.5 273,-44.5 147,-44.5"/>
<text text-anchor="middle" x="210" y="-51.5" font-family="Helvetica,sans-Serif" font-size="10.00">AssembleLinearMessage</text>
</a>
</g>
</g>
<!-- Node1&#45;&gt;Node2 -->
<g id="edge1" class="edge"><title>Node1&#45;&gt;Node2</title>
<path fill="none" stroke="midnightblue" d="M121.359,-54C129.851,-54 138.536,-54 146.979,-54"/>
<polygon fill="midnightblue" stroke="midnightblue" points="121.125,-50.5001 111.125,-54 121.125,-57.5001 121.125,-50.5001"/>
</g>
<!-- Node3 -->
<g id="node3" class="node"><title>Node3</title>
<g id="a_node3"><a xlink:href="../../d4/d91/group__ENCAP.html#gaf4beeca6ee941986295958572352a567" target="_top" xlink:title="NotifyCommonPacketFormat">
<polygon fill="none" stroke="black" points="317.5,-90.5 317.5,-109.5 461.5,-109.5 461.5,-90.5 317.5,-90.5"/>
<text text-anchor="middle" x="389.5" y="-97.5" font-family="Helvetica,sans-Serif" font-size="10.00">NotifyCommonPacketFormat</text>
</a>
</g>
</g>
<!-- Node2&#45;&gt;Node3 -->
<g id="edge2" class="edge"><title>Node2&#45;&gt;Node3</title>
<path fill="none" stroke="midnightblue" d="M257.808,-66.1306C287.188,-73.7444 324.53,-83.4219 351.769,-90.481"/>
<polygon fill="midnightblue" stroke="midnightblue" points="258.336,-62.6519 247.778,-63.5312 256.58,-69.4281 258.336,-62.6519"/>
</g>
<!-- Node12 -->
<g id="node12" class="node"><title>Node12</title>
<g id="a_node12"><a xlink:href="../../d4/d91/group__ENCAP.html#ga93b23ccc67639937716a8f436a96c2b5" target="_top" xlink:title="NotifyConnectedCommonPacket\lFormat">
<polygon fill="none" stroke="black" points="309,-39 309,-69 470,-69 470,-39 309,-39"/>
<text text-anchor="start" x="317" y="-57" font-family="Helvetica,sans-Serif" font-size="10.00">NotifyConnectedCommonPacket</text>
<text text-anchor="middle" x="389.5" y="-46" font-family="Helvetica,sans-Serif" font-size="10.00">Format</text>
</a>
</g>
</g>
<!-- Node2&#45;&gt;Node12 -->
<g id="edge11" class="edge"><title>Node2&#45;&gt;Node12</title>
<path fill="none" stroke="midnightblue" d="M283.284,-54C291.75,-54 300.424,-54 308.982,-54"/>
<polygon fill="midnightblue" stroke="midnightblue" points="283.081,-50.5001 273.081,-54 283.081,-57.5001 283.081,-50.5001"/>
</g>
<!-- Node14 -->
<g id="node14" class="node"><title>Node14</title>
<g id="a_node14"><a xlink:href="../../d4/d91/group__ENCAP.html#ga137d29fba9dd744ed2e9323bf75e0bba" target="_top" xlink:title="AssembleIOMessage">
<polygon fill="none" stroke="black" points="334.5,-0.5 334.5,-19.5 444.5,-19.5 444.5,-0.5 334.5,-0.5"/>
<text text-anchor="middle" x="389.5" y="-7.5" font-family="Helvetica,sans-Serif" font-size="10.00">AssembleIOMessage</text>
</a>
</g>
</g>
<!-- Node2&#45;&gt;Node14 -->
<g id="edge14" class="edge"><title>Node2&#45;&gt;Node14</title>
<path fill="none" stroke="midnightblue" d="M257.55,-41.9712C273.814,-37.8093 292.201,-33.1498 309,-29 321.675,-25.869 335.507,-22.5345 348.028,-19.5472"/>
<polygon fill="midnightblue" stroke="midnightblue" points="256.548,-38.6148 247.731,-44.4892 258.287,-45.3954 256.548,-38.6148"/>
</g>
<!-- Node4 -->
<g id="node4" class="node"><title>Node4</title>
<g id="a_node4"><a xlink:href="../../d7/df9/encap_8h.html#a51dd68441ec427052986aef5c5c076e4" target="_top" xlink:title="Call UCMM or Message Router if UCMM not implemented. ">
<polygon fill="none" stroke="black" points="507,-88 507,-118 655,-118 655,-88 507,-88"/>
<text text-anchor="start" x="515" y="-106" font-family="Helvetica,sans-Serif" font-size="10.00">HandleReceivedSendRequest</text>
<text text-anchor="middle" x="581" y="-95" font-family="Helvetica,sans-Serif" font-size="10.00">ResponseDataCommand</text>
</a>
</g>
</g>
<!-- Node3&#45;&gt;Node4 -->
<g id="edge3" class="edge"><title>Node3&#45;&gt;Node4</title>
<path fill="none" stroke="midnightblue" d="M471.775,-101.287C483.454,-101.472 495.412,-101.661 506.92,-101.843"/>
<polygon fill="midnightblue" stroke="midnightblue" points="471.656,-97.7845 461.602,-101.126 471.545,-104.784 471.656,-97.7845"/>
</g>
<!-- Node5 -->
<g id="node5" class="node"><title>Node5</title>
<g id="a_node5"><a xlink:href="../../d2/dc9/group__CIP__API.html#ga16eaeeb12ba23b5a75c8e5902a33d70a" target="_top" xlink:title="Notify the encapsulation layer that an explicit message has been received via TCP. ">
<polygon fill="none" stroke="black" points="692,-60.5 692,-79.5 848,-79.5 848,-60.5 692,-60.5"/>
<text text-anchor="middle" x="770" y="-67.5" font-family="Helvetica,sans-Serif" font-size="10.00">HandleReceivedExplictTcpData</text>
</a>
</g>
</g>
<!-- Node4&#45;&gt;Node5 -->
<g id="edge4" class="edge"><title>Node4&#45;&gt;Node5</title>
<path fill="none" stroke="midnightblue" d="M665.022,-88.349C681.991,-85.3545 699.426,-82.2778 715.054,-79.52"/>
<polygon fill="midnightblue" stroke="midnightblue" points="664.342,-84.9149 655.103,-90.0996 665.559,-91.8084 664.342,-84.9149"/>
</g>
<!-- Node6 -->
<g id="node6" class="node"><title>Node6</title>
<g id="a_node6"><a xlink:href="../../db/d4f/generic__networkhandler_8c.html#aca5593b7dd39d7a7b437999a367102d6" target="_top" xlink:title="Handles data on an established TCP connection, processed connection is given by socket. ">
<polygon fill="none" stroke="black" points="884,-60.5 884,-79.5 1012,-79.5 1012,-60.5 884,-60.5"/>
<text text-anchor="middle" x="948" y="-67.5" font-family="Helvetica,sans-Serif" font-size="10.00">HandleDataOnTcpSocket</text>
</a>
</g>
</g>
<!-- Node5&#45;&gt;Node6 -->
<g id="edge5" class="edge"><title>Node5&#45;&gt;Node6</title>
<path fill="none" stroke="midnightblue" d="M858.293,-70C866.914,-70 875.545,-70 883.853,-70"/>
<polygon fill="midnightblue" stroke="midnightblue" points="858.196,-66.5001 848.196,-70 858.196,-73.5001 858.196,-66.5001"/>
</g>
<!-- Node7 -->
<g id="node7" class="node"><title>Node7</title>
<g id="a_node7"><a xlink:href="../../da/dc2/generic__networkhandler_8h.html#a2f01af81d3e5018d9980e2bc28c9078a" target="_top" xlink:title="NetworkHandlerProcessOnce">
<polygon fill="none" stroke="black" points="1048,-60.5 1048,-79.5 1194,-79.5 1194,-60.5 1048,-60.5"/>
<text text-anchor="middle" x="1121" y="-67.5" font-family="Helvetica,sans-Serif" font-size="10.00">NetworkHandlerProcessOnce</text>
</a>
</g>
</g>
<!-- Node6&#45;&gt;Node7 -->
<g id="edge6" class="edge"><title>Node6&#45;&gt;Node7</title>
<path fill="none" stroke="midnightblue" d="M1022.38,-70C1030.82,-70 1039.42,-70 1047.84,-70"/>
<polygon fill="midnightblue" stroke="midnightblue" points="1022.19,-66.5001 1012.19,-70 1022.19,-73.5001 1022.19,-66.5001"/>
</g>
<!-- Node8 -->
<g id="node8" class="node"><title>Node8</title>
<g id="a_node8"><a xlink:href="../../d5/dcb/MINGW_2main_8c.html#ad338a7dbc41dc40bcecd0479377ef207" target="_top" xlink:title="main">
<polygon fill="none" stroke="black" points="1337,-38.5 1337,-57.5 1375,-57.5 1375,-38.5 1337,-38.5"/>
<text text-anchor="middle" x="1356" y="-45.5" font-family="Helvetica,sans-Serif" font-size="10.00">main</text>
</a>
</g>
</g>
<!-- Node7&#45;&gt;Node8 -->
<g id="edge7" class="edge"><title>Node7&#45;&gt;Node8</title>
<path fill="none" stroke="midnightblue" d="M1204.54,-74.1277C1235.06,-74.2116 1269.8,-72.5974 1301,-67 1313.33,-64.7884 1326.6,-60.1512 1336.9,-56.0117"/>
<polygon fill="midnightblue" stroke="midnightblue" points="1204.4,-70.6264 1194.37,-74.0375 1204.34,-77.6261 1204.4,-70.6264"/>
</g>
<!-- Node11 -->
<g id="node11" class="node"><title>Node11</title>
<g id="a_node11"><a xlink:href="../../d9/dfb/POSIX_2main_8c.html#acd4e45a35a64f9cb29b59f63492b61d2" target="_top" xlink:title="Signal handler function for ending stack execution. ">
<polygon fill="none" stroke="black" points="1231.5,-38.5 1231.5,-57.5 1299.5,-57.5 1299.5,-38.5 1231.5,-38.5"/>
<text text-anchor="middle" x="1265.5" y="-45.5" font-family="Helvetica,sans-Serif" font-size="10.00">LeaveStack</text>
</a>
</g>
</g>
<!-- Node7&#45;&gt;Node11 -->
<g id="edge10" class="edge"><title>Node7&#45;&gt;Node11</title>
<path fill="none" stroke="midnightblue" d="M1193.72,-58.9272C1206.89,-56.8934 1220.05,-54.863 1231.38,-53.114"/>
<polygon fill="midnightblue" stroke="midnightblue" points="1193.02,-55.4935 1183.67,-60.4784 1194.09,-62.4116 1193.02,-55.4935"/>
</g>
<!-- Node9 -->
<g id="node9" class="node"><title>Node9</title>
<g id="a_node9"><a xlink:href="../../d8/d03/ports_2MINGW_2CMakeLists_8txt.html#a7e00df43a20d627a1732be7766d91097" target="_top" xlink:title="add_library">
<polygon fill="none" stroke="black" points="1411,-38.5 1411,-57.5 1475,-57.5 1475,-38.5 1411,-38.5"/>
<text text-anchor="middle" x="1443" y="-45.5" font-family="Helvetica,sans-Serif" font-size="10.00">add_library</text>
</a>
</g>
</g>
<!-- Node8&#45;&gt;Node9 -->
<g id="edge8" class="edge"><title>Node8&#45;&gt;Node9</title>
<path fill="none" stroke="midnightblue" d="M1385.27,-48C1393.5,-48 1402.55,-48 1410.94,-48"/>
<polygon fill="midnightblue" stroke="midnightblue" points="1385.03,-44.5001 1375.03,-48 1385.03,-51.5001 1385.03,-44.5001"/>
</g>
<!-- Node10 -->
<g id="node10" class="node"><title>Node10</title>
<g id="a_node10"><a xlink:href="../../d8/dce/ports_2CMakeLists_8txt.html#a598fae457555a5fb26e18d4cd8f89de9" target="_top" xlink:title="add_subdirectory">
<polygon fill="none" stroke="black" points="1511,-38.5 1511,-57.5 1602,-57.5 1602,-38.5 1511,-38.5"/>
<text text-anchor="middle" x="1556.5" y="-45.5" font-family="Helvetica,sans-Serif" font-size="10.00">add_subdirectory</text>
</a>
</g>
</g>
<!-- Node9&#45;&gt;Node10 -->
<g id="edge9" class="edge"><title>Node9&#45;&gt;Node10</title>
<path fill="none" stroke="midnightblue" d="M1485.3,-48C1493.63,-48 1502.42,-48 1510.86,-48"/>
<polygon fill="midnightblue" stroke="midnightblue" points="1485.06,-44.5001 1475.06,-48 1485.06,-51.5001 1485.06,-44.5001"/>
</g>
<!-- Node13 -->
<g id="node13" class="node"><title>Node13</title>
<g id="a_node13"><a xlink:href="../../d2/dbd/encap_8c.html#a49dc585614f655a5b313150a01fd7221" target="_top" xlink:title="Call Connection Manager. ">
<polygon fill="none" stroke="black" points="506,-39 506,-69 656,-69 656,-39 506,-39"/>
<text text-anchor="start" x="514" y="-57" font-family="Helvetica,sans-Serif" font-size="10.00">HandleReceivedSendUnitData</text>
<text text-anchor="middle" x="581" y="-46" font-family="Helvetica,sans-Serif" font-size="10.00">Command</text>
</a>
</g>
</g>
<!-- Node12&#45;&gt;Node13 -->
<g id="edge12" class="edge"><title>Node12&#45;&gt;Node13</title>
<path fill="none" stroke="midnightblue" d="M480.101,-54C488.706,-54 497.369,-54 505.803,-54"/>
<polygon fill="midnightblue" stroke="midnightblue" points="480.041,-50.5001 470.041,-54 480.041,-57.5001 480.041,-50.5001"/>
</g>
<!-- Node13&#45;&gt;Node5 -->
<g id="edge13" class="edge"><title>Node13&#45;&gt;Node5</title>
<path fill="none" stroke="midnightblue" d="M666.154,-61.2003C674.709,-61.9323 683.37,-62.6734 691.846,-63.3986"/>
<polygon fill="midnightblue" stroke="midnightblue" points="666.438,-57.7119 656.176,-60.3466 665.841,-64.6865 666.438,-57.7119"/>
</g>
<!-- Node15 -->
<g id="node15" class="node"><title>Node15</title>
<g id="a_node15"><a xlink:href="../../df/d03/cipioconnection_8c.html#a20f1bc1c4cc4470cf371f94d51814de2" target="_top" xlink:title="Send the data from the produced CIP Object of the connection via the socket of the connection object ...">
<polygon fill="none" stroke="black" points="527.5,-0.5 527.5,-19.5 634.5,-19.5 634.5,-0.5 527.5,-0.5"/>
<text text-anchor="middle" x="581" y="-7.5" font-family="Helvetica,sans-Serif" font-size="10.00">SendConnectedData</text>
</a>
</g>
</g>
<!-- Node14&#45;&gt;Node15 -->
<g id="edge15" class="edge"><title>Node14&#45;&gt;Node15</title>
<path fill="none" stroke="midnightblue" d="M454.804,-10C478.369,-10 504.745,-10 527.188,-10"/>
<polygon fill="midnightblue" stroke="midnightblue" points="454.55,-6.5001 444.549,-10 454.549,-13.5001 454.55,-6.5001"/>
</g>
<!-- Node16 -->
<g id="node16" class="node"><title>Node16</title>
<g id="a_node16"><a xlink:href="../../df/d03/cipioconnection_8c.html#ab3282f146a3ea91c90cf14c32206ee8c" target="_top" xlink:title="SetIoConnectionCallbacks">
<polygon fill="none" stroke="black" points="703.5,-0.5 703.5,-19.5 836.5,-19.5 836.5,-0.5 703.5,-0.5"/>
<text text-anchor="middle" x="770" y="-7.5" font-family="Helvetica,sans-Serif" font-size="10.00">SetIoConnectionCallbacks</text>
</a>
</g>
</g>
<!-- Node15&#45;&gt;Node16 -->
<g id="edge16" class="edge"><title>Node15&#45;&gt;Node16</title>
<path fill="none" stroke="midnightblue" d="M644.59,-10C663.523,-10 684.361,-10 703.48,-10"/>
<polygon fill="midnightblue" stroke="midnightblue" points="644.588,-6.5001 634.588,-10 644.588,-13.5001 644.588,-6.5001"/>
</g>
<!-- Node17 -->
<g id="node17" class="node"><title>Node17</title>
<g id="a_node17"><a xlink:href="../../de/d45/cipioconnection_8h.html#a43e270b3f9b9f6296b12285c320c95aa" target="_top" xlink:title="Setup all data in order to establish an IO connection. ">
<polygon fill="none" stroke="black" points="890.5,-0.5 890.5,-19.5 1005.5,-19.5 1005.5,-0.5 890.5,-0.5"/>
<text text-anchor="middle" x="948" y="-7.5" font-family="Helvetica,sans-Serif" font-size="10.00">EstablishIoConnection</text>
</a>
</g>
</g>
<!-- Node16&#45;&gt;Node17 -->
<g id="edge17" class="edge"><title>Node16&#45;&gt;Node17</title>
<path fill="none" stroke="midnightblue" d="M846.603,-10C861.282,-10 876.43,-10 890.37,-10"/>
<polygon fill="midnightblue" stroke="midnightblue" points="846.536,-6.5001 836.536,-10 846.536,-13.5001 846.536,-6.5001"/>
</g>
<!-- Node18 -->
<g id="node18" class="node"><title>Node18</title>
<g id="a_node18"><a xlink:href="../../d2/da3/cipconnectionmanager_8h.html#a5ab0de6894d23e8fe84a6b46797c2212" target="_top" xlink:title="Initialize the data of the connection manager object. ">
<polygon fill="none" stroke="black" points="1062.5,-0.5 1062.5,-19.5 1179.5,-19.5 1179.5,-0.5 1062.5,-0.5"/>
<text text-anchor="middle" x="1121" y="-7.5" font-family="Helvetica,sans-Serif" font-size="10.00">ConnectionManagerInit</text>
</a>
</g>
</g>
<!-- Node17&#45;&gt;Node18 -->
<g id="edge18" class="edge"><title>Node17&#45;&gt;Node18</title>
<path fill="none" stroke="midnightblue" d="M1016.34,-10C1031.58,-10 1047.64,-10 1062.43,-10"/>
<polygon fill="midnightblue" stroke="midnightblue" points="1015.94,-6.5001 1005.94,-10 1015.94,-13.5001 1015.94,-6.5001"/>
</g>
<!-- Node19 -->
<g id="node19" class="node"><title>Node19</title>
<g id="a_node19"><a xlink:href="../../d2/dc9/group__CIP__API.html#ga5d4979945d124e28668b264c3823db1c" target="_top" xlink:title="Initialize and setup the CIP&#45;stack. ">
<polygon fill="none" stroke="black" points="1230,-0.5 1230,-19.5 1301,-19.5 1301,-0.5 1230,-0.5"/>
<text text-anchor="middle" x="1265.5" y="-7.5" font-family="Helvetica,sans-Serif" font-size="10.00">CipStackInit</text>
</a>
</g>
</g>
<!-- Node18&#45;&gt;Node19 -->
<g id="edge19" class="edge"><title>Node18&#45;&gt;Node19</title>
<path fill="none" stroke="midnightblue" d="M1189.6,-10C1203.49,-10 1217.56,-10 1229.71,-10"/>
<polygon fill="midnightblue" stroke="midnightblue" points="1189.55,-6.5001 1179.55,-10 1189.55,-13.5001 1189.55,-6.5001"/>
</g>
<!-- Node19&#45;&gt;Node8 -->
<g id="edge20" class="edge"><title>Node19&#45;&gt;Node8</title>
<path fill="none" stroke="midnightblue" d="M1298.34,-23.6735C1311.28,-29.2292 1325.76,-35.4459 1336.84,-40.2041"/>
<polygon fill="midnightblue" stroke="midnightblue" points="1299.4,-20.3185 1288.83,-19.589 1296.64,-26.7506 1299.4,-20.3185"/>
</g>
</g>
</svg>
