<?xml version="1.0" encoding="UTF-8" standalone="no"?>
<!DOCTYPE svg PUBLIC "-//W3C//DTD SVG 1.1//EN"
 "http://www.w3.org/Graphics/SVG/1.1/DTD/svg11.dtd">
<!-- Generated by graphviz version 2.38.0 (20140413.2041)
 -->
<!-- Title: EncodeReservedFieldOfLengthByte Pages: 1 -->
<svg width="1672pt" height="127pt"
 viewBox="0.00 0.00 1672.00 126.50" xmlns="http://www.w3.org/2000/svg" xmlns:xlink="http://www.w3.org/1999/xlink">
<g id="graph0" class="graph" transform="scale(1 1) rotate(0) translate(4 122.5)">
<title>EncodeReservedFieldOfLengthByte</title>
<!-- Node1 -->
<g id="node1" class="node"><title>Node1</title>
<polygon fill="#bfbfbf" stroke="black" points="0,-44.5 0,-63.5 173,-63.5 173,-44.5 0,-44.5"/>
<text text-anchor="middle" x="86.5" y="-51.5" font-family="Helvetica,sans-Serif" font-size="10.00">EncodeReservedFieldOfLengthByte</text>
</g>
<!-- Node2 -->
<g id="node2" class="node"><title>Node2</title>
<g id="a_node2"><a xlink:href="../../d4/d91/group__ENCAP.html#gaa28ed48b18b92a64faf70093eb74d891" target="_top" xlink:title="Copy data from message_router_response struct and common_packet_format_data_item into ENIPMessage str...">
<polygon fill="none" stroke="black" points="209,-44.5 209,-63.5 335,-63.5 335,-44.5 209,-44.5"/>
<text text-anchor="middle" x="272" y="-51.5" font-family="Helvetica,sans-Serif" font-size="10.00">AssembleLinearMessage</text>
</a>
</g>
</g>
<!-- Node1&#45;&gt;Node2 -->
<g id="edge1" class="edge"><title>Node1&#45;&gt;Node2</title>
<path fill="none" stroke="midnightblue" d="M183.257,-54C191.93,-54 200.556,-54 208.823,-54"/>
<polygon fill="midnightblue" stroke="midnightblue" points="183.072,-50.5001 173.072,-54 183.072,-57.5001 183.072,-50.5001"/>
</g>
<!-- Node3 -->
<g id="node3" class="node"><title>Node3</title>
<g id="a_node3"><a xlink:href="../../d4/d91/group__ENCAP.html#ga9c408ca52db513a953b72e8dfcad27e8" target="_top" xlink:title="NotifyCommonPacketFormat">
<polygon fill="none" stroke="black" points="379.5,-90.5 379.5,-109.5 523.5,-109.5 523.5,-90.5 379.5,-90.5"/>
<text text-anchor="middle" x="451.5" y="-97.5" font-family="Helvetica,sans-Serif" font-size="10.00">NotifyCommonPacketFormat</text>
</a>
</g>
</g>
<!-- Node2&#45;&gt;Node3 -->
<g id="edge2" class="edge"><title>Node2&#45;&gt;Node3</title>
<path fill="none" stroke="midnightblue" d="M319.808,-66.1306C349.188,-73.7444 386.53,-83.4219 413.769,-90.481"/>
<polygon fill="midnightblue" stroke="midnightblue" points="320.336,-62.6519 309.778,-63.5312 318.58,-69.4281 320.336,-62.6519"/>
</g>
<!-- Node14 -->
<g id="node14" class="node"><title>Node14</title>
<g id="a_node14"><a xlink:href="../../d4/d91/group__ENCAP.html#ga72c9878cc686b15d10481b716e6f628d" target="_top" xlink:title="NotifyConnectedCommonPacket\lFormat">
<polygon fill="none" stroke="black" points="371,-39 371,-69 532,-69 532,-39 371,-39"/>
<text text-anchor="start" x="379" y="-57" font-family="Helvetica,sans-Serif" font-size="10.00">NotifyConnectedCommonPacket</text>
<text text-anchor="middle" x="451.5" y="-46" font-family="Helvetica,sans-Serif" font-size="10.00">Format</text>
</a>
</g>
</g>
<!-- Node2&#45;&gt;Node14 -->
<g id="edge14" class="edge"><title>Node2&#45;&gt;Node14</title>
<path fill="none" stroke="midnightblue" d="M345.284,-54C353.75,-54 362.424,-54 370.982,-54"/>
<polygon fill="midnightblue" stroke="midnightblue" points="345.081,-50.5001 335.081,-54 345.081,-57.5001 345.081,-50.5001"/>
</g>
<!-- Node16 -->
<g id="node16" class="node"><title>Node16</title>
<g id="a_node16"><a xlink:href="../../d4/d91/group__ENCAP.html#ga137d29fba9dd744ed2e9323bf75e0bba" target="_top" xlink:title="AssembleIOMessage">
<polygon fill="none" stroke="black" points="396.5,-0.5 396.5,-19.5 506.5,-19.5 506.5,-0.5 396.5,-0.5"/>
<text text-anchor="middle" x="451.5" y="-7.5" font-family="Helvetica,sans-Serif" font-size="10.00">AssembleIOMessage</text>
</a>
</g>
</g>
<!-- Node2&#45;&gt;Node16 -->
<g id="edge17" class="edge"><title>Node2&#45;&gt;Node16</title>
<path fill="none" stroke="midnightblue" d="M319.55,-41.9712C335.814,-37.8093 354.201,-33.1498 371,-29 383.675,-25.869 397.507,-22.5345 410.028,-19.5472"/>
<polygon fill="midnightblue" stroke="midnightblue" points="318.548,-38.6148 309.731,-44.4892 320.287,-45.3954 318.548,-38.6148"/>
</g>
<!-- Node4 -->
<g id="node4" class="node"><title>Node4</title>
<g id="a_node4"><a xlink:href="../../d7/df9/encap_8h.html#a51dd68441ec427052986aef5c5c076e4" target="_top" xlink:title="Call UCMM or Message Router if UCMM not implemented. ">
<polygon fill="none" stroke="black" points="569,-88 569,-118 717,-118 717,-88 569,-88"/>
<text text-anchor="start" x="577" y="-106" font-family="Helvetica,sans-Serif" font-size="10.00">HandleReceivedSendRequest</text>
<text text-anchor="middle" x="643" y="-95" font-family="Helvetica,sans-Serif" font-size="10.00">ResponseDataCommand</text>
</a>
</g>
</g>
<!-- Node3&#45;&gt;Node4 -->
<g id="edge3" class="edge"><title>Node3&#45;&gt;Node4</title>
<path fill="none" stroke="midnightblue" d="M533.775,-101.287C545.454,-101.472 557.412,-101.661 568.92,-101.843"/>
<polygon fill="midnightblue" stroke="midnightblue" points="533.656,-97.7845 523.602,-101.126 533.545,-104.784 533.656,-97.7845"/>
</g>
<!-- Node5 -->
<g id="node5" class="node"><title>Node5</title>
<g id="a_node5"><a xlink:href="../../d2/dc9/group__CIP__API.html#ga4b8ec8e9b8a1dd71e84f2ea54e1c2b2d" target="_top" xlink:title="Notify the encapsulation layer that an explicit message has been received via TCP. ">
<polygon fill="none" stroke="black" points="754,-60.5 754,-79.5 910,-79.5 910,-60.5 754,-60.5"/>
<text text-anchor="middle" x="832" y="-67.5" font-family="Helvetica,sans-Serif" font-size="10.00">HandleReceivedExplictTcpData</text>
</a>
</g>
</g>
<!-- Node4&#45;&gt;Node5 -->
<g id="edge4" class="edge"><title>Node4&#45;&gt;Node5</title>
<path fill="none" stroke="midnightblue" d="M727.022,-88.349C743.991,-85.3545 761.426,-82.2778 777.054,-79.52"/>
<polygon fill="midnightblue" stroke="midnightblue" points="726.342,-84.9149 717.103,-90.0996 727.559,-91.8084 726.342,-84.9149"/>
</g>
<!-- Node6 -->
<g id="node6" class="node"><title>Node6</title>
<g id="a_node6"><a xlink:href="../../d4/d91/group__ENCAP.html#ga7a0dc2be6c485d9e6940d5b20a981022" target="_top" xlink:title="Initialize the encapsulation layer. ">
<polygon fill="none" stroke="black" points="1137,-38.5 1137,-57.5 1229,-57.5 1229,-38.5 1137,-38.5"/>
<text text-anchor="middle" x="1183" y="-45.5" font-family="Helvetica,sans-Serif" font-size="10.00">EncapsulationInit</text>
</a>
</g>
</g>
<!-- Node5&#45;&gt;Node6 -->
<g id="edge5" class="edge"><title>Node5&#45;&gt;Node6</title>
<path fill="none" stroke="midnightblue" d="M920.404,-64.4903C989.12,-60.1586 1082.07,-54.2994 1136.67,-50.8573"/>
<polygon fill="midnightblue" stroke="midnightblue" points="919.782,-61.0225 910.022,-65.1448 920.222,-68.0086 919.782,-61.0225"/>
</g>
<!-- Node11 -->
<g id="node11" class="node"><title>Node11</title>
<g id="a_node11"><a xlink:href="../../db/d4f/generic__networkhandler_8c.html#aca5593b7dd39d7a7b437999a367102d6" target="_top" xlink:title="Handles data on an established TCP connection, processed connection is given by socket. ">
<polygon fill="none" stroke="black" points="946,-76.5 946,-95.5 1074,-95.5 1074,-76.5 946,-76.5"/>
<text text-anchor="middle" x="1010" y="-83.5" font-family="Helvetica,sans-Serif" font-size="10.00">HandleDataOnTcpSocket</text>
</a>
</g>
</g>
<!-- Node5&#45;&gt;Node11 -->
<g id="edge10" class="edge"><title>Node5&#45;&gt;Node11</title>
<path fill="none" stroke="midnightblue" d="M920.293,-77.9357C928.914,-78.7195 937.545,-79.5041 945.853,-80.2594"/>
<polygon fill="midnightblue" stroke="midnightblue" points="920.472,-74.4377 910.196,-77.0178 919.838,-81.4089 920.472,-74.4377"/>
</g>
<!-- Node7 -->
<g id="node7" class="node"><title>Node7</title>
<g id="a_node7"><a xlink:href="../../d2/dc9/group__CIP__API.html#ga5d4979945d124e28668b264c3823db1c" target="_top" xlink:title="Initialize and setup the CIP&#45;stack. ">
<polygon fill="none" stroke="black" points="1292,-19.5 1292,-38.5 1363,-38.5 1363,-19.5 1292,-19.5"/>
<text text-anchor="middle" x="1327.5" y="-26.5" font-family="Helvetica,sans-Serif" font-size="10.00">CipStackInit</text>
</a>
</g>
</g>
<!-- Node6&#45;&gt;Node7 -->
<g id="edge6" class="edge"><title>Node6&#45;&gt;Node7</title>
<path fill="none" stroke="midnightblue" d="M1239.27,-40.6307C1256.89,-38.2812 1275.89,-35.7483 1291.64,-33.6479"/>
<polygon fill="midnightblue" stroke="midnightblue" points="1238.54,-37.1973 1229.09,-41.9883 1239.46,-44.1359 1238.54,-37.1973"/>
</g>
<!-- Node8 -->
<g id="node8" class="node"><title>Node8</title>
<g id="a_node8"><a xlink:href="../../d5/dcb/MINGW_2main_8c.html#ad338a7dbc41dc40bcecd0479377ef207" target="_top" xlink:title="main">
<polygon fill="none" stroke="black" points="1399,-38.5 1399,-57.5 1437,-57.5 1437,-38.5 1399,-38.5"/>
<text text-anchor="middle" x="1418" y="-45.5" font-family="Helvetica,sans-Serif" font-size="10.00">main</text>
</a>
</g>
</g>
<!-- Node7&#45;&gt;Node8 -->
<g id="edge7" class="edge"><title>Node7&#45;&gt;Node8</title>
<path fill="none" stroke="midnightblue" d="M1373.09,-38.5727C1382.24,-40.5377 1391.37,-42.4985 1398.92,-44.1189"/>
<polygon fill="midnightblue" stroke="midnightblue" points="1373.74,-35.1319 1363.22,-36.4548 1372.27,-41.9759 1373.74,-35.1319"/>
</g>
<!-- Node9 -->
<g id="node9" class="node"><title>Node9</title>
<g id="a_node9"><a xlink:href="../../d8/d03/ports_2MINGW_2CMakeLists_8txt.html#a7e00df43a20d627a1732be7766d91097" target="_top" xlink:title="add_library">
<polygon fill="none" stroke="black" points="1473,-38.5 1473,-57.5 1537,-57.5 1537,-38.5 1473,-38.5"/>
<text text-anchor="middle" x="1505" y="-45.5" font-family="Helvetica,sans-Serif" font-size="10.00">add_library</text>
</a>
</g>
</g>
<!-- Node8&#45;&gt;Node9 -->
<g id="edge8" class="edge"><title>Node8&#45;&gt;Node9</title>
<path fill="none" stroke="midnightblue" d="M1447.27,-48C1455.5,-48 1464.55,-48 1472.94,-48"/>
<polygon fill="midnightblue" stroke="midnightblue" points="1447.03,-44.5001 1437.03,-48 1447.03,-51.5001 1447.03,-44.5001"/>
</g>
<!-- Node10 -->
<g id="node10" class="node"><title>Node10</title>
<g id="a_node10"><a xlink:href="../../d8/dce/ports_2CMakeLists_8txt.html#a598fae457555a5fb26e18d4cd8f89de9" target="_top" xlink:title="add_subdirectory">
<polygon fill="none" stroke="black" points="1573,-38.5 1573,-57.5 1664,-57.5 1664,-38.5 1573,-38.5"/>
<text text-anchor="middle" x="1618.5" y="-45.5" font-family="Helvetica,sans-Serif" font-size="10.00">add_subdirectory</text>
</a>
</g>
</g>
<!-- Node9&#45;&gt;Node10 -->
<g id="edge9" class="edge"><title>Node9&#45;&gt;Node10</title>
<path fill="none" stroke="midnightblue" d="M1547.3,-48C1555.63,-48 1564.42,-48 1572.86,-48"/>
<polygon fill="midnightblue" stroke="midnightblue" points="1547.06,-44.5001 1537.06,-48 1547.06,-51.5001 1547.06,-44.5001"/>
</g>
<!-- Node12 -->
<g id="node12" class="node"><title>Node12</title>
<g id="a_node12"><a xlink:href="../../da/dc2/generic__networkhandler_8h.html#a2f01af81d3e5018d9980e2bc28c9078a" target="_top" xlink:title="NetworkHandlerProcessOnce">
<polygon fill="none" stroke="black" points="1110,-76.5 1110,-95.5 1256,-95.5 1256,-76.5 1110,-76.5"/>
<text text-anchor="middle" x="1183" y="-83.5" font-family="Helvetica,sans-Serif" font-size="10.00">NetworkHandlerProcessOnce</text>
</a>
</g>
</g>
<!-- Node11&#45;&gt;Node12 -->
<g id="edge11" class="edge"><title>Node11&#45;&gt;Node12</title>
<path fill="none" stroke="midnightblue" d="M1084.38,-86C1092.82,-86 1101.42,-86 1109.84,-86"/>
<polygon fill="midnightblue" stroke="midnightblue" points="1084.19,-82.5001 1074.19,-86 1084.19,-89.5001 1084.19,-82.5001"/>
</g>
<!-- Node12&#45;&gt;Node8 -->
<g id="edge12" class="edge"><title>Node12&#45;&gt;Node8</title>
<path fill="none" stroke="midnightblue" d="M1252.37,-74.8489C1302.81,-66.6228 1367.86,-56.0151 1398.92,-50.9483"/>
<polygon fill="midnightblue" stroke="midnightblue" points="1251.8,-71.396 1242.49,-76.46 1252.93,-78.3047 1251.8,-71.396"/>
</g>
<!-- Node13 -->
<g id="node13" class="node"><title>Node13</title>
<g id="a_node13"><a xlink:href="../../d9/dfb/POSIX_2main_8c.html#acd4e45a35a64f9cb29b59f63492b61d2" target="_top" xlink:title="Signal handler function for ending stack execution. ">
<polygon fill="none" stroke="black" points="1293.5,-95.5 1293.5,-114.5 1361.5,-114.5 1361.5,-95.5 1293.5,-95.5"/>
<text text-anchor="middle" x="1327.5" y="-102.5" font-family="Helvetica,sans-Serif" font-size="10.00">LeaveStack</text>
</a>
</g>
</g>
<!-- Node12&#45;&gt;Node13 -->
<g id="edge13" class="edge"><title>Node12&#45;&gt;Node13</title>
<path fill="none" stroke="midnightblue" d="M1265.82,-96.909C1275.5,-98.1994 1284.91,-99.4542 1293.32,-100.575"/>
<polygon fill="midnightblue" stroke="midnightblue" points="1266.04,-93.4081 1255.67,-95.5557 1265.12,-100.347 1266.04,-93.4081"/>
</g>
<!-- Node15 -->
<g id="node15" class="node"><title>Node15</title>
<g id="a_node15"><a xlink:href="../../d2/dbd/encap_8c.html#a49dc585614f655a5b313150a01fd7221" target="_top" xlink:title="Call Connection Manager. ">
<polygon fill="none" stroke="black" points="568,-39 568,-69 718,-69 718,-39 568,-39"/>
<text text-anchor="start" x="576" y="-57" font-family="Helvetica,sans-Serif" font-size="10.00">HandleReceivedSendUnitData</text>
<text text-anchor="middle" x="643" y="-46" font-family="Helvetica,sans-Serif" font-size="10.00">Command</text>
</a>
</g>
</g>
<!-- Node14&#45;&gt;Node15 -->
<g id="edge15" class="edge"><title>Node14&#45;&gt;Node15</title>
<path fill="none" stroke="midnightblue" d="M542.101,-54C550.706,-54 559.369,-54 567.803,-54"/>
<polygon fill="midnightblue" stroke="midnightblue" points="542.041,-50.5001 532.041,-54 542.041,-57.5001 542.041,-50.5001"/>
</g>
<!-- Node15&#45;&gt;Node5 -->
<g id="edge16" class="edge"><title>Node15&#45;&gt;Node5</title>
<path fill="none" stroke="midnightblue" d="M728.154,-61.2003C736.709,-61.9323 745.37,-62.6734 753.846,-63.3986"/>
<polygon fill="midnightblue" stroke="midnightblue" points="728.438,-57.7119 718.176,-60.3466 727.841,-64.6865 728.438,-57.7119"/>
</g>
<!-- Node17 -->
<g id="node17" class="node"><title>Node17</title>
<g id="a_node17"><a xlink:href="../../df/d03/cipioconnection_8c.html#a20f1bc1c4cc4470cf371f94d51814de2" target="_top" xlink:title="Send the data from the produced CIP Object of the connection via the socket of the connection object ...">
<polygon fill="none" stroke="black" points="589.5,-0.5 589.5,-19.5 696.5,-19.5 696.5,-0.5 589.5,-0.5"/>
<text text-anchor="middle" x="643" y="-7.5" font-family="Helvetica,sans-Serif" font-size="10.00">SendConnectedData</text>
</a>
</g>
</g>
<!-- Node16&#45;&gt;Node17 -->
<g id="edge18" class="edge"><title>Node16&#45;&gt;Node17</title>
<path fill="none" stroke="midnightblue" d="M516.804,-10C540.369,-10 566.745,-10 589.188,-10"/>
<polygon fill="midnightblue" stroke="midnightblue" points="516.55,-6.5001 506.549,-10 516.549,-13.5001 516.55,-6.5001"/>
</g>
<!-- Node18 -->
<g id="node18" class="node"><title>Node18</title>
<g id="a_node18"><a xlink:href="../../df/d03/cipioconnection_8c.html#ab3282f146a3ea91c90cf14c32206ee8c" target="_top" xlink:title="SetIoConnectionCallbacks">
<polygon fill="none" stroke="black" points="765.5,-0.5 765.5,-19.5 898.5,-19.5 898.5,-0.5 765.5,-0.5"/>
<text text-anchor="middle" x="832" y="-7.5" font-family="Helvetica,sans-Serif" font-size="10.00">SetIoConnectionCallbacks</text>
</a>
</g>
</g>
<!-- Node17&#45;&gt;Node18 -->
<g id="edge19" class="edge"><title>Node17&#45;&gt;Node18</title>
<path fill="none" stroke="midnightblue" d="M706.59,-10C725.523,-10 746.361,-10 765.48,-10"/>
<polygon fill="midnightblue" stroke="midnightblue" points="706.588,-6.5001 696.588,-10 706.588,-13.5001 706.588,-6.5001"/>
</g>
<!-- Node19 -->
<g id="node19" class="node"><title>Node19</title>
<g id="a_node19"><a xlink:href="../../de/d45/cipioconnection_8h.html#a43e270b3f9b9f6296b12285c320c95aa" target="_top" xlink:title="Setup all data in order to establish an IO connection. ">
<polygon fill="none" stroke="black" points="952.5,-0.5 952.5,-19.5 1067.5,-19.5 1067.5,-0.5 952.5,-0.5"/>
<text text-anchor="middle" x="1010" y="-7.5" font-family="Helvetica,sans-Serif" font-size="10.00">EstablishIoConnection</text>
</a>
</g>
</g>
<!-- Node18&#45;&gt;Node19 -->
<g id="edge20" class="edge"><title>Node18&#45;&gt;Node19</title>
<path fill="none" stroke="midnightblue" d="M908.603,-10C923.282,-10 938.43,-10 952.37,-10"/>
<polygon fill="midnightblue" stroke="midnightblue" points="908.536,-6.5001 898.536,-10 908.536,-13.5001 908.536,-6.5001"/>
</g>
<!-- Node20 -->
<g id="node20" class="node"><title>Node20</title>
<g id="a_node20"><a xlink:href="../../d2/da3/cipconnectionmanager_8h.html#a5ab0de6894d23e8fe84a6b46797c2212" target="_top" xlink:title="Initialize the data of the connection manager object. ">
<polygon fill="none" stroke="black" points="1124.5,-0.5 1124.5,-19.5 1241.5,-19.5 1241.5,-0.5 1124.5,-0.5"/>
<text text-anchor="middle" x="1183" y="-7.5" font-family="Helvetica,sans-Serif" font-size="10.00">ConnectionManagerInit</text>
</a>
</g>
</g>
<!-- Node19&#45;&gt;Node20 -->
<g id="edge21" class="edge"><title>Node19&#45;&gt;Node20</title>
<path fill="none" stroke="midnightblue" d="M1078.34,-10C1093.58,-10 1109.64,-10 1124.43,-10"/>
<polygon fill="midnightblue" stroke="midnightblue" points="1077.94,-6.5001 1067.94,-10 1077.94,-13.5001 1077.94,-6.5001"/>
</g>
<!-- Node20&#45;&gt;Node7 -->
<g id="edge22" class="edge"><title>Node20&#45;&gt;Node7</title>
<path fill="none" stroke="midnightblue" d="M1251.6,-19.0133C1265.49,-20.8653 1279.56,-22.7419 1291.71,-24.3608"/>
<polygon fill="midnightblue" stroke="midnightblue" points="1251.92,-15.5257 1241.55,-17.6733 1251,-22.4643 1251.92,-15.5257"/>
</g>
</g>
</svg>
