<?xml version="1.0" encoding="UTF-8" standalone="no"?>
<!DOCTYPE svg PUBLIC "-//W3C//DTD SVG 1.1//EN"
 "http://www.w3.org/Graphics/SVG/1.1/DTD/svg11.dtd">
<!-- Generated by graphviz version 2.38.0 (20140413.2041)
 -->
<!-- Title: RemoveSocketTimerFromList Pages: 1 -->
<svg width="1759pt" height="280pt"
 viewBox="0.00 0.00 1759.00 280.00" xmlns="http://www.w3.org/2000/svg" xmlns:xlink="http://www.w3.org/1999/xlink">
<g id="graph0" class="graph" transform="scale(1 1) rotate(0) translate(4 276)">
<title>RemoveSocketTimerFromList</title>
<!-- Node1 -->
<g id="node1" class="node"><title>Node1</title>
<polygon fill="#bfbfbf" stroke="black" points="0,-189.5 0,-208.5 147,-208.5 147,-189.5 0,-189.5"/>
<text text-anchor="middle" x="73.5" y="-196.5" font-family="Helvetica,sans-Serif" font-size="10.00">RemoveSocketTimerFromList</text>
</g>
<!-- Node2 -->
<g id="node2" class="node"><title>Node2</title>
<g id="a_node2"><a xlink:href="../../da/dc2/generic__networkhandler_8h.html#a1bfa5ef8e4802716459a56567ee16592" target="_top" xlink:title="CloseTcpSocket">
<polygon fill="none" stroke="black" points="183,-126.5 183,-145.5 272,-145.5 272,-126.5 183,-126.5"/>
<text text-anchor="middle" x="227.5" y="-133.5" font-family="Helvetica,sans-Serif" font-size="10.00">CloseTcpSocket</text>
</a>
</g>
</g>
<!-- Node1&#45;&gt;Node2 -->
<g id="edge1" class="edge"><title>Node1&#45;&gt;Node2</title>
<path fill="none" stroke="midnightblue" d="M106.862,-185.587C135.777,-173.602 177.44,-156.334 203.197,-145.658"/>
<polygon fill="midnightblue" stroke="midnightblue" points="105.483,-182.369 97.5855,-189.432 108.164,-188.836 105.483,-182.369"/>
</g>
<!-- Node5 -->
<g id="node5" class="node"><title>Node5</title>
<g id="a_node5"><a xlink:href="../../db/d4f/generic__networkhandler_8c.html#aca5593b7dd39d7a7b437999a367102d6" target="_top" xlink:title="Handles data on an established TCP connection, processed connection is given by socket. ">
<polygon fill="none" stroke="black" points="701,-252.5 701,-271.5 829,-271.5 829,-252.5 701,-252.5"/>
<text text-anchor="middle" x="765" y="-259.5" font-family="Helvetica,sans-Serif" font-size="10.00">HandleDataOnTcpSocket</text>
</a>
</g>
</g>
<!-- Node1&#45;&gt;Node5 -->
<g id="edge28" class="edge"><title>Node1&#45;&gt;Node5</title>
<path fill="none" stroke="midnightblue" d="M132.144,-210.493C179.25,-219.434 247.67,-231.396 308,-238 447.683,-253.292 612.541,-258.913 700.75,-260.925"/>
<polygon fill="midnightblue" stroke="midnightblue" points="132.611,-207.019 122.131,-208.577 131.295,-213.894 132.611,-207.019"/>
</g>
<!-- Node3 -->
<g id="node3" class="node"><title>Node3</title>
<g id="a_node3"><a xlink:href="../../d2/dbd/encap_8c.html#a601cd19c88f03fd742f098a1bf5b9e85" target="_top" xlink:title="HandleReceivedUnregister\lSessionCommand">
<polygon fill="none" stroke="black" points="314,-165 314,-195 448,-195 448,-165 314,-165"/>
<text text-anchor="start" x="322" y="-183" font-family="Helvetica,sans-Serif" font-size="10.00">HandleReceivedUnregister</text>
<text text-anchor="middle" x="381" y="-172" font-family="Helvetica,sans-Serif" font-size="10.00">SessionCommand</text>
</a>
</g>
</g>
<!-- Node2&#45;&gt;Node3 -->
<g id="edge2" class="edge"><title>Node2&#45;&gt;Node3</title>
<path fill="none" stroke="midnightblue" d="M271.386,-148.455C289.036,-153.581 309.638,-159.565 328.127,-164.935"/>
<polygon fill="midnightblue" stroke="midnightblue" points="271.953,-144.975 261.373,-145.547 270,-151.698 271.953,-144.975"/>
</g>
<!-- Node6 -->
<g id="node6" class="node"><title>Node6</title>
<g id="a_node6"><a xlink:href="../../da/dc2/generic__networkhandler_8h.html#a2f01af81d3e5018d9980e2bc28c9078a" target="_top" xlink:title="NetworkHandlerProcessOnce">
<polygon fill="none" stroke="black" points="884,-201.5 884,-220.5 1030,-220.5 1030,-201.5 884,-201.5"/>
<text text-anchor="middle" x="957" y="-208.5" font-family="Helvetica,sans-Serif" font-size="10.00">NetworkHandlerProcessOnce</text>
</a>
</g>
</g>
<!-- Node2&#45;&gt;Node6 -->
<g id="edge25" class="edge"><title>Node2&#45;&gt;Node6</title>
<path fill="none" stroke="midnightblue" d="M242.382,-153.442C256.771,-170.003 280.924,-193.833 308,-204 411.417,-242.832 737.474,-226.208 883.748,-216.357"/>
<polygon fill="midnightblue" stroke="midnightblue" points="244.885,-150.979 235.783,-145.555 239.516,-155.471 244.885,-150.979"/>
</g>
<!-- Node11 -->
<g id="node11" class="node"><title>Node11</title>
<g id="a_node11"><a xlink:href="../../d7/df9/encap_8h.html#ad083888333d3ceec1576126a88eeaca7" target="_top" xlink:title="CloseSessionBySessionHandle">
<polygon fill="none" stroke="black" points="490.5,-0.5 490.5,-19.5 645.5,-19.5 645.5,-0.5 490.5,-0.5"/>
<text text-anchor="middle" x="568" y="-7.5" font-family="Helvetica,sans-Serif" font-size="10.00">CloseSessionBySessionHandle</text>
</a>
</g>
</g>
<!-- Node2&#45;&gt;Node11 -->
<g id="edge10" class="edge"><title>Node2&#45;&gt;Node11</title>
<path fill="none" stroke="midnightblue" d="M237.767,-117.28C250.257,-94.2722 274.812,-56.065 308,-38 363.812,-7.62063 436.376,-2.15342 490.492,-3.40402"/>
<polygon fill="midnightblue" stroke="midnightblue" points="234.542,-115.896 233.026,-126.382 240.75,-119.13 234.542,-115.896"/>
</g>
<!-- Node16 -->
<g id="node16" class="node"><title>Node16</title>
<g id="a_node16"><a xlink:href="../../d2/dc9/group__CIP__API.html#ga00a23c1c86472edf2ed679089ae8efc1" target="_top" xlink:title="Inform the encapsulation layer that the remote host has closed the connection. ">
<polygon fill="none" stroke="black" points="342.5,-47.5 342.5,-66.5 419.5,-66.5 419.5,-47.5 342.5,-47.5"/>
<text text-anchor="middle" x="381" y="-54.5" font-family="Helvetica,sans-Serif" font-size="10.00">CloseSession</text>
</a>
</g>
</g>
<!-- Node2&#45;&gt;Node16 -->
<g id="edge16" class="edge"><title>Node2&#45;&gt;Node16</title>
<path fill="none" stroke="midnightblue" d="M249.567,-120.375C265.161,-109.275 287.217,-94.5313 308,-84 321.337,-77.2417 336.786,-71.2289 349.945,-66.6029"/>
<polygon fill="midnightblue" stroke="midnightblue" points="247.244,-117.735 241.19,-126.43 251.345,-123.408 247.244,-117.735"/>
</g>
<!-- Node21 -->
<g id="node21" class="node"><title>Node21</title>
<g id="a_node21"><a xlink:href="../../d4/d91/group__ENCAP.html#ga1261bd2441f744c38d7a3f8d8c16c391" target="_top" xlink:title="Shutdown the encapsulation layer. ">
<polygon fill="none" stroke="black" points="1066,-88.5 1066,-107.5 1190,-107.5 1190,-88.5 1066,-88.5"/>
<text text-anchor="middle" x="1128" y="-95.5" font-family="Helvetica,sans-Serif" font-size="10.00">EncapsulationShutDown</text>
</a>
</g>
</g>
<!-- Node2&#45;&gt;Node21 -->
<g id="edge22" class="edge"><title>Node2&#45;&gt;Node21</title>
<path fill="none" stroke="midnightblue" d="M272.825,-124.07C284.217,-121.373 296.503,-118.784 308,-117 422.056,-99.3056 451.58,-98 567,-98 567,-98 567,-98 766,-98 871.292,-98 993.858,-98 1065.68,-98"/>
<polygon fill="midnightblue" stroke="midnightblue" points="271.97,-120.676 263.087,-126.45 273.632,-127.476 271.97,-120.676"/>
</g>
<!-- Node23 -->
<g id="node23" class="node"><title>Node23</title>
<g id="a_node23"><a xlink:href="../../db/d4f/generic__networkhandler_8c.html#ab561fc66fe48a0cf95be3d152b297dd9" target="_top" xlink:title="CheckEncapsulationInactivity">
<polygon fill="none" stroke="black" points="308,-126.5 308,-145.5 454,-145.5 454,-126.5 308,-126.5"/>
<text text-anchor="middle" x="381" y="-133.5" font-family="Helvetica,sans-Serif" font-size="10.00">CheckEncapsulationInactivity</text>
</a>
</g>
</g>
<!-- Node2&#45;&gt;Node23 -->
<g id="edge26" class="edge"><title>Node2&#45;&gt;Node23</title>
<path fill="none" stroke="midnightblue" d="M282.468,-136C290.663,-136 299.228,-136 307.736,-136"/>
<polygon fill="midnightblue" stroke="midnightblue" points="282.32,-132.5 272.32,-136 282.32,-139.5 282.32,-132.5"/>
</g>
<!-- Node4 -->
<g id="node4" class="node"><title>Node4</title>
<g id="a_node4"><a xlink:href="../../d2/dc9/group__CIP__API.html#ga16eaeeb12ba23b5a75c8e5902a33d70a" target="_top" xlink:title="Notify the encapsulation layer that an explicit message has been received via TCP. ">
<polygon fill="none" stroke="black" points="490,-173.5 490,-192.5 646,-192.5 646,-173.5 490,-173.5"/>
<text text-anchor="middle" x="568" y="-180.5" font-family="Helvetica,sans-Serif" font-size="10.00">HandleReceivedExplictTcpData</text>
</a>
</g>
</g>
<!-- Node3&#45;&gt;Node4 -->
<g id="edge3" class="edge"><title>Node3&#45;&gt;Node4</title>
<path fill="none" stroke="midnightblue" d="M458.01,-181.233C468.559,-181.404 479.404,-181.58 489.971,-181.751"/>
<polygon fill="midnightblue" stroke="midnightblue" points="458.061,-177.733 448.006,-181.07 457.948,-184.732 458.061,-177.733"/>
</g>
<!-- Node4&#45;&gt;Node5 -->
<g id="edge4" class="edge"><title>Node4&#45;&gt;Node5</title>
<path fill="none" stroke="midnightblue" d="M601.92,-196.337C641.17,-212.238 705.795,-238.419 740.395,-252.437"/>
<polygon fill="midnightblue" stroke="midnightblue" points="603.104,-193.04 592.522,-192.529 600.476,-199.528 603.104,-193.04"/>
</g>
<!-- Node5&#45;&gt;Node6 -->
<g id="edge5" class="edge"><title>Node5&#45;&gt;Node6</title>
<path fill="none" stroke="midnightblue" d="M811.707,-249.731C845.083,-240.772 889.686,-228.8 920.423,-220.55"/>
<polygon fill="midnightblue" stroke="midnightblue" points="810.488,-246.434 801.738,-252.407 812.303,-253.195 810.488,-246.434"/>
</g>
<!-- Node7 -->
<g id="node7" class="node"><title>Node7</title>
<g id="a_node7"><a xlink:href="../../d5/dcb/MINGW_2main_8c.html#ad338a7dbc41dc40bcecd0479377ef207" target="_top" xlink:title="main">
<polygon fill="none" stroke="black" points="1486,-88.5 1486,-107.5 1524,-107.5 1524,-88.5 1486,-88.5"/>
<text text-anchor="middle" x="1505" y="-95.5" font-family="Helvetica,sans-Serif" font-size="10.00">main</text>
</a>
</g>
</g>
<!-- Node6&#45;&gt;Node7 -->
<g id="edge6" class="edge"><title>Node6&#45;&gt;Node7</title>
<path fill="none" stroke="midnightblue" d="M1020.14,-199.634C1113.7,-182.264 1296.18,-147.386 1450,-112 1461.89,-109.264 1475.16,-105.83 1485.57,-103.047"/>
<polygon fill="midnightblue" stroke="midnightblue" points="1019.46,-196.199 1010.27,-201.462 1020.74,-203.082 1019.46,-196.199"/>
</g>
<!-- Node10 -->
<g id="node10" class="node"><title>Node10</title>
<g id="a_node10"><a xlink:href="../../d9/dfb/POSIX_2main_8c.html#acd4e45a35a64f9cb29b59f63492b61d2" target="_top" xlink:title="Signal handler function for ending stack execution. ">
<polygon fill="none" stroke="black" points="1094,-201.5 1094,-220.5 1162,-220.5 1162,-201.5 1094,-201.5"/>
<text text-anchor="middle" x="1128" y="-208.5" font-family="Helvetica,sans-Serif" font-size="10.00">LeaveStack</text>
</a>
</g>
</g>
<!-- Node6&#45;&gt;Node10 -->
<g id="edge9" class="edge"><title>Node6&#45;&gt;Node10</title>
<path fill="none" stroke="midnightblue" d="M1040.31,-211C1059.19,-211 1078.22,-211 1093.62,-211"/>
<polygon fill="midnightblue" stroke="midnightblue" points="1040.16,-207.5 1030.16,-211 1040.16,-214.5 1040.16,-207.5"/>
</g>
<!-- Node8 -->
<g id="node8" class="node"><title>Node8</title>
<g id="a_node8"><a xlink:href="../../d8/d03/ports_2MINGW_2CMakeLists_8txt.html#a7e00df43a20d627a1732be7766d91097" target="_top" xlink:title="add_library">
<polygon fill="none" stroke="black" points="1560,-88.5 1560,-107.5 1624,-107.5 1624,-88.5 1560,-88.5"/>
<text text-anchor="middle" x="1592" y="-95.5" font-family="Helvetica,sans-Serif" font-size="10.00">add_library</text>
</a>
</g>
</g>
<!-- Node7&#45;&gt;Node8 -->
<g id="edge7" class="edge"><title>Node7&#45;&gt;Node8</title>
<path fill="none" stroke="midnightblue" d="M1534.27,-98C1542.5,-98 1551.55,-98 1559.94,-98"/>
<polygon fill="midnightblue" stroke="midnightblue" points="1534.03,-94.5001 1524.03,-98 1534.03,-101.5 1534.03,-94.5001"/>
</g>
<!-- Node9 -->
<g id="node9" class="node"><title>Node9</title>
<g id="a_node9"><a xlink:href="../../d8/dce/ports_2CMakeLists_8txt.html#a598fae457555a5fb26e18d4cd8f89de9" target="_top" xlink:title="add_subdirectory">
<polygon fill="none" stroke="black" points="1660,-88.5 1660,-107.5 1751,-107.5 1751,-88.5 1660,-88.5"/>
<text text-anchor="middle" x="1705.5" y="-95.5" font-family="Helvetica,sans-Serif" font-size="10.00">add_subdirectory</text>
</a>
</g>
</g>
<!-- Node8&#45;&gt;Node9 -->
<g id="edge8" class="edge"><title>Node8&#45;&gt;Node9</title>
<path fill="none" stroke="midnightblue" d="M1634.3,-98C1642.63,-98 1651.42,-98 1659.86,-98"/>
<polygon fill="midnightblue" stroke="midnightblue" points="1634.06,-94.5001 1624.06,-98 1634.06,-101.5 1634.06,-94.5001"/>
</g>
<!-- Node12 -->
<g id="node12" class="node"><title>Node12</title>
<g id="a_node12"><a xlink:href="../../dc/d93/cipclass3connection_8c.html#a6053ab7004c1419bd80faf9aca54bfd3" target="_top" xlink:title="Class3ConnectionTimeoutHandler">
<polygon fill="none" stroke="black" points="682,-3.5 682,-22.5 848,-22.5 848,-3.5 682,-3.5"/>
<text text-anchor="middle" x="765" y="-10.5" font-family="Helvetica,sans-Serif" font-size="10.00">Class3ConnectionTimeoutHandler</text>
</a>
</g>
</g>
<!-- Node11&#45;&gt;Node12 -->
<g id="edge11" class="edge"><title>Node11&#45;&gt;Node12</title>
<path fill="none" stroke="midnightblue" d="M655.68,-11.3335C664.405,-11.4678 673.246,-11.6038 681.921,-11.7372"/>
<polygon fill="midnightblue" stroke="midnightblue" points="655.562,-7.83141 645.509,-11.1771 655.454,-14.8306 655.562,-7.83141"/>
</g>
<!-- Node13 -->
<g id="node13" class="node"><title>Node13</title>
<g id="a_node13"><a xlink:href="../../d2/d11/cipclass3connection_8h.html#a45bd741b44137164c07a6ce09a7a9a9d" target="_top" xlink:title="Check if Class3 connection is available and if yes setup all data. ">
<polygon fill="none" stroke="black" points="888.5,-5.5 888.5,-24.5 1025.5,-24.5 1025.5,-5.5 888.5,-5.5"/>
<text text-anchor="middle" x="957" y="-12.5" font-family="Helvetica,sans-Serif" font-size="10.00">EstablishClass3Connection</text>
</a>
</g>
</g>
<!-- Node12&#45;&gt;Node13 -->
<g id="edge12" class="edge"><title>Node12&#45;&gt;Node13</title>
<path fill="none" stroke="midnightblue" d="M858.359,-13.9722C868.517,-14.0791 878.715,-14.1865 888.489,-14.2894"/>
<polygon fill="midnightblue" stroke="midnightblue" points="858.268,-10.4711 848.232,-13.8656 858.194,-17.4708 858.268,-10.4711"/>
</g>
<!-- Node14 -->
<g id="node14" class="node"><title>Node14</title>
<g id="a_node14"><a xlink:href="../../d2/da3/cipconnectionmanager_8h.html#a5ab0de6894d23e8fe84a6b46797c2212" target="_top" xlink:title="Initialize the data of the connection manager object. ">
<polygon fill="none" stroke="black" points="1226,-44.5 1226,-63.5 1343,-63.5 1343,-44.5 1226,-44.5"/>
<text text-anchor="middle" x="1284.5" y="-51.5" font-family="Helvetica,sans-Serif" font-size="10.00">ConnectionManagerInit</text>
</a>
</g>
</g>
<!-- Node13&#45;&gt;Node14 -->
<g id="edge13" class="edge"><title>Node13&#45;&gt;Node14</title>
<path fill="none" stroke="midnightblue" d="M1035.77,-19.4724C1080.94,-22.6264 1138.85,-27.623 1190,-35 1207.05,-37.4591 1225.68,-41.0559 1241.79,-44.4602"/>
<polygon fill="midnightblue" stroke="midnightblue" points="1035.96,-15.9776 1025.74,-18.7882 1035.48,-22.9613 1035.96,-15.9776"/>
</g>
<!-- Node15 -->
<g id="node15" class="node"><title>Node15</title>
<g id="a_node15"><a xlink:href="../../d2/dc9/group__CIP__API.html#ga5d4979945d124e28668b264c3823db1c" target="_top" xlink:title="Initialize and setup the CIP&#45;stack. ">
<polygon fill="none" stroke="black" points="1379,-47.5 1379,-66.5 1450,-66.5 1450,-47.5 1379,-47.5"/>
<text text-anchor="middle" x="1414.5" y="-54.5" font-family="Helvetica,sans-Serif" font-size="10.00">CipStackInit</text>
</a>
</g>
</g>
<!-- Node14&#45;&gt;Node15 -->
<g id="edge14" class="edge"><title>Node14&#45;&gt;Node15</title>
<path fill="none" stroke="midnightblue" d="M1353.18,-55.5863C1362.08,-55.7949 1370.88,-56.0011 1378.9,-56.189"/>
<polygon fill="midnightblue" stroke="midnightblue" points="1353.21,-52.0862 1343.13,-55.3508 1353.05,-59.0843 1353.21,-52.0862"/>
</g>
<!-- Node15&#45;&gt;Node7 -->
<g id="edge15" class="edge"><title>Node15&#45;&gt;Node7</title>
<path fill="none" stroke="midnightblue" d="M1445.4,-70.8517C1458.87,-77.0917 1474.33,-84.2532 1485.98,-89.6536"/>
<polygon fill="midnightblue" stroke="midnightblue" points="1446.57,-67.5372 1436.03,-66.5093 1443.63,-73.8887 1446.57,-67.5372"/>
</g>
<!-- Node17 -->
<g id="node17" class="node"><title>Node17</title>
<g id="a_node17"><a xlink:href="../../d7/df9/encap_8h.html#a0101714be726ab1b21125b6a82ac7a56" target="_top" xlink:title="CloseEncapsulationSession\lBySockAddr">
<polygon fill="none" stroke="black" points="498.5,-39 498.5,-69 637.5,-69 637.5,-39 498.5,-39"/>
<text text-anchor="start" x="506.5" y="-57" font-family="Helvetica,sans-Serif" font-size="10.00">CloseEncapsulationSession</text>
<text text-anchor="middle" x="568" y="-46" font-family="Helvetica,sans-Serif" font-size="10.00">BySockAddr</text>
</a>
</g>
</g>
<!-- Node16&#45;&gt;Node17 -->
<g id="edge17" class="edge"><title>Node16&#45;&gt;Node17</title>
<path fill="none" stroke="midnightblue" d="M430.089,-56.2202C450.949,-55.8819 475.759,-55.4796 498.493,-55.1109"/>
<polygon fill="midnightblue" stroke="midnightblue" points="429.826,-52.7239 419.884,-56.3857 429.939,-59.723 429.826,-52.7239"/>
</g>
<!-- Node18 -->
<g id="node18" class="node"><title>Node18</title>
<g id="a_node18"><a xlink:href="../../df/d03/cipioconnection_8c.html#a7e4923f4b027d489d9933b52f6fd7007" target="_top" xlink:title="HandleIoConnectionTimeOut">
<polygon fill="none" stroke="black" points="693.5,-44.5 693.5,-63.5 836.5,-63.5 836.5,-44.5 693.5,-44.5"/>
<text text-anchor="middle" x="765" y="-51.5" font-family="Helvetica,sans-Serif" font-size="10.00">HandleIoConnectionTimeOut</text>
</a>
</g>
</g>
<!-- Node17&#45;&gt;Node18 -->
<g id="edge18" class="edge"><title>Node17&#45;&gt;Node18</title>
<path fill="none" stroke="midnightblue" d="M647.998,-54C662.967,-54 678.54,-54 693.234,-54"/>
<polygon fill="midnightblue" stroke="midnightblue" points="647.75,-50.5001 637.75,-54 647.75,-57.5001 647.75,-50.5001"/>
</g>
<!-- Node19 -->
<g id="node19" class="node"><title>Node19</title>
<g id="a_node19"><a xlink:href="../../df/d03/cipioconnection_8c.html#ab3282f146a3ea91c90cf14c32206ee8c" target="_top" xlink:title="SetIoConnectionCallbacks">
<polygon fill="none" stroke="black" points="890.5,-44.5 890.5,-63.5 1023.5,-63.5 1023.5,-44.5 890.5,-44.5"/>
<text text-anchor="middle" x="957" y="-51.5" font-family="Helvetica,sans-Serif" font-size="10.00">SetIoConnectionCallbacks</text>
</a>
</g>
</g>
<!-- Node18&#45;&gt;Node19 -->
<g id="edge19" class="edge"><title>Node18&#45;&gt;Node19</title>
<path fill="none" stroke="midnightblue" d="M847.127,-54C861.511,-54 876.328,-54 890.222,-54"/>
<polygon fill="midnightblue" stroke="midnightblue" points="846.749,-50.5001 836.749,-54 846.749,-57.5001 846.749,-50.5001"/>
</g>
<!-- Node20 -->
<g id="node20" class="node"><title>Node20</title>
<g id="a_node20"><a xlink:href="../../de/d45/cipioconnection_8h.html#a43e270b3f9b9f6296b12285c320c95aa" target="_top" xlink:title="Setup all data in order to establish an IO connection. ">
<polygon fill="none" stroke="black" points="1070.5,-44.5 1070.5,-63.5 1185.5,-63.5 1185.5,-44.5 1070.5,-44.5"/>
<text text-anchor="middle" x="1128" y="-51.5" font-family="Helvetica,sans-Serif" font-size="10.00">EstablishIoConnection</text>
</a>
</g>
</g>
<!-- Node19&#45;&gt;Node20 -->
<g id="edge20" class="edge"><title>Node19&#45;&gt;Node20</title>
<path fill="none" stroke="midnightblue" d="M1034.02,-54C1046.26,-54 1058.73,-54 1070.41,-54"/>
<polygon fill="midnightblue" stroke="midnightblue" points="1033.82,-50.5001 1023.82,-54 1033.82,-57.5001 1033.82,-50.5001"/>
</g>
<!-- Node20&#45;&gt;Node14 -->
<g id="edge21" class="edge"><title>Node20&#45;&gt;Node14</title>
<path fill="none" stroke="midnightblue" d="M1195.92,-54C1205.88,-54 1216.07,-54 1225.82,-54"/>
<polygon fill="midnightblue" stroke="midnightblue" points="1195.65,-50.5001 1185.65,-54 1195.65,-57.5001 1195.65,-50.5001"/>
</g>
<!-- Node22 -->
<g id="node22" class="node"><title>Node22</title>
<g id="a_node22"><a xlink:href="../../d2/dc9/group__CIP__API.html#gaa57b527530adc2acda6febc500fd6831" target="_top" xlink:title="Shutdown of the CIP stack. ">
<polygon fill="none" stroke="black" points="1234,-88.5 1234,-107.5 1335,-107.5 1335,-88.5 1234,-88.5"/>
<text text-anchor="middle" x="1284.5" y="-95.5" font-family="Helvetica,sans-Serif" font-size="10.00">ShutdownCipStack</text>
</a>
</g>
</g>
<!-- Node21&#45;&gt;Node22 -->
<g id="edge23" class="edge"><title>Node21&#45;&gt;Node22</title>
<path fill="none" stroke="midnightblue" d="M1200.37,-98C1211.67,-98 1223.14,-98 1233.8,-98"/>
<polygon fill="midnightblue" stroke="midnightblue" points="1200.06,-94.5001 1190.06,-98 1200.06,-101.5 1200.06,-94.5001"/>
</g>
<!-- Node22&#45;&gt;Node7 -->
<g id="edge24" class="edge"><title>Node22&#45;&gt;Node7</title>
<path fill="none" stroke="midnightblue" d="M1345.21,-98C1392.46,-98 1455.41,-98 1485.91,-98"/>
<polygon fill="midnightblue" stroke="midnightblue" points="1345.08,-94.5001 1335.08,-98 1345.08,-101.5 1345.08,-94.5001"/>
</g>
<!-- Node23&#45;&gt;Node6 -->
<g id="edge27" class="edge"><title>Node23&#45;&gt;Node6</title>
<path fill="none" stroke="midnightblue" d="M464.292,-143.771C516.433,-148.931 585.252,-156.177 646,-164 734.272,-175.367 836.24,-191.386 898.403,-201.478"/>
<polygon fill="midnightblue" stroke="midnightblue" points="464.389,-140.263 454.094,-142.767 463.703,-147.23 464.389,-140.263"/>
</g>
</g>
</svg>
