<?xml version="1.0" encoding="UTF-8" standalone="no"?>
<!DOCTYPE svg PUBLIC "-//W3C//DTD SVG 1.1//EN"
 "http://www.w3.org/Graphics/SVG/1.1/DTD/svg11.dtd">
<!-- Generated by graphviz version 2.38.0 (20140413.2041)
 -->
<!-- Title: CheckAndHandleUdpUnicastSocket Pages: 1 -->
<svg width="1053pt" height="302pt"
 viewBox="0.00 0.00 1053.00 302.00" xmlns="http://www.w3.org/2000/svg" xmlns:xlink="http://www.w3.org/1999/xlink">
<g id="graph0" class="graph" transform="scale(1 1) rotate(0) translate(4 298)">
<title>CheckAndHandleUdpUnicastSocket</title>
<!-- Node1 -->
<g id="node1" class="node"><title>Node1</title>
<polygon fill="#bfbfbf" stroke="black" points="0,-174 0,-204 145,-204 145,-174 0,-174"/>
<text text-anchor="start" x="8" y="-192" font-family="Helvetica,sans-Serif" font-size="10.00">CheckAndHandleUdpUnicast</text>
<text text-anchor="middle" x="72.5" y="-181" font-family="Helvetica,sans-Serif" font-size="10.00">Socket</text>
</g>
<!-- Node2 -->
<g id="node2" class="node"><title>Node2</title>
<g id="a_node2"><a xlink:href="../../db/d4f/generic__networkhandler_8c.html#acebcfe03d5528a69d288c446ff3048b1" target="_top" xlink:title="check if the given socket is set in the read set ">
<polygon fill="none" stroke="black" points="214.5,-274.5 214.5,-293.5 305.5,-293.5 305.5,-274.5 214.5,-274.5"/>
<text text-anchor="middle" x="260" y="-281.5" font-family="Helvetica,sans-Serif" font-size="10.00">CheckSocketSet</text>
</a>
</g>
</g>
<!-- Node1&#45;&gt;Node2 -->
<g id="edge1" class="edge"><title>Node1&#45;&gt;Node2</title>
<path fill="none" stroke="midnightblue" d="M90.486,-204.128C110.677,-221.333 146.052,-249.092 181,-265 188.395,-268.366 196.467,-271.185 204.524,-273.53"/>
<polygon fill="midnightblue" stroke="midnightblue" points="203.732,-276.941 214.298,-276.162 205.552,-270.182 203.732,-276.941"/>
</g>
<!-- Node3 -->
<g id="node3" class="node"><title>Node3</title>
<g id="a_node3"><a xlink:href="../../d8/d60/MINGW_2opener__error_8c.html#a99f5295ad12a2b986bab4b89a24cfc20" target="_top" xlink:title="Frees the space of the error message generated by GetErrorMessage(int) ">
<polygon fill="none" stroke="black" points="211.5,-236.5 211.5,-255.5 308.5,-255.5 308.5,-236.5 211.5,-236.5"/>
<text text-anchor="middle" x="260" y="-243.5" font-family="Helvetica,sans-Serif" font-size="10.00">FreeErrorMessage</text>
</a>
</g>
</g>
<!-- Node1&#45;&gt;Node3 -->
<g id="edge2" class="edge"><title>Node1&#45;&gt;Node3</title>
<path fill="none" stroke="midnightblue" d="M113.007,-204.04C133.19,-211.449 158.234,-220.222 181,-227 189.161,-229.43 197.869,-231.782 206.398,-233.955"/>
<polygon fill="midnightblue" stroke="midnightblue" points="205.736,-237.397 216.285,-236.418 207.428,-230.604 205.736,-237.397"/>
</g>
<!-- Node4 -->
<g id="node4" class="node"><title>Node4</title>
<g id="a_node4"><a xlink:href="../../d8/d60/MINGW_2opener__error_8c.html#a0df2625909cb28076bc7df8e6c9cfcae" target="_top" xlink:title="Returns a human readable message for the given error number. ">
<polygon fill="none" stroke="black" points="213.5,-198.5 213.5,-217.5 306.5,-217.5 306.5,-198.5 213.5,-198.5"/>
<text text-anchor="middle" x="260" y="-205.5" font-family="Helvetica,sans-Serif" font-size="10.00">GetErrorMessage</text>
</a>
</g>
</g>
<!-- Node1&#45;&gt;Node4 -->
<g id="edge3" class="edge"><title>Node1&#45;&gt;Node4</title>
<path fill="none" stroke="midnightblue" d="M145.219,-196.346C164.485,-198.319 185.028,-200.423 203.282,-202.293"/>
<polygon fill="midnightblue" stroke="midnightblue" points="203.145,-205.797 213.45,-203.334 203.859,-198.834 203.145,-205.797"/>
</g>
<!-- Node5 -->
<g id="node5" class="node"><title>Node5</title>
<g id="a_node5"><a xlink:href="../../d8/d60/MINGW_2opener__error_8c.html#afbc52bcd5256264e75ba063f2e361e24" target="_top" xlink:title="Gets the error number or equivalent. ">
<polygon fill="none" stroke="black" points="200.5,-160.5 200.5,-179.5 319.5,-179.5 319.5,-160.5 200.5,-160.5"/>
<text text-anchor="middle" x="260" y="-167.5" font-family="Helvetica,sans-Serif" font-size="10.00">GetSocketErrorNumber</text>
</a>
</g>
</g>
<!-- Node1&#45;&gt;Node5 -->
<g id="edge4" class="edge"><title>Node1&#45;&gt;Node5</title>
<path fill="none" stroke="midnightblue" d="M145.219,-181.654C160.047,-180.135 175.632,-178.539 190.347,-177.032"/>
<polygon fill="midnightblue" stroke="midnightblue" points="190.784,-180.505 200.375,-176.005 190.071,-173.542 190.784,-180.505"/>
</g>
<!-- Node6 -->
<g id="node6" class="node"><title>Node6</title>
<g id="a_node6"><a xlink:href="../../d2/dc9/group__CIP__API.html#gaab62df9410a09727a82afa7672e3194a" target="_top" xlink:title="Notify the encapsulation layer that an explicit message has been received via UDP. ">
<polygon fill="none" stroke="black" points="181,-122.5 181,-141.5 339,-141.5 339,-122.5 181,-122.5"/>
<text text-anchor="middle" x="260" y="-129.5" font-family="Helvetica,sans-Serif" font-size="10.00">HandleReceivedExplictUdpData</text>
</a>
</g>
</g>
<!-- Node1&#45;&gt;Node6 -->
<g id="edge5" class="edge"><title>Node1&#45;&gt;Node6</title>
<path fill="none" stroke="midnightblue" d="M113.007,-173.96C133.19,-166.551 158.234,-157.778 181,-151 189.161,-148.57 197.869,-146.218 206.398,-144.045"/>
<polygon fill="midnightblue" stroke="midnightblue" points="207.428,-147.396 216.285,-141.582 205.736,-140.603 207.428,-147.396"/>
</g>
<!-- Node20 -->
<g id="node20" class="node"><title>Node20</title>
<g id="a_node20"><a xlink:href="../../da/de0/enipmessage_8c.html#a3bc72c361822172e328654abb263c1a7" target="_top" xlink:title="InitializeENIPMessage">
<polygon fill="none" stroke="black" points="581.5,-54.5 581.5,-73.5 697.5,-73.5 697.5,-54.5 581.5,-54.5"/>
<text text-anchor="middle" x="639.5" y="-61.5" font-family="Helvetica,sans-Serif" font-size="10.00">InitializeENIPMessage</text>
</a>
</g>
</g>
<!-- Node1&#45;&gt;Node20 -->
<g id="edge32" class="edge"><title>Node1&#45;&gt;Node20</title>
<path fill="none" stroke="midnightblue" d="M89.5494,-173.965C109.394,-156.304 144.98,-127.571 181,-113 311.486,-60.2142 479.095,-56.8799 570.9,-59.9293"/>
<polygon fill="midnightblue" stroke="midnightblue" points="571.048,-63.4371 581.17,-60.3079 571.306,-56.4418 571.048,-63.4371"/>
</g>
<!-- Node7 -->
<g id="node7" class="node"><title>Node7</title>
<g id="a_node7"><a xlink:href="../../d2/dbd/encap_8c.html#a86cfa03514f786d1315f7c4833cb2561" target="_top" xlink:title="copy data from pa_buf in little endian to host in structure. ">
<polygon fill="none" stroke="black" points="375,-16.5 375,-35.5 522,-35.5 522,-16.5 375,-16.5"/>
<text text-anchor="middle" x="448.5" y="-23.5" font-family="Helvetica,sans-Serif" font-size="10.00">CreateEncapsulationStructure</text>
</a>
</g>
</g>
<!-- Node6&#45;&gt;Node7 -->
<g id="edge6" class="edge"><title>Node6&#45;&gt;Node7</title>
<path fill="none" stroke="midnightblue" d="M277.88,-122.406C310.53,-103.849 382.536,-62.9234 421.401,-40.8336"/>
<polygon fill="midnightblue" stroke="midnightblue" points="423.56,-43.6326 430.524,-35.6484 420.101,-37.5469 423.56,-43.6326"/>
</g>
<!-- Node10 -->
<g id="node10" class="node"><title>Node10</title>
<g id="a_node10"><a xlink:href="../../d2/dbd/encap_8c.html#a85c97a897b8f95d2a05e6480480bba5d" target="_top" xlink:title="generate reply with &quot;Communications Services&quot; + compatibility Flags. ">
<polygon fill="none" stroke="black" points="568,-201 568,-231 711,-231 711,-201 568,-201"/>
<text text-anchor="start" x="576" y="-219" font-family="Helvetica,sans-Serif" font-size="10.00">HandleReceivedListServices</text>
<text text-anchor="middle" x="639.5" y="-208" font-family="Helvetica,sans-Serif" font-size="10.00">Command</text>
</a>
</g>
</g>
<!-- Node6&#45;&gt;Node10 -->
<g id="edge9" class="edge"><title>Node6&#45;&gt;Node10</title>
<path fill="none" stroke="midnightblue" d="M314.609,-141.617C323.005,-144.092 331.408,-147.174 339,-151 357.599,-160.374 355.927,-172.633 375,-181 432.767,-206.341 503.968,-214.599 557.789,-216.792"/>
<polygon fill="midnightblue" stroke="midnightblue" points="557.855,-220.296 567.97,-217.143 558.096,-213.3 557.855,-220.296"/>
</g>
<!-- Node14 -->
<g id="node14" class="node"><title>Node14</title>
<g id="a_node14"><a xlink:href="../../d2/dbd/encap_8c.html#ae4d21e6254396c9cb1b5716b054e57de" target="_top" xlink:title="HandleReceivedListIdentity\lCommandTcp">
<polygon fill="none" stroke="black" points="380,-142 380,-172 517,-172 517,-142 380,-142"/>
<text text-anchor="start" x="388" y="-160" font-family="Helvetica,sans-Serif" font-size="10.00">HandleReceivedListIdentity</text>
<text text-anchor="middle" x="448.5" y="-149" font-family="Helvetica,sans-Serif" font-size="10.00">CommandTcp</text>
</a>
</g>
</g>
<!-- Node6&#45;&gt;Node14 -->
<g id="edge14" class="edge"><title>Node6&#45;&gt;Node14</title>
<path fill="none" stroke="midnightblue" d="M332.04,-141.523C344.386,-143.178 357.284,-144.907 369.797,-146.584"/>
<polygon fill="midnightblue" stroke="midnightblue" points="369.356,-150.056 379.732,-147.916 370.286,-143.118 369.356,-150.056"/>
</g>
<!-- Node18 -->
<g id="node18" class="node"><title>Node18</title>
<g id="a_node18"><a xlink:href="../../d2/dbd/encap_8c.html#aa042b74f0d2659164f5c6811e6cb4fda" target="_top" xlink:title="HandleReceivedListIdentity\lCommandUdp">
<polygon fill="none" stroke="black" points="380,-93 380,-123 517,-123 517,-93 380,-93"/>
<text text-anchor="start" x="388" y="-111" font-family="Helvetica,sans-Serif" font-size="10.00">HandleReceivedListIdentity</text>
<text text-anchor="middle" x="448.5" y="-100" font-family="Helvetica,sans-Serif" font-size="10.00">CommandUdp</text>
</a>
</g>
</g>
<!-- Node6&#45;&gt;Node18 -->
<g id="edge23" class="edge"><title>Node6&#45;&gt;Node18</title>
<path fill="none" stroke="midnightblue" d="M334.978,-122.48C346.462,-121.002 358.353,-119.472 369.914,-117.984"/>
<polygon fill="midnightblue" stroke="midnightblue" points="370.499,-121.438 379.97,-116.69 369.605,-114.495 370.499,-121.438"/>
</g>
<!-- Node21 -->
<g id="node21" class="node"><title>Node21</title>
<g id="a_node21"><a xlink:href="../../d2/dbd/encap_8c.html#a371a47e722a3aea264b6eb39cfc725aa" target="_top" xlink:title="HandleReceivedListInterfaces\lCommand">
<polygon fill="none" stroke="black" points="565.5,-250 565.5,-280 713.5,-280 713.5,-250 565.5,-250"/>
<text text-anchor="start" x="573.5" y="-268" font-family="Helvetica,sans-Serif" font-size="10.00">HandleReceivedListInterfaces</text>
<text text-anchor="middle" x="639.5" y="-257" font-family="Helvetica,sans-Serif" font-size="10.00">Command</text>
</a>
</g>
</g>
<!-- Node6&#45;&gt;Node21 -->
<g id="edge29" class="edge"><title>Node6&#45;&gt;Node21</title>
<path fill="none" stroke="midnightblue" d="M321.558,-141.51C327.781,-143.987 333.739,-147.097 339,-151 364.282,-169.757 349.343,-193.758 375,-212 427.36,-249.228 499.616,-261.742 555.223,-265.358"/>
<polygon fill="midnightblue" stroke="midnightblue" points="555.222,-268.863 565.403,-265.933 555.617,-261.874 555.222,-268.863"/>
</g>
<!-- Node8 -->
<g id="node8" class="node"><title>Node8</title>
<g id="a_node8"><a xlink:href="../../d4/d91/group__ENCAP.html#ga668f92389ee06510864585b97955f6f8" target="_top" xlink:title="Reads EIP_UINT32 from *buffer and converts little endian to host. ">
<polygon fill="none" stroke="black" points="583,-16.5 583,-35.5 696,-35.5 696,-16.5 583,-16.5"/>
<text text-anchor="middle" x="639.5" y="-23.5" font-family="Helvetica,sans-Serif" font-size="10.00">GetDintFromMessage</text>
</a>
</g>
</g>
<!-- Node7&#45;&gt;Node8 -->
<g id="edge7" class="edge"><title>Node7&#45;&gt;Node8</title>
<path fill="none" stroke="midnightblue" d="M522.032,-26C538.756,-26 556.452,-26 572.863,-26"/>
<polygon fill="midnightblue" stroke="midnightblue" points="572.896,-29.5001 582.896,-26 572.896,-22.5001 572.896,-29.5001"/>
</g>
<!-- Node9 -->
<g id="node9" class="node"><title>Node9</title>
<g id="a_node9"><a xlink:href="../../d4/d91/group__ENCAP.html#ga70322f970709ca9c9a1a1d474cfe2302" target="_top" xlink:title="Reads EIP_UINT16 from *buffer and converts little endian to host. ">
<polygon fill="none" stroke="black" points="778.5,-0.5 778.5,-19.5 884.5,-19.5 884.5,-0.5 778.5,-0.5"/>
<text text-anchor="middle" x="831.5" y="-7.5" font-family="Helvetica,sans-Serif" font-size="10.00">GetIntFromMessage</text>
</a>
</g>
</g>
<!-- Node7&#45;&gt;Node9 -->
<g id="edge8" class="edge"><title>Node7&#45;&gt;Node9</title>
<path fill="none" stroke="midnightblue" d="M493.615,-16.4881C513.227,-12.7227 536.662,-8.85418 558,-7 629.994,-0.743943 713.086,-3.02126 768.403,-5.87615"/>
<polygon fill="midnightblue" stroke="midnightblue" points="768.226,-9.3716 778.4,-6.41401 768.602,-2.38171 768.226,-9.3716"/>
</g>
<!-- Node11 -->
<g id="node11" class="node"><title>Node11</title>
<g id="a_node11"><a xlink:href="../../d4/d91/group__ENCAP.html#gae689aac2a85bf49fb356ec94c8800799" target="_top" xlink:title="converts UINT16 data from host to little endian an writes it to buffer. ">
<polygon fill="none" stroke="black" points="945.5,-209.5 945.5,-228.5 1041.5,-228.5 1041.5,-209.5 945.5,-209.5"/>
<text text-anchor="middle" x="993.5" y="-216.5" font-family="Helvetica,sans-Serif" font-size="10.00">AddIntToMessage</text>
</a>
</g>
</g>
<!-- Node10&#45;&gt;Node11 -->
<g id="edge10" class="edge"><title>Node10&#45;&gt;Node11</title>
<path fill="none" stroke="midnightblue" d="M708.268,-231.004C724.174,-233.911 741.117,-236.513 757,-238 822.934,-244.171 840.164,-245.145 906,-238 919.642,-236.519 934.286,-233.762 947.575,-230.798"/>
<polygon fill="midnightblue" stroke="midnightblue" points="948.484,-234.18 957.433,-228.508 946.901,-227.361 948.484,-234.18"/>
</g>
<!-- Node12 -->
<g id="node12" class="node"><title>Node12</title>
<g id="a_node12"><a xlink:href="../../d2/dbd/encap_8c.html#ad558c3aae69a6ab80034278c108802e9" target="_top" xlink:title="GenerateEncapsulationHeader">
<polygon fill="none" stroke="black" points="757,-209.5 757,-228.5 906,-228.5 906,-209.5 757,-209.5"/>
<text text-anchor="middle" x="831.5" y="-216.5" font-family="Helvetica,sans-Serif" font-size="10.00">GenerateEncapsulationHeader</text>
</a>
</g>
</g>
<!-- Node10&#45;&gt;Node12 -->
<g id="edge11" class="edge"><title>Node10&#45;&gt;Node12</title>
<path fill="none" stroke="midnightblue" d="M711.249,-217.117C722.755,-217.299 734.77,-217.488 746.554,-217.675"/>
<polygon fill="midnightblue" stroke="midnightblue" points="746.779,-221.178 756.833,-217.837 746.889,-214.179 746.779,-221.178"/>
</g>
<!-- Node12&#45;&gt;Node11 -->
<g id="edge13" class="edge"><title>Node12&#45;&gt;Node11</title>
<path fill="none" stroke="midnightblue" d="M906.411,-219C916.049,-219 925.805,-219 935.116,-219"/>
<polygon fill="midnightblue" stroke="midnightblue" points="935.409,-222.5 945.409,-219 935.409,-215.5 935.409,-222.5"/>
</g>
<!-- Node13 -->
<g id="node13" class="node"><title>Node13</title>
<g id="a_node13"><a xlink:href="../../d4/d91/group__ENCAP.html#gaafc3c9e3ff582c9b7e438ae2b1fdf822" target="_top" xlink:title="Converts UINT32 data from host to little endian and writes it to buffer. ">
<polygon fill="none" stroke="black" points="942,-133.5 942,-152.5 1045,-152.5 1045,-133.5 942,-133.5"/>
<text text-anchor="middle" x="993.5" y="-140.5" font-family="Helvetica,sans-Serif" font-size="10.00">AddDintToMessage</text>
</a>
</g>
</g>
<!-- Node12&#45;&gt;Node13 -->
<g id="edge12" class="edge"><title>Node12&#45;&gt;Node13</title>
<path fill="none" stroke="midnightblue" d="M852.764,-209.375C880.656,-196.126 931.054,-172.187 963.092,-156.969"/>
<polygon fill="midnightblue" stroke="midnightblue" points="964.869,-159.999 972.4,-152.547 961.866,-153.676 964.869,-159.999"/>
</g>
<!-- Node15 -->
<g id="node15" class="node"><title>Node15</title>
<g id="a_node15"><a xlink:href="../../d2/dbd/encap_8c.html#ae8d8af733e9ac70ea728d6255aced4b6" target="_top" xlink:title="EncapsulateListIdentityResponse\lMessage">
<polygon fill="none" stroke="black" points="558,-131 558,-161 721,-161 721,-131 558,-131"/>
<text text-anchor="start" x="566" y="-149" font-family="Helvetica,sans-Serif" font-size="10.00">EncapsulateListIdentityResponse</text>
<text text-anchor="middle" x="639.5" y="-138" font-family="Helvetica,sans-Serif" font-size="10.00">Message</text>
</a>
</g>
</g>
<!-- Node14&#45;&gt;Node15 -->
<g id="edge15" class="edge"><title>Node14&#45;&gt;Node15</title>
<path fill="none" stroke="midnightblue" d="M517.2,-153.06C527.05,-152.486 537.324,-151.889 547.543,-151.294"/>
<polygon fill="midnightblue" stroke="midnightblue" points="547.946,-154.776 557.726,-150.701 547.539,-147.788 547.946,-154.776"/>
</g>
<!-- Node15&#45;&gt;Node11 -->
<g id="edge17" class="edge"><title>Node15&#45;&gt;Node11</title>
<path fill="none" stroke="midnightblue" d="M716.096,-161.05C769.257,-171.713 842.033,-186.47 906,-200 916.941,-202.314 928.648,-204.847 939.801,-207.288"/>
<polygon fill="midnightblue" stroke="midnightblue" points="939.334,-210.768 949.852,-209.494 940.835,-203.931 939.334,-210.768"/>
</g>
<!-- Node15&#45;&gt;Node12 -->
<g id="edge21" class="edge"><title>Node15&#45;&gt;Node12</title>
<path fill="none" stroke="midnightblue" d="M674.106,-161.002C697.22,-171.106 728.731,-184.46 757,-195 767.496,-198.914 778.96,-202.826 789.645,-206.322"/>
<polygon fill="midnightblue" stroke="midnightblue" points="788.597,-209.662 799.189,-209.404 790.748,-203 788.597,-209.662"/>
</g>
<!-- Node15&#45;&gt;Node13 -->
<g id="edge16" class="edge"><title>Node15&#45;&gt;Node13</title>
<path fill="none" stroke="midnightblue" d="M708.268,-130.996C724.174,-128.089 741.117,-125.487 757,-124 822.934,-117.829 840.164,-116.855 906,-124 919.642,-125.481 934.286,-128.238 947.575,-131.202"/>
<polygon fill="midnightblue" stroke="midnightblue" points="946.901,-134.639 957.433,-133.492 948.484,-127.82 946.901,-134.639"/>
</g>
<!-- Node16 -->
<g id="node16" class="node"><title>Node16</title>
<g id="a_node16"><a xlink:href="../../da/d73/endianconv_8c.html#a2e8bf172dd5ecba3cc0871278ab06538" target="_top" xlink:title="Encapsulate the sockaddr information as necessary for the Common Packet Format data items...">
<polygon fill="none" stroke="black" points="774,-133.5 774,-152.5 889,-152.5 889,-133.5 774,-133.5"/>
<text text-anchor="middle" x="831.5" y="-140.5" font-family="Helvetica,sans-Serif" font-size="10.00">EncapsulateIpAddress</text>
</a>
</g>
</g>
<!-- Node15&#45;&gt;Node16 -->
<g id="edge18" class="edge"><title>Node15&#45;&gt;Node16</title>
<path fill="none" stroke="midnightblue" d="M721.077,-144.728C735.262,-144.504 749.887,-144.273 763.645,-144.056"/>
<polygon fill="midnightblue" stroke="midnightblue" points="764.033,-147.55 773.976,-143.892 763.922,-140.551 764.033,-147.55"/>
</g>
<!-- Node17 -->
<g id="node17" class="node"><title>Node17</title>
<g id="a_node17"><a xlink:href="../../da/d73/endianconv_8c.html#af4e7ccbb21e333ad15028c531f0384c6" target="_top" xlink:title="MoveMessageNOctets">
<polygon fill="none" stroke="black" points="773,-57.5 773,-76.5 890,-76.5 890,-57.5 773,-57.5"/>
<text text-anchor="middle" x="831.5" y="-64.5" font-family="Helvetica,sans-Serif" font-size="10.00">MoveMessageNOctets</text>
</a>
</g>
</g>
<!-- Node15&#45;&gt;Node17 -->
<g id="edge22" class="edge"><title>Node15&#45;&gt;Node17</title>
<path fill="none" stroke="midnightblue" d="M698.797,-130.918C706.461,-128.069 714.057,-124.774 721,-121 739.298,-111.053 738.774,-101.08 757,-91 764.852,-86.6575 773.615,-82.9465 782.277,-79.8332"/>
<polygon fill="midnightblue" stroke="midnightblue" points="783.602,-83.0803 791.96,-76.5705 781.366,-76.4468 783.602,-83.0803"/>
</g>
<!-- Node16&#45;&gt;Node11 -->
<g id="edge20" class="edge"><title>Node16&#45;&gt;Node11</title>
<path fill="none" stroke="midnightblue" d="M867.143,-152.546C879.626,-156.444 893.668,-161.367 906,-167 928.727,-177.38 952.973,-192.33 969.995,-203.538"/>
<polygon fill="midnightblue" stroke="midnightblue" points="968.394,-206.678 978.652,-209.328 972.285,-200.859 968.394,-206.678"/>
</g>
<!-- Node16&#45;&gt;Node13 -->
<g id="edge19" class="edge"><title>Node16&#45;&gt;Node13</title>
<path fill="none" stroke="midnightblue" d="M889.361,-143C903.032,-143 917.689,-143 931.539,-143"/>
<polygon fill="midnightblue" stroke="midnightblue" points="931.942,-146.5 941.942,-143 931.942,-139.5 931.942,-146.5"/>
</g>
<!-- Node18&#45;&gt;Node15 -->
<g id="edge27" class="edge"><title>Node18&#45;&gt;Node15</title>
<path fill="none" stroke="midnightblue" d="M517.2,-121.612C528.95,-123.974 541.303,-126.458 553.447,-128.899"/>
<polygon fill="midnightblue" stroke="midnightblue" points="553.086,-132.397 563.58,-130.937 554.466,-125.534 553.086,-132.397"/>
</g>
<!-- Node19 -->
<g id="node19" class="node"><title>Node19</title>
<g id="a_node19"><a xlink:href="../../d2/dbd/encap_8c.html#a1e89285abfb378b98cd946a040dd8f5d" target="_top" xlink:title="DetermineDelayTime">
<polygon fill="none" stroke="black" points="585,-92.5 585,-111.5 694,-111.5 694,-92.5 585,-92.5"/>
<text text-anchor="middle" x="639.5" y="-99.5" font-family="Helvetica,sans-Serif" font-size="10.00">DetermineDelayTime</text>
</a>
</g>
</g>
<!-- Node18&#45;&gt;Node19 -->
<g id="edge24" class="edge"><title>Node18&#45;&gt;Node19</title>
<path fill="none" stroke="midnightblue" d="M517.2,-105.851C535.967,-105.255 556.273,-104.61 574.804,-104.022"/>
<polygon fill="midnightblue" stroke="midnightblue" points="575.011,-107.517 584.895,-103.702 574.789,-100.521 575.011,-107.517"/>
</g>
<!-- Node18&#45;&gt;Node20 -->
<g id="edge28" class="edge"><title>Node18&#45;&gt;Node20</title>
<path fill="none" stroke="midnightblue" d="M514.014,-92.9808C538.141,-87.364 565.176,-81.07 587.873,-75.7863"/>
<polygon fill="midnightblue" stroke="midnightblue" points="588.694,-79.1887 597.64,-73.5124 587.107,-72.3711 588.694,-79.1887"/>
</g>
<!-- Node19&#45;&gt;Node9 -->
<g id="edge25" class="edge"><title>Node19&#45;&gt;Node9</title>
<path fill="none" stroke="midnightblue" d="M694.399,-93.5467C703.598,-90.9212 712.816,-87.4875 721,-83 740.567,-72.2711 738.893,-61.0429 757,-48 769.85,-38.7441 785.263,-30.413 798.648,-23.9268"/>
<polygon fill="midnightblue" stroke="midnightblue" points="800.411,-26.9656 807.971,-19.543 797.432,-20.631 800.411,-26.9656"/>
</g>
<!-- Node19&#45;&gt;Node17 -->
<g id="edge26" class="edge"><title>Node19&#45;&gt;Node17</title>
<path fill="none" stroke="midnightblue" d="M692.167,-92.4823C715.83,-88.1235 744.057,-82.9237 768.824,-78.3614"/>
<polygon fill="midnightblue" stroke="midnightblue" points="769.642,-81.7696 778.843,-76.5158 768.374,-74.8854 769.642,-81.7696"/>
</g>
<!-- Node21&#45;&gt;Node11 -->
<g id="edge30" class="edge"><title>Node21&#45;&gt;Node11</title>
<path fill="none" stroke="midnightblue" d="M713.781,-269.176C767.595,-270.575 842.135,-269.014 906,-255 926.852,-250.424 949.058,-241.079 965.75,-233.056"/>
<polygon fill="midnightblue" stroke="midnightblue" points="967.479,-236.105 974.888,-228.532 964.373,-229.832 967.479,-236.105"/>
</g>
<!-- Node21&#45;&gt;Node12 -->
<g id="edge31" class="edge"><title>Node21&#45;&gt;Node12</title>
<path fill="none" stroke="midnightblue" d="M702.713,-249.938C728.187,-243.771 757.246,-236.735 781.21,-230.933"/>
<polygon fill="midnightblue" stroke="midnightblue" points="782.247,-234.283 791.143,-228.529 780.6,-227.48 782.247,-234.283"/>
</g>
</g>
</svg>
