<?xml version="1.0" encoding="UTF-8" standalone="no"?>
<!DOCTYPE svg PUBLIC "-//W3C//DTD SVG 1.1//EN"
 "http://www.w3.org/Graphics/SVG/1.1/DTD/svg11.dtd">
<!-- Generated by graphviz version 2.38.0 (20140413.2041)
 -->
<!-- Title: CloseTcpSocket Pages: 1 -->
<!--zoomable 240 -->
<svg id="main" version="1.1" xmlns="http://www.w3.org/2000/svg" xmlns:xlink="http://www.w3.org/1999/xlink" xml:space="preserve" onload="init(evt)">
<style type="text/css"><![CDATA[
.edge:hover path { stroke: red; }
.edge:hover polygon { stroke: red; fill: red; }
]]></style>
<script type="text/javascript"><![CDATA[
var edges = document.getElementsByTagName('g');
if (edges && edges.length) {
  for (var i=0;i<edges.length;i++) {
    if (edges[i].id.substr(0,4)=='edge') {
      edges[i].setAttribute('class','edge');
    }
  }
}
]]></script>
        <defs>
                <circle id="rim" cx="0" cy="0" r="7"/>
                <circle id="rim2" cx="0" cy="0" r="3.5"/>
                <g id="zoomPlus">
                        <use xlink:href="#rim" fill="#404040">
                                <set attributeName="fill" to="#808080" begin="zoomplus.mouseover" end="zoomplus.mouseout"/>
                        </use>
                        <path d="M-4,0h8M0,-4v8" fill="none" stroke="white" stroke-width="1.5" pointer-events="none"/>
                </g>
                <g id="zoomMin">
                        <use xlink:href="#rim" fill="#404040">
                                <set attributeName="fill" to="#808080" begin="zoomminus.mouseover" end="zoomminus.mouseout"/>
                        </use>
                        <path d="M-4,0h8" fill="none" stroke="white" stroke-width="1.5" pointer-events="none"/>
                </g>
                <g id="dirArrow">
                        <path fill="none" stroke="white" stroke-width="1.5" d="M0,-3.0v7 M-2.5,-0.5L0,-3.0L2.5,-0.5"/>
                </g>
               <g id="resetDef">
                       <use xlink:href="#rim2" fill="#404040">
                               <set attributeName="fill" to="#808080" begin="reset.mouseover" end="reset.mouseout"/>
                       </use>
               </g>
        </defs>

<script type="text/javascript">
var viewWidth = 1564;
var viewHeight = 240;
var sectionId = 'dynsection-13';
</script>
<script xlink:href="../../svgpan.js"/>
<svg id="graph" class="graph">
<g id="viewport">
<title>CloseTcpSocket</title>
<!-- Node1 -->
<g id="node1" class="node"><title>Node1</title>
<polygon fill="#bfbfbf" stroke="black" points="0,-98.5 0,-117.5 89,-117.5 89,-98.5 0,-98.5"/>
<text text-anchor="middle" x="44.5" y="-105.5" font-family="Helvetica,sans-Serif" font-size="10.00">CloseTcpSocket</text>
</g>
<!-- Node2 -->
<g id="node2" class="node"><title>Node2</title>
<g id="a_node2"><a xlink:href="../../db/d4f/generic__networkhandler_8c.html#ab561fc66fe48a0cf95be3d152b297dd9" target="_top" xlink:title="CheckEncapsulationInactivity">
<polygon fill="none" stroke="black" points="497,-202.5 497,-221.5 643,-221.5 643,-202.5 497,-202.5"/>
<text text-anchor="middle" x="570" y="-209.5" font-family="Helvetica,sans-Serif" font-size="10.00">CheckEncapsulationInactivity</text>
</a>
</g>
</g>
<!-- Node1&#45;&gt;Node2 -->
<g id="edge1" class="edge"><title>Node1&#45;&gt;Node2</title>
<path fill="none" stroke="midnightblue" d="M57.3183,-126.131C71.0133,-145.374 95.5167,-174.789 125,-188 253.213,-245.451 423.535,-233.344 511.289,-221.545"/>
<polygon fill="midnightblue" stroke="midnightblue" points="60.0266,-123.891 51.4892,-117.618 54.2507,-127.846 60.0266,-123.891"/>
</g>
<!-- Node3 -->
<g id="node3" class="node"><title>Node3</title>
<g id="a_node3"><a xlink:href="../../da/dc2/generic__networkhandler_8h.html#a2f01af81d3e5018d9980e2bc28c9078a" target="_top" xlink:title="NetworkHandlerProcessOnce">
<polygon fill="none" stroke="black" points="689,-162.5 689,-181.5 835,-181.5 835,-162.5 689,-162.5"/>
<text text-anchor="middle" x="762" y="-169.5" font-family="Helvetica,sans-Serif" font-size="10.00">NetworkHandlerProcessOnce</text>
</a>
</g>
</g>
<!-- Node1&#45;&gt;Node3 -->
<g id="edge26" class="edge"><title>Node1&#45;&gt;Node3</title>
<path fill="none" stroke="midnightblue" d="M65.7597,-123.54C81.1044,-134.322 103.199,-147.816 125,-154 228.943,-183.487 545.414,-178.419 688.906,-174.389"/>
<polygon fill="midnightblue" stroke="midnightblue" points="67.7056,-120.628 57.5583,-117.581 63.5909,-126.291 67.7056,-120.628"/>
</g>
<!-- Node8 -->
<g id="node8" class="node"><title>Node8</title>
<g id="a_node8"><a xlink:href="../../d2/dc9/group__CIP__API.html#ga00a23c1c86472edf2ed679089ae8efc1" target="_top" xlink:title="Inform the encapsulation layer that the remote host has closed the connection. ">
<polygon fill="none" stroke="black" points="153.5,-38.5 153.5,-57.5 230.5,-57.5 230.5,-38.5 153.5,-38.5"/>
<text text-anchor="middle" x="192" y="-45.5" font-family="Helvetica,sans-Serif" font-size="10.00">CloseSession</text>
</a>
</g>
</g>
<!-- Node1&#45;&gt;Node8 -->
<g id="edge7" class="edge"><title>Node1&#45;&gt;Node8</title>
<path fill="none" stroke="midnightblue" d="M74.8037,-94.0838C89.7148,-87.1682 108.196,-78.8483 125,-72 137.42,-66.9384 151.352,-61.7955 163.204,-57.5756"/>
<polygon fill="midnightblue" stroke="midnightblue" points="73.1524,-90.992 65.574,-98.396 76.1155,-97.334 73.1524,-90.992"/>
</g>
<!-- Node15 -->
<g id="node15" class="node"><title>Node15</title>
<g id="a_node15"><a xlink:href="../../d7/df9/encap_8h.html#ad083888333d3ceec1576126a88eeaca7" target="_top" xlink:title="CloseSessionBySessionHandle">
<polygon fill="none" stroke="black" points="295.5,-85.5 295.5,-104.5 450.5,-104.5 450.5,-85.5 295.5,-85.5"/>
<text text-anchor="middle" x="373" y="-92.5" font-family="Helvetica,sans-Serif" font-size="10.00">CloseSessionBySessionHandle</text>
</a>
</g>
</g>
<!-- Node1&#45;&gt;Node15 -->
<g id="edge15" class="edge"><title>Node1&#45;&gt;Node15</title>
<path fill="none" stroke="midnightblue" d="M99.4818,-105.851C152.92,-103.723 235.237,-100.445 295.42,-98.0491"/>
<polygon fill="midnightblue" stroke="midnightblue" points="99.0473,-102.365 89.1945,-106.26 99.3258,-109.36 99.0473,-102.365"/>
</g>
<!-- Node18 -->
<g id="node18" class="node"><title>Node18</title>
<g id="a_node18"><a xlink:href="../../d4/d91/group__ENCAP.html#ga1261bd2441f744c38d7a3f8d8c16c391" target="_top" xlink:title="Shutdown the encapsulation layer. ">
<polygon fill="none" stroke="black" points="871,-0.5 871,-19.5 995,-19.5 995,-0.5 871,-0.5"/>
<text text-anchor="middle" x="933" y="-7.5" font-family="Helvetica,sans-Serif" font-size="10.00">EncapsulationShutDown</text>
</a>
</g>
</g>
<!-- Node1&#45;&gt;Node18 -->
<g id="edge19" class="edge"><title>Node1&#45;&gt;Node18</title>
<path fill="none" stroke="midnightblue" d="M57.6774,-89.9894C71.5365,-71.1474 96.0435,-42.4747 125,-29 224.923,17.4985 261.788,-7 372,-7 372,-7 372,-7 571,-7 676.295,-7 798.86,-8.29199 870.682,-9.18024"/>
<polygon fill="midnightblue" stroke="midnightblue" points="54.6855,-88.1579 51.7563,-98.3398 60.3956,-92.2069 54.6855,-88.1579"/>
</g>
<!-- Node20 -->
<g id="node20" class="node"><title>Node20</title>
<g id="a_node20"><a xlink:href="../../d2/dbd/encap_8c.html#a601cd19c88f03fd742f098a1bf5b9e85" target="_top" xlink:title="HandleReceivedUnregister\lSessionCommand">
<polygon fill="none" stroke="black" points="125,-115 125,-145 259,-145 259,-115 125,-115"/>
<text text-anchor="start" x="133" y="-133" font-family="Helvetica,sans-Serif" font-size="10.00">HandleReceivedUnregister</text>
<text text-anchor="middle" x="192" y="-122" font-family="Helvetica,sans-Serif" font-size="10.00">SessionCommand</text>
</a>
</g>
</g>
<!-- Node1&#45;&gt;Node20 -->
<g id="edge22" class="edge"><title>Node1&#45;&gt;Node20</title>
<path fill="none" stroke="midnightblue" d="M99.1262,-116.108C107.475,-117.371 116.185,-118.688 124.773,-119.986"/>
<polygon fill="midnightblue" stroke="midnightblue" points="99.5657,-112.635 89.1548,-114.601 98.5191,-119.557 99.5657,-112.635"/>
</g>
<!-- Node2&#45;&gt;Node3 -->
<g id="edge2" class="edge"><title>Node2&#45;&gt;Node3</title>
<path fill="none" stroke="midnightblue" d="M626.312,-200.355C654.77,-194.364 689.021,-187.153 715.862,-181.503"/>
<polygon fill="midnightblue" stroke="midnightblue" points="625.574,-196.934 616.51,-202.419 627.016,-203.784 625.574,-196.934"/>
</g>
<!-- Node4 -->
<g id="node4" class="node"><title>Node4</title>
<g id="a_node4"><a xlink:href="../../d5/dcb/MINGW_2main_8c.html#ad338a7dbc41dc40bcecd0479377ef207" target="_top" xlink:title="main">
<polygon fill="none" stroke="black" points="1291,-61.5 1291,-80.5 1329,-80.5 1329,-61.5 1291,-61.5"/>
<text text-anchor="middle" x="1310" y="-68.5" font-family="Helvetica,sans-Serif" font-size="10.00">main</text>
</a>
</g>
</g>
<!-- Node3&#45;&gt;Node4 -->
<g id="edge3" class="edge"><title>Node3&#45;&gt;Node4</title>
<path fill="none" stroke="midnightblue" d="M826.494,-160.704C841.107,-158.139 856.589,-155.45 871,-153 1041.5,-124.017 1087.45,-132.867 1255,-90 1267.13,-86.8962 1280.4,-82.245 1290.75,-78.3215"/>
<polygon fill="midnightblue" stroke="midnightblue" points="825.781,-157.276 816.539,-162.455 826.994,-164.17 825.781,-157.276"/>
</g>
<!-- Node7 -->
<g id="node7" class="node"><title>Node7</title>
<g id="a_node7"><a xlink:href="../../d9/dfb/POSIX_2main_8c.html#acd4e45a35a64f9cb29b59f63492b61d2" target="_top" xlink:title="Signal handler function for ending stack execution. ">
<polygon fill="none" stroke="black" points="899,-162.5 899,-181.5 967,-181.5 967,-162.5 899,-162.5"/>
<text text-anchor="middle" x="933" y="-169.5" font-family="Helvetica,sans-Serif" font-size="10.00">LeaveStack</text>
</a>
</g>
</g>
<!-- Node3&#45;&gt;Node7 -->
<g id="edge6" class="edge"><title>Node3&#45;&gt;Node7</title>
<path fill="none" stroke="midnightblue" d="M845.306,-172C864.188,-172 883.216,-172 898.616,-172"/>
<polygon fill="midnightblue" stroke="midnightblue" points="845.161,-168.5 835.161,-172 845.161,-175.5 845.161,-168.5"/>
</g>
<!-- Node5 -->
<g id="node5" class="node"><title>Node5</title>
<g id="a_node5"><a xlink:href="../../d8/d03/ports_2MINGW_2CMakeLists_8txt.html#a7e00df43a20d627a1732be7766d91097" target="_top" xlink:title="add_library">
<polygon fill="none" stroke="black" points="1365,-61.5 1365,-80.5 1429,-80.5 1429,-61.5 1365,-61.5"/>
<text text-anchor="middle" x="1397" y="-68.5" font-family="Helvetica,sans-Serif" font-size="10.00">add_library</text>
</a>
</g>
</g>
<!-- Node4&#45;&gt;Node5 -->
<g id="edge4" class="edge"><title>Node4&#45;&gt;Node5</title>
<path fill="none" stroke="midnightblue" d="M1339.27,-71C1347.5,-71 1356.55,-71 1364.94,-71"/>
<polygon fill="midnightblue" stroke="midnightblue" points="1339.03,-67.5001 1329.03,-71 1339.03,-74.5001 1339.03,-67.5001"/>
</g>
<!-- Node6 -->
<g id="node6" class="node"><title>Node6</title>
<g id="a_node6"><a xlink:href="../../d8/dce/ports_2CMakeLists_8txt.html#a598fae457555a5fb26e18d4cd8f89de9" target="_top" xlink:title="add_subdirectory">
<polygon fill="none" stroke="black" points="1465,-61.5 1465,-80.5 1556,-80.5 1556,-61.5 1465,-61.5"/>
<text text-anchor="middle" x="1510.5" y="-68.5" font-family="Helvetica,sans-Serif" font-size="10.00">add_subdirectory</text>
</a>
</g>
</g>
<!-- Node5&#45;&gt;Node6 -->
<g id="edge5" class="edge"><title>Node5&#45;&gt;Node6</title>
<path fill="none" stroke="midnightblue" d="M1439.3,-71C1447.63,-71 1456.42,-71 1464.86,-71"/>
<polygon fill="midnightblue" stroke="midnightblue" points="1439.06,-67.5001 1429.06,-71 1439.06,-74.5001 1439.06,-67.5001"/>
</g>
<!-- Node9 -->
<g id="node9" class="node"><title>Node9</title>
<g id="a_node9"><a xlink:href="../../d7/df9/encap_8h.html#a0101714be726ab1b21125b6a82ac7a56" target="_top" xlink:title="CloseEncapsulationSession\lBySockAddr">
<polygon fill="none" stroke="black" points="303.5,-36 303.5,-66 442.5,-66 442.5,-36 303.5,-36"/>
<text text-anchor="start" x="311.5" y="-54" font-family="Helvetica,sans-Serif" font-size="10.00">CloseEncapsulationSession</text>
<text text-anchor="middle" x="373" y="-43" font-family="Helvetica,sans-Serif" font-size="10.00">BySockAddr</text>
</a>
</g>
</g>
<!-- Node8&#45;&gt;Node9 -->
<g id="edge8" class="edge"><title>Node8&#45;&gt;Node9</title>
<path fill="none" stroke="midnightblue" d="M240.559,-48.7971C259.825,-49.12 282.442,-49.499 303.432,-49.8508"/>
<polygon fill="midnightblue" stroke="midnightblue" points="240.582,-45.2971 230.524,-48.6289 240.464,-52.2961 240.582,-45.2971"/>
</g>
<!-- Node10 -->
<g id="node10" class="node"><title>Node10</title>
<g id="a_node10"><a xlink:href="../../df/d03/cipioconnection_8c.html#a7e4923f4b027d489d9933b52f6fd7007" target="_top" xlink:title="HandleIoConnectionTimeOut">
<polygon fill="none" stroke="black" points="498.5,-41.5 498.5,-60.5 641.5,-60.5 641.5,-41.5 498.5,-41.5"/>
<text text-anchor="middle" x="570" y="-48.5" font-family="Helvetica,sans-Serif" font-size="10.00">HandleIoConnectionTimeOut</text>
</a>
</g>
</g>
<!-- Node9&#45;&gt;Node10 -->
<g id="edge9" class="edge"><title>Node9&#45;&gt;Node10</title>
<path fill="none" stroke="midnightblue" d="M452.998,-51C467.967,-51 483.54,-51 498.234,-51"/>
<polygon fill="midnightblue" stroke="midnightblue" points="452.75,-47.5001 442.75,-51 452.75,-54.5001 452.75,-47.5001"/>
</g>
<!-- Node11 -->
<g id="node11" class="node"><title>Node11</title>
<g id="a_node11"><a xlink:href="../../df/d03/cipioconnection_8c.html#ab3282f146a3ea91c90cf14c32206ee8c" target="_top" xlink:title="SetIoConnectionCallbacks">
<polygon fill="none" stroke="black" points="695.5,-41.5 695.5,-60.5 828.5,-60.5 828.5,-41.5 695.5,-41.5"/>
<text text-anchor="middle" x="762" y="-48.5" font-family="Helvetica,sans-Serif" font-size="10.00">SetIoConnectionCallbacks</text>
</a>
</g>
</g>
<!-- Node10&#45;&gt;Node11 -->
<g id="edge10" class="edge"><title>Node10&#45;&gt;Node11</title>
<path fill="none" stroke="midnightblue" d="M652.127,-51C666.511,-51 681.328,-51 695.222,-51"/>
<polygon fill="midnightblue" stroke="midnightblue" points="651.749,-47.5001 641.749,-51 651.749,-54.5001 651.749,-47.5001"/>
</g>
<!-- Node12 -->
<g id="node12" class="node"><title>Node12</title>
<g id="a_node12"><a xlink:href="../../de/d45/cipioconnection_8h.html#a43e270b3f9b9f6296b12285c320c95aa" target="_top" xlink:title="Setup all data in order to establish an IO connection. ">
<polygon fill="none" stroke="black" points="875.5,-41.5 875.5,-60.5 990.5,-60.5 990.5,-41.5 875.5,-41.5"/>
<text text-anchor="middle" x="933" y="-48.5" font-family="Helvetica,sans-Serif" font-size="10.00">EstablishIoConnection</text>
</a>
</g>
</g>
<!-- Node11&#45;&gt;Node12 -->
<g id="edge11" class="edge"><title>Node11&#45;&gt;Node12</title>
<path fill="none" stroke="midnightblue" d="M839.022,-51C851.257,-51 863.732,-51 875.406,-51"/>
<polygon fill="midnightblue" stroke="midnightblue" points="838.824,-47.5001 828.824,-51 838.824,-54.5001 838.824,-47.5001"/>
</g>
<!-- Node13 -->
<g id="node13" class="node"><title>Node13</title>
<g id="a_node13"><a xlink:href="../../d2/da3/cipconnectionmanager_8h.html#a5ab0de6894d23e8fe84a6b46797c2212" target="_top" xlink:title="Initialize the data of the connection manager object. ">
<polygon fill="none" stroke="black" points="1031,-61.5 1031,-80.5 1148,-80.5 1148,-61.5 1031,-61.5"/>
<text text-anchor="middle" x="1089.5" y="-68.5" font-family="Helvetica,sans-Serif" font-size="10.00">ConnectionManagerInit</text>
</a>
</g>
</g>
<!-- Node12&#45;&gt;Node13 -->
<g id="edge12" class="edge"><title>Node12&#45;&gt;Node13</title>
<path fill="none" stroke="midnightblue" d="M1000.6,-59.6219C1010.66,-60.9241 1020.97,-62.2581 1030.82,-63.5332"/>
<polygon fill="midnightblue" stroke="midnightblue" points="1001.02,-56.1465 990.653,-58.3337 1000.12,-63.0886 1001.02,-56.1465"/>
</g>
<!-- Node14 -->
<g id="node14" class="node"><title>Node14</title>
<g id="a_node14"><a xlink:href="../../d2/dc9/group__CIP__API.html#ga5d4979945d124e28668b264c3823db1c" target="_top" xlink:title="Initialize and setup the CIP&#45;stack. ">
<polygon fill="none" stroke="black" points="1184,-61.5 1184,-80.5 1255,-80.5 1255,-61.5 1184,-61.5"/>
<text text-anchor="middle" x="1219.5" y="-68.5" font-family="Helvetica,sans-Serif" font-size="10.00">CipStackInit</text>
</a>
</g>
</g>
<!-- Node13&#45;&gt;Node14 -->
<g id="edge13" class="edge"><title>Node13&#45;&gt;Node14</title>
<path fill="none" stroke="midnightblue" d="M1158.18,-71C1167.08,-71 1175.88,-71 1183.9,-71"/>
<polygon fill="midnightblue" stroke="midnightblue" points="1158.13,-67.5001 1148.13,-71 1158.13,-74.5001 1158.13,-67.5001"/>
</g>
<!-- Node14&#45;&gt;Node4 -->
<g id="edge14" class="edge"><title>Node14&#45;&gt;Node4</title>
<path fill="none" stroke="midnightblue" d="M1265.38,-71C1274.44,-71 1283.45,-71 1290.92,-71"/>
<polygon fill="midnightblue" stroke="midnightblue" points="1265.22,-67.5001 1255.22,-71 1265.22,-74.5001 1265.22,-67.5001"/>
</g>
<!-- Node16 -->
<g id="node16" class="node"><title>Node16</title>
<g id="a_node16"><a xlink:href="../../dc/d93/cipclass3connection_8c.html#a6053ab7004c1419bd80faf9aca54bfd3" target="_top" xlink:title="Class3ConnectionTimeoutHandler">
<polygon fill="none" stroke="black" points="487,-82.5 487,-101.5 653,-101.5 653,-82.5 487,-82.5"/>
<text text-anchor="middle" x="570" y="-89.5" font-family="Helvetica,sans-Serif" font-size="10.00">Class3ConnectionTimeoutHandler</text>
</a>
</g>
</g>
<!-- Node15&#45;&gt;Node16 -->
<g id="edge16" class="edge"><title>Node15&#45;&gt;Node16</title>
<path fill="none" stroke="midnightblue" d="M460.68,-93.6665C469.405,-93.5322 478.246,-93.3962 486.921,-93.2628"/>
<polygon fill="midnightblue" stroke="midnightblue" points="460.454,-90.1694 450.509,-93.8229 460.562,-97.1686 460.454,-90.1694"/>
</g>
<!-- Node17 -->
<g id="node17" class="node"><title>Node17</title>
<g id="a_node17"><a xlink:href="../../d2/d11/cipclass3connection_8h.html#a45bd741b44137164c07a6ce09a7a9a9d" target="_top" xlink:title="Check if Class3 connection is available and if yes setup all data. ">
<polygon fill="none" stroke="black" points="693.5,-81.5 693.5,-100.5 830.5,-100.5 830.5,-81.5 693.5,-81.5"/>
<text text-anchor="middle" x="762" y="-88.5" font-family="Helvetica,sans-Serif" font-size="10.00">EstablishClass3Connection</text>
</a>
</g>
</g>
<!-- Node16&#45;&gt;Node17 -->
<g id="edge17" class="edge"><title>Node16&#45;&gt;Node17</title>
<path fill="none" stroke="midnightblue" d="M663.359,-91.5139C673.517,-91.4604 683.715,-91.4068 693.489,-91.3553"/>
<polygon fill="midnightblue" stroke="midnightblue" points="663.213,-88.0145 653.232,-91.5672 663.25,-95.0144 663.213,-88.0145"/>
</g>
<!-- Node17&#45;&gt;Node13 -->
<g id="edge18" class="edge"><title>Node17&#45;&gt;Node13</title>
<path fill="none" stroke="midnightblue" d="M841.129,-86.1995C899.517,-82.6119 978.035,-77.7874 1030.81,-74.5446"/>
<polygon fill="midnightblue" stroke="midnightblue" points="840.606,-82.7249 830.839,-86.8317 841.035,-89.7117 840.606,-82.7249"/>
</g>
<!-- Node19 -->
<g id="node19" class="node"><title>Node19</title>
<g id="a_node19"><a xlink:href="../../d2/dc9/group__CIP__API.html#gaa57b527530adc2acda6febc500fd6831" target="_top" xlink:title="Shutdown of the CIP stack. ">
<polygon fill="none" stroke="black" points="1039,-6.5 1039,-25.5 1140,-25.5 1140,-6.5 1039,-6.5"/>
<text text-anchor="middle" x="1089.5" y="-13.5" font-family="Helvetica,sans-Serif" font-size="10.00">ShutdownCipStack</text>
</a>
</g>
</g>
<!-- Node18&#45;&gt;Node19 -->
<g id="edge20" class="edge"><title>Node18&#45;&gt;Node19</title>
<path fill="none" stroke="midnightblue" d="M1005.37,-12.7715C1016.67,-13.2104 1028.14,-13.6559 1038.8,-14.0701"/>
<polygon fill="midnightblue" stroke="midnightblue" points="1005.19,-9.26215 995.062,-12.3714 1004.92,-16.2569 1005.19,-9.26215"/>
</g>
<!-- Node19&#45;&gt;Node4 -->
<g id="edge21" class="edge"><title>Node19&#45;&gt;Node4</title>
<path fill="none" stroke="midnightblue" d="M1150.12,-27.2088C1181.55,-33.5792 1220.62,-42.2287 1255,-52 1267.05,-55.4231 1280.32,-60.0793 1290.69,-63.9256"/>
<polygon fill="midnightblue" stroke="midnightblue" points="1150.69,-23.7539 1140.2,-25.2221 1149.32,-30.6176 1150.69,-23.7539"/>
</g>
<!-- Node21 -->
<g id="node21" class="node"><title>Node21</title>
<g id="a_node21"><a xlink:href="../../d2/dc9/group__CIP__API.html#ga16eaeeb12ba23b5a75c8e5902a33d70a" target="_top" xlink:title="Notify the encapsulation layer that an explicit message has been received via TCP. ">
<polygon fill="none" stroke="black" points="295,-124.5 295,-143.5 451,-143.5 451,-124.5 295,-124.5"/>
<text text-anchor="middle" x="373" y="-131.5" font-family="Helvetica,sans-Serif" font-size="10.00">HandleReceivedExplictTcpData</text>
</a>
</g>
</g>
<!-- Node20&#45;&gt;Node21 -->
<g id="edge23" class="edge"><title>Node20&#45;&gt;Node21</title>
<path fill="none" stroke="midnightblue" d="M269.37,-131.707C277.836,-131.896 286.462,-132.089 294.936,-132.278"/>
<polygon fill="midnightblue" stroke="midnightblue" points="269.22,-128.202 259.144,-131.478 269.064,-135.201 269.22,-128.202"/>
</g>
<!-- Node22 -->
<g id="node22" class="node"><title>Node22</title>
<g id="a_node22"><a xlink:href="../../db/d4f/generic__networkhandler_8c.html#aca5593b7dd39d7a7b437999a367102d6" target="_top" xlink:title="Handles data on an established TCP connection, processed connection is given by socket. ">
<polygon fill="none" stroke="black" points="506,-125.5 506,-144.5 634,-144.5 634,-125.5 506,-125.5"/>
<text text-anchor="middle" x="570" y="-132.5" font-family="Helvetica,sans-Serif" font-size="10.00">HandleDataOnTcpSocket</text>
</a>
</g>
</g>
<!-- Node21&#45;&gt;Node22 -->
<g id="edge24" class="edge"><title>Node21&#45;&gt;Node22</title>
<path fill="none" stroke="midnightblue" d="M461.396,-134.448C476.413,-134.525 491.753,-134.604 505.971,-134.677"/>
<polygon fill="midnightblue" stroke="midnightblue" points="461.087,-130.947 451.069,-134.395 461.051,-137.947 461.087,-130.947"/>
</g>
<!-- Node22&#45;&gt;Node3 -->
<g id="edge25" class="edge"><title>Node22&#45;&gt;Node3</title>
<path fill="none" stroke="midnightblue" d="M629.788,-146.448C656.124,-151.577 686.825,-157.555 711.906,-162.44"/>
<polygon fill="midnightblue" stroke="midnightblue" points="630.414,-143.004 619.93,-144.528 629.076,-149.875 630.414,-143.004"/>
</g>
</g>
</svg>
        <g id="navigator" transform="translate(0 0)" fill="#404254">
                <rect fill="#f2f5e9" fill-opacity="0.5" stroke="#606060" stroke-width=".5" x="0" y="0" width="60" height="60"/>
                <use id="zoomplus" xlink:href="#zoomPlus" x="17" y="9" onmousedown="handleZoom(evt,'in')"/>
                <use id="zoomminus" xlink:href="#zoomMin" x="42" y="9" onmousedown="handleZoom(evt,'out')"/>
                <use id="reset" xlink:href="#resetDef" x="30" y="36" onmousedown="handleReset()"/>
                <g id="arrowUp" xlink:href="#dirArrow" transform="translate(30 24)" onmousedown="handlePan(0,-1)">
                  <use xlink:href="#rim" fill="#404040">
                        <set attributeName="fill" to="#808080" begin="arrowUp.mouseover" end="arrowUp.mouseout"/>
                  </use>
                  <path fill="none" stroke="white" stroke-width="1.5" d="M0,-3.0v7 M-2.5,-0.5L0,-3.0L2.5,-0.5"/>
                </g>
                <g id="arrowRight" xlink:href="#dirArrow" transform="rotate(90) translate(36 -43)" onmousedown="handlePan(1,0)">
                  <use xlink:href="#rim" fill="#404040">
                        <set attributeName="fill" to="#808080" begin="arrowRight.mouseover" end="arrowRight.mouseout"/>
                  </use>
                  <path fill="none" stroke="white" stroke-width="1.5" d="M0,-3.0v7 M-2.5,-0.5L0,-3.0L2.5,-0.5"/>
                </g>
                <g id="arrowDown" xlink:href="#dirArrow" transform="rotate(180) translate(-30 -48)" onmousedown="handlePan(0,1)">
                  <use xlink:href="#rim" fill="#404040">
                        <set attributeName="fill" to="#808080" begin="arrowDown.mouseover" end="arrowDown.mouseout"/>
                  </use>
                  <path fill="none" stroke="white" stroke-width="1.5" d="M0,-3.0v7 M-2.5,-0.5L0,-3.0L2.5,-0.5"/>
                </g>
                <g id="arrowLeft" xlink:href="#dirArrow" transform="rotate(270) translate(-36 17)" onmousedown="handlePan(-1,0)">
                  <use xlink:href="#rim" fill="#404040">
                        <set attributeName="fill" to="#808080" begin="arrowLeft.mouseover" end="arrowLeft.mouseout"/>
                  </use>
                  <path fill="none" stroke="white" stroke-width="1.5" d="M0,-3.0v7 M-2.5,-0.5L0,-3.0L2.5,-0.5"/>
                </g>
        </g>
        <svg viewBox="0 0 15 15" width="100%" height="30px" preserveAspectRatio="xMaxYMin meet">
         <g id="arrow_out" transform="scale(0.3 0.3)">
          <a xlink:href="generic__networkhandler_8c_a1bfa5ef8e4802716459a56567ee16592_icgraph_org.svg" target="_base">
           <rect id="button" ry="5" rx="5" y="6" x="6" height="38" width="38"
                fill="#f2f5e9" fill-opacity="0.5" stroke="#606060" stroke-width="1.0"/>
           <path id="arrow"
             d="M 11.500037,31.436501 C 11.940474,20.09759 22.043105,11.32322 32.158766,21.979434 L 37.068811,17.246167 C 37.068811,17.246167 37.088388,32 37.088388,32 L 22.160133,31.978069 C 22.160133,31.978069 26.997745,27.140456 26.997745,27.140456 C 18.528582,18.264221 13.291696,25.230495 11.500037,31.436501 z"
             style="fill:#404040;"/>
          </a>
         </g>
        </svg>
</svg>
