<?xml version="1.0" encoding="UTF-8" standalone="no"?>
<!DOCTYPE svg PUBLIC "-//W3C//DTD SVG 1.1//EN"
 "http://www.w3.org/Graphics/SVG/1.1/DTD/svg11.dtd">
<!-- Generated by graphviz version 2.36.0 (20140111.2315)
 -->
<!-- Title: CheckAndHandleUdpUnicastSocket Pages: 1 -->
<svg width="1058pt" height="302pt"
 viewBox="0.00 0.00 1058.00 302.00" xmlns="http://www.w3.org/2000/svg" xmlns:xlink="http://www.w3.org/1999/xlink">
<g id="graph0" class="graph" transform="scale(1 1) rotate(0) translate(4 298)">
<title>CheckAndHandleUdpUnicastSocket</title>
<!-- Node1 -->
<g id="node1" class="node"><title>Node1</title>
<polygon fill="#bfbfbf" stroke="black" points="0.5,-174 0.5,-204 145.5,-204 145.5,-174 0.5,-174"/>
<text text-anchor="start" x="8.5" y="-192" font-family="Helvetica,sans-Serif" font-size="10.00">CheckAndHandleUdpUnicast</text>
<text text-anchor="middle" x="73" y="-181" font-family="Helvetica,sans-Serif" font-size="10.00">Socket</text>
</g>
<!-- Node2 -->
<g id="node2" class="node"><title>Node2</title>
<g id="a_node2"><a xlink:href="../../db/d4f/generic__networkhandler_8c.html#acebcfe03d5528a69d288c446ff3048b1" target="_top" xlink:title="check if the given socket is set in the read set ">
<polygon fill="none" stroke="black" points="215.5,-274.5 215.5,-293.5 306.5,-293.5 306.5,-274.5 215.5,-274.5"/>
<text text-anchor="middle" x="261" y="-281.5" font-family="Helvetica,sans-Serif" font-size="10.00">CheckSocketSet</text>
</a>
</g>
</g>
<!-- Node1&#45;&gt;Node2 -->
<g id="edge1" class="edge"><title>Node1&#45;&gt;Node2</title>
<path fill="none" stroke="midnightblue" d="M91.078,-204.124C111.375,-221.325 146.926,-249.081 182,-265 189.399,-268.358 197.473,-271.172 205.531,-273.516"/>
<polygon fill="midnightblue" stroke="midnightblue" points="204.739,-276.927 215.305,-276.146 206.558,-270.168 204.739,-276.927"/>
</g>
<!-- Node3 -->
<g id="node3" class="node"><title>Node3</title>
<g id="a_node3"><a xlink:href="../../d8/d60/MINGW_2opener__error_8c.html#a99f5295ad12a2b986bab4b89a24cfc20" target="_top" xlink:title="Frees the space of the error message generated by GetErrorMessage(int) ">
<polygon fill="none" stroke="black" points="212.5,-236.5 212.5,-255.5 309.5,-255.5 309.5,-236.5 212.5,-236.5"/>
<text text-anchor="middle" x="261" y="-243.5" font-family="Helvetica,sans-Serif" font-size="10.00">FreeErrorMessage</text>
</a>
</g>
</g>
<!-- Node1&#45;&gt;Node3 -->
<g id="edge2" class="edge"><title>Node1&#45;&gt;Node3</title>
<path fill="none" stroke="midnightblue" d="M113.696,-204.031C133.975,-211.437 159.135,-220.211 182,-227 190.163,-229.424 198.872,-231.773 207.402,-233.945"/>
<polygon fill="midnightblue" stroke="midnightblue" points="206.739,-237.387 217.289,-236.407 208.431,-230.594 206.739,-237.387"/>
</g>
<!-- Node4 -->
<g id="node4" class="node"><title>Node4</title>
<g id="a_node4"><a xlink:href="../../d8/d60/MINGW_2opener__error_8c.html#a0df2625909cb28076bc7df8e6c9cfcae" target="_top" xlink:title="Returns a human readable message for the given error number. ">
<polygon fill="none" stroke="black" points="214.5,-198.5 214.5,-217.5 307.5,-217.5 307.5,-198.5 214.5,-198.5"/>
<text text-anchor="middle" x="261" y="-205.5" font-family="Helvetica,sans-Serif" font-size="10.00">GetErrorMessage</text>
</a>
</g>
</g>
<!-- Node1&#45;&gt;Node4 -->
<g id="edge3" class="edge"><title>Node1&#45;&gt;Node4</title>
<path fill="none" stroke="midnightblue" d="M145.646,-196.319C165.161,-198.312 186.001,-200.441 204.474,-202.328"/>
<polygon fill="midnightblue" stroke="midnightblue" points="204.165,-205.815 214.469,-203.349 204.876,-198.851 204.165,-205.815"/>
</g>
<!-- Node5 -->
<g id="node5" class="node"><title>Node5</title>
<g id="a_node5"><a xlink:href="../../d8/d60/MINGW_2opener__error_8c.html#afbc52bcd5256264e75ba063f2e361e24" target="_top" xlink:title="Gets the error number or equivalent. ">
<polygon fill="none" stroke="black" points="201.5,-160.5 201.5,-179.5 320.5,-179.5 320.5,-160.5 201.5,-160.5"/>
<text text-anchor="middle" x="261" y="-167.5" font-family="Helvetica,sans-Serif" font-size="10.00">GetSocketErrorNumber</text>
</a>
</g>
</g>
<!-- Node1&#45;&gt;Node5 -->
<g id="edge4" class="edge"><title>Node1&#45;&gt;Node5</title>
<path fill="none" stroke="midnightblue" d="M145.646,-181.681C160.613,-180.152 176.36,-178.544 191.22,-177.026"/>
<polygon fill="midnightblue" stroke="midnightblue" points="191.753,-180.49 201.346,-175.992 191.042,-173.526 191.753,-180.49"/>
</g>
<!-- Node6 -->
<g id="node6" class="node"><title>Node6</title>
<g id="a_node6"><a xlink:href="../../d2/dc9/group__CIP__API.html#gaab62df9410a09727a82afa7672e3194a" target="_top" xlink:title="Notify the encapsulation layer that an explicit message has been received via UDP. ">
<polygon fill="none" stroke="black" points="182,-122.5 182,-141.5 340,-141.5 340,-122.5 182,-122.5"/>
<text text-anchor="middle" x="261" y="-129.5" font-family="Helvetica,sans-Serif" font-size="10.00">HandleReceivedExplictUdpData</text>
</a>
</g>
</g>
<!-- Node1&#45;&gt;Node6 -->
<g id="edge5" class="edge"><title>Node1&#45;&gt;Node6</title>
<path fill="none" stroke="midnightblue" d="M113.696,-173.969C133.975,-166.563 159.135,-157.789 182,-151 190.163,-148.576 198.872,-146.227 207.402,-144.055"/>
<polygon fill="midnightblue" stroke="midnightblue" points="208.431,-147.406 217.289,-141.593 206.739,-140.613 208.431,-147.406"/>
</g>
<!-- Node20 -->
<g id="node20" class="node"><title>Node20</title>
<g id="a_node20"><a xlink:href="../../da/de0/enipmessage_8c.html#a3bc72c361822172e328654abb263c1a7" target="_top" xlink:title="InitializeENIPMessage">
<polygon fill="none" stroke="black" points="584,-54.5 584,-73.5 700,-73.5 700,-54.5 584,-54.5"/>
<text text-anchor="middle" x="642" y="-61.5" font-family="Helvetica,sans-Serif" font-size="10.00">InitializeENIPMessage</text>
</a>
</g>
</g>
<!-- Node1&#45;&gt;Node20 -->
<g id="edge32" class="edge"><title>Node1&#45;&gt;Node20</title>
<path fill="none" stroke="midnightblue" d="M90.1375,-173.967C110.088,-156.308 145.852,-127.577 182,-113 313.278,-60.0604 481.906,-56.8468 573.851,-59.9431"/>
<polygon fill="midnightblue" stroke="midnightblue" points="573.738,-63.4413 583.862,-60.3156 573.999,-56.4461 573.738,-63.4413"/>
</g>
<!-- Node7 -->
<g id="node7" class="node"><title>Node7</title>
<g id="a_node7"><a xlink:href="../../d2/dbd/encap_8c.html#a86cfa03514f786d1315f7c4833cb2561" target="_top" xlink:title="copy data from pa_buf in little endian to host in structure. ">
<polygon fill="none" stroke="black" points="376.5,-16.5 376.5,-35.5 523.5,-35.5 523.5,-16.5 376.5,-16.5"/>
<text text-anchor="middle" x="450" y="-23.5" font-family="Helvetica,sans-Serif" font-size="10.00">CreateEncapsulationStructure</text>
</a>
</g>
</g>
<!-- Node6&#45;&gt;Node7 -->
<g id="edge6" class="edge"><title>Node6&#45;&gt;Node7</title>
<path fill="none" stroke="midnightblue" d="M278.925,-122.406C311.663,-103.849 383.862,-62.9234 422.831,-40.8336"/>
<polygon fill="midnightblue" stroke="midnightblue" points="425.005,-43.6246 431.979,-35.6484 421.553,-37.5349 425.005,-43.6246"/>
</g>
<!-- Node10 -->
<g id="node10" class="node"><title>Node10</title>
<g id="a_node10"><a xlink:href="../../d2/dbd/encap_8c.html#a85c97a897b8f95d2a05e6480480bba5d" target="_top" xlink:title="generate reply with &quot;Communications Services&quot; + compatibility Flags. ">
<polygon fill="none" stroke="black" points="570.5,-201 570.5,-231 713.5,-231 713.5,-201 570.5,-201"/>
<text text-anchor="start" x="578.5" y="-219" font-family="Helvetica,sans-Serif" font-size="10.00">HandleReceivedListServices</text>
<text text-anchor="middle" x="642" y="-208" font-family="Helvetica,sans-Serif" font-size="10.00">Command</text>
</a>
</g>
</g>
<!-- Node6&#45;&gt;Node10 -->
<g id="edge9" class="edge"><title>Node6&#45;&gt;Node10</title>
<path fill="none" stroke="midnightblue" d="M315.609,-141.617C324.005,-144.092 332.408,-147.174 340,-151 358.599,-160.374 356.924,-172.64 376,-181 434.199,-206.505 505.952,-214.739 560.11,-216.881"/>
<polygon fill="midnightblue" stroke="midnightblue" points="560.243,-220.388 570.354,-217.223 560.476,-213.392 560.243,-220.388"/>
</g>
<!-- Node14 -->
<g id="node14" class="node"><title>Node14</title>
<g id="a_node14"><a xlink:href="../../d2/dbd/encap_8c.html#ae4d21e6254396c9cb1b5716b054e57de" target="_top" xlink:title="HandleReceivedListIdentity\lCommandTcp">
<polygon fill="none" stroke="black" points="381.5,-142 381.5,-172 518.5,-172 518.5,-142 381.5,-142"/>
<text text-anchor="start" x="389.5" y="-160" font-family="Helvetica,sans-Serif" font-size="10.00">HandleReceivedListIdentity</text>
<text text-anchor="middle" x="450" y="-149" font-family="Helvetica,sans-Serif" font-size="10.00">CommandTcp</text>
</a>
</g>
</g>
<!-- Node6&#45;&gt;Node14 -->
<g id="edge14" class="edge"><title>Node6&#45;&gt;Node14</title>
<path fill="none" stroke="midnightblue" d="M333.23,-141.523C345.691,-143.189 358.712,-144.929 371.336,-146.617"/>
<polygon fill="midnightblue" stroke="midnightblue" points="370.982,-150.101 381.358,-147.957 371.91,-143.163 370.982,-150.101"/>
</g>
<!-- Node18 -->
<g id="node18" class="node"><title>Node18</title>
<g id="a_node18"><a xlink:href="../../d2/dbd/encap_8c.html#aa042b74f0d2659164f5c6811e6cb4fda" target="_top" xlink:title="HandleReceivedListIdentity\lCommandUdp">
<polygon fill="none" stroke="black" points="381.5,-93 381.5,-123 518.5,-123 518.5,-93 381.5,-93"/>
<text text-anchor="start" x="389.5" y="-111" font-family="Helvetica,sans-Serif" font-size="10.00">HandleReceivedListIdentity</text>
<text text-anchor="middle" x="450" y="-100" font-family="Helvetica,sans-Serif" font-size="10.00">CommandUdp</text>
</a>
</g>
</g>
<!-- Node6&#45;&gt;Node18 -->
<g id="edge23" class="edge"><title>Node6&#45;&gt;Node18</title>
<path fill="none" stroke="midnightblue" d="M336.176,-122.48C347.691,-121.002 359.614,-119.472 371.206,-117.984"/>
<polygon fill="midnightblue" stroke="midnightblue" points="371.816,-121.435 381.289,-116.69 370.925,-114.492 371.816,-121.435"/>
</g>
<!-- Node21 -->
<g id="node21" class="node"><title>Node21</title>
<g id="a_node21"><a xlink:href="../../d2/dbd/encap_8c.html#a371a47e722a3aea264b6eb39cfc725aa" target="_top" xlink:title="HandleReceivedListInterfaces\lCommand">
<polygon fill="none" stroke="black" points="568,-250 568,-280 716,-280 716,-250 568,-250"/>
<text text-anchor="start" x="576" y="-268" font-family="Helvetica,sans-Serif" font-size="10.00">HandleReceivedListInterfaces</text>
<text text-anchor="middle" x="642" y="-257" font-family="Helvetica,sans-Serif" font-size="10.00">Command</text>
</a>
</g>
</g>
<!-- Node6&#45;&gt;Node21 -->
<g id="edge29" class="edge"><title>Node6&#45;&gt;Node21</title>
<path fill="none" stroke="midnightblue" d="M322.558,-141.51C328.781,-143.987 334.739,-147.097 340,-151 365.282,-169.757 350.334,-193.772 376,-212 428.757,-249.467 501.582,-261.946 557.541,-265.488"/>
<polygon fill="midnightblue" stroke="midnightblue" points="557.608,-268.997 567.785,-266.049 557.991,-262.007 557.608,-268.997"/>
</g>
<!-- Node8 -->
<g id="node8" class="node"><title>Node8</title>
<g id="a_node8"><a xlink:href="../../d4/d91/group__ENCAP.html#ga668f92389ee06510864585b97955f6f8" target="_top" xlink:title="Reads EIP_UINT32 from *buffer and converts little endian to host. ">
<polygon fill="none" stroke="black" points="585.5,-16.5 585.5,-35.5 698.5,-35.5 698.5,-16.5 585.5,-16.5"/>
<text text-anchor="middle" x="642" y="-23.5" font-family="Helvetica,sans-Serif" font-size="10.00">GetDintFromMessage</text>
</a>
</g>
</g>
<!-- Node7&#45;&gt;Node8 -->
<g id="edge7" class="edge"><title>Node7&#45;&gt;Node8</title>
<path fill="none" stroke="midnightblue" d="M523.644,-26C540.561,-26 558.481,-26 575.089,-26"/>
<polygon fill="midnightblue" stroke="midnightblue" points="575.239,-29.5001 585.239,-26 575.239,-22.5001 575.239,-29.5001"/>
</g>
<!-- Node9 -->
<g id="node9" class="node"><title>Node9</title>
<g id="a_node9"><a xlink:href="../../d4/d91/group__ENCAP.html#ga70322f970709ca9c9a1a1d474cfe2302" target="_top" xlink:title="Reads EIP_UINT16 from *buffer and converts little endian to host. ">
<polygon fill="none" stroke="black" points="782,-0.5 782,-19.5 888,-19.5 888,-0.5 782,-0.5"/>
<text text-anchor="middle" x="835" y="-7.5" font-family="Helvetica,sans-Serif" font-size="10.00">GetIntFromMessage</text>
</a>
</g>
</g>
<!-- Node7&#45;&gt;Node9 -->
<g id="edge8" class="edge"><title>Node7&#45;&gt;Node9</title>
<path fill="none" stroke="midnightblue" d="M495.32,-16.488C515.023,-12.7226 538.566,-8.85412 560,-7 632.505,-0.728076 716.199,-3.02329 771.819,-5.88632"/>
<polygon fill="midnightblue" stroke="midnightblue" points="771.696,-9.38464 781.869,-6.42559 772.071,-2.3947 771.696,-9.38464"/>
</g>
<!-- Node11 -->
<g id="node11" class="node"><title>Node11</title>
<g id="a_node11"><a xlink:href="../../d4/d91/group__ENCAP.html#gae689aac2a85bf49fb356ec94c8800799" target="_top" xlink:title="converts UINT16 data from host to little endian an writes it to buffer. ">
<polygon fill="none" stroke="black" points="950,-209.5 950,-228.5 1046,-228.5 1046,-209.5 950,-209.5"/>
<text text-anchor="middle" x="998" y="-216.5" font-family="Helvetica,sans-Serif" font-size="10.00">AddIntToMessage</text>
</a>
</g>
</g>
<!-- Node10&#45;&gt;Node11 -->
<g id="edge10" class="edge"><title>Node10&#45;&gt;Node11</title>
<path fill="none" stroke="midnightblue" d="M711.062,-231.004C727.036,-233.911 744.051,-236.514 760,-238 826.379,-244.187 843.718,-245.153 910,-238 923.719,-236.519 938.446,-233.762 951.812,-230.798"/>
<polygon fill="midnightblue" stroke="midnightblue" points="952.771,-234.168 961.727,-228.508 951.196,-227.348 952.771,-234.168"/>
</g>
<!-- Node12 -->
<g id="node12" class="node"><title>Node12</title>
<g id="a_node12"><a xlink:href="../../d2/dbd/encap_8c.html#ad558c3aae69a6ab80034278c108802e9" target="_top" xlink:title="GenerateEncapsulationHeader">
<polygon fill="none" stroke="black" points="760.5,-209.5 760.5,-228.5 909.5,-228.5 909.5,-209.5 760.5,-209.5"/>
<text text-anchor="middle" x="835" y="-216.5" font-family="Helvetica,sans-Serif" font-size="10.00">GenerateEncapsulationHeader</text>
</a>
</g>
</g>
<!-- Node10&#45;&gt;Node12 -->
<g id="edge11" class="edge"><title>Node10&#45;&gt;Node12</title>
<path fill="none" stroke="midnightblue" d="M713.579,-217.109C725.451,-217.295 737.875,-217.49 750.046,-217.681"/>
<polygon fill="midnightblue" stroke="midnightblue" points="750.138,-221.183 760.192,-217.841 750.248,-214.184 750.138,-221.183"/>
</g>
<!-- Node12&#45;&gt;Node11 -->
<g id="edge13" class="edge"><title>Node12&#45;&gt;Node11</title>
<path fill="none" stroke="midnightblue" d="M909.903,-219C919.859,-219 929.95,-219 939.563,-219"/>
<polygon fill="midnightblue" stroke="midnightblue" points="939.776,-222.5 949.776,-219 939.776,-215.5 939.776,-222.5"/>
</g>
<!-- Node13 -->
<g id="node13" class="node"><title>Node13</title>
<g id="a_node13"><a xlink:href="../../d4/d91/group__ENCAP.html#gaafc3c9e3ff582c9b7e438ae2b1fdf822" target="_top" xlink:title="Converts UINT32 data from host to little endian and writes it to buffer. ">
<polygon fill="none" stroke="black" points="946.5,-133.5 946.5,-152.5 1049.5,-152.5 1049.5,-133.5 946.5,-133.5"/>
<text text-anchor="middle" x="998" y="-140.5" font-family="Helvetica,sans-Serif" font-size="10.00">AddDintToMessage</text>
</a>
</g>
</g>
<!-- Node12&#45;&gt;Node13 -->
<g id="edge12" class="edge"><title>Node12&#45;&gt;Node13</title>
<path fill="none" stroke="midnightblue" d="M856.391,-209.375C884.456,-196.126 935.17,-172.187 967.408,-156.969"/>
<polygon fill="midnightblue" stroke="midnightblue" points="969.226,-159.981 976.775,-152.547 966.238,-153.651 969.226,-159.981"/>
</g>
<!-- Node15 -->
<g id="node15" class="node"><title>Node15</title>
<g id="a_node15"><a xlink:href="../../d2/dbd/encap_8c.html#ae8d8af733e9ac70ea728d6255aced4b6" target="_top" xlink:title="EncapsulateListIdentityResponse\lMessage">
<polygon fill="none" stroke="black" points="560.5,-131 560.5,-161 723.5,-161 723.5,-131 560.5,-131"/>
<text text-anchor="start" x="568.5" y="-149" font-family="Helvetica,sans-Serif" font-size="10.00">EncapsulateListIdentityResponse</text>
<text text-anchor="middle" x="642" y="-138" font-family="Helvetica,sans-Serif" font-size="10.00">Message</text>
</a>
</g>
</g>
<!-- Node14&#45;&gt;Node15 -->
<g id="edge15" class="edge"><title>Node14&#45;&gt;Node15</title>
<path fill="none" stroke="midnightblue" d="M518.522,-153.091C528.787,-152.497 539.521,-151.875 550.185,-151.258"/>
<polygon fill="midnightblue" stroke="midnightblue" points="550.588,-154.74 560.369,-150.668 550.183,-147.752 550.588,-154.74"/>
</g>
<!-- Node15&#45;&gt;Node11 -->
<g id="edge17" class="edge"><title>Node15&#45;&gt;Node11</title>
<path fill="none" stroke="midnightblue" d="M719.022,-161.05C772.483,-171.714 845.67,-186.471 910,-200 921.004,-202.314 932.778,-204.847 943.997,-207.288"/>
<polygon fill="midnightblue" stroke="midnightblue" points="943.588,-210.781 954.105,-209.494 945.081,-203.942 943.588,-210.781"/>
</g>
<!-- Node15&#45;&gt;Node12 -->
<g id="edge21" class="edge"><title>Node15&#45;&gt;Node12</title>
<path fill="none" stroke="midnightblue" d="M676.75,-161.01C699.963,-171.117 731.609,-184.472 760,-195 770.568,-198.919 782.11,-202.833 792.867,-206.33"/>
<polygon fill="midnightblue" stroke="midnightblue" points="791.885,-209.69 802.476,-209.411 794.022,-203.024 791.885,-209.69"/>
</g>
<!-- Node15&#45;&gt;Node13 -->
<g id="edge16" class="edge"><title>Node15&#45;&gt;Node13</title>
<path fill="none" stroke="midnightblue" d="M711.062,-130.996C727.036,-128.089 744.051,-125.486 760,-124 826.379,-117.813 843.718,-116.847 910,-124 923.719,-125.481 938.446,-128.238 951.812,-131.202"/>
<polygon fill="midnightblue" stroke="midnightblue" points="951.196,-134.652 961.727,-133.492 952.771,-127.832 951.196,-134.652"/>
</g>
<!-- Node16 -->
<g id="node16" class="node"><title>Node16</title>
<g id="a_node16"><a xlink:href="../../da/d73/endianconv_8c.html#a2e8bf172dd5ecba3cc0871278ab06538" target="_top" xlink:title="Encapsulate the sockaddr information as necessary for the Common Packet Format data items...">
<polygon fill="none" stroke="black" points="777.5,-133.5 777.5,-152.5 892.5,-152.5 892.5,-133.5 777.5,-133.5"/>
<text text-anchor="middle" x="835" y="-140.5" font-family="Helvetica,sans-Serif" font-size="10.00">EncapsulateIpAddress</text>
</a>
</g>
</g>
<!-- Node15&#45;&gt;Node16 -->
<g id="edge18" class="edge"><title>Node15&#45;&gt;Node16</title>
<path fill="none" stroke="midnightblue" d="M723.724,-144.732C738.226,-144.504 753.193,-144.269 767.244,-144.049"/>
<polygon fill="midnightblue" stroke="midnightblue" points="767.35,-147.547 777.294,-143.891 767.24,-140.548 767.35,-147.547"/>
</g>
<!-- Node17 -->
<g id="node17" class="node"><title>Node17</title>
<g id="a_node17"><a xlink:href="../../da/d73/endianconv_8c.html#af4e7ccbb21e333ad15028c531f0384c6" target="_top" xlink:title="MoveMessageNOctets">
<polygon fill="none" stroke="black" points="776.5,-57.5 776.5,-76.5 893.5,-76.5 893.5,-57.5 776.5,-57.5"/>
<text text-anchor="middle" x="835" y="-64.5" font-family="Helvetica,sans-Serif" font-size="10.00">MoveMessageNOctets</text>
</a>
</g>
</g>
<!-- Node15&#45;&gt;Node17 -->
<g id="edge22" class="edge"><title>Node15&#45;&gt;Node17</title>
<path fill="none" stroke="midnightblue" d="M701.66,-130.946C709.372,-128.093 717.014,-124.79 724,-121 742.307,-111.069 741.764,-101.061 760,-91 767.905,-86.6387 776.726,-82.9187 785.448,-79.8024"/>
<polygon fill="midnightblue" stroke="midnightblue" points="786.825,-83.0322 795.197,-76.5386 784.603,-76.3942 786.825,-83.0322"/>
</g>
<!-- Node16&#45;&gt;Node11 -->
<g id="edge20" class="edge"><title>Node16&#45;&gt;Node11</title>
<path fill="none" stroke="midnightblue" d="M870.873,-152.539C883.441,-156.436 897.579,-161.361 910,-167 932.847,-177.373 957.235,-192.323 974.358,-203.534"/>
<polygon fill="midnightblue" stroke="midnightblue" points="972.802,-206.703 983.068,-209.324 976.678,-200.873 972.802,-206.703"/>
</g>
<!-- Node16&#45;&gt;Node13 -->
<g id="edge19" class="edge"><title>Node16&#45;&gt;Node13</title>
<path fill="none" stroke="midnightblue" d="M892.763,-143C906.823,-143 921.944,-143 936.189,-143"/>
<polygon fill="midnightblue" stroke="midnightblue" points="936.379,-146.5 946.379,-143 936.379,-139.5 936.379,-146.5"/>
</g>
<!-- Node18&#45;&gt;Node15 -->
<g id="edge27" class="edge"><title>Node18&#45;&gt;Node15</title>
<path fill="none" stroke="midnightblue" d="M518.522,-121.504C530.641,-123.928 543.414,-126.483 555.952,-128.99"/>
<polygon fill="midnightblue" stroke="midnightblue" points="555.449,-132.459 565.941,-130.988 556.822,-125.595 555.449,-132.459"/>
</g>
<!-- Node19 -->
<g id="node19" class="node"><title>Node19</title>
<g id="a_node19"><a xlink:href="../../d2/dbd/encap_8c.html#a1e89285abfb378b98cd946a040dd8f5d" target="_top" xlink:title="DetermineDelayTime">
<polygon fill="none" stroke="black" points="587.5,-92.5 587.5,-111.5 696.5,-111.5 696.5,-92.5 587.5,-92.5"/>
<text text-anchor="middle" x="642" y="-99.5" font-family="Helvetica,sans-Serif" font-size="10.00">DetermineDelayTime</text>
</a>
</g>
</g>
<!-- Node18&#45;&gt;Node19 -->
<g id="edge24" class="edge"><title>Node18&#45;&gt;Node19</title>
<path fill="none" stroke="midnightblue" d="M518.522,-105.868C537.69,-105.262 558.49,-104.606 577.416,-104.008"/>
<polygon fill="midnightblue" stroke="midnightblue" points="577.534,-107.506 587.418,-103.692 577.313,-100.51 577.534,-107.506"/>
</g>
<!-- Node18&#45;&gt;Node20 -->
<g id="edge28" class="edge"><title>Node18&#45;&gt;Node20</title>
<path fill="none" stroke="midnightblue" d="M515.856,-92.9808C540.11,-87.364 567.288,-81.07 590.105,-75.7863"/>
<polygon fill="midnightblue" stroke="midnightblue" points="590.971,-79.1783 599.924,-73.5124 589.392,-72.3588 590.971,-79.1783"/>
</g>
<!-- Node19&#45;&gt;Node9 -->
<g id="edge25" class="edge"><title>Node19&#45;&gt;Node9</title>
<path fill="none" stroke="midnightblue" d="M696.806,-93.7021C706.203,-91.0578 715.638,-87.5776 724,-83 743.574,-72.2846 741.875,-61.0178 760,-48 772.932,-38.7122 788.448,-30.3767 801.926,-23.8958"/>
<polygon fill="midnightblue" stroke="midnightblue" points="803.73,-26.9164 811.313,-19.5173 800.771,-20.5725 803.73,-26.9164"/>
</g>
<!-- Node19&#45;&gt;Node17 -->
<g id="edge26" class="edge"><title>Node19&#45;&gt;Node17</title>
<path fill="none" stroke="midnightblue" d="M694.939,-92.4823C718.726,-88.1235 747.102,-82.9237 771.999,-78.3614"/>
<polygon fill="midnightblue" stroke="midnightblue" points="772.866,-81.761 782.071,-76.5158 771.604,-74.8756 772.866,-81.761"/>
</g>
<!-- Node21&#45;&gt;Node11 -->
<g id="edge30" class="edge"><title>Node21&#45;&gt;Node11</title>
<path fill="none" stroke="midnightblue" d="M716.114,-269.166C770.27,-270.592 845.533,-269.071 910,-255 930.96,-250.425 953.295,-241.08 970.086,-233.057"/>
<polygon fill="midnightblue" stroke="midnightblue" points="971.853,-236.088 979.279,-228.532 968.762,-229.808 971.853,-236.088"/>
</g>
<!-- Node21&#45;&gt;Node12 -->
<g id="edge31" class="edge"><title>Node21&#45;&gt;Node12</title>
<path fill="none" stroke="midnightblue" d="M705.541,-249.938C731.148,-243.771 760.36,-236.735 784.45,-230.933"/>
<polygon fill="midnightblue" stroke="midnightblue" points="785.533,-234.273 794.436,-228.529 783.894,-227.467 785.533,-234.273"/>
</g>
</g>
</svg>
