<?xml version="1.0" encoding="UTF-8" standalone="no"?>
<!DOCTYPE svg PUBLIC "-//W3C//DTD SVG 1.1//EN"
 "http://www.w3.org/Graphics/SVG/1.1/DTD/svg11.dtd">
<!-- Generated by graphviz version 2.38.0 (20140413.2041)
 -->
<!-- Title: CheckAndHandleUdpUnicastSocket Pages: 1 -->
<svg width="1253pt" height="350pt"
 viewBox="0.00 0.00 1253.00 349.50" xmlns="http://www.w3.org/2000/svg" xmlns:xlink="http://www.w3.org/1999/xlink">
<g id="graph0" class="graph" transform="scale(1 1) rotate(0) translate(4 345.5)">
<title>CheckAndHandleUdpUnicastSocket</title>
<!-- Node1 -->
<g id="node1" class="node"><title>Node1</title>
<polygon fill="#bfbfbf" stroke="black" points="0,-206 0,-236 145,-236 145,-206 0,-206"/>
<text text-anchor="start" x="8" y="-224" font-family="Helvetica,sans-Serif" font-size="10.00">CheckAndHandleUdpUnicast</text>
<text text-anchor="middle" x="72.5" y="-213" font-family="Helvetica,sans-Serif" font-size="10.00">Socket</text>
</g>
<!-- Node2 -->
<g id="node2" class="node"><title>Node2</title>
<g id="a_node2"><a xlink:href="../../db/d4f/generic__networkhandler_8c.html#acebcfe03d5528a69d288c446ff3048b1" target="_top" xlink:title="check if the given socket is set in the read set ">
<polygon fill="none" stroke="black" points="214.5,-306.5 214.5,-325.5 305.5,-325.5 305.5,-306.5 214.5,-306.5"/>
<text text-anchor="middle" x="260" y="-313.5" font-family="Helvetica,sans-Serif" font-size="10.00">CheckSocketSet</text>
</a>
</g>
</g>
<!-- Node1&#45;&gt;Node2 -->
<g id="edge1" class="edge"><title>Node1&#45;&gt;Node2</title>
<path fill="none" stroke="midnightblue" d="M90.486,-236.128C110.677,-253.333 146.052,-281.092 181,-297 188.395,-300.366 196.467,-303.185 204.524,-305.53"/>
<polygon fill="midnightblue" stroke="midnightblue" points="203.732,-308.941 214.298,-308.162 205.552,-302.182 203.732,-308.941"/>
</g>
<!-- Node3 -->
<g id="node3" class="node"><title>Node3</title>
<g id="a_node3"><a xlink:href="../../d8/d60/MINGW_2opener__error_8c.html#a99f5295ad12a2b986bab4b89a24cfc20" target="_top" xlink:title="Frees the space of the error message generated by GetErrorMessage(int) ">
<polygon fill="none" stroke="black" points="211.5,-268.5 211.5,-287.5 308.5,-287.5 308.5,-268.5 211.5,-268.5"/>
<text text-anchor="middle" x="260" y="-275.5" font-family="Helvetica,sans-Serif" font-size="10.00">FreeErrorMessage</text>
</a>
</g>
</g>
<!-- Node1&#45;&gt;Node3 -->
<g id="edge2" class="edge"><title>Node1&#45;&gt;Node3</title>
<path fill="none" stroke="midnightblue" d="M113.007,-236.04C133.19,-243.449 158.234,-252.222 181,-259 189.161,-261.43 197.869,-263.782 206.398,-265.955"/>
<polygon fill="midnightblue" stroke="midnightblue" points="205.736,-269.397 216.285,-268.418 207.428,-262.604 205.736,-269.397"/>
</g>
<!-- Node4 -->
<g id="node4" class="node"><title>Node4</title>
<g id="a_node4"><a xlink:href="../../d8/d60/MINGW_2opener__error_8c.html#a0df2625909cb28076bc7df8e6c9cfcae" target="_top" xlink:title="Returns a human readable message for the given error number. ">
<polygon fill="none" stroke="black" points="213.5,-230.5 213.5,-249.5 306.5,-249.5 306.5,-230.5 213.5,-230.5"/>
<text text-anchor="middle" x="260" y="-237.5" font-family="Helvetica,sans-Serif" font-size="10.00">GetErrorMessage</text>
</a>
</g>
</g>
<!-- Node1&#45;&gt;Node4 -->
<g id="edge3" class="edge"><title>Node1&#45;&gt;Node4</title>
<path fill="none" stroke="midnightblue" d="M145.219,-228.346C164.485,-230.319 185.028,-232.423 203.282,-234.293"/>
<polygon fill="midnightblue" stroke="midnightblue" points="203.145,-237.797 213.45,-235.334 203.859,-230.834 203.145,-237.797"/>
</g>
<!-- Node5 -->
<g id="node5" class="node"><title>Node5</title>
<g id="a_node5"><a xlink:href="../../d8/d60/MINGW_2opener__error_8c.html#afbc52bcd5256264e75ba063f2e361e24" target="_top" xlink:title="Gets the error number or equivalent. ">
<polygon fill="none" stroke="black" points="200.5,-192.5 200.5,-211.5 319.5,-211.5 319.5,-192.5 200.5,-192.5"/>
<text text-anchor="middle" x="260" y="-199.5" font-family="Helvetica,sans-Serif" font-size="10.00">GetSocketErrorNumber</text>
</a>
</g>
</g>
<!-- Node1&#45;&gt;Node5 -->
<g id="edge4" class="edge"><title>Node1&#45;&gt;Node5</title>
<path fill="none" stroke="midnightblue" d="M145.219,-213.654C160.047,-212.135 175.632,-210.539 190.347,-209.032"/>
<polygon fill="midnightblue" stroke="midnightblue" points="190.784,-212.505 200.375,-208.005 190.071,-205.542 190.784,-212.505"/>
</g>
<!-- Node6 -->
<g id="node6" class="node"><title>Node6</title>
<g id="a_node6"><a xlink:href="../../d2/dc9/group__CIP__API.html#gabde366c9e0849b9bca9c1bab7eed34f6" target="_top" xlink:title="Notify the encapsulation layer that an explicit message has been received via UDP. ">
<polygon fill="none" stroke="black" points="181,-154.5 181,-173.5 339,-173.5 339,-154.5 181,-154.5"/>
<text text-anchor="middle" x="260" y="-161.5" font-family="Helvetica,sans-Serif" font-size="10.00">HandleReceivedExplictUdpData</text>
</a>
</g>
</g>
<!-- Node1&#45;&gt;Node6 -->
<g id="edge5" class="edge"><title>Node1&#45;&gt;Node6</title>
<path fill="none" stroke="midnightblue" d="M113.007,-205.96C133.19,-198.551 158.234,-189.778 181,-183 189.161,-180.57 197.869,-178.218 206.398,-176.045"/>
<polygon fill="midnightblue" stroke="midnightblue" points="207.428,-179.396 216.285,-173.582 205.736,-172.603 207.428,-179.396"/>
</g>
<!-- Node22 -->
<g id="node22" class="node"><title>Node22</title>
<g id="a_node22"><a xlink:href="../../da/de0/enipmessage_8c.html#a3bc72c361822172e328654abb263c1a7" target="_top" xlink:title="InitializeENIPMessage">
<polygon fill="none" stroke="black" points="581.5,-12.5 581.5,-31.5 697.5,-31.5 697.5,-12.5 581.5,-12.5"/>
<text text-anchor="middle" x="639.5" y="-19.5" font-family="Helvetica,sans-Serif" font-size="10.00">InitializeENIPMessage</text>
</a>
</g>
</g>
<!-- Node1&#45;&gt;Node22 -->
<g id="edge36" class="edge"><title>Node1&#45;&gt;Node22</title>
<path fill="none" stroke="midnightblue" d="M92.6039,-205.886C113.567,-189.691 148.562,-163.784 181,-145 263.254,-97.3702 283.639,-81.2196 375,-55 440.154,-36.3015 517.382,-28.196 571.326,-24.6836"/>
<polygon fill="midnightblue" stroke="midnightblue" points="571.69,-28.1679 581.456,-24.0601 571.26,-21.1811 571.69,-28.1679"/>
</g>
<!-- Node7 -->
<g id="node7" class="node"><title>Node7</title>
<g id="a_node7"><a xlink:href="../../d2/dbd/encap_8c.html#a86cfa03514f786d1315f7c4833cb2561" target="_top" xlink:title="copy data from pa_buf in little endian to host in structure. ">
<polygon fill="none" stroke="black" points="375,-176.5 375,-195.5 522,-195.5 522,-176.5 375,-176.5"/>
<text text-anchor="middle" x="448.5" y="-183.5" font-family="Helvetica,sans-Serif" font-size="10.00">CreateEncapsulationStructure</text>
</a>
</g>
</g>
<!-- Node6&#45;&gt;Node7 -->
<g id="edge6" class="edge"><title>Node6&#45;&gt;Node7</title>
<path fill="none" stroke="midnightblue" d="M339.012,-173.203C347.55,-174.21 356.262,-175.237 364.853,-176.251"/>
<polygon fill="midnightblue" stroke="midnightblue" points="364.523,-179.736 374.864,-177.432 365.343,-172.784 364.523,-179.736"/>
</g>
<!-- Node10 -->
<g id="node10" class="node"><title>Node10</title>
<g id="a_node10"><a xlink:href="../../d2/dbd/encap_8c.html#a85c97a897b8f95d2a05e6480480bba5d" target="_top" xlink:title="generate reply with &quot;Communications Services&quot; + compatibility Flags. ">
<polygon fill="none" stroke="black" points="767.5,-262 767.5,-292 910.5,-292 910.5,-262 767.5,-262"/>
<text text-anchor="start" x="775.5" y="-280" font-family="Helvetica,sans-Serif" font-size="10.00">HandleReceivedListServices</text>
<text text-anchor="middle" x="839" y="-269" font-family="Helvetica,sans-Serif" font-size="10.00">Command</text>
</a>
</g>
</g>
<!-- Node6&#45;&gt;Node10 -->
<g id="edge9" class="edge"><title>Node6&#45;&gt;Node10</title>
<path fill="none" stroke="midnightblue" d="M310.425,-173.587C320.076,-176.14 329.99,-179.257 339,-183 356.316,-190.194 357.395,-198.545 375,-205 503.408,-252.078 662.848,-268.374 757.178,-274.015"/>
<polygon fill="midnightblue" stroke="midnightblue" points="757.042,-277.512 767.225,-274.59 757.442,-270.524 757.042,-277.512"/>
</g>
<!-- Node14 -->
<g id="node14" class="node"><title>Node14</title>
<g id="a_node14"><a xlink:href="../../d2/dbd/encap_8c.html#ae4d21e6254396c9cb1b5716b054e57de" target="_top" xlink:title="HandleReceivedListIdentity\lCommandTcp">
<polygon fill="none" stroke="black" points="380,-127 380,-157 517,-157 517,-127 380,-127"/>
<text text-anchor="start" x="388" y="-145" font-family="Helvetica,sans-Serif" font-size="10.00">HandleReceivedListIdentity</text>
<text text-anchor="middle" x="448.5" y="-134" font-family="Helvetica,sans-Serif" font-size="10.00">CommandTcp</text>
</a>
</g>
</g>
<!-- Node6&#45;&gt;Node14 -->
<g id="edge14" class="edge"><title>Node6&#45;&gt;Node14</title>
<path fill="none" stroke="midnightblue" d="M339.012,-154.797C349.193,-153.596 359.624,-152.366 369.8,-151.166"/>
<polygon fill="midnightblue" stroke="midnightblue" points="370.351,-154.625 379.873,-149.978 369.531,-147.673 370.351,-154.625"/>
</g>
<!-- Node20 -->
<g id="node20" class="node"><title>Node20</title>
<g id="a_node20"><a xlink:href="../../d2/dbd/encap_8c.html#aa042b74f0d2659164f5c6811e6cb4fda" target="_top" xlink:title="HandleReceivedListIdentity\lCommandUdp">
<polygon fill="none" stroke="black" points="380,-65 380,-95 517,-95 517,-65 380,-65"/>
<text text-anchor="start" x="388" y="-83" font-family="Helvetica,sans-Serif" font-size="10.00">HandleReceivedListIdentity</text>
<text text-anchor="middle" x="448.5" y="-72" font-family="Helvetica,sans-Serif" font-size="10.00">CommandUdp</text>
</a>
</g>
</g>
<!-- Node6&#45;&gt;Node20 -->
<g id="edge27" class="edge"><title>Node6&#45;&gt;Node20</title>
<path fill="none" stroke="midnightblue" d="M282.394,-154.364C312.119,-140.976 366.56,-116.456 404.778,-99.2419"/>
<polygon fill="midnightblue" stroke="midnightblue" points="406.44,-102.332 414.121,-95.0342 403.565,-95.9497 406.44,-102.332"/>
</g>
<!-- Node23 -->
<g id="node23" class="node"><title>Node23</title>
<g id="a_node23"><a xlink:href="../../d2/dbd/encap_8c.html#a371a47e722a3aea264b6eb39cfc725aa" target="_top" xlink:title="HandleReceivedListInterfaces\lCommand">
<polygon fill="none" stroke="black" points="765,-311 765,-341 913,-341 913,-311 765,-311"/>
<text text-anchor="start" x="773" y="-329" font-family="Helvetica,sans-Serif" font-size="10.00">HandleReceivedListInterfaces</text>
<text text-anchor="middle" x="839" y="-318" font-family="Helvetica,sans-Serif" font-size="10.00">Command</text>
</a>
</g>
</g>
<!-- Node6&#45;&gt;Node23 -->
<g id="edge33" class="edge"><title>Node6&#45;&gt;Node23</title>
<path fill="none" stroke="midnightblue" d="M321.012,-173.557C327.405,-176.022 333.552,-179.117 339,-183 363.095,-200.172 350.571,-222.306 375,-239 489.46,-317.218 655.326,-329.998 754.346,-329.704"/>
<polygon fill="midnightblue" stroke="midnightblue" points="754.629,-333.202 764.602,-329.626 754.576,-326.203 754.629,-333.202"/>
</g>
<!-- Node8 -->
<g id="node8" class="node"><title>Node8</title>
<g id="a_node8"><a xlink:href="../../d4/d91/group__ENCAP.html#ga668f92389ee06510864585b97955f6f8" target="_top" xlink:title="Reads EIP_UINT32 from *buffer and converts little endian to host. ">
<polygon fill="none" stroke="black" points="583,-176.5 583,-195.5 696,-195.5 696,-176.5 583,-176.5"/>
<text text-anchor="middle" x="639.5" y="-183.5" font-family="Helvetica,sans-Serif" font-size="10.00">GetDintFromMessage</text>
</a>
</g>
</g>
<!-- Node7&#45;&gt;Node8 -->
<g id="edge7" class="edge"><title>Node7&#45;&gt;Node8</title>
<path fill="none" stroke="midnightblue" d="M522.032,-186C538.756,-186 556.452,-186 572.863,-186"/>
<polygon fill="midnightblue" stroke="midnightblue" points="572.896,-189.5 582.896,-186 572.896,-182.5 572.896,-189.5"/>
</g>
<!-- Node9 -->
<g id="node9" class="node"><title>Node9</title>
<g id="a_node9"><a xlink:href="../../d4/d91/group__ENCAP.html#ga70322f970709ca9c9a1a1d474cfe2302" target="_top" xlink:title="Reads EIP_UINT16 from *buffer and converts little endian to host. ">
<polygon fill="none" stroke="black" points="786,-50.5 786,-69.5 892,-69.5 892,-50.5 786,-50.5"/>
<text text-anchor="middle" x="839" y="-57.5" font-family="Helvetica,sans-Serif" font-size="10.00">GetIntFromMessage</text>
</a>
</g>
</g>
<!-- Node7&#45;&gt;Node9 -->
<g id="edge8" class="edge"><title>Node7&#45;&gt;Node9</title>
<path fill="none" stroke="midnightblue" d="M500.952,-176.461C508.385,-173.788 515.656,-170.37 522,-166 544.255,-150.671 535.287,-131.641 558,-117 633.976,-68.0247 668.33,-92.5645 757,-75 763.076,-73.7964 769.415,-72.5706 775.754,-71.3647"/>
<polygon fill="midnightblue" stroke="midnightblue" points="776.499,-74.7859 785.676,-69.4921 775.201,-67.9074 776.499,-74.7859"/>
</g>
<!-- Node11 -->
<g id="node11" class="node"><title>Node11</title>
<g id="a_node11"><a xlink:href="../../d4/d91/group__ENCAP.html#gae689aac2a85bf49fb356ec94c8800799" target="_top" xlink:title="converts UINT16 data from host to little endian an writes it to buffer. ">
<polygon fill="none" stroke="black" points="1145.5,-221.5 1145.5,-240.5 1241.5,-240.5 1241.5,-221.5 1145.5,-221.5"/>
<text text-anchor="middle" x="1193.5" y="-228.5" font-family="Helvetica,sans-Serif" font-size="10.00">AddIntToMessage</text>
</a>
</g>
</g>
<!-- Node10&#45;&gt;Node11 -->
<g id="edge10" class="edge"><title>Node10&#45;&gt;Node11</title>
<path fill="none" stroke="midnightblue" d="M910.645,-282.146C964.787,-284.351 1040.99,-283.674 1106,-269 1127.4,-264.17 1150.05,-254.014 1166.8,-245.416"/>
<polygon fill="midnightblue" stroke="midnightblue" points="1168.73,-248.357 1175.93,-240.586 1165.46,-242.169 1168.73,-248.357"/>
</g>
<!-- Node12 -->
<g id="node12" class="node"><title>Node12</title>
<g id="a_node12"><a xlink:href="../../d2/dbd/encap_8c.html#ad558c3aae69a6ab80034278c108802e9" target="_top" xlink:title="GenerateEncapsulationHeader">
<polygon fill="none" stroke="black" points="957,-240.5 957,-259.5 1106,-259.5 1106,-240.5 957,-240.5"/>
<text text-anchor="middle" x="1031.5" y="-247.5" font-family="Helvetica,sans-Serif" font-size="10.00">GenerateEncapsulationHeader</text>
</a>
</g>
</g>
<!-- Node10&#45;&gt;Node12 -->
<g id="edge11" class="edge"><title>Node10&#45;&gt;Node12</title>
<path fill="none" stroke="midnightblue" d="M910.664,-266.985C924.553,-265.016 939.19,-262.942 953.281,-260.944"/>
<polygon fill="midnightblue" stroke="midnightblue" points="954.016,-264.375 963.426,-259.507 953.034,-257.445 954.016,-264.375"/>
</g>
<!-- Node12&#45;&gt;Node11 -->
<g id="edge13" class="edge"><title>Node12&#45;&gt;Node11</title>
<path fill="none" stroke="midnightblue" d="M1106.41,-241.223C1116.15,-240.066 1126.02,-238.895 1135.42,-237.779"/>
<polygon fill="midnightblue" stroke="midnightblue" points="1135.89,-241.247 1145.41,-236.592 1135.07,-234.296 1135.89,-241.247"/>
</g>
<!-- Node13 -->
<g id="node13" class="node"><title>Node13</title>
<g id="a_node13"><a xlink:href="../../d4/d91/group__ENCAP.html#gaafc3c9e3ff582c9b7e438ae2b1fdf822" target="_top" xlink:title="Converts UINT32 data from host to little endian and writes it to buffer. ">
<polygon fill="none" stroke="black" points="1142,-126.5 1142,-145.5 1245,-145.5 1245,-126.5 1142,-126.5"/>
<text text-anchor="middle" x="1193.5" y="-133.5" font-family="Helvetica,sans-Serif" font-size="10.00">AddDintToMessage</text>
</a>
</g>
</g>
<!-- Node12&#45;&gt;Node13 -->
<g id="edge12" class="edge"><title>Node12&#45;&gt;Node13</title>
<path fill="none" stroke="midnightblue" d="M1045.87,-240.477C1073.44,-220.827 1136.88,-175.627 1170.56,-151.63"/>
<polygon fill="midnightblue" stroke="midnightblue" points="1172.72,-154.391 1178.83,-145.738 1168.66,-148.69 1172.72,-154.391"/>
</g>
<!-- Node15 -->
<g id="node15" class="node"><title>Node15</title>
<g id="a_node15"><a xlink:href="../../d2/dbd/encap_8c.html#ae8d8af733e9ac70ea728d6255aced4b6" target="_top" xlink:title="EncapsulateListIdentityResponse\lMessage">
<polygon fill="none" stroke="black" points="558,-127 558,-157 721,-157 721,-127 558,-127"/>
<text text-anchor="start" x="566" y="-145" font-family="Helvetica,sans-Serif" font-size="10.00">EncapsulateListIdentityResponse</text>
<text text-anchor="middle" x="639.5" y="-134" font-family="Helvetica,sans-Serif" font-size="10.00">Message</text>
</a>
</g>
</g>
<!-- Node14&#45;&gt;Node15 -->
<g id="edge15" class="edge"><title>Node14&#45;&gt;Node15</title>
<path fill="none" stroke="midnightblue" d="M517.2,-142C527.05,-142 537.324,-142 547.543,-142"/>
<polygon fill="midnightblue" stroke="midnightblue" points="547.726,-145.5 557.726,-142 547.726,-138.5 547.726,-145.5"/>
</g>
<!-- Node15&#45;&gt;Node11 -->
<g id="edge16" class="edge"><title>Node15&#45;&gt;Node11</title>
<path fill="none" stroke="midnightblue" d="M721.128,-155.407C785.075,-166.001 876.73,-181.1 957,-194 1017.72,-203.758 1087.3,-214.654 1134.99,-222.079"/>
<polygon fill="midnightblue" stroke="midnightblue" points="1134.7,-225.577 1145.12,-223.656 1135.78,-218.66 1134.7,-225.577"/>
</g>
<!-- Node15&#45;&gt;Node12 -->
<g id="edge25" class="edge"><title>Node15&#45;&gt;Node12</title>
<path fill="none" stroke="midnightblue" d="M701.947,-157.05C708.632,-159.85 715.131,-163.141 721,-167 741.543,-180.507 735.489,-197.095 757,-209 815.057,-241.131 890.138,-250.519 946.943,-252.356"/>
<polygon fill="midnightblue" stroke="midnightblue" points="946.885,-255.855 956.969,-252.608 947.061,-248.858 946.885,-255.855"/>
</g>
<!-- Node16 -->
<g id="node16" class="node"><title>Node16</title>
<g id="a_node16"><a xlink:href="../../d2/dbd/encap_8c.html#a25f80c3d5c2d4edc54d71311acda663b" target="_top" xlink:title="EncodeListIdentityCipIdentityItem">
<polygon fill="none" stroke="black" points="757,-126.5 757,-145.5 921,-145.5 921,-126.5 757,-126.5"/>
<text text-anchor="middle" x="839" y="-133.5" font-family="Helvetica,sans-Serif" font-size="10.00">EncodeListIdentityCipIdentityItem</text>
</a>
</g>
</g>
<!-- Node15&#45;&gt;Node16 -->
<g id="edge17" class="edge"><title>Node15&#45;&gt;Node16</title>
<path fill="none" stroke="midnightblue" d="M721.116,-139.551C729.457,-139.298 737.977,-139.039 746.427,-138.782"/>
<polygon fill="midnightblue" stroke="midnightblue" points="746.793,-142.273 756.682,-138.47 746.58,-135.276 746.793,-142.273"/>
</g>
<!-- Node18 -->
<g id="node18" class="node"><title>Node18</title>
<g id="a_node18"><a xlink:href="../../d2/dbd/encap_8c.html#aa155387b0b3c5fe813c0276e61e28054" target="_top" xlink:title="ListIdentityGetCipIdentity\lItemLength">
<polygon fill="none" stroke="black" points="967.5,-39 967.5,-69 1095.5,-69 1095.5,-39 967.5,-39"/>
<text text-anchor="start" x="975.5" y="-57" font-family="Helvetica,sans-Serif" font-size="10.00">ListIdentityGetCipIdentity</text>
<text text-anchor="middle" x="1031.5" y="-46" font-family="Helvetica,sans-Serif" font-size="10.00">ItemLength</text>
</a>
</g>
</g>
<!-- Node15&#45;&gt;Node18 -->
<g id="edge26" class="edge"><title>Node15&#45;&gt;Node18</title>
<path fill="none" stroke="midnightblue" d="M707.676,-126.982C764.509,-114.26 848.104,-95.5076 921,-79 932.738,-76.342 945.18,-73.5125 957.306,-70.7487"/>
<polygon fill="midnightblue" stroke="midnightblue" points="958.423,-74.0839 967.394,-68.4478 956.866,-67.2592 958.423,-74.0839"/>
</g>
<!-- Node16&#45;&gt;Node11 -->
<g id="edge19" class="edge"><title>Node16&#45;&gt;Node11</title>
<path fill="none" stroke="midnightblue" d="M890.049,-145.555C943.92,-156.328 1031.86,-175.331 1106,-198 1124.33,-203.604 1144.35,-211.148 1160.51,-217.608"/>
<polygon fill="midnightblue" stroke="midnightblue" points="1159.44,-220.952 1170.03,-221.464 1162.07,-214.464 1159.44,-220.952"/>
</g>
<!-- Node16&#45;&gt;Node13 -->
<g id="edge18" class="edge"><title>Node16&#45;&gt;Node13</title>
<path fill="none" stroke="midnightblue" d="M887.605,-126.487C908.76,-122.722 934.027,-118.853 957,-117 1023.01,-111.675 1040.16,-109.855 1106,-117 1119.64,-118.481 1134.29,-121.238 1147.57,-124.202"/>
<polygon fill="midnightblue" stroke="midnightblue" points="1146.9,-127.639 1157.43,-126.492 1148.48,-120.82 1146.9,-127.639"/>
</g>
<!-- Node17 -->
<g id="node17" class="node"><title>Node17</title>
<g id="a_node17"><a xlink:href="../../da/d73/endianconv_8c.html#a2e8bf172dd5ecba3cc0871278ab06538" target="_top" xlink:title="Encapsulate the sockaddr information as necessary for the Common Packet Format data items...">
<polygon fill="none" stroke="black" points="974,-126.5 974,-145.5 1089,-145.5 1089,-126.5 974,-126.5"/>
<text text-anchor="middle" x="1031.5" y="-133.5" font-family="Helvetica,sans-Serif" font-size="10.00">EncapsulateIpAddress</text>
</a>
</g>
</g>
<!-- Node16&#45;&gt;Node17 -->
<g id="edge20" class="edge"><title>Node16&#45;&gt;Node17</title>
<path fill="none" stroke="midnightblue" d="M921.065,-136C935.268,-136 949.902,-136 963.664,-136"/>
<polygon fill="midnightblue" stroke="midnightblue" points="963.996,-139.5 973.996,-136 963.996,-132.5 963.996,-139.5"/>
</g>
<!-- Node16&#45;&gt;Node18 -->
<g id="edge23" class="edge"><title>Node16&#45;&gt;Node18</title>
<path fill="none" stroke="midnightblue" d="M883.194,-126.422C895.761,-122.789 909.259,-118.032 921,-112 939.03,-102.738 939.453,-94.1469 957,-84 963.795,-80.0706 971.205,-76.4047 978.619,-73.0796"/>
<polygon fill="midnightblue" stroke="midnightblue" points="980.165,-76.2245 987.967,-69.0559 977.398,-69.7948 980.165,-76.2245"/>
</g>
<!-- Node19 -->
<g id="node19" class="node"><title>Node19</title>
<g id="a_node19"><a xlink:href="../../da/d73/endianconv_8c.html#af4e7ccbb21e333ad15028c531f0384c6" target="_top" xlink:title="MoveMessageNOctets">
<polygon fill="none" stroke="black" points="973,-0.5 973,-19.5 1090,-19.5 1090,-0.5 973,-0.5"/>
<text text-anchor="middle" x="1031.5" y="-7.5" font-family="Helvetica,sans-Serif" font-size="10.00">MoveMessageNOctets</text>
</a>
</g>
</g>
<!-- Node16&#45;&gt;Node19 -->
<g id="edge24" class="edge"><title>Node16&#45;&gt;Node19</title>
<path fill="none" stroke="midnightblue" d="M857.054,-126.321C874.355,-115.995 901.318,-98.4698 921,-79 940.467,-59.7423 934.398,-44.4586 957,-29 959.917,-27.005 963.029,-25.2195 966.264,-23.6215"/>
<polygon fill="midnightblue" stroke="midnightblue" points="967.834,-26.7564 975.642,-19.596 965.073,-20.3239 967.834,-26.7564"/>
</g>
<!-- Node17&#45;&gt;Node11 -->
<g id="edge22" class="edge"><title>Node17&#45;&gt;Node11</title>
<path fill="none" stroke="midnightblue" d="M1070.63,-145.501C1082.36,-149.191 1095.05,-153.999 1106,-160 1132.94,-174.768 1159.6,-198.38 1176.05,-214.277"/>
<polygon fill="midnightblue" stroke="midnightblue" points="1173.68,-216.859 1183.26,-221.388 1178.6,-211.875 1173.68,-216.859"/>
</g>
<!-- Node17&#45;&gt;Node13 -->
<g id="edge21" class="edge"><title>Node17&#45;&gt;Node13</title>
<path fill="none" stroke="midnightblue" d="M1089.36,-136C1103.03,-136 1117.69,-136 1131.54,-136"/>
<polygon fill="midnightblue" stroke="midnightblue" points="1131.94,-139.5 1141.94,-136 1131.94,-132.5 1131.94,-139.5"/>
</g>
<!-- Node20&#45;&gt;Node15 -->
<g id="edge31" class="edge"><title>Node20&#45;&gt;Node15</title>
<path fill="none" stroke="midnightblue" d="M495.252,-95.0085C521.638,-103.664 555.006,-114.61 582.898,-123.76"/>
<polygon fill="midnightblue" stroke="midnightblue" points="581.922,-127.123 592.515,-126.915 584.104,-120.472 581.922,-127.123"/>
</g>
<!-- Node21 -->
<g id="node21" class="node"><title>Node21</title>
<g id="a_node21"><a xlink:href="../../d2/dbd/encap_8c.html#a1e89285abfb378b98cd946a040dd8f5d" target="_top" xlink:title="DetermineDelayTime">
<polygon fill="none" stroke="black" points="585,-50.5 585,-69.5 694,-69.5 694,-50.5 585,-50.5"/>
<text text-anchor="middle" x="639.5" y="-57.5" font-family="Helvetica,sans-Serif" font-size="10.00">DetermineDelayTime</text>
</a>
</g>
</g>
<!-- Node20&#45;&gt;Node21 -->
<g id="edge28" class="edge"><title>Node20&#45;&gt;Node21</title>
<path fill="none" stroke="midnightblue" d="M517.2,-72.836C535.967,-70.85 556.273,-68.7013 574.804,-66.7404"/>
<polygon fill="midnightblue" stroke="midnightblue" points="575.319,-70.2055 584.895,-65.6725 574.582,-63.2443 575.319,-70.2055"/>
</g>
<!-- Node20&#45;&gt;Node22 -->
<g id="edge32" class="edge"><title>Node20&#45;&gt;Node22</title>
<path fill="none" stroke="midnightblue" d="M488.066,-64.9341C508.638,-57.2045 534.492,-47.9747 558,-41 566.402,-38.5072 575.373,-36.1231 584.164,-33.9375"/>
<polygon fill="midnightblue" stroke="midnightblue" points="585.08,-37.3169 593.974,-31.5591 583.431,-30.514 585.08,-37.3169"/>
</g>
<!-- Node21&#45;&gt;Node9 -->
<g id="edge29" class="edge"><title>Node21&#45;&gt;Node9</title>
<path fill="none" stroke="midnightblue" d="M694.207,-60C719.316,-60 749.37,-60 775.494,-60"/>
<polygon fill="midnightblue" stroke="midnightblue" points="775.67,-63.5001 785.669,-60 775.669,-56.5001 775.67,-63.5001"/>
</g>
<!-- Node21&#45;&gt;Node19 -->
<g id="edge30" class="edge"><title>Node21&#45;&gt;Node19</title>
<path fill="none" stroke="midnightblue" d="M694.066,-50.702C713.816,-47.4223 736.395,-43.8462 757,-41 826.965,-31.3355 907.307,-22.4973 962.723,-16.7528"/>
<polygon fill="midnightblue" stroke="midnightblue" points="963.184,-20.2239 972.772,-15.7167 962.466,-13.2608 963.184,-20.2239"/>
</g>
<!-- Node23&#45;&gt;Node11 -->
<g id="edge34" class="edge"><title>Node23&#45;&gt;Node11</title>
<path fill="none" stroke="midnightblue" d="M913.124,-325.604C967.885,-323.138 1043.76,-315.044 1106,-291 1132.13,-280.905 1157.98,-261.389 1174.52,-247.352"/>
<polygon fill="midnightblue" stroke="midnightblue" points="1177.03,-249.801 1182.27,-240.59 1172.43,-244.527 1177.03,-249.801"/>
</g>
<!-- Node23&#45;&gt;Node12 -->
<g id="edge35" class="edge"><title>Node23&#45;&gt;Node12</title>
<path fill="none" stroke="midnightblue" d="M892.646,-310.897C902.161,-307.844 911.936,-304.491 921,-301 949.469,-290.036 980.942,-275.064 1002.81,-264.18"/>
<polygon fill="midnightblue" stroke="midnightblue" points="1004.48,-267.257 1011.85,-259.642 1001.34,-261.001 1004.48,-267.257"/>
</g>
</g>
</svg>
