<?xml version="1.0" encoding="UTF-8" standalone="no"?>
<!DOCTYPE svg PUBLIC "-//W3C//DTD SVG 1.1//EN"
 "http://www.w3.org/Graphics/SVG/1.1/DTD/svg11.dtd">
<!-- Generated by graphviz version 2.38.0 (20140413.2041)
 -->
<!-- Title: CheckSocketSet Pages: 1 -->
<svg width="831pt" height="225pt"
 viewBox="0.00 0.00 831.00 225.00" xmlns="http://www.w3.org/2000/svg" xmlns:xlink="http://www.w3.org/1999/xlink">
<g id="graph0" class="graph" transform="scale(1 1) rotate(0) translate(4 221)">
<title>CheckSocketSet</title>
<!-- Node1 -->
<g id="node1" class="node"><title>Node1</title>
<polygon fill="#bfbfbf" stroke="black" points="0,-104 0,-123 91,-123 91,-104 0,-104"/>
<text text-anchor="middle" x="45.5" y="-111" font-family="Helvetica,sans-Serif" font-size="10.00">CheckSocketSet</text>
</g>
<!-- Node2 -->
<g id="node2" class="node"><title>Node2</title>
<g id="a_node2"><a xlink:href="../../db/d4f/generic__networkhandler_8c.html#af0c95ade149818d252c292b489cfe190" target="_top" xlink:title="check if on one of the UDP consuming sockets data has been received and if yes handle it correctly ...">
<polygon fill="none" stroke="black" points="138,-186.5 138,-216.5 299,-216.5 299,-186.5 138,-186.5"/>
<text text-anchor="start" x="146" y="-204.5" font-family="Helvetica,sans-Serif" font-size="10.00">CheckAndHandleConsumingUdp</text>
<text text-anchor="middle" x="218.5" y="-193.5" font-family="Helvetica,sans-Serif" font-size="10.00">Sockets</text>
</a>
</g>
</g>
<!-- Node1&#45;&gt;Node2 -->
<g id="edge1" class="edge"><title>Node1&#45;&gt;Node2</title>
<path fill="none" stroke="midnightblue" d="M65.3802,-129.656C81.047,-142.412 104.349,-159.931 127,-171.5 138.203,-177.222 150.731,-182.191 162.809,-186.349"/>
<polygon fill="midnightblue" stroke="midnightblue" points="67.4447,-126.821 57.5147,-123.127 62.9739,-132.207 67.4447,-126.821"/>
</g>
<!-- Node3 -->
<g id="node3" class="node"><title>Node3</title>
<g id="a_node3"><a xlink:href="../../da/dc2/generic__networkhandler_8h.html#a2f01af81d3e5018d9980e2bc28c9078a" target="_top" xlink:title="NetworkHandlerProcessOnce">
<polygon fill="none" stroke="black" points="346,-104 346,-123 492,-123 492,-104 346,-104"/>
<text text-anchor="middle" x="419" y="-111" font-family="Helvetica,sans-Serif" font-size="10.00">NetworkHandlerProcessOnce</text>
</a>
</g>
</g>
<!-- Node1&#45;&gt;Node3 -->
<g id="edge13" class="edge"><title>Node1&#45;&gt;Node3</title>
<path fill="none" stroke="midnightblue" d="M80.5064,-126.552C94.6584,-131.325 111.399,-136.133 127,-138.5 207.413,-150.699 229.192,-147.731 310,-138.5 335.623,-135.573 364.012,-128.861 385.252,-123.128"/>
<polygon fill="midnightblue" stroke="midnightblue" points="81.3072,-123.124 70.7123,-123.118 78.991,-129.729 81.3072,-123.124"/>
</g>
<!-- Node8 -->
<g id="node8" class="node"><title>Node8</title>
<g id="a_node8"><a xlink:href="../../db/d4f/generic__networkhandler_8c.html#a8c1688da4bc37416162f4ba5ac436294" target="_top" xlink:title="handle any connection request coming in the TCP server socket. ">
<polygon fill="none" stroke="black" points="146.5,-98.5 146.5,-128.5 290.5,-128.5 290.5,-98.5 146.5,-98.5"/>
<text text-anchor="start" x="154.5" y="-116.5" font-family="Helvetica,sans-Serif" font-size="10.00">CheckAndHandleTcpListener</text>
<text text-anchor="middle" x="218.5" y="-105.5" font-family="Helvetica,sans-Serif" font-size="10.00">Socket</text>
</a>
</g>
</g>
<!-- Node1&#45;&gt;Node8 -->
<g id="edge7" class="edge"><title>Node1&#45;&gt;Node8</title>
<path fill="none" stroke="midnightblue" d="M101.57,-113.5C115.851,-113.5 131.435,-113.5 146.412,-113.5"/>
<polygon fill="midnightblue" stroke="midnightblue" points="101.428,-110 91.4282,-113.5 101.428,-117 101.428,-110"/>
</g>
<!-- Node9 -->
<g id="node9" class="node"><title>Node9</title>
<g id="a_node9"><a xlink:href="../../db/d4f/generic__networkhandler_8c.html#a5cae623dd720f3072dabdb78aa134262" target="_top" xlink:title="Checks and handles incoming messages via UDP broadcast. ">
<polygon fill="none" stroke="black" points="127,-49.5 127,-79.5 310,-79.5 310,-49.5 127,-49.5"/>
<text text-anchor="start" x="135" y="-67.5" font-family="Helvetica,sans-Serif" font-size="10.00">CheckAndHandleUdpGlobalBroadcast</text>
<text text-anchor="middle" x="218.5" y="-56.5" font-family="Helvetica,sans-Serif" font-size="10.00">Socket</text>
</a>
</g>
</g>
<!-- Node1&#45;&gt;Node9 -->
<g id="edge9" class="edge"><title>Node1&#45;&gt;Node9</title>
<path fill="none" stroke="midnightblue" d="M87.9261,-100.975C100.464,-97.2311 114.281,-93.1525 127,-89.5 138.437,-86.2158 150.71,-82.7717 162.413,-79.5261"/>
<polygon fill="midnightblue" stroke="midnightblue" points="86.7658,-97.6686 78.1906,-103.891 88.7744,-104.374 86.7658,-97.6686"/>
</g>
<!-- Node10 -->
<g id="node10" class="node"><title>Node10</title>
<g id="a_node10"><a xlink:href="../../db/d4f/generic__networkhandler_8c.html#ace1d8f3907ead0c43c1b5853132d5eb1" target="_top" xlink:title="Checks and processes request received via the UDP unicast socket, currently the implementation is por...">
<polygon fill="none" stroke="black" points="146,-0.5 146,-30.5 291,-30.5 291,-0.5 146,-0.5"/>
<text text-anchor="start" x="154" y="-18.5" font-family="Helvetica,sans-Serif" font-size="10.00">CheckAndHandleUdpUnicast</text>
<text text-anchor="middle" x="218.5" y="-7.5" font-family="Helvetica,sans-Serif" font-size="10.00">Socket</text>
</a>
</g>
</g>
<!-- Node1&#45;&gt;Node10 -->
<g id="edge11" class="edge"><title>Node1&#45;&gt;Node10</title>
<path fill="none" stroke="midnightblue" d="M61.2663,-96.038C76.2195,-79.4308 100.819,-54.9064 127,-40.5 133.998,-36.6494 141.632,-33.357 149.403,-30.5501"/>
<polygon fill="midnightblue" stroke="midnightblue" points="58.3295,-94.0786 54.3689,-103.905 63.5931,-98.6933 58.3295,-94.0786"/>
</g>
<!-- Node2&#45;&gt;Node3 -->
<g id="edge2" class="edge"><title>Node2&#45;&gt;Node3</title>
<path fill="none" stroke="midnightblue" d="M279.972,-183.069C290.11,-179.521 300.437,-175.616 310,-171.5 344.015,-156.859 381.684,-135.326 402.326,-123.034"/>
<polygon fill="midnightblue" stroke="midnightblue" points="278.673,-179.814 270.34,-186.357 280.935,-186.439 278.673,-179.814"/>
</g>
<!-- Node4 -->
<g id="node4" class="node"><title>Node4</title>
<g id="a_node4"><a xlink:href="../../d5/dcb/MINGW_2main_8c.html#ad338a7dbc41dc40bcecd0479377ef207" target="_top" xlink:title="main">
<polygon fill="none" stroke="black" points="543,-123 543,-142 581,-142 581,-123 543,-123"/>
<text text-anchor="middle" x="562" y="-130" font-family="Helvetica,sans-Serif" font-size="10.00">main</text>
</a>
</g>
</g>
<!-- Node3&#45;&gt;Node4 -->
<g id="edge3" class="edge"><title>Node3&#45;&gt;Node4</title>
<path fill="none" stroke="midnightblue" d="M500.851,-124.395C516.712,-126.532 531.859,-128.573 542.984,-130.072"/>
<polygon fill="midnightblue" stroke="midnightblue" points="501.291,-120.923 490.913,-123.056 500.356,-127.86 501.291,-120.923"/>
</g>
<!-- Node7 -->
<g id="node7" class="node"><title>Node7</title>
<g id="a_node7"><a xlink:href="../../d9/dfb/POSIX_2main_8c.html#acd4e45a35a64f9cb29b59f63492b61d2" target="_top" xlink:title="Signal handler function for ending stack execution. ">
<polygon fill="none" stroke="black" points="528,-85 528,-104 596,-104 596,-85 528,-85"/>
<text text-anchor="middle" x="562" y="-92" font-family="Helvetica,sans-Serif" font-size="10.00">LeaveStack</text>
</a>
</g>
</g>
<!-- Node3&#45;&gt;Node7 -->
<g id="edge6" class="edge"><title>Node3&#45;&gt;Node7</title>
<path fill="none" stroke="midnightblue" d="M500.851,-102.605C510.328,-101.328 519.55,-100.086 527.811,-98.9723"/>
<polygon fill="midnightblue" stroke="midnightblue" points="500.356,-99.1402 490.913,-103.944 501.291,-106.077 500.356,-99.1402"/>
</g>
<!-- Node5 -->
<g id="node5" class="node"><title>Node5</title>
<g id="a_node5"><a xlink:href="../../d8/d03/ports_2MINGW_2CMakeLists_8txt.html#a7e00df43a20d627a1732be7766d91097" target="_top" xlink:title="add_library">
<polygon fill="none" stroke="black" points="632,-123 632,-142 696,-142 696,-123 632,-123"/>
<text text-anchor="middle" x="664" y="-130" font-family="Helvetica,sans-Serif" font-size="10.00">add_library</text>
</a>
</g>
</g>
<!-- Node4&#45;&gt;Node5 -->
<g id="edge4" class="edge"><title>Node4&#45;&gt;Node5</title>
<path fill="none" stroke="midnightblue" d="M591.697,-132.5C604.244,-132.5 618.992,-132.5 631.809,-132.5"/>
<polygon fill="midnightblue" stroke="midnightblue" points="591.342,-129 581.342,-132.5 591.342,-136 591.342,-129"/>
</g>
<!-- Node6 -->
<g id="node6" class="node"><title>Node6</title>
<g id="a_node6"><a xlink:href="../../d8/dce/ports_2CMakeLists_8txt.html#a598fae457555a5fb26e18d4cd8f89de9" target="_top" xlink:title="add_subdirectory">
<polygon fill="none" stroke="black" points="732,-123 732,-142 823,-142 823,-123 732,-123"/>
<text text-anchor="middle" x="777.5" y="-130" font-family="Helvetica,sans-Serif" font-size="10.00">add_subdirectory</text>
</a>
</g>
</g>
<!-- Node5&#45;&gt;Node6 -->
<g id="edge5" class="edge"><title>Node5&#45;&gt;Node6</title>
<path fill="none" stroke="midnightblue" d="M706.3,-132.5C714.629,-132.5 723.419,-132.5 731.856,-132.5"/>
<polygon fill="midnightblue" stroke="midnightblue" points="706.059,-129 696.059,-132.5 706.059,-136 706.059,-129"/>
</g>
<!-- Node8&#45;&gt;Node3 -->
<g id="edge8" class="edge"><title>Node8&#45;&gt;Node3</title>
<path fill="none" stroke="midnightblue" d="M300.8,-113.5C315.684,-113.5 331.125,-113.5 345.724,-113.5"/>
<polygon fill="midnightblue" stroke="midnightblue" points="300.602,-110 290.602,-113.5 300.602,-117 300.602,-110"/>
</g>
<!-- Node9&#45;&gt;Node3 -->
<g id="edge10" class="edge"><title>Node9&#45;&gt;Node3</title>
<path fill="none" stroke="midnightblue" d="M290.412,-82.0048C320.397,-89.4065 354.148,-97.738 379.402,-103.972"/>
<polygon fill="midnightblue" stroke="midnightblue" points="290.953,-78.5333 280.406,-79.5346 289.275,-85.3293 290.953,-78.5333"/>
</g>
<!-- Node10&#45;&gt;Node3 -->
<g id="edge12" class="edge"><title>Node10&#45;&gt;Node3</title>
<path fill="none" stroke="midnightblue" d="M293.692,-33.8453C299.29,-35.8795 304.784,-38.0956 310,-40.5 348.023,-58.0279 387.492,-88.3455 406.46,-103.814"/>
<polygon fill="midnightblue" stroke="midnightblue" points="294.8,-30.5253 284.206,-30.5928 292.53,-37.1469 294.8,-30.5253"/>
</g>
</g>
</svg>
