<?xml version="1.0" encoding="UTF-8" standalone="no"?>
<!DOCTYPE svg PUBLIC "-//W3C//DTD SVG 1.1//EN"
 "http://www.w3.org/Graphics/SVG/1.1/DTD/svg11.dtd">
<!-- Generated by graphviz version 2.38.0 (20140413.2041)
 -->
<!-- Title: CheckAndHandleUdpGlobalBroadcastSocket Pages: 1 -->
<svg width="704pt" height="66pt"
 viewBox="0.00 0.00 704.00 66.00" xmlns="http://www.w3.org/2000/svg" xmlns:xlink="http://www.w3.org/1999/xlink">
<g id="graph0" class="graph" transform="scale(1 1) rotate(0) translate(4 62)">
<title>CheckAndHandleUdpGlobalBroadcastSocket</title>
<!-- Node1 -->
<g id="node1" class="node"><title>Node1</title>
<polygon fill="#bfbfbf" stroke="black" points="0,-14 0,-44 183,-44 183,-14 0,-14"/>
<text text-anchor="start" x="8" y="-32" font-family="Helvetica,sans-Serif" font-size="10.00">CheckAndHandleUdpGlobalBroadcast</text>
<text text-anchor="middle" x="91.5" y="-21" font-family="Helvetica,sans-Serif" font-size="10.00">Socket</text>
</g>
<!-- Node2 -->
<g id="node2" class="node"><title>Node2</title>
<g id="a_node2"><a xlink:href="../../da/dc2/generic__networkhandler_8h.html#a2f01af81d3e5018d9980e2bc28c9078a" target="_top" xlink:title="NetworkHandlerProcessOnce">
<polygon fill="none" stroke="black" points="219,-19.5 219,-38.5 365,-38.5 365,-19.5 219,-19.5"/>
<text text-anchor="middle" x="292" y="-26.5" font-family="Helvetica,sans-Serif" font-size="10.00">NetworkHandlerProcessOnce</text>
</a>
</g>
</g>
<!-- Node1&#45;&gt;Node2 -->
<g id="edge1" class="edge"><title>Node1&#45;&gt;Node2</title>
<path fill="none" stroke="midnightblue" d="M193.156,-29C201.783,-29 210.396,-29 218.735,-29"/>
<polygon fill="midnightblue" stroke="midnightblue" points="193.037,-25.5001 183.037,-29 193.037,-32.5001 193.037,-25.5001"/>
</g>
<!-- Node3 -->
<g id="node3" class="node"><title>Node3</title>
<g id="a_node3"><a xlink:href="../../d5/dcb/MINGW_2main_8c.html#ad338a7dbc41dc40bcecd0479377ef207" target="_top" xlink:title="main">
<polygon fill="none" stroke="black" points="416,-38.5 416,-57.5 454,-57.5 454,-38.5 416,-38.5"/>
<text text-anchor="middle" x="435" y="-45.5" font-family="Helvetica,sans-Serif" font-size="10.00">main</text>
</a>
</g>
</g>
<!-- Node2&#45;&gt;Node3 -->
<g id="edge2" class="edge"><title>Node2&#45;&gt;Node3</title>
<path fill="none" stroke="midnightblue" d="M373.851,-39.8949C389.712,-42.0322 404.859,-44.0731 415.984,-45.5724"/>
<polygon fill="midnightblue" stroke="midnightblue" points="374.291,-36.4225 363.913,-38.5557 373.356,-43.3598 374.291,-36.4225"/>
</g>
<!-- Node6 -->
<g id="node6" class="node"><title>Node6</title>
<g id="a_node6"><a xlink:href="../../d9/dfb/POSIX_2main_8c.html#acd4e45a35a64f9cb29b59f63492b61d2" target="_top" xlink:title="Signal handler function for ending stack execution. ">
<polygon fill="none" stroke="black" points="401,-0.5 401,-19.5 469,-19.5 469,-0.5 401,-0.5"/>
<text text-anchor="middle" x="435" y="-7.5" font-family="Helvetica,sans-Serif" font-size="10.00">LeaveStack</text>
</a>
</g>
</g>
<!-- Node2&#45;&gt;Node6 -->
<g id="edge5" class="edge"><title>Node2&#45;&gt;Node6</title>
<path fill="none" stroke="midnightblue" d="M373.851,-18.1051C383.328,-16.8281 392.55,-15.5855 400.811,-14.4723"/>
<polygon fill="midnightblue" stroke="midnightblue" points="373.356,-14.6402 363.913,-19.4443 374.291,-21.5775 373.356,-14.6402"/>
</g>
<!-- Node4 -->
<g id="node4" class="node"><title>Node4</title>
<g id="a_node4"><a xlink:href="../../d8/d03/ports_2MINGW_2CMakeLists_8txt.html#a7e00df43a20d627a1732be7766d91097" target="_top" xlink:title="add_library">
<polygon fill="none" stroke="black" points="505,-38.5 505,-57.5 569,-57.5 569,-38.5 505,-38.5"/>
<text text-anchor="middle" x="537" y="-45.5" font-family="Helvetica,sans-Serif" font-size="10.00">add_library</text>
</a>
</g>
</g>
<!-- Node3&#45;&gt;Node4 -->
<g id="edge3" class="edge"><title>Node3&#45;&gt;Node4</title>
<path fill="none" stroke="midnightblue" d="M464.697,-48C477.244,-48 491.992,-48 504.809,-48"/>
<polygon fill="midnightblue" stroke="midnightblue" points="464.342,-44.5001 454.342,-48 464.342,-51.5001 464.342,-44.5001"/>
</g>
<!-- Node5 -->
<g id="node5" class="node"><title>Node5</title>
<g id="a_node5"><a xlink:href="../../d8/dce/ports_2CMakeLists_8txt.html#a598fae457555a5fb26e18d4cd8f89de9" target="_top" xlink:title="add_subdirectory">
<polygon fill="none" stroke="black" points="605,-38.5 605,-57.5 696,-57.5 696,-38.5 605,-38.5"/>
<text text-anchor="middle" x="650.5" y="-45.5" font-family="Helvetica,sans-Serif" font-size="10.00">add_subdirectory</text>
</a>
</g>
</g>
<!-- Node4&#45;&gt;Node5 -->
<g id="edge4" class="edge"><title>Node4&#45;&gt;Node5</title>
<path fill="none" stroke="midnightblue" d="M579.3,-48C587.629,-48 596.419,-48 604.856,-48"/>
<polygon fill="midnightblue" stroke="midnightblue" points="579.059,-44.5001 569.059,-48 579.059,-51.5001 579.059,-44.5001"/>
</g>
</g>
</svg>
