<?xml version="1.0" encoding="UTF-8" standalone="no"?>
<!DOCTYPE svg PUBLIC "-//W3C//DTD SVG 1.1//EN"
 "http://www.w3.org/Graphics/SVG/1.1/DTD/svg11.dtd">
<!-- Generated by graphviz version 2.36.0 (20140111.2315)
 -->
<!-- Title: RemoveSocketTimerFromList Pages: 1 -->
<svg width="1566pt" height="258pt"
 viewBox="0.00 0.00 1566.00 258.42" xmlns="http://www.w3.org/2000/svg" xmlns:xlink="http://www.w3.org/1999/xlink">
<g id="graph0" class="graph" transform="scale(1 1) rotate(0) translate(4 254.417)">
<title>RemoveSocketTimerFromList</title>
<!-- Node1 -->
<g id="node1" class="node"><title>Node1</title>
<polygon fill="#bfbfbf" stroke="black" points="0.5,-189.5 0.5,-208.5 147.5,-208.5 147.5,-189.5 0.5,-189.5"/>
<text text-anchor="middle" x="74" y="-196.5" font-family="Helvetica,sans-Serif" font-size="10.00">RemoveSocketTimerFromList</text>
</g>
<!-- Node2 -->
<g id="node2" class="node"><title>Node2</title>
<g id="a_node2"><a xlink:href="../../da/dc2/generic__networkhandler_8h.html#a1bfa5ef8e4802716459a56567ee16592" target="_top" xlink:title="CloseTcpSocket">
<polygon fill="none" stroke="black" points="184.5,-126.5 184.5,-145.5 273.5,-145.5 273.5,-126.5 184.5,-126.5"/>
<text text-anchor="middle" x="229" y="-133.5" font-family="Helvetica,sans-Serif" font-size="10.00">CloseTcpSocket</text>
</a>
</g>
</g>
<!-- Node1&#45;&gt;Node2 -->
<g id="edge1" class="edge"><title>Node1&#45;&gt;Node2</title>
<path fill="none" stroke="midnightblue" d="M107.575,-185.587C136.68,-173.602 178.617,-156.334 204.544,-145.658"/>
<polygon fill="midnightblue" stroke="midnightblue" points="106.152,-182.388 98.2374,-189.432 108.817,-188.86 106.152,-182.388"/>
</g>
<!-- Node5 -->
<g id="node5" class="node"><title>Node5</title>
<g id="a_node5"><a xlink:href="../../db/d4f/generic__networkhandler_8c.html#aca5593b7dd39d7a7b437999a367102d6" target="_top" xlink:title="Handles data on an established TCP connection, processed connection is given by socket. ">
<polygon fill="none" stroke="black" points="703,-208.5 703,-227.5 831,-227.5 831,-208.5 703,-208.5"/>
<text text-anchor="middle" x="767" y="-215.5" font-family="Helvetica,sans-Serif" font-size="10.00">HandleDataOnTcpSocket</text>
</a>
</g>
</g>
<!-- Node1&#45;&gt;Node5 -->
<g id="edge27" class="edge"><title>Node1&#45;&gt;Node5</title>
<path fill="none" stroke="midnightblue" d="M124.595,-210.777C171.91,-221.367 245.349,-236.134 310,-242 459.624,-255.576 498.408,-250.928 648,-237 670.52,-234.903 695.255,-231.147 716.236,-227.526"/>
<polygon fill="midnightblue" stroke="midnightblue" points="125.141,-207.312 114.615,-208.518 123.596,-214.139 125.141,-207.312"/>
</g>
<!-- Node3 -->
<g id="node3" class="node"><title>Node3</title>
<g id="a_node3"><a xlink:href="../../d2/dbd/encap_8c.html#a601cd19c88f03fd742f098a1bf5b9e85" target="_top" xlink:title="HandleReceivedUnregister\lSessionCommand">
<polygon fill="none" stroke="black" points="316,-203 316,-233 450,-233 450,-203 316,-203"/>
<text text-anchor="start" x="324" y="-221" font-family="Helvetica,sans-Serif" font-size="10.00">HandleReceivedUnregister</text>
<text text-anchor="middle" x="383" y="-210" font-family="Helvetica,sans-Serif" font-size="10.00">SessionCommand</text>
</a>
</g>
</g>
<!-- Node2&#45;&gt;Node3 -->
<g id="edge2" class="edge"><title>Node2&#45;&gt;Node3</title>
<path fill="none" stroke="midnightblue" d="M251.611,-151.585C267.349,-162.548 289.426,-177.142 310,-188 320.18,-193.372 331.537,-198.484 342.168,-202.917"/>
<polygon fill="midnightblue" stroke="midnightblue" points="253.324,-148.51 243.135,-145.605 249.288,-154.23 253.324,-148.51"/>
</g>
<!-- Node6 -->
<g id="node6" class="node"><title>Node6</title>
<g id="a_node6"><a xlink:href="../../da/dc2/generic__networkhandler_8h.html#a2f01af81d3e5018d9980e2bc28c9078a" target="_top" xlink:title="NetworkHandlerProcessOnce">
<polygon fill="none" stroke="black" points="886,-161.5 886,-180.5 1032,-180.5 1032,-161.5 886,-161.5"/>
<text text-anchor="middle" x="959" y="-168.5" font-family="Helvetica,sans-Serif" font-size="10.00">NetworkHandlerProcessOnce</text>
</a>
</g>
</g>
<!-- Node2&#45;&gt;Node6 -->
<g id="edge24" class="edge"><title>Node2&#45;&gt;Node6</title>
<path fill="none" stroke="midnightblue" d="M272.9,-147.926C284.821,-150.763 297.834,-153.423 310,-155 517.576,-181.913 765.593,-178.164 885.707,-174.102"/>
<polygon fill="midnightblue" stroke="midnightblue" points="273.735,-144.527 263.187,-145.521 272.052,-151.322 273.735,-144.527"/>
</g>
<!-- Node10 -->
<g id="node10" class="node"><title>Node10</title>
<g id="a_node10"><a xlink:href="../../d7/df9/encap_8h.html#ad083888333d3ceec1576126a88eeaca7" target="_top" xlink:title="CloseSessionBySessionHandle">
<polygon fill="none" stroke="black" points="492.5,-38.5 492.5,-57.5 647.5,-57.5 647.5,-38.5 492.5,-38.5"/>
<text text-anchor="middle" x="570" y="-45.5" font-family="Helvetica,sans-Serif" font-size="10.00">CloseSessionBySessionHandle</text>
</a>
</g>
</g>
<!-- Node2&#45;&gt;Node10 -->
<g id="edge9" class="edge"><title>Node2&#45;&gt;Node10</title>
<path fill="none" stroke="midnightblue" d="M246.764,-119.097C261.889,-104.986 285.471,-85.6722 310,-76 368.273,-53.0221 439.302,-46.7114 492.227,-45.7592"/>
<polygon fill="midnightblue" stroke="midnightblue" points="244.053,-116.848 239.279,-126.306 248.91,-121.89 244.053,-116.848"/>
</g>
<!-- Node15 -->
<g id="node15" class="node"><title>Node15</title>
<g id="a_node15"><a xlink:href="../../d2/dc9/group__CIP__API.html#ga00a23c1c86472edf2ed679089ae8efc1" target="_top" xlink:title="Inform the encapsulation layer that the remote host has closed the connection. ">
<polygon fill="none" stroke="black" points="344.5,-85.5 344.5,-104.5 421.5,-104.5 421.5,-85.5 344.5,-85.5"/>
<text text-anchor="middle" x="383" y="-92.5" font-family="Helvetica,sans-Serif" font-size="10.00">CloseSession</text>
</a>
</g>
</g>
<!-- Node2&#45;&gt;Node15 -->
<g id="edge15" class="edge"><title>Node2&#45;&gt;Node15</title>
<path fill="none" stroke="midnightblue" d="M275.081,-123.84C297.96,-117.669 325.347,-110.282 346.674,-104.529"/>
<polygon fill="midnightblue" stroke="midnightblue" points="273.997,-120.507 265.254,-126.491 275.82,-127.266 273.997,-120.507"/>
</g>
<!-- Node20 -->
<g id="node20" class="node"><title>Node20</title>
<g id="a_node20"><a xlink:href="../../d4/d91/group__ENCAP.html#ga1261bd2441f744c38d7a3f8d8c16c391" target="_top" xlink:title="Shutdown the encapsulation layer. ">
<polygon fill="none" stroke="black" points="1068,-0.5 1068,-19.5 1192,-19.5 1192,-0.5 1068,-0.5"/>
<text text-anchor="middle" x="1130" y="-7.5" font-family="Helvetica,sans-Serif" font-size="10.00">EncapsulationShutDown</text>
</a>
</g>
</g>
<!-- Node2&#45;&gt;Node20 -->
<g id="edge21" class="edge"><title>Node2&#45;&gt;Node20</title>
<path fill="none" stroke="midnightblue" d="M240.293,-117.579C253.431,-95.9945 278.304,-61.0198 310,-44 412.285,10.9247 452.901,-10 569,-10 569,-10 569,-10 768,-10 873.292,-10 995.858,-10 1067.68,-10"/>
<polygon fill="midnightblue" stroke="midnightblue" points="237.136,-116.045 235.1,-126.442 243.176,-119.584 237.136,-116.045"/>
</g>
<!-- Node22 -->
<g id="node22" class="node"><title>Node22</title>
<g id="a_node22"><a xlink:href="../../db/d4f/generic__networkhandler_8c.html#ab561fc66fe48a0cf95be3d152b297dd9" target="_top" xlink:title="CheckEncapsulationInactivity">
<polygon fill="none" stroke="black" points="310,-126.5 310,-145.5 456,-145.5 456,-126.5 310,-126.5"/>
<text text-anchor="middle" x="383" y="-133.5" font-family="Helvetica,sans-Serif" font-size="10.00">CheckEncapsulationInactivity</text>
</a>
</g>
</g>
<!-- Node2&#45;&gt;Node22 -->
<g id="edge25" class="edge"><title>Node2&#45;&gt;Node22</title>
<path fill="none" stroke="midnightblue" d="M283.635,-136C292.088,-136 300.946,-136 309.738,-136"/>
<polygon fill="midnightblue" stroke="midnightblue" points="283.557,-132.5 273.557,-136 283.557,-139.5 283.557,-132.5"/>
</g>
<!-- Node4 -->
<g id="node4" class="node"><title>Node4</title>
<g id="a_node4"><a xlink:href="../../d2/dc9/group__CIP__API.html#ga16eaeeb12ba23b5a75c8e5902a33d70a" target="_top" xlink:title="Notify the encapsulation layer that an explicit message has been received via TCP. ">
<polygon fill="none" stroke="black" points="492,-208.5 492,-227.5 648,-227.5 648,-208.5 492,-208.5"/>
<text text-anchor="middle" x="570" y="-215.5" font-family="Helvetica,sans-Serif" font-size="10.00">HandleReceivedExplictTcpData</text>
</a>
</g>
</g>
<!-- Node3&#45;&gt;Node4 -->
<g id="edge3" class="edge"><title>Node3&#45;&gt;Node4</title>
<path fill="none" stroke="midnightblue" d="M460.01,-218C470.559,-218 481.404,-218 491.971,-218"/>
<polygon fill="midnightblue" stroke="midnightblue" points="460.006,-214.5 450.006,-218 460.006,-221.5 460.006,-214.5"/>
</g>
<!-- Node4&#45;&gt;Node5 -->
<g id="edge4" class="edge"><title>Node4&#45;&gt;Node5</title>
<path fill="none" stroke="midnightblue" d="M658.396,-218C673.413,-218 688.753,-218 702.971,-218"/>
<polygon fill="midnightblue" stroke="midnightblue" points="658.069,-214.5 648.069,-218 658.069,-221.5 658.069,-214.5"/>
</g>
<!-- Node5&#45;&gt;Node6 -->
<g id="edge5" class="edge"><title>Node5&#45;&gt;Node6</title>
<path fill="none" stroke="midnightblue" d="M816.455,-206.014C848.359,-198.122 889.566,-187.929 919.282,-180.578"/>
<polygon fill="midnightblue" stroke="midnightblue" points="815.316,-202.69 806.449,-208.489 816.997,-209.485 815.316,-202.69"/>
</g>
<!-- Node7 -->
<g id="node7" class="node"><title>Node7</title>
<g id="a_node7"><a xlink:href="../../d5/dcb/MINGW_2main_8c.html#ad338a7dbc41dc40bcecd0479377ef207" target="_top" xlink:title="main">
<polygon fill="none" stroke="black" points="1520,-58.5 1520,-77.5 1558,-77.5 1558,-58.5 1520,-58.5"/>
<text text-anchor="middle" x="1539" y="-65.5" font-family="Helvetica,sans-Serif" font-size="10.00">main</text>
</a>
</g>
</g>
<!-- Node6&#45;&gt;Node7 -->
<g id="edge6" class="edge"><title>Node6&#45;&gt;Node7</title>
<path fill="none" stroke="midnightblue" d="M1023.02,-159.705C1037.77,-157.119 1053.43,-154.42 1068,-152 1252.6,-121.342 1302.53,-132.691 1484,-87 1496.14,-83.9425 1509.41,-79.292 1519.76,-75.3573"/>
<polygon fill="midnightblue" stroke="midnightblue" points="1022.22,-156.291 1012.97,-161.472 1023.43,-163.186 1022.22,-156.291"/>
</g>
<!-- Node8 -->
<g id="node8" class="node"><title>Node8</title>
<g id="a_node8"><a xlink:href="../../d9/dfb/POSIX_2main_8c.html#a68147675261e664799874644a2e2179d" target="_top" xlink:title="Signal handler function for ending stack execution. ">
<polygon fill="none" stroke="black" points="1081,-161.5 1081,-180.5 1179,-180.5 1179,-161.5 1081,-161.5"/>
<text text-anchor="middle" x="1130" y="-168.5" font-family="Helvetica,sans-Serif" font-size="10.00">executeEventLoop</text>
</a>
</g>
</g>
<!-- Node6&#45;&gt;Node8 -->
<g id="edge7" class="edge"><title>Node6&#45;&gt;Node8</title>
<path fill="none" stroke="midnightblue" d="M1042.17,-171C1055.3,-171 1068.51,-171 1080.52,-171"/>
<polygon fill="midnightblue" stroke="midnightblue" points="1042.16,-167.5 1032.16,-171 1042.16,-174.5 1042.16,-167.5"/>
</g>
<!-- Node9 -->
<g id="node9" class="node"><title>Node9</title>
<g id="a_node9"><a xlink:href="../../d9/dfb/POSIX_2main_8c.html#ad338a7dbc41dc40bcecd0479377ef207" target="_top" xlink:title="main">
<polygon fill="none" stroke="black" points="1268,-161.5 1268,-180.5 1306,-180.5 1306,-161.5 1268,-161.5"/>
<text text-anchor="middle" x="1287" y="-168.5" font-family="Helvetica,sans-Serif" font-size="10.00">main</text>
</a>
</g>
</g>
<!-- Node8&#45;&gt;Node9 -->
<g id="edge8" class="edge"><title>Node8&#45;&gt;Node9</title>
<path fill="none" stroke="midnightblue" d="M1189.27,-171C1217.13,-171 1248.52,-171 1267.79,-171"/>
<polygon fill="midnightblue" stroke="midnightblue" points="1189.19,-167.5 1179.19,-171 1189.19,-174.5 1189.19,-167.5"/>
</g>
<!-- Node11 -->
<g id="node11" class="node"><title>Node11</title>
<g id="a_node11"><a xlink:href="../../dc/d93/cipclass3connection_8c.html#a6053ab7004c1419bd80faf9aca54bfd3" target="_top" xlink:title="Class3ConnectionTimeoutHandler">
<polygon fill="none" stroke="black" points="684,-38.5 684,-57.5 850,-57.5 850,-38.5 684,-38.5"/>
<text text-anchor="middle" x="767" y="-45.5" font-family="Helvetica,sans-Serif" font-size="10.00">Class3ConnectionTimeoutHandler</text>
</a>
</g>
</g>
<!-- Node10&#45;&gt;Node11 -->
<g id="edge10" class="edge"><title>Node10&#45;&gt;Node11</title>
<path fill="none" stroke="midnightblue" d="M657.68,-48C666.405,-48 675.246,-48 683.921,-48"/>
<polygon fill="midnightblue" stroke="midnightblue" points="657.51,-44.5001 647.509,-48 657.509,-51.5001 657.51,-44.5001"/>
</g>
<!-- Node12 -->
<g id="node12" class="node"><title>Node12</title>
<g id="a_node12"><a xlink:href="../../d2/d11/cipclass3connection_8h.html#a45bd741b44137164c07a6ce09a7a9a9d" target="_top" xlink:title="Check if Class3 connection is available and if yes setup all data. ">
<polygon fill="none" stroke="black" points="890.5,-38.5 890.5,-57.5 1027.5,-57.5 1027.5,-38.5 890.5,-38.5"/>
<text text-anchor="middle" x="959" y="-45.5" font-family="Helvetica,sans-Serif" font-size="10.00">EstablishClass3Connection</text>
</a>
</g>
</g>
<!-- Node11&#45;&gt;Node12 -->
<g id="edge11" class="edge"><title>Node11&#45;&gt;Node12</title>
<path fill="none" stroke="midnightblue" d="M860.359,-48C870.517,-48 880.715,-48 890.489,-48"/>
<polygon fill="midnightblue" stroke="midnightblue" points="860.232,-44.5001 850.232,-48 860.232,-51.5001 860.232,-44.5001"/>
</g>
<!-- Node13 -->
<g id="node13" class="node"><title>Node13</title>
<g id="a_node13"><a xlink:href="../../d2/da3/cipconnectionmanager_8h.html#a5ab0de6894d23e8fe84a6b46797c2212" target="_top" xlink:title="Initialize the data of the connection manager object. ">
<polygon fill="none" stroke="black" points="1228.5,-58.5 1228.5,-77.5 1345.5,-77.5 1345.5,-58.5 1228.5,-58.5"/>
<text text-anchor="middle" x="1287" y="-65.5" font-family="Helvetica,sans-Serif" font-size="10.00">ConnectionManagerInit</text>
</a>
</g>
</g>
<!-- Node12&#45;&gt;Node13 -->
<g id="edge12" class="edge"><title>Node12&#45;&gt;Node13</title>
<path fill="none" stroke="midnightblue" d="M1037.87,-52.777C1096.43,-56.3698 1175.37,-61.213 1228.35,-64.4629"/>
<polygon fill="midnightblue" stroke="midnightblue" points="1037.74,-49.263 1027.55,-52.144 1037.31,-56.2499 1037.74,-49.263"/>
</g>
<!-- Node14 -->
<g id="node14" class="node"><title>Node14</title>
<g id="a_node14"><a xlink:href="../../d2/dc9/group__CIP__API.html#ga5d4979945d124e28668b264c3823db1c" target="_top" xlink:title="Initialize and setup the CIP&#45;stack. ">
<polygon fill="none" stroke="black" points="1397.5,-58.5 1397.5,-77.5 1468.5,-77.5 1468.5,-58.5 1397.5,-58.5"/>
<text text-anchor="middle" x="1433" y="-65.5" font-family="Helvetica,sans-Serif" font-size="10.00">CipStackInit</text>
</a>
</g>
</g>
<!-- Node13&#45;&gt;Node14 -->
<g id="edge13" class="edge"><title>Node13&#45;&gt;Node14</title>
<path fill="none" stroke="midnightblue" d="M1356.11,-68C1370.45,-68 1385,-68 1397.46,-68"/>
<polygon fill="midnightblue" stroke="midnightblue" points="1355.74,-64.5001 1345.74,-68 1355.74,-71.5001 1355.74,-64.5001"/>
</g>
<!-- Node14&#45;&gt;Node7 -->
<g id="edge14" class="edge"><title>Node14&#45;&gt;Node7</title>
<path fill="none" stroke="midnightblue" d="M1478.93,-68C1493.35,-68 1508.5,-68 1519.85,-68"/>
<polygon fill="midnightblue" stroke="midnightblue" points="1478.63,-64.5001 1468.63,-68 1478.63,-71.5001 1478.63,-64.5001"/>
</g>
<!-- Node16 -->
<g id="node16" class="node"><title>Node16</title>
<g id="a_node16"><a xlink:href="../../d7/df9/encap_8h.html#a0101714be726ab1b21125b6a82ac7a56" target="_top" xlink:title="CloseEncapsulationSession\lBySockAddr">
<polygon fill="none" stroke="black" points="500.5,-77 500.5,-107 639.5,-107 639.5,-77 500.5,-77"/>
<text text-anchor="start" x="508.5" y="-95" font-family="Helvetica,sans-Serif" font-size="10.00">CloseEncapsulationSession</text>
<text text-anchor="middle" x="570" y="-84" font-family="Helvetica,sans-Serif" font-size="10.00">BySockAddr</text>
</a>
</g>
</g>
<!-- Node15&#45;&gt;Node16 -->
<g id="edge16" class="edge"><title>Node15&#45;&gt;Node16</title>
<path fill="none" stroke="midnightblue" d="M432.089,-94.2202C452.949,-93.8819 477.759,-93.4796 500.493,-93.1109"/>
<polygon fill="midnightblue" stroke="midnightblue" points="431.826,-90.7239 421.884,-94.3857 431.939,-97.723 431.826,-90.7239"/>
</g>
<!-- Node17 -->
<g id="node17" class="node"><title>Node17</title>
<g id="a_node17"><a xlink:href="../../df/d03/cipioconnection_8c.html#a7e4923f4b027d489d9933b52f6fd7007" target="_top" xlink:title="HandleIoConnectionTimeOut">
<polygon fill="none" stroke="black" points="695.5,-79.5 695.5,-98.5 838.5,-98.5 838.5,-79.5 695.5,-79.5"/>
<text text-anchor="middle" x="767" y="-86.5" font-family="Helvetica,sans-Serif" font-size="10.00">HandleIoConnectionTimeOut</text>
</a>
</g>
</g>
<!-- Node16&#45;&gt;Node17 -->
<g id="edge17" class="edge"><title>Node16&#45;&gt;Node17</title>
<path fill="none" stroke="midnightblue" d="M649.998,-90.7846C664.967,-90.5544 680.54,-90.3148 695.234,-90.0887"/>
<polygon fill="midnightblue" stroke="midnightblue" points="649.695,-87.2888 639.75,-90.9423 649.802,-94.288 649.695,-87.2888"/>
</g>
<!-- Node18 -->
<g id="node18" class="node"><title>Node18</title>
<g id="a_node18"><a xlink:href="../../df/d03/cipioconnection_8c.html#ab3282f146a3ea91c90cf14c32206ee8c" target="_top" xlink:title="SetIoConnectionCallbacks">
<polygon fill="none" stroke="black" points="892.5,-78.5 892.5,-97.5 1025.5,-97.5 1025.5,-78.5 892.5,-78.5"/>
<text text-anchor="middle" x="959" y="-85.5" font-family="Helvetica,sans-Serif" font-size="10.00">SetIoConnectionCallbacks</text>
</a>
</g>
</g>
<!-- Node17&#45;&gt;Node18 -->
<g id="edge18" class="edge"><title>Node17&#45;&gt;Node18</title>
<path fill="none" stroke="midnightblue" d="M849.127,-88.573C863.511,-88.4973 878.328,-88.4193 892.222,-88.3462"/>
<polygon fill="midnightblue" stroke="midnightblue" points="848.73,-85.075 838.749,-88.6276 848.767,-92.0749 848.73,-85.075"/>
</g>
<!-- Node19 -->
<g id="node19" class="node"><title>Node19</title>
<g id="a_node19"><a xlink:href="../../de/d45/cipioconnection_8h.html#a43e270b3f9b9f6296b12285c320c95aa" target="_top" xlink:title="Setup all data in order to establish an IO connection. ">
<polygon fill="none" stroke="black" points="1072.5,-77.5 1072.5,-96.5 1187.5,-96.5 1187.5,-77.5 1072.5,-77.5"/>
<text text-anchor="middle" x="1130" y="-84.5" font-family="Helvetica,sans-Serif" font-size="10.00">EstablishIoConnection</text>
</a>
</g>
</g>
<!-- Node18&#45;&gt;Node19 -->
<g id="edge19" class="edge"><title>Node18&#45;&gt;Node19</title>
<path fill="none" stroke="midnightblue" d="M1036.02,-87.5502C1048.26,-87.4778 1060.73,-87.404 1072.41,-87.3349"/>
<polygon fill="midnightblue" stroke="midnightblue" points="1035.8,-84.0513 1025.82,-87.6105 1035.84,-91.0512 1035.8,-84.0513"/>
</g>
<!-- Node19&#45;&gt;Node13 -->
<g id="edge20" class="edge"><title>Node19&#45;&gt;Node13</title>
<path fill="none" stroke="midnightblue" d="M1197.89,-78.801C1208.05,-77.5557 1218.45,-76.28 1228.39,-75.0616"/>
<polygon fill="midnightblue" stroke="midnightblue" points="1197.34,-75.3422 1187.84,-80.033 1198.19,-82.2902 1197.34,-75.3422"/>
</g>
<!-- Node21 -->
<g id="node21" class="node"><title>Node21</title>
<g id="a_node21"><a xlink:href="../../d2/dc9/group__CIP__API.html#gaa57b527530adc2acda6febc500fd6831" target="_top" xlink:title="Shutdown of the CIP stack. ">
<polygon fill="none" stroke="black" points="1382.5,-10.5 1382.5,-29.5 1483.5,-29.5 1483.5,-10.5 1382.5,-10.5"/>
<text text-anchor="middle" x="1433" y="-17.5" font-family="Helvetica,sans-Serif" font-size="10.00">ShutdownCipStack</text>
</a>
</g>
</g>
<!-- Node20&#45;&gt;Node21 -->
<g id="edge22" class="edge"><title>Node20&#45;&gt;Node21</title>
<path fill="none" stroke="midnightblue" d="M1202.38,-12.3714C1257.8,-14.2127 1333.23,-16.7185 1382.26,-18.3475"/>
<polygon fill="midnightblue" stroke="midnightblue" points="1202.39,-8.86977 1192.27,-12.0357 1202.15,-15.8659 1202.39,-8.86977"/>
</g>
<!-- Node21&#45;&gt;Node7 -->
<g id="edge23" class="edge"><title>Node21&#45;&gt;Node7</title>
<path fill="none" stroke="midnightblue" d="M1464.51,-34.0833C1482.45,-42.3604 1504.52,-52.5469 1519.77,-59.5841"/>
<polygon fill="midnightblue" stroke="midnightblue" points="1465.59,-30.7263 1455.05,-29.7135 1462.66,-37.082 1465.59,-30.7263"/>
</g>
<!-- Node22&#45;&gt;Node6 -->
<g id="edge26" class="edge"><title>Node22&#45;&gt;Node6</title>
<path fill="none" stroke="midnightblue" d="M466.53,-139.002C559.734,-142.682 715.895,-149.724 850,-160 861.557,-160.886 873.794,-161.981 885.718,-163.133"/>
<polygon fill="midnightblue" stroke="midnightblue" points="466.447,-135.496 456.318,-138.602 466.173,-142.491 466.447,-135.496"/>
</g>
</g>
</svg>
