<?xml version="1.0" encoding="UTF-8" standalone="no"?>
<!DOCTYPE svg PUBLIC "-//W3C//DTD SVG 1.1//EN"
 "http://www.w3.org/Graphics/SVG/1.1/DTD/svg11.dtd">
<!-- Generated by graphviz version 2.38.0 (20140413.2041)
 -->
<!-- Title: RemoveSocketTimerFromList Pages: 1 -->
<!--zoomable 347 -->
<svg id="main" version="1.1" xmlns="http://www.w3.org/2000/svg" xmlns:xlink="http://www.w3.org/1999/xlink" xml:space="preserve" onload="init(evt)">
<style type="text/css"><![CDATA[
.edge:hover path { stroke: red; }
.edge:hover polygon { stroke: red; fill: red; }
]]></style>
<script type="text/javascript"><![CDATA[
var edges = document.getElementsByTagName('g');
if (edges && edges.length) {
  for (var i=0;i<edges.length;i++) {
    if (edges[i].id.substr(0,4)=='edge') {
      edges[i].setAttribute('class','edge');
    }
  }
}
]]></script>
        <defs>
                <circle id="rim" cx="0" cy="0" r="7"/>
                <circle id="rim2" cx="0" cy="0" r="3.5"/>
                <g id="zoomPlus">
                        <use xlink:href="#rim" fill="#404040">
                                <set attributeName="fill" to="#808080" begin="zoomplus.mouseover" end="zoomplus.mouseout"/>
                        </use>
                        <path d="M-4,0h8M0,-4v8" fill="none" stroke="white" stroke-width="1.5" pointer-events="none"/>
                </g>
                <g id="zoomMin">
                        <use xlink:href="#rim" fill="#404040">
                                <set attributeName="fill" to="#808080" begin="zoomminus.mouseover" end="zoomminus.mouseout"/>
                        </use>
                        <path d="M-4,0h8" fill="none" stroke="white" stroke-width="1.5" pointer-events="none"/>
                </g>
                <g id="dirArrow">
                        <path fill="none" stroke="white" stroke-width="1.5" d="M0,-3.0v7 M-2.5,-0.5L0,-3.0L2.5,-0.5"/>
                </g>
               <g id="resetDef">
                       <use xlink:href="#rim2" fill="#404040">
                               <set attributeName="fill" to="#808080" begin="reset.mouseover" end="reset.mouseout"/>
                       </use>
               </g>
        </defs>

<script type="text/javascript">
var viewWidth = 1779;
var viewHeight = 347;
var sectionId = 'dynsection-26';
</script>
<script xlink:href="../../svgpan.js"/>
<svg id="graph" class="graph">
<g id="viewport">
<title>RemoveSocketTimerFromList</title>
<!-- Node1 -->
<g id="node1" class="node"><title>Node1</title>
<polygon fill="#bfbfbf" stroke="black" points="0,-72.5 0,-91.5 147,-91.5 147,-72.5 0,-72.5"/>
<text text-anchor="middle" x="73.5" y="-79.5" font-family="Helvetica,sans-Serif" font-size="10.00">RemoveSocketTimerFromList</text>
</g>
<!-- Node2 -->
<g id="node2" class="node"><title>Node2</title>
<g id="a_node2"><a xlink:href="../../da/dc2/generic__networkhandler_8h.html#a1bfa5ef8e4802716459a56567ee16592" target="_top" xlink:title="CloseTcpSocket">
<polygon fill="none" stroke="black" points="183,-145.5 183,-164.5 272,-164.5 272,-145.5 183,-145.5"/>
<text text-anchor="middle" x="227.5" y="-152.5" font-family="Helvetica,sans-Serif" font-size="10.00">CloseTcpSocket</text>
</a>
</g>
</g>
<!-- Node1&#45;&gt;Node2 -->
<g id="edge1" class="edge"><title>Node1&#45;&gt;Node2</title>
<path fill="none" stroke="midnightblue" d="M103.571,-95.9615C133.81,-110.484 180.335,-132.829 206.624,-145.454"/>
<polygon fill="midnightblue" stroke="midnightblue" points="104.901,-92.7178 94.3713,-91.5435 101.87,-99.0278 104.901,-92.7178"/>
</g>
<!-- Node10 -->
<g id="node10" class="node"><title>Node10</title>
<g id="a_node10"><a xlink:href="../../db/d4f/generic__networkhandler_8c.html#aca5593b7dd39d7a7b437999a367102d6" target="_top" xlink:title="Handles data on an established TCP connection, processed connection is given by socket. ">
<polygon fill="none" stroke="black" points="710,-0.5 710,-19.5 838,-19.5 838,-0.5 710,-0.5"/>
<text text-anchor="middle" x="774" y="-7.5" font-family="Helvetica,sans-Serif" font-size="10.00">HandleDataOnTcpSocket</text>
</a>
</g>
</g>
<!-- Node1&#45;&gt;Node10 -->
<g id="edge32" class="edge"><title>Node1&#45;&gt;Node10</title>
<path fill="none" stroke="midnightblue" d="M122.104,-70.0098C169.042,-58.7113 242.983,-42.3121 308,-34 450.928,-15.7274 620.258,-11.2652 709.929,-10.2402"/>
<polygon fill="midnightblue" stroke="midnightblue" points="121.114,-66.6484 112.222,-72.4092 122.765,-73.4507 121.114,-66.6484"/>
</g>
<!-- Node3 -->
<g id="node3" class="node"><title>Node3</title>
<g id="a_node3"><a xlink:href="../../d2/dbd/encap_8c.html#a601cd19c88f03fd742f098a1bf5b9e85" target="_top" xlink:title="Unregister encapsulation session. ">
<polygon fill="none" stroke="black" points="318.5,-77 318.5,-107 452.5,-107 452.5,-77 318.5,-77"/>
<text text-anchor="start" x="326.5" y="-95" font-family="Helvetica,sans-Serif" font-size="10.00">HandleReceivedUnregister</text>
<text text-anchor="middle" x="385.5" y="-84" font-family="Helvetica,sans-Serif" font-size="10.00">SessionCommand</text>
</a>
</g>
</g>
<!-- Node2&#45;&gt;Node3 -->
<g id="edge2" class="edge"><title>Node2&#45;&gt;Node3</title>
<path fill="none" stroke="midnightblue" d="M260.571,-141.519C275.035,-135.482 292.349,-128.316 308,-122 320.171,-117.088 333.474,-111.832 345.524,-107.114"/>
<polygon fill="midnightblue" stroke="midnightblue" points="258.943,-138.406 251.068,-145.493 261.644,-144.864 258.943,-138.406"/>
</g>
<!-- Node11 -->
<g id="node11" class="node"><title>Node11</title>
<g id="a_node11"><a xlink:href="../../da/dc2/generic__networkhandler_8h.html#a2f01af81d3e5018d9980e2bc28c9078a" target="_top" xlink:title="NetworkHandlerProcessOnce">
<polygon fill="none" stroke="black" points="883,-38.5 883,-57.5 1029,-57.5 1029,-38.5 883,-38.5"/>
<text text-anchor="middle" x="956" y="-45.5" font-family="Helvetica,sans-Serif" font-size="10.00">NetworkHandlerProcessOnce</text>
</a>
</g>
</g>
<!-- Node2&#45;&gt;Node11 -->
<g id="edge27" class="edge"><title>Node2&#45;&gt;Node11</title>
<path fill="none" stroke="midnightblue" d="M238.836,-136.512C251.854,-115.309 276.393,-81.6002 308,-67 408.295,-20.6708 736.206,-34.3008 882.918,-43.1155"/>
<polygon fill="midnightblue" stroke="midnightblue" points="235.743,-134.867 233.682,-145.26 241.774,-138.421 235.743,-134.867"/>
</g>
<!-- Node13 -->
<g id="node13" class="node"><title>Node13</title>
<g id="a_node13"><a xlink:href="../../d7/df9/encap_8h.html#ad083888333d3ceec1576126a88eeaca7" target="_top" xlink:title="CloseSessionBySessionHandle">
<polygon fill="none" stroke="black" points="308,-205.5 308,-224.5 463,-224.5 463,-205.5 308,-205.5"/>
<text text-anchor="middle" x="385.5" y="-212.5" font-family="Helvetica,sans-Serif" font-size="10.00">CloseSessionBySessionHandle</text>
</a>
</g>
</g>
<!-- Node2&#45;&gt;Node13 -->
<g id="edge13" class="edge"><title>Node2&#45;&gt;Node13</title>
<path fill="none" stroke="midnightblue" d="M255.718,-169.392C270.847,-177.038 290.168,-186.228 308,-193 320.402,-197.71 334.261,-201.981 346.739,-205.481"/>
<polygon fill="midnightblue" stroke="midnightblue" points="256.934,-166.082 246.439,-164.631 253.738,-172.31 256.934,-166.082"/>
</g>
<!-- Node17 -->
<g id="node17" class="node"><title>Node17</title>
<g id="a_node17"><a xlink:href="../../d2/dc9/group__CIP__API.html#ga00a23c1c86472edf2ed679089ae8efc1" target="_top" xlink:title="Inform the encapsulation layer that the remote host has closed the connection. ">
<polygon fill="none" stroke="black" points="347,-164.5 347,-183.5 424,-183.5 424,-164.5 347,-164.5"/>
<text text-anchor="middle" x="385.5" y="-171.5" font-family="Helvetica,sans-Serif" font-size="10.00">CloseSession</text>
</a>
</g>
</g>
<!-- Node2&#45;&gt;Node17 -->
<g id="edge18" class="edge"><title>Node2&#45;&gt;Node17</title>
<path fill="none" stroke="midnightblue" d="M282.527,-161.58C303.709,-164.16 327.504,-167.058 346.777,-169.406"/>
<polygon fill="midnightblue" stroke="midnightblue" points="282.72,-158.078 272.37,-160.343 281.873,-165.027 282.72,-158.078"/>
</g>
<!-- Node22 -->
<g id="node22" class="node"><title>Node22</title>
<g id="a_node22"><a xlink:href="../../d4/d91/group__ENCAP.html#ga1261bd2441f744c38d7a3f8d8c16c391" target="_top" xlink:title="Shutdown the encapsulation layer. ">
<polygon fill="none" stroke="black" points="894,-284.5 894,-303.5 1018,-303.5 1018,-284.5 894,-284.5"/>
<text text-anchor="middle" x="956" y="-291.5" font-family="Helvetica,sans-Serif" font-size="10.00">EncapsulationShutDown</text>
</a>
</g>
</g>
<!-- Node2&#45;&gt;Node22 -->
<g id="edge24" class="edge"><title>Node2&#45;&gt;Node22</title>
<path fill="none" stroke="midnightblue" d="M235.373,-174.189C246.159,-201.098 269.859,-249.089 308,-270 513.256,-382.533 812.719,-327.862 917.291,-303.552"/>
<polygon fill="midnightblue" stroke="midnightblue" points="238.588,-172.799 231.756,-164.701 232.047,-175.291 238.588,-172.799"/>
</g>
<!-- Node24 -->
<g id="node24" class="node"><title>Node24</title>
<g id="a_node24"><a xlink:href="../../da/dc2/generic__networkhandler_8h.html#aace33c0e7aa348969492ede822183bd5" target="_top" xlink:title="NetworkHandlerFinish">
<polygon fill="none" stroke="black" points="1066,-244.5 1066,-263.5 1179,-263.5 1179,-244.5 1066,-244.5"/>
<text text-anchor="middle" x="1122.5" y="-251.5" font-family="Helvetica,sans-Serif" font-size="10.00">NetworkHandlerFinish</text>
</a>
</g>
</g>
<!-- Node2&#45;&gt;Node24 -->
<g id="edge28" class="edge"><title>Node2&#45;&gt;Node24</title>
<path fill="none" stroke="midnightblue" d="M240.656,-173.058C254.496,-191.94 278.987,-220.647 308,-234 418.578,-284.891 459.273,-256 581,-256 581,-256 581,-256 775,-256 877.719,-256 997.563,-255.11 1065.99,-254.518"/>
<polygon fill="midnightblue" stroke="midnightblue" points="243.372,-170.836 234.744,-164.688 237.654,-174.875 243.372,-170.836"/>
</g>
<!-- Node25 -->
<g id="node25" class="node"><title>Node25</title>
<g id="a_node25"><a xlink:href="../../db/d4f/generic__networkhandler_8c.html#ab561fc66fe48a0cf95be3d152b297dd9" target="_top" xlink:title="CheckEncapsulationInactivity">
<polygon fill="none" stroke="black" points="701,-120.5 701,-139.5 847,-139.5 847,-120.5 701,-120.5"/>
<text text-anchor="middle" x="774" y="-127.5" font-family="Helvetica,sans-Serif" font-size="10.00">CheckEncapsulationInactivity</text>
</a>
</g>
</g>
<!-- Node2&#45;&gt;Node25 -->
<g id="edge30" class="edge"><title>Node2&#45;&gt;Node25</title>
<path fill="none" stroke="midnightblue" d="M282.161,-152.536C380.584,-148.017 590.013,-138.402 700.803,-133.315"/>
<polygon fill="midnightblue" stroke="midnightblue" points="281.967,-149.041 272.138,-152.996 282.288,-156.034 281.967,-149.041"/>
</g>
<!-- Node4 -->
<g id="node4" class="node"><title>Node4</title>
<g id="a_node4"><a xlink:href="../../d2/dc9/group__CIP__API.html#ga4b8ec8e9b8a1dd71e84f2ea54e1c2b2d" target="_top" xlink:title="Notify the encapsulation layer that an explicit message has been received via TCP. ">
<polygon fill="none" stroke="black" points="504,-82.5 504,-101.5 660,-101.5 660,-82.5 504,-82.5"/>
<text text-anchor="middle" x="582" y="-89.5" font-family="Helvetica,sans-Serif" font-size="10.00">HandleReceivedExplictTcpData</text>
</a>
</g>
</g>
<!-- Node3&#45;&gt;Node4 -->
<g id="edge3" class="edge"><title>Node3&#45;&gt;Node4</title>
<path fill="none" stroke="midnightblue" d="M462.834,-92C476.359,-92 490.451,-92 503.994,-92"/>
<polygon fill="midnightblue" stroke="midnightblue" points="462.62,-88.5001 452.62,-92 462.62,-95.5001 462.62,-88.5001"/>
</g>
<!-- Node5 -->
<g id="node5" class="node"><title>Node5</title>
<g id="a_node5"><a xlink:href="../../d4/d91/group__ENCAP.html#ga7a0dc2be6c485d9e6940d5b20a981022" target="_top" xlink:title="Initialize the encapsulation layer. ">
<polygon fill="none" stroke="black" points="1228.5,-123.5 1228.5,-142.5 1320.5,-142.5 1320.5,-123.5 1228.5,-123.5"/>
<text text-anchor="middle" x="1274.5" y="-130.5" font-family="Helvetica,sans-Serif" font-size="10.00">EncapsulationInit</text>
</a>
</g>
</g>
<!-- Node4&#45;&gt;Node5 -->
<g id="edge4" class="edge"><title>Node4&#45;&gt;Node5</title>
<path fill="none" stroke="midnightblue" d="M670.188,-97.177C818.561,-105.987 1115.06,-123.592 1228.2,-130.31"/>
<polygon fill="midnightblue" stroke="midnightblue" points="670.389,-93.6829 660.199,-96.5839 669.974,-100.671 670.389,-93.6829"/>
</g>
<!-- Node4&#45;&gt;Node10 -->
<g id="edge9" class="edge"><title>Node4&#45;&gt;Node10</title>
<path fill="none" stroke="midnightblue" d="M614.374,-78.4597C652.913,-61.8268 717.309,-34.0351 750.974,-19.506"/>
<polygon fill="midnightblue" stroke="midnightblue" points="612.962,-75.257 605.167,-82.4331 615.736,-81.684 612.962,-75.257"/>
</g>
<!-- Node6 -->
<g id="node6" class="node"><title>Node6</title>
<g id="a_node6"><a xlink:href="../../d2/dc9/group__CIP__API.html#ga5d4979945d124e28668b264c3823db1c" target="_top" xlink:title="Initialize and setup the CIP&#45;stack. ">
<polygon fill="none" stroke="black" points="1384,-184.5 1384,-203.5 1455,-203.5 1455,-184.5 1384,-184.5"/>
<text text-anchor="middle" x="1419.5" y="-191.5" font-family="Helvetica,sans-Serif" font-size="10.00">CipStackInit</text>
</a>
</g>
</g>
<!-- Node5&#45;&gt;Node6 -->
<g id="edge5" class="edge"><title>Node5&#45;&gt;Node6</title>
<path fill="none" stroke="midnightblue" d="M1307.2,-146.521C1334.06,-157.981 1371.93,-174.135 1395.84,-184.334"/>
<polygon fill="midnightblue" stroke="midnightblue" points="1308.42,-143.236 1297.84,-142.531 1305.67,-149.674 1308.42,-143.236"/>
</g>
<!-- Node7 -->
<g id="node7" class="node"><title>Node7</title>
<g id="a_node7"><a xlink:href="../../d5/dcb/MINGW_2main_8c.html#ad338a7dbc41dc40bcecd0479377ef207" target="_top" xlink:title="main">
<polygon fill="none" stroke="black" points="1506,-208.5 1506,-227.5 1544,-227.5 1544,-208.5 1506,-208.5"/>
<text text-anchor="middle" x="1525" y="-215.5" font-family="Helvetica,sans-Serif" font-size="10.00">main</text>
</a>
</g>
</g>
<!-- Node6&#45;&gt;Node7 -->
<g id="edge6" class="edge"><title>Node6&#45;&gt;Node7</title>
<path fill="none" stroke="midnightblue" d="M1465,-204.318C1479.33,-207.642 1494.42,-211.14 1505.75,-213.768"/>
<polygon fill="midnightblue" stroke="midnightblue" points="1465.78,-200.908 1455.25,-202.058 1464.2,-207.727 1465.78,-200.908"/>
</g>
<!-- Node8 -->
<g id="node8" class="node"><title>Node8</title>
<g id="a_node8"><a xlink:href="../../d8/d03/ports_2MINGW_2CMakeLists_8txt.html#a7e00df43a20d627a1732be7766d91097" target="_top" xlink:title="add_library">
<polygon fill="none" stroke="black" points="1580,-208.5 1580,-227.5 1644,-227.5 1644,-208.5 1580,-208.5"/>
<text text-anchor="middle" x="1612" y="-215.5" font-family="Helvetica,sans-Serif" font-size="10.00">add_library</text>
</a>
</g>
</g>
<!-- Node7&#45;&gt;Node8 -->
<g id="edge7" class="edge"><title>Node7&#45;&gt;Node8</title>
<path fill="none" stroke="midnightblue" d="M1554.27,-218C1562.5,-218 1571.55,-218 1579.94,-218"/>
<polygon fill="midnightblue" stroke="midnightblue" points="1554.03,-214.5 1544.03,-218 1554.03,-221.5 1554.03,-214.5"/>
</g>
<!-- Node9 -->
<g id="node9" class="node"><title>Node9</title>
<g id="a_node9"><a xlink:href="../../d8/dce/ports_2CMakeLists_8txt.html#a598fae457555a5fb26e18d4cd8f89de9" target="_top" xlink:title="add_subdirectory">
<polygon fill="none" stroke="black" points="1680,-208.5 1680,-227.5 1771,-227.5 1771,-208.5 1680,-208.5"/>
<text text-anchor="middle" x="1725.5" y="-215.5" font-family="Helvetica,sans-Serif" font-size="10.00">add_subdirectory</text>
</a>
</g>
</g>
<!-- Node8&#45;&gt;Node9 -->
<g id="edge8" class="edge"><title>Node8&#45;&gt;Node9</title>
<path fill="none" stroke="midnightblue" d="M1654.3,-218C1662.63,-218 1671.42,-218 1679.86,-218"/>
<polygon fill="midnightblue" stroke="midnightblue" points="1654.06,-214.5 1644.06,-218 1654.06,-221.5 1654.06,-214.5"/>
</g>
<!-- Node10&#45;&gt;Node11 -->
<g id="edge10" class="edge"><title>Node10&#45;&gt;Node11</title>
<path fill="none" stroke="midnightblue" d="M830.331,-21.681C855.857,-27.0699 885.776,-33.3861 909.905,-38.4799"/>
<polygon fill="midnightblue" stroke="midnightblue" points="830.929,-18.2301 820.422,-19.589 829.483,-25.0792 830.929,-18.2301"/>
</g>
<!-- Node11&#45;&gt;Node7 -->
<g id="edge11" class="edge"><title>Node11&#45;&gt;Node7</title>
<path fill="none" stroke="midnightblue" d="M1009.89,-36.6544C1055.52,-28.8179 1122.89,-21.9355 1180,-35 1319.52,-66.9147 1348.82,-98.8398 1470,-175 1486.03,-185.076 1502.84,-199.094 1513.37,-208.35"/>
<polygon fill="midnightblue" stroke="midnightblue" points="1009.15,-33.2312 999.928,-38.4406 1010.39,-40.1214 1009.15,-33.2312"/>
</g>
<!-- Node12 -->
<g id="node12" class="node"><title>Node12</title>
<g id="a_node12"><a xlink:href="../../d9/dfb/POSIX_2main_8c.html#acd4e45a35a64f9cb29b59f63492b61d2" target="_top" xlink:title="Signal handler function for ending stack execution. ">
<polygon fill="none" stroke="black" points="1088.5,-44.5 1088.5,-63.5 1156.5,-63.5 1156.5,-44.5 1088.5,-44.5"/>
<text text-anchor="middle" x="1122.5" y="-51.5" font-family="Helvetica,sans-Serif" font-size="10.00">LeaveStack</text>
</a>
</g>
</g>
<!-- Node11&#45;&gt;Node12 -->
<g id="edge12" class="edge"><title>Node11&#45;&gt;Node12</title>
<path fill="none" stroke="midnightblue" d="M1039.31,-51.0022C1056.6,-51.6329 1073.89,-52.2634 1088.12,-52.7824"/>
<polygon fill="midnightblue" stroke="midnightblue" points="1039.27,-47.4986 1029.15,-50.6317 1039.02,-54.494 1039.27,-47.4986"/>
</g>
<!-- Node14 -->
<g id="node14" class="node"><title>Node14</title>
<g id="a_node14"><a xlink:href="../../dc/d93/cipclass3connection_8c.html#a6053ab7004c1419bd80faf9aca54bfd3" target="_top" xlink:title="Class3ConnectionTimeoutHandler">
<polygon fill="none" stroke="black" points="499,-208.5 499,-227.5 665,-227.5 665,-208.5 499,-208.5"/>
<text text-anchor="middle" x="582" y="-215.5" font-family="Helvetica,sans-Serif" font-size="10.00">Class3ConnectionTimeoutHandler</text>
</a>
</g>
</g>
<!-- Node13&#45;&gt;Node14 -->
<g id="edge14" class="edge"><title>Node13&#45;&gt;Node14</title>
<path fill="none" stroke="midnightblue" d="M473.32,-216.339C481.763,-216.469 490.311,-216.601 498.707,-216.731"/>
<polygon fill="midnightblue" stroke="midnightblue" points="473.145,-212.836 463.092,-216.181 473.037,-219.835 473.145,-212.836"/>
</g>
<!-- Node15 -->
<g id="node15" class="node"><title>Node15</title>
<g id="a_node15"><a xlink:href="../../d2/d11/cipclass3connection_8h.html#a45bd741b44137164c07a6ce09a7a9a9d" target="_top" xlink:title="Check if Class3 connection is available and if yes setup all data. ">
<polygon fill="none" stroke="black" points="887.5,-203.5 887.5,-222.5 1024.5,-222.5 1024.5,-203.5 887.5,-203.5"/>
<text text-anchor="middle" x="956" y="-210.5" font-family="Helvetica,sans-Serif" font-size="10.00">EstablishClass3Connection</text>
</a>
</g>
</g>
<!-- Node14&#45;&gt;Node15 -->
<g id="edge15" class="edge"><title>Node14&#45;&gt;Node15</title>
<path fill="none" stroke="midnightblue" d="M675.463,-216.757C741.226,-215.873 828.077,-214.706 887.411,-213.908"/>
<polygon fill="midnightblue" stroke="midnightblue" points="675.05,-213.262 665.098,-216.897 675.144,-220.262 675.05,-213.262"/>
</g>
<!-- Node16 -->
<g id="node16" class="node"><title>Node16</title>
<g id="a_node16"><a xlink:href="../../d2/da3/cipconnectionmanager_8h.html#a5ab0de6894d23e8fe84a6b46797c2212" target="_top" xlink:title="Initialize the data of the connection manager object. ">
<polygon fill="none" stroke="black" points="1216,-184.5 1216,-203.5 1333,-203.5 1333,-184.5 1216,-184.5"/>
<text text-anchor="middle" x="1274.5" y="-191.5" font-family="Helvetica,sans-Serif" font-size="10.00">ConnectionManagerInit</text>
</a>
</g>
</g>
<!-- Node15&#45;&gt;Node16 -->
<g id="edge16" class="edge"><title>Node15&#45;&gt;Node16</title>
<path fill="none" stroke="midnightblue" d="M1034.75,-208.333C1090.77,-204.969 1165.15,-200.504 1215.91,-197.457"/>
<polygon fill="midnightblue" stroke="midnightblue" points="1034.28,-204.854 1024.51,-208.947 1034.7,-211.842 1034.28,-204.854"/>
</g>
<!-- Node16&#45;&gt;Node6 -->
<g id="edge17" class="edge"><title>Node16&#45;&gt;Node6</title>
<path fill="none" stroke="midnightblue" d="M1343.43,-194C1357.5,-194 1371.75,-194 1384,-194"/>
<polygon fill="midnightblue" stroke="midnightblue" points="1343.25,-190.5 1333.25,-194 1343.25,-197.5 1343.25,-190.5"/>
</g>
<!-- Node18 -->
<g id="node18" class="node"><title>Node18</title>
<g id="a_node18"><a xlink:href="../../d7/df9/encap_8h.html#a0101714be726ab1b21125b6a82ac7a56" target="_top" xlink:title="CloseEncapsulationSession\lBySockAddr">
<polygon fill="none" stroke="black" points="512.5,-159 512.5,-189 651.5,-189 651.5,-159 512.5,-159"/>
<text text-anchor="start" x="520.5" y="-177" font-family="Helvetica,sans-Serif" font-size="10.00">CloseEncapsulationSession</text>
<text text-anchor="middle" x="582" y="-166" font-family="Helvetica,sans-Serif" font-size="10.00">BySockAddr</text>
</a>
</g>
</g>
<!-- Node17&#45;&gt;Node18 -->
<g id="edge19" class="edge"><title>Node17&#45;&gt;Node18</title>
<path fill="none" stroke="midnightblue" d="M434.05,-174C457.526,-174 486.286,-174 512.119,-174"/>
<polygon fill="midnightblue" stroke="midnightblue" points="434.002,-170.5 424.002,-174 434.002,-177.5 434.002,-170.5"/>
</g>
<!-- Node19 -->
<g id="node19" class="node"><title>Node19</title>
<g id="a_node19"><a xlink:href="../../df/d03/cipioconnection_8c.html#a7e4923f4b027d489d9933b52f6fd7007" target="_top" xlink:title="HandleIoConnectionTimeOut">
<polygon fill="none" stroke="black" points="702.5,-165.5 702.5,-184.5 845.5,-184.5 845.5,-165.5 702.5,-165.5"/>
<text text-anchor="middle" x="774" y="-172.5" font-family="Helvetica,sans-Serif" font-size="10.00">HandleIoConnectionTimeOut</text>
</a>
</g>
</g>
<!-- Node18&#45;&gt;Node19 -->
<g id="edge20" class="edge"><title>Node18&#45;&gt;Node19</title>
<path fill="none" stroke="midnightblue" d="M661.758,-174.415C675.187,-174.485 689.063,-174.558 702.268,-174.628"/>
<polygon fill="midnightblue" stroke="midnightblue" points="661.613,-170.914 651.594,-174.361 661.576,-177.914 661.613,-170.914"/>
</g>
<!-- Node20 -->
<g id="node20" class="node"><title>Node20</title>
<g id="a_node20"><a xlink:href="../../df/d03/cipioconnection_8c.html#ab3282f146a3ea91c90cf14c32206ee8c" target="_top" xlink:title="SetIoConnectionCallbacks">
<polygon fill="none" stroke="black" points="889.5,-165.5 889.5,-184.5 1022.5,-184.5 1022.5,-165.5 889.5,-165.5"/>
<text text-anchor="middle" x="956" y="-172.5" font-family="Helvetica,sans-Serif" font-size="10.00">SetIoConnectionCallbacks</text>
</a>
</g>
</g>
<!-- Node19&#45;&gt;Node20 -->
<g id="edge21" class="edge"><title>Node19&#45;&gt;Node20</title>
<path fill="none" stroke="midnightblue" d="M855.829,-175C867.021,-175 878.405,-175 889.278,-175"/>
<polygon fill="midnightblue" stroke="midnightblue" points="855.624,-171.5 845.624,-175 855.624,-178.5 855.624,-171.5"/>
</g>
<!-- Node21 -->
<g id="node21" class="node"><title>Node21</title>
<g id="a_node21"><a xlink:href="../../de/d45/cipioconnection_8h.html#a43e270b3f9b9f6296b12285c320c95aa" target="_top" xlink:title="Setup all data in order to establish an IO connection. ">
<polygon fill="none" stroke="black" points="1065,-165.5 1065,-184.5 1180,-184.5 1180,-165.5 1065,-165.5"/>
<text text-anchor="middle" x="1122.5" y="-172.5" font-family="Helvetica,sans-Serif" font-size="10.00">EstablishIoConnection</text>
</a>
</g>
</g>
<!-- Node20&#45;&gt;Node21 -->
<g id="edge22" class="edge"><title>Node20&#45;&gt;Node21</title>
<path fill="none" stroke="midnightblue" d="M1033.12,-175C1043.78,-175 1054.58,-175 1064.79,-175"/>
<polygon fill="midnightblue" stroke="midnightblue" points="1032.96,-171.5 1022.96,-175 1032.96,-178.5 1032.96,-171.5"/>
</g>
<!-- Node21&#45;&gt;Node16 -->
<g id="edge23" class="edge"><title>Node21&#45;&gt;Node16</title>
<path fill="none" stroke="midnightblue" d="M1190.13,-183.44C1198.66,-184.52 1207.34,-185.62 1215.71,-186.68"/>
<polygon fill="midnightblue" stroke="midnightblue" points="1190.57,-179.968 1180.21,-182.183 1189.69,-186.912 1190.57,-179.968"/>
</g>
<!-- Node23 -->
<g id="node23" class="node"><title>Node23</title>
<g id="a_node23"><a xlink:href="../../d2/dc9/group__CIP__API.html#gaa57b527530adc2acda6febc500fd6831" target="_top" xlink:title="Shutdown of the CIP stack. ">
<polygon fill="none" stroke="black" points="1369,-277.5 1369,-296.5 1470,-296.5 1470,-277.5 1369,-277.5"/>
<text text-anchor="middle" x="1419.5" y="-284.5" font-family="Helvetica,sans-Serif" font-size="10.00">ShutdownCipStack</text>
</a>
</g>
</g>
<!-- Node22&#45;&gt;Node23 -->
<g id="edge25" class="edge"><title>Node22&#45;&gt;Node23</title>
<path fill="none" stroke="midnightblue" d="M1028.33,-292.918C1122.8,-291.485 1287.01,-288.995 1368.98,-287.751"/>
<polygon fill="midnightblue" stroke="midnightblue" points="1028.23,-289.419 1018.28,-293.07 1028.34,-296.418 1028.23,-289.419"/>
</g>
<!-- Node23&#45;&gt;Node7 -->
<g id="edge26" class="edge"><title>Node23&#45;&gt;Node7</title>
<path fill="none" stroke="midnightblue" d="M1445.93,-272.126C1453.73,-267.417 1462.29,-262.106 1470,-257 1484.46,-247.419 1500.51,-235.676 1511.33,-227.594"/>
<polygon fill="midnightblue" stroke="midnightblue" points="1444,-269.199 1437.21,-277.328 1447.59,-275.21 1444,-269.199"/>
</g>
<!-- Node24&#45;&gt;Node7 -->
<g id="edge29" class="edge"><title>Node24&#45;&gt;Node7</title>
<path fill="none" stroke="midnightblue" d="M1189.16,-248.098C1283.11,-239.653 1450.66,-224.592 1505.83,-219.633"/>
<polygon fill="midnightblue" stroke="midnightblue" points="1188.83,-244.613 1179.19,-248.994 1189.46,-251.585 1188.83,-244.613"/>
</g>
<!-- Node25&#45;&gt;Node11 -->
<g id="edge31" class="edge"><title>Node25&#45;&gt;Node11</title>
<path fill="none" stroke="midnightblue" d="M805.188,-116.248C841.75,-99.5915 902.375,-71.9736 934.133,-57.506"/>
<polygon fill="midnightblue" stroke="midnightblue" points="803.65,-113.102 796.001,-120.433 806.552,-119.472 803.65,-113.102"/>
</g>
</g>
</svg>
        <g id="navigator" transform="translate(0 0)" fill="#404254">
                <rect fill="#f2f5e9" fill-opacity="0.5" stroke="#606060" stroke-width=".5" x="0" y="0" width="60" height="60"/>
                <use id="zoomplus" xlink:href="#zoomPlus" x="17" y="9" onmousedown="handleZoom(evt,'in')"/>
                <use id="zoomminus" xlink:href="#zoomMin" x="42" y="9" onmousedown="handleZoom(evt,'out')"/>
                <use id="reset" xlink:href="#resetDef" x="30" y="36" onmousedown="handleReset()"/>
                <g id="arrowUp" xlink:href="#dirArrow" transform="translate(30 24)" onmousedown="handlePan(0,-1)">
                  <use xlink:href="#rim" fill="#404040">
                        <set attributeName="fill" to="#808080" begin="arrowUp.mouseover" end="arrowUp.mouseout"/>
                  </use>
                  <path fill="none" stroke="white" stroke-width="1.5" d="M0,-3.0v7 M-2.5,-0.5L0,-3.0L2.5,-0.5"/>
                </g>
                <g id="arrowRight" xlink:href="#dirArrow" transform="rotate(90) translate(36 -43)" onmousedown="handlePan(1,0)">
                  <use xlink:href="#rim" fill="#404040">
                        <set attributeName="fill" to="#808080" begin="arrowRight.mouseover" end="arrowRight.mouseout"/>
                  </use>
                  <path fill="none" stroke="white" stroke-width="1.5" d="M0,-3.0v7 M-2.5,-0.5L0,-3.0L2.5,-0.5"/>
                </g>
                <g id="arrowDown" xlink:href="#dirArrow" transform="rotate(180) translate(-30 -48)" onmousedown="handlePan(0,1)">
                  <use xlink:href="#rim" fill="#404040">
                        <set attributeName="fill" to="#808080" begin="arrowDown.mouseover" end="arrowDown.mouseout"/>
                  </use>
                  <path fill="none" stroke="white" stroke-width="1.5" d="M0,-3.0v7 M-2.5,-0.5L0,-3.0L2.5,-0.5"/>
                </g>
                <g id="arrowLeft" xlink:href="#dirArrow" transform="rotate(270) translate(-36 17)" onmousedown="handlePan(-1,0)">
                  <use xlink:href="#rim" fill="#404040">
                        <set attributeName="fill" to="#808080" begin="arrowLeft.mouseover" end="arrowLeft.mouseout"/>
                  </use>
                  <path fill="none" stroke="white" stroke-width="1.5" d="M0,-3.0v7 M-2.5,-0.5L0,-3.0L2.5,-0.5"/>
                </g>
        </g>
        <svg viewBox="0 0 15 15" width="100%" height="30px" preserveAspectRatio="xMaxYMin meet">
         <g id="arrow_out" transform="scale(0.3 0.3)">
          <a xlink:href="generic__networkhandler_8c_aea539a75995234e379a1c25019ba378f_icgraph_org.svg" target="_base">
           <rect id="button" ry="5" rx="5" y="6" x="6" height="38" width="38"
                fill="#f2f5e9" fill-opacity="0.5" stroke="#606060" stroke-width="1.0"/>
           <path id="arrow"
             d="M 11.500037,31.436501 C 11.940474,20.09759 22.043105,11.32322 32.158766,21.979434 L 37.068811,17.246167 C 37.068811,17.246167 37.088388,32 37.088388,32 L 22.160133,31.978069 C 22.160133,31.978069 26.997745,27.140456 26.997745,27.140456 C 18.528582,18.264221 13.291696,25.230495 11.500037,31.436501 z"
             style="fill:#404040;"/>
          </a>
         </g>
        </svg>
</svg>
