<?xml version="1.0" encoding="UTF-8" standalone="no"?>
<!DOCTYPE svg PUBLIC "-//W3C//DTD SVG 1.1//EN"
 "http://www.w3.org/Graphics/SVG/1.1/DTD/svg11.dtd">
<!-- Generated by graphviz version 2.38.0 (20140413.2041)
 -->
<!-- Title: CipTcpIpInterfaceInit Pages: 1 -->
<svg width="1083pt" height="484pt"
 viewBox="0.00 0.00 1083.00 484.00" xmlns="http://www.w3.org/2000/svg" xmlns:xlink="http://www.w3.org/1999/xlink">
<g id="graph0" class="graph" transform="scale(1 1) rotate(0) translate(4 480)">
<title>CipTcpIpInterfaceInit</title>
<!-- Node1 -->
<g id="node1" class="node"><title>Node1</title>
<polygon fill="#bfbfbf" stroke="black" points="0,-152.5 0,-171.5 108,-171.5 108,-152.5 0,-152.5"/>
<text text-anchor="middle" x="54" y="-159.5" font-family="Helvetica,sans-Serif" font-size="10.00">CipTcpIpInterfaceInit</text>
</g>
<!-- Node2 -->
<g id="node2" class="node"><title>Node2</title>
<g id="a_node2"><a xlink:href="../../d2/d3d/cipcommon_8c.html#addfffa8f875b4f5c22c1257884d2aaba" target="_top" xlink:title="CreateCipClass">
<polygon fill="none" stroke="black" points="359.5,-285.5 359.5,-304.5 445.5,-304.5 445.5,-285.5 359.5,-285.5"/>
<text text-anchor="middle" x="402.5" y="-292.5" font-family="Helvetica,sans-Serif" font-size="10.00">CreateCipClass</text>
</a>
</g>
</g>
<!-- Node1&#45;&gt;Node2 -->
<g id="edge1" class="edge"><title>Node1&#45;&gt;Node2</title>
<path fill="none" stroke="midnightblue" d="M61.2715,-171.536C74.2308,-190.383 105.957,-232.28 144,-252 209.21,-285.802 295.047,-294.04 349.265,-295.534"/>
<polygon fill="midnightblue" stroke="midnightblue" points="349.269,-299.035 359.34,-295.744 349.415,-292.036 349.269,-299.035"/>
</g>
<!-- Node19 -->
<g id="node19" class="node"><title>Node19</title>
<g id="a_node19"><a xlink:href="../../d2/dc9/group__CIP__API.html#gac207feb53c1f98b45f3934bbea63d618" target="_top" xlink:title="Insert an attribute in an instance of a CIP class. ">
<polygon fill="none" stroke="black" points="538,-228.5 538,-247.5 616,-247.5 616,-228.5 538,-228.5"/>
<text text-anchor="middle" x="577" y="-235.5" font-family="Helvetica,sans-Serif" font-size="10.00">InsertAttribute</text>
</a>
</g>
</g>
<!-- Node1&#45;&gt;Node19 -->
<g id="edge36" class="edge"><title>Node1&#45;&gt;Node19</title>
<path fill="none" stroke="midnightblue" d="M84.3866,-171.504C101.599,-176.756 123.849,-183.006 144,-187 281.716,-214.297 447.231,-228.843 527.546,-234.763"/>
<polygon fill="midnightblue" stroke="midnightblue" points="527.612,-238.276 537.838,-235.508 528.117,-231.295 527.612,-238.276"/>
</g>
<!-- Node20 -->
<g id="node20" class="node"><title>Node20</title>
<g id="a_node20"><a xlink:href="../../d2/dc9/group__CIP__API.html#ga35f639b135ec3c3903f49fd65daed307" target="_top" xlink:title="Insert a service in an instance of a CIP object. ">
<polygon fill="none" stroke="black" points="540,-190.5 540,-209.5 614,-209.5 614,-190.5 540,-190.5"/>
<text text-anchor="middle" x="577" y="-197.5" font-family="Helvetica,sans-Serif" font-size="10.00">InsertService</text>
</a>
</g>
</g>
<!-- Node1&#45;&gt;Node20 -->
<g id="edge37" class="edge"><title>Node1&#45;&gt;Node20</title>
<path fill="none" stroke="midnightblue" d="M108.308,-165.888C210.651,-173.353 433.065,-189.575 529.665,-196.62"/>
<polygon fill="midnightblue" stroke="midnightblue" points="529.483,-200.116 539.711,-197.353 529.992,-193.135 529.483,-200.116"/>
</g>
<!-- Node22 -->
<g id="node22" class="node"><title>Node22</title>
<g id="a_node22"><a xlink:href="../../dd/d20/ciptcpipinterface_8c.html#af60f6b6b60831de02c99dd1c99b85af6" target="_top" xlink:title="GetAttributeAllTcpIpInterface">
<polygon fill="none" stroke="black" points="144,-114.5 144,-133.5 287,-133.5 287,-114.5 144,-114.5"/>
<text text-anchor="middle" x="215.5" y="-121.5" font-family="Helvetica,sans-Serif" font-size="10.00">GetAttributeAllTcpIpInterface</text>
</a>
</g>
</g>
<!-- Node1&#45;&gt;Node22 -->
<g id="edge29" class="edge"><title>Node1&#45;&gt;Node22</title>
<path fill="none" stroke="midnightblue" d="M95.2486,-152.411C116.296,-147.396 142.255,-141.212 164.573,-135.895"/>
<polygon fill="midnightblue" stroke="midnightblue" points="165.624,-139.242 174.541,-133.52 164.002,-132.433 165.624,-139.242"/>
</g>
<!-- Node23 -->
<g id="node23" class="node"><title>Node23</title>
<g id="a_node23"><a xlink:href="../../dd/d20/ciptcpipinterface_8c.html#aad3f66bfaec89eb066edeaa5dc21fdd4" target="_top" xlink:title="GetAttributeSingleTcpIpInterface">
<polygon fill="none" stroke="black" points="323,-114.5 323,-133.5 482,-133.5 482,-114.5 323,-114.5"/>
<text text-anchor="middle" x="402.5" y="-121.5" font-family="Helvetica,sans-Serif" font-size="10.00">GetAttributeSingleTcpIpInterface</text>
</a>
</g>
</g>
<!-- Node1&#45;&gt;Node23 -->
<g id="edge34" class="edge"><title>Node1&#45;&gt;Node23</title>
<path fill="none" stroke="midnightblue" d="M108.11,-158.904C155.216,-155.86 225.837,-150.566 287,-143 304.218,-140.87 322.807,-138.024 339.896,-135.183"/>
<polygon fill="midnightblue" stroke="midnightblue" points="340.485,-138.634 349.763,-133.517 339.32,-131.731 340.485,-138.634"/>
</g>
<!-- Node24 -->
<g id="node24" class="node"><title>Node24</title>
<g id="a_node24"><a xlink:href="../../d2/dc9/group__CIP__API.html#gaa50395aca91b378c297d6ad919df210e" target="_top" xlink:title="Get a pointer to an instance. ">
<polygon fill="none" stroke="black" points="173,-76.5 173,-95.5 258,-95.5 258,-76.5 173,-76.5"/>
<text text-anchor="middle" x="215.5" y="-83.5" font-family="Helvetica,sans-Serif" font-size="10.00">GetCipInstance</text>
</a>
</g>
</g>
<!-- Node1&#45;&gt;Node24 -->
<g id="edge35" class="edge"><title>Node1&#45;&gt;Node24</title>
<path fill="none" stroke="midnightblue" d="M67.2721,-152.393C83.8272,-139.856 114.634,-117.989 144,-105 149.934,-102.375 156.314,-100.041 162.724,-97.9848"/>
<polygon fill="midnightblue" stroke="midnightblue" points="164.184,-101.201 172.761,-94.9824 162.178,-94.495 164.184,-101.201"/>
</g>
<!-- Node25 -->
<g id="node25" class="node"><title>Node25</title>
<g id="a_node25"><a xlink:href="../../dd/d20/ciptcpipinterface_8c.html#a594d2b5da2c94fb6b8fa7ff55945784d" target="_top" xlink:title="SetAttributeSingleTcp">
<polygon fill="none" stroke="black" points="521,-38.5 521,-57.5 633,-57.5 633,-38.5 521,-38.5"/>
<text text-anchor="middle" x="577" y="-45.5" font-family="Helvetica,sans-Serif" font-size="10.00">SetAttributeSingleTcp</text>
</a>
</g>
</g>
<!-- Node1&#45;&gt;Node25 -->
<g id="edge38" class="edge"><title>Node1&#45;&gt;Node25</title>
<path fill="none" stroke="midnightblue" d="M60.3744,-152.459C72.3372,-132.3 103.344,-85.6939 144,-67 266.199,-10.8129 428.938,-23.9632 515.627,-36.9204"/>
<polygon fill="midnightblue" stroke="midnightblue" points="515.142,-40.3869 525.559,-38.4542 516.21,-33.4689 515.142,-40.3869"/>
</g>
<!-- Node3 -->
<g id="node3" class="node"><title>Node3</title>
<g id="a_node3"><a xlink:href="../../d2/dc9/group__CIP__API.html#ga39dafca98f844a12511af11b1273d0a8" target="_top" xlink:title="Add a number of CIP instances to a given CIP class. ">
<polygon fill="none" stroke="black" points="531,-456.5 531,-475.5 623,-475.5 623,-456.5 531,-456.5"/>
<text text-anchor="middle" x="577" y="-463.5" font-family="Helvetica,sans-Serif" font-size="10.00">AddCipInstances</text>
</a>
</g>
</g>
<!-- Node2&#45;&gt;Node3 -->
<g id="edge2" class="edge"><title>Node2&#45;&gt;Node3</title>
<path fill="none" stroke="midnightblue" d="M408.623,-304.637C422.741,-330.36 464.72,-401.438 518,-442 523.178,-445.942 529.096,-449.351 535.128,-452.261"/>
<polygon fill="midnightblue" stroke="midnightblue" points="534.046,-455.609 544.609,-456.428 536.863,-449.2 534.046,-455.609"/>
</g>
<!-- Node4 -->
<g id="node4" class="node"><title>Node4</title>
<g id="a_node4"><a xlink:href="../../d5/dc5/group__CIP__CALLBACK__API.html#ga70ee7034f390fd3759d42a50e60e1b1c" target="_top" xlink:title="Allocate memory for the CIP stack. ">
<polygon fill="none" stroke="black" points="708.5,-399.5 708.5,-418.5 767.5,-418.5 767.5,-399.5 708.5,-399.5"/>
<text text-anchor="middle" x="738" y="-406.5" font-family="Helvetica,sans-Serif" font-size="10.00">CipCalloc</text>
</a>
</g>
</g>
<!-- Node2&#45;&gt;Node4 -->
<g id="edge7" class="edge"><title>Node2&#45;&gt;Node4</title>
<path fill="none" stroke="midnightblue" d="M409.423,-304.841C424.209,-328.318 465.367,-387.266 518,-409 577.174,-433.435 653.252,-425.726 698.395,-417.587"/>
<polygon fill="midnightblue" stroke="midnightblue" points="699.189,-420.999 708.359,-415.692 697.881,-414.122 699.189,-420.999"/>
</g>
<!-- Node5 -->
<g id="node5" class="node"><title>Node5</title>
<g id="a_node5"><a xlink:href="../../d2/dc9/group__CIP__API.html#ga5ec1d2c432792c39f93c170943964302" target="_top" xlink:title="Allocates Attribute bitmasks. ">
<polygon fill="none" stroke="black" points="518,-342.5 518,-361.5 636,-361.5 636,-342.5 518,-342.5"/>
<text text-anchor="middle" x="577" y="-349.5" font-family="Helvetica,sans-Serif" font-size="10.00">AllocateAttributeMasks</text>
</a>
</g>
</g>
<!-- Node2&#45;&gt;Node5 -->
<g id="edge4" class="edge"><title>Node2&#45;&gt;Node5</title>
<path fill="none" stroke="midnightblue" d="M432.194,-304.557C455.346,-312.26 488.76,-323.359 518,-333 524.142,-335.025 530.651,-337.164 537.005,-339.249"/>
<polygon fill="midnightblue" stroke="midnightblue" points="536.191,-342.665 546.784,-342.454 538.372,-336.013 536.191,-342.665"/>
</g>
<!-- Node7 -->
<g id="node7" class="node"><title>Node7</title>
<g id="a_node7"><a xlink:href="../../d2/d3d/cipcommon_8c.html#a9c9e27dacef3a49543cd2e3868349f5f" target="_top" xlink:title="Generic implementation of the GetAttributeAll CIP service. ">
<polygon fill="none" stroke="black" points="537,-266.5 537,-285.5 617,-285.5 617,-266.5 537,-266.5"/>
<text text-anchor="middle" x="577" y="-273.5" font-family="Helvetica,sans-Serif" font-size="10.00">GetAttributeAll</text>
</a>
</g>
</g>
<!-- Node2&#45;&gt;Node7 -->
<g id="edge8" class="edge"><title>Node2&#45;&gt;Node7</title>
<path fill="none" stroke="midnightblue" d="M445.698,-290.352C470.157,-287.658 501.076,-284.253 526.656,-281.435"/>
<polygon fill="midnightblue" stroke="midnightblue" points="527.338,-284.881 536.895,-280.307 526.572,-277.923 527.338,-284.881"/>
</g>
<!-- Node9 -->
<g id="node9" class="node"><title>Node9</title>
<g id="a_node9"><a xlink:href="../../d2/d3d/cipcommon_8c.html#ab4a4e141020fc10ead0def343c767413" target="_top" xlink:title="Generic implementation of the GetAttributeSingle CIP service. ">
<polygon fill="none" stroke="black" points="529,-114.5 529,-133.5 625,-133.5 625,-114.5 529,-114.5"/>
<text text-anchor="middle" x="577" y="-121.5" font-family="Helvetica,sans-Serif" font-size="10.00">GetAttributeSingle</text>
</a>
</g>
</g>
<!-- Node2&#45;&gt;Node9 -->
<g id="edge11" class="edge"><title>Node2&#45;&gt;Node9</title>
<path fill="none" stroke="midnightblue" d="M413.281,-285.219C433.033,-265.477 479.112,-219.467 518,-181 531.701,-167.448 547.281,-152.142 558.841,-140.806"/>
<polygon fill="midnightblue" stroke="midnightblue" points="561.437,-143.162 566.129,-133.663 556.537,-138.163 561.437,-143.162"/>
</g>
<!-- Node17 -->
<g id="node17" class="node"><title>Node17</title>
<g id="a_node17"><a xlink:href="../../d2/dc9/group__CIP__API.html#gad5040e0986778fe27769c02a7086fb68" target="_top" xlink:title="Get a pointer to a CIP object with given class code. ">
<polygon fill="none" stroke="black" points="540.5,-304.5 540.5,-323.5 613.5,-323.5 613.5,-304.5 540.5,-304.5"/>
<text text-anchor="middle" x="577" y="-311.5" font-family="Helvetica,sans-Serif" font-size="10.00">GetCipClass</text>
</a>
</g>
</g>
<!-- Node2&#45;&gt;Node17 -->
<g id="edge22" class="edge"><title>Node2&#45;&gt;Node17</title>
<path fill="none" stroke="midnightblue" d="M445.698,-299.648C471.322,-302.47 504.037,-306.074 530.275,-308.964"/>
<polygon fill="midnightblue" stroke="midnightblue" points="530.027,-312.457 540.35,-310.073 530.794,-305.499 530.027,-312.457"/>
</g>
<!-- Node2&#45;&gt;Node19 -->
<g id="edge24" class="edge"><title>Node2&#45;&gt;Node19</title>
<path fill="none" stroke="midnightblue" d="M432.194,-285.443C455.346,-277.74 488.76,-266.641 518,-257 524.142,-254.975 530.651,-252.836 537.005,-250.751"/>
<polygon fill="midnightblue" stroke="midnightblue" points="538.372,-253.987 546.784,-247.546 536.191,-247.335 538.372,-253.987"/>
</g>
<!-- Node2&#45;&gt;Node20 -->
<g id="edge26" class="edge"><title>Node2&#45;&gt;Node20</title>
<path fill="none" stroke="midnightblue" d="M415.543,-285.402C435.717,-269.704 478.065,-238.354 518,-219 522.416,-216.86 527.132,-214.872 531.896,-213.052"/>
<polygon fill="midnightblue" stroke="midnightblue" points="533.425,-216.222 541.659,-209.556 531.065,-209.632 533.425,-216.222"/>
</g>
<!-- Node21 -->
<g id="node21" class="node"><title>Node21</title>
<g id="a_node21"><a xlink:href="../../d9/d7d/cipmessagerouter_8c.html#ae00f521e394d00fd5fd99271a6983116" target="_top" xlink:title="Register a CIP Class to the message router. ">
<polygon fill="none" stroke="black" points="530,-380.5 530,-399.5 624,-399.5 624,-380.5 530,-380.5"/>
<text text-anchor="middle" x="577" y="-387.5" font-family="Helvetica,sans-Serif" font-size="10.00">RegisterCipClass</text>
</a>
</g>
</g>
<!-- Node2&#45;&gt;Node21 -->
<g id="edge27" class="edge"><title>Node2&#45;&gt;Node21</title>
<path fill="none" stroke="midnightblue" d="M415.543,-304.598C435.717,-320.296 478.065,-351.646 518,-371 522.416,-373.14 527.132,-375.128 531.896,-376.948"/>
<polygon fill="midnightblue" stroke="midnightblue" points="531.065,-380.368 541.659,-380.444 533.425,-373.778 531.065,-380.368"/>
</g>
<!-- Node3&#45;&gt;Node4 -->
<g id="edge3" class="edge"><title>Node3&#45;&gt;Node4</title>
<path fill="none" stroke="midnightblue" d="M604.613,-456.459C630.983,-447.006 671.56,-432.46 700.84,-421.963"/>
<polygon fill="midnightblue" stroke="midnightblue" points="702.068,-425.241 710.3,-418.572 699.706,-418.652 702.068,-425.241"/>
</g>
<!-- Node5&#45;&gt;Node4 -->
<g id="edge6" class="edge"><title>Node5&#45;&gt;Node4</title>
<path fill="none" stroke="midnightblue" d="M607.888,-361.517C616.946,-364.475 626.904,-367.801 636,-371 658.527,-378.923 683.661,-388.377 703.22,-395.873"/>
<polygon fill="midnightblue" stroke="midnightblue" points="702.027,-399.164 712.617,-399.488 704.541,-392.631 702.027,-399.164"/>
</g>
<!-- Node6 -->
<g id="node6" class="node"><title>Node6</title>
<g id="a_node6"><a xlink:href="../../d2/dc9/group__CIP__API.html#ga1eb3004bbf086b276500e1d6e7a2f677" target="_top" xlink:title="Calculates Byte&#45;Index of Attribute. ">
<polygon fill="none" stroke="black" points="697,-218.5 697,-237.5 779,-237.5 779,-218.5 697,-218.5"/>
<text text-anchor="middle" x="738" y="-225.5" font-family="Helvetica,sans-Serif" font-size="10.00">CalculateIndex</text>
</a>
</g>
</g>
<!-- Node5&#45;&gt;Node6 -->
<g id="edge5" class="edge"><title>Node5&#45;&gt;Node6</title>
<path fill="none" stroke="midnightblue" d="M621.034,-342.381C626.458,-339.928 631.628,-336.854 636,-333 664.038,-308.285 645.273,-283.127 672,-257 678.42,-250.724 686.432,-245.675 694.614,-241.661"/>
<polygon fill="midnightblue" stroke="midnightblue" points="696.131,-244.817 703.85,-237.559 693.29,-238.42 696.131,-244.817"/>
</g>
<!-- Node7&#45;&gt;Node6 -->
<g id="edge9" class="edge"><title>Node7&#45;&gt;Node6</title>
<path fill="none" stroke="midnightblue" d="M609.794,-266.402C634.384,-258.978 668.637,-248.638 695.404,-240.557"/>
<polygon fill="midnightblue" stroke="midnightblue" points="696.699,-243.822 705.261,-237.582 694.676,-237.121 696.699,-243.822"/>
</g>
<!-- Node8 -->
<g id="node8" class="node"><title>Node8</title>
<g id="a_node8"><a xlink:href="../../d2/d3d/cipcommon_8c.html#a1150da559a1729bf2a1ccf1634f17ad2" target="_top" xlink:title="GetCipService">
<polygon fill="none" stroke="black" points="698,-266.5 698,-285.5 778,-285.5 778,-266.5 698,-266.5"/>
<text text-anchor="middle" x="738" y="-273.5" font-family="Helvetica,sans-Serif" font-size="10.00">GetCipService</text>
</a>
</g>
</g>
<!-- Node7&#45;&gt;Node8 -->
<g id="edge10" class="edge"><title>Node7&#45;&gt;Node8</title>
<path fill="none" stroke="midnightblue" d="M617.303,-276C638.596,-276 665.109,-276 687.767,-276"/>
<polygon fill="midnightblue" stroke="midnightblue" points="687.874,-279.5 697.874,-276 687.873,-272.5 687.874,-279.5"/>
</g>
<!-- Node9&#45;&gt;Node6 -->
<g id="edge13" class="edge"><title>Node9&#45;&gt;Node6</title>
<path fill="none" stroke="midnightblue" d="M610.171,-133.585C619.105,-137.199 628.423,-141.945 636,-148 657.674,-165.321 650.565,-181.385 672,-199 679.581,-205.23 688.714,-210.386 697.706,-214.534"/>
<polygon fill="midnightblue" stroke="midnightblue" points="696.385,-217.776 706.955,-218.495 699.14,-211.341 696.385,-217.776"/>
</g>
<!-- Node10 -->
<g id="node10" class="node"><title>Node10</title>
<g id="a_node10"><a xlink:href="../../d5/dc5/group__CIP__CALLBACK__API.html#ga098272a8ae10facf3086c5c82a0080db" target="_top" xlink:title="Inform the application that the data of an assembly object will be sent. ">
<polygon fill="none" stroke="black" points="672,-170.5 672,-189.5 804,-189.5 804,-170.5 672,-170.5"/>
<text text-anchor="middle" x="738" y="-177.5" font-family="Helvetica,sans-Serif" font-size="10.00">BeforeAssemblyDataSend</text>
</a>
</g>
</g>
<!-- Node9&#45;&gt;Node10 -->
<g id="edge12" class="edge"><title>Node9&#45;&gt;Node10</title>
<path fill="none" stroke="midnightblue" d="M600.579,-133.554C619.488,-141.394 647.276,-152.54 672,-161 678.502,-163.225 685.424,-165.424 692.234,-167.494"/>
<polygon fill="midnightblue" stroke="midnightblue" points="691.489,-170.924 702.072,-170.421 693.485,-164.214 691.489,-170.924"/>
</g>
<!-- Node11 -->
<g id="node11" class="node"><title>Node11</title>
<g id="a_node11"><a xlink:href="../../d2/dc9/group__CIP__API.html#gaece1b7dd2aeec306cb33b86b2ee21980" target="_top" xlink:title="Produce the data according to CIP encoding onto the message buffer. ">
<polygon fill="none" stroke="black" points="702.5,-114.5 702.5,-133.5 773.5,-133.5 773.5,-114.5 702.5,-114.5"/>
<text text-anchor="middle" x="738" y="-121.5" font-family="Helvetica,sans-Serif" font-size="10.00">EncodeData</text>
</a>
</g>
</g>
<!-- Node9&#45;&gt;Node11 -->
<g id="edge14" class="edge"><title>Node9&#45;&gt;Node11</title>
<path fill="none" stroke="midnightblue" d="M625.275,-124C646.419,-124 671.223,-124 692.082,-124"/>
<polygon fill="midnightblue" stroke="midnightblue" points="692.28,-127.5 702.28,-124 692.28,-120.5 692.28,-127.5"/>
</g>
<!-- Node16 -->
<g id="node16" class="node"><title>Node16</title>
<g id="a_node16"><a xlink:href="../../d2/dc9/group__CIP__API.html#ga5a14c8d76acacb09312b709bb0a76265" target="_top" xlink:title="Get a pointer to an instance&#39;s attribute. ">
<polygon fill="none" stroke="black" points="696,-76.5 696,-95.5 780,-95.5 780,-76.5 696,-76.5"/>
<text text-anchor="middle" x="738" y="-83.5" font-family="Helvetica,sans-Serif" font-size="10.00">GetCipAttribute</text>
</a>
</g>
</g>
<!-- Node9&#45;&gt;Node16 -->
<g id="edge21" class="edge"><title>Node9&#45;&gt;Node16</title>
<path fill="none" stroke="midnightblue" d="M618.122,-114.411C639.104,-109.396 664.982,-103.212 687.23,-97.8947"/>
<polygon fill="midnightblue" stroke="midnightblue" points="688.254,-101.249 697.166,-95.5201 686.626,-94.4405 688.254,-101.249"/>
</g>
<!-- Node11&#45;&gt;Node11 -->
<g id="edge20" class="edge"><title>Node11&#45;&gt;Node11</title>
<path fill="none" stroke="midnightblue" d="M714.572,-133.757C703.175,-142.565 710.984,-152 738,-152 755.729,-152 765.186,-147.937 766.372,-142.654"/>
<polygon fill="midnightblue" stroke="midnightblue" points="769.345,-140.797 761.428,-133.757 763.226,-144.198 769.345,-140.797"/>
</g>
<!-- Node12 -->
<g id="node12" class="node"><title>Node12</title>
<g id="a_node12"><a xlink:href="../../d4/d91/group__ENCAP.html#gae267a8684cc6ee1b3bd83df03260b7aa" target="_top" xlink:title="converts UINT8 data from host to little endian an writes it to buffer. ">
<polygon fill="none" stroke="black" points="840.5,-171.5 840.5,-190.5 942.5,-190.5 942.5,-171.5 840.5,-171.5"/>
<text text-anchor="middle" x="891.5" y="-178.5" font-family="Helvetica,sans-Serif" font-size="10.00">AddSintToMessage</text>
</a>
</g>
</g>
<!-- Node11&#45;&gt;Node12 -->
<g id="edge15" class="edge"><title>Node11&#45;&gt;Node12</title>
<path fill="none" stroke="midnightblue" d="M764.358,-133.541C789.374,-142.953 827.81,-157.414 855.681,-167.9"/>
<polygon fill="midnightblue" stroke="midnightblue" points="854.468,-171.183 865.06,-171.428 856.933,-164.631 854.468,-171.183"/>
</g>
<!-- Node13 -->
<g id="node13" class="node"><title>Node13</title>
<g id="a_node13"><a xlink:href="../../d4/d91/group__ENCAP.html#gae689aac2a85bf49fb356ec94c8800799" target="_top" xlink:title="converts UINT16 data from host to little endian an writes it to buffer. ">
<polygon fill="none" stroke="black" points="979,-95.5 979,-114.5 1075,-114.5 1075,-95.5 979,-95.5"/>
<text text-anchor="middle" x="1027" y="-102.5" font-family="Helvetica,sans-Serif" font-size="10.00">AddIntToMessage</text>
</a>
</g>
</g>
<!-- Node11&#45;&gt;Node13 -->
<g id="edge16" class="edge"><title>Node11&#45;&gt;Node13</title>
<path fill="none" stroke="midnightblue" d="M773.785,-126.368C814.497,-128.593 883.876,-130.681 943,-124 955.981,-122.533 969.891,-119.815 982.542,-116.884"/>
<polygon fill="midnightblue" stroke="midnightblue" points="983.477,-120.258 992.375,-114.507 981.833,-113.454 983.477,-120.258"/>
</g>
<!-- Node14 -->
<g id="node14" class="node"><title>Node14</title>
<g id="a_node14"><a xlink:href="../../d4/d91/group__ENCAP.html#gaafc3c9e3ff582c9b7e438ae2b1fdf822" target="_top" xlink:title="Converts UINT32 data from host to little endian and writes it to buffer. ">
<polygon fill="none" stroke="black" points="840,-95.5 840,-114.5 943,-114.5 943,-95.5 840,-95.5"/>
<text text-anchor="middle" x="891.5" y="-102.5" font-family="Helvetica,sans-Serif" font-size="10.00">AddDintToMessage</text>
</a>
</g>
</g>
<!-- Node11&#45;&gt;Node14 -->
<g id="edge17" class="edge"><title>Node11&#45;&gt;Node14</title>
<path fill="none" stroke="midnightblue" d="M773.757,-119.641C790.345,-117.561 810.685,-115.01 829.713,-112.623"/>
<polygon fill="midnightblue" stroke="midnightblue" points="830.329,-116.074 839.816,-111.356 829.458,-109.128 830.329,-116.074"/>
</g>
<!-- Node15 -->
<g id="node15" class="node"><title>Node15</title>
<g id="a_node15"><a xlink:href="../../d2/d3d/cipcommon_8c.html#a6eec1752e2cffbbab16bff95fa145bd3" target="_top" xlink:title="EncodeEPath">
<polygon fill="none" stroke="black" points="853,-57.5 853,-76.5 930,-76.5 930,-57.5 853,-57.5"/>
<text text-anchor="middle" x="891.5" y="-64.5" font-family="Helvetica,sans-Serif" font-size="10.00">EncodeEPath</text>
</a>
</g>
</g>
<!-- Node11&#45;&gt;Node15 -->
<g id="edge18" class="edge"><title>Node11&#45;&gt;Node15</title>
<path fill="none" stroke="midnightblue" d="M773.513,-115.31C783.491,-112.424 794.302,-108.93 804,-105 820.767,-98.2054 823.501,-93.4223 840,-86 844.413,-84.0148 849.101,-82.0572 853.774,-80.1968"/>
<polygon fill="midnightblue" stroke="midnightblue" points="855.182,-83.4047 863.25,-76.5371 852.661,-76.8748 855.182,-83.4047"/>
</g>
<!-- Node15&#45;&gt;Node13 -->
<g id="edge19" class="edge"><title>Node15&#45;&gt;Node13</title>
<path fill="none" stroke="midnightblue" d="M926.188,-76.589C943.263,-81.4494 964.2,-87.4091 982.482,-92.6127"/>
<polygon fill="midnightblue" stroke="midnightblue" points="981.747,-96.0426 992.323,-95.4141 983.663,-89.31 981.747,-96.0426"/>
</g>
<!-- Node18 -->
<g id="node18" class="node"><title>Node18</title>
<g id="a_node18"><a xlink:href="../../d9/d7d/cipmessagerouter_8c.html#a7a9f44f2d6f010b6f6ee922d378d9bb1" target="_top" xlink:title="Get the registered MessageRouter object corresponding to ClassID. given a class ID, return a pointer to the registration node for that object. ">
<polygon fill="none" stroke="black" points="684,-304.5 684,-323.5 792,-323.5 792,-304.5 684,-304.5"/>
<text text-anchor="middle" x="738" y="-311.5" font-family="Helvetica,sans-Serif" font-size="10.00">GetRegisteredObject</text>
</a>
</g>
</g>
<!-- Node17&#45;&gt;Node18 -->
<g id="edge23" class="edge"><title>Node17&#45;&gt;Node18</title>
<path fill="none" stroke="midnightblue" d="M613.683,-314C631.384,-314 653.301,-314 673.726,-314"/>
<polygon fill="midnightblue" stroke="midnightblue" points="673.922,-317.5 683.922,-314 673.922,-310.5 673.922,-317.5"/>
</g>
<!-- Node19&#45;&gt;Node6 -->
<g id="edge25" class="edge"><title>Node19&#45;&gt;Node6</title>
<path fill="none" stroke="midnightblue" d="M616.084,-235.605C637.197,-234.277 663.717,-232.609 686.536,-231.174"/>
<polygon fill="midnightblue" stroke="midnightblue" points="686.967,-234.654 696.727,-230.533 686.527,-227.668 686.967,-234.654"/>
</g>
<!-- Node21&#45;&gt;Node4 -->
<g id="edge28" class="edge"><title>Node21&#45;&gt;Node4</title>
<path fill="none" stroke="midnightblue" d="M624.417,-395.547C647.839,-398.346 675.925,-401.702 698.185,-404.362"/>
<polygon fill="midnightblue" stroke="midnightblue" points="697.936,-407.857 708.281,-405.568 698.767,-400.906 697.936,-407.857"/>
</g>
<!-- Node22&#45;&gt;Node23 -->
<g id="edge30" class="edge"><title>Node22&#45;&gt;Node23</title>
<path fill="none" stroke="midnightblue" d="M287.232,-124C295.59,-124 304.2,-124 312.766,-124"/>
<polygon fill="midnightblue" stroke="midnightblue" points="312.785,-127.5 322.785,-124 312.784,-120.5 312.785,-127.5"/>
</g>
<!-- Node23&#45;&gt;Node6 -->
<g id="edge31" class="edge"><title>Node23&#45;&gt;Node6</title>
<path fill="none" stroke="midnightblue" d="M456.671,-133.517C504.456,-142.892 576.118,-159.003 636,-181 652.792,-187.168 655.828,-191.354 672,-199 682.862,-204.136 694.85,-209.554 705.542,-214.299"/>
<polygon fill="midnightblue" stroke="midnightblue" points="704.365,-217.605 714.927,-218.44 707.191,-211.201 704.365,-217.605"/>
</g>
<!-- Node23&#45;&gt;Node9 -->
<g id="edge33" class="edge"><title>Node23&#45;&gt;Node9</title>
<path fill="none" stroke="midnightblue" d="M482.178,-124C494.549,-124 507.129,-124 518.89,-124"/>
<polygon fill="midnightblue" stroke="midnightblue" points="518.988,-127.5 528.988,-124 518.988,-120.5 518.988,-127.5"/>
</g>
<!-- Node23&#45;&gt;Node11 -->
<g id="edge32" class="edge"><title>Node23&#45;&gt;Node11</title>
<path fill="none" stroke="midnightblue" d="M450.079,-114.487C470.78,-110.722 495.508,-106.853 518,-105 570.267,-100.693 583.782,-100.131 636,-105 654.563,-106.731 674.8,-110.214 692.25,-113.731"/>
<polygon fill="midnightblue" stroke="midnightblue" points="691.667,-117.184 702.17,-115.793 693.091,-110.331 691.667,-117.184"/>
</g>
<!-- Node25&#45;&gt;Node6 -->
<g id="edge39" class="edge"><title>Node25&#45;&gt;Node6</title>
<path fill="none" stroke="midnightblue" d="M590.648,-57.6731C603.57,-68.1242 623.467,-85.868 636,-105 660.514,-142.423 641.23,-166.525 672,-199 677.925,-205.254 685.444,-210.252 693.249,-214.215"/>
<polygon fill="midnightblue" stroke="midnightblue" points="691.913,-217.452 702.465,-218.405 694.81,-211.08 691.913,-217.452"/>
</g>
<!-- Node25&#45;&gt;Node16 -->
<g id="edge40" class="edge"><title>Node25&#45;&gt;Node16</title>
<path fill="none" stroke="midnightblue" d="M618.122,-57.589C639.104,-62.6035 664.982,-68.7881 687.23,-74.1053"/>
<polygon fill="midnightblue" stroke="midnightblue" points="686.626,-77.5595 697.166,-76.4799 688.254,-70.7513 686.626,-77.5595"/>
</g>
<!-- Node26 -->
<g id="node26" class="node"><title>Node26</title>
<g id="a_node26"><a xlink:href="../../d4/d91/group__ENCAP.html#ga668f92389ee06510864585b97955f6f8" target="_top" xlink:title="Reads EIP_UINT32 from *buffer and converts little endian to host. ">
<polygon fill="none" stroke="black" points="681.5,-0.5 681.5,-19.5 794.5,-19.5 794.5,-0.5 681.5,-0.5"/>
<text text-anchor="middle" x="738" y="-7.5" font-family="Helvetica,sans-Serif" font-size="10.00">GetDintFromMessage</text>
</a>
</g>
</g>
<!-- Node25&#45;&gt;Node26 -->
<g id="edge41" class="edge"><title>Node25&#45;&gt;Node26</title>
<path fill="none" stroke="midnightblue" d="M618.122,-38.411C639.104,-33.3965 664.982,-27.2119 687.23,-21.8947"/>
<polygon fill="midnightblue" stroke="midnightblue" points="688.254,-25.2487 697.166,-19.5201 686.626,-18.4405 688.254,-25.2487"/>
</g>
<!-- Node27 -->
<g id="node27" class="node"><title>Node27</title>
<g id="a_node27"><a xlink:href="../../d4/d91/group__ENCAP.html#ga70322f970709ca9c9a1a1d474cfe2302" target="_top" xlink:title="Reads EIP_UINT16 from *buffer and converts little endian to host. ">
<polygon fill="none" stroke="black" points="685,-38.5 685,-57.5 791,-57.5 791,-38.5 685,-38.5"/>
<text text-anchor="middle" x="738" y="-45.5" font-family="Helvetica,sans-Serif" font-size="10.00">GetIntFromMessage</text>
</a>
</g>
</g>
<!-- Node25&#45;&gt;Node27 -->
<g id="edge42" class="edge"><title>Node25&#45;&gt;Node27</title>
<path fill="none" stroke="midnightblue" d="M633.164,-48C646.53,-48 660.911,-48 674.585,-48"/>
<polygon fill="midnightblue" stroke="midnightblue" points="674.875,-51.5001 684.875,-48 674.875,-44.5001 674.875,-51.5001"/>
</g>
</g>
</svg>
