<?xml version="1.0" encoding="UTF-8" standalone="no"?>
<!DOCTYPE svg PUBLIC "-//W3C//DTD SVG 1.1//EN"
 "http://www.w3.org/Graphics/SVG/1.1/DTD/svg11.dtd">
<!-- Generated by graphviz version 2.36.0 (20140111.2315)
 -->
<!-- Title: ConnectionObjectGetTransportClassTriggerProductionTrigger Pages: 1 -->
<svg width="862pt" height="219pt"
 viewBox="0.00 0.00 862.00 219.00" xmlns="http://www.w3.org/2000/svg" xmlns:xlink="http://www.w3.org/1999/xlink">
<g id="graph0" class="graph" transform="scale(1 1) rotate(0) translate(4 215)">
<title>ConnectionObjectGetTransportClassTriggerProductionTrigger</title>
<!-- Node1 -->
<g id="node1" class="node"><title>Node1</title>
<polygon fill="#bfbfbf" stroke="black" points="0,-102 0,-132 152,-132 152,-102 0,-102"/>
<text text-anchor="start" x="8" y="-120" font-family="Helvetica,sans-Serif" font-size="10.00">ConnectionObjectGetTransport</text>
<text text-anchor="middle" x="76" y="-109" font-family="Helvetica,sans-Serif" font-size="10.00">ClassTriggerProductionTrigger</text>
</g>
<!-- Node2 -->
<g id="node2" class="node"><title>Node2</title>
<g id="a_node2"><a xlink:href="../../d5/d35/cipconnectionmanager_8c.html#af379a4b383c738a07d8e1ab0a4ac7510" target="_top" xlink:title="Handles a Non Null Non Matching Forward Open Request. ">
<polygon fill="none" stroke="black" points="375,-181 375,-211 515,-211 515,-181 375,-181"/>
<text text-anchor="start" x="383" y="-199" font-family="Helvetica,sans-Serif" font-size="10.00">HandleNonNullNonMatching</text>
<text text-anchor="middle" x="445" y="-188" font-family="Helvetica,sans-Serif" font-size="10.00">ForwardOpenRequest</text>
</a>
</g>
</g>
<!-- Node1&#45;&gt;Node2 -->
<g id="edge1" class="edge"><title>Node1&#45;&gt;Node2</title>
<path fill="none" stroke="midnightblue" d="M100.1,-138.955C121.143,-157.348 154.035,-182.268 188,-193 249.03,-212.284 322.401,-210.823 374.92,-205.853"/>
<polygon fill="midnightblue" stroke="midnightblue" points="102.421,-136.336 92.6379,-132.269 97.7496,-141.549 102.421,-136.336"/>
</g>
<!-- Node3 -->
<g id="node3" class="node"><title>Node3</title>
<g id="a_node3"><a xlink:href="../../d2/dc9/group__CIP__API.html#ga9f57b09260efb5bfb188b9d0ca0c6091" target="_top" xlink:title="Check if any of the connection timers (TransmissionTrigger or WatchdogTimeout) have timed out...">
<polygon fill="none" stroke="black" points="209,-126.5 209,-145.5 315,-145.5 315,-126.5 209,-126.5"/>
<text text-anchor="middle" x="262" y="-133.5" font-family="Helvetica,sans-Serif" font-size="10.00">ManageConnections</text>
</a>
</g>
</g>
<!-- Node1&#45;&gt;Node3 -->
<g id="edge2" class="edge"><title>Node1&#45;&gt;Node3</title>
<path fill="none" stroke="midnightblue" d="M162.467,-125.825C178.323,-127.463 194.439,-129.127 208.919,-130.622"/>
<polygon fill="midnightblue" stroke="midnightblue" points="162.412,-122.301 152.105,-124.755 161.693,-129.264 162.412,-122.301"/>
</g>
<!-- Node8 -->
<g id="node8" class="node"><title>Node8</title>
<g id="a_node8"><a xlink:href="../../d5/d35/cipconnectionmanager_8c.html#ad7b34359aea58ef8d4e77008ea53098f" target="_top" xlink:title="Parse the connection path of a forward open request. ">
<polygon fill="none" stroke="black" points="206,-164.5 206,-183.5 318,-183.5 318,-164.5 206,-164.5"/>
<text text-anchor="middle" x="262" y="-171.5" font-family="Helvetica,sans-Serif" font-size="10.00">ParseConnectionPath</text>
</a>
</g>
</g>
<!-- Node1&#45;&gt;Node8 -->
<g id="edge7" class="edge"><title>Node1&#45;&gt;Node8</title>
<path fill="none" stroke="midnightblue" d="M127.947,-135.34C146.724,-141.861 168.234,-149.054 188,-155 199.036,-158.32 211.11,-161.603 222.206,-164.481"/>
<polygon fill="midnightblue" stroke="midnightblue" points="128.996,-131.999 118.401,-132.001 126.685,-138.606 128.996,-131.999"/>
</g>
<!-- Node9 -->
<g id="node9" class="node"><title>Node9</title>
<g id="a_node9"><a xlink:href="../../df/d03/cipioconnection_8c.html#ac1ef9c10ff4921452840b0de66bb12cf" target="_top" xlink:title="ProcessProductionInhibitTime">
<polygon fill="none" stroke="black" points="188.5,-88.5 188.5,-107.5 335.5,-107.5 335.5,-88.5 188.5,-88.5"/>
<text text-anchor="middle" x="262" y="-95.5" font-family="Helvetica,sans-Serif" font-size="10.00">ProcessProductionInhibitTime</text>
</a>
</g>
</g>
<!-- Node1&#45;&gt;Node9 -->
<g id="edge9" class="edge"><title>Node1&#45;&gt;Node9</title>
<path fill="none" stroke="midnightblue" d="M162.241,-108.198C170.923,-107.301 179.685,-106.397 188.216,-105.516"/>
<polygon fill="midnightblue" stroke="midnightblue" points="161.693,-104.736 152.105,-109.245 162.412,-111.699 161.693,-104.736"/>
</g>
<!-- Node13 -->
<g id="node13" class="node"><title>Node13</title>
<g id="a_node13"><a xlink:href="../../df/d03/cipioconnection_8c.html#a4efa3b0cf11b363c8c5f4f8c8070b43f" target="_top" xlink:title="SetupIoConnectionTargetTo\lOriginatorConnectionPoint">
<polygon fill="none" stroke="black" points="192.5,-39 192.5,-69 331.5,-69 331.5,-39 192.5,-39"/>
<text text-anchor="start" x="200.5" y="-57" font-family="Helvetica,sans-Serif" font-size="10.00">SetupIoConnectionTargetTo</text>
<text text-anchor="middle" x="262" y="-46" font-family="Helvetica,sans-Serif" font-size="10.00">OriginatorConnectionPoint</text>
</a>
</g>
</g>
<!-- Node1&#45;&gt;Node13 -->
<g id="edge14" class="edge"><title>Node1&#45;&gt;Node13</title>
<path fill="none" stroke="midnightblue" d="M130.89,-98.5485C158.272,-89.173 191.126,-77.9243 216.969,-69.076"/>
<polygon fill="midnightblue" stroke="midnightblue" points="129.4,-95.3593 121.073,-101.91 131.667,-101.982 129.4,-95.3593"/>
</g>
<!-- Node14 -->
<g id="node14" class="node"><title>Node14</title>
<g id="a_node14"><a xlink:href="../../d2/dc9/group__CIP__API.html#ga286de29d4e88bd1fec0611e75c288faf" target="_top" xlink:title="Trigger the production of an application triggered connection. ">
<polygon fill="none" stroke="black" points="211.5,-0.5 211.5,-19.5 312.5,-19.5 312.5,-0.5 211.5,-0.5"/>
<text text-anchor="middle" x="262" y="-7.5" font-family="Helvetica,sans-Serif" font-size="10.00">TriggerConnections</text>
</a>
</g>
</g>
<!-- Node1&#45;&gt;Node14 -->
<g id="edge16" class="edge"><title>Node1&#45;&gt;Node14</title>
<path fill="none" stroke="midnightblue" d="M99.6607,-94.7525C120.864,-75.0919 154.252,-46.9771 188,-30 196.452,-25.7481 205.924,-22.3059 215.174,-19.5542"/>
<polygon fill="midnightblue" stroke="midnightblue" points="97.0277,-92.4248 92.1555,-101.833 101.831,-97.5166 97.0277,-92.4248"/>
</g>
<!-- Node4 -->
<g id="node4" class="node"><title>Node4</title>
<g id="a_node4"><a xlink:href="../../da/dc2/generic__networkhandler_8h.html#a2f01af81d3e5018d9980e2bc28c9078a" target="_top" xlink:title="NetworkHandlerProcessOnce">
<polygon fill="none" stroke="black" points="372,-126.5 372,-145.5 518,-145.5 518,-126.5 372,-126.5"/>
<text text-anchor="middle" x="445" y="-133.5" font-family="Helvetica,sans-Serif" font-size="10.00">NetworkHandlerProcessOnce</text>
</a>
</g>
</g>
<!-- Node3&#45;&gt;Node4 -->
<g id="edge3" class="edge"><title>Node3&#45;&gt;Node4</title>
<path fill="none" stroke="midnightblue" d="M325.505,-136C340.463,-136 356.553,-136 371.905,-136"/>
<polygon fill="midnightblue" stroke="midnightblue" points="325.353,-132.5 315.353,-136 325.353,-139.5 325.353,-132.5"/>
</g>
<!-- Node5 -->
<g id="node5" class="node"><title>Node5</title>
<g id="a_node5"><a xlink:href="../../d5/dcb/MINGW_2main_8c.html#ad338a7dbc41dc40bcecd0479377ef207" target="_top" xlink:title="main">
<polygon fill="none" stroke="black" points="816,-107.5 816,-126.5 854,-126.5 854,-107.5 816,-107.5"/>
<text text-anchor="middle" x="835" y="-114.5" font-family="Helvetica,sans-Serif" font-size="10.00">main</text>
</a>
</g>
</g>
<!-- Node4&#45;&gt;Node5 -->
<g id="edge4" class="edge"><title>Node4&#45;&gt;Node5</title>
<path fill="none" stroke="midnightblue" d="M528.483,-143.68C596.482,-148.179 695.187,-150.486 780,-136 792.344,-133.892 805.618,-129.256 815.917,-125.092"/>
<polygon fill="midnightblue" stroke="midnightblue" points="528.478,-140.171 518.26,-142.971 527.994,-147.154 528.478,-140.171"/>
</g>
<!-- Node6 -->
<g id="node6" class="node"><title>Node6</title>
<g id="a_node6"><a xlink:href="../../d9/dfb/POSIX_2main_8c.html#a68147675261e664799874644a2e2179d" target="_top" xlink:title="Signal handler function for ending stack execution. ">
<polygon fill="none" stroke="black" points="564,-107.5 564,-126.5 662,-126.5 662,-107.5 564,-107.5"/>
<text text-anchor="middle" x="613" y="-114.5" font-family="Helvetica,sans-Serif" font-size="10.00">executeEventLoop</text>
</a>
</g>
</g>
<!-- Node4&#45;&gt;Node6 -->
<g id="edge5" class="edge"><title>Node4&#45;&gt;Node6</title>
<path fill="none" stroke="midnightblue" d="M528.467,-126.561C540.57,-125.176 552.687,-123.789 563.791,-122.518"/>
<polygon fill="midnightblue" stroke="midnightblue" points="527.864,-123.107 518.327,-127.722 528.66,-130.062 527.864,-123.107"/>
</g>
<!-- Node7 -->
<g id="node7" class="node"><title>Node7</title>
<g id="a_node7"><a xlink:href="../../d9/dfb/POSIX_2main_8c.html#ad338a7dbc41dc40bcecd0479377ef207" target="_top" xlink:title="main">
<polygon fill="none" stroke="black" points="725,-107.5 725,-126.5 763,-126.5 763,-107.5 725,-107.5"/>
<text text-anchor="middle" x="744" y="-114.5" font-family="Helvetica,sans-Serif" font-size="10.00">main</text>
</a>
</g>
</g>
<!-- Node6&#45;&gt;Node7 -->
<g id="edge6" class="edge"><title>Node6&#45;&gt;Node7</title>
<path fill="none" stroke="midnightblue" d="M672.203,-117C691.268,-117 711.074,-117 724.872,-117"/>
<polygon fill="midnightblue" stroke="midnightblue" points="672.035,-113.5 662.035,-117 672.035,-120.5 672.035,-113.5"/>
</g>
<!-- Node8&#45;&gt;Node2 -->
<g id="edge8" class="edge"><title>Node8&#45;&gt;Node2</title>
<path fill="none" stroke="midnightblue" d="M328.554,-181.968C343.645,-183.802 359.741,-185.759 374.975,-187.61"/>
<polygon fill="midnightblue" stroke="midnightblue" points="328.639,-178.453 318.289,-180.72 327.794,-185.401 328.639,-178.453"/>
</g>
<!-- Node10 -->
<g id="node10" class="node"><title>Node10</title>
<g id="a_node10"><a xlink:href="../../de/d45/cipioconnection_8h.html#a43e270b3f9b9f6296b12285c320c95aa" target="_top" xlink:title="Setup all data in order to establish an IO connection. ">
<polygon fill="none" stroke="black" points="387.5,-69.5 387.5,-88.5 502.5,-88.5 502.5,-69.5 387.5,-69.5"/>
<text text-anchor="middle" x="445" y="-76.5" font-family="Helvetica,sans-Serif" font-size="10.00">EstablishIoConnection</text>
</a>
</g>
</g>
<!-- Node9&#45;&gt;Node10 -->
<g id="edge10" class="edge"><title>Node9&#45;&gt;Node10</title>
<path fill="none" stroke="midnightblue" d="M345.745,-89.3141C359.797,-87.8389 374.101,-86.3375 387.287,-84.9533"/>
<polygon fill="midnightblue" stroke="midnightblue" points="345.157,-85.8565 335.577,-90.3815 345.887,-92.8182 345.157,-85.8565"/>
</g>
<!-- Node11 -->
<g id="node11" class="node"><title>Node11</title>
<g id="a_node11"><a xlink:href="../../d2/da3/cipconnectionmanager_8h.html#a5ab0de6894d23e8fe84a6b46797c2212" target="_top" xlink:title="Initialize the data of the connection manager object. ">
<polygon fill="none" stroke="black" points="554.5,-69.5 554.5,-88.5 671.5,-88.5 671.5,-69.5 554.5,-69.5"/>
<text text-anchor="middle" x="613" y="-76.5" font-family="Helvetica,sans-Serif" font-size="10.00">ConnectionManagerInit</text>
</a>
</g>
</g>
<!-- Node10&#45;&gt;Node11 -->
<g id="edge11" class="edge"><title>Node10&#45;&gt;Node11</title>
<path fill="none" stroke="midnightblue" d="M513.022,-79C526.756,-79 541.098,-79 554.463,-79"/>
<polygon fill="midnightblue" stroke="midnightblue" points="512.664,-75.5001 502.663,-79 512.663,-82.5001 512.664,-75.5001"/>
</g>
<!-- Node12 -->
<g id="node12" class="node"><title>Node12</title>
<g id="a_node12"><a xlink:href="../../d2/dc9/group__CIP__API.html#ga5d4979945d124e28668b264c3823db1c" target="_top" xlink:title="Initialize and setup the CIP&#45;stack. ">
<polygon fill="none" stroke="black" points="708.5,-69.5 708.5,-88.5 779.5,-88.5 779.5,-69.5 708.5,-69.5"/>
<text text-anchor="middle" x="744" y="-76.5" font-family="Helvetica,sans-Serif" font-size="10.00">CipStackInit</text>
</a>
</g>
</g>
<!-- Node11&#45;&gt;Node12 -->
<g id="edge12" class="edge"><title>Node11&#45;&gt;Node12</title>
<path fill="none" stroke="midnightblue" d="M681.982,-79C691.081,-79 700.087,-79 708.274,-79"/>
<polygon fill="midnightblue" stroke="midnightblue" points="681.709,-75.5001 671.708,-79 681.708,-82.5001 681.709,-75.5001"/>
</g>
<!-- Node12&#45;&gt;Node5 -->
<g id="edge13" class="edge"><title>Node12&#45;&gt;Node5</title>
<path fill="none" stroke="midnightblue" d="M777.025,-92.6735C790.037,-98.2292 804.597,-104.446 815.741,-109.204"/>
<polygon fill="midnightblue" stroke="midnightblue" points="778.03,-89.2969 767.458,-88.589 775.281,-95.7347 778.03,-89.2969"/>
</g>
<!-- Node13&#45;&gt;Node10 -->
<g id="edge15" class="edge"><title>Node13&#45;&gt;Node10</title>
<path fill="none" stroke="midnightblue" d="M341.711,-64.8716C357.095,-66.9966 372.942,-69.1854 387.432,-71.1868"/>
<polygon fill="midnightblue" stroke="midnightblue" points="342.071,-61.3883 331.686,-63.4871 341.113,-68.3225 342.071,-61.3883"/>
</g>
</g>
</svg>
