<?xml version="1.0" encoding="UTF-8" standalone="no"?>
<!DOCTYPE svg PUBLIC "-//W3C//DTD SVG 1.1//EN"
 "http://www.w3.org/Graphics/SVG/1.1/DTD/svg11.dtd">
<!-- Generated by graphviz version 2.38.0 (20140413.2041)
 -->
<!-- Title: CipConnectionObjectListArrayFree Pages: 1 -->
<svg width="582pt" height="61pt"
 viewBox="0.00 0.00 582.00 61.00" xmlns="http://www.w3.org/2000/svg" xmlns:xlink="http://www.w3.org/1999/xlink">
<g id="graph0" class="graph" transform="scale(1 1) rotate(0) translate(4 57)">
<title>CipConnectionObjectListArrayFree</title>
<!-- Node1 -->
<g id="node1" class="node"><title>Node1</title>
<polygon fill="#bfbfbf" stroke="black" points="0,-28 0,-47 168,-47 168,-28 0,-28"/>
<text text-anchor="middle" x="84" y="-35" font-family="Helvetica,sans-Serif" font-size="10.00">CipConnectionObjectListArrayFree</text>
</g>
<!-- Node2 -->
<g id="node2" class="node"><title>Node2</title>
<g id="a_node2"><a xlink:href="../../df/d91/cipconnectionobject_8c.html#a8b64594fd1744d505b13484495d96d78" target="_top" xlink:title="ConnectionObjectCalculate\lRegularInactivityWatchdogTimerValue">
<polygon fill="none" stroke="black" points="390,-22.5 390,-52.5 574,-52.5 574,-22.5 390,-22.5"/>
<text text-anchor="start" x="398" y="-40.5" font-family="Helvetica,sans-Serif" font-size="10.00">ConnectionObjectCalculate</text>
<text text-anchor="middle" x="482" y="-29.5" font-family="Helvetica,sans-Serif" font-size="10.00">RegularInactivityWatchdogTimerValue</text>
</a>
</g>
</g>
<!-- Node1&#45;&gt;Node2 -->
<g id="edge1" class="edge"><title>Node1&#45;&gt;Node2</title>
<path fill="none" stroke="midnightblue" d="M168.219,-39.8651C180.224,-40.1286 192.428,-40.3542 204,-40.5 270.661,-41.3401 287.338,-41.2872 354,-40.5 362.322,-40.4017 370.949,-40.2672 379.612,-40.1094"/>
<polygon fill="midnightblue" stroke="midnightblue" points="379.85,-43.6055 389.781,-39.914 379.716,-36.6068 379.85,-43.6055"/>
</g>
<!-- Node3 -->
<g id="node3" class="node"><title>Node3</title>
<g id="a_node3"><a xlink:href="../../df/d91/cipconnectionobject_8c.html#aff88fa3ae6c57c3d9bee691560d9f670" target="_top" xlink:title="ConnectionObjectSetInitial\lInactivityWatchdogTimerValue">
<polygon fill="none" stroke="black" points="204,-0.5 204,-30.5 354,-30.5 354,-0.5 204,-0.5"/>
<text text-anchor="start" x="212" y="-18.5" font-family="Helvetica,sans-Serif" font-size="10.00">ConnectionObjectSetInitial</text>
<text text-anchor="middle" x="279" y="-7.5" font-family="Helvetica,sans-Serif" font-size="10.00">InactivityWatchdogTimerValue</text>
</a>
</g>
</g>
<!-- Node1&#45;&gt;Node3 -->
<g id="edge2" class="edge"><title>Node1&#45;&gt;Node3</title>
<path fill="none" stroke="midnightblue" d="M168.25,-28.0104C176.663,-27.0513 185.214,-26.0766 193.639,-25.1163"/>
<polygon fill="midnightblue" stroke="midnightblue" points="194.297,-28.564 203.836,-23.9539 193.504,-21.6091 194.297,-28.564"/>
</g>
<!-- Node3&#45;&gt;Node2 -->
<g id="edge3" class="edge"><title>Node3&#45;&gt;Node2</title>
<path fill="none" stroke="midnightblue" d="M354.274,-23.6295C362.633,-24.5444 371.253,-25.4879 379.879,-26.432"/>
<polygon fill="midnightblue" stroke="midnightblue" points="379.671,-29.93 389.992,-27.5389 380.432,-22.9716 379.671,-29.93"/>
</g>
</g>
</svg>
