<?xml version="1.0" encoding="UTF-8" standalone="no"?>
<!DOCTYPE svg PUBLIC "-//W3C//DTD SVG 1.1//EN"
 "http://www.w3.org/Graphics/SVG/1.1/DTD/svg11.dtd">
<!-- Generated by graphviz version 2.38.0 (20140413.2041)
 -->
<!-- Title: ConnectionObjectResetLastPackageInactivityTimerValue Pages: 1 -->
<svg width="1055pt" height="66pt"
 viewBox="0.00 0.00 1055.00 66.00" xmlns="http://www.w3.org/2000/svg" xmlns:xlink="http://www.w3.org/1999/xlink">
<g id="graph0" class="graph" transform="scale(1 1) rotate(0) translate(4 62)">
<title>ConnectionObjectResetLastPackageInactivityTimerValue</title>
<!-- Node1 -->
<g id="node1" class="node"><title>Node1</title>
<polygon fill="#bfbfbf" stroke="black" points="0,-14 0,-44 144,-44 144,-14 0,-14"/>
<text text-anchor="start" x="8" y="-32" font-family="Helvetica,sans-Serif" font-size="10.00">ConnectionObjectResetLast</text>
<text text-anchor="middle" x="72" y="-21" font-family="Helvetica,sans-Serif" font-size="10.00">PackageInactivityTimerValue</text>
</g>
<!-- Node2 -->
<g id="node2" class="node"><title>Node2</title>
<g id="a_node2"><a xlink:href="../../d2/dc9/group__CIP__API.html#ga9abc7c86317baaa7ede1a4bce09fa542" target="_top" xlink:title="Notify the connection manager that data for a connection has been received. ">
<polygon fill="none" stroke="black" points="180,-19.5 180,-38.5 337,-38.5 337,-19.5 180,-19.5"/>
<text text-anchor="middle" x="258.5" y="-26.5" font-family="Helvetica,sans-Serif" font-size="10.00">HandleReceivedConnectedData</text>
</a>
</g>
</g>
<!-- Node1&#45;&gt;Node2 -->
<g id="edge1" class="edge"><title>Node1&#45;&gt;Node2</title>
<path fill="none" stroke="midnightblue" d="M154.293,-29C162.741,-29 171.314,-29 179.722,-29"/>
<polygon fill="midnightblue" stroke="midnightblue" points="154.069,-25.5001 144.069,-29 154.069,-32.5001 154.069,-25.5001"/>
</g>
<!-- Node3 -->
<g id="node3" class="node"><title>Node3</title>
<g id="a_node3"><a xlink:href="../../db/d4f/generic__networkhandler_8c.html#af0c95ade149818d252c292b489cfe190" target="_top" xlink:title="check if on one of the UDP consuming sockets data has been received and if yes handle it correctly ...">
<polygon fill="none" stroke="black" points="373,-14 373,-44 534,-44 534,-14 373,-14"/>
<text text-anchor="start" x="381" y="-32" font-family="Helvetica,sans-Serif" font-size="10.00">CheckAndHandleConsumingUdp</text>
<text text-anchor="middle" x="453.5" y="-21" font-family="Helvetica,sans-Serif" font-size="10.00">Sockets</text>
</a>
</g>
</g>
<!-- Node2&#45;&gt;Node3 -->
<g id="edge2" class="edge"><title>Node2&#45;&gt;Node3</title>
<path fill="none" stroke="midnightblue" d="M347.419,-29C355.875,-29 364.419,-29 372.789,-29"/>
<polygon fill="midnightblue" stroke="midnightblue" points="347.166,-25.5001 337.166,-29 347.166,-32.5001 347.166,-25.5001"/>
</g>
<!-- Node4 -->
<g id="node4" class="node"><title>Node4</title>
<g id="a_node4"><a xlink:href="../../da/dc2/generic__networkhandler_8h.html#a2f01af81d3e5018d9980e2bc28c9078a" target="_top" xlink:title="NetworkHandlerProcessOnce">
<polygon fill="none" stroke="black" points="570,-19.5 570,-38.5 716,-38.5 716,-19.5 570,-19.5"/>
<text text-anchor="middle" x="643" y="-26.5" font-family="Helvetica,sans-Serif" font-size="10.00">NetworkHandlerProcessOnce</text>
</a>
</g>
</g>
<!-- Node3&#45;&gt;Node4 -->
<g id="edge3" class="edge"><title>Node3&#45;&gt;Node4</title>
<path fill="none" stroke="midnightblue" d="M544.095,-29C552.713,-29 561.379,-29 569.799,-29"/>
<polygon fill="midnightblue" stroke="midnightblue" points="544.017,-25.5001 534.017,-29 544.017,-32.5001 544.017,-25.5001"/>
</g>
<!-- Node5 -->
<g id="node5" class="node"><title>Node5</title>
<g id="a_node5"><a xlink:href="../../d5/dcb/MINGW_2main_8c.html#ad338a7dbc41dc40bcecd0479377ef207" target="_top" xlink:title="main">
<polygon fill="none" stroke="black" points="767,-38.5 767,-57.5 805,-57.5 805,-38.5 767,-38.5"/>
<text text-anchor="middle" x="786" y="-45.5" font-family="Helvetica,sans-Serif" font-size="10.00">main</text>
</a>
</g>
</g>
<!-- Node4&#45;&gt;Node5 -->
<g id="edge4" class="edge"><title>Node4&#45;&gt;Node5</title>
<path fill="none" stroke="midnightblue" d="M724.851,-39.8949C740.712,-42.0322 755.859,-44.0731 766.984,-45.5724"/>
<polygon fill="midnightblue" stroke="midnightblue" points="725.291,-36.4225 714.913,-38.5557 724.356,-43.3598 725.291,-36.4225"/>
</g>
<!-- Node8 -->
<g id="node8" class="node"><title>Node8</title>
<g id="a_node8"><a xlink:href="../../d9/dfb/POSIX_2main_8c.html#acd4e45a35a64f9cb29b59f63492b61d2" target="_top" xlink:title="Signal handler function for ending stack execution. ">
<polygon fill="none" stroke="black" points="752,-0.5 752,-19.5 820,-19.5 820,-0.5 752,-0.5"/>
<text text-anchor="middle" x="786" y="-7.5" font-family="Helvetica,sans-Serif" font-size="10.00">LeaveStack</text>
</a>
</g>
</g>
<!-- Node4&#45;&gt;Node8 -->
<g id="edge7" class="edge"><title>Node4&#45;&gt;Node8</title>
<path fill="none" stroke="midnightblue" d="M724.851,-18.1051C734.328,-16.8281 743.55,-15.5855 751.811,-14.4723"/>
<polygon fill="midnightblue" stroke="midnightblue" points="724.356,-14.6402 714.913,-19.4443 725.291,-21.5775 724.356,-14.6402"/>
</g>
<!-- Node6 -->
<g id="node6" class="node"><title>Node6</title>
<g id="a_node6"><a xlink:href="../../d8/d03/ports_2MINGW_2CMakeLists_8txt.html#a7e00df43a20d627a1732be7766d91097" target="_top" xlink:title="add_library">
<polygon fill="none" stroke="black" points="856,-38.5 856,-57.5 920,-57.5 920,-38.5 856,-38.5"/>
<text text-anchor="middle" x="888" y="-45.5" font-family="Helvetica,sans-Serif" font-size="10.00">add_library</text>
</a>
</g>
</g>
<!-- Node5&#45;&gt;Node6 -->
<g id="edge5" class="edge"><title>Node5&#45;&gt;Node6</title>
<path fill="none" stroke="midnightblue" d="M815.697,-48C828.244,-48 842.992,-48 855.809,-48"/>
<polygon fill="midnightblue" stroke="midnightblue" points="815.342,-44.5001 805.342,-48 815.342,-51.5001 815.342,-44.5001"/>
</g>
<!-- Node7 -->
<g id="node7" class="node"><title>Node7</title>
<g id="a_node7"><a xlink:href="../../d8/dce/ports_2CMakeLists_8txt.html#a598fae457555a5fb26e18d4cd8f89de9" target="_top" xlink:title="add_subdirectory">
<polygon fill="none" stroke="black" points="956,-38.5 956,-57.5 1047,-57.5 1047,-38.5 956,-38.5"/>
<text text-anchor="middle" x="1001.5" y="-45.5" font-family="Helvetica,sans-Serif" font-size="10.00">add_subdirectory</text>
</a>
</g>
</g>
<!-- Node6&#45;&gt;Node7 -->
<g id="edge6" class="edge"><title>Node6&#45;&gt;Node7</title>
<path fill="none" stroke="midnightblue" d="M930.3,-48C938.629,-48 947.419,-48 955.856,-48"/>
<polygon fill="midnightblue" stroke="midnightblue" points="930.059,-44.5001 920.059,-48 930.059,-51.5001 930.059,-44.5001"/>
</g>
</g>
</svg>
