<?xml version="1.0" encoding="UTF-8" standalone="no"?>
<!DOCTYPE svg PUBLIC "-//W3C//DTD SVG 1.1//EN"
 "http://www.w3.org/Graphics/SVG/1.1/DTD/svg11.dtd">
<!-- Generated by graphviz version 2.38.0 (20140413.2041)
 -->
<!-- Title: ConnectionObjectResetInactivityWatchdogTimerValue Pages: 1 -->
<svg width="1426pt" height="110pt"
 viewBox="0.00 0.00 1426.00 109.50" xmlns="http://www.w3.org/2000/svg" xmlns:xlink="http://www.w3.org/1999/xlink">
<g id="graph0" class="graph" transform="scale(1 1) rotate(0) translate(4 105.5)">
<title>ConnectionObjectResetInactivityWatchdogTimerValue</title>
<!-- Node1 -->
<g id="node1" class="node"><title>Node1</title>
<polygon fill="#bfbfbf" stroke="black" points="0,-49 0,-79 161,-79 161,-49 0,-49"/>
<text text-anchor="start" x="8" y="-67" font-family="Helvetica,sans-Serif" font-size="10.00">ConnectionObjectResetInactivity</text>
<text text-anchor="middle" x="80.5" y="-56" font-family="Helvetica,sans-Serif" font-size="10.00">WatchdogTimerValue</text>
</g>
<!-- Node2 -->
<g id="node2" class="node"><title>Node2</title>
<g id="a_node2"><a xlink:href="../../d2/dc9/group__CIP__API.html#ga9abc7c86317baaa7ede1a4bce09fa542" target="_top" xlink:title="Notify the connection manager that data for a connection has been received. ">
<polygon fill="none" stroke="black" points="199,-76.5 199,-95.5 356,-95.5 356,-76.5 199,-76.5"/>
<text text-anchor="middle" x="277.5" y="-83.5" font-family="Helvetica,sans-Serif" font-size="10.00">HandleReceivedConnectedData</text>
</a>
</g>
</g>
<!-- Node1&#45;&gt;Node2 -->
<g id="edge1" class="edge"><title>Node1&#45;&gt;Node2</title>
<path fill="none" stroke="midnightblue" d="M171.067,-74.105C180.306,-75.1473 189.64,-76.2005 198.736,-77.2266"/>
<polygon fill="midnightblue" stroke="midnightblue" points="171.425,-70.6232 161.095,-72.98 170.64,-77.5791 171.425,-70.6232"/>
</g>
<!-- Node9 -->
<g id="node9" class="node"><title>Node9</title>
<g id="a_node9"><a xlink:href="../../d4/d91/group__ENCAP.html#ga72c9878cc686b15d10481b716e6f628d" target="_top" xlink:title="NotifyConnectedCommonPacket\lFormat">
<polygon fill="none" stroke="black" points="197,-27 197,-57 358,-57 358,-27 197,-27"/>
<text text-anchor="start" x="205" y="-45" font-family="Helvetica,sans-Serif" font-size="10.00">NotifyConnectedCommonPacket</text>
<text text-anchor="middle" x="277.5" y="-34" font-family="Helvetica,sans-Serif" font-size="10.00">Format</text>
</a>
</g>
</g>
<!-- Node1&#45;&gt;Node9 -->
<g id="edge8" class="edge"><title>Node1&#45;&gt;Node9</title>
<path fill="none" stroke="midnightblue" d="M171.117,-53.8894C179.7,-52.921 188.365,-51.9435 196.843,-50.9869"/>
<polygon fill="midnightblue" stroke="midnightblue" points="170.64,-50.4209 161.095,-55.02 171.425,-57.3768 170.64,-50.4209"/>
</g>
<!-- Node3 -->
<g id="node3" class="node"><title>Node3</title>
<g id="a_node3"><a xlink:href="../../db/d4f/generic__networkhandler_8c.html#af0c95ade149818d252c292b489cfe190" target="_top" xlink:title="check if on one of the UDP consuming sockets data has been received and if yes handle it correctly ...">
<polygon fill="none" stroke="black" points="580,-71 580,-101 741,-101 741,-71 580,-71"/>
<text text-anchor="start" x="588" y="-89" font-family="Helvetica,sans-Serif" font-size="10.00">CheckAndHandleConsumingUdp</text>
<text text-anchor="middle" x="660.5" y="-78" font-family="Helvetica,sans-Serif" font-size="10.00">Sockets</text>
</a>
</g>
</g>
<!-- Node2&#45;&gt;Node3 -->
<g id="edge2" class="edge"><title>Node2&#45;&gt;Node3</title>
<path fill="none" stroke="midnightblue" d="M366.194,-86C430.575,-86 517.322,-86 579.754,-86"/>
<polygon fill="midnightblue" stroke="midnightblue" points="366.06,-82.5001 356.06,-86 366.06,-89.5001 366.06,-82.5001"/>
</g>
<!-- Node4 -->
<g id="node4" class="node"><title>Node4</title>
<g id="a_node4"><a xlink:href="../../da/dc2/generic__networkhandler_8h.html#a2f01af81d3e5018d9980e2bc28c9078a" target="_top" xlink:title="NetworkHandlerProcessOnce">
<polygon fill="none" stroke="black" points="941,-38.5 941,-57.5 1087,-57.5 1087,-38.5 941,-38.5"/>
<text text-anchor="middle" x="1014" y="-45.5" font-family="Helvetica,sans-Serif" font-size="10.00">NetworkHandlerProcessOnce</text>
</a>
</g>
</g>
<!-- Node3&#45;&gt;Node4 -->
<g id="edge3" class="edge"><title>Node3&#45;&gt;Node4</title>
<path fill="none" stroke="midnightblue" d="M751.456,-81.0549C797.489,-77.9993 854.354,-73.4158 905,-67 924.642,-64.5117 946.15,-60.9094 964.765,-57.5089"/>
<polygon fill="midnightblue" stroke="midnightblue" points="750.956,-77.5799 741.205,-81.7221 751.411,-84.5652 750.956,-77.5799"/>
</g>
<!-- Node5 -->
<g id="node5" class="node"><title>Node5</title>
<g id="a_node5"><a xlink:href="../../d5/dcb/MINGW_2main_8c.html#ad338a7dbc41dc40bcecd0479377ef207" target="_top" xlink:title="main">
<polygon fill="none" stroke="black" points="1138,-0.5 1138,-19.5 1176,-19.5 1176,-0.5 1138,-0.5"/>
<text text-anchor="middle" x="1157" y="-7.5" font-family="Helvetica,sans-Serif" font-size="10.00">main</text>
</a>
</g>
</g>
<!-- Node4&#45;&gt;Node5 -->
<g id="edge4" class="edge"><title>Node4&#45;&gt;Node5</title>
<path fill="none" stroke="midnightblue" d="M1061.45,-35.8208C1069.95,-33.5688 1078.75,-31.2254 1087,-29 1104.28,-24.3423 1123.95,-18.9128 1137.85,-15.0535"/>
<polygon fill="midnightblue" stroke="midnightblue" points="1060.42,-32.4716 1051.65,-38.4099 1062.21,-39.2394 1060.42,-32.4716"/>
</g>
<!-- Node8 -->
<g id="node8" class="node"><title>Node8</title>
<g id="a_node8"><a xlink:href="../../d9/dfb/POSIX_2main_8c.html#acd4e45a35a64f9cb29b59f63492b61d2" target="_top" xlink:title="Signal handler function for ending stack execution. ">
<polygon fill="none" stroke="black" points="1123,-38.5 1123,-57.5 1191,-57.5 1191,-38.5 1123,-38.5"/>
<text text-anchor="middle" x="1157" y="-45.5" font-family="Helvetica,sans-Serif" font-size="10.00">LeaveStack</text>
</a>
</g>
</g>
<!-- Node4&#45;&gt;Node8 -->
<g id="edge7" class="edge"><title>Node4&#45;&gt;Node8</title>
<path fill="none" stroke="midnightblue" d="M1097.33,-48C1106.28,-48 1114.96,-48 1122.79,-48"/>
<polygon fill="midnightblue" stroke="midnightblue" points="1097.15,-44.5001 1087.15,-48 1097.15,-51.5001 1097.15,-44.5001"/>
</g>
<!-- Node6 -->
<g id="node6" class="node"><title>Node6</title>
<g id="a_node6"><a xlink:href="../../d8/d03/ports_2MINGW_2CMakeLists_8txt.html#a7e00df43a20d627a1732be7766d91097" target="_top" xlink:title="add_library">
<polygon fill="none" stroke="black" points="1227,-0.5 1227,-19.5 1291,-19.5 1291,-0.5 1227,-0.5"/>
<text text-anchor="middle" x="1259" y="-7.5" font-family="Helvetica,sans-Serif" font-size="10.00">add_library</text>
</a>
</g>
</g>
<!-- Node5&#45;&gt;Node6 -->
<g id="edge5" class="edge"><title>Node5&#45;&gt;Node6</title>
<path fill="none" stroke="midnightblue" d="M1186.7,-10C1199.24,-10 1213.99,-10 1226.81,-10"/>
<polygon fill="midnightblue" stroke="midnightblue" points="1186.34,-6.5001 1176.34,-10 1186.34,-13.5001 1186.34,-6.5001"/>
</g>
<!-- Node7 -->
<g id="node7" class="node"><title>Node7</title>
<g id="a_node7"><a xlink:href="../../d8/dce/ports_2CMakeLists_8txt.html#a598fae457555a5fb26e18d4cd8f89de9" target="_top" xlink:title="add_subdirectory">
<polygon fill="none" stroke="black" points="1327,-0.5 1327,-19.5 1418,-19.5 1418,-0.5 1327,-0.5"/>
<text text-anchor="middle" x="1372.5" y="-7.5" font-family="Helvetica,sans-Serif" font-size="10.00">add_subdirectory</text>
</a>
</g>
</g>
<!-- Node6&#45;&gt;Node7 -->
<g id="edge6" class="edge"><title>Node6&#45;&gt;Node7</title>
<path fill="none" stroke="midnightblue" d="M1301.3,-10C1309.63,-10 1318.42,-10 1326.86,-10"/>
<polygon fill="midnightblue" stroke="midnightblue" points="1301.06,-6.5001 1291.06,-10 1301.06,-13.5001 1301.06,-6.5001"/>
</g>
<!-- Node10 -->
<g id="node10" class="node"><title>Node10</title>
<g id="a_node10"><a xlink:href="../../d2/dbd/encap_8c.html#a49dc585614f655a5b313150a01fd7221" target="_top" xlink:title="Call Connection Manager. ">
<polygon fill="none" stroke="black" points="394,-27 394,-57 544,-57 544,-27 394,-27"/>
<text text-anchor="start" x="402" y="-45" font-family="Helvetica,sans-Serif" font-size="10.00">HandleReceivedSendUnitData</text>
<text text-anchor="middle" x="469" y="-34" font-family="Helvetica,sans-Serif" font-size="10.00">Command</text>
</a>
</g>
</g>
<!-- Node9&#45;&gt;Node10 -->
<g id="edge9" class="edge"><title>Node9&#45;&gt;Node10</title>
<path fill="none" stroke="midnightblue" d="M368.101,-42C376.706,-42 385.369,-42 393.803,-42"/>
<polygon fill="midnightblue" stroke="midnightblue" points="368.041,-38.5001 358.041,-42 368.041,-45.5001 368.041,-38.5001"/>
</g>
<!-- Node11 -->
<g id="node11" class="node"><title>Node11</title>
<g id="a_node11"><a xlink:href="../../d2/dc9/group__CIP__API.html#ga4b8ec8e9b8a1dd71e84f2ea54e1c2b2d" target="_top" xlink:title="Notify the encapsulation layer that an explicit message has been received via TCP. ">
<polygon fill="none" stroke="black" points="582.5,-32.5 582.5,-51.5 738.5,-51.5 738.5,-32.5 582.5,-32.5"/>
<text text-anchor="middle" x="660.5" y="-39.5" font-family="Helvetica,sans-Serif" font-size="10.00">HandleReceivedExplictTcpData</text>
</a>
</g>
</g>
<!-- Node10&#45;&gt;Node11 -->
<g id="edge10" class="edge"><title>Node10&#45;&gt;Node11</title>
<path fill="none" stroke="midnightblue" d="M554.179,-42C563.553,-42 573.067,-42 582.348,-42"/>
<polygon fill="midnightblue" stroke="midnightblue" points="554.08,-38.5001 544.08,-42 554.08,-45.5001 554.08,-38.5001"/>
</g>
<!-- Node12 -->
<g id="node12" class="node"><title>Node12</title>
<g id="a_node12"><a xlink:href="../../d4/d91/group__ENCAP.html#ga7a0dc2be6c485d9e6940d5b20a981022" target="_top" xlink:title="Initialize the encapsulation layer. ">
<polygon fill="none" stroke="black" points="795,-0.5 795,-19.5 887,-19.5 887,-0.5 795,-0.5"/>
<text text-anchor="middle" x="841" y="-7.5" font-family="Helvetica,sans-Serif" font-size="10.00">EncapsulationInit</text>
</a>
</g>
</g>
<!-- Node11&#45;&gt;Node12 -->
<g id="edge11" class="edge"><title>Node11&#45;&gt;Node12</title>
<path fill="none" stroke="midnightblue" d="M724.684,-30.673C747.892,-26.5124 773.678,-21.8897 794.97,-18.0725"/>
<polygon fill="midnightblue" stroke="midnightblue" points="723.798,-27.2758 714.573,-32.4856 725.033,-34.166 723.798,-27.2758"/>
</g>
<!-- Node14 -->
<g id="node14" class="node"><title>Node14</title>
<g id="a_node14"><a xlink:href="../../db/d4f/generic__networkhandler_8c.html#aca5593b7dd39d7a7b437999a367102d6" target="_top" xlink:title="Handles data on an established TCP connection, processed connection is given by socket. ">
<polygon fill="none" stroke="black" points="777,-38.5 777,-57.5 905,-57.5 905,-38.5 777,-38.5"/>
<text text-anchor="middle" x="841" y="-45.5" font-family="Helvetica,sans-Serif" font-size="10.00">HandleDataOnTcpSocket</text>
</a>
</g>
</g>
<!-- Node11&#45;&gt;Node14 -->
<g id="edge14" class="edge"><title>Node11&#45;&gt;Node14</title>
<path fill="none" stroke="midnightblue" d="M748.941,-44.9392C758.357,-45.2557 767.799,-45.5731 776.849,-45.8773"/>
<polygon fill="midnightblue" stroke="midnightblue" points="748.866,-41.4348 738.755,-44.5968 748.631,-48.4309 748.866,-41.4348"/>
</g>
<!-- Node13 -->
<g id="node13" class="node"><title>Node13</title>
<g id="a_node13"><a xlink:href="../../d2/dc9/group__CIP__API.html#ga5d4979945d124e28668b264c3823db1c" target="_top" xlink:title="Initialize and setup the CIP&#45;stack. ">
<polygon fill="none" stroke="black" points="978.5,-0.5 978.5,-19.5 1049.5,-19.5 1049.5,-0.5 978.5,-0.5"/>
<text text-anchor="middle" x="1014" y="-7.5" font-family="Helvetica,sans-Serif" font-size="10.00">CipStackInit</text>
</a>
</g>
</g>
<!-- Node12&#45;&gt;Node13 -->
<g id="edge12" class="edge"><title>Node12&#45;&gt;Node13</title>
<path fill="none" stroke="midnightblue" d="M897.682,-10C924.216,-10 955.13,-10 978.267,-10"/>
<polygon fill="midnightblue" stroke="midnightblue" points="897.376,-6.5001 887.376,-10 897.376,-13.5001 897.376,-6.5001"/>
</g>
<!-- Node13&#45;&gt;Node5 -->
<g id="edge13" class="edge"><title>Node13&#45;&gt;Node5</title>
<path fill="none" stroke="midnightblue" d="M1060.03,-10C1086.43,-10 1118.33,-10 1137.89,-10"/>
<polygon fill="midnightblue" stroke="midnightblue" points="1059.85,-6.5001 1049.85,-10 1059.85,-13.5001 1059.85,-6.5001"/>
</g>
<!-- Node14&#45;&gt;Node4 -->
<g id="edge15" class="edge"><title>Node14&#45;&gt;Node4</title>
<path fill="none" stroke="midnightblue" d="M915.379,-48C923.817,-48 932.417,-48 940.839,-48"/>
<polygon fill="midnightblue" stroke="midnightblue" points="915.188,-44.5001 905.188,-48 915.188,-51.5001 915.188,-44.5001"/>
</g>
</g>
</svg>
