<?xml version="1.0" encoding="UTF-8" standalone="no"?>
<!DOCTYPE svg PUBLIC "-//W3C//DTD SVG 1.1//EN"
 "http://www.w3.org/Graphics/SVG/1.1/DTD/svg11.dtd">
<!-- Generated by graphviz version 2.38.0 (20140413.2041)
 -->
<!-- Title: ConnectionObjectResetSequenceCounts Pages: 1 -->
<svg width="1128pt" height="66pt"
 viewBox="0.00 0.00 1128.00 66.00" xmlns="http://www.w3.org/2000/svg" xmlns:xlink="http://www.w3.org/1999/xlink">
<g id="graph0" class="graph" transform="scale(1 1) rotate(0) translate(4 62)">
<title>ConnectionObjectResetSequenceCounts</title>
<!-- Node1 -->
<g id="node1" class="node"><title>Node1</title>
<polygon fill="#bfbfbf" stroke="black" points="0,-14 0,-44 164,-44 164,-14 0,-14"/>
<text text-anchor="start" x="8" y="-32" font-family="Helvetica,sans-Serif" font-size="10.00">ConnectionObjectResetSequence</text>
<text text-anchor="middle" x="82" y="-21" font-family="Helvetica,sans-Serif" font-size="10.00">Counts</text>
</g>
<!-- Node2 -->
<g id="node2" class="node"><title>Node2</title>
<g id="a_node2"><a xlink:href="../../d1/d6c/cipconnectionobject_8h.html#a65b85bb4b72c902af06e054e24d6292c" target="_top" xlink:title="Generate the ConnectionIDs and set the general configuration parameter in the given connection object...">
<polygon fill="none" stroke="black" points="200,-19.5 200,-38.5 386,-38.5 386,-19.5 200,-19.5"/>
<text text-anchor="middle" x="293" y="-26.5" font-family="Helvetica,sans-Serif" font-size="10.00">ConnectionObjectGeneralConfiguration</text>
</a>
</g>
</g>
<!-- Node1&#45;&gt;Node2 -->
<g id="edge1" class="edge"><title>Node1&#45;&gt;Node2</title>
<path fill="none" stroke="midnightblue" d="M174.342,-29C182.795,-29 191.364,-29 199.825,-29"/>
<polygon fill="midnightblue" stroke="midnightblue" points="174.104,-25.5001 164.104,-29 174.104,-32.5001 174.104,-25.5001"/>
</g>
<!-- Node3 -->
<g id="node3" class="node"><title>Node3</title>
<g id="a_node3"><a xlink:href="../../d2/d11/cipclass3connection_8h.html#a45bd741b44137164c07a6ce09a7a9a9d" target="_top" xlink:title="Check if Class3 connection is available and if yes setup all data. ">
<polygon fill="none" stroke="black" points="422,-38.5 422,-57.5 559,-57.5 559,-38.5 422,-38.5"/>
<text text-anchor="middle" x="490.5" y="-45.5" font-family="Helvetica,sans-Serif" font-size="10.00">EstablishClass3Connection</text>
</a>
</g>
</g>
<!-- Node2&#45;&gt;Node3 -->
<g id="edge2" class="edge"><title>Node2&#45;&gt;Node3</title>
<path fill="none" stroke="midnightblue" d="M396.231,-38.9355C404.921,-39.78 413.563,-40.6199 421.882,-41.4284"/>
<polygon fill="midnightblue" stroke="midnightblue" points="396.317,-35.4275 386.025,-37.9436 395.64,-42.3946 396.317,-35.4275"/>
</g>
<!-- Node9 -->
<g id="node9" class="node"><title>Node9</title>
<g id="a_node9"><a xlink:href="../../de/d45/cipioconnection_8h.html#a43e270b3f9b9f6296b12285c320c95aa" target="_top" xlink:title="Setup all data in order to establish an IO connection. ">
<polygon fill="none" stroke="black" points="433,-0.5 433,-19.5 548,-19.5 548,-0.5 433,-0.5"/>
<text text-anchor="middle" x="490.5" y="-7.5" font-family="Helvetica,sans-Serif" font-size="10.00">EstablishIoConnection</text>
</a>
</g>
</g>
<!-- Node2&#45;&gt;Node9 -->
<g id="edge8" class="edge"><title>Node2&#45;&gt;Node9</title>
<path fill="none" stroke="midnightblue" d="M396.127,-19.0746C408.716,-17.8511 421.209,-16.637 432.767,-15.5137"/>
<polygon fill="midnightblue" stroke="midnightblue" points="395.64,-15.6054 386.025,-20.0564 396.317,-22.5725 395.64,-15.6054"/>
</g>
<!-- Node4 -->
<g id="node4" class="node"><title>Node4</title>
<g id="a_node4"><a xlink:href="../../d2/da3/cipconnectionmanager_8h.html#a5ab0de6894d23e8fe84a6b46797c2212" target="_top" xlink:title="Initialize the data of the connection manager object. ">
<polygon fill="none" stroke="black" points="595,-19.5 595,-38.5 712,-38.5 712,-19.5 595,-19.5"/>
<text text-anchor="middle" x="653.5" y="-26.5" font-family="Helvetica,sans-Serif" font-size="10.00">ConnectionManagerInit</text>
</a>
</g>
</g>
<!-- Node3&#45;&gt;Node4 -->
<g id="edge3" class="edge"><title>Node3&#45;&gt;Node4</title>
<path fill="none" stroke="midnightblue" d="M569.384,-38.8087C578,-37.7919 586.656,-36.7705 594.956,-35.7909"/>
<polygon fill="midnightblue" stroke="midnightblue" points="568.833,-35.3494 559.312,-39.9974 569.653,-42.3012 568.833,-35.3494"/>
</g>
<!-- Node5 -->
<g id="node5" class="node"><title>Node5</title>
<g id="a_node5"><a xlink:href="../../d2/dc9/group__CIP__API.html#ga5d4979945d124e28668b264c3823db1c" target="_top" xlink:title="Initialize and setup the CIP&#45;stack. ">
<polygon fill="none" stroke="black" points="748,-19.5 748,-38.5 819,-38.5 819,-19.5 748,-19.5"/>
<text text-anchor="middle" x="783.5" y="-26.5" font-family="Helvetica,sans-Serif" font-size="10.00">CipStackInit</text>
</a>
</g>
</g>
<!-- Node4&#45;&gt;Node5 -->
<g id="edge4" class="edge"><title>Node4&#45;&gt;Node5</title>
<path fill="none" stroke="midnightblue" d="M722.183,-29C731.08,-29 739.882,-29 747.898,-29"/>
<polygon fill="midnightblue" stroke="midnightblue" points="722.134,-25.5001 712.134,-29 722.134,-32.5001 722.134,-25.5001"/>
</g>
<!-- Node6 -->
<g id="node6" class="node"><title>Node6</title>
<g id="a_node6"><a xlink:href="../../d5/dcb/MINGW_2main_8c.html#ad338a7dbc41dc40bcecd0479377ef207" target="_top" xlink:title="main">
<polygon fill="none" stroke="black" points="855,-19.5 855,-38.5 893,-38.5 893,-19.5 855,-19.5"/>
<text text-anchor="middle" x="874" y="-26.5" font-family="Helvetica,sans-Serif" font-size="10.00">main</text>
</a>
</g>
</g>
<!-- Node5&#45;&gt;Node6 -->
<g id="edge5" class="edge"><title>Node5&#45;&gt;Node6</title>
<path fill="none" stroke="midnightblue" d="M829.381,-29C838.435,-29 847.455,-29 854.922,-29"/>
<polygon fill="midnightblue" stroke="midnightblue" points="829.224,-25.5001 819.224,-29 829.224,-32.5001 829.224,-25.5001"/>
</g>
<!-- Node7 -->
<g id="node7" class="node"><title>Node7</title>
<g id="a_node7"><a xlink:href="../../d8/d03/ports_2MINGW_2CMakeLists_8txt.html#a7e00df43a20d627a1732be7766d91097" target="_top" xlink:title="add_library">
<polygon fill="none" stroke="black" points="929,-19.5 929,-38.5 993,-38.5 993,-19.5 929,-19.5"/>
<text text-anchor="middle" x="961" y="-26.5" font-family="Helvetica,sans-Serif" font-size="10.00">add_library</text>
</a>
</g>
</g>
<!-- Node6&#45;&gt;Node7 -->
<g id="edge6" class="edge"><title>Node6&#45;&gt;Node7</title>
<path fill="none" stroke="midnightblue" d="M903.267,-29C911.504,-29 920.546,-29 928.945,-29"/>
<polygon fill="midnightblue" stroke="midnightblue" points="903.026,-25.5001 893.026,-29 903.026,-32.5001 903.026,-25.5001"/>
</g>
<!-- Node8 -->
<g id="node8" class="node"><title>Node8</title>
<g id="a_node8"><a xlink:href="../../d8/dce/ports_2CMakeLists_8txt.html#a598fae457555a5fb26e18d4cd8f89de9" target="_top" xlink:title="add_subdirectory">
<polygon fill="none" stroke="black" points="1029,-19.5 1029,-38.5 1120,-38.5 1120,-19.5 1029,-19.5"/>
<text text-anchor="middle" x="1074.5" y="-26.5" font-family="Helvetica,sans-Serif" font-size="10.00">add_subdirectory</text>
</a>
</g>
</g>
<!-- Node7&#45;&gt;Node8 -->
<g id="edge7" class="edge"><title>Node7&#45;&gt;Node8</title>
<path fill="none" stroke="midnightblue" d="M1003.3,-29C1011.63,-29 1020.42,-29 1028.86,-29"/>
<polygon fill="midnightblue" stroke="midnightblue" points="1003.06,-25.5001 993.059,-29 1003.06,-32.5001 1003.06,-25.5001"/>
</g>
<!-- Node9&#45;&gt;Node4 -->
<g id="edge9" class="edge"><title>Node9&#45;&gt;Node4</title>
<path fill="none" stroke="midnightblue" d="M558.335,-17.8874C570.476,-19.3202 583.045,-20.8034 594.891,-22.2015"/>
<polygon fill="midnightblue" stroke="midnightblue" points="558.604,-14.3949 548.263,-16.6987 557.783,-21.3466 558.604,-14.3949"/>
</g>
</g>
</svg>
