<?xml version="1.0" encoding="UTF-8" standalone="no"?>
<!DOCTYPE svg PUBLIC "-//W3C//DTD SVG 1.1//EN"
 "http://www.w3.org/Graphics/SVG/1.1/DTD/svg11.dtd">
<!-- Generated by graphviz version 2.38.0 (20140413.2041)
 -->
<!-- Title: ConnectionObjectResetProductionInhibitTimer Pages: 1 -->
<svg width="1140pt" height="123pt"
 viewBox="0.00 0.00 1140.00 123.00" xmlns="http://www.w3.org/2000/svg" xmlns:xlink="http://www.w3.org/1999/xlink">
<g id="graph0" class="graph" transform="scale(1 1) rotate(0) translate(4 119)">
<title>ConnectionObjectResetProductionInhibitTimer</title>
<!-- Node1 -->
<g id="node1" class="node"><title>Node1</title>
<polygon fill="#bfbfbf" stroke="black" points="0,-33 0,-63 167,-63 167,-33 0,-33"/>
<text text-anchor="start" x="8" y="-51" font-family="Helvetica,sans-Serif" font-size="10.00">ConnectionObjectResetProduction</text>
<text text-anchor="middle" x="83.5" y="-40" font-family="Helvetica,sans-Serif" font-size="10.00">InhibitTimer</text>
</g>
<!-- Node2 -->
<g id="node2" class="node"><title>Node2</title>
<g id="a_node2"><a xlink:href="../../d1/d6c/cipconnectionobject_8h.html#a65b85bb4b72c902af06e054e24d6292c" target="_top" xlink:title="Generate the ConnectionIDs and set the general configuration parameter in the given connection object...">
<polygon fill="none" stroke="black" points="203,-57.5 203,-76.5 389,-76.5 389,-57.5 203,-57.5"/>
<text text-anchor="middle" x="296" y="-64.5" font-family="Helvetica,sans-Serif" font-size="10.00">ConnectionObjectGeneralConfiguration</text>
</a>
</g>
</g>
<!-- Node1&#45;&gt;Node2 -->
<g id="edge1" class="edge"><title>Node1&#45;&gt;Node2</title>
<path fill="none" stroke="midnightblue" d="M177.084,-56.3567C185.652,-57.1301 194.335,-57.9138 202.899,-58.6868"/>
<polygon fill="midnightblue" stroke="midnightblue" points="177.365,-52.868 167.091,-55.4548 176.736,-59.8396 177.365,-52.868"/>
</g>
<!-- Node10 -->
<g id="node10" class="node"><title>Node10</title>
<g id="a_node10"><a xlink:href="../../d2/dc9/group__CIP__API.html#ga9f57b09260efb5bfb188b9d0ca0c6091" target="_top" xlink:title="Check if any of the connection timers (TransmissionTrigger or WatchdogTimeout) have timed out...">
<polygon fill="none" stroke="black" points="243,-19.5 243,-38.5 349,-38.5 349,-19.5 243,-19.5"/>
<text text-anchor="middle" x="296" y="-26.5" font-family="Helvetica,sans-Serif" font-size="10.00">ManageConnections</text>
</a>
</g>
</g>
<!-- Node1&#45;&gt;Node10 -->
<g id="edge10" class="edge"><title>Node1&#45;&gt;Node10</title>
<path fill="none" stroke="midnightblue" d="M177.059,-39.6455C199.661,-37.6054 223.055,-35.4939 242.99,-33.6945"/>
<polygon fill="midnightblue" stroke="midnightblue" points="176.736,-36.1604 167.091,-40.5452 177.365,-43.132 176.736,-36.1604"/>
</g>
<!-- Node3 -->
<g id="node3" class="node"><title>Node3</title>
<g id="a_node3"><a xlink:href="../../d2/d11/cipclass3connection_8h.html#a45bd741b44137164c07a6ce09a7a9a9d" target="_top" xlink:title="Check if Class3 connection is available and if yes setup all data. ">
<polygon fill="none" stroke="black" points="429.5,-95.5 429.5,-114.5 566.5,-114.5 566.5,-95.5 429.5,-95.5"/>
<text text-anchor="middle" x="498" y="-102.5" font-family="Helvetica,sans-Serif" font-size="10.00">EstablishClass3Connection</text>
</a>
</g>
</g>
<!-- Node2&#45;&gt;Node3 -->
<g id="edge2" class="edge"><title>Node2&#45;&gt;Node3</title>
<path fill="none" stroke="midnightblue" d="M357.095,-78.4181C385.712,-83.8552 419.543,-90.2832 446.769,-95.4561"/>
<polygon fill="midnightblue" stroke="midnightblue" points="357.688,-74.9682 347.21,-76.54 356.381,-81.8451 357.688,-74.9682"/>
</g>
<!-- Node9 -->
<g id="node9" class="node"><title>Node9</title>
<g id="a_node9"><a xlink:href="../../de/d45/cipioconnection_8h.html#a43e270b3f9b9f6296b12285c320c95aa" target="_top" xlink:title="Setup all data in order to establish an IO connection. ">
<polygon fill="none" stroke="black" points="440.5,-57.5 440.5,-76.5 555.5,-76.5 555.5,-57.5 440.5,-57.5"/>
<text text-anchor="middle" x="498" y="-64.5" font-family="Helvetica,sans-Serif" font-size="10.00">EstablishIoConnection</text>
</a>
</g>
</g>
<!-- Node2&#45;&gt;Node9 -->
<g id="edge8" class="edge"><title>Node2&#45;&gt;Node9</title>
<path fill="none" stroke="midnightblue" d="M399.39,-67C413.533,-67 427.612,-67 440.495,-67"/>
<polygon fill="midnightblue" stroke="midnightblue" points="399.097,-63.5001 389.097,-67 399.097,-70.5001 399.097,-63.5001"/>
</g>
<!-- Node4 -->
<g id="node4" class="node"><title>Node4</title>
<g id="a_node4"><a xlink:href="../../d2/da3/cipconnectionmanager_8h.html#a5ab0de6894d23e8fe84a6b46797c2212" target="_top" xlink:title="Initialize the data of the connection manager object. ">
<polygon fill="none" stroke="black" points="607,-76.5 607,-95.5 724,-95.5 724,-76.5 607,-76.5"/>
<text text-anchor="middle" x="665.5" y="-83.5" font-family="Helvetica,sans-Serif" font-size="10.00">ConnectionManagerInit</text>
</a>
</g>
</g>
<!-- Node3&#45;&gt;Node4 -->
<g id="edge3" class="edge"><title>Node3&#45;&gt;Node4</title>
<path fill="none" stroke="midnightblue" d="M576.846,-96.063C586.954,-94.9025 597.16,-93.7308 606.858,-92.6175"/>
<polygon fill="midnightblue" stroke="midnightblue" points="576.328,-92.5994 566.793,-97.2172 577.127,-99.5537 576.328,-92.5994"/>
</g>
<!-- Node5 -->
<g id="node5" class="node"><title>Node5</title>
<g id="a_node5"><a xlink:href="../../d2/dc9/group__CIP__API.html#ga5d4979945d124e28668b264c3823db1c" target="_top" xlink:title="Initialize and setup the CIP&#45;stack. ">
<polygon fill="none" stroke="black" points="760,-76.5 760,-95.5 831,-95.5 831,-76.5 760,-76.5"/>
<text text-anchor="middle" x="795.5" y="-83.5" font-family="Helvetica,sans-Serif" font-size="10.00">CipStackInit</text>
</a>
</g>
</g>
<!-- Node4&#45;&gt;Node5 -->
<g id="edge4" class="edge"><title>Node4&#45;&gt;Node5</title>
<path fill="none" stroke="midnightblue" d="M734.183,-86C743.08,-86 751.882,-86 759.898,-86"/>
<polygon fill="midnightblue" stroke="midnightblue" points="734.134,-82.5001 724.134,-86 734.134,-89.5001 734.134,-82.5001"/>
</g>
<!-- Node6 -->
<g id="node6" class="node"><title>Node6</title>
<g id="a_node6"><a xlink:href="../../d5/dcb/MINGW_2main_8c.html#ad338a7dbc41dc40bcecd0479377ef207" target="_top" xlink:title="main">
<polygon fill="none" stroke="black" points="867,-57.5 867,-76.5 905,-76.5 905,-57.5 867,-57.5"/>
<text text-anchor="middle" x="886" y="-64.5" font-family="Helvetica,sans-Serif" font-size="10.00">main</text>
</a>
</g>
</g>
<!-- Node5&#45;&gt;Node6 -->
<g id="edge5" class="edge"><title>Node5&#45;&gt;Node6</title>
<path fill="none" stroke="midnightblue" d="M841.089,-76.4273C850.241,-74.4623 859.375,-72.5015 866.922,-70.8811"/>
<polygon fill="midnightblue" stroke="midnightblue" points="840.266,-73.0241 831.224,-78.5452 841.735,-79.8681 840.266,-73.0241"/>
</g>
<!-- Node7 -->
<g id="node7" class="node"><title>Node7</title>
<g id="a_node7"><a xlink:href="../../d8/d03/ports_2MINGW_2CMakeLists_8txt.html#a7e00df43a20d627a1732be7766d91097" target="_top" xlink:title="add_library">
<polygon fill="none" stroke="black" points="941,-57.5 941,-76.5 1005,-76.5 1005,-57.5 941,-57.5"/>
<text text-anchor="middle" x="973" y="-64.5" font-family="Helvetica,sans-Serif" font-size="10.00">add_library</text>
</a>
</g>
</g>
<!-- Node6&#45;&gt;Node7 -->
<g id="edge6" class="edge"><title>Node6&#45;&gt;Node7</title>
<path fill="none" stroke="midnightblue" d="M915.267,-67C923.504,-67 932.546,-67 940.945,-67"/>
<polygon fill="midnightblue" stroke="midnightblue" points="915.026,-63.5001 905.026,-67 915.026,-70.5001 915.026,-63.5001"/>
</g>
<!-- Node8 -->
<g id="node8" class="node"><title>Node8</title>
<g id="a_node8"><a xlink:href="../../d8/dce/ports_2CMakeLists_8txt.html#a598fae457555a5fb26e18d4cd8f89de9" target="_top" xlink:title="add_subdirectory">
<polygon fill="none" stroke="black" points="1041,-57.5 1041,-76.5 1132,-76.5 1132,-57.5 1041,-57.5"/>
<text text-anchor="middle" x="1086.5" y="-64.5" font-family="Helvetica,sans-Serif" font-size="10.00">add_subdirectory</text>
</a>
</g>
</g>
<!-- Node7&#45;&gt;Node8 -->
<g id="edge7" class="edge"><title>Node7&#45;&gt;Node8</title>
<path fill="none" stroke="midnightblue" d="M1015.3,-67C1023.63,-67 1032.42,-67 1040.86,-67"/>
<polygon fill="midnightblue" stroke="midnightblue" points="1015.06,-63.5001 1005.06,-67 1015.06,-70.5001 1015.06,-63.5001"/>
</g>
<!-- Node9&#45;&gt;Node4 -->
<g id="edge9" class="edge"><title>Node9&#45;&gt;Node4</title>
<path fill="none" stroke="midnightblue" d="M566.146,-74.7086C579.651,-76.259 593.732,-77.8755 606.877,-79.3847"/>
<polygon fill="midnightblue" stroke="midnightblue" points="566.29,-71.2022 555.956,-73.5387 565.491,-78.1565 566.29,-71.2022"/>
</g>
<!-- Node11 -->
<g id="node11" class="node"><title>Node11</title>
<g id="a_node11"><a xlink:href="../../da/dc2/generic__networkhandler_8h.html#a2f01af81d3e5018d9980e2bc28c9078a" target="_top" xlink:title="NetworkHandlerProcessOnce">
<polygon fill="none" stroke="black" points="425,-19.5 425,-38.5 571,-38.5 571,-19.5 425,-19.5"/>
<text text-anchor="middle" x="498" y="-26.5" font-family="Helvetica,sans-Serif" font-size="10.00">NetworkHandlerProcessOnce</text>
</a>
</g>
</g>
<!-- Node10&#45;&gt;Node11 -->
<g id="edge11" class="edge"><title>Node10&#45;&gt;Node11</title>
<path fill="none" stroke="midnightblue" d="M359.038,-29C379.898,-29 403.345,-29 424.91,-29"/>
<polygon fill="midnightblue" stroke="midnightblue" points="359.026,-25.5001 349.026,-29 359.026,-32.5001 359.026,-25.5001"/>
</g>
<!-- Node11&#45;&gt;Node6 -->
<g id="edge12" class="edge"><title>Node11&#45;&gt;Node6</title>
<path fill="none" stroke="midnightblue" d="M581.291,-37.1012C673.432,-46.1721 816.44,-60.2505 866.747,-65.203"/>
<polygon fill="midnightblue" stroke="midnightblue" points="581.446,-33.5996 571.151,-36.1029 580.76,-40.5659 581.446,-33.5996"/>
</g>
<!-- Node12 -->
<g id="node12" class="node"><title>Node12</title>
<g id="a_node12"><a xlink:href="../../d9/dfb/POSIX_2main_8c.html#acd4e45a35a64f9cb29b59f63492b61d2" target="_top" xlink:title="Signal handler function for ending stack execution. ">
<polygon fill="none" stroke="black" points="631.5,-0.5 631.5,-19.5 699.5,-19.5 699.5,-0.5 631.5,-0.5"/>
<text text-anchor="middle" x="665.5" y="-7.5" font-family="Helvetica,sans-Serif" font-size="10.00">LeaveStack</text>
</a>
</g>
</g>
<!-- Node11&#45;&gt;Node12 -->
<g id="edge13" class="edge"><title>Node11&#45;&gt;Node12</title>
<path fill="none" stroke="midnightblue" d="M581.449,-19.5345C599.055,-17.5133 616.679,-15.49 631.133,-13.8306"/>
<polygon fill="midnightblue" stroke="midnightblue" points="580.645,-16.1038 571.109,-20.7216 581.443,-23.0581 580.645,-16.1038"/>
</g>
</g>
</svg>
