<?xml version="1.0" encoding="UTF-8" standalone="no"?>
<!DOCTYPE svg PUBLIC "-//W3C//DTD SVG 1.1//EN"
 "http://www.w3.org/Graphics/SVG/1.1/DTD/svg11.dtd">
<!-- Generated by graphviz version 2.38.0 (20140413.2041)
 -->
<!-- Title: ConnectionObjectGetTransportClassTriggerTransportClass Pages: 1 -->
<!--zoomable 484 -->
<svg id="main" version="1.1" xmlns="http://www.w3.org/2000/svg" xmlns:xlink="http://www.w3.org/1999/xlink" xml:space="preserve" onload="init(evt)">
<style type="text/css"><![CDATA[
.edge:hover path { stroke: red; }
.edge:hover polygon { stroke: red; fill: red; }
]]></style>
<script type="text/javascript"><![CDATA[
var edges = document.getElementsByTagName('g');
if (edges && edges.length) {
  for (var i=0;i<edges.length;i++) {
    if (edges[i].id.substr(0,4)=='edge') {
      edges[i].setAttribute('class','edge');
    }
  }
}
]]></script>
        <defs>
                <circle id="rim" cx="0" cy="0" r="7"/>
                <circle id="rim2" cx="0" cy="0" r="3.5"/>
                <g id="zoomPlus">
                        <use xlink:href="#rim" fill="#404040">
                                <set attributeName="fill" to="#808080" begin="zoomplus.mouseover" end="zoomplus.mouseout"/>
                        </use>
                        <path d="M-4,0h8M0,-4v8" fill="none" stroke="white" stroke-width="1.5" pointer-events="none"/>
                </g>
                <g id="zoomMin">
                        <use xlink:href="#rim" fill="#404040">
                                <set attributeName="fill" to="#808080" begin="zoomminus.mouseover" end="zoomminus.mouseout"/>
                        </use>
                        <path d="M-4,0h8" fill="none" stroke="white" stroke-width="1.5" pointer-events="none"/>
                </g>
                <g id="dirArrow">
                        <path fill="none" stroke="white" stroke-width="1.5" d="M0,-3.0v7 M-2.5,-0.5L0,-3.0L2.5,-0.5"/>
                </g>
               <g id="resetDef">
                       <use xlink:href="#rim2" fill="#404040">
                               <set attributeName="fill" to="#808080" begin="reset.mouseover" end="reset.mouseout"/>
                       </use>
               </g>
        </defs>

<script type="text/javascript">
var viewWidth = 1831;
var viewHeight = 484;
var sectionId = 'dynsection-27';
</script>
<script xlink:href="../../svgpan.js"/>
<svg id="graph" class="graph">
<g id="viewport">
<title>ConnectionObjectGetTransportClassTriggerTransportClass</title>
<!-- Node1 -->
<g id="node1" class="node"><title>Node1</title>
<polygon fill="#bfbfbf" stroke="black" points="0,-199.5 0,-229.5 152,-229.5 152,-199.5 0,-199.5"/>
<text text-anchor="start" x="8" y="-217.5" font-family="Helvetica,sans-Serif" font-size="10.00">ConnectionObjectGetTransport</text>
<text text-anchor="middle" x="76" y="-206.5" font-family="Helvetica,sans-Serif" font-size="10.00">ClassTriggerTransportClass</text>
</g>
<!-- Node2 -->
<g id="node2" class="node"><title>Node2</title>
<g id="a_node2"><a xlink:href="../../d7/df9/encap_8h.html#aef8228e92ac17473e762d8144daca74e" target="_top" xlink:title="CloseClass3ConnectionBased\lOnSession">
<polygon fill="none" stroke="black" points="188,-363.5 188,-393.5 338,-393.5 338,-363.5 188,-363.5"/>
<text text-anchor="start" x="196" y="-381.5" font-family="Helvetica,sans-Serif" font-size="10.00">CloseClass3ConnectionBased</text>
<text text-anchor="middle" x="263" y="-370.5" font-family="Helvetica,sans-Serif" font-size="10.00">OnSession</text>
</a>
</g>
</g>
<!-- Node1&#45;&gt;Node2 -->
<g id="edge1" class="edge"><title>Node1&#45;&gt;Node2</title>
<path fill="none" stroke="midnightblue" d="M101.665,-236.366C139.801,-270.172 212.099,-334.263 244.969,-363.402"/>
<polygon fill="midnightblue" stroke="midnightblue" points="103.878,-233.649 94.0728,-229.635 99.234,-238.887 103.878,-233.649"/>
</g>
<!-- Node20 -->
<g id="node20" class="node"><title>Node20</title>
<g id="a_node20"><a xlink:href="../../d2/da3/cipconnectionmanager_8h.html#a9367d6d6edfd5bd276ead18619f4d74e" target="_top" xlink:title="Close the given connection. ">
<polygon fill="none" stroke="black" points="217,-117 217,-136 309,-136 309,-117 217,-117"/>
<text text-anchor="middle" x="263" y="-124" font-family="Helvetica,sans-Serif" font-size="10.00">CloseConnection</text>
</a>
</g>
</g>
<!-- Node1&#45;&gt;Node20 -->
<g id="edge24" class="edge"><title>Node1&#45;&gt;Node20</title>
<path fill="none" stroke="midnightblue" d="M105.629,-193.291C127.292,-178.111 158.29,-158.193 188,-145.5 197.026,-141.644 207.017,-138.43 216.661,-135.808"/>
<polygon fill="midnightblue" stroke="midnightblue" points="103.353,-190.615 97.2341,-199.264 107.411,-196.318 103.353,-190.615"/>
</g>
<!-- Node23 -->
<g id="node23" class="node"><title>Node23</title>
<g id="a_node23"><a xlink:href="../../df/d03/cipioconnection_8c.html#a73bfd5fa3bc96e11219d0b24d70b88c7" target="_top" xlink:title="HandleReceivedIoConnectionData">
<polygon fill="none" stroke="black" points="374,-281 374,-300 541,-300 541,-281 374,-281"/>
<text text-anchor="middle" x="457.5" y="-288" font-family="Helvetica,sans-Serif" font-size="10.00">HandleReceivedIoConnectionData</text>
</a>
</g>
</g>
<!-- Node1&#45;&gt;Node23 -->
<g id="edge29" class="edge"><title>Node1&#45;&gt;Node23</title>
<path fill="none" stroke="midnightblue" d="M111.463,-234.478C132.796,-245.858 161.155,-259.254 188,-266.5 248.885,-282.933 320.065,-288.716 373.834,-290.508"/>
<polygon fill="midnightblue" stroke="midnightblue" points="112.937,-231.295 102.481,-229.585 109.588,-237.442 112.937,-231.295"/>
</g>
<!-- Node24 -->
<g id="node24" class="node"><title>Node24</title>
<g id="a_node24"><a xlink:href="../../d5/d35/cipconnectionmanager_8c.html#ad7b34359aea58ef8d4e77008ea53098f" target="_top" xlink:title="Parse the connection path of a forward open request. ">
<polygon fill="none" stroke="black" points="207,-63 207,-82 319,-82 319,-63 207,-63"/>
<text text-anchor="middle" x="263" y="-70" font-family="Helvetica,sans-Serif" font-size="10.00">ParseConnectionPath</text>
</a>
</g>
</g>
<!-- Node1&#45;&gt;Node24 -->
<g id="edge31" class="edge"><title>Node1&#45;&gt;Node24</title>
<path fill="none" stroke="midnightblue" d="M96.5099,-191.743C117.387,-168.404 152.34,-132.128 188,-107.5 203.085,-97.0815 221.757,-88.2757 236.571,-82.1027"/>
<polygon fill="midnightblue" stroke="midnightblue" points="93.7285,-189.606 89.7346,-199.419 98.9764,-194.238 93.7285,-189.606"/>
</g>
<!-- Node29 -->
<g id="node29" class="node"><title>Node29</title>
<g id="a_node29"><a xlink:href="../../df/d03/cipioconnection_8c.html#a20f1bc1c4cc4470cf371f94d51814de2" target="_top" xlink:title="Send the data from the produced CIP Object of the connection via the socket of the connection object ...">
<polygon fill="none" stroke="black" points="790.5,-243 790.5,-262 897.5,-262 897.5,-243 790.5,-243"/>
<text text-anchor="middle" x="844" y="-250" font-family="Helvetica,sans-Serif" font-size="10.00">SendConnectedData</text>
</a>
</g>
</g>
<!-- Node1&#45;&gt;Node29 -->
<g id="edge39" class="edge"><title>Node1&#45;&gt;Node29</title>
<path fill="none" stroke="midnightblue" d="M162.293,-226.035C170.965,-226.975 179.651,-227.822 188,-228.5 411.434,-246.648 678.866,-251.077 790.267,-252.155"/>
<polygon fill="midnightblue" stroke="midnightblue" points="162.467,-222.533 152.139,-224.894 161.685,-229.489 162.467,-222.533"/>
</g>
<!-- Node30 -->
<g id="node30" class="node"><title>Node30</title>
<g id="a_node30"><a xlink:href="../../df/d03/cipioconnection_8c.html#ac00a39ab755db54e4abf917618ff9849" target="_top" xlink:title="SetupIoConnectionOriginator\lToTargetConnectionPoint">
<polygon fill="none" stroke="black" points="961,-205.5 961,-235.5 1103,-235.5 1103,-205.5 961,-205.5"/>
<text text-anchor="start" x="969" y="-223.5" font-family="Helvetica,sans-Serif" font-size="10.00">SetupIoConnectionOriginator</text>
<text text-anchor="middle" x="1032" y="-212.5" font-family="Helvetica,sans-Serif" font-size="10.00">ToTargetConnectionPoint</text>
</a>
</g>
</g>
<!-- Node1&#45;&gt;Node30 -->
<g id="edge41" class="edge"><title>Node1&#45;&gt;Node30</title>
<path fill="none" stroke="midnightblue" d="M162.362,-214.5C239.277,-214.5 355.455,-214.5 456.5,-214.5 456.5,-214.5 456.5,-214.5 657,-214.5 762.85,-214.5 885.531,-216.932 960.696,-218.7"/>
<polygon fill="midnightblue" stroke="midnightblue" points="162.245,-211 152.245,-214.5 162.245,-218 162.245,-211"/>
</g>
<!-- Node31 -->
<g id="node31" class="node"><title>Node31</title>
<g id="a_node31"><a xlink:href="../../df/d03/cipioconnection_8c.html#a4efa3b0cf11b363c8c5f4f8c8070b43f" target="_top" xlink:title="SetupIoConnectionTargetTo\lOriginatorConnectionPoint">
<polygon fill="none" stroke="black" points="193.5,-155.5 193.5,-185.5 332.5,-185.5 332.5,-155.5 193.5,-155.5"/>
<text text-anchor="start" x="201.5" y="-173.5" font-family="Helvetica,sans-Serif" font-size="10.00">SetupIoConnectionTargetTo</text>
<text text-anchor="middle" x="263" y="-162.5" font-family="Helvetica,sans-Serif" font-size="10.00">OriginatorConnectionPoint</text>
</a>
</g>
</g>
<!-- Node1&#45;&gt;Node31 -->
<g id="edge43" class="edge"><title>Node1&#45;&gt;Node31</title>
<path fill="none" stroke="midnightblue" d="M150.062,-197.123C166.184,-193.289 183.13,-189.258 198.822,-185.526"/>
<polygon fill="midnightblue" stroke="midnightblue" points="149.068,-193.762 140.149,-199.481 150.688,-200.572 149.068,-193.762"/>
</g>
<!-- Node3 -->
<g id="node3" class="node"><title>Node3</title>
<g id="a_node3"><a xlink:href="../../d2/dbd/encap_8c.html#a601cd19c88f03fd742f098a1bf5b9e85" target="_top" xlink:title="HandleReceivedUnregister\lSessionCommand">
<polygon fill="none" stroke="black" points="390.5,-445.5 390.5,-475.5 524.5,-475.5 524.5,-445.5 390.5,-445.5"/>
<text text-anchor="start" x="398.5" y="-463.5" font-family="Helvetica,sans-Serif" font-size="10.00">HandleReceivedUnregister</text>
<text text-anchor="middle" x="457.5" y="-452.5" font-family="Helvetica,sans-Serif" font-size="10.00">SessionCommand</text>
</a>
</g>
</g>
<!-- Node2&#45;&gt;Node3 -->
<g id="edge2" class="edge"><title>Node2&#45;&gt;Node3</title>
<path fill="none" stroke="midnightblue" d="M303.175,-398.104C324.001,-408.249 350.162,-420.557 374,-430.5 386.378,-435.663 399.995,-440.822 412.536,-445.368"/>
<polygon fill="midnightblue" stroke="midnightblue" points="304.528,-394.87 294.008,-393.611 301.447,-401.155 304.528,-394.87"/>
</g>
<!-- Node11 -->
<g id="node11" class="node"><title>Node11</title>
<g id="a_node11"><a xlink:href="../../d2/dc9/group__CIP__API.html#ga00a23c1c86472edf2ed679089ae8efc1" target="_top" xlink:title="Inform the encapsulation layer that the remote host has closed the connection. ">
<polygon fill="none" stroke="black" points="419,-328 419,-347 496,-347 496,-328 419,-328"/>
<text text-anchor="middle" x="457.5" y="-335" font-family="Helvetica,sans-Serif" font-size="10.00">CloseSession</text>
</a>
</g>
</g>
<!-- Node2&#45;&gt;Node11 -->
<g id="edge10" class="edge"><title>Node2&#45;&gt;Node11</title>
<path fill="none" stroke="midnightblue" d="M344.396,-361.377C370.232,-355.874 397.635,-350.038 418.881,-345.512"/>
<polygon fill="midnightblue" stroke="midnightblue" points="343.638,-357.959 334.587,-363.466 345.097,-364.806 343.638,-357.959"/>
</g>
<!-- Node18 -->
<g id="node18" class="node"><title>Node18</title>
<g id="a_node18"><a xlink:href="../../d7/df9/encap_8h.html#a86c98c2665f4c058e9c5afb60690a81b" target="_top" xlink:title="RemoveSession">
<polygon fill="none" stroke="black" points="611.5,-407 611.5,-426 700.5,-426 700.5,-407 611.5,-407"/>
<text text-anchor="middle" x="656" y="-414" font-family="Helvetica,sans-Serif" font-size="10.00">RemoveSession</text>
</a>
</g>
</g>
<!-- Node2&#45;&gt;Node18 -->
<g id="edge18" class="edge"><title>Node2&#45;&gt;Node18</title>
<path fill="none" stroke="midnightblue" d="M348.347,-389.596C357.005,-390.627 365.676,-391.615 374,-392.5 457.743,-401.402 555.805,-409.176 611.141,-413.319"/>
<polygon fill="midnightblue" stroke="midnightblue" points="348.558,-386.096 338.21,-388.37 347.717,-393.045 348.558,-386.096"/>
</g>
<!-- Node19 -->
<g id="node19" class="node"><title>Node19</title>
<g id="a_node19"><a xlink:href="../../db/d4f/generic__networkhandler_8c.html#ab561fc66fe48a0cf95be3d152b297dd9" target="_top" xlink:title="CheckEncapsulationInactivity">
<polygon fill="none" stroke="black" points="771,-369 771,-388 917,-388 917,-369 771,-369"/>
<text text-anchor="middle" x="844" y="-376" font-family="Helvetica,sans-Serif" font-size="10.00">CheckEncapsulationInactivity</text>
</a>
</g>
</g>
<!-- Node2&#45;&gt;Node19 -->
<g id="edge23" class="edge"><title>Node2&#45;&gt;Node19</title>
<path fill="none" stroke="midnightblue" d="M348.292,-378.5C462.291,-378.5 663.667,-378.5 770.968,-378.5"/>
<polygon fill="midnightblue" stroke="midnightblue" points="348.214,-375 338.214,-378.5 348.214,-382 348.214,-375"/>
</g>
<!-- Node4 -->
<g id="node4" class="node"><title>Node4</title>
<g id="a_node4"><a xlink:href="../../d2/dc9/group__CIP__API.html#ga16eaeeb12ba23b5a75c8e5902a33d70a" target="_top" xlink:title="Notify the encapsulation layer that an explicit message has been received via TCP. ">
<polygon fill="none" stroke="black" points="578,-448 578,-467 734,-467 734,-448 578,-448"/>
<text text-anchor="middle" x="656" y="-455" font-family="Helvetica,sans-Serif" font-size="10.00">HandleReceivedExplictTcpData</text>
</a>
</g>
</g>
<!-- Node3&#45;&gt;Node4 -->
<g id="edge3" class="edge"><title>Node3&#45;&gt;Node4</title>
<path fill="none" stroke="midnightblue" d="M534.888,-459.334C548.986,-459.119 563.716,-458.894 577.836,-458.678"/>
<polygon fill="midnightblue" stroke="midnightblue" points="534.697,-455.836 524.752,-459.489 534.804,-462.835 534.697,-455.836"/>
</g>
<!-- Node5 -->
<g id="node5" class="node"><title>Node5</title>
<g id="a_node5"><a xlink:href="../../db/d4f/generic__networkhandler_8c.html#aca5593b7dd39d7a7b437999a367102d6" target="_top" xlink:title="Handles data on an established TCP connection, processed connection is given by socket. ">
<polygon fill="none" stroke="black" points="780,-445 780,-464 908,-464 908,-445 780,-445"/>
<text text-anchor="middle" x="844" y="-452" font-family="Helvetica,sans-Serif" font-size="10.00">HandleDataOnTcpSocket</text>
</a>
</g>
</g>
<!-- Node4&#45;&gt;Node5 -->
<g id="edge4" class="edge"><title>Node4&#45;&gt;Node5</title>
<path fill="none" stroke="midnightblue" d="M744.286,-456.092C756.273,-455.899 768.386,-455.703 779.826,-455.519"/>
<polygon fill="midnightblue" stroke="midnightblue" points="744.207,-452.593 734.265,-456.254 744.32,-459.592 744.207,-452.593"/>
</g>
<!-- Node6 -->
<g id="node6" class="node"><title>Node6</title>
<g id="a_node6"><a xlink:href="../../da/dc2/generic__networkhandler_8h.html#a2f01af81d3e5018d9980e2bc28c9078a" target="_top" xlink:title="NetworkHandlerProcessOnce">
<polygon fill="none" stroke="black" points="959,-388 959,-407 1105,-407 1105,-388 959,-388"/>
<text text-anchor="middle" x="1032" y="-395" font-family="Helvetica,sans-Serif" font-size="10.00">NetworkHandlerProcessOnce</text>
</a>
</g>
</g>
<!-- Node5&#45;&gt;Node6 -->
<g id="edge5" class="edge"><title>Node5&#45;&gt;Node6</title>
<path fill="none" stroke="midnightblue" d="M885.855,-441.98C920.17,-431.464 968.48,-416.66 999.766,-407.072"/>
<polygon fill="midnightblue" stroke="midnightblue" points="884.668,-438.683 876.132,-444.959 886.719,-445.376 884.668,-438.683"/>
</g>
<!-- Node7 -->
<g id="node7" class="node"><title>Node7</title>
<g id="a_node7"><a xlink:href="../../d5/dcb/MINGW_2main_8c.html#ad338a7dbc41dc40bcecd0479377ef207" target="_top" xlink:title="main">
<polygon fill="none" stroke="black" points="1558,-343 1558,-362 1596,-362 1596,-343 1558,-343"/>
<text text-anchor="middle" x="1577" y="-350" font-family="Helvetica,sans-Serif" font-size="10.00">main</text>
</a>
</g>
</g>
<!-- Node6&#45;&gt;Node7 -->
<g id="edge6" class="edge"><title>Node6&#45;&gt;Node7</title>
<path fill="none" stroke="midnightblue" d="M1115.39,-390.672C1245.11,-379.922 1489.26,-359.688 1557.74,-354.014"/>
<polygon fill="midnightblue" stroke="midnightblue" points="1114.78,-387.21 1105.11,-391.524 1115.36,-394.186 1114.78,-387.21"/>
</g>
<!-- Node10 -->
<g id="node10" class="node"><title>Node10</title>
<g id="a_node10"><a xlink:href="../../d9/dfb/POSIX_2main_8c.html#acd4e45a35a64f9cb29b59f63492b61d2" target="_top" xlink:title="Signal handler function for ending stack execution. ">
<polygon fill="none" stroke="black" points="1170.5,-350 1170.5,-369 1238.5,-369 1238.5,-350 1170.5,-350"/>
<text text-anchor="middle" x="1204.5" y="-357" font-family="Helvetica,sans-Serif" font-size="10.00">LeaveStack</text>
</a>
</g>
</g>
<!-- Node6&#45;&gt;Node10 -->
<g id="edge9" class="edge"><title>Node6&#45;&gt;Node10</title>
<path fill="none" stroke="midnightblue" d="M1085.93,-385.703C1113.55,-379.549 1146.47,-372.211 1170.44,-366.868"/>
<polygon fill="midnightblue" stroke="midnightblue" points="1085.02,-382.319 1076.02,-387.911 1086.55,-389.152 1085.02,-382.319"/>
</g>
<!-- Node8 -->
<g id="node8" class="node"><title>Node8</title>
<g id="a_node8"><a xlink:href="../../d8/d03/ports_2MINGW_2CMakeLists_8txt.html#a7e00df43a20d627a1732be7766d91097" target="_top" xlink:title="add_library">
<polygon fill="none" stroke="black" points="1632,-343 1632,-362 1696,-362 1696,-343 1632,-343"/>
<text text-anchor="middle" x="1664" y="-350" font-family="Helvetica,sans-Serif" font-size="10.00">add_library</text>
</a>
</g>
</g>
<!-- Node7&#45;&gt;Node8 -->
<g id="edge7" class="edge"><title>Node7&#45;&gt;Node8</title>
<path fill="none" stroke="midnightblue" d="M1606.27,-352.5C1614.5,-352.5 1623.55,-352.5 1631.94,-352.5"/>
<polygon fill="midnightblue" stroke="midnightblue" points="1606.03,-349 1596.03,-352.5 1606.03,-356 1606.03,-349"/>
</g>
<!-- Node9 -->
<g id="node9" class="node"><title>Node9</title>
<g id="a_node9"><a xlink:href="../../d8/dce/ports_2CMakeLists_8txt.html#a598fae457555a5fb26e18d4cd8f89de9" target="_top" xlink:title="add_subdirectory">
<polygon fill="none" stroke="black" points="1732,-343 1732,-362 1823,-362 1823,-343 1732,-343"/>
<text text-anchor="middle" x="1777.5" y="-350" font-family="Helvetica,sans-Serif" font-size="10.00">add_subdirectory</text>
</a>
</g>
</g>
<!-- Node8&#45;&gt;Node9 -->
<g id="edge8" class="edge"><title>Node8&#45;&gt;Node9</title>
<path fill="none" stroke="midnightblue" d="M1706.3,-352.5C1714.63,-352.5 1723.42,-352.5 1731.86,-352.5"/>
<polygon fill="midnightblue" stroke="midnightblue" points="1706.06,-349 1696.06,-352.5 1706.06,-356 1706.06,-349"/>
</g>
<!-- Node12 -->
<g id="node12" class="node"><title>Node12</title>
<g id="a_node12"><a xlink:href="../../d7/df9/encap_8h.html#a0101714be726ab1b21125b6a82ac7a56" target="_top" xlink:title="CloseEncapsulationSession\lBySockAddr">
<polygon fill="none" stroke="black" points="586.5,-319.5 586.5,-349.5 725.5,-349.5 725.5,-319.5 586.5,-319.5"/>
<text text-anchor="start" x="594.5" y="-337.5" font-family="Helvetica,sans-Serif" font-size="10.00">CloseEncapsulationSession</text>
<text text-anchor="middle" x="656" y="-326.5" font-family="Helvetica,sans-Serif" font-size="10.00">BySockAddr</text>
</a>
</g>
</g>
<!-- Node11&#45;&gt;Node12 -->
<g id="edge11" class="edge"><title>Node11&#45;&gt;Node12</title>
<path fill="none" stroke="midnightblue" d="M506.632,-336.765C530.573,-336.4 559.937,-335.951 586.205,-335.55"/>
<polygon fill="midnightblue" stroke="midnightblue" points="506.333,-333.269 496.387,-336.922 506.439,-340.268 506.333,-333.269"/>
</g>
<!-- Node13 -->
<g id="node13" class="node"><title>Node13</title>
<g id="a_node13"><a xlink:href="../../df/d03/cipioconnection_8c.html#a7e4923f4b027d489d9933b52f6fd7007" target="_top" xlink:title="HandleIoConnectionTimeOut">
<polygon fill="none" stroke="black" points="772.5,-322 772.5,-341 915.5,-341 915.5,-322 772.5,-322"/>
<text text-anchor="middle" x="844" y="-329" font-family="Helvetica,sans-Serif" font-size="10.00">HandleIoConnectionTimeOut</text>
</a>
</g>
</g>
<!-- Node12&#45;&gt;Node13 -->
<g id="edge12" class="edge"><title>Node12&#45;&gt;Node13</title>
<path fill="none" stroke="midnightblue" d="M735.829,-333.229C747.965,-333.033 760.431,-332.832 772.374,-332.639"/>
<polygon fill="midnightblue" stroke="midnightblue" points="735.673,-329.731 725.731,-333.391 735.786,-336.73 735.673,-329.731"/>
</g>
<!-- Node14 -->
<g id="node14" class="node"><title>Node14</title>
<g id="a_node14"><a xlink:href="../../df/d03/cipioconnection_8c.html#ab3282f146a3ea91c90cf14c32206ee8c" target="_top" xlink:title="SetIoConnectionCallbacks">
<polygon fill="none" stroke="black" points="965.5,-268 965.5,-287 1098.5,-287 1098.5,-268 965.5,-268"/>
<text text-anchor="middle" x="1032" y="-275" font-family="Helvetica,sans-Serif" font-size="10.00">SetIoConnectionCallbacks</text>
</a>
</g>
</g>
<!-- Node13&#45;&gt;Node14 -->
<g id="edge13" class="edge"><title>Node13&#45;&gt;Node14</title>
<path fill="none" stroke="midnightblue" d="M887.82,-319.068C921.414,-309.315 967.479,-295.941 998.191,-287.025"/>
<polygon fill="midnightblue" stroke="midnightblue" points="886.453,-315.821 877.825,-321.97 888.404,-322.543 886.453,-315.821"/>
</g>
<!-- Node15 -->
<g id="node15" class="node"><title>Node15</title>
<g id="a_node15"><a xlink:href="../../de/d45/cipioconnection_8h.html#a43e270b3f9b9f6296b12285c320c95aa" target="_top" xlink:title="Setup all data in order to establish an IO connection. ">
<polygon fill="none" stroke="black" points="1147,-211 1147,-230 1262,-230 1262,-211 1147,-211"/>
<text text-anchor="middle" x="1204.5" y="-218" font-family="Helvetica,sans-Serif" font-size="10.00">EstablishIoConnection</text>
</a>
</g>
</g>
<!-- Node14&#45;&gt;Node15 -->
<g id="edge14" class="edge"><title>Node14&#45;&gt;Node15</title>
<path fill="none" stroke="midnightblue" d="M1071.26,-264.708C1102.67,-254.21 1146.44,-239.577 1174.87,-230.072"/>
<polygon fill="midnightblue" stroke="midnightblue" points="1069.91,-261.469 1061.54,-267.959 1072.13,-268.108 1069.91,-261.469"/>
</g>
<!-- Node16 -->
<g id="node16" class="node"><title>Node16</title>
<g id="a_node16"><a xlink:href="../../d2/da3/cipconnectionmanager_8h.html#a5ab0de6894d23e8fe84a6b46797c2212" target="_top" xlink:title="Initialize the data of the connection manager object. ">
<polygon fill="none" stroke="black" points="1298,-211 1298,-230 1415,-230 1415,-211 1298,-211"/>
<text text-anchor="middle" x="1356.5" y="-218" font-family="Helvetica,sans-Serif" font-size="10.00">ConnectionManagerInit</text>
</a>
</g>
</g>
<!-- Node15&#45;&gt;Node16 -->
<g id="edge15" class="edge"><title>Node15&#45;&gt;Node16</title>
<path fill="none" stroke="midnightblue" d="M1272.41,-220.5C1280.85,-220.5 1289.43,-220.5 1297.71,-220.5"/>
<polygon fill="midnightblue" stroke="midnightblue" points="1272.21,-217 1262.21,-220.5 1272.21,-224 1272.21,-217"/>
</g>
<!-- Node17 -->
<g id="node17" class="node"><title>Node17</title>
<g id="a_node17"><a xlink:href="../../d2/dc9/group__CIP__API.html#ga5d4979945d124e28668b264c3823db1c" target="_top" xlink:title="Initialize and setup the CIP&#45;stack. ">
<polygon fill="none" stroke="black" points="1451,-255 1451,-274 1522,-274 1522,-255 1451,-255"/>
<text text-anchor="middle" x="1486.5" y="-262" font-family="Helvetica,sans-Serif" font-size="10.00">CipStackInit</text>
</a>
</g>
</g>
<!-- Node16&#45;&gt;Node17 -->
<g id="edge16" class="edge"><title>Node16&#45;&gt;Node17</title>
<path fill="none" stroke="midnightblue" d="M1394.77,-233.311C1414.9,-240.232 1439.34,-248.633 1457.78,-254.971"/>
<polygon fill="midnightblue" stroke="midnightblue" points="1395.87,-229.988 1385.27,-230.047 1393.59,-236.608 1395.87,-229.988"/>
</g>
<!-- Node17&#45;&gt;Node7 -->
<g id="edge17" class="edge"><title>Node17&#45;&gt;Node7</title>
<path fill="none" stroke="midnightblue" d="M1504.49,-281.398C1522.89,-299.693 1551.59,-328.229 1566.42,-342.97"/>
<polygon fill="midnightblue" stroke="midnightblue" points="1506.87,-278.823 1497.31,-274.254 1501.93,-283.787 1506.87,-278.823"/>
</g>
<!-- Node18&#45;&gt;Node5 -->
<g id="edge20" class="edge"><title>Node18&#45;&gt;Node5</title>
<path fill="none" stroke="midnightblue" d="M710.705,-427.472C737.812,-433.01 770.376,-439.663 796.413,-444.982"/>
<polygon fill="midnightblue" stroke="midnightblue" points="711.107,-423.982 700.609,-425.409 709.706,-430.84 711.107,-423.982"/>
</g>
<!-- Node18&#45;&gt;Node6 -->
<g id="edge19" class="edge"><title>Node18&#45;&gt;Node6</title>
<path fill="none" stroke="midnightblue" d="M710.705,-413.772C775.94,-410.458 886.246,-404.854 958.853,-401.165"/>
<polygon fill="midnightblue" stroke="midnightblue" points="710.444,-410.28 700.635,-414.283 710.799,-417.271 710.444,-410.28"/>
</g>
<!-- Node18&#45;&gt;Node19 -->
<g id="edge21" class="edge"><title>Node18&#45;&gt;Node19</title>
<path fill="none" stroke="midnightblue" d="M710.705,-405.528C737.812,-399.99 770.376,-393.337 796.413,-388.018"/>
<polygon fill="midnightblue" stroke="midnightblue" points="709.706,-402.16 700.609,-407.591 711.107,-409.018 709.706,-402.16"/>
</g>
<!-- Node19&#45;&gt;Node6 -->
<g id="edge22" class="edge"><title>Node19&#45;&gt;Node6</title>
<path fill="none" stroke="midnightblue" d="M927.214,-386.898C937.76,-387.975 948.493,-389.072 958.862,-390.131"/>
<polygon fill="midnightblue" stroke="midnightblue" points="927.483,-383.408 917.179,-385.873 926.771,-390.371 927.483,-383.408"/>
</g>
<!-- Node21 -->
<g id="node21" class="node"><title>Node21</title>
<g id="a_node21"><a xlink:href="../../dc/d93/cipclass3connection_8c.html#a6053ab7004c1419bd80faf9aca54bfd3" target="_top" xlink:title="Class3ConnectionTimeoutHandler">
<polygon fill="none" stroke="black" points="374.5,-91 374.5,-110 540.5,-110 540.5,-91 374.5,-91"/>
<text text-anchor="middle" x="457.5" y="-98" font-family="Helvetica,sans-Serif" font-size="10.00">Class3ConnectionTimeoutHandler</text>
</a>
</g>
</g>
<!-- Node20&#45;&gt;Node21 -->
<g id="edge25" class="edge"><title>Node20&#45;&gt;Node21</title>
<path fill="none" stroke="midnightblue" d="M319.09,-119.059C339.94,-116.243 363.964,-112.998 386.035,-110.017"/>
<polygon fill="midnightblue" stroke="midnightblue" points="318.574,-115.597 309.133,-120.404 319.511,-122.534 318.574,-115.597"/>
</g>
<!-- Node22 -->
<g id="node22" class="node"><title>Node22</title>
<g id="a_node22"><a xlink:href="../../d2/d11/cipclass3connection_8h.html#a45bd741b44137164c07a6ce09a7a9a9d" target="_top" xlink:title="Check if Class3 connection is available and if yes setup all data. ">
<polygon fill="none" stroke="black" points="587.5,-129 587.5,-148 724.5,-148 724.5,-129 587.5,-129"/>
<text text-anchor="middle" x="656" y="-136" font-family="Helvetica,sans-Serif" font-size="10.00">EstablishClass3Connection</text>
</a>
</g>
</g>
<!-- Node20&#45;&gt;Node22 -->
<g id="edge28" class="edge"><title>Node20&#45;&gt;Node22</title>
<path fill="none" stroke="midnightblue" d="M319.241,-128.195C389.664,-130.357 511.365,-134.092 587.294,-136.422"/>
<polygon fill="midnightblue" stroke="midnightblue" points="319.337,-124.697 309.235,-127.888 319.123,-131.693 319.337,-124.697"/>
</g>
<!-- Node21&#45;&gt;Node22 -->
<g id="edge26" class="edge"><title>Node21&#45;&gt;Node22</title>
<path fill="none" stroke="midnightblue" d="M517.912,-111.989C545.95,-117.411 579.016,-123.806 605.648,-128.956"/>
<polygon fill="midnightblue" stroke="midnightblue" points="518.314,-108.502 507.832,-110.04 516.985,-115.375 518.314,-108.502"/>
</g>
<!-- Node22&#45;&gt;Node16 -->
<g id="edge27" class="edge"><title>Node22&#45;&gt;Node16</title>
<path fill="none" stroke="midnightblue" d="M734.881,-138.369C825.642,-139.196 979.918,-143.645 1111,-162.5 1188.29,-173.618 1277.04,-197.545 1323.43,-210.932"/>
<polygon fill="midnightblue" stroke="midnightblue" points="734.702,-134.867 724.675,-138.288 734.647,-141.867 734.702,-134.867"/>
</g>
<!-- Node23&#45;&gt;Node14 -->
<g id="edge30" class="edge"><title>Node23&#45;&gt;Node14</title>
<path fill="none" stroke="midnightblue" d="M551.432,-288.39C667.621,-285.751 863.58,-281.302 965.299,-278.992"/>
<polygon fill="midnightblue" stroke="midnightblue" points="551.053,-284.897 541.135,-288.624 551.212,-291.896 551.053,-284.897"/>
</g>
<!-- Node25 -->
<g id="node25" class="node"><title>Node25</title>
<g id="a_node25"><a xlink:href="../../d5/d35/cipconnectionmanager_8c.html#af379a4b383c738a07d8e1ab0a4ac7510" target="_top" xlink:title="Handles a Non Null Non Matching Forward Open Request. ">
<polygon fill="none" stroke="black" points="387.5,-41.5 387.5,-71.5 527.5,-71.5 527.5,-41.5 387.5,-41.5"/>
<text text-anchor="start" x="395.5" y="-59.5" font-family="Helvetica,sans-Serif" font-size="10.00">HandleNonNullNonMatching</text>
<text text-anchor="middle" x="457.5" y="-48.5" font-family="Helvetica,sans-Serif" font-size="10.00">ForwardOpenRequest</text>
</a>
</g>
</g>
<!-- Node24&#45;&gt;Node25 -->
<g id="edge32" class="edge"><title>Node24&#45;&gt;Node25</title>
<path fill="none" stroke="midnightblue" d="M329.329,-67.07C347.988,-65.5192 368.38,-63.8242 387.263,-62.2547"/>
<polygon fill="midnightblue" stroke="midnightblue" points="328.838,-63.5987 319.163,-67.915 329.418,-70.5746 328.838,-63.5987"/>
</g>
<!-- Node26 -->
<g id="node26" class="node"><title>Node26</title>
<g id="a_node26"><a xlink:href="../../d5/d35/cipconnectionmanager_8c.html#a7eaeec6cc54d1799cfaba4031f0168d1" target="_top" xlink:title="Handles a Non Null Matching Forward Open Request. ">
<polygon fill="none" stroke="black" points="577,-60.5 577,-90.5 735,-90.5 735,-60.5 577,-60.5"/>
<text text-anchor="start" x="585" y="-78.5" font-family="Helvetica,sans-Serif" font-size="10.00">HandleNonNullMatchingForward</text>
<text text-anchor="middle" x="656" y="-67.5" font-family="Helvetica,sans-Serif" font-size="10.00">OpenRequest</text>
</a>
</g>
</g>
<!-- Node25&#45;&gt;Node26 -->
<g id="edge33" class="edge"><title>Node25&#45;&gt;Node26</title>
<path fill="none" stroke="midnightblue" d="M537.712,-57.5231C550.586,-58.6121 563.914,-59.9048 576.765,-61.3113"/>
<polygon fill="midnightblue" stroke="midnightblue" points="537.752,-54.015 527.502,-56.6951 537.187,-60.9921 537.752,-54.015"/>
</g>
<!-- Node26&#45;&gt;Node25 -->
<g id="edge34" class="edge"><title>Node26&#45;&gt;Node25</title>
<path fill="none" stroke="midnightblue" d="M566.761,-73.6868C553.598,-72.4964 540.192,-71.1195 527.502,-69.6488"/>
<polygon fill="midnightblue" stroke="midnightblue" points="566.498,-77.177 576.765,-74.5592 567.106,-70.2035 566.498,-77.177"/>
</g>
<!-- Node27 -->
<g id="node27" class="node"><title>Node27</title>
<g id="a_node27"><a xlink:href="../../d5/d35/cipconnectionmanager_8c.html#a8da18334cfde58434b845b0968620811" target="_top" xlink:title="Handles a Null Matching Forward Open request. ">
<polygon fill="none" stroke="black" points="774,-22.5 774,-52.5 914,-52.5 914,-22.5 774,-22.5"/>
<text text-anchor="start" x="782" y="-40.5" font-family="Helvetica,sans-Serif" font-size="10.00">HandleNullMatchingForward</text>
<text text-anchor="middle" x="844" y="-29.5" font-family="Helvetica,sans-Serif" font-size="10.00">OpenRequest</text>
</a>
</g>
</g>
<!-- Node26&#45;&gt;Node27 -->
<g id="edge35" class="edge"><title>Node26&#45;&gt;Node27</title>
<path fill="none" stroke="midnightblue" d="M740.326,-58.4764C751.569,-56.1795 763.002,-53.8436 773.959,-51.6051"/>
<polygon fill="midnightblue" stroke="midnightblue" points="739.609,-55.0505 730.512,-60.4814 741.01,-61.9088 739.609,-55.0505"/>
</g>
<!-- Node27&#45;&gt;Node25 -->
<g id="edge36" class="edge"><title>Node27&#45;&gt;Node25</title>
<path fill="none" stroke="midnightblue" d="M763.834,-41.3325C710.935,-43.9025 639.796,-47.3757 577,-50.5 561.055,-51.2933 543.904,-52.1562 527.739,-52.9738"/>
<polygon fill="midnightblue" stroke="midnightblue" points="764.009,-44.8283 773.828,-40.8473 763.67,-37.8365 764.009,-44.8283"/>
</g>
<!-- Node28 -->
<g id="node28" class="node"><title>Node28</title>
<g id="a_node28"><a xlink:href="../../d5/d35/cipconnectionmanager_8c.html#ad68060facbfe52b38428a40da630651b" target="_top" xlink:title="Handles a Null Non Matching Forward Open Request. ">
<polygon fill="none" stroke="black" points="953,-0.5 953,-30.5 1111,-30.5 1111,-0.5 953,-0.5"/>
<text text-anchor="start" x="961" y="-18.5" font-family="Helvetica,sans-Serif" font-size="10.00">HandleNullNonMatchingForward</text>
<text text-anchor="middle" x="1032" y="-7.5" font-family="Helvetica,sans-Serif" font-size="10.00">OpenRequest</text>
</a>
</g>
</g>
<!-- Node27&#45;&gt;Node28 -->
<g id="edge37" class="edge"><title>Node27&#45;&gt;Node28</title>
<path fill="none" stroke="midnightblue" d="M924.414,-28.107C933.858,-26.9899 943.494,-25.8502 952.919,-24.7354"/>
<polygon fill="midnightblue" stroke="midnightblue" points="923.779,-24.6575 914.26,-29.308 924.601,-31.6091 923.779,-24.6575"/>
</g>
<!-- Node28&#45;&gt;Node25 -->
<g id="edge38" class="edge"><title>Node28&#45;&gt;Node25</title>
<path fill="none" stroke="midnightblue" d="M942.658,-12.9457C933.989,-12.764 925.324,-12.6095 917,-12.5 852.117,-11.6464 835.734,-8.01693 771,-12.5 684.155,-18.5144 663.197,-27.3189 577,-39.5 561.051,-41.7538 543.899,-44.2011 527.733,-46.518"/>
<polygon fill="midnightblue" stroke="midnightblue" points="942.742,-16.4483 952.817,-13.1704 942.897,-9.45 942.742,-16.4483"/>
</g>
<!-- Node29&#45;&gt;Node14 -->
<g id="edge40" class="edge"><title>Node29&#45;&gt;Node14</title>
<path fill="none" stroke="midnightblue" d="M907.898,-260.954C926.439,-263.446 946.77,-266.179 965.472,-268.693"/>
<polygon fill="midnightblue" stroke="midnightblue" points="908.18,-257.461 897.803,-259.597 907.247,-264.398 908.18,-257.461"/>
</g>
<!-- Node30&#45;&gt;Node15 -->
<g id="edge42" class="edge"><title>Node30&#45;&gt;Node15</title>
<path fill="none" stroke="midnightblue" d="M1113.6,-220.5C1124.84,-220.5 1136.18,-220.5 1146.85,-220.5"/>
<polygon fill="midnightblue" stroke="midnightblue" points="1113.33,-217 1103.33,-220.5 1113.33,-224 1113.33,-217"/>
</g>
<!-- Node31&#45;&gt;Node15 -->
<g id="edge44" class="edge"><title>Node31&#45;&gt;Node15</title>
<path fill="none" stroke="midnightblue" d="M342.86,-172.42C421.824,-174.175 546.82,-176.5 655,-176.5 655,-176.5 655,-176.5 845,-176.5 963.523,-176.5 994.138,-175.724 1111,-195.5 1132.32,-199.108 1155.84,-205.499 1173.83,-210.915"/>
<polygon fill="midnightblue" stroke="midnightblue" points="342.584,-168.913 332.507,-172.187 342.426,-175.911 342.584,-168.913"/>
</g>
</g>
</svg>
        <g id="navigator" transform="translate(0 0)" fill="#404254">
                <rect fill="#f2f5e9" fill-opacity="0.5" stroke="#606060" stroke-width=".5" x="0" y="0" width="60" height="60"/>
                <use id="zoomplus" xlink:href="#zoomPlus" x="17" y="9" onmousedown="handleZoom(evt,'in')"/>
                <use id="zoomminus" xlink:href="#zoomMin" x="42" y="9" onmousedown="handleZoom(evt,'out')"/>
                <use id="reset" xlink:href="#resetDef" x="30" y="36" onmousedown="handleReset()"/>
                <g id="arrowUp" xlink:href="#dirArrow" transform="translate(30 24)" onmousedown="handlePan(0,-1)">
                  <use xlink:href="#rim" fill="#404040">
                        <set attributeName="fill" to="#808080" begin="arrowUp.mouseover" end="arrowUp.mouseout"/>
                  </use>
                  <path fill="none" stroke="white" stroke-width="1.5" d="M0,-3.0v7 M-2.5,-0.5L0,-3.0L2.5,-0.5"/>
                </g>
                <g id="arrowRight" xlink:href="#dirArrow" transform="rotate(90) translate(36 -43)" onmousedown="handlePan(1,0)">
                  <use xlink:href="#rim" fill="#404040">
                        <set attributeName="fill" to="#808080" begin="arrowRight.mouseover" end="arrowRight.mouseout"/>
                  </use>
                  <path fill="none" stroke="white" stroke-width="1.5" d="M0,-3.0v7 M-2.5,-0.5L0,-3.0L2.5,-0.5"/>
                </g>
                <g id="arrowDown" xlink:href="#dirArrow" transform="rotate(180) translate(-30 -48)" onmousedown="handlePan(0,1)">
                  <use xlink:href="#rim" fill="#404040">
                        <set attributeName="fill" to="#808080" begin="arrowDown.mouseover" end="arrowDown.mouseout"/>
                  </use>
                  <path fill="none" stroke="white" stroke-width="1.5" d="M0,-3.0v7 M-2.5,-0.5L0,-3.0L2.5,-0.5"/>
                </g>
                <g id="arrowLeft" xlink:href="#dirArrow" transform="rotate(270) translate(-36 17)" onmousedown="handlePan(-1,0)">
                  <use xlink:href="#rim" fill="#404040">
                        <set attributeName="fill" to="#808080" begin="arrowLeft.mouseover" end="arrowLeft.mouseout"/>
                  </use>
                  <path fill="none" stroke="white" stroke-width="1.5" d="M0,-3.0v7 M-2.5,-0.5L0,-3.0L2.5,-0.5"/>
                </g>
        </g>
        <svg viewBox="0 0 15 15" width="100%" height="30px" preserveAspectRatio="xMaxYMin meet">
         <g id="arrow_out" transform="scale(0.3 0.3)">
          <a xlink:href="cipconnectionobject_8c_a0f3d8e6f21712dbef3fb2e1da42f35ba_icgraph_org.svg" target="_base">
           <rect id="button" ry="5" rx="5" y="6" x="6" height="38" width="38"
                fill="#f2f5e9" fill-opacity="0.5" stroke="#606060" stroke-width="1.0"/>
           <path id="arrow"
             d="M 11.500037,31.436501 C 11.940474,20.09759 22.043105,11.32322 32.158766,21.979434 L 37.068811,17.246167 C 37.068811,17.246167 37.088388,32 37.088388,32 L 22.160133,31.978069 C 22.160133,31.978069 26.997745,27.140456 26.997745,27.140456 C 18.528582,18.264221 13.291696,25.230495 11.500037,31.436501 z"
             style="fill:#404040;"/>
          </a>
         </g>
        </svg>
</svg>
