<?xml version="1.0" encoding="UTF-8" standalone="no"?>
<!DOCTYPE svg PUBLIC "-//W3C//DTD SVG 1.1//EN"
 "http://www.w3.org/Graphics/SVG/1.1/DTD/svg11.dtd">
<!-- Generated by graphviz version 2.38.0 (20140413.2041)
 -->
<!-- Title: ConnectionObjectGetConnectionType Pages: 1 -->
<svg width="2081pt" height="459pt"
 viewBox="0.00 0.00 2081.00 459.00" xmlns="http://www.w3.org/2000/svg" xmlns:xlink="http://www.w3.org/1999/xlink">
<g id="graph0" class="graph" transform="scale(1 1) rotate(0) translate(4 455)">
<title>ConnectionObjectGetConnectionType</title>
<!-- Node1 -->
<g id="node1" class="node"><title>Node1</title>
<polygon fill="#bfbfbf" stroke="black" points="0,-325 0,-344 182,-344 182,-325 0,-325"/>
<text text-anchor="middle" x="91" y="-332" font-family="Helvetica,sans-Serif" font-size="10.00">ConnectionObjectGetConnectionType</text>
</g>
<!-- Node2 -->
<g id="node2" class="node"><title>Node2</title>
<g id="a_node2"><a xlink:href="../../d1/d6c/cipconnectionobject_8h.html#aa896ebb7d03c6e75027402b3e0d6dc6e" target="_top" xlink:title="ConnectionObjectGetOToTConnectionType">
<polygon fill="none" stroke="black" points="678,-366 678,-385 884,-385 884,-366 678,-366"/>
<text text-anchor="middle" x="781" y="-373" font-family="Helvetica,sans-Serif" font-size="10.00">ConnectionObjectGetOToTConnectionType</text>
</a>
</g>
</g>
<!-- Node1&#45;&gt;Node2 -->
<g id="edge1" class="edge"><title>Node1&#45;&gt;Node2</title>
<path fill="none" stroke="midnightblue" d="M192.636,-340.497C322.5,-348.236 547.215,-361.628 677.824,-369.411"/>
<polygon fill="midnightblue" stroke="midnightblue" points="192.488,-336.982 182.297,-339.881 192.072,-343.97 192.488,-336.982"/>
</g>
<!-- Node18 -->
<g id="node18" class="node"><title>Node18</title>
<g id="a_node18"><a xlink:href="../../d1/d6c/cipconnectionobject_8h.html#ad61ad2b2c18480a141e5df346e32be02" target="_top" xlink:title="ConnectionObjectGetTToOConnectionType">
<polygon fill="none" stroke="black" points="218,-208 218,-227 424,-227 424,-208 218,-208"/>
<text text-anchor="middle" x="321" y="-215" font-family="Helvetica,sans-Serif" font-size="10.00">ConnectionObjectGetTToOConnectionType</text>
</a>
</g>
</g>
<!-- Node1&#45;&gt;Node18 -->
<g id="edge24" class="edge"><title>Node1&#45;&gt;Node18</title>
<path fill="none" stroke="midnightblue" d="M119.688,-320.292C166.806,-296.113 261.362,-247.591 301.404,-227.043"/>
<polygon fill="midnightblue" stroke="midnightblue" points="117.957,-317.246 110.658,-324.925 121.153,-323.474 117.957,-317.246"/>
</g>
<!-- Node3 -->
<g id="node3" class="node"><title>Node3</title>
<g id="a_node3"><a xlink:href="../../d5/d35/cipconnectionmanager_8c.html#a33a14c8e6fffa6b91e839167cc39319b" target="_top" xlink:title="Check if resources for new connection available, generate ForwardOpen Reply message. ">
<polygon fill="none" stroke="black" points="975.5,-328 975.5,-347 1050.5,-347 1050.5,-328 975.5,-328"/>
<text text-anchor="middle" x="1013" y="-335" font-family="Helvetica,sans-Serif" font-size="10.00">ForwardOpen</text>
</a>
</g>
</g>
<!-- Node2&#45;&gt;Node3 -->
<g id="edge2" class="edge"><title>Node2&#45;&gt;Node3</title>
<path fill="none" stroke="midnightblue" d="M849.702,-364.314C890.836,-357.518 941.746,-349.107 975.461,-343.537"/>
<polygon fill="midnightblue" stroke="midnightblue" points="849.038,-360.877 839.742,-365.96 850.179,-367.783 849.038,-360.877"/>
</g>
<!-- Node9 -->
<g id="node9" class="node"><title>Node9</title>
<g id="a_node9"><a xlink:href="../../d5/d35/cipconnectionmanager_8c.html#ad7b34359aea58ef8d4e77008ea53098f" target="_top" xlink:title="Parse the connection path of a forward open request. ">
<polygon fill="none" stroke="black" points="957,-404 957,-423 1069,-423 1069,-404 957,-404"/>
<text text-anchor="middle" x="1013" y="-411" font-family="Helvetica,sans-Serif" font-size="10.00">ParseConnectionPath</text>
</a>
</g>
</g>
<!-- Node2&#45;&gt;Node9 -->
<g id="edge8" class="edge"><title>Node2&#45;&gt;Node9</title>
<path fill="none" stroke="midnightblue" d="M849.616,-386.671C883.671,-392.298 924.444,-399.034 956.615,-404.349"/>
<polygon fill="midnightblue" stroke="midnightblue" points="850.179,-383.217 839.742,-385.04 849.038,-390.123 850.179,-383.217"/>
</g>
<!-- Node14 -->
<g id="node14" class="node"><title>Node14</title>
<g id="a_node14"><a xlink:href="../../d1/d6c/cipconnectionobject_8h.html#a65b85bb4b72c902af06e054e24d6292c" target="_top" xlink:title="Generate the ConnectionIDs and set the general configuration parameter in the given connection object...">
<polygon fill="none" stroke="black" points="920,-290 920,-309 1106,-309 1106,-290 920,-290"/>
<text text-anchor="middle" x="1013" y="-297" font-family="Helvetica,sans-Serif" font-size="10.00">ConnectionObjectGeneralConfiguration</text>
</a>
</g>
</g>
<!-- Node2&#45;&gt;Node14 -->
<g id="edge16" class="edge"><title>Node2&#45;&gt;Node14</title>
<path fill="none" stroke="midnightblue" d="M811.098,-361.597C838.63,-348.899 881.376,-330.35 920,-318.5 931.85,-314.865 944.772,-311.713 957.086,-309.079"/>
<polygon fill="midnightblue" stroke="midnightblue" points="809.264,-358.591 801.679,-365.988 812.221,-364.935 809.264,-358.591"/>
</g>
<!-- Node16 -->
<g id="node16" class="node"><title>Node16</title>
<g id="a_node16"><a xlink:href="../../de/d45/cipioconnection_8h.html#a43e270b3f9b9f6296b12285c320c95aa" target="_top" xlink:title="Setup all data in order to establish an IO connection. ">
<polygon fill="none" stroke="black" points="1154.5,-214 1154.5,-233 1269.5,-233 1269.5,-214 1154.5,-214"/>
<text text-anchor="middle" x="1212" y="-221" font-family="Helvetica,sans-Serif" font-size="10.00">EstablishIoConnection</text>
</a>
</g>
</g>
<!-- Node2&#45;&gt;Node16 -->
<g id="edge21" class="edge"><title>Node2&#45;&gt;Node16</title>
<path fill="none" stroke="midnightblue" d="M894.326,-380.798C973.937,-382.369 1072.35,-379.203 1106,-356.5 1136.98,-335.597 1119.04,-309.995 1142,-280.5 1157.36,-260.758 1180.69,-243.303 1195.89,-233.067"/>
<polygon fill="midnightblue" stroke="midnightblue" points="894.297,-377.296 884.221,-380.571 894.14,-384.294 894.297,-377.296"/>
</g>
<!-- Node17 -->
<g id="node17" class="node"><title>Node17</title>
<g id="a_node17"><a xlink:href="../../de/d45/cipioconnection_8h.html#a53b85bce88b582414fc282c95f5626f4" target="_top" xlink:title="Take the data given in the connection object structure and open the necessary communication channels...">
<polygon fill="none" stroke="black" points="938.5,-243 938.5,-262 1087.5,-262 1087.5,-243 938.5,-243"/>
<text text-anchor="middle" x="1013" y="-250" font-family="Helvetica,sans-Serif" font-size="10.00">OpenCommunicationChannels</text>
</a>
</g>
</g>
<!-- Node2&#45;&gt;Node17 -->
<g id="edge22" class="edge"><title>Node2&#45;&gt;Node17</title>
<path fill="none" stroke="midnightblue" d="M801.242,-359.374C826.88,-338.589 874.332,-302.514 920,-280.5 936.092,-272.743 954.805,-266.579 971.136,-262.031"/>
<polygon fill="midnightblue" stroke="midnightblue" points="798.928,-356.745 793.418,-365.794 803.369,-362.156 798.928,-356.745"/>
</g>
<!-- Node4 -->
<g id="node4" class="node"><title>Node4</title>
<g id="a_node4"><a xlink:href="../../d2/da3/cipconnectionmanager_8h.html#a5ab0de6894d23e8fe84a6b46797c2212" target="_top" xlink:title="Initialize the data of the connection manager object. ">
<polygon fill="none" stroke="black" points="1338.5,-290 1338.5,-309 1455.5,-309 1455.5,-290 1338.5,-290"/>
<text text-anchor="middle" x="1397" y="-297" font-family="Helvetica,sans-Serif" font-size="10.00">ConnectionManagerInit</text>
</a>
</g>
</g>
<!-- Node3&#45;&gt;Node4 -->
<g id="edge3" class="edge"><title>Node3&#45;&gt;Node4</title>
<path fill="none" stroke="midnightblue" d="M1060.72,-335.526C1114.3,-332.952 1204.7,-327.661 1282,-318.5 1302.72,-316.044 1325.42,-312.448 1345.07,-309.043"/>
<polygon fill="midnightblue" stroke="midnightblue" points="1060.34,-332.04 1050.52,-336.005 1060.67,-339.032 1060.34,-332.04"/>
</g>
<!-- Node5 -->
<g id="node5" class="node"><title>Node5</title>
<g id="a_node5"><a xlink:href="../../d2/dc9/group__CIP__API.html#ga5d4979945d124e28668b264c3823db1c" target="_top" xlink:title="Initialize and setup the CIP&#45;stack. ">
<polygon fill="none" stroke="black" points="1546.5,-290 1546.5,-309 1617.5,-309 1617.5,-290 1546.5,-290"/>
<text text-anchor="middle" x="1582" y="-297" font-family="Helvetica,sans-Serif" font-size="10.00">CipStackInit</text>
</a>
</g>
</g>
<!-- Node4&#45;&gt;Node5 -->
<g id="edge4" class="edge"><title>Node4&#45;&gt;Node5</title>
<path fill="none" stroke="midnightblue" d="M1465.95,-299.5C1493.28,-299.5 1523.61,-299.5 1546.27,-299.5"/>
<polygon fill="midnightblue" stroke="midnightblue" points="1465.65,-296 1455.65,-299.5 1465.65,-303 1465.65,-296"/>
</g>
<!-- Node6 -->
<g id="node6" class="node"><title>Node6</title>
<g id="a_node6"><a xlink:href="../../d5/dcb/MINGW_2main_8c.html#ad338a7dbc41dc40bcecd0479377ef207" target="_top" xlink:title="main">
<polygon fill="none" stroke="black" points="1748,-290 1748,-309 1786,-309 1786,-290 1748,-290"/>
<text text-anchor="middle" x="1767" y="-297" font-family="Helvetica,sans-Serif" font-size="10.00">main</text>
</a>
</g>
</g>
<!-- Node5&#45;&gt;Node6 -->
<g id="edge5" class="edge"><title>Node5&#45;&gt;Node6</title>
<path fill="none" stroke="midnightblue" d="M1628.31,-299.5C1666.92,-299.5 1720.4,-299.5 1747.97,-299.5"/>
<polygon fill="midnightblue" stroke="midnightblue" points="1627.85,-296 1617.85,-299.5 1627.85,-303 1627.85,-296"/>
</g>
<!-- Node7 -->
<g id="node7" class="node"><title>Node7</title>
<g id="a_node7"><a xlink:href="../../d8/d03/ports_2MINGW_2CMakeLists_8txt.html#a7e00df43a20d627a1732be7766d91097" target="_top" xlink:title="add_library">
<polygon fill="none" stroke="black" points="1882,-290 1882,-309 1946,-309 1946,-290 1882,-290"/>
<text text-anchor="middle" x="1914" y="-297" font-family="Helvetica,sans-Serif" font-size="10.00">add_library</text>
</a>
</g>
</g>
<!-- Node6&#45;&gt;Node7 -->
<g id="edge6" class="edge"><title>Node6&#45;&gt;Node7</title>
<path fill="none" stroke="midnightblue" d="M1796.21,-299.5C1820.85,-299.5 1856.55,-299.5 1881.99,-299.5"/>
<polygon fill="midnightblue" stroke="midnightblue" points="1796.07,-296 1786.07,-299.5 1796.07,-303 1796.07,-296"/>
</g>
<!-- Node8 -->
<g id="node8" class="node"><title>Node8</title>
<g id="a_node8"><a xlink:href="../../d8/dce/ports_2CMakeLists_8txt.html#a598fae457555a5fb26e18d4cd8f89de9" target="_top" xlink:title="add_subdirectory">
<polygon fill="none" stroke="black" points="1982,-290 1982,-309 2073,-309 2073,-290 1982,-290"/>
<text text-anchor="middle" x="2027.5" y="-297" font-family="Helvetica,sans-Serif" font-size="10.00">add_subdirectory</text>
</a>
</g>
</g>
<!-- Node7&#45;&gt;Node8 -->
<g id="edge7" class="edge"><title>Node7&#45;&gt;Node8</title>
<path fill="none" stroke="midnightblue" d="M1956.3,-299.5C1964.63,-299.5 1973.42,-299.5 1981.86,-299.5"/>
<polygon fill="midnightblue" stroke="midnightblue" points="1956.06,-296 1946.06,-299.5 1956.06,-303 1956.06,-296"/>
</g>
<!-- Node10 -->
<g id="node10" class="node"><title>Node10</title>
<g id="a_node10"><a xlink:href="../../d5/d35/cipconnectionmanager_8c.html#af379a4b383c738a07d8e1ab0a4ac7510" target="_top" xlink:title="Handles a Non Null Non Matching Forward Open Request. ">
<polygon fill="none" stroke="black" points="1142,-398.5 1142,-428.5 1282,-428.5 1282,-398.5 1142,-398.5"/>
<text text-anchor="start" x="1150" y="-416.5" font-family="Helvetica,sans-Serif" font-size="10.00">HandleNonNullNonMatching</text>
<text text-anchor="middle" x="1212" y="-405.5" font-family="Helvetica,sans-Serif" font-size="10.00">ForwardOpenRequest</text>
</a>
</g>
</g>
<!-- Node9&#45;&gt;Node10 -->
<g id="edge9" class="edge"><title>Node9&#45;&gt;Node10</title>
<path fill="none" stroke="midnightblue" d="M1079.4,-413.5C1099.43,-413.5 1121.53,-413.5 1141.81,-413.5"/>
<polygon fill="midnightblue" stroke="midnightblue" points="1079.14,-410 1069.14,-413.5 1079.14,-417 1079.14,-410"/>
</g>
<!-- Node11 -->
<g id="node11" class="node"><title>Node11</title>
<g id="a_node11"><a xlink:href="../../d5/d35/cipconnectionmanager_8c.html#a7eaeec6cc54d1799cfaba4031f0168d1" target="_top" xlink:title="Handles a Non Null Matching Forward Open Request. ">
<polygon fill="none" stroke="black" points="1318,-398.5 1318,-428.5 1476,-428.5 1476,-398.5 1318,-398.5"/>
<text text-anchor="start" x="1326" y="-416.5" font-family="Helvetica,sans-Serif" font-size="10.00">HandleNonNullMatchingForward</text>
<text text-anchor="middle" x="1397" y="-405.5" font-family="Helvetica,sans-Serif" font-size="10.00">OpenRequest</text>
</a>
</g>
</g>
<!-- Node10&#45;&gt;Node11 -->
<g id="edge10" class="edge"><title>Node10&#45;&gt;Node11</title>
<path fill="none" stroke="midnightblue" d="M1292.39,-406.803C1300.82,-406.729 1309.4,-406.733 1317.83,-406.814"/>
<polygon fill="midnightblue" stroke="midnightblue" points="1292.14,-403.306 1282.18,-406.932 1292.23,-410.305 1292.14,-403.306"/>
</g>
<!-- Node11&#45;&gt;Node10 -->
<g id="edge11" class="edge"><title>Node11&#45;&gt;Node10</title>
<path fill="none" stroke="midnightblue" d="M1307.77,-420.246C1299.18,-420.266 1290.55,-420.207 1282.18,-420.068"/>
<polygon fill="midnightblue" stroke="midnightblue" points="1307.85,-423.746 1317.83,-420.186 1307.8,-416.746 1307.85,-423.746"/>
</g>
<!-- Node12 -->
<g id="node12" class="node"><title>Node12</title>
<g id="a_node12"><a xlink:href="../../d5/d35/cipconnectionmanager_8c.html#a8da18334cfde58434b845b0968620811" target="_top" xlink:title="Handles a Null Matching Forward Open request. ">
<polygon fill="none" stroke="black" points="1512,-398.5 1512,-428.5 1652,-428.5 1652,-398.5 1512,-398.5"/>
<text text-anchor="start" x="1520" y="-416.5" font-family="Helvetica,sans-Serif" font-size="10.00">HandleNullMatchingForward</text>
<text text-anchor="middle" x="1582" y="-405.5" font-family="Helvetica,sans-Serif" font-size="10.00">OpenRequest</text>
</a>
</g>
</g>
<!-- Node11&#45;&gt;Node12 -->
<g id="edge12" class="edge"><title>Node11&#45;&gt;Node12</title>
<path fill="none" stroke="midnightblue" d="M1486.19,-413.5C1494.79,-413.5 1503.42,-413.5 1511.79,-413.5"/>
<polygon fill="midnightblue" stroke="midnightblue" points="1486.14,-410 1476.14,-413.5 1486.14,-417 1486.14,-410"/>
</g>
<!-- Node12&#45;&gt;Node10 -->
<g id="edge13" class="edge"><title>Node12&#45;&gt;Node10</title>
<path fill="none" stroke="midnightblue" d="M1515.93,-396.241C1502.8,-393.436 1489.03,-390.97 1476,-389.5 1406.22,-381.627 1387.78,-381.627 1318,-389.5 1301.65,-391.345 1284.13,-394.757 1268.18,-398.442"/>
<polygon fill="midnightblue" stroke="midnightblue" points="1515.3,-399.686 1525.82,-398.442 1516.82,-392.853 1515.3,-399.686"/>
</g>
<!-- Node13 -->
<g id="node13" class="node"><title>Node13</title>
<g id="a_node13"><a xlink:href="../../d5/d35/cipconnectionmanager_8c.html#ad68060facbfe52b38428a40da630651b" target="_top" xlink:title="Handles a Null Non Matching Forward Open Request. ">
<polygon fill="none" stroke="black" points="1688,-420.5 1688,-450.5 1846,-450.5 1846,-420.5 1688,-420.5"/>
<text text-anchor="start" x="1696" y="-438.5" font-family="Helvetica,sans-Serif" font-size="10.00">HandleNullNonMatchingForward</text>
<text text-anchor="middle" x="1767" y="-427.5" font-family="Helvetica,sans-Serif" font-size="10.00">OpenRequest</text>
</a>
</g>
</g>
<!-- Node12&#45;&gt;Node13 -->
<g id="edge14" class="edge"><title>Node12&#45;&gt;Node13</title>
<path fill="none" stroke="midnightblue" d="M1662.39,-423.044C1670.82,-424.058 1679.4,-425.089 1687.83,-426.102"/>
<polygon fill="midnightblue" stroke="midnightblue" points="1662.53,-419.536 1652.18,-421.817 1661.7,-426.486 1662.53,-419.536"/>
</g>
<!-- Node13&#45;&gt;Node10 -->
<g id="edge15" class="edge"><title>Node13&#45;&gt;Node10</title>
<path fill="none" stroke="midnightblue" d="M1677.75,-442.486C1587.15,-448.163 1442.22,-453.084 1318,-438.5 1300.69,-436.468 1282.1,-432.613 1265.45,-428.528"/>
<polygon fill="midnightblue" stroke="midnightblue" points="1678.23,-445.963 1687.98,-441.828 1677.78,-438.977 1678.23,-445.963"/>
</g>
<!-- Node15 -->
<g id="node15" class="node"><title>Node15</title>
<g id="a_node15"><a xlink:href="../../d2/d11/cipclass3connection_8h.html#a45bd741b44137164c07a6ce09a7a9a9d" target="_top" xlink:title="Check if Class3 connection is available and if yes setup all data. ">
<polygon fill="none" stroke="black" points="1143.5,-290 1143.5,-309 1280.5,-309 1280.5,-290 1143.5,-290"/>
<text text-anchor="middle" x="1212" y="-297" font-family="Helvetica,sans-Serif" font-size="10.00">EstablishClass3Connection</text>
</a>
</g>
</g>
<!-- Node14&#45;&gt;Node15 -->
<g id="edge17" class="edge"><title>Node14&#45;&gt;Node15</title>
<path fill="none" stroke="midnightblue" d="M1116.44,-299.5C1125.54,-299.5 1134.6,-299.5 1143.31,-299.5"/>
<polygon fill="midnightblue" stroke="midnightblue" points="1116.16,-296 1106.16,-299.5 1116.16,-303 1116.16,-296"/>
</g>
<!-- Node14&#45;&gt;Node16 -->
<g id="edge19" class="edge"><title>Node14&#45;&gt;Node16</title>
<path fill="none" stroke="midnightblue" d="M1058.95,-287.124C1074.05,-282.624 1090.89,-277.225 1106,-271.5 1136.74,-259.855 1171.19,-243.431 1191.97,-233.13"/>
<polygon fill="midnightblue" stroke="midnightblue" points="1057.93,-283.776 1049.32,-289.947 1059.9,-290.494 1057.93,-283.776"/>
</g>
<!-- Node15&#45;&gt;Node4 -->
<g id="edge18" class="edge"><title>Node15&#45;&gt;Node4</title>
<path fill="none" stroke="midnightblue" d="M1290.95,-299.5C1306.83,-299.5 1323.25,-299.5 1338.27,-299.5"/>
<polygon fill="midnightblue" stroke="midnightblue" points="1290.62,-296 1280.62,-299.5 1290.62,-303 1290.62,-296"/>
</g>
<!-- Node16&#45;&gt;Node4 -->
<g id="edge20" class="edge"><title>Node16&#45;&gt;Node4</title>
<path fill="none" stroke="midnightblue" d="M1245.44,-236.971C1282.08,-252.191 1340.8,-276.576 1373.01,-289.953"/>
<polygon fill="midnightblue" stroke="midnightblue" points="1246.75,-233.729 1236.18,-233.125 1244.07,-240.193 1246.75,-233.729"/>
</g>
<!-- Node17&#45;&gt;Node16 -->
<g id="edge23" class="edge"><title>Node17&#45;&gt;Node16</title>
<path fill="none" stroke="midnightblue" d="M1088.96,-241.465C1110.7,-238.265 1134.06,-234.827 1154.46,-231.823"/>
<polygon fill="midnightblue" stroke="midnightblue" points="1088.16,-238.045 1078.78,-242.964 1089.18,-244.97 1088.16,-238.045"/>
</g>
<!-- Node18&#45;&gt;Node3 -->
<g id="edge37" class="edge"><title>Node18&#45;&gt;Node3</title>
<path fill="none" stroke="midnightblue" d="M345.124,-232.609C371.675,-249.132 417.105,-274.933 460,-287.5 647.689,-342.489 885.301,-341.679 975.254,-339.01"/>
<polygon fill="midnightblue" stroke="midnightblue" points="346.878,-229.576 336.555,-227.188 343.135,-235.492 346.878,-229.576"/>
</g>
<!-- Node18&#45;&gt;Node9 -->
<g id="edge38" class="edge"><title>Node18&#45;&gt;Node9</title>
<path fill="none" stroke="midnightblue" d="M339.938,-233.838C365.13,-256.062 413.169,-295.868 460,-320.5 550.556,-368.13 577.562,-374.972 678,-394.5 774.778,-413.317 890.066,-415.533 956.765,-414.891"/>
<polygon fill="midnightblue" stroke="midnightblue" points="342.096,-231.072 332.305,-227.022 337.433,-236.294 342.096,-231.072"/>
</g>
<!-- Node18&#45;&gt;Node14 -->
<g id="edge39" class="edge"><title>Node18&#45;&gt;Node14</title>
<path fill="none" stroke="midnightblue" d="M355.528,-230.691C383.117,-240.933 423.482,-254.526 460,-261.5 619.696,-291.996 809.509,-298.778 919.813,-299.872"/>
<polygon fill="midnightblue" stroke="midnightblue" points="356.565,-227.341 345.973,-227.088 354.095,-233.891 356.565,-227.341"/>
</g>
<!-- Node18&#45;&gt;Node16 -->
<g id="edge42" class="edge"><title>Node18&#45;&gt;Node16</title>
<path fill="none" stroke="midnightblue" d="M380.299,-206.131C404.849,-201.554 433.758,-196.438 460,-192.5 744.019,-149.877 826.558,-110.202 1106,-176.5 1139.04,-184.338 1174.5,-202.492 1194.6,-213.805"/>
<polygon fill="midnightblue" stroke="midnightblue" points="379.6,-202.701 370.419,-207.988 380.893,-209.581 379.6,-202.701"/>
</g>
<!-- Node18&#45;&gt;Node17 -->
<g id="edge45" class="edge"><title>Node18&#45;&gt;Node17</title>
<path fill="none" stroke="midnightblue" d="M376.633,-228.974C401.884,-233.768 432.343,-238.835 460,-241.5 630.546,-257.933 832.051,-256.78 938.132,-254.589"/>
<polygon fill="midnightblue" stroke="midnightblue" points="376.997,-225.48 366.514,-227.015 375.667,-232.352 376.997,-225.48"/>
</g>
<!-- Node19 -->
<g id="node19" class="node"><title>Node19</title>
<g id="a_node19"><a xlink:href="../../d1/dc0/appcontype_8h.html#ac568876f2c5ba2da91a0e62e17e27432" target="_top" xlink:title="Check if there exists already an exclusive owner or listen only connection which produces the input a...">
<polygon fill="none" stroke="black" points="478,-202.5 478,-232.5 624,-232.5 624,-202.5 478,-202.5"/>
<text text-anchor="start" x="486" y="-220.5" font-family="Helvetica,sans-Serif" font-size="10.00">GetExistingProducerMulticast</text>
<text text-anchor="middle" x="551" y="-209.5" font-family="Helvetica,sans-Serif" font-size="10.00">Connection</text>
</a>
</g>
</g>
<!-- Node18&#45;&gt;Node19 -->
<g id="edge25" class="edge"><title>Node18&#45;&gt;Node19</title>
<path fill="none" stroke="midnightblue" d="M434.48,-217.5C449.168,-217.5 463.889,-217.5 477.669,-217.5"/>
<polygon fill="midnightblue" stroke="midnightblue" points="434.329,-214 424.329,-217.5 434.329,-221 434.329,-214"/>
</g>
<!-- Node23 -->
<g id="node23" class="node"><title>Node23</title>
<g id="a_node23"><a xlink:href="../../d1/dc0/appcontype_8h.html#acda34462cc2d60ebb7b48a633bfe3c49" target="_top" xlink:title="check if there exists an producing multicast exclusive owner or listen only connection that should pr...">
<polygon fill="none" stroke="black" points="460,-88 460,-107 642,-107 642,-88 460,-88"/>
<text text-anchor="middle" x="551" y="-95" font-family="Helvetica,sans-Serif" font-size="10.00">GetNextNonControlMasterConnection</text>
</a>
</g>
</g>
<!-- Node18&#45;&gt;Node23 -->
<g id="edge31" class="edge"><title>Node18&#45;&gt;Node23</title>
<path fill="none" stroke="midnightblue" d="M340.703,-201.274C366.085,-180.04 413.613,-143.01 460,-121.5 473.057,-115.445 487.913,-110.7 501.739,-107.085"/>
<polygon fill="midnightblue" stroke="midnightblue" points="338.342,-198.687 332.978,-207.824 342.869,-204.026 338.342,-198.687"/>
</g>
<!-- Node24 -->
<g id="node24" class="node"><title>Node24</title>
<g id="a_node24"><a xlink:href="../../df/d03/cipioconnection_8c.html#a730b410a0cdbc6a456973c0e51568968" target="_top" xlink:title="CloseIoConnection">
<polygon fill="none" stroke="black" points="731,-100 731,-119 831,-119 831,-100 731,-100"/>
<text text-anchor="middle" x="781" y="-107" font-family="Helvetica,sans-Serif" font-size="10.00">CloseIoConnection</text>
</a>
</g>
</g>
<!-- Node18&#45;&gt;Node24 -->
<g id="edge43" class="edge"><title>Node18&#45;&gt;Node24</title>
<path fill="none" stroke="midnightblue" d="M350.007,-203.345C377.386,-190.085 420.587,-170.681 460,-159.5 553.855,-132.874 667.476,-119.372 730.961,-113.435"/>
<polygon fill="midnightblue" stroke="midnightblue" points="348.107,-200.378 340.672,-207.926 351.191,-206.662 348.107,-200.378"/>
</g>
<!-- Node26 -->
<g id="node26" class="node"><title>Node26</title>
<g id="a_node26"><a xlink:href="../../df/d03/cipioconnection_8c.html#a7e4923f4b027d489d9933b52f6fd7007" target="_top" xlink:title="HandleIoConnectionTimeOut">
<polygon fill="none" stroke="black" points="709.5,-62 709.5,-81 852.5,-81 852.5,-62 709.5,-62"/>
<text text-anchor="middle" x="781" y="-69" font-family="Helvetica,sans-Serif" font-size="10.00">HandleIoConnectionTimeOut</text>
</a>
</g>
</g>
<!-- Node18&#45;&gt;Node26 -->
<g id="edge44" class="edge"><title>Node18&#45;&gt;Node26</title>
<path fill="none" stroke="midnightblue" d="M333.141,-199.333C353.666,-167.806 400.814,-103.904 460,-78.5 550.255,-39.7606 668.423,-51.178 732.935,-61.9595"/>
<polygon fill="midnightblue" stroke="midnightblue" points="330.045,-197.68 327.643,-207.999 335.955,-201.431 330.045,-197.68"/>
</g>
<!-- Node27 -->
<g id="node27" class="node"><title>Node27</title>
<g id="a_node27"><a xlink:href="../../df/d03/cipioconnection_8c.html#a4efa3b0cf11b363c8c5f4f8c8070b43f" target="_top" xlink:title="SetupIoConnectionTargetTo\lOriginatorConnectionPoint">
<polygon fill="none" stroke="black" points="481.5,-0.5 481.5,-30.5 620.5,-30.5 620.5,-0.5 481.5,-0.5"/>
<text text-anchor="start" x="489.5" y="-18.5" font-family="Helvetica,sans-Serif" font-size="10.00">SetupIoConnectionTargetTo</text>
<text text-anchor="middle" x="551" y="-7.5" font-family="Helvetica,sans-Serif" font-size="10.00">OriginatorConnectionPoint</text>
</a>
</g>
</g>
<!-- Node18&#45;&gt;Node27 -->
<g id="edge40" class="edge"><title>Node18&#45;&gt;Node27</title>
<path fill="none" stroke="midnightblue" d="M332.238,-198.524C352.191,-163.284 399.662,-87.5097 460,-45.5 468.651,-39.4771 478.601,-34.5906 488.661,-30.6488"/>
<polygon fill="midnightblue" stroke="midnightblue" points="328.937,-197.26 327.148,-207.703 335.058,-200.655 328.937,-197.26"/>
</g>
<!-- Node20 -->
<g id="node20" class="node"><title>Node20</title>
<g id="a_node20"><a xlink:href="../../d1/dbc/appcontype_8c.html#ae76893528b0e064cf220f6eb19ac5bdf" target="_top" xlink:title="Takes an ConnectionObject and searches and returns an Listen Only Connection based on the ConnectionO...">
<polygon fill="none" stroke="black" points="717,-176 717,-195 845,-195 845,-176 717,-176"/>
<text text-anchor="middle" x="781" y="-183" font-family="Helvetica,sans-Serif" font-size="10.00">GetListenOnlyConnection</text>
</a>
</g>
</g>
<!-- Node19&#45;&gt;Node20 -->
<g id="edge26" class="edge"><title>Node19&#45;&gt;Node20</title>
<path fill="none" stroke="midnightblue" d="M634.046,-205.985C661.294,-202.16 691.191,-197.964 716.792,-194.371"/>
<polygon fill="midnightblue" stroke="midnightblue" points="633.557,-202.519 624.141,-207.375 634.53,-209.451 633.557,-202.519"/>
</g>
<!-- Node22 -->
<g id="node22" class="node"><title>Node22</title>
<g id="a_node22"><a xlink:href="../../df/d03/cipioconnection_8c.html#a5dea6fc1be0ed4ecf5d9e4f932d52106" target="_top" xlink:title="OpenProducingMulticastConnection">
<polygon fill="none" stroke="black" points="694.5,-214 694.5,-233 867.5,-233 867.5,-214 694.5,-214"/>
<text text-anchor="middle" x="781" y="-221" font-family="Helvetica,sans-Serif" font-size="10.00">OpenProducingMulticastConnection</text>
</a>
</g>
</g>
<!-- Node19&#45;&gt;Node22 -->
<g id="edge29" class="edge"><title>Node19&#45;&gt;Node22</title>
<path fill="none" stroke="midnightblue" d="M634.226,-219.664C653.773,-220.178 674.676,-220.728 694.371,-221.247"/>
<polygon fill="midnightblue" stroke="midnightblue" points="634.229,-216.163 624.141,-219.398 634.045,-223.16 634.229,-216.163"/>
</g>
<!-- Node21 -->
<g id="node21" class="node"><title>Node21</title>
<g id="a_node21"><a xlink:href="../../d1/dc0/appcontype_8h.html#ab3a019a2217375c098345317da123323" target="_top" xlink:title="check if for the given connection data received in a forward_open request a suitable connection is av...">
<polygon fill="none" stroke="black" points="925.5,-186 925.5,-205 1100.5,-205 1100.5,-186 925.5,-186"/>
<text text-anchor="middle" x="1013" y="-193" font-family="Helvetica,sans-Serif" font-size="10.00">GetIoConnectionForConnectionData</text>
</a>
</g>
</g>
<!-- Node20&#45;&gt;Node21 -->
<g id="edge27" class="edge"><title>Node20&#45;&gt;Node21</title>
<path fill="none" stroke="midnightblue" d="M855.208,-188.683C877.496,-189.652 902.207,-190.726 925.297,-191.73"/>
<polygon fill="midnightblue" stroke="midnightblue" points="855.295,-185.184 845.153,-188.246 854.991,-192.177 855.295,-185.184"/>
</g>
<!-- Node21&#45;&gt;Node16 -->
<g id="edge28" class="edge"><title>Node21&#45;&gt;Node16</title>
<path fill="none" stroke="midnightblue" d="M1090.9,-206.43C1112.05,-209.437 1134.61,-212.642 1154.39,-215.454"/>
<polygon fill="midnightblue" stroke="midnightblue" points="1091.36,-202.961 1080.97,-205.019 1090.38,-209.891 1091.36,-202.961"/>
</g>
<!-- Node22&#45;&gt;Node17 -->
<g id="edge30" class="edge"><title>Node22&#45;&gt;Node17</title>
<path fill="none" stroke="midnightblue" d="M867.793,-234.317C890.967,-237.239 915.835,-240.375 938.284,-243.205"/>
<polygon fill="midnightblue" stroke="midnightblue" points="867.988,-230.814 857.629,-233.036 867.113,-237.759 867.988,-230.814"/>
</g>
<!-- Node23&#45;&gt;Node24 -->
<g id="edge32" class="edge"><title>Node23&#45;&gt;Node24</title>
<path fill="none" stroke="midnightblue" d="M652.109,-102.769C679.409,-104.206 707.787,-105.699 730.856,-106.913"/>
<polygon fill="midnightblue" stroke="midnightblue" points="652.282,-99.2732 642.112,-102.243 651.914,-106.264 652.282,-99.2732"/>
</g>
<!-- Node23&#45;&gt;Node26 -->
<g id="edge35" class="edge"><title>Node23&#45;&gt;Node26</title>
<path fill="none" stroke="midnightblue" d="M645.606,-86.8256C666.838,-84.4044 689.046,-81.8719 709.153,-79.579"/>
<polygon fill="midnightblue" stroke="midnightblue" points="645.143,-83.3556 635.604,-87.9662 645.936,-90.3106 645.143,-83.3556"/>
</g>
<!-- Node25 -->
<g id="node25" class="node"><title>Node25</title>
<g id="a_node25"><a xlink:href="../../df/d03/cipioconnection_8c.html#ab3282f146a3ea91c90cf14c32206ee8c" target="_top" xlink:title="SetIoConnectionCallbacks">
<polygon fill="none" stroke="black" points="946.5,-100 946.5,-119 1079.5,-119 1079.5,-100 946.5,-100"/>
<text text-anchor="middle" x="1013" y="-107" font-family="Helvetica,sans-Serif" font-size="10.00">SetIoConnectionCallbacks</text>
</a>
</g>
</g>
<!-- Node24&#45;&gt;Node25 -->
<g id="edge33" class="edge"><title>Node24&#45;&gt;Node25</title>
<path fill="none" stroke="midnightblue" d="M841.222,-109.5C873.414,-109.5 913.3,-109.5 946.428,-109.5"/>
<polygon fill="midnightblue" stroke="midnightblue" points="841.059,-106 831.059,-109.5 841.059,-113 841.059,-106"/>
</g>
<!-- Node25&#45;&gt;Node16 -->
<g id="edge34" class="edge"><title>Node25&#45;&gt;Node16</title>
<path fill="none" stroke="midnightblue" d="M1077.41,-121.976C1087.26,-125.059 1097.11,-128.852 1106,-133.5 1147.06,-154.976 1185.89,-195.224 1202.51,-213.733"/>
<polygon fill="midnightblue" stroke="midnightblue" points="1078.17,-118.552 1067.59,-119.125 1076.22,-125.274 1078.17,-118.552"/>
</g>
<!-- Node26&#45;&gt;Node25 -->
<g id="edge36" class="edge"><title>Node26&#45;&gt;Node25</title>
<path fill="none" stroke="midnightblue" d="M849.819,-82.705C882.998,-88.1866 922.515,-94.7155 954.234,-99.9561"/>
<polygon fill="midnightblue" stroke="midnightblue" points="850.179,-79.2169 839.742,-81.04 849.038,-86.1233 850.179,-79.2169"/>
</g>
<!-- Node27&#45;&gt;Node16 -->
<g id="edge41" class="edge"><title>Node27&#45;&gt;Node16</title>
<path fill="none" stroke="midnightblue" d="M630.569,-7.76284C743.921,-0.44858 956.149,-1.48386 1106,-90.5 1158.1,-121.451 1194.34,-188.711 1206.51,-213.803"/>
<polygon fill="midnightblue" stroke="midnightblue" points="630.318,-4.27172 620.58,-8.44572 630.795,-11.2554 630.318,-4.27172"/>
</g>
</g>
</svg>
