<?xml version="1.0" encoding="UTF-8" standalone="no"?>
<!DOCTYPE svg PUBLIC "-//W3C//DTD SVG 1.1//EN"
 "http://www.w3.org/Graphics/SVG/1.1/DTD/svg11.dtd">
<!-- Generated by graphviz version 2.38.0 (20140413.2041)
 -->
<!-- Title: ConnectionObjectCalculateRegularInactivityWatchdogTimerValue Pages: 1 -->
<svg width="1653pt" height="184pt"
 viewBox="0.00 0.00 1653.00 183.50" xmlns="http://www.w3.org/2000/svg" xmlns:xlink="http://www.w3.org/1999/xlink">
<g id="graph0" class="graph" transform="scale(1 1) rotate(0) translate(4 179.5)">
<title>ConnectionObjectCalculateRegularInactivityWatchdogTimerValue</title>
<!-- Node1 -->
<g id="node1" class="node"><title>Node1</title>
<polygon fill="#bfbfbf" stroke="black" points="0,-81.5 0,-111.5 184,-111.5 184,-81.5 0,-81.5"/>
<text text-anchor="start" x="8" y="-99.5" font-family="Helvetica,sans-Serif" font-size="10.00">ConnectionObjectCalculate</text>
<text text-anchor="middle" x="92" y="-88.5" font-family="Helvetica,sans-Serif" font-size="10.00">RegularInactivityWatchdogTimerValue</text>
</g>
<!-- Node2 -->
<g id="node2" class="node"><title>Node2</title>
<g id="a_node2"><a xlink:href="../../d1/d6c/cipconnectionobject_8h.html#ade30018f5b81baa02d45c59edd8e7d98" target="_top" xlink:title="CipConnectionObjectListArrayFree">
<polygon fill="none" stroke="black" points="417,-156 417,-175 585,-175 585,-156 417,-156"/>
<text text-anchor="middle" x="501" y="-163" font-family="Helvetica,sans-Serif" font-size="10.00">CipConnectionObjectListArrayFree</text>
</a>
</g>
</g>
<!-- Node1&#45;&gt;Node2 -->
<g id="edge1" class="edge"><title>Node1&#45;&gt;Node2</title>
<path fill="none" stroke="midnightblue" d="M133.6,-115.724C158.067,-126.4 190.17,-138.837 220,-145.5 285.161,-160.055 360.769,-164.76 416.981,-165.988"/>
<polygon fill="midnightblue" stroke="midnightblue" points="134.843,-112.446 124.283,-111.583 132,-118.843 134.843,-112.446"/>
</g>
<!-- Node6 -->
<g id="node6" class="node"><title>Node6</title>
<g id="a_node6"><a xlink:href="../../d1/d6c/cipconnectionobject_8h.html#a162031cf48137e250c779ac086cb9dd8" target="_top" xlink:title="ConnectionObjectResetInactivity\lWatchdogTimerValue">
<polygon fill="none" stroke="black" points="220,-57.5 220,-87.5 381,-87.5 381,-57.5 220,-57.5"/>
<text text-anchor="start" x="228" y="-75.5" font-family="Helvetica,sans-Serif" font-size="10.00">ConnectionObjectResetInactivity</text>
<text text-anchor="middle" x="300.5" y="-64.5" font-family="Helvetica,sans-Serif" font-size="10.00">WatchdogTimerValue</text>
</a>
</g>
</g>
<!-- Node1&#45;&gt;Node6 -->
<g id="edge5" class="edge"><title>Node1&#45;&gt;Node6</title>
<path fill="none" stroke="midnightblue" d="M194.24,-84.7336C202.833,-83.7349 211.445,-82.734 219.837,-81.7586"/>
<polygon fill="midnightblue" stroke="midnightblue" points="193.704,-81.2722 184.175,-85.9034 194.512,-88.2254 193.704,-81.2722"/>
</g>
<!-- Node17 -->
<g id="node17" class="node"><title>Node17</title>
<g id="a_node17"><a xlink:href="../../d1/d6c/cipconnectionobject_8h.html#a0e5c72cf86425e7741266a04e72a9980" target="_top" xlink:title="ConnectionObjectResetLast\lPackageInactivityTimerValue">
<polygon fill="none" stroke="black" points="228.5,-8.5 228.5,-38.5 372.5,-38.5 372.5,-8.5 228.5,-8.5"/>
<text text-anchor="start" x="236.5" y="-26.5" font-family="Helvetica,sans-Serif" font-size="10.00">ConnectionObjectResetLast</text>
<text text-anchor="middle" x="300.5" y="-15.5" font-family="Helvetica,sans-Serif" font-size="10.00">PackageInactivityTimerValue</text>
</a>
</g>
</g>
<!-- Node1&#45;&gt;Node17 -->
<g id="edge19" class="edge"><title>Node1&#45;&gt;Node17</title>
<path fill="none" stroke="midnightblue" d="M139.491,-77.5997C163.393,-68.1283 193.086,-56.7401 220,-47.5 228.863,-44.457 238.351,-41.4121 247.575,-38.5623"/>
<polygon fill="midnightblue" stroke="midnightblue" points="137.958,-74.4427 129.963,-81.3948 140.548,-80.9458 137.958,-74.4427"/>
</g>
<!-- Node18 -->
<g id="node18" class="node"><title>Node18</title>
<g id="a_node18"><a xlink:href="../../df/d91/cipconnectionobject_8c.html#aff88fa3ae6c57c3d9bee691560d9f670" target="_top" xlink:title="ConnectionObjectSetInitial\lInactivityWatchdogTimerValue">
<polygon fill="none" stroke="black" points="225.5,-106.5 225.5,-136.5 375.5,-136.5 375.5,-106.5 225.5,-106.5"/>
<text text-anchor="start" x="233.5" y="-124.5" font-family="Helvetica,sans-Serif" font-size="10.00">ConnectionObjectSetInitial</text>
<text text-anchor="middle" x="300.5" y="-113.5" font-family="Helvetica,sans-Serif" font-size="10.00">InactivityWatchdogTimerValue</text>
</a>
</g>
</g>
<!-- Node1&#45;&gt;Node18 -->
<g id="edge21" class="edge"><title>Node1&#45;&gt;Node18</title>
<path fill="none" stroke="midnightblue" d="M194.181,-108.75C204.642,-110.016 215.13,-111.286 225.218,-112.507"/>
<polygon fill="midnightblue" stroke="midnightblue" points="194.523,-105.265 184.175,-107.538 193.682,-112.215 194.523,-105.265"/>
</g>
<!-- Node3 -->
<g id="node3" class="node"><title>Node3</title>
<g id="a_node3"><a xlink:href="../../d5/dcb/MINGW_2main_8c.html#ad338a7dbc41dc40bcecd0479377ef207" target="_top" xlink:title="main">
<polygon fill="none" stroke="black" points="1365,-99 1365,-118 1403,-118 1403,-99 1365,-99"/>
<text text-anchor="middle" x="1384" y="-106" font-family="Helvetica,sans-Serif" font-size="10.00">main</text>
</a>
</g>
</g>
<!-- Node2&#45;&gt;Node3 -->
<g id="edge2" class="edge"><title>Node2&#45;&gt;Node3</title>
<path fill="none" stroke="midnightblue" d="M595.52,-165.5C673.38,-165.5 787.159,-165.5 886.5,-165.5 886.5,-165.5 886.5,-165.5 1069,-165.5 1183.13,-165.5 1316.91,-128.591 1364.81,-114.174"/>
<polygon fill="midnightblue" stroke="midnightblue" points="595.255,-162 585.255,-165.5 595.255,-169 595.255,-162"/>
</g>
<!-- Node4 -->
<g id="node4" class="node"><title>Node4</title>
<g id="a_node4"><a xlink:href="../../d8/d03/ports_2MINGW_2CMakeLists_8txt.html#a7e00df43a20d627a1732be7766d91097" target="_top" xlink:title="add_library">
<polygon fill="none" stroke="black" points="1454,-99 1454,-118 1518,-118 1518,-99 1454,-99"/>
<text text-anchor="middle" x="1486" y="-106" font-family="Helvetica,sans-Serif" font-size="10.00">add_library</text>
</a>
</g>
</g>
<!-- Node3&#45;&gt;Node4 -->
<g id="edge3" class="edge"><title>Node3&#45;&gt;Node4</title>
<path fill="none" stroke="midnightblue" d="M1413.7,-108.5C1426.24,-108.5 1440.99,-108.5 1453.81,-108.5"/>
<polygon fill="midnightblue" stroke="midnightblue" points="1413.34,-105 1403.34,-108.5 1413.34,-112 1413.34,-105"/>
</g>
<!-- Node5 -->
<g id="node5" class="node"><title>Node5</title>
<g id="a_node5"><a xlink:href="../../d8/dce/ports_2CMakeLists_8txt.html#a598fae457555a5fb26e18d4cd8f89de9" target="_top" xlink:title="add_subdirectory">
<polygon fill="none" stroke="black" points="1554,-99 1554,-118 1645,-118 1645,-99 1554,-99"/>
<text text-anchor="middle" x="1599.5" y="-106" font-family="Helvetica,sans-Serif" font-size="10.00">add_subdirectory</text>
</a>
</g>
</g>
<!-- Node4&#45;&gt;Node5 -->
<g id="edge4" class="edge"><title>Node4&#45;&gt;Node5</title>
<path fill="none" stroke="midnightblue" d="M1528.3,-108.5C1536.63,-108.5 1545.42,-108.5 1553.86,-108.5"/>
<polygon fill="midnightblue" stroke="midnightblue" points="1528.06,-105 1518.06,-108.5 1528.06,-112 1528.06,-105"/>
</g>
<!-- Node7 -->
<g id="node7" class="node"><title>Node7</title>
<g id="a_node7"><a xlink:href="../../d2/dc9/group__CIP__API.html#ga9abc7c86317baaa7ede1a4bce09fa542" target="_top" xlink:title="Notify the connection manager that data for a connection has been received. ">
<polygon fill="none" stroke="black" points="422.5,-14 422.5,-33 579.5,-33 579.5,-14 422.5,-14"/>
<text text-anchor="middle" x="501" y="-21" font-family="Helvetica,sans-Serif" font-size="10.00">HandleReceivedConnectedData</text>
</a>
</g>
</g>
<!-- Node6&#45;&gt;Node7 -->
<g id="edge6" class="edge"><title>Node6&#45;&gt;Node7</title>
<path fill="none" stroke="midnightblue" d="M372.412,-54.9952C402.397,-47.5935 436.148,-39.262 461.402,-33.028"/>
<polygon fill="midnightblue" stroke="midnightblue" points="371.275,-51.6707 362.406,-57.4654 372.953,-58.4667 371.275,-51.6707"/>
</g>
<!-- Node11 -->
<g id="node11" class="node"><title>Node11</title>
<g id="a_node11"><a xlink:href="../../d4/d91/group__ENCAP.html#ga72c9878cc686b15d10481b716e6f628d" target="_top" xlink:title="NotifyConnectedCommonPacket\lFormat">
<polygon fill="none" stroke="black" points="420.5,-57.5 420.5,-87.5 581.5,-87.5 581.5,-57.5 420.5,-57.5"/>
<text text-anchor="start" x="428.5" y="-75.5" font-family="Helvetica,sans-Serif" font-size="10.00">NotifyConnectedCommonPacket</text>
<text text-anchor="middle" x="501" y="-64.5" font-family="Helvetica,sans-Serif" font-size="10.00">Format</text>
</a>
</g>
</g>
<!-- Node6&#45;&gt;Node11 -->
<g id="edge11" class="edge"><title>Node6&#45;&gt;Node11</title>
<path fill="none" stroke="midnightblue" d="M391.181,-72.5C400.92,-72.5 410.782,-72.5 420.388,-72.5"/>
<polygon fill="midnightblue" stroke="midnightblue" points="391.094,-69.0001 381.094,-72.5 391.094,-76.0001 391.094,-69.0001"/>
</g>
<!-- Node8 -->
<g id="node8" class="node"><title>Node8</title>
<g id="a_node8"><a xlink:href="../../db/d4f/generic__networkhandler_8c.html#af0c95ade149818d252c292b489cfe190" target="_top" xlink:title="check if on one of the UDP consuming sockets data has been received and if yes handle it correctly ...">
<polygon fill="none" stroke="black" points="807,-0.5 807,-30.5 968,-30.5 968,-0.5 807,-0.5"/>
<text text-anchor="start" x="815" y="-18.5" font-family="Helvetica,sans-Serif" font-size="10.00">CheckAndHandleConsumingUdp</text>
<text text-anchor="middle" x="887.5" y="-7.5" font-family="Helvetica,sans-Serif" font-size="10.00">Sockets</text>
</a>
</g>
</g>
<!-- Node7&#45;&gt;Node8 -->
<g id="edge7" class="edge"><title>Node7&#45;&gt;Node8</title>
<path fill="none" stroke="midnightblue" d="M590.084,-21.6673C655.374,-20.3089 743.627,-18.4726 806.824,-17.1578"/>
<polygon fill="midnightblue" stroke="midnightblue" points="589.734,-18.1737 579.809,-21.8811 589.88,-25.1722 589.734,-18.1737"/>
</g>
<!-- Node9 -->
<g id="node9" class="node"><title>Node9</title>
<g id="a_node9"><a xlink:href="../../da/dc2/generic__networkhandler_8h.html#a2f01af81d3e5018d9980e2bc28c9078a" target="_top" xlink:title="NetworkHandlerProcessOnce">
<polygon fill="none" stroke="black" points="1168,-42 1168,-61 1314,-61 1314,-42 1168,-42"/>
<text text-anchor="middle" x="1241" y="-49" font-family="Helvetica,sans-Serif" font-size="10.00">NetworkHandlerProcessOnce</text>
</a>
</g>
</g>
<!-- Node8&#45;&gt;Node9 -->
<g id="edge8" class="edge"><title>Node8&#45;&gt;Node9</title>
<path fill="none" stroke="midnightblue" d="M978.46,-19.5334C1024.49,-22.1663 1081.36,-26.2949 1132,-32.5 1151.75,-34.9196 1173.37,-38.5298 1192.04,-41.9554"/>
<polygon fill="midnightblue" stroke="midnightblue" points="978.388,-16.024 968.209,-18.9614 977.998,-23.0132 978.388,-16.024"/>
</g>
<!-- Node9&#45;&gt;Node3 -->
<g id="edge9" class="edge"><title>Node9&#45;&gt;Node3</title>
<path fill="none" stroke="midnightblue" d="M1274.98,-64.8342C1302.95,-76.1411 1342.04,-91.9415 1364.72,-101.109"/>
<polygon fill="midnightblue" stroke="midnightblue" points="1276.18,-61.5436 1265.6,-61.0405 1273.56,-68.0334 1276.18,-61.5436"/>
</g>
<!-- Node10 -->
<g id="node10" class="node"><title>Node10</title>
<g id="a_node10"><a xlink:href="../../d9/dfb/POSIX_2main_8c.html#acd4e45a35a64f9cb29b59f63492b61d2" target="_top" xlink:title="Signal handler function for ending stack execution. ">
<polygon fill="none" stroke="black" points="1350,-42 1350,-61 1418,-61 1418,-42 1350,-42"/>
<text text-anchor="middle" x="1384" y="-49" font-family="Helvetica,sans-Serif" font-size="10.00">LeaveStack</text>
</a>
</g>
</g>
<!-- Node9&#45;&gt;Node10 -->
<g id="edge10" class="edge"><title>Node9&#45;&gt;Node10</title>
<path fill="none" stroke="midnightblue" d="M1324.33,-51.5C1333.28,-51.5 1341.96,-51.5 1349.79,-51.5"/>
<polygon fill="midnightblue" stroke="midnightblue" points="1324.15,-48.0001 1314.15,-51.5 1324.15,-55.0001 1324.15,-48.0001"/>
</g>
<!-- Node12 -->
<g id="node12" class="node"><title>Node12</title>
<g id="a_node12"><a xlink:href="../../d2/dbd/encap_8c.html#a49dc585614f655a5b313150a01fd7221" target="_top" xlink:title="Call Connection Manager. ">
<polygon fill="none" stroke="black" points="621,-57.5 621,-87.5 771,-87.5 771,-57.5 621,-57.5"/>
<text text-anchor="start" x="629" y="-75.5" font-family="Helvetica,sans-Serif" font-size="10.00">HandleReceivedSendUnitData</text>
<text text-anchor="middle" x="696" y="-64.5" font-family="Helvetica,sans-Serif" font-size="10.00">Command</text>
</a>
</g>
</g>
<!-- Node11&#45;&gt;Node12 -->
<g id="edge12" class="edge"><title>Node11&#45;&gt;Node12</title>
<path fill="none" stroke="midnightblue" d="M591.721,-72.5C601.467,-72.5 611.305,-72.5 620.836,-72.5"/>
<polygon fill="midnightblue" stroke="midnightblue" points="591.615,-69.0001 581.615,-72.5 591.615,-76.0001 591.615,-69.0001"/>
</g>
<!-- Node13 -->
<g id="node13" class="node"><title>Node13</title>
<g id="a_node13"><a xlink:href="../../d2/dc9/group__CIP__API.html#ga4b8ec8e9b8a1dd71e84f2ea54e1c2b2d" target="_top" xlink:title="Notify the encapsulation layer that an explicit message has been received via TCP. ">
<polygon fill="none" stroke="black" points="809.5,-63 809.5,-82 965.5,-82 965.5,-63 809.5,-63"/>
<text text-anchor="middle" x="887.5" y="-70" font-family="Helvetica,sans-Serif" font-size="10.00">HandleReceivedExplictTcpData</text>
</a>
</g>
</g>
<!-- Node12&#45;&gt;Node13 -->
<g id="edge13" class="edge"><title>Node12&#45;&gt;Node13</title>
<path fill="none" stroke="midnightblue" d="M781.179,-72.5C790.553,-72.5 800.067,-72.5 809.348,-72.5"/>
<polygon fill="midnightblue" stroke="midnightblue" points="781.08,-69.0001 771.08,-72.5 781.08,-76.0001 781.08,-69.0001"/>
</g>
<!-- Node14 -->
<g id="node14" class="node"><title>Node14</title>
<g id="a_node14"><a xlink:href="../../d4/d91/group__ENCAP.html#ga7a0dc2be6c485d9e6940d5b20a981022" target="_top" xlink:title="Initialize the encapsulation layer. ">
<polygon fill="none" stroke="black" points="1022,-80 1022,-99 1114,-99 1114,-80 1022,-80"/>
<text text-anchor="middle" x="1068" y="-87" font-family="Helvetica,sans-Serif" font-size="10.00">EncapsulationInit</text>
</a>
</g>
</g>
<!-- Node13&#45;&gt;Node14 -->
<g id="edge14" class="edge"><title>Node13&#45;&gt;Node14</title>
<path fill="none" stroke="midnightblue" d="M976.117,-80.8445C991.932,-82.3507 1007.82,-83.8635 1021.78,-85.1934"/>
<polygon fill="midnightblue" stroke="midnightblue" points="976.041,-77.3215 965.755,-79.8576 975.378,-84.29 976.041,-77.3215"/>
</g>
<!-- Node16 -->
<g id="node16" class="node"><title>Node16</title>
<g id="a_node16"><a xlink:href="../../db/d4f/generic__networkhandler_8c.html#aca5593b7dd39d7a7b437999a367102d6" target="_top" xlink:title="Handles data on an established TCP connection, processed connection is given by socket. ">
<polygon fill="none" stroke="black" points="1004,-42 1004,-61 1132,-61 1132,-42 1004,-42"/>
<text text-anchor="middle" x="1068" y="-49" font-family="Helvetica,sans-Serif" font-size="10.00">HandleDataOnTcpSocket</text>
</a>
</g>
</g>
<!-- Node13&#45;&gt;Node16 -->
<g id="edge17" class="edge"><title>Node13&#45;&gt;Node16</title>
<path fill="none" stroke="midnightblue" d="M975.941,-62.2128C985.357,-61.1051 994.799,-59.9942 1003.85,-58.9296"/>
<polygon fill="midnightblue" stroke="midnightblue" points="975.277,-58.7667 965.755,-63.4112 976.095,-65.7188 975.277,-58.7667"/>
</g>
<!-- Node15 -->
<g id="node15" class="node"><title>Node15</title>
<g id="a_node15"><a xlink:href="../../d2/dc9/group__CIP__API.html#ga5d4979945d124e28668b264c3823db1c" target="_top" xlink:title="Initialize and setup the CIP&#45;stack. ">
<polygon fill="none" stroke="black" points="1205.5,-99 1205.5,-118 1276.5,-118 1276.5,-99 1205.5,-99"/>
<text text-anchor="middle" x="1241" y="-106" font-family="Helvetica,sans-Serif" font-size="10.00">CipStackInit</text>
</a>
</g>
</g>
<!-- Node14&#45;&gt;Node15 -->
<g id="edge15" class="edge"><title>Node14&#45;&gt;Node15</title>
<path fill="none" stroke="midnightblue" d="M1124.33,-95.6478C1150.94,-98.6047 1182.03,-102.059 1205.27,-104.641"/>
<polygon fill="midnightblue" stroke="midnightblue" points="1124.7,-92.1676 1114.38,-94.5418 1123.93,-99.1248 1124.7,-92.1676"/>
</g>
<!-- Node15&#45;&gt;Node3 -->
<g id="edge16" class="edge"><title>Node15&#45;&gt;Node3</title>
<path fill="none" stroke="midnightblue" d="M1287.03,-108.5C1313.43,-108.5 1345.33,-108.5 1364.89,-108.5"/>
<polygon fill="midnightblue" stroke="midnightblue" points="1286.85,-105 1276.85,-108.5 1286.85,-112 1286.85,-105"/>
</g>
<!-- Node16&#45;&gt;Node9 -->
<g id="edge18" class="edge"><title>Node16&#45;&gt;Node9</title>
<path fill="none" stroke="midnightblue" d="M1142.38,-51.5C1150.82,-51.5 1159.42,-51.5 1167.84,-51.5"/>
<polygon fill="midnightblue" stroke="midnightblue" points="1142.19,-48.0001 1132.19,-51.5 1142.19,-55.0001 1142.19,-48.0001"/>
</g>
<!-- Node17&#45;&gt;Node7 -->
<g id="edge20" class="edge"><title>Node17&#45;&gt;Node7</title>
<path fill="none" stroke="midnightblue" d="M382.936,-23.5C395.957,-23.5 409.401,-23.5 422.332,-23.5"/>
<polygon fill="midnightblue" stroke="midnightblue" points="382.602,-20.0001 372.602,-23.5 382.602,-27.0001 382.602,-20.0001"/>
</g>
<!-- Node18&#45;&gt;Node2 -->
<g id="edge22" class="edge"><title>Node18&#45;&gt;Node2</title>
<path fill="none" stroke="midnightblue" d="M379.281,-138.741C405.753,-144.609 434.364,-150.951 457.086,-155.988"/>
<polygon fill="midnightblue" stroke="midnightblue" points="379.778,-135.266 369.257,-136.519 378.263,-142.1 379.778,-135.266"/>
</g>
<!-- Node19 -->
<g id="node19" class="node"><title>Node19</title>
<g id="a_node19"><a xlink:href="../../d1/d6c/cipconnectionobject_8h.html#ad1ae63909621ed91670ae33862edd214" target="_top" xlink:title="ConnectionObjectInitialize\lFromMessage">
<polygon fill="none" stroke="black" points="435.5,-106.5 435.5,-136.5 566.5,-136.5 566.5,-106.5 435.5,-106.5"/>
<text text-anchor="start" x="443.5" y="-124.5" font-family="Helvetica,sans-Serif" font-size="10.00">ConnectionObjectInitialize</text>
<text text-anchor="middle" x="501" y="-113.5" font-family="Helvetica,sans-Serif" font-size="10.00">FromMessage</text>
</a>
</g>
</g>
<!-- Node18&#45;&gt;Node19 -->
<g id="edge23" class="edge"><title>Node18&#45;&gt;Node19</title>
<path fill="none" stroke="midnightblue" d="M385.91,-121.5C402.458,-121.5 419.568,-121.5 435.346,-121.5"/>
<polygon fill="midnightblue" stroke="midnightblue" points="385.696,-118 375.696,-121.5 385.696,-125 385.696,-118"/>
</g>
<!-- Node20 -->
<g id="node20" class="node"><title>Node20</title>
<g id="a_node20"><a xlink:href="../../d5/d35/cipconnectionmanager_8c.html#a33a14c8e6fffa6b91e839167cc39319b" target="_top" xlink:title="Check if resources for new connection available, generate ForwardOpen Reply message. ">
<polygon fill="none" stroke="black" points="658.5,-114 658.5,-133 733.5,-133 733.5,-114 658.5,-114"/>
<text text-anchor="middle" x="696" y="-121" font-family="Helvetica,sans-Serif" font-size="10.00">ForwardOpen</text>
</a>
</g>
</g>
<!-- Node19&#45;&gt;Node20 -->
<g id="edge24" class="edge"><title>Node19&#45;&gt;Node20</title>
<path fill="none" stroke="midnightblue" d="M576.721,-122.274C604.738,-122.565 635.339,-122.882 658.395,-123.121"/>
<polygon fill="midnightblue" stroke="midnightblue" points="576.57,-118.773 566.535,-122.169 576.498,-125.772 576.57,-118.773"/>
</g>
<!-- Node21 -->
<g id="node21" class="node"><title>Node21</title>
<g id="a_node21"><a xlink:href="../../d2/da3/cipconnectionmanager_8h.html#a5ab0de6894d23e8fe84a6b46797c2212" target="_top" xlink:title="Initialize the data of the connection manager object. ">
<polygon fill="none" stroke="black" points="1009.5,-118 1009.5,-137 1126.5,-137 1126.5,-118 1009.5,-118"/>
<text text-anchor="middle" x="1068" y="-125" font-family="Helvetica,sans-Serif" font-size="10.00">ConnectionManagerInit</text>
</a>
</g>
</g>
<!-- Node20&#45;&gt;Node21 -->
<g id="edge25" class="edge"><title>Node20&#45;&gt;Node21</title>
<path fill="none" stroke="midnightblue" d="M744.18,-124.01C811.808,-124.741 936.184,-126.086 1009.23,-126.875"/>
<polygon fill="midnightblue" stroke="midnightblue" points="743.867,-120.507 733.83,-123.898 743.791,-127.506 743.867,-120.507"/>
</g>
<!-- Node21&#45;&gt;Node15 -->
<g id="edge26" class="edge"><title>Node21&#45;&gt;Node15</title>
<path fill="none" stroke="midnightblue" d="M1137.14,-119.929C1160.54,-117.329 1185.76,-114.527 1205.36,-112.349"/>
<polygon fill="midnightblue" stroke="midnightblue" points="1136.45,-116.484 1126.89,-121.067 1137.22,-123.442 1136.45,-116.484"/>
</g>
</g>
</svg>
