<?xml version="1.0" encoding="UTF-8" standalone="no"?>
<!DOCTYPE svg PUBLIC "-//W3C//DTD SVG 1.1//EN"
 "http://www.w3.org/Graphics/SVG/1.1/DTD/svg11.dtd">
<!-- Generated by graphviz version 2.38.0 (20140413.2041)
 -->
<!-- Title: ConnectionObjectGetExpectedPacketRate Pages: 1 -->
<svg width="815pt" height="66pt"
 viewBox="0.00 0.00 815.00 66.00" xmlns="http://www.w3.org/2000/svg" xmlns:xlink="http://www.w3.org/1999/xlink">
<g id="graph0" class="graph" transform="scale(1 1) rotate(0) translate(4 62)">
<title>ConnectionObjectGetExpectedPacketRate</title>
<!-- Node1 -->
<g id="node1" class="node"><title>Node1</title>
<polygon fill="#bfbfbf" stroke="black" points="0,-14 0,-44 152,-44 152,-14 0,-14"/>
<text text-anchor="start" x="8" y="-32" font-family="Helvetica,sans-Serif" font-size="10.00">ConnectionObjectGetExpected</text>
<text text-anchor="middle" x="76" y="-21" font-family="Helvetica,sans-Serif" font-size="10.00">PacketRate</text>
</g>
<!-- Node2 -->
<g id="node2" class="node"><title>Node2</title>
<g id="a_node2"><a xlink:href="../../d2/dc9/group__CIP__API.html#ga9f57b09260efb5bfb188b9d0ca0c6091" target="_top" xlink:title="Check if any of the connection timers (TransmissionTrigger or WatchdogTimeout) have timed out...">
<polygon fill="none" stroke="black" points="188,-19.5 188,-38.5 294,-38.5 294,-19.5 188,-19.5"/>
<text text-anchor="middle" x="241" y="-26.5" font-family="Helvetica,sans-Serif" font-size="10.00">ManageConnections</text>
</a>
</g>
</g>
<!-- Node1&#45;&gt;Node2 -->
<g id="edge1" class="edge"><title>Node1&#45;&gt;Node2</title>
<path fill="none" stroke="midnightblue" d="M162.452,-29C171.099,-29 179.686,-29 187.823,-29"/>
<polygon fill="midnightblue" stroke="midnightblue" points="162.297,-25.5001 152.297,-29 162.297,-32.5001 162.297,-25.5001"/>
</g>
<!-- Node3 -->
<g id="node3" class="node"><title>Node3</title>
<g id="a_node3"><a xlink:href="../../da/dc2/generic__networkhandler_8h.html#a2f01af81d3e5018d9980e2bc28c9078a" target="_top" xlink:title="NetworkHandlerProcessOnce">
<polygon fill="none" stroke="black" points="330,-19.5 330,-38.5 476,-38.5 476,-19.5 330,-19.5"/>
<text text-anchor="middle" x="403" y="-26.5" font-family="Helvetica,sans-Serif" font-size="10.00">NetworkHandlerProcessOnce</text>
</a>
</g>
</g>
<!-- Node2&#45;&gt;Node3 -->
<g id="edge2" class="edge"><title>Node2&#45;&gt;Node3</title>
<path fill="none" stroke="midnightblue" d="M304.649,-29C312.878,-29 321.365,-29 329.738,-29"/>
<polygon fill="midnightblue" stroke="midnightblue" points="304.39,-25.5001 294.39,-29 304.39,-32.5001 304.39,-25.5001"/>
</g>
<!-- Node4 -->
<g id="node4" class="node"><title>Node4</title>
<g id="a_node4"><a xlink:href="../../d5/dcb/MINGW_2main_8c.html#ad338a7dbc41dc40bcecd0479377ef207" target="_top" xlink:title="main">
<polygon fill="none" stroke="black" points="527,-38.5 527,-57.5 565,-57.5 565,-38.5 527,-38.5"/>
<text text-anchor="middle" x="546" y="-45.5" font-family="Helvetica,sans-Serif" font-size="10.00">main</text>
</a>
</g>
</g>
<!-- Node3&#45;&gt;Node4 -->
<g id="edge3" class="edge"><title>Node3&#45;&gt;Node4</title>
<path fill="none" stroke="midnightblue" d="M484.851,-39.8949C500.712,-42.0322 515.859,-44.0731 526.984,-45.5724"/>
<polygon fill="midnightblue" stroke="midnightblue" points="485.291,-36.4225 474.913,-38.5557 484.356,-43.3598 485.291,-36.4225"/>
</g>
<!-- Node7 -->
<g id="node7" class="node"><title>Node7</title>
<g id="a_node7"><a xlink:href="../../d9/dfb/POSIX_2main_8c.html#acd4e45a35a64f9cb29b59f63492b61d2" target="_top" xlink:title="Signal handler function for ending stack execution. ">
<polygon fill="none" stroke="black" points="512,-0.5 512,-19.5 580,-19.5 580,-0.5 512,-0.5"/>
<text text-anchor="middle" x="546" y="-7.5" font-family="Helvetica,sans-Serif" font-size="10.00">LeaveStack</text>
</a>
</g>
</g>
<!-- Node3&#45;&gt;Node7 -->
<g id="edge6" class="edge"><title>Node3&#45;&gt;Node7</title>
<path fill="none" stroke="midnightblue" d="M484.851,-18.1051C494.328,-16.8281 503.55,-15.5855 511.811,-14.4723"/>
<polygon fill="midnightblue" stroke="midnightblue" points="484.356,-14.6402 474.913,-19.4443 485.291,-21.5775 484.356,-14.6402"/>
</g>
<!-- Node5 -->
<g id="node5" class="node"><title>Node5</title>
<g id="a_node5"><a xlink:href="../../d8/d03/ports_2MINGW_2CMakeLists_8txt.html#a7e00df43a20d627a1732be7766d91097" target="_top" xlink:title="add_library">
<polygon fill="none" stroke="black" points="616,-38.5 616,-57.5 680,-57.5 680,-38.5 616,-38.5"/>
<text text-anchor="middle" x="648" y="-45.5" font-family="Helvetica,sans-Serif" font-size="10.00">add_library</text>
</a>
</g>
</g>
<!-- Node4&#45;&gt;Node5 -->
<g id="edge4" class="edge"><title>Node4&#45;&gt;Node5</title>
<path fill="none" stroke="midnightblue" d="M575.697,-48C588.244,-48 602.992,-48 615.809,-48"/>
<polygon fill="midnightblue" stroke="midnightblue" points="575.342,-44.5001 565.342,-48 575.342,-51.5001 575.342,-44.5001"/>
</g>
<!-- Node6 -->
<g id="node6" class="node"><title>Node6</title>
<g id="a_node6"><a xlink:href="../../d8/dce/ports_2CMakeLists_8txt.html#a598fae457555a5fb26e18d4cd8f89de9" target="_top" xlink:title="add_subdirectory">
<polygon fill="none" stroke="black" points="716,-38.5 716,-57.5 807,-57.5 807,-38.5 716,-38.5"/>
<text text-anchor="middle" x="761.5" y="-45.5" font-family="Helvetica,sans-Serif" font-size="10.00">add_subdirectory</text>
</a>
</g>
</g>
<!-- Node5&#45;&gt;Node6 -->
<g id="edge5" class="edge"><title>Node5&#45;&gt;Node6</title>
<path fill="none" stroke="midnightblue" d="M690.3,-48C698.629,-48 707.419,-48 715.856,-48"/>
<polygon fill="midnightblue" stroke="midnightblue" points="690.059,-44.5001 680.059,-48 690.059,-51.5001 690.059,-44.5001"/>
</g>
</g>
</svg>
