<?xml version="1.0" encoding="UTF-8" standalone="no"?>
<!DOCTYPE svg PUBLIC "-//W3C//DTD SVG 1.1//EN"
 "http://www.w3.org/Graphics/SVG/1.1/DTD/svg11.dtd">
<!-- Generated by graphviz version 2.38.0 (20140413.2041)
 -->
<!-- Title: ConnectionObjectGetInstanceType Pages: 1 -->
<!--zoomable 133 -->
<svg id="main" version="1.1" xmlns="http://www.w3.org/2000/svg" xmlns:xlink="http://www.w3.org/1999/xlink" xml:space="preserve" onload="init(evt)">
<style type="text/css"><![CDATA[
.edge:hover path { stroke: red; }
.edge:hover polygon { stroke: red; fill: red; }
]]></style>
<script type="text/javascript"><![CDATA[
var edges = document.getElementsByTagName('g');
if (edges && edges.length) {
  for (var i=0;i<edges.length;i++) {
    if (edges[i].id.substr(0,4)=='edge') {
      edges[i].setAttribute('class','edge');
    }
  }
}
]]></script>
        <defs>
                <circle id="rim" cx="0" cy="0" r="7"/>
                <circle id="rim2" cx="0" cy="0" r="3.5"/>
                <g id="zoomPlus">
                        <use xlink:href="#rim" fill="#404040">
                                <set attributeName="fill" to="#808080" begin="zoomplus.mouseover" end="zoomplus.mouseout"/>
                        </use>
                        <path d="M-4,0h8M0,-4v8" fill="none" stroke="white" stroke-width="1.5" pointer-events="none"/>
                </g>
                <g id="zoomMin">
                        <use xlink:href="#rim" fill="#404040">
                                <set attributeName="fill" to="#808080" begin="zoomminus.mouseover" end="zoomminus.mouseout"/>
                        </use>
                        <path d="M-4,0h8" fill="none" stroke="white" stroke-width="1.5" pointer-events="none"/>
                </g>
                <g id="dirArrow">
                        <path fill="none" stroke="white" stroke-width="1.5" d="M0,-3.0v7 M-2.5,-0.5L0,-3.0L2.5,-0.5"/>
                </g>
               <g id="resetDef">
                       <use xlink:href="#rim2" fill="#404040">
                               <set attributeName="fill" to="#808080" begin="reset.mouseover" end="reset.mouseout"/>
                       </use>
               </g>
        </defs>

<script type="text/javascript">
var viewWidth = 1478;
var viewHeight = 133;
var sectionId = 'dynsection-14';
</script>
<script xlink:href="../../svgpan.js"/>
<svg id="graph" class="graph">
<g id="viewport">
<title>ConnectionObjectGetInstanceType</title>
<!-- Node1 -->
<g id="node1" class="node"><title>Node1</title>
<polygon fill="#bfbfbf" stroke="black" points="0,-60.5 0,-79.5 170,-79.5 170,-60.5 0,-60.5"/>
<text text-anchor="middle" x="85" y="-67.5" font-family="Helvetica,sans-Serif" font-size="10.00">ConnectionObjectGetInstanceType</text>
</g>
<!-- Node2 -->
<g id="node2" class="node"><title>Node2</title>
<g id="a_node2"><a xlink:href="../../d1/dc0/appcontype_8h.html#a333e40601eebad73b0ab423de6c0bd8c" target="_top" xlink:title="Close all connection producing the same input and have the same type (i.e., listen only or input only...">
<polygon fill="none" stroke="black" points="210,-77 210,-107 354,-107 354,-77 210,-77"/>
<text text-anchor="start" x="218" y="-95" font-family="Helvetica,sans-Serif" font-size="10.00">CloseAllConnectionsForInput</text>
<text text-anchor="middle" x="282" y="-84" font-family="Helvetica,sans-Serif" font-size="10.00">WithSameType</text>
</a>
</g>
</g>
<!-- Node1&#45;&gt;Node2 -->
<g id="edge1" class="edge"><title>Node1&#45;&gt;Node2</title>
<path fill="none" stroke="midnightblue" d="M180.055,-80.6113C190.029,-81.7366 200.052,-82.8674 209.704,-83.9563"/>
<polygon fill="midnightblue" stroke="midnightblue" points="180.442,-77.1329 170.112,-79.4896 179.657,-84.0887 180.442,-77.1329"/>
</g>
<!-- Node3 -->
<g id="node3" class="node"><title>Node3</title>
<g id="a_node3"><a xlink:href="../../df/d03/cipioconnection_8c.html#a730b410a0cdbc6a456973c0e51568968" target="_top" xlink:title="CloseIoConnection">
<polygon fill="none" stroke="black" points="420.5,-82.5 420.5,-101.5 520.5,-101.5 520.5,-82.5 420.5,-82.5"/>
<text text-anchor="middle" x="470.5" y="-89.5" font-family="Helvetica,sans-Serif" font-size="10.00">CloseIoConnection</text>
</a>
</g>
</g>
<!-- Node1&#45;&gt;Node3 -->
<g id="edge12" class="edge"><title>Node1&#45;&gt;Node3</title>
<path fill="none" stroke="midnightblue" d="M113.166,-84.031C136.936,-95.4704 172.764,-110.723 206,-117 272.382,-129.536 290.855,-124.435 358,-117 384.619,-114.052 414.17,-107.261 436.159,-101.5"/>
<polygon fill="midnightblue" stroke="midnightblue" points="114.585,-80.8282 104.067,-79.5534 111.494,-87.109 114.585,-80.8282"/>
</g>
<!-- Node11 -->
<g id="node11" class="node"><title>Node11</title>
<g id="a_node11"><a xlink:href="../../df/d03/cipioconnection_8c.html#a7e4923f4b027d489d9933b52f6fd7007" target="_top" xlink:title="HandleIoConnectionTimeOut">
<polygon fill="none" stroke="black" points="399,-42.5 399,-61.5 542,-61.5 542,-42.5 399,-42.5"/>
<text text-anchor="middle" x="470.5" y="-49.5" font-family="Helvetica,sans-Serif" font-size="10.00">HandleIoConnectionTimeOut</text>
</a>
</g>
</g>
<!-- Node1&#45;&gt;Node11 -->
<g id="edge17" class="edge"><title>Node1&#45;&gt;Node11</title>
<path fill="none" stroke="midnightblue" d="M180.376,-65.5704C247.876,-62.4022 337.29,-58.2054 398.714,-55.3224"/>
<polygon fill="midnightblue" stroke="midnightblue" points="179.986,-62.0847 170.161,-66.0498 180.314,-69.077 179.986,-62.0847"/>
</g>
<!-- Node12 -->
<g id="node12" class="node"><title>Node12</title>
<g id="a_node12"><a xlink:href="../../d2/da3/cipconnectionmanager_8h.html#af9229054795bce595b5aa0385fede004" target="_top" xlink:title="GetConnectedOutputAssembly">
<polygon fill="none" stroke="black" points="206,-0.5 206,-19.5 358,-19.5 358,-0.5 206,-0.5"/>
<text text-anchor="middle" x="282" y="-7.5" font-family="Helvetica,sans-Serif" font-size="10.00">GetConnectedOutputAssembly</text>
</a>
</g>
</g>
<!-- Node1&#45;&gt;Node12 -->
<g id="edge13" class="edge"><title>Node1&#45;&gt;Node12</title>
<path fill="none" stroke="midnightblue" d="M126.78,-57.4523C163.466,-46.1644 216.576,-29.8227 249.924,-19.5618"/>
<polygon fill="midnightblue" stroke="midnightblue" points="125.427,-54.2067 116.898,-60.4928 127.485,-60.8971 125.427,-54.2067"/>
</g>
<!-- Node2&#45;&gt;Node3 -->
<g id="edge2" class="edge"><title>Node2&#45;&gt;Node3</title>
<path fill="none" stroke="midnightblue" d="M364.259,-92C383.371,-92 403.166,-92 420.361,-92"/>
<polygon fill="midnightblue" stroke="midnightblue" points="364.04,-88.5001 354.04,-92 364.04,-95.5001 364.04,-88.5001"/>
</g>
<!-- Node2&#45;&gt;Node11 -->
<g id="edge10" class="edge"><title>Node2&#45;&gt;Node11</title>
<path fill="none" stroke="midnightblue" d="M363.003,-74.8411C384.295,-70.2745 406.527,-65.5062 425.138,-61.5147"/>
<polygon fill="midnightblue" stroke="midnightblue" points="362.02,-71.4723 352.976,-76.9917 363.488,-78.3167 362.02,-71.4723"/>
</g>
<!-- Node4 -->
<g id="node4" class="node"><title>Node4</title>
<g id="a_node4"><a xlink:href="../../df/d03/cipioconnection_8c.html#ab3282f146a3ea91c90cf14c32206ee8c" target="_top" xlink:title="SetIoConnectionCallbacks">
<polygon fill="none" stroke="black" points="604,-42.5 604,-61.5 737,-61.5 737,-42.5 604,-42.5"/>
<text text-anchor="middle" x="670.5" y="-49.5" font-family="Helvetica,sans-Serif" font-size="10.00">SetIoConnectionCallbacks</text>
</a>
</g>
</g>
<!-- Node3&#45;&gt;Node4 -->
<g id="edge3" class="edge"><title>Node3&#45;&gt;Node4</title>
<path fill="none" stroke="midnightblue" d="M528.502,-80.4844C558.242,-74.4763 594.19,-67.2142 622.344,-61.5264"/>
<polygon fill="midnightblue" stroke="midnightblue" points="527.783,-77.0589 518.674,-82.4698 529.169,-83.9202 527.783,-77.0589"/>
</g>
<!-- Node5 -->
<g id="node5" class="node"><title>Node5</title>
<g id="a_node5"><a xlink:href="../../de/d45/cipioconnection_8h.html#a43e270b3f9b9f6296b12285c320c95aa" target="_top" xlink:title="Setup all data in order to establish an IO connection. ">
<polygon fill="none" stroke="black" points="794,-22.5 794,-41.5 909,-41.5 909,-22.5 794,-22.5"/>
<text text-anchor="middle" x="851.5" y="-29.5" font-family="Helvetica,sans-Serif" font-size="10.00">EstablishIoConnection</text>
</a>
</g>
</g>
<!-- Node4&#45;&gt;Node5 -->
<g id="edge4" class="edge"><title>Node4&#45;&gt;Node5</title>
<path fill="none" stroke="midnightblue" d="M747.264,-43.5348C762.83,-41.7956 778.964,-39.9929 793.721,-38.344"/>
<polygon fill="midnightblue" stroke="midnightblue" points="746.686,-40.0775 737.137,-44.6663 747.463,-47.0342 746.686,-40.0775"/>
</g>
<!-- Node6 -->
<g id="node6" class="node"><title>Node6</title>
<g id="a_node6"><a xlink:href="../../d2/da3/cipconnectionmanager_8h.html#a5ab0de6894d23e8fe84a6b46797c2212" target="_top" xlink:title="Initialize the data of the connection manager object. ">
<polygon fill="none" stroke="black" points="945,-22.5 945,-41.5 1062,-41.5 1062,-22.5 945,-22.5"/>
<text text-anchor="middle" x="1003.5" y="-29.5" font-family="Helvetica,sans-Serif" font-size="10.00">ConnectionManagerInit</text>
</a>
</g>
</g>
<!-- Node5&#45;&gt;Node6 -->
<g id="edge5" class="edge"><title>Node5&#45;&gt;Node6</title>
<path fill="none" stroke="midnightblue" d="M919.408,-32C927.85,-32 936.43,-32 944.714,-32"/>
<polygon fill="midnightblue" stroke="midnightblue" points="919.209,-28.5001 909.209,-32 919.209,-35.5001 919.209,-28.5001"/>
</g>
<!-- Node7 -->
<g id="node7" class="node"><title>Node7</title>
<g id="a_node7"><a xlink:href="../../d2/dc9/group__CIP__API.html#ga5d4979945d124e28668b264c3823db1c" target="_top" xlink:title="Initialize and setup the CIP&#45;stack. ">
<polygon fill="none" stroke="black" points="1098,-22.5 1098,-41.5 1169,-41.5 1169,-22.5 1098,-22.5"/>
<text text-anchor="middle" x="1133.5" y="-29.5" font-family="Helvetica,sans-Serif" font-size="10.00">CipStackInit</text>
</a>
</g>
</g>
<!-- Node6&#45;&gt;Node7 -->
<g id="edge6" class="edge"><title>Node6&#45;&gt;Node7</title>
<path fill="none" stroke="midnightblue" d="M1072.18,-32C1081.08,-32 1089.88,-32 1097.9,-32"/>
<polygon fill="midnightblue" stroke="midnightblue" points="1072.13,-28.5001 1062.13,-32 1072.13,-35.5001 1072.13,-28.5001"/>
</g>
<!-- Node8 -->
<g id="node8" class="node"><title>Node8</title>
<g id="a_node8"><a xlink:href="../../d5/dcb/MINGW_2main_8c.html#ad338a7dbc41dc40bcecd0479377ef207" target="_top" xlink:title="main">
<polygon fill="none" stroke="black" points="1205,-22.5 1205,-41.5 1243,-41.5 1243,-22.5 1205,-22.5"/>
<text text-anchor="middle" x="1224" y="-29.5" font-family="Helvetica,sans-Serif" font-size="10.00">main</text>
</a>
</g>
</g>
<!-- Node7&#45;&gt;Node8 -->
<g id="edge7" class="edge"><title>Node7&#45;&gt;Node8</title>
<path fill="none" stroke="midnightblue" d="M1179.38,-32C1188.44,-32 1197.45,-32 1204.92,-32"/>
<polygon fill="midnightblue" stroke="midnightblue" points="1179.22,-28.5001 1169.22,-32 1179.22,-35.5001 1179.22,-28.5001"/>
</g>
<!-- Node9 -->
<g id="node9" class="node"><title>Node9</title>
<g id="a_node9"><a xlink:href="../../d8/d03/ports_2MINGW_2CMakeLists_8txt.html#a7e00df43a20d627a1732be7766d91097" target="_top" xlink:title="add_library">
<polygon fill="none" stroke="black" points="1279,-22.5 1279,-41.5 1343,-41.5 1343,-22.5 1279,-22.5"/>
<text text-anchor="middle" x="1311" y="-29.5" font-family="Helvetica,sans-Serif" font-size="10.00">add_library</text>
</a>
</g>
</g>
<!-- Node8&#45;&gt;Node9 -->
<g id="edge8" class="edge"><title>Node8&#45;&gt;Node9</title>
<path fill="none" stroke="midnightblue" d="M1253.27,-32C1261.5,-32 1270.55,-32 1278.94,-32"/>
<polygon fill="midnightblue" stroke="midnightblue" points="1253.03,-28.5001 1243.03,-32 1253.03,-35.5001 1253.03,-28.5001"/>
</g>
<!-- Node10 -->
<g id="node10" class="node"><title>Node10</title>
<g id="a_node10"><a xlink:href="../../d8/dce/ports_2CMakeLists_8txt.html#a598fae457555a5fb26e18d4cd8f89de9" target="_top" xlink:title="add_subdirectory">
<polygon fill="none" stroke="black" points="1379,-22.5 1379,-41.5 1470,-41.5 1470,-22.5 1379,-22.5"/>
<text text-anchor="middle" x="1424.5" y="-29.5" font-family="Helvetica,sans-Serif" font-size="10.00">add_subdirectory</text>
</a>
</g>
</g>
<!-- Node9&#45;&gt;Node10 -->
<g id="edge9" class="edge"><title>Node9&#45;&gt;Node10</title>
<path fill="none" stroke="midnightblue" d="M1353.3,-32C1361.63,-32 1370.42,-32 1378.86,-32"/>
<polygon fill="midnightblue" stroke="midnightblue" points="1353.06,-28.5001 1343.06,-32 1353.06,-35.5001 1353.06,-28.5001"/>
</g>
<!-- Node11&#45;&gt;Node4 -->
<g id="edge11" class="edge"><title>Node11&#45;&gt;Node4</title>
<path fill="none" stroke="midnightblue" d="M552.159,-52C569.347,-52 587.298,-52 603.843,-52"/>
<polygon fill="midnightblue" stroke="midnightblue" points="552.144,-48.5001 542.144,-52 552.144,-55.5001 552.144,-48.5001"/>
</g>
<!-- Node13 -->
<g id="node13" class="node"><title>Node13</title>
<g id="a_node13"><a xlink:href="../../d1/dbc/appcontype_8c.html#a0c46e6942d5dbb0cd7c9b1eb97e78aea" target="_top" xlink:title="Takes an ConnectionObject and searches and returns an Exclusive Owner Connection based on the Connect...">
<polygon fill="none" stroke="black" points="394,-1.5 394,-20.5 547,-20.5 547,-1.5 394,-1.5"/>
<text text-anchor="middle" x="470.5" y="-8.5" font-family="Helvetica,sans-Serif" font-size="10.00">GetExclusiveOwnerConnection</text>
</a>
</g>
</g>
<!-- Node12&#45;&gt;Node13 -->
<g id="edge14" class="edge"><title>Node12&#45;&gt;Node13</title>
<path fill="none" stroke="midnightblue" d="M368.121,-10.4564C376.752,-10.5027 385.476,-10.5495 393.996,-10.5952"/>
<polygon fill="midnightblue" stroke="midnightblue" points="368.069,-6.95618 358.051,-10.4024 368.032,-13.9561 368.069,-6.95618"/>
</g>
<!-- Node14 -->
<g id="node14" class="node"><title>Node14</title>
<g id="a_node14"><a xlink:href="../../d1/dc0/appcontype_8h.html#ab3a019a2217375c098345317da123323" target="_top" xlink:title="check if for the given connection data received in a forward_open request a suitable connection is av...">
<polygon fill="none" stroke="black" points="583,-3.5 583,-22.5 758,-22.5 758,-3.5 583,-3.5"/>
<text text-anchor="middle" x="670.5" y="-10.5" font-family="Helvetica,sans-Serif" font-size="10.00">GetIoConnectionForConnectionData</text>
</a>
</g>
</g>
<!-- Node13&#45;&gt;Node14 -->
<g id="edge15" class="edge"><title>Node13&#45;&gt;Node14</title>
<path fill="none" stroke="midnightblue" d="M557.431,-11.868C565.883,-11.9534 574.463,-12.04 582.922,-12.1255"/>
<polygon fill="midnightblue" stroke="midnightblue" points="557.238,-8.36596 547.203,-11.7647 557.167,-15.3656 557.238,-8.36596"/>
</g>
<!-- Node14&#45;&gt;Node5 -->
<g id="edge16" class="edge"><title>Node14&#45;&gt;Node5</title>
<path fill="none" stroke="midnightblue" d="M768.069,-23.2504C776.867,-24.1842 785.573,-25.1083 793.844,-25.9862"/>
<polygon fill="midnightblue" stroke="midnightblue" points="768.43,-19.7691 758.116,-22.1939 767.691,-26.73 768.43,-19.7691"/>
</g>
</g>
</svg>
        <g id="navigator" transform="translate(0 0)" fill="#404254">
                <rect fill="#f2f5e9" fill-opacity="0.5" stroke="#606060" stroke-width=".5" x="0" y="0" width="60" height="60"/>
                <use id="zoomplus" xlink:href="#zoomPlus" x="17" y="9" onmousedown="handleZoom(evt,'in')"/>
                <use id="zoomminus" xlink:href="#zoomMin" x="42" y="9" onmousedown="handleZoom(evt,'out')"/>
                <use id="reset" xlink:href="#resetDef" x="30" y="36" onmousedown="handleReset()"/>
                <g id="arrowUp" xlink:href="#dirArrow" transform="translate(30 24)" onmousedown="handlePan(0,-1)">
                  <use xlink:href="#rim" fill="#404040">
                        <set attributeName="fill" to="#808080" begin="arrowUp.mouseover" end="arrowUp.mouseout"/>
                  </use>
                  <path fill="none" stroke="white" stroke-width="1.5" d="M0,-3.0v7 M-2.5,-0.5L0,-3.0L2.5,-0.5"/>
                </g>
                <g id="arrowRight" xlink:href="#dirArrow" transform="rotate(90) translate(36 -43)" onmousedown="handlePan(1,0)">
                  <use xlink:href="#rim" fill="#404040">
                        <set attributeName="fill" to="#808080" begin="arrowRight.mouseover" end="arrowRight.mouseout"/>
                  </use>
                  <path fill="none" stroke="white" stroke-width="1.5" d="M0,-3.0v7 M-2.5,-0.5L0,-3.0L2.5,-0.5"/>
                </g>
                <g id="arrowDown" xlink:href="#dirArrow" transform="rotate(180) translate(-30 -48)" onmousedown="handlePan(0,1)">
                  <use xlink:href="#rim" fill="#404040">
                        <set attributeName="fill" to="#808080" begin="arrowDown.mouseover" end="arrowDown.mouseout"/>
                  </use>
                  <path fill="none" stroke="white" stroke-width="1.5" d="M0,-3.0v7 M-2.5,-0.5L0,-3.0L2.5,-0.5"/>
                </g>
                <g id="arrowLeft" xlink:href="#dirArrow" transform="rotate(270) translate(-36 17)" onmousedown="handlePan(-1,0)">
                  <use xlink:href="#rim" fill="#404040">
                        <set attributeName="fill" to="#808080" begin="arrowLeft.mouseover" end="arrowLeft.mouseout"/>
                  </use>
                  <path fill="none" stroke="white" stroke-width="1.5" d="M0,-3.0v7 M-2.5,-0.5L0,-3.0L2.5,-0.5"/>
                </g>
        </g>
        <svg viewBox="0 0 15 15" width="100%" height="30px" preserveAspectRatio="xMaxYMin meet">
         <g id="arrow_out" transform="scale(0.3 0.3)">
          <a xlink:href="cipconnectionobject_8c_a64d3a78bd3f520b632b04697bd0b2767_icgraph_org.svg" target="_base">
           <rect id="button" ry="5" rx="5" y="6" x="6" height="38" width="38"
                fill="#f2f5e9" fill-opacity="0.5" stroke="#606060" stroke-width="1.0"/>
           <path id="arrow"
             d="M 11.500037,31.436501 C 11.940474,20.09759 22.043105,11.32322 32.158766,21.979434 L 37.068811,17.246167 C 37.068811,17.246167 37.088388,32 37.088388,32 L 22.160133,31.978069 C 22.160133,31.978069 26.997745,27.140456 26.997745,27.140456 C 18.528582,18.264221 13.291696,25.230495 11.500037,31.436501 z"
             style="fill:#404040;"/>
          </a>
         </g>
        </svg>
</svg>
