<?xml version="1.0" encoding="UTF-8" standalone="no"?>
<!DOCTYPE svg PUBLIC "-//W3C//DTD SVG 1.1//EN"
 "http://www.w3.org/Graphics/SVG/1.1/DTD/svg11.dtd">
<!-- Generated by graphviz version 2.38.0 (20140413.2041)
 -->
<!-- Title: ConnectionObjectGetCipConsumedConnectionID Pages: 1 -->
<!--zoomable 83 -->
<svg id="main" version="1.1" xmlns="http://www.w3.org/2000/svg" xmlns:xlink="http://www.w3.org/1999/xlink" xml:space="preserve" onload="init(evt)">
<style type="text/css"><![CDATA[
.edge:hover path { stroke: red; }
.edge:hover polygon { stroke: red; fill: red; }
]]></style>
<script type="text/javascript"><![CDATA[
var edges = document.getElementsByTagName('g');
if (edges && edges.length) {
  for (var i=0;i<edges.length;i++) {
    if (edges[i].id.substr(0,4)=='edge') {
      edges[i].setAttribute('class','edge');
    }
  }
}
]]></script>
        <defs>
                <circle id="rim" cx="0" cy="0" r="7"/>
                <circle id="rim2" cx="0" cy="0" r="3.5"/>
                <g id="zoomPlus">
                        <use xlink:href="#rim" fill="#404040">
                                <set attributeName="fill" to="#808080" begin="zoomplus.mouseover" end="zoomplus.mouseout"/>
                        </use>
                        <path d="M-4,0h8M0,-4v8" fill="none" stroke="white" stroke-width="1.5" pointer-events="none"/>
                </g>
                <g id="zoomMin">
                        <use xlink:href="#rim" fill="#404040">
                                <set attributeName="fill" to="#808080" begin="zoomminus.mouseover" end="zoomminus.mouseout"/>
                        </use>
                        <path d="M-4,0h8" fill="none" stroke="white" stroke-width="1.5" pointer-events="none"/>
                </g>
                <g id="dirArrow">
                        <path fill="none" stroke="white" stroke-width="1.5" d="M0,-3.0v7 M-2.5,-0.5L0,-3.0L2.5,-0.5"/>
                </g>
               <g id="resetDef">
                       <use xlink:href="#rim2" fill="#404040">
                               <set attributeName="fill" to="#808080" begin="reset.mouseover" end="reset.mouseout"/>
                       </use>
               </g>
        </defs>

<script type="text/javascript">
var viewWidth = 1582;
var viewHeight = 83;
var sectionId = 'dynsection-9';
</script>
<script xlink:href="../../svgpan.js"/>
<svg id="graph" class="graph">
<g id="viewport">
<title>ConnectionObjectGetCipConsumedConnectionID</title>
<!-- Node1 -->
<g id="node1" class="node"><title>Node1</title>
<polygon fill="#bfbfbf" stroke="black" points="0,-22.5 0,-52.5 173,-52.5 173,-22.5 0,-22.5"/>
<text text-anchor="start" x="8" y="-40.5" font-family="Helvetica,sans-Serif" font-size="10.00">ConnectionObjectGetCipConsumed</text>
<text text-anchor="middle" x="86.5" y="-29.5" font-family="Helvetica,sans-Serif" font-size="10.00">ConnectionID</text>
</g>
<!-- Node2 -->
<g id="node2" class="node"><title>Node2</title>
<g id="a_node2"><a xlink:href="../../d2/da3/cipconnectionmanager_8h.html#aa7df2f5886cbdc0d960c98ee6f61caa6" target="_top" xlink:title="Get a connected object dependent on requested ConnectionID. ">
<polygon fill="none" stroke="black" points="209,-28 209,-47 317,-47 317,-28 209,-28"/>
<text text-anchor="middle" x="263" y="-35" font-family="Helvetica,sans-Serif" font-size="10.00">GetConnectedObject</text>
</a>
</g>
</g>
<!-- Node1&#45;&gt;Node2 -->
<g id="edge1" class="edge"><title>Node1&#45;&gt;Node2</title>
<path fill="none" stroke="midnightblue" d="M183.387,-37.5C192.023,-37.5 200.545,-37.5 208.611,-37.5"/>
<polygon fill="midnightblue" stroke="midnightblue" points="183.216,-34.0001 173.216,-37.5 183.216,-41.0001 183.216,-34.0001"/>
</g>
<!-- Node3 -->
<g id="node3" class="node"><title>Node3</title>
<g id="a_node3"><a xlink:href="../../d2/dc9/group__CIP__API.html#ga9abc7c86317baaa7ede1a4bce09fa542" target="_top" xlink:title="Notify the connection manager that data for a connection has been received. ">
<polygon fill="none" stroke="black" points="355,-50 355,-69 512,-69 512,-50 355,-50"/>
<text text-anchor="middle" x="433.5" y="-57" font-family="Helvetica,sans-Serif" font-size="10.00">HandleReceivedConnectedData</text>
</a>
</g>
</g>
<!-- Node2&#45;&gt;Node3 -->
<g id="edge2" class="edge"><title>Node2&#45;&gt;Node3</title>
<path fill="none" stroke="midnightblue" d="M327.242,-45.7571C337.77,-47.1317 348.766,-48.5673 359.512,-49.9704"/>
<polygon fill="midnightblue" stroke="midnightblue" points="327.683,-42.2851 317.314,-44.4609 326.777,-49.2262 327.683,-42.2851"/>
</g>
<!-- Node10 -->
<g id="node10" class="node"><title>Node10</title>
<g id="a_node10"><a xlink:href="../../d4/d91/group__ENCAP.html#ga93b23ccc67639937716a8f436a96c2b5" target="_top" xlink:title="NotifyConnectedCommonPacket\lFormat">
<polygon fill="none" stroke="black" points="353,-0.5 353,-30.5 514,-30.5 514,-0.5 353,-0.5"/>
<text text-anchor="start" x="361" y="-18.5" font-family="Helvetica,sans-Serif" font-size="10.00">NotifyConnectedCommonPacket</text>
<text text-anchor="middle" x="433.5" y="-7.5" font-family="Helvetica,sans-Serif" font-size="10.00">Format</text>
</a>
</g>
</g>
<!-- Node2&#45;&gt;Node10 -->
<g id="edge9" class="edge"><title>Node2&#45;&gt;Node10</title>
<path fill="none" stroke="midnightblue" d="M327.289,-29.2368C335.603,-28.1512 344.209,-27.0276 352.753,-25.9121"/>
<polygon fill="midnightblue" stroke="midnightblue" points="326.777,-25.7738 317.314,-30.5391 327.683,-32.7149 326.777,-25.7738"/>
</g>
<!-- Node4 -->
<g id="node4" class="node"><title>Node4</title>
<g id="a_node4"><a xlink:href="../../db/d4f/generic__networkhandler_8c.html#af0c95ade149818d252c292b489cfe190" target="_top" xlink:title="check if on one of the UDP consuming sockets data has been received and if yes handle it correctly ...">
<polygon fill="none" stroke="black" points="736,-44.5 736,-74.5 897,-74.5 897,-44.5 736,-44.5"/>
<text text-anchor="start" x="744" y="-62.5" font-family="Helvetica,sans-Serif" font-size="10.00">CheckAndHandleConsumingUdp</text>
<text text-anchor="middle" x="816.5" y="-51.5" font-family="Helvetica,sans-Serif" font-size="10.00">Sockets</text>
</a>
</g>
</g>
<!-- Node3&#45;&gt;Node4 -->
<g id="edge3" class="edge"><title>Node3&#45;&gt;Node4</title>
<path fill="none" stroke="midnightblue" d="M522.194,-59.5C586.575,-59.5 673.322,-59.5 735.754,-59.5"/>
<polygon fill="midnightblue" stroke="midnightblue" points="522.06,-56.0001 512.06,-59.5 522.06,-63.0001 522.06,-56.0001"/>
</g>
<!-- Node5 -->
<g id="node5" class="node"><title>Node5</title>
<g id="a_node5"><a xlink:href="../../da/dc2/generic__networkhandler_8h.html#a2f01af81d3e5018d9980e2bc28c9078a" target="_top" xlink:title="NetworkHandlerProcessOnce">
<polygon fill="none" stroke="black" points="1097,-28 1097,-47 1243,-47 1243,-28 1097,-28"/>
<text text-anchor="middle" x="1170" y="-35" font-family="Helvetica,sans-Serif" font-size="10.00">NetworkHandlerProcessOnce</text>
</a>
</g>
</g>
<!-- Node4&#45;&gt;Node5 -->
<g id="edge4" class="edge"><title>Node4&#45;&gt;Node5</title>
<path fill="none" stroke="midnightblue" d="M907.283,-53.8806C966.056,-50.2021 1041.85,-45.4584 1096.73,-42.0234"/>
<polygon fill="midnightblue" stroke="midnightblue" points="907.023,-50.3899 897.261,-54.5079 907.46,-57.3763 907.023,-50.3899"/>
</g>
<!-- Node6 -->
<g id="node6" class="node"><title>Node6</title>
<g id="a_node6"><a xlink:href="../../d5/dcb/MINGW_2main_8c.html#ad338a7dbc41dc40bcecd0479377ef207" target="_top" xlink:title="main">
<polygon fill="none" stroke="black" points="1294,-47 1294,-66 1332,-66 1332,-47 1294,-47"/>
<text text-anchor="middle" x="1313" y="-54" font-family="Helvetica,sans-Serif" font-size="10.00">main</text>
</a>
</g>
</g>
<!-- Node5&#45;&gt;Node6 -->
<g id="edge5" class="edge"><title>Node5&#45;&gt;Node6</title>
<path fill="none" stroke="midnightblue" d="M1251.85,-48.3949C1267.71,-50.5322 1282.86,-52.5731 1293.98,-54.0724"/>
<polygon fill="midnightblue" stroke="midnightblue" points="1252.29,-44.9225 1241.91,-47.0557 1251.36,-51.8598 1252.29,-44.9225"/>
</g>
<!-- Node9 -->
<g id="node9" class="node"><title>Node9</title>
<g id="a_node9"><a xlink:href="../../d9/dfb/POSIX_2main_8c.html#acd4e45a35a64f9cb29b59f63492b61d2" target="_top" xlink:title="Signal handler function for ending stack execution. ">
<polygon fill="none" stroke="black" points="1279,-9 1279,-28 1347,-28 1347,-9 1279,-9"/>
<text text-anchor="middle" x="1313" y="-16" font-family="Helvetica,sans-Serif" font-size="10.00">LeaveStack</text>
</a>
</g>
</g>
<!-- Node5&#45;&gt;Node9 -->
<g id="edge8" class="edge"><title>Node5&#45;&gt;Node9</title>
<path fill="none" stroke="midnightblue" d="M1251.85,-26.6051C1261.33,-25.3281 1270.55,-24.0855 1278.81,-22.9723"/>
<polygon fill="midnightblue" stroke="midnightblue" points="1251.36,-23.1402 1241.91,-27.9443 1252.29,-30.0775 1251.36,-23.1402"/>
</g>
<!-- Node7 -->
<g id="node7" class="node"><title>Node7</title>
<g id="a_node7"><a xlink:href="../../d8/d03/ports_2MINGW_2CMakeLists_8txt.html#a7e00df43a20d627a1732be7766d91097" target="_top" xlink:title="add_library">
<polygon fill="none" stroke="black" points="1383,-47 1383,-66 1447,-66 1447,-47 1383,-47"/>
<text text-anchor="middle" x="1415" y="-54" font-family="Helvetica,sans-Serif" font-size="10.00">add_library</text>
</a>
</g>
</g>
<!-- Node6&#45;&gt;Node7 -->
<g id="edge6" class="edge"><title>Node6&#45;&gt;Node7</title>
<path fill="none" stroke="midnightblue" d="M1342.7,-56.5C1355.24,-56.5 1369.99,-56.5 1382.81,-56.5"/>
<polygon fill="midnightblue" stroke="midnightblue" points="1342.34,-53.0001 1332.34,-56.5 1342.34,-60.0001 1342.34,-53.0001"/>
</g>
<!-- Node8 -->
<g id="node8" class="node"><title>Node8</title>
<g id="a_node8"><a xlink:href="../../d8/dce/ports_2CMakeLists_8txt.html#a598fae457555a5fb26e18d4cd8f89de9" target="_top" xlink:title="add_subdirectory">
<polygon fill="none" stroke="black" points="1483,-47 1483,-66 1574,-66 1574,-47 1483,-47"/>
<text text-anchor="middle" x="1528.5" y="-54" font-family="Helvetica,sans-Serif" font-size="10.00">add_subdirectory</text>
</a>
</g>
</g>
<!-- Node7&#45;&gt;Node8 -->
<g id="edge7" class="edge"><title>Node7&#45;&gt;Node8</title>
<path fill="none" stroke="midnightblue" d="M1457.3,-56.5C1465.63,-56.5 1474.42,-56.5 1482.86,-56.5"/>
<polygon fill="midnightblue" stroke="midnightblue" points="1457.06,-53.0001 1447.06,-56.5 1457.06,-60.0001 1457.06,-53.0001"/>
</g>
<!-- Node11 -->
<g id="node11" class="node"><title>Node11</title>
<g id="a_node11"><a xlink:href="../../d2/dbd/encap_8c.html#a49dc585614f655a5b313150a01fd7221" target="_top" xlink:title="Call Connection Manager. ">
<polygon fill="none" stroke="black" points="550,-0.5 550,-30.5 700,-30.5 700,-0.5 550,-0.5"/>
<text text-anchor="start" x="558" y="-18.5" font-family="Helvetica,sans-Serif" font-size="10.00">HandleReceivedSendUnitData</text>
<text text-anchor="middle" x="625" y="-7.5" font-family="Helvetica,sans-Serif" font-size="10.00">Command</text>
</a>
</g>
</g>
<!-- Node10&#45;&gt;Node11 -->
<g id="edge10" class="edge"><title>Node10&#45;&gt;Node11</title>
<path fill="none" stroke="midnightblue" d="M524.101,-15.5C532.706,-15.5 541.369,-15.5 549.803,-15.5"/>
<polygon fill="midnightblue" stroke="midnightblue" points="524.041,-12.0001 514.041,-15.5 524.041,-19.0001 524.041,-12.0001"/>
</g>
<!-- Node12 -->
<g id="node12" class="node"><title>Node12</title>
<g id="a_node12"><a xlink:href="../../d2/dc9/group__CIP__API.html#ga16eaeeb12ba23b5a75c8e5902a33d70a" target="_top" xlink:title="Notify the encapsulation layer that an explicit message has been received via TCP. ">
<polygon fill="none" stroke="black" points="738.5,-6 738.5,-25 894.5,-25 894.5,-6 738.5,-6"/>
<text text-anchor="middle" x="816.5" y="-13" font-family="Helvetica,sans-Serif" font-size="10.00">HandleReceivedExplictTcpData</text>
</a>
</g>
</g>
<!-- Node11&#45;&gt;Node12 -->
<g id="edge11" class="edge"><title>Node11&#45;&gt;Node12</title>
<path fill="none" stroke="midnightblue" d="M710.179,-15.5C719.553,-15.5 729.067,-15.5 738.348,-15.5"/>
<polygon fill="midnightblue" stroke="midnightblue" points="710.08,-12.0001 700.08,-15.5 710.08,-19.0001 710.08,-12.0001"/>
</g>
<!-- Node13 -->
<g id="node13" class="node"><title>Node13</title>
<g id="a_node13"><a xlink:href="../../db/d4f/generic__networkhandler_8c.html#aca5593b7dd39d7a7b437999a367102d6" target="_top" xlink:title="Handles data on an established TCP connection, processed connection is given by socket. ">
<polygon fill="none" stroke="black" points="933,-9 933,-28 1061,-28 1061,-9 933,-9"/>
<text text-anchor="middle" x="997" y="-16" font-family="Helvetica,sans-Serif" font-size="10.00">HandleDataOnTcpSocket</text>
</a>
</g>
</g>
<!-- Node12&#45;&gt;Node13 -->
<g id="edge12" class="edge"><title>Node12&#45;&gt;Node13</title>
<path fill="none" stroke="midnightblue" d="M904.941,-16.9696C914.357,-17.1278 923.799,-17.2865 932.849,-17.4386"/>
<polygon fill="midnightblue" stroke="midnightblue" points="904.812,-13.467 894.755,-16.7984 904.694,-20.466 904.812,-13.467"/>
</g>
<!-- Node13&#45;&gt;Node5 -->
<g id="edge13" class="edge"><title>Node13&#45;&gt;Node5</title>
<path fill="none" stroke="midnightblue" d="M1071.38,-26.6532C1079.82,-27.5908 1088.42,-28.5463 1096.84,-29.4821"/>
<polygon fill="midnightblue" stroke="midnightblue" points="1071.51,-23.1467 1061.19,-25.5209 1070.74,-30.1039 1071.51,-23.1467"/>
</g>
</g>
</svg>
        <g id="navigator" transform="translate(0 0)" fill="#404254">
                <rect fill="#f2f5e9" fill-opacity="0.5" stroke="#606060" stroke-width=".5" x="0" y="0" width="60" height="60"/>
                <use id="zoomplus" xlink:href="#zoomPlus" x="17" y="9" onmousedown="handleZoom(evt,'in')"/>
                <use id="zoomminus" xlink:href="#zoomMin" x="42" y="9" onmousedown="handleZoom(evt,'out')"/>
                <use id="reset" xlink:href="#resetDef" x="30" y="36" onmousedown="handleReset()"/>
                <g id="arrowUp" xlink:href="#dirArrow" transform="translate(30 24)" onmousedown="handlePan(0,-1)">
                  <use xlink:href="#rim" fill="#404040">
                        <set attributeName="fill" to="#808080" begin="arrowUp.mouseover" end="arrowUp.mouseout"/>
                  </use>
                  <path fill="none" stroke="white" stroke-width="1.5" d="M0,-3.0v7 M-2.5,-0.5L0,-3.0L2.5,-0.5"/>
                </g>
                <g id="arrowRight" xlink:href="#dirArrow" transform="rotate(90) translate(36 -43)" onmousedown="handlePan(1,0)">
                  <use xlink:href="#rim" fill="#404040">
                        <set attributeName="fill" to="#808080" begin="arrowRight.mouseover" end="arrowRight.mouseout"/>
                  </use>
                  <path fill="none" stroke="white" stroke-width="1.5" d="M0,-3.0v7 M-2.5,-0.5L0,-3.0L2.5,-0.5"/>
                </g>
                <g id="arrowDown" xlink:href="#dirArrow" transform="rotate(180) translate(-30 -48)" onmousedown="handlePan(0,1)">
                  <use xlink:href="#rim" fill="#404040">
                        <set attributeName="fill" to="#808080" begin="arrowDown.mouseover" end="arrowDown.mouseout"/>
                  </use>
                  <path fill="none" stroke="white" stroke-width="1.5" d="M0,-3.0v7 M-2.5,-0.5L0,-3.0L2.5,-0.5"/>
                </g>
                <g id="arrowLeft" xlink:href="#dirArrow" transform="rotate(270) translate(-36 17)" onmousedown="handlePan(-1,0)">
                  <use xlink:href="#rim" fill="#404040">
                        <set attributeName="fill" to="#808080" begin="arrowLeft.mouseover" end="arrowLeft.mouseout"/>
                  </use>
                  <path fill="none" stroke="white" stroke-width="1.5" d="M0,-3.0v7 M-2.5,-0.5L0,-3.0L2.5,-0.5"/>
                </g>
        </g>
        <svg viewBox="0 0 15 15" width="100%" height="30px" preserveAspectRatio="xMaxYMin meet">
         <g id="arrow_out" transform="scale(0.3 0.3)">
          <a xlink:href="cipconnectionobject_8c_a4fe52f7965046f62390fb5ce5cc46065_icgraph_org.svg" target="_base">
           <rect id="button" ry="5" rx="5" y="6" x="6" height="38" width="38"
                fill="#f2f5e9" fill-opacity="0.5" stroke="#606060" stroke-width="1.0"/>
           <path id="arrow"
             d="M 11.500037,31.436501 C 11.940474,20.09759 22.043105,11.32322 32.158766,21.979434 L 37.068811,17.246167 C 37.068811,17.246167 37.088388,32 37.088388,32 L 22.160133,31.978069 C 22.160133,31.978069 26.997745,27.140456 26.997745,27.140456 C 18.528582,18.264221 13.291696,25.230495 11.500037,31.436501 z"
             style="fill:#404040;"/>
          </a>
         </g>
        </svg>
</svg>
