<?xml version="1.0" encoding="UTF-8" standalone="no"?>
<!DOCTYPE svg PUBLIC "-//W3C//DTD SVG 1.1//EN"
 "http://www.w3.org/Graphics/SVG/1.1/DTD/svg11.dtd">
<!-- Generated by graphviz version 2.38.0 (20140413.2041)
 -->
<!-- Title: src/utils/doublylinkedlist.h Pages: 1 -->
<svg width="2413pt" height="319pt"
 viewBox="0.00 0.00 2412.50 319.00" xmlns="http://www.w3.org/2000/svg" xmlns:xlink="http://www.w3.org/1999/xlink">
<g id="graph0" class="graph" transform="scale(1 1) rotate(0) translate(4 315)">
<title>src/utils/doublylinkedlist.h</title>
<!-- Node1 -->
<g id="node1" class="node"><title>Node1</title>
<polygon fill="#bfbfbf" stroke="black" points="2101.5,-291.5 2101.5,-310.5 2230.5,-310.5 2230.5,-291.5 2101.5,-291.5"/>
<text text-anchor="middle" x="2166" y="-298.5" font-family="Helvetica,sans-Serif" font-size="10.00">src/utils/doublylinkedlist.h</text>
</g>
<!-- Node2 -->
<g id="node2" class="node"><title>Node2</title>
<g id="a_node2"><a xlink:href="../../d1/d6c/cipconnectionobject_8h.html" target="_top" xlink:title="src/cip/cipconnectionobject.h">
<polygon fill="none" stroke="black" points="966.5,-235.5 966.5,-254.5 1109.5,-254.5 1109.5,-235.5 966.5,-235.5"/>
<text text-anchor="middle" x="1038" y="-242.5" font-family="Helvetica,sans-Serif" font-size="10.00">src/cip/cipconnectionobject.h</text>
</a>
</g>
</g>
<!-- Node1&#45;&gt;Node2 -->
<g id="edge1" class="edge"><title>Node1&#45;&gt;Node2</title>
<path fill="none" stroke="midnightblue" d="M2091.19,-296.419C1885.22,-286.558 1311.72,-259.104 1109.61,-249.428"/>
<polygon fill="midnightblue" stroke="midnightblue" points="2091.15,-299.921 2101.3,-296.903 2091.48,-292.929 2091.15,-299.921"/>
</g>
<!-- Node14 -->
<g id="node14" class="node"><title>Node14</title>
<g id="a_node14"><a xlink:href="../../d9/dfb/POSIX_2main_8c.html" target="_top" xlink:title="src/ports/POSIX/main.c">
<polygon fill="none" stroke="black" points="2283.5,-6 2283.5,-25 2404.5,-25 2404.5,-6 2283.5,-6"/>
<text text-anchor="middle" x="2344" y="-13" font-family="Helvetica,sans-Serif" font-size="10.00">src/ports/POSIX/main.c</text>
</a>
</g>
</g>
<!-- Node1&#45;&gt;Node14 -->
<g id="edge63" class="edge"><title>Node1&#45;&gt;Node14</title>
<path fill="none" stroke="midnightblue" d="M2166,-281.251C2166,-259.357 2166,-222.052 2166,-190 2166,-190 2166,-190 2166,-132 2166,-68.4538 2246.82,-38.1039 2299.54,-25.0659"/>
<polygon fill="midnightblue" stroke="midnightblue" points="2162.5,-281.442 2166,-291.442 2169.5,-281.442 2162.5,-281.442"/>
</g>
<!-- Node31 -->
<g id="node31" class="node"><title>Node31</title>
<g id="a_node31"><a xlink:href="../../d9/ddc/doublylinkedlist_8c.html" target="_top" xlink:title="src/utils/doublylinkedlist.c">
<polygon fill="none" stroke="black" points="2194.5,-235.5 2194.5,-254.5 2323.5,-254.5 2323.5,-235.5 2194.5,-235.5"/>
<text text-anchor="middle" x="2259" y="-242.5" font-family="Helvetica,sans-Serif" font-size="10.00">src/utils/doublylinkedlist.c</text>
</a>
</g>
</g>
<!-- Node1&#45;&gt;Node31 -->
<g id="edge64" class="edge"><title>Node1&#45;&gt;Node31</title>
<path fill="none" stroke="midnightblue" d="M2189.81,-286.177C2206.92,-276.241 2229.47,-263.149 2244.1,-254.655"/>
<polygon fill="midnightblue" stroke="midnightblue" points="2187.83,-283.276 2180.94,-291.324 2191.35,-289.329 2187.83,-283.276"/>
</g>
<!-- Node3 -->
<g id="node3" class="node"><title>Node3</title>
<g id="a_node3"><a xlink:href="../../d2/da3/cipconnectionmanager_8h.html" target="_top" xlink:title="src/cip/cipconnectionmanager.h">
<polygon fill="none" stroke="black" points="960.5,-179.5 960.5,-198.5 1115.5,-198.5 1115.5,-179.5 960.5,-179.5"/>
<text text-anchor="middle" x="1038" y="-186.5" font-family="Helvetica,sans-Serif" font-size="10.00">src/cip/cipconnectionmanager.h</text>
</a>
</g>
</g>
<!-- Node2&#45;&gt;Node3 -->
<g id="edge2" class="edge"><title>Node2&#45;&gt;Node3</title>
<path fill="none" stroke="midnightblue" d="M1038,-224.805C1038,-215.91 1038,-205.78 1038,-198.751"/>
<polygon fill="midnightblue" stroke="midnightblue" points="1034.5,-225.083 1038,-235.083 1041.5,-225.083 1034.5,-225.083"/>
</g>
<!-- Node5 -->
<g id="node5" class="node"><title>Node5</title>
<g id="a_node5"><a xlink:href="../../d1/dbc/appcontype_8c.html" target="_top" xlink:title="src/cip/appcontype.c">
<polygon fill="none" stroke="black" points="898.5,-67.5 898.5,-86.5 1005.5,-86.5 1005.5,-67.5 898.5,-67.5"/>
<text text-anchor="middle" x="952" y="-74.5" font-family="Helvetica,sans-Serif" font-size="10.00">src/cip/appcontype.c</text>
</a>
</g>
</g>
<!-- Node2&#45;&gt;Node5 -->
<g id="edge43" class="edge"><title>Node2&#45;&gt;Node5</title>
<path fill="none" stroke="midnightblue" d="M1000.81,-231.867C963.777,-217.429 909.558,-189.272 889,-143 878.089,-118.441 909.864,-97.6898 932.167,-86.6168"/>
<polygon fill="midnightblue" stroke="midnightblue" points="999.703,-235.188 1010.3,-235.412 1002.15,-228.632 999.703,-235.188"/>
</g>
<!-- Node7 -->
<g id="node7" class="node"><title>Node7</title>
<g id="a_node7"><a xlink:href="../../d5/d35/cipconnectionmanager_8c.html" target="_top" xlink:title="src/cip/cipconnectionmanager.c">
<polygon fill="none" stroke="black" points="489.5,-6 489.5,-25 644.5,-25 644.5,-6 489.5,-6"/>
<text text-anchor="middle" x="567" y="-13" font-family="Helvetica,sans-Serif" font-size="10.00">src/cip/cipconnectionmanager.c</text>
</a>
</g>
</g>
<!-- Node2&#45;&gt;Node7 -->
<g id="edge45" class="edge"><title>Node2&#45;&gt;Node7</title>
<path fill="none" stroke="midnightblue" d="M956.188,-237.226C843.6,-225.929 650.306,-198.752 611,-143 605.878,-135.735 606.045,-130.38 611,-123 636.84,-84.5106 725.279,-105.191 699,-67 683.491,-44.4621 656.452,-31.9769 630.868,-25.0631"/>
<polygon fill="midnightblue" stroke="midnightblue" points="955.861,-240.711 966.156,-238.206 956.546,-233.744 955.861,-240.711"/>
</g>
<!-- Node2&#45;&gt;Node14 -->
<g id="edge62" class="edge"><title>Node2&#45;&gt;Node14</title>
<path fill="none" stroke="midnightblue" d="M1099.09,-233.736C1153.01,-224.658 1233.74,-211.027 1304,-199 1735.26,-125.176 1844.17,-112.718 2274,-31 2283.75,-29.1456 2294.25,-27.0342 2304.07,-25.0075"/>
<polygon fill="midnightblue" stroke="midnightblue" points="1098.28,-230.321 1089,-235.432 1099.45,-237.224 1098.28,-230.321"/>
</g>
<!-- Node20 -->
<g id="node20" class="node"><title>Node20</title>
<g id="a_node20"><a xlink:href="../../d2/d11/cipclass3connection_8h.html" target="_top" xlink:title="CIP Class 3 connection. ">
<polygon fill="none" stroke="black" points="620,-123.5 620,-142.5 766,-142.5 766,-123.5 620,-123.5"/>
<text text-anchor="middle" x="693" y="-130.5" font-family="Helvetica,sans-Serif" font-size="10.00">src/cip/cipclass3connection.h</text>
</a>
</g>
</g>
<!-- Node2&#45;&gt;Node20 -->
<g id="edge44" class="edge"><title>Node2&#45;&gt;Node20</title>
<path fill="none" stroke="midnightblue" d="M962.089,-233.809C919.031,-226.716 864.605,-215.519 818,-199 775.118,-183.8 728.562,-156.375 706.308,-142.513"/>
<polygon fill="midnightblue" stroke="midnightblue" points="961.787,-237.305 972.215,-235.436 962.897,-230.394 961.787,-237.305"/>
</g>
<!-- Node25 -->
<g id="node25" class="node"><title>Node25</title>
<g id="a_node25"><a xlink:href="../../de/d45/cipioconnection_8h.html" target="_top" xlink:title="src/cip/cipioconnection.h">
<polygon fill="none" stroke="black" points="1230.5,-123.5 1230.5,-142.5 1355.5,-142.5 1355.5,-123.5 1230.5,-123.5"/>
<text text-anchor="middle" x="1293" y="-130.5" font-family="Helvetica,sans-Serif" font-size="10.00">src/cip/cipioconnection.h</text>
</a>
</g>
</g>
<!-- Node2&#45;&gt;Node25 -->
<g id="edge46" class="edge"><title>Node2&#45;&gt;Node25</title>
<path fill="none" stroke="midnightblue" d="M1067.43,-231.305C1119.92,-208.66 1228.39,-161.871 1273.08,-142.591"/>
<polygon fill="midnightblue" stroke="midnightblue" points="1065.81,-228.194 1058.01,-235.368 1068.58,-234.621 1065.81,-228.194"/>
</g>
<!-- Node26 -->
<g id="node26" class="node"><title>Node26</title>
<g id="a_node26"><a xlink:href="../../df/d91/cipconnectionobject_8c.html" target="_top" xlink:title="src/cip/cipconnectionobject.c">
<polygon fill="none" stroke="black" points="1470.5,-123.5 1470.5,-142.5 1613.5,-142.5 1613.5,-123.5 1470.5,-123.5"/>
<text text-anchor="middle" x="1542" y="-130.5" font-family="Helvetica,sans-Serif" font-size="10.00">src/cip/cipconnectionobject.c</text>
</a>
</g>
</g>
<!-- Node2&#45;&gt;Node26 -->
<g id="edge47" class="edge"><title>Node2&#45;&gt;Node26</title>
<path fill="none" stroke="midnightblue" d="M1086.96,-233.315C1186.78,-211.529 1412.03,-162.367 1502.9,-142.535"/>
<polygon fill="midnightblue" stroke="midnightblue" points="1086.15,-229.908 1077.13,-235.46 1087.65,-236.747 1086.15,-229.908"/>
</g>
<!-- Node28 -->
<g id="node28" class="node"><title>Node28</title>
<g id="a_node28"><a xlink:href="../../d7/df9/encap_8h.html" target="_top" xlink:title="This file contains the public interface of the encapsulation layer. ">
<polygon fill="none" stroke="black" points="373.5,-123.5 373.5,-142.5 494.5,-142.5 494.5,-123.5 373.5,-123.5"/>
<text text-anchor="middle" x="434" y="-130.5" font-family="Helvetica,sans-Serif" font-size="10.00">src/enet_encap/encap.h</text>
</a>
</g>
</g>
<!-- Node2&#45;&gt;Node28 -->
<g id="edge48" class="edge"><title>Node2&#45;&gt;Node28</title>
<path fill="none" stroke="midnightblue" d="M955.987,-243.976C862.859,-242.121 707.093,-233.447 578,-199 528.177,-185.705 473.871,-156.882 448.537,-142.508"/>
<polygon fill="midnightblue" stroke="midnightblue" points="956.131,-247.479 966.192,-244.157 956.256,-240.48 956.131,-247.479"/>
</g>
<!-- Node4 -->
<g id="node4" class="node"><title>Node4</title>
<g id="a_node4"><a xlink:href="../../d1/dc0/appcontype_8h.html" target="_top" xlink:title="src/cip/appcontype.h">
<polygon fill="none" stroke="black" points="1066.5,-123.5 1066.5,-142.5 1173.5,-142.5 1173.5,-123.5 1066.5,-123.5"/>
<text text-anchor="middle" x="1120" y="-130.5" font-family="Helvetica,sans-Serif" font-size="10.00">src/cip/appcontype.h</text>
</a>
</g>
</g>
<!-- Node3&#45;&gt;Node4 -->
<g id="edge3" class="edge"><title>Node3&#45;&gt;Node4</title>
<path fill="none" stroke="midnightblue" d="M1059.83,-173.622C1074.81,-163.757 1094.2,-150.992 1106.86,-142.655"/>
<polygon fill="midnightblue" stroke="midnightblue" points="1057.6,-170.901 1051.17,-179.324 1061.45,-176.747 1057.6,-170.901"/>
</g>
<!-- Node3&#45;&gt;Node5 -->
<g id="edge20" class="edge"><title>Node3&#45;&gt;Node5</title>
<path fill="none" stroke="midnightblue" d="M1035.93,-168.88C1033.64,-155.046 1028.87,-136.489 1019,-123 1006.92,-106.492 986.824,-94.1772 971.787,-86.6417"/>
<polygon fill="midnightblue" stroke="midnightblue" points="1032.51,-169.735 1037.32,-179.174 1039.45,-168.795 1032.51,-169.735"/>
</g>
<!-- Node6 -->
<g id="node6" class="node"><title>Node6</title>
<g id="a_node6"><a xlink:href="../../d2/d3d/cipcommon_8c.html" target="_top" xlink:title="src/cip/cipcommon.c">
<polygon fill="none" stroke="black" points="364.5,-6 364.5,-25 471.5,-25 471.5,-6 364.5,-6"/>
<text text-anchor="middle" x="418" y="-13" font-family="Helvetica,sans-Serif" font-size="10.00">src/cip/cipcommon.c</text>
</a>
</g>
</g>
<!-- Node3&#45;&gt;Node6 -->
<g id="edge25" class="edge"><title>Node3&#45;&gt;Node6</title>
<path fill="none" stroke="midnightblue" d="M983.302,-177.339C946.525,-169.495 897.236,-157.664 855,-143 798.257,-123.299 785.109,-115.059 732,-87 716.836,-78.9886 715.087,-72.9434 699,-67 606.473,-32.816 576.745,-50.2421 480,-31 471.11,-29.2317 461.553,-27.1086 452.67,-25.0393"/>
<polygon fill="midnightblue" stroke="midnightblue" points="982.822,-180.815 993.328,-179.445 984.261,-173.964 982.822,-180.815"/>
</g>
<!-- Node3&#45;&gt;Node7 -->
<g id="edge34" class="edge"><title>Node3&#45;&gt;Node7</title>
<path fill="none" stroke="midnightblue" d="M985.988,-177.006C956.569,-169.645 919.652,-158.448 889,-143 838.516,-117.557 838.316,-90.7211 787,-67 756.764,-53.0235 669.67,-35.3401 614.566,-25.0364"/>
<polygon fill="midnightblue" stroke="midnightblue" points="985.515,-180.493 996.059,-179.45 987.167,-173.69 985.515,-180.493"/>
</g>
<!-- Node8 -->
<g id="node8" class="node"><title>Node8</title>
<g id="a_node8"><a xlink:href="../../df/d03/cipioconnection_8c.html" target="_top" xlink:title="src/cip/cipioconnection.c">
<polygon fill="none" stroke="black" points="1482.5,-6 1482.5,-25 1607.5,-25 1607.5,-6 1482.5,-6"/>
<text text-anchor="middle" x="1545" y="-13" font-family="Helvetica,sans-Serif" font-size="10.00">src/cip/cipioconnection.c</text>
</a>
</g>
</g>
<!-- Node3&#45;&gt;Node8 -->
<g id="edge39" class="edge"><title>Node3&#45;&gt;Node8</title>
<path fill="none" stroke="midnightblue" d="M1125.96,-181.557C1207.69,-174.548 1322.81,-161.773 1364,-143 1410.72,-121.709 1408.79,-96.2229 1451,-67 1475.68,-49.9184 1506.76,-34.2329 1526.27,-25.0169"/>
<polygon fill="midnightblue" stroke="midnightblue" points="1125.33,-178.097 1115.66,-182.424 1125.92,-185.072 1125.33,-178.097"/>
</g>
<!-- Node9 -->
<g id="node9" class="node"><title>Node9</title>
<g id="a_node9"><a xlink:href="../../da/dc2/generic__networkhandler_8h.html" target="_top" xlink:title="src/ports/generic_networkhandler.h">
<polygon fill="none" stroke="black" points="1460.5,-67.5 1460.5,-86.5 1629.5,-86.5 1629.5,-67.5 1460.5,-67.5"/>
<text text-anchor="middle" x="1545" y="-74.5" font-family="Helvetica,sans-Serif" font-size="10.00">src/ports/generic_networkhandler.h</text>
</a>
</g>
</g>
<!-- Node3&#45;&gt;Node9 -->
<g id="edge42" class="edge"><title>Node3&#45;&gt;Node9</title>
<path fill="none" stroke="midnightblue" d="M1126,-186.373C1204.19,-182.874 1320.83,-172.574 1418,-143 1429.55,-139.484 1497.19,-103.61 1528.77,-86.714"/>
<polygon fill="midnightblue" stroke="midnightblue" points="1125.55,-182.889 1115.7,-186.805 1125.84,-189.883 1125.55,-182.889"/>
</g>
<!-- Node10 -->
<g id="node10" class="node"><title>Node10</title>
<g id="a_node10"><a xlink:href="../../d2/dbd/encap_8c.html" target="_top" xlink:title="src/enet_encap/encap.c">
<polygon fill="none" stroke="black" points="183.5,-6 183.5,-25 304.5,-25 304.5,-6 183.5,-6"/>
<text text-anchor="middle" x="244" y="-13" font-family="Helvetica,sans-Serif" font-size="10.00">src/enet_encap/encap.c</text>
</a>
</g>
</g>
<!-- Node3&#45;&gt;Node10 -->
<g id="edge41" class="edge"><title>Node3&#45;&gt;Node10</title>
<path fill="none" stroke="midnightblue" d="M950.382,-185.088C734.227,-176.952 189.421,-150.298 140,-87 117.112,-57.6856 170.844,-36.1467 209.288,-25.0293"/>
<polygon fill="midnightblue" stroke="midnightblue" points="950.3,-188.587 960.423,-185.461 950.56,-181.592 950.3,-188.587"/>
</g>
<!-- Node19 -->
<g id="node19" class="node"><title>Node19</title>
<g id="a_node19"><a xlink:href="../../df/d2e/cipassembly_8c.html" target="_top" xlink:title="src/cip/cipassembly.c">
<polygon fill="none" stroke="black" points="898,-123.5 898,-142.5 1010,-142.5 1010,-123.5 898,-123.5"/>
<text text-anchor="middle" x="954" y="-130.5" font-family="Helvetica,sans-Serif" font-size="10.00">src/cip/cipassembly.c</text>
</a>
</g>
</g>
<!-- Node3&#45;&gt;Node19 -->
<g id="edge21" class="edge"><title>Node3&#45;&gt;Node19</title>
<path fill="none" stroke="midnightblue" d="M1016.07,-173.901C1000.66,-163.999 980.554,-151.071 967.463,-142.655"/>
<polygon fill="midnightblue" stroke="midnightblue" points="1014.2,-176.86 1024.5,-179.324 1017.98,-170.972 1014.2,-176.86"/>
</g>
<!-- Node3&#45;&gt;Node20 -->
<g id="edge22" class="edge"><title>Node3&#45;&gt;Node20</title>
<path fill="none" stroke="midnightblue" d="M973.177,-177.854C907.992,-167.651 808.624,-152.098 747.411,-142.516"/>
<polygon fill="midnightblue" stroke="midnightblue" points="972.913,-181.355 983.334,-179.444 973.995,-174.439 972.913,-181.355"/>
</g>
<!-- Node22 -->
<g id="node22" class="node"><title>Node22</title>
<g id="a_node22"><a xlink:href="../../d0/d3c/cipqos_8h.html" target="_top" xlink:title="Public interface of the QoS Object. ">
<polygon fill="none" stroke="black" points="1176,-67.5 1176,-86.5 1262,-86.5 1262,-67.5 1176,-67.5"/>
<text text-anchor="middle" x="1219" y="-74.5" font-family="Helvetica,sans-Serif" font-size="10.00">src/cip/cipqos.h</text>
</a>
</g>
</g>
<!-- Node3&#45;&gt;Node22 -->
<g id="edge26" class="edge"><title>Node3&#45;&gt;Node22</title>
<path fill="none" stroke="midnightblue" d="M1108.75,-177.012C1133.89,-170.391 1161.11,-159.826 1182,-143 1200.81,-127.849 1211.82,-100.401 1216.43,-86.5236"/>
<polygon fill="midnightblue" stroke="midnightblue" points="1107.74,-173.656 1098.87,-179.446 1109.41,-180.453 1107.74,-173.656"/>
</g>
<!-- Node3&#45;&gt;Node25 -->
<g id="edge35" class="edge"><title>Node3&#45;&gt;Node25</title>
<path fill="none" stroke="midnightblue" d="M1088.31,-177.346C1136.5,-167.141 1208.28,-151.94 1252.78,-142.516"/>
<polygon fill="midnightblue" stroke="midnightblue" points="1087.46,-173.948 1078.41,-179.444 1088.91,-180.796 1087.46,-173.948"/>
</g>
<!-- Node3&#45;&gt;Node26 -->
<g id="edge38" class="edge"><title>Node3&#45;&gt;Node26</title>
<path fill="none" stroke="midnightblue" d="M1125.8,-178.593C1223.56,-168.118 1379.72,-151.388 1470.39,-141.673"/>
<polygon fill="midnightblue" stroke="midnightblue" points="1125.22,-175.135 1115.65,-179.681 1125.96,-182.096 1125.22,-175.135"/>
</g>
<!-- Node27 -->
<g id="node27" class="node"><title>Node27</title>
<g id="a_node27"><a xlink:href="../../d3/d98/cpf_8c.html" target="_top" xlink:title="src/enet_encap/cpf.c">
<polygon fill="none" stroke="black" points="0,-6 0,-25 108,-25 108,-6 0,-6"/>
<text text-anchor="middle" x="54" y="-13" font-family="Helvetica,sans-Serif" font-size="10.00">src/enet_encap/cpf.c</text>
</a>
</g>
</g>
<!-- Node3&#45;&gt;Node27 -->
<g id="edge40" class="edge"><title>Node3&#45;&gt;Node27</title>
<path fill="none" stroke="midnightblue" d="M950.197,-186.725C772.037,-183.535 373.733,-173.171 241,-143 177.258,-128.511 156.335,-127.468 105,-87 82.6966,-69.4181 65.6467,-39.6385 58.1626,-25.0586"/>
<polygon fill="midnightblue" stroke="midnightblue" points="950.26,-190.227 960.32,-186.903 950.383,-183.228 950.26,-190.227"/>
</g>
<!-- Node4&#45;&gt;Node5 -->
<g id="edge4" class="edge"><title>Node4&#45;&gt;Node5</title>
<path fill="none" stroke="midnightblue" d="M1083.61,-120.304C1051.96,-110.129 1006.83,-95.6246 978.496,-86.5164"/>
<polygon fill="midnightblue" stroke="midnightblue" points="1082.79,-123.715 1093.38,-123.444 1084.93,-117.051 1082.79,-123.715"/>
</g>
<!-- Node4&#45;&gt;Node6 -->
<g id="edge5" class="edge"><title>Node4&#45;&gt;Node6</title>
<path fill="none" stroke="midnightblue" d="M1061.05,-121.671C985.074,-108.461 848.834,-85.129 732,-67 620.201,-49.6523 591.189,-51.9023 480,-31 470.874,-29.2845 461.062,-27.1336 451.996,-25.0178"/>
<polygon fill="midnightblue" stroke="midnightblue" points="1060.91,-125.199 1071.37,-123.466 1062.11,-118.303 1060.91,-125.199"/>
</g>
<!-- Node4&#45;&gt;Node7 -->
<g id="edge6" class="edge"><title>Node4&#45;&gt;Node7</title>
<path fill="none" stroke="midnightblue" d="M1097.55,-117.883C1067.81,-99.2293 1018.54,-68.5299 1014,-67 861.613,-15.6754 813.391,-52.2289 654,-31 641.25,-29.3019 627.5,-27.157 614.78,-25.0413"/>
<polygon fill="midnightblue" stroke="midnightblue" points="1095.76,-120.887 1106.09,-123.24 1099.48,-114.959 1095.76,-120.887"/>
</g>
<!-- Node4&#45;&gt;Node8 -->
<g id="edge7" class="edge"><title>Node4&#45;&gt;Node8</title>
<path fill="none" stroke="midnightblue" d="M1172.61,-121.301C1209.72,-113.228 1260.4,-101.145 1304,-87 1326.37,-79.7418 1330.69,-74.4519 1353,-67 1405.47,-49.4744 1467.62,-34.0742 1506.68,-25.0232"/>
<polygon fill="midnightblue" stroke="midnightblue" points="1171.56,-117.946 1162.52,-123.47 1173.03,-124.79 1171.56,-117.946"/>
</g>
<!-- Node4&#45;&gt;Node9 -->
<g id="edge8" class="edge"><title>Node4&#45;&gt;Node9</title>
<path fill="none" stroke="midnightblue" d="M1184.15,-123.849C1263.37,-113.783 1397.47,-96.7445 1477.99,-86.5148"/>
<polygon fill="midnightblue" stroke="midnightblue" points="1183.31,-120.428 1173.83,-125.161 1184.19,-127.372 1183.31,-120.428"/>
</g>
<!-- Node17 -->
<g id="node17" class="node"><title>Node17</title>
<g id="a_node17"><a xlink:href="../../d5/daa/MINGW_2sample__application_2sampleapplication_8c.html" target="_top" xlink:title="src/ports/MINGW/sample\l_application/sampleapplication.c">
<polygon fill="none" stroke="black" points="663,-0.5 663,-30.5 821,-30.5 821,-0.5 663,-0.5"/>
<text text-anchor="start" x="671" y="-18.5" font-family="Helvetica,sans-Serif" font-size="10.00">src/ports/MINGW/sample</text>
<text text-anchor="middle" x="742" y="-7.5" font-family="Helvetica,sans-Serif" font-size="10.00">_application/sampleapplication.c</text>
</a>
</g>
</g>
<!-- Node4&#45;&gt;Node17 -->
<g id="edge18" class="edge"><title>Node4&#45;&gt;Node17</title>
<path fill="none" stroke="midnightblue" d="M1106.33,-115.063C1093.08,-99.9019 1071.59,-78.3644 1048,-67 1047.84,-66.9221 911.759,-44.4817 821.147,-29.5448"/>
<polygon fill="midnightblue" stroke="midnightblue" points="1104,-117.737 1113.12,-123.127 1109.36,-113.225 1104,-117.737"/>
</g>
<!-- Node18 -->
<g id="node18" class="node"><title>Node18</title>
<g id="a_node18"><a xlink:href="../../d2/daa/POSIX_2sample__application_2sampleapplication_8c.html" target="_top" xlink:title="src/ports/POSIX/sample\l_application/sampleapplication.c">
<polygon fill="none" stroke="black" points="839,-0.5 839,-30.5 997,-30.5 997,-0.5 839,-0.5"/>
<text text-anchor="start" x="847" y="-18.5" font-family="Helvetica,sans-Serif" font-size="10.00">src/ports/POSIX/sample</text>
<text text-anchor="middle" x="918" y="-7.5" font-family="Helvetica,sans-Serif" font-size="10.00">_application/sampleapplication.c</text>
</a>
</g>
</g>
<!-- Node4&#45;&gt;Node18 -->
<g id="edge19" class="edge"><title>Node4&#45;&gt;Node18</title>
<path fill="none" stroke="midnightblue" d="M1114.73,-113.529C1109.65,-98.9118 1100.55,-79.0216 1086,-67 1069.97,-53.7619 1023.28,-40.2836 983.169,-30.5849"/>
<polygon fill="midnightblue" stroke="midnightblue" points="1111.52,-114.974 1117.86,-123.462 1118.2,-112.872 1111.52,-114.974"/>
</g>
<!-- Node9&#45;&gt;Node7 -->
<g id="edge9" class="edge"><title>Node9&#45;&gt;Node7</title>
<path fill="none" stroke="midnightblue" d="M1450.33,-72.596C1253.55,-65.2943 806.016,-47.4519 654,-31 640.299,-29.5172 625.478,-27.2848 612.019,-25.0132"/>
<polygon fill="midnightblue" stroke="midnightblue" points="1450.24,-76.095 1460.36,-72.9673 1450.5,-69.0998 1450.24,-76.095"/>
</g>
<!-- Node9&#45;&gt;Node8 -->
<g id="edge10" class="edge"><title>Node9&#45;&gt;Node8</title>
<path fill="none" stroke="midnightblue" d="M1545,-57.3165C1545,-46.4962 1545,-33.398 1545,-25.0091"/>
<polygon fill="midnightblue" stroke="midnightblue" points="1541.5,-57.4751 1545,-67.4751 1548.5,-57.4751 1541.5,-57.4751"/>
</g>
<!-- Node9&#45;&gt;Node10 -->
<g id="edge11" class="edge"><title>Node9&#45;&gt;Node10</title>
<path fill="none" stroke="midnightblue" d="M1450.12,-72.9162C1187.39,-64.3056 462.623,-40.045 355,-31 337.57,-29.5352 318.677,-27.3081 301.503,-25.0359"/>
<polygon fill="midnightblue" stroke="midnightblue" points="1450.29,-76.4236 1460.4,-73.2529 1450.52,-69.4273 1450.29,-76.4236"/>
</g>
<!-- Node11 -->
<g id="node11" class="node"><title>Node11</title>
<g id="a_node11"><a xlink:href="../../db/d4f/generic__networkhandler_8c.html" target="_top" xlink:title="This file includes all platform&#45;independent functions of the network handler to reduce code duplicati...">
<polygon fill="none" stroke="black" points="1295.5,-6 1295.5,-25 1464.5,-25 1464.5,-6 1295.5,-6"/>
<text text-anchor="middle" x="1380" y="-13" font-family="Helvetica,sans-Serif" font-size="10.00">src/ports/generic_networkhandler.c</text>
</a>
</g>
</g>
<!-- Node9&#45;&gt;Node11 -->
<g id="edge12" class="edge"><title>Node9&#45;&gt;Node11</title>
<path fill="none" stroke="midnightblue" d="M1511.95,-64.0828C1479.88,-52.517 1432,-35.2524 1403.6,-25.0091"/>
<polygon fill="midnightblue" stroke="midnightblue" points="1510.77,-67.3753 1521.36,-67.4751 1513.14,-60.7903 1510.77,-67.3753"/>
</g>
<!-- Node12 -->
<g id="node12" class="node"><title>Node12</title>
<g id="a_node12"><a xlink:href="../../d5/dcb/MINGW_2main_8c.html" target="_top" xlink:title="src/ports/MINGW/main.c">
<polygon fill="none" stroke="black" points="1626,-6 1626,-25 1752,-25 1752,-6 1626,-6"/>
<text text-anchor="middle" x="1689" y="-13" font-family="Helvetica,sans-Serif" font-size="10.00">src/ports/MINGW/main.c</text>
</a>
</g>
</g>
<!-- Node9&#45;&gt;Node12 -->
<g id="edge13" class="edge"><title>Node9&#45;&gt;Node12</title>
<path fill="none" stroke="midnightblue" d="M1574.93,-63.6313C1602.91,-52.0717 1643.94,-35.12 1668.41,-25.0091"/>
<polygon fill="midnightblue" stroke="midnightblue" points="1573.54,-60.4215 1565.63,-67.4751 1576.21,-66.891 1573.54,-60.4215"/>
</g>
<!-- Node13 -->
<g id="node13" class="node"><title>Node13</title>
<g id="a_node13"><a xlink:href="../../d3/de3/MINGW_2networkhandler_8c.html" target="_top" xlink:title="src/ports/MINGW/networkhandler.c">
<polygon fill="none" stroke="black" points="1770.5,-6 1770.5,-25 1941.5,-25 1941.5,-6 1770.5,-6"/>
<text text-anchor="middle" x="1856" y="-13" font-family="Helvetica,sans-Serif" font-size="10.00">src/ports/MINGW/networkhandler.c</text>
</a>
</g>
</g>
<!-- Node9&#45;&gt;Node13 -->
<g id="edge14" class="edge"><title>Node9&#45;&gt;Node13</title>
<path fill="none" stroke="midnightblue" d="M1599.64,-65.5456C1659.9,-54.0184 1755.68,-35.6939 1811.52,-25.0091"/>
<polygon fill="midnightblue" stroke="midnightblue" points="1598.72,-62.1583 1589.56,-67.4751 1600.04,-69.0336 1598.72,-62.1583"/>
</g>
<!-- Node9&#45;&gt;Node14 -->
<g id="edge15" class="edge"><title>Node9&#45;&gt;Node14</title>
<path fill="none" stroke="midnightblue" d="M1639.63,-71.8419C1808.23,-64.1526 2154.14,-47.0299 2274,-31 2285.07,-29.5193 2297.01,-27.2876 2307.84,-25.0159"/>
<polygon fill="midnightblue" stroke="midnightblue" points="1639.35,-68.3508 1629.52,-72.3012 1639.67,-75.3435 1639.35,-68.3508"/>
</g>
<!-- Node15 -->
<g id="node15" class="node"><title>Node15</title>
<g id="a_node15"><a xlink:href="../../dc/db2/WIN32_2main_8c.html" target="_top" xlink:title="src/ports/WIN32/main.c">
<polygon fill="none" stroke="black" points="1959.5,-6 1959.5,-25 2080.5,-25 2080.5,-6 1959.5,-6"/>
<text text-anchor="middle" x="2020" y="-13" font-family="Helvetica,sans-Serif" font-size="10.00">src/ports/WIN32/main.c</text>
</a>
</g>
</g>
<!-- Node9&#45;&gt;Node15 -->
<g id="edge16" class="edge"><title>Node9&#45;&gt;Node15</title>
<path fill="none" stroke="midnightblue" d="M1639.94,-67.9821C1722.23,-60.4296 1844.36,-47.7723 1950,-31 1960.42,-29.3458 1971.64,-27.1916 1981.97,-25.0517"/>
<polygon fill="midnightblue" stroke="midnightblue" points="1639.5,-64.5079 1629.86,-68.9005 1640.14,-71.4791 1639.5,-64.5079"/>
</g>
<!-- Node16 -->
<g id="node16" class="node"><title>Node16</title>
<g id="a_node16"><a xlink:href="../../d8/d6c/WIN32_2networkhandler_8c.html" target="_top" xlink:title="src/ports/WIN32/networkhandler.c">
<polygon fill="none" stroke="black" points="2099,-6 2099,-25 2265,-25 2265,-6 2099,-6"/>
<text text-anchor="middle" x="2182" y="-13" font-family="Helvetica,sans-Serif" font-size="10.00">src/ports/WIN32/networkhandler.c</text>
</a>
</g>
</g>
<!-- Node9&#45;&gt;Node16 -->
<g id="edge17" class="edge"><title>Node9&#45;&gt;Node16</title>
<path fill="none" stroke="midnightblue" d="M1639.81,-70.238C1748.52,-63.1488 1931.98,-49.711 2089,-31 2102.79,-29.3565 2117.68,-27.2059 2131.41,-25.066"/>
<polygon fill="midnightblue" stroke="midnightblue" points="1639.28,-66.7649 1629.53,-70.9042 1639.73,-73.7503 1639.28,-66.7649"/>
</g>
<!-- Node20&#45;&gt;Node7 -->
<g id="edge24" class="edge"><title>Node20&#45;&gt;Node7</title>
<path fill="none" stroke="midnightblue" d="M727.429,-119.55C755.05,-107.624 786.673,-88.3295 770,-67 760.326,-54.6251 671.021,-35.9133 614.129,-25.0807"/>
<polygon fill="midnightblue" stroke="midnightblue" points="725.836,-116.42 717.912,-123.452 728.492,-122.897 725.836,-116.42"/>
</g>
<!-- Node21 -->
<g id="node21" class="node"><title>Node21</title>
<g id="a_node21"><a xlink:href="../../dc/d93/cipclass3connection_8c.html" target="_top" xlink:title="src/cip/cipclass3connection.c">
<polygon fill="none" stroke="black" points="544,-67.5 544,-86.5 690,-86.5 690,-67.5 544,-67.5"/>
<text text-anchor="middle" x="617" y="-74.5" font-family="Helvetica,sans-Serif" font-size="10.00">src/cip/cipclass3connection.c</text>
</a>
</g>
</g>
<!-- Node20&#45;&gt;Node21 -->
<g id="edge23" class="edge"><title>Node20&#45;&gt;Node21</title>
<path fill="none" stroke="midnightblue" d="M672.424,-117.38C658.688,-107.62 641.075,-95.1057 629.433,-86.8339"/>
<polygon fill="midnightblue" stroke="midnightblue" points="670.61,-120.385 680.789,-123.324 674.665,-114.679 670.61,-120.385"/>
</g>
<!-- Node22&#45;&gt;Node6 -->
<g id="edge27" class="edge"><title>Node22&#45;&gt;Node6</title>
<path fill="none" stroke="midnightblue" d="M1165.35,-73.2589C1006.79,-65.0831 547.175,-40.8284 480,-31 470.156,-29.5597 459.57,-27.34 449.982,-25.0669"/>
<polygon fill="midnightblue" stroke="midnightblue" points="1165.63,-76.7777 1175.8,-73.7966 1165.99,-69.787 1165.63,-76.7777"/>
</g>
<!-- Node22&#45;&gt;Node7 -->
<g id="edge28" class="edge"><title>Node22&#45;&gt;Node7</title>
<path fill="none" stroke="midnightblue" d="M1165.79,-70.7892C1152.17,-69.502 1137.55,-68.1605 1124,-67 915.264,-49.1198 861.974,-56.2457 654,-31 640.775,-29.3947 626.491,-27.2058 613.395,-25.0154"/>
<polygon fill="midnightblue" stroke="midnightblue" points="1165.69,-74.2952 1175.98,-71.759 1166.36,-67.3268 1165.69,-74.2952"/>
</g>
<!-- Node22&#45;&gt;Node11 -->
<g id="edge30" class="edge"><title>Node22&#45;&gt;Node11</title>
<path fill="none" stroke="midnightblue" d="M1251.65,-63.9329C1282.94,-52.3683 1329.38,-35.2083 1356.98,-25.0091"/>
<polygon fill="midnightblue" stroke="midnightblue" points="1250.23,-60.7256 1242.07,-67.4751 1252.66,-67.2915 1250.23,-60.7256"/>
</g>
<!-- Node22&#45;&gt;Node17 -->
<g id="edge31" class="edge"><title>Node22&#45;&gt;Node17</title>
<path fill="none" stroke="midnightblue" d="M1165.59,-70.6443C1090.53,-62.9296 949.603,-47.7617 830,-31 827.087,-30.5917 824.121,-30.1641 821.127,-29.7224"/>
<polygon fill="midnightblue" stroke="midnightblue" points="1165.44,-74.1463 1175.74,-71.6829 1166.15,-67.1827 1165.44,-74.1463"/>
</g>
<!-- Node22&#45;&gt;Node18 -->
<g id="edge32" class="edge"><title>Node22&#45;&gt;Node18</title>
<path fill="none" stroke="midnightblue" d="M1165.76,-65.4757C1116.56,-55.7501 1043.1,-41.2295 988.94,-30.523"/>
<polygon fill="midnightblue" stroke="midnightblue" points="1165.39,-68.9694 1175.87,-67.4751 1166.74,-62.1022 1165.39,-68.9694"/>
</g>
<!-- Node23 -->
<g id="node23" class="node"><title>Node23</title>
<g id="a_node23"><a xlink:href="../../dd/d34/cipqos_8c.html" target="_top" xlink:title="src/cip/cipqos.c">
<polygon fill="none" stroke="black" points="1191,-6 1191,-25 1277,-25 1277,-6 1191,-6"/>
<text text-anchor="middle" x="1234" y="-13" font-family="Helvetica,sans-Serif" font-size="10.00">src/cip/cipqos.c</text>
</a>
</g>
</g>
<!-- Node22&#45;&gt;Node23 -->
<g id="edge29" class="edge"><title>Node22&#45;&gt;Node23</title>
<path fill="none" stroke="midnightblue" d="M1223.62,-57.6575C1226.37,-46.7724 1229.72,-33.4863 1231.85,-25.0091"/>
<polygon fill="midnightblue" stroke="midnightblue" points="1220.2,-56.9229 1221.15,-67.4751 1226.99,-58.6341 1220.2,-56.9229"/>
</g>
<!-- Node24 -->
<g id="node24" class="node"><title>Node24</title>
<g id="a_node24"><a xlink:href="../../d5/dc8/WIN32_2sample__application_2sampleapplication_8c.html" target="_top" xlink:title="src/ports/WIN32/sample\l_application/sampleapplication.c">
<polygon fill="none" stroke="black" points="1015,-0.5 1015,-30.5 1173,-30.5 1173,-0.5 1015,-0.5"/>
<text text-anchor="start" x="1023" y="-18.5" font-family="Helvetica,sans-Serif" font-size="10.00">src/ports/WIN32/sample</text>
<text text-anchor="middle" x="1094" y="-7.5" font-family="Helvetica,sans-Serif" font-size="10.00">_application/sampleapplication.c</text>
</a>
</g>
</g>
<!-- Node22&#45;&gt;Node24 -->
<g id="edge33" class="edge"><title>Node22&#45;&gt;Node24</title>
<path fill="none" stroke="midnightblue" d="M1191.84,-63.0696C1171.66,-53.4655 1144.16,-40.3784 1123.46,-30.523"/>
<polygon fill="midnightblue" stroke="midnightblue" points="1190.56,-66.3374 1201.09,-67.4751 1193.57,-60.0169 1190.56,-66.3374"/>
</g>
<!-- Node25&#45;&gt;Node7 -->
<g id="edge36" class="edge"><title>Node25&#45;&gt;Node7</title>
<path fill="none" stroke="midnightblue" d="M1256.39,-120.43C1208.2,-105.669 1120.62,-80.4441 1044,-67 872.549,-36.9164 826.633,-53.3234 654,-31 641.092,-29.3308 627.164,-27.1715 614.317,-25.0316"/>
<polygon fill="midnightblue" stroke="midnightblue" points="1255.47,-123.809 1266.05,-123.413 1257.53,-117.12 1255.47,-123.809"/>
</g>
<!-- Node25&#45;&gt;Node8 -->
<g id="edge37" class="edge"><title>Node25&#45;&gt;Node8</title>
<path fill="none" stroke="midnightblue" d="M1311.8,-117.105C1330.68,-102.715 1361.04,-81.0834 1390,-67 1429.32,-47.8754 1477.64,-33.4412 1509.77,-25.0016"/>
<polygon fill="midnightblue" stroke="midnightblue" points="1309.51,-114.45 1303.74,-123.339 1313.79,-119.986 1309.51,-114.45"/>
</g>
<!-- Node28&#45;&gt;Node6 -->
<g id="edge50" class="edge"><title>Node28&#45;&gt;Node6</title>
<path fill="none" stroke="midnightblue" d="M404.178,-118.606C391.521,-111.234 378.077,-100.753 371,-87 358.817,-63.3256 387.356,-37.8858 405.124,-25.0117"/>
<polygon fill="midnightblue" stroke="midnightblue" points="402.687,-121.778 413.153,-123.427 405.999,-115.611 402.687,-121.778"/>
</g>
<!-- Node28&#45;&gt;Node7 -->
<g id="edge51" class="edge"><title>Node28&#45;&gt;Node7</title>
<path fill="none" stroke="midnightblue" d="M455.685,-117.847C468.156,-109.384 483.898,-98.1392 497,-87 521.179,-66.4432 546.763,-39.0164 559.241,-25.2149"/>
<polygon fill="midnightblue" stroke="midnightblue" points="453.634,-115.008 447.267,-123.476 457.526,-120.827 453.634,-115.008"/>
</g>
<!-- Node28&#45;&gt;Node10 -->
<g id="edge59" class="edge"><title>Node28&#45;&gt;Node10</title>
<path fill="none" stroke="midnightblue" d="M363.032,-130.942C287.751,-128.14 176,-118.598 149,-87 125.651,-59.6748 178.618,-36.7636 214.474,-25.0007"/>
<polygon fill="midnightblue" stroke="midnightblue" points="363.287,-134.453 373.4,-131.295 363.525,-127.457 363.287,-134.453"/>
</g>
<!-- Node28&#45;&gt;Node11 -->
<g id="edge60" class="edge"><title>Node28&#45;&gt;Node11</title>
<path fill="none" stroke="midnightblue" d="M504.996,-128.302C706.278,-117.804 1266.46,-88.4742 1271,-87 1276.33,-85.2689 1339.24,-43.6286 1366.99,-25.1714"/>
<polygon fill="midnightblue" stroke="midnightblue" points="504.632,-124.816 494.828,-128.833 504.996,-131.807 504.632,-124.816"/>
</g>
<!-- Node28&#45;&gt;Node21 -->
<g id="edge49" class="edge"><title>Node28&#45;&gt;Node21</title>
<path fill="none" stroke="midnightblue" d="M472.743,-120.568C507.265,-110.381 557.005,-95.7034 588.139,-86.5164"/>
<polygon fill="midnightblue" stroke="midnightblue" points="471.597,-117.256 462.997,-123.444 473.579,-123.97 471.597,-117.256"/>
</g>
<!-- Node28&#45;&gt;Node27 -->
<g id="edge58" class="edge"><title>Node28&#45;&gt;Node27</title>
<path fill="none" stroke="midnightblue" d="M363.017,-131.559C301.564,-128.789 211.558,-118.894 140,-87 106.496,-72.0667 75.3518,-40.4657 61.5203,-25.1639"/>
<polygon fill="midnightblue" stroke="midnightblue" points="363.255,-135.071 373.386,-131.971 363.533,-128.077 363.255,-135.071"/>
</g>
<!-- Node29 -->
<g id="node29" class="node"><title>Node29</title>
<g id="a_node29"><a xlink:href="../../d0/dff/cpf_8h.html" target="_top" xlink:title="src/enet_encap/cpf.h">
<polygon fill="none" stroke="black" points="380,-67.5 380,-86.5 488,-86.5 488,-67.5 380,-67.5"/>
<text text-anchor="middle" x="434" y="-74.5" font-family="Helvetica,sans-Serif" font-size="10.00">src/enet_encap/cpf.h</text>
</a>
</g>
</g>
<!-- Node28&#45;&gt;Node29 -->
<g id="edge52" class="edge"><title>Node28&#45;&gt;Node29</title>
<path fill="none" stroke="midnightblue" d="M434,-112.805C434,-103.91 434,-93.7798 434,-86.7511"/>
<polygon fill="midnightblue" stroke="midnightblue" points="430.5,-113.083 434,-123.083 437.5,-113.083 430.5,-113.083"/>
</g>
<!-- Node30 -->
<g id="node30" class="node"><title>Node30</title>
<g id="a_node30"><a xlink:href="../../d2/d5e/POSIX_2networkhandler_8c.html" target="_top" xlink:title="src/ports/POSIX/networkhandler.c">
<polygon fill="none" stroke="black" points="158,-67.5 158,-86.5 324,-86.5 324,-67.5 158,-67.5"/>
<text text-anchor="middle" x="241" y="-74.5" font-family="Helvetica,sans-Serif" font-size="10.00">src/ports/POSIX/networkhandler.c</text>
</a>
</g>
</g>
<!-- Node28&#45;&gt;Node30 -->
<g id="edge61" class="edge"><title>Node28&#45;&gt;Node30</title>
<path fill="none" stroke="midnightblue" d="M393.608,-120.699C357.183,-110.507 304.414,-95.7429 271.438,-86.5164"/>
<polygon fill="midnightblue" stroke="midnightblue" points="392.845,-124.12 403.419,-123.444 394.731,-117.378 392.845,-124.12"/>
</g>
<!-- Node29&#45;&gt;Node6 -->
<g id="edge53" class="edge"><title>Node29&#45;&gt;Node6</title>
<path fill="none" stroke="midnightblue" d="M429.068,-57.6575C426.14,-46.7724 422.568,-33.4863 420.288,-25.0091"/>
<polygon fill="midnightblue" stroke="midnightblue" points="425.731,-58.7271 431.708,-67.4751 432.491,-56.9092 425.731,-58.7271"/>
</g>
<!-- Node29&#45;&gt;Node7 -->
<g id="edge54" class="edge"><title>Node29&#45;&gt;Node7</title>
<path fill="none" stroke="midnightblue" d="M462.327,-63.3272C488.147,-51.7761 525.576,-35.0316 547.98,-25.0091"/>
<polygon fill="midnightblue" stroke="midnightblue" points="460.755,-60.1965 453.056,-67.4751 463.613,-66.5862 460.755,-60.1965"/>
</g>
<!-- Node29&#45;&gt;Node8 -->
<g id="edge55" class="edge"><title>Node29&#45;&gt;Node8</title>
<path fill="none" stroke="midnightblue" d="M498.306,-69.7795C510.485,-68.7405 523.127,-67.7563 535,-67 951.352,-40.477 1058.73,-80.341 1473,-31 1484.65,-29.6126 1497.22,-27.3497 1508.55,-25.0198"/>
<polygon fill="midnightblue" stroke="midnightblue" points="497.87,-66.3042 488.213,-70.6614 498.479,-73.2777 497.87,-66.3042"/>
</g>
<!-- Node29&#45;&gt;Node10 -->
<g id="edge57" class="edge"><title>Node29&#45;&gt;Node10</title>
<path fill="none" stroke="midnightblue" d="M396.896,-64.3806C359.965,-52.8152 304.164,-35.3407 271.172,-25.0091"/>
<polygon fill="midnightblue" stroke="midnightblue" points="396.189,-67.8266 406.778,-67.4751 398.281,-61.1465 396.189,-67.8266"/>
</g>
<!-- Node29&#45;&gt;Node27 -->
<g id="edge56" class="edge"><title>Node29&#45;&gt;Node27</title>
<path fill="none" stroke="midnightblue" d="M369.902,-65.9635C296.406,-54.4556 177.205,-35.7913 108.162,-24.9806"/>
<polygon fill="midnightblue" stroke="midnightblue" points="369.538,-69.4491 379.959,-67.5383 370.621,-62.5334 369.538,-69.4491"/>
</g>
</g>
</svg>
