<?xml version="1.0" encoding="UTF-8" standalone="no"?>
<!DOCTYPE svg PUBLIC "-//W3C//DTD SVG 1.1//EN"
 "http://www.w3.org/Graphics/SVG/1.1/DTD/svg11.dtd">
<!-- Generated by graphviz version 2.38.0 (20140413.2041)
 -->
<!-- Title: src/cip/cipethernetlink.c Pages: 1 -->
<svg width="685pt" height="308pt"
 viewBox="0.00 0.00 685.00 308.00" xmlns="http://www.w3.org/2000/svg" xmlns:xlink="http://www.w3.org/1999/xlink">
<g id="graph0" class="graph" transform="scale(1 1) rotate(0) translate(4 304)">
<title>src/cip/cipethernetlink.c</title>
<!-- Node1 -->
<g id="node1" class="node"><title>Node1</title>
<polygon fill="#bfbfbf" stroke="black" points="258.5,-280.5 258.5,-299.5 378.5,-299.5 378.5,-280.5 258.5,-280.5"/>
<text text-anchor="middle" x="318.5" y="-287.5" font-family="Helvetica,sans-Serif" font-size="10.00">src/cip/cipethernetlink.c</text>
</g>
<!-- Node2 -->
<g id="node2" class="node"><title>Node2</title>
<polygon fill="none" stroke="#bfbfbf" points="0,-224.5 0,-243.5 49,-243.5 49,-224.5 0,-224.5"/>
<text text-anchor="middle" x="24.5" y="-231.5" font-family="Helvetica,sans-Serif" font-size="10.00">string.h</text>
</g>
<!-- Node1&#45;&gt;Node2 -->
<g id="edge1" class="edge"><title>Node1&#45;&gt;Node2</title>
<path fill="none" stroke="midnightblue" d="M265.603,-280.492C213.924,-271.985 133.102,-258.162 63.5,-244 62.053,-243.706 60.5776,-243.398 59.0883,-243.082"/>
<polygon fill="midnightblue" stroke="midnightblue" points="59.7339,-239.64 49.2153,-240.908 58.2289,-246.476 59.7339,-239.64"/>
</g>
<!-- Node3 -->
<g id="node3" class="node"><title>Node3</title>
<g id="a_node3"><a xlink:href="../../dd/d4d/cipethernetlink_8h.html" target="_top" xlink:title="cipethernetlink.h">
<polygon fill="none" stroke="black" points="225.5,-224.5 225.5,-243.5 313.5,-243.5 313.5,-224.5 225.5,-224.5"/>
<text text-anchor="middle" x="269.5" y="-231.5" font-family="Helvetica,sans-Serif" font-size="10.00">cipethernetlink.h</text>
</a>
</g>
</g>
<!-- Node1&#45;&gt;Node3 -->
<g id="edge2" class="edge"><title>Node1&#45;&gt;Node3</title>
<path fill="none" stroke="midnightblue" d="M310.409,-280.083C303.345,-272.298 292.912,-260.801 284.351,-251.367"/>
<polygon fill="midnightblue" stroke="midnightblue" points="286.753,-248.805 277.441,-243.751 281.569,-253.509 286.753,-248.805"/>
</g>
<!-- Node13 -->
<g id="node13" class="node"><title>Node13</title>
<g id="a_node13"><a xlink:href="../../db/d14/cipcommon_8h.html" target="_top" xlink:title="cipcommon.h">
<polygon fill="none" stroke="black" points="331,-224.5 331,-243.5 406,-243.5 406,-224.5 331,-224.5"/>
<text text-anchor="middle" x="368.5" y="-231.5" font-family="Helvetica,sans-Serif" font-size="10.00">cipcommon.h</text>
</a>
</g>
</g>
<!-- Node1&#45;&gt;Node13 -->
<g id="edge15" class="edge"><title>Node1&#45;&gt;Node13</title>
<path fill="none" stroke="midnightblue" d="M326.756,-280.083C333.965,-272.298 344.61,-260.801 353.346,-251.367"/>
<polygon fill="midnightblue" stroke="midnightblue" points="356.171,-253.467 360.397,-243.751 351.035,-248.711 356.171,-253.467"/>
</g>
<!-- Node14 -->
<g id="node14" class="node"><title>Node14</title>
<g id="a_node14"><a xlink:href="../../d2/d75/cipmessagerouter_8h.html" target="_top" xlink:title="cipmessagerouter.h">
<polygon fill="none" stroke="black" points="105.5,-224.5 105.5,-243.5 207.5,-243.5 207.5,-224.5 105.5,-224.5"/>
<text text-anchor="middle" x="156.5" y="-231.5" font-family="Helvetica,sans-Serif" font-size="10.00">cipmessagerouter.h</text>
</a>
</g>
</g>
<!-- Node1&#45;&gt;Node14 -->
<g id="edge18" class="edge"><title>Node1&#45;&gt;Node14</title>
<path fill="none" stroke="midnightblue" d="M292.831,-280.444C265.577,-271.359 222.316,-256.939 191.849,-246.783"/>
<polygon fill="midnightblue" stroke="midnightblue" points="192.643,-243.358 182.049,-243.516 190.429,-249.999 192.643,-243.358"/>
</g>
<!-- Node15 -->
<g id="node15" class="node"><title>Node15</title>
<g id="a_node15"><a xlink:href="../../d6/d52/ciperror_8h.html" target="_top" xlink:title="ciperror.h">
<polygon fill="none" stroke="black" points="620,-168.5 620,-187.5 677,-187.5 677,-168.5 620,-168.5"/>
<text text-anchor="middle" x="648.5" y="-175.5" font-family="Helvetica,sans-Serif" font-size="10.00">ciperror.h</text>
</a>
</g>
</g>
<!-- Node1&#45;&gt;Node15 -->
<g id="edge21" class="edge"><title>Node1&#45;&gt;Node15</title>
<path fill="none" stroke="midnightblue" d="M367.877,-280.448C406.138,-273.031 460.101,-260.83 505.5,-244 523.765,-237.229 526.885,-232.317 544.5,-224 569.073,-212.398 597.405,-200.216 618.286,-191.457"/>
<polygon fill="midnightblue" stroke="midnightblue" points="619.722,-194.65 627.602,-187.569 617.026,-188.19 619.722,-194.65"/>
</g>
<!-- Node16 -->
<g id="node16" class="node"><title>Node16</title>
<g id="a_node16"><a xlink:href="../../d0/dec/endianconv_8h.html" target="_top" xlink:title="Responsible for Endianess conversion. ">
<polygon fill="none" stroke="black" points="40.5,-112.5 40.5,-131.5 114.5,-131.5 114.5,-112.5 40.5,-112.5"/>
<text text-anchor="middle" x="77.5" y="-119.5" font-family="Helvetica,sans-Serif" font-size="10.00">endianconv.h</text>
</a>
</g>
</g>
<!-- Node1&#45;&gt;Node16 -->
<g id="edge22" class="edge"><title>Node1&#45;&gt;Node16</title>
<path fill="none" stroke="midnightblue" d="M258.246,-284.432C200.293,-278.739 118.35,-266.839 96.5,-244 70.2497,-216.562 71.3764,-168.526 74.4591,-141.98"/>
<polygon fill="midnightblue" stroke="midnightblue" points="77.9718,-142.128 75.8738,-131.743 71.0377,-141.17 77.9718,-142.128"/>
</g>
<!-- Node17 -->
<g id="node17" class="node"><title>Node17</title>
<g id="a_node17"><a xlink:href="../../d4/d38/opener__api_8h.html" target="_top" xlink:title="opener_api.h">
<polygon fill="none" stroke="black" points="424.5,-224.5 424.5,-243.5 496.5,-243.5 496.5,-224.5 424.5,-224.5"/>
<text text-anchor="middle" x="460.5" y="-231.5" font-family="Helvetica,sans-Serif" font-size="10.00">opener_api.h</text>
</a>
</g>
</g>
<!-- Node1&#45;&gt;Node17 -->
<g id="edge24" class="edge"><title>Node1&#45;&gt;Node17</title>
<path fill="none" stroke="midnightblue" d="M341,-280.444C364.577,-271.478 401.822,-257.314 428.464,-247.183"/>
<polygon fill="midnightblue" stroke="midnightblue" points="430.002,-250.342 438.105,-243.516 427.514,-243.8 430.002,-250.342"/>
</g>
<!-- Node19 -->
<g id="node19" class="node"><title>Node19</title>
<g id="a_node19"><a xlink:href="../../d1/d1b/trace_8h.html" target="_top" xlink:title="Tracing infrastructure for OpENer. ">
<polygon fill="none" stroke="black" points="553,-224.5 553,-243.5 600,-243.5 600,-224.5 553,-224.5"/>
<text text-anchor="middle" x="576.5" y="-231.5" font-family="Helvetica,sans-Serif" font-size="10.00">trace.h</text>
</a>
</g>
</g>
<!-- Node1&#45;&gt;Node19 -->
<g id="edge30" class="edge"><title>Node1&#45;&gt;Node19</title>
<path fill="none" stroke="midnightblue" d="M362.412,-280.431C406.879,-271.658 477.589,-257.439 538.5,-244 539.948,-243.68 541.426,-243.35 542.919,-243.012"/>
<polygon fill="midnightblue" stroke="midnightblue" points="543.852,-246.389 552.809,-240.73 542.278,-239.568 543.852,-246.389"/>
</g>
<!-- Node4 -->
<g id="node4" class="node"><title>Node4</title>
<g id="a_node4"><a xlink:href="../../d7/d69/typedefs_8h.html" target="_top" xlink:title="typedefs.h">
<polygon fill="none" stroke="black" points="224.5,-56.5 224.5,-75.5 286.5,-75.5 286.5,-56.5 224.5,-56.5"/>
<text text-anchor="middle" x="255.5" y="-63.5" font-family="Helvetica,sans-Serif" font-size="10.00">typedefs.h</text>
</a>
</g>
</g>
<!-- Node3&#45;&gt;Node4 -->
<g id="edge3" class="edge"><title>Node3&#45;&gt;Node4</title>
<path fill="none" stroke="midnightblue" d="M264.921,-224.405C256.133,-207.366 237.181,-167.848 230.5,-132 228.871,-123.262 228.27,-120.605 230.5,-112 233.046,-102.175 238.253,-92.2118 243.259,-84.166"/>
<polygon fill="midnightblue" stroke="midnightblue" points="246.249,-85.9903 248.871,-75.7252 240.42,-82.1143 246.249,-85.9903"/>
</g>
<!-- Node9 -->
<g id="node9" class="node"><title>Node9</title>
<g id="a_node9"><a xlink:href="../../df/d28/ciptypes_8h.html" target="_top" xlink:title="ciptypes.h">
<polygon fill="none" stroke="black" points="268.5,-168.5 268.5,-187.5 330.5,-187.5 330.5,-168.5 268.5,-168.5"/>
<text text-anchor="middle" x="299.5" y="-175.5" font-family="Helvetica,sans-Serif" font-size="10.00">ciptypes.h</text>
</a>
</g>
</g>
<!-- Node3&#45;&gt;Node9 -->
<g id="edge8" class="edge"><title>Node3&#45;&gt;Node9</title>
<path fill="none" stroke="midnightblue" d="M274.454,-224.083C278.604,-216.613 284.653,-205.724 289.767,-196.52"/>
<polygon fill="midnightblue" stroke="midnightblue" points="292.841,-198.192 294.638,-187.751 286.722,-194.793 292.841,-198.192"/>
</g>
<!-- Node5 -->
<g id="node5" class="node"><title>Node5</title>
<polygon fill="none" stroke="#bfbfbf" points="344,-0.5 344,-19.5 403,-19.5 403,-0.5 344,-0.5"/>
<text text-anchor="middle" x="373.5" y="-7.5" font-family="Helvetica,sans-Serif" font-size="10.00">inttypes.h</text>
</g>
<!-- Node4&#45;&gt;Node5 -->
<g id="edge4" class="edge"><title>Node4&#45;&gt;Node5</title>
<path fill="none" stroke="midnightblue" d="M274.197,-56.4435C293.444,-47.6356 323.652,-33.8116 345.7,-23.722"/>
<polygon fill="midnightblue" stroke="midnightblue" points="347.253,-26.8603 354.89,-19.5164 344.34,-20.4951 347.253,-26.8603"/>
</g>
<!-- Node6 -->
<g id="node6" class="node"><title>Node6</title>
<polygon fill="none" stroke="#bfbfbf" points="114.5,-0.5 114.5,-19.5 166.5,-19.5 166.5,-0.5 114.5,-0.5"/>
<text text-anchor="middle" x="140.5" y="-7.5" font-family="Helvetica,sans-Serif" font-size="10.00">stddef.h</text>
</g>
<!-- Node4&#45;&gt;Node6 -->
<g id="edge5" class="edge"><title>Node4&#45;&gt;Node6</title>
<path fill="none" stroke="midnightblue" d="M237.278,-56.4435C218.604,-47.6751 189.344,-33.9355 167.883,-23.8579"/>
<polygon fill="midnightblue" stroke="midnightblue" points="169.176,-20.5988 158.637,-19.5164 166.201,-26.935 169.176,-20.5988"/>
</g>
<!-- Node7 -->
<g id="node7" class="node"><title>Node7</title>
<polygon fill="none" stroke="#bfbfbf" points="506.5,-0.5 506.5,-19.5 562.5,-19.5 562.5,-0.5 506.5,-0.5"/>
<text text-anchor="middle" x="534.5" y="-7.5" font-family="Helvetica,sans-Serif" font-size="10.00">stdbool.h</text>
</g>
<!-- Node4&#45;&gt;Node7 -->
<g id="edge6" class="edge"><title>Node4&#45;&gt;Node7</title>
<path fill="none" stroke="midnightblue" d="M286.693,-58.9627C338.123,-49.0084 440.555,-29.1829 496.265,-18.4003"/>
<polygon fill="midnightblue" stroke="midnightblue" points="497.275,-21.7698 506.428,-16.4333 495.945,-14.8973 497.275,-21.7698"/>
</g>
<!-- Node8 -->
<g id="node8" class="node"><title>Node8</title>
<polygon fill="none" stroke="#bfbfbf" points="185,-0.5 185,-19.5 326,-19.5 326,-0.5 185,-0.5"/>
<text text-anchor="middle" x="255.5" y="-7.5" font-family="Helvetica,sans-Serif" font-size="10.00">platform_network_includes.h</text>
</g>
<!-- Node4&#45;&gt;Node8 -->
<g id="edge7" class="edge"><title>Node4&#45;&gt;Node8</title>
<path fill="none" stroke="midnightblue" d="M255.5,-56.083C255.5,-49.0059 255.5,-38.8611 255.5,-29.9865"/>
<polygon fill="midnightblue" stroke="midnightblue" points="259,-29.751 255.5,-19.7511 252,-29.7511 259,-29.751"/>
</g>
<!-- Node9&#45;&gt;Node4 -->
<g id="edge9" class="edge"><title>Node9&#45;&gt;Node4</title>
<path fill="none" stroke="midnightblue" d="M279.594,-168.41C265.275,-161.04 247.042,-148.916 238.5,-132 230.885,-116.919 237.329,-98.0951 244.361,-84.5919"/>
<polygon fill="midnightblue" stroke="midnightblue" points="247.448,-86.2443 249.392,-75.8294 241.378,-82.7585 247.448,-86.2443"/>
</g>
<!-- Node10 -->
<g id="node10" class="node"><title>Node10</title>
<g id="a_node10"><a xlink:href="../../d0/d47/networkhandler_8h.html" target="_top" xlink:title="networkhandler.h">
<polygon fill="none" stroke="black" points="247,-112.5 247,-131.5 338,-131.5 338,-112.5 247,-112.5"/>
<text text-anchor="middle" x="292.5" y="-119.5" font-family="Helvetica,sans-Serif" font-size="10.00">networkhandler.h</text>
</a>
</g>
</g>
<!-- Node9&#45;&gt;Node10 -->
<g id="edge10" class="edge"><title>Node9&#45;&gt;Node10</title>
<path fill="none" stroke="midnightblue" d="M298.344,-168.083C297.416,-160.927 296.082,-150.635 294.923,-141.691"/>
<polygon fill="midnightblue" stroke="midnightblue" points="298.391,-141.218 293.634,-131.751 291.449,-142.118 298.391,-141.218"/>
</g>
<!-- Node11 -->
<g id="node11" class="node"><title>Node11</title>
<g id="a_node11"><a xlink:href="../../d8/d2c/enipmessage_8h.html" target="_top" xlink:title="enipmessage.h">
<polygon fill="none" stroke="black" points="433,-112.5 433,-131.5 516,-131.5 516,-112.5 433,-112.5"/>
<text text-anchor="middle" x="474.5" y="-119.5" font-family="Helvetica,sans-Serif" font-size="10.00">enipmessage.h</text>
</a>
</g>
</g>
<!-- Node9&#45;&gt;Node11 -->
<g id="edge12" class="edge"><title>Node9&#45;&gt;Node11</title>
<path fill="none" stroke="midnightblue" d="M327.229,-168.444C356.926,-159.28 404.216,-144.688 437.169,-134.519"/>
<polygon fill="midnightblue" stroke="midnightblue" points="438.377,-137.809 446.9,-131.516 436.313,-131.121 438.377,-137.809"/>
</g>
<!-- Node12 -->
<g id="node12" class="node"><title>Node12</title>
<polygon fill="none" stroke="#bfbfbf" points="437.5,-56.5 437.5,-75.5 539.5,-75.5 539.5,-56.5 437.5,-56.5"/>
<text text-anchor="middle" x="488.5" y="-63.5" font-family="Helvetica,sans-Serif" font-size="10.00">opener_user_conf.h</text>
</g>
<!-- Node9&#45;&gt;Node12 -->
<g id="edge14" class="edge"><title>Node9&#45;&gt;Node12</title>
<path fill="none" stroke="midnightblue" d="M330.683,-175.509C386.792,-172.103 501.202,-161.613 525.5,-132 538.148,-116.585 522.309,-96.2749 507.607,-82.4891"/>
<polygon fill="midnightblue" stroke="midnightblue" points="509.566,-79.5502 499.745,-75.574 504.943,-84.8065 509.566,-79.5502"/>
</g>
<!-- Node10&#45;&gt;Node4 -->
<g id="edge11" class="edge"><title>Node10&#45;&gt;Node4</title>
<path fill="none" stroke="midnightblue" d="M286.39,-112.083C281.218,-104.534 273.654,-93.4948 267.306,-84.2298"/>
<polygon fill="midnightblue" stroke="midnightblue" points="270.036,-82.0221 261.496,-75.7511 264.261,-85.9787 270.036,-82.0221"/>
</g>
<!-- Node11&#45;&gt;Node12 -->
<g id="edge13" class="edge"><title>Node11&#45;&gt;Node12</title>
<path fill="none" stroke="midnightblue" d="M476.812,-112.083C478.667,-104.927 481.335,-94.6353 483.654,-85.6911"/>
<polygon fill="midnightblue" stroke="midnightblue" points="487.109,-86.3094 486.231,-75.7511 480.334,-84.5527 487.109,-86.3094"/>
</g>
<!-- Node13&#45;&gt;Node4 -->
<g id="edge16" class="edge"><title>Node13&#45;&gt;Node4</title>
<path fill="none" stroke="midnightblue" d="M369.484,-224.357C371.442,-202.968 373.609,-146.786 347.5,-112 335.015,-95.3653 314.73,-84.537 296.381,-77.6819"/>
<polygon fill="midnightblue" stroke="midnightblue" points="297.327,-74.3059 286.732,-74.3603 295.048,-80.9247 297.327,-74.3059"/>
</g>
<!-- Node13&#45;&gt;Node9 -->
<g id="edge17" class="edge"><title>Node13&#45;&gt;Node9</title>
<path fill="none" stroke="midnightblue" d="M357.414,-224.324C347.014,-216.185 331.239,-203.839 318.778,-194.087"/>
<polygon fill="midnightblue" stroke="midnightblue" points="320.82,-191.241 310.788,-187.834 316.506,-196.753 320.82,-191.241"/>
</g>
<!-- Node14&#45;&gt;Node4 -->
<g id="edge19" class="edge"><title>Node14&#45;&gt;Node4</title>
<path fill="none" stroke="midnightblue" d="M161.018,-224.336C171.567,-204.252 198.87,-153.098 224.5,-112 230.399,-102.541 237.413,-92.2856 243.277,-83.9569"/>
<polygon fill="midnightblue" stroke="midnightblue" points="246.132,-85.9811 249.08,-75.8047 240.429,-81.9215 246.132,-85.9811"/>
</g>
<!-- Node14&#45;&gt;Node9 -->
<g id="edge20" class="edge"><title>Node14&#45;&gt;Node9</title>
<path fill="none" stroke="midnightblue" d="M179.159,-224.444C202.902,-215.478 240.409,-201.314 267.238,-191.183"/>
<polygon fill="midnightblue" stroke="midnightblue" points="268.829,-194.324 276.947,-187.516 266.356,-187.775 268.829,-194.324"/>
</g>
<!-- Node16&#45;&gt;Node4 -->
<g id="edge23" class="edge"><title>Node16&#45;&gt;Node4</title>
<path fill="none" stroke="midnightblue" d="M105.705,-112.444C135.91,-103.28 184.011,-88.6876 217.529,-78.5192"/>
<polygon fill="midnightblue" stroke="midnightblue" points="218.874,-81.7688 227.427,-75.5164 216.842,-75.0703 218.874,-81.7688"/>
</g>
<!-- Node17&#45;&gt;Node4 -->
<g id="edge27" class="edge"><title>Node17&#45;&gt;Node4</title>
<path fill="none" stroke="midnightblue" d="M455.972,-224.424C444.104,-202.702 409.987,-144.904 366.5,-112 345.793,-96.332 318.876,-85.2421 296.734,-77.992"/>
<polygon fill="midnightblue" stroke="midnightblue" points="297.525,-74.5723 286.936,-74.9284 295.436,-81.2534 297.525,-74.5723"/>
</g>
<!-- Node17&#45;&gt;Node7 -->
<g id="edge26" class="edge"><title>Node17&#45;&gt;Node7</title>
<path fill="none" stroke="midnightblue" d="M470.28,-224.42C487.918,-208.301 524.776,-171.54 541.5,-132 554.714,-100.759 553.596,-89.5357 548.5,-56 547.132,-47.001 544.31,-37.3251 541.555,-29.2601"/>
<polygon fill="midnightblue" stroke="midnightblue" points="544.812,-27.9759 538.1,-19.7782 538.235,-30.3722 544.812,-27.9759"/>
</g>
<!-- Node17&#45;&gt;Node9 -->
<g id="edge28" class="edge"><title>Node17&#45;&gt;Node9</title>
<path fill="none" stroke="midnightblue" d="M434.989,-224.444C407.904,-215.359 364.91,-200.939 334.631,-190.783"/>
<polygon fill="midnightblue" stroke="midnightblue" points="335.486,-187.378 324.892,-187.516 333.26,-194.015 335.486,-187.378"/>
</g>
<!-- Node17&#45;&gt;Node15 -->
<g id="edge29" class="edge"><title>Node17&#45;&gt;Node15</title>
<path fill="none" stroke="midnightblue" d="M490.289,-224.444C522.612,-215.159 574.337,-200.302 609.787,-190.12"/>
<polygon fill="midnightblue" stroke="midnightblue" points="611.13,-193.376 619.775,-187.251 609.197,-186.648 611.13,-193.376"/>
</g>
<!-- Node18 -->
<g id="node18" class="node"><title>Node18</title>
<polygon fill="none" stroke="#bfbfbf" points="549.5,-168.5 549.5,-187.5 601.5,-187.5 601.5,-168.5 549.5,-168.5"/>
<text text-anchor="middle" x="575.5" y="-175.5" font-family="Helvetica,sans-Serif" font-size="10.00">assert.h</text>
</g>
<!-- Node17&#45;&gt;Node18 -->
<g id="edge25" class="edge"><title>Node17&#45;&gt;Node18</title>
<path fill="none" stroke="midnightblue" d="M478.722,-224.444C497.396,-215.675 526.656,-201.935 548.117,-191.858"/>
<polygon fill="midnightblue" stroke="midnightblue" points="549.799,-194.935 557.363,-187.516 546.824,-188.599 549.799,-194.935"/>
</g>
</g>
</svg>
