<?xml version="1.0" encoding="UTF-8" standalone="no"?>
<!DOCTYPE svg PUBLIC "-//W3C//DTD SVG 1.1//EN"
 "http://www.w3.org/Graphics/SVG/1.1/DTD/svg11.dtd">
<!-- Generated by graphviz version 2.36.0 (20140111.2315)
 -->
<!-- Title: src/cip/cipethernetlink.c Pages: 1 -->
<!--zoomable 252 -->
<svg id="main" version="1.1" xmlns="http://www.w3.org/2000/svg" xmlns:xlink="http://www.w3.org/1999/xlink" xml:space="preserve" onload="init(evt)">
<style type="text/css"><![CDATA[
.edge:hover path { stroke: red; }
.edge:hover polygon { stroke: red; fill: red; }
]]></style>
<script type="text/javascript"><![CDATA[
var edges = document.getElementsByTagName('g');
if (edges && edges.length) {
  for (var i=0;i<edges.length;i++) {
    if (edges[i].id.substr(0,4)=='edge') {
      edges[i].setAttribute('class','edge');
    }
  }
}
]]></script>
        <defs>
                <circle id="rim" cx="0" cy="0" r="7"/>
                <circle id="rim2" cx="0" cy="0" r="3.5"/>
                <g id="zoomPlus">
                        <use xlink:href="#rim" fill="#404040">
                                <set attributeName="fill" to="#808080" begin="zoomplus.mouseover" end="zoomplus.mouseout"/>
                        </use>
                        <path d="M-4,0h8M0,-4v8" fill="none" stroke="white" stroke-width="1.5" pointer-events="none"/>
                </g>
                <g id="zoomMin">
                        <use xlink:href="#rim" fill="#404040">
                                <set attributeName="fill" to="#808080" begin="zoomminus.mouseover" end="zoomminus.mouseout"/>
                        </use>
                        <path d="M-4,0h8" fill="none" stroke="white" stroke-width="1.5" pointer-events="none"/>
                </g>
                <g id="dirArrow">
                        <path fill="none" stroke="white" stroke-width="1.5" d="M0,-3.0v7 M-2.5,-0.5L0,-3.0L2.5,-0.5"/>
                </g>
               <g id="resetDef">
                       <use xlink:href="#rim2" fill="#404040">
                               <set attributeName="fill" to="#808080" begin="reset.mouseover" end="reset.mouseout"/>
                       </use>
               </g>
        </defs>

<script type="text/javascript">
var viewWidth = 621;
var viewHeight = 252;
var sectionId = 'dynsection-0';
</script>
<script xlink:href="../../svgpan.js"/>
<svg id="graph" class="graph">
<g id="viewport">
<title>src/cip/cipethernetlink.c</title>
<!-- Node1 -->
<g id="node1" class="node"><title>Node1</title>
<polygon fill="#bfbfbf" stroke="black" points="294,-224.5 294,-243.5 414,-243.5 414,-224.5 294,-224.5"/>
<text text-anchor="middle" x="354" y="-231.5" font-family="Helvetica,sans-Serif" font-size="10.00">src/cip/cipethernetlink.c</text>
</g>
<!-- Node2 -->
<g id="node2" class="node"><title>Node2</title>
<polygon fill="none" stroke="#bfbfbf" points="-0.5,-168.5 -0.5,-187.5 48.5,-187.5 48.5,-168.5 -0.5,-168.5"/>
<text text-anchor="middle" x="24" y="-175.5" font-family="Helvetica,sans-Serif" font-size="10.00">string.h</text>
</g>
<!-- Node1&#45;&gt;Node2 -->
<g id="edge1" class="edge"><title>Node1&#45;&gt;Node2</title>
<path fill="none" stroke="midnightblue" d="M293.903,-225.971C235.883,-218.717 145.405,-206.177 58.7865,-188.195"/>
<polygon fill="midnightblue" stroke="midnightblue" points="59.2976,-184.726 48.7911,-186.092 57.8561,-191.576 59.2976,-184.726"/>
</g>
<!-- Node3 -->
<g id="node3" class="node"><title>Node3</title>
<g id="a_node3"><a xlink:href="../../dd/d4d/cipethernetlink_8h.html" target="_top" xlink:title="cipethernetlink.h">
<polygon fill="none" stroke="black" points="66,-168.5 66,-187.5 154,-187.5 154,-168.5 66,-168.5"/>
<text text-anchor="middle" x="110" y="-175.5" font-family="Helvetica,sans-Serif" font-size="10.00">cipethernetlink.h</text>
</a>
</g>
</g>
<!-- Node1&#45;&gt;Node3 -->
<g id="edge2" class="edge"><title>Node1&#45;&gt;Node3</title>
<path fill="none" stroke="midnightblue" d="M315.337,-224.444C272.862,-215.043 204.569,-199.929 158.526,-189.739"/>
<polygon fill="midnightblue" stroke="midnightblue" points="159.002,-186.26 148.482,-187.516 157.489,-193.095 159.002,-186.26"/>
</g>
<!-- Node12 -->
<g id="node12" class="node"><title>Node12</title>
<g id="a_node12"><a xlink:href="../../db/d14/cipcommon_8h.html" target="_top" xlink:title="cipcommon.h">
<polygon fill="none" stroke="black" points="171.5,-168.5 171.5,-187.5 246.5,-187.5 246.5,-168.5 171.5,-168.5"/>
<text text-anchor="middle" x="209" y="-175.5" font-family="Helvetica,sans-Serif" font-size="10.00">cipcommon.h</text>
</a>
</g>
</g>
<!-- Node1&#45;&gt;Node12 -->
<g id="edge13" class="edge"><title>Node1&#45;&gt;Node12</title>
<path fill="none" stroke="midnightblue" d="M331.024,-224.444C306.843,-215.438 268.582,-201.189 241.354,-191.049"/>
<polygon fill="midnightblue" stroke="midnightblue" points="242.461,-187.727 231.868,-187.516 240.018,-194.286 242.461,-187.727"/>
</g>
<!-- Node13 -->
<g id="node13" class="node"><title>Node13</title>
<g id="a_node13"><a xlink:href="../../d2/d75/cipmessagerouter_8h.html" target="_top" xlink:title="cipmessagerouter.h">
<polygon fill="none" stroke="black" points="264,-168.5 264,-187.5 366,-187.5 366,-168.5 264,-168.5"/>
<text text-anchor="middle" x="315" y="-175.5" font-family="Helvetica,sans-Serif" font-size="10.00">cipmessagerouter.h</text>
</a>
</g>
</g>
<!-- Node1&#45;&gt;Node13 -->
<g id="edge16" class="edge"><title>Node1&#45;&gt;Node13</title>
<path fill="none" stroke="midnightblue" d="M347.56,-224.083C342.051,-216.455 333.969,-205.264 327.235,-195.941"/>
<polygon fill="midnightblue" stroke="midnightblue" points="330.013,-193.809 321.32,-187.751 324.338,-197.907 330.013,-193.809"/>
</g>
<!-- Node14 -->
<g id="node14" class="node"><title>Node14</title>
<g id="a_node14"><a xlink:href="../../d6/d52/ciperror_8h.html" target="_top" xlink:title="ciperror.h">
<polygon fill="none" stroke="black" points="556.5,-112.5 556.5,-131.5 613.5,-131.5 613.5,-112.5 556.5,-112.5"/>
<text text-anchor="middle" x="585" y="-119.5" font-family="Helvetica,sans-Serif" font-size="10.00">ciperror.h</text>
</a>
</g>
</g>
<!-- Node1&#45;&gt;Node14 -->
<g id="edge19" class="edge"><title>Node1&#45;&gt;Node14</title>
<path fill="none" stroke="midnightblue" d="M397.404,-224.452C428.057,-217.344 469.475,-205.529 503,-188 528.224,-174.811 553.29,-153.417 568.941,-138.802"/>
<polygon fill="midnightblue" stroke="midnightblue" points="571.401,-141.293 576.219,-131.857 566.568,-136.229 571.401,-141.293"/>
</g>
<!-- Node15 -->
<g id="node15" class="node"><title>Node15</title>
<g id="a_node15"><a xlink:href="../../d0/dec/endianconv_8h.html" target="_top" xlink:title="Responsible for Endianess conversion. ">
<polygon fill="none" stroke="black" points="318,-112.5 318,-131.5 392,-131.5 392,-112.5 318,-112.5"/>
<text text-anchor="middle" x="355" y="-119.5" font-family="Helvetica,sans-Serif" font-size="10.00">endianconv.h</text>
</a>
</g>
</g>
<!-- Node1&#45;&gt;Node15 -->
<g id="edge20" class="edge"><title>Node1&#45;&gt;Node15</title>
<path fill="none" stroke="midnightblue" d="M359.13,-224.407C364.058,-215.614 371.16,-201.381 374,-188 377.428,-171.847 371.375,-153.853 365.213,-140.9"/>
<polygon fill="midnightblue" stroke="midnightblue" points="368.155,-138.972 360.427,-131.724 361.949,-142.209 368.155,-138.972"/>
</g>
<!-- Node16 -->
<g id="node16" class="node"><title>Node16</title>
<g id="a_node16"><a xlink:href="../../d4/d38/opener__api_8h.html" target="_top" xlink:title="opener_api.h">
<polygon fill="none" stroke="black" points="422,-168.5 422,-187.5 494,-187.5 494,-168.5 422,-168.5"/>
<text text-anchor="middle" x="458" y="-175.5" font-family="Helvetica,sans-Serif" font-size="10.00">opener_api.h</text>
</a>
</g>
</g>
<!-- Node1&#45;&gt;Node16 -->
<g id="edge22" class="edge"><title>Node1&#45;&gt;Node16</title>
<path fill="none" stroke="midnightblue" d="M370.709,-224.324C387.312,-215.703 413.002,-202.364 432.22,-192.386"/>
<polygon fill="midnightblue" stroke="midnightblue" points="434.07,-195.369 441.332,-187.655 430.844,-189.156 434.07,-195.369"/>
</g>
<!-- Node18 -->
<g id="node18" class="node"><title>Node18</title>
<g id="a_node18"><a xlink:href="../../d1/d1b/trace_8h.html" target="_top" xlink:title="Tracing infrastructure for OpENer. ">
<polygon fill="none" stroke="black" points="550.5,-168.5 550.5,-187.5 597.5,-187.5 597.5,-168.5 550.5,-168.5"/>
<text text-anchor="middle" x="574" y="-175.5" font-family="Helvetica,sans-Serif" font-size="10.00">trace.h</text>
</a>
</g>
</g>
<!-- Node1&#45;&gt;Node18 -->
<g id="edge28" class="edge"><title>Node1&#45;&gt;Node18</title>
<path fill="none" stroke="midnightblue" d="M388.86,-224.444C430.522,-214.217 499.73,-197.23 540.693,-187.175"/>
<polygon fill="midnightblue" stroke="midnightblue" points="541.588,-190.56 550.465,-184.777 539.919,-183.762 541.588,-190.56"/>
</g>
<!-- Node4 -->
<g id="node4" class="node"><title>Node4</title>
<g id="a_node4"><a xlink:href="../../d7/d69/typedefs_8h.html" target="_top" xlink:title="typedefs.h">
<polygon fill="none" stroke="black" points="292,-56.5 292,-75.5 354,-75.5 354,-56.5 292,-56.5"/>
<text text-anchor="middle" x="323" y="-63.5" font-family="Helvetica,sans-Serif" font-size="10.00">typedefs.h</text>
</a>
</g>
</g>
<!-- Node3&#45;&gt;Node4 -->
<g id="edge3" class="edge"><title>Node3&#45;&gt;Node4</title>
<path fill="none" stroke="midnightblue" d="M113.301,-168.37C119.12,-154.339 132.555,-126.675 153,-112 163.543,-104.433 235.069,-87.0674 281.923,-76.2569"/>
<polygon fill="midnightblue" stroke="midnightblue" points="282.841,-79.6374 291.805,-73.9896 281.275,-72.8147 282.841,-79.6374"/>
</g>
<!-- Node8 -->
<g id="node8" class="node"><title>Node8</title>
<g id="a_node8"><a xlink:href="../../df/d28/ciptypes_8h.html" target="_top" xlink:title="ciptypes.h">
<polygon fill="none" stroke="black" points="162,-112.5 162,-131.5 224,-131.5 224,-112.5 162,-112.5"/>
<text text-anchor="middle" x="193" y="-119.5" font-family="Helvetica,sans-Serif" font-size="10.00">ciptypes.h</text>
</a>
</g>
</g>
<!-- Node3&#45;&gt;Node8 -->
<g id="edge7" class="edge"><title>Node3&#45;&gt;Node8</title>
<path fill="none" stroke="midnightblue" d="M123.335,-168.324C136.162,-159.979 155.785,-147.212 170.94,-137.352"/>
<polygon fill="midnightblue" stroke="midnightblue" points="173.224,-140.042 179.698,-131.655 169.407,-134.174 173.224,-140.042"/>
</g>
<!-- Node5 -->
<g id="node5" class="node"><title>Node5</title>
<polygon fill="none" stroke="#bfbfbf" points="227.5,-0.5 227.5,-19.5 286.5,-19.5 286.5,-0.5 227.5,-0.5"/>
<text text-anchor="middle" x="257" y="-7.5" font-family="Helvetica,sans-Serif" font-size="10.00">inttypes.h</text>
</g>
<!-- Node4&#45;&gt;Node5 -->
<g id="edge4" class="edge"><title>Node4&#45;&gt;Node5</title>
<path fill="none" stroke="midnightblue" d="M312.396,-56.324C302.544,-48.2631 287.649,-36.0765 275.785,-26.3695"/>
<polygon fill="midnightblue" stroke="midnightblue" points="277.753,-23.4575 267.797,-19.8339 273.32,-28.8752 277.753,-23.4575"/>
</g>
<!-- Node6 -->
<g id="node6" class="node"><title>Node6</title>
<polygon fill="none" stroke="#bfbfbf" points="305,-0.5 305,-19.5 357,-19.5 357,-0.5 305,-0.5"/>
<text text-anchor="middle" x="331" y="-7.5" font-family="Helvetica,sans-Serif" font-size="10.00">stddef.h</text>
</g>
<!-- Node4&#45;&gt;Node6 -->
<g id="edge5" class="edge"><title>Node4&#45;&gt;Node6</title>
<path fill="none" stroke="midnightblue" d="M324.321,-56.083C325.381,-48.9272 326.906,-38.6353 328.231,-29.6911"/>
<polygon fill="midnightblue" stroke="midnightblue" points="331.7,-30.1561 329.704,-19.7511 324.776,-29.1302 331.7,-30.1561"/>
</g>
<!-- Node7 -->
<g id="node7" class="node"><title>Node7</title>
<polygon fill="none" stroke="#bfbfbf" points="390,-0.5 390,-19.5 446,-19.5 446,-0.5 390,-0.5"/>
<text text-anchor="middle" x="418" y="-7.5" font-family="Helvetica,sans-Serif" font-size="10.00">stdbool.h</text>
</g>
<!-- Node4&#45;&gt;Node7 -->
<g id="edge6" class="edge"><title>Node4&#45;&gt;Node7</title>
<path fill="none" stroke="midnightblue" d="M338.263,-56.324C353.221,-47.8215 376.255,-34.7288 393.727,-24.7975"/>
<polygon fill="midnightblue" stroke="midnightblue" points="395.81,-27.639 402.774,-19.6545 392.351,-21.5534 395.81,-27.639"/>
</g>
<!-- Node8&#45;&gt;Node4 -->
<g id="edge8" class="edge"><title>Node8&#45;&gt;Node4</title>
<path fill="none" stroke="midnightblue" d="M213.599,-112.444C234.993,-103.557 268.681,-89.5632 293.024,-79.4514"/>
<polygon fill="midnightblue" stroke="midnightblue" points="294.605,-82.5848 302.497,-75.5164 291.92,-76.1203 294.605,-82.5848"/>
</g>
<!-- Node9 -->
<g id="node9" class="node"><title>Node9</title>
<polygon fill="none" stroke="#bfbfbf" points="182.5,-56.5 182.5,-75.5 273.5,-75.5 273.5,-56.5 182.5,-56.5"/>
<text text-anchor="middle" x="228" y="-63.5" font-family="Helvetica,sans-Serif" font-size="10.00">networkhandler.h</text>
</g>
<!-- Node8&#45;&gt;Node9 -->
<g id="edge9" class="edge"><title>Node8&#45;&gt;Node9</title>
<path fill="none" stroke="midnightblue" d="M198.78,-112.083C203.672,-104.534 210.827,-93.4948 216.833,-84.2298"/>
<polygon fill="midnightblue" stroke="midnightblue" points="219.826,-86.0463 222.328,-75.7511 213.952,-82.239 219.826,-86.0463"/>
</g>
<!-- Node10 -->
<g id="node10" class="node"><title>Node10</title>
<g id="a_node10"><a xlink:href="../../d8/d2c/enipmessage_8h.html" target="_top" xlink:title="enipmessage.h">
<polygon fill="none" stroke="black" points="42.5,-56.5 42.5,-75.5 125.5,-75.5 125.5,-56.5 42.5,-56.5"/>
<text text-anchor="middle" x="84" y="-63.5" font-family="Helvetica,sans-Serif" font-size="10.00">enipmessage.h</text>
</a>
</g>
</g>
<!-- Node8&#45;&gt;Node10 -->
<g id="edge10" class="edge"><title>Node8&#45;&gt;Node10</title>
<path fill="none" stroke="midnightblue" d="M175.487,-112.324C157.928,-103.625 130.669,-90.1202 110.469,-80.113"/>
<polygon fill="midnightblue" stroke="midnightblue" points="111.984,-76.9575 101.469,-75.6545 108.876,-83.23 111.984,-76.9575"/>
</g>
<!-- Node11 -->
<g id="node11" class="node"><title>Node11</title>
<polygon fill="none" stroke="#bfbfbf" points="74,-0.5 74,-19.5 176,-19.5 176,-0.5 74,-0.5"/>
<text text-anchor="middle" x="125" y="-7.5" font-family="Helvetica,sans-Serif" font-size="10.00">opener_user_conf.h</text>
</g>
<!-- Node8&#45;&gt;Node11 -->
<g id="edge12" class="edge"><title>Node8&#45;&gt;Node11</title>
<path fill="none" stroke="midnightblue" d="M187.664,-112.368C176.492,-94.2957 150.455,-52.1764 135.699,-28.3074"/>
<polygon fill="midnightblue" stroke="midnightblue" points="138.546,-26.257 130.311,-19.5914 132.592,-29.9378 138.546,-26.257"/>
</g>
<!-- Node10&#45;&gt;Node11 -->
<g id="edge11" class="edge"><title>Node10&#45;&gt;Node11</title>
<path fill="none" stroke="midnightblue" d="M90.7703,-56.083C96.5616,-48.4554 105.058,-37.2645 112.138,-27.9408"/>
<polygon fill="midnightblue" stroke="midnightblue" points="115.096,-29.8321 118.356,-19.7511 109.521,-25.5991 115.096,-29.8321"/>
</g>
<!-- Node12&#45;&gt;Node4 -->
<g id="edge14" class="edge"><title>Node12&#45;&gt;Node4</title>
<path fill="none" stroke="midnightblue" d="M217.945,-168.368C237.092,-149.894 282.279,-106.293 306.684,-82.7436"/>
<polygon fill="midnightblue" stroke="midnightblue" points="309.33,-85.0538 314.096,-75.5914 304.47,-80.0165 309.33,-85.0538"/>
</g>
<!-- Node12&#45;&gt;Node8 -->
<g id="edge15" class="edge"><title>Node12&#45;&gt;Node8</title>
<path fill="none" stroke="midnightblue" d="M206.358,-168.083C204.214,-160.849 201.121,-150.409 198.451,-141.397"/>
<polygon fill="midnightblue" stroke="midnightblue" points="201.79,-140.345 195.593,-131.751 195.078,-142.333 201.79,-140.345"/>
</g>
<!-- Node13&#45;&gt;Node4 -->
<g id="edge17" class="edge"><title>Node13&#45;&gt;Node4</title>
<path fill="none" stroke="midnightblue" d="M312.824,-168.129C310.054,-155.578 305.969,-131.943 309,-112 310.368,-103.001 313.19,-93.3251 315.945,-85.2601"/>
<polygon fill="midnightblue" stroke="midnightblue" points="319.265,-86.3722 319.4,-75.7782 312.688,-83.9759 319.265,-86.3722"/>
</g>
<!-- Node13&#45;&gt;Node8 -->
<g id="edge18" class="edge"><title>Node13&#45;&gt;Node8</title>
<path fill="none" stroke="midnightblue" d="M295.669,-168.444C275.68,-159.596 244.257,-145.687 221.436,-135.586"/>
<polygon fill="midnightblue" stroke="midnightblue" points="222.802,-132.363 212.241,-131.516 219.968,-138.764 222.802,-132.363"/>
</g>
<!-- Node15&#45;&gt;Node4 -->
<g id="edge21" class="edge"><title>Node15&#45;&gt;Node4</title>
<path fill="none" stroke="midnightblue" d="M349.716,-112.083C345.289,-104.613 338.837,-93.7244 333.382,-84.5199"/>
<polygon fill="midnightblue" stroke="midnightblue" points="336.295,-82.5697 328.186,-75.7511 330.273,-86.1383 336.295,-82.5697"/>
</g>
<!-- Node16&#45;&gt;Node4 -->
<g id="edge25" class="edge"><title>Node16&#45;&gt;Node4</title>
<path fill="none" stroke="midnightblue" d="M451.759,-168.19C442.019,-154.87 422.118,-129.326 401,-112 385.686,-99.4359 366.424,-88.2854 350.873,-80.227"/>
<polygon fill="midnightblue" stroke="midnightblue" points="352.244,-76.9985 341.739,-75.624 349.094,-83.2497 352.244,-76.9985"/>
</g>
<!-- Node16&#45;&gt;Node7 -->
<g id="edge24" class="edge"><title>Node16&#45;&gt;Node7</title>
<path fill="none" stroke="midnightblue" d="M455.849,-168.075C449.553,-141.945 431.063,-65.2106 422.476,-29.577"/>
<polygon fill="midnightblue" stroke="midnightblue" points="425.81,-28.4699 420.065,-19.5681 419.005,-30.1098 425.81,-28.4699"/>
</g>
<!-- Node16&#45;&gt;Node8 -->
<g id="edge26" class="edge"><title>Node16&#45;&gt;Node8</title>
<path fill="none" stroke="midnightblue" d="M421.985,-169.661C373.03,-159.685 285.693,-141.888 234.19,-131.393"/>
<polygon fill="midnightblue" stroke="midnightblue" points="234.886,-127.964 224.389,-129.396 233.489,-134.823 234.886,-127.964"/>
</g>
<!-- Node16&#45;&gt;Node14 -->
<g id="edge27" class="edge"><title>Node16&#45;&gt;Node14</title>
<path fill="none" stroke="midnightblue" d="M478.124,-168.444C499.024,-159.557 531.935,-145.563 555.716,-135.451"/>
<polygon fill="midnightblue" stroke="midnightblue" points="557.138,-138.65 564.971,-131.516 554.398,-132.208 557.138,-138.65"/>
</g>
<!-- Node17 -->
<g id="node17" class="node"><title>Node17</title>
<polygon fill="none" stroke="#bfbfbf" points="486,-112.5 486,-131.5 538,-131.5 538,-112.5 486,-112.5"/>
<text text-anchor="middle" x="512" y="-119.5" font-family="Helvetica,sans-Serif" font-size="10.00">assert.h</text>
</g>
<!-- Node16&#45;&gt;Node17 -->
<g id="edge23" class="edge"><title>Node16&#45;&gt;Node17</title>
<path fill="none" stroke="midnightblue" d="M466.917,-168.083C474.78,-160.22 486.431,-148.569 495.919,-139.081"/>
<polygon fill="midnightblue" stroke="midnightblue" points="498.653,-141.297 503.249,-131.751 493.703,-136.347 498.653,-141.297"/>
</g>
</g>
</svg>
        <g id="navigator" transform="translate(0 0)" fill="#404254">
                <rect fill="#f2f5e9" fill-opacity="0.5" stroke="#606060" stroke-width=".5" x="0" y="0" width="60" height="60"/>
                <use id="zoomplus" xlink:href="#zoomPlus" x="17" y="9" onmousedown="handleZoom(evt,'in')"/>
                <use id="zoomminus" xlink:href="#zoomMin" x="42" y="9" onmousedown="handleZoom(evt,'out')"/>
                <use id="reset" xlink:href="#resetDef" x="30" y="36" onmousedown="handleReset()"/>
                <g id="arrowUp" xlink:href="#dirArrow" transform="translate(30 24)" onmousedown="handlePan(0,-1)">
                  <use xlink:href="#rim" fill="#404040">
                        <set attributeName="fill" to="#808080" begin="arrowUp.mouseover" end="arrowUp.mouseout"/>
                  </use>
                  <path fill="none" stroke="white" stroke-width="1.5" d="M0,-3.0v7 M-2.5,-0.5L0,-3.0L2.5,-0.5"/>
                </g>
                <g id="arrowRight" xlink:href="#dirArrow" transform="rotate(90) translate(36 -43)" onmousedown="handlePan(1,0)">
                  <use xlink:href="#rim" fill="#404040">
                        <set attributeName="fill" to="#808080" begin="arrowRight.mouseover" end="arrowRight.mouseout"/>
                  </use>
                  <path fill="none" stroke="white" stroke-width="1.5" d="M0,-3.0v7 M-2.5,-0.5L0,-3.0L2.5,-0.5"/>
                </g>
                <g id="arrowDown" xlink:href="#dirArrow" transform="rotate(180) translate(-30 -48)" onmousedown="handlePan(0,1)">
                  <use xlink:href="#rim" fill="#404040">
                        <set attributeName="fill" to="#808080" begin="arrowDown.mouseover" end="arrowDown.mouseout"/>
                  </use>
                  <path fill="none" stroke="white" stroke-width="1.5" d="M0,-3.0v7 M-2.5,-0.5L0,-3.0L2.5,-0.5"/>
                </g>
                <g id="arrowLeft" xlink:href="#dirArrow" transform="rotate(270) translate(-36 17)" onmousedown="handlePan(-1,0)">
                  <use xlink:href="#rim" fill="#404040">
                        <set attributeName="fill" to="#808080" begin="arrowLeft.mouseover" end="arrowLeft.mouseout"/>
                  </use>
                  <path fill="none" stroke="white" stroke-width="1.5" d="M0,-3.0v7 M-2.5,-0.5L0,-3.0L2.5,-0.5"/>
                </g>
        </g>
        <svg viewBox="0 0 15 15" width="100%" height="30px" preserveAspectRatio="xMaxYMin meet">
         <g id="arrow_out" transform="scale(0.3 0.3)">
          <a xlink:href="cipethernetlink_8c__incl_org.svg" target="_base">
           <rect id="button" ry="5" rx="5" y="6" x="6" height="38" width="38"
                fill="#f2f5e9" fill-opacity="0.5" stroke="#606060" stroke-width="1.0"/>
           <path id="arrow"
             d="M 11.500037,31.436501 C 11.940474,20.09759 22.043105,11.32322 32.158766,21.979434 L 37.068811,17.246167 C 37.068811,17.246167 37.088388,32 37.088388,32 L 22.160133,31.978069 C 22.160133,31.978069 26.997745,27.140456 26.997745,27.140456 C 18.528582,18.264221 13.291696,25.230495 11.500037,31.436501 z"
             style="fill:#404040;"/>
          </a>
         </g>
        </svg>
</svg>
