<?xml version="1.0" encoding="UTF-8" standalone="no"?>
<!DOCTYPE svg PUBLIC "-//W3C//DTD SVG 1.1//EN"
 "http://www.w3.org/Graphics/SVG/1.1/DTD/svg11.dtd">
<!-- Generated by graphviz version 2.38.0 (20140413.2041)
 -->
<!-- Title: CipCommonPacketFormatData Pages: 1 -->
<svg width="296pt" height="162pt"
 viewBox="0.00 0.00 295.50 162.00" xmlns="http://www.w3.org/2000/svg" xmlns:xlink="http://www.w3.org/1999/xlink">
<g id="graph0" class="graph" transform="scale(1 1) rotate(0) translate(4 158)">
<title>CipCommonPacketFormatData</title>
<!-- Node1 -->
<g id="node1" class="node"><title>Node1</title>
<polygon fill="#bfbfbf" stroke="black" points="45,-0.5 45,-19.5 199,-19.5 199,-0.5 45,-0.5"/>
<text text-anchor="middle" x="122" y="-7.5" font-family="Helvetica,sans-Serif" font-size="10.00">CipCommonPacketFormatData</text>
</g>
<!-- Node2 -->
<g id="node2" class="node"><title>Node2</title>
<g id="a_node2"><a xlink:href="../../d3/d56/structAddressItem.html" target="_top" xlink:title="AddressItem">
<polygon fill="none" stroke="black" points="1,-67.5 1,-86.5 73,-86.5 73,-67.5 1,-67.5"/>
<text text-anchor="middle" x="37" y="-74.5" font-family="Helvetica,sans-Serif" font-size="10.00">AddressItem</text>
</a>
</g>
</g>
<!-- Node2&#45;&gt;Node1 -->
<g id="edge1" class="edge"><title>Node2&#45;&gt;Node1</title>
<path fill="none" stroke="#9a32cd" stroke-dasharray="5,2" d="M42.8938,-57.9173C45.9046,-50.9558 50.1861,-43.3916 56,-38 64.9867,-29.666 76.8931,-23.7399 88.1171,-19.6058"/>
<polygon fill="#9a32cd" stroke="#9a32cd" points="39.5863,-56.7696 39.3611,-67.362 46.1427,-59.2219 39.5863,-56.7696"/>
<text text-anchor="middle" x="87" y="-41" font-family="Helvetica,sans-Serif" font-size="10.00"> address_item</text>
</g>
<!-- Node3 -->
<g id="node3" class="node"><title>Node3</title>
<g id="a_node3"><a xlink:href="../../d9/da2/structAddressData.html" target="_top" xlink:title="AddressData">
<polygon fill="none" stroke="black" points="0,-134.5 0,-153.5 74,-153.5 74,-134.5 0,-134.5"/>
<text text-anchor="middle" x="37" y="-141.5" font-family="Helvetica,sans-Serif" font-size="10.00">AddressData</text>
</a>
</g>
</g>
<!-- Node3&#45;&gt;Node2 -->
<g id="edge2" class="edge"><title>Node3&#45;&gt;Node2</title>
<path fill="none" stroke="#9a32cd" stroke-dasharray="5,2" d="M37,-124.037C37,-111.67 37,-96.1198 37,-86.6273"/>
<polygon fill="#9a32cd" stroke="#9a32cd" points="33.5001,-124.234 37,-134.234 40.5001,-124.234 33.5001,-124.234"/>
<text text-anchor="middle" x="48" y="-108" font-family="Helvetica,sans-Serif" font-size="10.00"> data</text>
</g>
<!-- Node4 -->
<g id="node4" class="node"><title>Node4</title>
<g id="a_node4"><a xlink:href="../../de/d71/structDataItem.html" target="_top" xlink:title="DataItem">
<polygon fill="none" stroke="black" points="93.5,-67.5 93.5,-86.5 150.5,-86.5 150.5,-67.5 93.5,-67.5"/>
<text text-anchor="middle" x="122" y="-74.5" font-family="Helvetica,sans-Serif" font-size="10.00">DataItem</text>
</a>
</g>
</g>
<!-- Node4&#45;&gt;Node1 -->
<g id="edge3" class="edge"><title>Node4&#45;&gt;Node1</title>
<path fill="none" stroke="#9a32cd" stroke-dasharray="5,2" d="M122,-57.037C122,-44.6703 122,-29.1198 122,-19.6273"/>
<polygon fill="#9a32cd" stroke="#9a32cd" points="118.5,-57.2338 122,-67.2338 125.5,-57.2338 118.5,-57.2338"/>
<text text-anchor="middle" x="145" y="-41" font-family="Helvetica,sans-Serif" font-size="10.00"> data_item</text>
</g>
<!-- Node5 -->
<g id="node5" class="node"><title>Node5</title>
<g id="a_node5"><a xlink:href="../../dc/d3c/structSocketAddressInfoItem.html" target="_top" xlink:title="CPF Sockaddr Item. ">
<polygon fill="none" stroke="black" points="168.5,-67.5 168.5,-86.5 287.5,-86.5 287.5,-67.5 168.5,-67.5"/>
<text text-anchor="middle" x="228" y="-74.5" font-family="Helvetica,sans-Serif" font-size="10.00">SocketAddressInfoItem</text>
</a>
</g>
</g>
<!-- Node5&#45;&gt;Node1 -->
<g id="edge4" class="edge"><title>Node5&#45;&gt;Node1</title>
<path fill="none" stroke="#9a32cd" stroke-dasharray="5,2" d="M207.754,-61.5359C197.252,-54.2206 184.118,-45.3573 172,-38 161.206,-31.4464 148.706,-24.6964 138.905,-19.5848"/>
<polygon fill="#9a32cd" stroke="#9a32cd" points="206.021,-64.596 216.213,-67.4894 210.05,-58.8717 206.021,-64.596"/>
<text text-anchor="middle" x="231.5" y="-41" font-family="Helvetica,sans-Serif" font-size="10.00"> address_info_item</text>
</g>
</g>
</svg>
