<?xml version="1.0" encoding="UTF-8" standalone="no"?>
<!DOCTYPE svg PUBLIC "-//W3C//DTD SVG 1.1//EN"
 "http://www.w3.org/Graphics/SVG/1.1/DTD/svg11.dtd">
<!-- Generated by graphviz version 2.38.0 (20140413.2041)
 -->
<!-- Title: GetPathPortSegmentExtendedPortNumber Pages: 1 -->
<svg width="509pt" height="78pt"
 viewBox="0.00 0.00 509.00 77.50" xmlns="http://www.w3.org/2000/svg" xmlns:xlink="http://www.w3.org/1999/xlink">
<g id="graph0" class="graph" transform="scale(1 1) rotate(0) translate(4 73.5)">
<title>GetPathPortSegmentExtendedPortNumber</title>
<!-- Node1 -->
<g id="node1" class="node"><title>Node1</title>
<polygon fill="#bfbfbf" stroke="black" points="0,-17 0,-47 151,-47 151,-17 0,-17"/>
<text text-anchor="start" x="8" y="-35" font-family="Helvetica,sans-Serif" font-size="10.00">GetPathPortSegmentExtended</text>
<text text-anchor="middle" x="75.5" y="-24" font-family="Helvetica,sans-Serif" font-size="10.00">PortNumber</text>
</g>
<!-- Node2 -->
<g id="node2" class="node"><title>Node2</title>
<g id="a_node2"><a xlink:href="../../de/ddc/cipepath_8c.html#a056829c4994cbdeef6cacb8ef1d8fa96" target="_top" xlink:title="Only to be used on Port Segments. Returns if the Port Segment has the extended link address size bit ...">
<polygon fill="none" stroke="black" points="194,-39 194,-69 345,-69 345,-39 194,-39"/>
<text text-anchor="start" x="202" y="-57" font-family="Helvetica,sans-Serif" font-size="10.00">GetPathPortSegmentExtended</text>
<text text-anchor="middle" x="269.5" y="-46" font-family="Helvetica,sans-Serif" font-size="10.00">LinkAddressSizeBit</text>
</a>
</g>
</g>
<!-- Node1&#45;&gt;Node2 -->
<g id="edge1" class="edge"><title>Node1&#45;&gt;Node2</title>
<path fill="none" stroke="midnightblue" d="M151.007,-40.5373C161.741,-41.7672 172.852,-43.0404 183.767,-44.291"/>
<polygon fill="midnightblue" stroke="midnightblue" points="183.385,-47.7701 193.719,-45.4313 184.182,-40.8156 183.385,-47.7701"/>
</g>
<!-- Node3 -->
<g id="node3" class="node"><title>Node3</title>
<g id="a_node3"><a xlink:href="../../de/ddc/cipepath_8c.html#ac6e66ab4f22749d2e736cec6c5fb97f4" target="_top" xlink:title="Only to be used on Port Segments. Returns the Port Identifier. ">
<polygon fill="none" stroke="black" points="187,-0.5 187,-19.5 352,-19.5 352,-0.5 187,-0.5"/>
<text text-anchor="middle" x="269.5" y="-7.5" font-family="Helvetica,sans-Serif" font-size="10.00">GetPathPortSegmentPortIdentifier</text>
</a>
</g>
</g>
<!-- Node1&#45;&gt;Node3 -->
<g id="edge2" class="edge"><title>Node1&#45;&gt;Node3</title>
<path fill="none" stroke="midnightblue" d="M151.007,-23.4627C159.417,-22.4991 168.058,-21.5089 176.656,-20.5238"/>
<polygon fill="midnightblue" stroke="midnightblue" points="177.174,-23.9874 186.711,-19.3717 176.377,-17.0329 177.174,-23.9874"/>
</g>
<!-- Node4 -->
<g id="node4" class="node"><title>Node4</title>
<g id="a_node4"><a xlink:href="../../de/ddc/cipepath_8c.html#a7a8c1fe3015897c8552ec89e9ab3d39f" target="_top" xlink:title="Gets the basic segment type of a CIP EPath. ">
<polygon fill="none" stroke="black" points="388,-0.5 388,-19.5 501,-19.5 501,-0.5 388,-0.5"/>
<text text-anchor="middle" x="444.5" y="-7.5" font-family="Helvetica,sans-Serif" font-size="10.00">GetPathSegmentType</text>
</a>
</g>
</g>
<!-- Node3&#45;&gt;Node4 -->
<g id="edge3" class="edge"><title>Node3&#45;&gt;Node4</title>
<path fill="none" stroke="midnightblue" d="M352.187,-10C360.771,-10 369.417,-10 377.788,-10"/>
<polygon fill="midnightblue" stroke="midnightblue" points="377.838,-13.5001 387.838,-10 377.838,-6.5001 377.838,-13.5001"/>
</g>
</g>
</svg>
