<?xml version="1.0" encoding="UTF-8" standalone="no"?>
<!DOCTYPE svg PUBLIC "-//W3C//DTD SVG 1.1//EN"
 "http://www.w3.org/Graphics/SVG/1.1/DTD/svg11.dtd">
<!-- Generated by graphviz version 2.38.0 (20140413.2041)
 -->
<!-- Title: ShutdownSocketPlatform Pages: 1 -->
<!--zoomable 280 -->
<svg id="main" version="1.1" xmlns="http://www.w3.org/2000/svg" xmlns:xlink="http://www.w3.org/1999/xlink" xml:space="preserve" onload="init(evt)">
<style type="text/css"><![CDATA[
.edge:hover path { stroke: red; }
.edge:hover polygon { stroke: red; fill: red; }
]]></style>
<script type="text/javascript"><![CDATA[
var edges = document.getElementsByTagName('g');
if (edges && edges.length) {
  for (var i=0;i<edges.length;i++) {
    if (edges[i].id.substr(0,4)=='edge') {
      edges[i].setAttribute('class','edge');
    }
  }
}
]]></script>
        <defs>
                <circle id="rim" cx="0" cy="0" r="7"/>
                <circle id="rim2" cx="0" cy="0" r="3.5"/>
                <g id="zoomPlus">
                        <use xlink:href="#rim" fill="#404040">
                                <set attributeName="fill" to="#808080" begin="zoomplus.mouseover" end="zoomplus.mouseout"/>
                        </use>
                        <path d="M-4,0h8M0,-4v8" fill="none" stroke="white" stroke-width="1.5" pointer-events="none"/>
                </g>
                <g id="zoomMin">
                        <use xlink:href="#rim" fill="#404040">
                                <set attributeName="fill" to="#808080" begin="zoomminus.mouseover" end="zoomminus.mouseout"/>
                        </use>
                        <path d="M-4,0h8" fill="none" stroke="white" stroke-width="1.5" pointer-events="none"/>
                </g>
                <g id="dirArrow">
                        <path fill="none" stroke="white" stroke-width="1.5" d="M0,-3.0v7 M-2.5,-0.5L0,-3.0L2.5,-0.5"/>
                </g>
               <g id="resetDef">
                       <use xlink:href="#rim2" fill="#404040">
                               <set attributeName="fill" to="#808080" begin="reset.mouseover" end="reset.mouseout"/>
                       </use>
               </g>
        </defs>

<script type="text/javascript">
var viewWidth = 1770;
var viewHeight = 280;
var sectionId = 'dynsection-10';
</script>
<script xlink:href="../../svgpan.js"/>
<svg id="graph" class="graph">
<g id="viewport">
<title>ShutdownSocketPlatform</title>
<!-- Node1 -->
<g id="node1" class="node"><title>Node1</title>
<polygon fill="#bfbfbf" stroke="black" points="0,-120.5 0,-139.5 128,-139.5 128,-120.5 0,-120.5"/>
<text text-anchor="middle" x="64" y="-127.5" font-family="Helvetica,sans-Serif" font-size="10.00">ShutdownSocketPlatform</text>
</g>
<!-- Node2 -->
<g id="node2" class="node"><title>Node2</title>
<g id="a_node2"><a xlink:href="../../da/dc2/generic__networkhandler_8h.html#a1bfa5ef8e4802716459a56567ee16592" target="_top" xlink:title="CloseTcpSocket">
<polygon fill="none" stroke="black" points="164,-120.5 164,-139.5 253,-139.5 253,-120.5 164,-120.5"/>
<text text-anchor="middle" x="208.5" y="-127.5" font-family="Helvetica,sans-Serif" font-size="10.00">CloseTcpSocket</text>
</a>
</g>
</g>
<!-- Node1&#45;&gt;Node2 -->
<g id="edge1" class="edge"><title>Node1&#45;&gt;Node2</title>
<path fill="none" stroke="midnightblue" d="M138.534,-130C147.233,-130 155.887,-130 163.976,-130"/>
<polygon fill="midnightblue" stroke="midnightblue" points="138.332,-126.5 128.332,-130 138.332,-133.5 138.332,-126.5"/>
</g>
<!-- Node3 -->
<g id="node3" class="node"><title>Node3</title>
<g id="a_node3"><a xlink:href="../../db/d4f/generic__networkhandler_8c.html#ab561fc66fe48a0cf95be3d152b297dd9" target="_top" xlink:title="CheckEncapsulationInactivity">
<polygon fill="none" stroke="black" points="661,-202.5 661,-221.5 807,-221.5 807,-202.5 661,-202.5"/>
<text text-anchor="middle" x="734" y="-209.5" font-family="Helvetica,sans-Serif" font-size="10.00">CheckEncapsulationInactivity</text>
</a>
</g>
</g>
<!-- Node2&#45;&gt;Node3 -->
<g id="edge2" class="edge"><title>Node2&#45;&gt;Node3</title>
<path fill="none" stroke="midnightblue" d="M226.126,-146.66C241.135,-160.505 264.556,-179.294 289,-188 413.899,-232.483 571.055,-228.081 660.969,-220.366"/>
<polygon fill="midnightblue" stroke="midnightblue" points="228.351,-143.945 218.7,-139.572 223.518,-149.008 228.351,-143.945"/>
</g>
<!-- Node4 -->
<g id="node4" class="node"><title>Node4</title>
<g id="a_node4"><a xlink:href="../../da/dc2/generic__networkhandler_8h.html#a2f01af81d3e5018d9980e2bc28c9078a" target="_top" xlink:title="NetworkHandlerProcessOnce">
<polygon fill="none" stroke="black" points="853,-199.5 853,-218.5 999,-218.5 999,-199.5 853,-199.5"/>
<text text-anchor="middle" x="926" y="-206.5" font-family="Helvetica,sans-Serif" font-size="10.00">NetworkHandlerProcessOnce</text>
</a>
</g>
</g>
<!-- Node2&#45;&gt;Node4 -->
<g id="edge29" class="edge"><title>Node2&#45;&gt;Node4</title>
<path fill="none" stroke="midnightblue" d="M254.503,-142.008C265.706,-144.65 277.736,-147.195 289,-149 521.515,-186.253 583.078,-165.954 817,-193 832.722,-194.818 849.678,-197.152 865.39,-199.472"/>
<polygon fill="midnightblue" stroke="midnightblue" points="255.036,-138.536 244.492,-139.573 253.381,-145.337 255.036,-138.536"/>
</g>
<!-- Node9 -->
<g id="node9" class="node"><title>Node9</title>
<g id="a_node9"><a xlink:href="../../d2/dc9/group__CIP__API.html#ga00a23c1c86472edf2ed679089ae8efc1" target="_top" xlink:title="Inform the encapsulation layer that the remote host has closed the connection. ">
<polygon fill="none" stroke="black" points="317.5,-120.5 317.5,-139.5 394.5,-139.5 394.5,-120.5 317.5,-120.5"/>
<text text-anchor="middle" x="356" y="-127.5" font-family="Helvetica,sans-Serif" font-size="10.00">CloseSession</text>
</a>
</g>
</g>
<!-- Node2&#45;&gt;Node9 -->
<g id="edge8" class="edge"><title>Node2&#45;&gt;Node9</title>
<path fill="none" stroke="midnightblue" d="M263.217,-130C281.18,-130 300.809,-130 317.288,-130"/>
<polygon fill="midnightblue" stroke="midnightblue" points="263.155,-126.5 253.155,-130 263.155,-133.5 263.155,-126.5"/>
</g>
<!-- Node16 -->
<g id="node16" class="node"><title>Node16</title>
<g id="a_node16"><a xlink:href="../../d7/df9/encap_8h.html#ad083888333d3ceec1576126a88eeaca7" target="_top" xlink:title="CloseSessionBySessionHandle">
<polygon fill="none" stroke="black" points="459.5,-76.5 459.5,-95.5 614.5,-95.5 614.5,-76.5 459.5,-76.5"/>
<text text-anchor="middle" x="537" y="-83.5" font-family="Helvetica,sans-Serif" font-size="10.00">CloseSessionBySessionHandle</text>
</a>
</g>
</g>
<!-- Node2&#45;&gt;Node16 -->
<g id="edge16" class="edge"><title>Node2&#45;&gt;Node16</title>
<path fill="none" stroke="midnightblue" d="M254.846,-118.057C265.958,-115.437 277.859,-112.886 289,-111 345.732,-101.394 410.465,-95.008 459.426,-91.0961"/>
<polygon fill="midnightblue" stroke="midnightblue" points="253.803,-114.709 244.909,-120.465 255.452,-121.512 253.803,-114.709"/>
</g>
<!-- Node19 -->
<g id="node19" class="node"><title>Node19</title>
<g id="a_node19"><a xlink:href="../../d4/d91/group__ENCAP.html#ga1261bd2441f744c38d7a3f8d8c16c391" target="_top" xlink:title="Shutdown the encapsulation layer. ">
<polygon fill="none" stroke="black" points="1035,-38.5 1035,-57.5 1159,-57.5 1159,-38.5 1035,-38.5"/>
<text text-anchor="middle" x="1097" y="-45.5" font-family="Helvetica,sans-Serif" font-size="10.00">EncapsulationShutDown</text>
</a>
</g>
</g>
<!-- Node2&#45;&gt;Node19 -->
<g id="edge20" class="edge"><title>Node2&#45;&gt;Node19</title>
<path fill="none" stroke="midnightblue" d="M234.5,-115.449C249.784,-107.14 269.991,-97.1777 289,-91 394.973,-56.5605 424.571,-48 536,-48 536,-48 536,-48 735,-48 840.292,-48 962.858,-48 1034.68,-48"/>
<polygon fill="midnightblue" stroke="midnightblue" points="232.71,-112.44 225.674,-120.36 236.114,-118.556 232.71,-112.44"/>
</g>
<!-- Node21 -->
<g id="node21" class="node"><title>Node21</title>
<g id="a_node21"><a xlink:href="../../d2/dbd/encap_8c.html#a601cd19c88f03fd742f098a1bf5b9e85" target="_top" xlink:title="HandleReceivedUnregister\lSessionCommand">
<polygon fill="none" stroke="black" points="289,-241 289,-271 423,-271 423,-241 289,-241"/>
<text text-anchor="start" x="297" y="-259" font-family="Helvetica,sans-Serif" font-size="10.00">HandleReceivedUnregister</text>
<text text-anchor="middle" x="356" y="-248" font-family="Helvetica,sans-Serif" font-size="10.00">SessionCommand</text>
</a>
</g>
</g>
<!-- Node2&#45;&gt;Node21 -->
<g id="edge23" class="edge"><title>Node2&#45;&gt;Node21</title>
<path fill="none" stroke="midnightblue" d="M220.929,-148.315C234.838,-169.377 260.082,-203.884 289,-226 296.598,-231.811 305.502,-236.816 314.267,-240.981"/>
<polygon fill="midnightblue" stroke="midnightblue" points="223.721,-146.188 215.363,-139.678 217.837,-149.979 223.721,-146.188"/>
</g>
<!-- Node24 -->
<g id="node24" class="node"><title>Node24</title>
<g id="a_node24"><a xlink:href="../../da/dc2/generic__networkhandler_8h.html#aace33c0e7aa348969492ede822183bd5" target="_top" xlink:title="NetworkHandlerFinish">
<polygon fill="none" stroke="black" points="1348,-0.5 1348,-19.5 1461,-19.5 1461,-0.5 1348,-0.5"/>
<text text-anchor="middle" x="1404.5" y="-7.5" font-family="Helvetica,sans-Serif" font-size="10.00">NetworkHandlerFinish</text>
</a>
</g>
</g>
<!-- Node2&#45;&gt;Node24 -->
<g id="edge27" class="edge"><title>Node2&#45;&gt;Node24</title>
<path fill="none" stroke="midnightblue" d="M222.104,-112.118C236.175,-93.6297 260.723,-65.4839 289,-51 388.043,-0.269023 424.72,-10 536,-10 536,-10 536,-10 1098,-10 1185.25,-10 1286.51,-10 1347.75,-10"/>
<polygon fill="midnightblue" stroke="midnightblue" points="219.178,-110.188 216.067,-120.315 224.815,-114.339 219.178,-110.188"/>
</g>
<!-- Node3&#45;&gt;Node4 -->
<g id="edge3" class="edge"><title>Node3&#45;&gt;Node4</title>
<path fill="none" stroke="midnightblue" d="M817.411,-210.699C829.242,-210.512 841.338,-210.321 852.947,-210.138"/>
<polygon fill="midnightblue" stroke="midnightblue" points="817.045,-207.204 807.102,-210.862 817.156,-214.203 817.045,-207.204"/>
</g>
<!-- Node5 -->
<g id="node5" class="node"><title>Node5</title>
<g id="a_node5"><a xlink:href="../../d9/dfb/POSIX_2main_8c.html#acd4e45a35a64f9cb29b59f63492b61d2" target="_top" xlink:title="Signal handler function for ending stack execution. ">
<polygon fill="none" stroke="black" points="1063,-199.5 1063,-218.5 1131,-218.5 1131,-199.5 1063,-199.5"/>
<text text-anchor="middle" x="1097" y="-206.5" font-family="Helvetica,sans-Serif" font-size="10.00">LeaveStack</text>
</a>
</g>
</g>
<!-- Node4&#45;&gt;Node5 -->
<g id="edge4" class="edge"><title>Node4&#45;&gt;Node5</title>
<path fill="none" stroke="midnightblue" d="M1009.31,-209C1028.19,-209 1047.22,-209 1062.62,-209"/>
<polygon fill="midnightblue" stroke="midnightblue" points="1009.16,-205.5 999.161,-209 1009.16,-212.5 1009.16,-205.5"/>
</g>
<!-- Node6 -->
<g id="node6" class="node"><title>Node6</title>
<g id="a_node6"><a xlink:href="../../d5/dcb/MINGW_2main_8c.html#ad338a7dbc41dc40bcecd0479377ef207" target="_top" xlink:title="main">
<polygon fill="none" stroke="black" points="1497,-57.5 1497,-76.5 1535,-76.5 1535,-57.5 1497,-57.5"/>
<text text-anchor="middle" x="1516" y="-64.5" font-family="Helvetica,sans-Serif" font-size="10.00">main</text>
</a>
</g>
</g>
<!-- Node4&#45;&gt;Node6 -->
<g id="edge5" class="edge"><title>Node4&#45;&gt;Node6</title>
<path fill="none" stroke="midnightblue" d="M988.873,-197.666C1124.82,-172.665 1439.25,-114.267 1461,-105 1477.45,-97.9902 1493.91,-85.4128 1504.25,-76.6562"/>
<polygon fill="midnightblue" stroke="midnightblue" points="988.212,-194.229 979.009,-199.479 989.477,-201.113 988.212,-194.229"/>
</g>
<!-- Node7 -->
<g id="node7" class="node"><title>Node7</title>
<g id="a_node7"><a xlink:href="../../d8/d03/ports_2MINGW_2CMakeLists_8txt.html#a7e00df43a20d627a1732be7766d91097" target="_top" xlink:title="add_library">
<polygon fill="none" stroke="black" points="1571,-57.5 1571,-76.5 1635,-76.5 1635,-57.5 1571,-57.5"/>
<text text-anchor="middle" x="1603" y="-64.5" font-family="Helvetica,sans-Serif" font-size="10.00">add_library</text>
</a>
</g>
</g>
<!-- Node6&#45;&gt;Node7 -->
<g id="edge6" class="edge"><title>Node6&#45;&gt;Node7</title>
<path fill="none" stroke="midnightblue" d="M1545.27,-67C1553.5,-67 1562.55,-67 1570.94,-67"/>
<polygon fill="midnightblue" stroke="midnightblue" points="1545.03,-63.5001 1535.03,-67 1545.03,-70.5001 1545.03,-63.5001"/>
</g>
<!-- Node8 -->
<g id="node8" class="node"><title>Node8</title>
<g id="a_node8"><a xlink:href="../../d8/dce/ports_2CMakeLists_8txt.html#a598fae457555a5fb26e18d4cd8f89de9" target="_top" xlink:title="add_subdirectory">
<polygon fill="none" stroke="black" points="1671,-57.5 1671,-76.5 1762,-76.5 1762,-57.5 1671,-57.5"/>
<text text-anchor="middle" x="1716.5" y="-64.5" font-family="Helvetica,sans-Serif" font-size="10.00">add_subdirectory</text>
</a>
</g>
</g>
<!-- Node7&#45;&gt;Node8 -->
<g id="edge7" class="edge"><title>Node7&#45;&gt;Node8</title>
<path fill="none" stroke="midnightblue" d="M1645.3,-67C1653.63,-67 1662.42,-67 1670.86,-67"/>
<polygon fill="midnightblue" stroke="midnightblue" points="1645.06,-63.5001 1635.06,-67 1645.06,-70.5001 1645.06,-63.5001"/>
</g>
<!-- Node10 -->
<g id="node10" class="node"><title>Node10</title>
<g id="a_node10"><a xlink:href="../../d7/df9/encap_8h.html#a0101714be726ab1b21125b6a82ac7a56" target="_top" xlink:title="CloseEncapsulationSession\lBySockAddr">
<polygon fill="none" stroke="black" points="467.5,-115 467.5,-145 606.5,-145 606.5,-115 467.5,-115"/>
<text text-anchor="start" x="475.5" y="-133" font-family="Helvetica,sans-Serif" font-size="10.00">CloseEncapsulationSession</text>
<text text-anchor="middle" x="537" y="-122" font-family="Helvetica,sans-Serif" font-size="10.00">BySockAddr</text>
</a>
</g>
</g>
<!-- Node9&#45;&gt;Node10 -->
<g id="edge9" class="edge"><title>Node9&#45;&gt;Node10</title>
<path fill="none" stroke="midnightblue" d="M404.559,-130C423.825,-130 446.442,-130 467.432,-130"/>
<polygon fill="midnightblue" stroke="midnightblue" points="404.524,-126.5 394.524,-130 404.524,-133.5 404.524,-126.5"/>
</g>
<!-- Node11 -->
<g id="node11" class="node"><title>Node11</title>
<g id="a_node11"><a xlink:href="../../df/d03/cipioconnection_8c.html#a7e4923f4b027d489d9933b52f6fd7007" target="_top" xlink:title="HandleIoConnectionTimeOut">
<polygon fill="none" stroke="black" points="662.5,-117.5 662.5,-136.5 805.5,-136.5 805.5,-117.5 662.5,-117.5"/>
<text text-anchor="middle" x="734" y="-124.5" font-family="Helvetica,sans-Serif" font-size="10.00">HandleIoConnectionTimeOut</text>
</a>
</g>
</g>
<!-- Node10&#45;&gt;Node11 -->
<g id="edge10" class="edge"><title>Node10&#45;&gt;Node11</title>
<path fill="none" stroke="midnightblue" d="M616.998,-128.785C631.967,-128.554 647.54,-128.315 662.234,-128.089"/>
<polygon fill="midnightblue" stroke="midnightblue" points="616.695,-125.289 606.75,-128.942 616.802,-132.288 616.695,-125.289"/>
</g>
<!-- Node12 -->
<g id="node12" class="node"><title>Node12</title>
<g id="a_node12"><a xlink:href="../../df/d03/cipioconnection_8c.html#ab3282f146a3ea91c90cf14c32206ee8c" target="_top" xlink:title="SetIoConnectionCallbacks">
<polygon fill="none" stroke="black" points="859.5,-116.5 859.5,-135.5 992.5,-135.5 992.5,-116.5 859.5,-116.5"/>
<text text-anchor="middle" x="926" y="-123.5" font-family="Helvetica,sans-Serif" font-size="10.00">SetIoConnectionCallbacks</text>
</a>
</g>
</g>
<!-- Node11&#45;&gt;Node12 -->
<g id="edge11" class="edge"><title>Node11&#45;&gt;Node12</title>
<path fill="none" stroke="midnightblue" d="M816.127,-126.573C830.511,-126.497 845.328,-126.419 859.222,-126.346"/>
<polygon fill="midnightblue" stroke="midnightblue" points="815.73,-123.075 805.749,-126.628 815.767,-130.075 815.73,-123.075"/>
</g>
<!-- Node13 -->
<g id="node13" class="node"><title>Node13</title>
<g id="a_node13"><a xlink:href="../../de/d45/cipioconnection_8h.html#a43e270b3f9b9f6296b12285c320c95aa" target="_top" xlink:title="Setup all data in order to establish an IO connection. ">
<polygon fill="none" stroke="black" points="1039.5,-115.5 1039.5,-134.5 1154.5,-134.5 1154.5,-115.5 1039.5,-115.5"/>
<text text-anchor="middle" x="1097" y="-122.5" font-family="Helvetica,sans-Serif" font-size="10.00">EstablishIoConnection</text>
</a>
</g>
</g>
<!-- Node12&#45;&gt;Node13 -->
<g id="edge12" class="edge"><title>Node12&#45;&gt;Node13</title>
<path fill="none" stroke="midnightblue" d="M1003.02,-125.55C1015.26,-125.478 1027.73,-125.404 1039.41,-125.335"/>
<polygon fill="midnightblue" stroke="midnightblue" points="1002.8,-122.051 992.824,-125.611 1002.84,-129.051 1002.8,-122.051"/>
</g>
<!-- Node14 -->
<g id="node14" class="node"><title>Node14</title>
<g id="a_node14"><a xlink:href="../../d2/da3/cipconnectionmanager_8h.html#a5ab0de6894d23e8fe84a6b46797c2212" target="_top" xlink:title="Initialize the data of the connection manager object. ">
<polygon fill="none" stroke="black" points="1195,-76.5 1195,-95.5 1312,-95.5 1312,-76.5 1195,-76.5"/>
<text text-anchor="middle" x="1253.5" y="-83.5" font-family="Helvetica,sans-Serif" font-size="10.00">ConnectionManagerInit</text>
</a>
</g>
</g>
<!-- Node13&#45;&gt;Node14 -->
<g id="edge13" class="edge"><title>Node13&#45;&gt;Node14</title>
<path fill="none" stroke="midnightblue" d="M1145.71,-112.958C1167.94,-107.346 1194.01,-100.765 1214.83,-95.5095"/>
<polygon fill="midnightblue" stroke="midnightblue" points="1144.63,-109.618 1135.79,-115.46 1146.35,-116.406 1144.63,-109.618"/>
</g>
<!-- Node15 -->
<g id="node15" class="node"><title>Node15</title>
<g id="a_node15"><a xlink:href="../../d2/dc9/group__CIP__API.html#ga5d4979945d124e28668b264c3823db1c" target="_top" xlink:title="Initialize and setup the CIP&#45;stack. ">
<polygon fill="none" stroke="black" points="1369,-76.5 1369,-95.5 1440,-95.5 1440,-76.5 1369,-76.5"/>
<text text-anchor="middle" x="1404.5" y="-83.5" font-family="Helvetica,sans-Serif" font-size="10.00">CipStackInit</text>
</a>
</g>
</g>
<!-- Node14&#45;&gt;Node15 -->
<g id="edge14" class="edge"><title>Node14&#45;&gt;Node15</title>
<path fill="none" stroke="midnightblue" d="M1322.56,-86C1338.6,-86 1355.04,-86 1368.88,-86"/>
<polygon fill="midnightblue" stroke="midnightblue" points="1322.11,-82.5001 1312.11,-86 1322.11,-89.5001 1322.11,-82.5001"/>
</g>
<!-- Node15&#45;&gt;Node6 -->
<g id="edge15" class="edge"><title>Node15&#45;&gt;Node6</title>
<path fill="none" stroke="midnightblue" d="M1450.11,-78.2596C1466.46,-75.4229 1484.06,-72.3693 1496.8,-70.1588"/>
<polygon fill="midnightblue" stroke="midnightblue" points="1449.4,-74.8301 1440.15,-79.9883 1450.6,-81.7271 1449.4,-74.8301"/>
</g>
<!-- Node17 -->
<g id="node17" class="node"><title>Node17</title>
<g id="a_node17"><a xlink:href="../../dc/d93/cipclass3connection_8c.html#a6053ab7004c1419bd80faf9aca54bfd3" target="_top" xlink:title="Class3ConnectionTimeoutHandler">
<polygon fill="none" stroke="black" points="651,-76.5 651,-95.5 817,-95.5 817,-76.5 651,-76.5"/>
<text text-anchor="middle" x="734" y="-83.5" font-family="Helvetica,sans-Serif" font-size="10.00">Class3ConnectionTimeoutHandler</text>
</a>
</g>
</g>
<!-- Node16&#45;&gt;Node17 -->
<g id="edge17" class="edge"><title>Node16&#45;&gt;Node17</title>
<path fill="none" stroke="midnightblue" d="M624.68,-86C633.405,-86 642.246,-86 650.921,-86"/>
<polygon fill="midnightblue" stroke="midnightblue" points="624.51,-82.5001 614.509,-86 624.509,-89.5001 624.51,-82.5001"/>
</g>
<!-- Node18 -->
<g id="node18" class="node"><title>Node18</title>
<g id="a_node18"><a xlink:href="../../d2/d11/cipclass3connection_8h.html#a45bd741b44137164c07a6ce09a7a9a9d" target="_top" xlink:title="Check if Class3 connection is available and if yes setup all data. ">
<polygon fill="none" stroke="black" points="857.5,-76.5 857.5,-95.5 994.5,-95.5 994.5,-76.5 857.5,-76.5"/>
<text text-anchor="middle" x="926" y="-83.5" font-family="Helvetica,sans-Serif" font-size="10.00">EstablishClass3Connection</text>
</a>
</g>
</g>
<!-- Node17&#45;&gt;Node18 -->
<g id="edge18" class="edge"><title>Node17&#45;&gt;Node18</title>
<path fill="none" stroke="midnightblue" d="M827.359,-86C837.517,-86 847.715,-86 857.489,-86"/>
<polygon fill="midnightblue" stroke="midnightblue" points="827.232,-82.5001 817.232,-86 827.232,-89.5001 827.232,-82.5001"/>
</g>
<!-- Node18&#45;&gt;Node14 -->
<g id="edge19" class="edge"><title>Node18&#45;&gt;Node14</title>
<path fill="none" stroke="midnightblue" d="M1005.13,-86C1063.52,-86 1142.03,-86 1194.81,-86"/>
<polygon fill="midnightblue" stroke="midnightblue" points="1004.84,-82.5001 994.839,-86 1004.84,-89.5001 1004.84,-82.5001"/>
</g>
<!-- Node20 -->
<g id="node20" class="node"><title>Node20</title>
<g id="a_node20"><a xlink:href="../../d2/dc9/group__CIP__API.html#gaa57b527530adc2acda6febc500fd6831" target="_top" xlink:title="Shutdown of the CIP stack. ">
<polygon fill="none" stroke="black" points="1203,-38.5 1203,-57.5 1304,-57.5 1304,-38.5 1203,-38.5"/>
<text text-anchor="middle" x="1253.5" y="-45.5" font-family="Helvetica,sans-Serif" font-size="10.00">ShutdownCipStack</text>
</a>
</g>
</g>
<!-- Node19&#45;&gt;Node20 -->
<g id="edge21" class="edge"><title>Node19&#45;&gt;Node20</title>
<path fill="none" stroke="midnightblue" d="M1169.37,-48C1180.67,-48 1192.14,-48 1202.8,-48"/>
<polygon fill="midnightblue" stroke="midnightblue" points="1169.06,-44.5001 1159.06,-48 1169.06,-51.5001 1169.06,-44.5001"/>
</g>
<!-- Node20&#45;&gt;Node6 -->
<g id="edge22" class="edge"><title>Node20&#45;&gt;Node6</title>
<path fill="none" stroke="midnightblue" d="M1314.4,-52.3688C1373.25,-56.661 1459.47,-62.9497 1496.73,-65.6676"/>
<polygon fill="midnightblue" stroke="midnightblue" points="1314.34,-48.8553 1304.11,-51.6185 1313.83,-55.8367 1314.34,-48.8553"/>
</g>
<!-- Node22 -->
<g id="node22" class="node"><title>Node22</title>
<g id="a_node22"><a xlink:href="../../d2/dc9/group__CIP__API.html#ga16eaeeb12ba23b5a75c8e5902a33d70a" target="_top" xlink:title="Notify the encapsulation layer that an explicit message has been received via TCP. ">
<polygon fill="none" stroke="black" points="459,-244.5 459,-263.5 615,-263.5 615,-244.5 459,-244.5"/>
<text text-anchor="middle" x="537" y="-251.5" font-family="Helvetica,sans-Serif" font-size="10.00">HandleReceivedExplictTcpData</text>
</a>
</g>
</g>
<!-- Node21&#45;&gt;Node22 -->
<g id="edge24" class="edge"><title>Node21&#45;&gt;Node22</title>
<path fill="none" stroke="midnightblue" d="M433.37,-255.147C441.836,-255.052 450.462,-254.956 458.936,-254.861"/>
<polygon fill="midnightblue" stroke="midnightblue" points="433.105,-251.649 423.144,-255.261 433.183,-258.649 433.105,-251.649"/>
</g>
<!-- Node23 -->
<g id="node23" class="node"><title>Node23</title>
<g id="a_node23"><a xlink:href="../../db/d4f/generic__networkhandler_8c.html#aca5593b7dd39d7a7b437999a367102d6" target="_top" xlink:title="Handles data on an established TCP connection, processed connection is given by socket. ">
<polygon fill="none" stroke="black" points="670,-241.5 670,-260.5 798,-260.5 798,-241.5 670,-241.5"/>
<text text-anchor="middle" x="734" y="-248.5" font-family="Helvetica,sans-Serif" font-size="10.00">HandleDataOnTcpSocket</text>
</a>
</g>
</g>
<!-- Node22&#45;&gt;Node23 -->
<g id="edge25" class="edge"><title>Node22&#45;&gt;Node23</title>
<path fill="none" stroke="midnightblue" d="M625.396,-252.655C640.413,-252.424 655.753,-252.188 669.971,-251.97"/>
<polygon fill="midnightblue" stroke="midnightblue" points="625.014,-249.161 615.069,-252.814 625.122,-256.16 625.014,-249.161"/>
</g>
<!-- Node23&#45;&gt;Node4 -->
<g id="edge26" class="edge"><title>Node23&#45;&gt;Node4</title>
<path fill="none" stroke="midnightblue" d="M788.247,-239.23C817.758,-232.706 853.979,-224.699 881.728,-218.565"/>
<polygon fill="midnightblue" stroke="midnightblue" points="787.123,-235.894 778.114,-241.47 788.634,-242.729 787.123,-235.894"/>
</g>
<!-- Node24&#45;&gt;Node6 -->
<g id="edge28" class="edge"><title>Node24&#45;&gt;Node6</title>
<path fill="none" stroke="midnightblue" d="M1439.24,-23.6889C1446.51,-26.8864 1454.08,-30.412 1461,-34 1474.85,-41.1816 1489.95,-50.5495 1500.65,-57.4686"/>
<polygon fill="midnightblue" stroke="midnightblue" points="1440.18,-20.2838 1429.61,-19.5568 1437.42,-26.7166 1440.18,-20.2838"/>
</g>
</g>
</svg>
        <g id="navigator" transform="translate(0 0)" fill="#404254">
                <rect fill="#f2f5e9" fill-opacity="0.5" stroke="#606060" stroke-width=".5" x="0" y="0" width="60" height="60"/>
                <use id="zoomplus" xlink:href="#zoomPlus" x="17" y="9" onmousedown="handleZoom(evt,'in')"/>
                <use id="zoomminus" xlink:href="#zoomMin" x="42" y="9" onmousedown="handleZoom(evt,'out')"/>
                <use id="reset" xlink:href="#resetDef" x="30" y="36" onmousedown="handleReset()"/>
                <g id="arrowUp" xlink:href="#dirArrow" transform="translate(30 24)" onmousedown="handlePan(0,-1)">
                  <use xlink:href="#rim" fill="#404040">
                        <set attributeName="fill" to="#808080" begin="arrowUp.mouseover" end="arrowUp.mouseout"/>
                  </use>
                  <path fill="none" stroke="white" stroke-width="1.5" d="M0,-3.0v7 M-2.5,-0.5L0,-3.0L2.5,-0.5"/>
                </g>
                <g id="arrowRight" xlink:href="#dirArrow" transform="rotate(90) translate(36 -43)" onmousedown="handlePan(1,0)">
                  <use xlink:href="#rim" fill="#404040">
                        <set attributeName="fill" to="#808080" begin="arrowRight.mouseover" end="arrowRight.mouseout"/>
                  </use>
                  <path fill="none" stroke="white" stroke-width="1.5" d="M0,-3.0v7 M-2.5,-0.5L0,-3.0L2.5,-0.5"/>
                </g>
                <g id="arrowDown" xlink:href="#dirArrow" transform="rotate(180) translate(-30 -48)" onmousedown="handlePan(0,1)">
                  <use xlink:href="#rim" fill="#404040">
                        <set attributeName="fill" to="#808080" begin="arrowDown.mouseover" end="arrowDown.mouseout"/>
                  </use>
                  <path fill="none" stroke="white" stroke-width="1.5" d="M0,-3.0v7 M-2.5,-0.5L0,-3.0L2.5,-0.5"/>
                </g>
                <g id="arrowLeft" xlink:href="#dirArrow" transform="rotate(270) translate(-36 17)" onmousedown="handlePan(-1,0)">
                  <use xlink:href="#rim" fill="#404040">
                        <set attributeName="fill" to="#808080" begin="arrowLeft.mouseover" end="arrowLeft.mouseout"/>
                  </use>
                  <path fill="none" stroke="white" stroke-width="1.5" d="M0,-3.0v7 M-2.5,-0.5L0,-3.0L2.5,-0.5"/>
                </g>
        </g>
        <svg viewBox="0 0 15 15" width="100%" height="30px" preserveAspectRatio="xMaxYMin meet">
         <g id="arrow_out" transform="scale(0.3 0.3)">
          <a xlink:href="networkhandler_8h_a9d64596a63648e960da4dbf475ec2e4a_icgraph_org.svg" target="_base">
           <rect id="button" ry="5" rx="5" y="6" x="6" height="38" width="38"
                fill="#f2f5e9" fill-opacity="0.5" stroke="#606060" stroke-width="1.0"/>
           <path id="arrow"
             d="M 11.500037,31.436501 C 11.940474,20.09759 22.043105,11.32322 32.158766,21.979434 L 37.068811,17.246167 C 37.068811,17.246167 37.088388,32 37.088388,32 L 22.160133,31.978069 C 22.160133,31.978069 26.997745,27.140456 26.997745,27.140456 C 18.528582,18.264221 13.291696,25.230495 11.500037,31.436501 z"
             style="fill:#404040;"/>
          </a>
         </g>
        </svg>
</svg>
