<?xml version="1.0" encoding="UTF-8" standalone="no"?>
<!DOCTYPE svg PUBLIC "-//W3C//DTD SVG 1.1//EN"
 "http://www.w3.org/Graphics/SVG/1.1/DTD/svg11.dtd">
<!-- Generated by graphviz version 2.38.0 (20140413.2041)
 -->
<!-- Title: src/enet_encap/endianconv.h Pages: 1 -->
<svg width="1816pt" height="140pt"
 viewBox="0.00 0.00 1815.50 140.00" xmlns="http://www.w3.org/2000/svg" xmlns:xlink="http://www.w3.org/1999/xlink">
<g id="graph0" class="graph" transform="scale(1 1) rotate(0) translate(4 136)">
<title>src/enet_encap/endianconv.h</title>
<!-- Node1 -->
<g id="node1" class="node"><title>Node1</title>
<polygon fill="#bfbfbf" stroke="black" points="802.5,-112.5 802.5,-131.5 946.5,-131.5 946.5,-112.5 802.5,-112.5"/>
<text text-anchor="middle" x="874.5" y="-119.5" font-family="Helvetica,sans-Serif" font-size="10.00">src/enet_encap/endianconv.h</text>
</g>
<!-- Node2 -->
<g id="node2" class="node"><title>Node2</title>
<g id="a_node2"><a xlink:href="../../d2/d3d/cipcommon_8c.html" target="_top" xlink:title="src/cip/cipcommon.c">
<polygon fill="none" stroke="black" points="178,-56.5 178,-75.5 285,-75.5 285,-56.5 178,-56.5"/>
<text text-anchor="middle" x="231.5" y="-63.5" font-family="Helvetica,sans-Serif" font-size="10.00">src/cip/cipcommon.c</text>
</a>
</g>
</g>
<!-- Node1&#45;&gt;Node2 -->
<g id="edge1" class="edge"><title>Node1&#45;&gt;Node2</title>
<path fill="none" stroke="midnightblue" d="M792.033,-115.937C680.262,-108.758 474.528,-94.4183 299.5,-76 294.881,-75.514 290.091,-74.9671 285.29,-74.3893"/>
<polygon fill="midnightblue" stroke="midnightblue" points="792.02,-119.443 802.223,-116.589 792.466,-112.458 792.02,-119.443"/>
</g>
<!-- Node3 -->
<g id="node3" class="node"><title>Node3</title>
<g id="a_node3"><a xlink:href="../../d5/d35/cipconnectionmanager_8c.html" target="_top" xlink:title="src/cip/cipconnectionmanager.c">
<polygon fill="none" stroke="black" points="0,-0.5 0,-19.5 155,-19.5 155,-0.5 0,-0.5"/>
<text text-anchor="middle" x="77.5" y="-7.5" font-family="Helvetica,sans-Serif" font-size="10.00">src/cip/cipconnectionmanager.c</text>
</a>
</g>
</g>
<!-- Node1&#45;&gt;Node3 -->
<g id="edge2" class="edge"><title>Node1&#45;&gt;Node3</title>
<path fill="none" stroke="midnightblue" d="M791.946,-118.575C661.203,-114 412.694,-102.108 328.5,-76 311.388,-70.6936 310.253,-62.3494 293.5,-56 245.503,-37.8091 188.571,-26.3324 145.209,-19.525"/>
<polygon fill="midnightblue" stroke="midnightblue" points="792.189,-122.086 802.303,-118.931 792.429,-115.09 792.189,-122.086"/>
</g>
<!-- Node4 -->
<g id="node4" class="node"><title>Node4</title>
<g id="a_node4"><a xlink:href="../../df/d91/cipconnectionobject_8c.html" target="_top" xlink:title="src/cip/cipconnectionobject.c">
<polygon fill="none" stroke="black" points="604,-56.5 604,-75.5 747,-75.5 747,-56.5 604,-56.5"/>
<text text-anchor="middle" x="675.5" y="-63.5" font-family="Helvetica,sans-Serif" font-size="10.00">src/cip/cipconnectionobject.c</text>
</a>
</g>
</g>
<!-- Node1&#45;&gt;Node4 -->
<g id="edge3" class="edge"><title>Node1&#45;&gt;Node4</title>
<path fill="none" stroke="midnightblue" d="M832.852,-109.699C795.294,-99.507 740.886,-84.7429 706.885,-75.5164"/>
<polygon fill="midnightblue" stroke="midnightblue" points="832.4,-113.202 842.968,-112.444 834.233,-106.447 832.4,-113.202"/>
</g>
<!-- Node5 -->
<g id="node5" class="node"><title>Node5</title>
<g id="a_node5"><a xlink:href="../../de/ddc/cipepath_8c.html" target="_top" xlink:title="src/cip/cipepath.c">
<polygon fill="none" stroke="black" points="765.5,-56.5 765.5,-75.5 859.5,-75.5 859.5,-56.5 765.5,-56.5"/>
<text text-anchor="middle" x="812.5" y="-63.5" font-family="Helvetica,sans-Serif" font-size="10.00">src/cip/cipepath.c</text>
</a>
</g>
</g>
<!-- Node1&#45;&gt;Node5 -->
<g id="edge4" class="edge"><title>Node1&#45;&gt;Node5</title>
<path fill="none" stroke="midnightblue" d="M856.746,-105.537C845.692,-95.9087 831.869,-83.8694 822.643,-75.8339"/>
<polygon fill="midnightblue" stroke="midnightblue" points="854.699,-108.395 864.539,-112.324 859.297,-103.117 854.699,-108.395"/>
</g>
<!-- Node6 -->
<g id="node6" class="node"><title>Node6</title>
<g id="a_node6"><a xlink:href="../../d7/d65/cipethernetlink_8c.html" target="_top" xlink:title="src/cip/cipethernetlink.c">
<polygon fill="none" stroke="black" points="877.5,-56.5 877.5,-75.5 997.5,-75.5 997.5,-56.5 877.5,-56.5"/>
<text text-anchor="middle" x="937.5" y="-63.5" font-family="Helvetica,sans-Serif" font-size="10.00">src/cip/cipethernetlink.c</text>
</a>
</g>
</g>
<!-- Node1&#45;&gt;Node6 -->
<g id="edge5" class="edge"><title>Node1&#45;&gt;Node6</title>
<path fill="none" stroke="midnightblue" d="M892.54,-105.537C903.773,-95.9087 917.819,-83.8694 927.194,-75.8339"/>
<polygon fill="midnightblue" stroke="midnightblue" points="889.937,-103.159 884.622,-112.324 894.492,-108.473 889.937,-103.159"/>
</g>
<!-- Node7 -->
<g id="node7" class="node"><title>Node7</title>
<g id="a_node7"><a xlink:href="../../dd/dc4/cipidentity_8c.html" target="_top" xlink:title="src/cip/cipidentity.c">
<polygon fill="none" stroke="black" points="1016,-56.5 1016,-75.5 1117,-75.5 1117,-56.5 1016,-56.5"/>
<text text-anchor="middle" x="1066.5" y="-63.5" font-family="Helvetica,sans-Serif" font-size="10.00">src/cip/cipidentity.c</text>
</a>
</g>
</g>
<!-- Node1&#45;&gt;Node7 -->
<g id="edge6" class="edge"><title>Node1&#45;&gt;Node7</title>
<path fill="none" stroke="midnightblue" d="M914.683,-109.699C950.919,-99.507 1003.41,-84.7429 1036.22,-75.5164"/>
<polygon fill="midnightblue" stroke="midnightblue" points="913.602,-106.367 904.923,-112.444 915.497,-113.105 913.602,-106.367"/>
</g>
<!-- Node8 -->
<g id="node8" class="node"><title>Node8</title>
<g id="a_node8"><a xlink:href="../../df/d03/cipioconnection_8c.html" target="_top" xlink:title="src/cip/cipioconnection.c">
<polygon fill="none" stroke="black" points="173,-0.5 173,-19.5 298,-19.5 298,-0.5 173,-0.5"/>
<text text-anchor="middle" x="235.5" y="-7.5" font-family="Helvetica,sans-Serif" font-size="10.00">src/cip/cipioconnection.c</text>
</a>
</g>
</g>
<!-- Node1&#45;&gt;Node8 -->
<g id="edge7" class="edge"><title>Node1&#45;&gt;Node8</title>
<path fill="none" stroke="midnightblue" d="M791.985,-121.067C694.239,-119.39 527.173,-110.971 388.5,-76 335.89,-62.7327 278.037,-33.8968 251.015,-19.5138"/>
<polygon fill="midnightblue" stroke="midnightblue" points="792.046,-124.568 802.098,-121.221 792.152,-117.569 792.046,-124.568"/>
</g>
<!-- Node9 -->
<g id="node9" class="node"><title>Node9</title>
<g id="a_node9"><a xlink:href="../../d9/d7d/cipmessagerouter_8c.html" target="_top" xlink:title="src/cip/cipmessagerouter.c">
<polygon fill="none" stroke="black" points="1135.5,-56.5 1135.5,-75.5 1269.5,-75.5 1269.5,-56.5 1135.5,-56.5"/>
<text text-anchor="middle" x="1202.5" y="-63.5" font-family="Helvetica,sans-Serif" font-size="10.00">src/cip/cipmessagerouter.c</text>
</a>
</g>
</g>
<!-- Node1&#45;&gt;Node9 -->
<g id="edge8" class="edge"><title>Node1&#45;&gt;Node9</title>
<path fill="none" stroke="midnightblue" d="M936.512,-110.791C998.49,-100.587 1092.69,-85.078 1150.77,-75.5164"/>
<polygon fill="midnightblue" stroke="midnightblue" points="935.771,-107.365 926.473,-112.444 936.908,-114.272 935.771,-107.365"/>
</g>
<!-- Node10 -->
<g id="node10" class="node"><title>Node10</title>
<g id="a_node10"><a xlink:href="../../dd/d34/cipqos_8c.html" target="_top" xlink:title="src/cip/cipqos.c">
<polygon fill="none" stroke="black" points="1287.5,-56.5 1287.5,-75.5 1373.5,-75.5 1373.5,-56.5 1287.5,-56.5"/>
<text text-anchor="middle" x="1330.5" y="-63.5" font-family="Helvetica,sans-Serif" font-size="10.00">src/cip/cipqos.c</text>
</a>
</g>
</g>
<!-- Node1&#45;&gt;Node10 -->
<g id="edge9" class="edge"><title>Node1&#45;&gt;Node10</title>
<path fill="none" stroke="midnightblue" d="M956.527,-113.33C1038.28,-105.342 1167.33,-91.7977 1278.5,-76 1281.4,-75.5875 1284.39,-75.1376 1287.4,-74.6659"/>
<polygon fill="midnightblue" stroke="midnightblue" points="956.164,-109.849 946.549,-114.301 956.841,-116.816 956.164,-109.849"/>
</g>
<!-- Node11 -->
<g id="node11" class="node"><title>Node11</title>
<g id="a_node11"><a xlink:href="../../dd/d20/ciptcpipinterface_8c.html" target="_top" xlink:title="src/cip/ciptcpipinterface.c">
<polygon fill="none" stroke="black" points="1391.5,-56.5 1391.5,-75.5 1519.5,-75.5 1519.5,-56.5 1391.5,-56.5"/>
<text text-anchor="middle" x="1455.5" y="-63.5" font-family="Helvetica,sans-Serif" font-size="10.00">src/cip/ciptcpipinterface.c</text>
</a>
</g>
</g>
<!-- Node1&#45;&gt;Node11 -->
<g id="edge10" class="edge"><title>Node1&#45;&gt;Node11</title>
<path fill="none" stroke="midnightblue" d="M956.589,-114.6C1057.1,-106.563 1232.47,-91.8888 1382.5,-76 1385.42,-75.6907 1388.41,-75.3643 1391.42,-75.0264"/>
<polygon fill="midnightblue" stroke="midnightblue" points="956.193,-111.12 946.503,-115.404 956.75,-118.098 956.193,-111.12"/>
</g>
<!-- Node12 -->
<g id="node12" class="node"><title>Node12</title>
<g id="a_node12"><a xlink:href="../../d3/d98/cpf_8c.html" target="_top" xlink:title="src/enet_encap/cpf.c">
<polygon fill="none" stroke="black" points="1537.5,-56.5 1537.5,-75.5 1645.5,-75.5 1645.5,-56.5 1537.5,-56.5"/>
<text text-anchor="middle" x="1591.5" y="-63.5" font-family="Helvetica,sans-Serif" font-size="10.00">src/enet_encap/cpf.c</text>
</a>
</g>
</g>
<!-- Node1&#45;&gt;Node12 -->
<g id="edge11" class="edge"><title>Node1&#45;&gt;Node12</title>
<path fill="none" stroke="midnightblue" d="M956.937,-117.267C1081.12,-111.205 1323.47,-97.6698 1528.5,-76 1531.36,-75.6981 1534.28,-75.3646 1537.24,-75.0092"/>
<polygon fill="midnightblue" stroke="midnightblue" points="956.567,-113.78 946.748,-117.76 956.905,-120.772 956.567,-113.78"/>
</g>
<!-- Node13 -->
<g id="node13" class="node"><title>Node13</title>
<g id="a_node13"><a xlink:href="../../d2/dbd/encap_8c.html" target="_top" xlink:title="src/enet_encap/encap.c">
<polygon fill="none" stroke="black" points="316,-0.5 316,-19.5 437,-19.5 437,-0.5 316,-0.5"/>
<text text-anchor="middle" x="376.5" y="-7.5" font-family="Helvetica,sans-Serif" font-size="10.00">src/enet_encap/encap.c</text>
</a>
</g>
</g>
<!-- Node1&#45;&gt;Node13 -->
<g id="edge12" class="edge"><title>Node1&#45;&gt;Node13</title>
<path fill="none" stroke="midnightblue" d="M792.103,-117.376C666.723,-111.217 439.269,-97.2675 408.5,-76 389.255,-62.6976 381.083,-34.4122 378.052,-19.9382"/>
<polygon fill="midnightblue" stroke="midnightblue" points="792.271,-120.888 802.428,-117.877 792.61,-113.896 792.271,-120.888"/>
</g>
<!-- Node14 -->
<g id="node14" class="node"><title>Node14</title>
<g id="a_node14"><a xlink:href="../../da/d73/endianconv_8c.html" target="_top" xlink:title="src/enet_encap/endianconv.c">
<polygon fill="none" stroke="black" points="1663.5,-56.5 1663.5,-75.5 1807.5,-75.5 1807.5,-56.5 1663.5,-56.5"/>
<text text-anchor="middle" x="1735.5" y="-63.5" font-family="Helvetica,sans-Serif" font-size="10.00">src/enet_encap/endianconv.c</text>
</a>
</g>
</g>
<!-- Node1&#45;&gt;Node14 -->
<g id="edge13" class="edge"><title>Node1&#45;&gt;Node14</title>
<path fill="none" stroke="midnightblue" d="M957.033,-117.679C1099.49,-111.624 1400.67,-97.4089 1654.5,-76 1657.32,-75.7622 1660.19,-75.5066 1663.1,-75.2374"/>
<polygon fill="midnightblue" stroke="midnightblue" points="956.483,-114.199 946.64,-118.118 956.779,-121.193 956.483,-114.199"/>
</g>
<!-- Node15 -->
<g id="node15" class="node"><title>Node15</title>
<g id="a_node15"><a xlink:href="../../da/dc2/generic__networkhandler_8h.html" target="_top" xlink:title="src/ports/generic_networkhandler.h">
<polygon fill="none" stroke="black" points="417,-56.5 417,-75.5 586,-75.5 586,-56.5 417,-56.5"/>
<text text-anchor="middle" x="501.5" y="-63.5" font-family="Helvetica,sans-Serif" font-size="10.00">src/ports/generic_networkhandler.h</text>
</a>
</g>
</g>
<!-- Node1&#45;&gt;Node15 -->
<g id="edge14" class="edge"><title>Node1&#45;&gt;Node15</title>
<path fill="none" stroke="midnightblue" d="M805.284,-110.979C734.826,-100.779 626.781,-85.1372 560.326,-75.5164"/>
<polygon fill="midnightblue" stroke="midnightblue" points="804.999,-114.475 815.397,-112.444 806.002,-107.547 804.999,-114.475"/>
</g>
<!-- Node15&#45;&gt;Node3 -->
<g id="edge15" class="edge"><title>Node15&#45;&gt;Node3</title>
<path fill="none" stroke="midnightblue" d="M424.292,-55.1669C344.24,-44.9716 220.375,-29.1963 144.37,-19.5164"/>
<polygon fill="midnightblue" stroke="midnightblue" points="423.954,-58.652 434.316,-56.4435 424.838,-51.7081 423.954,-58.652"/>
</g>
<!-- Node15&#45;&gt;Node8 -->
<g id="edge16" class="edge"><title>Node15&#45;&gt;Node8</title>
<path fill="none" stroke="midnightblue" d="M449.332,-54.4096C399.061,-44.2042 323.968,-28.9597 277.451,-19.5164"/>
<polygon fill="midnightblue" stroke="midnightblue" points="448.855,-57.884 459.352,-56.4435 450.248,-51.0239 448.855,-57.884"/>
</g>
<!-- Node15&#45;&gt;Node13 -->
<g id="edge17" class="edge"><title>Node15&#45;&gt;Node13</title>
<path fill="none" stroke="midnightblue" d="M472.259,-52.3678C448.85,-42.2553 416.659,-28.3486 396.214,-19.5164"/>
<polygon fill="midnightblue" stroke="midnightblue" points="471.125,-55.6907 481.693,-56.4435 473.901,-49.2647 471.125,-55.6907"/>
</g>
<!-- Node16 -->
<g id="node16" class="node"><title>Node16</title>
<g id="a_node16"><a xlink:href="../../db/d4f/generic__networkhandler_8c.html" target="_top" xlink:title="This file includes all platform&#45;independent functions of the network handler to reduce code duplicati...">
<polygon fill="none" stroke="black" points="918,-0.5 918,-19.5 1087,-19.5 1087,-0.5 918,-0.5"/>
<text text-anchor="middle" x="1002.5" y="-7.5" font-family="Helvetica,sans-Serif" font-size="10.00">src/ports/generic_networkhandler.c</text>
</a>
</g>
</g>
<!-- Node15&#45;&gt;Node16 -->
<g id="edge18" class="edge"><title>Node15&#45;&gt;Node16</title>
<path fill="none" stroke="midnightblue" d="M590.719,-55.3836C685.202,-45.1998 832.939,-29.276 923.394,-19.5264"/>
<polygon fill="midnightblue" stroke="midnightblue" points="590.176,-51.9218 580.608,-56.4733 590.926,-58.8815 590.176,-51.9218"/>
</g>
<!-- Node17 -->
<g id="node17" class="node"><title>Node17</title>
<g id="a_node17"><a xlink:href="../../d5/dcb/MINGW_2main_8c.html" target="_top" xlink:title="src/ports/MINGW/main.c">
<polygon fill="none" stroke="black" points="1105.5,-0.5 1105.5,-19.5 1231.5,-19.5 1231.5,-0.5 1105.5,-0.5"/>
<text text-anchor="middle" x="1168.5" y="-7.5" font-family="Helvetica,sans-Serif" font-size="10.00">src/ports/MINGW/main.c</text>
</a>
</g>
</g>
<!-- Node15&#45;&gt;Node17 -->
<g id="edge19" class="edge"><title>Node15&#45;&gt;Node17</title>
<path fill="none" stroke="midnightblue" d="M596.122,-55.9706C819.648,-37.4862 877.586,-41.5323 1096.5,-20 1099.38,-19.7164 1102.33,-19.4111 1105.3,-19.0903"/>
<polygon fill="midnightblue" stroke="midnightblue" points="595.717,-52.4921 586.042,-56.8101 596.298,-59.468 595.717,-52.4921"/>
</g>
<!-- Node18 -->
<g id="node18" class="node"><title>Node18</title>
<g id="a_node18"><a xlink:href="../../d3/de3/MINGW_2networkhandler_8c.html" target="_top" xlink:title="src/ports/MINGW/networkhandler.c">
<polygon fill="none" stroke="black" points="1250,-0.5 1250,-19.5 1421,-19.5 1421,-0.5 1250,-0.5"/>
<text text-anchor="middle" x="1335.5" y="-7.5" font-family="Helvetica,sans-Serif" font-size="10.00">src/ports/MINGW/networkhandler.c</text>
</a>
</g>
</g>
<!-- Node15&#45;&gt;Node18 -->
<g id="edge20" class="edge"><title>Node15&#45;&gt;Node18</title>
<path fill="none" stroke="midnightblue" d="M596.344,-55.9698C883.519,-34.479 957.552,-41.291 1240.5,-20 1243.56,-19.77 1246.67,-19.5263 1249.81,-19.272"/>
<polygon fill="midnightblue" stroke="midnightblue" points="595.746,-52.5048 586.037,-56.7463 596.272,-59.485 595.746,-52.5048"/>
</g>
<!-- Node19 -->
<g id="node19" class="node"><title>Node19</title>
<g id="a_node19"><a xlink:href="../../d9/dfb/POSIX_2main_8c.html" target="_top" xlink:title="src/ports/POSIX/main.c">
<polygon fill="none" stroke="black" points="455,-0.5 455,-19.5 576,-19.5 576,-0.5 455,-0.5"/>
<text text-anchor="middle" x="515.5" y="-7.5" font-family="Helvetica,sans-Serif" font-size="10.00">src/ports/POSIX/main.c</text>
</a>
</g>
</g>
<!-- Node15&#45;&gt;Node19 -->
<g id="edge21" class="edge"><title>Node15&#45;&gt;Node19</title>
<path fill="none" stroke="midnightblue" d="M506.323,-46.3956C508.665,-37.362 511.368,-26.936 513.231,-19.7511"/>
<polygon fill="midnightblue" stroke="midnightblue" points="502.934,-45.5246 503.812,-56.083 509.71,-47.2814 502.934,-45.5246"/>
</g>
<!-- Node20 -->
<g id="node20" class="node"><title>Node20</title>
<g id="a_node20"><a xlink:href="../../dc/db2/WIN32_2main_8c.html" target="_top" xlink:title="src/ports/WIN32/main.c">
<polygon fill="none" stroke="black" points="594,-0.5 594,-19.5 715,-19.5 715,-0.5 594,-0.5"/>
<text text-anchor="middle" x="654.5" y="-7.5" font-family="Helvetica,sans-Serif" font-size="10.00">src/ports/WIN32/main.c</text>
</a>
</g>
</g>
<!-- Node15&#45;&gt;Node20 -->
<g id="edge22" class="edge"><title>Node15&#45;&gt;Node20</title>
<path fill="none" stroke="midnightblue" d="M535.389,-53.0392C564.177,-42.8786 604.787,-28.5457 630.37,-19.5164"/>
<polygon fill="midnightblue" stroke="midnightblue" points="534.008,-49.8148 525.743,-56.4435 536.338,-56.4157 534.008,-49.8148"/>
</g>
<!-- Node21 -->
<g id="node21" class="node"><title>Node21</title>
<g id="a_node21"><a xlink:href="../../d8/d6c/WIN32_2networkhandler_8c.html" target="_top" xlink:title="src/ports/WIN32/networkhandler.c">
<polygon fill="none" stroke="black" points="733.5,-0.5 733.5,-19.5 899.5,-19.5 899.5,-0.5 733.5,-0.5"/>
<text text-anchor="middle" x="816.5" y="-7.5" font-family="Helvetica,sans-Serif" font-size="10.00">src/ports/WIN32/networkhandler.c</text>
</a>
</g>
</g>
<!-- Node15&#45;&gt;Node21 -->
<g id="edge23" class="edge"><title>Node15&#45;&gt;Node21</title>
<path fill="none" stroke="midnightblue" d="M561.423,-54.7275C620.949,-44.523 711.16,-29.0583 766.821,-19.5164"/>
<polygon fill="midnightblue" stroke="midnightblue" points="560.678,-51.3041 551.413,-56.4435 561.86,-58.2035 560.678,-51.3041"/>
</g>
</g>
</svg>
