<?xml version="1.0" encoding="UTF-8" standalone="no"?>
<!DOCTYPE svg PUBLIC "-//W3C//DTD SVG 1.1//EN"
 "http://www.w3.org/Graphics/SVG/1.1/DTD/svg11.dtd">
<!-- Generated by graphviz version 2.38.0 (20140413.2041)
 -->
<!-- Title: GetAttributeSingleEthernetLink Pages: 1 -->
<svg width="765pt" height="240pt"
 viewBox="0.00 0.00 765.00 239.73" xmlns="http://www.w3.org/2000/svg" xmlns:xlink="http://www.w3.org/1999/xlink">
<g id="graph0" class="graph" transform="scale(1 1) rotate(0) translate(4 235.725)">
<title>GetAttributeSingleEthernetLink</title>
<!-- Node1 -->
<g id="node1" class="node"><title>Node1</title>
<polygon fill="#bfbfbf" stroke="black" points="0,-98.2253 0,-117.225 151,-117.225 151,-98.2253 0,-98.2253"/>
<text text-anchor="middle" x="75.5" y="-105.225" font-family="Helvetica,sans-Serif" font-size="10.00">GetAttributeSingleEthernetLink</text>
</g>
<!-- Node2 -->
<g id="node2" class="node"><title>Node2</title>
<g id="a_node2"><a xlink:href="../../d2/dc9/group__CIP__API.html#ga1eb3004bbf086b276500e1d6e7a2f677" target="_top" xlink:title="Calculates Byte&#45;Index of Attribute. ">
<polygon fill="none" stroke="black" points="379,-212.225 379,-231.225 461,-231.225 461,-212.225 379,-212.225"/>
<text text-anchor="middle" x="420" y="-219.225" font-family="Helvetica,sans-Serif" font-size="10.00">CalculateIndex</text>
</a>
</g>
</g>
<!-- Node1&#45;&gt;Node2 -->
<g id="edge1" class="edge"><title>Node1&#45;&gt;Node2</title>
<path fill="none" stroke="midnightblue" d="M84.0751,-117.475C100.369,-137.609 141.016,-183.505 187,-202.725 245.707,-227.264 319.957,-228.806 368.425,-226.356"/>
<polygon fill="midnightblue" stroke="midnightblue" points="368.882,-229.835 378.661,-225.76 368.475,-222.847 368.882,-229.835"/>
</g>
<!-- Node3 -->
<g id="node3" class="node"><title>Node3</title>
<g id="a_node3"><a xlink:href="../../d7/d65/cipethernetlink_8c.html#a5b19ab196dbce19ecc33cc387cfdcdd4" target="_top" xlink:title="EncodeInterfaceCapability">
<polygon fill="none" stroke="black" points="187,-98.2253 187,-117.225 318,-117.225 318,-98.2253 187,-98.2253"/>
<text text-anchor="middle" x="252.5" y="-105.225" font-family="Helvetica,sans-Serif" font-size="10.00">EncodeInterfaceCapability</text>
</a>
</g>
</g>
<!-- Node1&#45;&gt;Node3 -->
<g id="edge2" class="edge"><title>Node1&#45;&gt;Node3</title>
<path fill="none" stroke="midnightblue" d="M151.223,-107.725C159.677,-107.725 168.294,-107.725 176.748,-107.725"/>
<polygon fill="midnightblue" stroke="midnightblue" points="176.958,-111.225 186.958,-107.725 176.958,-104.225 176.958,-111.225"/>
</g>
<!-- Node9 -->
<g id="node9" class="node"><title>Node9</title>
<g id="a_node9"><a xlink:href="../../d7/d65/cipethernetlink_8c.html#afd1fc559145db95d7dfd4992ff38edd5" target="_top" xlink:title="EncodeInterfaceControl">
<polygon fill="none" stroke="black" points="193,-60.2253 193,-79.2253 312,-79.2253 312,-60.2253 193,-60.2253"/>
<text text-anchor="middle" x="252.5" y="-67.2253" font-family="Helvetica,sans-Serif" font-size="10.00">EncodeInterfaceControl</text>
</a>
</g>
</g>
<!-- Node1&#45;&gt;Node9 -->
<g id="edge10" class="edge"><title>Node1&#45;&gt;Node9</title>
<path fill="none" stroke="midnightblue" d="M120.66,-98.1363C144.065,-93.0541 173.005,-86.7699 197.712,-81.405"/>
<polygon fill="midnightblue" stroke="midnightblue" points="198.628,-84.7877 207.658,-79.2454 197.143,-77.9472 198.628,-84.7877"/>
</g>
<!-- Node10 -->
<g id="node10" class="node"><title>Node10</title>
<g id="a_node10"><a xlink:href="../../d7/d65/cipethernetlink_8c.html#a841bea27e0f777e8b8beaa35fbaa80c7" target="_top" xlink:title="EncodeInterfaceCounters">
<polygon fill="none" stroke="black" points="188.5,-22.2253 188.5,-41.2253 316.5,-41.2253 316.5,-22.2253 188.5,-22.2253"/>
<text text-anchor="middle" x="252.5" y="-29.2253" font-family="Helvetica,sans-Serif" font-size="10.00">EncodeInterfaceCounters</text>
</a>
</g>
</g>
<!-- Node1&#45;&gt;Node10 -->
<g id="edge12" class="edge"><title>Node1&#45;&gt;Node10</title>
<path fill="none" stroke="midnightblue" d="M92.8841,-98.0184C114.061,-85.7684 152.339,-64.6238 187,-50.7253 192.759,-48.4159 198.908,-46.2463 205.036,-44.2581"/>
<polygon fill="midnightblue" stroke="midnightblue" points="206.079,-47.5993 214.589,-41.2891 204.001,-40.9147 206.079,-47.5993"/>
</g>
<!-- Node11 -->
<g id="node11" class="node"><title>Node11</title>
<g id="a_node11"><a xlink:href="../../d7/d65/cipethernetlink_8c.html#ad7df5a954d504d818bf33ef2f2ae909d" target="_top" xlink:title="EncodeMediaCounters">
<polygon fill="none" stroke="black" points="194.5,-136.225 194.5,-155.225 310.5,-155.225 310.5,-136.225 194.5,-136.225"/>
<text text-anchor="middle" x="252.5" y="-143.225" font-family="Helvetica,sans-Serif" font-size="10.00">EncodeMediaCounters</text>
</a>
</g>
</g>
<!-- Node1&#45;&gt;Node11 -->
<g id="edge14" class="edge"><title>Node1&#45;&gt;Node11</title>
<path fill="none" stroke="midnightblue" d="M120.66,-117.314C144.065,-122.397 173.005,-128.681 197.712,-134.046"/>
<polygon fill="midnightblue" stroke="midnightblue" points="197.143,-137.504 207.658,-136.205 198.628,-130.663 197.143,-137.504"/>
</g>
<!-- Node12 -->
<g id="node12" class="node"><title>Node12</title>
<g id="a_node12"><a xlink:href="../../d2/d3d/cipcommon_8c.html#ab4a4e141020fc10ead0def343c767413" target="_top" xlink:title="Generic implementation of the GetAttributeSingle CIP service. ">
<polygon fill="none" stroke="black" points="204.5,-174.225 204.5,-193.225 300.5,-193.225 300.5,-174.225 204.5,-174.225"/>
<text text-anchor="middle" x="252.5" y="-181.225" font-family="Helvetica,sans-Serif" font-size="10.00">GetAttributeSingle</text>
</a>
</g>
</g>
<!-- Node1&#45;&gt;Node12 -->
<g id="edge16" class="edge"><title>Node1&#45;&gt;Node12</title>
<path fill="none" stroke="midnightblue" d="M92.8841,-117.432C114.061,-129.682 152.339,-150.827 187,-164.725 192.759,-167.035 198.908,-169.204 205.036,-171.193"/>
<polygon fill="midnightblue" stroke="midnightblue" points="204.001,-174.536 214.589,-174.162 206.079,-167.851 204.001,-174.536"/>
</g>
<!-- Node14 -->
<g id="node14" class="node"><title>Node14</title>
<g id="a_node14"><a xlink:href="../../d2/dc9/group__CIP__API.html#ga5a14c8d76acacb09312b709bb0a76265" target="_top" xlink:title="Get a pointer to an instance&#39;s attribute. ">
<polygon fill="none" stroke="black" points="378,-22.2253 378,-41.2253 462,-41.2253 462,-22.2253 378,-22.2253"/>
<text text-anchor="middle" x="420" y="-29.2253" font-family="Helvetica,sans-Serif" font-size="10.00">GetCipAttribute</text>
</a>
</g>
</g>
<!-- Node1&#45;&gt;Node14 -->
<g id="edge21" class="edge"><title>Node1&#45;&gt;Node14</title>
<path fill="none" stroke="midnightblue" d="M83.7133,-97.9874C99.6159,-77.4457 140.032,-30.1397 187,-12.7253 252.308,11.489 334.838,-5.51377 381.797,-19.21"/>
<polygon fill="midnightblue" stroke="midnightblue" points="380.954,-22.6114 391.539,-22.1539 382.979,-15.9107 380.954,-22.6114"/>
</g>
<!-- Node4 -->
<g id="node4" class="node"><title>Node4</title>
<g id="a_node4"><a xlink:href="../../d2/dc9/group__CIP__API.html#gaece1b7dd2aeec306cb33b86b2ee21980" target="_top" xlink:title="Produce the data according to CIP encoding onto the message buffer. ">
<polygon fill="none" stroke="black" points="384.5,-98.2253 384.5,-117.225 455.5,-117.225 455.5,-98.2253 384.5,-98.2253"/>
<text text-anchor="middle" x="420" y="-105.225" font-family="Helvetica,sans-Serif" font-size="10.00">EncodeData</text>
</a>
</g>
</g>
<!-- Node3&#45;&gt;Node4 -->
<g id="edge3" class="edge"><title>Node3&#45;&gt;Node4</title>
<path fill="none" stroke="midnightblue" d="M318.435,-107.725C337.033,-107.725 356.892,-107.725 374.008,-107.725"/>
<polygon fill="midnightblue" stroke="midnightblue" points="374.274,-111.225 384.274,-107.725 374.274,-104.225 374.274,-111.225"/>
</g>
<!-- Node4&#45;&gt;Node4 -->
<g id="edge9" class="edge"><title>Node4&#45;&gt;Node4</title>
<path fill="none" stroke="midnightblue" d="M396.572,-117.482C385.175,-126.291 392.984,-135.725 420,-135.725 437.729,-135.725 447.186,-131.662 448.372,-126.379"/>
<polygon fill="midnightblue" stroke="midnightblue" points="451.345,-124.523 443.428,-117.482 445.226,-127.923 451.345,-124.523"/>
</g>
<!-- Node5 -->
<g id="node5" class="node"><title>Node5</title>
<g id="a_node5"><a xlink:href="../../d4/d91/group__ENCAP.html#gae267a8684cc6ee1b3bd83df03260b7aa" target="_top" xlink:title="converts UINT8 data from host to little endian an writes it to buffer. ">
<polygon fill="none" stroke="black" points="522.5,-155.225 522.5,-174.225 624.5,-174.225 624.5,-155.225 522.5,-155.225"/>
<text text-anchor="middle" x="573.5" y="-162.225" font-family="Helvetica,sans-Serif" font-size="10.00">AddSintToMessage</text>
</a>
</g>
</g>
<!-- Node4&#45;&gt;Node5 -->
<g id="edge4" class="edge"><title>Node4&#45;&gt;Node5</title>
<path fill="none" stroke="midnightblue" d="M446.358,-117.266C471.374,-126.678 509.81,-141.139 537.681,-151.625"/>
<polygon fill="midnightblue" stroke="midnightblue" points="536.468,-154.908 547.06,-155.154 538.933,-148.356 536.468,-154.908"/>
</g>
<!-- Node6 -->
<g id="node6" class="node"><title>Node6</title>
<g id="a_node6"><a xlink:href="../../d4/d91/group__ENCAP.html#gae689aac2a85bf49fb356ec94c8800799" target="_top" xlink:title="converts UINT16 data from host to little endian an writes it to buffer. ">
<polygon fill="none" stroke="black" points="661,-98.2253 661,-117.225 757,-117.225 757,-98.2253 661,-98.2253"/>
<text text-anchor="middle" x="709" y="-105.225" font-family="Helvetica,sans-Serif" font-size="10.00">AddIntToMessage</text>
</a>
</g>
</g>
<!-- Node4&#45;&gt;Node6 -->
<g id="edge5" class="edge"><title>Node4&#45;&gt;Node6</title>
<path fill="none" stroke="midnightblue" d="M455.619,-107.725C504,-107.725 592.44,-107.725 650.722,-107.725"/>
<polygon fill="midnightblue" stroke="midnightblue" points="650.879,-111.225 660.879,-107.725 650.879,-104.225 650.879,-111.225"/>
</g>
<!-- Node7 -->
<g id="node7" class="node"><title>Node7</title>
<g id="a_node7"><a xlink:href="../../d4/d91/group__ENCAP.html#gaafc3c9e3ff582c9b7e438ae2b1fdf822" target="_top" xlink:title="Converts UINT32 data from host to little endian and writes it to buffer. ">
<polygon fill="none" stroke="black" points="522,-41.2253 522,-60.2253 625,-60.2253 625,-41.2253 522,-41.2253"/>
<text text-anchor="middle" x="573.5" y="-48.2253" font-family="Helvetica,sans-Serif" font-size="10.00">AddDintToMessage</text>
</a>
</g>
</g>
<!-- Node4&#45;&gt;Node7 -->
<g id="edge6" class="edge"><title>Node4&#45;&gt;Node7</title>
<path fill="none" stroke="midnightblue" d="M446.358,-98.1848C471.374,-88.7727 509.81,-74.3115 537.681,-63.8255"/>
<polygon fill="midnightblue" stroke="midnightblue" points="538.933,-67.0943 547.06,-60.297 536.468,-60.5426 538.933,-67.0943"/>
</g>
<!-- Node8 -->
<g id="node8" class="node"><title>Node8</title>
<g id="a_node8"><a xlink:href="../../d2/d3d/cipcommon_8c.html#a6eec1752e2cffbbab16bff95fa145bd3" target="_top" xlink:title="EncodeEPath">
<polygon fill="none" stroke="black" points="535,-79.2253 535,-98.2253 612,-98.2253 612,-79.2253 535,-79.2253"/>
<text text-anchor="middle" x="573.5" y="-86.2253" font-family="Helvetica,sans-Serif" font-size="10.00">EncodeEPath</text>
</a>
</g>
</g>
<!-- Node4&#45;&gt;Node8 -->
<g id="edge7" class="edge"><title>Node4&#45;&gt;Node8</title>
<path fill="none" stroke="midnightblue" d="M455.757,-103.366C476.287,-100.792 502.566,-97.4959 524.991,-94.6835"/>
<polygon fill="midnightblue" stroke="midnightblue" points="525.502,-98.147 534.989,-93.4297 524.631,-91.2014 525.502,-98.147"/>
</g>
<!-- Node8&#45;&gt;Node6 -->
<g id="edge8" class="edge"><title>Node8&#45;&gt;Node6</title>
<path fill="none" stroke="midnightblue" d="M612.042,-94.0685C624.088,-95.7828 637.714,-97.7221 650.835,-99.5895"/>
<polygon fill="midnightblue" stroke="midnightblue" points="650.343,-103.055 660.736,-100.999 651.329,-96.1245 650.343,-103.055"/>
</g>
<!-- Node9&#45;&gt;Node4 -->
<g id="edge11" class="edge"><title>Node9&#45;&gt;Node4</title>
<path fill="none" stroke="midnightblue" d="M295.263,-79.3144C319.417,-84.8604 349.805,-91.8377 374.422,-97.4898"/>
<polygon fill="midnightblue" stroke="midnightblue" points="373.707,-100.917 384.236,-99.7434 375.273,-94.0942 373.707,-100.917"/>
</g>
<!-- Node10&#45;&gt;Node4 -->
<g id="edge13" class="edge"><title>Node10&#45;&gt;Node4</title>
<path fill="none" stroke="midnightblue" d="M291.183,-41.2619C300.112,-43.9483 309.506,-47.1329 318,-50.7253 345.855,-62.5067 375.795,-80.0868 395.783,-92.6046"/>
<polygon fill="midnightblue" stroke="midnightblue" points="394.164,-95.7228 404.482,-98.1278 397.916,-89.8132 394.164,-95.7228"/>
</g>
<!-- Node11&#45;&gt;Node4 -->
<g id="edge15" class="edge"><title>Node11&#45;&gt;Node4</title>
<path fill="none" stroke="midnightblue" d="M295.263,-136.136C319.417,-130.59 349.805,-123.613 374.422,-117.961"/>
<polygon fill="midnightblue" stroke="midnightblue" points="375.273,-121.356 384.236,-115.707 373.707,-114.534 375.273,-121.356"/>
</g>
<!-- Node12&#45;&gt;Node2 -->
<g id="edge18" class="edge"><title>Node12&#45;&gt;Node2</title>
<path fill="none" stroke="midnightblue" d="M295.263,-193.314C317.718,-198.47 345.56,-204.863 369.145,-210.278"/>
<polygon fill="midnightblue" stroke="midnightblue" points="368.434,-213.706 378.963,-212.533 370,-206.884 368.434,-213.706"/>
</g>
<!-- Node12&#45;&gt;Node4 -->
<g id="edge19" class="edge"><title>Node12&#45;&gt;Node4</title>
<path fill="none" stroke="midnightblue" d="M291.183,-174.189C300.112,-171.502 309.506,-168.318 318,-164.725 345.855,-152.944 375.795,-135.364 395.783,-122.846"/>
<polygon fill="midnightblue" stroke="midnightblue" points="397.916,-125.638 404.482,-117.323 394.164,-119.728 397.916,-125.638"/>
</g>
<!-- Node13 -->
<g id="node13" class="node"><title>Node13</title>
<g id="a_node13"><a xlink:href="../../d5/dc5/group__CIP__CALLBACK__API.html#ga098272a8ae10facf3086c5c82a0080db" target="_top" xlink:title="Inform the application that the data of an assembly object will be sent. ">
<polygon fill="none" stroke="black" points="354,-174.225 354,-193.225 486,-193.225 486,-174.225 354,-174.225"/>
<text text-anchor="middle" x="420" y="-181.225" font-family="Helvetica,sans-Serif" font-size="10.00">BeforeAssemblyDataSend</text>
</a>
</g>
</g>
<!-- Node12&#45;&gt;Node13 -->
<g id="edge17" class="edge"><title>Node12&#45;&gt;Node13</title>
<path fill="none" stroke="midnightblue" d="M300.926,-183.725C314.352,-183.725 329.305,-183.725 343.936,-183.725"/>
<polygon fill="midnightblue" stroke="midnightblue" points="343.99,-187.225 353.99,-183.725 343.99,-180.225 343.99,-187.225"/>
</g>
<!-- Node12&#45;&gt;Node14 -->
<g id="edge20" class="edge"><title>Node12&#45;&gt;Node14</title>
<path fill="none" stroke="midnightblue" d="M300.663,-174.971C306.94,-172.39 312.943,-169.05 318,-164.725 346.406,-140.435 331.481,-118.556 354,-88.7253 366.017,-72.8063 383.074,-58.0548 396.699,-47.5484"/>
<polygon fill="midnightblue" stroke="midnightblue" points="399.158,-50.0797 405.07,-41.2876 394.966,-44.4741 399.158,-50.0797"/>
</g>
</g>
</svg>
