<?xml version="1.0" encoding="UTF-8" standalone="no"?>
<!DOCTYPE svg PUBLIC "-//W3C//DTD SVG 1.1//EN"
 "http://www.w3.org/Graphics/SVG/1.1/DTD/svg11.dtd">
<!-- Generated by graphviz version 2.38.0 (20140413.2041)
 -->
<!-- Title: EncodeInterfaceCapability Pages: 1 -->
<svg width="517pt" height="142pt"
 viewBox="0.00 0.00 517.00 142.00" xmlns="http://www.w3.org/2000/svg" xmlns:xlink="http://www.w3.org/1999/xlink">
<g id="graph0" class="graph" transform="scale(1 1) rotate(0) translate(4 138)">
<title>EncodeInterfaceCapability</title>
<!-- Node1 -->
<g id="node1" class="node"><title>Node1</title>
<polygon fill="#bfbfbf" stroke="black" points="0,-57.5 0,-76.5 131,-76.5 131,-57.5 0,-57.5"/>
<text text-anchor="middle" x="65.5" y="-64.5" font-family="Helvetica,sans-Serif" font-size="10.00">EncodeInterfaceCapability</text>
</g>
<!-- Node2 -->
<g id="node2" class="node"><title>Node2</title>
<g id="a_node2"><a xlink:href="../../d2/dc9/group__CIP__API.html#gaece1b7dd2aeec306cb33b86b2ee21980" target="_top" xlink:title="Produce the data according to CIP encoding onto the message buffer. ">
<polygon fill="none" stroke="black" points="167,-57.5 167,-76.5 238,-76.5 238,-57.5 167,-57.5"/>
<text text-anchor="middle" x="202.5" y="-64.5" font-family="Helvetica,sans-Serif" font-size="10.00">EncodeData</text>
</a>
</g>
</g>
<!-- Node1&#45;&gt;Node2 -->
<g id="edge1" class="edge"><title>Node1&#45;&gt;Node2</title>
<path fill="none" stroke="midnightblue" d="M131.232,-67C139.892,-67 148.612,-67 156.822,-67"/>
<polygon fill="midnightblue" stroke="midnightblue" points="156.905,-70.5001 166.905,-67 156.905,-63.5001 156.905,-70.5001"/>
</g>
<!-- Node2&#45;&gt;Node2 -->
<g id="edge7" class="edge"><title>Node2&#45;&gt;Node2</title>
<path fill="none" stroke="midnightblue" d="M183.696,-76.7571C174.548,-85.5653 180.816,-95 202.5,-95 216.391,-95 223.956,-91.128 225.193,-86.0292"/>
<polygon fill="midnightblue" stroke="midnightblue" points="228.4,-84.6246 221.304,-76.7571 221.945,-87.3325 228.4,-84.6246"/>
</g>
<!-- Node3 -->
<g id="node3" class="node"><title>Node3</title>
<g id="a_node3"><a xlink:href="../../d4/d91/group__ENCAP.html#gae267a8684cc6ee1b3bd83df03260b7aa" target="_top" xlink:title="converts UINT8 data from host to little endian an writes it to buffer. ">
<polygon fill="none" stroke="black" points="274.5,-114.5 274.5,-133.5 376.5,-133.5 376.5,-114.5 274.5,-114.5"/>
<text text-anchor="middle" x="325.5" y="-121.5" font-family="Helvetica,sans-Serif" font-size="10.00">AddSintToMessage</text>
</a>
</g>
</g>
<!-- Node2&#45;&gt;Node3 -->
<g id="edge2" class="edge"><title>Node2&#45;&gt;Node3</title>
<path fill="none" stroke="midnightblue" d="M223.753,-76.5405C243.209,-85.7061 272.83,-99.6595 294.924,-110.068"/>
<polygon fill="midnightblue" stroke="midnightblue" points="293.643,-113.333 304.181,-114.428 296.626,-107 293.643,-113.333"/>
</g>
<!-- Node4 -->
<g id="node4" class="node"><title>Node4</title>
<g id="a_node4"><a xlink:href="../../d4/d91/group__ENCAP.html#gae689aac2a85bf49fb356ec94c8800799" target="_top" xlink:title="converts UINT16 data from host to little endian an writes it to buffer. ">
<polygon fill="none" stroke="black" points="413,-38.5 413,-57.5 509,-57.5 509,-38.5 413,-38.5"/>
<text text-anchor="middle" x="461" y="-45.5" font-family="Helvetica,sans-Serif" font-size="10.00">AddIntToMessage</text>
</a>
</g>
</g>
<!-- Node2&#45;&gt;Node4 -->
<g id="edge3" class="edge"><title>Node2&#45;&gt;Node4</title>
<path fill="none" stroke="midnightblue" d="M238.193,-69.2829C273.309,-71.0585 329.11,-72.4114 377,-67 389.981,-65.5332 403.891,-62.8148 416.542,-59.8838"/>
<polygon fill="midnightblue" stroke="midnightblue" points="417.477,-63.2585 426.375,-57.5074 415.833,-56.4544 417.477,-63.2585"/>
</g>
<!-- Node5 -->
<g id="node5" class="node"><title>Node5</title>
<g id="a_node5"><a xlink:href="../../d4/d91/group__ENCAP.html#gaafc3c9e3ff582c9b7e438ae2b1fdf822" target="_top" xlink:title="Converts UINT32 data from host to little endian and writes it to buffer. ">
<polygon fill="none" stroke="black" points="274,-38.5 274,-57.5 377,-57.5 377,-38.5 274,-38.5"/>
<text text-anchor="middle" x="325.5" y="-45.5" font-family="Helvetica,sans-Serif" font-size="10.00">AddDintToMessage</text>
</a>
</g>
</g>
<!-- Node2&#45;&gt;Node5 -->
<g id="edge4" class="edge"><title>Node2&#45;&gt;Node5</title>
<path fill="none" stroke="midnightblue" d="M238.174,-61.5554C246.104,-60.3101 254.764,-58.9503 263.439,-57.5881"/>
<polygon fill="midnightblue" stroke="midnightblue" points="264.25,-61.0036 273.586,-55.9947 263.165,-54.0884 264.25,-61.0036"/>
</g>
<!-- Node6 -->
<g id="node6" class="node"><title>Node6</title>
<g id="a_node6"><a xlink:href="../../d2/d3d/cipcommon_8c.html#a6eec1752e2cffbbab16bff95fa145bd3" target="_top" xlink:title="EncodeEPath">
<polygon fill="none" stroke="black" points="287,-0.5 287,-19.5 364,-19.5 364,-0.5 287,-0.5"/>
<text text-anchor="middle" x="325.5" y="-7.5" font-family="Helvetica,sans-Serif" font-size="10.00">EncodeEPath</text>
</a>
</g>
</g>
<!-- Node2&#45;&gt;Node6 -->
<g id="edge5" class="edge"><title>Node2&#45;&gt;Node6</title>
<path fill="none" stroke="midnightblue" d="M219.707,-57.4553C233.796,-49.3552 254.891,-37.6972 274,-29 278.354,-27.0186 282.979,-25.0717 287.596,-23.2244"/>
<polygon fill="midnightblue" stroke="midnightblue" points="288.908,-26.4696 296.968,-19.5932 286.379,-19.9423 288.908,-26.4696"/>
</g>
<!-- Node6&#45;&gt;Node4 -->
<g id="edge6" class="edge"><title>Node6&#45;&gt;Node4</title>
<path fill="none" stroke="midnightblue" d="M360.188,-19.589C377.263,-24.4494 398.2,-30.4091 416.482,-35.6127"/>
<polygon fill="midnightblue" stroke="midnightblue" points="415.747,-39.0426 426.323,-38.4141 417.663,-32.31 415.747,-39.0426"/>
</g>
</g>
</svg>
