<?xml version="1.0" encoding="UTF-8" standalone="no"?>
<!DOCTYPE svg PUBLIC "-//W3C//DTD SVG 1.1//EN"
 "http://www.w3.org/Graphics/SVG/1.1/DTD/svg11.dtd">
<!-- Generated by graphviz version 2.38.0 (20140413.2041)
 -->
<!-- Title: EncodeEPath Pages: 1 -->
<!--zoomable 370 -->
<svg id="main" version="1.1" xmlns="http://www.w3.org/2000/svg" xmlns:xlink="http://www.w3.org/1999/xlink" xml:space="preserve" onload="init(evt)">
<style type="text/css"><![CDATA[
.edge:hover path { stroke: red; }
.edge:hover polygon { stroke: red; fill: red; }
]]></style>
<script type="text/javascript"><![CDATA[
var edges = document.getElementsByTagName('g');
if (edges && edges.length) {
  for (var i=0;i<edges.length;i++) {
    if (edges[i].id.substr(0,4)=='edge') {
      edges[i].setAttribute('class','edge');
    }
  }
}
]]></script>
        <defs>
                <circle id="rim" cx="0" cy="0" r="7"/>
                <circle id="rim2" cx="0" cy="0" r="3.5"/>
                <g id="zoomPlus">
                        <use xlink:href="#rim" fill="#404040">
                                <set attributeName="fill" to="#808080" begin="zoomplus.mouseover" end="zoomplus.mouseout"/>
                        </use>
                        <path d="M-4,0h8M0,-4v8" fill="none" stroke="white" stroke-width="1.5" pointer-events="none"/>
                </g>
                <g id="zoomMin">
                        <use xlink:href="#rim" fill="#404040">
                                <set attributeName="fill" to="#808080" begin="zoomminus.mouseover" end="zoomminus.mouseout"/>
                        </use>
                        <path d="M-4,0h8" fill="none" stroke="white" stroke-width="1.5" pointer-events="none"/>
                </g>
                <g id="dirArrow">
                        <path fill="none" stroke="white" stroke-width="1.5" d="M0,-3.0v7 M-2.5,-0.5L0,-3.0L2.5,-0.5"/>
                </g>
               <g id="resetDef">
                       <use xlink:href="#rim2" fill="#404040">
                               <set attributeName="fill" to="#808080" begin="reset.mouseover" end="reset.mouseout"/>
                       </use>
               </g>
        </defs>

<script type="text/javascript">
var viewWidth = 1340;
var viewHeight = 370;
var sectionId = 'dynsection-6';
</script>
<script xlink:href="../../svgpan.js"/>
<svg id="graph" class="graph">
<g id="viewport">
<title>EncodeEPath</title>
<!-- Node1 -->
<g id="node1" class="node"><title>Node1</title>
<polygon fill="#bfbfbf" stroke="black" points="0,-247.5 0,-266.5 77,-266.5 77,-247.5 0,-247.5"/>
<text text-anchor="middle" x="38.5" y="-254.5" font-family="Helvetica,sans-Serif" font-size="10.00">EncodeEPath</text>
</g>
<!-- Node2 -->
<g id="node2" class="node"><title>Node2</title>
<g id="a_node2"><a xlink:href="../../d2/dc9/group__CIP__API.html#gaece1b7dd2aeec306cb33b86b2ee21980" target="_top" xlink:title="Produce the data according to CIP encoding onto the message buffer. ">
<polygon fill="none" stroke="black" points="113,-247.5 113,-266.5 184,-266.5 184,-247.5 113,-247.5"/>
<text text-anchor="middle" x="148.5" y="-254.5" font-family="Helvetica,sans-Serif" font-size="10.00">EncodeData</text>
</a>
</g>
</g>
<!-- Node1&#45;&gt;Node2 -->
<g id="edge1" class="edge"><title>Node1&#45;&gt;Node2</title>
<path fill="none" stroke="midnightblue" d="M87.5116,-257C96.0347,-257 104.759,-257 112.822,-257"/>
<polygon fill="midnightblue" stroke="midnightblue" points="87.2732,-253.5 77.2732,-257 87.2731,-260.5 87.2732,-253.5"/>
</g>
<!-- Node2&#45;&gt;Node2 -->
<g id="edge36" class="edge"><title>Node2&#45;&gt;Node2</title>
<path fill="none" stroke="midnightblue" d="M128.131,-276.4C129.491,-281.315 136.281,-285 148.5,-285 168.051,-285 173.702,-275.565 165.454,-266.757"/>
<polygon fill="midnightblue" stroke="midnightblue" points="131.507,-277.352 131.546,-266.757 124.908,-275.015 131.507,-277.352"/>
</g>
<!-- Node3 -->
<g id="node3" class="node"><title>Node3</title>
<g id="a_node3"><a xlink:href="../../db/d14/cipcommon_8h.html#ab4a4e141020fc10ead0def343c767413" target="_top" xlink:title="Generic implementation of the GetAttributeSingle CIP service. ">
<polygon fill="none" stroke="black" points="237.5,-190.5 237.5,-209.5 333.5,-209.5 333.5,-190.5 237.5,-190.5"/>
<text text-anchor="middle" x="285.5" y="-197.5" font-family="Helvetica,sans-Serif" font-size="10.00">GetAttributeSingle</text>
</a>
</g>
</g>
<!-- Node2&#45;&gt;Node3 -->
<g id="edge2" class="edge"><title>Node2&#45;&gt;Node3</title>
<path fill="none" stroke="midnightblue" d="M173.97,-242.179C187.26,-234.552 204.17,-225.515 220,-219 228.636,-215.446 238.174,-212.258 247.206,-209.554"/>
<polygon fill="midnightblue" stroke="midnightblue" points="171.864,-239.357 165,-247.427 175.399,-245.398 171.864,-239.357"/>
</g>
<!-- Node21 -->
<g id="node21" class="node"><title>Node21</title>
<g id="a_node21"><a xlink:href="../../dd/d20/ciptcpipinterface_8c.html#aad3f66bfaec89eb066edeaa5dc21fdd4" target="_top" xlink:title="GetAttributeSingleTcpIpInterface">
<polygon fill="none" stroke="black" points="387,-38.5 387,-57.5 546,-57.5 546,-38.5 387,-38.5"/>
<text text-anchor="middle" x="466.5" y="-45.5" font-family="Helvetica,sans-Serif" font-size="10.00">GetAttributeSingleTcpIpInterface</text>
</a>
</g>
</g>
<!-- Node2&#45;&gt;Node21 -->
<g id="edge45" class="edge"><title>Node2&#45;&gt;Node21</title>
<path fill="none" stroke="midnightblue" d="M163.405,-238.908C176.694,-222.43 197.922,-198.124 220,-181 294.116,-123.513 396.45,-76.9441 441.999,-57.6319"/>
<polygon fill="midnightblue" stroke="midnightblue" points="160.336,-237.146 156.884,-247.163 165.829,-241.486 160.336,-237.146"/>
</g>
<!-- Node23 -->
<g id="node23" class="node"><title>Node23</title>
<g id="a_node23"><a xlink:href="../../dd/d4d/cipethernetlink_8h.html#a841bea27e0f777e8b8beaa35fbaa80c7" target="_top" xlink:title="EncodeInterfaceCounters">
<polygon fill="none" stroke="black" points="221.5,-266.5 221.5,-285.5 349.5,-285.5 349.5,-266.5 221.5,-266.5"/>
<text text-anchor="middle" x="285.5" y="-273.5" font-family="Helvetica,sans-Serif" font-size="10.00">EncodeInterfaceCounters</text>
</a>
</g>
</g>
<!-- Node2&#45;&gt;Node23 -->
<g id="edge37" class="edge"><title>Node2&#45;&gt;Node23</title>
<path fill="none" stroke="midnightblue" d="M194.168,-263.287C202.863,-264.51 212.13,-265.815 221.291,-267.104"/>
<polygon fill="midnightblue" stroke="midnightblue" points="194.656,-259.821 184.266,-261.893 193.68,-266.753 194.656,-259.821"/>
</g>
<!-- Node24 -->
<g id="node24" class="node"><title>Node24</title>
<g id="a_node24"><a xlink:href="../../dd/d4d/cipethernetlink_8h.html#ad7df5a954d504d818bf33ef2f2ae909d" target="_top" xlink:title="EncodeMediaCounters">
<polygon fill="none" stroke="black" points="227.5,-228.5 227.5,-247.5 343.5,-247.5 343.5,-228.5 227.5,-228.5"/>
<text text-anchor="middle" x="285.5" y="-235.5" font-family="Helvetica,sans-Serif" font-size="10.00">EncodeMediaCounters</text>
</a>
</g>
</g>
<!-- Node2&#45;&gt;Node24 -->
<g id="edge39" class="edge"><title>Node2&#45;&gt;Node24</title>
<path fill="none" stroke="midnightblue" d="M194.474,-250.67C205.001,-249.189 216.354,-247.591 227.333,-246.046"/>
<polygon fill="midnightblue" stroke="midnightblue" points="193.68,-247.247 184.266,-252.107 194.656,-254.179 193.68,-247.247"/>
</g>
<!-- Node25 -->
<g id="node25" class="node"><title>Node25</title>
<g id="a_node25"><a xlink:href="../../dd/d4d/cipethernetlink_8h.html#afd1fc559145db95d7dfd4992ff38edd5" target="_top" xlink:title="EncodeInterfaceControl">
<polygon fill="none" stroke="black" points="226,-342.5 226,-361.5 345,-361.5 345,-342.5 226,-342.5"/>
<text text-anchor="middle" x="285.5" y="-349.5" font-family="Helvetica,sans-Serif" font-size="10.00">EncodeInterfaceControl</text>
</a>
</g>
</g>
<!-- Node2&#45;&gt;Node25 -->
<g id="edge41" class="edge"><title>Node2&#45;&gt;Node25</title>
<path fill="none" stroke="midnightblue" d="M161.66,-274.895C174.305,-292.183 195.638,-317.906 220,-333 226.252,-336.873 233.333,-339.991 240.456,-342.49"/>
<polygon fill="midnightblue" stroke="midnightblue" points="164.507,-272.859 155.869,-266.724 158.796,-276.907 164.507,-272.859"/>
</g>
<!-- Node26 -->
<g id="node26" class="node"><title>Node26</title>
<g id="a_node26"><a xlink:href="../../dd/d4d/cipethernetlink_8h.html#a5b19ab196dbce19ecc33cc387cfdcdd4" target="_top" xlink:title="EncodeInterfaceCapability">
<polygon fill="none" stroke="black" points="220,-304.5 220,-323.5 351,-323.5 351,-304.5 220,-304.5"/>
<text text-anchor="middle" x="285.5" y="-311.5" font-family="Helvetica,sans-Serif" font-size="10.00">EncodeInterfaceCapability</text>
</a>
</g>
</g>
<!-- Node2&#45;&gt;Node26 -->
<g id="edge43" class="edge"><title>Node2&#45;&gt;Node26</title>
<path fill="none" stroke="midnightblue" d="M173.97,-271.821C187.26,-279.448 204.17,-288.485 220,-295 228.636,-298.554 238.174,-301.742 247.206,-304.446"/>
<polygon fill="midnightblue" stroke="midnightblue" points="175.399,-268.602 165,-266.573 171.864,-274.643 175.399,-268.602"/>
</g>
<!-- Node4 -->
<g id="node4" class="node"><title>Node4</title>
<g id="a_node4"><a xlink:href="../../df/d2e/cipassembly_8c.html#a5973ef42110a1bdf6c7699e35e04b7d4" target="_top" xlink:title="Constructor for the assembly object class. ">
<polygon fill="none" stroke="black" points="596,-266.5 596,-285.5 711,-285.5 711,-266.5 596,-266.5"/>
<text text-anchor="middle" x="653.5" y="-273.5" font-family="Helvetica,sans-Serif" font-size="10.00">CreateAssemblyClass</text>
</a>
</g>
</g>
<!-- Node3&#45;&gt;Node4 -->
<g id="edge3" class="edge"><title>Node3&#45;&gt;Node4</title>
<path fill="none" stroke="midnightblue" d="M340.103,-213.341C343.895,-215.021 347.57,-216.9 351,-219 370.84,-231.149 365.971,-247.05 387,-257 453.522,-288.474 540.022,-288.143 595.903,-283.396"/>
<polygon fill="midnightblue" stroke="midnightblue" points="341.096,-209.971 330.509,-209.566 338.533,-216.485 341.096,-209.971"/>
</g>
<!-- Node12 -->
<g id="node12" class="node"><title>Node12</title>
<g id="a_node12"><a xlink:href="../../d2/d3d/cipcommon_8c.html#a3dfa07bc40e59ba348d713272d1cbfdb" target="_top" xlink:title="CreateCipClass">
<polygon fill="none" stroke="black" points="423.5,-190.5 423.5,-209.5 509.5,-209.5 509.5,-190.5 423.5,-190.5"/>
<text text-anchor="middle" x="466.5" y="-197.5" font-family="Helvetica,sans-Serif" font-size="10.00">CreateCipClass</text>
</a>
</g>
</g>
<!-- Node3&#45;&gt;Node12 -->
<g id="edge11" class="edge"><title>Node3&#45;&gt;Node12</title>
<path fill="none" stroke="midnightblue" d="M343.596,-200C369.49,-200 399.567,-200 423.366,-200"/>
<polygon fill="midnightblue" stroke="midnightblue" points="343.53,-196.5 333.53,-200 343.53,-203.5 343.53,-196.5"/>
</g>
<!-- Node14 -->
<g id="node14" class="node"><title>Node14</title>
<g id="a_node14"><a xlink:href="../../dc/d72/cipidentity_8h.html#a5d5136e167300543aa046057b56ae813" target="_top" xlink:title="CIP Identity object constructor. ">
<polygon fill="none" stroke="black" points="615,-152.5 615,-171.5 692,-171.5 692,-152.5 615,-152.5"/>
<text text-anchor="middle" x="653.5" y="-159.5" font-family="Helvetica,sans-Serif" font-size="10.00">CipIdentityInit</text>
</a>
</g>
</g>
<!-- Node3&#45;&gt;Node14 -->
<g id="edge28" class="edge"><title>Node3&#45;&gt;Node14</title>
<path fill="none" stroke="midnightblue" d="M324.743,-187.59C343.327,-182.111 366.11,-176.199 387,-173 467.487,-160.676 563.194,-160.117 614.875,-160.958"/>
<polygon fill="midnightblue" stroke="midnightblue" points="323.725,-184.241 315.165,-190.484 325.75,-190.942 323.725,-184.241"/>
</g>
<!-- Node15 -->
<g id="node15" class="node"><title>Node15</title>
<g id="a_node15"><a xlink:href="../../d2/d75/cipmessagerouter_8h.html#aa3456b75c1b2289296323b578fee2d3d" target="_top" xlink:title="Initialize the data structures of the message router. ">
<polygon fill="none" stroke="black" points="596.5,-76.5 596.5,-95.5 710.5,-95.5 710.5,-76.5 596.5,-76.5"/>
<text text-anchor="middle" x="653.5" y="-83.5" font-family="Helvetica,sans-Serif" font-size="10.00">CipMessageRouterInit</text>
</a>
</g>
</g>
<!-- Node3&#45;&gt;Node15 -->
<g id="edge29" class="edge"><title>Node3&#45;&gt;Node15</title>
<path fill="none" stroke="midnightblue" d="M316.752,-186.136C336.497,-177.393 362.975,-166.238 387,-158 464.704,-131.356 557.844,-108.013 610.601,-95.5626"/>
<polygon fill="midnightblue" stroke="midnightblue" points="315.064,-183.057 307.365,-190.335 317.923,-189.446 315.064,-183.057"/>
</g>
<!-- Node18 -->
<g id="node18" class="node"><title>Node18</title>
<g id="a_node18"><a xlink:href="../../d2/da3/cipconnectionmanager_8h.html#a5ab0de6894d23e8fe84a6b46797c2212" target="_top" xlink:title="Initialize the data of the connection manager object. ">
<polygon fill="none" stroke="black" points="595,-190.5 595,-209.5 712,-209.5 712,-190.5 595,-190.5"/>
<text text-anchor="middle" x="653.5" y="-197.5" font-family="Helvetica,sans-Serif" font-size="10.00">ConnectionManagerInit</text>
</a>
</g>
</g>
<!-- Node3&#45;&gt;Node18 -->
<g id="edge25" class="edge"><title>Node3&#45;&gt;Node18</title>
<path fill="none" stroke="midnightblue" d="M337.429,-188.462C353.228,-185.399 370.757,-182.522 387,-181 457.358,-174.408 475.608,-174.77 546,-181 566.953,-182.854 589.957,-186.723 609.207,-190.488"/>
<polygon fill="midnightblue" stroke="midnightblue" points="336.443,-185.09 327.327,-190.489 337.82,-191.953 336.443,-185.09"/>
</g>
<!-- Node19 -->
<g id="node19" class="node"><title>Node19</title>
<g id="a_node19"><a xlink:href="../../d7/d65/cipethernetlink_8c.html#a75c823853b5c3f59ddf74d1ef2df2496" target="_top" xlink:title="GetAttributeSingleEthernetLink">
<polygon fill="none" stroke="black" points="391,-304.5 391,-323.5 542,-323.5 542,-304.5 391,-304.5"/>
<text text-anchor="middle" x="466.5" y="-311.5" font-family="Helvetica,sans-Serif" font-size="10.00">GetAttributeSingleEthernetLink</text>
</a>
</g>
</g>
<!-- Node3&#45;&gt;Node19 -->
<g id="edge26" class="edge"><title>Node3&#45;&gt;Node19</title>
<path fill="none" stroke="midnightblue" d="M342.721,-213.304C345.655,-214.982 348.443,-216.872 351,-219 378.196,-241.63 359.92,-267.231 387,-290 394.527,-296.328 403.699,-300.989 413.082,-304.421"/>
<polygon fill="midnightblue" stroke="midnightblue" points="344.086,-210.077 333.559,-208.878 341.041,-216.38 344.086,-210.077"/>
</g>
<!-- Node20 -->
<g id="node20" class="node"><title>Node20</title>
<g id="a_node20"><a xlink:href="../../dd/d34/cipqos_8c.html#a5d9d92286e873ae02cb2c13ea9a0dee0" target="_top" xlink:title="GetAttributeSingleQoS">
<polygon fill="none" stroke="black" points="408.5,-228.5 408.5,-247.5 524.5,-247.5 524.5,-228.5 408.5,-228.5"/>
<text text-anchor="middle" x="466.5" y="-235.5" font-family="Helvetica,sans-Serif" font-size="10.00">GetAttributeSingleQoS</text>
</a>
</g>
</g>
<!-- Node3&#45;&gt;Node20 -->
<g id="edge30" class="edge"><title>Node3&#45;&gt;Node20</title>
<path fill="none" stroke="midnightblue" d="M341.524,-211.681C366.908,-217.07 396.661,-223.386 420.656,-228.48"/>
<polygon fill="midnightblue" stroke="midnightblue" points="342.178,-208.242 331.669,-209.589 340.724,-215.089 342.178,-208.242"/>
</g>
<!-- Node3&#45;&gt;Node21 -->
<g id="edge32" class="edge"><title>Node3&#45;&gt;Node21</title>
<path fill="none" stroke="midnightblue" d="M300.84,-182.19C313.975,-165.829 333.915,-140.875 351,-119 367.196,-98.2628 365.387,-87.0074 387,-72 396.014,-65.7413 406.707,-61.0763 417.254,-57.6126"/>
<polygon fill="midnightblue" stroke="midnightblue" points="297.841,-180.335 294.304,-190.322 303.297,-184.72 297.841,-180.335"/>
</g>
<!-- Node5 -->
<g id="node5" class="node"><title>Node5</title>
<g id="a_node5"><a xlink:href="../../de/df4/cipassembly_8h.html#a4dfbc2c7a8e9e77f05a0a7236210f5b4" target="_top" xlink:title="Setup the Assembly object. ">
<polygon fill="none" stroke="black" points="764.5,-266.5 764.5,-285.5 875.5,-285.5 875.5,-266.5 764.5,-266.5"/>
<text text-anchor="middle" x="820" y="-273.5" font-family="Helvetica,sans-Serif" font-size="10.00">CipAssemblyInitialize</text>
</a>
</g>
</g>
<!-- Node4&#45;&gt;Node5 -->
<g id="edge4" class="edge"><title>Node4&#45;&gt;Node5</title>
<path fill="none" stroke="midnightblue" d="M721.35,-276C735.602,-276 750.493,-276 764.229,-276"/>
<polygon fill="midnightblue" stroke="midnightblue" points="721.112,-272.5 711.112,-276 721.112,-279.5 721.112,-272.5"/>
</g>
<!-- Node10 -->
<g id="node10" class="node"><title>Node10</title>
<g id="a_node10"><a xlink:href="../../d2/dc9/group__CIP__API.html#gae61b613fed863d30428e78b2311bf593" target="_top" xlink:title="Create an instance of an assembly object. ">
<polygon fill="none" stroke="black" points="761,-342.5 761,-361.5 879,-361.5 879,-342.5 761,-342.5"/>
<text text-anchor="middle" x="820" y="-349.5" font-family="Helvetica,sans-Serif" font-size="10.00">CreateAssemblyObject</text>
</a>
</g>
</g>
<!-- Node4&#45;&gt;Node10 -->
<g id="edge9" class="edge"><title>Node4&#45;&gt;Node10</title>
<path fill="none" stroke="midnightblue" d="M707.638,-288.58C713.578,-290.497 719.475,-292.637 725,-295 755.708,-308.135 788.359,-329.948 805.946,-342.437"/>
<polygon fill="midnightblue" stroke="midnightblue" points="708.241,-285.106 697.656,-285.562 706.215,-291.806 708.241,-285.106"/>
</g>
<!-- Node6 -->
<g id="node6" class="node"><title>Node6</title>
<g id="a_node6"><a xlink:href="../../d2/dc9/group__CIP__API.html#ga5d4979945d124e28668b264c3823db1c" target="_top" xlink:title="Initialize and setup the CIP&#45;stack. ">
<polygon fill="none" stroke="black" points="937.5,-190.5 937.5,-209.5 1008.5,-209.5 1008.5,-190.5 937.5,-190.5"/>
<text text-anchor="middle" x="973" y="-197.5" font-family="Helvetica,sans-Serif" font-size="10.00">CipStackInit</text>
</a>
</g>
</g>
<!-- Node5&#45;&gt;Node6 -->
<g id="edge5" class="edge"><title>Node5&#45;&gt;Node6</title>
<path fill="none" stroke="midnightblue" d="M855.188,-262.636C863.087,-259.333 871.4,-255.681 879,-252 906.802,-238.533 937.908,-220.507 956.175,-209.602"/>
<polygon fill="midnightblue" stroke="midnightblue" points="853.76,-259.438 845.835,-266.47 856.415,-265.915 853.76,-259.438"/>
</g>
<!-- Node7 -->
<g id="node7" class="node"><title>Node7</title>
<g id="a_node7"><a xlink:href="../../d5/dcb/MINGW_2main_8c.html#ad338a7dbc41dc40bcecd0479377ef207" target="_top" xlink:title="main">
<polygon fill="none" stroke="black" points="1067,-190.5 1067,-209.5 1105,-209.5 1105,-190.5 1067,-190.5"/>
<text text-anchor="middle" x="1086" y="-197.5" font-family="Helvetica,sans-Serif" font-size="10.00">main</text>
</a>
</g>
</g>
<!-- Node6&#45;&gt;Node7 -->
<g id="edge6" class="edge"><title>Node6&#45;&gt;Node7</title>
<path fill="none" stroke="midnightblue" d="M1018.78,-200C1035.66,-200 1053.91,-200 1066.97,-200"/>
<polygon fill="midnightblue" stroke="midnightblue" points="1018.51,-196.5 1008.51,-200 1018.51,-203.5 1018.51,-196.5"/>
</g>
<!-- Node8 -->
<g id="node8" class="node"><title>Node8</title>
<g id="a_node8"><a xlink:href="../../d8/d03/ports_2MINGW_2CMakeLists_8txt.html#a7e00df43a20d627a1732be7766d91097" target="_top" xlink:title="add_library">
<polygon fill="none" stroke="black" points="1141,-190.5 1141,-209.5 1205,-209.5 1205,-190.5 1141,-190.5"/>
<text text-anchor="middle" x="1173" y="-197.5" font-family="Helvetica,sans-Serif" font-size="10.00">add_library</text>
</a>
</g>
</g>
<!-- Node7&#45;&gt;Node8 -->
<g id="edge7" class="edge"><title>Node7&#45;&gt;Node8</title>
<path fill="none" stroke="midnightblue" d="M1115.27,-200C1123.5,-200 1132.55,-200 1140.94,-200"/>
<polygon fill="midnightblue" stroke="midnightblue" points="1115.03,-196.5 1105.03,-200 1115.03,-203.5 1115.03,-196.5"/>
</g>
<!-- Node9 -->
<g id="node9" class="node"><title>Node9</title>
<g id="a_node9"><a xlink:href="../../d8/dce/ports_2CMakeLists_8txt.html#a598fae457555a5fb26e18d4cd8f89de9" target="_top" xlink:title="add_subdirectory">
<polygon fill="none" stroke="black" points="1241,-190.5 1241,-209.5 1332,-209.5 1332,-190.5 1241,-190.5"/>
<text text-anchor="middle" x="1286.5" y="-197.5" font-family="Helvetica,sans-Serif" font-size="10.00">add_subdirectory</text>
</a>
</g>
</g>
<!-- Node8&#45;&gt;Node9 -->
<g id="edge8" class="edge"><title>Node8&#45;&gt;Node9</title>
<path fill="none" stroke="midnightblue" d="M1215.3,-200C1223.63,-200 1232.42,-200 1240.86,-200"/>
<polygon fill="midnightblue" stroke="midnightblue" points="1215.06,-196.5 1205.06,-200 1215.06,-203.5 1215.06,-196.5"/>
</g>
<!-- Node11 -->
<g id="node11" class="node"><title>Node11</title>
<g id="a_node11"><a xlink:href="../../d5/dc5/group__CIP__CALLBACK__API.html#gae93106eb1647bff3ad56a7752799d878" target="_top" xlink:title="Callback for the application initialization. ">
<polygon fill="none" stroke="black" points="915,-342.5 915,-361.5 1031,-361.5 1031,-342.5 915,-342.5"/>
<text text-anchor="middle" x="973" y="-349.5" font-family="Helvetica,sans-Serif" font-size="10.00">ApplicationInitialization</text>
</a>
</g>
</g>
<!-- Node10&#45;&gt;Node11 -->
<g id="edge10" class="edge"><title>Node10&#45;&gt;Node11</title>
<path fill="none" stroke="midnightblue" d="M889.571,-352C897.995,-352 906.536,-352 914.769,-352"/>
<polygon fill="midnightblue" stroke="midnightblue" points="889.381,-348.5 879.381,-352 889.381,-355.5 889.381,-348.5"/>
</g>
<!-- Node12&#45;&gt;Node4 -->
<g id="edge24" class="edge"><title>Node12&#45;&gt;Node4</title>
<path fill="none" stroke="midnightblue" d="M519.461,-208.099C528.666,-210.765 537.891,-214.304 546,-219 566.132,-230.659 562.02,-245.082 582,-257 588.532,-260.896 595.875,-264.01 603.29,-266.494"/>
<polygon fill="midnightblue" stroke="midnightblue" points="520.091,-204.646 509.533,-205.535 518.341,-211.424 520.091,-204.646"/>
</g>
<!-- Node13 -->
<g id="node13" class="node"><title>Node13</title>
<g id="a_node13"><a xlink:href="../../dd/d4d/cipethernetlink_8h.html#ad6d2028b90ec96ad148d092a30acb7d6" target="_top" xlink:title="Initialize the Ethernet Link Objects data. ">
<polygon fill="none" stroke="black" points="603.5,-304.5 603.5,-323.5 703.5,-323.5 703.5,-304.5 603.5,-304.5"/>
<text text-anchor="middle" x="653.5" y="-311.5" font-family="Helvetica,sans-Serif" font-size="10.00">CipEthernetLinkInit</text>
</a>
</g>
</g>
<!-- Node12&#45;&gt;Node13 -->
<g id="edge12" class="edge"><title>Node12&#45;&gt;Node13</title>
<path fill="none" stroke="midnightblue" d="M519.639,-205.734C529.129,-208.607 538.412,-212.826 546,-219 574.993,-242.587 553.314,-271.041 582,-295 588.129,-300.119 595.512,-303.87 603.159,-306.615"/>
<polygon fill="midnightblue" stroke="midnightblue" points="520.293,-202.289 509.738,-203.203 518.559,-209.071 520.293,-202.289"/>
</g>
<!-- Node12&#45;&gt;Node14 -->
<g id="edge14" class="edge"><title>Node12&#45;&gt;Node14</title>
<path fill="none" stroke="midnightblue" d="M519.918,-189.233C550.21,-183.011 587.612,-175.328 614.959,-169.711"/>
<polygon fill="midnightblue" stroke="midnightblue" points="519.034,-185.841 509.943,-191.282 520.442,-192.698 519.034,-185.841"/>
</g>
<!-- Node12&#45;&gt;Node15 -->
<g id="edge16" class="edge"><title>Node12&#45;&gt;Node15</title>
<path fill="none" stroke="midnightblue" d="M484.699,-183.381C506.012,-163.558 544.164,-130.529 582,-110 592.796,-104.142 605.288,-99.3268 616.73,-95.587"/>
<polygon fill="midnightblue" stroke="midnightblue" points="482.261,-180.87 477.39,-190.279 487.065,-185.96 482.261,-180.87"/>
</g>
<!-- Node16 -->
<g id="node16" class="node"><title>Node16</title>
<g id="a_node16"><a xlink:href="../../d0/d3c/cipqos_8h.html#ab9a656060dcf03c3f51dbd967dff3f52" target="_top" xlink:title="CipQoSInit">
<polygon fill="none" stroke="black" points="621,-228.5 621,-247.5 686,-247.5 686,-228.5 621,-228.5"/>
<text text-anchor="middle" x="653.5" y="-235.5" font-family="Helvetica,sans-Serif" font-size="10.00">CipQoSInit</text>
</a>
</g>
</g>
<!-- Node12&#45;&gt;Node16 -->
<g id="edge18" class="edge"><title>Node12&#45;&gt;Node16</title>
<path fill="none" stroke="midnightblue" d="M519.767,-210.736C552.354,-217.429 593.216,-225.823 620.931,-231.516"/>
<polygon fill="midnightblue" stroke="midnightblue" points="520.442,-207.302 509.943,-208.718 519.034,-214.159 520.442,-207.302"/>
</g>
<!-- Node17 -->
<g id="node17" class="node"><title>Node17</title>
<g id="a_node17"><a xlink:href="../../d1/dad/ciptcpipinterface_8h.html#a4c1f49654e48c5581513d990840933b0" target="_top" xlink:title="Initializing the data structures of the TCP/IP interface object. ">
<polygon fill="none" stroke="black" points="766,-47.5 766,-66.5 874,-66.5 874,-47.5 766,-47.5"/>
<text text-anchor="middle" x="820" y="-54.5" font-family="Helvetica,sans-Serif" font-size="10.00">CipTcpIpInterfaceInit</text>
</a>
</g>
</g>
<!-- Node12&#45;&gt;Node17 -->
<g id="edge20" class="edge"><title>Node12&#45;&gt;Node17</title>
<path fill="none" stroke="midnightblue" d="M493.09,-185.383C515.863,-172.835 550.369,-154.935 582,-143 643.527,-119.784 663.593,-128.53 725,-105 753.404,-94.116 784.496,-77.1646 802.847,-66.5908"/>
<polygon fill="midnightblue" stroke="midnightblue" points="491.12,-182.474 484.09,-190.4 494.529,-188.588 491.12,-182.474"/>
</g>
<!-- Node12&#45;&gt;Node18 -->
<g id="edge22" class="edge"><title>Node12&#45;&gt;Node18</title>
<path fill="none" stroke="midnightblue" d="M520.006,-200C543.354,-200 570.913,-200 594.833,-200"/>
<polygon fill="midnightblue" stroke="midnightblue" points="519.943,-196.5 509.943,-200 519.943,-203.5 519.943,-196.5"/>
</g>
<!-- Node13&#45;&gt;Node6 -->
<g id="edge13" class="edge"><title>Node13&#45;&gt;Node6</title>
<path fill="none" stroke="midnightblue" d="M713.906,-319.938C760.921,-322.121 827.078,-319.459 879,-295 920.133,-275.624 953.032,-229.812 966.012,-209.725"/>
<polygon fill="midnightblue" stroke="midnightblue" points="714.057,-316.441 703.879,-319.386 713.672,-323.431 714.057,-316.441"/>
</g>
<!-- Node14&#45;&gt;Node6 -->
<g id="edge15" class="edge"><title>Node14&#45;&gt;Node6</title>
<path fill="none" stroke="midnightblue" d="M702.481,-167.743C767.05,-175.471 880.363,-189.032 937.289,-195.846"/>
<polygon fill="midnightblue" stroke="midnightblue" points="702.513,-164.222 692.168,-166.508 701.681,-171.172 702.513,-164.222"/>
</g>
<!-- Node15&#45;&gt;Node6 -->
<g id="edge17" class="edge"><title>Node15&#45;&gt;Node6</title>
<path fill="none" stroke="midnightblue" d="M690.763,-99.0204C755.259,-122.178 888.466,-170.007 945.328,-190.423"/>
<polygon fill="midnightblue" stroke="midnightblue" points="691.618,-95.6088 681.024,-95.5235 689.253,-102.197 691.618,-95.6088"/>
</g>
<!-- Node16&#45;&gt;Node6 -->
<g id="edge19" class="edge"><title>Node16&#45;&gt;Node6</title>
<path fill="none" stroke="midnightblue" d="M696.15,-234.087C741.269,-229.722 815.34,-222.191 879,-214 898.271,-211.521 919.722,-208.321 937.161,-205.607"/>
<polygon fill="midnightblue" stroke="midnightblue" points="695.771,-230.607 686.152,-235.048 696.441,-237.575 695.771,-230.607"/>
</g>
<!-- Node17&#45;&gt;Node6 -->
<g id="edge21" class="edge"><title>Node17&#45;&gt;Node6</title>
<path fill="none" stroke="midnightblue" d="M849.836,-71.3866C859.566,-76.8798 870.185,-83.6158 879,-91 916.565,-122.469 951.388,-170.053 965.444,-190.314"/>
<polygon fill="midnightblue" stroke="midnightblue" points="851.326,-68.2132 840.867,-66.5201 847.987,-74.3658 851.326,-68.2132"/>
</g>
<!-- Node18&#45;&gt;Node6 -->
<g id="edge23" class="edge"><title>Node18&#45;&gt;Node6</title>
<path fill="none" stroke="midnightblue" d="M722.658,-200C788.535,-200 885.696,-200 937.118,-200"/>
<polygon fill="midnightblue" stroke="midnightblue" points="722.365,-196.5 712.365,-200 722.365,-203.5 722.365,-196.5"/>
</g>
<!-- Node19&#45;&gt;Node13 -->
<g id="edge27" class="edge"><title>Node19&#45;&gt;Node13</title>
<path fill="none" stroke="midnightblue" d="M552.411,-314C569.834,-314 587.619,-314 603.27,-314"/>
<polygon fill="midnightblue" stroke="midnightblue" points="552.213,-310.5 542.213,-314 552.213,-317.5 552.213,-310.5"/>
</g>
<!-- Node20&#45;&gt;Node16 -->
<g id="edge31" class="edge"><title>Node20&#45;&gt;Node16</title>
<path fill="none" stroke="midnightblue" d="M534.757,-238C564.209,-238 597.358,-238 620.961,-238"/>
<polygon fill="midnightblue" stroke="midnightblue" points="534.516,-234.5 524.516,-238 534.516,-241.5 534.516,-234.5"/>
</g>
<!-- Node21&#45;&gt;Node17 -->
<g id="edge33" class="edge"><title>Node21&#45;&gt;Node17</title>
<path fill="none" stroke="midnightblue" d="M556.386,-50.2759C622.505,-51.9688 710.538,-54.2229 765.998,-55.6429"/>
<polygon fill="midnightblue" stroke="midnightblue" points="556.47,-46.777 546.383,-50.0198 556.291,-53.7747 556.47,-46.777"/>
</g>
<!-- Node22 -->
<g id="node22" class="node"><title>Node22</title>
<g id="a_node22"><a xlink:href="../../dd/d20/ciptcpipinterface_8c.html#af60f6b6b60831de02c99dd1c99b85af6" target="_top" xlink:title="GetAttributeAllTcpIpInterface">
<polygon fill="none" stroke="black" points="582,-0.5 582,-19.5 725,-19.5 725,-0.5 582,-0.5"/>
<text text-anchor="middle" x="653.5" y="-7.5" font-family="Helvetica,sans-Serif" font-size="10.00">GetAttributeAllTcpIpInterface</text>
</a>
</g>
</g>
<!-- Node21&#45;&gt;Node22 -->
<g id="edge34" class="edge"><title>Node21&#45;&gt;Node22</title>
<path fill="none" stroke="midnightblue" d="M524.02,-36.3905C550.331,-30.986 581.243,-24.6365 606.152,-19.5201"/>
<polygon fill="midnightblue" stroke="midnightblue" points="523.275,-32.9704 514.183,-38.411 524.683,-39.8273 523.275,-32.9704"/>
</g>
<!-- Node22&#45;&gt;Node17 -->
<g id="edge35" class="edge"><title>Node22&#45;&gt;Node17</title>
<path fill="none" stroke="midnightblue" d="M697.532,-22.2948C724.999,-30.1425 760.084,-40.167 785.479,-47.4224"/>
<polygon fill="midnightblue" stroke="midnightblue" points="698.366,-18.8931 687.789,-19.5112 696.443,-25.6238 698.366,-18.8931"/>
</g>
<!-- Node23&#45;&gt;Node19 -->
<g id="edge38" class="edge"><title>Node23&#45;&gt;Node19</title>
<path fill="none" stroke="midnightblue" d="M341.524,-287.681C366.908,-293.07 396.661,-299.386 420.656,-304.48"/>
<polygon fill="midnightblue" stroke="midnightblue" points="342.178,-284.242 331.669,-285.589 340.724,-291.089 342.178,-284.242"/>
</g>
<!-- Node24&#45;&gt;Node19 -->
<g id="edge40" class="edge"><title>Node24&#45;&gt;Node19</title>
<path fill="none" stroke="midnightblue" d="M338.704,-251.1C342.967,-252.849 347.122,-254.809 351,-257 369.898,-267.676 368.157,-279.228 387,-290 397.764,-296.153 410.278,-300.896 422.109,-304.477"/>
<polygon fill="midnightblue" stroke="midnightblue" points="339.857,-247.795 329.264,-247.6 337.423,-254.358 339.857,-247.795"/>
</g>
<!-- Node25&#45;&gt;Node19 -->
<g id="edge42" class="edge"><title>Node25&#45;&gt;Node19</title>
<path fill="none" stroke="midnightblue" d="M341.524,-340.319C366.908,-334.93 396.661,-328.614 420.656,-323.52"/>
<polygon fill="midnightblue" stroke="midnightblue" points="340.724,-336.911 331.669,-342.411 342.178,-343.758 340.724,-336.911"/>
</g>
<!-- Node26&#45;&gt;Node19 -->
<g id="edge44" class="edge"><title>Node26&#45;&gt;Node19</title>
<path fill="none" stroke="midnightblue" d="M361.244,-314C371.06,-314 381.119,-314 390.933,-314"/>
<polygon fill="midnightblue" stroke="midnightblue" points="361.123,-310.5 351.123,-314 361.123,-317.5 361.123,-310.5"/>
</g>
</g>
</svg>
        <g id="navigator" transform="translate(0 0)" fill="#404254">
                <rect fill="#f2f5e9" fill-opacity="0.5" stroke="#606060" stroke-width=".5" x="0" y="0" width="60" height="60"/>
                <use id="zoomplus" xlink:href="#zoomPlus" x="17" y="9" onmousedown="handleZoom(evt,'in')"/>
                <use id="zoomminus" xlink:href="#zoomMin" x="42" y="9" onmousedown="handleZoom(evt,'out')"/>
                <use id="reset" xlink:href="#resetDef" x="30" y="36" onmousedown="handleReset()"/>
                <g id="arrowUp" xlink:href="#dirArrow" transform="translate(30 24)" onmousedown="handlePan(0,-1)">
                  <use xlink:href="#rim" fill="#404040">
                        <set attributeName="fill" to="#808080" begin="arrowUp.mouseover" end="arrowUp.mouseout"/>
                  </use>
                  <path fill="none" stroke="white" stroke-width="1.5" d="M0,-3.0v7 M-2.5,-0.5L0,-3.0L2.5,-0.5"/>
                </g>
                <g id="arrowRight" xlink:href="#dirArrow" transform="rotate(90) translate(36 -43)" onmousedown="handlePan(1,0)">
                  <use xlink:href="#rim" fill="#404040">
                        <set attributeName="fill" to="#808080" begin="arrowRight.mouseover" end="arrowRight.mouseout"/>
                  </use>
                  <path fill="none" stroke="white" stroke-width="1.5" d="M0,-3.0v7 M-2.5,-0.5L0,-3.0L2.5,-0.5"/>
                </g>
                <g id="arrowDown" xlink:href="#dirArrow" transform="rotate(180) translate(-30 -48)" onmousedown="handlePan(0,1)">
                  <use xlink:href="#rim" fill="#404040">
                        <set attributeName="fill" to="#808080" begin="arrowDown.mouseover" end="arrowDown.mouseout"/>
                  </use>
                  <path fill="none" stroke="white" stroke-width="1.5" d="M0,-3.0v7 M-2.5,-0.5L0,-3.0L2.5,-0.5"/>
                </g>
                <g id="arrowLeft" xlink:href="#dirArrow" transform="rotate(270) translate(-36 17)" onmousedown="handlePan(-1,0)">
                  <use xlink:href="#rim" fill="#404040">
                        <set attributeName="fill" to="#808080" begin="arrowLeft.mouseover" end="arrowLeft.mouseout"/>
                  </use>
                  <path fill="none" stroke="white" stroke-width="1.5" d="M0,-3.0v7 M-2.5,-0.5L0,-3.0L2.5,-0.5"/>
                </g>
        </g>
        <svg viewBox="0 0 15 15" width="100%" height="30px" preserveAspectRatio="xMaxYMin meet">
         <g id="arrow_out" transform="scale(0.3 0.3)">
          <a xlink:href="cipcommon_8c_a6eec1752e2cffbbab16bff95fa145bd3_icgraph_org.svg" target="_base">
           <rect id="button" ry="5" rx="5" y="6" x="6" height="38" width="38"
                fill="#f2f5e9" fill-opacity="0.5" stroke="#606060" stroke-width="1.0"/>
           <path id="arrow"
             d="M 11.500037,31.436501 C 11.940474,20.09759 22.043105,11.32322 32.158766,21.979434 L 37.068811,17.246167 C 37.068811,17.246167 37.088388,32 37.088388,32 L 22.160133,31.978069 C 22.160133,31.978069 26.997745,27.140456 26.997745,27.140456 C 18.528582,18.264221 13.291696,25.230495 11.500037,31.436501 z"
             style="fill:#404040;"/>
          </a>
         </g>
        </svg>
</svg>
