<?xml version="1.0" encoding="UTF-8" standalone="no"?>
<!DOCTYPE svg PUBLIC "-//W3C//DTD SVG 1.1//EN"
 "http://www.w3.org/Graphics/SVG/1.1/DTD/svg11.dtd">
<!-- Generated by graphviz version 2.38.0 (20140413.2041)
 -->
<!-- Title: GetAttributeSingle Pages: 1 -->
<!--zoomable 294 -->
<svg id="main" version="1.1" xmlns="http://www.w3.org/2000/svg" xmlns:xlink="http://www.w3.org/1999/xlink" xml:space="preserve" onload="init(evt)">
<style type="text/css"><![CDATA[
.edge:hover path { stroke: red; }
.edge:hover polygon { stroke: red; fill: red; }
]]></style>
<script type="text/javascript"><![CDATA[
var edges = document.getElementsByTagName('g');
if (edges && edges.length) {
  for (var i=0;i<edges.length;i++) {
    if (edges[i].id.substr(0,4)=='edge') {
      edges[i].setAttribute('class','edge');
    }
  }
}
]]></script>
        <defs>
                <circle id="rim" cx="0" cy="0" r="7"/>
                <circle id="rim2" cx="0" cy="0" r="3.5"/>
                <g id="zoomPlus">
                        <use xlink:href="#rim" fill="#404040">
                                <set attributeName="fill" to="#808080" begin="zoomplus.mouseover" end="zoomplus.mouseout"/>
                        </use>
                        <path d="M-4,0h8M0,-4v8" fill="none" stroke="white" stroke-width="1.5" pointer-events="none"/>
                </g>
                <g id="zoomMin">
                        <use xlink:href="#rim" fill="#404040">
                                <set attributeName="fill" to="#808080" begin="zoomminus.mouseover" end="zoomminus.mouseout"/>
                        </use>
                        <path d="M-4,0h8" fill="none" stroke="white" stroke-width="1.5" pointer-events="none"/>
                </g>
                <g id="dirArrow">
                        <path fill="none" stroke="white" stroke-width="1.5" d="M0,-3.0v7 M-2.5,-0.5L0,-3.0L2.5,-0.5"/>
                </g>
               <g id="resetDef">
                       <use xlink:href="#rim2" fill="#404040">
                               <set attributeName="fill" to="#808080" begin="reset.mouseover" end="reset.mouseout"/>
                       </use>
               </g>
        </defs>

<script type="text/javascript">
var viewWidth = 1051;
var viewHeight = 294;
var sectionId = 'dynsection-10';
</script>
<script xlink:href="../../svgpan.js"/>
<svg id="graph" class="graph">
<g id="viewport">
<title>GetAttributeSingle</title>
<!-- Node1 -->
<g id="node1" class="node"><title>Node1</title>
<polygon fill="#bfbfbf" stroke="black" points="0,-152.5 0,-171.5 96,-171.5 96,-152.5 0,-152.5"/>
<text text-anchor="middle" x="48" y="-159.5" font-family="Helvetica,sans-Serif" font-size="10.00">GetAttributeSingle</text>
</g>
<!-- Node2 -->
<g id="node2" class="node"><title>Node2</title>
<g id="a_node2"><a xlink:href="../../dc/d72/cipidentity_8h.html#a5d5136e167300543aa046057b56ae813" target="_top" xlink:title="CIP Identity object constructor. ">
<polygon fill="none" stroke="black" points="339,-190.5 339,-209.5 416,-209.5 416,-190.5 339,-190.5"/>
<text text-anchor="middle" x="377.5" y="-197.5" font-family="Helvetica,sans-Serif" font-size="10.00">CipIdentityInit</text>
</a>
</g>
</g>
<!-- Node1&#45;&gt;Node2 -->
<g id="edge1" class="edge"><title>Node1&#45;&gt;Node2</title>
<path fill="none" stroke="midnightblue" d="M95.6439,-173.946C107.441,-176.617 120.132,-179.191 132,-181 204.604,-192.069 290.377,-196.848 338.606,-198.787"/>
<polygon fill="midnightblue" stroke="midnightblue" points="96.0834,-170.455 85.5496,-171.591 94.4928,-177.272 96.0834,-170.455"/>
</g>
<!-- Node7 -->
<g id="node7" class="node"><title>Node7</title>
<g id="a_node7"><a xlink:href="../../d2/d75/cipmessagerouter_8h.html#aa3456b75c1b2289296323b578fee2d3d" target="_top" xlink:title="Initialize the data structures of the message router. ">
<polygon fill="none" stroke="black" points="320.5,-114.5 320.5,-133.5 434.5,-133.5 434.5,-114.5 320.5,-114.5"/>
<text text-anchor="middle" x="377.5" y="-121.5" font-family="Helvetica,sans-Serif" font-size="10.00">CipMessageRouterInit</text>
</a>
</g>
</g>
<!-- Node1&#45;&gt;Node7 -->
<g id="edge6" class="edge"><title>Node1&#45;&gt;Node7</title>
<path fill="none" stroke="midnightblue" d="M95.6439,-150.054C107.441,-147.383 120.132,-144.809 132,-143 196.187,-133.214 270.665,-128.345 320.395,-126.007"/>
<polygon fill="midnightblue" stroke="midnightblue" points="94.4928,-146.728 85.5496,-152.409 96.0834,-153.545 94.4928,-146.728"/>
</g>
<!-- Node8 -->
<g id="node8" class="node"><title>Node8</title>
<g id="a_node8"><a xlink:href="../../d2/da3/cipconnectionmanager_8h.html#a5ab0de6894d23e8fe84a6b46797c2212" target="_top" xlink:title="Initialize the data of the connection manager object. ">
<polygon fill="none" stroke="black" points="319,-76.5 319,-95.5 436,-95.5 436,-76.5 319,-76.5"/>
<text text-anchor="middle" x="377.5" y="-83.5" font-family="Helvetica,sans-Serif" font-size="10.00">ConnectionManagerInit</text>
</a>
</g>
</g>
<!-- Node1&#45;&gt;Node8 -->
<g id="edge8" class="edge"><title>Node1&#45;&gt;Node8</title>
<path fill="none" stroke="midnightblue" d="M76.1565,-147.727C92.0439,-139.933 112.713,-130.729 132,-125 194.425,-106.456 268.594,-96.2017 318.744,-90.9202"/>
<polygon fill="midnightblue" stroke="midnightblue" points="74.3047,-144.74 66.9373,-152.354 77.4448,-150.996 74.3047,-144.74"/>
</g>
<!-- Node9 -->
<g id="node9" class="node"><title>Node9</title>
<g id="a_node9"><a xlink:href="../../df/d2e/cipassembly_8c.html#a5973ef42110a1bdf6c7699e35e04b7d4" target="_top" xlink:title="Constructor for the assembly object class. ">
<polygon fill="none" stroke="black" points="320,-38.5 320,-57.5 435,-57.5 435,-38.5 320,-38.5"/>
<text text-anchor="middle" x="377.5" y="-45.5" font-family="Helvetica,sans-Serif" font-size="10.00">CreateAssemblyClass</text>
</a>
</g>
</g>
<!-- Node1&#45;&gt;Node9 -->
<g id="edge10" class="edge"><title>Node1&#45;&gt;Node9</title>
<path fill="none" stroke="midnightblue" d="M64.7133,-144.241C80.1667,-127.971 105.269,-104.563 132,-92 192.112,-63.7486 268.381,-53.5646 319.615,-49.9341"/>
<polygon fill="midnightblue" stroke="midnightblue" points="61.7607,-142.28 57.5541,-152.004 66.9065,-147.026 61.7607,-142.28"/>
</g>
<!-- Node13 -->
<g id="node13" class="node"><title>Node13</title>
<g id="a_node13"><a xlink:href="../../d2/d3d/cipcommon_8c.html#a3dfa07bc40e59ba348d713272d1cbfdb" target="_top" xlink:title="CreateCipClass">
<polygon fill="none" stroke="black" points="164.5,-152.5 164.5,-171.5 250.5,-171.5 250.5,-152.5 164.5,-152.5"/>
<text text-anchor="middle" x="207.5" y="-159.5" font-family="Helvetica,sans-Serif" font-size="10.00">CreateCipClass</text>
</a>
</g>
</g>
<!-- Node1&#45;&gt;Node13 -->
<g id="edge15" class="edge"><title>Node1&#45;&gt;Node13</title>
<path fill="none" stroke="midnightblue" d="M106.388,-162C125.565,-162 146.57,-162 164.366,-162"/>
<polygon fill="midnightblue" stroke="midnightblue" points="106.255,-158.5 96.2552,-162 106.255,-165.5 106.255,-158.5"/>
</g>
<!-- Node17 -->
<g id="node17" class="node"><title>Node17</title>
<g id="a_node17"><a xlink:href="../../dd/d4d/cipethernetlink_8h.html#ab32c3ac78db693933538f44ed0b1fb42" target="_top" xlink:title="GetAttributeSingleEthernetLink">
<polygon fill="none" stroke="black" points="132,-266.5 132,-285.5 283,-285.5 283,-266.5 132,-266.5"/>
<text text-anchor="middle" x="207.5" y="-273.5" font-family="Helvetica,sans-Serif" font-size="10.00">GetAttributeSingleEthernetLink</text>
</a>
</g>
</g>
<!-- Node1&#45;&gt;Node17 -->
<g id="edge26" class="edge"><title>Node1&#45;&gt;Node17</title>
<path fill="none" stroke="midnightblue" d="M59.8879,-180.079C73.8623,-201.699 100.145,-237.417 132,-257 138.368,-260.915 145.515,-264.026 152.795,-266.498"/>
<polygon fill="midnightblue" stroke="midnightblue" points="62.7906,-178.119 54.5145,-171.505 56.8591,-181.837 62.7906,-178.119"/>
</g>
<!-- Node18 -->
<g id="node18" class="node"><title>Node18</title>
<g id="a_node18"><a xlink:href="../../dd/d34/cipqos_8c.html#aa40ff7ab77fbd2634d671fb0a64d7f76" target="_top" xlink:title="GetAttributeSingleQoS">
<polygon fill="none" stroke="black" points="149.5,-228.5 149.5,-247.5 265.5,-247.5 265.5,-228.5 149.5,-228.5"/>
<text text-anchor="middle" x="207.5" y="-235.5" font-family="Helvetica,sans-Serif" font-size="10.00">GetAttributeSingleQoS</text>
</a>
</g>
</g>
<!-- Node1&#45;&gt;Node18 -->
<g id="edge28" class="edge"><title>Node1&#45;&gt;Node18</title>
<path fill="none" stroke="midnightblue" d="M70.2037,-177.349C86.4979,-188.624 109.888,-203.707 132,-214 144.196,-219.677 158.101,-224.553 170.569,-228.398"/>
<polygon fill="midnightblue" stroke="midnightblue" points="72.1274,-174.423 61.9346,-171.532 68.0999,-180.149 72.1274,-174.423"/>
</g>
<!-- Node3 -->
<g id="node3" class="node"><title>Node3</title>
<g id="a_node3"><a xlink:href="../../d2/dc9/group__CIP__API.html#ga5d4979945d124e28668b264c3823db1c" target="_top" xlink:title="Initialize and setup the CIP&#45;stack. ">
<polygon fill="none" stroke="black" points="648.5,-152.5 648.5,-171.5 719.5,-171.5 719.5,-152.5 648.5,-152.5"/>
<text text-anchor="middle" x="684" y="-159.5" font-family="Helvetica,sans-Serif" font-size="10.00">CipStackInit</text>
</a>
</g>
</g>
<!-- Node2&#45;&gt;Node3 -->
<g id="edge2" class="edge"><title>Node2&#45;&gt;Node3</title>
<path fill="none" stroke="midnightblue" d="M426.26,-197.241C469.244,-194.394 534.061,-189.201 590,-181 609.403,-178.156 630.863,-173.85 648.274,-170.056"/>
<polygon fill="midnightblue" stroke="midnightblue" points="425.844,-193.76 416.09,-197.898 426.295,-200.746 425.844,-193.76"/>
</g>
<!-- Node4 -->
<g id="node4" class="node"><title>Node4</title>
<g id="a_node4"><a xlink:href="../../d5/dcb/MINGW_2main_8c.html#ad338a7dbc41dc40bcecd0479377ef207" target="_top" xlink:title="main">
<polygon fill="none" stroke="black" points="778,-152.5 778,-171.5 816,-171.5 816,-152.5 778,-152.5"/>
<text text-anchor="middle" x="797" y="-159.5" font-family="Helvetica,sans-Serif" font-size="10.00">main</text>
</a>
</g>
</g>
<!-- Node3&#45;&gt;Node4 -->
<g id="edge3" class="edge"><title>Node3&#45;&gt;Node4</title>
<path fill="none" stroke="midnightblue" d="M729.783,-162C746.658,-162 764.907,-162 777.965,-162"/>
<polygon fill="midnightblue" stroke="midnightblue" points="729.513,-158.5 719.513,-162 729.513,-165.5 729.513,-158.5"/>
</g>
<!-- Node5 -->
<g id="node5" class="node"><title>Node5</title>
<g id="a_node5"><a xlink:href="../../d8/d03/ports_2MINGW_2CMakeLists_8txt.html#a7e00df43a20d627a1732be7766d91097" target="_top" xlink:title="add_library">
<polygon fill="none" stroke="black" points="852,-152.5 852,-171.5 916,-171.5 916,-152.5 852,-152.5"/>
<text text-anchor="middle" x="884" y="-159.5" font-family="Helvetica,sans-Serif" font-size="10.00">add_library</text>
</a>
</g>
</g>
<!-- Node4&#45;&gt;Node5 -->
<g id="edge4" class="edge"><title>Node4&#45;&gt;Node5</title>
<path fill="none" stroke="midnightblue" d="M826.267,-162C834.504,-162 843.546,-162 851.945,-162"/>
<polygon fill="midnightblue" stroke="midnightblue" points="826.026,-158.5 816.026,-162 826.026,-165.5 826.026,-158.5"/>
</g>
<!-- Node6 -->
<g id="node6" class="node"><title>Node6</title>
<g id="a_node6"><a xlink:href="../../d8/dce/ports_2CMakeLists_8txt.html#a598fae457555a5fb26e18d4cd8f89de9" target="_top" xlink:title="add_subdirectory">
<polygon fill="none" stroke="black" points="952,-152.5 952,-171.5 1043,-171.5 1043,-152.5 952,-152.5"/>
<text text-anchor="middle" x="997.5" y="-159.5" font-family="Helvetica,sans-Serif" font-size="10.00">add_subdirectory</text>
</a>
</g>
</g>
<!-- Node5&#45;&gt;Node6 -->
<g id="edge5" class="edge"><title>Node5&#45;&gt;Node6</title>
<path fill="none" stroke="midnightblue" d="M926.3,-162C934.629,-162 943.419,-162 951.856,-162"/>
<polygon fill="midnightblue" stroke="midnightblue" points="926.059,-158.5 916.059,-162 926.059,-165.5 926.059,-158.5"/>
</g>
<!-- Node7&#45;&gt;Node3 -->
<g id="edge7" class="edge"><title>Node7&#45;&gt;Node3</title>
<path fill="none" stroke="midnightblue" d="M444.865,-128.048C486.652,-131.069 541.643,-135.911 590,-143 609.403,-145.844 630.863,-150.15 648.274,-153.944"/>
<polygon fill="midnightblue" stroke="midnightblue" points="445.031,-124.551 434.809,-127.337 444.538,-131.533 445.031,-124.551"/>
</g>
<!-- Node8&#45;&gt;Node3 -->
<g id="edge9" class="edge"><title>Node8&#45;&gt;Node3</title>
<path fill="none" stroke="midnightblue" d="M446.195,-96.1357C488.041,-103.135 542.621,-113.596 590,-127 614.734,-133.998 642.181,-144.706 660.803,-152.435"/>
<polygon fill="midnightblue" stroke="midnightblue" points="446.551,-92.6472 436.115,-94.4752 445.413,-99.5541 446.551,-92.6472"/>
</g>
<!-- Node10 -->
<g id="node10" class="node"><title>Node10</title>
<g id="a_node10"><a xlink:href="../../de/df4/cipassembly_8h.html#a4dfbc2c7a8e9e77f05a0a7236210f5b4" target="_top" xlink:title="Setup the Assembly object. ">
<polygon fill="none" stroke="black" points="475.5,-38.5 475.5,-57.5 586.5,-57.5 586.5,-38.5 475.5,-38.5"/>
<text text-anchor="middle" x="531" y="-45.5" font-family="Helvetica,sans-Serif" font-size="10.00">CipAssemblyInitialize</text>
</a>
</g>
</g>
<!-- Node9&#45;&gt;Node10 -->
<g id="edge11" class="edge"><title>Node9&#45;&gt;Node10</title>
<path fill="none" stroke="midnightblue" d="M445.606,-48C455.551,-48 465.698,-48 475.349,-48"/>
<polygon fill="midnightblue" stroke="midnightblue" points="445.344,-44.5001 435.344,-48 445.344,-51.5001 445.344,-44.5001"/>
</g>
<!-- Node11 -->
<g id="node11" class="node"><title>Node11</title>
<g id="a_node11"><a xlink:href="../../d2/dc9/group__CIP__API.html#gae61b613fed863d30428e78b2311bf593" target="_top" xlink:title="Create an instance of an assembly object. ">
<polygon fill="none" stroke="black" points="472,-0.5 472,-19.5 590,-19.5 590,-0.5 472,-0.5"/>
<text text-anchor="middle" x="531" y="-7.5" font-family="Helvetica,sans-Serif" font-size="10.00">CreateAssemblyObject</text>
</a>
</g>
</g>
<!-- Node9&#45;&gt;Node11 -->
<g id="edge13" class="edge"><title>Node9&#45;&gt;Node11</title>
<path fill="none" stroke="midnightblue" d="M426.502,-35.96C447.667,-30.6512 472.186,-24.5012 492.045,-19.5201"/>
<polygon fill="midnightblue" stroke="midnightblue" points="425.578,-32.5832 416.73,-38.411 427.281,-39.3729 425.578,-32.5832"/>
</g>
<!-- Node10&#45;&gt;Node3 -->
<g id="edge12" class="edge"><title>Node10&#45;&gt;Node3</title>
<path fill="none" stroke="midnightblue" d="M570.739,-61.631C577.388,-64.6361 584.062,-68.1039 590,-72 626.068,-95.6657 660.347,-134.458 675.232,-152.375"/>
<polygon fill="midnightblue" stroke="midnightblue" points="571.675,-58.2274 561.101,-57.5633 568.953,-64.6765 571.675,-58.2274"/>
</g>
<!-- Node12 -->
<g id="node12" class="node"><title>Node12</title>
<g id="a_node12"><a xlink:href="../../d5/dc5/group__CIP__CALLBACK__API.html#gae93106eb1647bff3ad56a7752799d878" target="_top" xlink:title="Callback for the application initialization. ">
<polygon fill="none" stroke="black" points="626,-0.5 626,-19.5 742,-19.5 742,-0.5 626,-0.5"/>
<text text-anchor="middle" x="684" y="-7.5" font-family="Helvetica,sans-Serif" font-size="10.00">ApplicationInitialization</text>
</a>
</g>
</g>
<!-- Node11&#45;&gt;Node12 -->
<g id="edge14" class="edge"><title>Node11&#45;&gt;Node12</title>
<path fill="none" stroke="midnightblue" d="M600.571,-10C608.995,-10 617.536,-10 625.769,-10"/>
<polygon fill="midnightblue" stroke="midnightblue" points="600.381,-6.5001 590.381,-10 600.381,-13.5001 600.381,-6.5001"/>
</g>
<!-- Node13&#45;&gt;Node2 -->
<g id="edge18" class="edge"><title>Node13&#45;&gt;Node2</title>
<path fill="none" stroke="midnightblue" d="M260.72,-173.812C286.064,-179.544 315.935,-186.301 338.987,-191.515"/>
<polygon fill="midnightblue" stroke="midnightblue" points="261.419,-170.381 250.893,-171.589 259.875,-177.209 261.419,-170.381"/>
</g>
<!-- Node13&#45;&gt;Node7 -->
<g id="edge19" class="edge"><title>Node13&#45;&gt;Node7</title>
<path fill="none" stroke="midnightblue" d="M260.776,-150.176C284.461,-144.818 312.09,-138.569 334.411,-133.52"/>
<polygon fill="midnightblue" stroke="midnightblue" points="259.875,-146.791 250.893,-152.411 261.419,-153.619 259.875,-146.791"/>
</g>
<!-- Node13&#45;&gt;Node8 -->
<g id="edge24" class="edge"><title>Node13&#45;&gt;Node8</title>
<path fill="none" stroke="midnightblue" d="M233.688,-147.561C255.74,-135.274 288.874,-117.655 319,-105 327.142,-101.58 336.132,-98.3584 344.536,-95.5736"/>
<polygon fill="midnightblue" stroke="midnightblue" points="231.958,-144.519 224.957,-152.471 235.389,-150.62 231.958,-144.519"/>
</g>
<!-- Node13&#45;&gt;Node9 -->
<g id="edge25" class="edge"><title>Node13&#45;&gt;Node9</title>
<path fill="none" stroke="midnightblue" d="M224.408,-144.676C244.576,-123.637 281.283,-88.3269 319,-67 325.589,-63.2741 333.02,-60.1411 340.299,-57.5622"/>
<polygon fill="midnightblue" stroke="midnightblue" points="221.597,-142.555 217.287,-152.233 226.692,-147.355 221.597,-142.555"/>
</g>
<!-- Node14 -->
<g id="node14" class="node"><title>Node14</title>
<g id="a_node14"><a xlink:href="../../dd/d4d/cipethernetlink_8h.html#ad6d2028b90ec96ad148d092a30acb7d6" target="_top" xlink:title="Initialize the Ethernet Link Objects data. ">
<polygon fill="none" stroke="black" points="327.5,-266.5 327.5,-285.5 427.5,-285.5 427.5,-266.5 327.5,-266.5"/>
<text text-anchor="middle" x="377.5" y="-273.5" font-family="Helvetica,sans-Serif" font-size="10.00">CipEthernetLinkInit</text>
</a>
</g>
</g>
<!-- Node13&#45;&gt;Node14 -->
<g id="edge16" class="edge"><title>Node13&#45;&gt;Node14</title>
<path fill="none" stroke="midnightblue" d="M230.769,-177.602C245.971,-188.593 266.303,-203.974 283,-219 300.293,-234.562 299.361,-244.529 319,-257 324.946,-260.776 331.719,-263.877 338.477,-266.398"/>
<polygon fill="midnightblue" stroke="midnightblue" points="232.647,-174.642 222.477,-171.673 228.576,-180.336 232.647,-174.642"/>
</g>
<!-- Node15 -->
<g id="node15" class="node"><title>Node15</title>
<g id="a_node15"><a xlink:href="../../d0/d3c/cipqos_8h.html#ab9a656060dcf03c3f51dbd967dff3f52" target="_top" xlink:title="CipQoSInit">
<polygon fill="none" stroke="black" points="345,-228.5 345,-247.5 410,-247.5 410,-228.5 345,-228.5"/>
<text text-anchor="middle" x="377.5" y="-235.5" font-family="Helvetica,sans-Serif" font-size="10.00">CipQoSInit</text>
</a>
</g>
</g>
<!-- Node13&#45;&gt;Node15 -->
<g id="edge20" class="edge"><title>Node13&#45;&gt;Node15</title>
<path fill="none" stroke="midnightblue" d="M233.688,-176.439C255.74,-188.726 288.874,-206.345 319,-219 327.239,-222.461 336.346,-225.718 344.836,-228.526"/>
<polygon fill="midnightblue" stroke="midnightblue" points="235.389,-173.38 224.957,-171.529 231.958,-179.481 235.389,-173.38"/>
</g>
<!-- Node16 -->
<g id="node16" class="node"><title>Node16</title>
<g id="a_node16"><a xlink:href="../../d1/dad/ciptcpipinterface_8h.html#a4c1f49654e48c5581513d990840933b0" target="_top" xlink:title="Initializing the data structures of the TCP/IP interface object. ">
<polygon fill="none" stroke="black" points="477,-152.5 477,-171.5 585,-171.5 585,-152.5 477,-152.5"/>
<text text-anchor="middle" x="531" y="-159.5" font-family="Helvetica,sans-Serif" font-size="10.00">CipTcpIpInterfaceInit</text>
</a>
</g>
</g>
<!-- Node13&#45;&gt;Node16 -->
<g id="edge22" class="edge"><title>Node13&#45;&gt;Node16</title>
<path fill="none" stroke="midnightblue" d="M260.826,-162C320.299,-162 416.861,-162 476.725,-162"/>
<polygon fill="midnightblue" stroke="midnightblue" points="260.531,-158.5 250.531,-162 260.53,-165.5 260.531,-158.5"/>
</g>
<!-- Node14&#45;&gt;Node3 -->
<g id="edge17" class="edge"><title>Node14&#45;&gt;Node3</title>
<path fill="none" stroke="midnightblue" d="M437.782,-268.469C481.288,-261.482 541.068,-248.783 590,-227 622.573,-212.5 655.576,-186.011 672.118,-171.734"/>
<polygon fill="midnightblue" stroke="midnightblue" points="436.992,-265.049 427.647,-270.041 438.065,-271.967 436.992,-265.049"/>
</g>
<!-- Node15&#45;&gt;Node3 -->
<g id="edge21" class="edge"><title>Node15&#45;&gt;Node3</title>
<path fill="none" stroke="midnightblue" d="M420.3,-233.491C463.425,-228.19 532.334,-217.903 590,-201 616.378,-193.268 645.38,-180.351 663.867,-171.517"/>
<polygon fill="midnightblue" stroke="midnightblue" points="419.694,-230.038 410.18,-234.701 420.525,-236.989 419.694,-230.038"/>
</g>
<!-- Node16&#45;&gt;Node3 -->
<g id="edge23" class="edge"><title>Node16&#45;&gt;Node3</title>
<path fill="none" stroke="midnightblue" d="M595.435,-162C613.494,-162 632.498,-162 648.169,-162"/>
<polygon fill="midnightblue" stroke="midnightblue" points="595.237,-158.5 585.237,-162 595.237,-165.5 595.237,-158.5"/>
</g>
<!-- Node17&#45;&gt;Node14 -->
<g id="edge27" class="edge"><title>Node17&#45;&gt;Node14</title>
<path fill="none" stroke="midnightblue" d="M293.33,-276C304.916,-276 316.481,-276 327.143,-276"/>
<polygon fill="midnightblue" stroke="midnightblue" points="293.166,-272.5 283.166,-276 293.166,-279.5 293.166,-272.5"/>
</g>
<!-- Node18&#45;&gt;Node15 -->
<g id="edge29" class="edge"><title>Node18&#45;&gt;Node15</title>
<path fill="none" stroke="midnightblue" d="M275.916,-238C299.732,-238 325.401,-238 344.847,-238"/>
<polygon fill="midnightblue" stroke="midnightblue" points="275.846,-234.5 265.846,-238 275.846,-241.5 275.846,-234.5"/>
</g>
</g>
</svg>
        <g id="navigator" transform="translate(0 0)" fill="#404254">
                <rect fill="#f2f5e9" fill-opacity="0.5" stroke="#606060" stroke-width=".5" x="0" y="0" width="60" height="60"/>
                <use id="zoomplus" xlink:href="#zoomPlus" x="17" y="9" onmousedown="handleZoom(evt,'in')"/>
                <use id="zoomminus" xlink:href="#zoomMin" x="42" y="9" onmousedown="handleZoom(evt,'out')"/>
                <use id="reset" xlink:href="#resetDef" x="30" y="36" onmousedown="handleReset()"/>
                <g id="arrowUp" xlink:href="#dirArrow" transform="translate(30 24)" onmousedown="handlePan(0,-1)">
                  <use xlink:href="#rim" fill="#404040">
                        <set attributeName="fill" to="#808080" begin="arrowUp.mouseover" end="arrowUp.mouseout"/>
                  </use>
                  <path fill="none" stroke="white" stroke-width="1.5" d="M0,-3.0v7 M-2.5,-0.5L0,-3.0L2.5,-0.5"/>
                </g>
                <g id="arrowRight" xlink:href="#dirArrow" transform="rotate(90) translate(36 -43)" onmousedown="handlePan(1,0)">
                  <use xlink:href="#rim" fill="#404040">
                        <set attributeName="fill" to="#808080" begin="arrowRight.mouseover" end="arrowRight.mouseout"/>
                  </use>
                  <path fill="none" stroke="white" stroke-width="1.5" d="M0,-3.0v7 M-2.5,-0.5L0,-3.0L2.5,-0.5"/>
                </g>
                <g id="arrowDown" xlink:href="#dirArrow" transform="rotate(180) translate(-30 -48)" onmousedown="handlePan(0,1)">
                  <use xlink:href="#rim" fill="#404040">
                        <set attributeName="fill" to="#808080" begin="arrowDown.mouseover" end="arrowDown.mouseout"/>
                  </use>
                  <path fill="none" stroke="white" stroke-width="1.5" d="M0,-3.0v7 M-2.5,-0.5L0,-3.0L2.5,-0.5"/>
                </g>
                <g id="arrowLeft" xlink:href="#dirArrow" transform="rotate(270) translate(-36 17)" onmousedown="handlePan(-1,0)">
                  <use xlink:href="#rim" fill="#404040">
                        <set attributeName="fill" to="#808080" begin="arrowLeft.mouseover" end="arrowLeft.mouseout"/>
                  </use>
                  <path fill="none" stroke="white" stroke-width="1.5" d="M0,-3.0v7 M-2.5,-0.5L0,-3.0L2.5,-0.5"/>
                </g>
        </g>
        <svg viewBox="0 0 15 15" width="100%" height="30px" preserveAspectRatio="xMaxYMin meet">
         <g id="arrow_out" transform="scale(0.3 0.3)">
          <a xlink:href="cipcommon_8c_a4d2d00f2e1252b192ef73aa388898e7d_icgraph_org.svg" target="_base">
           <rect id="button" ry="5" rx="5" y="6" x="6" height="38" width="38"
                fill="#f2f5e9" fill-opacity="0.5" stroke="#606060" stroke-width="1.0"/>
           <path id="arrow"
             d="M 11.500037,31.436501 C 11.940474,20.09759 22.043105,11.32322 32.158766,21.979434 L 37.068811,17.246167 C 37.068811,17.246167 37.088388,32 37.088388,32 L 22.160133,31.978069 C 22.160133,31.978069 26.997745,27.140456 26.997745,27.140456 C 18.528582,18.264221 13.291696,25.230495 11.500037,31.436501 z"
             style="fill:#404040;"/>
          </a>
         </g>
        </svg>
</svg>
