<?xml version="1.0" encoding="UTF-8" standalone="no"?>
<!DOCTYPE svg PUBLIC "-//W3C//DTD SVG 1.1//EN"
 "http://www.w3.org/Graphics/SVG/1.1/DTD/svg11.dtd">
<!-- Generated by graphviz version 2.38.0 (20140413.2041)
 -->
<!-- Title: src/cip/appcontype.h Pages: 1 -->
<!--zoomable 151 -->
<svg id="main" version="1.1" xmlns="http://www.w3.org/2000/svg" xmlns:xlink="http://www.w3.org/1999/xlink" xml:space="preserve" onload="init(evt)">
<style type="text/css"><![CDATA[
.edge:hover path { stroke: red; }
.edge:hover polygon { stroke: red; fill: red; }
]]></style>
<script type="text/javascript"><![CDATA[
var edges = document.getElementsByTagName('g');
if (edges && edges.length) {
  for (var i=0;i<edges.length;i++) {
    if (edges[i].id.substr(0,4)=='edge') {
      edges[i].setAttribute('class','edge');
    }
  }
}
]]></script>
        <defs>
                <circle id="rim" cx="0" cy="0" r="7"/>
                <circle id="rim2" cx="0" cy="0" r="3.5"/>
                <g id="zoomPlus">
                        <use xlink:href="#rim" fill="#404040">
                                <set attributeName="fill" to="#808080" begin="zoomplus.mouseover" end="zoomplus.mouseout"/>
                        </use>
                        <path d="M-4,0h8M0,-4v8" fill="none" stroke="white" stroke-width="1.5" pointer-events="none"/>
                </g>
                <g id="zoomMin">
                        <use xlink:href="#rim" fill="#404040">
                                <set attributeName="fill" to="#808080" begin="zoomminus.mouseover" end="zoomminus.mouseout"/>
                        </use>
                        <path d="M-4,0h8" fill="none" stroke="white" stroke-width="1.5" pointer-events="none"/>
                </g>
                <g id="dirArrow">
                        <path fill="none" stroke="white" stroke-width="1.5" d="M0,-3.0v7 M-2.5,-0.5L0,-3.0L2.5,-0.5"/>
                </g>
               <g id="resetDef">
                       <use xlink:href="#rim2" fill="#404040">
                               <set attributeName="fill" to="#808080" begin="reset.mouseover" end="reset.mouseout"/>
                       </use>
               </g>
        </defs>

<script type="text/javascript">
var viewWidth = 1429;
var viewHeight = 151;
var sectionId = 'dynsection-1';
</script>
<script xlink:href="../../svgpan.js"/>
<svg id="graph" class="graph">
<g id="viewport">
<title>src/cip/appcontype.h</title>
<!-- Node1 -->
<g id="node1" class="node"><title>Node1</title>
<polygon fill="#bfbfbf" stroke="black" points="396,-123.5 396,-142.5 503,-142.5 503,-123.5 396,-123.5"/>
<text text-anchor="middle" x="449.5" y="-130.5" font-family="Helvetica,sans-Serif" font-size="10.00">src/cip/appcontype.h</text>
</g>
<!-- Node2 -->
<g id="node2" class="node"><title>Node2</title>
<g id="a_node2"><a xlink:href="../../d1/dbc/appcontype_8c.html" target="_top" xlink:title="src/cip/appcontype.c">
<polygon fill="none" stroke="black" points="151,-62 151,-81 258,-81 258,-62 151,-62"/>
<text text-anchor="middle" x="204.5" y="-69" font-family="Helvetica,sans-Serif" font-size="10.00">src/cip/appcontype.c</text>
</a>
</g>
</g>
<!-- Node1&#45;&gt;Node2 -->
<g id="edge1" class="edge"><title>Node1&#45;&gt;Node2</title>
<path fill="none" stroke="midnightblue" d="M404.674,-121.114C357.122,-109.565 282.988,-91.5615 239.537,-81.0091"/>
<polygon fill="midnightblue" stroke="midnightblue" points="403.854,-124.516 414.397,-123.475 405.506,-117.714 403.854,-124.516"/>
</g>
<!-- Node3 -->
<g id="node3" class="node"><title>Node3</title>
<g id="a_node3"><a xlink:href="../../d2/d3d/cipcommon_8c.html" target="_top" xlink:title="src/cip/cipcommon.c">
<polygon fill="none" stroke="black" points="276,-62 276,-81 383,-81 383,-62 276,-62"/>
<text text-anchor="middle" x="329.5" y="-69" font-family="Helvetica,sans-Serif" font-size="10.00">src/cip/cipcommon.c</text>
</a>
</g>
</g>
<!-- Node1&#45;&gt;Node3 -->
<g id="edge2" class="edge"><title>Node1&#45;&gt;Node3</title>
<path fill="none" stroke="midnightblue" d="M423.323,-119.021C400.051,-107.482 366.697,-90.9433 346.661,-81.0091"/>
<polygon fill="midnightblue" stroke="midnightblue" points="421.793,-122.169 432.307,-123.475 424.903,-115.897 421.793,-122.169"/>
</g>
<!-- Node4 -->
<g id="node4" class="node"><title>Node4</title>
<g id="a_node4"><a xlink:href="../../d5/d35/cipconnectionmanager_8c.html" target="_top" xlink:title="src/cip/cipconnectionmanager.c">
<polygon fill="none" stroke="black" points="0,-0.5 0,-19.5 155,-19.5 155,-0.5 0,-0.5"/>
<text text-anchor="middle" x="77.5" y="-7.5" font-family="Helvetica,sans-Serif" font-size="10.00">src/cip/cipconnectionmanager.c</text>
</a>
</g>
</g>
<!-- Node1&#45;&gt;Node4 -->
<g id="edge3" class="edge"><title>Node1&#45;&gt;Node4</title>
<path fill="none" stroke="midnightblue" d="M441.032,-114.04C431.599,-96.1795 414.584,-69.5447 391.5,-56 381.021,-49.8511 235.733,-30.7904 146.506,-19.5449"/>
<polygon fill="midnightblue" stroke="midnightblue" points="437.985,-115.773 445.591,-123.149 444.245,-112.64 437.985,-115.773"/>
</g>
<!-- Node5 -->
<g id="node5" class="node"><title>Node5</title>
<g id="a_node5"><a xlink:href="../../df/d03/cipioconnection_8c.html" target="_top" xlink:title="src/cip/cipioconnection.c">
<polygon fill="none" stroke="black" points="173,-0.5 173,-19.5 298,-19.5 298,-0.5 173,-0.5"/>
<text text-anchor="middle" x="235.5" y="-7.5" font-family="Helvetica,sans-Serif" font-size="10.00">src/cip/cipioconnection.c</text>
</a>
</g>
</g>
<!-- Node1&#45;&gt;Node5 -->
<g id="edge4" class="edge"><title>Node1&#45;&gt;Node5</title>
<path fill="none" stroke="midnightblue" d="M448.637,-113.222C446.813,-95.919 441.381,-70.7574 425.5,-56 407.062,-38.8666 346.082,-26.4685 298.119,-19.0773"/>
<polygon fill="midnightblue" stroke="midnightblue" points="445.152,-113.558 449.388,-123.269 452.133,-113.035 445.152,-113.558"/>
</g>
<!-- Node6 -->
<g id="node6" class="node"><title>Node6</title>
<g id="a_node6"><a xlink:href="../../da/dc2/generic__networkhandler_8h.html" target="_top" xlink:title="src/ports/generic_networkhandler.h">
<polygon fill="none" stroke="black" points="477,-62 477,-81 646,-81 646,-62 477,-62"/>
<text text-anchor="middle" x="561.5" y="-69" font-family="Helvetica,sans-Serif" font-size="10.00">src/ports/generic_networkhandler.h</text>
</a>
</g>
</g>
<!-- Node1&#45;&gt;Node6 -->
<g id="edge5" class="edge"><title>Node1&#45;&gt;Node6</title>
<path fill="none" stroke="midnightblue" d="M474.513,-118.712C496.205,-107.188 526.949,-90.855 545.483,-81.0091"/>
<polygon fill="midnightblue" stroke="midnightblue" points="472.736,-115.693 465.547,-123.475 476.02,-121.874 472.736,-115.693"/>
</g>
<!-- Node14 -->
<g id="node14" class="node"><title>Node14</title>
<g id="a_node14"><a xlink:href="../../d5/daa/MINGW_2sample__application_2sampleapplication_8c.html" target="_top" xlink:title="src/ports/MINGW/sample\l_application/sampleapplication.c">
<polygon fill="none" stroke="black" points="663.5,-56.5 663.5,-86.5 821.5,-86.5 821.5,-56.5 663.5,-56.5"/>
<text text-anchor="start" x="671.5" y="-74.5" font-family="Helvetica,sans-Serif" font-size="10.00">src/ports/MINGW/sample</text>
<text text-anchor="middle" x="742.5" y="-63.5" font-family="Helvetica,sans-Serif" font-size="10.00">_application/sampleapplication.c</text>
</a>
</g>
</g>
<!-- Node1&#45;&gt;Node14 -->
<g id="edge15" class="edge"><title>Node1&#45;&gt;Node14</title>
<path fill="none" stroke="midnightblue" d="M501.326,-121.476C549.218,-111.75 620.723,-97.2295 673.446,-86.523"/>
<polygon fill="midnightblue" stroke="midnightblue" points="500.583,-118.055 491.48,-123.475 501.976,-124.915 500.583,-118.055"/>
</g>
<!-- Node15 -->
<g id="node15" class="node"><title>Node15</title>
<g id="a_node15"><a xlink:href="../../d2/daa/POSIX_2sample__application_2sampleapplication_8c.html" target="_top" xlink:title="src/ports/POSIX/sample\l_application/sampleapplication.c">
<polygon fill="none" stroke="black" points="839.5,-56.5 839.5,-86.5 997.5,-86.5 997.5,-56.5 839.5,-56.5"/>
<text text-anchor="start" x="847.5" y="-74.5" font-family="Helvetica,sans-Serif" font-size="10.00">src/ports/POSIX/sample</text>
<text text-anchor="middle" x="918.5" y="-63.5" font-family="Helvetica,sans-Serif" font-size="10.00">_application/sampleapplication.c</text>
</a>
</g>
</g>
<!-- Node1&#45;&gt;Node15 -->
<g id="edge16" class="edge"><title>Node1&#45;&gt;Node15</title>
<path fill="none" stroke="midnightblue" d="M513.561,-125.338C589.364,-117.247 719.327,-102.716 830.5,-87 833.413,-86.5882 836.378,-86.1577 839.372,-85.7134"/>
<polygon fill="midnightblue" stroke="midnightblue" points="512.806,-121.899 503.232,-126.437 513.546,-128.86 512.806,-121.899"/>
</g>
<!-- Node6&#45;&gt;Node4 -->
<g id="edge6" class="edge"><title>Node6&#45;&gt;Node4</title>
<path fill="none" stroke="midnightblue" d="M482.199,-60.7512C388.878,-49.2789 235.428,-30.4147 146.717,-19.5091"/>
<polygon fill="midnightblue" stroke="midnightblue" points="481.802,-64.2287 492.155,-61.9751 482.656,-57.281 481.802,-64.2287"/>
</g>
<!-- Node6&#45;&gt;Node5 -->
<g id="edge7" class="edge"><title>Node6&#45;&gt;Node5</title>
<path fill="none" stroke="midnightblue" d="M504.611,-60.1169C441.478,-48.5942 340.784,-30.216 282.121,-19.5091"/>
<polygon fill="midnightblue" stroke="midnightblue" points="504.326,-63.6227 514.792,-61.9751 505.583,-56.7364 504.326,-63.6227"/>
</g>
<!-- Node7 -->
<g id="node7" class="node"><title>Node7</title>
<g id="a_node7"><a xlink:href="../../d2/dbd/encap_8c.html" target="_top" xlink:title="src/enet_encap/encap.c">
<polygon fill="none" stroke="black" points="501,-0.5 501,-19.5 622,-19.5 622,-0.5 501,-0.5"/>
<text text-anchor="middle" x="561.5" y="-7.5" font-family="Helvetica,sans-Serif" font-size="10.00">src/enet_encap/encap.c</text>
</a>
</g>
</g>
<!-- Node6&#45;&gt;Node7 -->
<g id="edge8" class="edge"><title>Node6&#45;&gt;Node7</title>
<path fill="none" stroke="midnightblue" d="M561.5,-51.8165C561.5,-40.9962 561.5,-27.898 561.5,-19.5091"/>
<polygon fill="midnightblue" stroke="midnightblue" points="558,-51.9751 561.5,-61.9751 565,-51.9751 558,-51.9751"/>
</g>
<!-- Node8 -->
<g id="node8" class="node"><title>Node8</title>
<g id="a_node8"><a xlink:href="../../db/d4f/generic__networkhandler_8c.html" target="_top" xlink:title="This file includes all platform&#45;independent functions of the network handler to reduce code duplicati...">
<polygon fill="none" stroke="black" points="640,-0.5 640,-19.5 809,-19.5 809,-0.5 640,-0.5"/>
<text text-anchor="middle" x="724.5" y="-7.5" font-family="Helvetica,sans-Serif" font-size="10.00">src/ports/generic_networkhandler.c</text>
</a>
</g>
</g>
<!-- Node6&#45;&gt;Node8 -->
<g id="edge9" class="edge"><title>Node6&#45;&gt;Node8</title>
<path fill="none" stroke="midnightblue" d="M594.558,-58.4329C626.239,-46.8683 673.249,-29.7083 701.189,-19.5091"/>
<polygon fill="midnightblue" stroke="midnightblue" points="593.047,-55.2582 584.854,-61.9751 595.448,-61.8338 593.047,-55.2582"/>
</g>
<!-- Node9 -->
<g id="node9" class="node"><title>Node9</title>
<g id="a_node9"><a xlink:href="../../d5/dcb/MINGW_2main_8c.html" target="_top" xlink:title="src/ports/MINGW/main.c">
<polygon fill="none" stroke="black" points="827.5,-0.5 827.5,-19.5 953.5,-19.5 953.5,-0.5 827.5,-0.5"/>
<text text-anchor="middle" x="890.5" y="-7.5" font-family="Helvetica,sans-Serif" font-size="10.00">src/ports/MINGW/main.c</text>
</a>
</g>
</g>
<!-- Node6&#45;&gt;Node9 -->
<g id="edge10" class="edge"><title>Node6&#45;&gt;Node9</title>
<path fill="none" stroke="midnightblue" d="M618.519,-60.1881C682.207,-48.67 784.125,-30.2381 843.45,-19.5091"/>
<polygon fill="midnightblue" stroke="midnightblue" points="617.855,-56.7512 608.638,-61.9751 619.101,-63.6395 617.855,-56.7512"/>
</g>
<!-- Node10 -->
<g id="node10" class="node"><title>Node10</title>
<g id="a_node10"><a xlink:href="../../d3/de3/MINGW_2networkhandler_8c.html" target="_top" xlink:title="src/ports/MINGW/networkhandler.c">
<polygon fill="none" stroke="black" points="972,-0.5 972,-19.5 1143,-19.5 1143,-0.5 972,-0.5"/>
<text text-anchor="middle" x="1057.5" y="-7.5" font-family="Helvetica,sans-Serif" font-size="10.00">src/ports/MINGW/networkhandler.c</text>
</a>
</g>
</g>
<!-- Node6&#45;&gt;Node10 -->
<g id="edge11" class="edge"><title>Node6&#45;&gt;Node10</title>
<path fill="none" stroke="midnightblue" d="M623.727,-60.4151C633.997,-58.8609 644.539,-57.332 654.5,-56 763.704,-41.3968 889.999,-27.8308 971.677,-19.4914"/>
<polygon fill="midnightblue" stroke="midnightblue" points="622.934,-56.9958 613.58,-61.9715 623.995,-63.9148 622.934,-56.9958"/>
</g>
<!-- Node11 -->
<g id="node11" class="node"><title>Node11</title>
<g id="a_node11"><a xlink:href="../../d9/dfb/POSIX_2main_8c.html" target="_top" xlink:title="src/ports/POSIX/main.c">
<polygon fill="none" stroke="black" points="1161,-0.5 1161,-19.5 1282,-19.5 1282,-0.5 1161,-0.5"/>
<text text-anchor="middle" x="1221.5" y="-7.5" font-family="Helvetica,sans-Serif" font-size="10.00">src/ports/POSIX/main.c</text>
</a>
</g>
</g>
<!-- Node6&#45;&gt;Node11 -->
<g id="edge12" class="edge"><title>Node6&#45;&gt;Node11</title>
<path fill="none" stroke="midnightblue" d="M621.131,-60.4567C632.202,-58.8043 643.685,-57.2318 654.5,-56 874.985,-30.8856 931.719,-42.3601 1152.5,-20 1155.26,-19.72 1158.09,-19.4177 1160.94,-19.0993"/>
<polygon fill="midnightblue" stroke="midnightblue" points="620.466,-57.0177 611.11,-61.9893 621.524,-63.9372 620.466,-57.0177"/>
</g>
<!-- Node12 -->
<g id="node12" class="node"><title>Node12</title>
<g id="a_node12"><a xlink:href="../../dc/db2/WIN32_2main_8c.html" target="_top" xlink:title="src/ports/WIN32/main.c">
<polygon fill="none" stroke="black" points="1300,-0.5 1300,-19.5 1421,-19.5 1421,-0.5 1300,-0.5"/>
<text text-anchor="middle" x="1360.5" y="-7.5" font-family="Helvetica,sans-Serif" font-size="10.00">src/ports/WIN32/main.c</text>
</a>
</g>
</g>
<!-- Node6&#45;&gt;Node12 -->
<g id="edge13" class="edge"><title>Node6&#45;&gt;Node12</title>
<path fill="none" stroke="midnightblue" d="M620.353,-60.4304C631.66,-58.7492 643.427,-57.1732 654.5,-56 936.484,-26.1222 1009.16,-46.3556 1291.5,-20 1294.27,-19.7417 1297.09,-19.4573 1299.95,-19.1533"/>
<polygon fill="midnightblue" stroke="midnightblue" points="619.486,-57.0222 610.131,-61.9954 620.545,-63.9416 619.486,-57.0222"/>
</g>
<!-- Node13 -->
<g id="node13" class="node"><title>Node13</title>
<g id="a_node13"><a xlink:href="../../d8/d6c/WIN32_2networkhandler_8c.html" target="_top" xlink:title="src/ports/WIN32/networkhandler.c">
<polygon fill="none" stroke="black" points="316.5,-0.5 316.5,-19.5 482.5,-19.5 482.5,-0.5 316.5,-0.5"/>
<text text-anchor="middle" x="399.5" y="-7.5" font-family="Helvetica,sans-Serif" font-size="10.00">src/ports/WIN32/networkhandler.c</text>
</a>
</g>
</g>
<!-- Node6&#45;&gt;Node13 -->
<g id="edge14" class="edge"><title>Node6&#45;&gt;Node13</title>
<path fill="none" stroke="midnightblue" d="M528.645,-58.4329C497.158,-46.8683 450.437,-29.7083 422.668,-19.5091"/>
<polygon fill="midnightblue" stroke="midnightblue" points="527.696,-61.8128 538.289,-61.9751 530.109,-55.242 527.696,-61.8128"/>
</g>
</g>
</svg>
        <g id="navigator" transform="translate(0 0)" fill="#404254">
                <rect fill="#f2f5e9" fill-opacity="0.5" stroke="#606060" stroke-width=".5" x="0" y="0" width="60" height="60"/>
                <use id="zoomplus" xlink:href="#zoomPlus" x="17" y="9" onmousedown="handleZoom(evt,'in')"/>
                <use id="zoomminus" xlink:href="#zoomMin" x="42" y="9" onmousedown="handleZoom(evt,'out')"/>
                <use id="reset" xlink:href="#resetDef" x="30" y="36" onmousedown="handleReset()"/>
                <g id="arrowUp" xlink:href="#dirArrow" transform="translate(30 24)" onmousedown="handlePan(0,-1)">
                  <use xlink:href="#rim" fill="#404040">
                        <set attributeName="fill" to="#808080" begin="arrowUp.mouseover" end="arrowUp.mouseout"/>
                  </use>
                  <path fill="none" stroke="white" stroke-width="1.5" d="M0,-3.0v7 M-2.5,-0.5L0,-3.0L2.5,-0.5"/>
                </g>
                <g id="arrowRight" xlink:href="#dirArrow" transform="rotate(90) translate(36 -43)" onmousedown="handlePan(1,0)">
                  <use xlink:href="#rim" fill="#404040">
                        <set attributeName="fill" to="#808080" begin="arrowRight.mouseover" end="arrowRight.mouseout"/>
                  </use>
                  <path fill="none" stroke="white" stroke-width="1.5" d="M0,-3.0v7 M-2.5,-0.5L0,-3.0L2.5,-0.5"/>
                </g>
                <g id="arrowDown" xlink:href="#dirArrow" transform="rotate(180) translate(-30 -48)" onmousedown="handlePan(0,1)">
                  <use xlink:href="#rim" fill="#404040">
                        <set attributeName="fill" to="#808080" begin="arrowDown.mouseover" end="arrowDown.mouseout"/>
                  </use>
                  <path fill="none" stroke="white" stroke-width="1.5" d="M0,-3.0v7 M-2.5,-0.5L0,-3.0L2.5,-0.5"/>
                </g>
                <g id="arrowLeft" xlink:href="#dirArrow" transform="rotate(270) translate(-36 17)" onmousedown="handlePan(-1,0)">
                  <use xlink:href="#rim" fill="#404040">
                        <set attributeName="fill" to="#808080" begin="arrowLeft.mouseover" end="arrowLeft.mouseout"/>
                  </use>
                  <path fill="none" stroke="white" stroke-width="1.5" d="M0,-3.0v7 M-2.5,-0.5L0,-3.0L2.5,-0.5"/>
                </g>
        </g>
        <svg viewBox="0 0 15 15" width="100%" height="30px" preserveAspectRatio="xMaxYMin meet">
         <g id="arrow_out" transform="scale(0.3 0.3)">
          <a xlink:href="appcontype_8h__dep__incl_org.svg" target="_base">
           <rect id="button" ry="5" rx="5" y="6" x="6" height="38" width="38"
                fill="#f2f5e9" fill-opacity="0.5" stroke="#606060" stroke-width="1.0"/>
           <path id="arrow"
             d="M 11.500037,31.436501 C 11.940474,20.09759 22.043105,11.32322 32.158766,21.979434 L 37.068811,17.246167 C 37.068811,17.246167 37.088388,32 37.088388,32 L 22.160133,31.978069 C 22.160133,31.978069 26.997745,27.140456 26.997745,27.140456 C 18.528582,18.264221 13.291696,25.230495 11.500037,31.436501 z"
             style="fill:#404040;"/>
          </a>
         </g>
        </svg>
</svg>
