<?xml version="1.0" encoding="UTF-8" standalone="no"?>
<!DOCTYPE svg PUBLIC "-//W3C//DTD SVG 1.1//EN"
 "http://www.w3.org/Graphics/SVG/1.1/DTD/svg11.dtd">
<!-- Generated by graphviz version 2.36.0 (20140111.2315)
 -->
<!-- Title: CloseSocketPlatform Pages: 1 -->
<svg width="1700pt" height="604pt"
 viewBox="0.00 0.00 1700.00 603.62" xmlns="http://www.w3.org/2000/svg" xmlns:xlink="http://www.w3.org/1999/xlink">
<g id="graph0" class="graph" transform="scale(1 1) rotate(0) translate(4 599.622)">
<title>CloseSocketPlatform</title>
<!-- Node1 -->
<g id="node1" class="node"><title>Node1</title>
<polygon fill="#bfbfbf" stroke="black" points="0,-135.122 0,-154.122 110,-154.122 110,-135.122 0,-135.122"/>
<text text-anchor="middle" x="55" y="-142.122" font-family="Helvetica,sans-Serif" font-size="10.00">CloseSocketPlatform</text>
</g>
<!-- Node2 -->
<g id="node2" class="node"><title>Node2</title>
<g id="a_node2"><a xlink:href="../../d5/dc5/group__CIP__CALLBACK__API.html#gae04e2a3e9937e910cbcdbff0b8d6ad2b" target="_top" xlink:title="Close the given socket and clean up the stack. ">
<polygon fill="none" stroke="black" points="146.5,-135.122 146.5,-154.122 219.5,-154.122 219.5,-135.122 146.5,-135.122"/>
<text text-anchor="middle" x="183" y="-142.122" font-family="Helvetica,sans-Serif" font-size="10.00">CloseSocket</text>
</a>
</g>
</g>
<!-- Node1&#45;&gt;Node2 -->
<g id="edge1" class="edge"><title>Node1&#45;&gt;Node2</title>
<path fill="none" stroke="midnightblue" d="M120.297,-144.622C129.292,-144.622 138.251,-144.622 146.441,-144.622"/>
<polygon fill="midnightblue" stroke="midnightblue" points="120.167,-141.122 110.167,-144.622 120.167,-148.122 120.167,-141.122"/>
</g>
<!-- Node3 -->
<g id="node3" class="node"><title>Node3</title>
<g id="a_node3"><a xlink:href="../../da/dc2/generic__networkhandler_8h.html#aab6e6c554aa10d27efe297ebef3ac1c9" target="_top" xlink:title="CloseUdpSocket">
<polygon fill="none" stroke="black" points="258.5,-318.122 258.5,-337.122 349.5,-337.122 349.5,-318.122 258.5,-318.122"/>
<text text-anchor="middle" x="304" y="-325.122" font-family="Helvetica,sans-Serif" font-size="10.00">CloseUdpSocket</text>
</a>
</g>
</g>
<!-- Node2&#45;&gt;Node3 -->
<g id="edge2" class="edge"><title>Node2&#45;&gt;Node3</title>
<path fill="none" stroke="midnightblue" d="M195.802,-162.77C220.592,-200.894 277.373,-288.213 296.543,-317.692"/>
<polygon fill="midnightblue" stroke="midnightblue" points="198.616,-160.678 190.23,-154.203 192.748,-164.494 198.616,-160.678"/>
</g>
<!-- Node14 -->
<g id="node14" class="node"><title>Node14</title>
<g id="a_node14"><a xlink:href="../../da/dc2/generic__networkhandler_8h.html#a1bfa5ef8e4802716459a56567ee16592" target="_top" xlink:title="CloseTcpSocket">
<polygon fill="none" stroke="black" points="259.5,-198.122 259.5,-217.122 348.5,-217.122 348.5,-198.122 259.5,-198.122"/>
<text text-anchor="middle" x="304" y="-205.122" font-family="Helvetica,sans-Serif" font-size="10.00">CloseTcpSocket</text>
</a>
</g>
</g>
<!-- Node2&#45;&gt;Node14 -->
<g id="edge15" class="edge"><title>Node2&#45;&gt;Node14</title>
<path fill="none" stroke="midnightblue" d="M211.127,-158.983C233.667,-170.916 265.117,-187.566 284.756,-197.963"/>
<polygon fill="midnightblue" stroke="midnightblue" points="212.549,-155.776 202.074,-154.19 209.274,-161.962 212.549,-155.776"/>
</g>
<!-- Node28 -->
<g id="node28" class="node"><title>Node28</title>
<g id="a_node28"><a xlink:href="../../da/dc2/generic__networkhandler_8h.html#aace33c0e7aa348969492ede822183bd5" target="_top" xlink:title="NetworkHandlerFinish">
<polygon fill="none" stroke="black" points="1195.5,-113.122 1195.5,-132.122 1308.5,-132.122 1308.5,-113.122 1195.5,-113.122"/>
<text text-anchor="middle" x="1252" y="-120.122" font-family="Helvetica,sans-Serif" font-size="10.00">NetworkHandlerFinish</text>
</a>
</g>
</g>
<!-- Node2&#45;&gt;Node28 -->
<g id="edge35" class="edge"><title>Node2&#45;&gt;Node28</title>
<path fill="none" stroke="midnightblue" d="M220.589,-131.779C276.432,-113.356 386.614,-81.6217 483,-81.6217 483,-81.6217 483,-81.6217 902,-81.6217 1009.37,-81.6217 1134.06,-101.001 1201.51,-113.112"/>
<polygon fill="midnightblue" stroke="midnightblue" points="219.181,-128.559 210.81,-135.053 221.403,-135.197 219.181,-128.559"/>
</g>
<!-- Node29 -->
<g id="node29" class="node"><title>Node29</title>
<g id="a_node29"><a xlink:href="../../d5/dc5/group__CIP__CALLBACK__API.html#ga5807bcc51621775c9aedbf58d3a7a6d3" target="_top" xlink:title="create a new UDP socket for the connection manager ">
<polygon fill="none" stroke="black" points="256.5,-467.122 256.5,-486.122 351.5,-486.122 351.5,-467.122 256.5,-467.122"/>
<text text-anchor="middle" x="304" y="-474.122" font-family="Helvetica,sans-Serif" font-size="10.00">CreateUdpSocket</text>
</a>
</g>
</g>
<!-- Node2&#45;&gt;Node29 -->
<g id="edge37" class="edge"><title>Node2&#45;&gt;Node29</title>
<path fill="none" stroke="midnightblue" d="M190.877,-164.008C203.655,-200.008 231.946,-279.617 256,-346.622 272.136,-391.571 291.586,-445.193 299.447,-466.842"/>
<polygon fill="midnightblue" stroke="midnightblue" points="194.074,-162.552 187.432,-154.298 187.478,-164.893 194.074,-162.552"/>
</g>
<!-- Node35 -->
<g id="node35" class="node"><title>Node35</title>
<g id="a_node35"><a xlink:href="../../d2/dc9/group__CIP__API.html#ga43e376ac7f7d2a70c0353a5c09c58d37" target="_top" xlink:title="Configure the MAC address of the device. ">
<polygon fill="none" stroke="black" points="1028.5,-34.1217 1028.5,-53.1217 1141.5,-53.1217 1141.5,-34.1217 1028.5,-34.1217"/>
<text text-anchor="middle" x="1085" y="-41.1217" font-family="Helvetica,sans-Serif" font-size="10.00">ConfigureMacAddress</text>
</a>
</g>
</g>
<!-- Node2&#45;&gt;Node35 -->
<g id="edge47" class="edge"><title>Node2&#45;&gt;Node35</title>
<path fill="none" stroke="midnightblue" d="M195.306,-126.379C207.733,-108.096 229.495,-80.8245 256,-67.6217 346.809,-22.3883 381.549,-43.6217 483,-43.6217 483,-43.6217 483,-43.6217 704,-43.6217 819.286,-43.6217 954.247,-43.6217 1028.3,-43.6217"/>
<polygon fill="midnightblue" stroke="midnightblue" points="192.215,-124.711 189.683,-134.998 198.078,-128.535 192.215,-124.711"/>
</g>
<!-- Node36 -->
<g id="node36" class="node"><title>Node36</title>
<g id="a_node36"><a xlink:href="../../d2/dc9/group__CIP__API.html#ga4f6649918af497340d565d062df30273" target="_top" xlink:title="Configure the data of the network interface of the device. ">
<polygon fill="none" stroke="black" points="1346,-7.12168 1346,-26.1217 1480,-26.1217 1480,-7.12168 1346,-7.12168"/>
<text text-anchor="middle" x="1413" y="-14.1217" font-family="Helvetica,sans-Serif" font-size="10.00">ConfigureNetworkInterface</text>
</a>
</g>
</g>
<!-- Node2&#45;&gt;Node36 -->
<g id="edge49" class="edge"><title>Node2&#45;&gt;Node36</title>
<path fill="none" stroke="midnightblue" d="M190.808,-125.491C200.852,-100.314 222.189,-56.7829 256,-35.6217 342.264,18.3677 381.234,-5.62168 483,-5.62168 483,-5.62168 483,-5.62168 1086,-5.62168 1176.04,-5.62168 1279.99,-9.86501 1345.84,-13.0807"/>
<polygon fill="midnightblue" stroke="midnightblue" points="187.461,-124.447 187.191,-135.039 194.007,-126.927 187.461,-124.447"/>
</g>
<!-- Node4 -->
<g id="node4" class="node"><title>Node4</title>
<g id="a_node4"><a xlink:href="../../de/d45/cipioconnection_8h.html#a62fc61ed294b1d1543960582f0071b22" target="_top" xlink:title="close the communication channels of the given connection and remove it from the active connections li...">
<polygon fill="none" stroke="black" points="388.5,-312.622 388.5,-342.622 579.5,-342.622 579.5,-312.622 388.5,-312.622"/>
<text text-anchor="start" x="396.5" y="-330.622" font-family="Helvetica,sans-Serif" font-size="10.00">CloseCommunicationChannels</text>
<text text-anchor="middle" x="484" y="-319.622" font-family="Helvetica,sans-Serif" font-size="10.00">AndRemoveFromActiveConnectionsList</text>
</a>
</g>
</g>
<!-- Node3&#45;&gt;Node4 -->
<g id="edge3" class="edge"><title>Node3&#45;&gt;Node4</title>
<path fill="none" stroke="midnightblue" d="M359.92,-327.622C369.013,-327.622 378.664,-327.622 388.405,-327.622"/>
<polygon fill="midnightblue" stroke="midnightblue" points="359.917,-324.122 349.917,-327.622 359.917,-331.122 359.917,-324.122"/>
</g>
<!-- Node11 -->
<g id="node11" class="node"><title>Node11</title>
<g id="a_node11"><a xlink:href="../../d2/da3/cipconnectionmanager_8h.html#a9367d6d6edfd5bd276ead18619f4d74e" target="_top" xlink:title="Close the given connection. ">
<polygon fill="none" stroke="black" points="438,-400.122 438,-419.122 530,-419.122 530,-400.122 438,-400.122"/>
<text text-anchor="middle" x="484" y="-407.122" font-family="Helvetica,sans-Serif" font-size="10.00">CloseConnection</text>
</a>
</g>
</g>
<!-- Node3&#45;&gt;Node11 -->
<g id="edge10" class="edge"><title>Node3&#45;&gt;Node11</title>
<path fill="none" stroke="midnightblue" d="M322.154,-344.409C337.956,-358.894 362.718,-379.231 388,-390.622 403.488,-397.6 421.543,-402.03 437.727,-404.835"/>
<polygon fill="midnightblue" stroke="midnightblue" points="324.434,-341.748 314.752,-337.445 319.638,-346.847 324.434,-341.748"/>
</g>
<!-- Node5 -->
<g id="node5" class="node"><title>Node5</title>
<g id="a_node5"><a xlink:href="../../df/d03/cipioconnection_8c.html#a730b410a0cdbc6a456973c0e51568968" target="_top" xlink:title="CloseIoConnection">
<polygon fill="none" stroke="black" points="851,-316.122 851,-335.122 951,-335.122 951,-316.122 851,-316.122"/>
<text text-anchor="middle" x="901" y="-323.122" font-family="Helvetica,sans-Serif" font-size="10.00">CloseIoConnection</text>
</a>
</g>
</g>
<!-- Node4&#45;&gt;Node5 -->
<g id="edge4" class="edge"><title>Node4&#45;&gt;Node5</title>
<path fill="none" stroke="midnightblue" d="M589.744,-327.117C673.449,-326.713 786.996,-326.166 850.946,-325.858"/>
<polygon fill="midnightblue" stroke="midnightblue" points="589.672,-323.617 579.689,-327.165 589.706,-330.617 589.672,-323.617"/>
</g>
<!-- Node6 -->
<g id="node6" class="node"><title>Node6</title>
<g id="a_node6"><a xlink:href="../../df/d03/cipioconnection_8c.html#ab3282f146a3ea91c90cf14c32206ee8c" target="_top" xlink:title="SetIoConnectionCallbacks">
<polygon fill="none" stroke="black" points="1018.5,-301.122 1018.5,-320.122 1151.5,-320.122 1151.5,-301.122 1018.5,-301.122"/>
<text text-anchor="middle" x="1085" y="-308.122" font-family="Helvetica,sans-Serif" font-size="10.00">SetIoConnectionCallbacks</text>
</a>
</g>
</g>
<!-- Node5&#45;&gt;Node6 -->
<g id="edge5" class="edge"><title>Node5&#45;&gt;Node6</title>
<path fill="none" stroke="midnightblue" d="M961.423,-320.724C979.61,-319.225 999.718,-317.568 1018.3,-316.037"/>
<polygon fill="midnightblue" stroke="midnightblue" points="960.931,-317.253 951.252,-321.562 961.506,-324.229 960.931,-317.253"/>
</g>
<!-- Node7 -->
<g id="node7" class="node"><title>Node7</title>
<g id="a_node7"><a xlink:href="../../de/d45/cipioconnection_8h.html#a43e270b3f9b9f6296b12285c320c95aa" target="_top" xlink:title="Setup all data in order to establish an IO connection. ">
<polygon fill="none" stroke="black" points="1194.5,-320.122 1194.5,-339.122 1309.5,-339.122 1309.5,-320.122 1194.5,-320.122"/>
<text text-anchor="middle" x="1252" y="-327.122" font-family="Helvetica,sans-Serif" font-size="10.00">EstablishIoConnection</text>
</a>
</g>
</g>
<!-- Node6&#45;&gt;Node7 -->
<g id="edge6" class="edge"><title>Node6&#45;&gt;Node7</title>
<path fill="none" stroke="midnightblue" d="M1161.7,-319.338C1172.67,-320.602 1183.81,-321.885 1194.32,-323.095"/>
<polygon fill="midnightblue" stroke="midnightblue" points="1162.02,-315.853 1151.69,-318.186 1161.22,-322.807 1162.02,-315.853"/>
</g>
<!-- Node8 -->
<g id="node8" class="node"><title>Node8</title>
<g id="a_node8"><a xlink:href="../../d2/da3/cipconnectionmanager_8h.html#a5ab0de6894d23e8fe84a6b46797c2212" target="_top" xlink:title="Initialize the data of the connection manager object. ">
<polygon fill="none" stroke="black" points="1354.5,-320.122 1354.5,-339.122 1471.5,-339.122 1471.5,-320.122 1354.5,-320.122"/>
<text text-anchor="middle" x="1413" y="-327.122" font-family="Helvetica,sans-Serif" font-size="10.00">ConnectionManagerInit</text>
</a>
</g>
</g>
<!-- Node7&#45;&gt;Node8 -->
<g id="edge7" class="edge"><title>Node7&#45;&gt;Node8</title>
<path fill="none" stroke="midnightblue" d="M1319.54,-329.622C1331.1,-329.622 1343.04,-329.622 1354.34,-329.622"/>
<polygon fill="midnightblue" stroke="midnightblue" points="1319.51,-326.122 1309.51,-329.622 1319.51,-333.122 1319.51,-326.122"/>
</g>
<!-- Node9 -->
<g id="node9" class="node"><title>Node9</title>
<g id="a_node9"><a xlink:href="../../d2/dc9/group__CIP__API.html#ga5d4979945d124e28668b264c3823db1c" target="_top" xlink:title="Initialize and setup the CIP&#45;stack. ">
<polygon fill="none" stroke="black" points="1531.5,-277.122 1531.5,-296.122 1602.5,-296.122 1602.5,-277.122 1531.5,-277.122"/>
<text text-anchor="middle" x="1567" y="-284.122" font-family="Helvetica,sans-Serif" font-size="10.00">CipStackInit</text>
</a>
</g>
</g>
<!-- Node8&#45;&gt;Node9 -->
<g id="edge8" class="edge"><title>Node8&#45;&gt;Node9</title>
<path fill="none" stroke="midnightblue" d="M1457.57,-317.296C1481.35,-310.569 1510.34,-302.368 1532.36,-296.138"/>
<polygon fill="midnightblue" stroke="midnightblue" points="1456.4,-313.989 1447.73,-320.079 1458.31,-320.724 1456.4,-313.989"/>
</g>
<!-- Node10 -->
<g id="node10" class="node"><title>Node10</title>
<g id="a_node10"><a xlink:href="../../d5/dcb/MINGW_2main_8c.html#ad338a7dbc41dc40bcecd0479377ef207" target="_top" xlink:title="main">
<polygon fill="none" stroke="black" points="1654,-154.122 1654,-173.122 1692,-173.122 1692,-154.122 1654,-154.122"/>
<text text-anchor="middle" x="1673" y="-161.122" font-family="Helvetica,sans-Serif" font-size="10.00">main</text>
</a>
</g>
</g>
<!-- Node9&#45;&gt;Node10 -->
<g id="edge9" class="edge"><title>Node9&#45;&gt;Node10</title>
<path fill="none" stroke="midnightblue" d="M1587.31,-270.113C1596.97,-261.456 1608.58,-250.426 1618,-239.622 1637.36,-217.417 1656.49,-188.372 1665.92,-173.435"/>
<polygon fill="midnightblue" stroke="midnightblue" points="1584.94,-267.536 1579.75,-276.77 1589.57,-272.791 1584.94,-267.536"/>
</g>
<!-- Node12 -->
<g id="node12" class="node"><title>Node12</title>
<g id="a_node12"><a xlink:href="../../dc/d93/cipclass3connection_8c.html#a6053ab7004c1419bd80faf9aca54bfd3" target="_top" xlink:title="Class3ConnectionTimeoutHandler">
<polygon fill="none" stroke="black" points="620,-362.122 620,-381.122 786,-381.122 786,-362.122 620,-362.122"/>
<text text-anchor="middle" x="703" y="-369.122" font-family="Helvetica,sans-Serif" font-size="10.00">Class3ConnectionTimeoutHandler</text>
</a>
</g>
</g>
<!-- Node11&#45;&gt;Node12 -->
<g id="edge11" class="edge"><title>Node11&#45;&gt;Node12</title>
<path fill="none" stroke="midnightblue" d="M540.153,-399.964C573.106,-394.193 614.798,-386.892 647.614,-381.145"/>
<polygon fill="midnightblue" stroke="midnightblue" points="539.473,-396.529 530.226,-401.702 540.68,-403.424 539.473,-396.529"/>
</g>
<!-- Node13 -->
<g id="node13" class="node"><title>Node13</title>
<g id="a_node13"><a xlink:href="../../d2/d11/cipclass3connection_8h.html#a45bd741b44137164c07a6ce09a7a9a9d" target="_top" xlink:title="Check if Class3 connection is available and if yes setup all data. ">
<polygon fill="none" stroke="black" points="832.5,-377.122 832.5,-396.122 969.5,-396.122 969.5,-377.122 832.5,-377.122"/>
<text text-anchor="middle" x="901" y="-384.122" font-family="Helvetica,sans-Serif" font-size="10.00">EstablishClass3Connection</text>
</a>
</g>
</g>
<!-- Node11&#45;&gt;Node13 -->
<g id="edge14" class="edge"><title>Node11&#45;&gt;Node13</title>
<path fill="none" stroke="midnightblue" d="M540.445,-406.549C615.913,-402.366 750.871,-394.887 832.249,-390.377"/>
<polygon fill="midnightblue" stroke="midnightblue" points="539.993,-403.068 530.202,-407.116 540.381,-410.058 539.993,-403.068"/>
</g>
<!-- Node12&#45;&gt;Node13 -->
<g id="edge12" class="edge"><title>Node12&#45;&gt;Node13</title>
<path fill="none" stroke="midnightblue" d="M796.436,-378.696C808.59,-379.626 820.858,-380.565 832.491,-381.455"/>
<polygon fill="midnightblue" stroke="midnightblue" points="796.508,-375.191 786.27,-377.918 795.973,-382.171 796.508,-375.191"/>
</g>
<!-- Node13&#45;&gt;Node8 -->
<g id="edge13" class="edge"><title>Node13&#45;&gt;Node8</title>
<path fill="none" stroke="midnightblue" d="M979.741,-381.502C1062.01,-375.589 1195.52,-364.581 1310,-348.622 1328.38,-346.06 1348.48,-342.484 1365.94,-339.124"/>
<polygon fill="midnightblue" stroke="midnightblue" points="979.446,-378.014 969.719,-382.215 979.943,-384.997 979.446,-378.014"/>
</g>
<!-- Node15 -->
<g id="node15" class="node"><title>Node15</title>
<g id="a_node15"><a xlink:href="../../db/d4f/generic__networkhandler_8c.html#ab561fc66fe48a0cf95be3d152b297dd9" target="_top" xlink:title="CheckEncapsulationInactivity">
<polygon fill="none" stroke="black" points="630,-192.122 630,-211.122 776,-211.122 776,-192.122 630,-192.122"/>
<text text-anchor="middle" x="703" y="-199.122" font-family="Helvetica,sans-Serif" font-size="10.00">CheckEncapsulationInactivity</text>
</a>
</g>
</g>
<!-- Node14&#45;&gt;Node15 -->
<g id="edge16" class="edge"><title>Node14&#45;&gt;Node15</title>
<path fill="none" stroke="midnightblue" d="M358.992,-206.806C429.109,-205.746 551.736,-203.893 629.796,-202.713"/>
<polygon fill="midnightblue" stroke="midnightblue" points="358.568,-203.312 348.622,-206.962 358.673,-210.311 358.568,-203.312"/>
</g>
<!-- Node16 -->
<g id="node16" class="node"><title>Node16</title>
<g id="a_node16"><a xlink:href="../../da/dc2/generic__networkhandler_8h.html#a2f01af81d3e5018d9980e2bc28c9078a" target="_top" xlink:title="NetworkHandlerProcessOnce">
<polygon fill="none" stroke="black" points="1012,-154.122 1012,-173.122 1158,-173.122 1158,-154.122 1012,-154.122"/>
<text text-anchor="middle" x="1085" y="-161.122" font-family="Helvetica,sans-Serif" font-size="10.00">NetworkHandlerProcessOnce</text>
</a>
</g>
</g>
<!-- Node14&#45;&gt;Node16 -->
<g id="edge34" class="edge"><title>Node14&#45;&gt;Node16</title>
<path fill="none" stroke="midnightblue" d="M319.581,-189.848C334.671,-172.986 359.936,-148.763 388,-138.622 629.358,-51.4001 948.932,-125.995 1051.11,-154.039"/>
<polygon fill="midnightblue" stroke="midnightblue" points="316.534,-188.022 312.656,-197.881 321.836,-192.592 316.534,-188.022"/>
</g>
<!-- Node19 -->
<g id="node19" class="node"><title>Node19</title>
<g id="a_node19"><a xlink:href="../../d2/dc9/group__CIP__API.html#ga00a23c1c86472edf2ed679089ae8efc1" target="_top" xlink:title="Inform the encapsulation layer that the remote host has closed the connection. ">
<polygon fill="none" stroke="black" points="445.5,-274.122 445.5,-293.122 522.5,-293.122 522.5,-274.122 445.5,-274.122"/>
<text text-anchor="middle" x="484" y="-281.122" font-family="Helvetica,sans-Serif" font-size="10.00">CloseSession</text>
</a>
</g>
</g>
<!-- Node14&#45;&gt;Node19 -->
<g id="edge21" class="edge"><title>Node14&#45;&gt;Node19</title>
<path fill="none" stroke="midnightblue" d="M323.965,-223.991C339.988,-236.96 364.086,-254.523 388,-264.622 406.129,-272.278 427.53,-276.904 445.426,-279.671"/>
<polygon fill="midnightblue" stroke="midnightblue" points="325.877,-221.03 315.947,-217.335 321.406,-226.416 325.877,-221.03"/>
</g>
<!-- Node22 -->
<g id="node22" class="node"><title>Node22</title>
<g id="a_node22"><a xlink:href="../../d7/df9/encap_8h.html#ad083888333d3ceec1576126a88eeaca7" target="_top" xlink:title="CloseSessionBySessionHandle">
<polygon fill="none" stroke="black" points="406.5,-362.122 406.5,-381.122 561.5,-381.122 561.5,-362.122 406.5,-362.122"/>
<text text-anchor="middle" x="484" y="-369.122" font-family="Helvetica,sans-Serif" font-size="10.00">CloseSessionBySessionHandle</text>
</a>
</g>
</g>
<!-- Node14&#45;&gt;Node22 -->
<g id="edge25" class="edge"><title>Node14&#45;&gt;Node22</title>
<path fill="none" stroke="midnightblue" d="M313.523,-226.547C329.75,-261.762 365.468,-335.272 388,-351.622 393.866,-355.878 400.442,-359.269 407.323,-361.965"/>
<polygon fill="midnightblue" stroke="midnightblue" points="316.653,-224.975 309.319,-217.329 310.284,-227.88 316.653,-224.975"/>
</g>
<!-- Node23 -->
<g id="node23" class="node"><title>Node23</title>
<g id="a_node23"><a xlink:href="../../d4/d91/group__ENCAP.html#ga1261bd2441f744c38d7a3f8d8c16c391" target="_top" xlink:title="Shutdown the encapsulation layer. ">
<polygon fill="none" stroke="black" points="422,-236.122 422,-255.122 546,-255.122 546,-236.122 422,-236.122"/>
<text text-anchor="middle" x="484" y="-243.122" font-family="Helvetica,sans-Serif" font-size="10.00">EncapsulationShutDown</text>
</a>
</g>
</g>
<!-- Node14&#45;&gt;Node23 -->
<g id="edge27" class="edge"><title>Node14&#45;&gt;Node23</title>
<path fill="none" stroke="midnightblue" d="M358.428,-219.028C383.931,-224.472 414.099,-230.912 438.359,-236.091"/>
<polygon fill="midnightblue" stroke="midnightblue" points="359.054,-215.583 348.544,-216.918 357.593,-222.428 359.054,-215.583"/>
</g>
<!-- Node25 -->
<g id="node25" class="node"><title>Node25</title>
<g id="a_node25"><a xlink:href="../../d2/dbd/encap_8c.html#a601cd19c88f03fd742f098a1bf5b9e85" target="_top" xlink:title="HandleReceivedUnregister\lSessionCommand">
<polygon fill="none" stroke="black" points="417,-148.622 417,-178.622 551,-178.622 551,-148.622 417,-148.622"/>
<text text-anchor="start" x="425" y="-166.622" font-family="Helvetica,sans-Serif" font-size="10.00">HandleReceivedUnregister</text>
<text text-anchor="middle" x="484" y="-155.622" font-family="Helvetica,sans-Serif" font-size="10.00">SessionCommand</text>
</a>
</g>
</g>
<!-- Node14&#45;&gt;Node25 -->
<g id="edge30" class="edge"><title>Node14&#45;&gt;Node25</title>
<path fill="none" stroke="midnightblue" d="M353.364,-195.667C374.538,-190.432 399.62,-184.232 422.054,-178.687"/>
<polygon fill="midnightblue" stroke="midnightblue" points="352.491,-192.277 343.623,-198.074 354.171,-199.072 352.491,-192.277"/>
</g>
<!-- Node15&#45;&gt;Node16 -->
<g id="edge17" class="edge"><title>Node15&#45;&gt;Node16</title>
<path fill="none" stroke="midnightblue" d="M786.287,-198.113C840.348,-195.257 912.547,-190.398 976,-182.622 995.747,-180.202 1017.37,-176.591 1036.04,-173.166"/>
<polygon fill="midnightblue" stroke="midnightblue" points="785.874,-194.63 776.068,-198.64 786.235,-201.62 785.874,-194.63"/>
</g>
<!-- Node16&#45;&gt;Node10 -->
<g id="edge20" class="edge"><title>Node16&#45;&gt;Node10</title>
<path fill="none" stroke="midnightblue" d="M1168.34,-163.622C1307.5,-163.622 1581.18,-163.622 1653.9,-163.622"/>
<polygon fill="midnightblue" stroke="midnightblue" points="1168.15,-160.122 1158.15,-163.622 1168.15,-167.122 1168.15,-160.122"/>
</g>
<!-- Node17 -->
<g id="node17" class="node"><title>Node17</title>
<g id="a_node17"><a xlink:href="../../d9/dfb/POSIX_2main_8c.html#a14982bc20347a462f767f58c18142919" target="_top" xlink:title="Signal handler function for ending stack execution. ">
<polygon fill="none" stroke="black" points="1203,-74.1217 1203,-93.1217 1301,-93.1217 1301,-74.1217 1203,-74.1217"/>
<text text-anchor="middle" x="1252" y="-81.1217" font-family="Helvetica,sans-Serif" font-size="10.00">executeEventLoop</text>
</a>
</g>
</g>
<!-- Node16&#45;&gt;Node17 -->
<g id="edge18" class="edge"><title>Node16&#45;&gt;Node17</title>
<path fill="none" stroke="midnightblue" d="M1110.08,-148.689C1131.57,-135.739 1164.17,-117.022 1194,-103.622 1202.51,-99.7964 1212,-96.2135 1220.75,-93.1669"/>
<polygon fill="midnightblue" stroke="midnightblue" points="1108.04,-145.835 1101.31,-154.023 1111.67,-151.815 1108.04,-145.835"/>
</g>
<!-- Node18 -->
<g id="node18" class="node"><title>Node18</title>
<g id="a_node18"><a xlink:href="../../d9/dfb/POSIX_2main_8c.html#ad338a7dbc41dc40bcecd0479377ef207" target="_top" xlink:title="main">
<polygon fill="none" stroke="black" points="1394,-55.1217 1394,-74.1217 1432,-74.1217 1432,-55.1217 1394,-55.1217"/>
<text text-anchor="middle" x="1413" y="-62.1217" font-family="Helvetica,sans-Serif" font-size="10.00">main</text>
</a>
</g>
</g>
<!-- Node17&#45;&gt;Node18 -->
<g id="edge19" class="edge"><title>Node17&#45;&gt;Node18</title>
<path fill="none" stroke="midnightblue" d="M1311.26,-76.6603C1340.43,-73.1739 1373.73,-69.1953 1393.79,-66.7979"/>
<polygon fill="midnightblue" stroke="midnightblue" points="1310.65,-73.2076 1301.14,-77.8695 1311.48,-80.1582 1310.65,-73.2076"/>
</g>
<!-- Node20 -->
<g id="node20" class="node"><title>Node20</title>
<g id="a_node20"><a xlink:href="../../d7/df9/encap_8h.html#a0101714be726ab1b21125b6a82ac7a56" target="_top" xlink:title="CloseEncapsulationSession\lBySockAddr">
<polygon fill="none" stroke="black" points="633.5,-268.622 633.5,-298.622 772.5,-298.622 772.5,-268.622 633.5,-268.622"/>
<text text-anchor="start" x="641.5" y="-286.622" font-family="Helvetica,sans-Serif" font-size="10.00">CloseEncapsulationSession</text>
<text text-anchor="middle" x="703" y="-275.622" font-family="Helvetica,sans-Serif" font-size="10.00">BySockAddr</text>
</a>
</g>
</g>
<!-- Node19&#45;&gt;Node20 -->
<g id="edge22" class="edge"><title>Node19&#45;&gt;Node20</title>
<path fill="none" stroke="midnightblue" d="M532.817,-283.622C562.241,-283.622 600.443,-283.622 633.098,-283.622"/>
<polygon fill="midnightblue" stroke="midnightblue" points="532.799,-280.122 522.799,-283.622 532.798,-287.122 532.799,-280.122"/>
</g>
<!-- Node21 -->
<g id="node21" class="node"><title>Node21</title>
<g id="a_node21"><a xlink:href="../../df/d03/cipioconnection_8c.html#a7e4923f4b027d489d9933b52f6fd7007" target="_top" xlink:title="HandleIoConnectionTimeOut">
<polygon fill="none" stroke="black" points="829.5,-275.122 829.5,-294.122 972.5,-294.122 972.5,-275.122 829.5,-275.122"/>
<text text-anchor="middle" x="901" y="-282.122" font-family="Helvetica,sans-Serif" font-size="10.00">HandleIoConnectionTimeOut</text>
</a>
</g>
</g>
<!-- Node20&#45;&gt;Node21 -->
<g id="edge23" class="edge"><title>Node20&#45;&gt;Node21</title>
<path fill="none" stroke="midnightblue" d="M782.62,-284.023C798.117,-284.102 814.286,-284.184 829.495,-284.262"/>
<polygon fill="midnightblue" stroke="midnightblue" points="782.569,-280.523 772.551,-283.971 782.533,-287.523 782.569,-280.523"/>
</g>
<!-- Node21&#45;&gt;Node6 -->
<g id="edge24" class="edge"><title>Node21&#45;&gt;Node6</title>
<path fill="none" stroke="midnightblue" d="M978.746,-295.585C991.966,-297.474 1005.6,-299.421 1018.49,-301.263"/>
<polygon fill="midnightblue" stroke="midnightblue" points="979.131,-292.105 968.737,-294.155 978.141,-299.035 979.131,-292.105"/>
</g>
<!-- Node22&#45;&gt;Node12 -->
<g id="edge26" class="edge"><title>Node22&#45;&gt;Node12</title>
<path fill="none" stroke="midnightblue" d="M571.825,-371.622C587.691,-371.622 604.202,-371.622 619.924,-371.622"/>
<polygon fill="midnightblue" stroke="midnightblue" points="571.506,-368.122 561.506,-371.622 571.506,-375.122 571.506,-368.122"/>
</g>
<!-- Node24 -->
<g id="node24" class="node"><title>Node24</title>
<g id="a_node24"><a xlink:href="../../d2/dc9/group__CIP__API.html#gaa57b527530adc2acda6febc500fd6831" target="_top" xlink:title="Shutdown of the CIP stack. ">
<polygon fill="none" stroke="black" points="1516.5,-211.122 1516.5,-230.122 1617.5,-230.122 1617.5,-211.122 1516.5,-211.122"/>
<text text-anchor="middle" x="1567" y="-218.122" font-family="Helvetica,sans-Serif" font-size="10.00">ShutdownCipStack</text>
</a>
</g>
</g>
<!-- Node23&#45;&gt;Node24 -->
<g id="edge28" class="edge"><title>Node23&#45;&gt;Node24</title>
<path fill="none" stroke="midnightblue" d="M556.207,-243.967C638.866,-242.191 779.296,-239.622 900,-239.622 900,-239.622 900,-239.622 1253,-239.622 1346.23,-239.622 1454.79,-231.119 1516.45,-225.49"/>
<polygon fill="midnightblue" stroke="midnightblue" points="556.093,-240.468 546.171,-244.185 556.245,-247.467 556.093,-240.468"/>
</g>
<!-- Node24&#45;&gt;Node10 -->
<g id="edge29" class="edge"><title>Node24&#45;&gt;Node10</title>
<path fill="none" stroke="midnightblue" d="M1594.63,-206.028C1613.49,-195.691 1638.25,-182.121 1654.62,-173.148"/>
<polygon fill="midnightblue" stroke="midnightblue" points="1592.73,-203.077 1585.64,-210.952 1596.09,-209.215 1592.73,-203.077"/>
</g>
<!-- Node26 -->
<g id="node26" class="node"><title>Node26</title>
<g id="a_node26"><a xlink:href="../../d2/dc9/group__CIP__API.html#ga16eaeeb12ba23b5a75c8e5902a33d70a" target="_top" xlink:title="Notify the encapsulation layer that an explicit message has been received via TCP. ">
<polygon fill="none" stroke="black" points="625,-154.122 625,-173.122 781,-173.122 781,-154.122 625,-154.122"/>
<text text-anchor="middle" x="703" y="-161.122" font-family="Helvetica,sans-Serif" font-size="10.00">HandleReceivedExplictTcpData</text>
</a>
</g>
</g>
<!-- Node25&#45;&gt;Node26 -->
<g id="edge31" class="edge"><title>Node25&#45;&gt;Node26</title>
<path fill="none" stroke="midnightblue" d="M561.513,-163.622C582.005,-163.622 604.168,-163.622 624.701,-163.622"/>
<polygon fill="midnightblue" stroke="midnightblue" points="561.286,-160.122 551.286,-163.622 561.286,-167.122 561.286,-160.122"/>
</g>
<!-- Node27 -->
<g id="node27" class="node"><title>Node27</title>
<g id="a_node27"><a xlink:href="../../db/d4f/generic__networkhandler_8c.html#aca5593b7dd39d7a7b437999a367102d6" target="_top" xlink:title="Handles data on an established TCP connection, processed connection is given by socket. ">
<polygon fill="none" stroke="black" points="837,-154.122 837,-173.122 965,-173.122 965,-154.122 837,-154.122"/>
<text text-anchor="middle" x="901" y="-161.122" font-family="Helvetica,sans-Serif" font-size="10.00">HandleDataOnTcpSocket</text>
</a>
</g>
</g>
<!-- Node26&#45;&gt;Node27 -->
<g id="edge32" class="edge"><title>Node26&#45;&gt;Node27</title>
<path fill="none" stroke="midnightblue" d="M791.199,-163.622C806.544,-163.622 822.246,-163.622 836.777,-163.622"/>
<polygon fill="midnightblue" stroke="midnightblue" points="791.183,-160.122 781.183,-163.622 791.183,-167.122 791.183,-160.122"/>
</g>
<!-- Node27&#45;&gt;Node16 -->
<g id="edge33" class="edge"><title>Node27&#45;&gt;Node16</title>
<path fill="none" stroke="midnightblue" d="M975.191,-163.622C987.297,-163.622 999.842,-163.622 1011.92,-163.622"/>
<polygon fill="midnightblue" stroke="midnightblue" points="975.144,-160.122 965.144,-163.622 975.144,-167.122 975.144,-160.122"/>
</g>
<!-- Node28&#45;&gt;Node10 -->
<g id="edge36" class="edge"><title>Node28&#45;&gt;Node10</title>
<path fill="none" stroke="midnightblue" d="M1318.74,-123.933C1392.14,-126.218 1514.27,-132.481 1618,-149.622 1630.04,-151.611 1643.31,-155.034 1653.68,-157.997"/>
<polygon fill="midnightblue" stroke="midnightblue" points="1318.81,-120.433 1308.71,-123.636 1318.6,-127.43 1318.81,-120.433"/>
</g>
<!-- Node30 -->
<g id="node30" class="node"><title>Node30</title>
<g id="a_node30"><a xlink:href="../../df/d03/cipioconnection_8c.html#add645b42730b2cea369523949c6b9745" target="_top" xlink:title="Open a Point2Point connection dependent on pa_direction. ">
<polygon fill="none" stroke="black" points="630,-564.622 630,-594.622 776,-594.622 776,-564.622 630,-564.622"/>
<text text-anchor="start" x="638" y="-582.622" font-family="Helvetica,sans-Serif" font-size="10.00">OpenConsumingPointToPoint</text>
<text text-anchor="middle" x="703" y="-571.622" font-family="Helvetica,sans-Serif" font-size="10.00">Connection</text>
</a>
</g>
</g>
<!-- Node29&#45;&gt;Node30 -->
<g id="edge38" class="edge"><title>Node29&#45;&gt;Node30</title>
<path fill="none" stroke="midnightblue" d="M330.889,-491.184C346.915,-499.666 368.156,-509.968 388,-516.622 468.786,-543.712 565.375,-560.945 629.896,-570.414"/>
<polygon fill="midnightblue" stroke="midnightblue" points="332.104,-487.863 321.643,-486.187 328.776,-494.021 332.104,-487.863"/>
</g>
<!-- Node32 -->
<g id="node32" class="node"><title>Node32</title>
<g id="a_node32"><a xlink:href="../../df/d03/cipioconnection_8c.html#aa3b58fd216ec6712abc29ef84b33006d" target="_top" xlink:title="OpenProducingPointToPoint\lConnection">
<polygon fill="none" stroke="black" points="633,-438.622 633,-468.622 773,-468.622 773,-438.622 633,-438.622"/>
<text text-anchor="start" x="641" y="-456.622" font-family="Helvetica,sans-Serif" font-size="10.00">OpenProducingPointToPoint</text>
<text text-anchor="middle" x="703" y="-445.622" font-family="Helvetica,sans-Serif" font-size="10.00">Connection</text>
</a>
</g>
</g>
<!-- Node29&#45;&gt;Node32 -->
<g id="edge41" class="edge"><title>Node29&#45;&gt;Node32</title>
<path fill="none" stroke="midnightblue" d="M361.874,-473.327C433.366,-469.185 556.007,-462.08 632.847,-457.628"/>
<polygon fill="midnightblue" stroke="midnightblue" points="361.489,-469.843 351.708,-473.916 361.894,-476.831 361.489,-469.843"/>
</g>
<!-- Node33 -->
<g id="node33" class="node"><title>Node33</title>
<g id="a_node33"><a xlink:href="../../df/d03/cipioconnection_8c.html#a9e2ce4666173987646cf60ce3422d7b4" target="_top" xlink:title="Open a Multicast connection dependent on direction. ">
<polygon fill="none" stroke="black" points="419.5,-488.122 419.5,-507.122 548.5,-507.122 548.5,-488.122 419.5,-488.122"/>
<text text-anchor="middle" x="484" y="-495.122" font-family="Helvetica,sans-Serif" font-size="10.00">OpenMulticastConnection</text>
</a>
</g>
</g>
<!-- Node29&#45;&gt;Node33 -->
<g id="edge43" class="edge"><title>Node29&#45;&gt;Node33</title>
<path fill="none" stroke="midnightblue" d="M361.739,-483.316C380.125,-485.485 400.635,-487.904 419.48,-490.128"/>
<polygon fill="midnightblue" stroke="midnightblue" points="362.109,-479.835 351.767,-482.139 361.288,-486.787 362.109,-479.835"/>
</g>
<!-- Node31 -->
<g id="node31" class="node"><title>Node31</title>
<g id="a_node31"><a xlink:href="../../de/d45/cipioconnection_8h.html#a53b85bce88b582414fc282c95f5626f4" target="_top" xlink:title="Take the data given in the connection object structure and open the necessary communication channels...">
<polygon fill="none" stroke="black" points="826.5,-488.122 826.5,-507.122 975.5,-507.122 975.5,-488.122 826.5,-488.122"/>
<text text-anchor="middle" x="901" y="-495.122" font-family="Helvetica,sans-Serif" font-size="10.00">OpenCommunicationChannels</text>
</a>
</g>
</g>
<!-- Node30&#45;&gt;Node31 -->
<g id="edge39" class="edge"><title>Node30&#45;&gt;Node31</title>
<path fill="none" stroke="midnightblue" d="M771.708,-561.301C777.947,-559.205 784.126,-556.971 790,-554.622 824.749,-540.723 863.078,-519.385 884.068,-507.142"/>
<polygon fill="midnightblue" stroke="midnightblue" points="770.326,-558.07 761.89,-564.479 772.482,-564.73 770.326,-558.07"/>
</g>
<!-- Node31&#45;&gt;Node7 -->
<g id="edge40" class="edge"><title>Node31&#45;&gt;Node7</title>
<path fill="none" stroke="midnightblue" d="M931.181,-483.575C1000.25,-450.328 1172.33,-367.491 1231.02,-339.239"/>
<polygon fill="midnightblue" stroke="midnightblue" points="929.256,-480.617 921.764,-488.108 932.292,-486.924 929.256,-480.617"/>
</g>
<!-- Node32&#45;&gt;Node31 -->
<g id="edge42" class="edge"><title>Node32&#45;&gt;Node31</title>
<path fill="none" stroke="midnightblue" d="M780.802,-470.863C806.94,-476.731 835.191,-483.073 857.626,-488.109"/>
<polygon fill="midnightblue" stroke="midnightblue" points="781.428,-467.416 770.904,-468.641 779.894,-474.246 781.428,-467.416"/>
</g>
<!-- Node33&#45;&gt;Node31 -->
<g id="edge44" class="edge"><title>Node33&#45;&gt;Node31</title>
<path fill="none" stroke="midnightblue" d="M559.302,-497.622C634.754,-497.622 750.905,-497.622 826.182,-497.622"/>
<polygon fill="midnightblue" stroke="midnightblue" points="558.934,-494.122 548.934,-497.622 558.934,-501.122 558.934,-494.122"/>
</g>
<!-- Node34 -->
<g id="node34" class="node"><title>Node34</title>
<g id="a_node34"><a xlink:href="../../df/d03/cipioconnection_8c.html#a5dea6fc1be0ed4ecf5d9e4f932d52106" target="_top" xlink:title="OpenProducingMulticastConnection">
<polygon fill="none" stroke="black" points="616.5,-526.122 616.5,-545.122 789.5,-545.122 789.5,-526.122 616.5,-526.122"/>
<text text-anchor="middle" x="703" y="-533.122" font-family="Helvetica,sans-Serif" font-size="10.00">OpenProducingMulticastConnection</text>
</a>
</g>
</g>
<!-- Node33&#45;&gt;Node34 -->
<g id="edge45" class="edge"><title>Node33&#45;&gt;Node34</title>
<path fill="none" stroke="midnightblue" d="M549.391,-508.898C580.611,-514.365 617.702,-520.86 647.499,-526.078"/>
<polygon fill="midnightblue" stroke="midnightblue" points="549.932,-505.439 539.478,-507.162 548.725,-512.334 549.932,-505.439"/>
</g>
<!-- Node34&#45;&gt;Node31 -->
<g id="edge46" class="edge"><title>Node34&#45;&gt;Node31</title>
<path fill="none" stroke="midnightblue" d="M763.261,-524.132C791.227,-518.71 824.209,-512.316 850.774,-507.166"/>
<polygon fill="midnightblue" stroke="midnightblue" points="762.357,-520.742 753.206,-526.082 763.689,-527.614 762.357,-520.742"/>
</g>
<!-- Node35&#45;&gt;Node18 -->
<g id="edge48" class="edge"><title>Node35&#45;&gt;Node18</title>
<path fill="none" stroke="midnightblue" d="M1152.09,-47.8787C1228.05,-52.7724 1348.12,-60.507 1393.67,-63.4406"/>
<polygon fill="midnightblue" stroke="midnightblue" points="1151.88,-44.358 1141.67,-47.2078 1151.43,-51.3435 1151.88,-44.358"/>
</g>
<!-- Node36&#45;&gt;Node10 -->
<g id="edge50" class="edge"><title>Node36&#45;&gt;Node10</title>
<path fill="none" stroke="midnightblue" d="M1452.16,-29.5757C1494.81,-45.0711 1564.85,-73.6237 1618,-110.622 1636.33,-123.38 1654.13,-142.566 1664.02,-154.016"/>
<polygon fill="midnightblue" stroke="midnightblue" points="1453.31,-26.269 1442.72,-26.1945 1450.95,-32.8596 1453.31,-26.269"/>
</g>
</g>
</svg>
