<?xml version="1.0" encoding="UTF-8" standalone="no"?>
<!DOCTYPE svg PUBLIC "-//W3C//DTD SVG 1.1//EN"
 "http://www.w3.org/Graphics/SVG/1.1/DTD/svg11.dtd">
<!-- Generated by graphviz version 2.38.0 (20140413.2041)
 -->
<!-- Title: CloseSocketPlatform Pages: 1 -->
<svg width="1915pt" height="546pt"
 viewBox="0.00 0.00 1915.00 545.61" xmlns="http://www.w3.org/2000/svg" xmlns:xlink="http://www.w3.org/1999/xlink">
<g id="graph0" class="graph" transform="scale(1 1) rotate(0) translate(4 541.606)">
<title>CloseSocketPlatform</title>
<!-- Node1 -->
<g id="node1" class="node"><title>Node1</title>
<polygon fill="#bfbfbf" stroke="black" points="0,-180.5 0,-199.5 110,-199.5 110,-180.5 0,-180.5"/>
<text text-anchor="middle" x="55" y="-187.5" font-family="Helvetica,sans-Serif" font-size="10.00">CloseSocketPlatform</text>
</g>
<!-- Node2 -->
<g id="node2" class="node"><title>Node2</title>
<g id="a_node2"><a xlink:href="../../d5/dc5/group__CIP__CALLBACK__API.html#gae04e2a3e9937e910cbcdbff0b8d6ad2b" target="_top" xlink:title="Close the given socket and clean up the stack. ">
<polygon fill="none" stroke="black" points="146,-180.5 146,-199.5 219,-199.5 219,-180.5 146,-180.5"/>
<text text-anchor="middle" x="182.5" y="-187.5" font-family="Helvetica,sans-Serif" font-size="10.00">CloseSocket</text>
</a>
</g>
</g>
<!-- Node1&#45;&gt;Node2 -->
<g id="edge1" class="edge"><title>Node1&#45;&gt;Node2</title>
<path fill="none" stroke="midnightblue" d="M120.549,-190C129.282,-190 137.969,-190 145.931,-190"/>
<polygon fill="midnightblue" stroke="midnightblue" points="120.316,-186.5 110.316,-190 120.316,-193.5 120.316,-186.5"/>
</g>
<!-- Node3 -->
<g id="node3" class="node"><title>Node3</title>
<g id="a_node3"><a xlink:href="../../da/dc2/generic__networkhandler_8h.html#aab6e6c554aa10d27efe297ebef3ac1c9" target="_top" xlink:title="CloseUdpSocket">
<polygon fill="none" stroke="black" points="257,-204.5 257,-223.5 348,-223.5 348,-204.5 257,-204.5"/>
<text text-anchor="middle" x="302.5" y="-211.5" font-family="Helvetica,sans-Serif" font-size="10.00">CloseUdpSocket</text>
</a>
</g>
</g>
<!-- Node2&#45;&gt;Node3 -->
<g id="edge2" class="edge"><title>Node2&#45;&gt;Node3</title>
<path fill="none" stroke="midnightblue" d="M229.19,-199.293C238.225,-201.13 247.699,-203.057 256.704,-204.889"/>
<polygon fill="midnightblue" stroke="midnightblue" points="229.721,-195.829 219.224,-197.266 228.326,-202.689 229.721,-195.829"/>
</g>
<!-- Node16 -->
<g id="node16" class="node"><title>Node16</title>
<g id="a_node16"><a xlink:href="../../da/dc2/generic__networkhandler_8h.html#a1bfa5ef8e4802716459a56567ee16592" target="_top" xlink:title="CloseTcpSocket">
<polygon fill="none" stroke="black" points="258,-368.5 258,-387.5 347,-387.5 347,-368.5 258,-368.5"/>
<text text-anchor="middle" x="302.5" y="-375.5" font-family="Helvetica,sans-Serif" font-size="10.00">CloseTcpSocket</text>
</a>
</g>
</g>
<!-- Node2&#45;&gt;Node16 -->
<g id="edge17" class="edge"><title>Node2&#45;&gt;Node16</title>
<path fill="none" stroke="midnightblue" d="M195.029,-208.369C219.632,-247.566 276.563,-338.27 295.357,-368.212"/>
<polygon fill="midnightblue" stroke="midnightblue" points="197.795,-206.191 189.514,-199.581 191.866,-209.912 197.795,-206.191"/>
</g>
<!-- Node29 -->
<g id="node29" class="node"><title>Node29</title>
<g id="a_node29"><a xlink:href="../../da/dc2/generic__networkhandler_8h.html#aace33c0e7aa348969492ede822183bd5" target="_top" xlink:title="NetworkHandlerFinish">
<polygon fill="none" stroke="black" points="1493,-134.5 1493,-153.5 1606,-153.5 1606,-134.5 1493,-134.5"/>
<text text-anchor="middle" x="1549.5" y="-141.5" font-family="Helvetica,sans-Serif" font-size="10.00">NetworkHandlerFinish</text>
</a>
</g>
</g>
<!-- Node2&#45;&gt;Node29 -->
<g id="edge36" class="edge"><title>Node2&#45;&gt;Node29</title>
<path fill="none" stroke="midnightblue" d="M197.452,-172.5C236.632,-125.491 353.15,-0 480.5,-0 480.5,-0 480.5,-0 1247.5,-0 1372.34,-0 1500.29,-102.042 1537.66,-134.328"/>
<polygon fill="midnightblue" stroke="midnightblue" points="194.679,-170.362 191.051,-180.317 200.095,-174.797 194.679,-170.362"/>
</g>
<!-- Node30 -->
<g id="node30" class="node"><title>Node30</title>
<g id="a_node30"><a xlink:href="../../d5/dc5/group__CIP__CALLBACK__API.html#ga5807bcc51621775c9aedbf58d3a7a6d3" target="_top" xlink:title="create a new UDP socket for the connection manager ">
<polygon fill="none" stroke="black" points="255,-136.5 255,-155.5 350,-155.5 350,-136.5 255,-136.5"/>
<text text-anchor="middle" x="302.5" y="-143.5" font-family="Helvetica,sans-Serif" font-size="10.00">CreateUdpSocket</text>
</a>
</g>
</g>
<!-- Node2&#45;&gt;Node30 -->
<g id="edge38" class="edge"><title>Node2&#45;&gt;Node30</title>
<path fill="none" stroke="midnightblue" d="M218.618,-176.905C237.032,-170.039 259.179,-161.781 275.946,-155.529"/>
<polygon fill="midnightblue" stroke="midnightblue" points="217.251,-173.679 209.104,-180.453 219.697,-180.238 217.251,-173.679"/>
</g>
<!-- Node4 -->
<g id="node4" class="node"><title>Node4</title>
<g id="a_node4"><a xlink:href="../../de/d45/cipioconnection_8h.html#a62fc61ed294b1d1543960582f0071b22" target="_top" xlink:title="close the communication channels of the given connection and remove it from the active connections li...">
<polygon fill="none" stroke="black" points="386,-199 386,-229 577,-229 577,-199 386,-199"/>
<text text-anchor="start" x="394" y="-217" font-family="Helvetica,sans-Serif" font-size="10.00">CloseCommunicationChannels</text>
<text text-anchor="middle" x="481.5" y="-206" font-family="Helvetica,sans-Serif" font-size="10.00">AndRemoveFromActiveConnectionsList</text>
</a>
</g>
</g>
<!-- Node3&#45;&gt;Node4 -->
<g id="edge3" class="edge"><title>Node3&#45;&gt;Node4</title>
<path fill="none" stroke="midnightblue" d="M358.221,-214C367.014,-214 376.33,-214 385.741,-214"/>
<polygon fill="midnightblue" stroke="midnightblue" points="358.165,-210.5 348.165,-214 358.165,-217.5 358.165,-210.5"/>
</g>
<!-- Node13 -->
<g id="node13" class="node"><title>Node13</title>
<g id="a_node13"><a xlink:href="../../d2/da3/cipconnectionmanager_8h.html#a9367d6d6edfd5bd276ead18619f4d74e" target="_top" xlink:title="Close the given connection. ">
<polygon fill="none" stroke="black" points="435.5,-292.5 435.5,-311.5 527.5,-311.5 527.5,-292.5 435.5,-292.5"/>
<text text-anchor="middle" x="481.5" y="-299.5" font-family="Helvetica,sans-Serif" font-size="10.00">CloseConnection</text>
</a>
</g>
</g>
<!-- Node3&#45;&gt;Node13 -->
<g id="edge12" class="edge"><title>Node3&#45;&gt;Node13</title>
<path fill="none" stroke="midnightblue" d="M319.952,-230.923C335.578,-246.016 360.424,-267.591 386,-280 401.307,-287.427 419.245,-292.418 435.356,-295.739"/>
<polygon fill="midnightblue" stroke="midnightblue" points="322.233,-228.256 312.666,-223.703 317.306,-233.228 322.233,-228.256"/>
</g>
<!-- Node5 -->
<g id="node5" class="node"><title>Node5</title>
<g id="a_node5"><a xlink:href="../../df/d03/cipioconnection_8c.html#a730b410a0cdbc6a456973c0e51568968" target="_top" xlink:title="CloseIoConnection">
<polygon fill="none" stroke="black" points="846.5,-207.5 846.5,-226.5 946.5,-226.5 946.5,-207.5 846.5,-207.5"/>
<text text-anchor="middle" x="896.5" y="-214.5" font-family="Helvetica,sans-Serif" font-size="10.00">CloseIoConnection</text>
</a>
</g>
</g>
<!-- Node4&#45;&gt;Node5 -->
<g id="edge4" class="edge"><title>Node4&#45;&gt;Node5</title>
<path fill="none" stroke="midnightblue" d="M587.483,-214.763C670.522,-215.366 782.715,-216.181 846.246,-216.642"/>
<polygon fill="midnightblue" stroke="midnightblue" points="587.276,-211.261 577.251,-214.688 587.225,-218.261 587.276,-211.261"/>
</g>
<!-- Node6 -->
<g id="node6" class="node"><title>Node6</title>
<g id="a_node6"><a xlink:href="../../df/d03/cipioconnection_8c.html#ab3282f146a3ea91c90cf14c32206ee8c" target="_top" xlink:title="SetIoConnectionCallbacks">
<polygon fill="none" stroke="black" points="1013.5,-227.5 1013.5,-246.5 1146.5,-246.5 1146.5,-227.5 1013.5,-227.5"/>
<text text-anchor="middle" x="1080" y="-234.5" font-family="Helvetica,sans-Serif" font-size="10.00">SetIoConnectionCallbacks</text>
</a>
</g>
</g>
<!-- Node5&#45;&gt;Node6 -->
<g id="edge5" class="edge"><title>Node5&#45;&gt;Node6</title>
<path fill="none" stroke="midnightblue" d="M956.76,-223.53C974.897,-225.529 994.95,-227.738 1013.48,-229.78"/>
<polygon fill="midnightblue" stroke="midnightblue" points="956.94,-220.029 946.617,-222.412 956.173,-226.987 956.94,-220.029"/>
</g>
<!-- Node7 -->
<g id="node7" class="node"><title>Node7</title>
<g id="a_node7"><a xlink:href="../../de/d45/cipioconnection_8h.html#a43e270b3f9b9f6296b12285c320c95aa" target="_top" xlink:title="Setup all data in order to establish an IO connection. ">
<polygon fill="none" stroke="black" points="1189,-227.5 1189,-246.5 1304,-246.5 1304,-227.5 1189,-227.5"/>
<text text-anchor="middle" x="1246.5" y="-234.5" font-family="Helvetica,sans-Serif" font-size="10.00">EstablishIoConnection</text>
</a>
</g>
</g>
<!-- Node6&#45;&gt;Node7 -->
<g id="edge6" class="edge"><title>Node6&#45;&gt;Node7</title>
<path fill="none" stroke="midnightblue" d="M1157.12,-237C1167.78,-237 1178.58,-237 1188.79,-237"/>
<polygon fill="midnightblue" stroke="midnightblue" points="1156.96,-233.5 1146.96,-237 1156.96,-240.5 1156.96,-233.5"/>
</g>
<!-- Node8 -->
<g id="node8" class="node"><title>Node8</title>
<g id="a_node8"><a xlink:href="../../d2/da3/cipconnectionmanager_8h.html#a5ab0de6894d23e8fe84a6b46797c2212" target="_top" xlink:title="Initialize the data of the connection manager object. ">
<polygon fill="none" stroke="black" points="1340,-311.5 1340,-330.5 1457,-330.5 1457,-311.5 1340,-311.5"/>
<text text-anchor="middle" x="1398.5" y="-318.5" font-family="Helvetica,sans-Serif" font-size="10.00">ConnectionManagerInit</text>
</a>
</g>
</g>
<!-- Node7&#45;&gt;Node8 -->
<g id="edge7" class="edge"><title>Node7&#45;&gt;Node8</title>
<path fill="none" stroke="midnightblue" d="M1273.56,-251.596C1304.27,-268.791 1354.39,-296.861 1380.49,-311.477"/>
<polygon fill="midnightblue" stroke="midnightblue" points="1275.14,-248.468 1264.71,-246.636 1271.72,-254.576 1275.14,-248.468"/>
</g>
<!-- Node9 -->
<g id="node9" class="node"><title>Node9</title>
<g id="a_node9"><a xlink:href="../../d2/dc9/group__CIP__API.html#ga5d4979945d124e28668b264c3823db1c" target="_top" xlink:title="Initialize and setup the CIP&#45;stack. ">
<polygon fill="none" stroke="black" points="1514,-313.5 1514,-332.5 1585,-332.5 1585,-313.5 1514,-313.5"/>
<text text-anchor="middle" x="1549.5" y="-320.5" font-family="Helvetica,sans-Serif" font-size="10.00">CipStackInit</text>
</a>
</g>
</g>
<!-- Node8&#45;&gt;Node9 -->
<g id="edge8" class="edge"><title>Node8&#45;&gt;Node9</title>
<path fill="none" stroke="midnightblue" d="M1467.56,-321.914C1483.6,-322.129 1500.04,-322.35 1513.88,-322.535"/>
<polygon fill="midnightblue" stroke="midnightblue" points="1467.15,-318.408 1457.11,-321.773 1467.06,-325.407 1467.15,-318.408"/>
</g>
<!-- Node10 -->
<g id="node10" class="node"><title>Node10</title>
<g id="a_node10"><a xlink:href="../../d5/dcb/MINGW_2main_8c.html#ad338a7dbc41dc40bcecd0479377ef207" target="_top" xlink:title="main">
<polygon fill="none" stroke="black" points="1642,-334.5 1642,-353.5 1680,-353.5 1680,-334.5 1642,-334.5"/>
<text text-anchor="middle" x="1661" y="-341.5" font-family="Helvetica,sans-Serif" font-size="10.00">main</text>
</a>
</g>
</g>
<!-- Node9&#45;&gt;Node10 -->
<g id="edge9" class="edge"><title>Node9&#45;&gt;Node10</title>
<path fill="none" stroke="midnightblue" d="M1595.11,-331.555C1611.46,-334.69 1629.06,-338.065 1641.8,-340.509"/>
<polygon fill="midnightblue" stroke="midnightblue" points="1595.63,-328.091 1585.15,-329.645 1594.31,-334.965 1595.63,-328.091"/>
</g>
<!-- Node11 -->
<g id="node11" class="node"><title>Node11</title>
<g id="a_node11"><a xlink:href="../../d8/d03/ports_2MINGW_2CMakeLists_8txt.html#a7e00df43a20d627a1732be7766d91097" target="_top" xlink:title="add_library">
<polygon fill="none" stroke="black" points="1716,-334.5 1716,-353.5 1780,-353.5 1780,-334.5 1716,-334.5"/>
<text text-anchor="middle" x="1748" y="-341.5" font-family="Helvetica,sans-Serif" font-size="10.00">add_library</text>
</a>
</g>
</g>
<!-- Node10&#45;&gt;Node11 -->
<g id="edge10" class="edge"><title>Node10&#45;&gt;Node11</title>
<path fill="none" stroke="midnightblue" d="M1690.27,-344C1698.5,-344 1707.55,-344 1715.94,-344"/>
<polygon fill="midnightblue" stroke="midnightblue" points="1690.03,-340.5 1680.03,-344 1690.03,-347.5 1690.03,-340.5"/>
</g>
<!-- Node12 -->
<g id="node12" class="node"><title>Node12</title>
<g id="a_node12"><a xlink:href="../../d8/dce/ports_2CMakeLists_8txt.html#a598fae457555a5fb26e18d4cd8f89de9" target="_top" xlink:title="add_subdirectory">
<polygon fill="none" stroke="black" points="1816,-334.5 1816,-353.5 1907,-353.5 1907,-334.5 1816,-334.5"/>
<text text-anchor="middle" x="1861.5" y="-341.5" font-family="Helvetica,sans-Serif" font-size="10.00">add_subdirectory</text>
</a>
</g>
</g>
<!-- Node11&#45;&gt;Node12 -->
<g id="edge11" class="edge"><title>Node11&#45;&gt;Node12</title>
<path fill="none" stroke="midnightblue" d="M1790.3,-344C1798.63,-344 1807.42,-344 1815.86,-344"/>
<polygon fill="midnightblue" stroke="midnightblue" points="1790.06,-340.5 1780.06,-344 1790.06,-347.5 1790.06,-340.5"/>
</g>
<!-- Node14 -->
<g id="node14" class="node"><title>Node14</title>
<g id="a_node14"><a xlink:href="../../dc/d93/cipclass3connection_8c.html#a6053ab7004c1419bd80faf9aca54bfd3" target="_top" xlink:title="Class3ConnectionTimeoutHandler">
<polygon fill="none" stroke="black" points="616.5,-330.5 616.5,-349.5 782.5,-349.5 782.5,-330.5 616.5,-330.5"/>
<text text-anchor="middle" x="699.5" y="-337.5" font-family="Helvetica,sans-Serif" font-size="10.00">Class3ConnectionTimeoutHandler</text>
</a>
</g>
</g>
<!-- Node13&#45;&gt;Node14 -->
<g id="edge13" class="edge"><title>Node13&#45;&gt;Node14</title>
<path fill="none" stroke="midnightblue" d="M537.399,-311.658C570.2,-317.429 611.7,-324.73 644.365,-330.476"/>
<polygon fill="midnightblue" stroke="midnightblue" points="537.973,-308.205 527.518,-309.92 536.76,-315.1 537.973,-308.205"/>
</g>
<!-- Node15 -->
<g id="node15" class="node"><title>Node15</title>
<g id="a_node15"><a xlink:href="../../d2/d11/cipclass3connection_8h.html#a45bd741b44137164c07a6ce09a7a9a9d" target="_top" xlink:title="Check if Class3 connection is available and if yes setup all data. ">
<polygon fill="none" stroke="black" points="828,-311.5 828,-330.5 965,-330.5 965,-311.5 828,-311.5"/>
<text text-anchor="middle" x="896.5" y="-318.5" font-family="Helvetica,sans-Serif" font-size="10.00">EstablishClass3Connection</text>
</a>
</g>
</g>
<!-- Node13&#45;&gt;Node15 -->
<g id="edge16" class="edge"><title>Node13&#45;&gt;Node15</title>
<path fill="none" stroke="midnightblue" d="M538.077,-304.557C613.19,-308.012 746.993,-314.168 827.858,-317.888"/>
<polygon fill="midnightblue" stroke="midnightblue" points="538.03,-301.051 527.88,-304.088 537.708,-308.044 538.03,-301.051"/>
</g>
<!-- Node14&#45;&gt;Node15 -->
<g id="edge14" class="edge"><title>Node14&#45;&gt;Node15</title>
<path fill="none" stroke="midnightblue" d="M792.594,-331.027C804.501,-329.867 816.516,-328.696 827.926,-327.584"/>
<polygon fill="midnightblue" stroke="midnightblue" points="792.246,-327.544 782.632,-331.997 792.925,-334.511 792.246,-327.544"/>
</g>
<!-- Node15&#45;&gt;Node8 -->
<g id="edge15" class="edge"><title>Node15&#45;&gt;Node8</title>
<path fill="none" stroke="midnightblue" d="M975.321,-321C1076.19,-321 1249.78,-321 1339.72,-321"/>
<polygon fill="midnightblue" stroke="midnightblue" points="975.192,-317.5 965.192,-321 975.192,-324.5 975.192,-317.5"/>
</g>
<!-- Node17 -->
<g id="node17" class="node"><title>Node17</title>
<g id="a_node17"><a xlink:href="../../db/d4f/generic__networkhandler_8c.html#ab561fc66fe48a0cf95be3d152b297dd9" target="_top" xlink:title="CheckEncapsulationInactivity">
<polygon fill="none" stroke="black" points="626.5,-407.5 626.5,-426.5 772.5,-426.5 772.5,-407.5 626.5,-407.5"/>
<text text-anchor="middle" x="699.5" y="-414.5" font-family="Helvetica,sans-Serif" font-size="10.00">CheckEncapsulationInactivity</text>
</a>
</g>
</g>
<!-- Node16&#45;&gt;Node17 -->
<g id="edge18" class="edge"><title>Node16&#45;&gt;Node17</title>
<path fill="none" stroke="midnightblue" d="M348.813,-389.828C360.828,-392.581 373.843,-395.223 386,-397 467.9,-408.971 562.915,-413.777 626.477,-415.706"/>
<polygon fill="midnightblue" stroke="midnightblue" points="349.533,-386.401 338.996,-387.505 347.921,-393.213 349.533,-386.401"/>
</g>
<!-- Node18 -->
<g id="node18" class="node"><title>Node18</title>
<g id="a_node18"><a xlink:href="../../da/dc2/generic__networkhandler_8h.html#a2f01af81d3e5018d9980e2bc28c9078a" target="_top" xlink:title="NetworkHandlerProcessOnce">
<polygon fill="none" stroke="black" points="1007,-445.5 1007,-464.5 1153,-464.5 1153,-445.5 1007,-445.5"/>
<text text-anchor="middle" x="1080" y="-452.5" font-family="Helvetica,sans-Serif" font-size="10.00">NetworkHandlerProcessOnce</text>
</a>
</g>
</g>
<!-- Node16&#45;&gt;Node18 -->
<g id="edge35" class="edge"><title>Node16&#45;&gt;Node18</title>
<path fill="none" stroke="midnightblue" d="M311.696,-397.02C323.772,-422.307 348.99,-465.906 386,-484 621.295,-599.032 957.005,-497.666 1052.66,-464.576"/>
<polygon fill="midnightblue" stroke="midnightblue" points="314.791,-395.371 307.457,-387.725 308.422,-398.276 314.791,-395.371"/>
</g>
<!-- Node20 -->
<g id="node20" class="node"><title>Node20</title>
<g id="a_node20"><a xlink:href="../../d2/dc9/group__CIP__API.html#ga00a23c1c86472edf2ed679089ae8efc1" target="_top" xlink:title="Inform the encapsulation layer that the remote host has closed the connection. ">
<polygon fill="none" stroke="black" points="443,-251.5 443,-270.5 520,-270.5 520,-251.5 443,-251.5"/>
<text text-anchor="middle" x="481.5" y="-258.5" font-family="Helvetica,sans-Serif" font-size="10.00">CloseSession</text>
</a>
</g>
</g>
<!-- Node16&#45;&gt;Node20 -->
<g id="edge22" class="edge"><title>Node16&#45;&gt;Node20</title>
<path fill="none" stroke="midnightblue" d="M314.228,-359.809C328.024,-338.076 354.054,-302.246 386,-283 403.026,-272.743 424.434,-267.267 442.567,-264.344"/>
<polygon fill="midnightblue" stroke="midnightblue" points="311.183,-358.08 308.928,-368.432 317.146,-361.745 311.183,-358.08"/>
</g>
<!-- Node23 -->
<g id="node23" class="node"><title>Node23</title>
<g id="a_node23"><a xlink:href="../../d7/df9/encap_8h.html#ad083888333d3ceec1576126a88eeaca7" target="_top" xlink:title="CloseSessionBySessionHandle">
<polygon fill="none" stroke="black" points="404,-330.5 404,-349.5 559,-349.5 559,-330.5 404,-330.5"/>
<text text-anchor="middle" x="481.5" y="-337.5" font-family="Helvetica,sans-Serif" font-size="10.00">CloseSessionBySessionHandle</text>
</a>
</g>
</g>
<!-- Node16&#45;&gt;Node23 -->
<g id="edge26" class="edge"><title>Node16&#45;&gt;Node23</title>
<path fill="none" stroke="midnightblue" d="M353.732,-366.196C364.373,-363.761 375.548,-361.254 386,-359 400.886,-355.79 417.13,-352.461 431.886,-349.504"/>
<polygon fill="midnightblue" stroke="midnightblue" points="352.693,-362.843 343.733,-368.497 354.263,-369.665 352.693,-362.843"/>
</g>
<!-- Node24 -->
<g id="node24" class="node"><title>Node24</title>
<g id="a_node24"><a xlink:href="../../d4/d91/group__ENCAP.html#ga1261bd2441f744c38d7a3f8d8c16c391" target="_top" xlink:title="Shutdown the encapsulation layer. ">
<polygon fill="none" stroke="black" points="419.5,-368.5 419.5,-387.5 543.5,-387.5 543.5,-368.5 419.5,-368.5"/>
<text text-anchor="middle" x="481.5" y="-375.5" font-family="Helvetica,sans-Serif" font-size="10.00">EncapsulationShutDown</text>
</a>
</g>
</g>
<!-- Node16&#45;&gt;Node24 -->
<g id="edge28" class="edge"><title>Node16&#45;&gt;Node24</title>
<path fill="none" stroke="midnightblue" d="M357.484,-378C376.986,-378 399.14,-378 419.223,-378"/>
<polygon fill="midnightblue" stroke="midnightblue" points="357.253,-374.5 347.253,-378 357.253,-381.5 357.253,-374.5"/>
</g>
<!-- Node26 -->
<g id="node26" class="node"><title>Node26</title>
<g id="a_node26"><a xlink:href="../../d2/dbd/encap_8c.html#a601cd19c88f03fd742f098a1bf5b9e85" target="_top" xlink:title="HandleReceivedUnregister\lSessionCommand">
<polygon fill="none" stroke="black" points="414.5,-445 414.5,-475 548.5,-475 548.5,-445 414.5,-445"/>
<text text-anchor="start" x="422.5" y="-463" font-family="Helvetica,sans-Serif" font-size="10.00">HandleReceivedUnregister</text>
<text text-anchor="middle" x="481.5" y="-452" font-family="Helvetica,sans-Serif" font-size="10.00">SessionCommand</text>
</a>
</g>
</g>
<!-- Node16&#45;&gt;Node26 -->
<g id="edge31" class="edge"><title>Node16&#45;&gt;Node26</title>
<path fill="none" stroke="midnightblue" d="M324.55,-393.385C340.732,-404.677 363.976,-419.768 386,-430 398.176,-435.657 411.706,-440.651 424.633,-444.862"/>
<polygon fill="midnightblue" stroke="midnightblue" points="326.519,-390.491 316.338,-387.557 322.467,-396.199 326.519,-390.491"/>
</g>
<!-- Node17&#45;&gt;Node18 -->
<g id="edge19" class="edge"><title>Node17&#45;&gt;Node18</title>
<path fill="none" stroke="midnightblue" d="M782.845,-421.706C836.524,-425.189 908.042,-430.613 971,-438 988.249,-440.024 1006.96,-442.773 1023.9,-445.47"/>
<polygon fill="midnightblue" stroke="midnightblue" points="782.898,-418.202 772.695,-421.056 782.451,-425.188 782.898,-418.202"/>
</g>
<!-- Node18&#45;&gt;Node10 -->
<g id="edge21" class="edge"><title>Node18&#45;&gt;Node10</title>
<path fill="none" stroke="midnightblue" d="M1163.33,-450.615C1205.54,-447.702 1257.69,-443.077 1304,-436 1439.91,-415.229 1475.75,-413.024 1606,-369 1618.33,-364.832 1631.61,-358.71 1641.91,-353.568"/>
<polygon fill="midnightblue" stroke="midnightblue" points="1162.84,-447.14 1153.09,-451.301 1163.31,-454.124 1162.84,-447.14"/>
</g>
<!-- Node19 -->
<g id="node19" class="node"><title>Node19</title>
<g id="a_node19"><a xlink:href="../../d9/dfb/POSIX_2main_8c.html#acd4e45a35a64f9cb29b59f63492b61d2" target="_top" xlink:title="Signal handler function for ending stack execution. ">
<polygon fill="none" stroke="black" points="1212.5,-407.5 1212.5,-426.5 1280.5,-426.5 1280.5,-407.5 1212.5,-407.5"/>
<text text-anchor="middle" x="1246.5" y="-414.5" font-family="Helvetica,sans-Serif" font-size="10.00">LeaveStack</text>
</a>
</g>
</g>
<!-- Node18&#45;&gt;Node19 -->
<g id="edge20" class="edge"><title>Node18&#45;&gt;Node19</title>
<path fill="none" stroke="midnightblue" d="M1132.59,-443.082C1158.62,-437.069 1189.43,-429.952 1212.29,-424.673"/>
<polygon fill="midnightblue" stroke="midnightblue" points="1131.47,-439.75 1122.51,-445.411 1133.04,-446.57 1131.47,-439.75"/>
</g>
<!-- Node21 -->
<g id="node21" class="node"><title>Node21</title>
<g id="a_node21"><a xlink:href="../../d7/df9/encap_8h.html#a0101714be726ab1b21125b6a82ac7a56" target="_top" xlink:title="CloseEncapsulationSession\lBySockAddr">
<polygon fill="none" stroke="black" points="630,-243 630,-273 769,-273 769,-243 630,-243"/>
<text text-anchor="start" x="638" y="-261" font-family="Helvetica,sans-Serif" font-size="10.00">CloseEncapsulationSession</text>
<text text-anchor="middle" x="699.5" y="-250" font-family="Helvetica,sans-Serif" font-size="10.00">BySockAddr</text>
</a>
</g>
</g>
<!-- Node20&#45;&gt;Node21 -->
<g id="edge23" class="edge"><title>Node20&#45;&gt;Node21</title>
<path fill="none" stroke="midnightblue" d="M530.481,-260.334C559.717,-259.928 597.552,-259.402 629.915,-258.953"/>
<polygon fill="midnightblue" stroke="midnightblue" points="530.075,-256.839 520.124,-260.477 530.172,-263.838 530.075,-256.839"/>
</g>
<!-- Node22 -->
<g id="node22" class="node"><title>Node22</title>
<g id="a_node22"><a xlink:href="../../df/d03/cipioconnection_8c.html#a7e4923f4b027d489d9933b52f6fd7007" target="_top" xlink:title="HandleIoConnectionTimeOut">
<polygon fill="none" stroke="black" points="825,-247.5 825,-266.5 968,-266.5 968,-247.5 825,-247.5"/>
<text text-anchor="middle" x="896.5" y="-254.5" font-family="Helvetica,sans-Serif" font-size="10.00">HandleIoConnectionTimeOut</text>
</a>
</g>
</g>
<!-- Node21&#45;&gt;Node22 -->
<g id="edge24" class="edge"><title>Node21&#45;&gt;Node22</title>
<path fill="none" stroke="midnightblue" d="M779.498,-257.595C794.467,-257.518 810.04,-257.438 824.734,-257.363"/>
<polygon fill="midnightblue" stroke="midnightblue" points="779.232,-254.096 769.25,-257.647 779.268,-261.096 779.232,-254.096"/>
</g>
<!-- Node22&#45;&gt;Node6 -->
<g id="edge25" class="edge"><title>Node22&#45;&gt;Node6</title>
<path fill="none" stroke="midnightblue" d="M978.369,-248.089C990.036,-246.803 1001.92,-245.493 1013.25,-244.245"/>
<polygon fill="midnightblue" stroke="midnightblue" points="977.749,-244.636 968.192,-249.21 978.516,-251.594 977.749,-244.636"/>
</g>
<!-- Node23&#45;&gt;Node14 -->
<g id="edge27" class="edge"><title>Node23&#45;&gt;Node14</title>
<path fill="none" stroke="midnightblue" d="M569.379,-340C584.929,-340 601.088,-340 616.496,-340"/>
<polygon fill="midnightblue" stroke="midnightblue" points="569.262,-336.5 559.262,-340 569.262,-343.5 569.262,-336.5"/>
</g>
<!-- Node25 -->
<g id="node25" class="node"><title>Node25</title>
<g id="a_node25"><a xlink:href="../../d2/dc9/group__CIP__API.html#gaa57b527530adc2acda6febc500fd6831" target="_top" xlink:title="Shutdown of the CIP stack. ">
<polygon fill="none" stroke="black" points="1348,-359.5 1348,-378.5 1449,-378.5 1449,-359.5 1348,-359.5"/>
<text text-anchor="middle" x="1398.5" y="-366.5" font-family="Helvetica,sans-Serif" font-size="10.00">ShutdownCipStack</text>
</a>
</g>
</g>
<!-- Node24&#45;&gt;Node25 -->
<g id="edge29" class="edge"><title>Node24&#45;&gt;Node25</title>
<path fill="none" stroke="midnightblue" d="M553.974,-378C636.317,-378 775.685,-378 895.5,-378 895.5,-378 895.5,-378 1081,-378 1175.41,-378 1285.6,-373.949 1347.9,-371.283"/>
<polygon fill="midnightblue" stroke="midnightblue" points="553.727,-374.5 543.727,-378 553.727,-381.5 553.727,-374.5"/>
</g>
<!-- Node25&#45;&gt;Node10 -->
<g id="edge30" class="edge"><title>Node25&#45;&gt;Node10</title>
<path fill="none" stroke="midnightblue" d="M1459.4,-363.252C1518.25,-357.604 1604.47,-349.329 1641.73,-345.753"/>
<polygon fill="midnightblue" stroke="midnightblue" points="1458.73,-359.799 1449.11,-364.239 1459.4,-366.767 1458.73,-359.799"/>
</g>
<!-- Node27 -->
<g id="node27" class="node"><title>Node27</title>
<g id="a_node27"><a xlink:href="../../d2/dc9/group__CIP__API.html#ga16eaeeb12ba23b5a75c8e5902a33d70a" target="_top" xlink:title="Notify the encapsulation layer that an explicit message has been received via TCP. ">
<polygon fill="none" stroke="black" points="621.5,-450.5 621.5,-469.5 777.5,-469.5 777.5,-450.5 621.5,-450.5"/>
<text text-anchor="middle" x="699.5" y="-457.5" font-family="Helvetica,sans-Serif" font-size="10.00">HandleReceivedExplictTcpData</text>
</a>
</g>
</g>
<!-- Node26&#45;&gt;Node27 -->
<g id="edge32" class="edge"><title>Node26&#45;&gt;Node27</title>
<path fill="none" stroke="midnightblue" d="M558.893,-460C579.162,-460 601.059,-460 621.367,-460"/>
<polygon fill="midnightblue" stroke="midnightblue" points="558.775,-456.5 548.775,-460 558.775,-463.5 558.775,-456.5"/>
</g>
<!-- Node28 -->
<g id="node28" class="node"><title>Node28</title>
<g id="a_node28"><a xlink:href="../../db/d4f/generic__networkhandler_8c.html#aca5593b7dd39d7a7b437999a367102d6" target="_top" xlink:title="Handles data on an established TCP connection, processed connection is given by socket. ">
<polygon fill="none" stroke="black" points="832.5,-447.5 832.5,-466.5 960.5,-466.5 960.5,-447.5 832.5,-447.5"/>
<text text-anchor="middle" x="896.5" y="-454.5" font-family="Helvetica,sans-Serif" font-size="10.00">HandleDataOnTcpSocket</text>
</a>
</g>
</g>
<!-- Node27&#45;&gt;Node28 -->
<g id="edge33" class="edge"><title>Node27&#45;&gt;Node28</title>
<path fill="none" stroke="midnightblue" d="M787.896,-458.655C802.913,-458.424 818.253,-458.188 832.471,-457.97"/>
<polygon fill="midnightblue" stroke="midnightblue" points="787.514,-455.161 777.569,-458.814 787.622,-462.16 787.514,-455.161"/>
</g>
<!-- Node28&#45;&gt;Node18 -->
<g id="edge34" class="edge"><title>Node28&#45;&gt;Node18</title>
<path fill="none" stroke="midnightblue" d="M971.025,-456.19C982.89,-456.059 995.162,-455.924 1006.99,-455.793"/>
<polygon fill="midnightblue" stroke="midnightblue" points="970.686,-452.693 960.725,-456.303 970.763,-459.693 970.686,-452.693"/>
</g>
<!-- Node29&#45;&gt;Node10 -->
<g id="edge37" class="edge"><title>Node29&#45;&gt;Node10</title>
<path fill="none" stroke="midnightblue" d="M1560.59,-162.433C1583.28,-203.88 1637.68,-303.24 1654.77,-334.45"/>
<polygon fill="midnightblue" stroke="midnightblue" points="1563.65,-160.737 1555.78,-153.646 1557.51,-164.099 1563.65,-160.737"/>
</g>
<!-- Node31 -->
<g id="node31" class="node"><title>Node31</title>
<g id="a_node31"><a xlink:href="../../df/d03/cipioconnection_8c.html#add645b42730b2cea369523949c6b9745" target="_top" xlink:title="Open a Point2Point connection dependent on pa_direction. ">
<polygon fill="none" stroke="black" points="626.5,-29 626.5,-59 772.5,-59 772.5,-29 626.5,-29"/>
<text text-anchor="start" x="634.5" y="-47" font-family="Helvetica,sans-Serif" font-size="10.00">OpenConsumingPointToPoint</text>
<text text-anchor="middle" x="699.5" y="-36" font-family="Helvetica,sans-Serif" font-size="10.00">Connection</text>
</a>
</g>
</g>
<!-- Node30&#45;&gt;Node31 -->
<g id="edge39" class="edge"><title>Node30&#45;&gt;Node31</title>
<path fill="none" stroke="midnightblue" d="M329.876,-131.515C345.745,-123.315 366.574,-113.443 386,-107 466.372,-80.342 562.297,-63.0455 626.476,-53.4426"/>
<polygon fill="midnightblue" stroke="midnightblue" points="327.905,-128.597 320.693,-136.358 331.171,-134.788 327.905,-128.597"/>
</g>
<!-- Node33 -->
<g id="node33" class="node"><title>Node33</title>
<g id="a_node33"><a xlink:href="../../df/d03/cipioconnection_8c.html#aa3b58fd216ec6712abc29ef84b33006d" target="_top" xlink:title="OpenProducingPointToPoint\lConnection">
<polygon fill="none" stroke="black" points="629.5,-155 629.5,-185 769.5,-185 769.5,-155 629.5,-155"/>
<text text-anchor="start" x="637.5" y="-173" font-family="Helvetica,sans-Serif" font-size="10.00">OpenProducingPointToPoint</text>
<text text-anchor="middle" x="699.5" y="-162" font-family="Helvetica,sans-Serif" font-size="10.00">Connection</text>
</a>
</g>
</g>
<!-- Node30&#45;&gt;Node33 -->
<g id="edge42" class="edge"><title>Node30&#45;&gt;Node33</title>
<path fill="none" stroke="midnightblue" d="M360.479,-149.462C431.605,-153.784 553.169,-161.17 629.493,-165.807"/>
<polygon fill="midnightblue" stroke="midnightblue" points="360.557,-145.96 350.363,-148.847 360.132,-152.947 360.557,-145.96"/>
</g>
<!-- Node34 -->
<g id="node34" class="node"><title>Node34</title>
<g id="a_node34"><a xlink:href="../../df/d03/cipioconnection_8c.html#a9e2ce4666173987646cf60ce3422d7b4" target="_top" xlink:title="Open a Multicast connection dependent on direction. ">
<polygon fill="none" stroke="black" points="417,-116.5 417,-135.5 546,-135.5 546,-116.5 417,-116.5"/>
<text text-anchor="middle" x="481.5" y="-123.5" font-family="Helvetica,sans-Serif" font-size="10.00">OpenMulticastConnection</text>
</a>
</g>
</g>
<!-- Node30&#45;&gt;Node34 -->
<g id="edge44" class="edge"><title>Node30&#45;&gt;Node34</title>
<path fill="none" stroke="midnightblue" d="M360.071,-139.608C378.099,-137.571 398.168,-135.303 416.673,-133.212"/>
<polygon fill="midnightblue" stroke="midnightblue" points="359.548,-136.144 350.005,-140.745 360.334,-143.1 359.548,-136.144"/>
</g>
<!-- Node32 -->
<g id="node32" class="node"><title>Node32</title>
<g id="a_node32"><a xlink:href="../../de/d45/cipioconnection_8h.html#a53b85bce88b582414fc282c95f5626f4" target="_top" xlink:title="Take the data given in the connection object structure and open the necessary communication channels...">
<polygon fill="none" stroke="black" points="822,-116.5 822,-135.5 971,-135.5 971,-116.5 822,-116.5"/>
<text text-anchor="middle" x="896.5" y="-123.5" font-family="Helvetica,sans-Serif" font-size="10.00">OpenCommunicationChannels</text>
</a>
</g>
</g>
<!-- Node31&#45;&gt;Node32 -->
<g id="edge40" class="edge"><title>Node31&#45;&gt;Node32</title>
<path fill="none" stroke="midnightblue" d="M756.047,-62.5283C766.087,-66.1493 776.409,-70.053 786,-74 818.501,-87.375 855.196,-105.429 876.783,-116.365"/>
<polygon fill="midnightblue" stroke="midnightblue" points="757.135,-59.2006 746.541,-59.151 754.792,-65.7967 757.135,-59.2006"/>
</g>
<!-- Node32&#45;&gt;Node7 -->
<g id="edge41" class="edge"><title>Node32&#45;&gt;Node7</title>
<path fill="none" stroke="midnightblue" d="M937.301,-138.695C1007.72,-161.155 1152.73,-207.411 1215.48,-227.424"/>
<polygon fill="midnightblue" stroke="midnightblue" points="938.062,-135.264 927.471,-135.56 935.935,-141.933 938.062,-135.264"/>
</g>
<!-- Node33&#45;&gt;Node32 -->
<g id="edge43" class="edge"><title>Node33&#45;&gt;Node32</title>
<path fill="none" stroke="midnightblue" d="M776.91,-152.759C802.915,-146.891 831.022,-140.549 853.343,-135.512"/>
<polygon fill="midnightblue" stroke="midnightblue" points="776.047,-149.365 767.063,-154.981 777.588,-156.194 776.047,-149.365"/>
</g>
<!-- Node34&#45;&gt;Node32 -->
<g id="edge45" class="edge"><title>Node34&#45;&gt;Node32</title>
<path fill="none" stroke="midnightblue" d="M545.564,-114.941C566.905,-111.7 590.921,-108.599 613,-107 689.688,-101.447 709.395,-100.403 786,-107 807.53,-108.854 831.18,-112.723 850.975,-116.488"/>
<polygon fill="midnightblue" stroke="midnightblue" points="544.986,-111.489 535.644,-116.486 546.063,-118.405 544.986,-111.489"/>
</g>
<!-- Node35 -->
<g id="node35" class="node"><title>Node35</title>
<g id="a_node35"><a xlink:href="../../df/d03/cipioconnection_8c.html#a5dea6fc1be0ed4ecf5d9e4f932d52106" target="_top" xlink:title="OpenProducingMulticastConnection">
<polygon fill="none" stroke="black" points="613,-116.5 613,-135.5 786,-135.5 786,-116.5 613,-116.5"/>
<text text-anchor="middle" x="699.5" y="-123.5" font-family="Helvetica,sans-Serif" font-size="10.00">OpenProducingMulticastConnection</text>
</a>
</g>
</g>
<!-- Node34&#45;&gt;Node35 -->
<g id="edge46" class="edge"><title>Node34&#45;&gt;Node35</title>
<path fill="none" stroke="midnightblue" d="M556.374,-126C574.568,-126 594.201,-126 612.898,-126"/>
<polygon fill="midnightblue" stroke="midnightblue" points="556.139,-122.5 546.139,-126 556.139,-129.5 556.139,-122.5"/>
</g>
<!-- Node35&#45;&gt;Node32 -->
<g id="edge47" class="edge"><title>Node35&#45;&gt;Node32</title>
<path fill="none" stroke="midnightblue" d="M796.174,-126C804.836,-126 813.518,-126 821.945,-126"/>
<polygon fill="midnightblue" stroke="midnightblue" points="796.03,-122.5 786.03,-126 796.03,-129.5 796.03,-122.5"/>
</g>
</g>
</svg>
