<?xml version="1.0" encoding="UTF-8" standalone="no"?>
<!DOCTYPE svg PUBLIC "-//W3C//DTD SVG 1.1//EN"
 "http://www.w3.org/Graphics/SVG/1.1/DTD/svg11.dtd">
<!-- Generated by graphviz version 2.36.0 (20140111.2315)
 -->
<!-- Title: getMicroSeconds Pages: 1 -->
<svg width="614pt" height="66pt"
 viewBox="0.00 0.00 614.00 66.00" xmlns="http://www.w3.org/2000/svg" xmlns:xlink="http://www.w3.org/1999/xlink">
<g id="graph0" class="graph" transform="scale(1 1) rotate(0) translate(4 62)">
<title>getMicroSeconds</title>
<!-- Node1 -->
<g id="node1" class="node"><title>Node1</title>
<polygon fill="#bfbfbf" stroke="black" points="0,-19.5 0,-38.5 92,-38.5 92,-19.5 0,-19.5"/>
<text text-anchor="middle" x="46" y="-26.5" font-family="Helvetica,sans-Serif" font-size="10.00">getMicroSeconds</text>
</g>
<!-- Node2 -->
<g id="node2" class="node"><title>Node2</title>
<g id="a_node2"><a xlink:href="../../d0/d47/networkhandler_8h.html#a2d91de751b888e7b5a5c2e2692fd4492" target="_top" xlink:title="Returns current time in milliseconds from monotonic time base, please note that this does not represe...">
<polygon fill="none" stroke="black" points="128,-19.5 128,-38.5 216,-38.5 216,-19.5 128,-19.5"/>
<text text-anchor="middle" x="172" y="-26.5" font-family="Helvetica,sans-Serif" font-size="10.00">GetMilliSeconds</text>
</a>
</g>
</g>
<!-- Node1&#45;&gt;Node2 -->
<g id="edge1" class="edge"><title>Node1&#45;&gt;Node2</title>
<path fill="none" stroke="midnightblue" d="M102.377,-29C110.893,-29 119.577,-29 127.778,-29"/>
<polygon fill="midnightblue" stroke="midnightblue" points="102.118,-25.5001 92.1176,-29 102.118,-32.5001 102.118,-25.5001"/>
</g>
<!-- Node3 -->
<g id="node3" class="node"><title>Node3</title>
<g id="a_node3"><a xlink:href="../../da/dc2/generic__networkhandler_8h.html#aa49065f73f4d0f0ab04fb0b35d791e5d" target="_top" xlink:title="The platform independent part of network handler initialization routine. ">
<polygon fill="none" stroke="black" points="263.5,-38.5 263.5,-57.5 386.5,-57.5 386.5,-38.5 263.5,-38.5"/>
<text text-anchor="middle" x="325" y="-45.5" font-family="Helvetica,sans-Serif" font-size="10.00">NetworkHandlerInitialize</text>
</a>
</g>
</g>
<!-- Node2&#45;&gt;Node3 -->
<g id="edge2" class="edge"><title>Node2&#45;&gt;Node3</title>
<path fill="none" stroke="midnightblue" d="M226.495,-35.7311C238.402,-37.2294 251.109,-38.8283 263.283,-40.3601"/>
<polygon fill="midnightblue" stroke="midnightblue" points="226.629,-32.2205 216.271,-34.4446 225.755,-39.1658 226.629,-32.2205"/>
</g>
<!-- Node5 -->
<g id="node5" class="node"><title>Node5</title>
<g id="a_node5"><a xlink:href="../../da/dc2/generic__networkhandler_8h.html#a2f01af81d3e5018d9980e2bc28c9078a" target="_top" xlink:title="NetworkHandlerProcessOnce">
<polygon fill="none" stroke="black" points="252,-0.5 252,-19.5 398,-19.5 398,-0.5 252,-0.5"/>
<text text-anchor="middle" x="325" y="-7.5" font-family="Helvetica,sans-Serif" font-size="10.00">NetworkHandlerProcessOnce</text>
</a>
</g>
</g>
<!-- Node2&#45;&gt;Node5 -->
<g id="edge4" class="edge"><title>Node2&#45;&gt;Node5</title>
<path fill="none" stroke="midnightblue" d="M226.203,-22.3056C234.533,-21.2575 243.26,-20.1593 251.927,-19.0687"/>
<polygon fill="midnightblue" stroke="midnightblue" points="225.755,-18.8342 216.271,-23.5554 226.629,-25.7795 225.755,-18.8342"/>
</g>
<!-- Node4 -->
<g id="node4" class="node"><title>Node4</title>
<g id="a_node4"><a xlink:href="../../d5/dcb/MINGW_2main_8c.html#ad338a7dbc41dc40bcecd0479377ef207" target="_top" xlink:title="main">
<polygon fill="none" stroke="black" points="464,-38.5 464,-57.5 502,-57.5 502,-38.5 464,-38.5"/>
<text text-anchor="middle" x="483" y="-45.5" font-family="Helvetica,sans-Serif" font-size="10.00">main</text>
</a>
</g>
</g>
<!-- Node3&#45;&gt;Node4 -->
<g id="edge3" class="edge"><title>Node3&#45;&gt;Node4</title>
<path fill="none" stroke="midnightblue" d="M396.875,-48C421.54,-48 447.163,-48 463.768,-48"/>
<polygon fill="midnightblue" stroke="midnightblue" points="396.76,-44.5001 386.76,-48 396.76,-51.5001 396.76,-44.5001"/>
</g>
<!-- Node5&#45;&gt;Node4 -->
<g id="edge7" class="edge"><title>Node5&#45;&gt;Node4</title>
<path fill="none" stroke="midnightblue" d="M375.309,-22.0112C405.476,-29.3596 442.296,-38.3286 463.847,-43.5782"/>
<polygon fill="midnightblue" stroke="midnightblue" points="375.91,-18.5552 365.365,-19.589 374.253,-25.3563 375.91,-18.5552"/>
</g>
<!-- Node6 -->
<g id="node6" class="node"><title>Node6</title>
<g id="a_node6"><a xlink:href="../../d9/dfb/POSIX_2main_8c.html#a68147675261e664799874644a2e2179d" target="_top" xlink:title="Signal handler function for ending stack execution. ">
<polygon fill="none" stroke="black" points="434,-0.5 434,-19.5 532,-19.5 532,-0.5 434,-0.5"/>
<text text-anchor="middle" x="483" y="-7.5" font-family="Helvetica,sans-Serif" font-size="10.00">executeEventLoop</text>
</a>
</g>
</g>
<!-- Node5&#45;&gt;Node6 -->
<g id="edge5" class="edge"><title>Node5&#45;&gt;Node6</title>
<path fill="none" stroke="midnightblue" d="M408.322,-10C417.054,-10 425.714,-10 433.862,-10"/>
<polygon fill="midnightblue" stroke="midnightblue" points="408.064,-6.5001 398.064,-10 408.064,-13.5001 408.064,-6.5001"/>
</g>
<!-- Node7 -->
<g id="node7" class="node"><title>Node7</title>
<g id="a_node7"><a xlink:href="../../d9/dfb/POSIX_2main_8c.html#ad338a7dbc41dc40bcecd0479377ef207" target="_top" xlink:title="main">
<polygon fill="none" stroke="black" points="568,-0.5 568,-19.5 606,-19.5 606,-0.5 568,-0.5"/>
<text text-anchor="middle" x="587" y="-7.5" font-family="Helvetica,sans-Serif" font-size="10.00">main</text>
</a>
</g>
</g>
<!-- Node6&#45;&gt;Node7 -->
<g id="edge6" class="edge"><title>Node6&#45;&gt;Node7</title>
<path fill="none" stroke="midnightblue" d="M542.217,-10C551.558,-10 560.569,-10 567.963,-10"/>
<polygon fill="midnightblue" stroke="midnightblue" points="542.013,-6.5001 532.013,-10 542.013,-13.5001 542.013,-6.5001"/>
</g>
</g>
</svg>
