<?xml version="1.0" encoding="UTF-8" standalone="no"?>
<!DOCTYPE svg PUBLIC "-//W3C//DTD SVG 1.1//EN"
 "http://www.w3.org/Graphics/SVG/1.1/DTD/svg11.dtd">
<!-- Generated by graphviz version 2.38.0 (20140413.2041)
 -->
<!-- Title: SetQosOnSocket Pages: 1 -->
<!--zoomable 230 -->
<svg id="main" version="1.1" xmlns="http://www.w3.org/2000/svg" xmlns:xlink="http://www.w3.org/1999/xlink" xml:space="preserve" onload="init(evt)">
<style type="text/css"><![CDATA[
.edge:hover path { stroke: red; }
.edge:hover polygon { stroke: red; fill: red; }
]]></style>
<script type="text/javascript"><![CDATA[
var edges = document.getElementsByTagName('g');
if (edges && edges.length) {
  for (var i=0;i<edges.length;i++) {
    if (edges[i].id.substr(0,4)=='edge') {
      edges[i].setAttribute('class','edge');
    }
  }
}
]]></script>
        <defs>
                <circle id="rim" cx="0" cy="0" r="7"/>
                <circle id="rim2" cx="0" cy="0" r="3.5"/>
                <g id="zoomPlus">
                        <use xlink:href="#rim" fill="#404040">
                                <set attributeName="fill" to="#808080" begin="zoomplus.mouseover" end="zoomplus.mouseout"/>
                        </use>
                        <path d="M-4,0h8M0,-4v8" fill="none" stroke="white" stroke-width="1.5" pointer-events="none"/>
                </g>
                <g id="zoomMin">
                        <use xlink:href="#rim" fill="#404040">
                                <set attributeName="fill" to="#808080" begin="zoomminus.mouseover" end="zoomminus.mouseout"/>
                        </use>
                        <path d="M-4,0h8" fill="none" stroke="white" stroke-width="1.5" pointer-events="none"/>
                </g>
                <g id="dirArrow">
                        <path fill="none" stroke="white" stroke-width="1.5" d="M0,-3.0v7 M-2.5,-0.5L0,-3.0L2.5,-0.5"/>
                </g>
               <g id="resetDef">
                       <use xlink:href="#rim2" fill="#404040">
                               <set attributeName="fill" to="#808080" begin="reset.mouseover" end="reset.mouseout"/>
                       </use>
               </g>
        </defs>

<script type="text/javascript">
var viewWidth = 1569;
var viewHeight = 230;
var sectionId = 'dynsection-5';
</script>
<script xlink:href="../../svgpan.js"/>
<svg id="graph" class="graph">
<g id="viewport">
<title>SetQosOnSocket</title>
<!-- Node1 -->
<g id="node1" class="node"><title>Node1</title>
<polygon fill="#bfbfbf" stroke="black" points="0,-120.5 0,-139.5 93,-139.5 93,-120.5 0,-120.5"/>
<text text-anchor="middle" x="46.5" y="-127.5" font-family="Helvetica,sans-Serif" font-size="10.00">SetQosOnSocket</text>
</g>
<!-- Node2 -->
<g id="node2" class="node"><title>Node2</title>
<g id="a_node2"><a xlink:href="../../db/d4f/generic__networkhandler_8c.html#a8c1688da4bc37416162f4ba5ac436294" target="_top" xlink:title="handle any connection request coming in the TCP server socket. ">
<polygon fill="none" stroke="black" points="129,-148 129,-178 273,-178 273,-148 129,-148"/>
<text text-anchor="start" x="137" y="-166" font-family="Helvetica,sans-Serif" font-size="10.00">CheckAndHandleTcpListener</text>
<text text-anchor="middle" x="201" y="-155" font-family="Helvetica,sans-Serif" font-size="10.00">Socket</text>
</a>
</g>
</g>
<!-- Node1&#45;&gt;Node2 -->
<g id="edge1" class="edge"><title>Node1&#45;&gt;Node2</title>
<path fill="none" stroke="midnightblue" d="M101.535,-141.693C110.886,-143.716 120.725,-145.845 130.42,-147.943"/>
<polygon fill="midnightblue" stroke="midnightblue" points="102.123,-138.239 91.6093,-139.545 100.643,-145.081 102.123,-138.239"/>
</g>
<!-- Node8 -->
<g id="node8" class="node"><title>Node8</title>
<g id="a_node8"><a xlink:href="../../d5/dc5/group__CIP__CALLBACK__API.html#ga5807bcc51621775c9aedbf58d3a7a6d3" target="_top" xlink:title="create a new UDP socket for the connection manager ">
<polygon fill="none" stroke="black" points="153.5,-87.5 153.5,-106.5 248.5,-106.5 248.5,-87.5 153.5,-87.5"/>
<text text-anchor="middle" x="201" y="-94.5" font-family="Helvetica,sans-Serif" font-size="10.00">CreateUdpSocket</text>
</a>
</g>
</g>
<!-- Node1&#45;&gt;Node8 -->
<g id="edge7" class="edge"><title>Node1&#45;&gt;Node8</title>
<path fill="none" stroke="midnightblue" d="M101.833,-118.243C119.593,-114.399 139.087,-110.181 155.99,-106.524"/>
<polygon fill="midnightblue" stroke="midnightblue" points="100.643,-114.919 91.6093,-120.455 102.123,-121.761 100.643,-114.919"/>
</g>
<!-- Node3 -->
<g id="node3" class="node"><title>Node3</title>
<g id="a_node3"><a xlink:href="../../da/dc2/generic__networkhandler_8h.html#a2f01af81d3e5018d9980e2bc28c9078a" target="_top" xlink:title="NetworkHandlerProcessOnce">
<polygon fill="none" stroke="black" points="309,-164.5 309,-183.5 455,-183.5 455,-164.5 309,-164.5"/>
<text text-anchor="middle" x="382" y="-171.5" font-family="Helvetica,sans-Serif" font-size="10.00">NetworkHandlerProcessOnce</text>
</a>
</g>
</g>
<!-- Node2&#45;&gt;Node3 -->
<g id="edge2" class="edge"><title>Node2&#45;&gt;Node3</title>
<path fill="none" stroke="midnightblue" d="M283.055,-167.981C291.676,-168.511 300.403,-169.047 308.911,-169.57"/>
<polygon fill="midnightblue" stroke="midnightblue" points="283.199,-164.483 273.003,-167.363 282.769,-171.47 283.199,-164.483"/>
</g>
<!-- Node4 -->
<g id="node4" class="node"><title>Node4</title>
<g id="a_node4"><a xlink:href="../../d9/dfb/POSIX_2main_8c.html#acd4e45a35a64f9cb29b59f63492b61d2" target="_top" xlink:title="Signal handler function for ending stack execution. ">
<polygon fill="none" stroke="black" points="543.5,-202.5 543.5,-221.5 611.5,-221.5 611.5,-202.5 543.5,-202.5"/>
<text text-anchor="middle" x="577.5" y="-209.5" font-family="Helvetica,sans-Serif" font-size="10.00">LeaveStack</text>
</a>
</g>
</g>
<!-- Node3&#45;&gt;Node4 -->
<g id="edge3" class="edge"><title>Node3&#45;&gt;Node4</title>
<path fill="none" stroke="midnightblue" d="M441.892,-185.565C475.119,-192.091 515.42,-200.005 543.216,-205.464"/>
<polygon fill="midnightblue" stroke="midnightblue" points="442.315,-182.082 431.828,-183.589 440.966,-188.951 442.315,-182.082"/>
</g>
<!-- Node5 -->
<g id="node5" class="node"><title>Node5</title>
<g id="a_node5"><a xlink:href="../../d5/dcb/MINGW_2main_8c.html#ad338a7dbc41dc40bcecd0479377ef207" target="_top" xlink:title="main">
<polygon fill="none" stroke="black" points="1296,-132.5 1296,-151.5 1334,-151.5 1334,-132.5 1296,-132.5"/>
<text text-anchor="middle" x="1315" y="-139.5" font-family="Helvetica,sans-Serif" font-size="10.00">main</text>
</a>
</g>
</g>
<!-- Node3&#45;&gt;Node5 -->
<g id="edge4" class="edge"><title>Node3&#45;&gt;Node5</title>
<path fill="none" stroke="midnightblue" d="M465.709,-174C544.751,-174 667.256,-174 773.5,-174 773.5,-174 773.5,-174 1095.5,-174 1170.45,-174 1258.35,-155.338 1295.72,-146.517"/>
<polygon fill="midnightblue" stroke="midnightblue" points="465.331,-170.5 455.331,-174 465.331,-177.5 465.331,-170.5"/>
</g>
<!-- Node6 -->
<g id="node6" class="node"><title>Node6</title>
<g id="a_node6"><a xlink:href="../../d8/d03/ports_2MINGW_2CMakeLists_8txt.html#a7e00df43a20d627a1732be7766d91097" target="_top" xlink:title="add_library">
<polygon fill="none" stroke="black" points="1370,-132.5 1370,-151.5 1434,-151.5 1434,-132.5 1370,-132.5"/>
<text text-anchor="middle" x="1402" y="-139.5" font-family="Helvetica,sans-Serif" font-size="10.00">add_library</text>
</a>
</g>
</g>
<!-- Node5&#45;&gt;Node6 -->
<g id="edge5" class="edge"><title>Node5&#45;&gt;Node6</title>
<path fill="none" stroke="midnightblue" d="M1344.27,-142C1352.5,-142 1361.55,-142 1369.94,-142"/>
<polygon fill="midnightblue" stroke="midnightblue" points="1344.03,-138.5 1334.03,-142 1344.03,-145.5 1344.03,-138.5"/>
</g>
<!-- Node7 -->
<g id="node7" class="node"><title>Node7</title>
<g id="a_node7"><a xlink:href="../../d8/dce/ports_2CMakeLists_8txt.html#a598fae457555a5fb26e18d4cd8f89de9" target="_top" xlink:title="add_subdirectory">
<polygon fill="none" stroke="black" points="1470,-132.5 1470,-151.5 1561,-151.5 1561,-132.5 1470,-132.5"/>
<text text-anchor="middle" x="1515.5" y="-139.5" font-family="Helvetica,sans-Serif" font-size="10.00">add_subdirectory</text>
</a>
</g>
</g>
<!-- Node6&#45;&gt;Node7 -->
<g id="edge6" class="edge"><title>Node6&#45;&gt;Node7</title>
<path fill="none" stroke="midnightblue" d="M1444.3,-142C1452.63,-142 1461.42,-142 1469.86,-142"/>
<polygon fill="midnightblue" stroke="midnightblue" points="1444.06,-138.5 1434.06,-142 1444.06,-145.5 1444.06,-138.5"/>
</g>
<!-- Node9 -->
<g id="node9" class="node"><title>Node9</title>
<g id="a_node9"><a xlink:href="../../df/d03/cipioconnection_8c.html#add645b42730b2cea369523949c6b9745" target="_top" xlink:title="Open a Point2Point connection dependent on pa_direction. ">
<polygon fill="none" stroke="black" points="504.5,-115 504.5,-145 650.5,-145 650.5,-115 504.5,-115"/>
<text text-anchor="start" x="512.5" y="-133" font-family="Helvetica,sans-Serif" font-size="10.00">OpenConsumingPointToPoint</text>
<text text-anchor="middle" x="577.5" y="-122" font-family="Helvetica,sans-Serif" font-size="10.00">Connection</text>
</a>
</g>
</g>
<!-- Node8&#45;&gt;Node9 -->
<g id="edge8" class="edge"><title>Node8&#45;&gt;Node9</title>
<path fill="none" stroke="midnightblue" d="M258.941,-104.414C275.103,-106.384 292.73,-108.404 309,-110 375.046,-116.478 450.449,-121.941 504.327,-125.512"/>
<polygon fill="midnightblue" stroke="midnightblue" points="258.914,-100.884 248.56,-103.132 258.056,-107.831 258.914,-100.884"/>
</g>
<!-- Node14 -->
<g id="node14" class="node"><title>Node14</title>
<g id="a_node14"><a xlink:href="../../df/d03/cipioconnection_8c.html#aa3b58fd216ec6712abc29ef84b33006d" target="_top" xlink:title="OpenProducingPointToPoint\lConnection">
<polygon fill="none" stroke="black" points="312,-71 312,-101 452,-101 452,-71 312,-71"/>
<text text-anchor="start" x="320" y="-89" font-family="Helvetica,sans-Serif" font-size="10.00">OpenProducingPointToPoint</text>
<text text-anchor="middle" x="382" y="-78" font-family="Helvetica,sans-Serif" font-size="10.00">Connection</text>
</a>
</g>
</g>
<!-- Node8&#45;&gt;Node14 -->
<g id="edge14" class="edge"><title>Node8&#45;&gt;Node14</title>
<path fill="none" stroke="midnightblue" d="M258.78,-93.5107C275.602,-92.477 294.213,-91.3333 311.732,-90.2567"/>
<polygon fill="midnightblue" stroke="midnightblue" points="258.329,-90.0317 248.563,-94.1386 258.759,-97.0185 258.329,-90.0317"/>
</g>
<!-- Node15 -->
<g id="node15" class="node"><title>Node15</title>
<g id="a_node15"><a xlink:href="../../df/d03/cipioconnection_8c.html#a9e2ce4666173987646cf60ce3422d7b4" target="_top" xlink:title="Open a Multicast connection dependent on direction. ">
<polygon fill="none" stroke="black" points="317.5,-32.5 317.5,-51.5 446.5,-51.5 446.5,-32.5 317.5,-32.5"/>
<text text-anchor="middle" x="382" y="-39.5" font-family="Helvetica,sans-Serif" font-size="10.00">OpenMulticastConnection</text>
</a>
</g>
</g>
<!-- Node8&#45;&gt;Node15 -->
<g id="edge16" class="edge"><title>Node8&#45;&gt;Node15</title>
<path fill="none" stroke="midnightblue" d="M238.293,-84.1204C258.918,-76.9698 285.283,-68.1105 309,-61 319.897,-57.7329 331.811,-54.4668 342.754,-51.5871"/>
<polygon fill="midnightblue" stroke="midnightblue" points="236.955,-80.8801 228.666,-87.4784 239.261,-87.4896 236.955,-80.8801"/>
</g>
<!-- Node10 -->
<g id="node10" class="node"><title>Node10</title>
<g id="a_node10"><a xlink:href="../../de/d45/cipioconnection_8h.html#a53b85bce88b582414fc282c95f5626f4" target="_top" xlink:title="Take the data given in the connection object structure and open the necessary communication channels...">
<polygon fill="none" stroke="black" points="700,-76.5 700,-95.5 849,-95.5 849,-76.5 700,-76.5"/>
<text text-anchor="middle" x="774.5" y="-83.5" font-family="Helvetica,sans-Serif" font-size="10.00">OpenCommunicationChannels</text>
</a>
</g>
</g>
<!-- Node9&#45;&gt;Node10 -->
<g id="edge9" class="edge"><title>Node9&#45;&gt;Node10</title>
<path fill="none" stroke="midnightblue" d="M654.91,-112.759C680.915,-106.891 709.022,-100.549 731.343,-95.5124"/>
<polygon fill="midnightblue" stroke="midnightblue" points="654.047,-109.365 645.063,-114.981 655.588,-116.194 654.047,-109.365"/>
</g>
<!-- Node11 -->
<g id="node11" class="node"><title>Node11</title>
<g id="a_node11"><a xlink:href="../../de/d45/cipioconnection_8h.html#a43e270b3f9b9f6296b12285c320c95aa" target="_top" xlink:title="Setup all data in order to establish an IO connection. ">
<polygon fill="none" stroke="black" points="885,-82.5 885,-101.5 1000,-101.5 1000,-82.5 885,-82.5"/>
<text text-anchor="middle" x="942.5" y="-89.5" font-family="Helvetica,sans-Serif" font-size="10.00">EstablishIoConnection</text>
</a>
</g>
</g>
<!-- Node10&#45;&gt;Node11 -->
<g id="edge10" class="edge"><title>Node10&#45;&gt;Node11</title>
<path fill="none" stroke="midnightblue" d="M859.398,-89.0325C868.034,-89.3446 876.657,-89.6563 884.893,-89.954"/>
<polygon fill="midnightblue" stroke="midnightblue" points="859.397,-85.5302 849.277,-88.6666 859.144,-92.5256 859.397,-85.5302"/>
</g>
<!-- Node12 -->
<g id="node12" class="node"><title>Node12</title>
<g id="a_node12"><a xlink:href="../../d2/da3/cipconnectionmanager_8h.html#a5ab0de6894d23e8fe84a6b46797c2212" target="_top" xlink:title="Initialize the data of the connection manager object. ">
<polygon fill="none" stroke="black" points="1036,-89.5 1036,-108.5 1153,-108.5 1153,-89.5 1036,-89.5"/>
<text text-anchor="middle" x="1094.5" y="-96.5" font-family="Helvetica,sans-Serif" font-size="10.00">ConnectionManagerInit</text>
</a>
</g>
</g>
<!-- Node11&#45;&gt;Node12 -->
<g id="edge11" class="edge"><title>Node11&#45;&gt;Node12</title>
<path fill="none" stroke="midnightblue" d="M1010.41,-95.1224C1018.85,-95.5163 1027.43,-95.9167 1035.71,-96.3033"/>
<polygon fill="midnightblue" stroke="midnightblue" points="1010.36,-91.6165 1000.21,-94.6464 1010.03,-98.6088 1010.36,-91.6165"/>
</g>
<!-- Node13 -->
<g id="node13" class="node"><title>Node13</title>
<g id="a_node13"><a xlink:href="../../d2/dc9/group__CIP__API.html#ga5d4979945d124e28668b264c3823db1c" target="_top" xlink:title="Initialize and setup the CIP&#45;stack. ">
<polygon fill="none" stroke="black" points="1189,-101.5 1189,-120.5 1260,-120.5 1260,-101.5 1189,-101.5"/>
<text text-anchor="middle" x="1224.5" y="-108.5" font-family="Helvetica,sans-Serif" font-size="10.00">CipStackInit</text>
</a>
</g>
</g>
<!-- Node12&#45;&gt;Node13 -->
<g id="edge12" class="edge"><title>Node12&#45;&gt;Node13</title>
<path fill="none" stroke="midnightblue" d="M1163.18,-105.345C1172.08,-106.179 1180.88,-107.005 1188.9,-107.756"/>
<polygon fill="midnightblue" stroke="midnightblue" points="1163.42,-101.852 1153.13,-104.403 1162.76,-108.821 1163.42,-101.852"/>
</g>
<!-- Node13&#45;&gt;Node5 -->
<g id="edge13" class="edge"><title>Node13&#45;&gt;Node5</title>
<path fill="none" stroke="midnightblue" d="M1262.79,-124.061C1274.18,-128.051 1286.2,-132.262 1295.73,-135.601"/>
<polygon fill="midnightblue" stroke="midnightblue" points="1263.61,-120.641 1253.02,-120.639 1261.3,-127.248 1263.61,-120.641"/>
</g>
<!-- Node14&#45;&gt;Node10 -->
<g id="edge15" class="edge"><title>Node14&#45;&gt;Node10</title>
<path fill="none" stroke="midnightblue" d="M462.387,-86C531.881,-86 632.056,-86 699.806,-86"/>
<polygon fill="midnightblue" stroke="midnightblue" points="462.364,-82.5001 452.364,-86 462.364,-89.5001 462.364,-82.5001"/>
</g>
<!-- Node15&#45;&gt;Node10 -->
<g id="edge17" class="edge"><title>Node15&#45;&gt;Node10</title>
<path fill="none" stroke="midnightblue" d="M456.631,-50.2964C526.295,-58.146 630.285,-69.8631 699.93,-77.7104"/>
<polygon fill="midnightblue" stroke="midnightblue" points="456.939,-46.8091 446.61,-49.1673 456.155,-53.765 456.939,-46.8091"/>
</g>
<!-- Node16 -->
<g id="node16" class="node"><title>Node16</title>
<g id="a_node16"><a xlink:href="../../df/d03/cipioconnection_8c.html#a5dea6fc1be0ed4ecf5d9e4f932d52106" target="_top" xlink:title="OpenProducingMulticastConnection">
<polygon fill="none" stroke="black" points="491,-0.5 491,-19.5 664,-19.5 664,-0.5 491,-0.5"/>
<text text-anchor="middle" x="577.5" y="-7.5" font-family="Helvetica,sans-Serif" font-size="10.00">OpenProducingMulticastConnection</text>
</a>
</g>
</g>
<!-- Node15&#45;&gt;Node16 -->
<g id="edge18" class="edge"><title>Node15&#45;&gt;Node16</title>
<path fill="none" stroke="midnightblue" d="M450.585,-30.8232C472.854,-27.1404 497.397,-23.0816 518.855,-19.533"/>
<polygon fill="midnightblue" stroke="midnightblue" points="449.827,-27.4008 440.532,-32.4856 450.97,-34.307 449.827,-27.4008"/>
</g>
<!-- Node16&#45;&gt;Node10 -->
<g id="edge19" class="edge"><title>Node16&#45;&gt;Node10</title>
<path fill="none" stroke="midnightblue" d="M627.582,-22.2372C639.621,-25.6592 652.383,-29.6469 664,-34 697.305,-46.4794 734.358,-65.144 755.696,-76.3888"/>
<polygon fill="midnightblue" stroke="midnightblue" points="628.251,-18.7911 617.68,-19.5002 626.386,-25.538 628.251,-18.7911"/>
</g>
</g>
</svg>
        <g id="navigator" transform="translate(0 0)" fill="#404254">
                <rect fill="#f2f5e9" fill-opacity="0.5" stroke="#606060" stroke-width=".5" x="0" y="0" width="60" height="60"/>
                <use id="zoomplus" xlink:href="#zoomPlus" x="17" y="9" onmousedown="handleZoom(evt,'in')"/>
                <use id="zoomminus" xlink:href="#zoomMin" x="42" y="9" onmousedown="handleZoom(evt,'out')"/>
                <use id="reset" xlink:href="#resetDef" x="30" y="36" onmousedown="handleReset()"/>
                <g id="arrowUp" xlink:href="#dirArrow" transform="translate(30 24)" onmousedown="handlePan(0,-1)">
                  <use xlink:href="#rim" fill="#404040">
                        <set attributeName="fill" to="#808080" begin="arrowUp.mouseover" end="arrowUp.mouseout"/>
                  </use>
                  <path fill="none" stroke="white" stroke-width="1.5" d="M0,-3.0v7 M-2.5,-0.5L0,-3.0L2.5,-0.5"/>
                </g>
                <g id="arrowRight" xlink:href="#dirArrow" transform="rotate(90) translate(36 -43)" onmousedown="handlePan(1,0)">
                  <use xlink:href="#rim" fill="#404040">
                        <set attributeName="fill" to="#808080" begin="arrowRight.mouseover" end="arrowRight.mouseout"/>
                  </use>
                  <path fill="none" stroke="white" stroke-width="1.5" d="M0,-3.0v7 M-2.5,-0.5L0,-3.0L2.5,-0.5"/>
                </g>
                <g id="arrowDown" xlink:href="#dirArrow" transform="rotate(180) translate(-30 -48)" onmousedown="handlePan(0,1)">
                  <use xlink:href="#rim" fill="#404040">
                        <set attributeName="fill" to="#808080" begin="arrowDown.mouseover" end="arrowDown.mouseout"/>
                  </use>
                  <path fill="none" stroke="white" stroke-width="1.5" d="M0,-3.0v7 M-2.5,-0.5L0,-3.0L2.5,-0.5"/>
                </g>
                <g id="arrowLeft" xlink:href="#dirArrow" transform="rotate(270) translate(-36 17)" onmousedown="handlePan(-1,0)">
                  <use xlink:href="#rim" fill="#404040">
                        <set attributeName="fill" to="#808080" begin="arrowLeft.mouseover" end="arrowLeft.mouseout"/>
                  </use>
                  <path fill="none" stroke="white" stroke-width="1.5" d="M0,-3.0v7 M-2.5,-0.5L0,-3.0L2.5,-0.5"/>
                </g>
        </g>
        <svg viewBox="0 0 15 15" width="100%" height="30px" preserveAspectRatio="xMaxYMin meet">
         <g id="arrow_out" transform="scale(0.3 0.3)">
          <a xlink:href="MINGW_2networkhandler_8c_a20a53fded2d3f1e17272dbc7185988fd_icgraph_org.svg" target="_base">
           <rect id="button" ry="5" rx="5" y="6" x="6" height="38" width="38"
                fill="#f2f5e9" fill-opacity="0.5" stroke="#606060" stroke-width="1.0"/>
           <path id="arrow"
             d="M 11.500037,31.436501 C 11.940474,20.09759 22.043105,11.32322 32.158766,21.979434 L 37.068811,17.246167 C 37.068811,17.246167 37.088388,32 37.088388,32 L 22.160133,31.978069 C 22.160133,31.978069 26.997745,27.140456 26.997745,27.140456 C 18.528582,18.264221 13.291696,25.230495 11.500037,31.436501 z"
             style="fill:#404040;"/>
          </a>
         </g>
        </svg>
</svg>
