<?xml version="1.0" encoding="UTF-8" standalone="no"?>
<!DOCTYPE svg PUBLIC "-//W3C//DTD SVG 1.1//EN"
 "http://www.w3.org/Graphics/SVG/1.1/DTD/svg11.dtd">
<!-- Generated by graphviz version 2.36.0 (20140111.2315)
 -->
<!-- Title: src/cip/cipepath.h Pages: 1 -->
<svg width="419pt" height="252pt"
 viewBox="0.00 0.00 419.00 252.00" xmlns="http://www.w3.org/2000/svg" xmlns:xlink="http://www.w3.org/1999/xlink">
<g id="graph0" class="graph" transform="scale(1 1) rotate(0) translate(4 248)">
<title>src/cip/cipepath.h</title>
<!-- Node1 -->
<g id="node1" class="node"><title>Node1</title>
<polygon fill="#bfbfbf" stroke="black" points="29,-224.5 29,-243.5 123,-243.5 123,-224.5 29,-224.5"/>
<text text-anchor="middle" x="76" y="-231.5" font-family="Helvetica,sans-Serif" font-size="10.00">src/cip/cipepath.h</text>
</g>
<!-- Node2 -->
<g id="node2" class="node"><title>Node2</title>
<polygon fill="none" stroke="#bfbfbf" points="0,-0.5 0,-19.5 56,-19.5 56,-0.5 0,-0.5"/>
<text text-anchor="middle" x="28" y="-7.5" font-family="Helvetica,sans-Serif" font-size="10.00">stdbool.h</text>
</g>
<!-- Node1&#45;&gt;Node2 -->
<g id="edge1" class="edge"><title>Node1&#45;&gt;Node2</title>
<path fill="none" stroke="midnightblue" d="M69.1368,-224.489C56.257,-207.904 28.8735,-169.584 19,-132 9.7128,-96.6477 17.1504,-53.629 22.9071,-29.5785"/>
<polygon fill="midnightblue" stroke="midnightblue" points="26.3504,-30.2407 25.4425,-19.6848 19.5695,-28.5029 26.3504,-30.2407"/>
</g>
<!-- Node3 -->
<g id="node3" class="node"><title>Node3</title>
<g id="a_node3"><a xlink:href="../../df/d28/ciptypes_8h.html" target="_top" xlink:title="ciptypes.h">
<polygon fill="none" stroke="black" points="195,-168.5 195,-187.5 257,-187.5 257,-168.5 195,-168.5"/>
<text text-anchor="middle" x="226" y="-175.5" font-family="Helvetica,sans-Serif" font-size="10.00">ciptypes.h</text>
</a>
</g>
</g>
<!-- Node1&#45;&gt;Node3 -->
<g id="edge2" class="edge"><title>Node1&#45;&gt;Node3</title>
<path fill="none" stroke="midnightblue" d="M99.7679,-224.444C124.893,-215.399 164.711,-201.064 192.9,-190.916"/>
<polygon fill="midnightblue" stroke="midnightblue" points="194.12,-194.197 202.343,-187.516 191.749,-187.611 194.12,-194.197"/>
</g>
<!-- Node11 -->
<g id="node11" class="node"><title>Node11</title>
<g id="a_node11"><a xlink:href="../../d0/d23/cipelectronickey_8h.html" target="_top" xlink:title="cipelectronickey.h">
<polygon fill="none" stroke="black" points="28.5,-112.5 28.5,-131.5 123.5,-131.5 123.5,-112.5 28.5,-112.5"/>
<text text-anchor="middle" x="76" y="-119.5" font-family="Helvetica,sans-Serif" font-size="10.00">cipelectronickey.h</text>
</a>
</g>
</g>
<!-- Node1&#45;&gt;Node11 -->
<g id="edge13" class="edge"><title>Node1&#45;&gt;Node11</title>
<path fill="none" stroke="midnightblue" d="M76,-224.368C76,-206.617 76,-165.666 76,-141.597"/>
<polygon fill="midnightblue" stroke="midnightblue" points="79.5001,-141.591 76,-131.591 72.5001,-141.591 79.5001,-141.591"/>
</g>
<!-- Node4 -->
<g id="node4" class="node"><title>Node4</title>
<g id="a_node4"><a xlink:href="../../d7/d69/typedefs_8h.html" target="_top" xlink:title="typedefs.h">
<polygon fill="none" stroke="black" points="121,-56.5 121,-75.5 183,-75.5 183,-56.5 121,-56.5"/>
<text text-anchor="middle" x="152" y="-63.5" font-family="Helvetica,sans-Serif" font-size="10.00">typedefs.h</text>
</a>
</g>
</g>
<!-- Node3&#45;&gt;Node4 -->
<g id="edge3" class="edge"><title>Node3&#45;&gt;Node4</title>
<path fill="none" stroke="midnightblue" d="M211.269,-168.496C198.8,-160.57 181.351,-147.637 171,-132 161.773,-118.06 156.934,-99.5535 154.456,-85.8531"/>
<polygon fill="midnightblue" stroke="midnightblue" points="157.87,-85.0295 152.884,-75.6811 150.952,-86.0982 157.87,-85.0295"/>
</g>
<!-- Node8 -->
<g id="node8" class="node"><title>Node8</title>
<g id="a_node8"><a xlink:href="../../d0/d47/networkhandler_8h.html" target="_top" xlink:title="networkhandler.h">
<polygon fill="none" stroke="black" points="180.5,-112.5 180.5,-131.5 271.5,-131.5 271.5,-112.5 180.5,-112.5"/>
<text text-anchor="middle" x="226" y="-119.5" font-family="Helvetica,sans-Serif" font-size="10.00">networkhandler.h</text>
</a>
</g>
</g>
<!-- Node3&#45;&gt;Node8 -->
<g id="edge8" class="edge"><title>Node3&#45;&gt;Node8</title>
<path fill="none" stroke="midnightblue" d="M226,-168.083C226,-161.006 226,-150.861 226,-141.986"/>
<polygon fill="midnightblue" stroke="midnightblue" points="229.5,-141.751 226,-131.751 222.5,-141.751 229.5,-141.751"/>
</g>
<!-- Node9 -->
<g id="node9" class="node"><title>Node9</title>
<g id="a_node9"><a xlink:href="../../d8/d2c/enipmessage_8h.html" target="_top" xlink:title="enipmessage.h">
<polygon fill="none" stroke="black" points="328.5,-112.5 328.5,-131.5 411.5,-131.5 411.5,-112.5 328.5,-112.5"/>
<text text-anchor="middle" x="370" y="-119.5" font-family="Helvetica,sans-Serif" font-size="10.00">enipmessage.h</text>
</a>
</g>
</g>
<!-- Node3&#45;&gt;Node9 -->
<g id="edge10" class="edge"><title>Node3&#45;&gt;Node9</title>
<path fill="none" stroke="midnightblue" d="M248.817,-168.444C272.832,-159.438 310.829,-145.189 337.869,-135.049"/>
<polygon fill="midnightblue" stroke="midnightblue" points="339.155,-138.305 347.29,-131.516 336.697,-131.751 339.155,-138.305"/>
</g>
<!-- Node10 -->
<g id="node10" class="node"><title>Node10</title>
<polygon fill="none" stroke="#bfbfbf" points="284,-56.5 284,-75.5 386,-75.5 386,-56.5 284,-56.5"/>
<text text-anchor="middle" x="335" y="-63.5" font-family="Helvetica,sans-Serif" font-size="10.00">opener_user_conf.h</text>
</g>
<!-- Node3&#45;&gt;Node10 -->
<g id="edge12" class="edge"><title>Node3&#45;&gt;Node10</title>
<path fill="none" stroke="midnightblue" d="M237.665,-168.237C248.953,-159.541 266.315,-145.583 280,-132 295.492,-116.624 311.41,-97.3611 322.109,-83.8104"/>
<polygon fill="midnightblue" stroke="midnightblue" points="324.943,-85.8679 328.329,-75.8288 319.422,-81.5651 324.943,-85.8679"/>
</g>
<!-- Node4&#45;&gt;Node2 -->
<g id="edge6" class="edge"><title>Node4&#45;&gt;Node2</title>
<path fill="none" stroke="midnightblue" d="M132.352,-56.4435C112.035,-47.5961 80.0972,-33.6875 56.9023,-23.5865"/>
<polygon fill="midnightblue" stroke="midnightblue" points="58.1221,-20.3002 47.5562,-19.5164 55.3271,-26.7181 58.1221,-20.3002"/>
</g>
<!-- Node5 -->
<g id="node5" class="node"><title>Node5</title>
<polygon fill="none" stroke="#bfbfbf" points="303.5,-0.5 303.5,-19.5 362.5,-19.5 362.5,-0.5 303.5,-0.5"/>
<text text-anchor="middle" x="333" y="-7.5" font-family="Helvetica,sans-Serif" font-size="10.00">inttypes.h</text>
</g>
<!-- Node4&#45;&gt;Node5 -->
<g id="edge4" class="edge"><title>Node4&#45;&gt;Node5</title>
<path fill="none" stroke="midnightblue" d="M180.68,-56.4435C211.527,-47.2406 260.728,-32.5617 294.829,-22.3879"/>
<polygon fill="midnightblue" stroke="midnightblue" points="295.872,-25.7293 304.454,-19.5164 293.871,-19.0215 295.872,-25.7293"/>
</g>
<!-- Node6 -->
<g id="node6" class="node"><title>Node6</title>
<polygon fill="none" stroke="#bfbfbf" points="74,-0.5 74,-19.5 126,-19.5 126,-0.5 74,-0.5"/>
<text text-anchor="middle" x="100" y="-7.5" font-family="Helvetica,sans-Serif" font-size="10.00">stddef.h</text>
</g>
<!-- Node4&#45;&gt;Node6 -->
<g id="edge5" class="edge"><title>Node4&#45;&gt;Node6</title>
<path fill="none" stroke="midnightblue" d="M143.413,-56.083C135.841,-48.2195 124.622,-36.5688 115.486,-27.0813"/>
<polygon fill="midnightblue" stroke="midnightblue" points="117.885,-24.5266 108.427,-19.7511 112.842,-29.3821 117.885,-24.5266"/>
</g>
<!-- Node7 -->
<g id="node7" class="node"><title>Node7</title>
<polygon fill="none" stroke="#bfbfbf" points="144.5,-0.5 144.5,-19.5 285.5,-19.5 285.5,-0.5 144.5,-0.5"/>
<text text-anchor="middle" x="215" y="-7.5" font-family="Helvetica,sans-Serif" font-size="10.00">platform_network_includes.h</text>
</g>
<!-- Node4&#45;&gt;Node7 -->
<g id="edge7" class="edge"><title>Node4&#45;&gt;Node7</title>
<path fill="none" stroke="midnightblue" d="M162.122,-56.324C171.526,-48.2631 185.744,-36.0765 197.069,-26.3695"/>
<polygon fill="midnightblue" stroke="midnightblue" points="199.379,-28.9993 204.694,-19.8339 194.823,-23.6844 199.379,-28.9993"/>
</g>
<!-- Node8&#45;&gt;Node4 -->
<g id="edge9" class="edge"><title>Node8&#45;&gt;Node4</title>
<path fill="none" stroke="midnightblue" d="M214.111,-112.324C202.85,-104.107 185.713,-91.6017 172.291,-81.8069"/>
<polygon fill="midnightblue" stroke="midnightblue" points="174.247,-78.9014 164.106,-75.8339 170.12,-84.5559 174.247,-78.9014"/>
</g>
<!-- Node9&#45;&gt;Node10 -->
<g id="edge11" class="edge"><title>Node9&#45;&gt;Node10</title>
<path fill="none" stroke="midnightblue" d="M364.22,-112.083C359.328,-104.534 352.173,-93.4948 346.167,-84.2298"/>
<polygon fill="midnightblue" stroke="midnightblue" points="349.048,-82.239 340.672,-75.7511 343.174,-86.0463 349.048,-82.239"/>
</g>
<!-- Node11&#45;&gt;Node2 -->
<g id="edge14" class="edge"><title>Node11&#45;&gt;Node2</title>
<path fill="none" stroke="midnightblue" d="M72.2335,-112.368C64.4173,-94.4563 46.2938,-52.9233 35.8319,-28.9482"/>
<polygon fill="midnightblue" stroke="midnightblue" points="38.9564,-27.357 31.749,-19.5914 32.5406,-30.1566 38.9564,-27.357"/>
</g>
<!-- Node11&#45;&gt;Node4 -->
<g id="edge15" class="edge"><title>Node11&#45;&gt;Node4</title>
<path fill="none" stroke="midnightblue" d="M88.2107,-112.324C99.7759,-104.107 117.375,-91.6017 131.161,-81.8069"/>
<polygon fill="midnightblue" stroke="midnightblue" points="133.443,-84.4791 139.567,-75.8339 129.388,-78.7729 133.443,-84.4791"/>
</g>
</g>
</svg>
