<?xml version="1.0" encoding="UTF-8" standalone="no"?>
<!DOCTYPE svg PUBLIC "-//W3C//DTD SVG 1.1//EN"
 "http://www.w3.org/Graphics/SVG/1.1/DTD/svg11.dtd">
<!-- Generated by graphviz version 2.36.0 (20140111.2315)
 -->
<!-- Title: src/cip/cipepath.h Pages: 1 -->
<svg width="400pt" height="252pt"
 viewBox="0.00 0.00 400.08 252.00" xmlns="http://www.w3.org/2000/svg" xmlns:xlink="http://www.w3.org/1999/xlink">
<g id="graph0" class="graph" transform="scale(1 1) rotate(0) translate(4 248)">
<title>src/cip/cipepath.h</title>
<!-- Node1 -->
<g id="node1" class="node"><title>Node1</title>
<polygon fill="#bfbfbf" stroke="black" points="287,-224.5 287,-243.5 381,-243.5 381,-224.5 287,-224.5"/>
<text text-anchor="middle" x="334" y="-231.5" font-family="Helvetica,sans-Serif" font-size="10.00">src/cip/cipepath.h</text>
</g>
<!-- Node2 -->
<g id="node2" class="node"><title>Node2</title>
<polygon fill="none" stroke="#bfbfbf" points="306,-0.5 306,-19.5 362,-19.5 362,-0.5 306,-0.5"/>
<text text-anchor="middle" x="334" y="-7.5" font-family="Helvetica,sans-Serif" font-size="10.00">stdbool.h</text>
</g>
<!-- Node1&#45;&gt;Node2 -->
<g id="edge1" class="edge"><title>Node1&#45;&gt;Node2</title>
<path fill="none" stroke="midnightblue" d="M342.808,-224.308C361.298,-204.975 401.536,-156.596 390,-112 381.672,-79.8055 360.629,-46.9322 346.842,-27.7736"/>
<polygon fill="midnightblue" stroke="midnightblue" points="349.506,-25.4899 340.745,-19.5333 343.879,-29.6537 349.506,-25.4899"/>
</g>
<!-- Node3 -->
<g id="node3" class="node"><title>Node3</title>
<g id="a_node3"><a xlink:href="../../df/d28/ciptypes_8h.html" target="_top" xlink:title="ciptypes.h">
<polygon fill="none" stroke="black" points="118,-168.5 118,-187.5 180,-187.5 180,-168.5 118,-168.5"/>
<text text-anchor="middle" x="149" y="-175.5" font-family="Helvetica,sans-Serif" font-size="10.00">ciptypes.h</text>
</a>
</g>
</g>
<!-- Node1&#45;&gt;Node3 -->
<g id="edge2" class="edge"><title>Node1&#45;&gt;Node3</title>
<path fill="none" stroke="midnightblue" d="M304.686,-224.444C273.158,-215.241 222.869,-200.562 188.014,-190.388"/>
<polygon fill="midnightblue" stroke="midnightblue" points="188.757,-186.959 178.177,-187.516 186.795,-193.678 188.757,-186.959"/>
</g>
<!-- Node10 -->
<g id="node10" class="node"><title>Node10</title>
<g id="a_node10"><a xlink:href="../../d0/d23/cipelectronickey_8h.html" target="_top" xlink:title="cipelectronickey.h">
<polygon fill="none" stroke="black" points="286.5,-112.5 286.5,-131.5 381.5,-131.5 381.5,-112.5 286.5,-112.5"/>
<text text-anchor="middle" x="334" y="-119.5" font-family="Helvetica,sans-Serif" font-size="10.00">cipelectronickey.h</text>
</a>
</g>
</g>
<!-- Node1&#45;&gt;Node10 -->
<g id="edge12" class="edge"><title>Node1&#45;&gt;Node10</title>
<path fill="none" stroke="midnightblue" d="M334,-224.368C334,-206.617 334,-165.666 334,-141.597"/>
<polygon fill="midnightblue" stroke="midnightblue" points="337.5,-141.591 334,-131.591 330.5,-141.591 337.5,-141.591"/>
</g>
<!-- Node4 -->
<g id="node4" class="node"><title>Node4</title>
<g id="a_node4"><a xlink:href="../../d7/d69/typedefs_8h.html" target="_top" xlink:title="typedefs.h">
<polygon fill="none" stroke="black" points="201,-56.5 201,-75.5 263,-75.5 263,-56.5 201,-56.5"/>
<text text-anchor="middle" x="232" y="-63.5" font-family="Helvetica,sans-Serif" font-size="10.00">typedefs.h</text>
</a>
</g>
</g>
<!-- Node3&#45;&gt;Node4 -->
<g id="edge3" class="edge"><title>Node3&#45;&gt;Node4</title>
<path fill="none" stroke="midnightblue" d="M149.723,-168.208C151.197,-154.913 155.547,-129.4 168,-112 177.415,-98.8456 191.92,-88.1914 204.743,-80.5581"/>
<polygon fill="midnightblue" stroke="midnightblue" points="206.677,-83.4864 213.686,-75.5411 203.252,-77.3815 206.677,-83.4864"/>
</g>
<!-- Node7 -->
<g id="node7" class="node"><title>Node7</title>
<g id="a_node7"><a xlink:href="../../d0/d47/networkhandler_8h.html" target="_top" xlink:title="networkhandler.h">
<polygon fill="none" stroke="black" points="177.5,-112.5 177.5,-131.5 268.5,-131.5 268.5,-112.5 177.5,-112.5"/>
<text text-anchor="middle" x="223" y="-119.5" font-family="Helvetica,sans-Serif" font-size="10.00">networkhandler.h</text>
</a>
</g>
</g>
<!-- Node3&#45;&gt;Node7 -->
<g id="edge7" class="edge"><title>Node3&#45;&gt;Node7</title>
<path fill="none" stroke="midnightblue" d="M160.889,-168.324C172.15,-160.107 189.287,-147.602 202.709,-137.807"/>
<polygon fill="midnightblue" stroke="midnightblue" points="204.88,-140.556 210.894,-131.834 200.753,-134.901 204.88,-140.556"/>
</g>
<!-- Node8 -->
<g id="node8" class="node"><title>Node8</title>
<g id="a_node8"><a xlink:href="../../d8/d2c/enipmessage_8h.html" target="_top" xlink:title="enipmessage.h">
<polygon fill="none" stroke="black" points="-0.5,-112.5 -0.5,-131.5 82.5,-131.5 82.5,-112.5 -0.5,-112.5"/>
<text text-anchor="middle" x="41" y="-119.5" font-family="Helvetica,sans-Serif" font-size="10.00">enipmessage.h</text>
</a>
</g>
</g>
<!-- Node3&#45;&gt;Node8 -->
<g id="edge9" class="edge"><title>Node3&#45;&gt;Node8</title>
<path fill="none" stroke="midnightblue" d="M131.648,-168.324C114.328,-159.664 87.4847,-146.242 67.4981,-136.249"/>
<polygon fill="midnightblue" stroke="midnightblue" points="68.8186,-132.996 58.309,-131.655 65.688,-139.257 68.8186,-132.996"/>
</g>
<!-- Node9 -->
<g id="node9" class="node"><title>Node9</title>
<polygon fill="none" stroke="#bfbfbf" points="25,-56.5 25,-75.5 127,-75.5 127,-56.5 25,-56.5"/>
<text text-anchor="middle" x="76" y="-63.5" font-family="Helvetica,sans-Serif" font-size="10.00">opener_user_conf.h</text>
</g>
<!-- Node3&#45;&gt;Node9 -->
<g id="edge11" class="edge"><title>Node3&#45;&gt;Node9</title>
<path fill="none" stroke="midnightblue" d="M143.272,-168.368C131.225,-150.215 103.077,-107.802 87.2753,-83.9902"/>
<polygon fill="midnightblue" stroke="midnightblue" points="90.1474,-81.9882 81.7016,-75.5914 84.3149,-85.8589 90.1474,-81.9882"/>
</g>
<!-- Node4&#45;&gt;Node2 -->
<g id="edge6" class="edge"><title>Node4&#45;&gt;Node2</title>
<path fill="none" stroke="midnightblue" d="M248.388,-56.324C264.671,-47.7034 289.867,-34.3643 308.716,-24.3855"/>
<polygon fill="midnightblue" stroke="midnightblue" points="310.452,-27.4267 317.653,-19.6545 307.177,-21.2402 310.452,-27.4267"/>
</g>
<!-- Node5 -->
<g id="node5" class="node"><title>Node5</title>
<polygon fill="none" stroke="#bfbfbf" points="211.5,-0.5 211.5,-19.5 270.5,-19.5 270.5,-0.5 211.5,-0.5"/>
<text text-anchor="middle" x="241" y="-7.5" font-family="Helvetica,sans-Serif" font-size="10.00">inttypes.h</text>
</g>
<!-- Node4&#45;&gt;Node5 -->
<g id="edge4" class="edge"><title>Node4&#45;&gt;Node5</title>
<path fill="none" stroke="midnightblue" d="M233.486,-56.083C234.679,-48.9272 236.394,-38.6353 237.885,-29.6911"/>
<polygon fill="midnightblue" stroke="midnightblue" points="241.35,-30.1904 239.541,-19.7511 234.445,-29.0396 241.35,-30.1904"/>
</g>
<!-- Node6 -->
<g id="node6" class="node"><title>Node6</title>
<polygon fill="none" stroke="#bfbfbf" points="141,-0.5 141,-19.5 193,-19.5 193,-0.5 141,-0.5"/>
<text text-anchor="middle" x="167" y="-7.5" font-family="Helvetica,sans-Serif" font-size="10.00">stddef.h</text>
</g>
<!-- Node4&#45;&gt;Node6 -->
<g id="edge5" class="edge"><title>Node4&#45;&gt;Node6</title>
<path fill="none" stroke="midnightblue" d="M221.557,-56.324C211.854,-48.2631 197.185,-36.0765 185.5,-26.3695"/>
<polygon fill="midnightblue" stroke="midnightblue" points="187.562,-23.532 177.633,-19.8339 183.089,-28.9163 187.562,-23.532"/>
</g>
<!-- Node7&#45;&gt;Node4 -->
<g id="edge8" class="edge"><title>Node7&#45;&gt;Node4</title>
<path fill="none" stroke="midnightblue" d="M224.486,-112.083C225.679,-104.927 227.394,-94.6353 228.885,-85.6911"/>
<polygon fill="midnightblue" stroke="midnightblue" points="232.35,-86.1904 230.541,-75.7511 225.445,-85.0396 232.35,-86.1904"/>
</g>
<!-- Node8&#45;&gt;Node9 -->
<g id="edge10" class="edge"><title>Node8&#45;&gt;Node9</title>
<path fill="none" stroke="midnightblue" d="M46.7795,-112.083C51.6724,-104.534 58.8274,-93.4948 64.8326,-84.2298"/>
<polygon fill="midnightblue" stroke="midnightblue" points="67.826,-86.0463 70.328,-75.7511 61.952,-82.239 67.826,-86.0463"/>
</g>
<!-- Node10&#45;&gt;Node2 -->
<g id="edge13" class="edge"><title>Node10&#45;&gt;Node2</title>
<path fill="none" stroke="midnightblue" d="M334,-112.368C334,-94.617 334,-53.6664 334,-29.5974"/>
<polygon fill="midnightblue" stroke="midnightblue" points="337.5,-29.5914 334,-19.5914 330.5,-29.5915 337.5,-29.5914"/>
</g>
<!-- Node10&#45;&gt;Node4 -->
<g id="edge14" class="edge"><title>Node10&#45;&gt;Node4</title>
<path fill="none" stroke="midnightblue" d="M317.612,-112.324C301.329,-103.703 276.133,-90.3643 257.284,-80.3855"/>
<polygon fill="midnightblue" stroke="midnightblue" points="258.823,-77.2402 248.347,-75.6545 255.548,-83.4267 258.823,-77.2402"/>
</g>
</g>
</svg>
