<?xml version="1.0" encoding="UTF-8" standalone="no"?>
<!DOCTYPE svg PUBLIC "-//W3C//DTD SVG 1.1//EN"
 "http://www.w3.org/Graphics/SVG/1.1/DTD/svg11.dtd">
<!-- Generated by graphviz version 2.36.0 (20140111.2315)
 -->
<!-- Title: src/ports/POSIX/networkconfig.c Pages: 1 -->
<!--zoomable 308 -->
<svg id="main" version="1.1" xmlns="http://www.w3.org/2000/svg" xmlns:xlink="http://www.w3.org/1999/xlink" xml:space="preserve" onload="init(evt)">
<style type="text/css"><![CDATA[
.edge:hover path { stroke: red; }
.edge:hover polygon { stroke: red; fill: red; }
]]></style>
<script type="text/javascript"><![CDATA[
var edges = document.getElementsByTagName('g');
if (edges && edges.length) {
  for (var i=0;i<edges.length;i++) {
    if (edges[i].id.substr(0,4)=='edge') {
      edges[i].setAttribute('class','edge');
    }
  }
}
]]></script>
        <defs>
                <circle id="rim" cx="0" cy="0" r="7"/>
                <circle id="rim2" cx="0" cy="0" r="3.5"/>
                <g id="zoomPlus">
                        <use xlink:href="#rim" fill="#404040">
                                <set attributeName="fill" to="#808080" begin="zoomplus.mouseover" end="zoomplus.mouseout"/>
                        </use>
                        <path d="M-4,0h8M0,-4v8" fill="none" stroke="white" stroke-width="1.5" pointer-events="none"/>
                </g>
                <g id="zoomMin">
                        <use xlink:href="#rim" fill="#404040">
                                <set attributeName="fill" to="#808080" begin="zoomminus.mouseover" end="zoomminus.mouseout"/>
                        </use>
                        <path d="M-4,0h8" fill="none" stroke="white" stroke-width="1.5" pointer-events="none"/>
                </g>
                <g id="dirArrow">
                        <path fill="none" stroke="white" stroke-width="1.5" d="M0,-3.0v7 M-2.5,-0.5L0,-3.0L2.5,-0.5"/>
                </g>
               <g id="resetDef">
                       <use xlink:href="#rim2" fill="#404040">
                               <set attributeName="fill" to="#808080" begin="reset.mouseover" end="reset.mouseout"/>
                       </use>
               </g>
        </defs>

<script type="text/javascript">
var viewWidth = 1114;
var viewHeight = 308;
var sectionId = 'dynsection-0';
</script>
<script xlink:href="../../svgpan.js"/>
<svg id="graph" class="graph">
<g id="viewport">
<title>src/ports/POSIX/networkconfig.c</title>
<!-- Node1 -->
<g id="node1" class="node"><title>Node1</title>
<polygon fill="#bfbfbf" stroke="black" points="410.5,-280.5 410.5,-299.5 571.5,-299.5 571.5,-280.5 410.5,-280.5"/>
<text text-anchor="middle" x="491" y="-287.5" font-family="Helvetica,sans-Serif" font-size="10.00">src/ports/POSIX/networkconfig.c</text>
</g>
<!-- Node2 -->
<g id="node2" class="node"><title>Node2</title>
<polygon fill="none" stroke="#bfbfbf" points="-0.5,-224.5 -0.5,-243.5 48.5,-243.5 48.5,-224.5 -0.5,-224.5"/>
<text text-anchor="middle" x="24" y="-231.5" font-family="Helvetica,sans-Serif" font-size="10.00">string.h</text>
</g>
<!-- Node1&#45;&gt;Node2 -->
<g id="edge1" class="edge"><title>Node1&#45;&gt;Node2</title>
<path fill="none" stroke="midnightblue" d="M410.266,-284.368C325.115,-278.632 186.968,-266.913 58.7794,-243.86"/>
<polygon fill="midnightblue" stroke="midnightblue" points="59.2479,-240.388 48.782,-242.036 57.9909,-247.274 59.2479,-240.388"/>
</g>
<!-- Node3 -->
<g id="node3" class="node"><title>Node3</title>
<polygon fill="none" stroke="#bfbfbf" points="67,-224.5 67,-243.5 113,-243.5 113,-224.5 67,-224.5"/>
<text text-anchor="middle" x="90" y="-231.5" font-family="Helvetica,sans-Serif" font-size="10.00">stdio.h</text>
</g>
<!-- Node1&#45;&gt;Node3 -->
<g id="edge2" class="edge"><title>Node1&#45;&gt;Node3</title>
<path fill="none" stroke="midnightblue" d="M410.176,-282.723C337.384,-276.253 227.377,-264.452 123.364,-244.008"/>
<polygon fill="midnightblue" stroke="midnightblue" points="123.81,-240.528 113.319,-242.003 122.44,-247.393 123.81,-240.528"/>
</g>
<!-- Node4 -->
<g id="node4" class="node"><title>Node4</title>
<polygon fill="none" stroke="#bfbfbf" points="131,-224.5 131,-243.5 179,-243.5 179,-224.5 131,-224.5"/>
<text text-anchor="middle" x="155" y="-231.5" font-family="Helvetica,sans-Serif" font-size="10.00">stdlib.h</text>
</g>
<!-- Node1&#45;&gt;Node4 -->
<g id="edge3" class="edge"><title>Node1&#45;&gt;Node4</title>
<path fill="none" stroke="midnightblue" d="M416.782,-280.478C357.517,-273.098 272.216,-261.196 188.95,-243.989"/>
<polygon fill="midnightblue" stroke="midnightblue" points="189.575,-240.544 179.07,-241.92 188.14,-247.395 189.575,-240.544"/>
</g>
<!-- Node5 -->
<g id="node5" class="node"><title>Node5</title>
<g id="a_node5"><a xlink:href="../../d1/dad/ciptcpipinterface_8h.html" target="_top" xlink:title="Public interface of the TCP/IP Interface Object. ">
<polygon fill="none" stroke="black" points="277,-168.5 277,-187.5 373,-187.5 373,-168.5 277,-168.5"/>
<text text-anchor="middle" x="325" y="-175.5" font-family="Helvetica,sans-Serif" font-size="10.00">ciptcpipinterface.h</text>
</a>
</g>
</g>
<!-- Node1&#45;&gt;Node5 -->
<g id="edge4" class="edge"><title>Node1&#45;&gt;Node5</title>
<path fill="none" stroke="midnightblue" d="M469.675,-280.493C450.45,-272.385 421.786,-259.185 399,-244 377.149,-229.438 354.886,-208.958 340.567,-194.899"/>
<polygon fill="midnightblue" stroke="midnightblue" points="343.033,-192.415 333.483,-187.828 338.088,-197.369 343.033,-192.415"/>
</g>
<!-- Node14 -->
<g id="node14" class="node"><title>Node14</title>
<g id="a_node14"><a xlink:href="../../dd/d6e/POSIX_2networkconfig_8h.html" target="_top" xlink:title="networkconfig.h">
<polygon fill="none" stroke="black" points="197,-224.5 197,-243.5 283,-243.5 283,-224.5 197,-224.5"/>
<text text-anchor="middle" x="240" y="-231.5" font-family="Helvetica,sans-Serif" font-size="10.00">networkconfig.h</text>
</a>
</g>
</g>
<!-- Node1&#45;&gt;Node14 -->
<g id="edge15" class="edge"><title>Node1&#45;&gt;Node14</title>
<path fill="none" stroke="midnightblue" d="M451.228,-280.444C407.442,-271.023 336.986,-255.866 289.62,-245.675"/>
<polygon fill="midnightblue" stroke="midnightblue" points="290.098,-242.198 279.586,-243.516 288.626,-249.041 290.098,-242.198"/>
</g>
<!-- Node16 -->
<g id="node16" class="node"><title>Node16</title>
<g id="a_node16"><a xlink:href="../../db/d14/cipcommon_8h.html" target="_top" xlink:title="cipcommon.h">
<polygon fill="none" stroke="black" points="183.5,-168.5 183.5,-187.5 258.5,-187.5 258.5,-168.5 183.5,-168.5"/>
<text text-anchor="middle" x="221" y="-175.5" font-family="Helvetica,sans-Serif" font-size="10.00">cipcommon.h</text>
</a>
</g>
</g>
<!-- Node1&#45;&gt;Node16 -->
<g id="edge19" class="edge"><title>Node1&#45;&gt;Node16</title>
<path fill="none" stroke="midnightblue" d="M466.529,-280.465C441.778,-271.717 402.496,-257.519 369,-244 326.681,-226.92 278.407,-205.311 248.819,-191.819"/>
<polygon fill="midnightblue" stroke="midnightblue" points="250.087,-188.55 239.537,-187.573 247.175,-194.916 250.087,-188.55"/>
</g>
<!-- Node17 -->
<g id="node17" class="node"><title>Node17</title>
<g id="a_node17"><a xlink:href="../../d6/d52/ciperror_8h.html" target="_top" xlink:title="ciperror.h">
<polygon fill="none" stroke="black" points="481.5,-112.5 481.5,-131.5 538.5,-131.5 538.5,-112.5 481.5,-112.5"/>
<text text-anchor="middle" x="510" y="-119.5" font-family="Helvetica,sans-Serif" font-size="10.00">ciperror.h</text>
</a>
</g>
</g>
<!-- Node1&#45;&gt;Node17 -->
<g id="edge22" class="edge"><title>Node1&#45;&gt;Node17</title>
<path fill="none" stroke="midnightblue" d="M492.022,-280.075C495.012,-253.945 503.795,-177.211 507.874,-141.577"/>
<polygon fill="midnightblue" stroke="midnightblue" points="511.359,-141.901 509.019,-131.568 504.405,-141.105 511.359,-141.901"/>
</g>
<!-- Node18 -->
<g id="node18" class="node"><title>Node18</title>
<g id="a_node18"><a xlink:href="../../d1/d1b/trace_8h.html" target="_top" xlink:title="Tracing infrastructure for OpENer. ">
<polygon fill="none" stroke="black" points="415.5,-224.5 415.5,-243.5 462.5,-243.5 462.5,-224.5 415.5,-224.5"/>
<text text-anchor="middle" x="439" y="-231.5" font-family="Helvetica,sans-Serif" font-size="10.00">trace.h</text>
</a>
</g>
</g>
<!-- Node1&#45;&gt;Node18 -->
<g id="edge23" class="edge"><title>Node1&#45;&gt;Node18</title>
<path fill="none" stroke="midnightblue" d="M482.413,-280.083C474.841,-272.22 463.622,-260.569 454.486,-251.081"/>
<polygon fill="midnightblue" stroke="midnightblue" points="456.885,-248.527 447.427,-243.751 451.842,-253.382 456.885,-248.527"/>
</g>
<!-- Node19 -->
<g id="node19" class="node"><title>Node19</title>
<g id="a_node19"><a xlink:href="../../d4/d38/opener__api_8h.html" target="_top" xlink:title="opener_api.h">
<polygon fill="none" stroke="black" points="391,-168.5 391,-187.5 463,-187.5 463,-168.5 391,-168.5"/>
<text text-anchor="middle" x="427" y="-175.5" font-family="Helvetica,sans-Serif" font-size="10.00">opener_api.h</text>
</a>
</g>
</g>
<!-- Node1&#45;&gt;Node19 -->
<g id="edge24" class="edge"><title>Node1&#45;&gt;Node19</title>
<path fill="none" stroke="midnightblue" d="M458.014,-280.438C439.537,-273.769 418.048,-262.453 407,-244 398.031,-229.02 406.097,-209.658 414.51,-195.975"/>
<polygon fill="midnightblue" stroke="midnightblue" points="417.511,-197.784 420.186,-187.532 411.702,-193.879 417.511,-197.784"/>
</g>
<!-- Node21 -->
<g id="node21" class="node"><title>Node21</title>
<polygon fill="none" stroke="#bfbfbf" points="519,-224.5 519,-243.5 581,-243.5 581,-224.5 519,-224.5"/>
<text text-anchor="middle" x="550" y="-231.5" font-family="Helvetica,sans-Serif" font-size="10.00">sys/ioctl.h</text>
</g>
<!-- Node1&#45;&gt;Node21 -->
<g id="edge30" class="edge"><title>Node1&#45;&gt;Node21</title>
<path fill="none" stroke="midnightblue" d="M500.479,-280.324C509.201,-272.341 522.343,-260.313 532.898,-250.653"/>
<polygon fill="midnightblue" stroke="midnightblue" points="535.334,-253.167 540.348,-243.834 530.608,-248.004 535.334,-253.167"/>
</g>
<!-- Node22 -->
<g id="node22" class="node"><title>Node22</title>
<polygon fill="none" stroke="#bfbfbf" points="599.5,-224.5 599.5,-243.5 672.5,-243.5 672.5,-224.5 599.5,-224.5"/>
<text text-anchor="middle" x="636" y="-231.5" font-family="Helvetica,sans-Serif" font-size="10.00">sys/socket.h</text>
</g>
<!-- Node1&#45;&gt;Node22 -->
<g id="edge31" class="edge"><title>Node1&#45;&gt;Node22</title>
<path fill="none" stroke="midnightblue" d="M513.976,-280.444C538.157,-271.438 576.418,-257.189 603.646,-247.049"/>
<polygon fill="midnightblue" stroke="midnightblue" points="604.982,-250.286 613.132,-243.516 602.539,-243.727 604.982,-250.286"/>
</g>
<!-- Node23 -->
<g id="node23" class="node"><title>Node23</title>
<polygon fill="none" stroke="#bfbfbf" points="690.5,-224.5 690.5,-243.5 743.5,-243.5 743.5,-224.5 690.5,-224.5"/>
<text text-anchor="middle" x="717" y="-231.5" font-family="Helvetica,sans-Serif" font-size="10.00">linux/if.h</text>
</g>
<!-- Node1&#45;&gt;Node23 -->
<g id="edge32" class="edge"><title>Node1&#45;&gt;Node23</title>
<path fill="none" stroke="midnightblue" d="M527.812,-280.424C564.092,-271.941 621.365,-258.464 680.4,-244.123"/>
<polygon fill="midnightblue" stroke="midnightblue" points="681.384,-247.486 690.273,-241.721 679.729,-240.685 681.384,-247.486"/>
</g>
<!-- Node24 -->
<g id="node24" class="node"><title>Node24</title>
<polygon fill="none" stroke="#bfbfbf" points="761.5,-224.5 761.5,-243.5 808.5,-243.5 808.5,-224.5 761.5,-224.5"/>
<text text-anchor="middle" x="785" y="-231.5" font-family="Helvetica,sans-Serif" font-size="10.00">net/if.h</text>
</g>
<!-- Node1&#45;&gt;Node24 -->
<g id="edge33" class="edge"><title>Node1&#45;&gt;Node24</title>
<path fill="none" stroke="midnightblue" d="M549.881,-280.493C600.704,-272.777 676.262,-260.418 751.188,-243.998"/>
<polygon fill="midnightblue" stroke="midnightblue" points="752.269,-247.343 761.274,-241.762 750.754,-240.509 752.269,-247.343"/>
</g>
<!-- Node25 -->
<g id="node25" class="node"><title>Node25</title>
<polygon fill="none" stroke="#bfbfbf" points="826.5,-224.5 826.5,-243.5 891.5,-243.5 891.5,-224.5 826.5,-224.5"/>
<text text-anchor="middle" x="859" y="-231.5" font-family="Helvetica,sans-Serif" font-size="10.00">netinet/in.h</text>
</g>
<!-- Node1&#45;&gt;Node25 -->
<g id="edge34" class="edge"><title>Node1&#45;&gt;Node25</title>
<path fill="none" stroke="midnightblue" d="M564.071,-280.482C628.036,-272.666 723.676,-260.113 816.63,-243.945"/>
<polygon fill="midnightblue" stroke="midnightblue" points="817.243,-247.391 826.487,-242.215 816.033,-240.497 817.243,-247.391"/>
</g>
<!-- Node26 -->
<g id="node26" class="node"><title>Node26</title>
<polygon fill="none" stroke="#bfbfbf" points="909.5,-224.5 909.5,-243.5 956.5,-243.5 956.5,-224.5 909.5,-224.5"/>
<text text-anchor="middle" x="933" y="-231.5" font-family="Helvetica,sans-Serif" font-size="10.00">errno.h</text>
</g>
<!-- Node1&#45;&gt;Node26 -->
<g id="edge35" class="edge"><title>Node1&#45;&gt;Node26</title>
<path fill="none" stroke="midnightblue" d="M571.876,-283.856C652.519,-277.875 779.985,-266.118 899.271,-243.842"/>
<polygon fill="midnightblue" stroke="midnightblue" points="900.138,-247.24 909.311,-241.938 898.834,-240.362 900.138,-247.24"/>
</g>
<!-- Node27 -->
<g id="node27" class="node"><title>Node27</title>
<polygon fill="none" stroke="#bfbfbf" points="975,-224.5 975,-243.5 1037,-243.5 1037,-224.5 975,-224.5"/>
<text text-anchor="middle" x="1006" y="-231.5" font-family="Helvetica,sans-Serif" font-size="10.00">arpa/inet.h</text>
</g>
<!-- Node1&#45;&gt;Node27 -->
<g id="edge36" class="edge"><title>Node1&#45;&gt;Node27</title>
<path fill="none" stroke="midnightblue" d="M571.887,-284.321C664.415,-278.293 820.591,-266.055 964.813,-243.821"/>
<polygon fill="midnightblue" stroke="midnightblue" points="965.394,-247.273 974.735,-242.273 964.315,-240.357 965.394,-247.273"/>
</g>
<!-- Node28 -->
<g id="node28" class="node"><title>Node28</title>
<polygon fill="none" stroke="#bfbfbf" points="1055.5,-224.5 1055.5,-243.5 1106.5,-243.5 1106.5,-224.5 1055.5,-224.5"/>
<text text-anchor="middle" x="1081" y="-231.5" font-family="Helvetica,sans-Serif" font-size="10.00">unistd.h</text>
</g>
<!-- Node1&#45;&gt;Node28 -->
<g id="edge37" class="edge"><title>Node1&#45;&gt;Node28</title>
<path fill="none" stroke="midnightblue" d="M571.78,-286.585C680.104,-282.403 878.13,-271.446 1045,-244 1045.1,-243.983 1045.21,-243.966 1045.31,-243.949"/>
<polygon fill="midnightblue" stroke="midnightblue" points="1046.02,-247.376 1055.15,-242.001 1044.66,-240.509 1046.02,-247.376"/>
</g>
<!-- Node6 -->
<g id="node6" class="node"><title>Node6</title>
<g id="a_node6"><a xlink:href="../../d7/d69/typedefs_8h.html" target="_top" xlink:title="typedefs.h">
<polygon fill="none" stroke="black" points="276,-56.5 276,-75.5 338,-75.5 338,-56.5 276,-56.5"/>
<text text-anchor="middle" x="307" y="-63.5" font-family="Helvetica,sans-Serif" font-size="10.00">typedefs.h</text>
</a>
</g>
</g>
<!-- Node5&#45;&gt;Node6 -->
<g id="edge5" class="edge"><title>Node5&#45;&gt;Node6</title>
<path fill="none" stroke="midnightblue" d="M323.588,-168.368C320.683,-150.617 313.982,-109.666 310.043,-85.5974"/>
<polygon fill="midnightblue" stroke="midnightblue" points="313.475,-84.8949 308.406,-75.5914 306.567,-86.0254 313.475,-84.8949"/>
</g>
<!-- Node10 -->
<g id="node10" class="node"><title>Node10</title>
<g id="a_node10"><a xlink:href="../../df/d28/ciptypes_8h.html" target="_top" xlink:title="ciptypes.h">
<polygon fill="none" stroke="black" points="179,-112.5 179,-131.5 241,-131.5 241,-112.5 179,-112.5"/>
<text text-anchor="middle" x="210" y="-119.5" font-family="Helvetica,sans-Serif" font-size="10.00">ciptypes.h</text>
</a>
</g>
</g>
<!-- Node5&#45;&gt;Node10 -->
<g id="edge9" class="edge"><title>Node5&#45;&gt;Node10</title>
<path fill="none" stroke="midnightblue" d="M306.778,-168.444C288.104,-159.675 258.844,-145.935 237.383,-135.858"/>
<polygon fill="midnightblue" stroke="midnightblue" points="238.676,-132.599 228.137,-131.516 235.701,-138.935 238.676,-132.599"/>
</g>
<!-- Node7 -->
<g id="node7" class="node"><title>Node7</title>
<polygon fill="none" stroke="#bfbfbf" points="204.5,-0.5 204.5,-19.5 263.5,-19.5 263.5,-0.5 204.5,-0.5"/>
<text text-anchor="middle" x="234" y="-7.5" font-family="Helvetica,sans-Serif" font-size="10.00">inttypes.h</text>
</g>
<!-- Node6&#45;&gt;Node7 -->
<g id="edge6" class="edge"><title>Node6&#45;&gt;Node7</title>
<path fill="none" stroke="midnightblue" d="M295.271,-56.324C284.163,-48.1066 267.258,-35.6017 254.017,-25.8069"/>
<polygon fill="midnightblue" stroke="midnightblue" points="256.063,-22.9671 245.942,-19.8339 251.9,-28.5948 256.063,-22.9671"/>
</g>
<!-- Node8 -->
<g id="node8" class="node"><title>Node8</title>
<polygon fill="none" stroke="#bfbfbf" points="282,-0.5 282,-19.5 334,-19.5 334,-0.5 282,-0.5"/>
<text text-anchor="middle" x="308" y="-7.5" font-family="Helvetica,sans-Serif" font-size="10.00">stddef.h</text>
</g>
<!-- Node6&#45;&gt;Node8 -->
<g id="edge7" class="edge"><title>Node6&#45;&gt;Node8</title>
<path fill="none" stroke="midnightblue" d="M307.165,-56.083C307.296,-49.0059 307.484,-38.8611 307.648,-29.9865"/>
<polygon fill="midnightblue" stroke="midnightblue" points="311.152,-29.8142 307.838,-19.7511 304.153,-29.6845 311.152,-29.8142"/>
</g>
<!-- Node9 -->
<g id="node9" class="node"><title>Node9</title>
<polygon fill="none" stroke="#bfbfbf" points="354,-0.5 354,-19.5 410,-19.5 410,-0.5 354,-0.5"/>
<text text-anchor="middle" x="382" y="-7.5" font-family="Helvetica,sans-Serif" font-size="10.00">stdbool.h</text>
</g>
<!-- Node6&#45;&gt;Node9 -->
<g id="edge8" class="edge"><title>Node6&#45;&gt;Node9</title>
<path fill="none" stroke="midnightblue" d="M319.05,-56.324C330.463,-48.1066 347.831,-35.6017 361.435,-25.8069"/>
<polygon fill="midnightblue" stroke="midnightblue" points="363.66,-28.5174 369.731,-19.8339 359.57,-22.8366 363.66,-28.5174"/>
</g>
<!-- Node10&#45;&gt;Node6 -->
<g id="edge10" class="edge"><title>Node10&#45;&gt;Node6</title>
<path fill="none" stroke="midnightblue" d="M225.585,-112.324C240.999,-103.743 264.812,-90.486 282.71,-80.5224"/>
<polygon fill="midnightblue" stroke="midnightblue" points="284.419,-83.5767 291.454,-75.6545 281.014,-77.4606 284.419,-83.5767"/>
</g>
<!-- Node11 -->
<g id="node11" class="node"><title>Node11</title>
<polygon fill="none" stroke="#bfbfbf" points="128.5,-56.5 128.5,-75.5 219.5,-75.5 219.5,-56.5 128.5,-56.5"/>
<text text-anchor="middle" x="174" y="-63.5" font-family="Helvetica,sans-Serif" font-size="10.00">networkhandler.h</text>
</g>
<!-- Node10&#45;&gt;Node11 -->
<g id="edge11" class="edge"><title>Node10&#45;&gt;Node11</title>
<path fill="none" stroke="midnightblue" d="M204.055,-112.083C199.023,-104.534 191.663,-93.4948 185.487,-84.2298"/>
<polygon fill="midnightblue" stroke="midnightblue" points="188.293,-82.1301 179.834,-75.7511 182.469,-86.0131 188.293,-82.1301"/>
</g>
<!-- Node12 -->
<g id="node12" class="node"><title>Node12</title>
<g id="a_node12"><a xlink:href="../../d8/d2c/enipmessage_8h.html" target="_top" xlink:title="enipmessage.h">
<polygon fill="none" stroke="black" points="27.5,-56.5 27.5,-75.5 110.5,-75.5 110.5,-56.5 27.5,-56.5"/>
<text text-anchor="middle" x="69" y="-63.5" font-family="Helvetica,sans-Serif" font-size="10.00">enipmessage.h</text>
</a>
</g>
</g>
<!-- Node10&#45;&gt;Node12 -->
<g id="edge12" class="edge"><title>Node10&#45;&gt;Node12</title>
<path fill="none" stroke="midnightblue" d="M187.658,-112.444C164.247,-103.478 127.264,-89.314 100.81,-79.1827"/>
<polygon fill="midnightblue" stroke="midnightblue" points="101.828,-75.8245 91.2373,-75.5164 99.3241,-82.3615 101.828,-75.8245"/>
</g>
<!-- Node13 -->
<g id="node13" class="node"><title>Node13</title>
<polygon fill="none" stroke="#bfbfbf" points="52,-0.5 52,-19.5 154,-19.5 154,-0.5 52,-0.5"/>
<text text-anchor="middle" x="103" y="-7.5" font-family="Helvetica,sans-Serif" font-size="10.00">opener_user_conf.h</text>
</g>
<!-- Node10&#45;&gt;Node13 -->
<g id="edge14" class="edge"><title>Node10&#45;&gt;Node13</title>
<path fill="none" stroke="midnightblue" d="M216.714,-112.217C225.987,-98.933 240.254,-73.4356 228,-56 213.313,-35.1026 187.941,-23.8641 163.877,-17.8386"/>
<polygon fill="midnightblue" stroke="midnightblue" points="164.56,-14.4048 154.037,-15.6332 163.029,-21.2354 164.56,-14.4048"/>
</g>
<!-- Node12&#45;&gt;Node13 -->
<g id="edge13" class="edge"><title>Node12&#45;&gt;Node13</title>
<path fill="none" stroke="midnightblue" d="M74.6144,-56.083C79.3674,-48.5341 86.3181,-37.4948 92.1516,-28.2298"/>
<polygon fill="midnightblue" stroke="midnightblue" points="95.1237,-30.0783 97.4901,-19.7511 89.2001,-26.3486 95.1237,-30.0783"/>
</g>
<!-- Node15 -->
<g id="node15" class="node"><title>Node15</title>
<g id="a_node15"><a xlink:href="../../dd/d4d/cipethernetlink_8h.html" target="_top" xlink:title="cipethernetlink.h">
<polygon fill="none" stroke="black" points="78,-168.5 78,-187.5 166,-187.5 166,-168.5 78,-168.5"/>
<text text-anchor="middle" x="122" y="-175.5" font-family="Helvetica,sans-Serif" font-size="10.00">cipethernetlink.h</text>
</a>
</g>
</g>
<!-- Node14&#45;&gt;Node15 -->
<g id="edge16" class="edge"><title>Node14&#45;&gt;Node15</title>
<path fill="none" stroke="midnightblue" d="M221.303,-224.444C202.056,-215.636 171.848,-201.812 149.8,-191.722"/>
<polygon fill="midnightblue" stroke="midnightblue" points="151.16,-188.495 140.61,-187.516 148.247,-194.86 151.16,-188.495"/>
</g>
<!-- Node15&#45;&gt;Node6 -->
<g id="edge17" class="edge"><title>Node15&#45;&gt;Node6</title>
<path fill="none" stroke="midnightblue" d="M126.291,-168.056C133.437,-154.086 149.083,-127.124 170,-112 198.582,-91.333 237.199,-79.7844 266.148,-73.5772"/>
<polygon fill="midnightblue" stroke="midnightblue" points="266.843,-77.0077 275.952,-71.5982 265.458,-70.1461 266.843,-77.0077"/>
</g>
<!-- Node15&#45;&gt;Node10 -->
<g id="edge18" class="edge"><title>Node15&#45;&gt;Node10</title>
<path fill="none" stroke="midnightblue" d="M136.139,-168.324C149.866,-159.9 170.936,-146.971 187.064,-137.074"/>
<polygon fill="midnightblue" stroke="midnightblue" points="189.204,-139.868 195.896,-131.655 185.543,-133.902 189.204,-139.868"/>
</g>
<!-- Node16&#45;&gt;Node6 -->
<g id="edge20" class="edge"><title>Node16&#45;&gt;Node6</title>
<path fill="none" stroke="midnightblue" d="M227.748,-168.368C242.004,-150.135 275.394,-107.426 293.963,-83.6752"/>
<polygon fill="midnightblue" stroke="midnightblue" points="296.881,-85.6253 300.283,-75.5914 291.366,-81.3138 296.881,-85.6253"/>
</g>
<!-- Node16&#45;&gt;Node10 -->
<g id="edge21" class="edge"><title>Node16&#45;&gt;Node10</title>
<path fill="none" stroke="midnightblue" d="M219.184,-168.083C217.726,-160.927 215.629,-150.635 213.807,-141.691"/>
<polygon fill="midnightblue" stroke="midnightblue" points="217.208,-140.851 211.783,-131.751 210.349,-142.248 217.208,-140.851"/>
</g>
<!-- Node19&#45;&gt;Node6 -->
<g id="edge27" class="edge"><title>Node19&#45;&gt;Node6</title>
<path fill="none" stroke="midnightblue" d="M414.579,-168.198C402.536,-159.473 383.946,-145.495 369,-132 351.746,-116.421 333.565,-96.9467 321.385,-83.3953"/>
<polygon fill="midnightblue" stroke="midnightblue" points="323.901,-80.957 314.64,-75.8108 318.67,-85.609 323.901,-80.957"/>
</g>
<!-- Node19&#45;&gt;Node9 -->
<g id="edge26" class="edge"><title>Node19&#45;&gt;Node9</title>
<path fill="none" stroke="midnightblue" d="M421.076,-168.458C415.296,-159.705 406.707,-145.502 402,-132 389.893,-97.2714 385.018,-54.3199 383.129,-30.0533"/>
<polygon fill="midnightblue" stroke="midnightblue" points="386.599,-29.4963 382.422,-19.7595 379.615,-29.9758 386.599,-29.4963"/>
</g>
<!-- Node19&#45;&gt;Node10 -->
<g id="edge28" class="edge"><title>Node19&#45;&gt;Node10</title>
<path fill="none" stroke="midnightblue" d="M392.616,-168.444C354.166,-158.875 291.929,-143.388 250.983,-133.199"/>
<polygon fill="midnightblue" stroke="midnightblue" points="251.609,-129.748 241.059,-130.729 249.918,-136.54 251.609,-129.748"/>
</g>
<!-- Node19&#45;&gt;Node17 -->
<g id="edge29" class="edge"><title>Node19&#45;&gt;Node17</title>
<path fill="none" stroke="midnightblue" d="M440.335,-168.324C453.162,-159.979 472.785,-147.212 487.94,-137.352"/>
<polygon fill="midnightblue" stroke="midnightblue" points="490.224,-140.042 496.698,-131.655 486.407,-134.174 490.224,-140.042"/>
</g>
<!-- Node20 -->
<g id="node20" class="node"><title>Node20</title>
<polygon fill="none" stroke="#bfbfbf" points="411,-112.5 411,-131.5 463,-131.5 463,-112.5 411,-112.5"/>
<text text-anchor="middle" x="437" y="-119.5" font-family="Helvetica,sans-Serif" font-size="10.00">assert.h</text>
</g>
<!-- Node19&#45;&gt;Node20 -->
<g id="edge25" class="edge"><title>Node19&#45;&gt;Node20</title>
<path fill="none" stroke="midnightblue" d="M428.651,-168.083C429.976,-160.927 431.882,-150.635 433.539,-141.691"/>
<polygon fill="midnightblue" stroke="midnightblue" points="437,-142.221 435.379,-131.751 430.117,-140.947 437,-142.221"/>
</g>
</g>
</svg>
        <g id="navigator" transform="translate(0 0)" fill="#404254">
                <rect fill="#f2f5e9" fill-opacity="0.5" stroke="#606060" stroke-width=".5" x="0" y="0" width="60" height="60"/>
                <use id="zoomplus" xlink:href="#zoomPlus" x="17" y="9" onmousedown="handleZoom(evt,'in')"/>
                <use id="zoomminus" xlink:href="#zoomMin" x="42" y="9" onmousedown="handleZoom(evt,'out')"/>
                <use id="reset" xlink:href="#resetDef" x="30" y="36" onmousedown="handleReset()"/>
                <g id="arrowUp" xlink:href="#dirArrow" transform="translate(30 24)" onmousedown="handlePan(0,-1)">
                  <use xlink:href="#rim" fill="#404040">
                        <set attributeName="fill" to="#808080" begin="arrowUp.mouseover" end="arrowUp.mouseout"/>
                  </use>
                  <path fill="none" stroke="white" stroke-width="1.5" d="M0,-3.0v7 M-2.5,-0.5L0,-3.0L2.5,-0.5"/>
                </g>
                <g id="arrowRight" xlink:href="#dirArrow" transform="rotate(90) translate(36 -43)" onmousedown="handlePan(1,0)">
                  <use xlink:href="#rim" fill="#404040">
                        <set attributeName="fill" to="#808080" begin="arrowRight.mouseover" end="arrowRight.mouseout"/>
                  </use>
                  <path fill="none" stroke="white" stroke-width="1.5" d="M0,-3.0v7 M-2.5,-0.5L0,-3.0L2.5,-0.5"/>
                </g>
                <g id="arrowDown" xlink:href="#dirArrow" transform="rotate(180) translate(-30 -48)" onmousedown="handlePan(0,1)">
                  <use xlink:href="#rim" fill="#404040">
                        <set attributeName="fill" to="#808080" begin="arrowDown.mouseover" end="arrowDown.mouseout"/>
                  </use>
                  <path fill="none" stroke="white" stroke-width="1.5" d="M0,-3.0v7 M-2.5,-0.5L0,-3.0L2.5,-0.5"/>
                </g>
                <g id="arrowLeft" xlink:href="#dirArrow" transform="rotate(270) translate(-36 17)" onmousedown="handlePan(-1,0)">
                  <use xlink:href="#rim" fill="#404040">
                        <set attributeName="fill" to="#808080" begin="arrowLeft.mouseover" end="arrowLeft.mouseout"/>
                  </use>
                  <path fill="none" stroke="white" stroke-width="1.5" d="M0,-3.0v7 M-2.5,-0.5L0,-3.0L2.5,-0.5"/>
                </g>
        </g>
        <svg viewBox="0 0 15 15" width="100%" height="30px" preserveAspectRatio="xMaxYMin meet">
         <g id="arrow_out" transform="scale(0.3 0.3)">
          <a xlink:href="POSIX_2networkconfig_8c__incl_org.svg" target="_base">
           <rect id="button" ry="5" rx="5" y="6" x="6" height="38" width="38"
                fill="#f2f5e9" fill-opacity="0.5" stroke="#606060" stroke-width="1.0"/>
           <path id="arrow"
             d="M 11.500037,31.436501 C 11.940474,20.09759 22.043105,11.32322 32.158766,21.979434 L 37.068811,17.246167 C 37.068811,17.246167 37.088388,32 37.088388,32 L 22.160133,31.978069 C 22.160133,31.978069 26.997745,27.140456 26.997745,27.140456 C 18.528582,18.264221 13.291696,25.230495 11.500037,31.436501 z"
             style="fill:#404040;"/>
          </a>
         </g>
        </svg>
</svg>
