<?xml version="1.0" encoding="UTF-8" standalone="no"?>
<!DOCTYPE svg PUBLIC "-//W3C//DTD SVG 1.1//EN"
 "http://www.w3.org/Graphics/SVG/1.1/DTD/svg11.dtd">
<!-- Generated by graphviz version 2.36.0 (20140111.2315)
 -->
<!-- Title: src/cip/cipmessagerouter.c Pages: 1 -->
<svg width="545pt" height="308pt"
 viewBox="0.00 0.00 545.04 308.00" xmlns="http://www.w3.org/2000/svg" xmlns:xlink="http://www.w3.org/1999/xlink">
<g id="graph0" class="graph" transform="scale(1 1) rotate(0) translate(4 304)">
<title>src/cip/cipmessagerouter.c</title>
<!-- Node1 -->
<g id="node1" class="node"><title>Node1</title>
<polygon fill="#bfbfbf" stroke="black" points="269.041,-280.5 269.041,-299.5 403.041,-299.5 403.041,-280.5 269.041,-280.5"/>
<text text-anchor="middle" x="336.041" y="-287.5" font-family="Helvetica,sans-Serif" font-size="10.00">src/cip/cipmessagerouter.c</text>
</g>
<!-- Node2 -->
<g id="node2" class="node"><title>Node2</title>
<g id="a_node2"><a xlink:href="../../d4/d38/opener__api_8h.html" target="_top" xlink:title="opener_api.h">
<polygon fill="none" stroke="black" points="71.0413,-224.5 71.0413,-243.5 143.041,-243.5 143.041,-224.5 71.0413,-224.5"/>
<text text-anchor="middle" x="107.041" y="-231.5" font-family="Helvetica,sans-Serif" font-size="10.00">opener_api.h</text>
</a>
</g>
</g>
<!-- Node1&#45;&gt;Node2 -->
<g id="edge1" class="edge"><title>Node1&#45;&gt;Node2</title>
<path fill="none" stroke="midnightblue" d="M299.756,-280.444C260.058,-271.083 196.335,-256.056 153.13,-245.868"/>
<polygon fill="midnightblue" stroke="midnightblue" points="153.694,-242.405 143.157,-243.516 152.087,-249.218 153.694,-242.405"/>
</g>
<!-- Node13 -->
<g id="node13" class="node"><title>Node13</title>
<g id="a_node13"><a xlink:href="../../d6/d52/ciperror_8h.html" target="_top" xlink:title="ciperror.h">
<polygon fill="none" stroke="black" points="130.541,-168.5 130.541,-187.5 187.541,-187.5 187.541,-168.5 130.541,-168.5"/>
<text text-anchor="middle" x="159.041" y="-175.5" font-family="Helvetica,sans-Serif" font-size="10.00">ciperror.h</text>
</a>
</g>
</g>
<!-- Node1&#45;&gt;Node13 -->
<g id="edge25" class="edge"><title>Node1&#45;&gt;Node13</title>
<path fill="none" stroke="midnightblue" d="M304.627,-280.354C280.962,-272.954 248.375,-260.818 223.041,-244 202.937,-230.653 184.092,-210.167 172.129,-195.768"/>
<polygon fill="midnightblue" stroke="midnightblue" points="174.626,-193.289 165.62,-187.708 169.18,-197.687 174.626,-193.289"/>
</g>
<!-- Node14 -->
<g id="node14" class="node"><title>Node14</title>
<g id="a_node14"><a xlink:href="../../db/d14/cipcommon_8h.html" target="_top" xlink:title="cipcommon.h">
<polygon fill="none" stroke="black" points="351.541,-224.5 351.541,-243.5 426.541,-243.5 426.541,-224.5 351.541,-224.5"/>
<text text-anchor="middle" x="389.041" y="-231.5" font-family="Helvetica,sans-Serif" font-size="10.00">cipcommon.h</text>
</a>
</g>
</g>
<!-- Node1&#45;&gt;Node14 -->
<g id="edge17" class="edge"><title>Node1&#45;&gt;Node14</title>
<path fill="none" stroke="midnightblue" d="M344.793,-280.083C352.511,-272.22 363.946,-260.569 373.258,-251.081"/>
<polygon fill="midnightblue" stroke="midnightblue" points="375.946,-253.34 380.452,-243.751 370.95,-248.436 375.946,-253.34"/>
</g>
<!-- Node15 -->
<g id="node15" class="node"><title>Node15</title>
<g id="a_node15"><a xlink:href="../../d2/d75/cipmessagerouter_8h.html" target="_top" xlink:title="cipmessagerouter.h">
<polygon fill="none" stroke="black" points="232.041,-224.5 232.041,-243.5 334.041,-243.5 334.041,-224.5 232.041,-224.5"/>
<text text-anchor="middle" x="283.041" y="-231.5" font-family="Helvetica,sans-Serif" font-size="10.00">cipmessagerouter.h</text>
</a>
</g>
</g>
<!-- Node1&#45;&gt;Node15 -->
<g id="edge20" class="edge"><title>Node1&#45;&gt;Node15</title>
<path fill="none" stroke="midnightblue" d="M327.289,-280.083C319.572,-272.22 308.137,-260.569 298.825,-251.081"/>
<polygon fill="midnightblue" stroke="midnightblue" points="301.133,-248.436 291.63,-243.751 296.137,-253.34 301.133,-248.436"/>
</g>
<!-- Node16 -->
<g id="node16" class="node"><title>Node16</title>
<g id="a_node16"><a xlink:href="../../d0/dec/endianconv_8h.html" target="_top" xlink:title="Responsible for Endianess conversion. ">
<polygon fill="none" stroke="black" points="452.041,-112.5 452.041,-131.5 526.041,-131.5 526.041,-112.5 452.041,-112.5"/>
<text text-anchor="middle" x="489.041" y="-119.5" font-family="Helvetica,sans-Serif" font-size="10.00">endianconv.h</text>
</a>
</g>
</g>
<!-- Node1&#45;&gt;Node16 -->
<g id="edge23" class="edge"><title>Node1&#45;&gt;Node16</title>
<path fill="none" stroke="midnightblue" d="M369.447,-280.464C390.532,-273.609 417.081,-262.084 435.041,-244 463.989,-214.853 478.827,-167.493 485.154,-141.511"/>
<polygon fill="midnightblue" stroke="midnightblue" points="488.624,-142.036 487.422,-131.509 481.797,-140.488 488.624,-142.036"/>
</g>
<!-- Node17 -->
<g id="node17" class="node"><title>Node17</title>
<g id="a_node17"><a xlink:href="../../d1/d1b/trace_8h.html" target="_top" xlink:title="Tracing infrastructure for OpENer. ">
<polygon fill="none" stroke="black" points="490.541,-224.5 490.541,-243.5 537.541,-243.5 537.541,-224.5 490.541,-224.5"/>
<text text-anchor="middle" x="514.041" y="-231.5" font-family="Helvetica,sans-Serif" font-size="10.00">trace.h</text>
</a>
</g>
</g>
<!-- Node1&#45;&gt;Node17 -->
<g id="edge26" class="edge"><title>Node1&#45;&gt;Node17</title>
<path fill="none" stroke="midnightblue" d="M364.246,-280.444C395.873,-270.849 447.12,-255.302 480.702,-245.114"/>
<polygon fill="midnightblue" stroke="midnightblue" points="481.963,-248.389 490.516,-242.137 479.931,-241.691 481.963,-248.389"/>
</g>
<!-- Node3 -->
<g id="node3" class="node"><title>Node3</title>
<polygon fill="none" stroke="#bfbfbf" points="20.0413,-168.5 20.0413,-187.5 72.0413,-187.5 72.0413,-168.5 20.0413,-168.5"/>
<text text-anchor="middle" x="46.0413" y="-175.5" font-family="Helvetica,sans-Serif" font-size="10.00">assert.h</text>
</g>
<!-- Node2&#45;&gt;Node3 -->
<g id="edge2" class="edge"><title>Node2&#45;&gt;Node3</title>
<path fill="none" stroke="midnightblue" d="M97.2406,-224.324C88.2233,-216.341 74.6354,-204.313 63.7233,-194.653"/>
<polygon fill="midnightblue" stroke="midnightblue" points="65.828,-191.842 56.0204,-187.834 61.1881,-197.083 65.828,-191.842"/>
</g>
<!-- Node4 -->
<g id="node4" class="node"><title>Node4</title>
<polygon fill="none" stroke="#bfbfbf" points="49.0413,-0.5 49.0413,-19.5 105.041,-19.5 105.041,-0.5 49.0413,-0.5"/>
<text text-anchor="middle" x="77.0413" y="-7.5" font-family="Helvetica,sans-Serif" font-size="10.00">stdbool.h</text>
</g>
<!-- Node2&#45;&gt;Node4 -->
<g id="edge3" class="edge"><title>Node2&#45;&gt;Node4</title>
<path fill="none" stroke="midnightblue" d="M70.9477,-226.126C49.5729,-219.999 24.1743,-208.66 11.0413,-188 -23.1973,-134.137 32.7609,-59.8795 61.5683,-27.362"/>
<polygon fill="midnightblue" stroke="midnightblue" points="64.4109,-29.4388 68.5569,-19.6888 59.2357,-24.7252 64.4109,-29.4388"/>
</g>
<!-- Node5 -->
<g id="node5" class="node"><title>Node5</title>
<g id="a_node5"><a xlink:href="../../d7/d69/typedefs_8h.html" target="_top" xlink:title="typedefs.h">
<polygon fill="none" stroke="black" points="281.041,-56.5 281.041,-75.5 343.041,-75.5 343.041,-56.5 281.041,-56.5"/>
<text text-anchor="middle" x="312.041" y="-63.5" font-family="Helvetica,sans-Serif" font-size="10.00">typedefs.h</text>
</a>
</g>
</g>
<!-- Node2&#45;&gt;Node5 -->
<g id="edge4" class="edge"><title>Node2&#45;&gt;Node5</title>
<path fill="none" stroke="midnightblue" d="M104.708,-224.397C99.3642,-202.612 88.7693,-144.679 117.041,-112 136.82,-89.139 219.807,-76.5651 270.935,-70.8559"/>
<polygon fill="midnightblue" stroke="midnightblue" points="271.449,-74.321 281.017,-69.7726 270.701,-67.3611 271.449,-74.321"/>
</g>
<!-- Node9 -->
<g id="node9" class="node"><title>Node9</title>
<g id="a_node9"><a xlink:href="../../df/d28/ciptypes_8h.html" target="_top" xlink:title="ciptypes.h">
<polygon fill="none" stroke="black" points="207.041,-168.5 207.041,-187.5 269.041,-187.5 269.041,-168.5 207.041,-168.5"/>
<text text-anchor="middle" x="238.041" y="-175.5" font-family="Helvetica,sans-Serif" font-size="10.00">ciptypes.h</text>
</a>
</g>
</g>
<!-- Node2&#45;&gt;Node9 -->
<g id="edge9" class="edge"><title>Node2&#45;&gt;Node9</title>
<path fill="none" stroke="midnightblue" d="M127.799,-224.444C149.358,-215.557 183.305,-201.563 207.835,-191.451"/>
<polygon fill="midnightblue" stroke="midnightblue" points="209.47,-194.563 217.381,-187.516 206.802,-188.092 209.47,-194.563"/>
</g>
<!-- Node2&#45;&gt;Node13 -->
<g id="edge16" class="edge"><title>Node2&#45;&gt;Node13</title>
<path fill="none" stroke="midnightblue" d="M115.628,-224.083C123.2,-216.22 134.419,-204.569 143.556,-195.081"/>
<polygon fill="midnightblue" stroke="midnightblue" points="146.199,-197.382 150.614,-187.751 141.157,-192.527 146.199,-197.382"/>
</g>
<!-- Node5&#45;&gt;Node4 -->
<g id="edge7" class="edge"><title>Node5&#45;&gt;Node4</title>
<path fill="none" stroke="midnightblue" d="M280.835,-57.8292C238.004,-47.9871 161.078,-30.3106 114.975,-19.7167"/>
<polygon fill="midnightblue" stroke="midnightblue" points="115.601,-16.2695 105.072,-17.441 114.034,-23.0917 115.601,-16.2695"/>
</g>
<!-- Node6 -->
<g id="node6" class="node"><title>Node6</title>
<polygon fill="none" stroke="#bfbfbf" points="208.541,-0.5 208.541,-19.5 267.541,-19.5 267.541,-0.5 208.541,-0.5"/>
<text text-anchor="middle" x="238.041" y="-7.5" font-family="Helvetica,sans-Serif" font-size="10.00">inttypes.h</text>
</g>
<!-- Node5&#45;&gt;Node6 -->
<g id="edge5" class="edge"><title>Node5&#45;&gt;Node6</title>
<path fill="none" stroke="midnightblue" d="M300.152,-56.324C288.891,-48.1066 271.755,-35.6017 258.332,-25.8069"/>
<polygon fill="midnightblue" stroke="midnightblue" points="260.288,-22.9014 250.147,-19.8339 256.162,-28.5559 260.288,-22.9014"/>
</g>
<!-- Node7 -->
<g id="node7" class="node"><title>Node7</title>
<polygon fill="none" stroke="#bfbfbf" points="286.041,-0.5 286.041,-19.5 338.041,-19.5 338.041,-0.5 286.041,-0.5"/>
<text text-anchor="middle" x="312.041" y="-7.5" font-family="Helvetica,sans-Serif" font-size="10.00">stddef.h</text>
</g>
<!-- Node5&#45;&gt;Node7 -->
<g id="edge6" class="edge"><title>Node5&#45;&gt;Node7</title>
<path fill="none" stroke="midnightblue" d="M312.041,-56.083C312.041,-49.0059 312.041,-38.8611 312.041,-29.9865"/>
<polygon fill="midnightblue" stroke="midnightblue" points="315.541,-29.751 312.041,-19.7511 308.541,-29.7511 315.541,-29.751"/>
</g>
<!-- Node8 -->
<g id="node8" class="node"><title>Node8</title>
<polygon fill="none" stroke="#bfbfbf" points="356.541,-0.5 356.541,-19.5 497.541,-19.5 497.541,-0.5 356.541,-0.5"/>
<text text-anchor="middle" x="427.041" y="-7.5" font-family="Helvetica,sans-Serif" font-size="10.00">platform_network_includes.h</text>
</g>
<!-- Node5&#45;&gt;Node8 -->
<g id="edge8" class="edge"><title>Node5&#45;&gt;Node8</title>
<path fill="none" stroke="midnightblue" d="M330.263,-56.4435C348.937,-47.6751 378.197,-33.9355 399.659,-23.8579"/>
<polygon fill="midnightblue" stroke="midnightblue" points="401.34,-26.935 408.904,-19.5164 398.365,-20.5988 401.34,-26.935"/>
</g>
<!-- Node9&#45;&gt;Node5 -->
<g id="edge10" class="edge"><title>Node9&#45;&gt;Node5</title>
<path fill="none" stroke="midnightblue" d="M238.926,-168.319C240.61,-155.168 245.23,-129.843 257.041,-112 265.209,-99.6612 277.796,-89.0066 288.868,-81.1664"/>
<polygon fill="midnightblue" stroke="midnightblue" points="290.955,-83.9811 297.31,-75.5037 287.056,-78.1678 290.955,-83.9811"/>
</g>
<!-- Node10 -->
<g id="node10" class="node"><title>Node10</title>
<g id="a_node10"><a xlink:href="../../d0/d47/networkhandler_8h.html" target="_top" xlink:title="networkhandler.h">
<polygon fill="none" stroke="black" points="266.541,-112.5 266.541,-131.5 357.541,-131.5 357.541,-112.5 266.541,-112.5"/>
<text text-anchor="middle" x="312.041" y="-119.5" font-family="Helvetica,sans-Serif" font-size="10.00">networkhandler.h</text>
</a>
</g>
</g>
<!-- Node9&#45;&gt;Node10 -->
<g id="edge11" class="edge"><title>Node9&#45;&gt;Node10</title>
<path fill="none" stroke="midnightblue" d="M249.931,-168.324C261.192,-160.107 278.328,-147.602 291.75,-137.807"/>
<polygon fill="midnightblue" stroke="midnightblue" points="293.921,-140.556 299.936,-131.834 289.795,-134.901 293.921,-140.556"/>
</g>
<!-- Node11 -->
<g id="node11" class="node"><title>Node11</title>
<g id="a_node11"><a xlink:href="../../d8/d2c/enipmessage_8h.html" target="_top" xlink:title="enipmessage.h">
<polygon fill="none" stroke="black" points="126.541,-112.5 126.541,-131.5 209.541,-131.5 209.541,-112.5 126.541,-112.5"/>
<text text-anchor="middle" x="168.041" y="-119.5" font-family="Helvetica,sans-Serif" font-size="10.00">enipmessage.h</text>
</a>
</g>
</g>
<!-- Node9&#45;&gt;Node11 -->
<g id="edge13" class="edge"><title>Node9&#45;&gt;Node11</title>
<path fill="none" stroke="midnightblue" d="M226.795,-168.324C216.244,-160.185 200.241,-147.839 187.599,-138.087"/>
<polygon fill="midnightblue" stroke="midnightblue" points="189.548,-135.171 179.493,-131.834 185.273,-140.713 189.548,-135.171"/>
</g>
<!-- Node12 -->
<g id="node12" class="node"><title>Node12</title>
<polygon fill="none" stroke="#bfbfbf" points="69.0413,-56.5 69.0413,-75.5 171.041,-75.5 171.041,-56.5 69.0413,-56.5"/>
<text text-anchor="middle" x="120.041" y="-63.5" font-family="Helvetica,sans-Serif" font-size="10.00">opener_user_conf.h</text>
</g>
<!-- Node9&#45;&gt;Node12 -->
<g id="edge15" class="edge"><title>Node9&#45;&gt;Node12</title>
<path fill="none" stroke="midnightblue" d="M206.75,-169.665C174.524,-161.402 127.562,-147.137 117.041,-132 107.783,-118.678 109.856,-99.8479 113.461,-85.8815"/>
<polygon fill="midnightblue" stroke="midnightblue" points="116.929,-86.5075 116.493,-75.9217 110.232,-84.4687 116.929,-86.5075"/>
</g>
<!-- Node10&#45;&gt;Node5 -->
<g id="edge12" class="edge"><title>Node10&#45;&gt;Node5</title>
<path fill="none" stroke="midnightblue" d="M312.041,-112.083C312.041,-105.006 312.041,-94.8611 312.041,-85.9865"/>
<polygon fill="midnightblue" stroke="midnightblue" points="315.541,-85.751 312.041,-75.7511 308.541,-85.7511 315.541,-85.751"/>
</g>
<!-- Node11&#45;&gt;Node12 -->
<g id="edge14" class="edge"><title>Node11&#45;&gt;Node12</title>
<path fill="none" stroke="midnightblue" d="M160.115,-112.083C153.195,-104.298 142.976,-92.8015 134.589,-83.3665"/>
<polygon fill="midnightblue" stroke="midnightblue" points="137.08,-80.8999 127.82,-75.7511 131.848,-85.5505 137.08,-80.8999"/>
</g>
<!-- Node14&#45;&gt;Node5 -->
<g id="edge18" class="edge"><title>Node14&#45;&gt;Node5</title>
<path fill="none" stroke="midnightblue" d="M391.036,-224.331C395.363,-203.357 403.585,-148.885 382.041,-112 373.753,-97.8093 359.01,-87.345 345.185,-80.0972"/>
<polygon fill="midnightblue" stroke="midnightblue" points="346.377,-76.7863 335.85,-75.5871 343.332,-83.0891 346.377,-76.7863"/>
</g>
<!-- Node14&#45;&gt;Node9 -->
<g id="edge19" class="edge"><title>Node14&#45;&gt;Node9</title>
<path fill="none" stroke="midnightblue" d="M365.115,-224.444C339.823,-215.399 299.739,-201.064 271.362,-190.916"/>
<polygon fill="midnightblue" stroke="midnightblue" points="272.45,-187.588 261.856,-187.516 270.093,-194.179 272.45,-187.588"/>
</g>
<!-- Node15&#45;&gt;Node5 -->
<g id="edge21" class="edge"><title>Node15&#45;&gt;Node5</title>
<path fill="none" stroke="midnightblue" d="M293.848,-224.417C312.824,-208.568 351.5,-172.597 366.041,-132 369.039,-123.632 369.812,-120.05 366.041,-112 359.997,-99.0941 348.229,-88.5985 337.219,-80.9999"/>
<polygon fill="midnightblue" stroke="midnightblue" points="338.985,-77.9748 328.674,-75.5364 335.214,-83.8723 338.985,-77.9748"/>
</g>
<!-- Node15&#45;&gt;Node9 -->
<g id="edge22" class="edge"><title>Node15&#45;&gt;Node9</title>
<path fill="none" stroke="midnightblue" d="M275.61,-224.083C269.189,-216.377 259.736,-205.033 251.919,-195.653"/>
<polygon fill="midnightblue" stroke="midnightblue" points="254.425,-193.193 245.334,-187.751 249.047,-197.674 254.425,-193.193"/>
</g>
<!-- Node16&#45;&gt;Node5 -->
<g id="edge24" class="edge"><title>Node16&#45;&gt;Node5</title>
<path fill="none" stroke="midnightblue" d="M460.995,-112.444C430.959,-103.28 383.128,-88.6876 349.799,-78.5192"/>
<polygon fill="midnightblue" stroke="midnightblue" points="350.542,-75.0869 339.956,-75.5164 348.5,-81.7822 350.542,-75.0869"/>
</g>
</g>
</svg>
