<?xml version="1.0" encoding="UTF-8" standalone="no"?>
<!DOCTYPE svg PUBLIC "-//W3C//DTD SVG 1.1//EN"
 "http://www.w3.org/Graphics/SVG/1.1/DTD/svg11.dtd">
<!-- Generated by graphviz version 2.36.0 (20140111.2315)
 -->
<!-- Title: src/cip/cipioconnection.c Pages: 1 -->
<!--zoomable 532 -->
<svg id="main" version="1.1" xmlns="http://www.w3.org/2000/svg" xmlns:xlink="http://www.w3.org/1999/xlink" xml:space="preserve" onload="init(evt)">
<style type="text/css"><![CDATA[
.edge:hover path { stroke: red; }
.edge:hover polygon { stroke: red; fill: red; }
]]></style>
<script type="text/javascript"><![CDATA[
var edges = document.getElementsByTagName('g');
if (edges && edges.length) {
  for (var i=0;i<edges.length;i++) {
    if (edges[i].id.substr(0,4)=='edge') {
      edges[i].setAttribute('class','edge');
    }
  }
}
]]></script>
        <defs>
                <circle id="rim" cx="0" cy="0" r="7"/>
                <circle id="rim2" cx="0" cy="0" r="3.5"/>
                <g id="zoomPlus">
                        <use xlink:href="#rim" fill="#404040">
                                <set attributeName="fill" to="#808080" begin="zoomplus.mouseover" end="zoomplus.mouseout"/>
                        </use>
                        <path d="M-4,0h8M0,-4v8" fill="none" stroke="white" stroke-width="1.5" pointer-events="none"/>
                </g>
                <g id="zoomMin">
                        <use xlink:href="#rim" fill="#404040">
                                <set attributeName="fill" to="#808080" begin="zoomminus.mouseover" end="zoomminus.mouseout"/>
                        </use>
                        <path d="M-4,0h8" fill="none" stroke="white" stroke-width="1.5" pointer-events="none"/>
                </g>
                <g id="dirArrow">
                        <path fill="none" stroke="white" stroke-width="1.5" d="M0,-3.0v7 M-2.5,-0.5L0,-3.0L2.5,-0.5"/>
                </g>
               <g id="resetDef">
                       <use xlink:href="#rim2" fill="#404040">
                               <set attributeName="fill" to="#808080" begin="reset.mouseover" end="reset.mouseout"/>
                       </use>
               </g>
        </defs>

<script type="text/javascript">
var viewWidth = 1401;
var viewHeight = 532;
var sectionId = 'dynsection-0';
</script>
<script xlink:href="../../svgpan.js"/>
<svg id="graph" class="graph">
<g id="viewport">
<title>src/cip/cipioconnection.c</title>
<!-- Node1 -->
<g id="node1" class="node"><title>Node1</title>
<polygon fill="#bfbfbf" stroke="black" points="807.5,-504.5 807.5,-523.5 932.5,-523.5 932.5,-504.5 807.5,-504.5"/>
<text text-anchor="middle" x="870" y="-511.5" font-family="Helvetica,sans-Serif" font-size="10.00">src/cip/cipioconnection.c</text>
</g>
<!-- Node2 -->
<g id="node2" class="node"><title>Node2</title>
<polygon fill="none" stroke="#bfbfbf" points="665.5,-392.5 665.5,-411.5 714.5,-411.5 714.5,-392.5 665.5,-392.5"/>
<text text-anchor="middle" x="690" y="-399.5" font-family="Helvetica,sans-Serif" font-size="10.00">string.h</text>
</g>
<!-- Node1&#45;&gt;Node2 -->
<g id="edge1" class="edge"><title>Node1&#45;&gt;Node2</title>
<path fill="none" stroke="midnightblue" d="M855.876,-504.368C824.856,-485.412 750.546,-440.001 712.815,-416.942"/>
<polygon fill="midnightblue" stroke="midnightblue" points="714.417,-413.819 704.059,-411.591 710.766,-419.792 714.417,-413.819"/>
</g>
<!-- Node3 -->
<g id="node3" class="node"><title>Node3</title>
<polygon fill="none" stroke="#bfbfbf" points="232,-0.5 232,-19.5 288,-19.5 288,-0.5 232,-0.5"/>
<text text-anchor="middle" x="260" y="-7.5" font-family="Helvetica,sans-Serif" font-size="10.00">stdbool.h</text>
</g>
<!-- Node1&#45;&gt;Node3 -->
<g id="edge2" class="edge"><title>Node1&#45;&gt;Node3</title>
<path fill="none" stroke="midnightblue" d="M807.432,-511.666C607.949,-506.593 0,-484.451 0,-403 0,-403 0,-403 0,-121 0,-25.9349 149.253,-11.7785 221.592,-10.5002"/>
<polygon fill="midnightblue" stroke="midnightblue" points="221.717,-13.9992 231.68,-10.397 221.645,-6.99959 221.717,-13.9992"/>
</g>
<!-- Node4 -->
<g id="node4" class="node"><title>Node4</title>
<g id="a_node4"><a xlink:href="../../de/d45/cipioconnection_8h.html" target="_top" xlink:title="cipioconnection.h">
<polygon fill="none" stroke="black" points="385,-392.5 385,-411.5 477,-411.5 477,-392.5 385,-392.5"/>
<text text-anchor="middle" x="431" y="-399.5" font-family="Helvetica,sans-Serif" font-size="10.00">cipioconnection.h</text>
</a>
</g>
</g>
<!-- Node1&#45;&gt;Node4 -->
<g id="edge3" class="edge"><title>Node1&#45;&gt;Node4</title>
<path fill="none" stroke="midnightblue" d="M807.151,-510.78C714.074,-506.618 544.784,-495.441 491,-468 469.702,-457.134 452.118,-435.444 441.608,-420.114"/>
<polygon fill="midnightblue" stroke="midnightblue" points="444.408,-418.001 436.007,-411.545 438.548,-421.83 444.408,-418.001"/>
</g>
<!-- Node16 -->
<g id="node16" class="node"><title>Node16</title>
<g id="a_node16"><a xlink:href="../../d2/da3/cipconnectionmanager_8h.html" target="_top" xlink:title="cipconnectionmanager.h">
<polygon fill="none" stroke="black" points="510,-336.5 510,-355.5 632,-355.5 632,-336.5 510,-336.5"/>
<text text-anchor="middle" x="571" y="-343.5" font-family="Helvetica,sans-Serif" font-size="10.00">cipconnectionmanager.h</text>
</a>
</g>
</g>
<!-- Node1&#45;&gt;Node16 -->
<g id="edge54" class="edge"><title>Node1&#45;&gt;Node16</title>
<path fill="none" stroke="midnightblue" d="M807.399,-511.302C750.434,-507.787 665.097,-497.506 597,-468 559.479,-451.743 542.088,-448.673 524,-412 514.768,-393.282 532.455,-374.202 548.706,-361.6"/>
<polygon fill="midnightblue" stroke="midnightblue" points="550.885,-364.342 556.923,-355.636 546.774,-358.677 550.885,-364.342"/>
</g>
<!-- Node21 -->
<g id="node21" class="node"><title>Node21</title>
<g id="a_node21"><a xlink:href="../../da/dc2/generic__networkhandler_8h.html" target="_top" xlink:title="generic_networkhandler.h">
<polygon fill="none" stroke="black" points="806,-448.5 806,-467.5 934,-467.5 934,-448.5 806,-448.5"/>
<text text-anchor="middle" x="870" y="-455.5" font-family="Helvetica,sans-Serif" font-size="10.00">generic_networkhandler.h</text>
</a>
</g>
</g>
<!-- Node1&#45;&gt;Node21 -->
<g id="edge39" class="edge"><title>Node1&#45;&gt;Node21</title>
<path fill="none" stroke="midnightblue" d="M870,-504.083C870,-497.006 870,-486.861 870,-477.986"/>
<polygon fill="midnightblue" stroke="midnightblue" points="873.5,-477.751 870,-467.751 866.5,-477.751 873.5,-477.751"/>
</g>
<!-- Node25 -->
<g id="node25" class="node"><title>Node25</title>
<g id="a_node25"><a xlink:href="../../d0/dec/endianconv_8h.html" target="_top" xlink:title="Responsible for Endianess conversion. ">
<polygon fill="none" stroke="black" points="1289,-392.5 1289,-411.5 1363,-411.5 1363,-392.5 1289,-392.5"/>
<text text-anchor="middle" x="1326" y="-399.5" font-family="Helvetica,sans-Serif" font-size="10.00">endianconv.h</text>
</a>
</g>
</g>
<!-- Node1&#45;&gt;Node25 -->
<g id="edge75" class="edge"><title>Node1&#45;&gt;Node25</title>
<path fill="none" stroke="midnightblue" d="M932.584,-511.893C1031.28,-509.185 1217.75,-499.879 1275,-468 1294.33,-457.238 1308.88,-435.854 1317.39,-420.551"/>
<polygon fill="midnightblue" stroke="midnightblue" points="1320.57,-422.028 1322.1,-411.545 1314.37,-418.782 1320.57,-422.028"/>
</g>
<!-- Node26 -->
<g id="node26" class="node"><title>Node26</title>
<g id="a_node26"><a xlink:href="../../d1/dc0/appcontype_8h.html" target="_top" xlink:title="appcontype.h">
<polygon fill="none" stroke="black" points="533.5,-392.5 533.5,-411.5 608.5,-411.5 608.5,-392.5 533.5,-392.5"/>
<text text-anchor="middle" x="571" y="-399.5" font-family="Helvetica,sans-Serif" font-size="10.00">appcontype.h</text>
</a>
</g>
</g>
<!-- Node1&#45;&gt;Node26 -->
<g id="edge67" class="edge"><title>Node1&#45;&gt;Node26</title>
<path fill="none" stroke="midnightblue" d="M807.391,-506.64C744.736,-499.391 653.41,-486.151 623,-468 604.067,-456.699 589.23,-435.779 580.333,-420.721"/>
<polygon fill="midnightblue" stroke="midnightblue" points="583.297,-418.85 575.36,-411.832 577.188,-422.268 583.297,-418.85"/>
</g>
<!-- Node28 -->
<g id="node28" class="node"><title>Node28</title>
<g id="a_node28"><a xlink:href="../../de/df4/cipassembly_8h.html" target="_top" xlink:title="cipassembly.h">
<polygon fill="none" stroke="black" points="723,-224.5 723,-243.5 803,-243.5 803,-224.5 723,-224.5"/>
<text text-anchor="middle" x="763" y="-231.5" font-family="Helvetica,sans-Serif" font-size="10.00">cipassembly.h</text>
</a>
</g>
</g>
<!-- Node1&#45;&gt;Node28 -->
<g id="edge55" class="edge"><title>Node1&#45;&gt;Node28</title>
<path fill="none" stroke="midnightblue" d="M814.562,-504.428C763.001,-493.139 689.285,-467.727 656,-412 619.89,-351.544 701.897,-279.843 742.243,-249.603"/>
<polygon fill="midnightblue" stroke="midnightblue" points="744.389,-252.369 750.388,-243.637 740.252,-246.722 744.389,-252.369"/>
</g>
<!-- Node29 -->
<g id="node29" class="node"><title>Node29</title>
<g id="a_node29"><a xlink:href="../../dc/d72/cipidentity_8h.html" target="_top" xlink:title="cipidentity.h">
<polygon fill="none" stroke="black" points="1011.5,-224.5 1011.5,-243.5 1080.5,-243.5 1080.5,-224.5 1011.5,-224.5"/>
<text text-anchor="middle" x="1046" y="-231.5" font-family="Helvetica,sans-Serif" font-size="10.00">cipidentity.h</text>
</a>
</g>
</g>
<!-- Node1&#45;&gt;Node29 -->
<g id="edge58" class="edge"><title>Node1&#45;&gt;Node29</title>
<path fill="none" stroke="midnightblue" d="M930.362,-504.497C1021.83,-489.894 1185,-456.364 1185,-403 1185,-403 1185,-403 1185,-345 1185,-293.575 1125.77,-262.416 1084.64,-246.978"/>
<polygon fill="midnightblue" stroke="midnightblue" points="1085.73,-243.65 1075.14,-243.565 1083.37,-250.239 1085.73,-243.65"/>
</g>
<!-- Node30 -->
<g id="node30" class="node"><title>Node30</title>
<g id="a_node30"><a xlink:href="../../d1/dad/ciptcpipinterface_8h.html" target="_top" xlink:title="Public interface of the TCP/IP Interface Object. ">
<polygon fill="none" stroke="black" points="1175,-224.5 1175,-243.5 1271,-243.5 1271,-224.5 1175,-224.5"/>
<text text-anchor="middle" x="1223" y="-231.5" font-family="Helvetica,sans-Serif" font-size="10.00">ciptcpipinterface.h</text>
</a>
</g>
</g>
<!-- Node1&#45;&gt;Node30 -->
<g id="edge61" class="edge"><title>Node1&#45;&gt;Node30</title>
<path fill="none" stroke="midnightblue" d="M932.537,-510.415C987.506,-506.285 1068.69,-495.599 1134,-468 1179.12,-448.934 1223,-451.982 1223,-403 1223,-403 1223,-403 1223,-345 1223,-312.948 1223,-275.643 1223,-253.749"/>
<polygon fill="midnightblue" stroke="midnightblue" points="1226.5,-253.558 1223,-243.558 1219.5,-253.558 1226.5,-253.558"/>
</g>
<!-- Node31 -->
<g id="node31" class="node"><title>Node31</title>
<g id="a_node31"><a xlink:href="../../db/d14/cipcommon_8h.html" target="_top" xlink:title="cipcommon.h">
<polygon fill="none" stroke="black" points="1289.5,-224.5 1289.5,-243.5 1364.5,-243.5 1364.5,-224.5 1289.5,-224.5"/>
<text text-anchor="middle" x="1327" y="-231.5" font-family="Helvetica,sans-Serif" font-size="10.00">cipcommon.h</text>
</a>
</g>
</g>
<!-- Node1&#45;&gt;Node31 -->
<g id="edge64" class="edge"><title>Node1&#45;&gt;Node31</title>
<path fill="none" stroke="midnightblue" d="M932.779,-513.019C996.652,-510.958 1097.31,-501.885 1177,-468 1220.44,-449.528 1261,-450.205 1261,-403 1261,-403 1261,-403 1261,-345 1261,-306.857 1290.54,-270.517 1310.09,-250.64"/>
<polygon fill="midnightblue" stroke="midnightblue" points="1312.56,-253.123 1317.26,-243.628 1307.67,-248.119 1312.56,-253.123"/>
</g>
<!-- Node32 -->
<g id="node32" class="node"><title>Node32</title>
<g id="a_node32"><a xlink:href="../../d0/dff/cpf_8h.html" target="_top" xlink:title="cpf.h">
<polygon fill="none" stroke="black" points="1119,-392.5 1119,-411.5 1157,-411.5 1157,-392.5 1119,-392.5"/>
<text text-anchor="middle" x="1138" y="-399.5" font-family="Helvetica,sans-Serif" font-size="10.00">cpf.h</text>
</a>
</g>
</g>
<!-- Node1&#45;&gt;Node32 -->
<g id="edge68" class="edge"><title>Node1&#45;&gt;Node32</title>
<path fill="none" stroke="midnightblue" d="M891.03,-504.368C938.773,-484.772 1055.4,-436.904 1109.53,-414.685"/>
<polygon fill="midnightblue" stroke="midnightblue" points="1110.96,-417.883 1118.88,-410.848 1108.3,-411.407 1110.96,-417.883"/>
</g>
<!-- Node34 -->
<g id="node34" class="node"><title>Node34</title>
<g id="a_node34"><a xlink:href="../../d1/d1b/trace_8h.html" target="_top" xlink:title="Tracing infrastructure for OpENer. ">
<polygon fill="none" stroke="black" points="1327.5,-448.5 1327.5,-467.5 1374.5,-467.5 1374.5,-448.5 1327.5,-448.5"/>
<text text-anchor="middle" x="1351" y="-455.5" font-family="Helvetica,sans-Serif" font-size="10.00">trace.h</text>
</a>
</g>
</g>
<!-- Node1&#45;&gt;Node34 -->
<g id="edge74" class="edge"><title>Node1&#45;&gt;Node34</title>
<path fill="none" stroke="midnightblue" d="M932.706,-509.234C1018.85,-503.468 1178.45,-490.666 1313,-468 1314.46,-467.754 1315.95,-467.484 1317.45,-467.196"/>
<polygon fill="midnightblue" stroke="midnightblue" points="1318.32,-470.591 1327.38,-465.101 1316.87,-463.741 1318.32,-470.591"/>
</g>
<!-- Node5 -->
<g id="node5" class="node"><title>Node5</title>
<g id="a_node5"><a xlink:href="../../d4/d38/opener__api_8h.html" target="_top" xlink:title="opener_api.h">
<polygon fill="none" stroke="black" points="177,-224.5 177,-243.5 249,-243.5 249,-224.5 177,-224.5"/>
<text text-anchor="middle" x="213" y="-231.5" font-family="Helvetica,sans-Serif" font-size="10.00">opener_api.h</text>
</a>
</g>
</g>
<!-- Node4&#45;&gt;Node5 -->
<g id="edge4" class="edge"><title>Node4&#45;&gt;Node5</title>
<path fill="none" stroke="midnightblue" d="M419.586,-392.309C384.269,-365.416 276.498,-283.352 232.261,-249.666"/>
<polygon fill="midnightblue" stroke="midnightblue" points="234.377,-246.879 224.301,-243.605 230.136,-252.448 234.377,-246.879"/>
</g>
<!-- Node4&#45;&gt;Node16 -->
<g id="edge20" class="edge"><title>Node4&#45;&gt;Node16</title>
<path fill="none" stroke="midnightblue" d="M453.183,-392.444C476.428,-383.478 513.149,-369.314 539.415,-359.183"/>
<polygon fill="midnightblue" stroke="midnightblue" points="540.85,-362.381 548.92,-355.516 538.331,-355.85 540.85,-362.381"/>
</g>
<!-- Node17 -->
<g id="node17" class="node"><title>Node17</title>
<g id="a_node17"><a xlink:href="../../d1/d6c/cipconnectionobject_8h.html" target="_top" xlink:title="cipconnectionobject.h">
<polygon fill="none" stroke="black" points="441.5,-280.5 441.5,-299.5 552.5,-299.5 552.5,-280.5 441.5,-280.5"/>
<text text-anchor="middle" x="497" y="-287.5" font-family="Helvetica,sans-Serif" font-size="10.00">cipconnectionobject.h</text>
</a>
</g>
</g>
<!-- Node4&#45;&gt;Node17 -->
<g id="edge38" class="edge"><title>Node4&#45;&gt;Node17</title>
<path fill="none" stroke="midnightblue" d="M436.179,-392.368C447.023,-374.296 472.294,-332.176 486.616,-308.307"/>
<polygon fill="midnightblue" stroke="midnightblue" points="489.701,-309.967 491.845,-299.591 483.699,-306.366 489.701,-309.967"/>
</g>
<!-- Node5&#45;&gt;Node3 -->
<g id="edge6" class="edge"><title>Node5&#45;&gt;Node3</title>
<path fill="none" stroke="midnightblue" d="M176.844,-231.942C123.717,-228.773 33.2795,-216.332 57,-168 93.1019,-94.4396 182.107,-45.541 229.367,-23.8362"/>
<polygon fill="midnightblue" stroke="midnightblue" points="231.089,-26.9003 238.784,-19.6183 228.227,-20.5118 231.089,-26.9003"/>
</g>
<!-- Node6 -->
<g id="node6" class="node"><title>Node6</title>
<polygon fill="none" stroke="#bfbfbf" points="142,-168.5 142,-187.5 194,-187.5 194,-168.5 142,-168.5"/>
<text text-anchor="middle" x="168" y="-175.5" font-family="Helvetica,sans-Serif" font-size="10.00">assert.h</text>
</g>
<!-- Node5&#45;&gt;Node6 -->
<g id="edge5" class="edge"><title>Node5&#45;&gt;Node6</title>
<path fill="none" stroke="midnightblue" d="M205.569,-224.083C199.147,-216.377 189.694,-205.033 181.878,-195.653"/>
<polygon fill="midnightblue" stroke="midnightblue" points="184.383,-193.193 175.293,-187.751 179.006,-197.674 184.383,-193.193"/>
</g>
<!-- Node7 -->
<g id="node7" class="node"><title>Node7</title>
<g id="a_node7"><a xlink:href="../../d7/d69/typedefs_8h.html" target="_top" xlink:title="typedefs.h">
<polygon fill="none" stroke="black" points="895,-56.5 895,-75.5 957,-75.5 957,-56.5 895,-56.5"/>
<text text-anchor="middle" x="926" y="-63.5" font-family="Helvetica,sans-Serif" font-size="10.00">typedefs.h</text>
</a>
</g>
</g>
<!-- Node5&#45;&gt;Node7 -->
<g id="edge7" class="edge"><title>Node5&#45;&gt;Node7</title>
<path fill="none" stroke="midnightblue" d="M214.746,-224.338C219.888,-201.352 237.31,-138.748 279,-112 304.544,-95.611 746.098,-74.9042 884.716,-68.7814"/>
<polygon fill="midnightblue" stroke="midnightblue" points="885.084,-72.2687 894.921,-68.3328 884.777,-65.2754 885.084,-72.2687"/>
</g>
<!-- Node11 -->
<g id="node11" class="node"><title>Node11</title>
<g id="a_node11"><a xlink:href="../../df/d28/ciptypes_8h.html" target="_top" xlink:title="ciptypes.h">
<polygon fill="none" stroke="black" points="728,-168.5 728,-187.5 790,-187.5 790,-168.5 728,-168.5"/>
<text text-anchor="middle" x="759" y="-175.5" font-family="Helvetica,sans-Serif" font-size="10.00">ciptypes.h</text>
</a>
</g>
</g>
<!-- Node5&#45;&gt;Node11 -->
<g id="edge12" class="edge"><title>Node5&#45;&gt;Node11</title>
<path fill="none" stroke="midnightblue" d="M249.353,-228.97C263.86,-227.384 280.717,-225.571 296,-224 451.5,-208.013 636.541,-190.476 717.556,-182.872"/>
<polygon fill="midnightblue" stroke="midnightblue" points="718.198,-186.327 727.827,-181.909 717.544,-179.358 718.198,-186.327"/>
</g>
<!-- Node15 -->
<g id="node15" class="node"><title>Node15</title>
<g id="a_node15"><a xlink:href="../../d6/d52/ciperror_8h.html" target="_top" xlink:title="ciperror.h">
<polygon fill="none" stroke="black" points="66.5,-168.5 66.5,-187.5 123.5,-187.5 123.5,-168.5 66.5,-168.5"/>
<text text-anchor="middle" x="95" y="-175.5" font-family="Helvetica,sans-Serif" font-size="10.00">ciperror.h</text>
</a>
</g>
</g>
<!-- Node5&#45;&gt;Node15 -->
<g id="edge19" class="edge"><title>Node5&#45;&gt;Node15</title>
<path fill="none" stroke="midnightblue" d="M194.303,-224.444C175.056,-215.636 144.848,-201.812 122.8,-191.722"/>
<polygon fill="midnightblue" stroke="midnightblue" points="124.16,-188.495 113.61,-187.516 121.247,-194.86 124.16,-188.495"/>
</g>
<!-- Node7&#45;&gt;Node3 -->
<g id="edge10" class="edge"><title>Node7&#45;&gt;Node3</title>
<path fill="none" stroke="midnightblue" d="M894.771,-62.4679C785.181,-53.5822 418.292,-23.8345 298.321,-14.1071"/>
<polygon fill="midnightblue" stroke="midnightblue" points="298.397,-10.6019 288.147,-13.2822 297.832,-17.579 298.397,-10.6019"/>
</g>
<!-- Node8 -->
<g id="node8" class="node"><title>Node8</title>
<polygon fill="none" stroke="#bfbfbf" points="896.5,-0.5 896.5,-19.5 955.5,-19.5 955.5,-0.5 896.5,-0.5"/>
<text text-anchor="middle" x="926" y="-7.5" font-family="Helvetica,sans-Serif" font-size="10.00">inttypes.h</text>
</g>
<!-- Node7&#45;&gt;Node8 -->
<g id="edge8" class="edge"><title>Node7&#45;&gt;Node8</title>
<path fill="none" stroke="midnightblue" d="M926,-56.083C926,-49.0059 926,-38.8611 926,-29.9865"/>
<polygon fill="midnightblue" stroke="midnightblue" points="929.5,-29.751 926,-19.7511 922.5,-29.7511 929.5,-29.751"/>
</g>
<!-- Node9 -->
<g id="node9" class="node"><title>Node9</title>
<polygon fill="none" stroke="#bfbfbf" points="974,-0.5 974,-19.5 1026,-19.5 1026,-0.5 974,-0.5"/>
<text text-anchor="middle" x="1000" y="-7.5" font-family="Helvetica,sans-Serif" font-size="10.00">stddef.h</text>
</g>
<!-- Node7&#45;&gt;Node9 -->
<g id="edge9" class="edge"><title>Node7&#45;&gt;Node9</title>
<path fill="none" stroke="midnightblue" d="M937.889,-56.324C949.15,-48.1066 966.287,-35.6017 979.709,-25.8069"/>
<polygon fill="midnightblue" stroke="midnightblue" points="981.88,-28.5559 987.894,-19.8339 977.753,-22.9014 981.88,-28.5559"/>
</g>
<!-- Node10 -->
<g id="node10" class="node"><title>Node10</title>
<polygon fill="none" stroke="#bfbfbf" points="737.5,-0.5 737.5,-19.5 878.5,-19.5 878.5,-0.5 737.5,-0.5"/>
<text text-anchor="middle" x="808" y="-7.5" font-family="Helvetica,sans-Serif" font-size="10.00">platform_network_includes.h</text>
</g>
<!-- Node7&#45;&gt;Node10 -->
<g id="edge11" class="edge"><title>Node7&#45;&gt;Node10</title>
<path fill="none" stroke="midnightblue" d="M907.303,-56.4435C888.056,-47.6356 857.848,-33.8116 835.8,-23.722"/>
<polygon fill="midnightblue" stroke="midnightblue" points="837.16,-20.4951 826.61,-19.5164 834.247,-26.8603 837.16,-20.4951"/>
</g>
<!-- Node11&#45;&gt;Node7 -->
<g id="edge13" class="edge"><title>Node11&#45;&gt;Node7</title>
<path fill="none" stroke="midnightblue" d="M759.053,-168.117C759.627,-154.23 762.786,-127.379 778,-112 806.035,-83.6605 851.317,-73.056 884.42,-69.1478"/>
<polygon fill="midnightblue" stroke="midnightblue" points="885.108,-72.5959 894.702,-68.1002 884.399,-65.6319 885.108,-72.5959"/>
</g>
<!-- Node12 -->
<g id="node12" class="node"><title>Node12</title>
<g id="a_node12"><a xlink:href="../../d0/d47/networkhandler_8h.html" target="_top" xlink:title="networkhandler.h">
<polygon fill="none" stroke="black" points="787.5,-112.5 787.5,-131.5 878.5,-131.5 878.5,-112.5 787.5,-112.5"/>
<text text-anchor="middle" x="833" y="-119.5" font-family="Helvetica,sans-Serif" font-size="10.00">networkhandler.h</text>
</a>
</g>
</g>
<!-- Node11&#45;&gt;Node12 -->
<g id="edge14" class="edge"><title>Node11&#45;&gt;Node12</title>
<path fill="none" stroke="midnightblue" d="M770.889,-168.324C782.15,-160.107 799.287,-147.602 812.709,-137.807"/>
<polygon fill="midnightblue" stroke="midnightblue" points="814.88,-140.556 820.894,-131.834 810.753,-134.901 814.88,-140.556"/>
</g>
<!-- Node13 -->
<g id="node13" class="node"><title>Node13</title>
<g id="a_node13"><a xlink:href="../../d8/d2c/enipmessage_8h.html" target="_top" xlink:title="enipmessage.h">
<polygon fill="none" stroke="black" points="647.5,-112.5 647.5,-131.5 730.5,-131.5 730.5,-112.5 647.5,-112.5"/>
<text text-anchor="middle" x="689" y="-119.5" font-family="Helvetica,sans-Serif" font-size="10.00">enipmessage.h</text>
</a>
</g>
</g>
<!-- Node11&#45;&gt;Node13 -->
<g id="edge16" class="edge"><title>Node11&#45;&gt;Node13</title>
<path fill="none" stroke="midnightblue" d="M747.753,-168.324C737.203,-160.185 721.199,-147.839 708.558,-138.087"/>
<polygon fill="midnightblue" stroke="midnightblue" points="710.507,-135.171 700.451,-131.834 706.231,-140.713 710.507,-135.171"/>
</g>
<!-- Node14 -->
<g id="node14" class="node"><title>Node14</title>
<polygon fill="none" stroke="#bfbfbf" points="492,-56.5 492,-75.5 594,-75.5 594,-56.5 492,-56.5"/>
<text text-anchor="middle" x="543" y="-63.5" font-family="Helvetica,sans-Serif" font-size="10.00">opener_user_conf.h</text>
</g>
<!-- Node11&#45;&gt;Node14 -->
<g id="edge18" class="edge"><title>Node11&#45;&gt;Node14</title>
<path fill="none" stroke="midnightblue" d="M729.796,-168.357C704.747,-160.428 668.049,-147.569 638,-132 609.815,-117.396 580.032,-95.8904 561.485,-81.67"/>
<polygon fill="midnightblue" stroke="midnightblue" points="563.613,-78.8913 553.569,-75.5183 559.317,-84.4184 563.613,-78.8913"/>
</g>
<!-- Node12&#45;&gt;Node7 -->
<g id="edge15" class="edge"><title>Node12&#45;&gt;Node7</title>
<path fill="none" stroke="midnightblue" d="M847.942,-112.324C862.585,-103.822 885.134,-90.7288 902.238,-80.7975"/>
<polygon fill="midnightblue" stroke="midnightblue" points="904.205,-83.7027 911.095,-75.6545 900.69,-77.6491 904.205,-83.7027"/>
</g>
<!-- Node13&#45;&gt;Node14 -->
<g id="edge17" class="edge"><title>Node13&#45;&gt;Node14</title>
<path fill="none" stroke="midnightblue" d="M665.866,-112.444C641.518,-103.438 602.993,-89.1891 575.577,-79.049"/>
<polygon fill="midnightblue" stroke="midnightblue" points="576.619,-75.7028 566.026,-75.5164 574.191,-82.2681 576.619,-75.7028"/>
</g>
<!-- Node16&#45;&gt;Node5 -->
<g id="edge22" class="edge"><title>Node16&#45;&gt;Node5</title>
<path fill="none" stroke="midnightblue" d="M541.074,-336.467C512.669,-328.097 468.949,-314.511 432,-300 412.382,-292.295 408.851,-287.085 389,-280 346.015,-264.657 295.387,-252.281 259.492,-244.42"/>
<polygon fill="midnightblue" stroke="midnightblue" points="259.828,-240.912 249.315,-242.225 258.352,-247.755 259.828,-240.912"/>
</g>
<!-- Node16&#45;&gt;Node7 -->
<g id="edge23" class="edge"><title>Node16&#45;&gt;Node7</title>
<path fill="none" stroke="midnightblue" d="M577.674,-336.435C590.863,-318.623 619,-275.839 619,-235 619,-235 619,-235 619,-177 619,-146.902 615.386,-131.862 638,-112 673.94,-80.4332 813.852,-70.9485 884.579,-68.1465"/>
<polygon fill="midnightblue" stroke="midnightblue" points="885.037,-71.6321 894.901,-67.7657 884.779,-64.6368 885.037,-71.6321"/>
</g>
<!-- Node16&#45;&gt;Node11 -->
<g id="edge24" class="edge"><title>Node16&#45;&gt;Node11</title>
<path fill="none" stroke="midnightblue" d="M584.214,-336.192C597.041,-327.463 616.88,-313.481 633,-300 655.222,-281.415 714.445,-223.185 743.071,-194.83"/>
<polygon fill="midnightblue" stroke="midnightblue" points="745.642,-197.209 750.277,-187.682 740.712,-192.239 745.642,-197.209"/>
</g>
<!-- Node16&#45;&gt;Node14 -->
<g id="edge21" class="edge"><title>Node16&#45;&gt;Node14</title>
<path fill="none" stroke="midnightblue" d="M570.131,-336.375C566.244,-297.782 550.398,-140.454 544.894,-85.8074"/>
<polygon fill="midnightblue" stroke="midnightblue" points="548.343,-85.1231 543.859,-75.5243 541.378,-85.8247 548.343,-85.1231"/>
</g>
<!-- Node16&#45;&gt;Node17 -->
<g id="edge25" class="edge"><title>Node16&#45;&gt;Node17</title>
<path fill="none" stroke="midnightblue" d="M559.111,-336.324C547.85,-328.107 530.713,-315.602 517.291,-305.807"/>
<polygon fill="midnightblue" stroke="midnightblue" points="519.247,-302.901 509.106,-299.834 515.12,-308.556 519.247,-302.901"/>
</g>
<!-- Node17&#45;&gt;Node5 -->
<g id="edge29" class="edge"><title>Node17&#45;&gt;Node5</title>
<path fill="none" stroke="midnightblue" d="M451.999,-280.444C399.249,-270.414 312.29,-253.879 259.079,-243.761"/>
<polygon fill="midnightblue" stroke="midnightblue" points="259.707,-240.318 249.229,-241.889 258.399,-247.195 259.707,-240.318"/>
</g>
<!-- Node17&#45;&gt;Node7 -->
<g id="edge26" class="edge"><title>Node17&#45;&gt;Node7</title>
<path fill="none" stroke="midnightblue" d="M502.388,-280.056C523.944,-244.283 602.922,-113.365 605,-112 650.261,-82.2748 808.879,-71.8107 884.843,-68.4471"/>
<polygon fill="midnightblue" stroke="midnightblue" points="885.149,-71.9374 894.992,-68.0184 884.854,-64.9436 885.149,-71.9374"/>
</g>
<!-- Node17&#45;&gt;Node11 -->
<g id="edge27" class="edge"><title>Node17&#45;&gt;Node11</title>
<path fill="none" stroke="midnightblue" d="M517.559,-280.368C563.666,-261.01 675.483,-214.065 729.21,-191.507"/>
<polygon fill="midnightblue" stroke="midnightblue" points="730.671,-194.69 738.537,-187.591 727.962,-188.235 730.671,-194.69"/>
</g>
<!-- Node17&#45;&gt;Node14 -->
<g id="edge28" class="edge"><title>Node17&#45;&gt;Node14</title>
<path fill="none" stroke="midnightblue" d="M464.815,-280.488C446.461,-273.801 424.984,-262.45 414,-244 409.453,-236.362 411.363,-232.489 414,-224 433.416,-161.486 492.458,-107.113 523.482,-81.9214"/>
<polygon fill="midnightblue" stroke="midnightblue" points="525.779,-84.5672 531.433,-75.6075 521.425,-79.0853 525.779,-84.5672"/>
</g>
<!-- Node18 -->
<g id="node18" class="node"><title>Node18</title>
<g id="a_node18"><a xlink:href="../../d9/d31/doublylinkedlist_8h.html" target="_top" xlink:title="doublylinkedlist.h">
<polygon fill="none" stroke="black" points="423,-224.5 423,-243.5 515,-243.5 515,-224.5 423,-224.5"/>
<text text-anchor="middle" x="469" y="-231.5" font-family="Helvetica,sans-Serif" font-size="10.00">doublylinkedlist.h</text>
</a>
</g>
</g>
<!-- Node17&#45;&gt;Node18 -->
<g id="edge30" class="edge"><title>Node17&#45;&gt;Node18</title>
<path fill="none" stroke="midnightblue" d="M492.376,-280.083C488.544,-272.691 482.976,-261.953 478.235,-252.811"/>
<polygon fill="midnightblue" stroke="midnightblue" points="481.248,-251.018 473.538,-243.751 475.034,-254.24 481.248,-251.018"/>
</g>
<!-- Node19 -->
<g id="node19" class="node"><title>Node19</title>
<g id="a_node19"><a xlink:href="../../d0/d23/cipelectronickey_8h.html" target="_top" xlink:title="cipelectronickey.h">
<polygon fill="none" stroke="black" points="288.5,-112.5 288.5,-131.5 383.5,-131.5 383.5,-112.5 288.5,-112.5"/>
<text text-anchor="middle" x="336" y="-119.5" font-family="Helvetica,sans-Serif" font-size="10.00">cipelectronickey.h</text>
</a>
</g>
</g>
<!-- Node17&#45;&gt;Node19 -->
<g id="edge31" class="edge"><title>Node17&#45;&gt;Node19</title>
<path fill="none" stroke="midnightblue" d="M443.124,-280.477C386.791,-271.019 305.263,-255.566 296,-244 270.761,-212.486 301.829,-164.417 321.754,-139.408"/>
<polygon fill="midnightblue" stroke="midnightblue" points="324.547,-141.524 328.227,-131.588 319.154,-137.06 324.547,-141.524"/>
</g>
<!-- Node20 -->
<g id="node20" class="node"><title>Node20</title>
<g id="a_node20"><a xlink:href="../../d1/d02/cipepath_8h.html" target="_top" xlink:title="cipepath.h">
<polygon fill="none" stroke="black" points="305,-224.5 305,-243.5 367,-243.5 367,-224.5 305,-224.5"/>
<text text-anchor="middle" x="336" y="-231.5" font-family="Helvetica,sans-Serif" font-size="10.00">cipepath.h</text>
</a>
</g>
</g>
<!-- Node17&#45;&gt;Node20 -->
<g id="edge34" class="edge"><title>Node17&#45;&gt;Node20</title>
<path fill="none" stroke="midnightblue" d="M471.489,-280.444C444.404,-271.359 401.41,-256.939 371.131,-246.783"/>
<polygon fill="midnightblue" stroke="midnightblue" points="371.986,-243.378 361.392,-243.516 369.76,-250.015 371.986,-243.378"/>
</g>
<!-- Node19&#45;&gt;Node3 -->
<g id="edge32" class="edge"><title>Node19&#45;&gt;Node3</title>
<path fill="none" stroke="midnightblue" d="M330.036,-112.368C317.494,-94.2153 288.19,-51.8015 271.739,-27.9902"/>
<polygon fill="midnightblue" stroke="midnightblue" points="274.5,-25.8292 265.936,-19.5914 268.741,-29.8083 274.5,-25.8292"/>
</g>
<!-- Node19&#45;&gt;Node7 -->
<g id="edge33" class="edge"><title>Node19&#45;&gt;Node7</title>
<path fill="none" stroke="midnightblue" d="M383.782,-116.627C496.749,-106.287 778.74,-80.4781 884.799,-70.771"/>
<polygon fill="midnightblue" stroke="midnightblue" points="885.156,-74.253 894.796,-69.856 884.518,-67.2821 885.156,-74.253"/>
</g>
<!-- Node20&#45;&gt;Node3 -->
<g id="edge35" class="edge"><title>Node20&#45;&gt;Node3</title>
<path fill="none" stroke="midnightblue" d="M329.663,-224.329C317.681,-207.47 291.768,-168.702 279,-132 266.932,-97.3083 262.499,-54.3439 260.892,-30.065"/>
<polygon fill="midnightblue" stroke="midnightblue" points="264.369,-29.5517 260.31,-19.7655 257.38,-29.9473 264.369,-29.5517"/>
</g>
<!-- Node20&#45;&gt;Node11 -->
<g id="edge36" class="edge"><title>Node20&#45;&gt;Node11</title>
<path fill="none" stroke="midnightblue" d="M367.104,-229.029C442.198,-219.443 633.422,-195.031 717.858,-184.252"/>
<polygon fill="midnightblue" stroke="midnightblue" points="718.374,-187.715 727.85,-182.977 717.487,-180.771 718.374,-187.715"/>
</g>
<!-- Node20&#45;&gt;Node19 -->
<g id="edge37" class="edge"><title>Node20&#45;&gt;Node19</title>
<path fill="none" stroke="midnightblue" d="M336,-224.368C336,-206.617 336,-165.666 336,-141.597"/>
<polygon fill="midnightblue" stroke="midnightblue" points="339.5,-141.591 336,-131.591 332.5,-141.591 339.5,-141.591"/>
</g>
<!-- Node21&#45;&gt;Node2 -->
<g id="edge41" class="edge"><title>Node21&#45;&gt;Node2</title>
<path fill="none" stroke="midnightblue" d="M841.478,-448.444C809.766,-438.93 758.546,-423.564 724.576,-413.373"/>
<polygon fill="midnightblue" stroke="midnightblue" points="725.212,-409.91 714.628,-410.388 723.201,-416.614 725.212,-409.91"/>
</g>
<!-- Node21&#45;&gt;Node5 -->
<g id="edge44" class="edge"><title>Node21&#45;&gt;Node5</title>
<path fill="none" stroke="midnightblue" d="M845.286,-448.397C822.075,-440.028 786.585,-426.487 757,-412 741.255,-404.29 739.491,-397.95 723,-392 628.976,-358.078 597.083,-383.552 501,-356 400.319,-327.13 287.64,-272.956 238.365,-248.087"/>
<polygon fill="midnightblue" stroke="midnightblue" points="239.878,-244.93 229.377,-243.52 236.707,-251.171 239.878,-244.93"/>
</g>
<!-- Node21&#45;&gt;Node7 -->
<g id="edge45" class="edge"><title>Node21&#45;&gt;Node7</title>
<path fill="none" stroke="midnightblue" d="M928.516,-448.431C969.875,-441.038 1020.15,-428.876 1033,-412 1038.38,-404.928 1036.14,-400.316 1033,-392 1023.38,-366.516 963.02,-324.91 952,-300 919.257,-225.987 921.692,-126.382 924.413,-85.5914"/>
<polygon fill="midnightblue" stroke="midnightblue" points="927.911,-85.7494 925.176,-75.5137 920.931,-85.2208 927.911,-85.7494"/>
</g>
<!-- Node21&#45;&gt;Node12 -->
<g id="edge49" class="edge"><title>Node21&#45;&gt;Node12</title>
<path fill="none" stroke="midnightblue" d="M861.305,-448.268C853.533,-439.809 842.672,-426.206 838,-412 805.993,-314.675 821.859,-188.771 829.595,-141.776"/>
<polygon fill="midnightblue" stroke="midnightblue" points="833.062,-142.271 831.312,-131.821 826.164,-141.081 833.062,-142.271"/>
</g>
<!-- Node21&#45;&gt;Node16 -->
<g id="edge48" class="edge"><title>Node21&#45;&gt;Node16</title>
<path fill="none" stroke="midnightblue" d="M857.719,-448.355C837.583,-434.553 795.888,-407.518 757,-392 717.23,-376.13 670.361,-364.834 633.621,-357.528"/>
<polygon fill="midnightblue" stroke="midnightblue" points="634.025,-354.041 623.541,-355.573 632.692,-360.913 634.025,-354.041"/>
</g>
<!-- Node22 -->
<g id="node22" class="node"><title>Node22</title>
<polygon fill="none" stroke="#bfbfbf" points="847,-392.5 847,-411.5 893,-411.5 893,-392.5 847,-392.5"/>
<text text-anchor="middle" x="870" y="-399.5" font-family="Helvetica,sans-Serif" font-size="10.00">stdio.h</text>
</g>
<!-- Node21&#45;&gt;Node22 -->
<g id="edge40" class="edge"><title>Node21&#45;&gt;Node22</title>
<path fill="none" stroke="midnightblue" d="M870,-448.083C870,-441.006 870,-430.861 870,-421.986"/>
<polygon fill="midnightblue" stroke="midnightblue" points="873.5,-421.751 870,-411.751 866.5,-421.751 873.5,-421.751"/>
</g>
<!-- Node23 -->
<g id="node23" class="node"><title>Node23</title>
<polygon fill="none" stroke="#bfbfbf" points="911,-392.5 911,-411.5 959,-411.5 959,-392.5 911,-392.5"/>
<text text-anchor="middle" x="935" y="-399.5" font-family="Helvetica,sans-Serif" font-size="10.00">stdlib.h</text>
</g>
<!-- Node21&#45;&gt;Node23 -->
<g id="edge42" class="edge"><title>Node21&#45;&gt;Node23</title>
<path fill="none" stroke="midnightblue" d="M880.443,-448.324C890.146,-440.263 904.815,-428.077 916.5,-418.369"/>
<polygon fill="midnightblue" stroke="midnightblue" points="918.911,-420.916 924.367,-411.834 914.438,-415.532 918.911,-420.916"/>
</g>
<!-- Node24 -->
<g id="node24" class="node"><title>Node24</title>
<polygon fill="none" stroke="#bfbfbf" points="977.5,-392.5 977.5,-411.5 1024.5,-411.5 1024.5,-392.5 977.5,-392.5"/>
<text text-anchor="middle" x="1001" y="-399.5" font-family="Helvetica,sans-Serif" font-size="10.00">errno.h</text>
</g>
<!-- Node21&#45;&gt;Node24 -->
<g id="edge43" class="edge"><title>Node21&#45;&gt;Node24</title>
<path fill="none" stroke="midnightblue" d="M890.757,-448.444C912.316,-439.557 946.263,-425.563 970.794,-415.451"/>
<polygon fill="midnightblue" stroke="midnightblue" points="972.428,-418.563 980.34,-411.516 969.761,-412.092 972.428,-418.563"/>
</g>
<!-- Node21&#45;&gt;Node25 -->
<g id="edge46" class="edge"><title>Node21&#45;&gt;Node25</title>
<path fill="none" stroke="midnightblue" d="M934.367,-449.378C1027.24,-438.379 1196.69,-418.313 1278.84,-408.584"/>
<polygon fill="midnightblue" stroke="midnightblue" points="1279.37,-412.046 1288.89,-407.394 1278.55,-405.095 1279.37,-412.046"/>
</g>
<!-- Node21&#45;&gt;Node26 -->
<g id="edge50" class="edge"><title>Node21&#45;&gt;Node26</title>
<path fill="none" stroke="midnightblue" d="M822.623,-448.444C766.816,-438.365 674.641,-421.718 618.696,-411.614"/>
<polygon fill="midnightblue" stroke="midnightblue" points="619.152,-408.14 608.689,-409.807 617.907,-415.028 619.152,-408.14"/>
</g>
<!-- Node27 -->
<g id="node27" class="node"><title>Node27</title>
<g id="a_node27"><a xlink:href="../../d1/d84/socket__timer_8h.html" target="_top" xlink:title="socket_timer.h">
<polygon fill="none" stroke="black" points="961.5,-280.5 961.5,-299.5 1042.5,-299.5 1042.5,-280.5 961.5,-280.5"/>
<text text-anchor="middle" x="1002" y="-287.5" font-family="Helvetica,sans-Serif" font-size="10.00">socket_timer.h</text>
</a>
</g>
</g>
<!-- Node21&#45;&gt;Node27 -->
<g id="edge52" class="edge"><title>Node21&#45;&gt;Node27</title>
<path fill="none" stroke="midnightblue" d="M934.157,-450.92C985.132,-444.605 1050.51,-432.676 1067,-412 1092.53,-379.985 1025.84,-364.652 1020,-356 1010.69,-342.199 1006.17,-323.677 1003.99,-309.936"/>
<polygon fill="midnightblue" stroke="midnightblue" points="1007.42,-309.188 1002.65,-299.726 1000.48,-310.095 1007.42,-309.188"/>
</g>
<!-- Node25&#45;&gt;Node7 -->
<g id="edge47" class="edge"><title>Node25&#45;&gt;Node7</title>
<path fill="none" stroke="midnightblue" d="M1335.89,-392.402C1354.52,-375.183 1393,-334.38 1393,-291 1393,-291 1393,-291 1393,-177 1393,-89.8655 1081.08,-71.6836 967.085,-67.9482"/>
<polygon fill="midnightblue" stroke="midnightblue" points="967.105,-64.4472 957.003,-67.6389 966.891,-71.444 967.105,-64.4472"/>
</g>
<!-- Node26&#45;&gt;Node16 -->
<g id="edge51" class="edge"><title>Node26&#45;&gt;Node16</title>
<path fill="none" stroke="midnightblue" d="M571,-392.083C571,-385.006 571,-374.861 571,-365.986"/>
<polygon fill="midnightblue" stroke="midnightblue" points="574.5,-365.751 571,-355.751 567.5,-365.751 574.5,-365.751"/>
</g>
<!-- Node27&#45;&gt;Node7 -->
<g id="edge53" class="edge"><title>Node27&#45;&gt;Node7</title>
<path fill="none" stroke="midnightblue" d="M1001.13,-280.498C998.212,-254.279 987.284,-172.782 959,-112 954.257,-101.808 947.035,-91.6108 940.554,-83.5065"/>
<polygon fill="midnightblue" stroke="midnightblue" points="943.068,-81.0565 933.966,-75.6334 937.699,-85.5487 943.068,-81.0565"/>
</g>
<!-- Node28&#45;&gt;Node7 -->
<g id="edge56" class="edge"><title>Node28&#45;&gt;Node7</title>
<path fill="none" stroke="midnightblue" d="M776.589,-224.273C800.886,-208.195 852.46,-171.874 887,-132 899.497,-117.574 910.351,-98.6311 917.413,-84.9197"/>
<polygon fill="midnightblue" stroke="midnightblue" points="920.721,-86.1282 922.039,-75.6156 914.453,-83.0119 920.721,-86.1282"/>
</g>
<!-- Node28&#45;&gt;Node11 -->
<g id="edge57" class="edge"><title>Node28&#45;&gt;Node11</title>
<path fill="none" stroke="midnightblue" d="M762.339,-224.083C761.815,-217.006 761.064,-206.861 760.406,-197.986"/>
<polygon fill="midnightblue" stroke="midnightblue" points="763.877,-197.465 759.648,-187.751 756.897,-197.982 763.877,-197.465"/>
</g>
<!-- Node29&#45;&gt;Node7 -->
<g id="edge59" class="edge"><title>Node29&#45;&gt;Node7</title>
<path fill="none" stroke="midnightblue" d="M1044.42,-224.445C1040.15,-203.258 1026.62,-147.501 997,-112 985.726,-98.4876 969.32,-87.7205 955.118,-80.1104"/>
<polygon fill="midnightblue" stroke="midnightblue" points="956.68,-76.9783 946.179,-75.5683 953.509,-83.2188 956.68,-76.9783"/>
</g>
<!-- Node29&#45;&gt;Node11 -->
<g id="edge60" class="edge"><title>Node29&#45;&gt;Node11</title>
<path fill="none" stroke="midnightblue" d="M1011.38,-226.486C958.328,-216.504 857.107,-197.459 800.301,-186.771"/>
<polygon fill="midnightblue" stroke="midnightblue" points="800.707,-183.286 790.233,-184.877 799.413,-190.165 800.707,-183.286"/>
</g>
<!-- Node30&#45;&gt;Node7 -->
<g id="edge62" class="edge"><title>Node30&#45;&gt;Node7</title>
<path fill="none" stroke="midnightblue" d="M1221.28,-224.293C1216.34,-201.743 1199.91,-141.164 1161,-112 1130.98,-89.4949 1026.3,-76.3434 967.286,-70.5513"/>
<polygon fill="midnightblue" stroke="midnightblue" points="967.463,-67.0524 957.176,-69.5872 966.798,-74.0207 967.463,-67.0524"/>
</g>
<!-- Node30&#45;&gt;Node11 -->
<g id="edge63" class="edge"><title>Node30&#45;&gt;Node11</title>
<path fill="none" stroke="midnightblue" d="M1174.66,-227.374C1083.08,-216.716 885.816,-193.759 800.13,-183.787"/>
<polygon fill="midnightblue" stroke="midnightblue" points="800.343,-180.288 790.006,-182.608 799.534,-187.241 800.343,-180.288"/>
</g>
<!-- Node31&#45;&gt;Node7 -->
<g id="edge65" class="edge"><title>Node31&#45;&gt;Node7</title>
<path fill="none" stroke="midnightblue" d="M1319.78,-224.2C1300.54,-201.425 1245.4,-140.351 1185,-112 1113.35,-78.3654 1019.9,-69.6504 967.083,-67.5274"/>
<polygon fill="midnightblue" stroke="midnightblue" points="967.193,-64.0292 957.079,-67.1853 966.953,-71.0251 967.193,-64.0292"/>
</g>
<!-- Node31&#45;&gt;Node11 -->
<g id="edge66" class="edge"><title>Node31&#45;&gt;Node11</title>
<path fill="none" stroke="midnightblue" d="M1289.35,-225.436C1286.19,-224.91 1283.04,-224.422 1280,-224 1102.41,-199.395 888.793,-185.973 800.397,-181.122"/>
<polygon fill="midnightblue" stroke="midnightblue" points="800.424,-177.619 790.249,-180.573 800.045,-184.609 800.424,-177.619"/>
</g>
<!-- Node32&#45;&gt;Node7 -->
<g id="edge69" class="edge"><title>Node32&#45;&gt;Node7</title>
<path fill="none" stroke="midnightblue" d="M1139.18,-392.462C1141.62,-373.994 1147,-328.939 1147,-291 1147,-291 1147,-291 1147,-177 1147,-97.631 1031.35,-75.5292 967.371,-69.3749"/>
<polygon fill="midnightblue" stroke="midnightblue" points="967.461,-65.8696 957.195,-68.4882 966.854,-72.8431 967.461,-65.8696"/>
</g>
<!-- Node32&#45;&gt;Node11 -->
<g id="edge70" class="edge"><title>Node32&#45;&gt;Node11</title>
<path fill="none" stroke="midnightblue" d="M1134.08,-392.279C1123.74,-370.216 1093.54,-311.685 1051,-280 973.328,-222.144 859.967,-195.657 799.897,-185.071"/>
<polygon fill="midnightblue" stroke="midnightblue" points="800.469,-181.618 790.024,-183.39 799.294,-188.519 800.469,-181.618"/>
</g>
<!-- Node33 -->
<g id="node33" class="node"><title>Node33</title>
<g id="a_node33"><a xlink:href="../../d7/df9/encap_8h.html" target="_top" xlink:title="This file contains the public interface of the encapsulation layer. ">
<polygon fill="none" stroke="black" points="1029.5,-336.5 1029.5,-355.5 1080.5,-355.5 1080.5,-336.5 1029.5,-336.5"/>
<text text-anchor="middle" x="1055" y="-343.5" font-family="Helvetica,sans-Serif" font-size="10.00">encap.h</text>
</a>
</g>
</g>
<!-- Node32&#45;&gt;Node33 -->
<g id="edge71" class="edge"><title>Node32&#45;&gt;Node33</title>
<path fill="none" stroke="midnightblue" d="M1124.66,-392.324C1111.84,-383.979 1092.22,-371.212 1077.06,-361.352"/>
<polygon fill="midnightblue" stroke="midnightblue" points="1078.59,-358.174 1068.3,-355.655 1074.78,-364.042 1078.59,-358.174"/>
</g>
<!-- Node33&#45;&gt;Node7 -->
<g id="edge72" class="edge"><title>Node33&#45;&gt;Node7</title>
<path fill="none" stroke="midnightblue" d="M1062.74,-336.306C1077.67,-318.594 1109,-276.485 1109,-235 1109,-235 1109,-235 1109,-177 1109,-111.182 1020.97,-83.7482 967.017,-73.1156"/>
<polygon fill="midnightblue" stroke="midnightblue" points="967.514,-69.6482 957.043,-71.2634 966.236,-76.5305 967.514,-69.6482"/>
</g>
<!-- Node33&#45;&gt;Node17 -->
<g id="edge73" class="edge"><title>Node33&#45;&gt;Node17</title>
<path fill="none" stroke="midnightblue" d="M1029.21,-342.504C946.44,-334.494 685.797,-309.271 562.66,-297.354"/>
<polygon fill="midnightblue" stroke="midnightblue" points="562.899,-293.861 552.608,-296.381 562.225,-300.829 562.899,-293.861"/>
</g>
</g>
</svg>
        <g id="navigator" transform="translate(0 0)" fill="#404254">
                <rect fill="#f2f5e9" fill-opacity="0.5" stroke="#606060" stroke-width=".5" x="0" y="0" width="60" height="60"/>
                <use id="zoomplus" xlink:href="#zoomPlus" x="17" y="9" onmousedown="handleZoom(evt,'in')"/>
                <use id="zoomminus" xlink:href="#zoomMin" x="42" y="9" onmousedown="handleZoom(evt,'out')"/>
                <use id="reset" xlink:href="#resetDef" x="30" y="36" onmousedown="handleReset()"/>
                <g id="arrowUp" xlink:href="#dirArrow" transform="translate(30 24)" onmousedown="handlePan(0,-1)">
                  <use xlink:href="#rim" fill="#404040">
                        <set attributeName="fill" to="#808080" begin="arrowUp.mouseover" end="arrowUp.mouseout"/>
                  </use>
                  <path fill="none" stroke="white" stroke-width="1.5" d="M0,-3.0v7 M-2.5,-0.5L0,-3.0L2.5,-0.5"/>
                </g>
                <g id="arrowRight" xlink:href="#dirArrow" transform="rotate(90) translate(36 -43)" onmousedown="handlePan(1,0)">
                  <use xlink:href="#rim" fill="#404040">
                        <set attributeName="fill" to="#808080" begin="arrowRight.mouseover" end="arrowRight.mouseout"/>
                  </use>
                  <path fill="none" stroke="white" stroke-width="1.5" d="M0,-3.0v7 M-2.5,-0.5L0,-3.0L2.5,-0.5"/>
                </g>
                <g id="arrowDown" xlink:href="#dirArrow" transform="rotate(180) translate(-30 -48)" onmousedown="handlePan(0,1)">
                  <use xlink:href="#rim" fill="#404040">
                        <set attributeName="fill" to="#808080" begin="arrowDown.mouseover" end="arrowDown.mouseout"/>
                  </use>
                  <path fill="none" stroke="white" stroke-width="1.5" d="M0,-3.0v7 M-2.5,-0.5L0,-3.0L2.5,-0.5"/>
                </g>
                <g id="arrowLeft" xlink:href="#dirArrow" transform="rotate(270) translate(-36 17)" onmousedown="handlePan(-1,0)">
                  <use xlink:href="#rim" fill="#404040">
                        <set attributeName="fill" to="#808080" begin="arrowLeft.mouseover" end="arrowLeft.mouseout"/>
                  </use>
                  <path fill="none" stroke="white" stroke-width="1.5" d="M0,-3.0v7 M-2.5,-0.5L0,-3.0L2.5,-0.5"/>
                </g>
        </g>
        <svg viewBox="0 0 15 15" width="100%" height="30px" preserveAspectRatio="xMaxYMin meet">
         <g id="arrow_out" transform="scale(0.3 0.3)">
          <a xlink:href="cipioconnection_8c__incl_org.svg" target="_base">
           <rect id="button" ry="5" rx="5" y="6" x="6" height="38" width="38"
                fill="#f2f5e9" fill-opacity="0.5" stroke="#606060" stroke-width="1.0"/>
           <path id="arrow"
             d="M 11.500037,31.436501 C 11.940474,20.09759 22.043105,11.32322 32.158766,21.979434 L 37.068811,17.246167 C 37.068811,17.246167 37.088388,32 37.088388,32 L 22.160133,31.978069 C 22.160133,31.978069 26.997745,27.140456 26.997745,27.140456 C 18.528582,18.264221 13.291696,25.230495 11.500037,31.436501 z"
             style="fill:#404040;"/>
          </a>
         </g>
        </svg>
</svg>
