<?xml version="1.0" encoding="UTF-8" standalone="no"?>
<!DOCTYPE svg PUBLIC "-//W3C//DTD SVG 1.1//EN"
 "http://www.w3.org/Graphics/SVG/1.1/DTD/svg11.dtd">
<!-- Generated by graphviz version 2.36.0 (20140111.2315)
 -->
<!-- Title: src/cip/ciptcpipinterface.c Pages: 1 -->
<!--zoomable 308 -->
<svg id="main" version="1.1" xmlns="http://www.w3.org/2000/svg" xmlns:xlink="http://www.w3.org/1999/xlink" xml:space="preserve" onload="init(evt)">
<style type="text/css"><![CDATA[
.edge:hover path { stroke: red; }
.edge:hover polygon { stroke: red; fill: red; }
]]></style>
<script type="text/javascript"><![CDATA[
var edges = document.getElementsByTagName('g');
if (edges && edges.length) {
  for (var i=0;i<edges.length;i++) {
    if (edges[i].id.substr(0,4)=='edge') {
      edges[i].setAttribute('class','edge');
    }
  }
}
]]></script>
        <defs>
                <circle id="rim" cx="0" cy="0" r="7"/>
                <circle id="rim2" cx="0" cy="0" r="3.5"/>
                <g id="zoomPlus">
                        <use xlink:href="#rim" fill="#404040">
                                <set attributeName="fill" to="#808080" begin="zoomplus.mouseover" end="zoomplus.mouseout"/>
                        </use>
                        <path d="M-4,0h8M0,-4v8" fill="none" stroke="white" stroke-width="1.5" pointer-events="none"/>
                </g>
                <g id="zoomMin">
                        <use xlink:href="#rim" fill="#404040">
                                <set attributeName="fill" to="#808080" begin="zoomminus.mouseover" end="zoomminus.mouseout"/>
                        </use>
                        <path d="M-4,0h8" fill="none" stroke="white" stroke-width="1.5" pointer-events="none"/>
                </g>
                <g id="dirArrow">
                        <path fill="none" stroke="white" stroke-width="1.5" d="M0,-3.0v7 M-2.5,-0.5L0,-3.0L2.5,-0.5"/>
                </g>
               <g id="resetDef">
                       <use xlink:href="#rim2" fill="#404040">
                               <set attributeName="fill" to="#808080" begin="reset.mouseover" end="reset.mouseout"/>
                       </use>
               </g>
        </defs>

<script type="text/javascript">
var viewWidth = 885;
var viewHeight = 308;
var sectionId = 'dynsection-0';
</script>
<script xlink:href="../../svgpan.js"/>
<svg id="graph" class="graph">
<g id="viewport">
<title>src/cip/ciptcpipinterface.c</title>
<!-- Node1 -->
<g id="node1" class="node"><title>Node1</title>
<polygon fill="#bfbfbf" stroke="black" points="394,-280.5 394,-299.5 522,-299.5 522,-280.5 394,-280.5"/>
<text text-anchor="middle" x="458" y="-287.5" font-family="Helvetica,sans-Serif" font-size="10.00">src/cip/ciptcpipinterface.c</text>
</g>
<!-- Node2 -->
<g id="node2" class="node"><title>Node2</title>
<polygon fill="none" stroke="#bfbfbf" points="-0.5,-224.5 -0.5,-243.5 48.5,-243.5 48.5,-224.5 -0.5,-224.5"/>
<text text-anchor="middle" x="24" y="-231.5" font-family="Helvetica,sans-Serif" font-size="10.00">string.h</text>
</g>
<!-- Node1&#45;&gt;Node2 -->
<g id="edge1" class="edge"><title>Node1&#45;&gt;Node2</title>
<path fill="none" stroke="midnightblue" d="M393.716,-283.932C315.283,-277.23 178.81,-263.894 63,-244 61.5447,-243.75 60.0623,-243.48 58.5673,-243.194"/>
<polygon fill="midnightblue" stroke="midnightblue" points="59.175,-239.745 48.6721,-241.138 57.7512,-246.599 59.175,-239.745"/>
</g>
<!-- Node3 -->
<g id="node3" class="node"><title>Node3</title>
<g id="a_node3"><a xlink:href="../../d1/dad/ciptcpipinterface_8h.html" target="_top" xlink:title="Public interface of the TCP/IP Interface Object. ">
<polygon fill="none" stroke="black" points="105,-224.5 105,-243.5 201,-243.5 201,-224.5 105,-224.5"/>
<text text-anchor="middle" x="153" y="-231.5" font-family="Helvetica,sans-Serif" font-size="10.00">ciptcpipinterface.h</text>
</a>
</g>
</g>
<!-- Node1&#45;&gt;Node3 -->
<g id="edge2" class="edge"><title>Node1&#45;&gt;Node3</title>
<path fill="none" stroke="midnightblue" d="M409.672,-280.444C355.796,-270.905 268.693,-255.483 211.136,-245.293"/>
<polygon fill="midnightblue" stroke="midnightblue" points="211.559,-241.813 201.102,-243.516 210.339,-248.706 211.559,-241.813"/>
</g>
<!-- Node12 -->
<g id="node12" class="node"><title>Node12</title>
<polygon fill="none" stroke="#bfbfbf" points="519,-56.5 519,-75.5 621,-75.5 621,-56.5 519,-56.5"/>
<text text-anchor="middle" x="570" y="-63.5" font-family="Helvetica,sans-Serif" font-size="10.00">opener_user_conf.h</text>
</g>
<!-- Node1&#45;&gt;Node12 -->
<g id="edge15" class="edge"><title>Node1&#45;&gt;Node12</title>
<path fill="none" stroke="midnightblue" d="M519.619,-280.448C561.976,-273.161 612.857,-261.127 626,-244 664.366,-194.005 611.458,-117.126 584.321,-83.5947"/>
<polygon fill="midnightblue" stroke="midnightblue" points="586.833,-81.1422 577.747,-75.694 581.452,-85.6196 586.833,-81.1422"/>
</g>
<!-- Node13 -->
<g id="node13" class="node"><title>Node13</title>
<g id="a_node13"><a xlink:href="../../db/d14/cipcommon_8h.html" target="_top" xlink:title="cipcommon.h">
<polygon fill="none" stroke="black" points="219.5,-224.5 219.5,-243.5 294.5,-243.5 294.5,-224.5 219.5,-224.5"/>
<text text-anchor="middle" x="257" y="-231.5" font-family="Helvetica,sans-Serif" font-size="10.00">cipcommon.h</text>
</a>
</g>
</g>
<!-- Node1&#45;&gt;Node13 -->
<g id="edge16" class="edge"><title>Node1&#45;&gt;Node13</title>
<path fill="none" stroke="midnightblue" d="M426.151,-280.444C391.602,-271.162 336.318,-256.309 298.417,-246.127"/>
<polygon fill="midnightblue" stroke="midnightblue" points="299.266,-242.731 288.7,-243.516 297.449,-249.491 299.266,-242.731"/>
</g>
<!-- Node14 -->
<g id="node14" class="node"><title>Node14</title>
<g id="a_node14"><a xlink:href="../../d2/d75/cipmessagerouter_8h.html" target="_top" xlink:title="cipmessagerouter.h">
<polygon fill="none" stroke="black" points="516,-224.5 516,-243.5 618,-243.5 618,-224.5 516,-224.5"/>
<text text-anchor="middle" x="567" y="-231.5" font-family="Helvetica,sans-Serif" font-size="10.00">cipmessagerouter.h</text>
</a>
</g>
</g>
<!-- Node1&#45;&gt;Node14 -->
<g id="edge19" class="edge"><title>Node1&#45;&gt;Node14</title>
<path fill="none" stroke="midnightblue" d="M475.513,-280.324C493.072,-271.625 520.331,-258.12 540.531,-248.113"/>
<polygon fill="midnightblue" stroke="midnightblue" points="542.124,-251.23 549.531,-243.655 539.016,-244.958 542.124,-251.23"/>
</g>
<!-- Node15 -->
<g id="node15" class="node"><title>Node15</title>
<g id="a_node15"><a xlink:href="../../d6/d52/ciperror_8h.html" target="_top" xlink:title="ciperror.h">
<polygon fill="none" stroke="black" points="820.5,-168.5 820.5,-187.5 877.5,-187.5 877.5,-168.5 820.5,-168.5"/>
<text text-anchor="middle" x="849" y="-175.5" font-family="Helvetica,sans-Serif" font-size="10.00">ciperror.h</text>
</a>
</g>
</g>
<!-- Node1&#45;&gt;Node15 -->
<g id="edge22" class="edge"><title>Node1&#45;&gt;Node15</title>
<path fill="none" stroke="midnightblue" d="M522.163,-287.593C583.829,-284.342 678.651,-274.29 755,-244 784.638,-232.242 814.108,-209.632 831.941,-194.428"/>
<polygon fill="midnightblue" stroke="midnightblue" points="834.484,-196.854 839.711,-187.639 829.878,-191.583 834.484,-196.854"/>
</g>
<!-- Node16 -->
<g id="node16" class="node"><title>Node16</title>
<g id="a_node16"><a xlink:href="../../d0/dec/endianconv_8h.html" target="_top" xlink:title="Responsible for Endianess conversion. ">
<polygon fill="none" stroke="black" points="47,-112.5 47,-131.5 121,-131.5 121,-112.5 47,-112.5"/>
<text text-anchor="middle" x="84" y="-119.5" font-family="Helvetica,sans-Serif" font-size="10.00">endianconv.h</text>
</a>
</g>
</g>
<!-- Node1&#45;&gt;Node16 -->
<g id="edge23" class="edge"><title>Node1&#45;&gt;Node16</title>
<path fill="none" stroke="midnightblue" d="M393.832,-285.323C295.421,-279.054 116.398,-264.91 96,-244 69.5591,-216.894 74.2801,-168.368 79.4751,-141.747"/>
<polygon fill="midnightblue" stroke="midnightblue" points="82.932,-142.321 81.6411,-131.805 76.0925,-140.831 82.932,-142.321"/>
</g>
<!-- Node17 -->
<g id="node17" class="node"><title>Node17</title>
<g id="a_node17"><a xlink:href="../../dd/d4d/cipethernetlink_8h.html" target="_top" xlink:title="cipethernetlink.h">
<polygon fill="none" stroke="black" points="312,-224.5 312,-243.5 400,-243.5 400,-224.5 312,-224.5"/>
<text text-anchor="middle" x="356" y="-231.5" font-family="Helvetica,sans-Serif" font-size="10.00">cipethernetlink.h</text>
</a>
</g>
</g>
<!-- Node1&#45;&gt;Node17 -->
<g id="edge25" class="edge"><title>Node1&#45;&gt;Node17</title>
<path fill="none" stroke="midnightblue" d="M441.612,-280.324C425.329,-271.703 400.133,-258.364 381.284,-248.386"/>
<polygon fill="midnightblue" stroke="midnightblue" points="382.823,-245.24 372.347,-243.655 379.548,-251.427 382.823,-245.24"/>
</g>
<!-- Node18 -->
<g id="node18" class="node"><title>Node18</title>
<g id="a_node18"><a xlink:href="../../d4/d38/opener__api_8h.html" target="_top" xlink:title="opener_api.h">
<polygon fill="none" stroke="black" points="674,-224.5 674,-243.5 746,-243.5 746,-224.5 674,-224.5"/>
<text text-anchor="middle" x="710" y="-231.5" font-family="Helvetica,sans-Serif" font-size="10.00">opener_api.h</text>
</a>
</g>
</g>
<!-- Node1&#45;&gt;Node18 -->
<g id="edge28" class="edge"><title>Node1&#45;&gt;Node18</title>
<path fill="none" stroke="midnightblue" d="M497.93,-280.444C543.055,-270.774 616.391,-255.059 663.909,-244.877"/>
<polygon fill="midnightblue" stroke="midnightblue" points="664.887,-248.247 673.931,-242.729 663.42,-241.402 664.887,-248.247"/>
</g>
<!-- Node20 -->
<g id="node20" class="node"><title>Node20</title>
<g id="a_node20"><a xlink:href="../../d1/d1b/trace_8h.html" target="_top" xlink:title="Tracing infrastructure for OpENer. ">
<polygon fill="none" stroke="black" points="802.5,-224.5 802.5,-243.5 849.5,-243.5 849.5,-224.5 802.5,-224.5"/>
<text text-anchor="middle" x="826" y="-231.5" font-family="Helvetica,sans-Serif" font-size="10.00">trace.h</text>
</a>
</g>
</g>
<!-- Node1&#45;&gt;Node20 -->
<g id="edge34" class="edge"><title>Node1&#45;&gt;Node20</title>
<path fill="none" stroke="midnightblue" d="M522.174,-282.117C588.887,-274.526 696.195,-261.089 788,-244 789.458,-243.729 790.944,-243.438 792.443,-243.133"/>
<polygon fill="midnightblue" stroke="midnightblue" points="793.332,-246.522 802.359,-240.974 791.843,-239.682 793.332,-246.522"/>
</g>
<!-- Node21 -->
<g id="node21" class="node"><title>Node21</title>
<g id="a_node21"><a xlink:href="../../de/df4/cipassembly_8h.html" target="_top" xlink:title="cipassembly.h">
<polygon fill="none" stroke="black" points="418,-224.5 418,-243.5 498,-243.5 498,-224.5 418,-224.5"/>
<text text-anchor="middle" x="458" y="-231.5" font-family="Helvetica,sans-Serif" font-size="10.00">cipassembly.h</text>
</a>
</g>
</g>
<!-- Node1&#45;&gt;Node21 -->
<g id="edge35" class="edge"><title>Node1&#45;&gt;Node21</title>
<path fill="none" stroke="midnightblue" d="M458,-280.083C458,-273.006 458,-262.861 458,-253.986"/>
<polygon fill="midnightblue" stroke="midnightblue" points="461.5,-253.751 458,-243.751 454.5,-253.751 461.5,-253.751"/>
</g>
<!-- Node4 -->
<g id="node4" class="node"><title>Node4</title>
<g id="a_node4"><a xlink:href="../../d7/d69/typedefs_8h.html" target="_top" xlink:title="typedefs.h">
<polygon fill="none" stroke="black" points="288,-56.5 288,-75.5 350,-75.5 350,-56.5 288,-56.5"/>
<text text-anchor="middle" x="319" y="-63.5" font-family="Helvetica,sans-Serif" font-size="10.00">typedefs.h</text>
</a>
</g>
</g>
<!-- Node3&#45;&gt;Node4 -->
<g id="edge3" class="edge"><title>Node3&#45;&gt;Node4</title>
<path fill="none" stroke="midnightblue" d="M161.925,-224.075C188.733,-197.267 268.81,-117.19 303.115,-82.8851"/>
<polygon fill="midnightblue" stroke="midnightblue" points="305.836,-85.1141 310.432,-75.5681 300.886,-80.1643 305.836,-85.1141"/>
</g>
<!-- Node9 -->
<g id="node9" class="node"><title>Node9</title>
<g id="a_node9"><a xlink:href="../../df/d28/ciptypes_8h.html" target="_top" xlink:title="ciptypes.h">
<polygon fill="none" stroke="black" points="332,-168.5 332,-187.5 394,-187.5 394,-168.5 332,-168.5"/>
<text text-anchor="middle" x="363" y="-175.5" font-family="Helvetica,sans-Serif" font-size="10.00">ciptypes.h</text>
</a>
</g>
</g>
<!-- Node3&#45;&gt;Node9 -->
<g id="edge8" class="edge"><title>Node3&#45;&gt;Node9</title>
<path fill="none" stroke="midnightblue" d="M186.275,-224.444C223.087,-214.978 282.428,-199.719 322.06,-189.527"/>
<polygon fill="midnightblue" stroke="midnightblue" points="323.121,-192.869 331.934,-186.988 321.378,-186.089 323.121,-192.869"/>
</g>
<!-- Node5 -->
<g id="node5" class="node"><title>Node5</title>
<polygon fill="none" stroke="#bfbfbf" points="215.5,-0.5 215.5,-19.5 274.5,-19.5 274.5,-0.5 215.5,-0.5"/>
<text text-anchor="middle" x="245" y="-7.5" font-family="Helvetica,sans-Serif" font-size="10.00">inttypes.h</text>
</g>
<!-- Node4&#45;&gt;Node5 -->
<g id="edge4" class="edge"><title>Node4&#45;&gt;Node5</title>
<path fill="none" stroke="midnightblue" d="M307.111,-56.324C295.85,-48.1066 278.713,-35.6017 265.291,-25.8069"/>
<polygon fill="midnightblue" stroke="midnightblue" points="267.247,-22.9014 257.106,-19.8339 263.12,-28.5559 267.247,-22.9014"/>
</g>
<!-- Node6 -->
<g id="node6" class="node"><title>Node6</title>
<polygon fill="none" stroke="#bfbfbf" points="293,-0.5 293,-19.5 345,-19.5 345,-0.5 293,-0.5"/>
<text text-anchor="middle" x="319" y="-7.5" font-family="Helvetica,sans-Serif" font-size="10.00">stddef.h</text>
</g>
<!-- Node4&#45;&gt;Node6 -->
<g id="edge5" class="edge"><title>Node4&#45;&gt;Node6</title>
<path fill="none" stroke="midnightblue" d="M319,-56.083C319,-49.0059 319,-38.8611 319,-29.9865"/>
<polygon fill="midnightblue" stroke="midnightblue" points="322.5,-29.751 319,-19.7511 315.5,-29.7511 322.5,-29.751"/>
</g>
<!-- Node7 -->
<g id="node7" class="node"><title>Node7</title>
<polygon fill="none" stroke="#bfbfbf" points="662,-0.5 662,-19.5 718,-19.5 718,-0.5 662,-0.5"/>
<text text-anchor="middle" x="690" y="-7.5" font-family="Helvetica,sans-Serif" font-size="10.00">stdbool.h</text>
</g>
<!-- Node4&#45;&gt;Node7 -->
<g id="edge6" class="edge"><title>Node4&#45;&gt;Node7</title>
<path fill="none" stroke="midnightblue" d="M350.312,-60.4425C418.079,-50.5788 578.155,-27.2794 651.76,-16.5659"/>
<polygon fill="midnightblue" stroke="midnightblue" points="652.58,-19.9835 661.972,-15.0796 651.572,-13.0565 652.58,-19.9835"/>
</g>
<!-- Node8 -->
<g id="node8" class="node"><title>Node8</title>
<polygon fill="none" stroke="#bfbfbf" points="363.5,-0.5 363.5,-19.5 504.5,-19.5 504.5,-0.5 363.5,-0.5"/>
<text text-anchor="middle" x="434" y="-7.5" font-family="Helvetica,sans-Serif" font-size="10.00">platform_network_includes.h</text>
</g>
<!-- Node4&#45;&gt;Node8 -->
<g id="edge7" class="edge"><title>Node4&#45;&gt;Node8</title>
<path fill="none" stroke="midnightblue" d="M337.222,-56.4435C355.896,-47.6751 385.156,-33.9355 406.617,-23.8579"/>
<polygon fill="midnightblue" stroke="midnightblue" points="408.299,-26.935 415.863,-19.5164 405.324,-20.5988 408.299,-26.935"/>
</g>
<!-- Node9&#45;&gt;Node4 -->
<g id="edge9" class="edge"><title>Node9&#45;&gt;Node4</title>
<path fill="none" stroke="midnightblue" d="M343.094,-168.41C328.775,-161.04 310.542,-148.916 302,-132 294.385,-116.919 300.829,-98.0951 307.861,-84.5919"/>
<polygon fill="midnightblue" stroke="midnightblue" points="310.948,-86.2443 312.892,-75.8294 304.878,-82.7585 310.948,-86.2443"/>
</g>
<!-- Node10 -->
<g id="node10" class="node"><title>Node10</title>
<g id="a_node10"><a xlink:href="../../d0/d47/networkhandler_8h.html" target="_top" xlink:title="networkhandler.h">
<polygon fill="none" stroke="black" points="310.5,-112.5 310.5,-131.5 401.5,-131.5 401.5,-112.5 310.5,-112.5"/>
<text text-anchor="middle" x="356" y="-119.5" font-family="Helvetica,sans-Serif" font-size="10.00">networkhandler.h</text>
</a>
</g>
</g>
<!-- Node9&#45;&gt;Node10 -->
<g id="edge10" class="edge"><title>Node9&#45;&gt;Node10</title>
<path fill="none" stroke="midnightblue" d="M361.844,-168.083C360.916,-160.927 359.582,-150.635 358.423,-141.691"/>
<polygon fill="midnightblue" stroke="midnightblue" points="361.891,-141.218 357.134,-131.751 354.949,-142.118 361.891,-141.218"/>
</g>
<!-- Node11 -->
<g id="node11" class="node"><title>Node11</title>
<g id="a_node11"><a xlink:href="../../d8/d2c/enipmessage_8h.html" target="_top" xlink:title="enipmessage.h">
<polygon fill="none" stroke="black" points="458.5,-112.5 458.5,-131.5 541.5,-131.5 541.5,-112.5 458.5,-112.5"/>
<text text-anchor="middle" x="500" y="-119.5" font-family="Helvetica,sans-Serif" font-size="10.00">enipmessage.h</text>
</a>
</g>
</g>
<!-- Node9&#45;&gt;Node11 -->
<g id="edge12" class="edge"><title>Node9&#45;&gt;Node11</title>
<path fill="none" stroke="midnightblue" d="M384.708,-168.444C407.355,-159.517 443.072,-145.439 468.752,-135.317"/>
<polygon fill="midnightblue" stroke="midnightblue" points="470.374,-138.44 478.394,-131.516 467.807,-131.927 470.374,-138.44"/>
</g>
<!-- Node9&#45;&gt;Node12 -->
<g id="edge14" class="edge"><title>Node9&#45;&gt;Node12</title>
<path fill="none" stroke="midnightblue" d="M394.127,-173.264C441.273,-167.003 527.672,-152.978 550,-132 562.629,-120.135 567.351,-100.51 569.081,-85.9233"/>
<polygon fill="midnightblue" stroke="midnightblue" points="572.603,-85.7991 569.922,-75.5491 565.626,-85.2339 572.603,-85.7991"/>
</g>
<!-- Node10&#45;&gt;Node4 -->
<g id="edge11" class="edge"><title>Node10&#45;&gt;Node4</title>
<path fill="none" stroke="midnightblue" d="M349.89,-112.083C344.718,-104.534 337.154,-93.4948 330.806,-84.2298"/>
<polygon fill="midnightblue" stroke="midnightblue" points="333.536,-82.0221 324.996,-75.7511 327.761,-85.9787 333.536,-82.0221"/>
</g>
<!-- Node11&#45;&gt;Node12 -->
<g id="edge13" class="edge"><title>Node11&#45;&gt;Node12</title>
<path fill="none" stroke="midnightblue" d="M511.247,-112.324C521.797,-104.185 537.801,-91.8395 550.442,-82.0874"/>
<polygon fill="midnightblue" stroke="midnightblue" points="552.769,-84.7132 558.549,-75.8339 548.493,-79.1707 552.769,-84.7132"/>
</g>
<!-- Node13&#45;&gt;Node4 -->
<g id="edge17" class="edge"><title>Node13&#45;&gt;Node4</title>
<path fill="none" stroke="midnightblue" d="M258.134,-224.442C261.045,-204.158 269.858,-151.871 288,-112 292.559,-101.981 299.354,-91.7994 305.421,-83.6612"/>
<polygon fill="midnightblue" stroke="midnightblue" points="308.206,-85.7805 311.579,-75.7366 302.679,-81.4854 308.206,-85.7805"/>
</g>
<!-- Node13&#45;&gt;Node9 -->
<g id="edge18" class="edge"><title>Node13&#45;&gt;Node9</title>
<path fill="none" stroke="midnightblue" d="M274.031,-224.324C291.03,-215.664 317.376,-202.242 336.993,-192.249"/>
<polygon fill="midnightblue" stroke="midnightblue" points="338.69,-195.312 346.012,-187.655 335.512,-189.075 338.69,-195.312"/>
</g>
<!-- Node14&#45;&gt;Node4 -->
<g id="edge20" class="edge"><title>Node14&#45;&gt;Node4</title>
<path fill="none" stroke="midnightblue" d="M568.808,-224.263C572.825,-202.163 579.927,-143.551 550,-112 524.536,-85.1539 419.469,-73.7698 360.188,-69.4071"/>
<polygon fill="midnightblue" stroke="midnightblue" points="360.253,-65.9031 350.032,-68.6954 359.763,-72.886 360.253,-65.9031"/>
</g>
<!-- Node14&#45;&gt;Node9 -->
<g id="edge21" class="edge"><title>Node14&#45;&gt;Node9</title>
<path fill="none" stroke="midnightblue" d="M534.676,-224.444C499.301,-215.08 442.51,-200.047 404.021,-189.859"/>
<polygon fill="midnightblue" stroke="midnightblue" points="404.732,-186.426 394.17,-187.251 402.941,-193.193 404.732,-186.426"/>
</g>
<!-- Node16&#45;&gt;Node4 -->
<g id="edge24" class="edge"><title>Node16&#45;&gt;Node4</title>
<path fill="none" stroke="midnightblue" d="M121.236,-112.444C163.981,-102.621 233.871,-86.5616 278.098,-76.3987"/>
<polygon fill="midnightblue" stroke="midnightblue" points="278.979,-79.7875 287.942,-74.1368 277.412,-72.9653 278.979,-79.7875"/>
</g>
<!-- Node17&#45;&gt;Node4 -->
<g id="edge26" class="edge"><title>Node17&#45;&gt;Node4</title>
<path fill="none" stroke="midnightblue" d="M348.065,-224.415C333.549,-208.003 303.349,-170.382 294,-132 291.896,-123.364 291.77,-120.605 294,-112 296.546,-102.175 301.753,-92.2118 306.759,-84.166"/>
<polygon fill="midnightblue" stroke="midnightblue" points="309.749,-85.9903 312.371,-75.7252 303.92,-82.1143 309.749,-85.9903"/>
</g>
<!-- Node17&#45;&gt;Node9 -->
<g id="edge27" class="edge"><title>Node17&#45;&gt;Node9</title>
<path fill="none" stroke="midnightblue" d="M357.156,-224.083C358.084,-216.927 359.418,-206.635 360.577,-197.691"/>
<polygon fill="midnightblue" stroke="midnightblue" points="364.051,-198.118 361.866,-187.751 357.109,-197.218 364.051,-198.118"/>
</g>
<!-- Node18&#45;&gt;Node4 -->
<g id="edge31" class="edge"><title>Node18&#45;&gt;Node4</title>
<path fill="none" stroke="midnightblue" d="M702.9,-224.216C683.986,-201.479 629.732,-140.491 570,-112 501.402,-79.2801 411.933,-70.2074 360.433,-67.7806"/>
<polygon fill="midnightblue" stroke="midnightblue" points="360.483,-64.2798 350.349,-67.3681 360.197,-71.274 360.483,-64.2798"/>
</g>
<!-- Node18&#45;&gt;Node7 -->
<g id="edge30" class="edge"><title>Node18&#45;&gt;Node7</title>
<path fill="none" stroke="midnightblue" d="M730.847,-224.427C745.578,-217.129 764.205,-205.091 773,-188 777.067,-180.096 775.14,-176.627 773,-168 759.261,-112.616 722.006,-55.2534 702.418,-27.7207"/>
<polygon fill="midnightblue" stroke="midnightblue" points="705.215,-25.6155 696.512,-19.5731 699.547,-29.7239 705.215,-25.6155"/>
</g>
<!-- Node18&#45;&gt;Node9 -->
<g id="edge32" class="edge"><title>Node18&#45;&gt;Node9</title>
<path fill="none" stroke="midnightblue" d="M673.847,-227.374C608.794,-217.25 472.433,-196.03 404.006,-185.381"/>
<polygon fill="midnightblue" stroke="midnightblue" points="404.443,-181.907 394.024,-183.828 403.367,-188.824 404.443,-181.907"/>
</g>
<!-- Node18&#45;&gt;Node15 -->
<g id="edge33" class="edge"><title>Node18&#45;&gt;Node15</title>
<path fill="none" stroke="midnightblue" d="M732.025,-224.444C755.104,-215.478 791.562,-201.314 817.641,-191.183"/>
<polygon fill="midnightblue" stroke="midnightblue" points="819.024,-194.4 827.078,-187.516 816.489,-187.875 819.024,-194.4"/>
</g>
<!-- Node19 -->
<g id="node19" class="node"><title>Node19</title>
<polygon fill="none" stroke="#bfbfbf" points="712,-168.5 712,-187.5 764,-187.5 764,-168.5 712,-168.5"/>
<text text-anchor="middle" x="738" y="-175.5" font-family="Helvetica,sans-Serif" font-size="10.00">assert.h</text>
</g>
<!-- Node18&#45;&gt;Node19 -->
<g id="edge29" class="edge"><title>Node18&#45;&gt;Node19</title>
<path fill="none" stroke="midnightblue" d="M714.624,-224.083C718.456,-216.691 724.024,-205.953 728.765,-196.811"/>
<polygon fill="midnightblue" stroke="midnightblue" points="731.966,-198.24 733.462,-187.751 725.752,-195.018 731.966,-198.24"/>
</g>
<!-- Node21&#45;&gt;Node4 -->
<g id="edge36" class="edge"><title>Node21&#45;&gt;Node4</title>
<path fill="none" stroke="midnightblue" d="M456.73,-224.247C453.173,-202.609 441.243,-145.902 410,-112 396.194,-97.0185 376.302,-86.3916 358.635,-79.2412"/>
<polygon fill="midnightblue" stroke="midnightblue" points="359.693,-75.8991 349.102,-75.6208 357.208,-82.4431 359.693,-75.8991"/>
</g>
<!-- Node21&#45;&gt;Node9 -->
<g id="edge37" class="edge"><title>Node21&#45;&gt;Node9</title>
<path fill="none" stroke="midnightblue" d="M442.737,-224.324C427.779,-215.822 404.745,-202.729 387.273,-192.797"/>
<polygon fill="midnightblue" stroke="midnightblue" points="388.649,-189.553 378.226,-187.655 385.19,-195.639 388.649,-189.553"/>
</g>
</g>
</svg>
        <g id="navigator" transform="translate(0 0)" fill="#404254">
                <rect fill="#f2f5e9" fill-opacity="0.5" stroke="#606060" stroke-width=".5" x="0" y="0" width="60" height="60"/>
                <use id="zoomplus" xlink:href="#zoomPlus" x="17" y="9" onmousedown="handleZoom(evt,'in')"/>
                <use id="zoomminus" xlink:href="#zoomMin" x="42" y="9" onmousedown="handleZoom(evt,'out')"/>
                <use id="reset" xlink:href="#resetDef" x="30" y="36" onmousedown="handleReset()"/>
                <g id="arrowUp" xlink:href="#dirArrow" transform="translate(30 24)" onmousedown="handlePan(0,-1)">
                  <use xlink:href="#rim" fill="#404040">
                        <set attributeName="fill" to="#808080" begin="arrowUp.mouseover" end="arrowUp.mouseout"/>
                  </use>
                  <path fill="none" stroke="white" stroke-width="1.5" d="M0,-3.0v7 M-2.5,-0.5L0,-3.0L2.5,-0.5"/>
                </g>
                <g id="arrowRight" xlink:href="#dirArrow" transform="rotate(90) translate(36 -43)" onmousedown="handlePan(1,0)">
                  <use xlink:href="#rim" fill="#404040">
                        <set attributeName="fill" to="#808080" begin="arrowRight.mouseover" end="arrowRight.mouseout"/>
                  </use>
                  <path fill="none" stroke="white" stroke-width="1.5" d="M0,-3.0v7 M-2.5,-0.5L0,-3.0L2.5,-0.5"/>
                </g>
                <g id="arrowDown" xlink:href="#dirArrow" transform="rotate(180) translate(-30 -48)" onmousedown="handlePan(0,1)">
                  <use xlink:href="#rim" fill="#404040">
                        <set attributeName="fill" to="#808080" begin="arrowDown.mouseover" end="arrowDown.mouseout"/>
                  </use>
                  <path fill="none" stroke="white" stroke-width="1.5" d="M0,-3.0v7 M-2.5,-0.5L0,-3.0L2.5,-0.5"/>
                </g>
                <g id="arrowLeft" xlink:href="#dirArrow" transform="rotate(270) translate(-36 17)" onmousedown="handlePan(-1,0)">
                  <use xlink:href="#rim" fill="#404040">
                        <set attributeName="fill" to="#808080" begin="arrowLeft.mouseover" end="arrowLeft.mouseout"/>
                  </use>
                  <path fill="none" stroke="white" stroke-width="1.5" d="M0,-3.0v7 M-2.5,-0.5L0,-3.0L2.5,-0.5"/>
                </g>
        </g>
        <svg viewBox="0 0 15 15" width="100%" height="30px" preserveAspectRatio="xMaxYMin meet">
         <g id="arrow_out" transform="scale(0.3 0.3)">
          <a xlink:href="ciptcpipinterface_8c__incl_org.svg" target="_base">
           <rect id="button" ry="5" rx="5" y="6" x="6" height="38" width="38"
                fill="#f2f5e9" fill-opacity="0.5" stroke="#606060" stroke-width="1.0"/>
           <path id="arrow"
             d="M 11.500037,31.436501 C 11.940474,20.09759 22.043105,11.32322 32.158766,21.979434 L 37.068811,17.246167 C 37.068811,17.246167 37.088388,32 37.088388,32 L 22.160133,31.978069 C 22.160133,31.978069 26.997745,27.140456 26.997745,27.140456 C 18.528582,18.264221 13.291696,25.230495 11.500037,31.436501 z"
             style="fill:#404040;"/>
          </a>
         </g>
        </svg>
</svg>
