<?xml version="1.0" encoding="UTF-8" standalone="no"?>
<!DOCTYPE svg PUBLIC "-//W3C//DTD SVG 1.1//EN"
 "http://www.w3.org/Graphics/SVG/1.1/DTD/svg11.dtd">
<!-- Generated by graphviz version 2.38.0 (20140413.2041)
 -->
<!-- Title: EstablishClass3Connection Pages: 1 -->
<!--zoomable 717 -->
<svg id="main" version="1.1" xmlns="http://www.w3.org/2000/svg" xmlns:xlink="http://www.w3.org/1999/xlink" xml:space="preserve" onload="init(evt)">
<style type="text/css"><![CDATA[
.edge:hover path { stroke: red; }
.edge:hover polygon { stroke: red; fill: red; }
]]></style>
<script type="text/javascript"><![CDATA[
var edges = document.getElementsByTagName('g');
if (edges && edges.length) {
  for (var i=0;i<edges.length;i++) {
    if (edges[i].id.substr(0,4)=='edge') {
      edges[i].setAttribute('class','edge');
    }
  }
}
]]></script>
        <defs>
                <circle id="rim" cx="0" cy="0" r="7"/>
                <circle id="rim2" cx="0" cy="0" r="3.5"/>
                <g id="zoomPlus">
                        <use xlink:href="#rim" fill="#404040">
                                <set attributeName="fill" to="#808080" begin="zoomplus.mouseover" end="zoomplus.mouseout"/>
                        </use>
                        <path d="M-4,0h8M0,-4v8" fill="none" stroke="white" stroke-width="1.5" pointer-events="none"/>
                </g>
                <g id="zoomMin">
                        <use xlink:href="#rim" fill="#404040">
                                <set attributeName="fill" to="#808080" begin="zoomminus.mouseover" end="zoomminus.mouseout"/>
                        </use>
                        <path d="M-4,0h8" fill="none" stroke="white" stroke-width="1.5" pointer-events="none"/>
                </g>
                <g id="dirArrow">
                        <path fill="none" stroke="white" stroke-width="1.5" d="M0,-3.0v7 M-2.5,-0.5L0,-3.0L2.5,-0.5"/>
                </g>
               <g id="resetDef">
                       <use xlink:href="#rim2" fill="#404040">
                               <set attributeName="fill" to="#808080" begin="reset.mouseover" end="reset.mouseout"/>
                       </use>
               </g>
        </defs>

<script type="text/javascript">
var viewWidth = 1200;
var viewHeight = 717;
var sectionId = 'dynsection-3';
</script>
<script xlink:href="../../svgpan.js"/>
<svg id="graph" class="graph">
<g id="viewport">
<title>EstablishClass3Connection</title>
<!-- Node1 -->
<g id="node1" class="node"><title>Node1</title>
<polygon fill="#bfbfbf" stroke="black" points="0,-374.5 0,-393.5 137,-393.5 137,-374.5 0,-374.5"/>
<text text-anchor="middle" x="68.5" y="-381.5" font-family="Helvetica,sans-Serif" font-size="10.00">EstablishClass3Connection</text>
</g>
<!-- Node2 -->
<g id="node2" class="node"><title>Node2</title>
<g id="a_node2"><a xlink:href="../../d5/d35/cipconnectionmanager_8c.html#a167e93dbddfb66e7789253fe78f06998" target="_top" xlink:title="Insert the given connection object to the list of currently active and managed connections. ">
<polygon fill="none" stroke="black" points="200.5,-651.5 200.5,-670.5 331.5,-670.5 331.5,-651.5 200.5,-651.5"/>
<text text-anchor="middle" x="266" y="-658.5" font-family="Helvetica,sans-Serif" font-size="10.00">AddNewActiveConnection</text>
</a>
</g>
</g>
<!-- Node1&#45;&gt;Node2 -->
<g id="edge1" class="edge"><title>Node1&#45;&gt;Node2</title>
<path fill="none" stroke="midnightblue" d="M76.2296,-393.535C104.601,-433.734 214.718,-589.757 252.327,-643.044"/>
<polygon fill="midnightblue" stroke="midnightblue" points="249.471,-645.066 258.096,-651.218 255.19,-641.03 249.471,-645.066"/>
</g>
<!-- Node6 -->
<g id="node6" class="node"><title>Node6</title>
<g id="a_node6"><a xlink:href="../../dc/d93/cipclass3connection_8c.html#a6053ab7004c1419bd80faf9aca54bfd3" target="_top" xlink:title="Class3ConnectionTimeoutHandler">
<polygon fill="none" stroke="black" points="183,-425.5 183,-444.5 349,-444.5 349,-425.5 183,-425.5"/>
<text text-anchor="middle" x="266" y="-432.5" font-family="Helvetica,sans-Serif" font-size="10.00">Class3ConnectionTimeoutHandler</text>
</a>
</g>
</g>
<!-- Node1&#45;&gt;Node6 -->
<g id="edge5" class="edge"><title>Node1&#45;&gt;Node6</title>
<path fill="none" stroke="midnightblue" d="M106.272,-393.593C138.084,-401.892 184.243,-413.933 218.591,-422.893"/>
<polygon fill="midnightblue" stroke="midnightblue" points="217.833,-426.313 228.393,-425.45 219.6,-419.539 217.833,-426.313"/>
</g>
<!-- Node10 -->
<g id="node10" class="node"><title>Node10</title>
<g id="a_node10"><a xlink:href="../../d5/d35/cipconnectionmanager_8c.html#a9367d6d6edfd5bd276ead18619f4d74e" target="_top" xlink:title="Close the given connection. ">
<polygon fill="none" stroke="black" points="452,-515.5 452,-534.5 544,-534.5 544,-515.5 452,-515.5"/>
<text text-anchor="middle" x="498" y="-522.5" font-family="Helvetica,sans-Serif" font-size="10.00">CloseConnection</text>
</a>
</g>
</g>
<!-- Node1&#45;&gt;Node10 -->
<g id="edge26" class="edge"><title>Node1&#45;&gt;Node10</title>
<path fill="none" stroke="midnightblue" d="M80.4568,-393.516C98.4912,-408.669 136.118,-438.18 173,-454 262.668,-492.461 375.571,-511.113 441.673,-519.329"/>
<polygon fill="midnightblue" stroke="midnightblue" points="441.522,-522.836 451.87,-520.559 442.361,-515.886 441.522,-522.836"/>
</g>
<!-- Node25 -->
<g id="node25" class="node"><title>Node25</title>
<g id="a_node25"><a xlink:href="../../df/d91/cipconnectionobject_8c.html#afaa08a457cbae921463403f0f00dd38e" target="_top" xlink:title="Copy the given connection data from source to destination. ">
<polygon fill="none" stroke="black" points="195.5,-336.5 195.5,-355.5 336.5,-355.5 336.5,-336.5 195.5,-336.5"/>
<text text-anchor="middle" x="266" y="-343.5" font-family="Helvetica,sans-Serif" font-size="10.00">ConnectionObjectDeepCopy</text>
</a>
</g>
</g>
<!-- Node1&#45;&gt;Node25 -->
<g id="edge27" class="edge"><title>Node1&#45;&gt;Node25</title>
<path fill="none" stroke="midnightblue" d="M118.581,-374.46C145.074,-369.31 177.972,-362.916 205.869,-357.494"/>
<polygon fill="midnightblue" stroke="midnightblue" points="206.751,-360.888 215.899,-355.544 205.415,-354.016 206.751,-360.888"/>
</g>
<!-- Node26 -->
<g id="node26" class="node"><title>Node26</title>
<g id="a_node26"><a xlink:href="../../df/d91/cipconnectionobject_8c.html#a65b85bb4b72c902af06e054e24d6292c" target="_top" xlink:title="Generate the ConnectionIDs and set the general configuration parameter in the given connection object...">
<polygon fill="none" stroke="black" points="173,-205.5 173,-224.5 359,-224.5 359,-205.5 173,-205.5"/>
<text text-anchor="middle" x="266" y="-212.5" font-family="Helvetica,sans-Serif" font-size="10.00">ConnectionObjectGeneralConfiguration</text>
</a>
</g>
</g>
<!-- Node1&#45;&gt;Node26 -->
<g id="edge28" class="edge"><title>Node1&#45;&gt;Node26</title>
<path fill="none" stroke="midnightblue" d="M80.5711,-374.43C112.545,-346.789 205.318,-266.592 245.767,-231.626"/>
<polygon fill="midnightblue" stroke="midnightblue" points="248.287,-234.074 253.563,-224.886 243.709,-228.778 248.287,-234.074"/>
</g>
<!-- Node36 -->
<g id="node36" class="node"><title>Node36</title>
<g id="a_node36"><a xlink:href="../../df/d91/cipconnectionobject_8c.html#a49bbc4004eb23be25b6d3620ece5a7a7" target="_top" xlink:title="ConnectionObjectSetInstanceType">
<polygon fill="none" stroke="black" points="181.5,-167.5 181.5,-186.5 350.5,-186.5 350.5,-167.5 181.5,-167.5"/>
<text text-anchor="middle" x="266" y="-174.5" font-family="Helvetica,sans-Serif" font-size="10.00">ConnectionObjectSetInstanceType</text>
</a>
</g>
</g>
<!-- Node1&#45;&gt;Node36 -->
<g id="edge39" class="edge"><title>Node1&#45;&gt;Node36</title>
<path fill="none" stroke="midnightblue" d="M71.7624,-374.302C79.6219,-342.904 108.838,-243.334 173,-196 175.399,-194.23 177.925,-192.616 180.547,-191.144"/>
<polygon fill="midnightblue" stroke="midnightblue" points="182.312,-194.179 189.788,-186.672 179.262,-187.878 182.312,-194.179"/>
</g>
<!-- Node37 -->
<g id="node37" class="node"><title>Node37</title>
<g id="a_node37"><a xlink:href="../../dc/d93/cipclass3connection_8c.html#a5557c2c7143958acb9d125e2e11296f3" target="_top" xlink:title="Searches and returns a free explicit connection slot. ">
<polygon fill="none" stroke="black" points="199,-374.5 199,-393.5 333,-393.5 333,-374.5 199,-374.5"/>
<text text-anchor="middle" x="266" y="-381.5" font-family="Helvetica,sans-Serif" font-size="10.00">GetFreeExplicitConnection</text>
</a>
</g>
</g>
<!-- Node1&#45;&gt;Node37 -->
<g id="edge40" class="edge"><title>Node1&#45;&gt;Node37</title>
<path fill="none" stroke="midnightblue" d="M137.054,-384C153.597,-384 171.42,-384 188.355,-384"/>
<polygon fill="midnightblue" stroke="midnightblue" points="188.765,-387.5 198.765,-384 188.765,-380.5 188.765,-387.5"/>
</g>
<!-- Node3 -->
<g id="node3" class="node"><title>Node3</title>
<g id="a_node3"><a xlink:href="../../d9/ddc/doublylinkedlist_8c.html#abca57475d14f9dffff53bea22eaf7b2f" target="_top" xlink:title="DoublyLinkedListInsertAtHead">
<polygon fill="none" stroke="black" points="423.5,-689.5 423.5,-708.5 572.5,-708.5 572.5,-689.5 423.5,-689.5"/>
<text text-anchor="middle" x="498" y="-696.5" font-family="Helvetica,sans-Serif" font-size="10.00">DoublyLinkedListInsertAtHead</text>
</a>
</g>
</g>
<!-- Node2&#45;&gt;Node3 -->
<g id="edge2" class="edge"><title>Node2&#45;&gt;Node3</title>
<path fill="none" stroke="midnightblue" d="M324.742,-670.54C356.458,-675.78 395.974,-682.309 429.156,-687.791"/>
<polygon fill="midnightblue" stroke="midnightblue" points="428.798,-691.279 439.234,-689.456 429.939,-684.373 428.798,-691.279"/>
</g>
<!-- Node5 -->
<g id="node5" class="node"><title>Node5</title>
<g id="a_node5"><a xlink:href="../../df/d91/cipconnectionobject_8c.html#ace0a978d1b7fe59261b1024b5ba1cd15" target="_top" xlink:title="ConnectionObjectSetState">
<polygon fill="none" stroke="black" points="864.5,-629.5 864.5,-648.5 997.5,-648.5 997.5,-629.5 864.5,-629.5"/>
<text text-anchor="middle" x="931" y="-636.5" font-family="Helvetica,sans-Serif" font-size="10.00">ConnectionObjectSetState</text>
</a>
</g>
</g>
<!-- Node2&#45;&gt;Node5 -->
<g id="edge4" class="edge"><title>Node2&#45;&gt;Node5</title>
<path fill="none" stroke="midnightblue" d="M331.778,-658.85C455.028,-654.761 722.677,-645.879 854.097,-641.519"/>
<polygon fill="midnightblue" stroke="midnightblue" points="854.59,-645.004 864.468,-641.175 854.358,-638.008 854.59,-645.004"/>
</g>
<!-- Node4 -->
<g id="node4" class="node"><title>Node4</title>
<g id="a_node4"><a xlink:href="../../d9/ddc/doublylinkedlist_8c.html#a973d3b25eae020e7b5e5927c8785106c" target="_top" xlink:title="DoublyLinkedListNodeCreate">
<polygon fill="none" stroke="black" points="656,-689.5 656,-708.5 800,-708.5 800,-689.5 656,-689.5"/>
<text text-anchor="middle" x="728" y="-696.5" font-family="Helvetica,sans-Serif" font-size="10.00">DoublyLinkedListNodeCreate</text>
</a>
</g>
</g>
<!-- Node3&#45;&gt;Node4 -->
<g id="edge3" class="edge"><title>Node3&#45;&gt;Node4</title>
<path fill="none" stroke="midnightblue" d="M572.71,-699C596.048,-699 621.97,-699 645.803,-699"/>
<polygon fill="midnightblue" stroke="midnightblue" points="645.875,-702.5 655.875,-699 645.875,-695.5 645.875,-702.5"/>
</g>
<!-- Node7 -->
<g id="node7" class="node"><title>Node7</title>
<g id="a_node7"><a xlink:href="../../d5/d35/cipconnectionmanager_8c.html#ac36c68122b200d1bc99fbe9fb35a3440" target="_top" xlink:title="CheckForTimedOutConnections\lAndCloseTCPConnections">
<polygon fill="none" stroke="black" points="419.5,-400 419.5,-430 576.5,-430 576.5,-400 419.5,-400"/>
<text text-anchor="start" x="427.5" y="-418" font-family="Helvetica,sans-Serif" font-size="10.00">CheckForTimedOutConnections</text>
<text text-anchor="middle" x="498" y="-407" font-family="Helvetica,sans-Serif" font-size="10.00">AndCloseTCPConnections</text>
</a>
</g>
</g>
<!-- Node6&#45;&gt;Node7 -->
<g id="edge6" class="edge"><title>Node6&#45;&gt;Node7</title>
<path fill="none" stroke="midnightblue" d="M349.061,-427.864C368.506,-426.173 389.324,-424.363 409.02,-422.65"/>
<polygon fill="midnightblue" stroke="midnightblue" points="409.545,-426.118 419.205,-421.765 408.939,-419.144 409.545,-426.118"/>
</g>
<!-- Node6&#45;&gt;Node10 -->
<g id="edge9" class="edge"><title>Node6&#45;&gt;Node10</title>
<path fill="none" stroke="midnightblue" d="M292.424,-444.549C310.918,-451.526 336.547,-461.255 359,-470 394.902,-483.982 435.895,-500.375 463.812,-511.603"/>
<polygon fill="midnightblue" stroke="midnightblue" points="462.528,-514.859 473.112,-515.347 465.143,-508.366 462.528,-514.859"/>
</g>
<!-- Node19 -->
<g id="node19" class="node"><title>Node19</title>
<g id="a_node19"><a xlink:href="../../d2/dbd/encap_8c.html#ad083888333d3ceec1576126a88eeaca7" target="_top" xlink:title="CloseSessionBySessionHandle">
<polygon fill="none" stroke="black" points="420.5,-449.5 420.5,-468.5 575.5,-468.5 575.5,-449.5 420.5,-449.5"/>
<text text-anchor="middle" x="498" y="-456.5" font-family="Helvetica,sans-Serif" font-size="10.00">CloseSessionBySessionHandle</text>
</a>
</g>
</g>
<!-- Node6&#45;&gt;Node19 -->
<g id="edge19" class="edge"><title>Node6&#45;&gt;Node19</title>
<path fill="none" stroke="midnightblue" d="M349.061,-443.563C368.927,-445.636 390.224,-447.858 410.296,-449.953"/>
<polygon fill="midnightblue" stroke="midnightblue" points="410.042,-453.445 420.351,-451.002 410.768,-446.483 410.042,-453.445"/>
</g>
<!-- Node8 -->
<g id="node8" class="node"><title>Node8</title>
<g id="a_node8"><a xlink:href="../../df/d91/cipconnectionobject_8c.html#a308afe67f0cfd50cc772ad276257d6f2" target="_top" xlink:title="ConnectionObjectEqualOriginator">
<polygon fill="none" stroke="black" points="647.5,-399.5 647.5,-418.5 808.5,-418.5 808.5,-399.5 647.5,-399.5"/>
<text text-anchor="middle" x="728" y="-406.5" font-family="Helvetica,sans-Serif" font-size="10.00">ConnectionObjectEqualOriginator</text>
</a>
</g>
</g>
<!-- Node7&#45;&gt;Node8 -->
<g id="edge7" class="edge"><title>Node7&#45;&gt;Node8</title>
<path fill="none" stroke="midnightblue" d="M576.509,-412.96C596.056,-412.446 617.204,-411.889 637.296,-411.361"/>
<polygon fill="midnightblue" stroke="midnightblue" points="637.472,-414.857 647.376,-411.095 637.287,-407.86 637.472,-414.857"/>
</g>
<!-- Node9 -->
<g id="node9" class="node"><title>Node9</title>
<g id="a_node9"><a xlink:href="../../df/d91/cipconnectionobject_8c.html#a9c381240583828bec2cda2d54dc94d3b" target="_top" xlink:title="ConnectionObjectGetState">
<polygon fill="none" stroke="black" points="661,-361.5 661,-380.5 795,-380.5 795,-361.5 661,-361.5"/>
<text text-anchor="middle" x="728" y="-368.5" font-family="Helvetica,sans-Serif" font-size="10.00">ConnectionObjectGetState</text>
</a>
</g>
</g>
<!-- Node7&#45;&gt;Node9 -->
<g id="edge8" class="edge"><title>Node7&#45;&gt;Node9</title>
<path fill="none" stroke="midnightblue" d="M576.509,-400.042C606.288,-394.295 639.78,-387.832 667.596,-382.464"/>
<polygon fill="midnightblue" stroke="midnightblue" points="668.414,-385.871 677.57,-380.539 667.088,-378.998 668.414,-385.871"/>
</g>
<!-- Node11 -->
<g id="node11" class="node"><title>Node11</title>
<g id="a_node11"><a xlink:href="../../df/d91/cipconnectionobject_8c.html#a0f3d8e6f21712dbef3fb2e1da42f35ba" target="_top" xlink:title="ConnectionObjectGetTransport\lClassTriggerTransportClass">
<polygon fill="none" stroke="black" points="652,-476 652,-506 804,-506 804,-476 652,-476"/>
<text text-anchor="start" x="660" y="-494" font-family="Helvetica,sans-Serif" font-size="10.00">ConnectionObjectGetTransport</text>
<text text-anchor="middle" x="728" y="-483" font-family="Helvetica,sans-Serif" font-size="10.00">ClassTriggerTransportClass</text>
</a>
</g>
</g>
<!-- Node10&#45;&gt;Node11 -->
<g id="edge10" class="edge"><title>Node10&#45;&gt;Node11</title>
<path fill="none" stroke="midnightblue" d="M544.045,-518.283C571.919,-514.126 608.603,-508.656 641.8,-503.705"/>
<polygon fill="midnightblue" stroke="midnightblue" points="642.602,-507.124 651.977,-502.188 641.57,-500.201 642.602,-507.124"/>
</g>
<!-- Node12 -->
<g id="node12" class="node"><title>Node12</title>
<g id="a_node12"><a xlink:href="../../db/d4f/generic__networkhandler_8c.html#aab6e6c554aa10d27efe297ebef3ac1c9" target="_top" xlink:title="CloseUdpSocket">
<polygon fill="none" stroke="black" points="682.5,-525.5 682.5,-544.5 773.5,-544.5 773.5,-525.5 682.5,-525.5"/>
<text text-anchor="middle" x="728" y="-532.5" font-family="Helvetica,sans-Serif" font-size="10.00">CloseUdpSocket</text>
</a>
</g>
</g>
<!-- Node10&#45;&gt;Node12 -->
<g id="edge11" class="edge"><title>Node10&#45;&gt;Node12</title>
<path fill="none" stroke="midnightblue" d="M544.045,-526.976C580.857,-528.59 633.034,-530.879 672.253,-532.599"/>
<polygon fill="midnightblue" stroke="midnightblue" points="672.293,-536.104 682.437,-533.045 672.6,-529.111 672.293,-536.104"/>
</g>
<!-- Node15 -->
<g id="node15" class="node"><title>Node15</title>
<g id="a_node15"><a xlink:href="../../d5/d35/cipconnectionmanager_8c.html#a144782b4e2a5afc89ec32854511bbea7" target="_top" xlink:title="Removes connection from the list of active connections. ">
<polygon fill="none" stroke="black" points="649,-563.5 649,-582.5 807,-582.5 807,-563.5 649,-563.5"/>
<text text-anchor="middle" x="728" y="-570.5" font-family="Helvetica,sans-Serif" font-size="10.00">RemoveFromActiveConnections</text>
</a>
</g>
</g>
<!-- Node10&#45;&gt;Node15 -->
<g id="edge14" class="edge"><title>Node10&#45;&gt;Node15</title>
<path fill="none" stroke="midnightblue" d="M544.045,-534.483C580.697,-542.199 632.58,-553.122 671.74,-561.366"/>
<polygon fill="midnightblue" stroke="midnightblue" points="671.152,-564.819 681.658,-563.454 672.594,-557.969 671.152,-564.819"/>
</g>
<!-- Node18 -->
<g id="node18" class="node"><title>Node18</title>
<g id="a_node18"><a xlink:href="../../df/d91/cipconnectionobject_8c.html#a8f507fa4e57499d8b96c8adb2ad8a549" target="_top" xlink:title="ConnectionObjectInitialize\lEmpty">
<polygon fill="none" stroke="black" points="662.5,-602 662.5,-632 793.5,-632 793.5,-602 662.5,-602"/>
<text text-anchor="start" x="670.5" y="-620" font-family="Helvetica,sans-Serif" font-size="10.00">ConnectionObjectInitialize</text>
<text text-anchor="middle" x="728" y="-609" font-family="Helvetica,sans-Serif" font-size="10.00">Empty</text>
</a>
</g>
</g>
<!-- Node10&#45;&gt;Node18 -->
<g id="edge17" class="edge"><title>Node10&#45;&gt;Node18</title>
<path fill="none" stroke="midnightblue" d="M516.41,-534.726C542.15,-548.81 592.159,-575.047 637,-592 643.421,-594.427 650.178,-596.736 656.987,-598.898"/>
<polygon fill="midnightblue" stroke="midnightblue" points="656.377,-602.372 666.964,-601.958 658.429,-595.679 656.377,-602.372"/>
</g>
<!-- Node13 -->
<g id="node13" class="node"><title>Node13</title>
<g id="a_node13"><a xlink:href="../../d5/dc5/group__CIP__CALLBACK__API.html#gae04e2a3e9937e910cbcdbff0b8d6ad2b" target="_top" xlink:title="Close the given socket and clean up the stack. ">
<polygon fill="none" stroke="black" points="894.5,-511.5 894.5,-530.5 967.5,-530.5 967.5,-511.5 894.5,-511.5"/>
<text text-anchor="middle" x="931" y="-518.5" font-family="Helvetica,sans-Serif" font-size="10.00">CloseSocket</text>
</a>
</g>
</g>
<!-- Node12&#45;&gt;Node13 -->
<g id="edge12" class="edge"><title>Node12&#45;&gt;Node13</title>
<path fill="none" stroke="midnightblue" d="M773.608,-531.893C806.378,-529.61 850.772,-526.518 883.89,-524.212"/>
<polygon fill="midnightblue" stroke="midnightblue" points="884.485,-527.679 894.217,-523.492 883.998,-520.696 884.485,-527.679"/>
</g>
<!-- Node14 -->
<g id="node14" class="node"><title>Node14</title>
<g id="a_node14"><a xlink:href="../../d3/de3/MINGW_2networkhandler_8c.html#a2812ba0ecd1fd9a5549fbca397d76e3e" target="_top" xlink:title="Platform dependent code to close a socket. ">
<polygon fill="none" stroke="black" points="1062.5,-511.5 1062.5,-530.5 1172.5,-530.5 1172.5,-511.5 1062.5,-511.5"/>
<text text-anchor="middle" x="1117.5" y="-518.5" font-family="Helvetica,sans-Serif" font-size="10.00">CloseSocketPlatform</text>
</a>
</g>
</g>
<!-- Node13&#45;&gt;Node14 -->
<g id="edge13" class="edge"><title>Node13&#45;&gt;Node14</title>
<path fill="none" stroke="midnightblue" d="M967.573,-521C991.542,-521 1023.84,-521 1052.24,-521"/>
<polygon fill="midnightblue" stroke="midnightblue" points="1052.5,-524.5 1062.5,-521 1052.5,-517.5 1052.5,-524.5"/>
</g>
<!-- Node16 -->
<g id="node16" class="node"><title>Node16</title>
<g id="a_node16"><a xlink:href="../../d9/ddc/doublylinkedlist_8c.html#a341e2f6faf7227650ed6e38e90cd047e" target="_top" xlink:title="DoublyLinkedListRemoveNode">
<polygon fill="none" stroke="black" points="855,-563.5 855,-582.5 1007,-582.5 1007,-563.5 855,-563.5"/>
<text text-anchor="middle" x="931" y="-570.5" font-family="Helvetica,sans-Serif" font-size="10.00">DoublyLinkedListRemoveNode</text>
</a>
</g>
</g>
<!-- Node15&#45;&gt;Node16 -->
<g id="edge15" class="edge"><title>Node15&#45;&gt;Node16</title>
<path fill="none" stroke="midnightblue" d="M807.287,-573C819.516,-573 832.206,-573 844.584,-573"/>
<polygon fill="midnightblue" stroke="midnightblue" points="844.892,-576.5 854.892,-573 844.891,-569.5 844.892,-576.5"/>
</g>
<!-- Node17 -->
<g id="node17" class="node"><title>Node17</title>
<g id="a_node17"><a xlink:href="../../d9/ddc/doublylinkedlist_8c.html#a87710acb9f42fba14822fb824814105c" target="_top" xlink:title="DoublyLinkedListNodeDestroy">
<polygon fill="none" stroke="black" points="1043,-563.5 1043,-582.5 1192,-582.5 1192,-563.5 1043,-563.5"/>
<text text-anchor="middle" x="1117.5" y="-570.5" font-family="Helvetica,sans-Serif" font-size="10.00">DoublyLinkedListNodeDestroy</text>
</a>
</g>
</g>
<!-- Node16&#45;&gt;Node17 -->
<g id="edge16" class="edge"><title>Node16&#45;&gt;Node17</title>
<path fill="none" stroke="midnightblue" d="M1007.04,-573C1015.41,-573 1023.98,-573 1032.45,-573"/>
<polygon fill="midnightblue" stroke="midnightblue" points="1032.72,-576.5 1042.72,-573 1032.72,-569.5 1032.72,-576.5"/>
</g>
<!-- Node18&#45;&gt;Node5 -->
<g id="edge18" class="edge"><title>Node18&#45;&gt;Node5</title>
<path fill="none" stroke="midnightblue" d="M793.704,-624.082C813.045,-626.199 834.42,-628.539 854.395,-630.725"/>
<polygon fill="midnightblue" stroke="midnightblue" points="854.061,-634.209 864.383,-631.818 854.823,-627.251 854.061,-634.209"/>
</g>
<!-- Node20 -->
<g id="node20" class="node"><title>Node20</title>
<g id="a_node20"><a xlink:href="../../db/d4f/generic__networkhandler_8c.html#a1bfa5ef8e4802716459a56567ee16592" target="_top" xlink:title="CloseTcpSocket">
<polygon fill="none" stroke="black" points="683.5,-437.5 683.5,-456.5 772.5,-456.5 772.5,-437.5 683.5,-437.5"/>
<text text-anchor="middle" x="728" y="-444.5" font-family="Helvetica,sans-Serif" font-size="10.00">CloseTcpSocket</text>
</a>
</g>
</g>
<!-- Node19&#45;&gt;Node20 -->
<g id="edge20" class="edge"><title>Node19&#45;&gt;Node20</title>
<path fill="none" stroke="midnightblue" d="M575.555,-454.971C607.47,-453.291 643.791,-451.379 672.861,-449.849"/>
<polygon fill="midnightblue" stroke="midnightblue" points="673.419,-453.325 683.222,-449.304 673.052,-446.335 673.419,-453.325"/>
</g>
<!-- Node20&#45;&gt;Node13 -->
<g id="edge25" class="edge"><title>Node20&#45;&gt;Node13</title>
<path fill="none" stroke="midnightblue" d="M772.638,-454.454C787.564,-457.591 804.218,-461.752 819,-467 835.858,-472.985 838.936,-477.129 855,-485 870.07,-492.383 886.909,-500.48 900.808,-507.122"/>
<polygon fill="midnightblue" stroke="midnightblue" points="899.37,-510.314 909.903,-511.461 902.384,-503.996 899.37,-510.314"/>
</g>
<!-- Node21 -->
<g id="node21" class="node"><title>Node21</title>
<g id="a_node21"><a xlink:href="../../d3/de3/MINGW_2networkhandler_8c.html#a9d64596a63648e960da4dbf475ec2e4a" target="_top" xlink:title="Platform dependent code to shutdown a stream socket. ">
<polygon fill="none" stroke="black" points="867,-456.5 867,-475.5 995,-475.5 995,-456.5 867,-456.5"/>
<text text-anchor="middle" x="931" y="-463.5" font-family="Helvetica,sans-Serif" font-size="10.00">ShutdownSocketPlatform</text>
</a>
</g>
</g>
<!-- Node20&#45;&gt;Node21 -->
<g id="edge21" class="edge"><title>Node20&#45;&gt;Node21</title>
<path fill="none" stroke="midnightblue" d="M772.614,-451.123C797.088,-453.436 828.273,-456.384 856.417,-459.044"/>
<polygon fill="midnightblue" stroke="midnightblue" points="856.346,-462.553 866.631,-460.01 857.005,-455.584 856.346,-462.553"/>
</g>
<!-- Node22 -->
<g id="node22" class="node"><title>Node22</title>
<g id="a_node22"><a xlink:href="../../db/d4f/generic__networkhandler_8c.html#aea539a75995234e379a1c25019ba378f" target="_top" xlink:title="RemoveSocketTimerFromList">
<polygon fill="none" stroke="black" points="857.5,-418.5 857.5,-437.5 1004.5,-437.5 1004.5,-418.5 857.5,-418.5"/>
<text text-anchor="middle" x="931" y="-425.5" font-family="Helvetica,sans-Serif" font-size="10.00">RemoveSocketTimerFromList</text>
</a>
</g>
</g>
<!-- Node20&#45;&gt;Node22 -->
<g id="edge22" class="edge"><title>Node20&#45;&gt;Node22</title>
<path fill="none" stroke="midnightblue" d="M772.614,-442.877C794.427,-440.815 821.571,-438.25 847.142,-435.832"/>
<polygon fill="midnightblue" stroke="midnightblue" points="847.599,-439.305 857.226,-434.879 846.941,-432.336 847.599,-439.305"/>
</g>
<!-- Node23 -->
<g id="node23" class="node"><title>Node23</title>
<g id="a_node23"><a xlink:href="../../d4/df6/socket__timer_8c.html#abe7542fdec4d4e4893a8c712192529ca" target="_top" xlink:title="Get the Socket Timer entry with the spezified socket value. ">
<polygon fill="none" stroke="black" points="1046.5,-410 1046.5,-440 1188.5,-440 1188.5,-410 1046.5,-410"/>
<text text-anchor="start" x="1054.5" y="-428" font-family="Helvetica,sans-Serif" font-size="10.00">SocketTimerArrayGetSocket</text>
<text text-anchor="middle" x="1117.5" y="-417" font-family="Helvetica,sans-Serif" font-size="10.00">Timer</text>
</a>
</g>
</g>
<!-- Node22&#45;&gt;Node23 -->
<g id="edge23" class="edge"><title>Node22&#45;&gt;Node23</title>
<path fill="none" stroke="midnightblue" d="M1004.65,-426.819C1015.05,-426.65 1025.79,-426.475 1036.32,-426.304"/>
<polygon fill="midnightblue" stroke="midnightblue" points="1036.38,-429.803 1046.32,-426.141 1036.27,-422.804 1036.38,-429.803"/>
</g>
<!-- Node24 -->
<g id="node24" class="node"><title>Node24</title>
<g id="a_node24"><a xlink:href="../../d4/df6/socket__timer_8c.html#a6130830815ae46fe4e6d45cf89bc3506" target="_top" xlink:title="Clears a Socket Timer entry. ">
<polygon fill="none" stroke="black" points="1070,-459.5 1070,-478.5 1165,-478.5 1165,-459.5 1070,-459.5"/>
<text text-anchor="middle" x="1117.5" y="-466.5" font-family="Helvetica,sans-Serif" font-size="10.00">SocketTimerClear</text>
</a>
</g>
</g>
<!-- Node22&#45;&gt;Node24 -->
<g id="edge24" class="edge"><title>Node22&#45;&gt;Node24</title>
<path fill="none" stroke="midnightblue" d="M974.792,-437.509C1001.24,-443.387 1035.4,-450.977 1063.55,-457.233"/>
<polygon fill="midnightblue" stroke="midnightblue" points="1063.1,-460.719 1073.62,-459.471 1064.62,-453.885 1063.1,-460.719"/>
</g>
<!-- Node27 -->
<g id="node27" class="node"><title>Node27</title>
<g id="a_node27"><a xlink:href="../../df/d91/cipconnectionobject_8c.html#aa896ebb7d03c6e75027402b3e0d6dc6e" target="_top" xlink:title="ConnectionObjectGetOToTConnectionType">
<polygon fill="none" stroke="black" points="395,-38.5 395,-57.5 601,-57.5 601,-38.5 395,-38.5"/>
<text text-anchor="middle" x="498" y="-45.5" font-family="Helvetica,sans-Serif" font-size="10.00">ConnectionObjectGetOToTConnectionType</text>
</a>
</g>
</g>
<!-- Node26&#45;&gt;Node27 -->
<g id="edge29" class="edge"><title>Node26&#45;&gt;Node27</title>
<path fill="none" stroke="midnightblue" d="M345.419,-205.454C350.348,-202.899 354.947,-199.784 359,-196 402.506,-155.376 351.1,-107.198 395,-67 396.495,-65.6315 398.055,-64.3465 399.672,-63.1405"/>
<polygon fill="midnightblue" stroke="midnightblue" points="401.616,-66.0524 408.192,-57.7459 397.871,-60.1382 401.616,-66.0524"/>
</g>
<!-- Node29 -->
<g id="node29" class="node"><title>Node29</title>
<g id="a_node29"><a xlink:href="../../df/d91/cipconnectionobject_8c.html#ac3ccaa3dc2b635564c622af574f70dc4" target="_top" xlink:title="ConnectionObjectSetCipConsumed\lConnectionID">
<polygon fill="none" stroke="black" points="412,-312 412,-342 584,-342 584,-312 412,-312"/>
<text text-anchor="start" x="420" y="-330" font-family="Helvetica,sans-Serif" font-size="10.00">ConnectionObjectSetCipConsumed</text>
<text text-anchor="middle" x="498" y="-319" font-family="Helvetica,sans-Serif" font-size="10.00">ConnectionID</text>
</a>
</g>
</g>
<!-- Node26&#45;&gt;Node29 -->
<g id="edge31" class="edge"><title>Node26&#45;&gt;Node29</title>
<path fill="none" stroke="midnightblue" d="M278.162,-224.661C299.433,-242.576 347.866,-281.027 395,-302 400.63,-304.505 406.551,-306.784 412.588,-308.854"/>
<polygon fill="midnightblue" stroke="midnightblue" points="411.554,-312.198 422.146,-311.936 413.703,-305.536 411.554,-312.198"/>
</g>
<!-- Node30 -->
<g id="node30" class="node"><title>Node30</title>
<g id="a_node30"><a xlink:href="../../d5/d35/cipconnectionmanager_8c.html#ad93407280191a97626d71b0347724eda" target="_top" xlink:title="Generate a new connection Id utilizing the Incarnation Id as described in the EIP specs...">
<polygon fill="none" stroke="black" points="453,-273.5 453,-292.5 543,-292.5 543,-273.5 453,-273.5"/>
<text text-anchor="middle" x="498" y="-280.5" font-family="Helvetica,sans-Serif" font-size="10.00">GetConnectionId</text>
</a>
</g>
</g>
<!-- Node26&#45;&gt;Node30 -->
<g id="edge32" class="edge"><title>Node26&#45;&gt;Node30</title>
<path fill="none" stroke="midnightblue" d="M289.283,-224.643C314.528,-235.263 357.096,-252.256 395,-263 410.381,-267.36 427.333,-271.097 442.925,-274.121"/>
<polygon fill="midnightblue" stroke="midnightblue" points="442.471,-277.597 452.945,-276.004 443.764,-270.717 442.471,-277.597"/>
</g>
<!-- Node31 -->
<g id="node31" class="node"><title>Node31</title>
<g id="a_node31"><a xlink:href="../../df/d91/cipconnectionobject_8c.html#ad61ad2b2c18480a141e5df346e32be02" target="_top" xlink:title="ConnectionObjectGetTToOConnectionType">
<polygon fill="none" stroke="black" points="395,-0.5 395,-19.5 601,-19.5 601,-0.5 395,-0.5"/>
<text text-anchor="middle" x="498" y="-7.5" font-family="Helvetica,sans-Serif" font-size="10.00">ConnectionObjectGetTToOConnectionType</text>
</a>
</g>
</g>
<!-- Node26&#45;&gt;Node31 -->
<g id="edge33" class="edge"><title>Node26&#45;&gt;Node31</title>
<path fill="none" stroke="midnightblue" d="M346.107,-205.491C350.812,-202.917 355.178,-199.789 359,-196 412.921,-142.544 340.561,-81.9275 395,-29 396.287,-27.7483 397.629,-26.5652 399.019,-25.4474"/>
<polygon fill="midnightblue" stroke="midnightblue" points="401.143,-28.2365 407.465,-19.7344 397.221,-22.4385 401.143,-28.2365"/>
</g>
<!-- Node32 -->
<g id="node32" class="node"><title>Node32</title>
<g id="a_node32"><a xlink:href="../../df/d91/cipconnectionobject_8c.html#af7cb76f073d6f32b45e37c06109770b7" target="_top" xlink:title="ConnectionObjectSetCipProduced\lConnectionID">
<polygon fill="none" stroke="black" points="415,-224 415,-254 581,-254 581,-224 415,-224"/>
<text text-anchor="start" x="423" y="-242" font-family="Helvetica,sans-Serif" font-size="10.00">ConnectionObjectSetCipProduced</text>
<text text-anchor="middle" x="498" y="-231" font-family="Helvetica,sans-Serif" font-size="10.00">ConnectionID</text>
</a>
</g>
</g>
<!-- Node26&#45;&gt;Node32 -->
<g id="edge35" class="edge"><title>Node26&#45;&gt;Node32</title>
<path fill="none" stroke="midnightblue" d="M358.232,-224.52C373.562,-226.12 389.481,-227.781 404.834,-229.383"/>
<polygon fill="midnightblue" stroke="midnightblue" points="404.52,-232.869 414.829,-230.426 405.246,-225.907 404.52,-232.869"/>
</g>
<!-- Node33 -->
<g id="node33" class="node"><title>Node33</title>
<g id="a_node33"><a xlink:href="../../df/d91/cipconnectionobject_8c.html#af58aabbdd4f37e3e5601a52f0a698936" target="_top" xlink:title="ConnectionObjectResetSequence\lCounts">
<polygon fill="none" stroke="black" points="416,-175 416,-205 580,-205 580,-175 416,-175"/>
<text text-anchor="start" x="424" y="-193" font-family="Helvetica,sans-Serif" font-size="10.00">ConnectionObjectResetSequence</text>
<text text-anchor="middle" x="498" y="-182" font-family="Helvetica,sans-Serif" font-size="10.00">Counts</text>
</a>
</g>
</g>
<!-- Node26&#45;&gt;Node33 -->
<g id="edge36" class="edge"><title>Node26&#45;&gt;Node33</title>
<path fill="none" stroke="midnightblue" d="M354.609,-205.477C371.22,-203.672 388.64,-201.778 405.371,-199.96"/>
<polygon fill="midnightblue" stroke="midnightblue" points="406.122,-203.399 415.686,-198.839 405.366,-196.44 406.122,-203.399"/>
</g>
<!-- Node34 -->
<g id="node34" class="node"><title>Node34</title>
<g id="a_node34"><a xlink:href="../../df/d91/cipconnectionobject_8c.html#a9bf4e569cc43263943c0c8c8b138f5c4" target="_top" xlink:title="ConnectionObjectSetWatchdog\lTimeoutAction">
<polygon fill="none" stroke="black" points="421,-126 421,-156 575,-156 575,-126 421,-126"/>
<text text-anchor="start" x="429" y="-144" font-family="Helvetica,sans-Serif" font-size="10.00">ConnectionObjectSetWatchdog</text>
<text text-anchor="middle" x="498" y="-133" font-family="Helvetica,sans-Serif" font-size="10.00">TimeoutAction</text>
</a>
</g>
</g>
<!-- Node26&#45;&gt;Node34 -->
<g id="edge37" class="edge"><title>Node26&#45;&gt;Node34</title>
<path fill="none" stroke="midnightblue" d="M333.686,-205.443C342.436,-202.982 351.098,-199.888 359,-196 377.945,-186.678 376.184,-174.581 395,-165 400.193,-162.356 405.683,-159.998 411.314,-157.895"/>
<polygon fill="midnightblue" stroke="midnightblue" points="412.584,-161.16 420.899,-154.593 410.304,-154.541 412.584,-161.16"/>
</g>
<!-- Node35 -->
<g id="node35" class="node"><title>Node35</title>
<g id="a_node35"><a xlink:href="../../df/d91/cipconnectionobject_8c.html#a6636b4aeeb4208417d057d48ed87a490" target="_top" xlink:title="ConnectionObjectResetProduction\lInhibitTimer">
<polygon fill="none" stroke="black" points="414.5,-77 414.5,-107 581.5,-107 581.5,-77 414.5,-77"/>
<text text-anchor="start" x="422.5" y="-95" font-family="Helvetica,sans-Serif" font-size="10.00">ConnectionObjectResetProduction</text>
<text text-anchor="middle" x="498" y="-84" font-family="Helvetica,sans-Serif" font-size="10.00">InhibitTimer</text>
</a>
</g>
</g>
<!-- Node26&#45;&gt;Node35 -->
<g id="edge38" class="edge"><title>Node26&#45;&gt;Node35</title>
<path fill="none" stroke="midnightblue" d="M343.454,-205.363C349.023,-202.855 354.292,-199.775 359,-196 389.42,-171.611 364.917,-140.804 395,-116 398.277,-113.298 401.804,-110.89 405.508,-108.744"/>
<polygon fill="midnightblue" stroke="midnightblue" points="407.117,-111.852 414.441,-104.197 403.941,-105.614 407.117,-111.852"/>
</g>
<!-- Node28 -->
<g id="node28" class="node"><title>Node28</title>
<g id="a_node28"><a xlink:href="../../df/d91/cipconnectionobject_8c.html#a0da85deed56477da3ec500cec51aa46e" target="_top" xlink:title="ConnectionObjectGetConnectionType">
<polygon fill="none" stroke="black" points="637,-19.5 637,-38.5 819,-38.5 819,-19.5 637,-19.5"/>
<text text-anchor="middle" x="728" y="-26.5" font-family="Helvetica,sans-Serif" font-size="10.00">ConnectionObjectGetConnectionType</text>
</a>
</g>
</g>
<!-- Node27&#45;&gt;Node28 -->
<g id="edge30" class="edge"><title>Node27&#45;&gt;Node28</title>
<path fill="none" stroke="midnightblue" d="M601.329,-39.4726C609.745,-38.7712 618.247,-38.0627 626.649,-37.3626"/>
<polygon fill="midnightblue" stroke="midnightblue" points="627.16,-40.8322 636.835,-36.5138 626.579,-33.8564 627.16,-40.8322"/>
</g>
<!-- Node31&#45;&gt;Node28 -->
<g id="edge34" class="edge"><title>Node31&#45;&gt;Node28</title>
<path fill="none" stroke="midnightblue" d="M601.329,-18.5274C609.745,-19.2288 618.247,-19.9373 626.649,-20.6374"/>
<polygon fill="midnightblue" stroke="midnightblue" points="626.579,-24.1436 636.835,-21.4862 627.16,-17.1678 626.579,-24.1436"/>
</g>
<!-- Node37&#45;&gt;Node9 -->
<g id="edge41" class="edge"><title>Node37&#45;&gt;Node9</title>
<path fill="none" stroke="midnightblue" d="M333.397,-382.124C417.521,-379.746 562.187,-375.658 650.748,-373.155"/>
<polygon fill="midnightblue" stroke="midnightblue" points="651.099,-376.647 660.996,-372.865 650.901,-369.649 651.099,-376.647"/>
</g>
</g>
</svg>
        <g id="navigator" transform="translate(0 0)" fill="#404254">
                <rect fill="#f2f5e9" fill-opacity="0.5" stroke="#606060" stroke-width=".5" x="0" y="0" width="60" height="60"/>
                <use id="zoomplus" xlink:href="#zoomPlus" x="17" y="9" onmousedown="handleZoom(evt,'in')"/>
                <use id="zoomminus" xlink:href="#zoomMin" x="42" y="9" onmousedown="handleZoom(evt,'out')"/>
                <use id="reset" xlink:href="#resetDef" x="30" y="36" onmousedown="handleReset()"/>
                <g id="arrowUp" xlink:href="#dirArrow" transform="translate(30 24)" onmousedown="handlePan(0,-1)">
                  <use xlink:href="#rim" fill="#404040">
                        <set attributeName="fill" to="#808080" begin="arrowUp.mouseover" end="arrowUp.mouseout"/>
                  </use>
                  <path fill="none" stroke="white" stroke-width="1.5" d="M0,-3.0v7 M-2.5,-0.5L0,-3.0L2.5,-0.5"/>
                </g>
                <g id="arrowRight" xlink:href="#dirArrow" transform="rotate(90) translate(36 -43)" onmousedown="handlePan(1,0)">
                  <use xlink:href="#rim" fill="#404040">
                        <set attributeName="fill" to="#808080" begin="arrowRight.mouseover" end="arrowRight.mouseout"/>
                  </use>
                  <path fill="none" stroke="white" stroke-width="1.5" d="M0,-3.0v7 M-2.5,-0.5L0,-3.0L2.5,-0.5"/>
                </g>
                <g id="arrowDown" xlink:href="#dirArrow" transform="rotate(180) translate(-30 -48)" onmousedown="handlePan(0,1)">
                  <use xlink:href="#rim" fill="#404040">
                        <set attributeName="fill" to="#808080" begin="arrowDown.mouseover" end="arrowDown.mouseout"/>
                  </use>
                  <path fill="none" stroke="white" stroke-width="1.5" d="M0,-3.0v7 M-2.5,-0.5L0,-3.0L2.5,-0.5"/>
                </g>
                <g id="arrowLeft" xlink:href="#dirArrow" transform="rotate(270) translate(-36 17)" onmousedown="handlePan(-1,0)">
                  <use xlink:href="#rim" fill="#404040">
                        <set attributeName="fill" to="#808080" begin="arrowLeft.mouseover" end="arrowLeft.mouseout"/>
                  </use>
                  <path fill="none" stroke="white" stroke-width="1.5" d="M0,-3.0v7 M-2.5,-0.5L0,-3.0L2.5,-0.5"/>
                </g>
        </g>
        <svg viewBox="0 0 15 15" width="100%" height="30px" preserveAspectRatio="xMaxYMin meet">
         <g id="arrow_out" transform="scale(0.3 0.3)">
          <a xlink:href="cipclass3connection_8h_a45bd741b44137164c07a6ce09a7a9a9d_cgraph_org.svg" target="_base">
           <rect id="button" ry="5" rx="5" y="6" x="6" height="38" width="38"
                fill="#f2f5e9" fill-opacity="0.5" stroke="#606060" stroke-width="1.0"/>
           <path id="arrow"
             d="M 11.500037,31.436501 C 11.940474,20.09759 22.043105,11.32322 32.158766,21.979434 L 37.068811,17.246167 C 37.068811,17.246167 37.088388,32 37.088388,32 L 22.160133,31.978069 C 22.160133,31.978069 26.997745,27.140456 26.997745,27.140456 C 18.528582,18.264221 13.291696,25.230495 11.500037,31.436501 z"
             style="fill:#404040;"/>
          </a>
         </g>
        </svg>
</svg>
