<?xml version="1.0" encoding="UTF-8" standalone="no"?>
<!DOCTYPE svg PUBLIC "-//W3C//DTD SVG 1.1//EN"
 "http://www.w3.org/Graphics/SVG/1.1/DTD/svg11.dtd">
<!-- Generated by graphviz version 2.38.0 (20140413.2041)
 -->
<!-- Title: DoublyLinkedListRemoveNode Pages: 1 -->
<svg width="1668pt" height="84pt"
 viewBox="0.00 0.00 1668.00 83.93" xmlns="http://www.w3.org/2000/svg" xmlns:xlink="http://www.w3.org/1999/xlink">
<g id="graph0" class="graph" transform="scale(1 1) rotate(0) translate(4 79.9346)">
<title>DoublyLinkedListRemoveNode</title>
<!-- Node1 -->
<g id="node1" class="node"><title>Node1</title>
<polygon fill="#bfbfbf" stroke="black" points="0,-28.9346 0,-47.9346 152,-47.9346 152,-28.9346 0,-28.9346"/>
<text text-anchor="middle" x="76" y="-35.9346" font-family="Helvetica,sans-Serif" font-size="10.00">DoublyLinkedListRemoveNode</text>
</g>
<!-- Node2 -->
<g id="node2" class="node"><title>Node2</title>
<g id="a_node2"><a xlink:href="../../d2/da3/cipconnectionmanager_8h.html#a144782b4e2a5afc89ec32854511bbea7" target="_top" xlink:title="Removes connection from the list of active connections. ">
<polygon fill="none" stroke="black" points="188,-28.9346 188,-47.9346 346,-47.9346 346,-28.9346 188,-28.9346"/>
<text text-anchor="middle" x="267" y="-35.9346" font-family="Helvetica,sans-Serif" font-size="10.00">RemoveFromActiveConnections</text>
</a>
</g>
</g>
<!-- Node1&#45;&gt;Node2 -->
<g id="edge1" class="edge"><title>Node1&#45;&gt;Node2</title>
<path fill="none" stroke="midnightblue" d="M162.503,-38.4346C170.97,-38.4346 179.535,-38.4346 187.922,-38.4346"/>
<polygon fill="midnightblue" stroke="midnightblue" points="162.241,-34.9347 152.241,-38.4346 162.241,-41.9347 162.241,-34.9347"/>
</g>
<!-- Node3 -->
<g id="node3" class="node"><title>Node3</title>
<g id="a_node3"><a xlink:href="../../de/d45/cipioconnection_8h.html#a62fc61ed294b1d1543960582f0071b22" target="_top" xlink:title="close the communication channels of the given connection and remove it from the active connections li...">
<polygon fill="none" stroke="black" points="382,-45.4346 382,-75.4346 573,-75.4346 573,-45.4346 382,-45.4346"/>
<text text-anchor="start" x="390" y="-63.4346" font-family="Helvetica,sans-Serif" font-size="10.00">CloseCommunicationChannels</text>
<text text-anchor="middle" x="477.5" y="-52.4346" font-family="Helvetica,sans-Serif" font-size="10.00">AndRemoveFromActiveConnectionsList</text>
</a>
</g>
</g>
<!-- Node2&#45;&gt;Node3 -->
<g id="edge2" class="edge"><title>Node2&#45;&gt;Node3</title>
<path fill="none" stroke="midnightblue" d="M356.351,-47.757C364.716,-48.6397 373.222,-49.5371 381.645,-50.4259"/>
<polygon fill="midnightblue" stroke="midnightblue" points="356.543,-44.2579 346.231,-46.6892 355.808,-51.2193 356.543,-44.2579"/>
</g>
<!-- Node12 -->
<g id="node12" class="node"><title>Node12</title>
<g id="a_node12"><a xlink:href="../../d2/da3/cipconnectionmanager_8h.html#a9367d6d6edfd5bd276ead18619f4d74e" target="_top" xlink:title="Close the given connection. ">
<polygon fill="none" stroke="black" points="431.5,-6.93461 431.5,-25.9346 523.5,-25.9346 523.5,-6.93461 431.5,-6.93461"/>
<text text-anchor="middle" x="477.5" y="-13.9346" font-family="Helvetica,sans-Serif" font-size="10.00">CloseConnection</text>
</a>
</g>
</g>
<!-- Node2&#45;&gt;Node12 -->
<g id="edge11" class="edge"><title>Node2&#45;&gt;Node12</title>
<path fill="none" stroke="midnightblue" d="M356.447,-29.102C382.317,-26.3724 409.515,-23.5026 431.47,-21.186"/>
<polygon fill="midnightblue" stroke="midnightblue" points="355.808,-25.6499 346.231,-30.18 356.543,-32.6113 355.808,-25.6499"/>
</g>
<!-- Node4 -->
<g id="node4" class="node"><title>Node4</title>
<g id="a_node4"><a xlink:href="../../df/d03/cipioconnection_8c.html#a730b410a0cdbc6a456973c0e51568968" target="_top" xlink:title="CloseIoConnection">
<polygon fill="none" stroke="black" points="642,-50.9346 642,-69.9346 742,-69.9346 742,-50.9346 642,-50.9346"/>
<text text-anchor="middle" x="692" y="-57.9346" font-family="Helvetica,sans-Serif" font-size="10.00">CloseIoConnection</text>
</a>
</g>
</g>
<!-- Node3&#45;&gt;Node4 -->
<g id="edge3" class="edge"><title>Node3&#45;&gt;Node4</title>
<path fill="none" stroke="midnightblue" d="M583.277,-60.4346C603.737,-60.4346 624.269,-60.4346 641.838,-60.4346"/>
<polygon fill="midnightblue" stroke="midnightblue" points="583.253,-56.9347 573.253,-60.4346 583.253,-63.9347 583.253,-56.9347"/>
</g>
<!-- Node5 -->
<g id="node5" class="node"><title>Node5</title>
<g id="a_node5"><a xlink:href="../../df/d03/cipioconnection_8c.html#ab3282f146a3ea91c90cf14c32206ee8c" target="_top" xlink:title="SetIoConnectionCallbacks">
<polygon fill="none" stroke="black" points="813,-50.9346 813,-69.9346 946,-69.9346 946,-50.9346 813,-50.9346"/>
<text text-anchor="middle" x="879.5" y="-57.9346" font-family="Helvetica,sans-Serif" font-size="10.00">SetIoConnectionCallbacks</text>
</a>
</g>
</g>
<!-- Node4&#45;&gt;Node5 -->
<g id="edge4" class="edge"><title>Node4&#45;&gt;Node5</title>
<path fill="none" stroke="midnightblue" d="M752.395,-60.4346C771.703,-60.4346 793.237,-60.4346 812.967,-60.4346"/>
<polygon fill="midnightblue" stroke="midnightblue" points="752.224,-56.9347 742.224,-60.4346 752.224,-63.9347 752.224,-56.9347"/>
</g>
<!-- Node6 -->
<g id="node6" class="node"><title>Node6</title>
<g id="a_node6"><a xlink:href="../../de/d45/cipioconnection_8h.html#a43e270b3f9b9f6296b12285c320c95aa" target="_top" xlink:title="Setup all data in order to establish an IO connection. ">
<polygon fill="none" stroke="black" points="984,-50.9346 984,-69.9346 1099,-69.9346 1099,-50.9346 984,-50.9346"/>
<text text-anchor="middle" x="1041.5" y="-57.9346" font-family="Helvetica,sans-Serif" font-size="10.00">EstablishIoConnection</text>
</a>
</g>
</g>
<!-- Node5&#45;&gt;Node6 -->
<g id="edge5" class="edge"><title>Node5&#45;&gt;Node6</title>
<path fill="none" stroke="midnightblue" d="M956.091,-60.4346C965.405,-60.4346 974.799,-60.4346 983.765,-60.4346"/>
<polygon fill="midnightblue" stroke="midnightblue" points="956.04,-56.9347 946.04,-60.4346 956.04,-63.9347 956.04,-56.9347"/>
</g>
<!-- Node7 -->
<g id="node7" class="node"><title>Node7</title>
<g id="a_node7"><a xlink:href="../../d2/da3/cipconnectionmanager_8h.html#a5ab0de6894d23e8fe84a6b46797c2212" target="_top" xlink:title="Initialize the data of the connection manager object. ">
<polygon fill="none" stroke="black" points="1135,-31.9346 1135,-50.9346 1252,-50.9346 1252,-31.9346 1135,-31.9346"/>
<text text-anchor="middle" x="1193.5" y="-38.9346" font-family="Helvetica,sans-Serif" font-size="10.00">ConnectionManagerInit</text>
</a>
</g>
</g>
<!-- Node6&#45;&gt;Node7 -->
<g id="edge6" class="edge"><title>Node6&#45;&gt;Node7</title>
<path fill="none" stroke="midnightblue" d="M1109.13,-51.9949C1117.66,-50.9142 1126.34,-49.815 1134.71,-48.7542"/>
<polygon fill="midnightblue" stroke="midnightblue" points="1108.69,-48.5226 1099.21,-53.2515 1109.57,-55.4671 1108.69,-48.5226"/>
</g>
<!-- Node8 -->
<g id="node8" class="node"><title>Node8</title>
<g id="a_node8"><a xlink:href="../../d2/dc9/group__CIP__API.html#ga5d4979945d124e28668b264c3823db1c" target="_top" xlink:title="Initialize and setup the CIP&#45;stack. ">
<polygon fill="none" stroke="black" points="1288,-31.9346 1288,-50.9346 1359,-50.9346 1359,-31.9346 1288,-31.9346"/>
<text text-anchor="middle" x="1323.5" y="-38.9346" font-family="Helvetica,sans-Serif" font-size="10.00">CipStackInit</text>
</a>
</g>
</g>
<!-- Node7&#45;&gt;Node8 -->
<g id="edge7" class="edge"><title>Node7&#45;&gt;Node8</title>
<path fill="none" stroke="midnightblue" d="M1262.18,-41.4346C1271.08,-41.4346 1279.88,-41.4346 1287.9,-41.4346"/>
<polygon fill="midnightblue" stroke="midnightblue" points="1262.13,-37.9347 1252.13,-41.4346 1262.13,-44.9347 1262.13,-37.9347"/>
</g>
<!-- Node9 -->
<g id="node9" class="node"><title>Node9</title>
<g id="a_node9"><a xlink:href="../../d5/dcb/MINGW_2main_8c.html#ad338a7dbc41dc40bcecd0479377ef207" target="_top" xlink:title="main">
<polygon fill="none" stroke="black" points="1395,-31.9346 1395,-50.9346 1433,-50.9346 1433,-31.9346 1395,-31.9346"/>
<text text-anchor="middle" x="1414" y="-38.9346" font-family="Helvetica,sans-Serif" font-size="10.00">main</text>
</a>
</g>
</g>
<!-- Node8&#45;&gt;Node9 -->
<g id="edge8" class="edge"><title>Node8&#45;&gt;Node9</title>
<path fill="none" stroke="midnightblue" d="M1369.38,-41.4346C1378.44,-41.4346 1387.45,-41.4346 1394.92,-41.4346"/>
<polygon fill="midnightblue" stroke="midnightblue" points="1369.22,-37.9347 1359.22,-41.4346 1369.22,-44.9347 1369.22,-37.9347"/>
</g>
<!-- Node10 -->
<g id="node10" class="node"><title>Node10</title>
<g id="a_node10"><a xlink:href="../../d8/d03/ports_2MINGW_2CMakeLists_8txt.html#a7e00df43a20d627a1732be7766d91097" target="_top" xlink:title="add_library">
<polygon fill="none" stroke="black" points="1469,-31.9346 1469,-50.9346 1533,-50.9346 1533,-31.9346 1469,-31.9346"/>
<text text-anchor="middle" x="1501" y="-38.9346" font-family="Helvetica,sans-Serif" font-size="10.00">add_library</text>
</a>
</g>
</g>
<!-- Node9&#45;&gt;Node10 -->
<g id="edge9" class="edge"><title>Node9&#45;&gt;Node10</title>
<path fill="none" stroke="midnightblue" d="M1443.27,-41.4346C1451.5,-41.4346 1460.55,-41.4346 1468.94,-41.4346"/>
<polygon fill="midnightblue" stroke="midnightblue" points="1443.03,-37.9347 1433.03,-41.4346 1443.03,-44.9347 1443.03,-37.9347"/>
</g>
<!-- Node11 -->
<g id="node11" class="node"><title>Node11</title>
<g id="a_node11"><a xlink:href="../../d8/dce/ports_2CMakeLists_8txt.html#a598fae457555a5fb26e18d4cd8f89de9" target="_top" xlink:title="add_subdirectory">
<polygon fill="none" stroke="black" points="1569,-31.9346 1569,-50.9346 1660,-50.9346 1660,-31.9346 1569,-31.9346"/>
<text text-anchor="middle" x="1614.5" y="-38.9346" font-family="Helvetica,sans-Serif" font-size="10.00">add_subdirectory</text>
</a>
</g>
</g>
<!-- Node10&#45;&gt;Node11 -->
<g id="edge10" class="edge"><title>Node10&#45;&gt;Node11</title>
<path fill="none" stroke="midnightblue" d="M1543.3,-41.4346C1551.63,-41.4346 1560.42,-41.4346 1568.86,-41.4346"/>
<polygon fill="midnightblue" stroke="midnightblue" points="1543.06,-37.9347 1533.06,-41.4346 1543.06,-44.9347 1543.06,-37.9347"/>
</g>
<!-- Node13 -->
<g id="node13" class="node"><title>Node13</title>
<g id="a_node13"><a xlink:href="../../dc/d93/cipclass3connection_8c.html#a6053ab7004c1419bd80faf9aca54bfd3" target="_top" xlink:title="Class3ConnectionTimeoutHandler">
<polygon fill="none" stroke="black" points="609,-12.9346 609,-31.9346 775,-31.9346 775,-12.9346 609,-12.9346"/>
<text text-anchor="middle" x="692" y="-19.9346" font-family="Helvetica,sans-Serif" font-size="10.00">Class3ConnectionTimeoutHandler</text>
</a>
</g>
</g>
<!-- Node12&#45;&gt;Node13 -->
<g id="edge12" class="edge"><title>Node12&#45;&gt;Node13</title>
<path fill="none" stroke="midnightblue" d="M533.753,-17.9947C556.605,-18.6399 583.582,-19.4016 608.68,-20.1103"/>
<polygon fill="midnightblue" stroke="midnightblue" points="533.661,-14.4908 523.566,-17.7071 533.463,-21.488 533.661,-14.4908"/>
</g>
<!-- Node14 -->
<g id="node14" class="node"><title>Node14</title>
<g id="a_node14"><a xlink:href="../../d2/d11/cipclass3connection_8h.html#a45bd741b44137164c07a6ce09a7a9a9d" target="_top" xlink:title="Check if Class3 connection is available and if yes setup all data. ">
<polygon fill="none" stroke="black" points="811,-12.9346 811,-31.9346 948,-31.9346 948,-12.9346 811,-12.9346"/>
<text text-anchor="middle" x="879.5" y="-19.9346" font-family="Helvetica,sans-Serif" font-size="10.00">EstablishClass3Connection</text>
</a>
</g>
</g>
<!-- Node12&#45;&gt;Node14 -->
<g id="edge15" class="edge"><title>Node12&#45;&gt;Node14</title>
<path fill="none" stroke="midnightblue" d="M533.496,-9.61035C593.1,-3.24355 690.962,4.21511 775,-3.43461 795.377,-5.28947 817.735,-9.15805 836.44,-12.9233"/>
<polygon fill="midnightblue" stroke="midnightblue" points="533.105,-6.13218 523.546,-10.7012 533.867,-13.0905 533.105,-6.13218"/>
</g>
<!-- Node13&#45;&gt;Node14 -->
<g id="edge13" class="edge"><title>Node13&#45;&gt;Node14</title>
<path fill="none" stroke="midnightblue" d="M785.269,-22.4346C793.886,-22.4346 802.509,-22.4346 810.84,-22.4346"/>
<polygon fill="midnightblue" stroke="midnightblue" points="785.173,-18.9347 775.173,-22.4346 785.173,-25.9347 785.173,-18.9347"/>
</g>
<!-- Node14&#45;&gt;Node7 -->
<g id="edge14" class="edge"><title>Node14&#45;&gt;Node7</title>
<path fill="none" stroke="midnightblue" d="M958.218,-27.1675C1013.01,-30.5041 1085.19,-34.8999 1134.88,-37.9257"/>
<polygon fill="midnightblue" stroke="midnightblue" points="958.394,-23.6717 948.199,-26.5573 957.968,-30.6588 958.394,-23.6717"/>
</g>
</g>
</svg>
