<?xml version="1.0" encoding="UTF-8" standalone="no"?>
<!DOCTYPE svg PUBLIC "-//W3C//DTD SVG 1.1//EN"
 "http://www.w3.org/Graphics/SVG/1.1/DTD/svg11.dtd">
<!-- Generated by graphviz version 2.38.0 (20140413.2041)
 -->
<!-- Title: DoublyLinkedListNodeDestroy Pages: 1 -->
<!--zoomable 94 -->
<svg id="main" version="1.1" xmlns="http://www.w3.org/2000/svg" xmlns:xlink="http://www.w3.org/1999/xlink" xml:space="preserve" onload="init(evt)">
<style type="text/css"><![CDATA[
.edge:hover path { stroke: red; }
.edge:hover polygon { stroke: red; fill: red; }
]]></style>
<script type="text/javascript"><![CDATA[
var edges = document.getElementsByTagName('g');
if (edges && edges.length) {
  for (var i=0;i<edges.length;i++) {
    if (edges[i].id.substr(0,4)=='edge') {
      edges[i].setAttribute('class','edge');
    }
  }
}
]]></script>
        <defs>
                <circle id="rim" cx="0" cy="0" r="7"/>
                <circle id="rim2" cx="0" cy="0" r="3.5"/>
                <g id="zoomPlus">
                        <use xlink:href="#rim" fill="#404040">
                                <set attributeName="fill" to="#808080" begin="zoomplus.mouseover" end="zoomplus.mouseout"/>
                        </use>
                        <path d="M-4,0h8M0,-4v8" fill="none" stroke="white" stroke-width="1.5" pointer-events="none"/>
                </g>
                <g id="zoomMin">
                        <use xlink:href="#rim" fill="#404040">
                                <set attributeName="fill" to="#808080" begin="zoomminus.mouseover" end="zoomminus.mouseout"/>
                        </use>
                        <path d="M-4,0h8" fill="none" stroke="white" stroke-width="1.5" pointer-events="none"/>
                </g>
                <g id="dirArrow">
                        <path fill="none" stroke="white" stroke-width="1.5" d="M0,-3.0v7 M-2.5,-0.5L0,-3.0L2.5,-0.5"/>
                </g>
               <g id="resetDef">
                       <use xlink:href="#rim2" fill="#404040">
                               <set attributeName="fill" to="#808080" begin="reset.mouseover" end="reset.mouseout"/>
                       </use>
               </g>
        </defs>

<script type="text/javascript">
var viewWidth = 1853;
var viewHeight = 94;
var sectionId = 'dynsection-10';
</script>
<script xlink:href="../../svgpan.js"/>
<svg id="graph" class="graph">
<g id="viewport">
<title>DoublyLinkedListNodeDestroy</title>
<!-- Node1 -->
<g id="node1" class="node"><title>Node1</title>
<polygon fill="#bfbfbf" stroke="black" points="0,-47.9346 0,-66.9346 149,-66.9346 149,-47.9346 0,-47.9346"/>
<text text-anchor="middle" x="74.5" y="-54.9346" font-family="Helvetica,sans-Serif" font-size="10.00">DoublyLinkedListNodeDestroy</text>
</g>
<!-- Node2 -->
<g id="node2" class="node"><title>Node2</title>
<g id="a_node2"><a xlink:href="../../d9/d31/doublylinkedlist_8h.html#a86735cec2bd59496881165132356e342" target="_top" xlink:title="DoublyLinkedListDestroy">
<polygon fill="none" stroke="black" points="198,-66.9346 198,-85.9346 324,-85.9346 324,-66.9346 198,-66.9346"/>
<text text-anchor="middle" x="261" y="-73.9346" font-family="Helvetica,sans-Serif" font-size="10.00">DoublyLinkedListDestroy</text>
</a>
</g>
</g>
<!-- Node1&#45;&gt;Node2 -->
<g id="edge1" class="edge"><title>Node1&#45;&gt;Node2</title>
<path fill="none" stroke="midnightblue" d="M159.527,-66.0878C172.468,-67.4205 185.627,-68.7756 197.973,-70.047"/>
<polygon fill="midnightblue" stroke="midnightblue" points="159.521,-62.5687 149.215,-65.0258 158.804,-69.5319 159.521,-62.5687"/>
</g>
<!-- Node3 -->
<g id="node3" class="node"><title>Node3</title>
<g id="a_node3"><a xlink:href="../../d9/d31/doublylinkedlist_8h.html#a341e2f6faf7227650ed6e38e90cd047e" target="_top" xlink:title="DoublyLinkedListRemoveNode">
<polygon fill="none" stroke="black" points="185,-28.9346 185,-47.9346 337,-47.9346 337,-28.9346 185,-28.9346"/>
<text text-anchor="middle" x="261" y="-35.9346" font-family="Helvetica,sans-Serif" font-size="10.00">DoublyLinkedListRemoveNode</text>
</a>
</g>
</g>
<!-- Node1&#45;&gt;Node3 -->
<g id="edge2" class="edge"><title>Node1&#45;&gt;Node3</title>
<path fill="none" stroke="midnightblue" d="M159.205,-48.8146C167.769,-47.9327 176.432,-47.0406 184.895,-46.169"/>
<polygon fill="midnightblue" stroke="midnightblue" points="158.804,-45.3373 149.215,-49.8434 159.521,-52.3005 158.804,-45.3373"/>
</g>
<!-- Node4 -->
<g id="node4" class="node"><title>Node4</title>
<g id="a_node4"><a xlink:href="../../d2/da3/cipconnectionmanager_8h.html#a144782b4e2a5afc89ec32854511bbea7" target="_top" xlink:title="Removes connection from the list of active connections. ">
<polygon fill="none" stroke="black" points="373,-28.9346 373,-47.9346 531,-47.9346 531,-28.9346 373,-28.9346"/>
<text text-anchor="middle" x="452" y="-35.9346" font-family="Helvetica,sans-Serif" font-size="10.00">RemoveFromActiveConnections</text>
</a>
</g>
</g>
<!-- Node3&#45;&gt;Node4 -->
<g id="edge3" class="edge"><title>Node3&#45;&gt;Node4</title>
<path fill="none" stroke="midnightblue" d="M347.503,-38.4346C355.97,-38.4346 364.535,-38.4346 372.922,-38.4346"/>
<polygon fill="midnightblue" stroke="midnightblue" points="347.241,-34.9347 337.241,-38.4346 347.241,-41.9347 347.241,-34.9347"/>
</g>
<!-- Node5 -->
<g id="node5" class="node"><title>Node5</title>
<g id="a_node5"><a xlink:href="../../de/d45/cipioconnection_8h.html#a62fc61ed294b1d1543960582f0071b22" target="_top" xlink:title="close the communication channels of the given connection and remove it from the active connections li...">
<polygon fill="none" stroke="black" points="567,-45.4346 567,-75.4346 758,-75.4346 758,-45.4346 567,-45.4346"/>
<text text-anchor="start" x="575" y="-63.4346" font-family="Helvetica,sans-Serif" font-size="10.00">CloseCommunicationChannels</text>
<text text-anchor="middle" x="662.5" y="-52.4346" font-family="Helvetica,sans-Serif" font-size="10.00">AndRemoveFromActiveConnectionsList</text>
</a>
</g>
</g>
<!-- Node4&#45;&gt;Node5 -->
<g id="edge4" class="edge"><title>Node4&#45;&gt;Node5</title>
<path fill="none" stroke="midnightblue" d="M541.351,-47.757C549.716,-48.6397 558.222,-49.5371 566.645,-50.4259"/>
<polygon fill="midnightblue" stroke="midnightblue" points="541.543,-44.2579 531.231,-46.6892 540.808,-51.2193 541.543,-44.2579"/>
</g>
<!-- Node14 -->
<g id="node14" class="node"><title>Node14</title>
<g id="a_node14"><a xlink:href="../../d2/da3/cipconnectionmanager_8h.html#a9367d6d6edfd5bd276ead18619f4d74e" target="_top" xlink:title="Close the given connection. ">
<polygon fill="none" stroke="black" points="616.5,-6.93461 616.5,-25.9346 708.5,-25.9346 708.5,-6.93461 616.5,-6.93461"/>
<text text-anchor="middle" x="662.5" y="-13.9346" font-family="Helvetica,sans-Serif" font-size="10.00">CloseConnection</text>
</a>
</g>
</g>
<!-- Node4&#45;&gt;Node14 -->
<g id="edge13" class="edge"><title>Node4&#45;&gt;Node14</title>
<path fill="none" stroke="midnightblue" d="M541.447,-29.102C567.317,-26.3724 594.515,-23.5026 616.47,-21.186"/>
<polygon fill="midnightblue" stroke="midnightblue" points="540.808,-25.6499 531.231,-30.18 541.543,-32.6113 540.808,-25.6499"/>
</g>
<!-- Node6 -->
<g id="node6" class="node"><title>Node6</title>
<g id="a_node6"><a xlink:href="../../df/d03/cipioconnection_8c.html#a730b410a0cdbc6a456973c0e51568968" target="_top" xlink:title="CloseIoConnection">
<polygon fill="none" stroke="black" points="827,-50.9346 827,-69.9346 927,-69.9346 927,-50.9346 827,-50.9346"/>
<text text-anchor="middle" x="877" y="-57.9346" font-family="Helvetica,sans-Serif" font-size="10.00">CloseIoConnection</text>
</a>
</g>
</g>
<!-- Node5&#45;&gt;Node6 -->
<g id="edge5" class="edge"><title>Node5&#45;&gt;Node6</title>
<path fill="none" stroke="midnightblue" d="M768.277,-60.4346C788.737,-60.4346 809.269,-60.4346 826.838,-60.4346"/>
<polygon fill="midnightblue" stroke="midnightblue" points="768.253,-56.9347 758.253,-60.4346 768.253,-63.9347 768.253,-56.9347"/>
</g>
<!-- Node7 -->
<g id="node7" class="node"><title>Node7</title>
<g id="a_node7"><a xlink:href="../../df/d03/cipioconnection_8c.html#ab3282f146a3ea91c90cf14c32206ee8c" target="_top" xlink:title="SetIoConnectionCallbacks">
<polygon fill="none" stroke="black" points="998,-50.9346 998,-69.9346 1131,-69.9346 1131,-50.9346 998,-50.9346"/>
<text text-anchor="middle" x="1064.5" y="-57.9346" font-family="Helvetica,sans-Serif" font-size="10.00">SetIoConnectionCallbacks</text>
</a>
</g>
</g>
<!-- Node6&#45;&gt;Node7 -->
<g id="edge6" class="edge"><title>Node6&#45;&gt;Node7</title>
<path fill="none" stroke="midnightblue" d="M937.395,-60.4346C956.703,-60.4346 978.237,-60.4346 997.967,-60.4346"/>
<polygon fill="midnightblue" stroke="midnightblue" points="937.224,-56.9347 927.224,-60.4346 937.224,-63.9347 937.224,-56.9347"/>
</g>
<!-- Node8 -->
<g id="node8" class="node"><title>Node8</title>
<g id="a_node8"><a xlink:href="../../de/d45/cipioconnection_8h.html#a43e270b3f9b9f6296b12285c320c95aa" target="_top" xlink:title="Setup all data in order to establish an IO connection. ">
<polygon fill="none" stroke="black" points="1169,-50.9346 1169,-69.9346 1284,-69.9346 1284,-50.9346 1169,-50.9346"/>
<text text-anchor="middle" x="1226.5" y="-57.9346" font-family="Helvetica,sans-Serif" font-size="10.00">EstablishIoConnection</text>
</a>
</g>
</g>
<!-- Node7&#45;&gt;Node8 -->
<g id="edge7" class="edge"><title>Node7&#45;&gt;Node8</title>
<path fill="none" stroke="midnightblue" d="M1141.09,-60.4346C1150.4,-60.4346 1159.8,-60.4346 1168.77,-60.4346"/>
<polygon fill="midnightblue" stroke="midnightblue" points="1141.04,-56.9347 1131.04,-60.4346 1141.04,-63.9347 1141.04,-56.9347"/>
</g>
<!-- Node9 -->
<g id="node9" class="node"><title>Node9</title>
<g id="a_node9"><a xlink:href="../../d2/da3/cipconnectionmanager_8h.html#a5ab0de6894d23e8fe84a6b46797c2212" target="_top" xlink:title="Initialize the data of the connection manager object. ">
<polygon fill="none" stroke="black" points="1320,-31.9346 1320,-50.9346 1437,-50.9346 1437,-31.9346 1320,-31.9346"/>
<text text-anchor="middle" x="1378.5" y="-38.9346" font-family="Helvetica,sans-Serif" font-size="10.00">ConnectionManagerInit</text>
</a>
</g>
</g>
<!-- Node8&#45;&gt;Node9 -->
<g id="edge8" class="edge"><title>Node8&#45;&gt;Node9</title>
<path fill="none" stroke="midnightblue" d="M1294.13,-51.9949C1302.66,-50.9142 1311.34,-49.815 1319.71,-48.7542"/>
<polygon fill="midnightblue" stroke="midnightblue" points="1293.69,-48.5226 1284.21,-53.2515 1294.57,-55.4671 1293.69,-48.5226"/>
</g>
<!-- Node10 -->
<g id="node10" class="node"><title>Node10</title>
<g id="a_node10"><a xlink:href="../../d2/dc9/group__CIP__API.html#ga5d4979945d124e28668b264c3823db1c" target="_top" xlink:title="Initialize and setup the CIP&#45;stack. ">
<polygon fill="none" stroke="black" points="1473,-31.9346 1473,-50.9346 1544,-50.9346 1544,-31.9346 1473,-31.9346"/>
<text text-anchor="middle" x="1508.5" y="-38.9346" font-family="Helvetica,sans-Serif" font-size="10.00">CipStackInit</text>
</a>
</g>
</g>
<!-- Node9&#45;&gt;Node10 -->
<g id="edge9" class="edge"><title>Node9&#45;&gt;Node10</title>
<path fill="none" stroke="midnightblue" d="M1447.18,-41.4346C1456.08,-41.4346 1464.88,-41.4346 1472.9,-41.4346"/>
<polygon fill="midnightblue" stroke="midnightblue" points="1447.13,-37.9347 1437.13,-41.4346 1447.13,-44.9347 1447.13,-37.9347"/>
</g>
<!-- Node11 -->
<g id="node11" class="node"><title>Node11</title>
<g id="a_node11"><a xlink:href="../../d5/dcb/MINGW_2main_8c.html#ad338a7dbc41dc40bcecd0479377ef207" target="_top" xlink:title="main">
<polygon fill="none" stroke="black" points="1580,-31.9346 1580,-50.9346 1618,-50.9346 1618,-31.9346 1580,-31.9346"/>
<text text-anchor="middle" x="1599" y="-38.9346" font-family="Helvetica,sans-Serif" font-size="10.00">main</text>
</a>
</g>
</g>
<!-- Node10&#45;&gt;Node11 -->
<g id="edge10" class="edge"><title>Node10&#45;&gt;Node11</title>
<path fill="none" stroke="midnightblue" d="M1554.38,-41.4346C1563.44,-41.4346 1572.45,-41.4346 1579.92,-41.4346"/>
<polygon fill="midnightblue" stroke="midnightblue" points="1554.22,-37.9347 1544.22,-41.4346 1554.22,-44.9347 1554.22,-37.9347"/>
</g>
<!-- Node12 -->
<g id="node12" class="node"><title>Node12</title>
<g id="a_node12"><a xlink:href="../../d8/d03/ports_2MINGW_2CMakeLists_8txt.html#a7e00df43a20d627a1732be7766d91097" target="_top" xlink:title="add_library">
<polygon fill="none" stroke="black" points="1654,-31.9346 1654,-50.9346 1718,-50.9346 1718,-31.9346 1654,-31.9346"/>
<text text-anchor="middle" x="1686" y="-38.9346" font-family="Helvetica,sans-Serif" font-size="10.00">add_library</text>
</a>
</g>
</g>
<!-- Node11&#45;&gt;Node12 -->
<g id="edge11" class="edge"><title>Node11&#45;&gt;Node12</title>
<path fill="none" stroke="midnightblue" d="M1628.27,-41.4346C1636.5,-41.4346 1645.55,-41.4346 1653.94,-41.4346"/>
<polygon fill="midnightblue" stroke="midnightblue" points="1628.03,-37.9347 1618.03,-41.4346 1628.03,-44.9347 1628.03,-37.9347"/>
</g>
<!-- Node13 -->
<g id="node13" class="node"><title>Node13</title>
<g id="a_node13"><a xlink:href="../../d8/dce/ports_2CMakeLists_8txt.html#a598fae457555a5fb26e18d4cd8f89de9" target="_top" xlink:title="add_subdirectory">
<polygon fill="none" stroke="black" points="1754,-31.9346 1754,-50.9346 1845,-50.9346 1845,-31.9346 1754,-31.9346"/>
<text text-anchor="middle" x="1799.5" y="-38.9346" font-family="Helvetica,sans-Serif" font-size="10.00">add_subdirectory</text>
</a>
</g>
</g>
<!-- Node12&#45;&gt;Node13 -->
<g id="edge12" class="edge"><title>Node12&#45;&gt;Node13</title>
<path fill="none" stroke="midnightblue" d="M1728.3,-41.4346C1736.63,-41.4346 1745.42,-41.4346 1753.86,-41.4346"/>
<polygon fill="midnightblue" stroke="midnightblue" points="1728.06,-37.9347 1718.06,-41.4346 1728.06,-44.9347 1728.06,-37.9347"/>
</g>
<!-- Node15 -->
<g id="node15" class="node"><title>Node15</title>
<g id="a_node15"><a xlink:href="../../dc/d93/cipclass3connection_8c.html#a6053ab7004c1419bd80faf9aca54bfd3" target="_top" xlink:title="Class3ConnectionTimeoutHandler">
<polygon fill="none" stroke="black" points="794,-12.9346 794,-31.9346 960,-31.9346 960,-12.9346 794,-12.9346"/>
<text text-anchor="middle" x="877" y="-19.9346" font-family="Helvetica,sans-Serif" font-size="10.00">Class3ConnectionTimeoutHandler</text>
</a>
</g>
</g>
<!-- Node14&#45;&gt;Node15 -->
<g id="edge14" class="edge"><title>Node14&#45;&gt;Node15</title>
<path fill="none" stroke="midnightblue" d="M718.753,-17.9947C741.605,-18.6399 768.582,-19.4016 793.68,-20.1103"/>
<polygon fill="midnightblue" stroke="midnightblue" points="718.661,-14.4908 708.566,-17.7071 718.463,-21.488 718.661,-14.4908"/>
</g>
<!-- Node16 -->
<g id="node16" class="node"><title>Node16</title>
<g id="a_node16"><a xlink:href="../../d2/d11/cipclass3connection_8h.html#a45bd741b44137164c07a6ce09a7a9a9d" target="_top" xlink:title="Check if Class3 connection is available and if yes setup all data. ">
<polygon fill="none" stroke="black" points="996,-12.9346 996,-31.9346 1133,-31.9346 1133,-12.9346 996,-12.9346"/>
<text text-anchor="middle" x="1064.5" y="-19.9346" font-family="Helvetica,sans-Serif" font-size="10.00">EstablishClass3Connection</text>
</a>
</g>
</g>
<!-- Node14&#45;&gt;Node16 -->
<g id="edge17" class="edge"><title>Node14&#45;&gt;Node16</title>
<path fill="none" stroke="midnightblue" d="M718.496,-9.61035C778.1,-3.24355 875.962,4.21511 960,-3.43461 980.377,-5.28947 1002.73,-9.15805 1021.44,-12.9233"/>
<polygon fill="midnightblue" stroke="midnightblue" points="718.105,-6.13218 708.546,-10.7012 718.867,-13.0905 718.105,-6.13218"/>
</g>
<!-- Node15&#45;&gt;Node16 -->
<g id="edge15" class="edge"><title>Node15&#45;&gt;Node16</title>
<path fill="none" stroke="midnightblue" d="M970.269,-22.4346C978.886,-22.4346 987.509,-22.4346 995.84,-22.4346"/>
<polygon fill="midnightblue" stroke="midnightblue" points="970.173,-18.9347 960.173,-22.4346 970.173,-25.9347 970.173,-18.9347"/>
</g>
<!-- Node16&#45;&gt;Node9 -->
<g id="edge16" class="edge"><title>Node16&#45;&gt;Node9</title>
<path fill="none" stroke="midnightblue" d="M1143.22,-27.1675C1198.01,-30.5041 1270.19,-34.8999 1319.88,-37.9257"/>
<polygon fill="midnightblue" stroke="midnightblue" points="1143.39,-23.6717 1133.2,-26.5573 1142.97,-30.6588 1143.39,-23.6717"/>
</g>
</g>
</svg>
        <g id="navigator" transform="translate(0 0)" fill="#404254">
                <rect fill="#f2f5e9" fill-opacity="0.5" stroke="#606060" stroke-width=".5" x="0" y="0" width="60" height="60"/>
                <use id="zoomplus" xlink:href="#zoomPlus" x="17" y="9" onmousedown="handleZoom(evt,'in')"/>
                <use id="zoomminus" xlink:href="#zoomMin" x="42" y="9" onmousedown="handleZoom(evt,'out')"/>
                <use id="reset" xlink:href="#resetDef" x="30" y="36" onmousedown="handleReset()"/>
                <g id="arrowUp" xlink:href="#dirArrow" transform="translate(30 24)" onmousedown="handlePan(0,-1)">
                  <use xlink:href="#rim" fill="#404040">
                        <set attributeName="fill" to="#808080" begin="arrowUp.mouseover" end="arrowUp.mouseout"/>
                  </use>
                  <path fill="none" stroke="white" stroke-width="1.5" d="M0,-3.0v7 M-2.5,-0.5L0,-3.0L2.5,-0.5"/>
                </g>
                <g id="arrowRight" xlink:href="#dirArrow" transform="rotate(90) translate(36 -43)" onmousedown="handlePan(1,0)">
                  <use xlink:href="#rim" fill="#404040">
                        <set attributeName="fill" to="#808080" begin="arrowRight.mouseover" end="arrowRight.mouseout"/>
                  </use>
                  <path fill="none" stroke="white" stroke-width="1.5" d="M0,-3.0v7 M-2.5,-0.5L0,-3.0L2.5,-0.5"/>
                </g>
                <g id="arrowDown" xlink:href="#dirArrow" transform="rotate(180) translate(-30 -48)" onmousedown="handlePan(0,1)">
                  <use xlink:href="#rim" fill="#404040">
                        <set attributeName="fill" to="#808080" begin="arrowDown.mouseover" end="arrowDown.mouseout"/>
                  </use>
                  <path fill="none" stroke="white" stroke-width="1.5" d="M0,-3.0v7 M-2.5,-0.5L0,-3.0L2.5,-0.5"/>
                </g>
                <g id="arrowLeft" xlink:href="#dirArrow" transform="rotate(270) translate(-36 17)" onmousedown="handlePan(-1,0)">
                  <use xlink:href="#rim" fill="#404040">
                        <set attributeName="fill" to="#808080" begin="arrowLeft.mouseover" end="arrowLeft.mouseout"/>
                  </use>
                  <path fill="none" stroke="white" stroke-width="1.5" d="M0,-3.0v7 M-2.5,-0.5L0,-3.0L2.5,-0.5"/>
                </g>
        </g>
        <svg viewBox="0 0 15 15" width="100%" height="30px" preserveAspectRatio="xMaxYMin meet">
         <g id="arrow_out" transform="scale(0.3 0.3)">
          <a xlink:href="doublylinkedlist_8c_a87710acb9f42fba14822fb824814105c_icgraph_org.svg" target="_base">
           <rect id="button" ry="5" rx="5" y="6" x="6" height="38" width="38"
                fill="#f2f5e9" fill-opacity="0.5" stroke="#606060" stroke-width="1.0"/>
           <path id="arrow"
             d="M 11.500037,31.436501 C 11.940474,20.09759 22.043105,11.32322 32.158766,21.979434 L 37.068811,17.246167 C 37.068811,17.246167 37.088388,32 37.088388,32 L 22.160133,31.978069 C 22.160133,31.978069 26.997745,27.140456 26.997745,27.140456 C 18.528582,18.264221 13.291696,25.230495 11.500037,31.436501 z"
             style="fill:#404040;"/>
          </a>
         </g>
        </svg>
</svg>
