<?xml version="1.0" encoding="UTF-8" standalone="no"?>
<!DOCTYPE svg PUBLIC "-//W3C//DTD SVG 1.1//EN"
 "http://www.w3.org/Graphics/SVG/1.1/DTD/svg11.dtd">
<!-- Generated by graphviz version 2.36.0 (20140111.2315)
 -->
<!-- Title: src/enet_encap/cpf.h Pages: 1 -->
<!--zoomable 420 -->
<svg id="main" version="1.1" xmlns="http://www.w3.org/2000/svg" xmlns:xlink="http://www.w3.org/1999/xlink" xml:space="preserve" onload="init(evt)">
<style type="text/css"><![CDATA[
.edge:hover path { stroke: red; }
.edge:hover polygon { stroke: red; fill: red; }
]]></style>
<script type="text/javascript"><![CDATA[
var edges = document.getElementsByTagName('g');
if (edges && edges.length) {
  for (var i=0;i<edges.length;i++) {
    if (edges[i].id.substr(0,4)=='edge') {
      edges[i].setAttribute('class','edge');
    }
  }
}
]]></script>
        <defs>
                <circle id="rim" cx="0" cy="0" r="7"/>
                <circle id="rim2" cx="0" cy="0" r="3.5"/>
                <g id="zoomPlus">
                        <use xlink:href="#rim" fill="#404040">
                                <set attributeName="fill" to="#808080" begin="zoomplus.mouseover" end="zoomplus.mouseout"/>
                        </use>
                        <path d="M-4,0h8M0,-4v8" fill="none" stroke="white" stroke-width="1.5" pointer-events="none"/>
                </g>
                <g id="zoomMin">
                        <use xlink:href="#rim" fill="#404040">
                                <set attributeName="fill" to="#808080" begin="zoomminus.mouseover" end="zoomminus.mouseout"/>
                        </use>
                        <path d="M-4,0h8" fill="none" stroke="white" stroke-width="1.5" pointer-events="none"/>
                </g>
                <g id="dirArrow">
                        <path fill="none" stroke="white" stroke-width="1.5" d="M0,-3.0v7 M-2.5,-0.5L0,-3.0L2.5,-0.5"/>
                </g>
               <g id="resetDef">
                       <use xlink:href="#rim2" fill="#404040">
                               <set attributeName="fill" to="#808080" begin="reset.mouseover" end="reset.mouseout"/>
                       </use>
               </g>
        </defs>

<script type="text/javascript">
var viewWidth = 601;
var viewHeight = 420;
var sectionId = 'dynsection-0';
</script>
<script xlink:href="../../svgpan.js"/>
<svg id="graph" class="graph">
<g id="viewport">
<title>src/enet_encap/cpf.h</title>
<!-- Node1 -->
<g id="node1" class="node"><title>Node1</title>
<polygon fill="#bfbfbf" stroke="black" points="252,-392.5 252,-411.5 360,-411.5 360,-392.5 252,-392.5"/>
<text text-anchor="middle" x="306" y="-399.5" font-family="Helvetica,sans-Serif" font-size="10.00">src/enet_encap/cpf.h</text>
</g>
<!-- Node2 -->
<g id="node2" class="node"><title>Node2</title>
<g id="a_node2"><a xlink:href="../../d7/d69/typedefs_8h.html" target="_top" xlink:title="typedefs.h">
<polygon fill="none" stroke="black" points="81,-56.5 81,-75.5 143,-75.5 143,-56.5 81,-56.5"/>
<text text-anchor="middle" x="112" y="-63.5" font-family="Helvetica,sans-Serif" font-size="10.00">typedefs.h</text>
</a>
</g>
</g>
<!-- Node1&#45;&gt;Node2 -->
<g id="edge1" class="edge"><title>Node1&#45;&gt;Node2</title>
<path fill="none" stroke="midnightblue" d="M251.998,-392.955C164.151,-378.332 0,-343.925 0,-291 0,-291 0,-291 0,-177 0,-130.614 49.5055,-97.2849 82.6899,-80.1547"/>
<polygon fill="midnightblue" stroke="midnightblue" points="84.5668,-83.131 91.9766,-75.5583 81.4617,-76.8574 84.5668,-83.131"/>
</g>
<!-- Node6 -->
<g id="node6" class="node"><title>Node6</title>
<g id="a_node6"><a xlink:href="../../df/d28/ciptypes_8h.html" target="_top" xlink:title="ciptypes.h">
<polygon fill="none" stroke="black" points="326,-168.5 326,-187.5 388,-187.5 388,-168.5 326,-168.5"/>
<text text-anchor="middle" x="357" y="-175.5" font-family="Helvetica,sans-Serif" font-size="10.00">ciptypes.h</text>
</a>
</g>
</g>
<!-- Node1&#45;&gt;Node6 -->
<g id="edge5" class="edge"><title>Node1&#45;&gt;Node6</title>
<path fill="none" stroke="midnightblue" d="M307.617,-392.461C311.403,-372.64 321.261,-322.001 331,-280 337.729,-250.979 346.548,-217.542 351.991,-197.353"/>
<polygon fill="midnightblue" stroke="midnightblue" points="355.394,-198.18 354.633,-187.612 348.638,-196.347 355.394,-198.18"/>
</g>
<!-- Node10 -->
<g id="node10" class="node"><title>Node10</title>
<g id="a_node10"><a xlink:href="../../d7/df9/encap_8h.html" target="_top" xlink:title="This file contains the public interface of the encapsulation layer. ">
<polygon fill="none" stroke="black" points="334.5,-336.5 334.5,-355.5 385.5,-355.5 385.5,-336.5 334.5,-336.5"/>
<text text-anchor="middle" x="360" y="-343.5" font-family="Helvetica,sans-Serif" font-size="10.00">encap.h</text>
</a>
</g>
</g>
<!-- Node1&#45;&gt;Node10 -->
<g id="edge12" class="edge"><title>Node1&#45;&gt;Node10</title>
<path fill="none" stroke="midnightblue" d="M314.917,-392.083C322.78,-384.22 334.431,-372.569 343.919,-363.081"/>
<polygon fill="midnightblue" stroke="midnightblue" points="346.653,-365.297 351.249,-355.751 341.703,-360.347 346.653,-365.297"/>
</g>
<!-- Node3 -->
<g id="node3" class="node"><title>Node3</title>
<polygon fill="none" stroke="#bfbfbf" points="45.5,-0.5 45.5,-19.5 104.5,-19.5 104.5,-0.5 45.5,-0.5"/>
<text text-anchor="middle" x="75" y="-7.5" font-family="Helvetica,sans-Serif" font-size="10.00">inttypes.h</text>
</g>
<!-- Node2&#45;&gt;Node3 -->
<g id="edge2" class="edge"><title>Node2&#45;&gt;Node3</title>
<path fill="none" stroke="midnightblue" d="M105.89,-56.083C100.718,-48.5341 93.1539,-37.4948 86.8056,-28.2298"/>
<polygon fill="midnightblue" stroke="midnightblue" points="89.5357,-26.0221 80.9961,-19.7511 83.7612,-29.9787 89.5357,-26.0221"/>
</g>
<!-- Node4 -->
<g id="node4" class="node"><title>Node4</title>
<polygon fill="none" stroke="#bfbfbf" points="123,-0.5 123,-19.5 175,-19.5 175,-0.5 123,-0.5"/>
<text text-anchor="middle" x="149" y="-7.5" font-family="Helvetica,sans-Serif" font-size="10.00">stddef.h</text>
</g>
<!-- Node2&#45;&gt;Node4 -->
<g id="edge3" class="edge"><title>Node2&#45;&gt;Node4</title>
<path fill="none" stroke="midnightblue" d="M118.11,-56.083C123.282,-48.5341 130.846,-37.4948 137.194,-28.2298"/>
<polygon fill="midnightblue" stroke="midnightblue" points="140.239,-29.9787 143.004,-19.7511 134.464,-26.0221 140.239,-29.9787"/>
</g>
<!-- Node5 -->
<g id="node5" class="node"><title>Node5</title>
<polygon fill="none" stroke="#bfbfbf" points="342,-0.5 342,-19.5 398,-19.5 398,-0.5 342,-0.5"/>
<text text-anchor="middle" x="370" y="-7.5" font-family="Helvetica,sans-Serif" font-size="10.00">stdbool.h</text>
</g>
<!-- Node2&#45;&gt;Node5 -->
<g id="edge4" class="edge"><title>Node2&#45;&gt;Node5</title>
<path fill="none" stroke="midnightblue" d="M143.121,-58.4863C190.517,-48.5663 280.676,-29.6958 331.914,-18.9714"/>
<polygon fill="midnightblue" stroke="midnightblue" points="332.853,-22.351 341.923,-16.8765 331.418,-15.4994 332.853,-22.351"/>
</g>
<!-- Node6&#45;&gt;Node2 -->
<g id="edge6" class="edge"><title>Node6&#45;&gt;Node2</title>
<path fill="none" stroke="midnightblue" d="M328.002,-168.485C301.482,-160.324 261.414,-147.05 228,-132 194.146,-116.752 157.042,-95.0059 134.135,-80.9462"/>
<polygon fill="midnightblue" stroke="midnightblue" points="135.866,-77.9009 125.522,-75.6097 132.179,-83.8515 135.866,-77.9009"/>
</g>
<!-- Node7 -->
<g id="node7" class="node"><title>Node7</title>
<g id="a_node7"><a xlink:href="../../d0/d47/networkhandler_8h.html" target="_top" xlink:title="networkhandler.h">
<polygon fill="none" stroke="black" points="237.5,-112.5 237.5,-131.5 328.5,-131.5 328.5,-112.5 237.5,-112.5"/>
<text text-anchor="middle" x="283" y="-119.5" font-family="Helvetica,sans-Serif" font-size="10.00">networkhandler.h</text>
</a>
</g>
</g>
<!-- Node6&#45;&gt;Node7 -->
<g id="edge7" class="edge"><title>Node6&#45;&gt;Node7</title>
<path fill="none" stroke="midnightblue" d="M345.111,-168.324C333.85,-160.107 316.713,-147.602 303.291,-137.807"/>
<polygon fill="midnightblue" stroke="midnightblue" points="305.247,-134.901 295.106,-131.834 301.12,-140.556 305.247,-134.901"/>
</g>
<!-- Node8 -->
<g id="node8" class="node"><title>Node8</title>
<g id="a_node8"><a xlink:href="../../d8/d2c/enipmessage_8h.html" target="_top" xlink:title="enipmessage.h">
<polygon fill="none" stroke="black" points="385.5,-112.5 385.5,-131.5 468.5,-131.5 468.5,-112.5 385.5,-112.5"/>
<text text-anchor="middle" x="427" y="-119.5" font-family="Helvetica,sans-Serif" font-size="10.00">enipmessage.h</text>
</a>
</g>
</g>
<!-- Node6&#45;&gt;Node8 -->
<g id="edge9" class="edge"><title>Node6&#45;&gt;Node8</title>
<path fill="none" stroke="midnightblue" d="M368.247,-168.324C378.797,-160.185 394.801,-147.839 407.442,-138.087"/>
<polygon fill="midnightblue" stroke="midnightblue" points="409.769,-140.713 415.549,-131.834 405.493,-135.171 409.769,-140.713"/>
</g>
<!-- Node9 -->
<g id="node9" class="node"><title>Node9</title>
<polygon fill="none" stroke="#bfbfbf" points="376,-56.5 376,-75.5 478,-75.5 478,-56.5 376,-56.5"/>
<text text-anchor="middle" x="427" y="-63.5" font-family="Helvetica,sans-Serif" font-size="10.00">opener_user_conf.h</text>
</g>
<!-- Node6&#45;&gt;Node9 -->
<g id="edge11" class="edge"><title>Node6&#45;&gt;Node9</title>
<path fill="none" stroke="midnightblue" d="M357.968,-168.373C359.762,-155.294 364.523,-130.06 376,-112 383.521,-100.165 395.038,-89.6273 405.226,-81.7295"/>
<polygon fill="midnightblue" stroke="midnightblue" points="407.376,-84.4929 413.354,-75.7458 403.226,-78.8557 407.376,-84.4929"/>
</g>
<!-- Node7&#45;&gt;Node2 -->
<g id="edge8" class="edge"><title>Node7&#45;&gt;Node2</title>
<path fill="none" stroke="midnightblue" d="M255.905,-112.444C227.012,-103.32 181.075,-88.8133 148.895,-78.6509"/>
<polygon fill="midnightblue" stroke="midnightblue" points="149.559,-75.1903 138.969,-75.5164 147.451,-81.8654 149.559,-75.1903"/>
</g>
<!-- Node8&#45;&gt;Node9 -->
<g id="edge10" class="edge"><title>Node8&#45;&gt;Node9</title>
<path fill="none" stroke="midnightblue" d="M427,-112.083C427,-105.006 427,-94.8611 427,-85.9865"/>
<polygon fill="midnightblue" stroke="midnightblue" points="430.5,-85.751 427,-75.7511 423.5,-85.7511 430.5,-85.751"/>
</g>
<!-- Node10&#45;&gt;Node2 -->
<g id="edge13" class="edge"><title>Node10&#45;&gt;Node2</title>
<path fill="none" stroke="midnightblue" d="M334.464,-341.883C258.304,-331.881 38,-297.545 38,-235 38,-235 38,-235 38,-177 38,-137.61 71.0703,-101.726 92.9957,-82.264"/>
<polygon fill="midnightblue" stroke="midnightblue" points="95.4273,-84.7902 100.761,-75.6358 90.8827,-79.466 95.4273,-84.7902"/>
</g>
<!-- Node11 -->
<g id="node11" class="node"><title>Node11</title>
<g id="a_node11"><a xlink:href="../../d1/d6c/cipconnectionobject_8h.html" target="_top" xlink:title="cipconnectionobject.h">
<polygon fill="none" stroke="black" points="340.5,-280.5 340.5,-299.5 451.5,-299.5 451.5,-280.5 340.5,-280.5"/>
<text text-anchor="middle" x="396" y="-287.5" font-family="Helvetica,sans-Serif" font-size="10.00">cipconnectionobject.h</text>
</a>
</g>
</g>
<!-- Node10&#45;&gt;Node11 -->
<g id="edge14" class="edge"><title>Node10&#45;&gt;Node11</title>
<path fill="none" stroke="midnightblue" d="M365.945,-336.083C370.977,-328.534 378.337,-317.495 384.513,-308.23"/>
<polygon fill="midnightblue" stroke="midnightblue" points="387.531,-310.013 390.166,-299.751 381.707,-306.13 387.531,-310.013"/>
</g>
<!-- Node11&#45;&gt;Node2 -->
<g id="edge15" class="edge"><title>Node11&#45;&gt;Node2</title>
<path fill="none" stroke="midnightblue" d="M340.363,-287.1C274.378,-281.463 167.267,-260.866 119,-188 98.4429,-156.966 102.955,-111.042 107.705,-85.6264"/>
<polygon fill="midnightblue" stroke="midnightblue" points="111.197,-86.0237 109.815,-75.5195 104.345,-84.5931 111.197,-86.0237"/>
</g>
<!-- Node11&#45;&gt;Node6 -->
<g id="edge16" class="edge"><title>Node11&#45;&gt;Node6</title>
<path fill="none" stroke="midnightblue" d="M387.28,-280.234C379.44,-271.751 368.358,-258.132 363,-244 357.407,-229.248 356.122,-211.317 356.115,-198.028"/>
<polygon fill="midnightblue" stroke="midnightblue" points="359.621,-197.822 356.36,-187.742 352.623,-197.655 359.621,-197.822"/>
</g>
<!-- Node11&#45;&gt;Node9 -->
<g id="edge17" class="edge"><title>Node11&#45;&gt;Node9</title>
<path fill="none" stroke="midnightblue" d="M451.539,-281.518C496.823,-274.247 555.839,-261.702 572,-244 605.992,-206.766 585.987,-182.257 590,-132 590.707,-123.139 595.385,-119.072 590,-112 577.432,-95.4922 529.052,-83.4951 488.237,-76.0601"/>
<polygon fill="midnightblue" stroke="midnightblue" points="488.775,-72.6011 478.32,-74.3141 487.562,-79.4951 488.775,-72.6011"/>
</g>
<!-- Node12 -->
<g id="node12" class="node"><title>Node12</title>
<g id="a_node12"><a xlink:href="../../d4/d38/opener__api_8h.html" target="_top" xlink:title="opener_api.h">
<polygon fill="none" stroke="black" points="205,-224.5 205,-243.5 277,-243.5 277,-224.5 205,-224.5"/>
<text text-anchor="middle" x="241" y="-231.5" font-family="Helvetica,sans-Serif" font-size="10.00">opener_api.h</text>
</a>
</g>
</g>
<!-- Node11&#45;&gt;Node12 -->
<g id="edge18" class="edge"><title>Node11&#45;&gt;Node12</title>
<path fill="none" stroke="midnightblue" d="M371.44,-280.444C345.477,-271.399 304.332,-257.064 275.203,-246.916"/>
<polygon fill="midnightblue" stroke="midnightblue" points="276.04,-243.501 265.445,-243.516 273.737,-250.112 276.04,-243.501"/>
</g>
<!-- Node15 -->
<g id="node15" class="node"><title>Node15</title>
<g id="a_node15"><a xlink:href="../../d9/d31/doublylinkedlist_8h.html" target="_top" xlink:title="doublylinkedlist.h">
<polygon fill="none" stroke="black" points="452,-224.5 452,-243.5 544,-243.5 544,-224.5 452,-224.5"/>
<text text-anchor="middle" x="498" y="-231.5" font-family="Helvetica,sans-Serif" font-size="10.00">doublylinkedlist.h</text>
</a>
</g>
</g>
<!-- Node11&#45;&gt;Node15 -->
<g id="edge24" class="edge"><title>Node11&#45;&gt;Node15</title>
<path fill="none" stroke="midnightblue" d="M412.388,-280.324C428.671,-271.703 453.867,-258.364 472.716,-248.386"/>
<polygon fill="midnightblue" stroke="midnightblue" points="474.452,-251.427 481.653,-243.655 471.177,-245.24 474.452,-251.427"/>
</g>
<!-- Node16 -->
<g id="node16" class="node"><title>Node16</title>
<g id="a_node16"><a xlink:href="../../d0/d23/cipelectronickey_8h.html" target="_top" xlink:title="cipelectronickey.h">
<polygon fill="none" stroke="black" points="486.5,-112.5 486.5,-131.5 581.5,-131.5 581.5,-112.5 486.5,-112.5"/>
<text text-anchor="middle" x="534" y="-119.5" font-family="Helvetica,sans-Serif" font-size="10.00">cipelectronickey.h</text>
</a>
</g>
</g>
<!-- Node11&#45;&gt;Node16 -->
<g id="edge25" class="edge"><title>Node11&#45;&gt;Node16</title>
<path fill="none" stroke="midnightblue" d="M450.739,-280.448C490.891,-272.926 540.5,-260.587 553,-244 576.049,-213.417 557.265,-165.981 544.1,-140.539"/>
<polygon fill="midnightblue" stroke="midnightblue" points="547.121,-138.769 539.265,-131.661 540.974,-142.117 547.121,-138.769"/>
</g>
<!-- Node17 -->
<g id="node17" class="node"><title>Node17</title>
<g id="a_node17"><a xlink:href="../../d1/d02/cipepath_8h.html" target="_top" xlink:title="cipepath.h">
<polygon fill="none" stroke="black" points="372,-224.5 372,-243.5 434,-243.5 434,-224.5 372,-224.5"/>
<text text-anchor="middle" x="403" y="-231.5" font-family="Helvetica,sans-Serif" font-size="10.00">cipepath.h</text>
</a>
</g>
</g>
<!-- Node11&#45;&gt;Node17 -->
<g id="edge28" class="edge"><title>Node11&#45;&gt;Node17</title>
<path fill="none" stroke="midnightblue" d="M397.156,-280.083C398.084,-272.927 399.418,-262.635 400.577,-253.691"/>
<polygon fill="midnightblue" stroke="midnightblue" points="404.051,-254.118 401.866,-243.751 397.109,-253.218 404.051,-254.118"/>
</g>
<!-- Node12&#45;&gt;Node2 -->
<g id="edge21" class="edge"><title>Node12&#45;&gt;Node2</title>
<path fill="none" stroke="midnightblue" d="M204.985,-227.218C180.946,-221.432 150.62,-210.062 133,-188 109.356,-158.395 108.418,-111.587 110.056,-85.7244"/>
<polygon fill="midnightblue" stroke="midnightblue" points="113.546,-85.9984 110.888,-75.7424 106.57,-85.4174 113.546,-85.9984"/>
</g>
<!-- Node12&#45;&gt;Node5 -->
<g id="edge20" class="edge"><title>Node12&#45;&gt;Node5</title>
<path fill="none" stroke="midnightblue" d="M252.146,-224.304C266.533,-211.961 288.537,-188.571 278,-168 265.516,-143.628 240.484,-156.372 228,-132 223.948,-124.089 223.925,-119.9 228,-112 250.786,-67.8311 302.805,-38.7576 337.154,-23.5947"/>
<polygon fill="midnightblue" stroke="midnightblue" points="338.931,-26.6428 346.765,-19.5099 336.192,-20.2006 338.931,-26.6428"/>
</g>
<!-- Node12&#45;&gt;Node6 -->
<g id="edge22" class="edge"><title>Node12&#45;&gt;Node6</title>
<path fill="none" stroke="midnightblue" d="M259.381,-224.444C278.216,-215.675 307.731,-201.935 329.379,-191.858"/>
<polygon fill="midnightblue" stroke="midnightblue" points="331.117,-194.91 338.705,-187.516 328.162,-188.564 331.117,-194.91"/>
</g>
<!-- Node13 -->
<g id="node13" class="node"><title>Node13</title>
<polygon fill="none" stroke="#bfbfbf" points="142,-168.5 142,-187.5 194,-187.5 194,-168.5 142,-168.5"/>
<text text-anchor="middle" x="168" y="-175.5" font-family="Helvetica,sans-Serif" font-size="10.00">assert.h</text>
</g>
<!-- Node12&#45;&gt;Node13 -->
<g id="edge19" class="edge"><title>Node12&#45;&gt;Node13</title>
<path fill="none" stroke="midnightblue" d="M229.271,-224.324C218.163,-216.107 201.258,-203.602 188.017,-193.807"/>
<polygon fill="midnightblue" stroke="midnightblue" points="190.063,-190.967 179.942,-187.834 185.9,-196.595 190.063,-190.967"/>
</g>
<!-- Node14 -->
<g id="node14" class="node"><title>Node14</title>
<g id="a_node14"><a xlink:href="../../d6/d52/ciperror_8h.html" target="_top" xlink:title="ciperror.h">
<polygon fill="none" stroke="black" points="212.5,-168.5 212.5,-187.5 269.5,-187.5 269.5,-168.5 212.5,-168.5"/>
<text text-anchor="middle" x="241" y="-175.5" font-family="Helvetica,sans-Serif" font-size="10.00">ciperror.h</text>
</a>
</g>
</g>
<!-- Node12&#45;&gt;Node14 -->
<g id="edge23" class="edge"><title>Node12&#45;&gt;Node14</title>
<path fill="none" stroke="midnightblue" d="M241,-224.083C241,-217.006 241,-206.861 241,-197.986"/>
<polygon fill="midnightblue" stroke="midnightblue" points="244.5,-197.751 241,-187.751 237.5,-197.751 244.5,-197.751"/>
</g>
<!-- Node16&#45;&gt;Node2 -->
<g id="edge27" class="edge"><title>Node16&#45;&gt;Node2</title>
<path fill="none" stroke="midnightblue" d="M486.432,-113.366C483.242,-112.892 480.075,-112.432 477,-112 359.969,-95.5514 221.358,-79.3634 153.555,-71.6583"/>
<polygon fill="midnightblue" stroke="midnightblue" points="153.625,-68.144 143.295,-70.4958 152.837,-75.0995 153.625,-68.144"/>
</g>
<!-- Node16&#45;&gt;Node5 -->
<g id="edge26" class="edge"><title>Node16&#45;&gt;Node5</title>
<path fill="none" stroke="midnightblue" d="M529.612,-112.186C522.334,-98.3935 506.511,-71.67 486,-56 463.02,-38.4439 432.352,-26.9433 408.321,-19.9659"/>
<polygon fill="midnightblue" stroke="midnightblue" points="409.04,-16.5338 398.47,-17.2481 407.179,-23.2817 409.04,-16.5338"/>
</g>
<!-- Node17&#45;&gt;Node5 -->
<g id="edge29" class="edge"><title>Node17&#45;&gt;Node5</title>
<path fill="none" stroke="midnightblue" d="M424.908,-224.49C470.17,-206.416 571.336,-163.293 590,-132 594.553,-124.366 594.105,-119.884 590,-112 555.247,-45.2505 461.476,-22.4645 408.252,-14.7974"/>
<polygon fill="midnightblue" stroke="midnightblue" points="408.551,-11.3065 398.177,-13.4571 407.628,-18.2454 408.551,-11.3065"/>
</g>
<!-- Node17&#45;&gt;Node6 -->
<g id="edge30" class="edge"><title>Node17&#45;&gt;Node6</title>
<path fill="none" stroke="midnightblue" d="M395.404,-224.083C388.773,-216.298 378.979,-204.801 370.942,-195.367"/>
<polygon fill="midnightblue" stroke="midnightblue" points="373.604,-193.094 364.455,-187.751 368.275,-197.633 373.604,-193.094"/>
</g>
<!-- Node17&#45;&gt;Node16 -->
<g id="edge31" class="edge"><title>Node17&#45;&gt;Node16</title>
<path fill="none" stroke="midnightblue" d="M413.279,-224.368C435.472,-205.733 488.111,-161.532 515.977,-138.134"/>
<polygon fill="midnightblue" stroke="midnightblue" points="518.361,-140.702 523.768,-131.591 513.859,-135.342 518.361,-140.702"/>
</g>
</g>
</svg>
        <g id="navigator" transform="translate(0 0)" fill="#404254">
                <rect fill="#f2f5e9" fill-opacity="0.5" stroke="#606060" stroke-width=".5" x="0" y="0" width="60" height="60"/>
                <use id="zoomplus" xlink:href="#zoomPlus" x="17" y="9" onmousedown="handleZoom(evt,'in')"/>
                <use id="zoomminus" xlink:href="#zoomMin" x="42" y="9" onmousedown="handleZoom(evt,'out')"/>
                <use id="reset" xlink:href="#resetDef" x="30" y="36" onmousedown="handleReset()"/>
                <g id="arrowUp" xlink:href="#dirArrow" transform="translate(30 24)" onmousedown="handlePan(0,-1)">
                  <use xlink:href="#rim" fill="#404040">
                        <set attributeName="fill" to="#808080" begin="arrowUp.mouseover" end="arrowUp.mouseout"/>
                  </use>
                  <path fill="none" stroke="white" stroke-width="1.5" d="M0,-3.0v7 M-2.5,-0.5L0,-3.0L2.5,-0.5"/>
                </g>
                <g id="arrowRight" xlink:href="#dirArrow" transform="rotate(90) translate(36 -43)" onmousedown="handlePan(1,0)">
                  <use xlink:href="#rim" fill="#404040">
                        <set attributeName="fill" to="#808080" begin="arrowRight.mouseover" end="arrowRight.mouseout"/>
                  </use>
                  <path fill="none" stroke="white" stroke-width="1.5" d="M0,-3.0v7 M-2.5,-0.5L0,-3.0L2.5,-0.5"/>
                </g>
                <g id="arrowDown" xlink:href="#dirArrow" transform="rotate(180) translate(-30 -48)" onmousedown="handlePan(0,1)">
                  <use xlink:href="#rim" fill="#404040">
                        <set attributeName="fill" to="#808080" begin="arrowDown.mouseover" end="arrowDown.mouseout"/>
                  </use>
                  <path fill="none" stroke="white" stroke-width="1.5" d="M0,-3.0v7 M-2.5,-0.5L0,-3.0L2.5,-0.5"/>
                </g>
                <g id="arrowLeft" xlink:href="#dirArrow" transform="rotate(270) translate(-36 17)" onmousedown="handlePan(-1,0)">
                  <use xlink:href="#rim" fill="#404040">
                        <set attributeName="fill" to="#808080" begin="arrowLeft.mouseover" end="arrowLeft.mouseout"/>
                  </use>
                  <path fill="none" stroke="white" stroke-width="1.5" d="M0,-3.0v7 M-2.5,-0.5L0,-3.0L2.5,-0.5"/>
                </g>
        </g>
        <svg viewBox="0 0 15 15" width="100%" height="30px" preserveAspectRatio="xMaxYMin meet">
         <g id="arrow_out" transform="scale(0.3 0.3)">
          <a xlink:href="cpf_8h__incl_org.svg" target="_base">
           <rect id="button" ry="5" rx="5" y="6" x="6" height="38" width="38"
                fill="#f2f5e9" fill-opacity="0.5" stroke="#606060" stroke-width="1.0"/>
           <path id="arrow"
             d="M 11.500037,31.436501 C 11.940474,20.09759 22.043105,11.32322 32.158766,21.979434 L 37.068811,17.246167 C 37.068811,17.246167 37.088388,32 37.088388,32 L 22.160133,31.978069 C 22.160133,31.978069 26.997745,27.140456 26.997745,27.140456 C 18.528582,18.264221 13.291696,25.230495 11.500037,31.436501 z"
             style="fill:#404040;"/>
          </a>
         </g>
        </svg>
</svg>
