<?xml version="1.0" encoding="UTF-8" standalone="no"?>
<!DOCTYPE svg PUBLIC "-//W3C//DTD SVG 1.1//EN"
 "http://www.w3.org/Graphics/SVG/1.1/DTD/svg11.dtd">
<!-- Generated by graphviz version 2.38.0 (20140413.2041)
 -->
<!-- Title: GetAttributeAllTcpIpInterface Pages: 1 -->
<!--zoomable 161 -->
<svg id="main" version="1.1" xmlns="http://www.w3.org/2000/svg" xmlns:xlink="http://www.w3.org/1999/xlink" xml:space="preserve" onload="init(evt)">
<style type="text/css"><![CDATA[
.edge:hover path { stroke: red; }
.edge:hover polygon { stroke: red; fill: red; }
]]></style>
<script type="text/javascript"><![CDATA[
var edges = document.getElementsByTagName('g');
if (edges && edges.length) {
  for (var i=0;i<edges.length;i++) {
    if (edges[i].id.substr(0,4)=='edge') {
      edges[i].setAttribute('class','edge');
    }
  }
}
]]></script>
        <defs>
                <circle id="rim" cx="0" cy="0" r="7"/>
                <circle id="rim2" cx="0" cy="0" r="3.5"/>
                <g id="zoomPlus">
                        <use xlink:href="#rim" fill="#404040">
                                <set attributeName="fill" to="#808080" begin="zoomplus.mouseover" end="zoomplus.mouseout"/>
                        </use>
                        <path d="M-4,0h8M0,-4v8" fill="none" stroke="white" stroke-width="1.5" pointer-events="none"/>
                </g>
                <g id="zoomMin">
                        <use xlink:href="#rim" fill="#404040">
                                <set attributeName="fill" to="#808080" begin="zoomminus.mouseover" end="zoomminus.mouseout"/>
                        </use>
                        <path d="M-4,0h8" fill="none" stroke="white" stroke-width="1.5" pointer-events="none"/>
                </g>
                <g id="dirArrow">
                        <path fill="none" stroke="white" stroke-width="1.5" d="M0,-3.0v7 M-2.5,-0.5L0,-3.0L2.5,-0.5"/>
                </g>
               <g id="resetDef">
                       <use xlink:href="#rim2" fill="#404040">
                               <set attributeName="fill" to="#808080" begin="reset.mouseover" end="reset.mouseout"/>
                       </use>
               </g>
        </defs>

<script type="text/javascript">
var viewWidth = 785;
var viewHeight = 161;
var sectionId = 'dynsection-3';
</script>
<script xlink:href="../../svgpan.js"/>
<svg id="graph" class="graph">
<g id="viewport">
<title>GetAttributeAllTcpIpInterface</title>
<!-- Node1 -->
<g id="node1" class="node"><title>Node1</title>
<polygon fill="#bfbfbf" stroke="black" points="0,-57.5 0,-76.5 143,-76.5 143,-57.5 0,-57.5"/>
<text text-anchor="middle" x="71.5" y="-64.5" font-family="Helvetica,sans-Serif" font-size="10.00">GetAttributeAllTcpIpInterface</text>
</g>
<!-- Node2 -->
<g id="node2" class="node"><title>Node2</title>
<g id="a_node2"><a xlink:href="../../dd/d20/ciptcpipinterface_8c.html#abe1c177c3c79ea065834ce8b9679d78d" target="_top" xlink:title="GetAttributeSingleTcpIpInterface">
<polygon fill="none" stroke="black" points="179,-57.5 179,-76.5 338,-76.5 338,-57.5 179,-57.5"/>
<text text-anchor="middle" x="258.5" y="-64.5" font-family="Helvetica,sans-Serif" font-size="10.00">GetAttributeSingleTcpIpInterface</text>
</a>
</g>
</g>
<!-- Node1&#45;&gt;Node2 -->
<g id="edge1" class="edge"><title>Node1&#45;&gt;Node2</title>
<path fill="none" stroke="midnightblue" d="M143.232,-67C151.59,-67 160.2,-67 168.766,-67"/>
<polygon fill="midnightblue" stroke="midnightblue" points="168.785,-70.5001 178.785,-67 168.784,-63.5001 168.785,-70.5001"/>
</g>
<!-- Node3 -->
<g id="node3" class="node"><title>Node3</title>
<g id="a_node3"><a xlink:href="../../d2/dc9/group__CIP__API.html#ga1eb3004bbf086b276500e1d6e7a2f677" target="_top" xlink:title="Calculates Byte&#45;Index of Attribute. ">
<polygon fill="none" stroke="black" points="399,-132.5 399,-151.5 481,-151.5 481,-132.5 399,-132.5"/>
<text text-anchor="middle" x="440" y="-139.5" font-family="Helvetica,sans-Serif" font-size="10.00">CalculateIndex</text>
</a>
</g>
</g>
<!-- Node2&#45;&gt;Node3 -->
<g id="edge2" class="edge"><title>Node2&#45;&gt;Node3</title>
<path fill="none" stroke="midnightblue" d="M276.93,-76.6898C299.022,-88.697 338.509,-109.25 374,-123 379.899,-125.286 386.191,-127.45 392.449,-129.443"/>
<polygon fill="midnightblue" stroke="midnightblue" points="391.607,-132.846 402.194,-132.426 393.656,-126.152 391.607,-132.846"/>
</g>
<!-- Node4 -->
<g id="node4" class="node"><title>Node4</title>
<g id="a_node4"><a xlink:href="../../d2/dc9/group__CIP__API.html#gaece1b7dd2aeec306cb33b86b2ee21980" target="_top" xlink:title="Produce the data according to CIP encoding onto the message buffer. ">
<polygon fill="none" stroke="black" points="404.5,-76.5 404.5,-95.5 475.5,-95.5 475.5,-76.5 404.5,-76.5"/>
<text text-anchor="middle" x="440" y="-83.5" font-family="Helvetica,sans-Serif" font-size="10.00">EncodeData</text>
</a>
</g>
</g>
<!-- Node2&#45;&gt;Node4 -->
<g id="edge3" class="edge"><title>Node2&#45;&gt;Node4</title>
<path fill="none" stroke="midnightblue" d="M338.231,-75.3337C357.421,-77.3649 377.293,-79.4684 394.267,-81.265"/>
<polygon fill="midnightblue" stroke="midnightblue" points="394.116,-84.7685 404.429,-82.3407 394.853,-77.8074 394.116,-84.7685"/>
</g>
<!-- Node9 -->
<g id="node9" class="node"><title>Node9</title>
<g id="a_node9"><a xlink:href="../../d2/dc9/group__CIP__API.html#ga5a14c8d76acacb09312b709bb0a76265" target="_top" xlink:title="Get a pointer to an instance&#39;s attribute. ">
<polygon fill="none" stroke="black" points="398,-38.5 398,-57.5 482,-57.5 482,-38.5 398,-38.5"/>
<text text-anchor="middle" x="440" y="-45.5" font-family="Helvetica,sans-Serif" font-size="10.00">GetCipAttribute</text>
</a>
</g>
</g>
<!-- Node2&#45;&gt;Node9 -->
<g id="edge10" class="edge"><title>Node2&#45;&gt;Node9</title>
<path fill="none" stroke="midnightblue" d="M338.231,-58.6663C354.916,-56.9002 372.117,-55.0796 387.48,-53.4534"/>
<polygon fill="midnightblue" stroke="midnightblue" points="388.217,-56.895 397.793,-52.3618 387.48,-49.9339 388.217,-56.895"/>
</g>
<!-- Node10 -->
<g id="node10" class="node"><title>Node10</title>
<g id="a_node10"><a xlink:href="../../d5/dc5/group__CIP__CALLBACK__API.html#ga098272a8ae10facf3086c5c82a0080db" target="_top" xlink:title="Inform the application that the data of an assembly object will be sent. ">
<polygon fill="none" stroke="black" points="374,-0.5 374,-19.5 506,-19.5 506,-0.5 374,-0.5"/>
<text text-anchor="middle" x="440" y="-7.5" font-family="Helvetica,sans-Serif" font-size="10.00">BeforeAssemblyDataSend</text>
</a>
</g>
</g>
<!-- Node2&#45;&gt;Node10 -->
<g id="edge11" class="edge"><title>Node2&#45;&gt;Node10</title>
<path fill="none" stroke="midnightblue" d="M287.641,-57.3462C310.763,-49.4901 344.409,-38.232 374,-29 381.022,-26.8094 388.493,-24.5547 395.776,-22.3981"/>
<polygon fill="midnightblue" stroke="midnightblue" points="396.921,-25.7098 405.529,-19.5334 394.948,-18.9935 396.921,-25.7098"/>
</g>
<!-- Node4&#45;&gt;Node4 -->
<g id="edge9" class="edge"><title>Node4&#45;&gt;Node4</title>
<path fill="none" stroke="midnightblue" d="M416.572,-95.7571C405.175,-104.565 412.984,-114 440,-114 457.729,-114 467.186,-109.937 468.372,-104.654"/>
<polygon fill="midnightblue" stroke="midnightblue" points="471.345,-102.797 463.428,-95.7571 465.226,-106.198 471.345,-102.797"/>
</g>
<!-- Node5 -->
<g id="node5" class="node"><title>Node5</title>
<g id="a_node5"><a xlink:href="../../d4/d91/group__ENCAP.html#gae267a8684cc6ee1b3bd83df03260b7aa" target="_top" xlink:title="converts UINT8 data from host to little endian an writes it to buffer. ">
<polygon fill="none" stroke="black" points="542.5,-133.5 542.5,-152.5 644.5,-152.5 644.5,-133.5 542.5,-133.5"/>
<text text-anchor="middle" x="593.5" y="-140.5" font-family="Helvetica,sans-Serif" font-size="10.00">AddSintToMessage</text>
</a>
</g>
</g>
<!-- Node4&#45;&gt;Node5 -->
<g id="edge4" class="edge"><title>Node4&#45;&gt;Node5</title>
<path fill="none" stroke="midnightblue" d="M466.358,-95.5405C491.374,-104.953 529.81,-119.414 557.681,-129.9"/>
<polygon fill="midnightblue" stroke="midnightblue" points="556.468,-133.183 567.06,-133.428 558.933,-126.631 556.468,-133.183"/>
</g>
<!-- Node6 -->
<g id="node6" class="node"><title>Node6</title>
<g id="a_node6"><a xlink:href="../../d4/d91/group__ENCAP.html#gae689aac2a85bf49fb356ec94c8800799" target="_top" xlink:title="converts UINT16 data from host to little endian an writes it to buffer. ">
<polygon fill="none" stroke="black" points="681,-57.5 681,-76.5 777,-76.5 777,-57.5 681,-57.5"/>
<text text-anchor="middle" x="729" y="-64.5" font-family="Helvetica,sans-Serif" font-size="10.00">AddIntToMessage</text>
</a>
</g>
</g>
<!-- Node4&#45;&gt;Node6 -->
<g id="edge5" class="edge"><title>Node4&#45;&gt;Node6</title>
<path fill="none" stroke="midnightblue" d="M475.785,-88.3683C516.497,-90.593 585.876,-92.6808 645,-86 657.981,-84.5332 671.891,-81.8148 684.542,-78.8838"/>
<polygon fill="midnightblue" stroke="midnightblue" points="685.477,-82.2585 694.375,-76.5074 683.833,-75.4544 685.477,-82.2585"/>
</g>
<!-- Node7 -->
<g id="node7" class="node"><title>Node7</title>
<g id="a_node7"><a xlink:href="../../d4/d91/group__ENCAP.html#gaafc3c9e3ff582c9b7e438ae2b1fdf822" target="_top" xlink:title="Converts UINT32 data from host to little endian and writes it to buffer. ">
<polygon fill="none" stroke="black" points="542,-57.5 542,-76.5 645,-76.5 645,-57.5 542,-57.5"/>
<text text-anchor="middle" x="593.5" y="-64.5" font-family="Helvetica,sans-Serif" font-size="10.00">AddDintToMessage</text>
</a>
</g>
</g>
<!-- Node4&#45;&gt;Node7 -->
<g id="edge6" class="edge"><title>Node4&#45;&gt;Node7</title>
<path fill="none" stroke="midnightblue" d="M475.757,-81.641C492.345,-79.5608 512.685,-77.0099 531.713,-74.6235"/>
<polygon fill="midnightblue" stroke="midnightblue" points="532.329,-78.0737 541.816,-73.3564 531.458,-71.1281 532.329,-78.0737"/>
</g>
<!-- Node8 -->
<g id="node8" class="node"><title>Node8</title>
<g id="a_node8"><a xlink:href="../../d2/d3d/cipcommon_8c.html#a6eec1752e2cffbbab16bff95fa145bd3" target="_top" xlink:title="EncodeEPath">
<polygon fill="none" stroke="black" points="555,-19.5 555,-38.5 632,-38.5 632,-19.5 555,-19.5"/>
<text text-anchor="middle" x="593.5" y="-26.5" font-family="Helvetica,sans-Serif" font-size="10.00">EncodeEPath</text>
</a>
</g>
</g>
<!-- Node4&#45;&gt;Node8 -->
<g id="edge7" class="edge"><title>Node4&#45;&gt;Node8</title>
<path fill="none" stroke="midnightblue" d="M475.513,-77.3095C485.491,-74.4235 496.302,-70.9298 506,-67 522.767,-60.2054 525.501,-55.4223 542,-48 546.413,-46.0148 551.101,-44.0572 555.774,-42.1968"/>
<polygon fill="midnightblue" stroke="midnightblue" points="557.182,-45.4047 565.25,-38.5371 554.661,-38.8748 557.182,-45.4047"/>
</g>
<!-- Node8&#45;&gt;Node6 -->
<g id="edge8" class="edge"><title>Node8&#45;&gt;Node6</title>
<path fill="none" stroke="midnightblue" d="M628.188,-38.589C645.263,-43.4494 666.2,-49.4091 684.482,-54.6127"/>
<polygon fill="midnightblue" stroke="midnightblue" points="683.747,-58.0426 694.323,-57.4141 685.663,-51.31 683.747,-58.0426"/>
</g>
</g>
</svg>
        <g id="navigator" transform="translate(0 0)" fill="#404254">
                <rect fill="#f2f5e9" fill-opacity="0.5" stroke="#606060" stroke-width=".5" x="0" y="0" width="60" height="60"/>
                <use id="zoomplus" xlink:href="#zoomPlus" x="17" y="9" onmousedown="handleZoom(evt,'in')"/>
                <use id="zoomminus" xlink:href="#zoomMin" x="42" y="9" onmousedown="handleZoom(evt,'out')"/>
                <use id="reset" xlink:href="#resetDef" x="30" y="36" onmousedown="handleReset()"/>
                <g id="arrowUp" xlink:href="#dirArrow" transform="translate(30 24)" onmousedown="handlePan(0,-1)">
                  <use xlink:href="#rim" fill="#404040">
                        <set attributeName="fill" to="#808080" begin="arrowUp.mouseover" end="arrowUp.mouseout"/>
                  </use>
                  <path fill="none" stroke="white" stroke-width="1.5" d="M0,-3.0v7 M-2.5,-0.5L0,-3.0L2.5,-0.5"/>
                </g>
                <g id="arrowRight" xlink:href="#dirArrow" transform="rotate(90) translate(36 -43)" onmousedown="handlePan(1,0)">
                  <use xlink:href="#rim" fill="#404040">
                        <set attributeName="fill" to="#808080" begin="arrowRight.mouseover" end="arrowRight.mouseout"/>
                  </use>
                  <path fill="none" stroke="white" stroke-width="1.5" d="M0,-3.0v7 M-2.5,-0.5L0,-3.0L2.5,-0.5"/>
                </g>
                <g id="arrowDown" xlink:href="#dirArrow" transform="rotate(180) translate(-30 -48)" onmousedown="handlePan(0,1)">
                  <use xlink:href="#rim" fill="#404040">
                        <set attributeName="fill" to="#808080" begin="arrowDown.mouseover" end="arrowDown.mouseout"/>
                  </use>
                  <path fill="none" stroke="white" stroke-width="1.5" d="M0,-3.0v7 M-2.5,-0.5L0,-3.0L2.5,-0.5"/>
                </g>
                <g id="arrowLeft" xlink:href="#dirArrow" transform="rotate(270) translate(-36 17)" onmousedown="handlePan(-1,0)">
                  <use xlink:href="#rim" fill="#404040">
                        <set attributeName="fill" to="#808080" begin="arrowLeft.mouseover" end="arrowLeft.mouseout"/>
                  </use>
                  <path fill="none" stroke="white" stroke-width="1.5" d="M0,-3.0v7 M-2.5,-0.5L0,-3.0L2.5,-0.5"/>
                </g>
        </g>
        <svg viewBox="0 0 15 15" width="100%" height="30px" preserveAspectRatio="xMaxYMin meet">
         <g id="arrow_out" transform="scale(0.3 0.3)">
          <a xlink:href="ciptcpipinterface_8c_ac5a74c6d9822446c5b7beeb949c93b11_cgraph_org.svg" target="_base">
           <rect id="button" ry="5" rx="5" y="6" x="6" height="38" width="38"
                fill="#f2f5e9" fill-opacity="0.5" stroke="#606060" stroke-width="1.0"/>
           <path id="arrow"
             d="M 11.500037,31.436501 C 11.940474,20.09759 22.043105,11.32322 32.158766,21.979434 L 37.068811,17.246167 C 37.068811,17.246167 37.088388,32 37.088388,32 L 22.160133,31.978069 C 22.160133,31.978069 26.997745,27.140456 26.997745,27.140456 C 18.528582,18.264221 13.291696,25.230495 11.500037,31.436501 z"
             style="fill:#404040;"/>
          </a>
         </g>
        </svg>
</svg>
