<?xml version="1.0" encoding="UTF-8" standalone="no"?>
<!DOCTYPE svg PUBLIC "-//W3C//DTD SVG 1.1//EN"
 "http://www.w3.org/Graphics/SVG/1.1/DTD/svg11.dtd">
<!-- Generated by graphviz version 2.38.0 (20140413.2041)
 -->
<!-- Title: GetAttributeSingleTcpIpInterface Pages: 1 -->
<svg width="606pt" height="179pt"
 viewBox="0.00 0.00 606.00 179.00" xmlns="http://www.w3.org/2000/svg" xmlns:xlink="http://www.w3.org/1999/xlink">
<g id="graph0" class="graph" transform="scale(1 1) rotate(0) translate(4 175)">
<title>GetAttributeSingleTcpIpInterface</title>
<!-- Node1 -->
<g id="node1" class="node"><title>Node1</title>
<polygon fill="#bfbfbf" stroke="black" points="0,-85.5 0,-104.5 159,-104.5 159,-85.5 0,-85.5"/>
<text text-anchor="middle" x="79.5" y="-92.5" font-family="Helvetica,sans-Serif" font-size="10.00">GetAttributeSingleTcpIpInterface</text>
</g>
<!-- Node2 -->
<g id="node2" class="node"><title>Node2</title>
<g id="a_node2"><a xlink:href="../../d5/dc5/group__CIP__CALLBACK__API.html#ga098272a8ae10facf3086c5c82a0080db" target="_top" xlink:title="Inform the application that the data of an assembly object will be sent. ">
<polygon fill="none" stroke="black" points="195,-151.5 195,-170.5 327,-170.5 327,-151.5 195,-151.5"/>
<text text-anchor="middle" x="261" y="-158.5" font-family="Helvetica,sans-Serif" font-size="10.00">BeforeAssemblyDataSend</text>
</a>
</g>
</g>
<!-- Node1&#45;&gt;Node2 -->
<g id="edge1" class="edge"><title>Node1&#45;&gt;Node2</title>
<path fill="none" stroke="midnightblue" d="M101.766,-104.517C124.563,-114.532 161.944,-130.42 195,-142 201.411,-144.246 208.24,-146.446 214.971,-148.506"/>
<polygon fill="midnightblue" stroke="midnightblue" points="214.119,-151.905 224.702,-151.414 216.123,-145.198 214.119,-151.905"/>
</g>
<!-- Node3 -->
<g id="node3" class="node"><title>Node3</title>
<g id="a_node3"><a xlink:href="../../d2/dc9/group__CIP__API.html#ga1eb3004bbf086b276500e1d6e7a2f677" target="_top" xlink:title="Calculates Byte&#45;Index of Attribute. ">
<polygon fill="none" stroke="black" points="220,-113.5 220,-132.5 302,-132.5 302,-113.5 220,-113.5"/>
<text text-anchor="middle" x="261" y="-120.5" font-family="Helvetica,sans-Serif" font-size="10.00">CalculateIndex</text>
</a>
</g>
</g>
<!-- Node1&#45;&gt;Node3 -->
<g id="edge2" class="edge"><title>Node1&#45;&gt;Node3</title>
<path fill="none" stroke="midnightblue" d="M141.521,-104.519C163.706,-107.979 188.509,-111.848 209.666,-115.148"/>
<polygon fill="midnightblue" stroke="midnightblue" points="209.312,-118.635 219.732,-116.719 210.39,-111.719 209.312,-118.635"/>
</g>
<!-- Node4 -->
<g id="node4" class="node"><title>Node4</title>
<g id="a_node4"><a xlink:href="../../d2/dc9/group__CIP__API.html#gaece1b7dd2aeec306cb33b86b2ee21980" target="_top" xlink:title="Produce the data according to CIP encoding onto the message buffer. ">
<polygon fill="none" stroke="black" points="225.5,-57.5 225.5,-76.5 296.5,-76.5 296.5,-57.5 225.5,-57.5"/>
<text text-anchor="middle" x="261" y="-64.5" font-family="Helvetica,sans-Serif" font-size="10.00">EncodeData</text>
</a>
</g>
</g>
<!-- Node1&#45;&gt;Node4 -->
<g id="edge3" class="edge"><title>Node1&#45;&gt;Node4</title>
<path fill="none" stroke="midnightblue" d="M141.521,-85.4814C165.649,-81.7176 192.875,-77.4708 215.138,-73.998"/>
<polygon fill="midnightblue" stroke="midnightblue" points="215.969,-77.4108 225.31,-72.4113 214.89,-70.4945 215.969,-77.4108"/>
</g>
<!-- Node9 -->
<g id="node9" class="node"><title>Node9</title>
<g id="a_node9"><a xlink:href="../../d2/dc9/group__CIP__API.html#ga5a14c8d76acacb09312b709bb0a76265" target="_top" xlink:title="Get a pointer to an instance&#39;s attribute. ">
<polygon fill="none" stroke="black" points="219,-19.5 219,-38.5 303,-38.5 303,-19.5 219,-19.5"/>
<text text-anchor="middle" x="261" y="-26.5" font-family="Helvetica,sans-Serif" font-size="10.00">GetCipAttribute</text>
</a>
</g>
</g>
<!-- Node1&#45;&gt;Node9 -->
<g id="edge10" class="edge"><title>Node1&#45;&gt;Node9</title>
<path fill="none" stroke="midnightblue" d="M101.766,-85.4831C124.563,-75.4677 161.944,-59.5797 195,-48 201.411,-45.7541 208.24,-43.5541 214.971,-41.4937"/>
<polygon fill="midnightblue" stroke="midnightblue" points="216.123,-44.8024 224.702,-38.5857 214.119,-38.0954 216.123,-44.8024"/>
</g>
<!-- Node4&#45;&gt;Node4 -->
<g id="edge9" class="edge"><title>Node4&#45;&gt;Node4</title>
<path fill="none" stroke="midnightblue" d="M237.572,-76.7571C226.175,-85.5653 233.984,-95 261,-95 278.729,-95 288.186,-90.9368 289.372,-85.6539"/>
<polygon fill="midnightblue" stroke="midnightblue" points="292.345,-83.7974 284.428,-76.7571 286.226,-87.1981 292.345,-83.7974"/>
</g>
<!-- Node5 -->
<g id="node5" class="node"><title>Node5</title>
<g id="a_node5"><a xlink:href="../../d4/d91/group__ENCAP.html#gae267a8684cc6ee1b3bd83df03260b7aa" target="_top" xlink:title="converts UINT8 data from host to little endian an writes it to buffer. ">
<polygon fill="none" stroke="black" points="363.5,-114.5 363.5,-133.5 465.5,-133.5 465.5,-114.5 363.5,-114.5"/>
<text text-anchor="middle" x="414.5" y="-121.5" font-family="Helvetica,sans-Serif" font-size="10.00">AddSintToMessage</text>
</a>
</g>
</g>
<!-- Node4&#45;&gt;Node5 -->
<g id="edge4" class="edge"><title>Node4&#45;&gt;Node5</title>
<path fill="none" stroke="midnightblue" d="M287.358,-76.5405C312.374,-85.9527 350.81,-100.414 378.681,-110.9"/>
<polygon fill="midnightblue" stroke="midnightblue" points="377.468,-114.183 388.06,-114.428 379.933,-107.631 377.468,-114.183"/>
</g>
<!-- Node6 -->
<g id="node6" class="node"><title>Node6</title>
<g id="a_node6"><a xlink:href="../../d4/d91/group__ENCAP.html#gae689aac2a85bf49fb356ec94c8800799" target="_top" xlink:title="converts UINT16 data from host to little endian an writes it to buffer. ">
<polygon fill="none" stroke="black" points="502,-38.5 502,-57.5 598,-57.5 598,-38.5 502,-38.5"/>
<text text-anchor="middle" x="550" y="-45.5" font-family="Helvetica,sans-Serif" font-size="10.00">AddIntToMessage</text>
</a>
</g>
</g>
<!-- Node4&#45;&gt;Node6 -->
<g id="edge5" class="edge"><title>Node4&#45;&gt;Node6</title>
<path fill="none" stroke="midnightblue" d="M296.785,-69.3683C337.497,-71.593 406.876,-73.6808 466,-67 478.981,-65.5332 492.891,-62.8148 505.542,-59.8838"/>
<polygon fill="midnightblue" stroke="midnightblue" points="506.477,-63.2585 515.375,-57.5074 504.833,-56.4544 506.477,-63.2585"/>
</g>
<!-- Node7 -->
<g id="node7" class="node"><title>Node7</title>
<g id="a_node7"><a xlink:href="../../d4/d91/group__ENCAP.html#gaafc3c9e3ff582c9b7e438ae2b1fdf822" target="_top" xlink:title="Converts UINT32 data from host to little endian and writes it to buffer. ">
<polygon fill="none" stroke="black" points="363,-38.5 363,-57.5 466,-57.5 466,-38.5 363,-38.5"/>
<text text-anchor="middle" x="414.5" y="-45.5" font-family="Helvetica,sans-Serif" font-size="10.00">AddDintToMessage</text>
</a>
</g>
</g>
<!-- Node4&#45;&gt;Node7 -->
<g id="edge6" class="edge"><title>Node4&#45;&gt;Node7</title>
<path fill="none" stroke="midnightblue" d="M296.757,-62.641C313.345,-60.5608 333.685,-58.0099 352.713,-55.6235"/>
<polygon fill="midnightblue" stroke="midnightblue" points="353.329,-59.0737 362.816,-54.3564 352.458,-52.1281 353.329,-59.0737"/>
</g>
<!-- Node8 -->
<g id="node8" class="node"><title>Node8</title>
<g id="a_node8"><a xlink:href="../../d2/d3d/cipcommon_8c.html#a6eec1752e2cffbbab16bff95fa145bd3" target="_top" xlink:title="EncodeEPath">
<polygon fill="none" stroke="black" points="376,-0.5 376,-19.5 453,-19.5 453,-0.5 376,-0.5"/>
<text text-anchor="middle" x="414.5" y="-7.5" font-family="Helvetica,sans-Serif" font-size="10.00">EncodeEPath</text>
</a>
</g>
</g>
<!-- Node4&#45;&gt;Node8 -->
<g id="edge7" class="edge"><title>Node4&#45;&gt;Node8</title>
<path fill="none" stroke="midnightblue" d="M296.513,-58.3095C306.491,-55.4235 317.302,-51.9298 327,-48 343.767,-41.2054 346.501,-36.4223 363,-29 367.413,-27.0148 372.101,-25.0572 376.774,-23.1968"/>
<polygon fill="midnightblue" stroke="midnightblue" points="378.182,-26.4047 386.25,-19.5371 375.661,-19.8748 378.182,-26.4047"/>
</g>
<!-- Node8&#45;&gt;Node6 -->
<g id="edge8" class="edge"><title>Node8&#45;&gt;Node6</title>
<path fill="none" stroke="midnightblue" d="M449.188,-19.589C466.263,-24.4494 487.2,-30.4091 505.482,-35.6127"/>
<polygon fill="midnightblue" stroke="midnightblue" points="504.747,-39.0426 515.323,-38.4141 506.663,-32.31 504.747,-39.0426"/>
</g>
</g>
</svg>
