<?xml version="1.0" encoding="UTF-8" standalone="no"?>
<!DOCTYPE svg PUBLIC "-//W3C//DTD SVG 1.1//EN"
 "http://www.w3.org/Graphics/SVG/1.1/DTD/svg11.dtd">
<!-- Generated by graphviz version 2.38.0 (20140413.2041)
 -->
<!-- Title: GetAttributeSingleTcpIpInterface Pages: 1 -->
<svg width="558pt" height="142pt"
 viewBox="0.00 0.00 558.00 142.00" xmlns="http://www.w3.org/2000/svg" xmlns:xlink="http://www.w3.org/1999/xlink">
<g id="graph0" class="graph" transform="scale(1 1) rotate(0) translate(4 138)">
<title>GetAttributeSingleTcpIpInterface</title>
<!-- Node1 -->
<g id="node1" class="node"><title>Node1</title>
<polygon fill="#bfbfbf" stroke="black" points="0,-57.5 0,-76.5 159,-76.5 159,-57.5 0,-57.5"/>
<text text-anchor="middle" x="79.5" y="-64.5" font-family="Helvetica,sans-Serif" font-size="10.00">GetAttributeSingleTcpIpInterface</text>
</g>
<!-- Node2 -->
<g id="node2" class="node"><title>Node2</title>
<g id="a_node2"><a xlink:href="../../d2/dc9/group__CIP__API.html#ga1eb3004bbf086b276500e1d6e7a2f677" target="_top" xlink:title="Calculates Byte&#45;Index of Attribute. ">
<polygon fill="none" stroke="black" points="196,-113.5 196,-132.5 278,-132.5 278,-113.5 196,-113.5"/>
<text text-anchor="middle" x="237" y="-120.5" font-family="Helvetica,sans-Serif" font-size="10.00">CalculateIndex</text>
</a>
</g>
</g>
<!-- Node1&#45;&gt;Node2 -->
<g id="edge1" class="edge"><title>Node1&#45;&gt;Node2</title>
<path fill="none" stroke="midnightblue" d="M107.231,-76.6267C132.865,-85.8581 171.745,-99.8598 200.075,-110.063"/>
<polygon fill="midnightblue" stroke="midnightblue" points="199.023,-113.404 209.617,-113.499 201.395,-106.818 199.023,-113.404"/>
</g>
<!-- Node3 -->
<g id="node3" class="node"><title>Node3</title>
<g id="a_node3"><a xlink:href="../../d2/dc9/group__CIP__API.html#gaece1b7dd2aeec306cb33b86b2ee21980" target="_top" xlink:title="Produce the data according to CIP encoding onto the message buffer. ">
<polygon fill="none" stroke="black" points="201.5,-57.5 201.5,-76.5 272.5,-76.5 272.5,-57.5 201.5,-57.5"/>
<text text-anchor="middle" x="237" y="-64.5" font-family="Helvetica,sans-Serif" font-size="10.00">EncodeData</text>
</a>
</g>
</g>
<!-- Node1&#45;&gt;Node3 -->
<g id="edge2" class="edge"><title>Node1&#45;&gt;Node3</title>
<path fill="none" stroke="midnightblue" d="M159.161,-67C170.119,-67 181.053,-67 191.092,-67"/>
<polygon fill="midnightblue" stroke="midnightblue" points="191.194,-70.5001 201.194,-67 191.193,-63.5001 191.194,-70.5001"/>
</g>
<!-- Node8 -->
<g id="node8" class="node"><title>Node8</title>
<g id="a_node8"><a xlink:href="../../d2/dc9/group__CIP__API.html#ga5a14c8d76acacb09312b709bb0a76265" target="_top" xlink:title="Get a pointer to an instance&#39;s attribute. ">
<polygon fill="none" stroke="black" points="195,-19.5 195,-38.5 279,-38.5 279,-19.5 195,-19.5"/>
<text text-anchor="middle" x="237" y="-26.5" font-family="Helvetica,sans-Serif" font-size="10.00">GetCipAttribute</text>
</a>
</g>
</g>
<!-- Node1&#45;&gt;Node8 -->
<g id="edge9" class="edge"><title>Node1&#45;&gt;Node8</title>
<path fill="none" stroke="midnightblue" d="M119.739,-57.411C140.259,-52.3965 165.567,-46.2119 187.325,-40.8947"/>
<polygon fill="midnightblue" stroke="midnightblue" points="188.16,-44.294 197.043,-38.5201 186.498,-37.494 188.16,-44.294"/>
</g>
<!-- Node3&#45;&gt;Node3 -->
<g id="edge8" class="edge"><title>Node3&#45;&gt;Node3</title>
<path fill="none" stroke="midnightblue" d="M217.271,-76.7571C207.674,-85.5653 214.25,-95 237,-95 251.574,-95 259.511,-91.128 260.809,-86.0292"/>
<polygon fill="midnightblue" stroke="midnightblue" points="263.96,-84.4998 256.729,-76.7571 257.553,-87.3197 263.96,-84.4998"/>
</g>
<!-- Node4 -->
<g id="node4" class="node"><title>Node4</title>
<g id="a_node4"><a xlink:href="../../d4/d91/group__ENCAP.html#gae267a8684cc6ee1b3bd83df03260b7aa" target="_top" xlink:title="converts UINT8 data from host to little endian an writes it to buffer. ">
<polygon fill="none" stroke="black" points="315.5,-114.5 315.5,-133.5 417.5,-133.5 417.5,-114.5 315.5,-114.5"/>
<text text-anchor="middle" x="366.5" y="-121.5" font-family="Helvetica,sans-Serif" font-size="10.00">AddSintToMessage</text>
</a>
</g>
</g>
<!-- Node3&#45;&gt;Node4 -->
<g id="edge3" class="edge"><title>Node3&#45;&gt;Node4</title>
<path fill="none" stroke="midnightblue" d="M259.341,-76.5405C280.026,-85.7883 311.615,-99.9102 334.96,-110.347"/>
<polygon fill="midnightblue" stroke="midnightblue" points="333.532,-113.542 344.09,-114.428 336.389,-107.152 333.532,-113.542"/>
</g>
<!-- Node5 -->
<g id="node5" class="node"><title>Node5</title>
<g id="a_node5"><a xlink:href="../../d4/d91/group__ENCAP.html#gae689aac2a85bf49fb356ec94c8800799" target="_top" xlink:title="converts UINT16 data from host to little endian an writes it to buffer. ">
<polygon fill="none" stroke="black" points="454,-38.5 454,-57.5 550,-57.5 550,-38.5 454,-38.5"/>
<text text-anchor="middle" x="502" y="-45.5" font-family="Helvetica,sans-Serif" font-size="10.00">AddIntToMessage</text>
</a>
</g>
</g>
<!-- Node3&#45;&gt;Node5 -->
<g id="edge4" class="edge"><title>Node3&#45;&gt;Node5</title>
<path fill="none" stroke="midnightblue" d="M272.637,-69.2992C308.976,-71.1744 367.695,-72.6843 418,-67 430.981,-65.5332 444.891,-62.8148 457.542,-59.8838"/>
<polygon fill="midnightblue" stroke="midnightblue" points="458.477,-63.2585 467.375,-57.5074 456.833,-56.4544 458.477,-63.2585"/>
</g>
<!-- Node6 -->
<g id="node6" class="node"><title>Node6</title>
<g id="a_node6"><a xlink:href="../../d4/d91/group__ENCAP.html#gaafc3c9e3ff582c9b7e438ae2b1fdf822" target="_top" xlink:title="Converts UINT32 data from host to little endian and writes it to buffer. ">
<polygon fill="none" stroke="black" points="315,-38.5 315,-57.5 418,-57.5 418,-38.5 315,-38.5"/>
<text text-anchor="middle" x="366.5" y="-45.5" font-family="Helvetica,sans-Serif" font-size="10.00">AddDintToMessage</text>
</a>
</g>
</g>
<!-- Node3&#45;&gt;Node6 -->
<g id="edge5" class="edge"><title>Node3&#45;&gt;Node6</title>
<path fill="none" stroke="midnightblue" d="M272.503,-61.8583C282.441,-60.3774 293.589,-58.7161 304.623,-57.0719"/>
<polygon fill="midnightblue" stroke="midnightblue" points="305.31,-60.5082 314.685,-55.5724 304.278,-53.5847 305.31,-60.5082"/>
</g>
<!-- Node7 -->
<g id="node7" class="node"><title>Node7</title>
<g id="a_node7"><a xlink:href="../../d2/d3d/cipcommon_8c.html#a6eec1752e2cffbbab16bff95fa145bd3" target="_top" xlink:title="EncodeEPath">
<polygon fill="none" stroke="black" points="328,-0.5 328,-19.5 405,-19.5 405,-0.5 328,-0.5"/>
<text text-anchor="middle" x="366.5" y="-7.5" font-family="Helvetica,sans-Serif" font-size="10.00">EncodeEPath</text>
</a>
</g>
</g>
<!-- Node3&#45;&gt;Node7 -->
<g id="edge6" class="edge"><title>Node3&#45;&gt;Node7</title>
<path fill="none" stroke="midnightblue" d="M259.379,-57.3461C265.727,-54.4118 272.673,-51.1332 279,-48 295.213,-39.9717 298.501,-36.4223 315,-29 319.413,-27.0148 324.101,-25.0572 328.774,-23.1968"/>
<polygon fill="midnightblue" stroke="midnightblue" points="330.182,-26.4047 338.25,-19.5371 327.661,-19.8748 330.182,-26.4047"/>
</g>
<!-- Node7&#45;&gt;Node5 -->
<g id="edge7" class="edge"><title>Node7&#45;&gt;Node5</title>
<path fill="none" stroke="midnightblue" d="M401.188,-19.589C418.263,-24.4494 439.2,-30.4091 457.482,-35.6127"/>
<polygon fill="midnightblue" stroke="midnightblue" points="456.747,-39.0426 467.323,-38.4141 458.663,-32.31 456.747,-39.0426"/>
</g>
</g>
</svg>
