<?xml version="1.0" encoding="UTF-8" standalone="no"?>
<!DOCTYPE svg PUBLIC "-//W3C//DTD SVG 1.1//EN"
 "http://www.w3.org/Graphics/SVG/1.1/DTD/svg11.dtd">
<!-- Generated by graphviz version 2.38.0 (20140413.2041)
 -->
<!-- Title: CloseAllConnections Pages: 1 -->
<svg width="682pt" height="66pt"
 viewBox="0.00 0.00 682.00 66.00" xmlns="http://www.w3.org/2000/svg" xmlns:xlink="http://www.w3.org/1999/xlink">
<g id="graph0" class="graph" transform="scale(1 1) rotate(0) translate(4 62)">
<title>CloseAllConnections</title>
<!-- Node1 -->
<g id="node1" class="node"><title>Node1</title>
<polygon fill="#bfbfbf" stroke="black" points="0,-19.5 0,-38.5 108,-38.5 108,-19.5 0,-19.5"/>
<text text-anchor="middle" x="54" y="-26.5" font-family="Helvetica,sans-Serif" font-size="10.00">CloseAllConnections</text>
</g>
<!-- Node2 -->
<g id="node2" class="node"><title>Node2</title>
<g id="a_node2"><a xlink:href="../../d5/dc5/group__CIP__CALLBACK__API.html#gacfb8706d76bc6fe1816546e122fdcac2" target="_top" xlink:title="Emulate as close a possible a power cycle of the device. ">
<polygon fill="none" stroke="black" points="157.5,-38.5 157.5,-57.5 231.5,-57.5 231.5,-38.5 157.5,-38.5"/>
<text text-anchor="middle" x="194.5" y="-45.5" font-family="Helvetica,sans-Serif" font-size="10.00">ResetDevice</text>
</a>
</g>
</g>
<!-- Node1&#45;&gt;Node2 -->
<g id="edge1" class="edge"><title>Node1&#45;&gt;Node2</title>
<path fill="none" stroke="midnightblue" d="M118.318,-37.6863C131.733,-39.5266 145.448,-41.408 157.427,-43.0514"/>
<polygon fill="midnightblue" stroke="midnightblue" points="118.535,-34.1832 108.152,-36.2916 117.583,-41.1183 118.535,-34.1832"/>
</g>
<!-- Node4 -->
<g id="node4" class="node"><title>Node4</title>
<g id="a_node4"><a xlink:href="../../d2/dc9/group__CIP__API.html#gaa57b527530adc2acda6febc500fd6831" target="_top" xlink:title="Shutdown of the CIP stack. ">
<polygon fill="none" stroke="black" points="144,-0.5 144,-19.5 245,-19.5 245,-0.5 144,-0.5"/>
<text text-anchor="middle" x="194.5" y="-7.5" font-family="Helvetica,sans-Serif" font-size="10.00">ShutdownCipStack</text>
</a>
</g>
</g>
<!-- Node1&#45;&gt;Node4 -->
<g id="edge3" class="edge"><title>Node1&#45;&gt;Node4</title>
<path fill="none" stroke="midnightblue" d="M118.187,-20.3318C126.812,-19.1485 135.564,-17.9479 143.902,-16.8041"/>
<polygon fill="midnightblue" stroke="midnightblue" points="117.583,-16.8817 108.152,-21.7084 118.535,-23.8168 117.583,-16.8817"/>
</g>
<!-- Node3 -->
<g id="node3" class="node"><title>Node3</title>
<g id="a_node3"><a xlink:href="../../d5/dc5/group__CIP__CALLBACK__API.html#gabec9a29cf19789a6534814680c21f6e7" target="_top" xlink:title="Reset the device to the initial configuration and emulate as close as possible a power cycle of the d...">
<polygon fill="none" stroke="black" points="281,-38.5 281,-57.5 447,-57.5 447,-38.5 281,-38.5"/>
<text text-anchor="middle" x="364" y="-45.5" font-family="Helvetica,sans-Serif" font-size="10.00">ResetDeviceToInitialConfiguration</text>
</a>
</g>
</g>
<!-- Node2&#45;&gt;Node3 -->
<g id="edge2" class="edge"><title>Node2&#45;&gt;Node3</title>
<path fill="none" stroke="midnightblue" d="M242.052,-48C254.082,-48 267.397,-48 280.665,-48"/>
<polygon fill="midnightblue" stroke="midnightblue" points="241.845,-44.5001 231.845,-48 241.845,-51.5001 241.845,-44.5001"/>
</g>
<!-- Node5 -->
<g id="node5" class="node"><title>Node5</title>
<g id="a_node5"><a xlink:href="../../d5/dcb/MINGW_2main_8c.html#ad338a7dbc41dc40bcecd0479377ef207" target="_top" xlink:title="main">
<polygon fill="none" stroke="black" points="345,-0.5 345,-19.5 383,-19.5 383,-0.5 345,-0.5"/>
<text text-anchor="middle" x="364" y="-7.5" font-family="Helvetica,sans-Serif" font-size="10.00">main</text>
</a>
</g>
</g>
<!-- Node4&#45;&gt;Node5 -->
<g id="edge4" class="edge"><title>Node4&#45;&gt;Node5</title>
<path fill="none" stroke="midnightblue" d="M255.359,-10C286.948,-10 323.485,-10 344.838,-10"/>
<polygon fill="midnightblue" stroke="midnightblue" points="255.302,-6.5001 245.302,-10 255.302,-13.5001 255.302,-6.5001"/>
</g>
<!-- Node6 -->
<g id="node6" class="node"><title>Node6</title>
<g id="a_node6"><a xlink:href="../../d8/d03/ports_2MINGW_2CMakeLists_8txt.html#a7e00df43a20d627a1732be7766d91097" target="_top" xlink:title="add_library">
<polygon fill="none" stroke="black" points="483,-0.5 483,-19.5 547,-19.5 547,-0.5 483,-0.5"/>
<text text-anchor="middle" x="515" y="-7.5" font-family="Helvetica,sans-Serif" font-size="10.00">add_library</text>
</a>
</g>
</g>
<!-- Node5&#45;&gt;Node6 -->
<g id="edge5" class="edge"><title>Node5&#45;&gt;Node6</title>
<path fill="none" stroke="midnightblue" d="M393.43,-10C418.995,-10 456.474,-10 482.844,-10"/>
<polygon fill="midnightblue" stroke="midnightblue" points="393.27,-6.5001 383.27,-10 393.27,-13.5001 393.27,-6.5001"/>
</g>
<!-- Node7 -->
<g id="node7" class="node"><title>Node7</title>
<g id="a_node7"><a xlink:href="../../d8/dce/ports_2CMakeLists_8txt.html#a598fae457555a5fb26e18d4cd8f89de9" target="_top" xlink:title="add_subdirectory">
<polygon fill="none" stroke="black" points="583,-0.5 583,-19.5 674,-19.5 674,-0.5 583,-0.5"/>
<text text-anchor="middle" x="628.5" y="-7.5" font-family="Helvetica,sans-Serif" font-size="10.00">add_subdirectory</text>
</a>
</g>
</g>
<!-- Node6&#45;&gt;Node7 -->
<g id="edge6" class="edge"><title>Node6&#45;&gt;Node7</title>
<path fill="none" stroke="midnightblue" d="M557.3,-10C565.629,-10 574.419,-10 582.856,-10"/>
<polygon fill="midnightblue" stroke="midnightblue" points="557.059,-6.5001 547.059,-10 557.059,-13.5001 557.059,-6.5001"/>
</g>
</g>
</svg>
