<?xml version="1.0" encoding="UTF-8" standalone="no"?>
<!DOCTYPE svg PUBLIC "-//W3C//DTD SVG 1.1//EN"
 "http://www.w3.org/Graphics/SVG/1.1/DTD/svg11.dtd">
<!-- Generated by graphviz version 2.38.0 (20140413.2041)
 -->
<!-- Title: GetExclusiveOwnerConnection Pages: 1 -->
<svg width="564pt" height="104pt"
 viewBox="0.00 0.00 564.00 104.00" xmlns="http://www.w3.org/2000/svg" xmlns:xlink="http://www.w3.org/1999/xlink">
<g id="graph0" class="graph" transform="scale(1 1) rotate(0) translate(4 100)">
<title>GetExclusiveOwnerConnection</title>
<!-- Node1 -->
<g id="node1" class="node"><title>Node1</title>
<polygon fill="#bfbfbf" stroke="black" points="0,-38.5 0,-57.5 153,-57.5 153,-38.5 0,-38.5"/>
<text text-anchor="middle" x="76.5" y="-45.5" font-family="Helvetica,sans-Serif" font-size="10.00">GetExclusiveOwnerConnection</text>
</g>
<!-- Node2 -->
<g id="node2" class="node"><title>Node2</title>
<g id="a_node2"><a xlink:href="../../df/d91/cipconnectionobject_8c.html#a308afe67f0cfd50cc772ad276257d6f2" target="_top" xlink:title="ConnectionObjectEqualOriginator">
<polygon fill="none" stroke="black" points="189,-76.5 189,-95.5 350,-95.5 350,-76.5 189,-76.5"/>
<text text-anchor="middle" x="269.5" y="-83.5" font-family="Helvetica,sans-Serif" font-size="10.00">ConnectionObjectEqualOriginator</text>
</a>
</g>
</g>
<!-- Node1&#45;&gt;Node2 -->
<g id="edge1" class="edge"><title>Node1&#45;&gt;Node2</title>
<path fill="none" stroke="midnightblue" d="M125.697,-57.589C151.47,-62.7165 183.391,-69.0672 210.512,-74.4632"/>
<polygon fill="midnightblue" stroke="midnightblue" points="210.158,-77.9613 220.649,-76.4799 211.524,-71.0959 210.158,-77.9613"/>
</g>
<!-- Node3 -->
<g id="node3" class="node"><title>Node3</title>
<g id="a_node3"><a xlink:href="../../df/d91/cipconnectionobject_8c.html#a9c381240583828bec2cda2d54dc94d3b" target="_top" xlink:title="ConnectionObjectGetState">
<polygon fill="none" stroke="black" points="404,-38.5 404,-57.5 538,-57.5 538,-38.5 404,-38.5"/>
<text text-anchor="middle" x="471" y="-45.5" font-family="Helvetica,sans-Serif" font-size="10.00">ConnectionObjectGetState</text>
</a>
</g>
</g>
<!-- Node1&#45;&gt;Node3 -->
<g id="edge2" class="edge"><title>Node1&#45;&gt;Node3</title>
<path fill="none" stroke="midnightblue" d="M153.178,-48C222.254,-48 323.867,-48 393.27,-48"/>
<polygon fill="midnightblue" stroke="midnightblue" points="393.695,-51.5001 403.695,-48 393.695,-44.5001 393.695,-51.5001"/>
</g>
<!-- Node4 -->
<g id="node4" class="node"><title>Node4</title>
<g id="a_node4"><a xlink:href="../../d5/d35/cipconnectionmanager_8c.html#af9229054795bce595b5aa0385fede004" target="_top" xlink:title="GetConnectedOutputAssembly">
<polygon fill="none" stroke="black" points="193.5,-0.5 193.5,-19.5 345.5,-19.5 345.5,-0.5 193.5,-0.5"/>
<text text-anchor="middle" x="269.5" y="-7.5" font-family="Helvetica,sans-Serif" font-size="10.00">GetConnectedOutputAssembly</text>
</a>
</g>
</g>
<!-- Node1&#45;&gt;Node4 -->
<g id="edge3" class="edge"><title>Node1&#45;&gt;Node4</title>
<path fill="none" stroke="midnightblue" d="M125.697,-38.411C151.47,-33.2835 183.391,-26.9328 210.512,-21.5368"/>
<polygon fill="midnightblue" stroke="midnightblue" points="211.524,-24.9041 220.649,-19.5201 210.158,-18.0387 211.524,-24.9041"/>
</g>
<!-- Node4&#45;&gt;Node3 -->
<g id="edge5" class="edge"><title>Node4&#45;&gt;Node3</title>
<path fill="none" stroke="midnightblue" d="M320.585,-19.54C347.739,-24.7122 381.486,-31.1401 410.033,-36.5778"/>
<polygon fill="midnightblue" stroke="midnightblue" points="409.416,-40.0231 419.895,-38.4561 410.726,-33.1467 409.416,-40.0231"/>
</g>
<!-- Node5 -->
<g id="node5" class="node"><title>Node5</title>
<g id="a_node5"><a xlink:href="../../df/d91/cipconnectionobject_8c.html#a64d3a78bd3f520b632b04697bd0b2767" target="_top" xlink:title="ConnectionObjectGetInstanceType">
<polygon fill="none" stroke="black" points="386,-0.5 386,-19.5 556,-19.5 556,-0.5 386,-0.5"/>
<text text-anchor="middle" x="471" y="-7.5" font-family="Helvetica,sans-Serif" font-size="10.00">ConnectionObjectGetInstanceType</text>
</a>
</g>
</g>
<!-- Node4&#45;&gt;Node5 -->
<g id="edge4" class="edge"><title>Node4&#45;&gt;Node5</title>
<path fill="none" stroke="midnightblue" d="M345.638,-10C355.496,-10 365.696,-10 375.819,-10"/>
<polygon fill="midnightblue" stroke="midnightblue" points="375.902,-13.5001 385.902,-10 375.902,-6.5001 375.902,-13.5001"/>
</g>
</g>
</svg>
