<?xml version="1.0" encoding="UTF-8" standalone="no"?>
<!DOCTYPE svg PUBLIC "-//W3C//DTD SVG 1.1//EN"
 "http://www.w3.org/Graphics/SVG/1.1/DTD/svg11.dtd">
<!-- Generated by graphviz version 2.38.0 (20140413.2041)
 -->
<!-- Title: GetListenOnlyConnection Pages: 1 -->
<svg width="793pt" height="129pt"
 viewBox="0.00 0.00 793.00 129.00" xmlns="http://www.w3.org/2000/svg" xmlns:xlink="http://www.w3.org/1999/xlink">
<g id="graph0" class="graph" transform="scale(1 1) rotate(0) translate(4 125)">
<title>GetListenOnlyConnection</title>
<!-- Node1 -->
<g id="node1" class="node"><title>Node1</title>
<polygon fill="#bfbfbf" stroke="black" points="0,-63.5 0,-82.5 128,-82.5 128,-63.5 0,-63.5"/>
<text text-anchor="middle" x="64" y="-70.5" font-family="Helvetica,sans-Serif" font-size="10.00">GetListenOnlyConnection</text>
</g>
<!-- Node2 -->
<g id="node2" class="node"><title>Node2</title>
<g id="a_node2"><a xlink:href="../../df/d91/cipconnectionobject_8c.html#a308afe67f0cfd50cc772ad276257d6f2" target="_top" xlink:title="ConnectionObjectEqualOriginator">
<polygon fill="none" stroke="black" points="164,-101.5 164,-120.5 325,-120.5 325,-101.5 164,-101.5"/>
<text text-anchor="middle" x="244.5" y="-108.5" font-family="Helvetica,sans-Serif" font-size="10.00">ConnectionObjectEqualOriginator</text>
</a>
</g>
</g>
<!-- Node1&#45;&gt;Node2 -->
<g id="edge1" class="edge"><title>Node1&#45;&gt;Node2</title>
<path fill="none" stroke="midnightblue" d="M110.043,-82.589C134.023,-87.6939 163.698,-94.0113 188.972,-99.3918"/>
<polygon fill="midnightblue" stroke="midnightblue" points="188.271,-102.821 198.781,-101.48 189.729,-95.9744 188.271,-102.821"/>
</g>
<!-- Node3 -->
<g id="node3" class="node"><title>Node3</title>
<g id="a_node3"><a xlink:href="../../df/d91/cipconnectionobject_8c.html#a9c381240583828bec2cda2d54dc94d3b" target="_top" xlink:title="ConnectionObjectGetState">
<polygon fill="none" stroke="black" points="177.5,-63.5 177.5,-82.5 311.5,-82.5 311.5,-63.5 177.5,-63.5"/>
<text text-anchor="middle" x="244.5" y="-70.5" font-family="Helvetica,sans-Serif" font-size="10.00">ConnectionObjectGetState</text>
</a>
</g>
</g>
<!-- Node1&#45;&gt;Node3 -->
<g id="edge2" class="edge"><title>Node1&#45;&gt;Node3</title>
<path fill="none" stroke="midnightblue" d="M128.184,-73C140.766,-73 154.106,-73 167.078,-73"/>
<polygon fill="midnightblue" stroke="midnightblue" points="167.379,-76.5001 177.379,-73 167.379,-69.5001 167.379,-76.5001"/>
</g>
<!-- Node4 -->
<g id="node4" class="node"><title>Node4</title>
<g id="a_node4"><a xlink:href="../../d1/dbc/appcontype_8c.html#ac568876f2c5ba2da91a0e62e17e27432" target="_top" xlink:title="Check if there exists already an exclusive owner or listen only connection which produces the input a...">
<polygon fill="none" stroke="black" points="171.5,-14 171.5,-44 317.5,-44 317.5,-14 171.5,-14"/>
<text text-anchor="start" x="179.5" y="-32" font-family="Helvetica,sans-Serif" font-size="10.00">GetExistingProducerMulticast</text>
<text text-anchor="middle" x="244.5" y="-21" font-family="Helvetica,sans-Serif" font-size="10.00">Connection</text>
</a>
</g>
</g>
<!-- Node1&#45;&gt;Node4 -->
<g id="edge3" class="edge"><title>Node1&#45;&gt;Node4</title>
<path fill="none" stroke="midnightblue" d="M103.732,-63.4527C123.829,-58.4988 149.021,-52.2888 172.463,-46.5105"/>
<polygon fill="midnightblue" stroke="midnightblue" points="173.511,-49.8571 182.383,-44.0654 171.835,-43.0605 173.511,-49.8571"/>
</g>
<!-- Node5 -->
<g id="node5" class="node"><title>Node5</title>
<g id="a_node5"><a xlink:href="../../df/d91/cipconnectionobject_8c.html#ad61ad2b2c18480a141e5df346e32be02" target="_top" xlink:title="ConnectionObjectGetTToOConnectionType">
<polygon fill="none" stroke="black" points="361,-38.5 361,-57.5 567,-57.5 567,-38.5 361,-38.5"/>
<text text-anchor="middle" x="464" y="-45.5" font-family="Helvetica,sans-Serif" font-size="10.00">ConnectionObjectGetTToOConnectionType</text>
</a>
</g>
</g>
<!-- Node4&#45;&gt;Node5 -->
<g id="edge4" class="edge"><title>Node4&#45;&gt;Node5</title>
<path fill="none" stroke="midnightblue" d="M317.622,-35.3003C328.226,-36.2266 339.355,-37.1989 350.537,-38.1757"/>
<polygon fill="midnightblue" stroke="midnightblue" points="350.541,-41.6892 360.808,-39.0729 351.15,-34.7158 350.541,-41.6892"/>
</g>
<!-- Node7 -->
<g id="node7" class="node"><title>Node7</title>
<g id="a_node7"><a xlink:href="../../df/d91/cipconnectionobject_8c.html#a4c3d0e8258e857f80e5b7111519f7daa" target="_top" xlink:title="ConnectionObjectIsTypeIOConnection">
<polygon fill="none" stroke="black" points="371.5,-0.5 371.5,-19.5 556.5,-19.5 556.5,-0.5 371.5,-0.5"/>
<text text-anchor="middle" x="464" y="-7.5" font-family="Helvetica,sans-Serif" font-size="10.00">ConnectionObjectIsTypeIOConnection</text>
</a>
</g>
</g>
<!-- Node4&#45;&gt;Node7 -->
<g id="edge6" class="edge"><title>Node4&#45;&gt;Node7</title>
<path fill="none" stroke="midnightblue" d="M317.622,-22.6997C331.588,-21.4797 346.466,-20.18 361.174,-18.8951"/>
<polygon fill="midnightblue" stroke="midnightblue" points="361.659,-22.3662 371.316,-18.0091 361.05,-15.3928 361.659,-22.3662"/>
</g>
<!-- Node6 -->
<g id="node6" class="node"><title>Node6</title>
<g id="a_node6"><a xlink:href="../../df/d91/cipconnectionobject_8c.html#a0da85deed56477da3ec500cec51aa46e" target="_top" xlink:title="ConnectionObjectGetConnectionType">
<polygon fill="none" stroke="black" points="603,-38.5 603,-57.5 785,-57.5 785,-38.5 603,-38.5"/>
<text text-anchor="middle" x="694" y="-45.5" font-family="Helvetica,sans-Serif" font-size="10.00">ConnectionObjectGetConnectionType</text>
</a>
</g>
</g>
<!-- Node5&#45;&gt;Node6 -->
<g id="edge5" class="edge"><title>Node5&#45;&gt;Node6</title>
<path fill="none" stroke="midnightblue" d="M567.329,-48C575.745,-48 584.247,-48 592.649,-48"/>
<polygon fill="midnightblue" stroke="midnightblue" points="592.835,-51.5001 602.835,-48 592.835,-44.5001 592.835,-51.5001"/>
</g>
</g>
</svg>
