<?xml version="1.0" encoding="UTF-8" standalone="no"?>
<!DOCTYPE svg PUBLIC "-//W3C//DTD SVG 1.1//EN"
 "http://www.w3.org/Graphics/SVG/1.1/DTD/svg11.dtd">
<!-- Generated by graphviz version 2.36.0 (20140111.2315)
 -->
<!-- Title: src/cip/cipqos.c Pages: 1 -->
<!--zoomable 476 -->
<svg id="main" version="1.1" xmlns="http://www.w3.org/2000/svg" xmlns:xlink="http://www.w3.org/1999/xlink" xml:space="preserve" onload="init(evt)">
<style type="text/css"><![CDATA[
.edge:hover path { stroke: red; }
.edge:hover polygon { stroke: red; fill: red; }
]]></style>
<script type="text/javascript"><![CDATA[
var edges = document.getElementsByTagName('g');
if (edges && edges.length) {
  for (var i=0;i<edges.length;i++) {
    if (edges[i].id.substr(0,4)=='edge') {
      edges[i].setAttribute('class','edge');
    }
  }
}
]]></script>
        <defs>
                <circle id="rim" cx="0" cy="0" r="7"/>
                <circle id="rim2" cx="0" cy="0" r="3.5"/>
                <g id="zoomPlus">
                        <use xlink:href="#rim" fill="#404040">
                                <set attributeName="fill" to="#808080" begin="zoomplus.mouseover" end="zoomplus.mouseout"/>
                        </use>
                        <path d="M-4,0h8M0,-4v8" fill="none" stroke="white" stroke-width="1.5" pointer-events="none"/>
                </g>
                <g id="zoomMin">
                        <use xlink:href="#rim" fill="#404040">
                                <set attributeName="fill" to="#808080" begin="zoomminus.mouseover" end="zoomminus.mouseout"/>
                        </use>
                        <path d="M-4,0h8" fill="none" stroke="white" stroke-width="1.5" pointer-events="none"/>
                </g>
                <g id="dirArrow">
                        <path fill="none" stroke="white" stroke-width="1.5" d="M0,-3.0v7 M-2.5,-0.5L0,-3.0L2.5,-0.5"/>
                </g>
               <g id="resetDef">
                       <use xlink:href="#rim2" fill="#404040">
                               <set attributeName="fill" to="#808080" begin="reset.mouseover" end="reset.mouseout"/>
                       </use>
               </g>
        </defs>

<script type="text/javascript">
var viewWidth = 1134;
var viewHeight = 476;
var sectionId = 'dynsection-0';
</script>
<script xlink:href="../../svgpan.js"/>
<svg id="graph" class="graph">
<g id="viewport">
<title>src/cip/cipqos.c</title>
<!-- Node1 -->
<g id="node1" class="node"><title>Node1</title>
<polygon fill="#bfbfbf" stroke="black" points="219,-448.5 219,-467.5 305,-467.5 305,-448.5 219,-448.5"/>
<text text-anchor="middle" x="262" y="-455.5" font-family="Helvetica,sans-Serif" font-size="10.00">src/cip/cipqos.c</text>
</g>
<!-- Node2 -->
<g id="node2" class="node"><title>Node2</title>
<g id="a_node2"><a xlink:href="../../d0/d3c/cipqos_8h.html" target="_top" xlink:title="Public interface of the QoS Object. ">
<polygon fill="none" stroke="black" points="492.5,-392.5 492.5,-411.5 545.5,-411.5 545.5,-392.5 492.5,-392.5"/>
<text text-anchor="middle" x="519" y="-399.5" font-family="Helvetica,sans-Serif" font-size="10.00">cipqos.h</text>
</a>
</g>
</g>
<!-- Node1&#45;&gt;Node2 -->
<g id="edge1" class="edge"><title>Node1&#45;&gt;Node2</title>
<path fill="none" stroke="midnightblue" d="M302.722,-448.444C352.171,-438.054 434.837,-420.684 482.365,-410.698"/>
<polygon fill="midnightblue" stroke="midnightblue" points="483.166,-414.106 492.232,-408.624 481.726,-407.255 483.166,-414.106"/>
</g>
<!-- Node10 -->
<g id="node10" class="node"><title>Node10</title>
<polygon fill="none" stroke="#bfbfbf" points="924,-56.5 924,-75.5 1026,-75.5 1026,-56.5 924,-56.5"/>
<text text-anchor="middle" x="975" y="-63.5" font-family="Helvetica,sans-Serif" font-size="10.00">opener_user_conf.h</text>
</g>
<!-- Node1&#45;&gt;Node10 -->
<g id="edge36" class="edge"><title>Node1&#45;&gt;Node10</title>
<path fill="none" stroke="midnightblue" d="M305.262,-455.568C470.288,-449.541 1051,-422.938 1051,-347 1051,-347 1051,-347 1051,-177 1051,-137.276 1017.04,-101.504 994.518,-82.1536"/>
<polygon fill="midnightblue" stroke="midnightblue" points="996.482,-79.2364 986.543,-75.5672 992.024,-84.6337 996.482,-79.2364"/>
</g>
<!-- Node12 -->
<g id="node12" class="node"><title>Node12</title>
<g id="a_node12"><a xlink:href="../../d4/d38/opener__api_8h.html" target="_top" xlink:title="opener_api.h">
<polygon fill="none" stroke="black" points="282,-224.5 282,-243.5 354,-243.5 354,-224.5 282,-224.5"/>
<text text-anchor="middle" x="318" y="-231.5" font-family="Helvetica,sans-Serif" font-size="10.00">opener_api.h</text>
</a>
</g>
</g>
<!-- Node1&#45;&gt;Node12 -->
<g id="edge49" class="edge"><title>Node1&#45;&gt;Node12</title>
<path fill="none" stroke="midnightblue" d="M258.126,-448.194C246.837,-421.102 216.685,-337.358 248,-280 255.819,-265.679 270.362,-255.236 284.176,-248.036"/>
<polygon fill="midnightblue" stroke="midnightblue" points="286.019,-251.034 293.531,-243.562 282.999,-244.719 286.019,-251.034"/>
</g>
<!-- Node14 -->
<g id="node14" class="node"><title>Node14</title>
<g id="a_node14"><a xlink:href="../../d6/d52/ciperror_8h.html" target="_top" xlink:title="ciperror.h">
<polygon fill="none" stroke="black" points="96.5,-168.5 96.5,-187.5 153.5,-187.5 153.5,-168.5 96.5,-168.5"/>
<text text-anchor="middle" x="125" y="-175.5" font-family="Helvetica,sans-Serif" font-size="10.00">ciperror.h</text>
</a>
</g>
</g>
<!-- Node1&#45;&gt;Node14 -->
<g id="edge43" class="edge"><title>Node1&#45;&gt;Node14</title>
<path fill="none" stroke="midnightblue" d="M227.128,-448.398C182.253,-434.997 110,-404.493 110,-347 110,-347 110,-347 110,-289 110,-256.502 116.507,-219.095 120.949,-197.343"/>
<polygon fill="midnightblue" stroke="midnightblue" points="124.385,-198.013 123.039,-187.504 117.538,-196.559 124.385,-198.013"/>
</g>
<!-- Node19 -->
<g id="node19" class="node"><title>Node19</title>
<g id="a_node19"><a xlink:href="../../db/d14/cipcommon_8h.html" target="_top" xlink:title="cipcommon.h">
<polygon fill="none" stroke="black" points="410.5,-224.5 410.5,-243.5 485.5,-243.5 485.5,-224.5 410.5,-224.5"/>
<text text-anchor="middle" x="448" y="-231.5" font-family="Helvetica,sans-Serif" font-size="10.00">cipcommon.h</text>
</a>
</g>
</g>
<!-- Node1&#45;&gt;Node19 -->
<g id="edge37" class="edge"><title>Node1&#45;&gt;Node19</title>
<path fill="none" stroke="midnightblue" d="M269.291,-448.297C297.123,-415.079 396.961,-295.918 434.022,-251.684"/>
<polygon fill="midnightblue" stroke="midnightblue" points="436.817,-253.797 440.557,-243.884 431.452,-249.301 436.817,-253.797"/>
</g>
<!-- Node20 -->
<g id="node20" class="node"><title>Node20</title>
<g id="a_node20"><a xlink:href="../../d2/d75/cipmessagerouter_8h.html" target="_top" xlink:title="cipmessagerouter.h">
<polygon fill="none" stroke="black" points="503,-224.5 503,-243.5 605,-243.5 605,-224.5 503,-224.5"/>
<text text-anchor="middle" x="554" y="-231.5" font-family="Helvetica,sans-Serif" font-size="10.00">cipmessagerouter.h</text>
</a>
</g>
</g>
<!-- Node1&#45;&gt;Node20 -->
<g id="edge40" class="edge"><title>Node1&#45;&gt;Node20</title>
<path fill="none" stroke="midnightblue" d="M273.741,-448.436C286.059,-439.429 305.96,-424.812 323,-412 402.216,-352.44 495.666,-280.23 535.023,-249.727"/>
<polygon fill="midnightblue" stroke="midnightblue" points="537.237,-252.44 542.995,-243.546 532.947,-246.908 537.237,-252.44"/>
</g>
<!-- Node21 -->
<g id="node21" class="node"><title>Node21</title>
<g id="a_node21"><a xlink:href="../../d0/dec/endianconv_8h.html" target="_top" xlink:title="Responsible for Endianess conversion. ">
<polygon fill="none" stroke="black" points="0,-336.5 0,-355.5 74,-355.5 74,-336.5 0,-336.5"/>
<text text-anchor="middle" x="37" y="-343.5" font-family="Helvetica,sans-Serif" font-size="10.00">endianconv.h</text>
</a>
</g>
</g>
<!-- Node1&#45;&gt;Node21 -->
<g id="edge44" class="edge"><title>Node1&#45;&gt;Node21</title>
<path fill="none" stroke="midnightblue" d="M218.776,-452.104C183.62,-446.583 133.82,-435.148 96,-412 75.9778,-399.745 58.6903,-378.706 48.0951,-363.89"/>
<polygon fill="midnightblue" stroke="midnightblue" points="50.9476,-361.861 42.3983,-355.603 45.1791,-365.826 50.9476,-361.861"/>
</g>
<!-- Node22 -->
<g id="node22" class="node"><title>Node22</title>
<g id="a_node22"><a xlink:href="../../dd/d4d/cipethernetlink_8h.html" target="_top" xlink:title="cipethernetlink.h">
<polygon fill="none" stroke="black" points="176,-224.5 176,-243.5 264,-243.5 264,-224.5 176,-224.5"/>
<text text-anchor="middle" x="220" y="-231.5" font-family="Helvetica,sans-Serif" font-size="10.00">cipethernetlink.h</text>
</a>
</g>
</g>
<!-- Node1&#45;&gt;Node22 -->
<g id="edge46" class="edge"><title>Node1&#45;&gt;Node22</title>
<path fill="none" stroke="midnightblue" d="M258.942,-448.475C255.818,-439.499 251.012,-424.908 248,-412 234.714,-355.065 225.846,-286.34 222.068,-253.815"/>
<polygon fill="midnightblue" stroke="midnightblue" points="225.51,-253.102 220.909,-243.559 218.555,-253.889 225.51,-253.102"/>
</g>
<!-- Node23 -->
<g id="node23" class="node"><title>Node23</title>
<g id="a_node23"><a xlink:href="../../d1/d1b/trace_8h.html" target="_top" xlink:title="Tracing infrastructure for OpENer. ">
<polygon fill="none" stroke="black" points="1079.5,-392.5 1079.5,-411.5 1126.5,-411.5 1126.5,-392.5 1079.5,-392.5"/>
<text text-anchor="middle" x="1103" y="-399.5" font-family="Helvetica,sans-Serif" font-size="10.00">trace.h</text>
</a>
</g>
</g>
<!-- Node1&#45;&gt;Node23 -->
<g id="edge50" class="edge"><title>Node1&#45;&gt;Node23</title>
<path fill="none" stroke="midnightblue" d="M305.356,-457.251C426.273,-457.374 777.245,-453.805 1065,-412 1066.47,-411.787 1067.96,-411.544 1069.47,-411.279"/>
<polygon fill="midnightblue" stroke="midnightblue" points="1070.3,-414.682 1079.41,-409.269 1068.91,-407.821 1070.3,-414.682"/>
</g>
<!-- Node3 -->
<g id="node3" class="node"><title>Node3</title>
<g id="a_node3"><a xlink:href="../../d7/d69/typedefs_8h.html" target="_top" xlink:title="typedefs.h">
<polygon fill="none" stroke="black" points="360,-56.5 360,-75.5 422,-75.5 422,-56.5 360,-56.5"/>
<text text-anchor="middle" x="391" y="-63.5" font-family="Helvetica,sans-Serif" font-size="10.00">typedefs.h</text>
</a>
</g>
</g>
<!-- Node2&#45;&gt;Node3 -->
<g id="edge2" class="edge"><title>Node2&#45;&gt;Node3</title>
<path fill="none" stroke="midnightblue" d="M492.363,-398.572C410.335,-389.422 162.546,-348.836 87,-188 38.1749,-84.0529 256.064,-68.8216 349.854,-67.0121"/>
<polygon fill="midnightblue" stroke="midnightblue" points="349.912,-70.5117 359.858,-66.8612 349.806,-63.5125 349.912,-70.5117"/>
</g>
<!-- Node7 -->
<g id="node7" class="node"><title>Node7</title>
<g id="a_node7"><a xlink:href="../../df/d28/ciptypes_8h.html" target="_top" xlink:title="ciptypes.h">
<polygon fill="none" stroke="black" points="608,-168.5 608,-187.5 670,-187.5 670,-168.5 608,-168.5"/>
<text text-anchor="middle" x="639" y="-175.5" font-family="Helvetica,sans-Serif" font-size="10.00">ciptypes.h</text>
</a>
</g>
</g>
<!-- Node2&#45;&gt;Node7 -->
<g id="edge6" class="edge"><title>Node2&#45;&gt;Node7</title>
<path fill="none" stroke="midnightblue" d="M545.614,-399.268C599.498,-394.223 721.433,-374.707 781,-300 802.706,-272.777 821.047,-251.736 800,-224 785.535,-204.937 722.901,-191.761 680.156,-184.798"/>
<polygon fill="midnightblue" stroke="midnightblue" points="680.45,-181.301 670.027,-183.202 679.361,-188.216 680.45,-181.301"/>
</g>
<!-- Node11 -->
<g id="node11" class="node"><title>Node11</title>
<g id="a_node11"><a xlink:href="../../d2/da3/cipconnectionmanager_8h.html" target="_top" xlink:title="cipconnectionmanager.h">
<polygon fill="none" stroke="black" points="559,-336.5 559,-355.5 681,-355.5 681,-336.5 559,-336.5"/>
<text text-anchor="middle" x="620" y="-343.5" font-family="Helvetica,sans-Serif" font-size="10.00">cipconnectionmanager.h</text>
</a>
</g>
</g>
<!-- Node2&#45;&gt;Node11 -->
<g id="edge13" class="edge"><title>Node2&#45;&gt;Node11</title>
<path fill="none" stroke="midnightblue" d="M535.227,-392.324C551.351,-383.703 576.3,-370.364 594.964,-360.386"/>
<polygon fill="midnightblue" stroke="midnightblue" points="596.644,-363.456 603.813,-355.655 593.344,-357.283 596.644,-363.456"/>
</g>
<!-- Node4 -->
<g id="node4" class="node"><title>Node4</title>
<polygon fill="none" stroke="#bfbfbf" points="398.5,-0.5 398.5,-19.5 457.5,-19.5 457.5,-0.5 398.5,-0.5"/>
<text text-anchor="middle" x="428" y="-7.5" font-family="Helvetica,sans-Serif" font-size="10.00">inttypes.h</text>
</g>
<!-- Node3&#45;&gt;Node4 -->
<g id="edge3" class="edge"><title>Node3&#45;&gt;Node4</title>
<path fill="none" stroke="midnightblue" d="M397.11,-56.083C402.282,-48.5341 409.846,-37.4948 416.194,-28.2298"/>
<polygon fill="midnightblue" stroke="midnightblue" points="419.239,-29.9787 422.004,-19.7511 413.464,-26.0221 419.239,-29.9787"/>
</g>
<!-- Node5 -->
<g id="node5" class="node"><title>Node5</title>
<polygon fill="none" stroke="#bfbfbf" points="328,-0.5 328,-19.5 380,-19.5 380,-0.5 328,-0.5"/>
<text text-anchor="middle" x="354" y="-7.5" font-family="Helvetica,sans-Serif" font-size="10.00">stddef.h</text>
</g>
<!-- Node3&#45;&gt;Node5 -->
<g id="edge4" class="edge"><title>Node3&#45;&gt;Node5</title>
<path fill="none" stroke="midnightblue" d="M384.89,-56.083C379.718,-48.5341 372.154,-37.4948 365.806,-28.2298"/>
<polygon fill="midnightblue" stroke="midnightblue" points="368.536,-26.0221 359.996,-19.7511 362.761,-29.9787 368.536,-26.0221"/>
</g>
<!-- Node6 -->
<g id="node6" class="node"><title>Node6</title>
<polygon fill="none" stroke="#bfbfbf" points="631,-0.5 631,-19.5 687,-19.5 687,-0.5 631,-0.5"/>
<text text-anchor="middle" x="659" y="-7.5" font-family="Helvetica,sans-Serif" font-size="10.00">stdbool.h</text>
</g>
<!-- Node3&#45;&gt;Node6 -->
<g id="edge5" class="edge"><title>Node3&#45;&gt;Node6</title>
<path fill="none" stroke="midnightblue" d="M422.005,-58.7528C471.22,-48.8363 567.11,-29.5151 620.599,-18.7375"/>
<polygon fill="midnightblue" stroke="midnightblue" points="621.593,-22.1076 630.705,-16.7012 620.211,-15.2455 621.593,-22.1076"/>
</g>
<!-- Node7&#45;&gt;Node3 -->
<g id="edge7" class="edge"><title>Node7&#45;&gt;Node3</title>
<path fill="none" stroke="midnightblue" d="M639.875,-168.446C640.785,-154.523 640.349,-127.013 625,-112 598.216,-85.8032 492.196,-74.1496 432.469,-69.5737"/>
<polygon fill="midnightblue" stroke="midnightblue" points="432.468,-66.0644 422.239,-68.8244 431.957,-73.0457 432.468,-66.0644"/>
</g>
<!-- Node8 -->
<g id="node8" class="node"><title>Node8</title>
<g id="a_node8"><a xlink:href="../../d0/d47/networkhandler_8h.html" target="_top" xlink:title="networkhandler.h">
<polygon fill="none" stroke="black" points="525.5,-112.5 525.5,-131.5 616.5,-131.5 616.5,-112.5 525.5,-112.5"/>
<text text-anchor="middle" x="571" y="-119.5" font-family="Helvetica,sans-Serif" font-size="10.00">networkhandler.h</text>
</a>
</g>
</g>
<!-- Node7&#45;&gt;Node8 -->
<g id="edge8" class="edge"><title>Node7&#45;&gt;Node8</title>
<path fill="none" stroke="midnightblue" d="M628.075,-168.324C617.825,-160.185 602.279,-147.839 589.999,-138.087"/>
<polygon fill="midnightblue" stroke="midnightblue" points="592.132,-135.312 582.124,-131.834 587.779,-140.794 592.132,-135.312"/>
</g>
<!-- Node9 -->
<g id="node9" class="node"><title>Node9</title>
<g id="a_node9"><a xlink:href="../../d8/d2c/enipmessage_8h.html" target="_top" xlink:title="enipmessage.h">
<polygon fill="none" stroke="black" points="673.5,-112.5 673.5,-131.5 756.5,-131.5 756.5,-112.5 673.5,-112.5"/>
<text text-anchor="middle" x="715" y="-119.5" font-family="Helvetica,sans-Serif" font-size="10.00">enipmessage.h</text>
</a>
</g>
</g>
<!-- Node7&#45;&gt;Node9 -->
<g id="edge10" class="edge"><title>Node7&#45;&gt;Node9</title>
<path fill="none" stroke="midnightblue" d="M651.211,-168.324C662.776,-160.107 680.375,-147.602 694.161,-137.807"/>
<polygon fill="midnightblue" stroke="midnightblue" points="696.443,-140.479 702.567,-131.834 692.388,-134.773 696.443,-140.479"/>
</g>
<!-- Node7&#45;&gt;Node10 -->
<g id="edge12" class="edge"><title>Node7&#45;&gt;Node10</title>
<path fill="none" stroke="midnightblue" d="M670.245,-174.579C733.628,-169.245 874.875,-155.087 917,-132 937.429,-120.804 954.272,-99.549 964.448,-84.3933"/>
<polygon fill="midnightblue" stroke="midnightblue" points="967.449,-86.1978 969.895,-75.8893 961.554,-82.4221 967.449,-86.1978"/>
</g>
<!-- Node8&#45;&gt;Node3 -->
<g id="edge9" class="edge"><title>Node8&#45;&gt;Node3</title>
<path fill="none" stroke="midnightblue" d="M542.478,-112.444C511.934,-103.28 463.292,-88.6876 429.397,-78.5192"/>
<polygon fill="midnightblue" stroke="midnightblue" points="429.972,-75.0376 419.388,-75.5164 427.961,-81.7424 429.972,-75.0376"/>
</g>
<!-- Node9&#45;&gt;Node10 -->
<g id="edge11" class="edge"><title>Node9&#45;&gt;Node10</title>
<path fill="none" stroke="midnightblue" d="M756.198,-112.444C801.649,-103.004 874.842,-87.802 923.909,-77.6111"/>
<polygon fill="midnightblue" stroke="midnightblue" points="924.916,-80.9769 933.995,-75.5164 923.492,-74.1232 924.916,-80.9769"/>
</g>
<!-- Node11&#45;&gt;Node3 -->
<g id="edge21" class="edge"><title>Node11&#45;&gt;Node3</title>
<path fill="none" stroke="midnightblue" d="M558.728,-340.573C446.604,-331.06 215.444,-304.435 167,-244 143.569,-214.77 169.534,-183.207 277,-112 299.404,-97.1551 327.452,-86.0043 350.12,-78.5161"/>
<polygon fill="midnightblue" stroke="midnightblue" points="351.33,-81.8041 359.795,-75.4323 349.204,-75.1347 351.33,-81.8041"/>
</g>
<!-- Node11&#45;&gt;Node7 -->
<g id="edge22" class="edge"><title>Node11&#45;&gt;Node7</title>
<path fill="none" stroke="midnightblue" d="M621.022,-336.075C624.012,-309.945 632.795,-233.211 636.874,-197.577"/>
<polygon fill="midnightblue" stroke="midnightblue" points="640.359,-197.901 638.019,-187.568 633.405,-197.105 640.359,-197.901"/>
</g>
<!-- Node11&#45;&gt;Node10 -->
<g id="edge14" class="edge"><title>Node11&#45;&gt;Node10</title>
<path fill="none" stroke="midnightblue" d="M681.175,-341.528C754.604,-334.315 877.622,-312.137 956,-244 1001.8,-204.18 1001.32,-171.811 991,-112 989.432,-102.91 986.205,-93.2219 983.057,-85.1726"/>
<polygon fill="midnightblue" stroke="midnightblue" points="986.194,-83.6018 979.111,-75.7229 979.735,-86.2993 986.194,-83.6018"/>
</g>
<!-- Node11&#45;&gt;Node12 -->
<g id="edge15" class="edge"><title>Node11&#45;&gt;Node12</title>
<path fill="none" stroke="midnightblue" d="M596.303,-336.368C542.825,-316.89 412.661,-269.479 351.19,-247.089"/>
<polygon fill="midnightblue" stroke="midnightblue" points="352.181,-243.725 341.587,-243.591 349.786,-250.303 352.181,-243.725"/>
</g>
<!-- Node15 -->
<g id="node15" class="node"><title>Node15</title>
<g id="a_node15"><a xlink:href="../../d1/d6c/cipconnectionobject_8h.html" target="_top" xlink:title="cipconnectionobject.h">
<polygon fill="none" stroke="black" points="661.5,-280.5 661.5,-299.5 772.5,-299.5 772.5,-280.5 661.5,-280.5"/>
<text text-anchor="middle" x="717" y="-287.5" font-family="Helvetica,sans-Serif" font-size="10.00">cipconnectionobject.h</text>
</a>
</g>
</g>
<!-- Node11&#45;&gt;Node15 -->
<g id="edge23" class="edge"><title>Node11&#45;&gt;Node15</title>
<path fill="none" stroke="midnightblue" d="M635.585,-336.324C650.999,-327.743 674.812,-314.486 692.71,-304.522"/>
<polygon fill="midnightblue" stroke="midnightblue" points="694.419,-307.577 701.454,-299.655 691.014,-301.461 694.419,-307.577"/>
</g>
<!-- Node12&#45;&gt;Node3 -->
<g id="edge18" class="edge"><title>Node12&#45;&gt;Node3</title>
<path fill="none" stroke="midnightblue" d="M305.928,-224.403C290.618,-212.364 267.308,-189.535 277,-168 295.037,-127.922 337.708,-97.3108 365.422,-80.7678"/>
<polygon fill="midnightblue" stroke="midnightblue" points="367.281,-83.7359 374.19,-75.7036 363.78,-77.6743 367.281,-83.7359"/>
</g>
<!-- Node12&#45;&gt;Node6 -->
<g id="edge17" class="edge"><title>Node12&#45;&gt;Node6</title>
<path fill="none" stroke="midnightblue" d="M331.368,-224.297C383.36,-190.449 572.419,-67.3668 637.113,-25.2489"/>
<polygon fill="midnightblue" stroke="midnightblue" points="639.254,-28.0317 645.725,-19.6425 635.435,-22.1653 639.254,-28.0317"/>
</g>
<!-- Node12&#45;&gt;Node7 -->
<g id="edge19" class="edge"><title>Node12&#45;&gt;Node7</title>
<path fill="none" stroke="midnightblue" d="M354.199,-226.91C414.307,-216.799 534.345,-196.606 597.679,-185.951"/>
<polygon fill="midnightblue" stroke="midnightblue" points="598.428,-189.374 607.709,-184.264 597.267,-182.471 598.428,-189.374"/>
</g>
<!-- Node13 -->
<g id="node13" class="node"><title>Node13</title>
<polygon fill="none" stroke="#bfbfbf" points="286,-168.5 286,-187.5 338,-187.5 338,-168.5 286,-168.5"/>
<text text-anchor="middle" x="312" y="-175.5" font-family="Helvetica,sans-Serif" font-size="10.00">assert.h</text>
</g>
<!-- Node12&#45;&gt;Node13 -->
<g id="edge16" class="edge"><title>Node12&#45;&gt;Node13</title>
<path fill="none" stroke="midnightblue" d="M317.009,-224.083C316.214,-216.927 315.071,-206.635 314.077,-197.691"/>
<polygon fill="midnightblue" stroke="midnightblue" points="317.555,-197.303 312.972,-187.751 310.598,-198.076 317.555,-197.303"/>
</g>
<!-- Node12&#45;&gt;Node14 -->
<g id="edge20" class="edge"><title>Node12&#45;&gt;Node14</title>
<path fill="none" stroke="midnightblue" d="M287.419,-224.444C253.803,-215.038 199.744,-199.913 163.324,-189.723"/>
<polygon fill="midnightblue" stroke="midnightblue" points="164.124,-186.312 153.551,-186.988 162.238,-193.053 164.124,-186.312"/>
</g>
<!-- Node15&#45;&gt;Node3 -->
<g id="edge24" class="edge"><title>Node15&#45;&gt;Node3</title>
<path fill="none" stroke="midnightblue" d="M661.268,-289.2C580.037,-288.197 435.063,-281.09 401,-244 360.798,-200.226 375.555,-121.782 385.234,-85.8769"/>
<polygon fill="midnightblue" stroke="midnightblue" points="388.728,-86.3896 388.122,-75.8122 381.999,-84.4591 388.728,-86.3896"/>
</g>
<!-- Node15&#45;&gt;Node7 -->
<g id="edge25" class="edge"><title>Node15&#45;&gt;Node7</title>
<path fill="none" stroke="midnightblue" d="M710.879,-280.368C698.007,-262.215 667.932,-219.802 651.048,-195.99"/>
<polygon fill="midnightblue" stroke="midnightblue" points="653.731,-193.724 645.092,-187.591 648.021,-197.773 653.731,-193.724"/>
</g>
<!-- Node15&#45;&gt;Node10 -->
<g id="edge26" class="edge"><title>Node15&#45;&gt;Node10</title>
<path fill="none" stroke="midnightblue" d="M772.734,-280.691C833.42,-271.149 923.433,-255.352 935,-244 978.62,-201.188 979.099,-121.613 976.773,-85.5816"/>
<polygon fill="midnightblue" stroke="midnightblue" points="980.254,-85.2052 975.97,-75.515 973.276,-85.7616 980.254,-85.2052"/>
</g>
<!-- Node15&#45;&gt;Node12 -->
<g id="edge27" class="edge"><title>Node15&#45;&gt;Node12</title>
<path fill="none" stroke="midnightblue" d="M661.27,-282.683C592.278,-274.662 471.244,-259.938 368,-244 366.725,-243.803 365.433,-243.6 364.129,-243.39"/>
<polygon fill="midnightblue" stroke="midnightblue" points="364.454,-239.896 354.014,-241.704 363.302,-246.801 364.454,-239.896"/>
</g>
<!-- Node16 -->
<g id="node16" class="node"><title>Node16</title>
<g id="a_node16"><a xlink:href="../../d9/d31/doublylinkedlist_8h.html" target="_top" xlink:title="doublylinkedlist.h">
<polygon fill="none" stroke="black" points="699,-224.5 699,-243.5 791,-243.5 791,-224.5 699,-224.5"/>
<text text-anchor="middle" x="745" y="-231.5" font-family="Helvetica,sans-Serif" font-size="10.00">doublylinkedlist.h</text>
</a>
</g>
</g>
<!-- Node15&#45;&gt;Node16 -->
<g id="edge28" class="edge"><title>Node15&#45;&gt;Node16</title>
<path fill="none" stroke="midnightblue" d="M721.624,-280.083C725.456,-272.691 731.024,-261.953 735.765,-252.811"/>
<polygon fill="midnightblue" stroke="midnightblue" points="738.966,-254.24 740.462,-243.751 732.752,-251.018 738.966,-254.24"/>
</g>
<!-- Node17 -->
<g id="node17" class="node"><title>Node17</title>
<g id="a_node17"><a xlink:href="../../d0/d23/cipelectronickey_8h.html" target="_top" xlink:title="cipelectronickey.h">
<polygon fill="none" stroke="black" points="813.5,-112.5 813.5,-131.5 908.5,-131.5 908.5,-112.5 813.5,-112.5"/>
<text text-anchor="middle" x="861" y="-119.5" font-family="Helvetica,sans-Serif" font-size="10.00">cipelectronickey.h</text>
</a>
</g>
</g>
<!-- Node15&#45;&gt;Node17 -->
<g id="edge29" class="edge"><title>Node15&#45;&gt;Node17</title>
<path fill="none" stroke="midnightblue" d="M770.609,-280.459C826.663,-270.984 907.787,-255.516 917,-244 943.488,-210.89 903.399,-163.213 878.447,-138.766"/>
<polygon fill="midnightblue" stroke="midnightblue" points="880.648,-136.03 870.981,-131.693 875.834,-141.112 880.648,-136.03"/>
</g>
<!-- Node18 -->
<g id="node18" class="node"><title>Node18</title>
<g id="a_node18"><a xlink:href="../../d1/d02/cipepath_8h.html" target="_top" xlink:title="cipepath.h">
<polygon fill="none" stroke="black" points="847,-224.5 847,-243.5 909,-243.5 909,-224.5 847,-224.5"/>
<text text-anchor="middle" x="878" y="-231.5" font-family="Helvetica,sans-Serif" font-size="10.00">cipepath.h</text>
</a>
</g>
</g>
<!-- Node15&#45;&gt;Node18 -->
<g id="edge32" class="edge"><title>Node15&#45;&gt;Node18</title>
<path fill="none" stroke="midnightblue" d="M742.511,-280.444C769.596,-271.359 812.59,-256.939 842.869,-246.783"/>
<polygon fill="midnightblue" stroke="midnightblue" points="844.24,-250.015 852.608,-243.516 842.014,-243.378 844.24,-250.015"/>
</g>
<!-- Node17&#45;&gt;Node3 -->
<g id="edge31" class="edge"><title>Node17&#45;&gt;Node3</title>
<path fill="none" stroke="midnightblue" d="M813.347,-115.525C720.953,-104.91 518.916,-81.6968 432.045,-71.7158"/>
<polygon fill="midnightblue" stroke="midnightblue" points="432.371,-68.2303 422.037,-70.5659 431.572,-75.1846 432.371,-68.2303"/>
</g>
<!-- Node17&#45;&gt;Node6 -->
<g id="edge30" class="edge"><title>Node17&#45;&gt;Node6</title>
<path fill="none" stroke="midnightblue" d="M854.815,-112.084C844.705,-98.153 823.312,-71.2425 799,-56 767.461,-36.2262 726.432,-24.3791 696.955,-17.8439"/>
<polygon fill="midnightblue" stroke="midnightblue" points="697.553,-14.393 687.045,-15.7496 696.106,-21.2417 697.553,-14.393"/>
</g>
<!-- Node18&#45;&gt;Node6 -->
<g id="edge33" class="edge"><title>Node18&#45;&gt;Node6</title>
<path fill="none" stroke="midnightblue" d="M870.222,-224.33C852.127,-204.234 805.647,-153.056 765,-112 734.371,-81.0628 697.282,-46.3155 676.085,-26.7025"/>
<polygon fill="midnightblue" stroke="midnightblue" points="678.258,-23.9459 668.536,-19.7364 673.511,-29.0903 678.258,-23.9459"/>
</g>
<!-- Node18&#45;&gt;Node7 -->
<g id="edge34" class="edge"><title>Node18&#45;&gt;Node7</title>
<path fill="none" stroke="midnightblue" d="M846.755,-225.94C804.082,-216.299 727.485,-198.992 680.17,-188.302"/>
<polygon fill="midnightblue" stroke="midnightblue" points="680.778,-184.851 670.253,-186.061 679.235,-191.679 680.778,-184.851"/>
</g>
<!-- Node18&#45;&gt;Node17 -->
<g id="edge35" class="edge"><title>Node18&#45;&gt;Node17</title>
<path fill="none" stroke="midnightblue" d="M876.666,-224.368C873.923,-206.617 867.594,-165.666 863.874,-141.597"/>
<polygon fill="midnightblue" stroke="midnightblue" points="867.314,-140.94 862.328,-131.591 860.396,-142.009 867.314,-140.94"/>
</g>
<!-- Node19&#45;&gt;Node3 -->
<g id="edge38" class="edge"><title>Node19&#45;&gt;Node3</title>
<path fill="none" stroke="midnightblue" d="M444.935,-224.075C435.924,-197.832 409.386,-120.545 397.221,-85.1165"/>
<polygon fill="midnightblue" stroke="midnightblue" points="400.5,-83.8894 393.942,-75.5681 393.879,-86.1628 400.5,-83.8894"/>
</g>
<!-- Node19&#45;&gt;Node7 -->
<g id="edge39" class="edge"><title>Node19&#45;&gt;Node7</title>
<path fill="none" stroke="midnightblue" d="M478.265,-224.444C510.955,-215.201 563.182,-200.436 599.183,-190.257"/>
<polygon fill="midnightblue" stroke="midnightblue" points="600.206,-193.605 608.877,-187.516 598.302,-186.869 600.206,-193.605"/>
</g>
<!-- Node20&#45;&gt;Node3 -->
<g id="edge41" class="edge"><title>Node20&#45;&gt;Node3</title>
<path fill="none" stroke="midnightblue" d="M545.236,-224.075C518.912,-197.267 440.283,-117.19 406.598,-82.8851"/>
<polygon fill="midnightblue" stroke="midnightblue" points="408.917,-80.2512 399.413,-75.5681 403.922,-85.1556 408.917,-80.2512"/>
</g>
<!-- Node20&#45;&gt;Node7 -->
<g id="edge42" class="edge"><title>Node20&#45;&gt;Node7</title>
<path fill="none" stroke="midnightblue" d="M567.657,-224.324C580.916,-215.9 601.268,-202.971 616.846,-193.074"/>
<polygon fill="midnightblue" stroke="midnightblue" points="618.813,-195.971 625.377,-187.655 615.06,-190.063 618.813,-195.971"/>
</g>
<!-- Node21&#45;&gt;Node3 -->
<g id="edge45" class="edge"><title>Node21&#45;&gt;Node3</title>
<path fill="none" stroke="midnightblue" d="M36.0849,-336.454C34.1874,-317.971 30,-272.889 30,-235 30,-235 30,-235 30,-177 30,-146.205 29.9564,-131.242 54,-112 98.8217,-76.1295 270.094,-68.7896 349.777,-67.333"/>
<polygon fill="midnightblue" stroke="midnightblue" points="349.994,-70.8301 359.937,-67.1704 349.882,-63.831 349.994,-70.8301"/>
</g>
<!-- Node22&#45;&gt;Node3 -->
<g id="edge47" class="edge"><title>Node22&#45;&gt;Node3</title>
<path fill="none" stroke="midnightblue" d="M223.621,-224.233C232.958,-202.563 259.818,-145.789 298,-112 314.282,-97.5914 335.995,-86.7387 354.346,-79.3049"/>
<polygon fill="midnightblue" stroke="midnightblue" points="355.798,-82.4964 363.864,-75.6273 353.275,-75.9669 355.798,-82.4964"/>
</g>
<!-- Node22&#45;&gt;Node7 -->
<g id="edge48" class="edge"><title>Node22&#45;&gt;Node7</title>
<path fill="none" stroke="midnightblue" d="M264.222,-225.335C267.191,-224.868 270.137,-224.419 273,-224 390.252,-206.846 529.287,-190.973 597.308,-183.496"/>
<polygon fill="midnightblue" stroke="midnightblue" points="598.042,-186.937 607.601,-182.369 597.28,-179.978 598.042,-186.937"/>
</g>
</g>
</svg>
        <g id="navigator" transform="translate(0 0)" fill="#404254">
                <rect fill="#f2f5e9" fill-opacity="0.5" stroke="#606060" stroke-width=".5" x="0" y="0" width="60" height="60"/>
                <use id="zoomplus" xlink:href="#zoomPlus" x="17" y="9" onmousedown="handleZoom(evt,'in')"/>
                <use id="zoomminus" xlink:href="#zoomMin" x="42" y="9" onmousedown="handleZoom(evt,'out')"/>
                <use id="reset" xlink:href="#resetDef" x="30" y="36" onmousedown="handleReset()"/>
                <g id="arrowUp" xlink:href="#dirArrow" transform="translate(30 24)" onmousedown="handlePan(0,-1)">
                  <use xlink:href="#rim" fill="#404040">
                        <set attributeName="fill" to="#808080" begin="arrowUp.mouseover" end="arrowUp.mouseout"/>
                  </use>
                  <path fill="none" stroke="white" stroke-width="1.5" d="M0,-3.0v7 M-2.5,-0.5L0,-3.0L2.5,-0.5"/>
                </g>
                <g id="arrowRight" xlink:href="#dirArrow" transform="rotate(90) translate(36 -43)" onmousedown="handlePan(1,0)">
                  <use xlink:href="#rim" fill="#404040">
                        <set attributeName="fill" to="#808080" begin="arrowRight.mouseover" end="arrowRight.mouseout"/>
                  </use>
                  <path fill="none" stroke="white" stroke-width="1.5" d="M0,-3.0v7 M-2.5,-0.5L0,-3.0L2.5,-0.5"/>
                </g>
                <g id="arrowDown" xlink:href="#dirArrow" transform="rotate(180) translate(-30 -48)" onmousedown="handlePan(0,1)">
                  <use xlink:href="#rim" fill="#404040">
                        <set attributeName="fill" to="#808080" begin="arrowDown.mouseover" end="arrowDown.mouseout"/>
                  </use>
                  <path fill="none" stroke="white" stroke-width="1.5" d="M0,-3.0v7 M-2.5,-0.5L0,-3.0L2.5,-0.5"/>
                </g>
                <g id="arrowLeft" xlink:href="#dirArrow" transform="rotate(270) translate(-36 17)" onmousedown="handlePan(-1,0)">
                  <use xlink:href="#rim" fill="#404040">
                        <set attributeName="fill" to="#808080" begin="arrowLeft.mouseover" end="arrowLeft.mouseout"/>
                  </use>
                  <path fill="none" stroke="white" stroke-width="1.5" d="M0,-3.0v7 M-2.5,-0.5L0,-3.0L2.5,-0.5"/>
                </g>
        </g>
        <svg viewBox="0 0 15 15" width="100%" height="30px" preserveAspectRatio="xMaxYMin meet">
         <g id="arrow_out" transform="scale(0.3 0.3)">
          <a xlink:href="cipqos_8c__incl_org.svg" target="_base">
           <rect id="button" ry="5" rx="5" y="6" x="6" height="38" width="38"
                fill="#f2f5e9" fill-opacity="0.5" stroke="#606060" stroke-width="1.0"/>
           <path id="arrow"
             d="M 11.500037,31.436501 C 11.940474,20.09759 22.043105,11.32322 32.158766,21.979434 L 37.068811,17.246167 C 37.068811,17.246167 37.088388,32 37.088388,32 L 22.160133,31.978069 C 22.160133,31.978069 26.997745,27.140456 26.997745,27.140456 C 18.528582,18.264221 13.291696,25.230495 11.500037,31.436501 z"
             style="fill:#404040;"/>
          </a>
         </g>
        </svg>
</svg>
