<?xml version="1.0" encoding="UTF-8" standalone="no"?>
<!DOCTYPE svg PUBLIC "-//W3C//DTD SVG 1.1//EN"
 "http://www.w3.org/Graphics/SVG/1.1/DTD/svg11.dtd">
<!-- Generated by graphviz version 2.36.0 (20140111.2315)
 -->
<!-- Title: UDPHeaderCalculateChecksum Pages: 1 -->
<svg width="1162pt" height="104pt"
 viewBox="0.00 0.00 1162.00 104.00" xmlns="http://www.w3.org/2000/svg" xmlns:xlink="http://www.w3.org/1999/xlink">
<g id="graph0" class="graph" transform="scale(1 1) rotate(0) translate(4 100)">
<title>UDPHeaderCalculateChecksum</title>
<!-- Node1 -->
<g id="node1" class="node"><title>Node1</title>
<polygon fill="#bfbfbf" stroke="black" points="0,-57.5 0,-76.5 158,-76.5 158,-57.5 0,-57.5"/>
<text text-anchor="middle" x="79" y="-64.5" font-family="Helvetica,sans-Serif" font-size="10.00">UDPHeaderCalculateChecksum</text>
</g>
<!-- Node2 -->
<g id="node2" class="node"><title>Node2</title>
<g id="a_node2"><a xlink:href="../../d5/dc5/group__CIP__CALLBACK__API.html#gad0abf9de45d75f3548e1eecfa3eac96b" target="_top" xlink:title="Create a producing or consuming UDP socket. ">
<polygon fill="none" stroke="black" points="194,-57.5 194,-76.5 272,-76.5 272,-57.5 194,-57.5"/>
<text text-anchor="middle" x="233" y="-64.5" font-family="Helvetica,sans-Serif" font-size="10.00">SendUdpData</text>
</a>
</g>
</g>
<!-- Node1&#45;&gt;Node2 -->
<g id="edge1" class="edge"><title>Node1&#45;&gt;Node2</title>
<path fill="none" stroke="midnightblue" d="M168.326,-67C177.208,-67 185.86,-67 193.777,-67"/>
<polygon fill="midnightblue" stroke="midnightblue" points="168.226,-63.5001 158.226,-67 168.226,-70.5001 168.226,-63.5001"/>
</g>
<!-- Node3 -->
<g id="node3" class="node"><title>Node3</title>
<g id="a_node3"><a xlink:href="../../df/d03/cipioconnection_8c.html#a20f1bc1c4cc4470cf371f94d51814de2" target="_top" xlink:title="Send the data from the produced CIP Object of the connection via the socket of the connection object ...">
<polygon fill="none" stroke="black" points="333.5,-76.5 333.5,-95.5 440.5,-95.5 440.5,-76.5 333.5,-76.5"/>
<text text-anchor="middle" x="387" y="-83.5" font-family="Helvetica,sans-Serif" font-size="10.00">SendConnectedData</text>
</a>
</g>
</g>
<!-- Node2&#45;&gt;Node3 -->
<g id="edge2" class="edge"><title>Node2&#45;&gt;Node3</title>
<path fill="none" stroke="midnightblue" d="M282.659,-73.0824C298.811,-75.1013 316.863,-77.3579 333.304,-79.413"/>
<polygon fill="midnightblue" stroke="midnightblue" points="282.713,-69.562 272.356,-71.7945 281.845,-76.5079 282.713,-69.562"/>
</g>
<!-- Node9 -->
<g id="node9" class="node"><title>Node9</title>
<g id="a_node9"><a xlink:href="../../d4/d91/group__ENCAP.html#ga3b9c0d7d9d1413e4cd8ca5634b4bc9ac" target="_top" xlink:title="Handle delayed encapsulation message responses. ">
<polygon fill="none" stroke="black" points="308,-38.5 308,-57.5 466,-57.5 466,-38.5 308,-38.5"/>
<text text-anchor="middle" x="387" y="-45.5" font-family="Helvetica,sans-Serif" font-size="10.00">ManageEncapsulationMessages</text>
</a>
</g>
</g>
<!-- Node2&#45;&gt;Node9 -->
<g id="edge8" class="edge"><title>Node2&#45;&gt;Node9</title>
<path fill="none" stroke="midnightblue" d="M282.33,-60.9588C291.076,-59.8654 300.389,-58.7014 309.708,-57.5365"/>
<polygon fill="midnightblue" stroke="midnightblue" points="281.845,-57.4921 272.356,-62.2055 282.713,-64.438 281.845,-57.4921"/>
</g>
<!-- Node4 -->
<g id="node4" class="node"><title>Node4</title>
<g id="a_node4"><a xlink:href="../../df/d03/cipioconnection_8c.html#ab3282f146a3ea91c90cf14c32206ee8c" target="_top" xlink:title="SetIoConnectionCallbacks">
<polygon fill="none" stroke="black" points="502.5,-76.5 502.5,-95.5 635.5,-95.5 635.5,-76.5 502.5,-76.5"/>
<text text-anchor="middle" x="569" y="-83.5" font-family="Helvetica,sans-Serif" font-size="10.00">SetIoConnectionCallbacks</text>
</a>
</g>
</g>
<!-- Node3&#45;&gt;Node4 -->
<g id="edge3" class="edge"><title>Node3&#45;&gt;Node4</title>
<path fill="none" stroke="midnightblue" d="M450.724,-86C467.392,-86 485.438,-86 502.262,-86"/>
<polygon fill="midnightblue" stroke="midnightblue" points="450.547,-82.5001 440.547,-86 450.547,-89.5001 450.547,-82.5001"/>
</g>
<!-- Node5 -->
<g id="node5" class="node"><title>Node5</title>
<g id="a_node5"><a xlink:href="../../de/d45/cipioconnection_8h.html#a43e270b3f9b9f6296b12285c320c95aa" target="_top" xlink:title="Setup all data in order to establish an IO connection. ">
<polygon fill="none" stroke="black" points="687.5,-76.5 687.5,-95.5 802.5,-95.5 802.5,-76.5 687.5,-76.5"/>
<text text-anchor="middle" x="745" y="-83.5" font-family="Helvetica,sans-Serif" font-size="10.00">EstablishIoConnection</text>
</a>
</g>
</g>
<!-- Node4&#45;&gt;Node5 -->
<g id="edge4" class="edge"><title>Node4&#45;&gt;Node5</title>
<path fill="none" stroke="midnightblue" d="M645.816,-86C659.72,-86 674.011,-86 687.237,-86"/>
<polygon fill="midnightblue" stroke="midnightblue" points="645.782,-82.5001 635.782,-86 645.782,-89.5001 645.782,-82.5001"/>
</g>
<!-- Node6 -->
<g id="node6" class="node"><title>Node6</title>
<g id="a_node6"><a xlink:href="../../d2/da3/cipconnectionmanager_8h.html#a5ab0de6894d23e8fe84a6b46797c2212" target="_top" xlink:title="Initialize the data of the connection manager object. ">
<polygon fill="none" stroke="black" points="854.5,-76.5 854.5,-95.5 971.5,-95.5 971.5,-76.5 854.5,-76.5"/>
<text text-anchor="middle" x="913" y="-83.5" font-family="Helvetica,sans-Serif" font-size="10.00">ConnectionManagerInit</text>
</a>
</g>
</g>
<!-- Node5&#45;&gt;Node6 -->
<g id="edge5" class="edge"><title>Node5&#45;&gt;Node6</title>
<path fill="none" stroke="midnightblue" d="M813.022,-86C826.756,-86 841.098,-86 854.463,-86"/>
<polygon fill="midnightblue" stroke="midnightblue" points="812.664,-82.5001 802.663,-86 812.663,-89.5001 812.664,-82.5001"/>
</g>
<!-- Node7 -->
<g id="node7" class="node"><title>Node7</title>
<g id="a_node7"><a xlink:href="../../d2/dc9/group__CIP__API.html#ga5d4979945d124e28668b264c3823db1c" target="_top" xlink:title="Initialize and setup the CIP&#45;stack. ">
<polygon fill="none" stroke="black" points="1008.5,-76.5 1008.5,-95.5 1079.5,-95.5 1079.5,-76.5 1008.5,-76.5"/>
<text text-anchor="middle" x="1044" y="-83.5" font-family="Helvetica,sans-Serif" font-size="10.00">CipStackInit</text>
</a>
</g>
</g>
<!-- Node6&#45;&gt;Node7 -->
<g id="edge6" class="edge"><title>Node6&#45;&gt;Node7</title>
<path fill="none" stroke="midnightblue" d="M981.982,-86C991.081,-86 1000.09,-86 1008.27,-86"/>
<polygon fill="midnightblue" stroke="midnightblue" points="981.709,-82.5001 971.708,-86 981.708,-89.5001 981.709,-82.5001"/>
</g>
<!-- Node8 -->
<g id="node8" class="node"><title>Node8</title>
<g id="a_node8"><a xlink:href="../../d5/dcb/MINGW_2main_8c.html#ad338a7dbc41dc40bcecd0479377ef207" target="_top" xlink:title="main">
<polygon fill="none" stroke="black" points="1116,-57.5 1116,-76.5 1154,-76.5 1154,-57.5 1116,-57.5"/>
<text text-anchor="middle" x="1135" y="-64.5" font-family="Helvetica,sans-Serif" font-size="10.00">main</text>
</a>
</g>
</g>
<!-- Node7&#45;&gt;Node8 -->
<g id="edge7" class="edge"><title>Node7&#45;&gt;Node8</title>
<path fill="none" stroke="midnightblue" d="M1089.61,-76.4757C1098.85,-74.504 1108.08,-72.5336 1115.71,-70.9044"/>
<polygon fill="midnightblue" stroke="midnightblue" points="1088.71,-73.089 1079.66,-78.5997 1090.17,-79.9347 1088.71,-73.089"/>
</g>
<!-- Node10 -->
<g id="node10" class="node"><title>Node10</title>
<g id="a_node10"><a xlink:href="../../d2/dc9/group__CIP__API.html#ga9f57b09260efb5bfb188b9d0ca0c6091" target="_top" xlink:title="Check if any of the connection timers (TransmissionTrigger or WatchdogTimeout) have timed out...">
<polygon fill="none" stroke="black" points="516,-38.5 516,-57.5 622,-57.5 622,-38.5 516,-38.5"/>
<text text-anchor="middle" x="569" y="-45.5" font-family="Helvetica,sans-Serif" font-size="10.00">ManageConnections</text>
</a>
</g>
</g>
<!-- Node9&#45;&gt;Node10 -->
<g id="edge9" class="edge"><title>Node9&#45;&gt;Node10</title>
<path fill="none" stroke="midnightblue" d="M476.448,-48C489.932,-48 503.463,-48 515.829,-48"/>
<polygon fill="midnightblue" stroke="midnightblue" points="476.165,-44.5001 466.165,-48 476.165,-51.5001 476.165,-44.5001"/>
</g>
<!-- Node11 -->
<g id="node11" class="node"><title>Node11</title>
<g id="a_node11"><a xlink:href="../../da/dc2/generic__networkhandler_8h.html#a2f01af81d3e5018d9980e2bc28c9078a" target="_top" xlink:title="NetworkHandlerProcessOnce">
<polygon fill="none" stroke="black" points="672,-38.5 672,-57.5 818,-57.5 818,-38.5 672,-38.5"/>
<text text-anchor="middle" x="745" y="-45.5" font-family="Helvetica,sans-Serif" font-size="10.00">NetworkHandlerProcessOnce</text>
</a>
</g>
</g>
<!-- Node10&#45;&gt;Node11 -->
<g id="edge10" class="edge"><title>Node10&#45;&gt;Node11</title>
<path fill="none" stroke="midnightblue" d="M632.303,-48C645.132,-48 658.742,-48 671.885,-48"/>
<polygon fill="midnightblue" stroke="midnightblue" points="632.206,-44.5001 622.206,-48 632.206,-51.5001 632.206,-44.5001"/>
</g>
<!-- Node11&#45;&gt;Node8 -->
<g id="edge13" class="edge"><title>Node11&#45;&gt;Node8</title>
<path fill="none" stroke="midnightblue" d="M828.282,-52.0292C921.085,-56.5737 1065.63,-63.652 1115.98,-66.1176"/>
<polygon fill="midnightblue" stroke="midnightblue" points="828.23,-48.5226 818.071,-51.5292 827.887,-55.5142 828.23,-48.5226"/>
</g>
<!-- Node12 -->
<g id="node12" class="node"><title>Node12</title>
<g id="a_node12"><a xlink:href="../../d9/dfb/POSIX_2main_8c.html#a14982bc20347a462f767f58c18142919" target="_top" xlink:title="Signal handler function for ending stack execution. ">
<polygon fill="none" stroke="black" points="864,-0.5 864,-19.5 962,-19.5 962,-0.5 864,-0.5"/>
<text text-anchor="middle" x="913" y="-7.5" font-family="Helvetica,sans-Serif" font-size="10.00">executeEventLoop</text>
</a>
</g>
</g>
<!-- Node11&#45;&gt;Node12 -->
<g id="edge11" class="edge"><title>Node11&#45;&gt;Node12</title>
<path fill="none" stroke="midnightblue" d="M797.653,-36.1757C821.056,-30.8184 848.357,-24.5689 870.412,-19.5201"/>
<polygon fill="midnightblue" stroke="midnightblue" points="796.856,-32.7677 787.889,-38.411 798.418,-39.5912 796.856,-32.7677"/>
</g>
<!-- Node13 -->
<g id="node13" class="node"><title>Node13</title>
<g id="a_node13"><a xlink:href="../../d9/dfb/POSIX_2main_8c.html#ad338a7dbc41dc40bcecd0479377ef207" target="_top" xlink:title="main">
<polygon fill="none" stroke="black" points="1025,-0.5 1025,-19.5 1063,-19.5 1063,-0.5 1025,-0.5"/>
<text text-anchor="middle" x="1044" y="-7.5" font-family="Helvetica,sans-Serif" font-size="10.00">main</text>
</a>
</g>
</g>
<!-- Node12&#45;&gt;Node13 -->
<g id="edge12" class="edge"><title>Node12&#45;&gt;Node13</title>
<path fill="none" stroke="midnightblue" d="M972.203,-10C991.268,-10 1011.07,-10 1024.87,-10"/>
<polygon fill="midnightblue" stroke="midnightblue" points="972.035,-6.5001 962.035,-10 972.035,-13.5001 972.035,-6.5001"/>
</g>
</g>
</svg>
