<?xml version="1.0" encoding="UTF-8" standalone="no"?>
<!DOCTYPE svg PUBLIC "-//W3C//DTD SVG 1.1//EN"
 "http://www.w3.org/Graphics/SVG/1.1/DTD/svg11.dtd">
<!-- Generated by graphviz version 2.38.0 (20140413.2041)
 -->
<!-- Title: ConnectionObjectGetOToTConnectionType Pages: 1 -->
<!--zoomable 224 -->
<svg id="main" version="1.1" xmlns="http://www.w3.org/2000/svg" xmlns:xlink="http://www.w3.org/1999/xlink" xml:space="preserve" onload="init(evt)">
<style type="text/css"><![CDATA[
.edge:hover path { stroke: red; }
.edge:hover polygon { stroke: red; fill: red; }
]]></style>
<script type="text/javascript"><![CDATA[
var edges = document.getElementsByTagName('g');
if (edges && edges.length) {
  for (var i=0;i<edges.length;i++) {
    if (edges[i].id.substr(0,4)=='edge') {
      edges[i].setAttribute('class','edge');
    }
  }
}
]]></script>
        <defs>
                <circle id="rim" cx="0" cy="0" r="7"/>
                <circle id="rim2" cx="0" cy="0" r="3.5"/>
                <g id="zoomPlus">
                        <use xlink:href="#rim" fill="#404040">
                                <set attributeName="fill" to="#808080" begin="zoomplus.mouseover" end="zoomplus.mouseout"/>
                        </use>
                        <path d="M-4,0h8M0,-4v8" fill="none" stroke="white" stroke-width="1.5" pointer-events="none"/>
                </g>
                <g id="zoomMin">
                        <use xlink:href="#rim" fill="#404040">
                                <set attributeName="fill" to="#808080" begin="zoomminus.mouseover" end="zoomminus.mouseout"/>
                        </use>
                        <path d="M-4,0h8" fill="none" stroke="white" stroke-width="1.5" pointer-events="none"/>
                </g>
                <g id="dirArrow">
                        <path fill="none" stroke="white" stroke-width="1.5" d="M0,-3.0v7 M-2.5,-0.5L0,-3.0L2.5,-0.5"/>
                </g>
               <g id="resetDef">
                       <use xlink:href="#rim2" fill="#404040">
                               <set attributeName="fill" to="#808080" begin="reset.mouseover" end="reset.mouseout"/>
                       </use>
               </g>
        </defs>

<script type="text/javascript">
var viewWidth = 1403;
var viewHeight = 224;
var sectionId = 'dynsection-16';
</script>
<script xlink:href="../../svgpan.js"/>
<svg id="graph" class="graph">
<g id="viewport">
<title>ConnectionObjectGetOToTConnectionType</title>
<!-- Node1 -->
<g id="node1" class="node"><title>Node1</title>
<polygon fill="#bfbfbf" stroke="black" points="0,-120 0,-139 206,-139 206,-120 0,-120"/>
<text text-anchor="middle" x="103" y="-127" font-family="Helvetica,sans-Serif" font-size="10.00">ConnectionObjectGetOToTConnectionType</text>
</g>
<!-- Node2 -->
<g id="node2" class="node"><title>Node2</title>
<g id="a_node2"><a xlink:href="../../d1/d6c/cipconnectionobject_8h.html#a65b85bb4b72c902af06e054e24d6292c" target="_top" xlink:title="Generate the ConnectionIDs and set the general configuration parameter in the given connection object...">
<polygon fill="none" stroke="black" points="242,-196 242,-215 428,-215 428,-196 242,-196"/>
<text text-anchor="middle" x="335" y="-203" font-family="Helvetica,sans-Serif" font-size="10.00">ConnectionObjectGeneralConfiguration</text>
</a>
</g>
</g>
<!-- Node1&#45;&gt;Node2 -->
<g id="edge1" class="edge"><title>Node1&#45;&gt;Node2</title>
<path fill="none" stroke="midnightblue" d="M136.77,-142.963C164.518,-154.092 205.492,-169.895 242,-181.5 258.675,-186.8 277.314,-191.826 293.432,-195.896"/>
<polygon fill="midnightblue" stroke="midnightblue" points="137.761,-139.588 127.178,-139.09 135.14,-146.079 137.761,-139.588"/>
</g>
<!-- Node9 -->
<g id="node9" class="node"><title>Node9</title>
<g id="a_node9"><a xlink:href="../../de/d45/cipioconnection_8h.html#a43e270b3f9b9f6296b12285c320c95aa" target="_top" xlink:title="Setup all data in order to establish an IO connection. ">
<polygon fill="none" stroke="black" points="476.5,-158 476.5,-177 591.5,-177 591.5,-158 476.5,-158"/>
<text text-anchor="middle" x="534" y="-165" font-family="Helvetica,sans-Serif" font-size="10.00">EstablishIoConnection</text>
</a>
</g>
</g>
<!-- Node1&#45;&gt;Node9 -->
<g id="edge10" class="edge"><title>Node1&#45;&gt;Node9</title>
<path fill="none" stroke="midnightblue" d="M175.971,-140.402C197.199,-143.349 220.502,-146.321 242,-148.5 323.222,-156.732 417.578,-162.132 476.298,-165.002"/>
<polygon fill="midnightblue" stroke="midnightblue" points="176.447,-136.934 166.057,-139.007 175.472,-143.866 176.447,-136.934"/>
</g>
<!-- Node10 -->
<g id="node10" class="node"><title>Node10</title>
<g id="a_node10"><a xlink:href="../../d5/d35/cipconnectionmanager_8c.html#a33a14c8e6fffa6b91e839167cc39319b" target="_top" xlink:title="Check if resources for new connection available, generate ForwardOpen Reply message. ">
<polygon fill="none" stroke="black" points="496.5,-104 496.5,-123 571.5,-123 571.5,-104 496.5,-104"/>
<text text-anchor="middle" x="534" y="-111" font-family="Helvetica,sans-Serif" font-size="10.00">ForwardOpen</text>
</a>
</g>
</g>
<!-- Node1&#45;&gt;Node10 -->
<g id="edge11" class="edge"><title>Node1&#45;&gt;Node10</title>
<path fill="none" stroke="midnightblue" d="M170.404,-118.485C193.05,-115.228 218.566,-112.106 242,-110.5 324.473,-104.849 345.342,-109.319 428,-110.5 450.611,-110.823 475.953,-111.537 496.075,-112.187"/>
<polygon fill="midnightblue" stroke="midnightblue" points="169.602,-115.065 160.219,-119.986 170.623,-121.99 169.602,-115.065"/>
</g>
<!-- Node11 -->
<g id="node11" class="node"><title>Node11</title>
<g id="a_node11"><a xlink:href="../../de/d45/cipioconnection_8h.html#a53b85bce88b582414fc282c95f5626f4" target="_top" xlink:title="Take the data given in the connection object structure and open the necessary communication channels...">
<polygon fill="none" stroke="black" points="260.5,-120 260.5,-139 409.5,-139 409.5,-120 260.5,-120"/>
<text text-anchor="middle" x="335" y="-127" font-family="Helvetica,sans-Serif" font-size="10.00">OpenCommunicationChannels</text>
</a>
</g>
</g>
<!-- Node1&#45;&gt;Node11 -->
<g id="edge13" class="edge"><title>Node1&#45;&gt;Node11</title>
<path fill="none" stroke="midnightblue" d="M216.512,-129.5C231.408,-129.5 246.36,-129.5 260.367,-129.5"/>
<polygon fill="midnightblue" stroke="midnightblue" points="216.221,-126 206.221,-129.5 216.221,-133 216.221,-126"/>
</g>
<!-- Node12 -->
<g id="node12" class="node"><title>Node12</title>
<g id="a_node12"><a xlink:href="../../d5/d35/cipconnectionmanager_8c.html#ad7b34359aea58ef8d4e77008ea53098f" target="_top" xlink:title="Parse the connection path of a forward open request. ">
<polygon fill="none" stroke="black" points="279,-44 279,-63 391,-63 391,-44 279,-44"/>
<text text-anchor="middle" x="335" y="-51" font-family="Helvetica,sans-Serif" font-size="10.00">ParseConnectionPath</text>
</a>
</g>
</g>
<!-- Node1&#45;&gt;Node12 -->
<g id="edge15" class="edge"><title>Node1&#45;&gt;Node12</title>
<path fill="none" stroke="midnightblue" d="M136.77,-116.037C164.518,-104.908 205.492,-89.1049 242,-77.5 258.675,-72.1995 277.314,-67.1737 293.432,-63.1039"/>
<polygon fill="midnightblue" stroke="midnightblue" points="135.14,-112.921 127.178,-119.91 137.761,-119.412 135.14,-112.921"/>
</g>
<!-- Node3 -->
<g id="node3" class="node"><title>Node3</title>
<g id="a_node3"><a xlink:href="../../d2/d11/cipclass3connection_8h.html#a45bd741b44137164c07a6ce09a7a9a9d" target="_top" xlink:title="Check if Class3 connection is available and if yes setup all data. ">
<polygon fill="none" stroke="black" points="465.5,-196 465.5,-215 602.5,-215 602.5,-196 465.5,-196"/>
<text text-anchor="middle" x="534" y="-203" font-family="Helvetica,sans-Serif" font-size="10.00">EstablishClass3Connection</text>
</a>
</g>
</g>
<!-- Node2&#45;&gt;Node3 -->
<g id="edge2" class="edge"><title>Node2&#45;&gt;Node3</title>
<path fill="none" stroke="midnightblue" d="M438.438,-205.5C447.543,-205.5 456.603,-205.5 465.306,-205.5"/>
<polygon fill="midnightblue" stroke="midnightblue" points="438.155,-202 428.155,-205.5 438.155,-209 438.155,-202"/>
</g>
<!-- Node2&#45;&gt;Node9 -->
<g id="edge8" class="edge"><title>Node2&#45;&gt;Node9</title>
<path fill="none" stroke="midnightblue" d="M395.564,-194.011C423.672,-188.589 456.822,-182.194 483.523,-177.044"/>
<polygon fill="midnightblue" stroke="midnightblue" points="394.613,-190.629 385.457,-195.96 395.939,-197.503 394.613,-190.629"/>
</g>
<!-- Node4 -->
<g id="node4" class="node"><title>Node4</title>
<g id="a_node4"><a xlink:href="../../d2/da3/cipconnectionmanager_8h.html#a5ab0de6894d23e8fe84a6b46797c2212" target="_top" xlink:title="Initialize the data of the connection manager object. ">
<polygon fill="none" stroke="black" points="660.5,-158 660.5,-177 777.5,-177 777.5,-158 660.5,-158"/>
<text text-anchor="middle" x="719" y="-165" font-family="Helvetica,sans-Serif" font-size="10.00">ConnectionManagerInit</text>
</a>
</g>
</g>
<!-- Node3&#45;&gt;Node4 -->
<g id="edge3" class="edge"><title>Node3&#45;&gt;Node4</title>
<path fill="none" stroke="midnightblue" d="M591.253,-193.819C617.205,-188.43 647.622,-182.114 672.153,-177.02"/>
<polygon fill="midnightblue" stroke="midnightblue" points="590.258,-190.451 581.179,-195.911 591.681,-197.305 590.258,-190.451"/>
</g>
<!-- Node5 -->
<g id="node5" class="node"><title>Node5</title>
<g id="a_node5"><a xlink:href="../../d2/dc9/group__CIP__API.html#ga5d4979945d124e28668b264c3823db1c" target="_top" xlink:title="Initialize and setup the CIP&#45;stack. ">
<polygon fill="none" stroke="black" points="868.5,-158 868.5,-177 939.5,-177 939.5,-158 868.5,-158"/>
<text text-anchor="middle" x="904" y="-165" font-family="Helvetica,sans-Serif" font-size="10.00">CipStackInit</text>
</a>
</g>
</g>
<!-- Node4&#45;&gt;Node5 -->
<g id="edge4" class="edge"><title>Node4&#45;&gt;Node5</title>
<path fill="none" stroke="midnightblue" d="M787.955,-167.5C815.28,-167.5 845.612,-167.5 868.268,-167.5"/>
<polygon fill="midnightblue" stroke="midnightblue" points="787.651,-164 777.651,-167.5 787.651,-171 787.651,-164"/>
</g>
<!-- Node6 -->
<g id="node6" class="node"><title>Node6</title>
<g id="a_node6"><a xlink:href="../../d5/dcb/MINGW_2main_8c.html#ad338a7dbc41dc40bcecd0479377ef207" target="_top" xlink:title="main">
<polygon fill="none" stroke="black" points="1070,-158 1070,-177 1108,-177 1108,-158 1070,-158"/>
<text text-anchor="middle" x="1089" y="-165" font-family="Helvetica,sans-Serif" font-size="10.00">main</text>
</a>
</g>
</g>
<!-- Node5&#45;&gt;Node6 -->
<g id="edge5" class="edge"><title>Node5&#45;&gt;Node6</title>
<path fill="none" stroke="midnightblue" d="M950.313,-167.5C988.921,-167.5 1042.4,-167.5 1069.97,-167.5"/>
<polygon fill="midnightblue" stroke="midnightblue" points="949.852,-164 939.852,-167.5 949.852,-171 949.852,-164"/>
</g>
<!-- Node7 -->
<g id="node7" class="node"><title>Node7</title>
<g id="a_node7"><a xlink:href="../../d8/d03/ports_2MINGW_2CMakeLists_8txt.html#a7e00df43a20d627a1732be7766d91097" target="_top" xlink:title="add_library">
<polygon fill="none" stroke="black" points="1204,-158 1204,-177 1268,-177 1268,-158 1204,-158"/>
<text text-anchor="middle" x="1236" y="-165" font-family="Helvetica,sans-Serif" font-size="10.00">add_library</text>
</a>
</g>
</g>
<!-- Node6&#45;&gt;Node7 -->
<g id="edge6" class="edge"><title>Node6&#45;&gt;Node7</title>
<path fill="none" stroke="midnightblue" d="M1118.21,-167.5C1142.85,-167.5 1178.55,-167.5 1203.99,-167.5"/>
<polygon fill="midnightblue" stroke="midnightblue" points="1118.07,-164 1108.07,-167.5 1118.07,-171 1118.07,-164"/>
</g>
<!-- Node8 -->
<g id="node8" class="node"><title>Node8</title>
<g id="a_node8"><a xlink:href="../../d8/dce/ports_2CMakeLists_8txt.html#a598fae457555a5fb26e18d4cd8f89de9" target="_top" xlink:title="add_subdirectory">
<polygon fill="none" stroke="black" points="1304,-158 1304,-177 1395,-177 1395,-158 1304,-158"/>
<text text-anchor="middle" x="1349.5" y="-165" font-family="Helvetica,sans-Serif" font-size="10.00">add_subdirectory</text>
</a>
</g>
</g>
<!-- Node7&#45;&gt;Node8 -->
<g id="edge7" class="edge"><title>Node7&#45;&gt;Node8</title>
<path fill="none" stroke="midnightblue" d="M1278.3,-167.5C1286.63,-167.5 1295.42,-167.5 1303.86,-167.5"/>
<polygon fill="midnightblue" stroke="midnightblue" points="1278.06,-164 1268.06,-167.5 1278.06,-171 1278.06,-164"/>
</g>
<!-- Node9&#45;&gt;Node4 -->
<g id="edge9" class="edge"><title>Node9&#45;&gt;Node4</title>
<path fill="none" stroke="midnightblue" d="M602.017,-167.5C621.096,-167.5 641.709,-167.5 660.19,-167.5"/>
<polygon fill="midnightblue" stroke="midnightblue" points="601.899,-164 591.899,-167.5 601.899,-171 601.899,-164"/>
</g>
<!-- Node10&#45;&gt;Node4 -->
<g id="edge12" class="edge"><title>Node10&#45;&gt;Node4</title>
<path fill="none" stroke="midnightblue" d="M577.129,-125.932C610.182,-135.685 655.504,-149.059 685.72,-157.975"/>
<polygon fill="midnightblue" stroke="midnightblue" points="577.877,-122.503 567.295,-123.03 575.896,-129.217 577.877,-122.503"/>
</g>
<!-- Node11&#45;&gt;Node9 -->
<g id="edge14" class="edge"><title>Node11&#45;&gt;Node9</title>
<path fill="none" stroke="midnightblue" d="M395.564,-140.989C423.672,-146.411 456.822,-152.806 483.523,-157.956"/>
<polygon fill="midnightblue" stroke="midnightblue" points="395.939,-137.497 385.457,-139.04 394.613,-144.371 395.939,-137.497"/>
</g>
<!-- Node13 -->
<g id="node13" class="node"><title>Node13</title>
<g id="a_node13"><a xlink:href="../../d5/d35/cipconnectionmanager_8c.html#af379a4b383c738a07d8e1ab0a4ac7510" target="_top" xlink:title="Handles a Non Null Non Matching Forward Open Request. ">
<polygon fill="none" stroke="black" points="464,-38.5 464,-68.5 604,-68.5 604,-38.5 464,-38.5"/>
<text text-anchor="start" x="472" y="-56.5" font-family="Helvetica,sans-Serif" font-size="10.00">HandleNonNullNonMatching</text>
<text text-anchor="middle" x="534" y="-45.5" font-family="Helvetica,sans-Serif" font-size="10.00">ForwardOpenRequest</text>
</a>
</g>
</g>
<!-- Node12&#45;&gt;Node13 -->
<g id="edge16" class="edge"><title>Node12&#45;&gt;Node13</title>
<path fill="none" stroke="midnightblue" d="M401.403,-53.5C421.434,-53.5 443.531,-53.5 463.806,-53.5"/>
<polygon fill="midnightblue" stroke="midnightblue" points="401.137,-50.0001 391.137,-53.5 401.137,-57.0001 401.137,-50.0001"/>
</g>
<!-- Node14 -->
<g id="node14" class="node"><title>Node14</title>
<g id="a_node14"><a xlink:href="../../d5/d35/cipconnectionmanager_8c.html#a7eaeec6cc54d1799cfaba4031f0168d1" target="_top" xlink:title="Handles a Non Null Matching Forward Open Request. ">
<polygon fill="none" stroke="black" points="640,-60.5 640,-90.5 798,-90.5 798,-60.5 640,-60.5"/>
<text text-anchor="start" x="648" y="-78.5" font-family="Helvetica,sans-Serif" font-size="10.00">HandleNonNullMatchingForward</text>
<text text-anchor="middle" x="719" y="-67.5" font-family="Helvetica,sans-Serif" font-size="10.00">OpenRequest</text>
</a>
</g>
</g>
<!-- Node13&#45;&gt;Node14 -->
<g id="edge17" class="edge"><title>Node13&#45;&gt;Node14</title>
<path fill="none" stroke="midnightblue" d="M614.327,-56.3399C625.467,-57.5809 636.852,-58.987 647.806,-60.4767"/>
<polygon fill="midnightblue" stroke="midnightblue" points="614.501,-52.8386 604.184,-55.2489 613.753,-59.7985 614.501,-52.8386"/>
</g>
<!-- Node14&#45;&gt;Node13 -->
<g id="edge18" class="edge"><title>Node14&#45;&gt;Node13</title>
<path fill="none" stroke="midnightblue" d="M629.774,-71.6398C621.182,-70.627 612.551,-69.5301 604.184,-68.3856"/>
<polygon fill="midnightblue" stroke="midnightblue" points="629.493,-75.1303 639.825,-72.7879 630.287,-68.1755 629.493,-75.1303"/>
</g>
<!-- Node15 -->
<g id="node15" class="node"><title>Node15</title>
<g id="a_node15"><a xlink:href="../../d5/d35/cipconnectionmanager_8c.html#a8da18334cfde58434b845b0968620811" target="_top" xlink:title="Handles a Null Matching Forward Open request. ">
<polygon fill="none" stroke="black" points="834,-22.5 834,-52.5 974,-52.5 974,-22.5 834,-22.5"/>
<text text-anchor="start" x="842" y="-40.5" font-family="Helvetica,sans-Serif" font-size="10.00">HandleNullMatchingForward</text>
<text text-anchor="middle" x="904" y="-29.5" font-family="Helvetica,sans-Serif" font-size="10.00">OpenRequest</text>
</a>
</g>
</g>
<!-- Node14&#45;&gt;Node15 -->
<g id="edge19" class="edge"><title>Node14&#45;&gt;Node15</title>
<path fill="none" stroke="midnightblue" d="M802.358,-58.3984C812.892,-56.2109 823.59,-53.9895 833.885,-51.8518"/>
<polygon fill="midnightblue" stroke="midnightblue" points="801.406,-55.0213 792.326,-60.4814 802.829,-61.8751 801.406,-55.0213"/>
</g>
<!-- Node15&#45;&gt;Node13 -->
<g id="edge20" class="edge"><title>Node15&#45;&gt;Node13</title>
<path fill="none" stroke="midnightblue" d="M823.53,-40.9552C758.203,-43.7955 666.571,-47.7795 604.218,-50.4905"/>
<polygon fill="midnightblue" stroke="midnightblue" points="823.942,-44.4407 833.78,-40.5096 823.638,-37.4473 823.942,-44.4407"/>
</g>
<!-- Node16 -->
<g id="node16" class="node"><title>Node16</title>
<g id="a_node16"><a xlink:href="../../d5/d35/cipconnectionmanager_8c.html#ad68060facbfe52b38428a40da630651b" target="_top" xlink:title="Handles a Null Non Matching Forward Open Request. ">
<polygon fill="none" stroke="black" points="1010,-0.5 1010,-30.5 1168,-30.5 1168,-0.5 1010,-0.5"/>
<text text-anchor="start" x="1018" y="-18.5" font-family="Helvetica,sans-Serif" font-size="10.00">HandleNullNonMatchingForward</text>
<text text-anchor="middle" x="1089" y="-7.5" font-family="Helvetica,sans-Serif" font-size="10.00">OpenRequest</text>
</a>
</g>
</g>
<!-- Node15&#45;&gt;Node16 -->
<g id="edge21" class="edge"><title>Node15&#45;&gt;Node16</title>
<path fill="none" stroke="midnightblue" d="M984.387,-27.9562C992.825,-26.9418 1001.4,-25.9107 1009.83,-24.898"/>
<polygon fill="midnightblue" stroke="midnightblue" points="983.695,-24.5141 974.184,-29.1827 984.531,-31.464 983.695,-24.5141"/>
</g>
<!-- Node16&#45;&gt;Node13 -->
<g id="edge22" class="edge"><title>Node16&#45;&gt;Node13</title>
<path fill="none" stroke="midnightblue" d="M999.658,-12.9457C990.989,-12.764 982.324,-12.6095 974,-12.5 911.783,-11.6815 896.084,-8.35823 834,-12.5 747.2,-18.2906 726.171,-26.5708 640,-38.5 628.417,-40.1034 616.121,-41.8343 604.176,-43.5308"/>
<polygon fill="midnightblue" stroke="midnightblue" points="999.742,-16.4483 1009.82,-13.1704 999.897,-9.45 999.742,-16.4483"/>
</g>
</g>
</svg>
        <g id="navigator" transform="translate(0 0)" fill="#404254">
                <rect fill="#f2f5e9" fill-opacity="0.5" stroke="#606060" stroke-width=".5" x="0" y="0" width="60" height="60"/>
                <use id="zoomplus" xlink:href="#zoomPlus" x="17" y="9" onmousedown="handleZoom(evt,'in')"/>
                <use id="zoomminus" xlink:href="#zoomMin" x="42" y="9" onmousedown="handleZoom(evt,'out')"/>
                <use id="reset" xlink:href="#resetDef" x="30" y="36" onmousedown="handleReset()"/>
                <g id="arrowUp" xlink:href="#dirArrow" transform="translate(30 24)" onmousedown="handlePan(0,-1)">
                  <use xlink:href="#rim" fill="#404040">
                        <set attributeName="fill" to="#808080" begin="arrowUp.mouseover" end="arrowUp.mouseout"/>
                  </use>
                  <path fill="none" stroke="white" stroke-width="1.5" d="M0,-3.0v7 M-2.5,-0.5L0,-3.0L2.5,-0.5"/>
                </g>
                <g id="arrowRight" xlink:href="#dirArrow" transform="rotate(90) translate(36 -43)" onmousedown="handlePan(1,0)">
                  <use xlink:href="#rim" fill="#404040">
                        <set attributeName="fill" to="#808080" begin="arrowRight.mouseover" end="arrowRight.mouseout"/>
                  </use>
                  <path fill="none" stroke="white" stroke-width="1.5" d="M0,-3.0v7 M-2.5,-0.5L0,-3.0L2.5,-0.5"/>
                </g>
                <g id="arrowDown" xlink:href="#dirArrow" transform="rotate(180) translate(-30 -48)" onmousedown="handlePan(0,1)">
                  <use xlink:href="#rim" fill="#404040">
                        <set attributeName="fill" to="#808080" begin="arrowDown.mouseover" end="arrowDown.mouseout"/>
                  </use>
                  <path fill="none" stroke="white" stroke-width="1.5" d="M0,-3.0v7 M-2.5,-0.5L0,-3.0L2.5,-0.5"/>
                </g>
                <g id="arrowLeft" xlink:href="#dirArrow" transform="rotate(270) translate(-36 17)" onmousedown="handlePan(-1,0)">
                  <use xlink:href="#rim" fill="#404040">
                        <set attributeName="fill" to="#808080" begin="arrowLeft.mouseover" end="arrowLeft.mouseout"/>
                  </use>
                  <path fill="none" stroke="white" stroke-width="1.5" d="M0,-3.0v7 M-2.5,-0.5L0,-3.0L2.5,-0.5"/>
                </g>
        </g>
        <svg viewBox="0 0 15 15" width="100%" height="30px" preserveAspectRatio="xMaxYMin meet">
         <g id="arrow_out" transform="scale(0.3 0.3)">
          <a xlink:href="cipconnectionobject_8h_aa896ebb7d03c6e75027402b3e0d6dc6e_icgraph_org.svg" target="_base">
           <rect id="button" ry="5" rx="5" y="6" x="6" height="38" width="38"
                fill="#f2f5e9" fill-opacity="0.5" stroke="#606060" stroke-width="1.0"/>
           <path id="arrow"
             d="M 11.500037,31.436501 C 11.940474,20.09759 22.043105,11.32322 32.158766,21.979434 L 37.068811,17.246167 C 37.068811,17.246167 37.088388,32 37.088388,32 L 22.160133,31.978069 C 22.160133,31.978069 26.997745,27.140456 26.997745,27.140456 C 18.528582,18.264221 13.291696,25.230495 11.500037,31.436501 z"
             style="fill:#404040;"/>
          </a>
         </g>
        </svg>
</svg>
