<?xml version="1.0" encoding="UTF-8" standalone="no"?>
<!DOCTYPE svg PUBLIC "-//W3C//DTD SVG 1.1//EN"
 "http://www.w3.org/Graphics/SVG/1.1/DTD/svg11.dtd">
<!-- Generated by graphviz version 2.38.0 (20140413.2041)
 -->
<!-- Title: ConnectionObjectGetTransportClassTriggerProductionTrigger Pages: 1 -->
<!--zoomable 280 -->
<svg id="main" version="1.1" xmlns="http://www.w3.org/2000/svg" xmlns:xlink="http://www.w3.org/1999/xlink" xml:space="preserve" onload="init(evt)">
<style type="text/css"><![CDATA[
.edge:hover path { stroke: red; }
.edge:hover polygon { stroke: red; fill: red; }
]]></style>
<script type="text/javascript"><![CDATA[
var edges = document.getElementsByTagName('g');
if (edges && edges.length) {
  for (var i=0;i<edges.length;i++) {
    if (edges[i].id.substr(0,4)=='edge') {
      edges[i].setAttribute('class','edge');
    }
  }
}
]]></script>
        <defs>
                <circle id="rim" cx="0" cy="0" r="7"/>
                <circle id="rim2" cx="0" cy="0" r="3.5"/>
                <g id="zoomPlus">
                        <use xlink:href="#rim" fill="#404040">
                                <set attributeName="fill" to="#808080" begin="zoomplus.mouseover" end="zoomplus.mouseout"/>
                        </use>
                        <path d="M-4,0h8M0,-4v8" fill="none" stroke="white" stroke-width="1.5" pointer-events="none"/>
                </g>
                <g id="zoomMin">
                        <use xlink:href="#rim" fill="#404040">
                                <set attributeName="fill" to="#808080" begin="zoomminus.mouseover" end="zoomminus.mouseout"/>
                        </use>
                        <path d="M-4,0h8" fill="none" stroke="white" stroke-width="1.5" pointer-events="none"/>
                </g>
                <g id="dirArrow">
                        <path fill="none" stroke="white" stroke-width="1.5" d="M0,-3.0v7 M-2.5,-0.5L0,-3.0L2.5,-0.5"/>
                </g>
               <g id="resetDef">
                       <use xlink:href="#rim2" fill="#404040">
                               <set attributeName="fill" to="#808080" begin="reset.mouseover" end="reset.mouseout"/>
                       </use>
               </g>
        </defs>

<script type="text/javascript">
var viewWidth = 1316;
var viewHeight = 280;
var sectionId = 'dynsection-22';
</script>
<script xlink:href="../../svgpan.js"/>
<svg id="graph" class="graph">
<g id="viewport">
<title>ConnectionObjectGetTransportClassTriggerProductionTrigger</title>
<!-- Node1 -->
<g id="node1" class="node"><title>Node1</title>
<polygon fill="#bfbfbf" stroke="black" points="0,-102 0,-132 152,-132 152,-102 0,-102"/>
<text text-anchor="start" x="8" y="-120" font-family="Helvetica,sans-Serif" font-size="10.00">ConnectionObjectGetTransport</text>
<text text-anchor="middle" x="76" y="-109" font-family="Helvetica,sans-Serif" font-size="10.00">ClassTriggerProductionTrigger</text>
</g>
<!-- Node2 -->
<g id="node2" class="node"><title>Node2</title>
<g id="a_node2"><a xlink:href="../../d5/d35/cipconnectionmanager_8c.html#af379a4b383c738a07d8e1ab0a4ac7510" target="_top" xlink:title="Handles a Non Null Non Matching Forward Open Request. ">
<polygon fill="none" stroke="black" points="374,-197 374,-227 514,-227 514,-197 374,-197"/>
<text text-anchor="start" x="382" y="-215" font-family="Helvetica,sans-Serif" font-size="10.00">HandleNonNullNonMatching</text>
<text text-anchor="middle" x="444" y="-204" font-family="Helvetica,sans-Serif" font-size="10.00">ForwardOpenRequest</text>
</a>
</g>
</g>
<!-- Node1&#45;&gt;Node2 -->
<g id="edge1" class="edge"><title>Node1&#45;&gt;Node2</title>
<path fill="none" stroke="midnightblue" d="M100.924,-138.991C122.1,-156.995 154.731,-181.33 188,-193 248.323,-214.16 321.466,-217.527 373.92,-216.423"/>
<polygon fill="midnightblue" stroke="midnightblue" points="102.962,-136.125 93.1213,-132.2 98.3665,-141.405 102.962,-136.125"/>
</g>
<!-- Node6 -->
<g id="node6" class="node"><title>Node6</title>
<g id="a_node6"><a xlink:href="../../d2/dc9/group__CIP__API.html#ga9f57b09260efb5bfb188b9d0ca0c6091" target="_top" xlink:title="Check if any of the connection timers (TransmissionTrigger or WatchdogTimeout) have timed out...">
<polygon fill="none" stroke="black" points="208.5,-126.5 208.5,-145.5 314.5,-145.5 314.5,-126.5 208.5,-126.5"/>
<text text-anchor="middle" x="261.5" y="-133.5" font-family="Helvetica,sans-Serif" font-size="10.00">ManageConnections</text>
</a>
</g>
</g>
<!-- Node1&#45;&gt;Node6 -->
<g id="edge8" class="edge"><title>Node1&#45;&gt;Node6</title>
<path fill="none" stroke="midnightblue" d="M162.431,-125.846C178.136,-127.472 194.09,-129.124 208.439,-130.609"/>
<polygon fill="midnightblue" stroke="midnightblue" points="162.473,-122.331 152.166,-124.783 161.752,-129.294 162.473,-122.331"/>
</g>
<!-- Node12 -->
<g id="node12" class="node"><title>Node12</title>
<g id="a_node12"><a xlink:href="../../d5/d35/cipconnectionmanager_8c.html#ad7b34359aea58ef8d4e77008ea53098f" target="_top" xlink:title="Parse the connection path of a forward open request. ">
<polygon fill="none" stroke="black" points="205.5,-164.5 205.5,-183.5 317.5,-183.5 317.5,-164.5 205.5,-164.5"/>
<text text-anchor="middle" x="261.5" y="-171.5" font-family="Helvetica,sans-Serif" font-size="10.00">ParseConnectionPath</text>
</a>
</g>
</g>
<!-- Node1&#45;&gt;Node12 -->
<g id="edge14" class="edge"><title>Node1&#45;&gt;Node12</title>
<path fill="none" stroke="midnightblue" d="M128.19,-135.404C146.911,-141.901 168.322,-149.062 188,-155 198.962,-158.308 210.955,-161.587 221.974,-164.466"/>
<polygon fill="midnightblue" stroke="midnightblue" points="129.263,-132.071 118.668,-132.076 126.954,-138.679 129.263,-132.071"/>
</g>
<!-- Node13 -->
<g id="node13" class="node"><title>Node13</title>
<g id="a_node13"><a xlink:href="../../df/d03/cipioconnection_8c.html#ac1ef9c10ff4921452840b0de66bb12cf" target="_top" xlink:title="ProcessProductionInhibitTime">
<polygon fill="none" stroke="black" points="188,-88.5 188,-107.5 335,-107.5 335,-88.5 188,-88.5"/>
<text text-anchor="middle" x="261.5" y="-95.5" font-family="Helvetica,sans-Serif" font-size="10.00">ProcessProductionInhibitTime</text>
</a>
</g>
</g>
<!-- Node1&#45;&gt;Node13 -->
<g id="edge16" class="edge"><title>Node1&#45;&gt;Node13</title>
<path fill="none" stroke="midnightblue" d="M162.175,-108.181C170.747,-107.293 179.396,-106.398 187.821,-105.525"/>
<polygon fill="midnightblue" stroke="midnightblue" points="161.752,-104.706 152.166,-109.217 162.473,-111.669 161.752,-104.706"/>
</g>
<!-- Node17 -->
<g id="node17" class="node"><title>Node17</title>
<g id="a_node17"><a xlink:href="../../df/d03/cipioconnection_8c.html#a4efa3b0cf11b363c8c5f4f8c8070b43f" target="_top" xlink:title="SetupIoConnectionTargetTo\lOriginatorConnectionPoint">
<polygon fill="none" stroke="black" points="192,-39 192,-69 331,-69 331,-39 192,-39"/>
<text text-anchor="start" x="200" y="-57" font-family="Helvetica,sans-Serif" font-size="10.00">SetupIoConnectionTargetTo</text>
<text text-anchor="middle" x="261.5" y="-46" font-family="Helvetica,sans-Serif" font-size="10.00">OriginatorConnectionPoint</text>
</a>
</g>
</g>
<!-- Node1&#45;&gt;Node17 -->
<g id="edge21" class="edge"><title>Node1&#45;&gt;Node17</title>
<path fill="none" stroke="midnightblue" d="M130.744,-98.5485C158.052,-89.173 190.816,-77.9243 216.588,-69.076"/>
<polygon fill="midnightblue" stroke="midnightblue" points="129.274,-95.3523 120.953,-101.91 131.547,-101.973 129.274,-95.3523"/>
</g>
<!-- Node18 -->
<g id="node18" class="node"><title>Node18</title>
<g id="a_node18"><a xlink:href="../../d2/dc9/group__CIP__API.html#ga286de29d4e88bd1fec0611e75c288faf" target="_top" xlink:title="Trigger the production of an application triggered connection. ">
<polygon fill="none" stroke="black" points="211,-0.5 211,-19.5 312,-19.5 312,-0.5 211,-0.5"/>
<text text-anchor="middle" x="261.5" y="-7.5" font-family="Helvetica,sans-Serif" font-size="10.00">TriggerConnections</text>
</a>
</g>
</g>
<!-- Node1&#45;&gt;Node18 -->
<g id="edge23" class="edge"><title>Node1&#45;&gt;Node18</title>
<path fill="none" stroke="midnightblue" d="M99.6678,-94.7665C120.876,-75.1154 154.267,-47.0067 188,-30 196.394,-25.7678 205.802,-22.3342 214.989,-19.5847"/>
<polygon fill="midnightblue" stroke="midnightblue" points="97.0365,-92.4369 92.1606,-101.843 101.838,-97.5306 97.0365,-92.4369"/>
</g>
<!-- Node3 -->
<g id="node3" class="node"><title>Node3</title>
<g id="a_node3"><a xlink:href="../../d5/d35/cipconnectionmanager_8c.html#a7eaeec6cc54d1799cfaba4031f0168d1" target="_top" xlink:title="Handles a Non Null Matching Forward Open Request. ">
<polygon fill="none" stroke="black" points="553,-241 553,-271 711,-271 711,-241 553,-241"/>
<text text-anchor="start" x="561" y="-259" font-family="Helvetica,sans-Serif" font-size="10.00">HandleNonNullMatchingForward</text>
<text text-anchor="middle" x="632" y="-248" font-family="Helvetica,sans-Serif" font-size="10.00">OpenRequest</text>
</a>
</g>
</g>
<!-- Node2&#45;&gt;Node3 -->
<g id="edge2" class="edge"><title>Node2&#45;&gt;Node3</title>
<path fill="none" stroke="midnightblue" d="M524.127,-224.035C547.361,-229.305 571.777,-235.427 591.398,-240.988"/>
<polygon fill="midnightblue" stroke="midnightblue" points="524.782,-220.596 514.26,-221.833 523.257,-227.427 524.782,-220.596"/>
</g>
<!-- Node3&#45;&gt;Node2 -->
<g id="edge3" class="edge"><title>Node3&#45;&gt;Node2</title>
<path fill="none" stroke="midnightblue" d="M542.945,-241.911C522.612,-237.171 501.964,-231.925 484.902,-227.096"/>
<polygon fill="midnightblue" stroke="midnightblue" points="542.354,-245.367 552.884,-244.193 543.92,-238.544 542.354,-245.367"/>
</g>
<!-- Node4 -->
<g id="node4" class="node"><title>Node4</title>
<g id="a_node4"><a xlink:href="../../d5/d35/cipconnectionmanager_8c.html#a8da18334cfde58434b845b0968620811" target="_top" xlink:title="Handles a Null Matching Forward Open request. ">
<polygon fill="none" stroke="black" points="747,-203 747,-233 887,-233 887,-203 747,-203"/>
<text text-anchor="start" x="755" y="-221" font-family="Helvetica,sans-Serif" font-size="10.00">HandleNullMatchingForward</text>
<text text-anchor="middle" x="817" y="-210" font-family="Helvetica,sans-Serif" font-size="10.00">OpenRequest</text>
</a>
</g>
</g>
<!-- Node3&#45;&gt;Node4 -->
<g id="edge4" class="edge"><title>Node3&#45;&gt;Node4</title>
<path fill="none" stroke="midnightblue" d="M715.358,-238.898C725.892,-236.711 736.59,-234.49 746.885,-232.352"/>
<polygon fill="midnightblue" stroke="midnightblue" points="714.406,-235.521 705.326,-240.981 715.829,-242.375 714.406,-235.521"/>
</g>
<!-- Node4&#45;&gt;Node2 -->
<g id="edge5" class="edge"><title>Node4&#45;&gt;Node2</title>
<path fill="none" stroke="midnightblue" d="M736.632,-216.716C670.574,-215.648 577.455,-214.142 514.347,-213.122"/>
<polygon fill="midnightblue" stroke="midnightblue" points="736.938,-220.222 746.993,-216.884 737.051,-213.223 736.938,-220.222"/>
</g>
<!-- Node5 -->
<g id="node5" class="node"><title>Node5</title>
<g id="a_node5"><a xlink:href="../../d5/d35/cipconnectionmanager_8c.html#ad68060facbfe52b38428a40da630651b" target="_top" xlink:title="Handles a Null Non Matching Forward Open Request. ">
<polygon fill="none" stroke="black" points="923,-174 923,-204 1081,-204 1081,-174 923,-174"/>
<text text-anchor="start" x="931" y="-192" font-family="Helvetica,sans-Serif" font-size="10.00">HandleNullNonMatchingForward</text>
<text text-anchor="middle" x="1002" y="-181" font-family="Helvetica,sans-Serif" font-size="10.00">OpenRequest</text>
</a>
</g>
</g>
<!-- Node4&#45;&gt;Node5 -->
<g id="edge6" class="edge"><title>Node4&#45;&gt;Node5</title>
<path fill="none" stroke="midnightblue" d="M897.109,-205.464C905.636,-204.112 914.309,-202.738 922.825,-201.388"/>
<polygon fill="midnightblue" stroke="midnightblue" points="896.513,-202.014 887.184,-207.036 897.609,-208.928 896.513,-202.014"/>
</g>
<!-- Node5&#45;&gt;Node2 -->
<g id="edge7" class="edge"><title>Node5&#45;&gt;Node2</title>
<path fill="none" stroke="midnightblue" d="M912.657,-189.875C863.808,-190.576 802.031,-191.819 747,-194 667.096,-197.166 575.416,-202.933 514.23,-207.087"/>
<polygon fill="midnightblue" stroke="midnightblue" points="912.928,-193.372 922.878,-189.734 912.831,-186.373 912.928,-193.372"/>
</g>
<!-- Node7 -->
<g id="node7" class="node"><title>Node7</title>
<g id="a_node7"><a xlink:href="../../da/dc2/generic__networkhandler_8h.html#a2f01af81d3e5018d9980e2bc28c9078a" target="_top" xlink:title="NetworkHandlerProcessOnce">
<polygon fill="none" stroke="black" points="371,-126.5 371,-145.5 517,-145.5 517,-126.5 371,-126.5"/>
<text text-anchor="middle" x="444" y="-133.5" font-family="Helvetica,sans-Serif" font-size="10.00">NetworkHandlerProcessOnce</text>
</a>
</g>
</g>
<!-- Node6&#45;&gt;Node7 -->
<g id="edge9" class="edge"><title>Node6&#45;&gt;Node7</title>
<path fill="none" stroke="midnightblue" d="M324.771,-136C339.596,-136 355.54,-136 370.77,-136"/>
<polygon fill="midnightblue" stroke="midnightblue" points="324.708,-132.5 314.708,-136 324.708,-139.5 324.708,-132.5"/>
</g>
<!-- Node8 -->
<g id="node8" class="node"><title>Node8</title>
<g id="a_node8"><a xlink:href="../../d5/dcb/MINGW_2main_8c.html#ad338a7dbc41dc40bcecd0479377ef207" target="_top" xlink:title="main">
<polygon fill="none" stroke="black" points="983,-110.5 983,-129.5 1021,-129.5 1021,-110.5 983,-110.5"/>
<text text-anchor="middle" x="1002" y="-117.5" font-family="Helvetica,sans-Serif" font-size="10.00">main</text>
</a>
</g>
</g>
<!-- Node7&#45;&gt;Node8 -->
<g id="edge10" class="edge"><title>Node7&#45;&gt;Node8</title>
<path fill="none" stroke="midnightblue" d="M527.221,-133.634C659.706,-129.821 912.662,-122.542 982.654,-120.528"/>
<polygon fill="midnightblue" stroke="midnightblue" points="527.012,-130.138 517.117,-133.925 527.214,-137.135 527.012,-130.138"/>
</g>
<!-- Node11 -->
<g id="node11" class="node"><title>Node11</title>
<g id="a_node11"><a xlink:href="../../d9/dfb/POSIX_2main_8c.html#acd4e45a35a64f9cb29b59f63492b61d2" target="_top" xlink:title="Signal handler function for ending stack execution. ">
<polygon fill="none" stroke="black" points="598,-88.5 598,-107.5 666,-107.5 666,-88.5 598,-88.5"/>
<text text-anchor="middle" x="632" y="-95.5" font-family="Helvetica,sans-Serif" font-size="10.00">LeaveStack</text>
</a>
</g>
</g>
<!-- Node7&#45;&gt;Node11 -->
<g id="edge13" class="edge"><title>Node7&#45;&gt;Node11</title>
<path fill="none" stroke="midnightblue" d="M501.889,-124.377C533.321,-117.956 571.269,-110.203 597.861,-104.77"/>
<polygon fill="midnightblue" stroke="midnightblue" points="501.033,-120.98 491.936,-126.411 502.434,-127.838 501.033,-120.98"/>
</g>
<!-- Node9 -->
<g id="node9" class="node"><title>Node9</title>
<g id="a_node9"><a xlink:href="../../d8/d03/ports_2MINGW_2CMakeLists_8txt.html#a7e00df43a20d627a1732be7766d91097" target="_top" xlink:title="add_library">
<polygon fill="none" stroke="black" points="1117,-110.5 1117,-129.5 1181,-129.5 1181,-110.5 1117,-110.5"/>
<text text-anchor="middle" x="1149" y="-117.5" font-family="Helvetica,sans-Serif" font-size="10.00">add_library</text>
</a>
</g>
</g>
<!-- Node8&#45;&gt;Node9 -->
<g id="edge11" class="edge"><title>Node8&#45;&gt;Node9</title>
<path fill="none" stroke="midnightblue" d="M1031.21,-120C1055.85,-120 1091.55,-120 1116.99,-120"/>
<polygon fill="midnightblue" stroke="midnightblue" points="1031.07,-116.5 1021.07,-120 1031.07,-123.5 1031.07,-116.5"/>
</g>
<!-- Node10 -->
<g id="node10" class="node"><title>Node10</title>
<g id="a_node10"><a xlink:href="../../d8/dce/ports_2CMakeLists_8txt.html#a598fae457555a5fb26e18d4cd8f89de9" target="_top" xlink:title="add_subdirectory">
<polygon fill="none" stroke="black" points="1217,-110.5 1217,-129.5 1308,-129.5 1308,-110.5 1217,-110.5"/>
<text text-anchor="middle" x="1262.5" y="-117.5" font-family="Helvetica,sans-Serif" font-size="10.00">add_subdirectory</text>
</a>
</g>
</g>
<!-- Node9&#45;&gt;Node10 -->
<g id="edge12" class="edge"><title>Node9&#45;&gt;Node10</title>
<path fill="none" stroke="midnightblue" d="M1191.3,-120C1199.63,-120 1208.42,-120 1216.86,-120"/>
<polygon fill="midnightblue" stroke="midnightblue" points="1191.06,-116.5 1181.06,-120 1191.06,-123.5 1191.06,-116.5"/>
</g>
<!-- Node12&#45;&gt;Node2 -->
<g id="edge15" class="edge"><title>Node12&#45;&gt;Node2</title>
<path fill="none" stroke="midnightblue" d="M318.155,-185.717C335.771,-189.426 355.46,-193.57 373.899,-197.453"/>
<polygon fill="midnightblue" stroke="midnightblue" points="318.554,-182.224 308.048,-183.589 317.112,-189.074 318.554,-182.224"/>
</g>
<!-- Node14 -->
<g id="node14" class="node"><title>Node14</title>
<g id="a_node14"><a xlink:href="../../de/d45/cipioconnection_8h.html#a43e270b3f9b9f6296b12285c320c95aa" target="_top" xlink:title="Setup all data in order to establish an IO connection. ">
<polygon fill="none" stroke="black" points="386.5,-50.5 386.5,-69.5 501.5,-69.5 501.5,-50.5 386.5,-50.5"/>
<text text-anchor="middle" x="444" y="-57.5" font-family="Helvetica,sans-Serif" font-size="10.00">EstablishIoConnection</text>
</a>
</g>
</g>
<!-- Node13&#45;&gt;Node14 -->
<g id="edge17" class="edge"><title>Node13&#45;&gt;Node14</title>
<path fill="none" stroke="midnightblue" d="M317.985,-86.319C343.582,-80.9301 373.584,-74.6139 397.78,-69.5201"/>
<polygon fill="midnightblue" stroke="midnightblue" points="317.112,-82.9259 308.048,-88.411 318.554,-89.7757 317.112,-82.9259"/>
</g>
<!-- Node15 -->
<g id="node15" class="node"><title>Node15</title>
<g id="a_node15"><a xlink:href="../../d2/da3/cipconnectionmanager_8h.html#a5ab0de6894d23e8fe84a6b46797c2212" target="_top" xlink:title="Initialize the data of the connection manager object. ">
<polygon fill="none" stroke="black" points="573.5,-50.5 573.5,-69.5 690.5,-69.5 690.5,-50.5 573.5,-50.5"/>
<text text-anchor="middle" x="632" y="-57.5" font-family="Helvetica,sans-Serif" font-size="10.00">ConnectionManagerInit</text>
</a>
</g>
</g>
<!-- Node14&#45;&gt;Node15 -->
<g id="edge18" class="edge"><title>Node14&#45;&gt;Node15</title>
<path fill="none" stroke="midnightblue" d="M511.631,-60C531.84,-60 553.859,-60 573.421,-60"/>
<polygon fill="midnightblue" stroke="midnightblue" points="511.564,-56.5001 501.564,-60 511.564,-63.5001 511.564,-56.5001"/>
</g>
<!-- Node16 -->
<g id="node16" class="node"><title>Node16</title>
<g id="a_node16"><a xlink:href="../../d2/dc9/group__CIP__API.html#ga5d4979945d124e28668b264c3823db1c" target="_top" xlink:title="Initialize and setup the CIP&#45;stack. ">
<polygon fill="none" stroke="black" points="781.5,-69.5 781.5,-88.5 852.5,-88.5 852.5,-69.5 781.5,-69.5"/>
<text text-anchor="middle" x="817" y="-76.5" font-family="Helvetica,sans-Serif" font-size="10.00">CipStackInit</text>
</a>
</g>
</g>
<!-- Node15&#45;&gt;Node16 -->
<g id="edge19" class="edge"><title>Node15&#45;&gt;Node16</title>
<path fill="none" stroke="midnightblue" d="M700.955,-67.0554C728.28,-69.8925 758.612,-73.0417 781.268,-75.3939"/>
<polygon fill="midnightblue" stroke="midnightblue" points="700.959,-63.5371 690.651,-65.9856 700.236,-70.4997 700.959,-63.5371"/>
</g>
<!-- Node16&#45;&gt;Node8 -->
<g id="edge20" class="edge"><title>Node16&#45;&gt;Node8</title>
<path fill="none" stroke="midnightblue" d="M862.819,-89.0414C901.464,-97.6995 955.283,-109.757 982.967,-115.96"/>
<polygon fill="midnightblue" stroke="midnightblue" points="863.375,-85.5793 852.852,-86.8083 861.845,-92.4099 863.375,-85.5793"/>
</g>
<!-- Node17&#45;&gt;Node14 -->
<g id="edge22" class="edge"><title>Node17&#45;&gt;Node14</title>
<path fill="none" stroke="midnightblue" d="M341.619,-56.63C356.72,-57.132 372.242,-57.6479 386.46,-58.1206"/>
<polygon fill="midnightblue" stroke="midnightblue" points="341.365,-53.1197 331.254,-56.2855 341.132,-60.1158 341.365,-53.1197"/>
</g>
</g>
</svg>
        <g id="navigator" transform="translate(0 0)" fill="#404254">
                <rect fill="#f2f5e9" fill-opacity="0.5" stroke="#606060" stroke-width=".5" x="0" y="0" width="60" height="60"/>
                <use id="zoomplus" xlink:href="#zoomPlus" x="17" y="9" onmousedown="handleZoom(evt,'in')"/>
                <use id="zoomminus" xlink:href="#zoomMin" x="42" y="9" onmousedown="handleZoom(evt,'out')"/>
                <use id="reset" xlink:href="#resetDef" x="30" y="36" onmousedown="handleReset()"/>
                <g id="arrowUp" xlink:href="#dirArrow" transform="translate(30 24)" onmousedown="handlePan(0,-1)">
                  <use xlink:href="#rim" fill="#404040">
                        <set attributeName="fill" to="#808080" begin="arrowUp.mouseover" end="arrowUp.mouseout"/>
                  </use>
                  <path fill="none" stroke="white" stroke-width="1.5" d="M0,-3.0v7 M-2.5,-0.5L0,-3.0L2.5,-0.5"/>
                </g>
                <g id="arrowRight" xlink:href="#dirArrow" transform="rotate(90) translate(36 -43)" onmousedown="handlePan(1,0)">
                  <use xlink:href="#rim" fill="#404040">
                        <set attributeName="fill" to="#808080" begin="arrowRight.mouseover" end="arrowRight.mouseout"/>
                  </use>
                  <path fill="none" stroke="white" stroke-width="1.5" d="M0,-3.0v7 M-2.5,-0.5L0,-3.0L2.5,-0.5"/>
                </g>
                <g id="arrowDown" xlink:href="#dirArrow" transform="rotate(180) translate(-30 -48)" onmousedown="handlePan(0,1)">
                  <use xlink:href="#rim" fill="#404040">
                        <set attributeName="fill" to="#808080" begin="arrowDown.mouseover" end="arrowDown.mouseout"/>
                  </use>
                  <path fill="none" stroke="white" stroke-width="1.5" d="M0,-3.0v7 M-2.5,-0.5L0,-3.0L2.5,-0.5"/>
                </g>
                <g id="arrowLeft" xlink:href="#dirArrow" transform="rotate(270) translate(-36 17)" onmousedown="handlePan(-1,0)">
                  <use xlink:href="#rim" fill="#404040">
                        <set attributeName="fill" to="#808080" begin="arrowLeft.mouseover" end="arrowLeft.mouseout"/>
                  </use>
                  <path fill="none" stroke="white" stroke-width="1.5" d="M0,-3.0v7 M-2.5,-0.5L0,-3.0L2.5,-0.5"/>
                </g>
        </g>
        <svg viewBox="0 0 15 15" width="100%" height="30px" preserveAspectRatio="xMaxYMin meet">
         <g id="arrow_out" transform="scale(0.3 0.3)">
          <a xlink:href="cipconnectionobject_8h_ad29970b643c2677739c3f0e0a7a58f37_icgraph_org.svg" target="_base">
           <rect id="button" ry="5" rx="5" y="6" x="6" height="38" width="38"
                fill="#f2f5e9" fill-opacity="0.5" stroke="#606060" stroke-width="1.0"/>
           <path id="arrow"
             d="M 11.500037,31.436501 C 11.940474,20.09759 22.043105,11.32322 32.158766,21.979434 L 37.068811,17.246167 C 37.068811,17.246167 37.088388,32 37.088388,32 L 22.160133,31.978069 C 22.160133,31.978069 26.997745,27.140456 26.997745,27.140456 C 18.528582,18.264221 13.291696,25.230495 11.500037,31.436501 z"
             style="fill:#404040;"/>
          </a>
         </g>
        </svg>
</svg>
