<?xml version="1.0" encoding="UTF-8" standalone="no"?>
<!DOCTYPE svg PUBLIC "-//W3C//DTD SVG 1.1//EN"
 "http://www.w3.org/Graphics/SVG/1.1/DTD/svg11.dtd">
<!-- Generated by graphviz version 2.38.0 (20140413.2041)
 -->
<!-- Title: ConnectionObjectSetProductionInhibitTime Pages: 1 -->
<svg width="1314pt" height="154pt"
 viewBox="0.00 0.00 1314.00 153.50" xmlns="http://www.w3.org/2000/svg" xmlns:xlink="http://www.w3.org/1999/xlink">
<g id="graph0" class="graph" transform="scale(1 1) rotate(0) translate(4 149.5)">
<title>ConnectionObjectSetProductionInhibitTime</title>
<!-- Node1 -->
<g id="node1" class="node"><title>Node1</title>
<polygon fill="#bfbfbf" stroke="black" points="0,-43 0,-73 156,-73 156,-43 0,-43"/>
<text text-anchor="start" x="8" y="-61" font-family="Helvetica,sans-Serif" font-size="10.00">ConnectionObjectSetProduction</text>
<text text-anchor="middle" x="78" y="-50" font-family="Helvetica,sans-Serif" font-size="10.00">InhibitTime</text>
</g>
<!-- Node2 -->
<g id="node2" class="node"><title>Node2</title>
<g id="a_node2"><a xlink:href="../../d5/d35/cipconnectionmanager_8c.html#ad7b34359aea58ef8d4e77008ea53098f" target="_top" xlink:title="Parse the connection path of a forward open request. ">
<polygon fill="none" stroke="black" points="209.5,-70.5 209.5,-89.5 321.5,-89.5 321.5,-70.5 209.5,-70.5"/>
<text text-anchor="middle" x="265.5" y="-77.5" font-family="Helvetica,sans-Serif" font-size="10.00">ParseConnectionPath</text>
</a>
</g>
</g>
<!-- Node1&#45;&gt;Node2 -->
<g id="edge1" class="edge"><title>Node1&#45;&gt;Node2</title>
<path fill="none" stroke="midnightblue" d="M166.202,-68.3421C180.926,-70.0883 195.837,-71.8567 209.444,-73.4705"/>
<polygon fill="midnightblue" stroke="midnightblue" points="166.4,-64.841 156.057,-67.1389 165.575,-71.7923 166.4,-64.841"/>
</g>
<!-- Node7 -->
<g id="node7" class="node"><title>Node7</title>
<g id="a_node7"><a xlink:href="../../df/d03/cipioconnection_8c.html#ac1ef9c10ff4921452840b0de66bb12cf" target="_top" xlink:title="ProcessProductionInhibitTime">
<polygon fill="none" stroke="black" points="192,-27.5 192,-46.5 339,-46.5 339,-27.5 192,-27.5"/>
<text text-anchor="middle" x="265.5" y="-34.5" font-family="Helvetica,sans-Serif" font-size="10.00">ProcessProductionInhibitTime</text>
</a>
</g>
</g>
<!-- Node1&#45;&gt;Node7 -->
<g id="edge9" class="edge"><title>Node1&#45;&gt;Node7</title>
<path fill="none" stroke="midnightblue" d="M166.117,-48.1376C174.728,-47.1629 183.404,-46.1807 191.846,-45.225"/>
<polygon fill="midnightblue" stroke="midnightblue" points="165.6,-44.6738 156.057,-49.2765 166.387,-51.6294 165.6,-44.6738"/>
</g>
<!-- Node3 -->
<g id="node3" class="node"><title>Node3</title>
<g id="a_node3"><a xlink:href="../../d5/d35/cipconnectionmanager_8c.html#af379a4b383c738a07d8e1ab0a4ac7510" target="_top" xlink:title="Handles a Non Null Non Matching Forward Open Request. ">
<polygon fill="none" stroke="black" points="375,-71 375,-101 515,-101 515,-71 375,-71"/>
<text text-anchor="start" x="383" y="-89" font-family="Helvetica,sans-Serif" font-size="10.00">HandleNonNullNonMatching</text>
<text text-anchor="middle" x="445" y="-78" font-family="Helvetica,sans-Serif" font-size="10.00">ForwardOpenRequest</text>
</a>
</g>
</g>
<!-- Node2&#45;&gt;Node3 -->
<g id="edge2" class="edge"><title>Node2&#45;&gt;Node3</title>
<path fill="none" stroke="midnightblue" d="M331.721,-82.2047C345.733,-82.6783 360.589,-83.1805 374.748,-83.6591"/>
<polygon fill="midnightblue" stroke="midnightblue" points="331.802,-78.7055 321.689,-81.8655 331.565,-85.7015 331.802,-78.7055"/>
</g>
<!-- Node4 -->
<g id="node4" class="node"><title>Node4</title>
<g id="a_node4"><a xlink:href="../../d5/d35/cipconnectionmanager_8c.html#a7eaeec6cc54d1799cfaba4031f0168d1" target="_top" xlink:title="Handles a Non Null Matching Forward Open Request. ">
<polygon fill="none" stroke="black" points="551,-115 551,-145 709,-145 709,-115 551,-115"/>
<text text-anchor="start" x="559" y="-133" font-family="Helvetica,sans-Serif" font-size="10.00">HandleNonNullMatchingForward</text>
<text text-anchor="middle" x="630" y="-122" font-family="Helvetica,sans-Serif" font-size="10.00">OpenRequest</text>
</a>
</g>
</g>
<!-- Node3&#45;&gt;Node4 -->
<g id="edge3" class="edge"><title>Node3&#45;&gt;Node4</title>
<path fill="none" stroke="midnightblue" d="M525.073,-98.3177C547.538,-103.517 571.021,-109.512 589.97,-114.969"/>
<polygon fill="midnightblue" stroke="midnightblue" points="525.712,-94.8737 515.184,-96.0662 524.158,-101.699 525.712,-94.8737"/>
</g>
<!-- Node4&#45;&gt;Node3 -->
<g id="edge4" class="edge"><title>Node4&#45;&gt;Node3</title>
<path fill="none" stroke="midnightblue" d="M540.807,-115.541C521.308,-110.899 501.61,-105.8 485.258,-101.096"/>
<polygon fill="midnightblue" stroke="midnightblue" points="540.12,-118.975 550.655,-117.851 541.719,-112.16 540.12,-118.975"/>
</g>
<!-- Node5 -->
<g id="node5" class="node"><title>Node5</title>
<g id="a_node5"><a xlink:href="../../d5/d35/cipconnectionmanager_8c.html#a8da18334cfde58434b845b0968620811" target="_top" xlink:title="Handles a Null Matching Forward Open request. ">
<polygon fill="none" stroke="black" points="745,-77 745,-107 885,-107 885,-77 745,-77"/>
<text text-anchor="start" x="753" y="-95" font-family="Helvetica,sans-Serif" font-size="10.00">HandleNullMatchingForward</text>
<text text-anchor="middle" x="815" y="-84" font-family="Helvetica,sans-Serif" font-size="10.00">OpenRequest</text>
</a>
</g>
</g>
<!-- Node4&#45;&gt;Node5 -->
<g id="edge5" class="edge"><title>Node4&#45;&gt;Node5</title>
<path fill="none" stroke="midnightblue" d="M713.358,-112.898C723.892,-110.711 734.59,-108.49 744.885,-106.352"/>
<polygon fill="midnightblue" stroke="midnightblue" points="712.406,-109.521 703.326,-114.981 713.829,-116.375 712.406,-109.521"/>
</g>
<!-- Node5&#45;&gt;Node3 -->
<g id="edge6" class="edge"><title>Node5&#45;&gt;Node3</title>
<path fill="none" stroke="midnightblue" d="M734.53,-90.7043C669.203,-89.6392 577.571,-88.1452 515.218,-87.1286"/>
<polygon fill="midnightblue" stroke="midnightblue" points="734.725,-94.2078 744.78,-90.8714 734.839,-87.2088 734.725,-94.2078"/>
</g>
<!-- Node6 -->
<g id="node6" class="node"><title>Node6</title>
<g id="a_node6"><a xlink:href="../../d5/d35/cipconnectionmanager_8c.html#ad68060facbfe52b38428a40da630651b" target="_top" xlink:title="Handles a Null Non Matching Forward Open Request. ">
<polygon fill="none" stroke="black" points="921,-58 921,-88 1079,-88 1079,-58 921,-58"/>
<text text-anchor="start" x="929" y="-76" font-family="Helvetica,sans-Serif" font-size="10.00">HandleNullNonMatchingForward</text>
<text text-anchor="middle" x="1000" y="-65" font-family="Helvetica,sans-Serif" font-size="10.00">OpenRequest</text>
</a>
</g>
</g>
<!-- Node5&#45;&gt;Node6 -->
<g id="edge7" class="edge"><title>Node5&#45;&gt;Node6</title>
<path fill="none" stroke="midnightblue" d="M895.387,-83.7576C903.825,-82.8816 912.402,-81.991 920.825,-81.1165"/>
<polygon fill="midnightblue" stroke="midnightblue" points="894.77,-80.3028 885.184,-84.8169 895.492,-87.2654 894.77,-80.3028"/>
</g>
<!-- Node6&#45;&gt;Node3 -->
<g id="edge8" class="edge"><title>Node6&#45;&gt;Node3</title>
<path fill="none" stroke="midnightblue" d="M910.672,-67.8915C902,-67.528 893.33,-67.2191 885,-67 822.799,-65.3643 807.191,-65.026 745,-67 666.108,-69.5041 575.683,-75.7157 515.12,-80.3595"/>
<polygon fill="midnightblue" stroke="midnightblue" points="910.688,-71.3955 920.833,-68.341 910.998,-64.4024 910.688,-71.3955"/>
</g>
<!-- Node8 -->
<g id="node8" class="node"><title>Node8</title>
<g id="a_node8"><a xlink:href="../../de/d45/cipioconnection_8h.html#a43e270b3f9b9f6296b12285c320c95aa" target="_top" xlink:title="Setup all data in order to establish an IO connection. ">
<polygon fill="none" stroke="black" points="387.5,-16.5 387.5,-35.5 502.5,-35.5 502.5,-16.5 387.5,-16.5"/>
<text text-anchor="middle" x="445" y="-23.5" font-family="Helvetica,sans-Serif" font-size="10.00">EstablishIoConnection</text>
</a>
</g>
</g>
<!-- Node7&#45;&gt;Node8 -->
<g id="edge10" class="edge"><title>Node7&#45;&gt;Node8</title>
<path fill="none" stroke="midnightblue" d="M349.463,-31.8586C362.319,-31.0619 375.338,-30.2551 387.434,-29.5055"/>
<polygon fill="midnightblue" stroke="midnightblue" points="348.973,-28.3822 339.208,-32.4941 349.406,-35.3688 348.973,-28.3822"/>
</g>
<!-- Node9 -->
<g id="node9" class="node"><title>Node9</title>
<g id="a_node9"><a xlink:href="../../d2/da3/cipconnectionmanager_8h.html#a5ab0de6894d23e8fe84a6b46797c2212" target="_top" xlink:title="Initialize the data of the connection manager object. ">
<polygon fill="none" stroke="black" points="571.5,-0.5 571.5,-19.5 688.5,-19.5 688.5,-0.5 571.5,-0.5"/>
<text text-anchor="middle" x="630" y="-7.5" font-family="Helvetica,sans-Serif" font-size="10.00">ConnectionManagerInit</text>
</a>
</g>
</g>
<!-- Node8&#45;&gt;Node9 -->
<g id="edge11" class="edge"><title>Node8&#45;&gt;Node9</title>
<path fill="none" stroke="midnightblue" d="M513.017,-20.1406C532.096,-18.4725 552.709,-16.6703 571.19,-15.0544"/>
<polygon fill="midnightblue" stroke="midnightblue" points="512.556,-16.6674 502.899,-21.0252 513.166,-23.6408 512.556,-16.6674"/>
</g>
<!-- Node10 -->
<g id="node10" class="node"><title>Node10</title>
<g id="a_node10"><a xlink:href="../../d2/dc9/group__CIP__API.html#ga5d4979945d124e28668b264c3823db1c" target="_top" xlink:title="Initialize and setup the CIP&#45;stack. ">
<polygon fill="none" stroke="black" points="779.5,-0.5 779.5,-19.5 850.5,-19.5 850.5,-0.5 779.5,-0.5"/>
<text text-anchor="middle" x="815" y="-7.5" font-family="Helvetica,sans-Serif" font-size="10.00">CipStackInit</text>
</a>
</g>
</g>
<!-- Node9&#45;&gt;Node10 -->
<g id="edge12" class="edge"><title>Node9&#45;&gt;Node10</title>
<path fill="none" stroke="midnightblue" d="M698.955,-10C726.28,-10 756.612,-10 779.268,-10"/>
<polygon fill="midnightblue" stroke="midnightblue" points="698.651,-6.5001 688.651,-10 698.651,-13.5001 698.651,-6.5001"/>
</g>
<!-- Node11 -->
<g id="node11" class="node"><title>Node11</title>
<g id="a_node11"><a xlink:href="../../d5/dcb/MINGW_2main_8c.html#ad338a7dbc41dc40bcecd0479377ef207" target="_top" xlink:title="main">
<polygon fill="none" stroke="black" points="981,-0.5 981,-19.5 1019,-19.5 1019,-0.5 981,-0.5"/>
<text text-anchor="middle" x="1000" y="-7.5" font-family="Helvetica,sans-Serif" font-size="10.00">main</text>
</a>
</g>
</g>
<!-- Node10&#45;&gt;Node11 -->
<g id="edge13" class="edge"><title>Node10&#45;&gt;Node11</title>
<path fill="none" stroke="midnightblue" d="M861.313,-10C899.921,-10 953.4,-10 980.967,-10"/>
<polygon fill="midnightblue" stroke="midnightblue" points="860.852,-6.5001 850.852,-10 860.852,-13.5001 860.852,-6.5001"/>
</g>
<!-- Node12 -->
<g id="node12" class="node"><title>Node12</title>
<g id="a_node12"><a xlink:href="../../d8/d03/ports_2MINGW_2CMakeLists_8txt.html#a7e00df43a20d627a1732be7766d91097" target="_top" xlink:title="add_library">
<polygon fill="none" stroke="black" points="1115,-0.5 1115,-19.5 1179,-19.5 1179,-0.5 1115,-0.5"/>
<text text-anchor="middle" x="1147" y="-7.5" font-family="Helvetica,sans-Serif" font-size="10.00">add_library</text>
</a>
</g>
</g>
<!-- Node11&#45;&gt;Node12 -->
<g id="edge14" class="edge"><title>Node11&#45;&gt;Node12</title>
<path fill="none" stroke="midnightblue" d="M1029.21,-10C1053.85,-10 1089.55,-10 1114.99,-10"/>
<polygon fill="midnightblue" stroke="midnightblue" points="1029.07,-6.5001 1019.07,-10 1029.07,-13.5001 1029.07,-6.5001"/>
</g>
<!-- Node13 -->
<g id="node13" class="node"><title>Node13</title>
<g id="a_node13"><a xlink:href="../../d8/dce/ports_2CMakeLists_8txt.html#a598fae457555a5fb26e18d4cd8f89de9" target="_top" xlink:title="add_subdirectory">
<polygon fill="none" stroke="black" points="1215,-0.5 1215,-19.5 1306,-19.5 1306,-0.5 1215,-0.5"/>
<text text-anchor="middle" x="1260.5" y="-7.5" font-family="Helvetica,sans-Serif" font-size="10.00">add_subdirectory</text>
</a>
</g>
</g>
<!-- Node12&#45;&gt;Node13 -->
<g id="edge15" class="edge"><title>Node12&#45;&gt;Node13</title>
<path fill="none" stroke="midnightblue" d="M1189.3,-10C1197.63,-10 1206.42,-10 1214.86,-10"/>
<polygon fill="midnightblue" stroke="midnightblue" points="1189.06,-6.5001 1179.06,-10 1189.06,-13.5001 1189.06,-6.5001"/>
</g>
</g>
</svg>
