<?xml version="1.0" encoding="UTF-8" standalone="no"?>
<!DOCTYPE svg PUBLIC "-//W3C//DTD SVG 1.1//EN"
 "http://www.w3.org/Graphics/SVG/1.1/DTD/svg11.dtd">
<!-- Generated by graphviz version 2.38.0 (20140413.2041)
 -->
<!-- Title: ConnectionObjectEqualOriginator Pages: 1 -->
<!--zoomable 154 -->
<svg id="main" version="1.1" xmlns="http://www.w3.org/2000/svg" xmlns:xlink="http://www.w3.org/1999/xlink" xml:space="preserve" onload="init(evt)">
<style type="text/css"><![CDATA[
.edge:hover path { stroke: red; }
.edge:hover polygon { stroke: red; fill: red; }
]]></style>
<script type="text/javascript"><![CDATA[
var edges = document.getElementsByTagName('g');
if (edges && edges.length) {
  for (var i=0;i<edges.length;i++) {
    if (edges[i].id.substr(0,4)=='edge') {
      edges[i].setAttribute('class','edge');
    }
  }
}
]]></script>
        <defs>
                <circle id="rim" cx="0" cy="0" r="7"/>
                <circle id="rim2" cx="0" cy="0" r="3.5"/>
                <g id="zoomPlus">
                        <use xlink:href="#rim" fill="#404040">
                                <set attributeName="fill" to="#808080" begin="zoomplus.mouseover" end="zoomplus.mouseout"/>
                        </use>
                        <path d="M-4,0h8M0,-4v8" fill="none" stroke="white" stroke-width="1.5" pointer-events="none"/>
                </g>
                <g id="zoomMin">
                        <use xlink:href="#rim" fill="#404040">
                                <set attributeName="fill" to="#808080" begin="zoomminus.mouseover" end="zoomminus.mouseout"/>
                        </use>
                        <path d="M-4,0h8" fill="none" stroke="white" stroke-width="1.5" pointer-events="none"/>
                </g>
                <g id="dirArrow">
                        <path fill="none" stroke="white" stroke-width="1.5" d="M0,-3.0v7 M-2.5,-0.5L0,-3.0L2.5,-0.5"/>
                </g>
               <g id="resetDef">
                       <use xlink:href="#rim2" fill="#404040">
                               <set attributeName="fill" to="#808080" begin="reset.mouseover" end="reset.mouseout"/>
                       </use>
               </g>
        </defs>

<script type="text/javascript">
var viewWidth = 1476;
var viewHeight = 154;
var sectionId = 'dynsection-6';
</script>
<script xlink:href="../../svgpan.js"/>
<svg id="graph" class="graph">
<g id="viewport">
<title>ConnectionObjectEqualOriginator</title>
<!-- Node1 -->
<g id="node1" class="node"><title>Node1</title>
<polygon fill="#bfbfbf" stroke="black" points="0,-57.5 0,-76.5 161,-76.5 161,-57.5 0,-57.5"/>
<text text-anchor="middle" x="80.5" y="-64.5" font-family="Helvetica,sans-Serif" font-size="10.00">ConnectionObjectEqualOriginator</text>
</g>
<!-- Node2 -->
<g id="node2" class="node"><title>Node2</title>
<g id="a_node2"><a xlink:href="../../d2/da3/cipconnectionmanager_8h.html#ac36c68122b200d1bc99fbe9fb35a3440" target="_top" xlink:title="CheckForTimedOutConnections\lAndCloseTCPConnections">
<polygon fill="none" stroke="black" points="197,-115 197,-145 354,-145 354,-115 197,-115"/>
<text text-anchor="start" x="205" y="-133" font-family="Helvetica,sans-Serif" font-size="10.00">CheckForTimedOutConnections</text>
<text text-anchor="middle" x="275.5" y="-122" font-family="Helvetica,sans-Serif" font-size="10.00">AndCloseTCPConnections</text>
</a>
</g>
</g>
<!-- Node1&#45;&gt;Node2 -->
<g id="edge1" class="edge"><title>Node1&#45;&gt;Node2</title>
<path fill="none" stroke="midnightblue" d="M119.955,-79.7138C142.411,-87.1226 171.299,-96.6268 197,-105 206.947,-108.241 217.619,-111.697 227.766,-114.973"/>
<polygon fill="midnightblue" stroke="midnightblue" points="121.033,-76.3838 110.439,-76.5728 118.838,-83.031 121.033,-76.3838"/>
</g>
<!-- Node13 -->
<g id="node13" class="node"><title>Node13</title>
<g id="a_node13"><a xlink:href="../../d1/dbc/appcontype_8c.html#a0c46e6942d5dbb0cd7c9b1eb97e78aea" target="_top" xlink:title="Takes an ConnectionObject and searches and returns an Exclusive Owner Connection based on the Connect...">
<polygon fill="none" stroke="black" points="199,-76.5 199,-95.5 352,-95.5 352,-76.5 199,-76.5"/>
<text text-anchor="middle" x="275.5" y="-83.5" font-family="Helvetica,sans-Serif" font-size="10.00">GetExclusiveOwnerConnection</text>
</a>
</g>
</g>
<!-- Node1&#45;&gt;Node13 -->
<g id="edge13" class="edge"><title>Node1&#45;&gt;Node13</title>
<path fill="none" stroke="midnightblue" d="M171.11,-75.8217C180.367,-76.733 189.709,-77.6527 198.793,-78.5469"/>
<polygon fill="midnightblue" stroke="midnightblue" points="171.41,-72.3344 161.115,-74.8377 170.724,-79.3007 171.41,-72.3344"/>
</g>
<!-- Node15 -->
<g id="node15" class="node"><title>Node15</title>
<g id="a_node15"><a xlink:href="../../d1/dbc/appcontype_8c.html#a06e551d0aff7ac41def5bbc39652f89a" target="_top" xlink:title="Takes an ConnectionObject and searches and returns an Input Only Connection based on the ConnectionOb...">
<polygon fill="none" stroke="black" points="213.5,-38.5 213.5,-57.5 337.5,-57.5 337.5,-38.5 213.5,-38.5"/>
<text text-anchor="middle" x="275.5" y="-45.5" font-family="Helvetica,sans-Serif" font-size="10.00">GetInputOnlyConnection</text>
</a>
</g>
</g>
<!-- Node1&#45;&gt;Node15 -->
<g id="edge16" class="edge"><title>Node1&#45;&gt;Node15</title>
<path fill="none" stroke="midnightblue" d="M171.405,-58.1492C185.609,-56.751 200.003,-55.3339 213.351,-54.0199"/>
<polygon fill="midnightblue" stroke="midnightblue" points="170.724,-54.6993 161.115,-59.1623 171.41,-61.6656 170.724,-54.6993"/>
</g>
<!-- Node16 -->
<g id="node16" class="node"><title>Node16</title>
<g id="a_node16"><a xlink:href="../../d1/dbc/appcontype_8c.html#ae76893528b0e064cf220f6eb19ac5bdf" target="_top" xlink:title="Takes an ConnectionObject and searches and returns an Listen Only Connection based on the ConnectionO...">
<polygon fill="none" stroke="black" points="211.5,-0.5 211.5,-19.5 339.5,-19.5 339.5,-0.5 211.5,-0.5"/>
<text text-anchor="middle" x="275.5" y="-7.5" font-family="Helvetica,sans-Serif" font-size="10.00">GetListenOnlyConnection</text>
</a>
</g>
</g>
<!-- Node1&#45;&gt;Node16 -->
<g id="edge18" class="edge"><title>Node1&#45;&gt;Node16</title>
<path fill="none" stroke="midnightblue" d="M117.93,-54.2121C140.554,-46.471 170.308,-36.6503 197,-29 208.586,-25.6793 221.248,-22.4212 232.916,-19.5668"/>
<polygon fill="midnightblue" stroke="midnightblue" points="116.703,-50.9328 108.388,-57.4983 118.982,-57.5513 116.703,-50.9328"/>
</g>
<!-- Node3 -->
<g id="node3" class="node"><title>Node3</title>
<g id="a_node3"><a xlink:href="../../dc/d93/cipclass3connection_8c.html#a6053ab7004c1419bd80faf9aca54bfd3" target="_top" xlink:title="Class3ConnectionTimeoutHandler">
<polygon fill="none" stroke="black" points="394.5,-120.5 394.5,-139.5 560.5,-139.5 560.5,-120.5 394.5,-120.5"/>
<text text-anchor="middle" x="477.5" y="-127.5" font-family="Helvetica,sans-Serif" font-size="10.00">Class3ConnectionTimeoutHandler</text>
</a>
</g>
</g>
<!-- Node2&#45;&gt;Node3 -->
<g id="edge2" class="edge"><title>Node2&#45;&gt;Node3</title>
<path fill="none" stroke="midnightblue" d="M364.395,-130C374.335,-130 384.437,-130 394.3,-130"/>
<polygon fill="midnightblue" stroke="midnightblue" points="364.112,-126.5 354.111,-130 364.111,-133.5 364.112,-126.5"/>
</g>
<!-- Node10 -->
<g id="node10" class="node"><title>Node10</title>
<g id="a_node10"><a xlink:href="../../df/d03/cipioconnection_8c.html#a7e4923f4b027d489d9933b52f6fd7007" target="_top" xlink:title="HandleIoConnectionTimeOut">
<polygon fill="none" stroke="black" points="406,-82.5 406,-101.5 549,-101.5 549,-82.5 406,-82.5"/>
<text text-anchor="middle" x="477.5" y="-89.5" font-family="Helvetica,sans-Serif" font-size="10.00">HandleIoConnectionTimeOut</text>
</a>
</g>
</g>
<!-- Node2&#45;&gt;Node10 -->
<g id="edge9" class="edge"><title>Node2&#45;&gt;Node10</title>
<path fill="none" stroke="midnightblue" d="M364.153,-113.346C385.44,-109.301 407.486,-105.113 426.351,-101.528"/>
<polygon fill="midnightblue" stroke="midnightblue" points="363.282,-109.949 354.111,-115.254 364.589,-116.826 363.282,-109.949"/>
</g>
<!-- Node4 -->
<g id="node4" class="node"><title>Node4</title>
<g id="a_node4"><a xlink:href="../../d2/d11/cipclass3connection_8h.html#a45bd741b44137164c07a6ce09a7a9a9d" target="_top" xlink:title="Check if Class3 connection is available and if yes setup all data. ">
<polygon fill="none" stroke="black" points="770,-120.5 770,-139.5 907,-139.5 907,-120.5 770,-120.5"/>
<text text-anchor="middle" x="838.5" y="-127.5" font-family="Helvetica,sans-Serif" font-size="10.00">EstablishClass3Connection</text>
</a>
</g>
</g>
<!-- Node3&#45;&gt;Node4 -->
<g id="edge3" class="edge"><title>Node3&#45;&gt;Node4</title>
<path fill="none" stroke="midnightblue" d="M571.069,-130C633.248,-130 713.775,-130 769.952,-130"/>
<polygon fill="midnightblue" stroke="midnightblue" points="570.862,-126.5 560.862,-130 570.862,-133.5 570.862,-126.5"/>
</g>
<!-- Node5 -->
<g id="node5" class="node"><title>Node5</title>
<g id="a_node5"><a xlink:href="../../d2/da3/cipconnectionmanager_8h.html#a5ab0de6894d23e8fe84a6b46797c2212" target="_top" xlink:title="Initialize the data of the connection manager object. ">
<polygon fill="none" stroke="black" points="943,-101.5 943,-120.5 1060,-120.5 1060,-101.5 943,-101.5"/>
<text text-anchor="middle" x="1001.5" y="-108.5" font-family="Helvetica,sans-Serif" font-size="10.00">ConnectionManagerInit</text>
</a>
</g>
</g>
<!-- Node4&#45;&gt;Node5 -->
<g id="edge4" class="edge"><title>Node4&#45;&gt;Node5</title>
<path fill="none" stroke="midnightblue" d="M917.384,-120.809C926,-119.792 934.656,-118.77 942.956,-117.791"/>
<polygon fill="midnightblue" stroke="midnightblue" points="916.833,-117.349 907.312,-121.997 917.653,-124.301 916.833,-117.349"/>
</g>
<!-- Node6 -->
<g id="node6" class="node"><title>Node6</title>
<g id="a_node6"><a xlink:href="../../d2/dc9/group__CIP__API.html#ga5d4979945d124e28668b264c3823db1c" target="_top" xlink:title="Initialize and setup the CIP&#45;stack. ">
<polygon fill="none" stroke="black" points="1096,-101.5 1096,-120.5 1167,-120.5 1167,-101.5 1096,-101.5"/>
<text text-anchor="middle" x="1131.5" y="-108.5" font-family="Helvetica,sans-Serif" font-size="10.00">CipStackInit</text>
</a>
</g>
</g>
<!-- Node5&#45;&gt;Node6 -->
<g id="edge5" class="edge"><title>Node5&#45;&gt;Node6</title>
<path fill="none" stroke="midnightblue" d="M1070.18,-111C1079.08,-111 1087.88,-111 1095.9,-111"/>
<polygon fill="midnightblue" stroke="midnightblue" points="1070.13,-107.5 1060.13,-111 1070.13,-114.5 1070.13,-107.5"/>
</g>
<!-- Node7 -->
<g id="node7" class="node"><title>Node7</title>
<g id="a_node7"><a xlink:href="../../d5/dcb/MINGW_2main_8c.html#ad338a7dbc41dc40bcecd0479377ef207" target="_top" xlink:title="main">
<polygon fill="none" stroke="black" points="1203,-101.5 1203,-120.5 1241,-120.5 1241,-101.5 1203,-101.5"/>
<text text-anchor="middle" x="1222" y="-108.5" font-family="Helvetica,sans-Serif" font-size="10.00">main</text>
</a>
</g>
</g>
<!-- Node6&#45;&gt;Node7 -->
<g id="edge6" class="edge"><title>Node6&#45;&gt;Node7</title>
<path fill="none" stroke="midnightblue" d="M1177.38,-111C1186.44,-111 1195.45,-111 1202.92,-111"/>
<polygon fill="midnightblue" stroke="midnightblue" points="1177.22,-107.5 1167.22,-111 1177.22,-114.5 1177.22,-107.5"/>
</g>
<!-- Node8 -->
<g id="node8" class="node"><title>Node8</title>
<g id="a_node8"><a xlink:href="../../d8/d03/ports_2MINGW_2CMakeLists_8txt.html#a7e00df43a20d627a1732be7766d91097" target="_top" xlink:title="add_library">
<polygon fill="none" stroke="black" points="1277,-101.5 1277,-120.5 1341,-120.5 1341,-101.5 1277,-101.5"/>
<text text-anchor="middle" x="1309" y="-108.5" font-family="Helvetica,sans-Serif" font-size="10.00">add_library</text>
</a>
</g>
</g>
<!-- Node7&#45;&gt;Node8 -->
<g id="edge7" class="edge"><title>Node7&#45;&gt;Node8</title>
<path fill="none" stroke="midnightblue" d="M1251.27,-111C1259.5,-111 1268.55,-111 1276.94,-111"/>
<polygon fill="midnightblue" stroke="midnightblue" points="1251.03,-107.5 1241.03,-111 1251.03,-114.5 1251.03,-107.5"/>
</g>
<!-- Node9 -->
<g id="node9" class="node"><title>Node9</title>
<g id="a_node9"><a xlink:href="../../d8/dce/ports_2CMakeLists_8txt.html#a598fae457555a5fb26e18d4cd8f89de9" target="_top" xlink:title="add_subdirectory">
<polygon fill="none" stroke="black" points="1377,-101.5 1377,-120.5 1468,-120.5 1468,-101.5 1377,-101.5"/>
<text text-anchor="middle" x="1422.5" y="-108.5" font-family="Helvetica,sans-Serif" font-size="10.00">add_subdirectory</text>
</a>
</g>
</g>
<!-- Node8&#45;&gt;Node9 -->
<g id="edge8" class="edge"><title>Node8&#45;&gt;Node9</title>
<path fill="none" stroke="midnightblue" d="M1351.3,-111C1359.63,-111 1368.42,-111 1376.86,-111"/>
<polygon fill="midnightblue" stroke="midnightblue" points="1351.06,-107.5 1341.06,-111 1351.06,-114.5 1351.06,-107.5"/>
</g>
<!-- Node11 -->
<g id="node11" class="node"><title>Node11</title>
<g id="a_node11"><a xlink:href="../../df/d03/cipioconnection_8c.html#ab3282f146a3ea91c90cf14c32206ee8c" target="_top" xlink:title="SetIoConnectionCallbacks">
<polygon fill="none" stroke="black" points="601,-82.5 601,-101.5 734,-101.5 734,-82.5 601,-82.5"/>
<text text-anchor="middle" x="667.5" y="-89.5" font-family="Helvetica,sans-Serif" font-size="10.00">SetIoConnectionCallbacks</text>
</a>
</g>
</g>
<!-- Node10&#45;&gt;Node11 -->
<g id="edge10" class="edge"><title>Node10&#45;&gt;Node11</title>
<path fill="none" stroke="midnightblue" d="M559.097,-92C573.032,-92 587.368,-92 600.847,-92"/>
<polygon fill="midnightblue" stroke="midnightblue" points="559.039,-88.5001 549.039,-92 559.039,-95.5001 559.039,-88.5001"/>
</g>
<!-- Node12 -->
<g id="node12" class="node"><title>Node12</title>
<g id="a_node12"><a xlink:href="../../de/d45/cipioconnection_8h.html#a43e270b3f9b9f6296b12285c320c95aa" target="_top" xlink:title="Setup all data in order to establish an IO connection. ">
<polygon fill="none" stroke="black" points="781,-82.5 781,-101.5 896,-101.5 896,-82.5 781,-82.5"/>
<text text-anchor="middle" x="838.5" y="-89.5" font-family="Helvetica,sans-Serif" font-size="10.00">EstablishIoConnection</text>
</a>
</g>
</g>
<!-- Node11&#45;&gt;Node12 -->
<g id="edge11" class="edge"><title>Node11&#45;&gt;Node12</title>
<path fill="none" stroke="midnightblue" d="M744.522,-92C756.757,-92 769.232,-92 780.906,-92"/>
<polygon fill="midnightblue" stroke="midnightblue" points="744.324,-88.5001 734.324,-92 744.324,-95.5001 744.324,-88.5001"/>
</g>
<!-- Node12&#45;&gt;Node5 -->
<g id="edge12" class="edge"><title>Node12&#45;&gt;Node5</title>
<path fill="none" stroke="midnightblue" d="M906.335,-99.8874C918.476,-101.32 931.045,-102.803 942.891,-104.201"/>
<polygon fill="midnightblue" stroke="midnightblue" points="906.604,-96.3949 896.263,-98.6987 905.783,-103.347 906.604,-96.3949"/>
</g>
<!-- Node14 -->
<g id="node14" class="node"><title>Node14</title>
<g id="a_node14"><a xlink:href="../../d1/dc0/appcontype_8h.html#ab3a019a2217375c098345317da123323" target="_top" xlink:title="check if for the given connection data received in a forward_open request a suitable connection is av...">
<polygon fill="none" stroke="black" points="390,-39.5 390,-58.5 565,-58.5 565,-39.5 390,-39.5"/>
<text text-anchor="middle" x="477.5" y="-46.5" font-family="Helvetica,sans-Serif" font-size="10.00">GetIoConnectionForConnectionData</text>
</a>
</g>
</g>
<!-- Node13&#45;&gt;Node14 -->
<g id="edge14" class="edge"><title>Node13&#45;&gt;Node14</title>
<path fill="none" stroke="midnightblue" d="M338.016,-74.6195C365.819,-69.476 398.305,-63.4661 424.822,-58.5604"/>
<polygon fill="midnightblue" stroke="midnightblue" points="337.201,-71.2108 328.005,-76.4716 338.475,-78.094 337.201,-71.2108"/>
</g>
<!-- Node14&#45;&gt;Node12 -->
<g id="edge15" class="edge"><title>Node14&#45;&gt;Node12</title>
<path fill="none" stroke="midnightblue" d="M575.105,-56.0591C623.011,-60.0717 681.675,-65.7539 734,-73 752.549,-75.5687 772.836,-79.1263 790.497,-82.4692"/>
<polygon fill="midnightblue" stroke="midnightblue" points="575.307,-52.5638 565.052,-55.2282 574.73,-59.54 575.307,-52.5638"/>
</g>
<!-- Node15&#45;&gt;Node14 -->
<g id="edge17" class="edge"><title>Node15&#45;&gt;Node14</title>
<path fill="none" stroke="midnightblue" d="M347.791,-48.3565C361.346,-48.4242 375.67,-48.4958 389.645,-48.5657"/>
<polygon fill="midnightblue" stroke="midnightblue" points="347.611,-44.8556 337.593,-48.3055 347.576,-51.8555 347.611,-44.8556"/>
</g>
<!-- Node16&#45;&gt;Node14 -->
<g id="edge19" class="edge"><title>Node16&#45;&gt;Node14</title>
<path fill="none" stroke="midnightblue" d="M335.548,-21.5144C364.896,-27.2373 399.934,-34.0696 427.733,-39.4905"/>
<polygon fill="midnightblue" stroke="midnightblue" points="335.911,-18.0192 325.426,-19.5405 334.571,-24.8898 335.911,-18.0192"/>
</g>
</g>
</svg>
        <g id="navigator" transform="translate(0 0)" fill="#404254">
                <rect fill="#f2f5e9" fill-opacity="0.5" stroke="#606060" stroke-width=".5" x="0" y="0" width="60" height="60"/>
                <use id="zoomplus" xlink:href="#zoomPlus" x="17" y="9" onmousedown="handleZoom(evt,'in')"/>
                <use id="zoomminus" xlink:href="#zoomMin" x="42" y="9" onmousedown="handleZoom(evt,'out')"/>
                <use id="reset" xlink:href="#resetDef" x="30" y="36" onmousedown="handleReset()"/>
                <g id="arrowUp" xlink:href="#dirArrow" transform="translate(30 24)" onmousedown="handlePan(0,-1)">
                  <use xlink:href="#rim" fill="#404040">
                        <set attributeName="fill" to="#808080" begin="arrowUp.mouseover" end="arrowUp.mouseout"/>
                  </use>
                  <path fill="none" stroke="white" stroke-width="1.5" d="M0,-3.0v7 M-2.5,-0.5L0,-3.0L2.5,-0.5"/>
                </g>
                <g id="arrowRight" xlink:href="#dirArrow" transform="rotate(90) translate(36 -43)" onmousedown="handlePan(1,0)">
                  <use xlink:href="#rim" fill="#404040">
                        <set attributeName="fill" to="#808080" begin="arrowRight.mouseover" end="arrowRight.mouseout"/>
                  </use>
                  <path fill="none" stroke="white" stroke-width="1.5" d="M0,-3.0v7 M-2.5,-0.5L0,-3.0L2.5,-0.5"/>
                </g>
                <g id="arrowDown" xlink:href="#dirArrow" transform="rotate(180) translate(-30 -48)" onmousedown="handlePan(0,1)">
                  <use xlink:href="#rim" fill="#404040">
                        <set attributeName="fill" to="#808080" begin="arrowDown.mouseover" end="arrowDown.mouseout"/>
                  </use>
                  <path fill="none" stroke="white" stroke-width="1.5" d="M0,-3.0v7 M-2.5,-0.5L0,-3.0L2.5,-0.5"/>
                </g>
                <g id="arrowLeft" xlink:href="#dirArrow" transform="rotate(270) translate(-36 17)" onmousedown="handlePan(-1,0)">
                  <use xlink:href="#rim" fill="#404040">
                        <set attributeName="fill" to="#808080" begin="arrowLeft.mouseover" end="arrowLeft.mouseout"/>
                  </use>
                  <path fill="none" stroke="white" stroke-width="1.5" d="M0,-3.0v7 M-2.5,-0.5L0,-3.0L2.5,-0.5"/>
                </g>
        </g>
        <svg viewBox="0 0 15 15" width="100%" height="30px" preserveAspectRatio="xMaxYMin meet">
         <g id="arrow_out" transform="scale(0.3 0.3)">
          <a xlink:href="cipconnectionobject_8h_a308afe67f0cfd50cc772ad276257d6f2_icgraph_org.svg" target="_base">
           <rect id="button" ry="5" rx="5" y="6" x="6" height="38" width="38"
                fill="#f2f5e9" fill-opacity="0.5" stroke="#606060" stroke-width="1.0"/>
           <path id="arrow"
             d="M 11.500037,31.436501 C 11.940474,20.09759 22.043105,11.32322 32.158766,21.979434 L 37.068811,17.246167 C 37.068811,17.246167 37.088388,32 37.088388,32 L 22.160133,31.978069 C 22.160133,31.978069 26.997745,27.140456 26.997745,27.140456 C 18.528582,18.264221 13.291696,25.230495 11.500037,31.436501 z"
             style="fill:#404040;"/>
          </a>
         </g>
        </svg>
</svg>
