<?xml version="1.0" encoding="UTF-8" standalone="no"?>
<!DOCTYPE svg PUBLIC "-//W3C//DTD SVG 1.1//EN"
 "http://www.w3.org/Graphics/SVG/1.1/DTD/svg11.dtd">
<!-- Generated by graphviz version 2.38.0 (20140413.2041)
 -->
<!-- Title: ConnectionObjectGetState Pages: 1 -->
<svg width="1676pt" height="470pt"
 viewBox="0.00 0.00 1676.00 469.50" xmlns="http://www.w3.org/2000/svg" xmlns:xlink="http://www.w3.org/1999/xlink">
<g id="graph0" class="graph" transform="scale(1 1) rotate(0) translate(4 465.5)">
<title>ConnectionObjectGetState</title>
<!-- Node1 -->
<g id="node1" class="node"><title>Node1</title>
<polygon fill="#bfbfbf" stroke="black" points="0,-240 0,-259 134,-259 134,-240 0,-240"/>
<text text-anchor="middle" x="67" y="-247" font-family="Helvetica,sans-Serif" font-size="10.00">ConnectionObjectGetState</text>
</g>
<!-- Node2 -->
<g id="node2" class="node"><title>Node2</title>
<g id="a_node2"><a xlink:href="../../d5/d35/cipconnectionmanager_8c.html#a7f66b0e47fa80f863755d608b78b6f78" target="_top" xlink:title="check if the data given in the connection object match with an already established connection ...">
<polygon fill="none" stroke="black" points="189,-126 189,-145 333,-145 333,-126 189,-126"/>
<text text-anchor="middle" x="261" y="-133" font-family="Helvetica,sans-Serif" font-size="10.00">CheckForExistingConnection</text>
</a>
</g>
</g>
<!-- Node1&#45;&gt;Node2 -->
<g id="edge1" class="edge"><title>Node1&#45;&gt;Node2</title>
<path fill="none" stroke="midnightblue" d="M82.9386,-232.139C101.388,-211.779 134.688,-178.417 170,-159.5 181.689,-153.238 195.123,-148.526 207.986,-145.012"/>
<polygon fill="midnightblue" stroke="midnightblue" points="80.2115,-229.939 76.1919,-239.741 85.4472,-234.585 80.2115,-229.939"/>
</g>
<!-- Node9 -->
<g id="node9" class="node"><title>Node9</title>
<g id="a_node9"><a xlink:href="../../d2/da3/cipconnectionmanager_8h.html#ac36c68122b200d1bc99fbe9fb35a3440" target="_top" xlink:title="CheckForTimedOutConnections\lAndCloseTCPConnections">
<polygon fill="none" stroke="black" points="182.5,-392.5 182.5,-422.5 339.5,-422.5 339.5,-392.5 182.5,-392.5"/>
<text text-anchor="start" x="190.5" y="-410.5" font-family="Helvetica,sans-Serif" font-size="10.00">CheckForTimedOutConnections</text>
<text text-anchor="middle" x="261" y="-399.5" font-family="Helvetica,sans-Serif" font-size="10.00">AndCloseTCPConnections</text>
</a>
</g>
</g>
<!-- Node1&#45;&gt;Node9 -->
<g id="edge8" class="edge"><title>Node1&#45;&gt;Node9</title>
<path fill="none" stroke="midnightblue" d="M77.2901,-268.329C92.5687,-297.317 125.772,-352.646 170,-382.5 175.78,-386.401 182.157,-389.697 188.768,-392.481"/>
<polygon fill="midnightblue" stroke="midnightblue" points="80.3185,-266.564 72.6447,-259.259 74.0881,-269.755 80.3185,-266.564"/>
</g>
<!-- Node15 -->
<g id="node15" class="node"><title>Node15</title>
<g id="a_node15"><a xlink:href="../../d5/d35/cipconnectionmanager_8c.html#aed78928415b77a2138e26f1de1979e5b" target="_top" xlink:title="ForwardClose">
<polygon fill="none" stroke="black" points="639,-164 639,-183 716,-183 716,-164 639,-164"/>
<text text-anchor="middle" x="677.5" y="-171" font-family="Helvetica,sans-Serif" font-size="10.00">ForwardClose</text>
</a>
</g>
</g>
<!-- Node1&#45;&gt;Node15 -->
<g id="edge16" class="edge"><title>Node1&#45;&gt;Node15</title>
<path fill="none" stroke="midnightblue" d="M105.379,-236.917C124.517,-230.882 148.299,-224.004 170,-219.5 342.691,-183.659 554.26,-175.744 638.898,-173.995"/>
<polygon fill="midnightblue" stroke="midnightblue" points="104.284,-233.593 95.8298,-239.979 106.421,-240.259 104.284,-233.593"/>
</g>
<!-- Node16 -->
<g id="node16" class="node"><title>Node16</title>
<g id="a_node16"><a xlink:href="../../d2/da3/cipconnectionmanager_8h.html#aa7df2f5886cbdc0d960c98ee6f61caa6" target="_top" xlink:title="Get a connected object dependent on requested ConnectionID. ">
<polygon fill="none" stroke="black" points="207,-50 207,-69 315,-69 315,-50 207,-50"/>
<text text-anchor="middle" x="261" y="-57" font-family="Helvetica,sans-Serif" font-size="10.00">GetConnectedObject</text>
</a>
</g>
</g>
<!-- Node1&#45;&gt;Node16 -->
<g id="edge18" class="edge"><title>Node1&#45;&gt;Node16</title>
<path fill="none" stroke="midnightblue" d="M74.3243,-230.413C86.8385,-195.671 118.128,-122.137 170,-83.5 180.764,-75.4822 194.009,-70.1407 206.994,-66.5828"/>
<polygon fill="midnightblue" stroke="midnightblue" points="71.0152,-229.273 71.0413,-239.868 77.6279,-231.569 71.0152,-229.273"/>
</g>
<!-- Node25 -->
<g id="node25" class="node"><title>Node25</title>
<g id="a_node25"><a xlink:href="../../d2/da3/cipconnectionmanager_8h.html#af9229054795bce595b5aa0385fede004" target="_top" xlink:title="GetConnectedOutputAssembly">
<polygon fill="none" stroke="black" points="185,-316 185,-335 337,-335 337,-316 185,-316"/>
<text text-anchor="middle" x="261" y="-323" font-family="Helvetica,sans-Serif" font-size="10.00">GetConnectedOutputAssembly</text>
</a>
</g>
</g>
<!-- Node1&#45;&gt;Node25 -->
<g id="edge29" class="edge"><title>Node1&#45;&gt;Node25</title>
<path fill="none" stroke="midnightblue" d="M92.9896,-264.122C113.232,-275.5 142.762,-291.059 170,-301.5 184.949,-307.23 201.795,-312.117 216.836,-315.957"/>
<polygon fill="midnightblue" stroke="midnightblue" points="94.5385,-260.976 84.117,-259.068 91.0736,-267.059 94.5385,-260.976"/>
</g>
<!-- Node26 -->
<g id="node26" class="node"><title>Node26</title>
<g id="a_node26"><a xlink:href="../../d1/dbc/appcontype_8c.html#a0c46e6942d5dbb0cd7c9b1eb97e78aea" target="_top" xlink:title="Takes an ConnectionObject and searches and returns an Exclusive Owner Connection based on the Connect...">
<polygon fill="none" stroke="black" points="394.5,-278 394.5,-297 547.5,-297 547.5,-278 394.5,-278"/>
<text text-anchor="middle" x="471" y="-285" font-family="Helvetica,sans-Serif" font-size="10.00">GetExclusiveOwnerConnection</text>
</a>
</g>
</g>
<!-- Node1&#45;&gt;Node26 -->
<g id="edge33" class="edge"><title>Node1&#45;&gt;Node26</title>
<path fill="none" stroke="midnightblue" d="M143.318,-260.327C152.301,-261.473 161.35,-262.561 170,-263.5 246.229,-271.774 333.644,-278.448 394.372,-282.638"/>
<polygon fill="midnightblue" stroke="midnightblue" points="143.597,-256.833 133.229,-259.012 142.693,-263.775 143.597,-256.833"/>
</g>
<!-- Node28 -->
<g id="node28" class="node"><title>Node28</title>
<g id="a_node28"><a xlink:href="../../dc/d93/cipclass3connection_8c.html#a5557c2c7143958acb9d125e2e11296f3" target="_top" xlink:title="Searches and returns a free explicit connection slot. ">
<polygon fill="none" stroke="black" points="194,-442 194,-461 328,-461 328,-442 194,-442"/>
<text text-anchor="middle" x="261" y="-449" font-family="Helvetica,sans-Serif" font-size="10.00">GetFreeExplicitConnection</text>
</a>
</g>
</g>
<!-- Node1&#45;&gt;Node28 -->
<g id="edge34" class="edge"><title>Node1&#45;&gt;Node28</title>
<path fill="none" stroke="midnightblue" d="M73.1509,-269.057C84.1507,-306.79 113.649,-389.604 170,-431.5 177.065,-436.753 185.248,-440.671 193.743,-443.587"/>
<polygon fill="midnightblue" stroke="midnightblue" points="76.4831,-267.976 70.4262,-259.283 69.7402,-269.856 76.4831,-267.976"/>
</g>
<!-- Node29 -->
<g id="node29" class="node"><title>Node29</title>
<g id="a_node29"><a xlink:href="../../d1/dbc/appcontype_8c.html#a06e551d0aff7ac41def5bbc39652f89a" target="_top" xlink:title="Takes an ConnectionObject and searches and returns an Input Only Connection based on the ConnectionOb...">
<polygon fill="none" stroke="black" points="409,-240 409,-259 533,-259 533,-240 409,-240"/>
<text text-anchor="middle" x="471" y="-247" font-family="Helvetica,sans-Serif" font-size="10.00">GetInputOnlyConnection</text>
</a>
</g>
</g>
<!-- Node1&#45;&gt;Node29 -->
<g id="edge36" class="edge"><title>Node1&#45;&gt;Node29</title>
<path fill="none" stroke="midnightblue" d="M144.471,-249.5C221.225,-249.5 337.956,-249.5 408.795,-249.5"/>
<polygon fill="midnightblue" stroke="midnightblue" points="144.382,-246 134.382,-249.5 144.382,-253 144.382,-246"/>
</g>
<!-- Node30 -->
<g id="node30" class="node"><title>Node30</title>
<g id="a_node30"><a xlink:href="../../d1/dbc/appcontype_8c.html#ae76893528b0e064cf220f6eb19ac5bdf" target="_top" xlink:title="Takes an ConnectionObject and searches and returns an Listen Only Connection based on the ConnectionO...">
<polygon fill="none" stroke="black" points="407,-202 407,-221 535,-221 535,-202 407,-202"/>
<text text-anchor="middle" x="471" y="-209" font-family="Helvetica,sans-Serif" font-size="10.00">GetListenOnlyConnection</text>
</a>
</g>
</g>
<!-- Node1&#45;&gt;Node30 -->
<g id="edge38" class="edge"><title>Node1&#45;&gt;Node30</title>
<path fill="none" stroke="midnightblue" d="M144.38,-242.28C220.43,-235.091 335.791,-224.186 406.835,-217.471"/>
<polygon fill="midnightblue" stroke="midnightblue" points="144.008,-238.799 134.382,-243.225 144.667,-245.768 144.008,-238.799"/>
</g>
<!-- Node31 -->
<g id="node31" class="node"><title>Node31</title>
<g id="a_node31"><a xlink:href="../../d1/dc0/appcontype_8h.html#acda34462cc2d60ebb7b48a633bfe3c49" target="_top" xlink:title="check if there exists an producing multicast exclusive owner or listen only connection that should pr...">
<polygon fill="none" stroke="black" points="170,-354 170,-373 352,-373 352,-354 170,-354"/>
<text text-anchor="middle" x="261" y="-361" font-family="Helvetica,sans-Serif" font-size="10.00">GetNextNonControlMasterConnection</text>
</a>
</g>
</g>
<!-- Node1&#45;&gt;Node31 -->
<g id="edge40" class="edge"><title>Node1&#45;&gt;Node31</title>
<path fill="none" stroke="midnightblue" d="M81.7248,-267.176C99.6113,-288.915 133.004,-325.288 170,-344.5 177.511,-348.401 185.77,-351.501 194.145,-353.964"/>
<polygon fill="midnightblue" stroke="midnightblue" points="84.236,-264.713 75.2459,-259.107 78.7778,-269.096 84.236,-264.713"/>
</g>
<!-- Node33 -->
<g id="node33" class="node"><title>Node33</title>
<g id="a_node33"><a xlink:href="../../d2/dc9/group__CIP__API.html#ga9f57b09260efb5bfb188b9d0ca0c6091" target="_top" xlink:title="Check if any of the connection timers (TransmissionTrigger or WatchdogTimeout) have timed out...">
<polygon fill="none" stroke="black" points="1021.5,-94 1021.5,-113 1127.5,-113 1127.5,-94 1021.5,-94"/>
<text text-anchor="middle" x="1074.5" y="-101" font-family="Helvetica,sans-Serif" font-size="10.00">ManageConnections</text>
</a>
</g>
</g>
<!-- Node1&#45;&gt;Node33 -->
<g id="edge44" class="edge"><title>Node1&#45;&gt;Node33</title>
<path fill="none" stroke="midnightblue" d="M76.1856,-230.411C90.3258,-200.113 122.456,-141.854 170,-116.5 287.886,-53.6357 336.4,-97.5 470,-97.5 470,-97.5 470,-97.5 678.5,-97.5 801.437,-97.5 945.872,-100.442 1021.43,-102.205"/>
<polygon fill="midnightblue" stroke="midnightblue" points="72.845,-229.307 71.9385,-239.863 79.23,-232.176 72.845,-229.307"/>
</g>
<!-- Node3 -->
<g id="node3" class="node"><title>Node3</title>
<g id="a_node3"><a xlink:href="../../d5/d35/cipconnectionmanager_8c.html#a29e07d628d1216f979fbed720a40503d" target="_top" xlink:title="Check if resources for new connection available, generate ForwardOpen Reply message. ">
<polygon fill="none" stroke="black" points="842,-126 842,-145 917,-145 917,-126 842,-126"/>
<text text-anchor="middle" x="879.5" y="-133" font-family="Helvetica,sans-Serif" font-size="10.00">ForwardOpen</text>
</a>
</g>
</g>
<!-- Node2&#45;&gt;Node3 -->
<g id="edge2" class="edge"><title>Node2&#45;&gt;Node3</title>
<path fill="none" stroke="midnightblue" d="M343.319,-135.5C478.542,-135.5 744.383,-135.5 841.692,-135.5"/>
<polygon fill="midnightblue" stroke="midnightblue" points="343.021,-132 333.021,-135.5 343.021,-139 343.021,-132"/>
</g>
<!-- Node4 -->
<g id="node4" class="node"><title>Node4</title>
<g id="a_node4"><a xlink:href="../../d2/da3/cipconnectionmanager_8h.html#a5ab0de6894d23e8fe84a6b46797c2212" target="_top" xlink:title="Initialize the data of the connection manager object. ">
<polygon fill="none" stroke="black" points="1016,-164 1016,-183 1133,-183 1133,-164 1016,-164"/>
<text text-anchor="middle" x="1074.5" y="-171" font-family="Helvetica,sans-Serif" font-size="10.00">ConnectionManagerInit</text>
</a>
</g>
</g>
<!-- Node3&#45;&gt;Node4 -->
<g id="edge3" class="edge"><title>Node3&#45;&gt;Node4</title>
<path fill="none" stroke="midnightblue" d="M927.359,-144.726C957.015,-150.565 995.266,-158.096 1025.19,-163.989"/>
<polygon fill="midnightblue" stroke="midnightblue" points="927.744,-141.235 917.256,-142.737 926.392,-148.103 927.744,-141.235"/>
</g>
<!-- Node5 -->
<g id="node5" class="node"><title>Node5</title>
<g id="a_node5"><a xlink:href="../../d2/dc9/group__CIP__API.html#ga5d4979945d124e28668b264c3823db1c" target="_top" xlink:title="Initialize and setup the CIP&#45;stack. ">
<polygon fill="none" stroke="black" points="1228.5,-154 1228.5,-173 1299.5,-173 1299.5,-154 1228.5,-154"/>
<text text-anchor="middle" x="1264" y="-161" font-family="Helvetica,sans-Serif" font-size="10.00">CipStackInit</text>
</a>
</g>
</g>
<!-- Node4&#45;&gt;Node5 -->
<g id="edge4" class="edge"><title>Node4&#45;&gt;Node5</title>
<path fill="none" stroke="midnightblue" d="M1143.1,-169.895C1172.05,-168.351 1204.61,-166.614 1228.49,-165.34"/>
<polygon fill="midnightblue" stroke="midnightblue" points="1142.83,-166.404 1133.03,-170.432 1143.2,-173.394 1142.83,-166.404"/>
</g>
<!-- Node6 -->
<g id="node6" class="node"><title>Node6</title>
<g id="a_node6"><a xlink:href="../../d5/dcb/MINGW_2main_8c.html#ad338a7dbc41dc40bcecd0479377ef207" target="_top" xlink:title="main">
<polygon fill="none" stroke="black" points="1388,-116 1388,-135 1426,-135 1426,-116 1388,-116"/>
<text text-anchor="middle" x="1407" y="-123" font-family="Helvetica,sans-Serif" font-size="10.00">main</text>
</a>
</g>
</g>
<!-- Node5&#45;&gt;Node6 -->
<g id="edge5" class="edge"><title>Node5&#45;&gt;Node6</title>
<path fill="none" stroke="midnightblue" d="M1309.68,-151.458C1336.15,-144.325 1368.25,-135.675 1387.89,-130.381"/>
<polygon fill="midnightblue" stroke="midnightblue" points="1308.6,-148.125 1299.85,-154.107 1310.42,-154.884 1308.6,-148.125"/>
</g>
<!-- Node7 -->
<g id="node7" class="node"><title>Node7</title>
<g id="a_node7"><a xlink:href="../../d8/d03/ports_2MINGW_2CMakeLists_8txt.html#a7e00df43a20d627a1732be7766d91097" target="_top" xlink:title="add_library">
<polygon fill="none" stroke="black" points="1477,-116 1477,-135 1541,-135 1541,-116 1477,-116"/>
<text text-anchor="middle" x="1509" y="-123" font-family="Helvetica,sans-Serif" font-size="10.00">add_library</text>
</a>
</g>
</g>
<!-- Node6&#45;&gt;Node7 -->
<g id="edge6" class="edge"><title>Node6&#45;&gt;Node7</title>
<path fill="none" stroke="midnightblue" d="M1436.7,-125.5C1449.24,-125.5 1463.99,-125.5 1476.81,-125.5"/>
<polygon fill="midnightblue" stroke="midnightblue" points="1436.34,-122 1426.34,-125.5 1436.34,-129 1436.34,-122"/>
</g>
<!-- Node8 -->
<g id="node8" class="node"><title>Node8</title>
<g id="a_node8"><a xlink:href="../../d8/dce/ports_2CMakeLists_8txt.html#a598fae457555a5fb26e18d4cd8f89de9" target="_top" xlink:title="add_subdirectory">
<polygon fill="none" stroke="black" points="1577,-116 1577,-135 1668,-135 1668,-116 1577,-116"/>
<text text-anchor="middle" x="1622.5" y="-123" font-family="Helvetica,sans-Serif" font-size="10.00">add_subdirectory</text>
</a>
</g>
</g>
<!-- Node7&#45;&gt;Node8 -->
<g id="edge7" class="edge"><title>Node7&#45;&gt;Node8</title>
<path fill="none" stroke="midnightblue" d="M1551.3,-125.5C1559.63,-125.5 1568.42,-125.5 1576.86,-125.5"/>
<polygon fill="midnightblue" stroke="midnightblue" points="1551.06,-122 1541.06,-125.5 1551.06,-129 1551.06,-122"/>
</g>
<!-- Node10 -->
<g id="node10" class="node"><title>Node10</title>
<g id="a_node10"><a xlink:href="../../dc/d93/cipclass3connection_8c.html#a6053ab7004c1419bd80faf9aca54bfd3" target="_top" xlink:title="Class3ConnectionTimeoutHandler">
<polygon fill="none" stroke="black" points="388,-398 388,-417 554,-417 554,-398 388,-398"/>
<text text-anchor="middle" x="471" y="-405" font-family="Helvetica,sans-Serif" font-size="10.00">Class3ConnectionTimeoutHandler</text>
</a>
</g>
</g>
<!-- Node9&#45;&gt;Node10 -->
<g id="edge9" class="edge"><title>Node9&#45;&gt;Node10</title>
<path fill="none" stroke="midnightblue" d="M349.777,-407.5C362.389,-407.5 375.328,-407.5 387.826,-407.5"/>
<polygon fill="midnightblue" stroke="midnightblue" points="349.747,-404 339.747,-407.5 349.747,-411 349.747,-404"/>
</g>
<!-- Node12 -->
<g id="node12" class="node"><title>Node12</title>
<g id="a_node12"><a xlink:href="../../df/d03/cipioconnection_8c.html#a7e4923f4b027d489d9933b52f6fd7007" target="_top" xlink:title="HandleIoConnectionTimeOut">
<polygon fill="none" stroke="black" points="399.5,-357 399.5,-376 542.5,-376 542.5,-357 399.5,-357"/>
<text text-anchor="middle" x="471" y="-364" font-family="Helvetica,sans-Serif" font-size="10.00">HandleIoConnectionTimeOut</text>
</a>
</g>
</g>
<!-- Node9&#45;&gt;Node12 -->
<g id="edge12" class="edge"><title>Node9&#45;&gt;Node12</title>
<path fill="none" stroke="midnightblue" d="M348.157,-390.517C373.207,-385.579 399.681,-380.361 421.529,-376.054"/>
<polygon fill="midnightblue" stroke="midnightblue" points="347.405,-387.098 338.27,-392.466 348.759,-393.966 347.405,-387.098"/>
</g>
<!-- Node11 -->
<g id="node11" class="node"><title>Node11</title>
<g id="a_node11"><a xlink:href="../../d2/d11/cipclass3connection_8h.html#a45bd741b44137164c07a6ce09a7a9a9d" target="_top" xlink:title="Check if Class3 connection is available and if yes setup all data. ">
<polygon fill="none" stroke="black" points="609,-398 609,-417 746,-417 746,-398 609,-398"/>
<text text-anchor="middle" x="677.5" y="-405" font-family="Helvetica,sans-Serif" font-size="10.00">EstablishClass3Connection</text>
</a>
</g>
</g>
<!-- Node10&#45;&gt;Node11 -->
<g id="edge10" class="edge"><title>Node10&#45;&gt;Node11</title>
<path fill="none" stroke="midnightblue" d="M564.546,-407.5C579.441,-407.5 594.613,-407.5 608.782,-407.5"/>
<polygon fill="midnightblue" stroke="midnightblue" points="564.294,-404 554.294,-407.5 564.294,-411 564.294,-404"/>
</g>
<!-- Node11&#45;&gt;Node4 -->
<g id="edge11" class="edge"><title>Node11&#45;&gt;Node4</title>
<path fill="none" stroke="midnightblue" d="M711.667,-393.93C765.38,-371.323 873.865,-323.012 958,-268.5 999.836,-241.394 1043.89,-201.509 1063.3,-183.261"/>
<polygon fill="midnightblue" stroke="midnightblue" points="710.17,-390.762 702.294,-397.848 712.87,-397.221 710.17,-390.762"/>
</g>
<!-- Node13 -->
<g id="node13" class="node"><title>Node13</title>
<g id="a_node13"><a xlink:href="../../df/d03/cipioconnection_8c.html#ab3282f146a3ea91c90cf14c32206ee8c" target="_top" xlink:title="SetIoConnectionCallbacks">
<polygon fill="none" stroke="black" points="611,-319 611,-338 744,-338 744,-319 611,-319"/>
<text text-anchor="middle" x="677.5" y="-326" font-family="Helvetica,sans-Serif" font-size="10.00">SetIoConnectionCallbacks</text>
</a>
</g>
</g>
<!-- Node12&#45;&gt;Node13 -->
<g id="edge13" class="edge"><title>Node12&#45;&gt;Node13</title>
<path fill="none" stroke="midnightblue" d="M533.448,-355.082C562.708,-349.645 597.301,-343.217 625.139,-338.044"/>
<polygon fill="midnightblue" stroke="midnightblue" points="532.532,-351.692 523.34,-356.96 533.811,-358.574 532.532,-351.692"/>
</g>
<!-- Node14 -->
<g id="node14" class="node"><title>Node14</title>
<g id="a_node14"><a xlink:href="../../de/d45/cipioconnection_8h.html#a43e270b3f9b9f6296b12285c320c95aa" target="_top" xlink:title="Setup all data in order to establish an IO connection. ">
<polygon fill="none" stroke="black" points="822,-240 822,-259 937,-259 937,-240 822,-240"/>
<text text-anchor="middle" x="879.5" y="-247" font-family="Helvetica,sans-Serif" font-size="10.00">EstablishIoConnection</text>
</a>
</g>
</g>
<!-- Node13&#45;&gt;Node14 -->
<g id="edge14" class="edge"><title>Node13&#45;&gt;Node14</title>
<path fill="none" stroke="midnightblue" d="M712.009,-315.264C752.24,-299.373 818.727,-273.11 854.29,-259.063"/>
<polygon fill="midnightblue" stroke="midnightblue" points="710.64,-312.042 702.625,-318.971 713.211,-318.552 710.64,-312.042"/>
</g>
<!-- Node14&#45;&gt;Node4 -->
<g id="edge15" class="edge"><title>Node14&#45;&gt;Node4</title>
<path fill="none" stroke="midnightblue" d="M914.71,-236.029C953.359,-220.809 1015.28,-196.424 1049.25,-183.047"/>
<polygon fill="midnightblue" stroke="midnightblue" points="912.966,-232.954 904.944,-239.875 915.531,-239.467 912.966,-232.954"/>
</g>
<!-- Node15&#45;&gt;Node4 -->
<g id="edge17" class="edge"><title>Node15&#45;&gt;Node4</title>
<path fill="none" stroke="midnightblue" d="M726.258,-173.5C799.001,-173.5 937.353,-173.5 1015.67,-173.5"/>
<polygon fill="midnightblue" stroke="midnightblue" points="726.017,-170 716.017,-173.5 726.017,-177 726.017,-170"/>
</g>
<!-- Node17 -->
<g id="node17" class="node"><title>Node17</title>
<g id="a_node17"><a xlink:href="../../d2/dc9/group__CIP__API.html#ga9abc7c86317baaa7ede1a4bce09fa542" target="_top" xlink:title="Notify the connection manager that data for a connection has been received. ">
<polygon fill="none" stroke="black" points="801,-50 801,-69 958,-69 958,-50 801,-50"/>
<text text-anchor="middle" x="879.5" y="-57" font-family="Helvetica,sans-Serif" font-size="10.00">HandleReceivedConnectedData</text>
</a>
</g>
</g>
<!-- Node16&#45;&gt;Node17 -->
<g id="edge19" class="edge"><title>Node16&#45;&gt;Node17</title>
<path fill="none" stroke="midnightblue" d="M325.376,-59.5C439.105,-59.5 677.452,-59.5 800.816,-59.5"/>
<polygon fill="midnightblue" stroke="midnightblue" points="325.096,-56.0001 315.096,-59.5 325.096,-63.0001 325.096,-56.0001"/>
</g>
<!-- Node21 -->
<g id="node21" class="node"><title>Node21</title>
<g id="a_node21"><a xlink:href="../../d4/d91/group__ENCAP.html#ga93b23ccc67639937716a8f436a96c2b5" target="_top" xlink:title="NotifyConnectedCommonPacket\lFormat">
<polygon fill="none" stroke="black" points="390.5,-0.5 390.5,-30.5 551.5,-30.5 551.5,-0.5 390.5,-0.5"/>
<text text-anchor="start" x="398.5" y="-18.5" font-family="Helvetica,sans-Serif" font-size="10.00">NotifyConnectedCommonPacket</text>
<text text-anchor="middle" x="471" y="-7.5" font-family="Helvetica,sans-Serif" font-size="10.00">Format</text>
</a>
</g>
</g>
<!-- Node16&#45;&gt;Node21 -->
<g id="edge24" class="edge"><title>Node16&#45;&gt;Node21</title>
<path fill="none" stroke="midnightblue" d="M317.176,-47.8282C342.196,-42.5355 372.093,-36.2111 398.782,-30.5654"/>
<polygon fill="midnightblue" stroke="midnightblue" points="316.192,-44.4588 307.133,-49.9527 317.641,-51.3072 316.192,-44.4588"/>
</g>
<!-- Node18 -->
<g id="node18" class="node"><title>Node18</title>
<g id="a_node18"><a xlink:href="../../db/d4f/generic__networkhandler_8c.html#af0c95ade149818d252c292b489cfe190" target="_top" xlink:title="check if on one of the UDP consuming sockets data has been received and if yes handle it correctly ...">
<polygon fill="none" stroke="black" points="994,-44.5 994,-74.5 1155,-74.5 1155,-44.5 994,-44.5"/>
<text text-anchor="start" x="1002" y="-62.5" font-family="Helvetica,sans-Serif" font-size="10.00">CheckAndHandleConsumingUdp</text>
<text text-anchor="middle" x="1074.5" y="-51.5" font-family="Helvetica,sans-Serif" font-size="10.00">Sockets</text>
</a>
</g>
</g>
<!-- Node17&#45;&gt;Node18 -->
<g id="edge20" class="edge"><title>Node17&#45;&gt;Node18</title>
<path fill="none" stroke="midnightblue" d="M968.419,-59.5C976.875,-59.5 985.419,-59.5 993.789,-59.5"/>
<polygon fill="midnightblue" stroke="midnightblue" points="968.166,-56.0001 958.166,-59.5 968.166,-63.0001 968.166,-56.0001"/>
</g>
<!-- Node19 -->
<g id="node19" class="node"><title>Node19</title>
<g id="a_node19"><a xlink:href="../../da/dc2/generic__networkhandler_8h.html#a2f01af81d3e5018d9980e2bc28c9078a" target="_top" xlink:title="NetworkHandlerProcessOnce">
<polygon fill="none" stroke="black" points="1191,-59 1191,-78 1337,-78 1337,-59 1191,-59"/>
<text text-anchor="middle" x="1264" y="-66" font-family="Helvetica,sans-Serif" font-size="10.00">NetworkHandlerProcessOnce</text>
</a>
</g>
</g>
<!-- Node18&#45;&gt;Node19 -->
<g id="edge21" class="edge"><title>Node18&#45;&gt;Node19</title>
<path fill="none" stroke="midnightblue" d="M1165.1,-63.8006C1173.71,-64.2142 1182.38,-64.6302 1190.8,-65.0343"/>
<polygon fill="midnightblue" stroke="midnightblue" points="1165.17,-60.3004 1155.02,-63.3168 1164.84,-67.2923 1165.17,-60.3004"/>
</g>
<!-- Node19&#45;&gt;Node6 -->
<g id="edge22" class="edge"><title>Node19&#45;&gt;Node6</title>
<path fill="none" stroke="midnightblue" d="M1297.98,-81.8342C1325.95,-93.1411 1365.04,-108.941 1387.72,-118.109"/>
<polygon fill="midnightblue" stroke="midnightblue" points="1299.18,-78.5436 1288.6,-78.0405 1296.56,-85.0334 1299.18,-78.5436"/>
</g>
<!-- Node20 -->
<g id="node20" class="node"><title>Node20</title>
<g id="a_node20"><a xlink:href="../../d9/dfb/POSIX_2main_8c.html#acd4e45a35a64f9cb29b59f63492b61d2" target="_top" xlink:title="Signal handler function for ending stack execution. ">
<polygon fill="none" stroke="black" points="1373,-59 1373,-78 1441,-78 1441,-59 1373,-59"/>
<text text-anchor="middle" x="1407" y="-66" font-family="Helvetica,sans-Serif" font-size="10.00">LeaveStack</text>
</a>
</g>
</g>
<!-- Node19&#45;&gt;Node20 -->
<g id="edge23" class="edge"><title>Node19&#45;&gt;Node20</title>
<path fill="none" stroke="midnightblue" d="M1347.33,-68.5C1356.28,-68.5 1364.96,-68.5 1372.79,-68.5"/>
<polygon fill="midnightblue" stroke="midnightblue" points="1347.15,-65.0001 1337.15,-68.5 1347.15,-72.0001 1347.15,-65.0001"/>
</g>
<!-- Node22 -->
<g id="node22" class="node"><title>Node22</title>
<g id="a_node22"><a xlink:href="../../d2/dbd/encap_8c.html#a49dc585614f655a5b313150a01fd7221" target="_top" xlink:title="Call Connection Manager. ">
<polygon fill="none" stroke="black" points="602.5,-0.5 602.5,-30.5 752.5,-30.5 752.5,-0.5 602.5,-0.5"/>
<text text-anchor="start" x="610.5" y="-18.5" font-family="Helvetica,sans-Serif" font-size="10.00">HandleReceivedSendUnitData</text>
<text text-anchor="middle" x="677.5" y="-7.5" font-family="Helvetica,sans-Serif" font-size="10.00">Command</text>
</a>
</g>
</g>
<!-- Node21&#45;&gt;Node22 -->
<g id="edge25" class="edge"><title>Node21&#45;&gt;Node22</title>
<path fill="none" stroke="midnightblue" d="M561.922,-15.5C575.45,-15.5 589.27,-15.5 602.416,-15.5"/>
<polygon fill="midnightblue" stroke="midnightblue" points="561.651,-12.0001 551.651,-15.5 561.651,-19.0001 561.651,-12.0001"/>
</g>
<!-- Node23 -->
<g id="node23" class="node"><title>Node23</title>
<g id="a_node23"><a xlink:href="../../d2/dc9/group__CIP__API.html#ga16eaeeb12ba23b5a75c8e5902a33d70a" target="_top" xlink:title="Notify the encapsulation layer that an explicit message has been received via TCP. ">
<polygon fill="none" stroke="black" points="801.5,-6 801.5,-25 957.5,-25 957.5,-6 801.5,-6"/>
<text text-anchor="middle" x="879.5" y="-13" font-family="Helvetica,sans-Serif" font-size="10.00">HandleReceivedExplictTcpData</text>
</a>
</g>
</g>
<!-- Node22&#45;&gt;Node23 -->
<g id="edge26" class="edge"><title>Node22&#45;&gt;Node23</title>
<path fill="none" stroke="midnightblue" d="M762.856,-15.5C775.649,-15.5 788.792,-15.5 801.42,-15.5"/>
<polygon fill="midnightblue" stroke="midnightblue" points="762.688,-12.0001 752.688,-15.5 762.688,-19.0001 762.688,-12.0001"/>
</g>
<!-- Node24 -->
<g id="node24" class="node"><title>Node24</title>
<g id="a_node24"><a xlink:href="../../db/d4f/generic__networkhandler_8c.html#aca5593b7dd39d7a7b437999a367102d6" target="_top" xlink:title="Handles data on an established TCP connection, processed connection is given by socket. ">
<polygon fill="none" stroke="black" points="1010.5,-6 1010.5,-25 1138.5,-25 1138.5,-6 1010.5,-6"/>
<text text-anchor="middle" x="1074.5" y="-13" font-family="Helvetica,sans-Serif" font-size="10.00">HandleDataOnTcpSocket</text>
</a>
</g>
</g>
<!-- Node23&#45;&gt;Node24 -->
<g id="edge27" class="edge"><title>Node23&#45;&gt;Node24</title>
<path fill="none" stroke="midnightblue" d="M967.969,-15.5C982.283,-15.5 996.865,-15.5 1010.44,-15.5"/>
<polygon fill="midnightblue" stroke="midnightblue" points="967.611,-12.0001 957.611,-15.5 967.611,-19.0001 967.611,-12.0001"/>
</g>
<!-- Node24&#45;&gt;Node19 -->
<g id="edge28" class="edge"><title>Node24&#45;&gt;Node19</title>
<path fill="none" stroke="midnightblue" d="M1127.54,-27.3809C1136.72,-29.6347 1146.16,-32.0557 1155,-34.5 1182.09,-41.9922 1212.62,-51.7231 1234.29,-58.8539"/>
<polygon fill="midnightblue" stroke="midnightblue" points="1128.27,-23.9562 1117.73,-25.0079 1126.62,-30.7601 1128.27,-23.9562"/>
</g>
<!-- Node25&#45;&gt;Node26 -->
<g id="edge30" class="edge"><title>Node25&#45;&gt;Node26</title>
<path fill="none" stroke="midnightblue" d="M324.11,-314.153C353.953,-308.701 389.322,-302.239 417.76,-297.044"/>
<polygon fill="midnightblue" stroke="midnightblue" points="323.427,-310.72 314.219,-315.96 324.685,-317.606 323.427,-310.72"/>
</g>
<!-- Node27 -->
<g id="node27" class="node"><title>Node27</title>
<g id="a_node27"><a xlink:href="../../d1/dc0/appcontype_8h.html#ab3a019a2217375c098345317da123323" target="_top" xlink:title="check if for the given connection data received in a forward_open request a suitable connection is av...">
<polygon fill="none" stroke="black" points="590,-240 590,-259 765,-259 765,-240 590,-240"/>
<text text-anchor="middle" x="677.5" y="-247" font-family="Helvetica,sans-Serif" font-size="10.00">GetIoConnectionForConnectionData</text>
</a>
</g>
</g>
<!-- Node26&#45;&gt;Node27 -->
<g id="edge31" class="edge"><title>Node26&#45;&gt;Node27</title>
<path fill="none" stroke="midnightblue" d="M533.448,-276.082C562.708,-270.645 597.301,-264.217 625.139,-259.044"/>
<polygon fill="midnightblue" stroke="midnightblue" points="532.532,-272.692 523.34,-277.96 533.811,-279.574 532.532,-272.692"/>
</g>
<!-- Node27&#45;&gt;Node14 -->
<g id="edge32" class="edge"><title>Node27&#45;&gt;Node14</title>
<path fill="none" stroke="midnightblue" d="M775.466,-249.5C791.349,-249.5 807.334,-249.5 821.817,-249.5"/>
<polygon fill="midnightblue" stroke="midnightblue" points="775.06,-246 765.06,-249.5 775.06,-253 775.06,-246"/>
</g>
<!-- Node28&#45;&gt;Node11 -->
<g id="edge35" class="edge"><title>Node28&#45;&gt;Node11</title>
<path fill="none" stroke="midnightblue" d="M338.221,-446.409C397.227,-442.122 480.937,-435.283 554,-426.5 575.795,-423.88 599.669,-420.331 620.506,-417.01"/>
<polygon fill="midnightblue" stroke="midnightblue" points="337.958,-442.919 328.235,-447.128 338.461,-449.901 337.958,-442.919"/>
</g>
<!-- Node29&#45;&gt;Node27 -->
<g id="edge37" class="edge"><title>Node29&#45;&gt;Node27</title>
<path fill="none" stroke="midnightblue" d="M543.269,-249.5C558.237,-249.5 574.184,-249.5 589.65,-249.5"/>
<polygon fill="midnightblue" stroke="midnightblue" points="543.08,-246 533.08,-249.5 543.08,-253 543.08,-246"/>
</g>
<!-- Node30&#45;&gt;Node27 -->
<g id="edge39" class="edge"><title>Node30&#45;&gt;Node27</title>
<path fill="none" stroke="midnightblue" d="M533.448,-222.918C562.708,-228.355 597.301,-234.783 625.139,-239.956"/>
<polygon fill="midnightblue" stroke="midnightblue" points="533.811,-219.426 523.34,-221.04 532.532,-226.308 533.811,-219.426"/>
</g>
<!-- Node31&#45;&gt;Node12 -->
<g id="edge43" class="edge"><title>Node31&#45;&gt;Node12</title>
<path fill="none" stroke="midnightblue" d="M362.072,-364.943C374.64,-365.125 387.286,-365.307 399.272,-365.48"/>
<polygon fill="midnightblue" stroke="midnightblue" points="362.072,-361.443 352.022,-364.798 361.971,-368.442 362.072,-361.443"/>
</g>
<!-- Node32 -->
<g id="node32" class="node"><title>Node32</title>
<g id="a_node32"><a xlink:href="../../df/d03/cipioconnection_8c.html#a730b410a0cdbc6a456973c0e51568968" target="_top" xlink:title="CloseIoConnection">
<polygon fill="none" stroke="black" points="421,-319 421,-338 521,-338 521,-319 421,-319"/>
<text text-anchor="middle" x="471" y="-326" font-family="Helvetica,sans-Serif" font-size="10.00">CloseIoConnection</text>
</a>
</g>
</g>
<!-- Node31&#45;&gt;Node32 -->
<g id="edge41" class="edge"><title>Node31&#45;&gt;Node32</title>
<path fill="none" stroke="midnightblue" d="M328.531,-352.305C358.518,-347.259 393.304,-341.406 420.877,-336.766"/>
<polygon fill="midnightblue" stroke="midnightblue" points="327.843,-348.871 318.562,-353.982 329.004,-355.774 327.843,-348.871"/>
</g>
<!-- Node32&#45;&gt;Node13 -->
<g id="edge42" class="edge"><title>Node32&#45;&gt;Node13</title>
<path fill="none" stroke="midnightblue" d="M531.265,-328.5C556.132,-328.5 585.146,-328.5 610.675,-328.5"/>
<polygon fill="midnightblue" stroke="midnightblue" points="531.243,-325 521.243,-328.5 531.243,-332 531.243,-325"/>
</g>
<!-- Node33&#45;&gt;Node19 -->
<g id="edge45" class="edge"><title>Node33&#45;&gt;Node19</title>
<path fill="none" stroke="midnightblue" d="M1136.58,-92.0988C1160.9,-87.5581 1188.58,-82.3914 1211.83,-78.0523"/>
<polygon fill="midnightblue" stroke="midnightblue" points="1135.92,-88.6605 1126.74,-93.9361 1137.21,-95.5416 1135.92,-88.6605"/>
</g>
</g>
</svg>
