<?xml version="1.0" encoding="UTF-8" standalone="no"?>
<!DOCTYPE svg PUBLIC "-//W3C//DTD SVG 1.1//EN"
 "http://www.w3.org/Graphics/SVG/1.1/DTD/svg11.dtd">
<!-- Generated by graphviz version 2.38.0 (20140413.2041)
 -->
<!-- Title: OpenProducingPointToPointConnection Pages: 1 -->
<svg width="782pt" height="294pt"
 viewBox="0.00 0.00 782.00 294.00" xmlns="http://www.w3.org/2000/svg" xmlns:xlink="http://www.w3.org/1999/xlink">
<g id="graph0" class="graph" transform="scale(1 1) rotate(0) translate(4 290)">
<title>OpenProducingPointToPointConnection</title>
<!-- Node1 -->
<g id="node1" class="node"><title>Node1</title>
<polygon fill="#bfbfbf" stroke="black" points="0,-175 0,-205 140,-205 140,-175 0,-175"/>
<text text-anchor="start" x="8" y="-193" font-family="Helvetica,sans-Serif" font-size="10.00">OpenProducingPointToPoint</text>
<text text-anchor="middle" x="70" y="-182" font-family="Helvetica,sans-Serif" font-size="10.00">Connection</text>
</g>
<!-- Node2 -->
<g id="node2" class="node"><title>Node2</title>
<g id="a_node2"><a xlink:href="../../df/d91/cipconnectionobject_8c.html#aeee7026822ffa05ebabab57a0eed1665" target="_top" xlink:title="ConnectionObjectGetTToOPriority">
<polygon fill="none" stroke="black" points="176,-228.5 176,-247.5 342,-247.5 342,-228.5 176,-228.5"/>
<text text-anchor="middle" x="259" y="-235.5" font-family="Helvetica,sans-Serif" font-size="10.00">ConnectionObjectGetTToOPriority</text>
</a>
</g>
</g>
<!-- Node1&#45;&gt;Node2 -->
<g id="edge1" class="edge"><title>Node1&#45;&gt;Node2</title>
<path fill="none" stroke="midnightblue" d="M129.655,-205.056C155.826,-211.774 186.247,-219.582 210.902,-225.911"/>
<polygon fill="midnightblue" stroke="midnightblue" points="210.182,-229.339 220.739,-228.436 211.923,-222.559 210.182,-229.339"/>
</g>
<!-- Node4 -->
<g id="node4" class="node"><title>Node4</title>
<g id="a_node4"><a xlink:href="../../d5/dc5/group__CIP__CALLBACK__API.html#ga5807bcc51621775c9aedbf58d3a7a6d3" target="_top" xlink:title="create a producing or consuming UDP socket ">
<polygon fill="none" stroke="black" points="211.5,-133.5 211.5,-152.5 306.5,-152.5 306.5,-133.5 211.5,-133.5"/>
<text text-anchor="middle" x="259" y="-140.5" font-family="Helvetica,sans-Serif" font-size="10.00">CreateUdpSocket</text>
</a>
</g>
</g>
<!-- Node1&#45;&gt;Node4 -->
<g id="edge3" class="edge"><title>Node1&#45;&gt;Node4</title>
<path fill="none" stroke="midnightblue" d="M130.682,-175C156.309,-168.559 185.852,-161.133 210.025,-155.058"/>
<polygon fill="midnightblue" stroke="midnightblue" points="211.184,-158.376 220.029,-152.543 209.478,-151.587 211.184,-158.376"/>
</g>
<!-- Node3 -->
<g id="node3" class="node"><title>Node3</title>
<g id="a_node3"><a xlink:href="../../df/d91/cipconnectionobject_8c.html#a54694d088a9b468aa4531a1801bbc490" target="_top" xlink:title="ConnectionObjectGetPriority">
<polygon fill="none" stroke="black" points="378,-266.5 378,-285.5 519,-285.5 519,-266.5 378,-266.5"/>
<text text-anchor="middle" x="448.5" y="-273.5" font-family="Helvetica,sans-Serif" font-size="10.00">ConnectionObjectGetPriority</text>
</a>
</g>
</g>
<!-- Node2&#45;&gt;Node3 -->
<g id="edge2" class="edge"><title>Node2&#45;&gt;Node3</title>
<path fill="none" stroke="midnightblue" d="M307.314,-247.589C332.614,-252.716 363.95,-259.067 390.575,-264.463"/>
<polygon fill="midnightblue" stroke="midnightblue" points="390.03,-267.924 400.526,-266.48 391.421,-261.063 390.03,-267.924"/>
</g>
<!-- Node5 -->
<g id="node5" class="node"><title>Node5</title>
<g id="a_node5"><a xlink:href="../../d8/d60/MINGW_2opener__error_8c.html#afbc52bcd5256264e75ba063f2e361e24" target="_top" xlink:title="Gets the error number or equivalent. ">
<polygon fill="none" stroke="black" points="389,-228.5 389,-247.5 508,-247.5 508,-228.5 389,-228.5"/>
<text text-anchor="middle" x="448.5" y="-235.5" font-family="Helvetica,sans-Serif" font-size="10.00">GetSocketErrorNumber</text>
</a>
</g>
</g>
<!-- Node4&#45;&gt;Node5 -->
<g id="edge4" class="edge"><title>Node4&#45;&gt;Node5</title>
<path fill="none" stroke="midnightblue" d="M272.026,-152.542C292.604,-168.442 336.384,-200.439 378,-219 383.343,-221.383 389.052,-223.529 394.817,-225.446"/>
<polygon fill="midnightblue" stroke="midnightblue" points="393.927,-228.834 404.515,-228.456 396.002,-222.149 393.927,-228.834"/>
</g>
<!-- Node6 -->
<g id="node6" class="node"><title>Node6</title>
<g id="a_node6"><a xlink:href="../../d8/d60/MINGW_2opener__error_8c.html#a0df2625909cb28076bc7df8e6c9cfcae" target="_top" xlink:title="Returns a human readable message for the given error number. ">
<polygon fill="none" stroke="black" points="402,-190.5 402,-209.5 495,-209.5 495,-190.5 402,-190.5"/>
<text text-anchor="middle" x="448.5" y="-197.5" font-family="Helvetica,sans-Serif" font-size="10.00">GetErrorMessage</text>
</a>
</g>
</g>
<!-- Node4&#45;&gt;Node6 -->
<g id="edge5" class="edge"><title>Node4&#45;&gt;Node6</title>
<path fill="none" stroke="midnightblue" d="M288.502,-152.573C312.333,-160.482 347.264,-171.855 378,-181 385.587,-183.257 393.67,-185.56 401.54,-187.747"/>
<polygon fill="midnightblue" stroke="midnightblue" points="400.771,-191.165 411.341,-190.444 402.628,-184.416 400.771,-191.165"/>
</g>
<!-- Node7 -->
<g id="node7" class="node"><title>Node7</title>
<g id="a_node7"><a xlink:href="../../d8/d60/MINGW_2opener__error_8c.html#a99f5295ad12a2b986bab4b89a24cfc20" target="_top" xlink:title="Frees the space of the error message generated by GetErrorMessage(int) ">
<polygon fill="none" stroke="black" points="400,-152.5 400,-171.5 497,-171.5 497,-152.5 400,-152.5"/>
<text text-anchor="middle" x="448.5" y="-159.5" font-family="Helvetica,sans-Serif" font-size="10.00">FreeErrorMessage</text>
</a>
</g>
</g>
<!-- Node4&#45;&gt;Node7 -->
<g id="edge6" class="edge"><title>Node4&#45;&gt;Node7</title>
<path fill="none" stroke="midnightblue" d="M306.831,-147.745C332.03,-150.299 363.323,-153.47 389.992,-156.173"/>
<polygon fill="midnightblue" stroke="midnightblue" points="389.662,-159.657 399.964,-157.183 390.368,-152.693 389.662,-159.657"/>
</g>
<!-- Node8 -->
<g id="node8" class="node"><title>Node8</title>
<g id="a_node8"><a xlink:href="../../d3/de3/MINGW_2networkhandler_8c.html#a4af2b184144f7d807e8157ee8b474ecf" target="_top" xlink:title="Tries to set socket to non blocking behavior. ">
<polygon fill="none" stroke="black" points="384,-114.5 384,-133.5 513,-133.5 513,-114.5 384,-114.5"/>
<text text-anchor="middle" x="448.5" y="-121.5" font-family="Helvetica,sans-Serif" font-size="10.00">SetSocketToNonBlocking</text>
</a>
</g>
</g>
<!-- Node4&#45;&gt;Node8 -->
<g id="edge7" class="edge"><title>Node4&#45;&gt;Node8</title>
<path fill="none" stroke="midnightblue" d="M306.831,-138.255C327.054,-136.205 351.202,-133.758 373.735,-131.475"/>
<polygon fill="midnightblue" stroke="midnightblue" points="374.358,-134.93 383.955,-130.439 373.653,-127.965 374.358,-134.93"/>
</g>
<!-- Node9 -->
<g id="node9" class="node"><title>Node9</title>
<g id="a_node9"><a xlink:href="../../db/d4f/generic__networkhandler_8c.html#aab6e6c554aa10d27efe297ebef3ac1c9" target="_top" xlink:title="CloseUdpSocket">
<polygon fill="none" stroke="black" points="403,-76.5 403,-95.5 494,-95.5 494,-76.5 403,-76.5"/>
<text text-anchor="middle" x="448.5" y="-83.5" font-family="Helvetica,sans-Serif" font-size="10.00">CloseUdpSocket</text>
</a>
</g>
</g>
<!-- Node4&#45;&gt;Node9 -->
<g id="edge8" class="edge"><title>Node4&#45;&gt;Node9</title>
<path fill="none" stroke="midnightblue" d="M288.502,-133.427C312.333,-125.518 347.264,-114.145 378,-105 385.587,-102.743 393.67,-100.44 401.54,-98.253"/>
<polygon fill="midnightblue" stroke="midnightblue" points="402.628,-101.584 411.341,-95.5563 400.771,-94.8345 402.628,-101.584"/>
</g>
<!-- Node12 -->
<g id="node12" class="node"><title>Node12</title>
<g id="a_node12"><a xlink:href="../../d3/de3/MINGW_2networkhandler_8c.html#a20a53fded2d3f1e17272dbc7185988fd" target="_top" xlink:title="Sets QoS on socket. ">
<polygon fill="none" stroke="black" points="402,-38.5 402,-57.5 495,-57.5 495,-38.5 402,-38.5"/>
<text text-anchor="middle" x="448.5" y="-45.5" font-family="Helvetica,sans-Serif" font-size="10.00">SetQosOnSocket</text>
</a>
</g>
</g>
<!-- Node4&#45;&gt;Node12 -->
<g id="edge11" class="edge"><title>Node4&#45;&gt;Node12</title>
<path fill="none" stroke="midnightblue" d="M272.026,-133.458C292.604,-117.558 336.384,-85.5608 378,-67 383.343,-64.6172 389.052,-62.4709 394.817,-60.5543"/>
<polygon fill="midnightblue" stroke="midnightblue" points="396.002,-63.8512 404.515,-57.5442 393.927,-57.1658 396.002,-63.8512"/>
</g>
<!-- Node13 -->
<g id="node13" class="node"><title>Node13</title>
<g id="a_node13"><a xlink:href="../../dd/d34/cipqos_8c.html#a6fa85e635fcd14e9797254ec3a5bb95e" target="_top" xlink:title="Initializing the data structures of the TCP/IP interface object. ">
<polygon fill="none" stroke="black" points="394.5,-0.5 394.5,-19.5 502.5,-19.5 502.5,-0.5 394.5,-0.5"/>
<text text-anchor="middle" x="448.5" y="-7.5" font-family="Helvetica,sans-Serif" font-size="10.00">GetPriorityForSocket</text>
</a>
</g>
</g>
<!-- Node4&#45;&gt;Node13 -->
<g id="edge12" class="edge"><title>Node4&#45;&gt;Node13</title>
<path fill="none" stroke="midnightblue" d="M267.109,-133.397C283.876,-111.448 328.243,-57.3249 378,-29 381.896,-26.7819 386.064,-24.8124 390.351,-23.0655"/>
<polygon fill="midnightblue" stroke="midnightblue" points="391.677,-26.3075 399.867,-19.5864 389.273,-19.7332 391.677,-26.3075"/>
</g>
<!-- Node10 -->
<g id="node10" class="node"><title>Node10</title>
<g id="a_node10"><a xlink:href="../../d5/dc5/group__CIP__CALLBACK__API.html#gae04e2a3e9937e910cbcdbff0b8d6ad2b" target="_top" xlink:title="Close the given socket and clean up the stack. ">
<polygon fill="none" stroke="black" points="555,-76.5 555,-95.5 628,-95.5 628,-76.5 555,-76.5"/>
<text text-anchor="middle" x="591.5" y="-83.5" font-family="Helvetica,sans-Serif" font-size="10.00">CloseSocket</text>
</a>
</g>
</g>
<!-- Node9&#45;&gt;Node10 -->
<g id="edge9" class="edge"><title>Node9&#45;&gt;Node10</title>
<path fill="none" stroke="midnightblue" d="M494.113,-86C510.13,-86 528.216,-86 544.36,-86"/>
<polygon fill="midnightblue" stroke="midnightblue" points="544.646,-89.5001 554.646,-86 544.646,-82.5001 544.646,-89.5001"/>
</g>
<!-- Node11 -->
<g id="node11" class="node"><title>Node11</title>
<g id="a_node11"><a xlink:href="../../d3/de3/MINGW_2networkhandler_8c.html#a2812ba0ecd1fd9a5549fbca397d76e3e" target="_top" xlink:title="Platform dependent code to close a socket. ">
<polygon fill="none" stroke="black" points="664,-76.5 664,-95.5 774,-95.5 774,-76.5 664,-76.5"/>
<text text-anchor="middle" x="719" y="-83.5" font-family="Helvetica,sans-Serif" font-size="10.00">CloseSocketPlatform</text>
</a>
</g>
</g>
<!-- Node10&#45;&gt;Node11 -->
<g id="edge10" class="edge"><title>Node10&#45;&gt;Node11</title>
<path fill="none" stroke="midnightblue" d="M628.128,-86C636.236,-86 645.093,-86 653.983,-86"/>
<polygon fill="midnightblue" stroke="midnightblue" points="653.997,-89.5001 663.997,-86 653.997,-82.5001 653.997,-89.5001"/>
</g>
</g>
</svg>
