<?xml version="1.0" encoding="UTF-8" standalone="no"?>
<!DOCTYPE svg PUBLIC "-//W3C//DTD SVG 1.1//EN"
 "http://www.w3.org/Graphics/SVG/1.1/DTD/svg11.dtd">
<!-- Generated by graphviz version 2.38.0 (20140413.2041)
 -->
<!-- Title: OpenConsumingPointToPointConnection Pages: 1 -->
<!--zoomable 294 -->
<svg id="main" version="1.1" xmlns="http://www.w3.org/2000/svg" xmlns:xlink="http://www.w3.org/1999/xlink" xml:space="preserve" onload="init(evt)">
<style type="text/css"><![CDATA[
.edge:hover path { stroke: red; }
.edge:hover polygon { stroke: red; fill: red; }
]]></style>
<script type="text/javascript"><![CDATA[
var edges = document.getElementsByTagName('g');
if (edges && edges.length) {
  for (var i=0;i<edges.length;i++) {
    if (edges[i].id.substr(0,4)=='edge') {
      edges[i].setAttribute('class','edge');
    }
  }
}
]]></script>
        <defs>
                <circle id="rim" cx="0" cy="0" r="7"/>
                <circle id="rim2" cx="0" cy="0" r="3.5"/>
                <g id="zoomPlus">
                        <use xlink:href="#rim" fill="#404040">
                                <set attributeName="fill" to="#808080" begin="zoomplus.mouseover" end="zoomplus.mouseout"/>
                        </use>
                        <path d="M-4,0h8M0,-4v8" fill="none" stroke="white" stroke-width="1.5" pointer-events="none"/>
                </g>
                <g id="zoomMin">
                        <use xlink:href="#rim" fill="#404040">
                                <set attributeName="fill" to="#808080" begin="zoomminus.mouseover" end="zoomminus.mouseout"/>
                        </use>
                        <path d="M-4,0h8" fill="none" stroke="white" stroke-width="1.5" pointer-events="none"/>
                </g>
                <g id="dirArrow">
                        <path fill="none" stroke="white" stroke-width="1.5" d="M0,-3.0v7 M-2.5,-0.5L0,-3.0L2.5,-0.5"/>
                </g>
               <g id="resetDef">
                       <use xlink:href="#rim2" fill="#404040">
                               <set attributeName="fill" to="#808080" begin="reset.mouseover" end="reset.mouseout"/>
                       </use>
               </g>
        </defs>

<script type="text/javascript">
var viewWidth = 788;
var viewHeight = 294;
var sectionId = 'dynsection-15';
</script>
<script xlink:href="../../svgpan.js"/>
<svg id="graph" class="graph">
<g id="viewport">
<title>OpenConsumingPointToPointConnection</title>
<!-- Node1 -->
<g id="node1" class="node"><title>Node1</title>
<polygon fill="#bfbfbf" stroke="black" points="0,-175 0,-205 146,-205 146,-175 0,-175"/>
<text text-anchor="start" x="8" y="-193" font-family="Helvetica,sans-Serif" font-size="10.00">OpenConsumingPointToPoint</text>
<text text-anchor="middle" x="73" y="-182" font-family="Helvetica,sans-Serif" font-size="10.00">Connection</text>
</g>
<!-- Node2 -->
<g id="node2" class="node"><title>Node2</title>
<g id="a_node2"><a xlink:href="../../df/d91/cipconnectionobject_8c.html#aeee7026822ffa05ebabab57a0eed1665" target="_top" xlink:title="ConnectionObjectGetTToOPriority">
<polygon fill="none" stroke="black" points="182,-228.5 182,-247.5 348,-247.5 348,-228.5 182,-228.5"/>
<text text-anchor="middle" x="265" y="-235.5" font-family="Helvetica,sans-Serif" font-size="10.00">ConnectionObjectGetTToOPriority</text>
</a>
</g>
</g>
<!-- Node1&#45;&gt;Node2 -->
<g id="edge1" class="edge"><title>Node1&#45;&gt;Node2</title>
<path fill="none" stroke="midnightblue" d="M133.596,-205.056C160.187,-211.774 191.096,-219.582 216.147,-225.911"/>
<polygon fill="midnightblue" stroke="midnightblue" points="215.588,-229.38 226.141,-228.436 217.303,-222.593 215.588,-229.38"/>
</g>
<!-- Node4 -->
<g id="node4" class="node"><title>Node4</title>
<g id="a_node4"><a xlink:href="../../d5/dc5/group__CIP__CALLBACK__API.html#ga5807bcc51621775c9aedbf58d3a7a6d3" target="_top" xlink:title="create a producing or consuming UDP socket ">
<polygon fill="none" stroke="black" points="217.5,-133.5 217.5,-152.5 312.5,-152.5 312.5,-133.5 217.5,-133.5"/>
<text text-anchor="middle" x="265" y="-140.5" font-family="Helvetica,sans-Serif" font-size="10.00">CreateUdpSocket</text>
</a>
</g>
</g>
<!-- Node1&#45;&gt;Node4 -->
<g id="edge3" class="edge"><title>Node1&#45;&gt;Node4</title>
<path fill="none" stroke="midnightblue" d="M134.64,-175C160.793,-168.53 190.963,-161.067 215.584,-154.977"/>
<polygon fill="midnightblue" stroke="midnightblue" points="216.553,-158.342 225.42,-152.543 214.872,-151.547 216.553,-158.342"/>
</g>
<!-- Node3 -->
<g id="node3" class="node"><title>Node3</title>
<g id="a_node3"><a xlink:href="../../df/d91/cipconnectionobject_8c.html#a54694d088a9b468aa4531a1801bbc490" target="_top" xlink:title="ConnectionObjectGetPriority">
<polygon fill="none" stroke="black" points="384,-266.5 384,-285.5 525,-285.5 525,-266.5 384,-266.5"/>
<text text-anchor="middle" x="454.5" y="-273.5" font-family="Helvetica,sans-Serif" font-size="10.00">ConnectionObjectGetPriority</text>
</a>
</g>
</g>
<!-- Node2&#45;&gt;Node3 -->
<g id="edge2" class="edge"><title>Node2&#45;&gt;Node3</title>
<path fill="none" stroke="midnightblue" d="M313.314,-247.589C338.614,-252.716 369.95,-259.067 396.575,-264.463"/>
<polygon fill="midnightblue" stroke="midnightblue" points="396.03,-267.924 406.526,-266.48 397.421,-261.063 396.03,-267.924"/>
</g>
<!-- Node5 -->
<g id="node5" class="node"><title>Node5</title>
<g id="a_node5"><a xlink:href="../../d8/d60/MINGW_2opener__error_8c.html#afbc52bcd5256264e75ba063f2e361e24" target="_top" xlink:title="Gets the error number or equivalent. ">
<polygon fill="none" stroke="black" points="395,-228.5 395,-247.5 514,-247.5 514,-228.5 395,-228.5"/>
<text text-anchor="middle" x="454.5" y="-235.5" font-family="Helvetica,sans-Serif" font-size="10.00">GetSocketErrorNumber</text>
</a>
</g>
</g>
<!-- Node4&#45;&gt;Node5 -->
<g id="edge4" class="edge"><title>Node4&#45;&gt;Node5</title>
<path fill="none" stroke="midnightblue" d="M278.026,-152.542C298.604,-168.442 342.384,-200.439 384,-219 389.343,-221.383 395.052,-223.529 400.817,-225.446"/>
<polygon fill="midnightblue" stroke="midnightblue" points="399.927,-228.834 410.515,-228.456 402.002,-222.149 399.927,-228.834"/>
</g>
<!-- Node6 -->
<g id="node6" class="node"><title>Node6</title>
<g id="a_node6"><a xlink:href="../../d8/d60/MINGW_2opener__error_8c.html#a0df2625909cb28076bc7df8e6c9cfcae" target="_top" xlink:title="Returns a human readable message for the given error number. ">
<polygon fill="none" stroke="black" points="408,-190.5 408,-209.5 501,-209.5 501,-190.5 408,-190.5"/>
<text text-anchor="middle" x="454.5" y="-197.5" font-family="Helvetica,sans-Serif" font-size="10.00">GetErrorMessage</text>
</a>
</g>
</g>
<!-- Node4&#45;&gt;Node6 -->
<g id="edge5" class="edge"><title>Node4&#45;&gt;Node6</title>
<path fill="none" stroke="midnightblue" d="M294.502,-152.573C318.333,-160.482 353.264,-171.855 384,-181 391.587,-183.257 399.67,-185.56 407.54,-187.747"/>
<polygon fill="midnightblue" stroke="midnightblue" points="406.771,-191.165 417.341,-190.444 408.628,-184.416 406.771,-191.165"/>
</g>
<!-- Node7 -->
<g id="node7" class="node"><title>Node7</title>
<g id="a_node7"><a xlink:href="../../d8/d60/MINGW_2opener__error_8c.html#a99f5295ad12a2b986bab4b89a24cfc20" target="_top" xlink:title="Frees the space of the error message generated by GetErrorMessage(int) ">
<polygon fill="none" stroke="black" points="406,-152.5 406,-171.5 503,-171.5 503,-152.5 406,-152.5"/>
<text text-anchor="middle" x="454.5" y="-159.5" font-family="Helvetica,sans-Serif" font-size="10.00">FreeErrorMessage</text>
</a>
</g>
</g>
<!-- Node4&#45;&gt;Node7 -->
<g id="edge6" class="edge"><title>Node4&#45;&gt;Node7</title>
<path fill="none" stroke="midnightblue" d="M312.831,-147.745C338.03,-150.299 369.323,-153.47 395.992,-156.173"/>
<polygon fill="midnightblue" stroke="midnightblue" points="395.662,-159.657 405.964,-157.183 396.368,-152.693 395.662,-159.657"/>
</g>
<!-- Node8 -->
<g id="node8" class="node"><title>Node8</title>
<g id="a_node8"><a xlink:href="../../d3/de3/MINGW_2networkhandler_8c.html#a4af2b184144f7d807e8157ee8b474ecf" target="_top" xlink:title="Tries to set socket to non blocking behavior. ">
<polygon fill="none" stroke="black" points="390,-114.5 390,-133.5 519,-133.5 519,-114.5 390,-114.5"/>
<text text-anchor="middle" x="454.5" y="-121.5" font-family="Helvetica,sans-Serif" font-size="10.00">SetSocketToNonBlocking</text>
</a>
</g>
</g>
<!-- Node4&#45;&gt;Node8 -->
<g id="edge7" class="edge"><title>Node4&#45;&gt;Node8</title>
<path fill="none" stroke="midnightblue" d="M312.831,-138.255C333.054,-136.205 357.202,-133.758 379.735,-131.475"/>
<polygon fill="midnightblue" stroke="midnightblue" points="380.358,-134.93 389.955,-130.439 379.653,-127.965 380.358,-134.93"/>
</g>
<!-- Node9 -->
<g id="node9" class="node"><title>Node9</title>
<g id="a_node9"><a xlink:href="../../db/d4f/generic__networkhandler_8c.html#aab6e6c554aa10d27efe297ebef3ac1c9" target="_top" xlink:title="CloseUdpSocket">
<polygon fill="none" stroke="black" points="409,-76.5 409,-95.5 500,-95.5 500,-76.5 409,-76.5"/>
<text text-anchor="middle" x="454.5" y="-83.5" font-family="Helvetica,sans-Serif" font-size="10.00">CloseUdpSocket</text>
</a>
</g>
</g>
<!-- Node4&#45;&gt;Node9 -->
<g id="edge8" class="edge"><title>Node4&#45;&gt;Node9</title>
<path fill="none" stroke="midnightblue" d="M294.502,-133.427C318.333,-125.518 353.264,-114.145 384,-105 391.587,-102.743 399.67,-100.44 407.54,-98.253"/>
<polygon fill="midnightblue" stroke="midnightblue" points="408.628,-101.584 417.341,-95.5563 406.771,-94.8345 408.628,-101.584"/>
</g>
<!-- Node12 -->
<g id="node12" class="node"><title>Node12</title>
<g id="a_node12"><a xlink:href="../../d3/de3/MINGW_2networkhandler_8c.html#a20a53fded2d3f1e17272dbc7185988fd" target="_top" xlink:title="Sets QoS on socket. ">
<polygon fill="none" stroke="black" points="408,-38.5 408,-57.5 501,-57.5 501,-38.5 408,-38.5"/>
<text text-anchor="middle" x="454.5" y="-45.5" font-family="Helvetica,sans-Serif" font-size="10.00">SetQosOnSocket</text>
</a>
</g>
</g>
<!-- Node4&#45;&gt;Node12 -->
<g id="edge11" class="edge"><title>Node4&#45;&gt;Node12</title>
<path fill="none" stroke="midnightblue" d="M278.026,-133.458C298.604,-117.558 342.384,-85.5608 384,-67 389.343,-64.6172 395.052,-62.4709 400.817,-60.5543"/>
<polygon fill="midnightblue" stroke="midnightblue" points="402.002,-63.8512 410.515,-57.5442 399.927,-57.1658 402.002,-63.8512"/>
</g>
<!-- Node13 -->
<g id="node13" class="node"><title>Node13</title>
<g id="a_node13"><a xlink:href="../../dd/d34/cipqos_8c.html#a6fa85e635fcd14e9797254ec3a5bb95e" target="_top" xlink:title="Initializing the data structures of the TCP/IP interface object. ">
<polygon fill="none" stroke="black" points="400.5,-0.5 400.5,-19.5 508.5,-19.5 508.5,-0.5 400.5,-0.5"/>
<text text-anchor="middle" x="454.5" y="-7.5" font-family="Helvetica,sans-Serif" font-size="10.00">GetPriorityForSocket</text>
</a>
</g>
</g>
<!-- Node4&#45;&gt;Node13 -->
<g id="edge12" class="edge"><title>Node4&#45;&gt;Node13</title>
<path fill="none" stroke="midnightblue" d="M273.109,-133.397C289.876,-111.448 334.243,-57.3249 384,-29 387.896,-26.7819 392.064,-24.8124 396.351,-23.0655"/>
<polygon fill="midnightblue" stroke="midnightblue" points="397.677,-26.3075 405.867,-19.5864 395.273,-19.7332 397.677,-26.3075"/>
</g>
<!-- Node10 -->
<g id="node10" class="node"><title>Node10</title>
<g id="a_node10"><a xlink:href="../../d5/dc5/group__CIP__CALLBACK__API.html#gae04e2a3e9937e910cbcdbff0b8d6ad2b" target="_top" xlink:title="Close the given socket and clean up the stack. ">
<polygon fill="none" stroke="black" points="561,-76.5 561,-95.5 634,-95.5 634,-76.5 561,-76.5"/>
<text text-anchor="middle" x="597.5" y="-83.5" font-family="Helvetica,sans-Serif" font-size="10.00">CloseSocket</text>
</a>
</g>
</g>
<!-- Node9&#45;&gt;Node10 -->
<g id="edge9" class="edge"><title>Node9&#45;&gt;Node10</title>
<path fill="none" stroke="midnightblue" d="M500.113,-86C516.13,-86 534.216,-86 550.36,-86"/>
<polygon fill="midnightblue" stroke="midnightblue" points="550.646,-89.5001 560.646,-86 550.646,-82.5001 550.646,-89.5001"/>
</g>
<!-- Node11 -->
<g id="node11" class="node"><title>Node11</title>
<g id="a_node11"><a xlink:href="../../d3/de3/MINGW_2networkhandler_8c.html#a2812ba0ecd1fd9a5549fbca397d76e3e" target="_top" xlink:title="Platform dependent code to close a socket. ">
<polygon fill="none" stroke="black" points="670,-76.5 670,-95.5 780,-95.5 780,-76.5 670,-76.5"/>
<text text-anchor="middle" x="725" y="-83.5" font-family="Helvetica,sans-Serif" font-size="10.00">CloseSocketPlatform</text>
</a>
</g>
</g>
<!-- Node10&#45;&gt;Node11 -->
<g id="edge10" class="edge"><title>Node10&#45;&gt;Node11</title>
<path fill="none" stroke="midnightblue" d="M634.128,-86C642.236,-86 651.093,-86 659.983,-86"/>
<polygon fill="midnightblue" stroke="midnightblue" points="659.997,-89.5001 669.997,-86 659.997,-82.5001 659.997,-89.5001"/>
</g>
</g>
</svg>
        <g id="navigator" transform="translate(0 0)" fill="#404254">
                <rect fill="#f2f5e9" fill-opacity="0.5" stroke="#606060" stroke-width=".5" x="0" y="0" width="60" height="60"/>
                <use id="zoomplus" xlink:href="#zoomPlus" x="17" y="9" onmousedown="handleZoom(evt,'in')"/>
                <use id="zoomminus" xlink:href="#zoomMin" x="42" y="9" onmousedown="handleZoom(evt,'out')"/>
                <use id="reset" xlink:href="#resetDef" x="30" y="36" onmousedown="handleReset()"/>
                <g id="arrowUp" xlink:href="#dirArrow" transform="translate(30 24)" onmousedown="handlePan(0,-1)">
                  <use xlink:href="#rim" fill="#404040">
                        <set attributeName="fill" to="#808080" begin="arrowUp.mouseover" end="arrowUp.mouseout"/>
                  </use>
                  <path fill="none" stroke="white" stroke-width="1.5" d="M0,-3.0v7 M-2.5,-0.5L0,-3.0L2.5,-0.5"/>
                </g>
                <g id="arrowRight" xlink:href="#dirArrow" transform="rotate(90) translate(36 -43)" onmousedown="handlePan(1,0)">
                  <use xlink:href="#rim" fill="#404040">
                        <set attributeName="fill" to="#808080" begin="arrowRight.mouseover" end="arrowRight.mouseout"/>
                  </use>
                  <path fill="none" stroke="white" stroke-width="1.5" d="M0,-3.0v7 M-2.5,-0.5L0,-3.0L2.5,-0.5"/>
                </g>
                <g id="arrowDown" xlink:href="#dirArrow" transform="rotate(180) translate(-30 -48)" onmousedown="handlePan(0,1)">
                  <use xlink:href="#rim" fill="#404040">
                        <set attributeName="fill" to="#808080" begin="arrowDown.mouseover" end="arrowDown.mouseout"/>
                  </use>
                  <path fill="none" stroke="white" stroke-width="1.5" d="M0,-3.0v7 M-2.5,-0.5L0,-3.0L2.5,-0.5"/>
                </g>
                <g id="arrowLeft" xlink:href="#dirArrow" transform="rotate(270) translate(-36 17)" onmousedown="handlePan(-1,0)">
                  <use xlink:href="#rim" fill="#404040">
                        <set attributeName="fill" to="#808080" begin="arrowLeft.mouseover" end="arrowLeft.mouseout"/>
                  </use>
                  <path fill="none" stroke="white" stroke-width="1.5" d="M0,-3.0v7 M-2.5,-0.5L0,-3.0L2.5,-0.5"/>
                </g>
        </g>
        <svg viewBox="0 0 15 15" width="100%" height="30px" preserveAspectRatio="xMaxYMin meet">
         <g id="arrow_out" transform="scale(0.3 0.3)">
          <a xlink:href="cipioconnection_8c_add645b42730b2cea369523949c6b9745_cgraph_org.svg" target="_base">
           <rect id="button" ry="5" rx="5" y="6" x="6" height="38" width="38"
                fill="#f2f5e9" fill-opacity="0.5" stroke="#606060" stroke-width="1.0"/>
           <path id="arrow"
             d="M 11.500037,31.436501 C 11.940474,20.09759 22.043105,11.32322 32.158766,21.979434 L 37.068811,17.246167 C 37.068811,17.246167 37.088388,32 37.088388,32 L 22.160133,31.978069 C 22.160133,31.978069 26.997745,27.140456 26.997745,27.140456 C 18.528582,18.264221 13.291696,25.230495 11.500037,31.436501 z"
             style="fill:#404040;"/>
          </a>
         </g>
        </svg>
</svg>
