<?xml version="1.0" encoding="UTF-8" standalone="no"?>
<!DOCTYPE svg PUBLIC "-//W3C//DTD SVG 1.1//EN"
 "http://www.w3.org/Graphics/SVG/1.1/DTD/svg11.dtd">
<!-- Generated by graphviz version 2.38.0 (20140413.2041)
 -->
<!-- Title: OpenConsumingPointToPointConnection Pages: 1 -->
<svg width="679pt" height="294pt"
 viewBox="0.00 0.00 679.00 294.00" xmlns="http://www.w3.org/2000/svg" xmlns:xlink="http://www.w3.org/1999/xlink">
<g id="graph0" class="graph" transform="scale(1 1) rotate(0) translate(4 290)">
<title>OpenConsumingPointToPointConnection</title>
<!-- Node1 -->
<g id="node1" class="node"><title>Node1</title>
<polygon fill="#bfbfbf" stroke="black" points="0,-175 0,-205 146,-205 146,-175 0,-175"/>
<text text-anchor="start" x="8" y="-193" font-family="Helvetica,sans-Serif" font-size="10.00">OpenConsumingPointToPoint</text>
<text text-anchor="middle" x="73" y="-182" font-family="Helvetica,sans-Serif" font-size="10.00">Connection</text>
</g>
<!-- Node2 -->
<g id="node2" class="node"><title>Node2</title>
<g id="a_node2"><a xlink:href="../../df/d91/cipconnectionobject_8c.html#aeee7026822ffa05ebabab57a0eed1665" target="_top" xlink:title="ConnectionObjectGetTToOPriority">
<polygon fill="none" stroke="black" points="182,-228.5 182,-247.5 348,-247.5 348,-228.5 182,-228.5"/>
<text text-anchor="middle" x="265" y="-235.5" font-family="Helvetica,sans-Serif" font-size="10.00">ConnectionObjectGetTToOPriority</text>
</a>
</g>
</g>
<!-- Node1&#45;&gt;Node2 -->
<g id="edge1" class="edge"><title>Node1&#45;&gt;Node2</title>
<path fill="none" stroke="midnightblue" d="M133.596,-205.056C160.187,-211.774 191.096,-219.582 216.147,-225.911"/>
<polygon fill="midnightblue" stroke="midnightblue" points="215.588,-229.38 226.141,-228.436 217.303,-222.593 215.588,-229.38"/>
</g>
<!-- Node4 -->
<g id="node4" class="node"><title>Node4</title>
<g id="a_node4"><a xlink:href="../../d5/dc5/group__CIP__CALLBACK__API.html#ga5807bcc51621775c9aedbf58d3a7a6d3" target="_top" xlink:title="create a producing or consuming UDP socket ">
<polygon fill="none" stroke="black" points="217.5,-133.5 217.5,-152.5 312.5,-152.5 312.5,-133.5 217.5,-133.5"/>
<text text-anchor="middle" x="265" y="-140.5" font-family="Helvetica,sans-Serif" font-size="10.00">CreateUdpSocket</text>
</a>
</g>
</g>
<!-- Node1&#45;&gt;Node4 -->
<g id="edge3" class="edge"><title>Node1&#45;&gt;Node4</title>
<path fill="none" stroke="midnightblue" d="M134.64,-175C160.793,-168.53 190.963,-161.067 215.584,-154.977"/>
<polygon fill="midnightblue" stroke="midnightblue" points="216.553,-158.342 225.42,-152.543 214.872,-151.547 216.553,-158.342"/>
</g>
<!-- Node3 -->
<g id="node3" class="node"><title>Node3</title>
<g id="a_node3"><a xlink:href="../../df/d91/cipconnectionobject_8c.html#a54694d088a9b468aa4531a1801bbc490" target="_top" xlink:title="ConnectionObjectGetPriority">
<polygon fill="none" stroke="black" points="384,-266.5 384,-285.5 525,-285.5 525,-266.5 384,-266.5"/>
<text text-anchor="middle" x="454.5" y="-273.5" font-family="Helvetica,sans-Serif" font-size="10.00">ConnectionObjectGetPriority</text>
</a>
</g>
</g>
<!-- Node2&#45;&gt;Node3 -->
<g id="edge2" class="edge"><title>Node2&#45;&gt;Node3</title>
<path fill="none" stroke="midnightblue" d="M313.314,-247.589C338.614,-252.716 369.95,-259.067 396.575,-264.463"/>
<polygon fill="midnightblue" stroke="midnightblue" points="396.03,-267.924 406.526,-266.48 397.421,-261.063 396.03,-267.924"/>
</g>
<!-- Node5 -->
<g id="node5" class="node"><title>Node5</title>
<g id="a_node5"><a xlink:href="../../d8/d60/MINGW_2opener__error_8c.html#afbc52bcd5256264e75ba063f2e361e24" target="_top" xlink:title="Gets the error number or equivalent. ">
<polygon fill="none" stroke="black" points="395,-228.5 395,-247.5 514,-247.5 514,-228.5 395,-228.5"/>
<text text-anchor="middle" x="454.5" y="-235.5" font-family="Helvetica,sans-Serif" font-size="10.00">GetSocketErrorNumber</text>
</a>
</g>
</g>
<!-- Node4&#45;&gt;Node5 -->
<g id="edge4" class="edge"><title>Node4&#45;&gt;Node5</title>
<path fill="none" stroke="midnightblue" d="M278.026,-152.542C298.604,-168.442 342.384,-200.439 384,-219 389.343,-221.383 395.052,-223.529 400.817,-225.446"/>
<polygon fill="midnightblue" stroke="midnightblue" points="399.927,-228.834 410.515,-228.456 402.002,-222.149 399.927,-228.834"/>
</g>
<!-- Node6 -->
<g id="node6" class="node"><title>Node6</title>
<g id="a_node6"><a xlink:href="../../d8/d60/MINGW_2opener__error_8c.html#a0df2625909cb28076bc7df8e6c9cfcae" target="_top" xlink:title="Returns a human readable message for the given error number. ">
<polygon fill="none" stroke="black" points="408,-190.5 408,-209.5 501,-209.5 501,-190.5 408,-190.5"/>
<text text-anchor="middle" x="454.5" y="-197.5" font-family="Helvetica,sans-Serif" font-size="10.00">GetErrorMessage</text>
</a>
</g>
</g>
<!-- Node4&#45;&gt;Node6 -->
<g id="edge5" class="edge"><title>Node4&#45;&gt;Node6</title>
<path fill="none" stroke="midnightblue" d="M294.502,-152.573C318.333,-160.482 353.264,-171.855 384,-181 391.587,-183.257 399.67,-185.56 407.54,-187.747"/>
<polygon fill="midnightblue" stroke="midnightblue" points="406.771,-191.165 417.341,-190.444 408.628,-184.416 406.771,-191.165"/>
</g>
<!-- Node7 -->
<g id="node7" class="node"><title>Node7</title>
<g id="a_node7"><a xlink:href="../../d8/d60/MINGW_2opener__error_8c.html#a99f5295ad12a2b986bab4b89a24cfc20" target="_top" xlink:title="Frees the space of the error message generated by GetErrorMessage(int) ">
<polygon fill="none" stroke="black" points="406,-152.5 406,-171.5 503,-171.5 503,-152.5 406,-152.5"/>
<text text-anchor="middle" x="454.5" y="-159.5" font-family="Helvetica,sans-Serif" font-size="10.00">FreeErrorMessage</text>
</a>
</g>
</g>
<!-- Node4&#45;&gt;Node7 -->
<g id="edge6" class="edge"><title>Node4&#45;&gt;Node7</title>
<path fill="none" stroke="midnightblue" d="M312.831,-147.745C338.03,-150.299 369.323,-153.47 395.992,-156.173"/>
<polygon fill="midnightblue" stroke="midnightblue" points="395.662,-159.657 405.964,-157.183 396.368,-152.693 395.662,-159.657"/>
</g>
<!-- Node8 -->
<g id="node8" class="node"><title>Node8</title>
<g id="a_node8"><a xlink:href="../../d3/de3/MINGW_2networkhandler_8c.html#a4af2b184144f7d807e8157ee8b474ecf" target="_top" xlink:title="Tries to set socket to non blocking behavior. ">
<polygon fill="none" stroke="black" points="390,-114.5 390,-133.5 519,-133.5 519,-114.5 390,-114.5"/>
<text text-anchor="middle" x="454.5" y="-121.5" font-family="Helvetica,sans-Serif" font-size="10.00">SetSocketToNonBlocking</text>
</a>
</g>
</g>
<!-- Node4&#45;&gt;Node8 -->
<g id="edge7" class="edge"><title>Node4&#45;&gt;Node8</title>
<path fill="none" stroke="midnightblue" d="M312.831,-138.255C333.054,-136.205 357.202,-133.758 379.735,-131.475"/>
<polygon fill="midnightblue" stroke="midnightblue" points="380.358,-134.93 389.955,-130.439 379.653,-127.965 380.358,-134.93"/>
</g>
<!-- Node9 -->
<g id="node9" class="node"><title>Node9</title>
<g id="a_node9"><a xlink:href="../../d5/dc5/group__CIP__CALLBACK__API.html#gae04e2a3e9937e910cbcdbff0b8d6ad2b" target="_top" xlink:title="Close the given socket and clean up the stack. ">
<polygon fill="none" stroke="black" points="418,-76.5 418,-95.5 491,-95.5 491,-76.5 418,-76.5"/>
<text text-anchor="middle" x="454.5" y="-83.5" font-family="Helvetica,sans-Serif" font-size="10.00">CloseSocket</text>
</a>
</g>
</g>
<!-- Node4&#45;&gt;Node9 -->
<g id="edge8" class="edge"><title>Node4&#45;&gt;Node9</title>
<path fill="none" stroke="midnightblue" d="M294.502,-133.427C318.333,-125.518 353.264,-114.145 384,-105 391.671,-102.717 399.849,-100.389 407.802,-98.1801"/>
<polygon fill="midnightblue" stroke="midnightblue" points="408.985,-101.485 417.699,-95.4587 407.129,-94.7353 408.985,-101.485"/>
</g>
<!-- Node11 -->
<g id="node11" class="node"><title>Node11</title>
<g id="a_node11"><a xlink:href="../../d3/de3/MINGW_2networkhandler_8c.html#a20a53fded2d3f1e17272dbc7185988fd" target="_top" xlink:title="Sets QoS on socket. ">
<polygon fill="none" stroke="black" points="408,-38.5 408,-57.5 501,-57.5 501,-38.5 408,-38.5"/>
<text text-anchor="middle" x="454.5" y="-45.5" font-family="Helvetica,sans-Serif" font-size="10.00">SetQosOnSocket</text>
</a>
</g>
</g>
<!-- Node4&#45;&gt;Node11 -->
<g id="edge10" class="edge"><title>Node4&#45;&gt;Node11</title>
<path fill="none" stroke="midnightblue" d="M278.026,-133.458C298.604,-117.558 342.384,-85.5608 384,-67 389.343,-64.6172 395.052,-62.4709 400.817,-60.5543"/>
<polygon fill="midnightblue" stroke="midnightblue" points="402.002,-63.8512 410.515,-57.5442 399.927,-57.1658 402.002,-63.8512"/>
</g>
<!-- Node12 -->
<g id="node12" class="node"><title>Node12</title>
<g id="a_node12"><a xlink:href="../../dd/d34/cipqos_8c.html#a6fa85e635fcd14e9797254ec3a5bb95e" target="_top" xlink:title="Initializing the data structures of the TCP/IP interface object. ">
<polygon fill="none" stroke="black" points="400.5,-0.5 400.5,-19.5 508.5,-19.5 508.5,-0.5 400.5,-0.5"/>
<text text-anchor="middle" x="454.5" y="-7.5" font-family="Helvetica,sans-Serif" font-size="10.00">GetPriorityForSocket</text>
</a>
</g>
</g>
<!-- Node4&#45;&gt;Node12 -->
<g id="edge11" class="edge"><title>Node4&#45;&gt;Node12</title>
<path fill="none" stroke="midnightblue" d="M273.109,-133.397C289.876,-111.448 334.243,-57.3249 384,-29 387.896,-26.7819 392.064,-24.8124 396.351,-23.0655"/>
<polygon fill="midnightblue" stroke="midnightblue" points="397.677,-26.3075 405.867,-19.5864 395.273,-19.7332 397.677,-26.3075"/>
</g>
<!-- Node10 -->
<g id="node10" class="node"><title>Node10</title>
<g id="a_node10"><a xlink:href="../../d3/de3/MINGW_2networkhandler_8c.html#a2812ba0ecd1fd9a5549fbca397d76e3e" target="_top" xlink:title="Platform dependent code to close a socket. ">
<polygon fill="none" stroke="black" points="561,-76.5 561,-95.5 671,-95.5 671,-76.5 561,-76.5"/>
<text text-anchor="middle" x="616" y="-83.5" font-family="Helvetica,sans-Serif" font-size="10.00">CloseSocketPlatform</text>
</a>
</g>
</g>
<!-- Node9&#45;&gt;Node10 -->
<g id="edge9" class="edge"><title>Node9&#45;&gt;Node10</title>
<path fill="none" stroke="midnightblue" d="M491.295,-86C508.817,-86 530.455,-86 550.71,-86"/>
<polygon fill="midnightblue" stroke="midnightblue" points="550.831,-89.5001 560.831,-86 550.831,-82.5001 550.831,-89.5001"/>
</g>
</g>
</svg>
