<?xml version="1.0" encoding="UTF-8" standalone="no"?>
<!DOCTYPE svg PUBLIC "-//W3C//DTD SVG 1.1//EN"
 "http://www.w3.org/Graphics/SVG/1.1/DTD/svg11.dtd">
<!-- Generated by graphviz version 2.38.0 (20140413.2041)
 -->
<!-- Title: SetupIoConnectionOriginatorToTargetConnectionPoint Pages: 1 -->
<svg width="605pt" height="192pt"
 viewBox="0.00 0.00 605.00 192.00" xmlns="http://www.w3.org/2000/svg" xmlns:xlink="http://www.w3.org/1999/xlink">
<g id="graph0" class="graph" transform="scale(1 1) rotate(0) translate(4 188)">
<title>SetupIoConnectionOriginatorToTargetConnectionPoint</title>
<!-- Node1 -->
<g id="node1" class="node"><title>Node1</title>
<polygon fill="#bfbfbf" stroke="black" points="0,-71 0,-101 142,-101 142,-71 0,-71"/>
<text text-anchor="start" x="8" y="-89" font-family="Helvetica,sans-Serif" font-size="10.00">SetupIoConnectionOriginator</text>
<text text-anchor="middle" x="71" y="-78" font-family="Helvetica,sans-Serif" font-size="10.00">ToTargetConnectionPoint</text>
</g>
<!-- Node2 -->
<g id="node2" class="node"><title>Node2</title>
<g id="a_node2"><a xlink:href="../../df/d91/cipconnectionobject_8c.html#ac8eec747e3eb538b8208f84bb1cd876c" target="_top" xlink:title="ConnectionObjectGetOToTConnectionSize">
<polygon fill="none" stroke="black" points="178,-164.5 178,-183.5 382,-183.5 382,-164.5 178,-164.5"/>
<text text-anchor="middle" x="280" y="-171.5" font-family="Helvetica,sans-Serif" font-size="10.00">ConnectionObjectGetOToTConnectionSize</text>
</a>
</g>
</g>
<!-- Node1&#45;&gt;Node2 -->
<g id="edge1" class="edge"><title>Node1&#45;&gt;Node2</title>
<path fill="none" stroke="midnightblue" d="M90.2806,-101.134C110.475,-117.046 144.577,-141.593 178,-155 184.66,-157.672 191.72,-159.973 198.891,-161.954"/>
<polygon fill="midnightblue" stroke="midnightblue" points="198.154,-165.378 208.709,-164.462 199.887,-158.596 198.154,-165.378"/>
</g>
<!-- Node4 -->
<g id="node4" class="node"><title>Node4</title>
<g id="a_node4"><a xlink:href="../../df/d91/cipconnectionobject_8c.html#a0f3d8e6f21712dbef3fb2e1da42f35ba" target="_top" xlink:title="ConnectionObjectGetTransport\lClassTriggerTransportClass">
<polygon fill="none" stroke="black" points="204,-115 204,-145 356,-145 356,-115 204,-115"/>
<text text-anchor="start" x="212" y="-133" font-family="Helvetica,sans-Serif" font-size="10.00">ConnectionObjectGetTransport</text>
<text text-anchor="middle" x="280" y="-122" font-family="Helvetica,sans-Serif" font-size="10.00">ClassTriggerTransportClass</text>
</a>
</g>
</g>
<!-- Node1&#45;&gt;Node4 -->
<g id="edge3" class="edge"><title>Node1&#45;&gt;Node4</title>
<path fill="none" stroke="midnightblue" d="M142.081,-100.896C160.175,-104.743 179.797,-108.913 198.382,-112.864"/>
<polygon fill="midnightblue" stroke="midnightblue" points="197.778,-116.314 208.287,-114.969 199.233,-109.466 197.778,-116.314"/>
</g>
<!-- Node5 -->
<g id="node5" class="node"><title>Node5</title>
<g id="a_node5"><a xlink:href="../../d2/dc9/group__CIP__API.html#ga5a14c8d76acacb09312b709bb0a76265" target="_top" xlink:title="Get a pointer to an instance&#39;s attribute. ">
<polygon fill="none" stroke="black" points="238,-76.5 238,-95.5 322,-95.5 322,-76.5 238,-76.5"/>
<text text-anchor="middle" x="280" y="-83.5" font-family="Helvetica,sans-Serif" font-size="10.00">GetCipAttribute</text>
</a>
</g>
</g>
<!-- Node1&#45;&gt;Node5 -->
<g id="edge4" class="edge"><title>Node1&#45;&gt;Node5</title>
<path fill="none" stroke="midnightblue" d="M142.081,-86C170.12,-86 201.826,-86 227.661,-86"/>
<polygon fill="midnightblue" stroke="midnightblue" points="227.98,-89.5001 237.98,-86 227.98,-82.5001 227.98,-89.5001"/>
</g>
<!-- Node6 -->
<g id="node6" class="node"><title>Node6</title>
<g id="a_node6"><a xlink:href="../../d2/dc9/group__CIP__API.html#gad5040e0986778fe27769c02a7086fb68" target="_top" xlink:title="Get a pointer to a CIP object with given class code. ">
<polygon fill="none" stroke="black" points="243.5,-38.5 243.5,-57.5 316.5,-57.5 316.5,-38.5 243.5,-38.5"/>
<text text-anchor="middle" x="280" y="-45.5" font-family="Helvetica,sans-Serif" font-size="10.00">GetCipClass</text>
</a>
</g>
</g>
<!-- Node1&#45;&gt;Node6 -->
<g id="edge5" class="edge"><title>Node1&#45;&gt;Node6</title>
<path fill="none" stroke="midnightblue" d="M142.081,-73.1349C172.242,-67.5982 206.644,-61.2828 233.419,-56.3675"/>
<polygon fill="midnightblue" stroke="midnightblue" points="234.079,-59.8049 243.283,-54.5568 232.815,-52.9199 234.079,-59.8049"/>
</g>
<!-- Node8 -->
<g id="node8" class="node"><title>Node8</title>
<g id="a_node8"><a xlink:href="../../d2/dc9/group__CIP__API.html#gaa50395aca91b378c297d6ad919df210e" target="_top" xlink:title="Get a pointer to an instance. ">
<polygon fill="none" stroke="black" points="237.5,-0.5 237.5,-19.5 322.5,-19.5 322.5,-0.5 237.5,-0.5"/>
<text text-anchor="middle" x="280" y="-7.5" font-family="Helvetica,sans-Serif" font-size="10.00">GetCipInstance</text>
</a>
</g>
</g>
<!-- Node1&#45;&gt;Node8 -->
<g id="edge7" class="edge"><title>Node1&#45;&gt;Node8</title>
<path fill="none" stroke="midnightblue" d="M95.0317,-70.916C115.882,-57.9308 147.858,-39.651 178,-29 193.594,-23.4897 211.137,-19.4788 227.174,-16.6039"/>
<polygon fill="midnightblue" stroke="midnightblue" points="228.177,-19.9843 237.458,-14.8744 227.016,-13.0812 228.177,-19.9843"/>
</g>
<!-- Node3 -->
<g id="node3" class="node"><title>Node3</title>
<g id="a_node3"><a xlink:href="../../df/d91/cipconnectionobject_8c.html#aed3dd75101c6e6e93d7ab682b6f26d85" target="_top" xlink:title="ConnectionObjectGetConnectionSize">
<polygon fill="none" stroke="black" points="418,-164.5 418,-183.5 597,-183.5 597,-164.5 418,-164.5"/>
<text text-anchor="middle" x="507.5" y="-171.5" font-family="Helvetica,sans-Serif" font-size="10.00">ConnectionObjectGetConnectionSize</text>
</a>
</g>
</g>
<!-- Node2&#45;&gt;Node3 -->
<g id="edge2" class="edge"><title>Node2&#45;&gt;Node3</title>
<path fill="none" stroke="midnightblue" d="M382.207,-174C390.614,-174 399.108,-174 407.498,-174"/>
<polygon fill="midnightblue" stroke="midnightblue" points="407.669,-177.5 417.669,-174 407.669,-170.5 407.669,-177.5"/>
</g>
<!-- Node7 -->
<g id="node7" class="node"><title>Node7</title>
<g id="a_node7"><a xlink:href="../../d9/d7d/cipmessagerouter_8c.html#a7a9f44f2d6f010b6f6ee922d378d9bb1" target="_top" xlink:title="Get the registered MessageRouter object corresponding to ClassID. given a class ID, return a pointer to the registration node for that object. ">
<polygon fill="none" stroke="black" points="453.5,-38.5 453.5,-57.5 561.5,-57.5 561.5,-38.5 453.5,-38.5"/>
<text text-anchor="middle" x="507.5" y="-45.5" font-family="Helvetica,sans-Serif" font-size="10.00">GetRegisteredObject</text>
</a>
</g>
</g>
<!-- Node6&#45;&gt;Node7 -->
<g id="edge6" class="edge"><title>Node6&#45;&gt;Node7</title>
<path fill="none" stroke="midnightblue" d="M316.731,-48C350.619,-48 402.288,-48 443.16,-48"/>
<polygon fill="midnightblue" stroke="midnightblue" points="443.301,-51.5001 453.301,-48 443.301,-44.5001 443.301,-51.5001"/>
</g>
</g>
</svg>
