<?xml version="1.0" encoding="UTF-8" standalone="no"?>
<!DOCTYPE svg PUBLIC "-//W3C//DTD SVG 1.1//EN"
 "http://www.w3.org/Graphics/SVG/1.1/DTD/svg11.dtd">
<!-- Generated by graphviz version 2.38.0 (20140413.2041)
 -->
<!-- Title: HandleIoConnectionTimeOut Pages: 1 -->
<!--zoomable 443 -->
<svg id="main" version="1.1" xmlns="http://www.w3.org/2000/svg" xmlns:xlink="http://www.w3.org/1999/xlink" xml:space="preserve" onload="init(evt)">
<style type="text/css"><![CDATA[
.edge:hover path { stroke: red; }
.edge:hover polygon { stroke: red; fill: red; }
]]></style>
<script type="text/javascript"><![CDATA[
var edges = document.getElementsByTagName('g');
if (edges && edges.length) {
  for (var i=0;i<edges.length;i++) {
    if (edges[i].id.substr(0,4)=='edge') {
      edges[i].setAttribute('class','edge');
    }
  }
}
]]></script>
        <defs>
                <circle id="rim" cx="0" cy="0" r="7"/>
                <circle id="rim2" cx="0" cy="0" r="3.5"/>
                <g id="zoomPlus">
                        <use xlink:href="#rim" fill="#404040">
                                <set attributeName="fill" to="#808080" begin="zoomplus.mouseover" end="zoomplus.mouseout"/>
                        </use>
                        <path d="M-4,0h8M0,-4v8" fill="none" stroke="white" stroke-width="1.5" pointer-events="none"/>
                </g>
                <g id="zoomMin">
                        <use xlink:href="#rim" fill="#404040">
                                <set attributeName="fill" to="#808080" begin="zoomminus.mouseover" end="zoomminus.mouseout"/>
                        </use>
                        <path d="M-4,0h8" fill="none" stroke="white" stroke-width="1.5" pointer-events="none"/>
                </g>
                <g id="dirArrow">
                        <path fill="none" stroke="white" stroke-width="1.5" d="M0,-3.0v7 M-2.5,-0.5L0,-3.0L2.5,-0.5"/>
                </g>
               <g id="resetDef">
                       <use xlink:href="#rim2" fill="#404040">
                               <set attributeName="fill" to="#808080" begin="reset.mouseover" end="reset.mouseout"/>
                       </use>
               </g>
        </defs>

<script type="text/javascript">
var viewWidth = 1195;
var viewHeight = 443;
var sectionId = 'dynsection-9';
</script>
<script xlink:href="../../svgpan.js"/>
<svg id="graph" class="graph">
<g id="viewport">
<title>HandleIoConnectionTimeOut</title>
<!-- Node1 -->
<g id="node1" class="node"><title>Node1</title>
<polygon fill="#bfbfbf" stroke="black" points="0,-235 0,-254 143,-254 143,-235 0,-235"/>
<text text-anchor="middle" x="71.5" y="-242" font-family="Helvetica,sans-Serif" font-size="10.00">HandleIoConnectionTimeOut</text>
</g>
<!-- Node2 -->
<g id="node2" class="node"><title>Node2</title>
<g id="a_node2"><a xlink:href="../../d5/d35/cipconnectionmanager_8c.html#ac36c68122b200d1bc99fbe9fb35a3440" target="_top" xlink:title="CheckForTimedOutConnections\lAndCloseTCPConnections">
<polygon fill="none" stroke="black" points="191.5,-371.5 191.5,-401.5 348.5,-401.5 348.5,-371.5 191.5,-371.5"/>
<text text-anchor="start" x="199.5" y="-389.5" font-family="Helvetica,sans-Serif" font-size="10.00">CheckForTimedOutConnections</text>
<text text-anchor="middle" x="270" y="-378.5" font-family="Helvetica,sans-Serif" font-size="10.00">AndCloseTCPConnections</text>
</a>
</g>
</g>
<!-- Node1&#45;&gt;Node2 -->
<g id="edge1" class="edge"><title>Node1&#45;&gt;Node2</title>
<path fill="none" stroke="midnightblue" d="M78.4093,-254.04C92.7557,-276.386 131.746,-332.421 179,-361.5 182.399,-363.592 185.976,-365.512 189.666,-367.275"/>
<polygon fill="midnightblue" stroke="midnightblue" points="188.465,-370.569 199.031,-371.34 191.252,-364.148 188.465,-370.569"/>
</g>
<!-- Node5 -->
<g id="node5" class="node"><title>Node5</title>
<g id="a_node5"><a xlink:href="../../d5/dc5/group__CIP__CALLBACK__API.html#gac9c9ad2c2254b783e7b447bd84eba8c0" target="_top" xlink:title="Inform the application on changes occurred for a connection. ">
<polygon fill="none" stroke="black" points="436,-251 436,-270 564,-270 564,-251 436,-251"/>
<text text-anchor="middle" x="500" y="-258" font-family="Helvetica,sans-Serif" font-size="10.00">CheckIoConnectionEvent</text>
</a>
</g>
</g>
<!-- Node1&#45;&gt;Node5 -->
<g id="edge4" class="edge"><title>Node1&#45;&gt;Node5</title>
<path fill="none" stroke="midnightblue" d="M143.407,-247.16C221.502,-250.09 346.47,-254.778 425.561,-257.745"/>
<polygon fill="midnightblue" stroke="midnightblue" points="425.804,-261.256 435.928,-258.134 426.066,-254.261 425.804,-261.256"/>
</g>
<!-- Node6 -->
<g id="node6" class="node"><title>Node6</title>
<g id="a_node6"><a xlink:href="../../d1/dbc/appcontype_8c.html#a333e40601eebad73b0ab423de6c0bd8c" target="_top" xlink:title="Close all connection producing the same input and have the same type (i.e., listen only or input only...">
<polygon fill="none" stroke="black" points="198,-207.5 198,-237.5 342,-237.5 342,-207.5 198,-207.5"/>
<text text-anchor="start" x="206" y="-225.5" font-family="Helvetica,sans-Serif" font-size="10.00">CloseAllConnectionsForInput</text>
<text text-anchor="middle" x="270" y="-214.5" font-family="Helvetica,sans-Serif" font-size="10.00">WithSameType</text>
</a>
</g>
</g>
<!-- Node1&#45;&gt;Node6 -->
<g id="edge5" class="edge"><title>Node1&#45;&gt;Node6</title>
<path fill="none" stroke="midnightblue" d="M143.163,-236.589C157.646,-234.967 172.999,-233.248 187.817,-231.589"/>
<polygon fill="midnightblue" stroke="midnightblue" points="188.425,-235.043 197.973,-230.452 187.646,-228.087 188.425,-235.043"/>
</g>
<!-- Node7 -->
<g id="node7" class="node"><title>Node7</title>
<g id="a_node7"><a xlink:href="../../df/d91/cipconnectionobject_8c.html#a64d3a78bd3f520b632b04697bd0b2767" target="_top" xlink:title="ConnectionObjectGetInstanceType">
<polygon fill="none" stroke="black" points="415,-210 415,-229 585,-229 585,-210 415,-210"/>
<text text-anchor="middle" x="500" y="-217" font-family="Helvetica,sans-Serif" font-size="10.00">ConnectionObjectGetInstanceType</text>
</a>
</g>
</g>
<!-- Node1&#45;&gt;Node7 -->
<g id="edge22" class="edge"><title>Node1&#45;&gt;Node7</title>
<path fill="none" stroke="midnightblue" d="M88.7717,-234.96C109.085,-223.655 145.273,-205.473 179,-198.5 272.61,-179.148 384.593,-195.199 448.199,-207.871"/>
<polygon fill="midnightblue" stroke="midnightblue" points="447.862,-211.374 458.36,-209.949 449.264,-204.516 447.862,-211.374"/>
</g>
<!-- Node8 -->
<g id="node8" class="node"><title>Node8</title>
<g id="a_node8"><a xlink:href="../../d2/dbd/encap_8c.html#a0101714be726ab1b21125b6a82ac7a56" target="_top" xlink:title="CloseEncapsulationSession\lBySockAddr">
<polygon fill="none" stroke="black" points="200.5,-119.5 200.5,-149.5 339.5,-149.5 339.5,-119.5 200.5,-119.5"/>
<text text-anchor="start" x="208.5" y="-137.5" font-family="Helvetica,sans-Serif" font-size="10.00">CloseEncapsulationSession</text>
<text text-anchor="middle" x="270" y="-126.5" font-family="Helvetica,sans-Serif" font-size="10.00">BySockAddr</text>
</a>
</g>
</g>
<!-- Node1&#45;&gt;Node8 -->
<g id="edge8" class="edge"><title>Node1&#45;&gt;Node8</title>
<path fill="none" stroke="midnightblue" d="M82.9012,-234.839C101.11,-218.371 140.498,-184.691 179,-164.5 187.141,-160.231 196.01,-156.397 204.903,-153.012"/>
<polygon fill="midnightblue" stroke="midnightblue" points="206.324,-156.219 214.528,-149.515 203.934,-149.64 206.324,-156.219"/>
</g>
<!-- Node22 -->
<g id="node22" class="node"><title>Node22</title>
<g id="a_node22"><a xlink:href="../../df/d91/cipconnectionobject_8c.html#ad61ad2b2c18480a141e5df346e32be02" target="_top" xlink:title="ConnectionObjectGetTToOConnectionType">
<polygon fill="none" stroke="black" points="397,-289 397,-308 603,-308 603,-289 397,-289"/>
<text text-anchor="middle" x="500" y="-296" font-family="Helvetica,sans-Serif" font-size="10.00">ConnectionObjectGetTToOConnectionType</text>
</a>
</g>
</g>
<!-- Node1&#45;&gt;Node22 -->
<g id="edge23" class="edge"><title>Node1&#45;&gt;Node22</title>
<path fill="none" stroke="midnightblue" d="M116.127,-254.043C135.337,-258.001 158.219,-262.386 179,-265.5 247.671,-275.789 325.117,-283.868 386.618,-289.456"/>
<polygon fill="midnightblue" stroke="midnightblue" points="386.464,-292.956 396.737,-290.366 387.091,-285.984 386.464,-292.956"/>
</g>
<!-- Node24 -->
<g id="node24" class="node"><title>Node24</title>
<g id="a_node24"><a xlink:href="../../df/d91/cipconnectionobject_8c.html#ace0a978d1b7fe59261b1024b5ba1cd15" target="_top" xlink:title="ConnectionObjectSetState">
<polygon fill="none" stroke="black" points="203.5,-81 203.5,-100 336.5,-100 336.5,-81 203.5,-81"/>
<text text-anchor="middle" x="270" y="-88" font-family="Helvetica,sans-Serif" font-size="10.00">ConnectionObjectSetState</text>
</a>
</g>
</g>
<!-- Node1&#45;&gt;Node24 -->
<g id="edge25" class="edge"><title>Node1&#45;&gt;Node24</title>
<path fill="none" stroke="midnightblue" d="M77.1616,-234.877C89.7657,-209.949 127.101,-142.963 179,-110.5 183.665,-107.582 188.699,-105.087 193.921,-102.955"/>
<polygon fill="midnightblue" stroke="midnightblue" points="195.27,-106.189 203.481,-99.4933 192.887,-99.6067 195.27,-106.189"/>
</g>
<!-- Node25 -->
<g id="node25" class="node"><title>Node25</title>
<g id="a_node25"><a xlink:href="../../d1/dbc/appcontype_8c.html#acda34462cc2d60ebb7b48a633bfe3c49" target="_top" xlink:title="check if there exists an producing multicast exclusive owner or listen only connection that should pr...">
<polygon fill="none" stroke="black" points="179,-333 179,-352 361,-352 361,-333 179,-333"/>
<text text-anchor="middle" x="270" y="-340" font-family="Helvetica,sans-Serif" font-size="10.00">GetNextNonControlMasterConnection</text>
</a>
</g>
</g>
<!-- Node1&#45;&gt;Node25 -->
<g id="edge26" class="edge"><title>Node1&#45;&gt;Node25</title>
<path fill="none" stroke="midnightblue" d="M83.511,-254.123C102,-269.807 141.004,-300.893 179,-318.5 188.998,-323.133 200.05,-327 210.886,-330.18"/>
<polygon fill="midnightblue" stroke="midnightblue" points="210.17,-333.613 220.741,-332.91 212.039,-326.868 210.17,-333.613"/>
</g>
<!-- Node3 -->
<g id="node3" class="node"><title>Node3</title>
<g id="a_node3"><a xlink:href="../../df/d91/cipconnectionobject_8c.html#a308afe67f0cfd50cc772ad276257d6f2" target="_top" xlink:title="ConnectionObjectEqualOriginator">
<polygon fill="none" stroke="black" points="419.5,-415 419.5,-434 580.5,-434 580.5,-415 419.5,-415"/>
<text text-anchor="middle" x="500" y="-422" font-family="Helvetica,sans-Serif" font-size="10.00">ConnectionObjectEqualOriginator</text>
</a>
</g>
</g>
<!-- Node2&#45;&gt;Node3 -->
<g id="edge2" class="edge"><title>Node2&#45;&gt;Node3</title>
<path fill="none" stroke="midnightblue" d="M348.509,-399.418C375.519,-403.92 405.585,-408.931 431.698,-413.283"/>
<polygon fill="midnightblue" stroke="midnightblue" points="431.433,-416.787 441.872,-414.979 432.584,-409.882 431.433,-416.787"/>
</g>
<!-- Node4 -->
<g id="node4" class="node"><title>Node4</title>
<g id="a_node4"><a xlink:href="../../df/d91/cipconnectionobject_8c.html#a9c381240583828bec2cda2d54dc94d3b" target="_top" xlink:title="ConnectionObjectGetState">
<polygon fill="none" stroke="black" points="433,-377 433,-396 567,-396 567,-377 433,-377"/>
<text text-anchor="middle" x="500" y="-384" font-family="Helvetica,sans-Serif" font-size="10.00">ConnectionObjectGetState</text>
</a>
</g>
</g>
<!-- Node2&#45;&gt;Node4 -->
<g id="edge3" class="edge"><title>Node2&#45;&gt;Node4</title>
<path fill="none" stroke="midnightblue" d="M348.509,-386.5C372.456,-386.5 398.805,-386.5 422.672,-386.5"/>
<polygon fill="midnightblue" stroke="midnightblue" points="422.735,-390 432.735,-386.5 422.735,-383 422.735,-390"/>
</g>
<!-- Node6&#45;&gt;Node5 -->
<g id="edge6" class="edge"><title>Node6&#45;&gt;Node5</title>
<path fill="none" stroke="midnightblue" d="M342.203,-234.367C370.713,-239.119 403.401,-244.567 431.528,-249.255"/>
<polygon fill="midnightblue" stroke="midnightblue" points="431.228,-252.753 441.668,-250.945 432.379,-245.848 431.228,-252.753"/>
</g>
<!-- Node6&#45;&gt;Node7 -->
<g id="edge7" class="edge"><title>Node6&#45;&gt;Node7</title>
<path fill="none" stroke="midnightblue" d="M342.203,-221.563C361.965,-221.303 383.735,-221.017 404.601,-220.742"/>
<polygon fill="midnightblue" stroke="midnightblue" points="404.806,-224.24 414.759,-220.608 404.714,-217.24 404.806,-224.24"/>
</g>
<!-- Node9 -->
<g id="node9" class="node"><title>Node9</title>
<g id="a_node9"><a xlink:href="../../d8/d60/MINGW_2opener__error_8c.html#afbc52bcd5256264e75ba063f2e361e24" target="_top" xlink:title="Gets the error number or equivalent. ">
<polygon fill="none" stroke="black" points="440.5,-166 440.5,-185 559.5,-185 559.5,-166 440.5,-166"/>
<text text-anchor="middle" x="500" y="-173" font-family="Helvetica,sans-Serif" font-size="10.00">GetSocketErrorNumber</text>
</a>
</g>
</g>
<!-- Node8&#45;&gt;Node9 -->
<g id="edge9" class="edge"><title>Node8&#45;&gt;Node9</title>
<path fill="none" stroke="midnightblue" d="M339.717,-146.857C370.345,-152.365 406.181,-158.809 436.098,-164.189"/>
<polygon fill="midnightblue" stroke="midnightblue" points="435.539,-167.644 446,-165.969 436.778,-160.755 435.539,-167.644"/>
</g>
<!-- Node10 -->
<g id="node10" class="node"><title>Node10</title>
<g id="a_node10"><a xlink:href="../../d8/d60/MINGW_2opener__error_8c.html#a0df2625909cb28076bc7df8e6c9cfcae" target="_top" xlink:title="Returns a human readable message for the given error number. ">
<polygon fill="none" stroke="black" points="453.5,-128 453.5,-147 546.5,-147 546.5,-128 453.5,-128"/>
<text text-anchor="middle" x="500" y="-135" font-family="Helvetica,sans-Serif" font-size="10.00">GetErrorMessage</text>
</a>
</g>
</g>
<!-- Node8&#45;&gt;Node10 -->
<g id="edge10" class="edge"><title>Node8&#45;&gt;Node10</title>
<path fill="none" stroke="midnightblue" d="M339.717,-135.404C372.819,-135.84 412.004,-136.355 443.225,-136.766"/>
<polygon fill="midnightblue" stroke="midnightblue" points="443.442,-140.269 453.487,-136.901 443.534,-133.27 443.442,-140.269"/>
</g>
<!-- Node11 -->
<g id="node11" class="node"><title>Node11</title>
<g id="a_node11"><a xlink:href="../../d8/d60/MINGW_2opener__error_8c.html#a99f5295ad12a2b986bab4b89a24cfc20" target="_top" xlink:title="Frees the space of the error message generated by GetErrorMessage(int) ">
<polygon fill="none" stroke="black" points="451.5,-90 451.5,-109 548.5,-109 548.5,-90 451.5,-90"/>
<text text-anchor="middle" x="500" y="-97" font-family="Helvetica,sans-Serif" font-size="10.00">FreeErrorMessage</text>
</a>
</g>
</g>
<!-- Node8&#45;&gt;Node11 -->
<g id="edge11" class="edge"><title>Node8&#45;&gt;Node11</title>
<path fill="none" stroke="midnightblue" d="M339.717,-123.951C372.112,-118.978 410.334,-113.111 441.214,-108.371"/>
<polygon fill="midnightblue" stroke="midnightblue" points="442.033,-111.786 451.386,-106.809 440.971,-104.867 442.033,-111.786"/>
</g>
<!-- Node12 -->
<g id="node12" class="node"><title>Node12</title>
<g id="a_node12"><a xlink:href="../../d2/dc9/group__CIP__API.html#ga00a23c1c86472edf2ed679089ae8efc1" target="_top" xlink:title="Inform the encapsulation layer that the remote host has closed the connection. ">
<polygon fill="none" stroke="black" points="461.5,-52 461.5,-71 538.5,-71 538.5,-52 461.5,-52"/>
<text text-anchor="middle" x="500" y="-59" font-family="Helvetica,sans-Serif" font-size="10.00">CloseSession</text>
</a>
</g>
</g>
<!-- Node8&#45;&gt;Node12 -->
<g id="edge12" class="edge"><title>Node8&#45;&gt;Node12</title>
<path fill="none" stroke="midnightblue" d="M337.555,-119.351C345.646,-116.544 353.643,-113.279 361,-109.5 379.275,-100.112 378.335,-89.0862 397,-80.5 413.826,-72.7599 433.59,-68.1723 451.218,-65.4535"/>
<polygon fill="midnightblue" stroke="midnightblue" points="451.885,-68.8947 461.312,-64.0589 450.927,-61.9605 451.885,-68.8947"/>
</g>
<!-- Node13 -->
<g id="node13" class="node"><title>Node13</title>
<g id="a_node13"><a xlink:href="../../db/d4f/generic__networkhandler_8c.html#a1bfa5ef8e4802716459a56567ee16592" target="_top" xlink:title="CloseTcpSocket">
<polygon fill="none" stroke="black" points="685.5,-79 685.5,-98 774.5,-98 774.5,-79 685.5,-79"/>
<text text-anchor="middle" x="730" y="-86" font-family="Helvetica,sans-Serif" font-size="10.00">CloseTcpSocket</text>
</a>
</g>
</g>
<!-- Node12&#45;&gt;Node13 -->
<g id="edge13" class="edge"><title>Node12&#45;&gt;Node13</title>
<path fill="none" stroke="midnightblue" d="M538.65,-65.9585C575.924,-70.3725 633.352,-77.1733 675.385,-82.1508"/>
<polygon fill="midnightblue" stroke="midnightblue" points="675.106,-85.6422 685.448,-83.3425 675.929,-78.6907 675.106,-85.6422"/>
</g>
<!-- Node20 -->
<g id="node20" class="node"><title>Node20</title>
<g id="a_node20"><a xlink:href="../../d2/dbd/encap_8c.html#aef8228e92ac17473e762d8144daca74e" target="_top" xlink:title="CloseClass3ConnectionBased\lOnSession">
<polygon fill="none" stroke="black" points="655,-19.5 655,-49.5 805,-49.5 805,-19.5 655,-19.5"/>
<text text-anchor="start" x="663" y="-37.5" font-family="Helvetica,sans-Serif" font-size="10.00">CloseClass3ConnectionBased</text>
<text text-anchor="middle" x="730" y="-26.5" font-family="Helvetica,sans-Serif" font-size="10.00">OnSession</text>
</a>
</g>
</g>
<!-- Node12&#45;&gt;Node20 -->
<g id="edge20" class="edge"><title>Node12&#45;&gt;Node20</title>
<path fill="none" stroke="midnightblue" d="M538.65,-57.0415C567.437,-53.6325 608.246,-48.7999 644.699,-44.483"/>
<polygon fill="midnightblue" stroke="midnightblue" points="645.333,-47.9325 654.852,-43.2807 644.51,-40.9811 645.333,-47.9325"/>
</g>
<!-- Node14 -->
<g id="node14" class="node"><title>Node14</title>
<g id="a_node14"><a xlink:href="../../d3/de3/MINGW_2networkhandler_8c.html#a9d64596a63648e960da4dbf475ec2e4a" target="_top" xlink:title="Platform dependent code to shutdown a stream socket. ">
<polygon fill="none" stroke="black" points="869,-126 869,-145 997,-145 997,-126 869,-126"/>
<text text-anchor="middle" x="933" y="-133" font-family="Helvetica,sans-Serif" font-size="10.00">ShutdownSocketPlatform</text>
</a>
</g>
</g>
<!-- Node13&#45;&gt;Node14 -->
<g id="edge14" class="edge"><title>Node13&#45;&gt;Node14</title>
<path fill="none" stroke="midnightblue" d="M771.675,-98.0112C803.175,-105.377 847.002,-115.625 880.873,-123.545"/>
<polygon fill="midnightblue" stroke="midnightblue" points="880.506,-127.054 891.041,-125.922 882.1,-120.237 880.506,-127.054"/>
</g>
<!-- Node15 -->
<g id="node15" class="node"><title>Node15</title>
<g id="a_node15"><a xlink:href="../../db/d4f/generic__networkhandler_8c.html#aea539a75995234e379a1c25019ba378f" target="_top" xlink:title="RemoveSocketTimerFromList">
<polygon fill="none" stroke="black" points="859.5,-88 859.5,-107 1006.5,-107 1006.5,-88 859.5,-88"/>
<text text-anchor="middle" x="933" y="-95" font-family="Helvetica,sans-Serif" font-size="10.00">RemoveSocketTimerFromList</text>
</a>
</g>
</g>
<!-- Node13&#45;&gt;Node15 -->
<g id="edge15" class="edge"><title>Node13&#45;&gt;Node15</title>
<path fill="none" stroke="midnightblue" d="M774.614,-90.4529C796.427,-91.4296 823.571,-92.645 849.142,-93.7899"/>
<polygon fill="midnightblue" stroke="midnightblue" points="849.079,-97.2905 859.226,-94.2414 849.392,-90.2975 849.079,-97.2905"/>
</g>
<!-- Node18 -->
<g id="node18" class="node"><title>Node18</title>
<g id="a_node18"><a xlink:href="../../d5/dc5/group__CIP__CALLBACK__API.html#gae04e2a3e9937e910cbcdbff0b8d6ad2b" target="_top" xlink:title="Close the given socket and clean up the stack. ">
<polygon fill="none" stroke="black" points="896.5,-50 896.5,-69 969.5,-69 969.5,-50 896.5,-50"/>
<text text-anchor="middle" x="933" y="-57" font-family="Helvetica,sans-Serif" font-size="10.00">CloseSocket</text>
</a>
</g>
</g>
<!-- Node13&#45;&gt;Node18 -->
<g id="edge18" class="edge"><title>Node13&#45;&gt;Node18</title>
<path fill="none" stroke="midnightblue" d="M774.614,-82.2074C807.574,-77.452 852.707,-70.9403 886.191,-66.1092"/>
<polygon fill="midnightblue" stroke="midnightblue" points="886.785,-69.5599 896.183,-64.6676 885.786,-62.6316 886.785,-69.5599"/>
</g>
<!-- Node16 -->
<g id="node16" class="node"><title>Node16</title>
<g id="a_node16"><a xlink:href="../../d4/df6/socket__timer_8c.html#abe7542fdec4d4e4893a8c712192529ca" target="_top" xlink:title="Get the Socket Timer entry with the spezified socket value. ">
<polygon fill="none" stroke="black" points="1045,-126.5 1045,-156.5 1187,-156.5 1187,-126.5 1045,-126.5"/>
<text text-anchor="start" x="1053" y="-144.5" font-family="Helvetica,sans-Serif" font-size="10.00">SocketTimerArrayGetSocket</text>
<text text-anchor="middle" x="1116" y="-133.5" font-family="Helvetica,sans-Serif" font-size="10.00">Timer</text>
</a>
</g>
</g>
<!-- Node15&#45;&gt;Node16 -->
<g id="edge16" class="edge"><title>Node15&#45;&gt;Node16</title>
<path fill="none" stroke="midnightblue" d="M973.274,-107.047C993.744,-112.023 1019.43,-118.267 1043.29,-124.067"/>
<polygon fill="midnightblue" stroke="midnightblue" points="1042.48,-127.473 1053.03,-126.435 1044.14,-120.671 1042.48,-127.473"/>
</g>
<!-- Node17 -->
<g id="node17" class="node"><title>Node17</title>
<g id="a_node17"><a xlink:href="../../d4/df6/socket__timer_8c.html#a6130830815ae46fe4e6d45cf89bc3506" target="_top" xlink:title="Clears a Socket Timer entry. ">
<polygon fill="none" stroke="black" points="1068.5,-88 1068.5,-107 1163.5,-107 1163.5,-88 1068.5,-88"/>
<text text-anchor="middle" x="1116" y="-95" font-family="Helvetica,sans-Serif" font-size="10.00">SocketTimerClear</text>
</a>
</g>
</g>
<!-- Node15&#45;&gt;Node17 -->
<g id="edge17" class="edge"><title>Node15&#45;&gt;Node17</title>
<path fill="none" stroke="midnightblue" d="M1006.58,-97.5C1023.68,-97.5 1041.67,-97.5 1057.98,-97.5"/>
<polygon fill="midnightblue" stroke="midnightblue" points="1058.42,-101 1068.42,-97.5 1058.42,-94.0001 1058.42,-101"/>
</g>
<!-- Node19 -->
<g id="node19" class="node"><title>Node19</title>
<g id="a_node19"><a xlink:href="../../d3/de3/MINGW_2networkhandler_8c.html#a2812ba0ecd1fd9a5549fbca397d76e3e" target="_top" xlink:title="Platform dependent code to close a socket. ">
<polygon fill="none" stroke="black" points="1061,-50 1061,-69 1171,-69 1171,-50 1061,-50"/>
<text text-anchor="middle" x="1116" y="-57" font-family="Helvetica,sans-Serif" font-size="10.00">CloseSocketPlatform</text>
</a>
</g>
</g>
<!-- Node18&#45;&gt;Node19 -->
<g id="edge19" class="edge"><title>Node18&#45;&gt;Node19</title>
<path fill="none" stroke="midnightblue" d="M969.76,-59.5C992.781,-59.5 1023.37,-59.5 1050.54,-59.5"/>
<polygon fill="midnightblue" stroke="midnightblue" points="1050.76,-63.0001 1060.76,-59.5 1050.76,-56.0001 1050.76,-63.0001"/>
</g>
<!-- Node21 -->
<g id="node21" class="node"><title>Node21</title>
<g id="a_node21"><a xlink:href="../../df/d91/cipconnectionobject_8c.html#a0f3d8e6f21712dbef3fb2e1da42f35ba" target="_top" xlink:title="ConnectionObjectGetTransport\lClassTriggerTransportClass">
<polygon fill="none" stroke="black" points="857,-0.5 857,-30.5 1009,-30.5 1009,-0.5 857,-0.5"/>
<text text-anchor="start" x="865" y="-18.5" font-family="Helvetica,sans-Serif" font-size="10.00">ConnectionObjectGetTransport</text>
<text text-anchor="middle" x="933" y="-7.5" font-family="Helvetica,sans-Serif" font-size="10.00">ClassTriggerTransportClass</text>
</a>
</g>
</g>
<!-- Node20&#45;&gt;Node21 -->
<g id="edge21" class="edge"><title>Node20&#45;&gt;Node21</title>
<path fill="none" stroke="midnightblue" d="M805.274,-27.4791C818.641,-26.2155 832.674,-24.889 846.333,-23.5979"/>
<polygon fill="midnightblue" stroke="midnightblue" points="847.062,-27.0447 856.688,-22.619 846.403,-20.0757 847.062,-27.0447"/>
</g>
<!-- Node23 -->
<g id="node23" class="node"><title>Node23</title>
<g id="a_node23"><a xlink:href="../../df/d91/cipconnectionobject_8c.html#a0da85deed56477da3ec500cec51aa46e" target="_top" xlink:title="ConnectionObjectGetConnectionType">
<polygon fill="none" stroke="black" points="639,-289 639,-308 821,-308 821,-289 639,-289"/>
<text text-anchor="middle" x="730" y="-296" font-family="Helvetica,sans-Serif" font-size="10.00">ConnectionObjectGetConnectionType</text>
</a>
</g>
</g>
<!-- Node22&#45;&gt;Node23 -->
<g id="edge24" class="edge"><title>Node22&#45;&gt;Node23</title>
<path fill="none" stroke="midnightblue" d="M603.329,-298.5C611.745,-298.5 620.247,-298.5 628.649,-298.5"/>
<polygon fill="midnightblue" stroke="midnightblue" points="628.835,-302 638.835,-298.5 628.835,-295 628.835,-302"/>
</g>
<!-- Node25&#45;&gt;Node4 -->
<g id="edge27" class="edge"><title>Node25&#45;&gt;Node4</title>
<path fill="none" stroke="midnightblue" d="M318.243,-352.01C341.881,-356.733 370.939,-362.488 397,-367.5 409.968,-369.994 423.874,-372.618 437.117,-375.093"/>
<polygon fill="midnightblue" stroke="midnightblue" points="436.616,-378.56 447.088,-376.952 437.899,-371.678 436.616,-378.56"/>
</g>
<!-- Node25&#45;&gt;Node22 -->
<g id="edge28" class="edge"><title>Node25&#45;&gt;Node22</title>
<path fill="none" stroke="midnightblue" d="M320.473,-332.953C355.429,-326.207 402.456,-317.131 439.468,-309.989"/>
<polygon fill="midnightblue" stroke="midnightblue" points="440.468,-313.36 449.624,-308.029 439.142,-306.487 440.468,-313.36"/>
</g>
<!-- Node26 -->
<g id="node26" class="node"><title>Node26</title>
<g id="a_node26"><a xlink:href="../../df/d91/cipconnectionobject_8c.html#a73b6fcd755b28c09a7fe893ba573d934" target="_top" xlink:title="ConnectionObjectIsTypeNon\lLOIOConnection">
<polygon fill="none" stroke="black" points="428.5,-327.5 428.5,-357.5 571.5,-357.5 571.5,-327.5 428.5,-327.5"/>
<text text-anchor="start" x="436.5" y="-345.5" font-family="Helvetica,sans-Serif" font-size="10.00">ConnectionObjectIsTypeNon</text>
<text text-anchor="middle" x="500" y="-334.5" font-family="Helvetica,sans-Serif" font-size="10.00">LOIOConnection</text>
</a>
</g>
</g>
<!-- Node25&#45;&gt;Node26 -->
<g id="edge29" class="edge"><title>Node25&#45;&gt;Node26</title>
<path fill="none" stroke="midnightblue" d="M361.112,-342.5C379.911,-342.5 399.618,-342.5 418.06,-342.5"/>
<polygon fill="midnightblue" stroke="midnightblue" points="418.163,-346 428.163,-342.5 418.163,-339 418.163,-346"/>
</g>
</g>
</svg>
        <g id="navigator" transform="translate(0 0)" fill="#404254">
                <rect fill="#f2f5e9" fill-opacity="0.5" stroke="#606060" stroke-width=".5" x="0" y="0" width="60" height="60"/>
                <use id="zoomplus" xlink:href="#zoomPlus" x="17" y="9" onmousedown="handleZoom(evt,'in')"/>
                <use id="zoomminus" xlink:href="#zoomMin" x="42" y="9" onmousedown="handleZoom(evt,'out')"/>
                <use id="reset" xlink:href="#resetDef" x="30" y="36" onmousedown="handleReset()"/>
                <g id="arrowUp" xlink:href="#dirArrow" transform="translate(30 24)" onmousedown="handlePan(0,-1)">
                  <use xlink:href="#rim" fill="#404040">
                        <set attributeName="fill" to="#808080" begin="arrowUp.mouseover" end="arrowUp.mouseout"/>
                  </use>
                  <path fill="none" stroke="white" stroke-width="1.5" d="M0,-3.0v7 M-2.5,-0.5L0,-3.0L2.5,-0.5"/>
                </g>
                <g id="arrowRight" xlink:href="#dirArrow" transform="rotate(90) translate(36 -43)" onmousedown="handlePan(1,0)">
                  <use xlink:href="#rim" fill="#404040">
                        <set attributeName="fill" to="#808080" begin="arrowRight.mouseover" end="arrowRight.mouseout"/>
                  </use>
                  <path fill="none" stroke="white" stroke-width="1.5" d="M0,-3.0v7 M-2.5,-0.5L0,-3.0L2.5,-0.5"/>
                </g>
                <g id="arrowDown" xlink:href="#dirArrow" transform="rotate(180) translate(-30 -48)" onmousedown="handlePan(0,1)">
                  <use xlink:href="#rim" fill="#404040">
                        <set attributeName="fill" to="#808080" begin="arrowDown.mouseover" end="arrowDown.mouseout"/>
                  </use>
                  <path fill="none" stroke="white" stroke-width="1.5" d="M0,-3.0v7 M-2.5,-0.5L0,-3.0L2.5,-0.5"/>
                </g>
                <g id="arrowLeft" xlink:href="#dirArrow" transform="rotate(270) translate(-36 17)" onmousedown="handlePan(-1,0)">
                  <use xlink:href="#rim" fill="#404040">
                        <set attributeName="fill" to="#808080" begin="arrowLeft.mouseover" end="arrowLeft.mouseout"/>
                  </use>
                  <path fill="none" stroke="white" stroke-width="1.5" d="M0,-3.0v7 M-2.5,-0.5L0,-3.0L2.5,-0.5"/>
                </g>
        </g>
        <svg viewBox="0 0 15 15" width="100%" height="30px" preserveAspectRatio="xMaxYMin meet">
         <g id="arrow_out" transform="scale(0.3 0.3)">
          <a xlink:href="cipioconnection_8c_a7e4923f4b027d489d9933b52f6fd7007_cgraph_org.svg" target="_base">
           <rect id="button" ry="5" rx="5" y="6" x="6" height="38" width="38"
                fill="#f2f5e9" fill-opacity="0.5" stroke="#606060" stroke-width="1.0"/>
           <path id="arrow"
             d="M 11.500037,31.436501 C 11.940474,20.09759 22.043105,11.32322 32.158766,21.979434 L 37.068811,17.246167 C 37.068811,17.246167 37.088388,32 37.088388,32 L 22.160133,31.978069 C 22.160133,31.978069 26.997745,27.140456 26.997745,27.140456 C 18.528582,18.264221 13.291696,25.230495 11.500037,31.436501 z"
             style="fill:#404040;"/>
          </a>
         </g>
        </svg>
</svg>
